<?xml version="1.0" encoding="UTF-8" standalone="no"?>
<!DOCTYPE svg PUBLIC "-//W3C//DTD SVG 1.1//EN"
 "http://www.w3.org/Graphics/SVG/1.1/DTD/svg11.dtd">
<!-- Generated by graphviz version 2.40.1 (20161225.0304)
 -->
<!-- Title: graphic Pages: 1 -->
<svg width="568pt" height="75pt"
 viewBox="0.00 0.00 568.00 75.00" xmlns="http://www.w3.org/2000/svg" xmlns:xlink="http://www.w3.org/1999/xlink">
<g id="graph0" class="graph" transform="scale(1 1) rotate(0) translate(4 71)">
<title>graphic</title>
<polygon fill="#ffffff" stroke="transparent" points="-4,4 -4,-71 564,-71 564,4 -4,4"/>
<!-- nc:Country -->
<g id="node1" class="node">
<title>nc:Country</title>
<text text-anchor="start" x="342" y="-51.4" font-family="Helvetica,sans-Serif" font-weight="bold" font-size="12.00" fill="#000000">nc:Country</text>
<polygon fill="none" stroke="#ff0000" stroke-width="5" points="338.5,-44 338.5,-64 409.5,-64 409.5,-44 338.5,-44"/>
</g>
<!-- nc:CountryType -->
<g id="node3" class="node">
<title>nc:CountryType</title>
<g id="a_node3_0"><a xlink:href="../../nc/CountryType/#diagram" xlink:title="A data type for a country, territory, dependency, or other such geopolitical subdivision of a location." target="_top">
<text text-anchor="start" x="473.5" y="-50.4" font-family="Helvetica,sans-Serif" font-size="12.00" fill="#000000">nc:CountryType</text>
</a>
</g>
<polygon fill="none" stroke="#000000" points="471,-45.5 471,-62.5 560,-62.5 560,-45.5 471,-45.5"/>
</g>
<!-- nc:Country&#45;&gt;nc:CountryType -->
<g id="edge2" class="edge">
<title>nc:Country&#45;&gt;nc:CountryType</title>
<path fill="none" stroke="#000000" d="M412.2919,-54C427.13,-54 444.3998,-54 460.519,-54"/>
<polygon fill="#000000" stroke="#000000" points="460.9084,-57.5001 470.9083,-54 460.9083,-50.5001 460.9084,-57.5001"/>
<text text-anchor="middle" x="441.5" y="-57.4" font-family="Helvetica,sans-Serif" font-size="12.00" fill="#000000">type</text>
</g>
<!-- Types -->
<g id="node2" class="node">
<title>Types</title>
<text text-anchor="start" x="2.5" y="-51.4" font-family="Helvetica,sans-Serif" font-weight="bold" font-size="12.00" fill="#000000">Types</text>
<g id="a_node2_1"><a xlink:href="../../im/ImmigrationBenefitMisconductDeclarationType/#diagram" xlink:title="A data type for the declarations of misconduct made by an applicant when applying for an immigration benefit" target="_top">
<polygon fill="#ebebeb" stroke="transparent" points="1.5,-31 1.5,-46 268.5,-46 268.5,-31 1.5,-31"/>
<text text-anchor="start" x="2.5" y="-35.4" font-family="Helvetica,sans-Serif" font-size="12.00" fill="#000000">im:ImmigrationBenefitMisconductDeclarationType</text>
</a>
</g>
<g id="a_node2_2"><a xlink:href="../../im/ImmigrationBenefitRequestType/#diagram" xlink:title="A data type for the request of an immigration benefit" target="_top">
<text text-anchor="start" x="2.5" y="-20.4" font-family="Helvetica,sans-Serif" font-size="12.00" fill="#000000">im:ImmigrationBenefitRequestType</text>
</a>
</g>
<g id="a_node2_3"><a xlink:href="../../im/PersonCountryAssociationType/#diagram" xlink:title="A data type for an association between a person and a country." target="_top">
<polygon fill="#ebebeb" stroke="transparent" points="1.5,-1 1.5,-16 268.5,-16 268.5,-1 1.5,-1"/>
<text text-anchor="start" x="2.5" y="-5.4" font-family="Helvetica,sans-Serif" font-size="12.00" fill="#000000">im:PersonCountryAssociationType</text>
</a>
</g>
<polygon fill="#000000" stroke="#000000" points=".5,-46 .5,-46 269.5,-46 269.5,-46 .5,-46"/>
<polygon fill="none" stroke="#000000" points="0,0 0,-62 269,-62 269,0 0,0"/>
</g>
<!-- Types&#45;&gt;nc:Country -->
<g id="edge1" class="edge">
<title>Types:top&#45;&gt;nc:Country</title>
<path fill="none" stroke="#000000" d="M268.5,-54C287.1794,-54 307.7192,-54 325.6726,-54"/>
<polygon fill="#000000" stroke="#000000" points="325.9109,-57.5001 335.9108,-54 325.9108,-50.5001 325.9109,-57.5001"/>
<text text-anchor="middle" x="302.5" y="-57.4" font-family="Helvetica,sans-Serif" font-size="12.00" fill="#000000">has&#45;a</text>
</g>
</g>
</svg>
