<?xml version="1.0" encoding="UTF-8" standalone="no"?>
<!DOCTYPE svg PUBLIC "-//W3C//DTD SVG 1.1//EN"
 "http://www.w3.org/Graphics/SVG/1.1/DTD/svg11.dtd">
<!-- Generated by graphviz version 2.40.1 (20161225.0304)
 -->
<!-- Title: graphic Pages: 1 -->
<svg width="703pt" height="184pt"
 viewBox="0.00 0.00 703.00 183.50" xmlns="http://www.w3.org/2000/svg" xmlns:xlink="http://www.w3.org/1999/xlink">
<g id="graph0" class="graph" transform="scale(1 1) rotate(0) translate(4 179.5)">
<title>graphic</title>
<polygon fill="#ffffff" stroke="transparent" points="-4,4 -4,-179.5 699,-179.5 699,4 -4,4"/>
<!-- j:ActivityChargeAssociationType -->
<g id="node1" class="node">
<title>j:ActivityChargeAssociationType</title>
<text text-anchor="start" x="214" y="-55.4" font-family="Helvetica,sans-Serif" font-weight="bold" font-size="12.00" fill="#000000">j:ActivityChargeAssociationType</text>
<g id="a_node1_0"><a xlink:href="../../nc/Activity/#diagram" xlink:title="A single or set of related actions, events, or process steps." target="_top">
<polygon fill="#ebebeb" stroke="transparent" points="213,-35 213,-50 489,-50 489,-35 213,-35"/>
<text text-anchor="start" x="214" y="-39.4" font-family="Helvetica,sans-Serif" font-size="12.00" fill="#000000">nc:Activity: nc:ActivityType [0&#45;n]</text>
</a>
</g>
<g id="a_node1_1"><a xlink:href="../../j/Charge/#diagram" xlink:title="A formal allegation that a specific person has committed a specific offense." target="_top">
<text text-anchor="start" x="214" y="-24.4" font-family="Helvetica,sans-Serif" font-size="12.00" fill="#000000">j:Charge: j:ChargeType [0&#45;n]</text>
</a>
</g>
<g id="a_node1_2"><a xlink:href="../../j/ActivityChargeAssociationAugmentationPoint/#diagram" xlink:title="An augmentation point for ActivityChargeAssociationType." target="_top">
<polygon fill="#ebebeb" stroke="transparent" points="213,-5 213,-20 489,-20 489,-5 213,-5"/>
<text text-anchor="start" x="214" y="-9.4" font-family="Helvetica,sans-Serif" font-size="12.00" fill="#000000">j:ActivityChargeAssociationAugmentationPoint [0&#45;n]</text>
</a>
</g>
<polygon fill="#ff0000" stroke="#ff0000" points="208,-50 208,-50 494,-50 494,-50 208,-50"/>
<polygon fill="none" stroke="#ff0000" stroke-width="5" points="210.5,-2.5 210.5,-67.5 491.5,-67.5 491.5,-2.5 210.5,-2.5"/>
</g>
<!-- subst_d9e22338 -->
<g id="node2" class="node">
<title>subst_d9e22338</title>
<g id="a_node2_3"><a xlink:href="../../j/Charge/#diagram" xlink:title="&lt;TABLE&gt;" target="_top">
<text text-anchor="start" x="533" y="-24.4" font-family="Helvetica,sans-Serif" font-weight="bold" font-size="12.00" fill="#000000">Substitution group j:Charge</text>
</a>
</g>
<g id="a_node2_4"><a xlink:href="../../hs/Allegation/#diagram" xlink:title="A formal allegation that a specific person has abused or neglected a child." target="_top">
<polygon fill="#ebebeb" stroke="transparent" points="532,-4 532,-19 694,-19 694,-4 532,-4"/>
<text text-anchor="start" x="533" y="-8.4" font-family="Helvetica,sans-Serif" font-size="12.00" fill="#000000">hs:Allegation: j:ChargeType</text>
</a>
</g>
<polygon fill="#000000" stroke="#000000" points="531,-19 531,-19 695,-19 695,-19 531,-19"/>
<polygon fill="none" stroke="#000000" points="531,-3 531,-35 695,-35 695,-3 531,-3"/>
</g>
<!-- j:ActivityChargeAssociationType&#45;&gt;subst_d9e22338 -->
<g id="edge1" class="edge">
<title>j:ActivityChargeAssociationType:e&#45;&gt;subst_d9e22338:w</title>
<path fill="none" stroke="#000000" d="M499.1119,-27C510.6435,-27 516.7708,-27 532,-27"/>
<polygon fill="#000000" stroke="#000000" points="499,-23.5001 489,-27 499,-30.5001 499,-23.5001"/>
</g>
<!-- Properties -->
<g id="node3" class="node">
<title>Properties</title>
<text text-anchor="start" x="2.5" y="-55.4" font-family="Helvetica,sans-Serif" font-weight="bold" font-size="12.00" fill="#000000">Properties</text>
<g id="a_node3_5"><a xlink:href="../../j/ActivityChargeAssociation/#diagram" xlink:title="An association between an activity and a charge." target="_top">
<polygon fill="#ebebeb" stroke="transparent" points="1.5,-35 1.5,-50 148.5,-50 148.5,-35 1.5,-35"/>
<text text-anchor="start" x="2.5" y="-39.4" font-family="Helvetica,sans-Serif" font-size="12.00" fill="#000000">j:ActivityChargeAssociation</text>
</a>
</g>
<polygon fill="#000000" stroke="#000000" points=".5,-50 .5,-50 149.5,-50 149.5,-50 .5,-50"/>
<polygon fill="none" stroke="#000000" points="0,-34 0,-66 149,-66 149,-34 0,-34"/>
</g>
<!-- Properties&#45;&gt;j:ActivityChargeAssociationType -->
<g id="edge2" class="edge">
<title>Properties:top&#45;&gt;j:ActivityChargeAssociationType:top</title>
<path fill="none" stroke="#000000" d="M148.5,-58C173.4714,-58 182.1284,-58 202.8937,-58"/>
<polygon fill="#000000" stroke="#000000" points="203,-61.5001 213,-58 203,-54.5001 203,-61.5001"/>
<text text-anchor="middle" x="178.5" y="-61.4" font-family="Helvetica,sans-Serif" font-size="12.00" fill="#000000">type</text>
</g>
<!-- nc:AssociationType -->
<g id="node4" class="node">
<title>nc:AssociationType</title>
<g id="a_node4_6"><a xlink:href="../../nc/AssociationType/#diagram" xlink:title="A data type for an association, connection, relationship, or involvement somehow linking people, things, and/or activities together." target="_top">
<text text-anchor="start" x="299" y="-110.4" font-family="Helvetica,sans-Serif" font-size="12.00" fill="#000000">nc:AssociationType</text>
</a>
</g>
<polygon fill="none" stroke="#000000" points="296.5,-105.5 296.5,-122.5 405.5,-122.5 405.5,-105.5 296.5,-105.5"/>
</g>
<!-- nc:AssociationType&#45;&gt;j:ActivityChargeAssociationType -->
<g id="edge3" class="edge">
<title>nc:AssociationType&#45;&gt;j:ActivityChargeAssociationType</title>
<path fill="none" stroke="#000000" d="M351,-105.4117C351,-99.1025 351,-89.9911 351,-80.4049"/>
<polygon fill="#000000" stroke="#000000" points="354.5001,-80.3408 351,-70.3408 347.5001,-80.3409 354.5001,-80.3408"/>
<text text-anchor="middle" x="341.5" y="-84.65" font-family="Helvetica,sans-Serif" font-size="12.00" fill="#000000">extension</text>
</g>
<!-- structures:AssociationType -->
<g id="node5" class="node">
<title>structures:AssociationType</title>
<g id="a_node5_7"><a xlink:href="../../structures/AssociationType/#diagram" xlink:title="A data type for a relationship between two or more objects, including any properties of that relationship." target="_top">
<text text-anchor="start" x="279" y="-163.4" font-family="Helvetica,sans-Serif" font-size="12.00" fill="#000000">structures:AssociationType</text>
</a>
</g>
<polygon fill="none" stroke="#000000" points="276.5,-158.5 276.5,-175.5 425.5,-175.5 425.5,-158.5 276.5,-158.5"/>
</g>
<!-- structures:AssociationType&#45;&gt;nc:AssociationType -->
<g id="edge4" class="edge">
<title>structures:AssociationType&#45;&gt;nc:AssociationType</title>
<path fill="none" stroke="#000000" d="M351,-158.411C351,-151.5124 351,-141.5696 351,-132.84"/>
<polygon fill="#000000" stroke="#000000" points="354.5001,-132.7518 351,-122.7519 347.5001,-132.7519 354.5001,-132.7518"/>
<text text-anchor="middle" x="341.5" y="-137.4" font-family="Helvetica,sans-Serif" font-size="12.00" fill="#000000">extension</text>
</g>
</g>
</svg>
