<?xml version="1.0" encoding="UTF-8" standalone="no"?>
<!DOCTYPE svg PUBLIC "-//W3C//DTD SVG 1.1//EN"
 "http://www.w3.org/Graphics/SVG/1.1/DTD/svg11.dtd">
<!-- Generated by graphviz version 2.40.1 (20161225.0304)
 -->
<!-- Title: graphic Pages: 1 -->
<svg width="425pt" height="128pt"
 viewBox="0.00 0.00 425.00 127.50" xmlns="http://www.w3.org/2000/svg" xmlns:xlink="http://www.w3.org/1999/xlink">
<g id="graph0" class="graph" transform="scale(1 1) rotate(0) translate(4 123.5)">
<title>graphic</title>
<polygon fill="#ffffff" stroke="transparent" points="-4,4 -4,-123.5 421,-123.5 421,4 -4,4"/>
<!-- j:PanelType -->
<g id="node1" class="node">
<title>j:PanelType</title>
<text text-anchor="start" x="188.5" y="-51.4" font-family="Helvetica,sans-Serif" font-weight="bold" font-size="12.00" fill="#000000">j:PanelType</text>
<g id="a_node1_0"><a xlink:href="../../j/PanelMember/#diagram" xlink:title="A person who is a member of a panel." target="_top">
<polygon fill="#ebebeb" stroke="transparent" points="187.5,-31 187.5,-46 412.5,-46 412.5,-31 187.5,-31"/>
<text text-anchor="start" x="188.5" y="-35.4" font-family="Helvetica,sans-Serif" font-size="12.00" fill="#000000">j:PanelMember: j:PanelMemberType [0&#45;n]</text>
</a>
</g>
<g id="a_node1_1"><a xlink:href="../../j/PanelAugmentationPoint/#diagram" xlink:title="An augmentation point for type j:PanelType" target="_top">
<text text-anchor="start" x="188.5" y="-20.4" font-family="Helvetica,sans-Serif" font-size="12.00" fill="#000000">j:PanelAugmentationPoint [0&#45;n]</text>
</a>
</g>
<polygon fill="#ff0000" stroke="#ff0000" points="182.5,-46 182.5,-46 417.5,-46 417.5,-46 182.5,-46"/>
<polygon fill="none" stroke="#ff0000" stroke-width="5" points="184.5,-14 184.5,-64 414.5,-64 414.5,-14 184.5,-14"/>
</g>
<!-- Properties -->
<g id="node2" class="node">
<title>Properties</title>
<text text-anchor="start" x="2.5" y="-51.4" font-family="Helvetica,sans-Serif" font-weight="bold" font-size="12.00" fill="#000000">Properties</text>
<g id="a_node2_2"><a xlink:href="../../j/HearingPanel/#diagram" xlink:title="A group of officials assembled for determining a hearing decision." target="_top">
<polygon fill="#ebebeb" stroke="transparent" points="1.5,-31 1.5,-46 122.5,-46 122.5,-31 1.5,-31"/>
<text text-anchor="start" x="2.5" y="-35.4" font-family="Helvetica,sans-Serif" font-size="12.00" fill="#000000">j:HearingPanel</text>
</a>
</g>
<g id="a_node2_3"><a xlink:href="../../j/IncidentReviewPanel/#diagram" xlink:title="A group of officials assembled for managing or reviewing an incident." target="_top">
<text text-anchor="start" x="2.5" y="-20.4" font-family="Helvetica,sans-Serif" font-size="12.00" fill="#000000">j:IncidentReviewPanel</text>
</a>
</g>
<g id="a_node2_4"><a xlink:href="../../j/Panel/#diagram" xlink:title="A small group of people brought together to discuss, investigate, or decide on a particular matter, especially in the context of business or government." target="_top">
<polygon fill="#ebebeb" stroke="transparent" points="1.5,-1 1.5,-16 122.5,-16 122.5,-1 1.5,-1"/>
<text text-anchor="start" x="2.5" y="-5.4" font-family="Helvetica,sans-Serif" font-size="12.00" fill="#000000">j:Panel</text>
</a>
</g>
<polygon fill="#000000" stroke="#000000" points=".5,-46 .5,-46 123.5,-46 123.5,-46 .5,-46"/>
<polygon fill="none" stroke="#000000" points="0,0 0,-62 123,-62 123,0 0,0"/>
</g>
<!-- Properties&#45;&gt;j:PanelType -->
<g id="edge1" class="edge">
<title>Properties:top&#45;&gt;j:PanelType:top</title>
<path fill="none" stroke="#000000" d="M122.5,-54C147.6649,-54 156.3891,-54 177.3154,-54"/>
<polygon fill="#000000" stroke="#000000" points="177.5,-57.5001 187.5,-54 177.5,-50.5001 177.5,-57.5001"/>
<text text-anchor="middle" x="152.5" y="-57.4" font-family="Helvetica,sans-Serif" font-size="12.00" fill="#000000">type</text>
</g>
<!-- structures:ObjectType -->
<g id="node3" class="node">
<title>structures:ObjectType</title>
<g id="a_node3_5"><a xlink:href="../../structures/ObjectType/#diagram" xlink:title="A data type for a thing with its own lifespan that has some existence." target="_top">
<text text-anchor="start" x="240.5" y="-107.4" font-family="Helvetica,sans-Serif" font-size="12.00" fill="#000000">structures:ObjectType</text>
</a>
</g>
<polygon fill="none" stroke="#000000" points="238.5,-102.5 238.5,-119.5 360.5,-119.5 360.5,-102.5 238.5,-102.5"/>
</g>
<!-- structures:ObjectType&#45;&gt;j:PanelType -->
<g id="edge2" class="edge">
<title>structures:ObjectType&#45;&gt;j:PanelType</title>
<path fill="none" stroke="#000000" d="M299.5,-102.3151C299.5,-95.8271 299.5,-86.4677 299.5,-76.9273"/>
<polygon fill="#000000" stroke="#000000" points="303.0001,-76.6311 299.5,-66.6312 296.0001,-76.6312 303.0001,-76.6311"/>
<text text-anchor="middle" x="290" y="-81.4" font-family="Helvetica,sans-Serif" font-size="12.00" fill="#000000">extension</text>
</g>
</g>
</svg>
