<?xml version="1.0" encoding="UTF-8" standalone="no"?>
<!DOCTYPE svg PUBLIC "-//W3C//DTD SVG 1.1//EN"
 "http://www.w3.org/Graphics/SVG/1.1/DTD/svg11.dtd">
<!-- Generated by graphviz version 2.40.1 (20161225.0304)
 -->
<!-- Title: graphic Pages: 1 -->
<svg width="515pt" height="45pt"
 viewBox="0.00 0.00 515.00 45.00" xmlns="http://www.w3.org/2000/svg" xmlns:xlink="http://www.w3.org/1999/xlink">
<g id="graph0" class="graph" transform="scale(1 1) rotate(0) translate(4 41)">
<title>graphic</title>
<polygon fill="#ffffff" stroke="transparent" points="-4,4 -4,-41 511,-41 511,4 -4,4"/>
<!-- cbrn:CaseStartDateTime -->
<g id="node1" class="node">
<title>cbrn:CaseStartDateTime</title>
<text text-anchor="start" x="201.5" y="-21.4" font-family="Helvetica,sans-Serif" font-weight="bold" font-size="12.00" fill="#000000">cbrn:CaseStartDateTime</text>
<polygon fill="none" stroke="#ff0000" stroke-width="5" points="197.5,-14 197.5,-34 345.5,-34 345.5,-14 197.5,-14"/>
</g>
<!-- niem&#45;xs:dateTime -->
<g id="node3" class="node">
<title>niem&#45;xs:dateTime</title>
<g id="a_node3_0"><a xlink:href="../../niem-xs/dateTime/#diagram" xlink:title="A data type for objects with integer&#45;valued year, month, day, hour and minute properties, a decimal&#45;valued second property, and a boolean timezoned property." target="_top">
<text text-anchor="start" x="409" y="-20.4" font-family="Helvetica,sans-Serif" font-size="12.00" fill="#000000">niem&#45;xs:dateTime</text>
</a>
</g>
<polygon fill="none" stroke="#000000" points="407,-15.5 407,-32.5 507,-32.5 507,-15.5 407,-15.5"/>
</g>
<!-- cbrn:CaseStartDateTime&#45;&gt;niem&#45;xs:dateTime -->
<g id="edge2" class="edge">
<title>cbrn:CaseStartDateTime&#45;&gt;niem&#45;xs:dateTime</title>
<path fill="none" stroke="#000000" d="M348.0209,-24C364.3126,-24 381.2939,-24 396.8688,-24"/>
<polygon fill="#000000" stroke="#000000" points="396.8794,-27.5001 406.8793,-24 396.8793,-20.5001 396.8794,-27.5001"/>
<text text-anchor="middle" x="377.5" y="-27.4" font-family="Helvetica,sans-Serif" font-size="12.00" fill="#000000">type</text>
</g>
<!-- Types -->
<g id="node2" class="node">
<title>Types</title>
<text text-anchor="start" x="2" y="-21.4" font-family="Helvetica,sans-Serif" font-weight="bold" font-size="12.00" fill="#000000">Types</text>
<g id="a_node2_1"><a xlink:href="../../cbrn/CBRNECaseType/#diagram" xlink:title="A data type for an aggregation of information about activities and events associated with detection and interdiction of CBRNE threats." target="_top">
<polygon fill="#ebebeb" stroke="transparent" points="1,-1 1,-16 127,-16 127,-1 1,-1"/>
<text text-anchor="start" x="2" y="-5.4" font-family="Helvetica,sans-Serif" font-size="12.00" fill="#000000">cbrn:CBRNECaseType</text>
</a>
</g>
<polygon fill="#000000" stroke="#000000" points="0,-16 0,-16 128,-16 128,-16 0,-16"/>
<polygon fill="none" stroke="#000000" points="0,0 0,-32 128,-32 128,0 0,0"/>
</g>
<!-- Types&#45;&gt;cbrn:CaseStartDateTime -->
<g id="edge1" class="edge">
<title>Types:top&#45;&gt;cbrn:CaseStartDateTime</title>
<path fill="none" stroke="#000000" d="M127,-24C145.6069,-24 165.5615,-24 184.5209,-24"/>
<polygon fill="#000000" stroke="#000000" points="184.6333,-27.5001 194.6333,-24 184.6333,-20.5001 184.6333,-27.5001"/>
<text text-anchor="middle" x="161.5" y="-27.4" font-family="Helvetica,sans-Serif" font-size="12.00" fill="#000000">has&#45;a</text>
</g>
</g>
</svg>
