<?xml version="1.0" encoding="UTF-8" standalone="no"?>
<!DOCTYPE svg PUBLIC "-//W3C//DTD SVG 1.1//EN"
 "http://www.w3.org/Graphics/SVG/1.1/DTD/svg11.dtd">
<!-- Generated by graphviz version 2.40.1 (20161225.0304)
 -->
<!-- Title: graphic Pages: 1 -->
<svg width="481pt" height="237pt"
 viewBox="0.00 0.00 481.00 236.50" xmlns="http://www.w3.org/2000/svg" xmlns:xlink="http://www.w3.org/1999/xlink">
<g id="graph0" class="graph" transform="scale(1 1) rotate(0) translate(4 232.5)">
<title>graphic</title>
<polygon fill="#ffffff" stroke="transparent" points="-4,4 -4,-232.5 477,-232.5 477,4 -4,4"/>
<!-- nc:StateRepresentation -->
<g id="node1" class="node">
<title>nc:StateRepresentation</title>
<text text-anchor="start" x="240.5" y="-212.9" font-family="Helvetica,sans-Serif" font-weight="bold" font-size="12.00" fill="#000000">nc:StateRepresentation</text>
<polygon fill="none" stroke="#ff0000" stroke-width="5" points="236.5,-205.5 236.5,-225.5 378.5,-225.5 378.5,-205.5 236.5,-205.5"/>
</g>
<!-- SubstitutableElements -->
<g id="node3" class="node">
<title>SubstitutableElements</title>
<text text-anchor="start" x="144.5" y="-155.9" font-family="Helvetica,sans-Serif" font-weight="bold" font-size="12.00" fill="#000000">Substitutable elements</text>
<g id="a_node3_0"><a xlink:href="../../can/ProvinceCode/#diagram" xlink:title="A province or territory in Canada." target="_top">
<polygon fill="#ebebeb" stroke="transparent" points="143.5,-135.5 143.5,-150.5 472.5,-150.5 472.5,-135.5 143.5,-135.5"/>
<text text-anchor="start" x="144.5" y="-139.9" font-family="Helvetica,sans-Serif" font-size="12.00" fill="#000000">can:ProvinceCode: can:CanadianProvinceCodeType</text>
</a>
</g>
<g id="a_node3_1"><a xlink:href="../../fips/StateCode/#diagram" xlink:title="A state, commonwealth, province, or other such geopolitical subdivision of a country." target="_top">
<text text-anchor="start" x="144.5" y="-124.9" font-family="Helvetica,sans-Serif" font-size="12.00" fill="#000000">fips:StateCode: fips:USStateNumericCodeType</text>
</a>
</g>
<g id="a_node3_2"><a xlink:href="../../genc/StateCode/#diagram" xlink:title="A state, commonwealth, province, or other such geopolitical subdivision of a country." target="_top">
<polygon fill="#ebebeb" stroke="transparent" points="143.5,-105.5 143.5,-120.5 472.5,-120.5 472.5,-105.5 143.5,-105.5"/>
<text text-anchor="start" x="144.5" y="-109.9" font-family="Helvetica,sans-Serif" font-size="12.00" fill="#000000">genc:StateCode: genc:CountrySubdivisionCodeType</text>
</a>
</g>
<g id="a_node3_3"><a xlink:href="../../iso_3166/StateCode/#diagram" xlink:title="A state, commonwealth, province, or other such geopolitical subdivision of a country." target="_top">
<text text-anchor="start" x="144.5" y="-94.9" font-family="Helvetica,sans-Serif" font-size="12.00" fill="#000000">iso_3166:StateCode: iso_3166:CountrySubdivisionCodeType</text>
</a>
</g>
<g id="a_node3_4"><a xlink:href="../../usps/StateCode/#diagram" xlink:title="A state, commonwealth, province, or other such geopolitical subdivision of a country." target="_top">
<polygon fill="#ebebeb" stroke="transparent" points="143.5,-75.5 143.5,-90.5 472.5,-90.5 472.5,-75.5 143.5,-75.5"/>
<text text-anchor="start" x="144.5" y="-79.9" font-family="Helvetica,sans-Serif" font-size="12.00" fill="#000000">usps:StateCode: usps:USStateCodeType</text>
</a>
</g>
<g id="a_node3_5"><a xlink:href="../../it/StateIdentification/#diagram" xlink:title="An identification of a country subdivision." target="_top">
<text text-anchor="start" x="144.5" y="-64.9" font-family="Helvetica,sans-Serif" font-size="12.00" fill="#000000">it:StateIdentification: nc:IdentificationType</text>
</a>
</g>
<g id="a_node3_6"><a xlink:href="../../j/StateIndianNationCode/#diagram" xlink:title="An American Indian nation." target="_top">
<polygon fill="#ebebeb" stroke="transparent" points="143.5,-45.5 143.5,-60.5 472.5,-60.5 472.5,-45.5 143.5,-45.5"/>
<text text-anchor="start" x="144.5" y="-49.9" font-family="Helvetica,sans-Serif" font-size="12.00" fill="#000000">j:StateIndianNationCode: ncic:IndianCodeType</text>
</a>
</g>
<g id="a_node3_7"><a xlink:href="../../j/StateMexicoCode/#diagram" xlink:title="A state in Mexico." target="_top">
<text text-anchor="start" x="144.5" y="-34.9" font-family="Helvetica,sans-Serif" font-size="12.00" fill="#000000">j:StateMexicoCode: ncic:MexicanCodeType</text>
</a>
</g>
<g id="a_node3_8"><a xlink:href="../../nc/StateCode/#diagram" xlink:title="A state, commonwealth, province, or other such geopolitical subdivision of a country." target="_top">
<polygon fill="#ebebeb" stroke="transparent" points="143.5,-15.5 143.5,-30.5 472.5,-30.5 472.5,-15.5 143.5,-15.5"/>
<text text-anchor="start" x="144.5" y="-19.9" font-family="Helvetica,sans-Serif" font-size="12.00" fill="#000000">nc:StateCode: nc:CodeType</text>
</a>
</g>
<g id="a_node3_9"><a xlink:href="../../nc/StateName/#diagram" xlink:title="A name of a state, commonwealth, province, or other such geopolitical subdivision of a country." target="_top">
<text text-anchor="start" x="144.5" y="-4.9" font-family="Helvetica,sans-Serif" font-size="12.00" fill="#000000">nc:StateName: nc:ProperNameTextType</text>
</a>
</g>
<polygon fill="#000000" stroke="#000000" points="142.5,-150.5 142.5,-150.5 473.5,-150.5 473.5,-150.5 142.5,-150.5"/>
<polygon fill="none" stroke="#000000" points="142,0 142,-167 473,-167 473,0 142,0"/>
</g>
<!-- nc:StateRepresentation&#45;&gt;SubstitutableElements -->
<g id="edge2" class="edge">
<title>nc:StateRepresentation&#45;&gt;SubstitutableElements</title>
<path fill="none" stroke="#000000" d="M307.5,-192.5328C307.5,-185.0842 307.5,-176.3392 307.5,-167.0976"/>
<polygon fill="#000000" stroke="#000000" points="304.0001,-192.7383 307.5,-202.7384 311.0001,-192.7384 304.0001,-192.7383"/>
<text text-anchor="middle" x="298" y="-181.9" font-family="Helvetica,sans-Serif" font-size="12.00" fill="#000000">substitutable for</text>
</g>
<!-- Types -->
<g id="node2" class="node">
<title>Types</title>
<text text-anchor="start" x="2.5" y="-212.9" font-family="Helvetica,sans-Serif" font-weight="bold" font-size="12.00" fill="#000000">Types</text>
<g id="a_node2_10"><a xlink:href="../../nc/StateType/#diagram" xlink:title="A data type for a state, commonwealth, province, or other such geopolitical subdivision of a country." target="_top">
<polygon fill="#ebebeb" stroke="transparent" points="1.5,-192.5 1.5,-207.5 74.5,-207.5 74.5,-192.5 1.5,-192.5"/>
<text text-anchor="start" x="2.5" y="-196.9" font-family="Helvetica,sans-Serif" font-size="12.00" fill="#000000">nc:StateType</text>
</a>
</g>
<polygon fill="#000000" stroke="#000000" points=".5,-207.5 .5,-207.5 75.5,-207.5 75.5,-207.5 .5,-207.5"/>
<polygon fill="none" stroke="#000000" points="0,-191.5 0,-223.5 75,-223.5 75,-191.5 0,-191.5"/>
</g>
<!-- Types&#45;&gt;nc:StateRepresentation -->
<g id="edge1" class="edge">
<title>Types:top&#45;&gt;nc:StateRepresentation</title>
<path fill="none" stroke="#000000" d="M74.5,-215.5C123.9433,-215.5 179.2884,-215.5 223.6282,-215.5"/>
<polygon fill="#000000" stroke="#000000" points="223.7815,-219.0001 233.7814,-215.5 223.7814,-212.0001 223.7815,-219.0001"/>
<text text-anchor="middle" x="108.5" y="-218.9" font-family="Helvetica,sans-Serif" font-size="12.00" fill="#000000">has&#45;a</text>
</g>
</g>
</svg>
