<?xml version="1.0" encoding="UTF-8" standalone="no"?>
<!DOCTYPE svg PUBLIC "-//W3C//DTD SVG 1.1//EN"
 "http://www.w3.org/Graphics/SVG/1.1/DTD/svg11.dtd">
<!-- Generated by graphviz version 2.40.1 (20161225.0304)
 -->
<!-- Title: graphic Pages: 1 -->
<svg width="428pt" height="154pt"
 viewBox="0.00 0.00 428.00 153.50" xmlns="http://www.w3.org/2000/svg" xmlns:xlink="http://www.w3.org/1999/xlink">
<g id="graph0" class="graph" transform="scale(1 1) rotate(0) translate(4 149.5)">
<title>graphic</title>
<polygon fill="#ffffff" stroke="transparent" points="-4,4 -4,-149.5 424,-149.5 424,4 -4,4"/>
<!-- biom:PlantarPositionCodeType -->
<g id="node1" class="node">
<title>biom:PlantarPositionCodeType</title>
<text text-anchor="start" x="208" y="-25.4" font-family="Helvetica,sans-Serif" font-weight="bold" font-size="12.00" fill="#000000">biom:PlantarPositionCodeType</text>
<g id="a_node1_0"><a xlink:href="../../structures/SimpleObjectAttributeGroup/#diagram" xlink:title="A group of attributes that are applicable to objects, to be used when defining a complex type that is an extension of a simple type." target="_top">
<polygon fill="#ebebeb" stroke="transparent" points="207,-5 207,-20 415,-20 415,-5 207,-5"/>
<text text-anchor="start" x="208" y="-9.4" font-family="Helvetica,sans-Serif" font-size="12.00" fill="#000000">structures:SimpleObjectAttributeGroup</text>
</a>
</g>
<polygon fill="#ff0000" stroke="#ff0000" points="202,-20 202,-20 420,-20 420,-20 202,-20"/>
<polygon fill="none" stroke="#ff0000" stroke-width="5" points="204.5,-2.5 204.5,-37.5 417.5,-37.5 417.5,-2.5 204.5,-2.5"/>
</g>
<!-- Properties -->
<g id="node2" class="node">
<title>Properties</title>
<text text-anchor="start" x="2.5" y="-25.4" font-family="Helvetica,sans-Serif" font-weight="bold" font-size="12.00" fill="#000000">Properties</text>
<g id="a_node2_1"><a xlink:href="../../biom/PlantarPositionCode/#diagram" xlink:title="A location on the foot that a print represents" target="_top">
<polygon fill="#ebebeb" stroke="transparent" points="1.5,-5 1.5,-20 142.5,-20 142.5,-5 1.5,-5"/>
<text text-anchor="start" x="2.5" y="-9.4" font-family="Helvetica,sans-Serif" font-size="12.00" fill="#000000">biom:PlantarPositionCode</text>
</a>
</g>
<polygon fill="#000000" stroke="#000000" points=".5,-20 .5,-20 143.5,-20 143.5,-20 .5,-20"/>
<polygon fill="none" stroke="#000000" points="0,-4 0,-36 143,-36 143,-4 0,-4"/>
</g>
<!-- Properties&#45;&gt;biom:PlantarPositionCodeType -->
<g id="edge1" class="edge">
<title>Properties:top&#45;&gt;biom:PlantarPositionCodeType:top</title>
<path fill="none" stroke="#000000" d="M142.5,-28C167.4714,-28 176.1284,-28 196.8937,-28"/>
<polygon fill="#000000" stroke="#000000" points="197,-31.5001 207,-28 197,-24.5001 197,-31.5001"/>
<text text-anchor="middle" x="172.5" y="-31.4" font-family="Helvetica,sans-Serif" font-size="12.00" fill="#000000">type</text>
</g>
<!-- biom:PlantarPositionCodeSimpleType -->
<g id="node3" class="node">
<title>biom:PlantarPositionCodeSimpleType</title>
<g id="a_node3_2"><a xlink:href="../../biom/PlantarPositionCodeSimpleType/#diagram" xlink:title="A data type for a foot position" target="_top">
<text text-anchor="start" x="210" y="-80.4" font-family="Helvetica,sans-Serif" font-size="12.00" fill="#000000">biom:PlantarPositionCodeSimpleType</text>
</a>
</g>
<polygon fill="none" stroke="#000000" points="207.5,-75.5 207.5,-92.5 414.5,-92.5 414.5,-75.5 207.5,-75.5"/>
</g>
<!-- biom:PlantarPositionCodeSimpleType&#45;&gt;biom:PlantarPositionCodeType -->
<g id="edge2" class="edge">
<title>biom:PlantarPositionCodeSimpleType&#45;&gt;biom:PlantarPositionCodeType</title>
<path fill="none" stroke="#000000" d="M311,-75.4351C311,-68.931 311,-59.5678 311,-50.3827"/>
<polygon fill="#000000" stroke="#000000" points="314.5001,-50.25 311,-40.25 307.5001,-50.25 314.5001,-50.25"/>
<text text-anchor="middle" x="301.5" y="-54.65" font-family="Helvetica,sans-Serif" font-size="12.00" fill="#000000">extension</text>
</g>
<!-- xs:integer -->
<g id="node4" class="node">
<title>xs:integer</title>
<g id="a_node4_3"><a xlink:href="../../xs/integer/#diagram" xlink:title="&lt;TABLE&gt;" target="_top">
<text text-anchor="start" x="285" y="-133.4" font-family="Helvetica,sans-Serif" font-size="12.00" fill="#000000">xs:integer</text>
</a>
</g>
<polygon fill="none" stroke="#000000" points="282.5,-128.5 282.5,-145.5 339.5,-145.5 339.5,-128.5 282.5,-128.5"/>
</g>
<!-- xs:integer&#45;&gt;biom:PlantarPositionCodeSimpleType -->
<g id="edge3" class="edge">
<title>xs:integer&#45;&gt;biom:PlantarPositionCodeSimpleType</title>
<path fill="none" stroke="#000000" d="M311,-128.411C311,-121.5124 311,-111.5696 311,-102.84"/>
<polygon fill="#000000" stroke="#000000" points="314.5001,-102.7518 311,-92.7519 307.5001,-102.7519 314.5001,-102.7518"/>
<text text-anchor="middle" x="301.5" y="-107.4" font-family="Helvetica,sans-Serif" font-size="12.00" fill="#000000">restriction</text>
</g>
</g>
</svg>
