<?xml version="1.0" encoding="UTF-8" standalone="no"?>
<!DOCTYPE svg PUBLIC "-//W3C//DTD SVG 1.1//EN"
 "http://www.w3.org/Graphics/SVG/1.1/DTD/svg11.dtd">
<!-- Generated by graphviz version 2.40.1 (20161225.0304)
 -->
<!-- Title: graphic Pages: 1 -->
<svg width="545pt" height="45pt"
 viewBox="0.00 0.00 545.00 45.00" xmlns="http://www.w3.org/2000/svg" xmlns:xlink="http://www.w3.org/1999/xlink">
<g id="graph0" class="graph" transform="scale(1 1) rotate(0) translate(4 41)">
<title>graphic</title>
<polygon fill="#ffffff" stroke="transparent" points="-4,4 -4,-41 541,-41 541,4 -4,4"/>
<!-- j:SupervisionAssignedTerm -->
<g id="node1" class="node">
<title>j:SupervisionAssignedTerm</title>
<text text-anchor="start" x="247" y="-21.4" font-family="Helvetica,sans-Serif" font-weight="bold" font-size="12.00" fill="#000000">j:SupervisionAssignedTerm</text>
<polygon fill="none" stroke="#ff0000" stroke-width="5" points="243.5,-14 243.5,-34 410.5,-34 410.5,-14 243.5,-14"/>
</g>
<!-- j:TermType -->
<g id="node3" class="node">
<title>j:TermType</title>
<g id="a_node3_0"><a xlink:href="../../j/TermType/#diagram" xlink:title="A data type for a duration length either in specific terms or as a range." target="_top">
<text text-anchor="start" x="474.5" y="-20.4" font-family="Helvetica,sans-Serif" font-size="12.00" fill="#000000">j:TermType</text>
</a>
</g>
<polygon fill="none" stroke="#000000" points="472,-15.5 472,-32.5 537,-32.5 537,-15.5 472,-15.5"/>
</g>
<!-- j:SupervisionAssignedTerm&#45;&gt;j:TermType -->
<g id="edge2" class="edge">
<title>j:SupervisionAssignedTerm&#45;&gt;j:TermType</title>
<path fill="none" stroke="#000000" d="M413.1502,-24C429.9245,-24 446.8226,-24 461.4451,-24"/>
<polygon fill="#000000" stroke="#000000" points="461.656,-27.5001 471.656,-24 461.6559,-20.5001 461.656,-27.5001"/>
<text text-anchor="middle" x="442.5" y="-27.4" font-family="Helvetica,sans-Serif" font-size="12.00" fill="#000000">type</text>
</g>
<!-- Types -->
<g id="node2" class="node">
<title>Types</title>
<text text-anchor="start" x="2" y="-21.4" font-family="Helvetica,sans-Serif" font-weight="bold" font-size="12.00" fill="#000000">Types</text>
<g id="a_node2_1"><a xlink:href="../../j/SupervisionAugmentationType/#diagram" xlink:title="A data type for additional information about a supervision." target="_top">
<polygon fill="#ebebeb" stroke="transparent" points="1,-1 1,-16 173,-16 173,-1 1,-1"/>
<text text-anchor="start" x="2" y="-5.4" font-family="Helvetica,sans-Serif" font-size="12.00" fill="#000000">j:SupervisionAugmentationType</text>
</a>
</g>
<polygon fill="#000000" stroke="#000000" points="0,-16 0,-16 174,-16 174,-16 0,-16"/>
<polygon fill="none" stroke="#000000" points="0,0 0,-32 174,-32 174,0 0,0"/>
</g>
<!-- Types&#45;&gt;j:SupervisionAssignedTerm -->
<g id="edge1" class="edge">
<title>Types:top&#45;&gt;j:SupervisionAssignedTerm</title>
<path fill="none" stroke="#000000" d="M173,-24C191.5837,-24 211.4288,-24 230.4804,-24"/>
<polygon fill="#000000" stroke="#000000" points="230.6636,-27.5001 240.6636,-24 230.6636,-20.5001 230.6636,-27.5001"/>
<text text-anchor="middle" x="207.5" y="-27.4" font-family="Helvetica,sans-Serif" font-size="12.00" fill="#000000">has&#45;a</text>
</g>
</g>
</svg>
