<?xml version="1.0" encoding="UTF-8" standalone="no"?>
<!DOCTYPE svg PUBLIC "-//W3C//DTD SVG 1.1//EN"
 "http://www.w3.org/Graphics/SVG/1.1/DTD/svg11.dtd">
<!-- Generated by graphviz version 2.40.1 (20161225.0304)
 -->
<!-- Title: graphic Pages: 1 -->
<svg width="553pt" height="184pt"
 viewBox="0.00 0.00 553.00 183.50" xmlns="http://www.w3.org/2000/svg" xmlns:xlink="http://www.w3.org/1999/xlink">
<g id="graph0" class="graph" transform="scale(1 1) rotate(0) translate(4 179.5)">
<title>graphic</title>
<polygon fill="#ffffff" stroke="transparent" points="-4,4 -4,-179.5 549,-179.5 549,4 -4,4"/>
<!-- stat:ProcessOutputSpecificationType -->
<g id="node1" class="node">
<title>stat:ProcessOutputSpecificationType</title>
<text text-anchor="start" x="240.5" y="-55.4" font-family="Helvetica,sans-Serif" font-weight="bold" font-size="12.00" fill="#000000">stat:ProcessOutputSpecificationType</text>
<g id="a_node1_0"><a xlink:href="../../stat/ProcessOutput/#diagram" xlink:title="An instance of an information object which is produced by a process step as a result of its execution." target="_top">
<polygon fill="#ebebeb" stroke="transparent" points="239.5,-35 239.5,-50 540.5,-50 540.5,-35 239.5,-35"/>
<text text-anchor="start" x="240.5" y="-39.4" font-family="Helvetica,sans-Serif" font-size="12.00" fill="#000000">stat:ProcessOutput: stat:ProcessOutputType [0&#45;n]</text>
</a>
</g>
<g id="a_node1_1"><a xlink:href="../../stat/ProcessOutputCategoryCode/#diagram" xlink:title="A kind of process output, e.g. transformed output, process metric, process execution log" target="_top">
<text text-anchor="start" x="240.5" y="-24.4" font-family="Helvetica,sans-Serif" font-size="12.00" fill="#000000">stat:ProcessOutputCategoryCode: nc:TextType [0&#45;n]</text>
</a>
</g>
<g id="a_node1_2"><a xlink:href="../../stat/ProcessOutputSpecificationAugmentationPoint/#diagram" xlink:title="An augmentation point for type stat:ProcessOutputSpecificationType" target="_top">
<polygon fill="#ebebeb" stroke="transparent" points="239.5,-5 239.5,-20 540.5,-20 540.5,-5 239.5,-5"/>
<text text-anchor="start" x="240.5" y="-9.4" font-family="Helvetica,sans-Serif" font-size="12.00" fill="#000000">stat:ProcessOutputSpecificationAugmentationPoint [0&#45;n]</text>
</a>
</g>
<polygon fill="#ff0000" stroke="#ff0000" points="234.5,-50 234.5,-50 545.5,-50 545.5,-50 234.5,-50"/>
<polygon fill="none" stroke="#ff0000" stroke-width="5" points="236.5,-2.5 236.5,-67.5 542.5,-67.5 542.5,-2.5 236.5,-2.5"/>
</g>
<!-- Properties -->
<g id="node2" class="node">
<title>Properties</title>
<text text-anchor="start" x="2.5" y="-55.4" font-family="Helvetica,sans-Serif" font-weight="bold" font-size="12.00" fill="#000000">Properties</text>
<g id="a_node2_3"><a xlink:href="../../stat/ProcessOutputSpecification/#diagram" xlink:title="A record of the types of outputs required for a process design." target="_top">
<polygon fill="#ebebeb" stroke="transparent" points="1.5,-35 1.5,-50 174.5,-50 174.5,-35 1.5,-35"/>
<text text-anchor="start" x="2.5" y="-39.4" font-family="Helvetica,sans-Serif" font-size="12.00" fill="#000000">stat:ProcessOutputSpecification</text>
</a>
</g>
<polygon fill="#000000" stroke="#000000" points=".5,-50 .5,-50 175.5,-50 175.5,-50 .5,-50"/>
<polygon fill="none" stroke="#000000" points="0,-34 0,-66 175,-66 175,-34 0,-34"/>
</g>
<!-- Properties&#45;&gt;stat:ProcessOutputSpecificationType -->
<g id="edge1" class="edge">
<title>Properties:top&#45;&gt;stat:ProcessOutputSpecificationType:top</title>
<path fill="none" stroke="#000000" d="M174.5,-58C199.6649,-58 208.3891,-58 229.3154,-58"/>
<polygon fill="#000000" stroke="#000000" points="229.5,-61.5001 239.5,-58 229.5,-54.5001 229.5,-61.5001"/>
<text text-anchor="middle" x="204.5" y="-61.4" font-family="Helvetica,sans-Serif" font-size="12.00" fill="#000000">type</text>
</g>
<!-- stat:IdentifiableArtifactType -->
<g id="node3" class="node">
<title>stat:IdentifiableArtifactType</title>
<g id="a_node3_4"><a xlink:href="../../stat/IdentifiableArtifactType/#diagram" xlink:title="A data type for an abstract class that comprises the basic attributes and associations needed for identification, naming and other documentation." target="_top">
<text text-anchor="start" x="317.5" y="-110.4" font-family="Helvetica,sans-Serif" font-size="12.00" fill="#000000">stat:IdentifiableArtifactType</text>
</a>
</g>
<polygon fill="none" stroke="#000000" points="315,-105.5 315,-122.5 464,-122.5 464,-105.5 315,-105.5"/>
</g>
<!-- stat:IdentifiableArtifactType&#45;&gt;stat:ProcessOutputSpecificationType -->
<g id="edge2" class="edge">
<title>stat:IdentifiableArtifactType&#45;&gt;stat:ProcessOutputSpecificationType</title>
<path fill="none" stroke="#000000" d="M389.5,-105.4117C389.5,-99.1025 389.5,-89.9911 389.5,-80.4049"/>
<polygon fill="#000000" stroke="#000000" points="393.0001,-80.3408 389.5,-70.3408 386.0001,-80.3409 393.0001,-80.3408"/>
<text text-anchor="middle" x="380" y="-84.65" font-family="Helvetica,sans-Serif" font-size="12.00" fill="#000000">extension</text>
</g>
<!-- structures:ObjectType -->
<g id="node4" class="node">
<title>structures:ObjectType</title>
<g id="a_node4_5"><a xlink:href="../../structures/ObjectType/#diagram" xlink:title="A data type for a thing with its own lifespan that has some existence." target="_top">
<text text-anchor="start" x="330.5" y="-163.4" font-family="Helvetica,sans-Serif" font-size="12.00" fill="#000000">structures:ObjectType</text>
</a>
</g>
<polygon fill="none" stroke="#000000" points="328.5,-158.5 328.5,-175.5 450.5,-175.5 450.5,-158.5 328.5,-158.5"/>
</g>
<!-- structures:ObjectType&#45;&gt;stat:IdentifiableArtifactType -->
<g id="edge3" class="edge">
<title>structures:ObjectType&#45;&gt;stat:IdentifiableArtifactType</title>
<path fill="none" stroke="#000000" d="M389.5,-158.411C389.5,-151.5124 389.5,-141.5696 389.5,-132.84"/>
<polygon fill="#000000" stroke="#000000" points="393.0001,-132.7518 389.5,-122.7519 386.0001,-132.7519 393.0001,-132.7518"/>
<text text-anchor="middle" x="380" y="-137.4" font-family="Helvetica,sans-Serif" font-size="12.00" fill="#000000">extension</text>
</g>
</g>
</svg>
