<?xml version="1.0" encoding="UTF-8" standalone="no"?>
<!DOCTYPE svg PUBLIC "-//W3C//DTD SVG 1.1//EN"
 "http://www.w3.org/Graphics/SVG/1.1/DTD/svg11.dtd">
<!-- Generated by graphviz version 2.40.1 (20161225.0304)
 -->
<!-- Title: graphic Pages: 1 -->
<svg width="629pt" height="214pt"
 viewBox="0.00 0.00 629.00 213.50" xmlns="http://www.w3.org/2000/svg" xmlns:xlink="http://www.w3.org/1999/xlink">
<g id="graph0" class="graph" transform="scale(1 1) rotate(0) translate(4 209.5)">
<title>graphic</title>
<polygon fill="#ffffff" stroke="transparent" points="-4,4 -4,-209.5 625,-209.5 625,4 -4,4"/>
<!-- j:OutOfAreaTravelPermitRequestType -->
<g id="node1" class="node">
<title>j:OutOfAreaTravelPermitRequestType</title>
<text text-anchor="start" x="246.5" y="-85.4" font-family="Helvetica,sans-Serif" font-weight="bold" font-size="12.00" fill="#000000">j:OutOfAreaTravelPermitRequestType</text>
<g id="a_node1_0"><a xlink:href="../../j/OutOfAreaTravelPermitApprovedIndicator/#diagram" xlink:title="True if the request for travel out of area has been approved; false otherwise." target="_top">
<polygon fill="#ebebeb" stroke="transparent" points="245.5,-65 245.5,-80 616.5,-80 616.5,-65 245.5,-65"/>
<text text-anchor="start" x="246.5" y="-69.4" font-family="Helvetica,sans-Serif" font-size="12.00" fill="#000000">j:OutOfAreaTravelPermitApprovedIndicator: niem&#45;xs:boolean [0&#45;n]</text>
</a>
</g>
<g id="a_node1_1"><a xlink:href="../../j/OutOfAreaTravelPermitDateRange/#diagram" xlink:title="A date the travel permit expires or is considered null." target="_top">
<text text-anchor="start" x="246.5" y="-54.4" font-family="Helvetica,sans-Serif" font-size="12.00" fill="#000000">j:OutOfAreaTravelPermitDateRange: nc:DateRangeType [0&#45;n]</text>
</a>
</g>
<g id="a_node1_2"><a xlink:href="../../j/OutOfAreaTravelPermitMethodOfTravelText/#diagram" xlink:title="A method by which a person will be traveling." target="_top">
<polygon fill="#ebebeb" stroke="transparent" points="245.5,-35 245.5,-50 616.5,-50 616.5,-35 245.5,-35"/>
<text text-anchor="start" x="246.5" y="-39.4" font-family="Helvetica,sans-Serif" font-size="12.00" fill="#000000">j:OutOfAreaTravelPermitMethodOfTravelText: nc:TextType [0&#45;n]</text>
</a>
</g>
<g id="a_node1_3"><a xlink:href="../../j/OutOfAreaTravelPermitReportingInstructionsText/#diagram" xlink:title="A set of rules that a subject must follow for reporting in to a supervising official during the travel period." target="_top">
<text text-anchor="start" x="246.5" y="-24.4" font-family="Helvetica,sans-Serif" font-size="12.00" fill="#000000">j:OutOfAreaTravelPermitReportingInstructionsText: nc:TextType [0&#45;n]</text>
</a>
</g>
<g id="a_node1_4"><a xlink:href="../../j/OutOfAreaTravelPermitRequestAugmentationPoint/#diagram" xlink:title="An augmentation point for OutOfAreaTravelPermitRequestType." target="_top">
<polygon fill="#ebebeb" stroke="transparent" points="245.5,-5 245.5,-20 616.5,-20 616.5,-5 245.5,-5"/>
<text text-anchor="start" x="246.5" y="-9.4" font-family="Helvetica,sans-Serif" font-size="12.00" fill="#000000">j:OutOfAreaTravelPermitRequestAugmentationPoint [0&#45;n]</text>
</a>
</g>
<polygon fill="#ff0000" stroke="#ff0000" points="240.5,-80 240.5,-80 621.5,-80 621.5,-80 240.5,-80"/>
<polygon fill="none" stroke="#ff0000" stroke-width="5" points="242.5,-2.5 242.5,-97.5 618.5,-97.5 618.5,-2.5 242.5,-2.5"/>
</g>
<!-- Properties -->
<g id="node2" class="node">
<title>Properties</title>
<text text-anchor="start" x="2.5" y="-85.4" font-family="Helvetica,sans-Serif" font-weight="bold" font-size="12.00" fill="#000000">Properties</text>
<g id="a_node2_5"><a xlink:href="../../j/OutOfAreaTravelPermitRequest/#diagram" xlink:title="An activity engaged in to request permission to travel outside area of supervised release as defined in supervised release conditions." target="_top">
<polygon fill="#ebebeb" stroke="transparent" points="1.5,-65 1.5,-80 180.5,-80 180.5,-65 1.5,-65"/>
<text text-anchor="start" x="2.5" y="-69.4" font-family="Helvetica,sans-Serif" font-size="12.00" fill="#000000">j:OutOfAreaTravelPermitRequest</text>
</a>
</g>
<polygon fill="#000000" stroke="#000000" points=".5,-80 .5,-80 181.5,-80 181.5,-80 .5,-80"/>
<polygon fill="none" stroke="#000000" points="0,-64 0,-96 181,-96 181,-64 0,-64"/>
</g>
<!-- Properties&#45;&gt;j:OutOfAreaTravelPermitRequestType -->
<g id="edge1" class="edge">
<title>Properties:top&#45;&gt;j:OutOfAreaTravelPermitRequestType:top</title>
<path fill="none" stroke="#000000" d="M180.5,-88C205.6649,-88 214.3891,-88 235.3154,-88"/>
<polygon fill="#000000" stroke="#000000" points="235.5,-91.5001 245.5,-88 235.5,-84.5001 235.5,-91.5001"/>
<text text-anchor="middle" x="210.5" y="-91.4" font-family="Helvetica,sans-Serif" font-size="12.00" fill="#000000">type</text>
</g>
<!-- nc:ActivityType -->
<g id="node3" class="node">
<title>nc:ActivityType</title>
<g id="a_node3_6"><a xlink:href="../../nc/ActivityType/#diagram" xlink:title="A data type for a single or set of related actions, events, or process steps." target="_top">
<text text-anchor="start" x="390.5" y="-140.4" font-family="Helvetica,sans-Serif" font-size="12.00" fill="#000000">nc:ActivityType</text>
</a>
</g>
<polygon fill="none" stroke="#000000" points="388,-135.5 388,-152.5 473,-152.5 473,-135.5 388,-135.5"/>
</g>
<!-- nc:ActivityType&#45;&gt;j:OutOfAreaTravelPermitRequestType -->
<g id="edge2" class="edge">
<title>nc:ActivityType&#45;&gt;j:OutOfAreaTravelPermitRequestType</title>
<path fill="none" stroke="#000000" d="M430.5,-135.375C430.5,-129.1263 430.5,-120.0624 430.5,-110.15"/>
<polygon fill="#000000" stroke="#000000" points="434.0001,-110.0274 430.5,-100.0274 427.0001,-110.0275 434.0001,-110.0274"/>
<text text-anchor="middle" x="421" y="-114.65" font-family="Helvetica,sans-Serif" font-size="12.00" fill="#000000">extension</text>
</g>
<!-- structures:ObjectType -->
<g id="node4" class="node">
<title>structures:ObjectType</title>
<g id="a_node4_7"><a xlink:href="../../structures/ObjectType/#diagram" xlink:title="A data type for a thing with its own lifespan that has some existence." target="_top">
<text text-anchor="start" x="371.5" y="-193.4" font-family="Helvetica,sans-Serif" font-size="12.00" fill="#000000">structures:ObjectType</text>
</a>
</g>
<polygon fill="none" stroke="#000000" points="369.5,-188.5 369.5,-205.5 491.5,-205.5 491.5,-188.5 369.5,-188.5"/>
</g>
<!-- structures:ObjectType&#45;&gt;nc:ActivityType -->
<g id="edge3" class="edge">
<title>structures:ObjectType&#45;&gt;nc:ActivityType</title>
<path fill="none" stroke="#000000" d="M430.5,-188.411C430.5,-181.5124 430.5,-171.5696 430.5,-162.84"/>
<polygon fill="#000000" stroke="#000000" points="434.0001,-162.7518 430.5,-152.7519 427.0001,-162.7519 434.0001,-162.7518"/>
<text text-anchor="middle" x="421" y="-167.4" font-family="Helvetica,sans-Serif" font-size="12.00" fill="#000000">extension</text>
</g>
</g>
</svg>
