<?xml version="1.0" encoding="UTF-8" standalone="no"?>
<!DOCTYPE svg PUBLIC "-//W3C//DTD SVG 1.1//EN"
 "http://www.w3.org/Graphics/SVG/1.1/DTD/svg11.dtd">
<!-- Generated by graphviz version 2.40.1 (20161225.0304)
 -->
<!-- Title: graphic Pages: 1 -->
<svg width="487pt" height="45pt"
 viewBox="0.00 0.00 487.00 45.00" xmlns="http://www.w3.org/2000/svg" xmlns:xlink="http://www.w3.org/1999/xlink">
<g id="graph0" class="graph" transform="scale(1 1) rotate(0) translate(4 41)">
<title>graphic</title>
<polygon fill="#ffffff" stroke="transparent" points="-4,4 -4,-41 483,-41 483,4 -4,4"/>
<!-- em:HomeUnit -->
<g id="node1" class="node">
<title>em:HomeUnit</title>
<text text-anchor="start" x="220.5" y="-21.4" font-family="Helvetica,sans-Serif" font-weight="bold" font-size="12.00" fill="#000000">em:HomeUnit</text>
<polygon fill="none" stroke="#ff0000" stroke-width="5" points="216.5,-14 216.5,-34 302.5,-34 302.5,-14 216.5,-14"/>
</g>
<!-- nc:OrganizationType -->
<g id="node3" class="node">
<title>nc:OrganizationType</title>
<g id="a_node3_0"><a xlink:href="../../nc/OrganizationType/#diagram" xlink:title="A data type for a body of people organized for a particular purpose." target="_top">
<text text-anchor="start" x="366.5" y="-20.4" font-family="Helvetica,sans-Serif" font-size="12.00" fill="#000000">nc:OrganizationType</text>
</a>
</g>
<polygon fill="none" stroke="#000000" points="364,-15.5 364,-32.5 479,-32.5 479,-15.5 364,-15.5"/>
</g>
<!-- em:HomeUnit&#45;&gt;nc:OrganizationType -->
<g id="edge2" class="edge">
<title>em:HomeUnit&#45;&gt;nc:OrganizationType</title>
<path fill="none" stroke="#000000" d="M305.0571,-24C320.1697,-24 337.3326,-24 353.7492,-24"/>
<polygon fill="#000000" stroke="#000000" points="353.8494,-27.5001 363.8494,-24 353.8493,-20.5001 353.8494,-27.5001"/>
<text text-anchor="middle" x="334.5" y="-27.4" font-family="Helvetica,sans-Serif" font-size="12.00" fill="#000000">type</text>
</g>
<!-- Types -->
<g id="node2" class="node">
<title>Types</title>
<text text-anchor="start" x="2.5" y="-21.4" font-family="Helvetica,sans-Serif" font-weight="bold" font-size="12.00" fill="#000000">Types</text>
<g id="a_node2_1"><a xlink:href="../../em/OwnerInformationType/#diagram" xlink:title="A data type for a structure that defines ownership of a resource" target="_top">
<polygon fill="#ebebeb" stroke="transparent" points="1.5,-1 1.5,-16 146.5,-16 146.5,-1 1.5,-1"/>
<text text-anchor="start" x="2.5" y="-5.4" font-family="Helvetica,sans-Serif" font-size="12.00" fill="#000000">em:OwnerInformationType</text>
</a>
</g>
<polygon fill="#000000" stroke="#000000" points=".5,-16 .5,-16 147.5,-16 147.5,-16 .5,-16"/>
<polygon fill="none" stroke="#000000" points="0,0 0,-32 147,-32 147,0 0,0"/>
</g>
<!-- Types&#45;&gt;em:HomeUnit -->
<g id="edge1" class="edge">
<title>Types:top&#45;&gt;em:HomeUnit</title>
<path fill="none" stroke="#000000" d="M146.5,-24C165.118,-24 185.4615,-24 203.6925,-24"/>
<polygon fill="#000000" stroke="#000000" points="203.8653,-27.5001 213.8652,-24 203.8652,-20.5001 203.8653,-27.5001"/>
<text text-anchor="middle" x="180.5" y="-27.4" font-family="Helvetica,sans-Serif" font-size="12.00" fill="#000000">has&#45;a</text>
</g>
</g>
</svg>
