<?xml version="1.0" encoding="UTF-8" standalone="no"?>
<!DOCTYPE svg PUBLIC "-//W3C//DTD SVG 1.1//EN"
 "http://www.w3.org/Graphics/SVG/1.1/DTD/svg11.dtd">
<!-- Generated by graphviz version 2.40.1 (20161225.0304)
 -->
<!-- Title: graphic Pages: 1 -->
<svg width="499pt" height="45pt"
 viewBox="0.00 0.00 499.00 45.00" xmlns="http://www.w3.org/2000/svg" xmlns:xlink="http://www.w3.org/1999/xlink">
<g id="graph0" class="graph" transform="scale(1 1) rotate(0) translate(4 41)">
<title>graphic</title>
<polygon fill="#ffffff" stroke="transparent" points="-4,4 -4,-41 495,-41 495,4 -4,4"/>
<!-- j:SubjectIntakeScreeningDate -->
<g id="node1" class="node">
<title>j:SubjectIntakeScreeningDate</title>
<text text-anchor="start" x="183" y="-21.4" font-family="Helvetica,sans-Serif" font-weight="bold" font-size="12.00" fill="#000000">j:SubjectIntakeScreeningDate</text>
<polygon fill="none" stroke="#ff0000" stroke-width="5" points="179.5,-14 179.5,-34 356.5,-34 356.5,-14 179.5,-14"/>
</g>
<!-- nc:DateType -->
<g id="node3" class="node">
<title>nc:DateType</title>
<g id="a_node3_0"><a xlink:href="../../nc/DateType/#diagram" xlink:title="A data type for a calendar date." target="_top">
<text text-anchor="start" x="420.5" y="-20.4" font-family="Helvetica,sans-Serif" font-size="12.00" fill="#000000">nc:DateType</text>
</a>
</g>
<polygon fill="none" stroke="#000000" points="418,-15.5 418,-32.5 491,-32.5 491,-15.5 418,-15.5"/>
</g>
<!-- j:SubjectIntakeScreeningDate&#45;&gt;nc:DateType -->
<g id="edge2" class="edge">
<title>j:SubjectIntakeScreeningDate&#45;&gt;nc:DateType</title>
<path fill="none" stroke="#000000" d="M359.0646,-24C375.8802,-24 392.7906,-24 407.6069,-24"/>
<polygon fill="#000000" stroke="#000000" points="407.9942,-27.5001 417.9942,-24 407.9941,-20.5001 407.9942,-27.5001"/>
<text text-anchor="middle" x="388.5" y="-27.4" font-family="Helvetica,sans-Serif" font-size="12.00" fill="#000000">type</text>
</g>
<!-- Types -->
<g id="node2" class="node">
<title>Types</title>
<text text-anchor="start" x="2" y="-21.4" font-family="Helvetica,sans-Serif" font-weight="bold" font-size="12.00" fill="#000000">Types</text>
<g id="a_node2_1"><a xlink:href="../../j/SubjectIntakeType/#diagram" xlink:title="A data type for a set of details about a subject&#39;s intake process." target="_top">
<polygon fill="#ebebeb" stroke="transparent" points="1,-1 1,-16 109,-16 109,-1 1,-1"/>
<text text-anchor="start" x="2" y="-5.4" font-family="Helvetica,sans-Serif" font-size="12.00" fill="#000000">j:SubjectIntakeType</text>
</a>
</g>
<polygon fill="#000000" stroke="#000000" points="0,-16 0,-16 110,-16 110,-16 0,-16"/>
<polygon fill="none" stroke="#000000" points="0,0 0,-32 110,-32 110,0 0,0"/>
</g>
<!-- Types&#45;&gt;j:SubjectIntakeScreeningDate -->
<g id="edge1" class="edge">
<title>Types:top&#45;&gt;j:SubjectIntakeScreeningDate</title>
<path fill="none" stroke="#000000" d="M109,-24C127.6021,-24 147.4284,-24 166.5453,-24"/>
<polygon fill="#000000" stroke="#000000" points="166.7727,-27.5001 176.7726,-24 166.7726,-20.5001 166.7727,-27.5001"/>
<text text-anchor="middle" x="143.5" y="-27.4" font-family="Helvetica,sans-Serif" font-size="12.00" fill="#000000">has&#45;a</text>
</g>
</g>
</svg>
