<?xml version="1.0" encoding="UTF-8" standalone="no"?>
<!DOCTYPE svg PUBLIC "-//W3C//DTD SVG 1.1//EN"
 "http://www.w3.org/Graphics/SVG/1.1/DTD/svg11.dtd">
<!-- Generated by graphviz version 2.40.1 (20161225.0304)
 -->
<!-- Title: graphic Pages: 1 -->
<svg width="535pt" height="45pt"
 viewBox="0.00 0.00 535.00 45.00" xmlns="http://www.w3.org/2000/svg" xmlns:xlink="http://www.w3.org/1999/xlink">
<g id="graph0" class="graph" transform="scale(1 1) rotate(0) translate(4 41)">
<title>graphic</title>
<polygon fill="#ffffff" stroke="transparent" points="-4,4 -4,-41 531,-41 531,4 -4,4"/>
<!-- j:TaskHoursPerDayQuantity -->
<g id="node1" class="node">
<title>j:TaskHoursPerDayQuantity</title>
<text text-anchor="start" x="210" y="-21.4" font-family="Helvetica,sans-Serif" font-weight="bold" font-size="12.00" fill="#000000">j:TaskHoursPerDayQuantity</text>
<polygon fill="none" stroke="#ff0000" stroke-width="5" points="206.5,-14 206.5,-34 373.5,-34 373.5,-14 206.5,-14"/>
</g>
<!-- nc:QuantityType -->
<g id="node3" class="node">
<title>nc:QuantityType</title>
<g id="a_node3_0"><a xlink:href="../../nc/QuantityType/#diagram" xlink:title="A data type for a count or tally." target="_top">
<text text-anchor="start" x="437" y="-20.4" font-family="Helvetica,sans-Serif" font-size="12.00" fill="#000000">nc:QuantityType</text>
</a>
</g>
<polygon fill="none" stroke="#000000" points="435,-15.5 435,-32.5 527,-32.5 527,-15.5 435,-15.5"/>
</g>
<!-- j:TaskHoursPerDayQuantity&#45;&gt;nc:QuantityType -->
<g id="edge2" class="edge">
<title>j:TaskHoursPerDayQuantity&#45;&gt;nc:QuantityType</title>
<path fill="none" stroke="#000000" d="M376.0013,-24C392.4937,-24 409.3677,-24 424.6297,-24"/>
<polygon fill="#000000" stroke="#000000" points="424.9136,-27.5001 434.9136,-24 424.9135,-20.5001 424.9136,-27.5001"/>
<text text-anchor="middle" x="405.5" y="-27.4" font-family="Helvetica,sans-Serif" font-size="12.00" fill="#000000">type</text>
</g>
<!-- Types -->
<g id="node2" class="node">
<title>Types</title>
<text text-anchor="start" x="2.5" y="-21.4" font-family="Helvetica,sans-Serif" font-weight="bold" font-size="12.00" fill="#000000">Types</text>
<g id="a_node2_1"><a xlink:href="../../j/TaskAugmentationType/#diagram" xlink:title="A data type for additional information about a task." target="_top">
<polygon fill="#ebebeb" stroke="transparent" points="1.5,-1 1.5,-16 136.5,-16 136.5,-1 1.5,-1"/>
<text text-anchor="start" x="2.5" y="-5.4" font-family="Helvetica,sans-Serif" font-size="12.00" fill="#000000">j:TaskAugmentationType</text>
</a>
</g>
<polygon fill="#000000" stroke="#000000" points=".5,-16 .5,-16 137.5,-16 137.5,-16 .5,-16"/>
<polygon fill="none" stroke="#000000" points="0,0 0,-32 137,-32 137,0 0,0"/>
</g>
<!-- Types&#45;&gt;j:TaskHoursPerDayQuantity -->
<g id="edge1" class="edge">
<title>Types:top&#45;&gt;j:TaskHoursPerDayQuantity</title>
<path fill="none" stroke="#000000" d="M136.5,-24C155.0233,-24 174.804,-24 193.7938,-24"/>
<polygon fill="#000000" stroke="#000000" points="193.9439,-27.5001 203.9439,-24 193.9439,-20.5001 193.9439,-27.5001"/>
<text text-anchor="middle" x="170.5" y="-27.4" font-family="Helvetica,sans-Serif" font-size="12.00" fill="#000000">has&#45;a</text>
</g>
</g>
</svg>
