<?xml version="1.0" encoding="UTF-8" standalone="no"?>
<!DOCTYPE svg PUBLIC "-//W3C//DTD SVG 1.1//EN"
 "http://www.w3.org/Graphics/SVG/1.1/DTD/svg11.dtd">
<!-- Generated by graphviz version 2.40.1 (20161225.0304)
 -->
<!-- Title: graphic Pages: 1 -->
<svg width="695pt" height="45pt"
 viewBox="0.00 0.00 695.00 45.00" xmlns="http://www.w3.org/2000/svg" xmlns:xlink="http://www.w3.org/1999/xlink">
<g id="graph0" class="graph" transform="scale(1 1) rotate(0) translate(4 41)">
<title>graphic</title>
<polygon fill="#ffffff" stroke="transparent" points="-4,4 -4,-41 691,-41 691,4 -4,4"/>
<!-- it:ContainerTerminalOperatorIDCategory -->
<g id="node1" class="node">
<title>it:ContainerTerminalOperatorIDCategory</title>
<text text-anchor="start" x="260.5" y="-21.4" font-family="Helvetica,sans-Serif" font-weight="bold" font-size="12.00" fill="#000000">it:ContainerTerminalOperatorIDCategory</text>
<polygon fill="none" stroke="#ff0000" stroke-width="5" points="256.5,-14 256.5,-34 496.5,-34 496.5,-14 256.5,-14"/>
</g>
<!-- it:PartyIDCategoryType -->
<g id="node3" class="node">
<title>it:PartyIDCategoryType</title>
<g id="a_node3_0"><a xlink:href="../../it/PartyIDCategoryType/#diagram" xlink:title="A data type for a category of Party ID" target="_top">
<text text-anchor="start" x="560.5" y="-20.4" font-family="Helvetica,sans-Serif" font-size="12.00" fill="#000000">it:PartyIDCategoryType</text>
</a>
</g>
<polygon fill="none" stroke="#000000" points="558,-15.5 558,-32.5 687,-32.5 687,-15.5 558,-15.5"/>
</g>
<!-- it:ContainerTerminalOperatorIDCategory&#45;&gt;it:PartyIDCategoryType -->
<g id="edge2" class="edge">
<title>it:ContainerTerminalOperatorIDCategory&#45;&gt;it:PartyIDCategoryType</title>
<path fill="none" stroke="#000000" d="M499.1396,-24C515.6654,-24 532.1998,-24 547.5496,-24"/>
<polygon fill="#000000" stroke="#000000" points="547.9725,-27.5001 557.9725,-24 547.9725,-20.5001 547.9725,-27.5001"/>
<text text-anchor="middle" x="528.5" y="-27.4" font-family="Helvetica,sans-Serif" font-size="12.00" fill="#000000">type</text>
</g>
<!-- Types -->
<g id="node2" class="node">
<title>Types</title>
<text text-anchor="start" x="2.5" y="-21.4" font-family="Helvetica,sans-Serif" font-weight="bold" font-size="12.00" fill="#000000">Types</text>
<g id="a_node2_1"><a xlink:href="../../it/ContainerTerminalOperatorType/#diagram" xlink:title="A data type representing the Container Terminal Operator" target="_top">
<polygon fill="#ebebeb" stroke="transparent" points="1.5,-1 1.5,-16 186.5,-16 186.5,-1 1.5,-1"/>
<text text-anchor="start" x="2.5" y="-5.4" font-family="Helvetica,sans-Serif" font-size="12.00" fill="#000000">it:ContainerTerminalOperatorType</text>
</a>
</g>
<polygon fill="#000000" stroke="#000000" points=".5,-16 .5,-16 187.5,-16 187.5,-16 .5,-16"/>
<polygon fill="none" stroke="#000000" points="0,0 0,-32 187,-32 187,0 0,0"/>
</g>
<!-- Types&#45;&gt;it:ContainerTerminalOperatorIDCategory -->
<g id="edge1" class="edge">
<title>Types:top&#45;&gt;it:ContainerTerminalOperatorIDCategory</title>
<path fill="none" stroke="#000000" d="M186.5,-24C205.0392,-24 224.596,-24 243.8299,-24"/>
<polygon fill="#000000" stroke="#000000" points="243.8516,-27.5001 253.8515,-24 243.8515,-20.5001 243.8516,-27.5001"/>
<text text-anchor="middle" x="220.5" y="-27.4" font-family="Helvetica,sans-Serif" font-size="12.00" fill="#000000">has&#45;a</text>
</g>
</g>
</svg>
