<?xml version="1.0" encoding="UTF-8" standalone="no"?>
<!DOCTYPE svg PUBLIC "-//W3C//DTD SVG 1.1//EN"
 "http://www.w3.org/Graphics/SVG/1.1/DTD/svg11.dtd">
<!-- Generated by graphviz version 2.40.1 (20161225.0304)
 -->
<!-- Title: graphic Pages: 1 -->
<svg width="516pt" height="101pt"
 viewBox="0.00 0.00 516.00 101.00" xmlns="http://www.w3.org/2000/svg" xmlns:xlink="http://www.w3.org/1999/xlink">
<g id="graph0" class="graph" transform="scale(1 1) rotate(0) translate(4 97)">
<title>graphic</title>
<polygon fill="#ffffff" stroke="transparent" points="-4,4 -4,-97 512,-97 512,4 -4,4"/>
<!-- nc:DispositionAugmentationPoint -->
<g id="node1" class="node">
<title>nc:DispositionAugmentationPoint</title>
<text text-anchor="start" x="243.5" y="-77.4" font-family="Helvetica,sans-Serif" font-weight="bold" font-size="12.00" fill="#000000">nc:DispositionAugmentationPoint</text>
<polygon fill="none" stroke="#ff0000" stroke-width="5" points="240,-70 240,-90 441,-90 441,-70 240,-70"/>
</g>
<!-- SubstitutableElements -->
<g id="node3" class="node">
<title>SubstitutableElements</title>
<text text-anchor="start" x="175.5" y="-21.4" font-family="Helvetica,sans-Serif" font-weight="bold" font-size="12.00" fill="#000000">Substitutable elements</text>
<g id="a_node3_0"><a xlink:href="../../hs/DispositionAugmentation/#diagram" xlink:title="Additional information about a disposition." target="_top">
<polygon fill="#ebebeb" stroke="transparent" points="174.5,-1 174.5,-16 507.5,-16 507.5,-1 174.5,-1"/>
<text text-anchor="start" x="175.5" y="-5.4" font-family="Helvetica,sans-Serif" font-size="12.00" fill="#000000">hs:DispositionAugmentation: hs:DispositionAugmentationType</text>
</a>
</g>
<polygon fill="#000000" stroke="#000000" points="173.5,-16 173.5,-16 508.5,-16 508.5,-16 173.5,-16"/>
<polygon fill="none" stroke="#000000" points="173,0 173,-32 508,-32 508,0 173,0"/>
</g>
<!-- nc:DispositionAugmentationPoint&#45;&gt;SubstitutableElements -->
<g id="edge2" class="edge">
<title>nc:DispositionAugmentationPoint&#45;&gt;SubstitutableElements</title>
<path fill="none" stroke="#000000" d="M340.5,-57.3063C340.5,-48.9972 340.5,-39.7712 340.5,-32.1499"/>
<polygon fill="#000000" stroke="#000000" points="337.0001,-57.4892 340.5,-67.4892 344.0001,-57.4892 337.0001,-57.4892"/>
<text text-anchor="middle" x="331" y="-46.65" font-family="Helvetica,sans-Serif" font-size="12.00" fill="#000000">substitutable for</text>
</g>
<!-- Types -->
<g id="node2" class="node">
<title>Types</title>
<text text-anchor="start" x="2" y="-77.4" font-family="Helvetica,sans-Serif" font-weight="bold" font-size="12.00" fill="#000000">Types</text>
<g id="a_node2_1"><a xlink:href="../../nc/DispositionType/#diagram" xlink:title="A data type for a result or outcome that is the product of handling, processing, or finalizing something." target="_top">
<polygon fill="#ebebeb" stroke="transparent" points="1,-57 1,-72 105,-72 105,-57 1,-57"/>
<text text-anchor="start" x="2" y="-61.4" font-family="Helvetica,sans-Serif" font-size="12.00" fill="#000000">nc:DispositionType</text>
</a>
</g>
<polygon fill="#000000" stroke="#000000" points="0,-72 0,-72 106,-72 106,-72 0,-72"/>
<polygon fill="none" stroke="#000000" points="0,-56 0,-88 106,-88 106,-56 0,-56"/>
</g>
<!-- Types&#45;&gt;nc:DispositionAugmentationPoint -->
<g id="edge1" class="edge">
<title>Types:top&#45;&gt;nc:DispositionAugmentationPoint</title>
<path fill="none" stroke="#000000" d="M105,-80C144.7834,-80 188.3472,-80 227.07,-80"/>
<polygon fill="#000000" stroke="#000000" points="227.3289,-83.5001 237.3288,-80 227.3288,-76.5001 227.3289,-83.5001"/>
<text text-anchor="middle" x="139.5" y="-83.4" font-family="Helvetica,sans-Serif" font-size="12.00" fill="#000000">has&#45;a</text>
</g>
</g>
</svg>
