<?xml version="1.0" encoding="UTF-8" standalone="no"?>
<!DOCTYPE svg PUBLIC "-//W3C//DTD SVG 1.1//EN"
 "http://www.w3.org/Graphics/SVG/1.1/DTD/svg11.dtd">
<!-- Generated by graphviz version 2.40.1 (20161225.0304)
 -->
<!-- Title: graphic Pages: 1 -->
<svg width="503pt" height="45pt"
 viewBox="0.00 0.00 503.00 45.00" xmlns="http://www.w3.org/2000/svg" xmlns:xlink="http://www.w3.org/1999/xlink">
<g id="graph0" class="graph" transform="scale(1 1) rotate(0) translate(4 41)">
<title>graphic</title>
<polygon fill="#ffffff" stroke="transparent" points="-4,4 -4,-41 499,-41 499,4 -4,4"/>
<!-- nc:AssociationDescriptionText -->
<g id="node1" class="node">
<title>nc:AssociationDescriptionText</title>
<text text-anchor="start" x="182.5" y="-21.4" font-family="Helvetica,sans-Serif" font-weight="bold" font-size="12.00" fill="#000000">nc:AssociationDescriptionText</text>
<polygon fill="none" stroke="#ff0000" stroke-width="5" points="178.5,-14 178.5,-34 362.5,-34 362.5,-14 178.5,-14"/>
</g>
<!-- nc:TextType -->
<g id="node3" class="node">
<title>nc:TextType</title>
<g id="a_node3_0"><a xlink:href="../../nc/TextType/#diagram" xlink:title="A data type for a character string." target="_top">
<text text-anchor="start" x="426.5" y="-20.4" font-family="Helvetica,sans-Serif" font-size="12.00" fill="#000000">nc:TextType</text>
</a>
</g>
<polygon fill="none" stroke="#000000" points="424,-15.5 424,-32.5 495,-32.5 495,-15.5 424,-15.5"/>
</g>
<!-- nc:AssociationDescriptionText&#45;&gt;nc:TextType -->
<g id="edge2" class="edge">
<title>nc:AssociationDescriptionText&#45;&gt;nc:TextType</title>
<path fill="none" stroke="#000000" d="M365.2769,-24C382.0269,-24 398.7654,-24 413.3873,-24"/>
<polygon fill="#000000" stroke="#000000" points="413.6302,-27.5001 423.6301,-24 413.6301,-20.5001 413.6302,-27.5001"/>
<text text-anchor="middle" x="394.5" y="-27.4" font-family="Helvetica,sans-Serif" font-size="12.00" fill="#000000">type</text>
</g>
<!-- Types -->
<g id="node2" class="node">
<title>Types</title>
<text text-anchor="start" x="2.5" y="-21.4" font-family="Helvetica,sans-Serif" font-weight="bold" font-size="12.00" fill="#000000">Types</text>
<g id="a_node2_1"><a xlink:href="../../nc/AssociationType/#diagram" xlink:title="A data type for an association, connection, relationship, or involvement somehow linking people, things, and/or activities together." target="_top">
<polygon fill="#ebebeb" stroke="transparent" points="1.5,-1 1.5,-16 108.5,-16 108.5,-1 1.5,-1"/>
<text text-anchor="start" x="2.5" y="-5.4" font-family="Helvetica,sans-Serif" font-size="12.00" fill="#000000">nc:AssociationType</text>
</a>
</g>
<polygon fill="#000000" stroke="#000000" points=".5,-16 .5,-16 109.5,-16 109.5,-16 .5,-16"/>
<polygon fill="none" stroke="#000000" points="0,0 0,-32 109,-32 109,0 0,0"/>
</g>
<!-- Types&#45;&gt;nc:AssociationDescriptionText -->
<g id="edge1" class="edge">
<title>Types:top&#45;&gt;nc:AssociationDescriptionText</title>
<path fill="none" stroke="#000000" d="M108.5,-24C126.9763,-24 146.6378,-24 165.6597,-24"/>
<polygon fill="#000000" stroke="#000000" points="165.8432,-27.5001 175.8432,-24 165.8431,-20.5001 165.8432,-27.5001"/>
<text text-anchor="middle" x="142.5" y="-27.4" font-family="Helvetica,sans-Serif" font-size="12.00" fill="#000000">has&#45;a</text>
</g>
</g>
</svg>
