<?xml version="1.0" encoding="UTF-8" standalone="no"?>
<!DOCTYPE svg PUBLIC "-//W3C//DTD SVG 1.1//EN"
 "http://www.w3.org/Graphics/SVG/1.1/DTD/svg11.dtd">
<!-- Generated by graphviz version 2.40.1 (20161225.0304)
 -->
<!-- Title: graphic Pages: 1 -->
<svg width="511pt" height="45pt"
 viewBox="0.00 0.00 511.00 45.00" xmlns="http://www.w3.org/2000/svg" xmlns:xlink="http://www.w3.org/1999/xlink">
<g id="graph0" class="graph" transform="scale(1 1) rotate(0) translate(4 41)">
<title>graphic</title>
<polygon fill="#ffffff" stroke="transparent" points="-4,4 -4,-41 507,-41 507,4 -4,4"/>
<!-- nc:ScheduleTimeRange -->
<g id="node1" class="node">
<title>nc:ScheduleTimeRange</title>
<text text-anchor="start" x="192.5" y="-21.4" font-family="Helvetica,sans-Serif" font-weight="bold" font-size="12.00" fill="#000000">nc:ScheduleTimeRange</text>
<polygon fill="none" stroke="#ff0000" stroke-width="5" points="188.5,-14 188.5,-34 332.5,-34 332.5,-14 188.5,-14"/>
</g>
<!-- nc:TimeRangeType -->
<g id="node3" class="node">
<title>nc:TimeRangeType</title>
<g id="a_node3_0"><a xlink:href="../../nc/TimeRangeType/#diagram" xlink:title="A data type for a start and end time." target="_top">
<text text-anchor="start" x="396.5" y="-20.4" font-family="Helvetica,sans-Serif" font-size="12.00" fill="#000000">nc:TimeRangeType</text>
</a>
</g>
<polygon fill="none" stroke="#000000" points="394,-15.5 394,-32.5 503,-32.5 503,-15.5 394,-15.5"/>
</g>
<!-- nc:ScheduleTimeRange&#45;&gt;nc:TimeRangeType -->
<g id="edge2" class="edge">
<title>nc:ScheduleTimeRange&#45;&gt;nc:TimeRangeType</title>
<path fill="none" stroke="#000000" d="M335.0726,-24C351.1348,-24 367.9885,-24 383.6449,-24"/>
<polygon fill="#000000" stroke="#000000" points="383.7403,-27.5001 393.7402,-24 383.7402,-20.5001 383.7403,-27.5001"/>
<text text-anchor="middle" x="364.5" y="-27.4" font-family="Helvetica,sans-Serif" font-size="12.00" fill="#000000">type</text>
</g>
<!-- Types -->
<g id="node2" class="node">
<title>Types</title>
<text text-anchor="start" x="2.5" y="-21.4" font-family="Helvetica,sans-Serif" font-weight="bold" font-size="12.00" fill="#000000">Types</text>
<g id="a_node2_1"><a xlink:href="../../nc/ScheduleDayType/#diagram" xlink:title="A data type for a plan or agenda for the activities of a day." target="_top">
<polygon fill="#ebebeb" stroke="transparent" points="1.5,-1 1.5,-16 118.5,-16 118.5,-1 1.5,-1"/>
<text text-anchor="start" x="2.5" y="-5.4" font-family="Helvetica,sans-Serif" font-size="12.00" fill="#000000">nc:ScheduleDayType</text>
</a>
</g>
<polygon fill="#000000" stroke="#000000" points=".5,-16 .5,-16 119.5,-16 119.5,-16 .5,-16"/>
<polygon fill="none" stroke="#000000" points="0,0 0,-32 119,-32 119,0 0,0"/>
</g>
<!-- Types&#45;&gt;nc:ScheduleTimeRange -->
<g id="edge1" class="edge">
<title>Types:top&#45;&gt;nc:ScheduleTimeRange</title>
<path fill="none" stroke="#000000" d="M118.5,-24C136.9939,-24 156.8427,-24 175.6642,-24"/>
<polygon fill="#000000" stroke="#000000" points="175.6988,-27.5001 185.6988,-24 175.6988,-20.5001 175.6988,-27.5001"/>
<text text-anchor="middle" x="152.5" y="-27.4" font-family="Helvetica,sans-Serif" font-size="12.00" fill="#000000">has&#45;a</text>
</g>
</g>
</svg>
