<?xml version="1.0" encoding="UTF-8" standalone="no"?>
<!DOCTYPE svg PUBLIC "-//W3C//DTD SVG 1.1//EN"
 "http://www.w3.org/Graphics/SVG/1.1/DTD/svg11.dtd">
<!-- Generated by graphviz version 2.40.1 (20161225.0304)
 -->
<!-- Title: graphic Pages: 1 -->
<svg width="475pt" height="45pt"
 viewBox="0.00 0.00 475.00 45.00" xmlns="http://www.w3.org/2000/svg" xmlns:xlink="http://www.w3.org/1999/xlink">
<g id="graph0" class="graph" transform="scale(1 1) rotate(0) translate(4 41)">
<title>graphic</title>
<polygon fill="#ffffff" stroke="transparent" points="-4,4 -4,-41 471,-41 471,4 -4,4"/>
<!-- cbrn:DataFileSetName -->
<g id="node1" class="node">
<title>cbrn:DataFileSetName</title>
<text text-anchor="start" x="194.5" y="-21.4" font-family="Helvetica,sans-Serif" font-weight="bold" font-size="12.00" fill="#000000">cbrn:DataFileSetName</text>
<polygon fill="none" stroke="#ff0000" stroke-width="5" points="190.5,-14 190.5,-34 326.5,-34 326.5,-14 190.5,-14"/>
</g>
<!-- niem&#45;xs:string -->
<g id="node3" class="node">
<title>niem&#45;xs:string</title>
<g id="a_node3_0"><a xlink:href="../../niem-xs/string/#diagram" xlink:title="A data type for character strings in XML." target="_top">
<text text-anchor="start" x="390.5" y="-20.4" font-family="Helvetica,sans-Serif" font-size="12.00" fill="#000000">niem&#45;xs:string</text>
</a>
</g>
<polygon fill="none" stroke="#000000" points="388,-15.5 388,-32.5 467,-32.5 467,-15.5 388,-15.5"/>
</g>
<!-- cbrn:DataFileSetName&#45;&gt;niem&#45;xs:string -->
<g id="edge2" class="edge">
<title>cbrn:DataFileSetName&#45;&gt;niem&#45;xs:string</title>
<path fill="none" stroke="#000000" d="M329.192,-24C345.5069,-24 362.5277,-24 377.7321,-24"/>
<polygon fill="#000000" stroke="#000000" points="377.9371,-27.5001 387.937,-24 377.937,-20.5001 377.9371,-27.5001"/>
<text text-anchor="middle" x="358.5" y="-27.4" font-family="Helvetica,sans-Serif" font-size="12.00" fill="#000000">type</text>
</g>
<!-- Types -->
<g id="node2" class="node">
<title>Types</title>
<text text-anchor="start" x="2.5" y="-21.4" font-family="Helvetica,sans-Serif" font-weight="bold" font-size="12.00" fill="#000000">Types</text>
<g id="a_node2_1"><a xlink:href="../../cbrn/DataFileSetType/#diagram" xlink:title="A data type that defines a collection of data files that are part of a set" target="_top">
<polygon fill="#ebebeb" stroke="transparent" points="1.5,-1 1.5,-16 120.5,-16 120.5,-1 1.5,-1"/>
<text text-anchor="start" x="2.5" y="-5.4" font-family="Helvetica,sans-Serif" font-size="12.00" fill="#000000">cbrn:DataFileSetType</text>
</a>
</g>
<polygon fill="#000000" stroke="#000000" points=".5,-16 .5,-16 121.5,-16 121.5,-16 .5,-16"/>
<polygon fill="none" stroke="#000000" points="0,0 0,-32 121,-32 121,0 0,0"/>
</g>
<!-- Types&#45;&gt;cbrn:DataFileSetName -->
<g id="edge1" class="edge">
<title>Types:top&#45;&gt;cbrn:DataFileSetName</title>
<path fill="none" stroke="#000000" d="M120.5,-24C139.0822,-24 159.0719,-24 177.9105,-24"/>
<polygon fill="#000000" stroke="#000000" points="177.9414,-27.5001 187.9414,-24 177.9413,-20.5001 177.9414,-27.5001"/>
<text text-anchor="middle" x="154.5" y="-27.4" font-family="Helvetica,sans-Serif" font-size="12.00" fill="#000000">has&#45;a</text>
</g>
</g>
</svg>
