<?xml version="1.0" encoding="UTF-8" standalone="no"?>
<!DOCTYPE svg PUBLIC "-//W3C//DTD SVG 1.1//EN"
 "http://www.w3.org/Graphics/SVG/1.1/DTD/svg11.dtd">
<!-- Generated by graphviz version 2.40.1 (20161225.0304)
 -->
<!-- Title: graphic Pages: 1 -->
<svg width="595pt" height="117pt"
 viewBox="0.00 0.00 595.00 116.50" xmlns="http://www.w3.org/2000/svg" xmlns:xlink="http://www.w3.org/1999/xlink">
<g id="graph0" class="graph" transform="scale(1 1) rotate(0) translate(4 112.5)">
<title>graphic</title>
<polygon fill="#ffffff" stroke="transparent" points="-4,4 -4,-112.5 591,-112.5 591,4 -4,4"/>
<!-- hs:PersonGenderIdentityAbstract -->
<g id="node1" class="node">
<title>hs:PersonGenderIdentityAbstract</title>
<text text-anchor="start" x="310.5" y="-92.9" font-family="Helvetica,sans-Serif" font-weight="bold" font-size="12.00" fill="#000000">hs:PersonGenderIdentityAbstract</text>
<polygon fill="none" stroke="#ff0000" stroke-width="5" points="306.5,-85.5 306.5,-105.5 506.5,-105.5 506.5,-85.5 306.5,-85.5"/>
</g>
<!-- SubstitutableElements -->
<g id="node3" class="node">
<title>SubstitutableElements</title>
<text text-anchor="start" x="228.5" y="-35.9" font-family="Helvetica,sans-Serif" font-weight="bold" font-size="12.00" fill="#000000">Substitutable elements</text>
<g id="a_node3_0"><a xlink:href="../../hs/PersonGenderIdentityCode/#diagram" xlink:title="A gender of a person&#39;s identity. The cultural meanings of patterns of behavior, experience, and personality that are labeled masculine or feminine." target="_top">
<polygon fill="#ebebeb" stroke="transparent" points="227.5,-15.5 227.5,-30.5 586.5,-30.5 586.5,-15.5 227.5,-15.5"/>
<text text-anchor="start" x="228.5" y="-19.9" font-family="Helvetica,sans-Serif" font-size="12.00" fill="#000000">hs:PersonGenderIdentityCode: hs:PersonGenderIdentityCodeType</text>
</a>
</g>
<g id="a_node3_1"><a xlink:href="../../hs/PersonGenderIdentityText/#diagram" xlink:title="A gender of a person&#39;s identity. The cultural meanings of patterns of behavior, experience, and personality that are labeled masculine or feminine." target="_top">
<text text-anchor="start" x="228.5" y="-4.9" font-family="Helvetica,sans-Serif" font-size="12.00" fill="#000000">hs:PersonGenderIdentityText: nc:TextType</text>
</a>
</g>
<polygon fill="#000000" stroke="#000000" points="226.5,-30.5 226.5,-30.5 587.5,-30.5 587.5,-30.5 226.5,-30.5"/>
<polygon fill="none" stroke="#000000" points="226,0 226,-47 587,-47 587,0 226,0"/>
</g>
<!-- hs:PersonGenderIdentityAbstract&#45;&gt;SubstitutableElements -->
<g id="edge2" class="edge">
<title>hs:PersonGenderIdentityAbstract&#45;&gt;SubstitutableElements</title>
<path fill="none" stroke="#000000" d="M406.5,-72.9771C406.5,-64.7398 406.5,-55.4022 406.5,-47.0755"/>
<polygon fill="#000000" stroke="#000000" points="403.0001,-72.9945 406.5,-82.9945 410.0001,-72.9946 403.0001,-72.9945"/>
<text text-anchor="middle" x="397" y="-61.9" font-family="Helvetica,sans-Serif" font-size="12.00" fill="#000000">substitutable for</text>
</g>
<!-- Types -->
<g id="node2" class="node">
<title>Types</title>
<text text-anchor="start" x="2.5" y="-92.9" font-family="Helvetica,sans-Serif" font-weight="bold" font-size="12.00" fill="#000000">Types</text>
<g id="a_node2_2"><a xlink:href="../../hs/PersonAugmentationType/#diagram" xlink:title="A data type for additional information about a person." target="_top">
<polygon fill="#ebebeb" stroke="transparent" points="1.5,-72.5 1.5,-87.5 158.5,-87.5 158.5,-72.5 1.5,-72.5"/>
<text text-anchor="start" x="2.5" y="-76.9" font-family="Helvetica,sans-Serif" font-size="12.00" fill="#000000">hs:PersonAugmentationType</text>
</a>
</g>
<polygon fill="#000000" stroke="#000000" points=".5,-87.5 .5,-87.5 159.5,-87.5 159.5,-87.5 .5,-87.5"/>
<polygon fill="none" stroke="#000000" points="0,-71.5 0,-103.5 159,-103.5 159,-71.5 0,-71.5"/>
</g>
<!-- Types&#45;&gt;hs:PersonGenderIdentityAbstract -->
<g id="edge1" class="edge">
<title>Types:top&#45;&gt;hs:PersonGenderIdentityAbstract</title>
<path fill="none" stroke="#000000" d="M158.5,-95.5C202.7446,-95.5 251.4293,-95.5 293.8603,-95.5"/>
<polygon fill="#000000" stroke="#000000" points="293.9392,-99.0001 303.9391,-95.5 293.9391,-92.0001 293.9392,-99.0001"/>
<text text-anchor="middle" x="192.5" y="-98.9" font-family="Helvetica,sans-Serif" font-size="12.00" fill="#000000">has&#45;a</text>
</g>
</g>
</svg>
