<?xml version="1.0" encoding="UTF-8" standalone="no"?>
<!DOCTYPE svg PUBLIC "-//W3C//DTD SVG 1.1//EN"
 "http://www.w3.org/Graphics/SVG/1.1/DTD/svg11.dtd">
<!-- Generated by graphviz version 2.40.1 (20161225.0304)
 -->
<!-- Title: graphic Pages: 1 -->
<svg width="542pt" height="45pt"
 viewBox="0.00 0.00 542.00 45.00" xmlns="http://www.w3.org/2000/svg" xmlns:xlink="http://www.w3.org/1999/xlink">
<g id="graph0" class="graph" transform="scale(1 1) rotate(0) translate(4 41)">
<title>graphic</title>
<polygon fill="#ffffff" stroke="transparent" points="-4,4 -4,-41 538,-41 538,4 -4,4"/>
<!-- scr:TimeInUSCategoryDescriptionText -->
<g id="node1" class="node">
<title>scr:TimeInUSCategoryDescriptionText</title>
<text text-anchor="start" x="177.5" y="-21.4" font-family="Helvetica,sans-Serif" font-weight="bold" font-size="12.00" fill="#000000">scr:TimeInUSCategoryDescriptionText</text>
<polygon fill="none" stroke="#ff0000" stroke-width="5" points="173.5,-14 173.5,-34 401.5,-34 401.5,-14 173.5,-14"/>
</g>
<!-- nc:TextType -->
<g id="node3" class="node">
<title>nc:TextType</title>
<g id="a_node3_0"><a xlink:href="../../nc/TextType/#diagram" xlink:title="A data type for a character string." target="_top">
<text text-anchor="start" x="465.5" y="-20.4" font-family="Helvetica,sans-Serif" font-size="12.00" fill="#000000">nc:TextType</text>
</a>
</g>
<polygon fill="none" stroke="#000000" points="463,-15.5 463,-32.5 534,-32.5 534,-15.5 463,-15.5"/>
</g>
<!-- scr:TimeInUSCategoryDescriptionText&#45;&gt;nc:TextType -->
<g id="edge2" class="edge">
<title>scr:TimeInUSCategoryDescriptionText&#45;&gt;nc:TextType</title>
<path fill="none" stroke="#000000" d="M404.1086,-24C421.2882,-24 438.0704,-24 452.6059,-24"/>
<polygon fill="#000000" stroke="#000000" points="452.7665,-27.5001 462.7664,-24 452.7664,-20.5001 452.7665,-27.5001"/>
<text text-anchor="middle" x="433.5" y="-27.4" font-family="Helvetica,sans-Serif" font-size="12.00" fill="#000000">type</text>
</g>
<!-- Types -->
<g id="node2" class="node">
<title>Types</title>
<text text-anchor="start" x="2" y="-21.4" font-family="Helvetica,sans-Serif" font-weight="bold" font-size="12.00" fill="#000000">Types</text>
<g id="a_node2_1"><a xlink:href="../../scr/TimeInUSType/#diagram" xlink:title="A data type for the length of time an alien has been in the United States illegally." target="_top">
<polygon fill="#ebebeb" stroke="transparent" points="1,-1 1,-16 103,-16 103,-1 1,-1"/>
<text text-anchor="start" x="2" y="-5.4" font-family="Helvetica,sans-Serif" font-size="12.00" fill="#000000">scr:TimeInUSType</text>
</a>
</g>
<polygon fill="#000000" stroke="#000000" points="0,-16 0,-16 104,-16 104,-16 0,-16"/>
<polygon fill="none" stroke="#000000" points="0,0 0,-32 104,-32 104,0 0,0"/>
</g>
<!-- Types&#45;&gt;scr:TimeInUSCategoryDescriptionText -->
<g id="edge1" class="edge">
<title>Types:top&#45;&gt;scr:TimeInUSCategoryDescriptionText</title>
<path fill="none" stroke="#000000" d="M103,-24C121.6845,-24 141.4333,-24 160.7914,-24"/>
<polygon fill="#000000" stroke="#000000" points="160.8711,-27.5001 170.8711,-24 160.871,-20.5001 160.8711,-27.5001"/>
<text text-anchor="middle" x="137.5" y="-27.4" font-family="Helvetica,sans-Serif" font-size="12.00" fill="#000000">has&#45;a</text>
</g>
</g>
</svg>
