<?xml version="1.0" encoding="UTF-8" standalone="no"?>
<!DOCTYPE svg PUBLIC "-//W3C//DTD SVG 1.1//EN"
 "http://www.w3.org/Graphics/SVG/1.1/DTD/svg11.dtd">
<!-- Generated by graphviz version 2.40.1 (20161225.0304)
 -->
<!-- Title: graphic Pages: 1 -->
<svg width="624pt" height="45pt"
 viewBox="0.00 0.00 624.00 45.00" xmlns="http://www.w3.org/2000/svg" xmlns:xlink="http://www.w3.org/1999/xlink">
<g id="graph0" class="graph" transform="scale(1 1) rotate(0) translate(4 41)">
<title>graphic</title>
<polygon fill="#ffffff" stroke="transparent" points="-4,4 -4,-41 620,-41 620,4 -4,4"/>
<!-- im:ContactMeansReasonText -->
<g id="node1" class="node">
<title>im:ContactMeansReasonText</title>
<text text-anchor="start" x="311.5" y="-21.4" font-family="Helvetica,sans-Serif" font-weight="bold" font-size="12.00" fill="#000000">im:ContactMeansReasonText</text>
<polygon fill="none" stroke="#ff0000" stroke-width="5" points="307.5,-14 307.5,-34 483.5,-34 483.5,-14 307.5,-14"/>
</g>
<!-- nc:TextType -->
<g id="node3" class="node">
<title>nc:TextType</title>
<g id="a_node3_0"><a xlink:href="../../nc/TextType/#diagram" xlink:title="A data type for a character string." target="_top">
<text text-anchor="start" x="547.5" y="-20.4" font-family="Helvetica,sans-Serif" font-size="12.00" fill="#000000">nc:TextType</text>
</a>
</g>
<polygon fill="none" stroke="#000000" points="545,-15.5 545,-32.5 616,-32.5 616,-15.5 545,-15.5"/>
</g>
<!-- im:ContactMeansReasonText&#45;&gt;nc:TextType -->
<g id="edge2" class="edge">
<title>im:ContactMeansReasonText&#45;&gt;nc:TextType</title>
<path fill="none" stroke="#000000" d="M486.1031,-24C502.8997,-24 519.7797,-24 534.5265,-24"/>
<polygon fill="#000000" stroke="#000000" points="534.8558,-27.5001 544.8558,-24 534.8558,-20.5001 534.8558,-27.5001"/>
<text text-anchor="middle" x="515.5" y="-27.4" font-family="Helvetica,sans-Serif" font-size="12.00" fill="#000000">type</text>
</g>
<!-- Types -->
<g id="node2" class="node">
<title>Types</title>
<text text-anchor="start" x="2" y="-21.4" font-family="Helvetica,sans-Serif" font-weight="bold" font-size="12.00" fill="#000000">Types</text>
<g id="a_node2_1"><a xlink:href="../../im/PartyContactInformationAssociationType/#diagram" xlink:title="A data type for an association between a party and contact information." target="_top">
<polygon fill="#ebebeb" stroke="transparent" points="1,-1 1,-16 237,-16 237,-1 1,-1"/>
<text text-anchor="start" x="2" y="-5.4" font-family="Helvetica,sans-Serif" font-size="12.00" fill="#000000">im:PartyContactInformationAssociationType</text>
</a>
</g>
<polygon fill="#000000" stroke="#000000" points="0,-16 0,-16 238,-16 238,-16 0,-16"/>
<polygon fill="none" stroke="#000000" points="0,0 0,-32 238,-32 238,0 0,0"/>
</g>
<!-- Types&#45;&gt;im:ContactMeansReasonText -->
<g id="edge1" class="edge">
<title>Types:top&#45;&gt;im:ContactMeansReasonText</title>
<path fill="none" stroke="#000000" d="M237,-24C255.6602,-24 275.5562,-24 294.7238,-24"/>
<polygon fill="#000000" stroke="#000000" points="294.9765,-27.5001 304.9765,-24 294.9764,-20.5001 294.9765,-27.5001"/>
<text text-anchor="middle" x="271.5" y="-27.4" font-family="Helvetica,sans-Serif" font-size="12.00" fill="#000000">has&#45;a</text>
</g>
</g>
</svg>
