<?xml version="1.0" encoding="UTF-8" standalone="no"?>
<!DOCTYPE svg PUBLIC "-//W3C//DTD SVG 1.1//EN"
 "http://www.w3.org/Graphics/SVG/1.1/DTD/svg11.dtd">
<!-- Generated by graphviz version 2.40.1 (20161225.0304)
 -->
<!-- Title: graphic Pages: 1 -->
<svg width="508pt" height="45pt"
 viewBox="0.00 0.00 508.00 45.00" xmlns="http://www.w3.org/2000/svg" xmlns:xlink="http://www.w3.org/1999/xlink">
<g id="graph0" class="graph" transform="scale(1 1) rotate(0) translate(4 41)">
<title>graphic</title>
<polygon fill="#ffffff" stroke="transparent" points="-4,4 -4,-41 504,-41 504,4 -4,4"/>
<!-- j:VictimSeeksProsecutionIndicator -->
<g id="node1" class="node">
<title>j:VictimSeeksProsecutionIndicator</title>
<text text-anchor="start" x="143.5" y="-21.4" font-family="Helvetica,sans-Serif" font-weight="bold" font-size="12.00" fill="#000000">j:VictimSeeksProsecutionIndicator</text>
<polygon fill="none" stroke="#ff0000" stroke-width="5" points="139.5,-14 139.5,-34 345.5,-34 345.5,-14 139.5,-14"/>
</g>
<!-- niem&#45;xs:boolean -->
<g id="node3" class="node">
<title>niem&#45;xs:boolean</title>
<g id="a_node3_0"><a xlink:href="../../niem-xs/boolean/#diagram" xlink:title="A data type for binary&#45;valued logic (true/false)." target="_top">
<text text-anchor="start" x="409.5" y="-20.4" font-family="Helvetica,sans-Serif" font-size="12.00" fill="#000000">niem&#45;xs:boolean</text>
</a>
</g>
<polygon fill="none" stroke="#000000" points="407,-15.5 407,-32.5 500,-32.5 500,-15.5 407,-15.5"/>
</g>
<!-- j:VictimSeeksProsecutionIndicator&#45;&gt;niem&#45;xs:boolean -->
<g id="edge2" class="edge">
<title>j:VictimSeeksProsecutionIndicator&#45;&gt;niem&#45;xs:boolean</title>
<path fill="none" stroke="#000000" d="M348.3091,-24C365.0183,-24 381.7171,-24 396.729,-24"/>
<polygon fill="#000000" stroke="#000000" points="396.8318,-27.5001 406.8318,-24 396.8317,-20.5001 396.8318,-27.5001"/>
<text text-anchor="middle" x="377.5" y="-27.4" font-family="Helvetica,sans-Serif" font-size="12.00" fill="#000000">type</text>
</g>
<!-- Types -->
<g id="node2" class="node">
<title>Types</title>
<text text-anchor="start" x="2" y="-21.4" font-family="Helvetica,sans-Serif" font-weight="bold" font-size="12.00" fill="#000000">Types</text>
<g id="a_node2_1"><a xlink:href="../../j/VictimType/#diagram" xlink:title="A data type for a person who suffers injury, loss, or death as a result of an incident." target="_top">
<polygon fill="#ebebeb" stroke="transparent" points="1,-1 1,-16 69,-16 69,-1 1,-1"/>
<text text-anchor="start" x="2" y="-5.4" font-family="Helvetica,sans-Serif" font-size="12.00" fill="#000000">j:VictimType</text>
</a>
</g>
<polygon fill="#000000" stroke="#000000" points="0,-16 0,-16 70,-16 70,-16 0,-16"/>
<polygon fill="none" stroke="#000000" points="0,0 0,-32 70,-32 70,0 0,0"/>
</g>
<!-- Types&#45;&gt;j:VictimSeeksProsecutionIndicator -->
<g id="edge1" class="edge">
<title>Types:top&#45;&gt;j:VictimSeeksProsecutionIndicator</title>
<path fill="none" stroke="#000000" d="M69,-24C87.7248,-24 107.5863,-24 126.9283,-24"/>
<polygon fill="#000000" stroke="#000000" points="126.9869,-27.5001 136.9868,-24 126.9868,-20.5001 126.9869,-27.5001"/>
<text text-anchor="middle" x="103.5" y="-27.4" font-family="Helvetica,sans-Serif" font-size="12.00" fill="#000000">has&#45;a</text>
</g>
</g>
</svg>
