<?xml version="1.0" encoding="UTF-8" standalone="no"?>
<!DOCTYPE svg PUBLIC "-//W3C//DTD SVG 1.1//EN"
 "http://www.w3.org/Graphics/SVG/1.1/DTD/svg11.dtd">
<!-- Generated by graphviz version 2.40.1 (20161225.0304)
 -->
<!-- Title: graphic Pages: 1 -->
<svg width="697pt" height="45pt"
 viewBox="0.00 0.00 697.00 45.00" xmlns="http://www.w3.org/2000/svg" xmlns:xlink="http://www.w3.org/1999/xlink">
<g id="graph0" class="graph" transform="scale(1 1) rotate(0) translate(4 41)">
<title>graphic</title>
<polygon fill="#ffffff" stroke="transparent" points="-4,4 -4,-41 693,-41 693,4 -4,4"/>
<!-- em:IncidentResponseCriticalInformationRequirementsText -->
<g id="node1" class="node">
<title>em:IncidentResponseCriticalInformationRequirementsText</title>
<text text-anchor="start" x="216.5" y="-21.4" font-family="Helvetica,sans-Serif" font-weight="bold" font-size="12.00" fill="#000000">em:IncidentResponseCriticalInformationRequirementsText</text>
<polygon fill="none" stroke="#ff0000" stroke-width="5" points="212.5,-14 212.5,-34 556.5,-34 556.5,-14 212.5,-14"/>
</g>
<!-- nc:TextType -->
<g id="node3" class="node">
<title>nc:TextType</title>
<g id="a_node3_0"><a xlink:href="../../nc/TextType/#diagram" xlink:title="A data type for a character string." target="_top">
<text text-anchor="start" x="620.5" y="-20.4" font-family="Helvetica,sans-Serif" font-size="12.00" fill="#000000">nc:TextType</text>
</a>
</g>
<polygon fill="none" stroke="#000000" points="618,-15.5 618,-32.5 689,-32.5 689,-15.5 618,-15.5"/>
</g>
<!-- em:IncidentResponseCriticalInformationRequirementsText&#45;&gt;nc:TextType -->
<g id="edge2" class="edge">
<title>em:IncidentResponseCriticalInformationRequirementsText&#45;&gt;nc:TextType</title>
<path fill="none" stroke="#000000" d="M559.0389,-24C576.689,-24 593.3269,-24 607.5765,-24"/>
<polygon fill="#000000" stroke="#000000" points="607.9849,-27.5001 617.9849,-24 607.9848,-20.5001 607.9849,-27.5001"/>
<text text-anchor="middle" x="588.5" y="-27.4" font-family="Helvetica,sans-Serif" font-size="12.00" fill="#000000">type</text>
</g>
<!-- Types -->
<g id="node2" class="node">
<title>Types</title>
<text text-anchor="start" x="2.5" y="-21.4" font-family="Helvetica,sans-Serif" font-weight="bold" font-size="12.00" fill="#000000">Types</text>
<g id="a_node2_1"><a xlink:href="../../em/SituationalReportType/#diagram" xlink:title="A data type for a set of information on the current situation of an event or incident." target="_top">
<polygon fill="#ebebeb" stroke="transparent" points="1.5,-1 1.5,-16 142.5,-16 142.5,-1 1.5,-1"/>
<text text-anchor="start" x="2.5" y="-5.4" font-family="Helvetica,sans-Serif" font-size="12.00" fill="#000000">em:SituationalReportType</text>
</a>
</g>
<polygon fill="#000000" stroke="#000000" points=".5,-16 .5,-16 143.5,-16 143.5,-16 .5,-16"/>
<polygon fill="none" stroke="#000000" points="0,0 0,-32 143,-32 143,0 0,0"/>
</g>
<!-- Types&#45;&gt;em:IncidentResponseCriticalInformationRequirementsText -->
<g id="edge1" class="edge">
<title>Types:top&#45;&gt;em:IncidentResponseCriticalInformationRequirementsText</title>
<path fill="none" stroke="#000000" d="M142.5,-24C161.0148,-24 180.3265,-24 199.6119,-24"/>
<polygon fill="#000000" stroke="#000000" points="199.6903,-27.5001 209.6902,-24 199.6902,-20.5001 199.6903,-27.5001"/>
<text text-anchor="middle" x="176.5" y="-27.4" font-family="Helvetica,sans-Serif" font-size="12.00" fill="#000000">has&#45;a</text>
</g>
</g>
</svg>
