<?xml version="1.0" encoding="UTF-8" standalone="no"?>
<!DOCTYPE svg PUBLIC "-//W3C//DTD SVG 1.1//EN"
 "http://www.w3.org/Graphics/SVG/1.1/DTD/svg11.dtd">
<!-- Generated by graphviz version 2.40.1 (20161225.0304)
 -->
<!-- Title: graphic Pages: 1 -->
<svg width="774pt" height="101pt"
 viewBox="0.00 0.00 774.00 101.00" xmlns="http://www.w3.org/2000/svg" xmlns:xlink="http://www.w3.org/1999/xlink">
<g id="graph0" class="graph" transform="scale(1 1) rotate(0) translate(4 97)">
<title>graphic</title>
<polygon fill="#ffffff" stroke="transparent" points="-4,4 -4,-97 770,-97 770,4 -4,4"/>
<!-- scr:OrganizationStatusClassificationCategoryAbstract -->
<g id="node1" class="node">
<title>scr:OrganizationStatusClassificationCategoryAbstract</title>
<text text-anchor="start" x="358" y="-77.4" font-family="Helvetica,sans-Serif" font-weight="bold" font-size="12.00" fill="#000000">scr:OrganizationStatusClassificationCategoryAbstract</text>
<polygon fill="none" stroke="#ff0000" stroke-width="5" points="354,-70 354,-90 672,-90 672,-70 354,-70"/>
</g>
<!-- SubstitutableElements -->
<g id="node3" class="node">
<title>SubstitutableElements</title>
<text text-anchor="start" x="262" y="-21.4" font-family="Helvetica,sans-Serif" font-weight="bold" font-size="12.00" fill="#000000">Substitutable elements</text>
<g id="a_node3_0"><a xlink:href="../../scr/OrganizationStatusClassificationCategoryCode/#diagram" xlink:title="A kind of organization status." target="_top">
<polygon fill="#ebebeb" stroke="transparent" points="261,-1 261,-16 765,-16 765,-1 261,-1"/>
<text text-anchor="start" x="262" y="-5.4" font-family="Helvetica,sans-Serif" font-size="12.00" fill="#000000">scr:OrganizationStatusClassificationCategoryCode: scr:OrganizationStatusCategoryCodeType</text>
</a>
</g>
<polygon fill="#000000" stroke="#000000" points="260,-16 260,-16 766,-16 766,-16 260,-16"/>
<polygon fill="none" stroke="#000000" points="260,0 260,-32 766,-32 766,0 260,0"/>
</g>
<!-- scr:OrganizationStatusClassificationCategoryAbstract&#45;&gt;SubstitutableElements -->
<g id="edge2" class="edge">
<title>scr:OrganizationStatusClassificationCategoryAbstract&#45;&gt;SubstitutableElements</title>
<path fill="none" stroke="#000000" d="M513,-57.3063C513,-48.9972 513,-39.7712 513,-32.1499"/>
<polygon fill="#000000" stroke="#000000" points="509.5001,-57.4892 513,-67.4892 516.5001,-57.4892 509.5001,-57.4892"/>
<text text-anchor="middle" x="503.5" y="-46.65" font-family="Helvetica,sans-Serif" font-size="12.00" fill="#000000">substitutable for</text>
</g>
<!-- Types -->
<g id="node2" class="node">
<title>Types</title>
<text text-anchor="start" x="2.5" y="-77.4" font-family="Helvetica,sans-Serif" font-weight="bold" font-size="12.00" fill="#000000">Types</text>
<g id="a_node2_1"><a xlink:href="../../scr/OrganizationAugmentationType/#diagram" xlink:title="A data type for additional information about an organization." target="_top">
<polygon fill="#ebebeb" stroke="transparent" points="1.5,-57 1.5,-72 192.5,-72 192.5,-57 1.5,-57"/>
<text text-anchor="start" x="2.5" y="-61.4" font-family="Helvetica,sans-Serif" font-size="12.00" fill="#000000">scr:OrganizationAugmentationType</text>
</a>
</g>
<polygon fill="#000000" stroke="#000000" points=".5,-72 .5,-72 193.5,-72 193.5,-72 .5,-72"/>
<polygon fill="none" stroke="#000000" points="0,-56 0,-88 193,-88 193,-56 0,-56"/>
</g>
<!-- Types&#45;&gt;scr:OrganizationStatusClassificationCategoryAbstract -->
<g id="edge1" class="edge">
<title>Types:top&#45;&gt;scr:OrganizationStatusClassificationCategoryAbstract</title>
<path fill="none" stroke="#000000" d="M192.5,-80C240.6812,-80 292.9366,-80 340.9977,-80"/>
<polygon fill="#000000" stroke="#000000" points="341.1868,-83.5001 351.1868,-80 341.1868,-76.5001 341.1868,-83.5001"/>
<text text-anchor="middle" x="226.5" y="-83.4" font-family="Helvetica,sans-Serif" font-size="12.00" fill="#000000">has&#45;a</text>
</g>
</g>
</svg>
