<?xml version="1.0" encoding="UTF-8" standalone="no"?>
<!DOCTYPE svg PUBLIC "-//W3C//DTD SVG 1.1//EN"
 "http://www.w3.org/Graphics/SVG/1.1/DTD/svg11.dtd">
<!-- Generated by graphviz version 2.40.1 (20161225.0304)
 -->
<!-- Title: graphic Pages: 1 -->
<svg width="334pt" height="86pt"
 viewBox="0.00 0.00 334.00 86.00" xmlns="http://www.w3.org/2000/svg" xmlns:xlink="http://www.w3.org/1999/xlink">
<g id="graph0" class="graph" transform="scale(1 1) rotate(0) translate(4 82)">
<title>graphic</title>
<polygon fill="#ffffff" stroke="transparent" points="-4,4 -4,-82 330,-82 330,4 -4,4"/>
<!-- cbrn:MeasuredItemIDKindText -->
<g id="node1" class="node">
<title>cbrn:MeasuredItemIDKindText</title>
<text text-anchor="start" x="7" y="-9.9" font-family="Helvetica,sans-Serif" font-weight="bold" font-size="12.00" fill="#000000">cbrn:MeasuredItemIDKindText</text>
<polygon fill="none" stroke="#ff0000" stroke-width="5" points="3,-2.5 3,-22.5 185,-22.5 185,-2.5 3,-2.5"/>
</g>
<!-- niem&#45;xs:string -->
<g id="node3" class="node">
<title>niem&#45;xs:string</title>
<g id="a_node3_0"><a xlink:href="../../niem-xs/string/#diagram" xlink:title="A data type for character strings in XML." target="_top">
<text text-anchor="start" x="249.5" y="-8.9" font-family="Helvetica,sans-Serif" font-size="12.00" fill="#000000">niem&#45;xs:string</text>
</a>
</g>
<polygon fill="none" stroke="#000000" points="247,-4 247,-21 326,-21 326,-4 247,-4"/>
</g>
<!-- cbrn:MeasuredItemIDKindText&#45;&gt;niem&#45;xs:string -->
<g id="edge2" class="edge">
<title>cbrn:MeasuredItemIDKindText&#45;&gt;niem&#45;xs:string</title>
<path fill="none" stroke="#000000" d="M187.7124,-12.5C204.6486,-12.5 221.6895,-12.5 236.7359,-12.5"/>
<polygon fill="#000000" stroke="#000000" points="236.8081,-16.0001 246.8081,-12.5 236.8081,-9.0001 236.8081,-16.0001"/>
<text text-anchor="middle" x="217.5" y="-15.9" font-family="Helvetica,sans-Serif" font-size="12.00" fill="#000000">type</text>
</g>
<!-- SubstitutionGroup -->
<g id="node2" class="node">
<title>SubstitutionGroup</title>
<g id="a_node2_1"><a xlink:href="../../cbrn/MeasuredItemIDKindAbstract/#diagram" xlink:title="A data concept for a kind of identifier used for identifying a measured item." target="_top">
<text text-anchor="start" x="2" y="-65.9" font-family="Helvetica,sans-Serif" font-size="12.00" fill="#000000">cbrn:MeasuredItemIDKindAbstract</text>
</a>
</g>
<polygon fill="none" stroke="#000000" points="0,-61 0,-78 188,-78 188,-61 0,-61"/>
</g>
<!-- SubstitutionGroup&#45;&gt;cbrn:MeasuredItemIDKindText -->
<g id="edge1" class="edge">
<title>SubstitutionGroup&#45;&gt;cbrn:MeasuredItemIDKindText</title>
<path fill="none" stroke="#000000" d="M94,-50.9163C94,-42.4809 94,-32.7214 94,-25.1501"/>
<polygon fill="#000000" stroke="#000000" points="90.5001,-50.9472 94,-60.9473 97.5001,-50.9473 90.5001,-50.9472"/>
<text text-anchor="middle" x="84.5" y="-39.9" font-family="Helvetica,sans-Serif" font-size="12.00" fill="#000000">substitution group</text>
</g>
</g>
</svg>
