<?xml version="1.0" encoding="UTF-8" standalone="no"?>
<!DOCTYPE svg PUBLIC "-//W3C//DTD SVG 1.1//EN"
 "http://www.w3.org/Graphics/SVG/1.1/DTD/svg11.dtd">
<!-- Generated by graphviz version 2.40.1 (20161225.0304)
 -->
<!-- Title: graphic Pages: 1 -->
<svg width="723pt" height="45pt"
 viewBox="0.00 0.00 723.00 45.00" xmlns="http://www.w3.org/2000/svg" xmlns:xlink="http://www.w3.org/1999/xlink">
<g id="graph0" class="graph" transform="scale(1 1) rotate(0) translate(4 41)">
<title>graphic</title>
<polygon fill="#ffffff" stroke="transparent" points="-4,4 -4,-41 719,-41 719,4 -4,4"/>
<!-- biom:GeographicSampleAcquisitionLocationAugmentationPoint -->
<g id="node1" class="node">
<title>biom:GeographicSampleAcquisitionLocationAugmentationPoint</title>
<text text-anchor="start" x="340.5" y="-21.4" font-family="Helvetica,sans-Serif" font-weight="bold" font-size="12.00" fill="#000000">biom:GeographicSampleAcquisitionLocationAugmentationPoint</text>
<polygon fill="none" stroke="#ff0000" stroke-width="5" points="336.5,-14 336.5,-34 712.5,-34 712.5,-14 336.5,-14"/>
</g>
<!-- Types -->
<g id="node2" class="node">
<title>Types</title>
<text text-anchor="start" x="2.5" y="-21.4" font-family="Helvetica,sans-Serif" font-weight="bold" font-size="12.00" fill="#000000">Types</text>
<g id="a_node2_0"><a xlink:href="../../biom/GeographicSampleAcquisitionLocationType/#diagram" xlink:title="A data type to contain the location where the biometric sample/original source/context information was acquired." target="_top">
<polygon fill="#ebebeb" stroke="transparent" points="1.5,-1 1.5,-16 266.5,-16 266.5,-1 1.5,-1"/>
<text text-anchor="start" x="2.5" y="-5.4" font-family="Helvetica,sans-Serif" font-size="12.00" fill="#000000">biom:GeographicSampleAcquisitionLocationType</text>
</a>
</g>
<polygon fill="#000000" stroke="#000000" points=".5,-16 .5,-16 267.5,-16 267.5,-16 .5,-16"/>
<polygon fill="none" stroke="#000000" points="0,0 0,-32 267,-32 267,0 0,0"/>
</g>
<!-- Types&#45;&gt;biom:GeographicSampleAcquisitionLocationAugmentationPoint -->
<g id="edge1" class="edge">
<title>Types:top&#45;&gt;biom:GeographicSampleAcquisitionLocationAugmentationPoint</title>
<path fill="none" stroke="#000000" d="M266.5,-24C285.0947,-24 304.4432,-24 323.812,-24"/>
<polygon fill="#000000" stroke="#000000" points="323.9387,-27.5001 333.9387,-24 323.9387,-20.5001 323.9387,-27.5001"/>
<text text-anchor="middle" x="300.5" y="-27.4" font-family="Helvetica,sans-Serif" font-size="12.00" fill="#000000">has&#45;a</text>
</g>
</g>
</svg>
