<?xml version="1.0" encoding="UTF-8" standalone="no"?>
<!DOCTYPE svg PUBLIC "-//W3C//DTD SVG 1.1//EN"
 "http://www.w3.org/Graphics/SVG/1.1/DTD/svg11.dtd">
<!-- Generated by graphviz version 2.40.1 (20161225.0304)
 -->
<!-- Title: graphic Pages: 1 -->
<svg width="363pt" height="169pt"
 viewBox="0.00 0.00 363.00 169.00" xmlns="http://www.w3.org/2000/svg" xmlns:xlink="http://www.w3.org/1999/xlink">
<g id="graph0" class="graph" transform="scale(1 1) rotate(0) translate(4 165)">
<title>graphic</title>
<polygon fill="#ffffff" stroke="transparent" points="-4,4 -4,-165 359,-165 359,4 -4,4"/>
<!-- biom:FingerprintImageMissingAreaReasonCodeSimpleType -->
<g id="node1" class="node">
<title>biom:FingerprintImageMissingAreaReasonCodeSimpleType</title>
<text text-anchor="start" x="6.5" y="-92.9" font-family="Helvetica,sans-Serif" font-weight="bold" font-size="12.00" fill="#000000">biom:FingerprintImageMissingAreaReasonCodeSimpleType</text>
<polygon fill="none" stroke="#ff0000" stroke-width="5" points="2.5,-85.5 2.5,-105.5 352.5,-105.5 352.5,-85.5 2.5,-85.5"/>
</g>
<!-- DerivedTypes -->
<g id="node2" class="node">
<title>DerivedTypes</title>
<text text-anchor="start" x="36.5" y="-35.9" font-family="Helvetica,sans-Serif" font-weight="bold" font-size="12.00" fill="#000000">Derived types</text>
<g id="a_node2_0"><a xlink:href="../../biom/FacialImageMissingReasonCodeType/#diagram" xlink:title="A data type for a representation of the iris image missing reason codes." target="_top">
<polygon fill="#ebebeb" stroke="transparent" points="35.5,-15.5 35.5,-30.5 320.5,-30.5 320.5,-15.5 35.5,-15.5"/>
<text text-anchor="start" x="36.5" y="-19.9" font-family="Helvetica,sans-Serif" font-size="12.00" fill="#000000">biom:FacialImageMissingReasonCodeType</text>
</a>
</g>
<g id="a_node2_1"><a xlink:href="../../biom/FingerprintImageMissingAreaReasonCodeType/#diagram" xlink:title="A data type for a reason a fingerprint is missing" target="_top">
<text text-anchor="start" x="36.5" y="-4.9" font-family="Helvetica,sans-Serif" font-size="12.00" fill="#000000">biom:FingerprintImageMissingAreaReasonCodeType</text>
</a>
</g>
<polygon fill="#000000" stroke="#000000" points="34.5,-30.5 34.5,-30.5 321.5,-30.5 321.5,-30.5 34.5,-30.5"/>
<polygon fill="none" stroke="#000000" points="34,0 34,-47 321,-47 321,0 34,0"/>
</g>
<!-- biom:FingerprintImageMissingAreaReasonCodeSimpleType&#45;&gt;DerivedTypes -->
<g id="edge1" class="edge">
<title>biom:FingerprintImageMissingAreaReasonCodeSimpleType&#45;&gt;DerivedTypes</title>
<path fill="none" stroke="#000000" d="M177.5,-82.9945C177.5,-75.8182 177.5,-66.4304 177.5,-57.2398"/>
<polygon fill="#000000" stroke="#000000" points="181.0001,-57.0755 177.5,-47.0755 174.0001,-57.0755 181.0001,-57.0755"/>
<text text-anchor="middle" x="168" y="-61.9" font-family="Helvetica,sans-Serif" font-size="12.00" fill="#000000">derived</text>
</g>
<!-- xs:token -->
<g id="node3" class="node">
<title>xs:token</title>
<g id="a_node3_2"><a xlink:href="../../xs/token/#diagram" xlink:title="&lt;TABLE&gt;" target="_top">
<text text-anchor="start" x="155.5" y="-148.9" font-family="Helvetica,sans-Serif" font-size="12.00" fill="#000000">xs:token</text>
</a>
</g>
<polygon fill="none" stroke="#000000" points="153,-144 153,-161 202,-161 202,-144 153,-144"/>
</g>
<!-- xs:token&#45;&gt;biom:FingerprintImageMissingAreaReasonCodeSimpleType -->
<g id="edge2" class="edge">
<title>xs:token&#45;&gt;biom:FingerprintImageMissingAreaReasonCodeSimpleType</title>
<path fill="none" stroke="#000000" d="M177.5,-143.9473C177.5,-137.1242 177.5,-127.2417 177.5,-118.1794"/>
<polygon fill="#000000" stroke="#000000" points="181.0001,-118.1501 177.5,-108.1501 174.0001,-118.1502 181.0001,-118.1501"/>
<text text-anchor="middle" x="168" y="-122.9" font-family="Helvetica,sans-Serif" font-size="12.00" fill="#000000">restriction</text>
</g>
</g>
</svg>
