<?xml version="1.0" encoding="UTF-8" standalone="no"?>
<!DOCTYPE svg PUBLIC "-//W3C//DTD SVG 1.1//EN"
 "http://www.w3.org/Graphics/SVG/1.1/DTD/svg11.dtd">
<!-- Generated by graphviz version 2.40.1 (20161225.0304)
 -->
<!-- Title: graphic Pages: 1 -->
<svg width="725pt" height="45pt"
 viewBox="0.00 0.00 725.00 45.00" xmlns="http://www.w3.org/2000/svg" xmlns:xlink="http://www.w3.org/1999/xlink">
<g id="graph0" class="graph" transform="scale(1 1) rotate(0) translate(4 41)">
<title>graphic</title>
<polygon fill="#ffffff" stroke="transparent" points="-4,4 -4,-41 721,-41 721,4 -4,4"/>
<!-- biom:LipCharacterizationCode -->
<g id="node1" class="node">
<title>biom:LipCharacterizationCode</title>
<text text-anchor="start" x="284.5" y="-21.4" font-family="Helvetica,sans-Serif" font-weight="bold" font-size="12.00" fill="#000000">biom:LipCharacterizationCode</text>
<polygon fill="none" stroke="#ff0000" stroke-width="5" points="280.5,-14 280.5,-34 462.5,-34 462.5,-14 280.5,-14"/>
</g>
<!-- biom:LipCharacterizationCodeType -->
<g id="node3" class="node">
<title>biom:LipCharacterizationCodeType</title>
<g id="a_node3_0"><a xlink:href="../../biom/LipCharacterizationCodeType/#diagram" xlink:title="A data type for lip print characterization code" target="_top">
<text text-anchor="start" x="526.5" y="-20.4" font-family="Helvetica,sans-Serif" font-size="12.00" fill="#000000">biom:LipCharacterizationCodeType</text>
</a>
</g>
<polygon fill="none" stroke="#000000" points="524,-15.5 524,-32.5 717,-32.5 717,-15.5 524,-15.5"/>
</g>
<!-- biom:LipCharacterizationCode&#45;&gt;biom:LipCharacterizationCodeType -->
<g id="edge2" class="edge">
<title>biom:LipCharacterizationCode&#45;&gt;biom:LipCharacterizationCodeType</title>
<path fill="none" stroke="#000000" d="M465.2814,-24C481.1503,-24 497.7294,-24 513.8973,-24"/>
<polygon fill="#000000" stroke="#000000" points="513.9009,-27.5001 523.9009,-24 513.9008,-20.5001 513.9009,-27.5001"/>
<text text-anchor="middle" x="494.5" y="-27.4" font-family="Helvetica,sans-Serif" font-size="12.00" fill="#000000">type</text>
</g>
<!-- Types -->
<g id="node2" class="node">
<title>Types</title>
<text text-anchor="start" x="2.5" y="-21.4" font-family="Helvetica,sans-Serif" font-weight="bold" font-size="12.00" fill="#000000">Types</text>
<g id="a_node2_1"><a xlink:href="../../biom/LipCharacterizationCodeListType/#diagram" xlink:title="A data type for a list of lip print characterization code list" target="_top">
<polygon fill="#ebebeb" stroke="transparent" points="1.5,-1 1.5,-16 210.5,-16 210.5,-1 1.5,-1"/>
<text text-anchor="start" x="2.5" y="-5.4" font-family="Helvetica,sans-Serif" font-size="12.00" fill="#000000">biom:LipCharacterizationCodeListType</text>
</a>
</g>
<polygon fill="#000000" stroke="#000000" points=".5,-16 .5,-16 211.5,-16 211.5,-16 .5,-16"/>
<polygon fill="none" stroke="#000000" points="0,0 0,-32 211,-32 211,0 0,0"/>
</g>
<!-- Types&#45;&gt;biom:LipCharacterizationCode -->
<g id="edge1" class="edge">
<title>Types:top&#45;&gt;biom:LipCharacterizationCode</title>
<path fill="none" stroke="#000000" d="M210.5,-24C228.9807,-24 248.6546,-24 267.6727,-24"/>
<polygon fill="#000000" stroke="#000000" points="267.8524,-27.5001 277.8524,-24 267.8524,-20.5001 267.8524,-27.5001"/>
<text text-anchor="middle" x="244.5" y="-27.4" font-family="Helvetica,sans-Serif" font-size="12.00" fill="#000000">has&#45;a</text>
</g>
</g>
</svg>
