<?xml version="1.0" encoding="UTF-8" standalone="no"?>
<!DOCTYPE svg PUBLIC "-//W3C//DTD SVG 1.1//EN"
 "http://www.w3.org/Graphics/SVG/1.1/DTD/svg11.dtd">
<!-- Generated by graphviz version 2.40.1 (20161225.0304)
 -->
<!-- Title: graphic Pages: 1 -->
<svg width="571pt" height="45pt"
 viewBox="0.00 0.00 571.00 45.00" xmlns="http://www.w3.org/2000/svg" xmlns:xlink="http://www.w3.org/1999/xlink">
<g id="graph0" class="graph" transform="scale(1 1) rotate(0) translate(4 41)">
<title>graphic</title>
<polygon fill="#ffffff" stroke="transparent" points="-4,4 -4,-41 567,-41 567,4 -4,4"/>
<!-- j:SubjectAssessmentFirstArrestDate -->
<g id="node1" class="node">
<title>j:SubjectAssessmentFirstArrestDate</title>
<text text-anchor="start" x="216.5" y="-21.4" font-family="Helvetica,sans-Serif" font-weight="bold" font-size="12.00" fill="#000000">j:SubjectAssessmentFirstArrestDate</text>
<polygon fill="none" stroke="#ff0000" stroke-width="5" points="212.5,-14 212.5,-34 428.5,-34 428.5,-14 212.5,-14"/>
</g>
<!-- nc:DateType -->
<g id="node3" class="node">
<title>nc:DateType</title>
<g id="a_node3_0"><a xlink:href="../../nc/DateType/#diagram" xlink:title="A data type for a calendar date." target="_top">
<text text-anchor="start" x="492.5" y="-20.4" font-family="Helvetica,sans-Serif" font-size="12.00" fill="#000000">nc:DateType</text>
</a>
</g>
<polygon fill="none" stroke="#000000" points="490,-15.5 490,-32.5 563,-32.5 563,-15.5 490,-15.5"/>
</g>
<!-- j:SubjectAssessmentFirstArrestDate&#45;&gt;nc:DateType -->
<g id="edge2" class="edge">
<title>j:SubjectAssessmentFirstArrestDate&#45;&gt;nc:DateType</title>
<path fill="none" stroke="#000000" d="M431.0379,-24C448.0886,-24 464.8622,-24 479.4765,-24"/>
<polygon fill="#000000" stroke="#000000" points="479.7094,-27.5001 489.7094,-24 479.7093,-20.5001 479.7094,-27.5001"/>
<text text-anchor="middle" x="460.5" y="-27.4" font-family="Helvetica,sans-Serif" font-size="12.00" fill="#000000">type</text>
</g>
<!-- Types -->
<g id="node2" class="node">
<title>Types</title>
<text text-anchor="start" x="2.5" y="-21.4" font-family="Helvetica,sans-Serif" font-weight="bold" font-size="12.00" fill="#000000">Types</text>
<g id="a_node2_1"><a xlink:href="../../j/SubjectAssessmentType/#diagram" xlink:title="A data type for an event or activity involving the assessment of a corrections subject." target="_top">
<polygon fill="#ebebeb" stroke="transparent" points="1.5,-1 1.5,-16 142.5,-16 142.5,-1 1.5,-1"/>
<text text-anchor="start" x="2.5" y="-5.4" font-family="Helvetica,sans-Serif" font-size="12.00" fill="#000000">j:SubjectAssessmentType</text>
</a>
</g>
<polygon fill="#000000" stroke="#000000" points=".5,-16 .5,-16 143.5,-16 143.5,-16 .5,-16"/>
<polygon fill="none" stroke="#000000" points="0,0 0,-32 143,-32 143,0 0,0"/>
</g>
<!-- Types&#45;&gt;j:SubjectAssessmentFirstArrestDate -->
<g id="edge1" class="edge">
<title>Types:top&#45;&gt;j:SubjectAssessmentFirstArrestDate</title>
<path fill="none" stroke="#000000" d="M142.5,-24C160.9674,-24 180.5126,-24 199.626,-24"/>
<polygon fill="#000000" stroke="#000000" points="199.8808,-27.5001 209.8808,-24 199.8808,-20.5001 199.8808,-27.5001"/>
<text text-anchor="middle" x="176.5" y="-27.4" font-family="Helvetica,sans-Serif" font-size="12.00" fill="#000000">has&#45;a</text>
</g>
</g>
</svg>
