<?xml version="1.0" encoding="UTF-8" standalone="no"?>
<!DOCTYPE svg PUBLIC "-//W3C//DTD SVG 1.1//EN"
 "http://www.w3.org/Graphics/SVG/1.1/DTD/svg11.dtd">
<!-- Generated by graphviz version 2.40.1 (20161225.0304)
 -->
<!-- Title: graphic Pages: 1 -->
<svg width="576pt" height="191pt"
 viewBox="0.00 0.00 576.00 190.50" xmlns="http://www.w3.org/2000/svg" xmlns:xlink="http://www.w3.org/1999/xlink">
<g id="graph0" class="graph" transform="scale(1 1) rotate(0) translate(4 186.5)">
<title>graphic</title>
<polygon fill="#ffffff" stroke="transparent" points="-4,4 -4,-186.5 572,-186.5 572,4 -4,4"/>
<!-- im:OrphanType -->
<g id="node1" class="node">
<title>im:OrphanType</title>
<text text-anchor="start" x="129.5" y="-115.4" font-family="Helvetica,sans-Serif" font-weight="bold" font-size="12.00" fill="#000000">im:OrphanType</text>
<g id="a_node1_0"><a xlink:href="../../im/OrphanOneParentOtherParentFateText/#diagram" xlink:title="A description of what happened to the other parent of an orphan who has one sole or surviving parent." target="_top">
<polygon fill="#ebebeb" stroke="transparent" points="128.5,-95 128.5,-110 563.5,-110 563.5,-95 128.5,-95"/>
<text text-anchor="start" x="129.5" y="-99.4" font-family="Helvetica,sans-Serif" font-size="12.00" fill="#000000">im:OrphanOneParentOtherParentFateText: nc:TextType [0&#45;n]</text>
</a>
</g>
<g id="a_node1_1"><a xlink:href="../../im/OrphanReasonNoParentIndicator/#diagram" xlink:title="True if the orphan has no parents; false otherwise" target="_top">
<text text-anchor="start" x="129.5" y="-84.4" font-family="Helvetica,sans-Serif" font-size="12.00" fill="#000000">im:OrphanReasonNoParentIndicator: niem&#45;xs:boolean [0&#45;n]</text>
</a>
</g>
<g id="a_node1_2"><a xlink:href="../../im/OrphanReasonOneParentIndicator/#diagram" xlink:title="True if the orphan has one sole or surviving parent; false otherwise" target="_top">
<polygon fill="#ebebeb" stroke="transparent" points="128.5,-65 128.5,-80 563.5,-80 563.5,-65 128.5,-65"/>
<text text-anchor="start" x="129.5" y="-69.4" font-family="Helvetica,sans-Serif" font-size="12.00" fill="#000000">im:OrphanReasonOneParentIndicator: niem&#45;xs:boolean [0&#45;n]</text>
</a>
</g>
<g id="a_node1_3"><a xlink:href="../../im/OrphanReasonText/#diagram" xlink:title="A reason the child is an orphan." target="_top">
<text text-anchor="start" x="129.5" y="-54.4" font-family="Helvetica,sans-Serif" font-size="12.00" fill="#000000">im:OrphanReasonText: nc:TextType [0&#45;n]</text>
</a>
</g>
<g id="a_node1_4"><a xlink:href="../../im/OrphanSoleSurvivingParentCapableOfSupportIndicator/#diagram" xlink:title="True if the sole or surviving parent is capable of providing support for the orphan; false otherwise" target="_top">
<polygon fill="#ebebeb" stroke="transparent" points="128.5,-35 128.5,-50 563.5,-50 563.5,-35 128.5,-35"/>
<text text-anchor="start" x="129.5" y="-39.4" font-family="Helvetica,sans-Serif" font-size="12.00" fill="#000000">im:OrphanSoleSurvivingParentCapableOfSupportIndicator: niem&#45;xs:boolean [0&#45;n]</text>
</a>
</g>
<g id="a_node1_5"><a xlink:href="../../im/OrphanSoleSurvivingParentReleaseIndicator/#diagram" xlink:title="True if the sole or surviving parent has irrevocable released the orphan for emigration and adoption in writing; false otherwise" target="_top">
<text text-anchor="start" x="129.5" y="-24.4" font-family="Helvetica,sans-Serif" font-size="12.00" fill="#000000">im:OrphanSoleSurvivingParentReleaseIndicator: niem&#45;xs:boolean [0&#45;n]</text>
</a>
</g>
<g id="a_node1_6"><a xlink:href="../../im/OrphanAugmentationPoint/#diagram" xlink:title="An augmentation point for OrphanType." target="_top">
<polygon fill="#ebebeb" stroke="transparent" points="128.5,-5 128.5,-20 563.5,-20 563.5,-5 128.5,-5"/>
<text text-anchor="start" x="129.5" y="-9.4" font-family="Helvetica,sans-Serif" font-size="12.00" fill="#000000">im:OrphanAugmentationPoint [0&#45;n]</text>
</a>
</g>
<polygon fill="#ff0000" stroke="#ff0000" points="123.5,-110 123.5,-110 568.5,-110 568.5,-110 123.5,-110"/>
<polygon fill="none" stroke="#ff0000" stroke-width="5" points="125.5,-2.5 125.5,-127.5 565.5,-127.5 565.5,-2.5 125.5,-2.5"/>
</g>
<!-- Properties -->
<g id="node2" class="node">
<title>Properties</title>
<text text-anchor="start" x="2" y="-115.4" font-family="Helvetica,sans-Serif" font-weight="bold" font-size="12.00" fill="#000000">Properties</text>
<g id="a_node2_7"><a xlink:href="../../im/Orphan/#diagram" xlink:title="A child who has no parents because of death or disappearance of, abandonment or desertion of, or separation or loss from both parents. An orphan is also a child who has only one parent, who is not capable of taking care of the child, and who has irrevocably released the child for adoption in writing." target="_top">
<polygon fill="#ebebeb" stroke="transparent" points="1,-95 1,-110 63,-110 63,-95 1,-95"/>
<text text-anchor="start" x="2" y="-99.4" font-family="Helvetica,sans-Serif" font-size="12.00" fill="#000000">im:Orphan</text>
</a>
</g>
<polygon fill="#000000" stroke="#000000" points="0,-110 0,-110 64,-110 64,-110 0,-110"/>
<polygon fill="none" stroke="#000000" points="0,-94 0,-126 64,-126 64,-94 0,-94"/>
</g>
<!-- Properties&#45;&gt;im:OrphanType -->
<g id="edge1" class="edge">
<title>Properties:top&#45;&gt;im:OrphanType:top</title>
<path fill="none" stroke="#000000" d="M63,-118C88.3585,-118 97.1498,-118 118.2371,-118"/>
<polygon fill="#000000" stroke="#000000" points="118.5,-121.5001 128.5,-118 118.5,-114.5001 118.5,-121.5001"/>
<text text-anchor="middle" x="93.5" y="-121.4" font-family="Helvetica,sans-Serif" font-size="12.00" fill="#000000">type</text>
</g>
<!-- structures:ObjectType -->
<g id="node3" class="node">
<title>structures:ObjectType</title>
<g id="a_node3_8"><a xlink:href="../../structures/ObjectType/#diagram" xlink:title="A data type for a thing with its own lifespan that has some existence." target="_top">
<text text-anchor="start" x="286.5" y="-170.4" font-family="Helvetica,sans-Serif" font-size="12.00" fill="#000000">structures:ObjectType</text>
</a>
</g>
<polygon fill="none" stroke="#000000" points="284.5,-165.5 284.5,-182.5 406.5,-182.5 406.5,-165.5 284.5,-165.5"/>
</g>
<!-- structures:ObjectType&#45;&gt;im:OrphanType -->
<g id="edge2" class="edge">
<title>structures:ObjectType&#45;&gt;im:OrphanType</title>
<path fill="none" stroke="#000000" d="M345.5,-165.3644C345.5,-159.2696 345.5,-150.4448 345.5,-140.522"/>
<polygon fill="#000000" stroke="#000000" points="349.0001,-140.2935 345.5,-130.2936 342.0001,-140.2936 349.0001,-140.2935"/>
<text text-anchor="middle" x="336" y="-144.65" font-family="Helvetica,sans-Serif" font-size="12.00" fill="#000000">extension</text>
</g>
</g>
</svg>
