<?xml version="1.0" encoding="UTF-8" standalone="no"?>
<!DOCTYPE svg PUBLIC "-//W3C//DTD SVG 1.1//EN"
 "http://www.w3.org/Graphics/SVG/1.1/DTD/svg11.dtd">
<!-- Generated by graphviz version 2.40.1 (20161225.0304)
 -->
<!-- Title: graphic Pages: 1 -->
<svg width="597pt" height="45pt"
 viewBox="0.00 0.00 597.00 45.00" xmlns="http://www.w3.org/2000/svg" xmlns:xlink="http://www.w3.org/1999/xlink">
<g id="graph0" class="graph" transform="scale(1 1) rotate(0) translate(4 41)">
<title>graphic</title>
<polygon fill="#ffffff" stroke="transparent" points="-4,4 -4,-41 593,-41 593,4 -4,4"/>
<!-- nc:VehicleMaximumLoadWeightMeasure -->
<g id="node1" class="node">
<title>nc:VehicleMaximumLoadWeightMeasure</title>
<text text-anchor="start" x="160.5" y="-21.4" font-family="Helvetica,sans-Serif" font-weight="bold" font-size="12.00" fill="#000000">nc:VehicleMaximumLoadWeightMeasure</text>
<polygon fill="none" stroke="#ff0000" stroke-width="5" points="156.5,-14 156.5,-34 396.5,-34 396.5,-14 156.5,-14"/>
</g>
<!-- nc:WeightMeasureType -->
<g id="node3" class="node">
<title>nc:WeightMeasureType</title>
<g id="a_node3_0"><a xlink:href="../../nc/WeightMeasureType/#diagram" xlink:title="A data type for a measure of a weight." target="_top">
<text text-anchor="start" x="460.5" y="-20.4" font-family="Helvetica,sans-Serif" font-size="12.00" fill="#000000">nc:WeightMeasureType</text>
</a>
</g>
<polygon fill="none" stroke="#000000" points="458,-15.5 458,-32.5 589,-32.5 589,-15.5 458,-15.5"/>
</g>
<!-- nc:VehicleMaximumLoadWeightMeasure&#45;&gt;nc:WeightMeasureType -->
<g id="edge2" class="edge">
<title>nc:VehicleMaximumLoadWeightMeasure&#45;&gt;nc:WeightMeasureType</title>
<path fill="none" stroke="#000000" d="M399.2764,-24C415.7047,-24 432.1501,-24 447.4497,-24"/>
<polygon fill="#000000" stroke="#000000" points="447.8445,-27.5001 457.8444,-24 447.8444,-20.5001 447.8445,-27.5001"/>
<text text-anchor="middle" x="428.5" y="-27.4" font-family="Helvetica,sans-Serif" font-size="12.00" fill="#000000">type</text>
</g>
<!-- Types -->
<g id="node2" class="node">
<title>Types</title>
<text text-anchor="start" x="2.5" y="-21.4" font-family="Helvetica,sans-Serif" font-weight="bold" font-size="12.00" fill="#000000">Types</text>
<g id="a_node2_1"><a xlink:href="../../nc/VehicleType/#diagram" xlink:title="A data type for a conveyance designed to carry an operator, passengers and/or cargo, over land." target="_top">
<polygon fill="#ebebeb" stroke="transparent" points="1.5,-1 1.5,-16 86.5,-16 86.5,-1 1.5,-1"/>
<text text-anchor="start" x="2.5" y="-5.4" font-family="Helvetica,sans-Serif" font-size="12.00" fill="#000000">nc:VehicleType</text>
</a>
</g>
<polygon fill="#000000" stroke="#000000" points=".5,-16 .5,-16 87.5,-16 87.5,-16 .5,-16"/>
<polygon fill="none" stroke="#000000" points="0,0 0,-32 87,-32 87,0 0,0"/>
</g>
<!-- Types&#45;&gt;nc:VehicleMaximumLoadWeightMeasure -->
<g id="edge1" class="edge">
<title>Types:top&#45;&gt;nc:VehicleMaximumLoadWeightMeasure</title>
<path fill="none" stroke="#000000" d="M86.5,-24C105.0392,-24 124.596,-24 143.8299,-24"/>
<polygon fill="#000000" stroke="#000000" points="143.8516,-27.5001 153.8515,-24 143.8515,-20.5001 143.8516,-27.5001"/>
<text text-anchor="middle" x="120.5" y="-27.4" font-family="Helvetica,sans-Serif" font-size="12.00" fill="#000000">has&#45;a</text>
</g>
</g>
</svg>
