<?xml version="1.0" encoding="UTF-8" standalone="no"?>
<!DOCTYPE svg PUBLIC "-//W3C//DTD SVG 1.1//EN"
 "http://www.w3.org/Graphics/SVG/1.1/DTD/svg11.dtd">
<!-- Generated by graphviz version 2.40.1 (20161225.0304)
 -->
<!-- Title: graphic Pages: 1 -->
<svg width="399pt" height="86pt"
 viewBox="0.00 0.00 399.00 86.00" xmlns="http://www.w3.org/2000/svg" xmlns:xlink="http://www.w3.org/1999/xlink">
<g id="graph0" class="graph" transform="scale(1 1) rotate(0) translate(4 82)">
<title>graphic</title>
<polygon fill="#ffffff" stroke="transparent" points="-4,4 -4,-82 395,-82 395,4 -4,4"/>
<!-- it:LocationActivityCode -->
<g id="node1" class="node">
<title>it:LocationActivityCode</title>
<text text-anchor="start" x="6.5" y="-9.9" font-family="Helvetica,sans-Serif" font-weight="bold" font-size="12.00" fill="#000000">it:LocationActivityCode</text>
<polygon fill="none" stroke="#ff0000" stroke-width="5" points="2.5,-2.5 2.5,-22.5 144.5,-22.5 144.5,-2.5 2.5,-2.5"/>
</g>
<!-- itcodes:LocationActivityCodeType -->
<g id="node3" class="node">
<title>itcodes:LocationActivityCodeType</title>
<g id="a_node3_0"><a xlink:href="../../itcodes/LocationActivityCodeType/#diagram" xlink:title="A data type for the kinds of facilities." target="_top">
<text text-anchor="start" x="208.5" y="-8.9" font-family="Helvetica,sans-Serif" font-size="12.00" fill="#000000">itcodes:LocationActivityCodeType</text>
</a>
</g>
<polygon fill="none" stroke="#000000" points="206,-4 206,-21 391,-21 391,-4 206,-4"/>
</g>
<!-- it:LocationActivityCode&#45;&gt;itcodes:LocationActivityCodeType -->
<g id="edge2" class="edge">
<title>it:LocationActivityCode&#45;&gt;itcodes:LocationActivityCodeType</title>
<path fill="none" stroke="#000000" d="M147.1734,-12.5C162.6691,-12.5 179.285,-12.5 195.6279,-12.5"/>
<polygon fill="#000000" stroke="#000000" points="195.756,-16.0001 205.756,-12.5 195.7559,-9.0001 195.756,-16.0001"/>
<text text-anchor="middle" x="176.5" y="-15.9" font-family="Helvetica,sans-Serif" font-size="12.00" fill="#000000">type</text>
</g>
<!-- SubstitutionGroup -->
<g id="node2" class="node">
<title>SubstitutionGroup</title>
<g id="a_node2_1"><a xlink:href="../../it/LocationActivityAbstract/#diagram" xlink:title="A data concept for an activity name." target="_top">
<text text-anchor="start" x="5.5" y="-65.9" font-family="Helvetica,sans-Serif" font-size="12.00" fill="#000000">it:LocationActivityAbstract</text>
</a>
</g>
<polygon fill="none" stroke="#000000" points="3,-61 3,-78 144,-78 144,-61 3,-61"/>
</g>
<!-- SubstitutionGroup&#45;&gt;it:LocationActivityCode -->
<g id="edge1" class="edge">
<title>SubstitutionGroup&#45;&gt;it:LocationActivityCode</title>
<path fill="none" stroke="#000000" d="M73.5,-50.9163C73.5,-42.4809 73.5,-32.7214 73.5,-25.1501"/>
<polygon fill="#000000" stroke="#000000" points="70.0001,-50.9472 73.5,-60.9473 77.0001,-50.9473 70.0001,-50.9472"/>
<text text-anchor="middle" x="64" y="-39.9" font-family="Helvetica,sans-Serif" font-size="12.00" fill="#000000">substitution group</text>
</g>
</g>
</svg>
