<?xml version="1.0" encoding="UTF-8" standalone="no"?>
<!DOCTYPE svg PUBLIC "-//W3C//DTD SVG 1.1//EN"
 "http://www.w3.org/Graphics/SVG/1.1/DTD/svg11.dtd">
<!-- Generated by graphviz version 2.40.1 (20161225.0304)
 -->
<!-- Title: graphic Pages: 1 -->
<svg width="393pt" height="45pt"
 viewBox="0.00 0.00 393.00 45.00" xmlns="http://www.w3.org/2000/svg" xmlns:xlink="http://www.w3.org/1999/xlink">
<g id="graph0" class="graph" transform="scale(1 1) rotate(0) translate(4 41)">
<title>graphic</title>
<polygon fill="#ffffff" stroke="transparent" points="-4,4 -4,-41 389,-41 389,4 -4,4"/>
<!-- it:ItineraryName -->
<g id="node1" class="node">
<title>it:ItineraryName</title>
<text text-anchor="start" x="157" y="-21.4" font-family="Helvetica,sans-Serif" font-weight="bold" font-size="12.00" fill="#000000">it:ItineraryName</text>
<polygon fill="none" stroke="#ff0000" stroke-width="5" points="153.5,-14 153.5,-34 252.5,-34 252.5,-14 153.5,-14"/>
</g>
<!-- nc:TextType -->
<g id="node3" class="node">
<title>nc:TextType</title>
<g id="a_node3_0"><a xlink:href="../../nc/TextType/#diagram" xlink:title="A data type for a character string." target="_top">
<text text-anchor="start" x="316.5" y="-20.4" font-family="Helvetica,sans-Serif" font-size="12.00" fill="#000000">nc:TextType</text>
</a>
</g>
<polygon fill="none" stroke="#000000" points="314,-15.5 314,-32.5 385,-32.5 385,-15.5 314,-15.5"/>
</g>
<!-- it:ItineraryName&#45;&gt;nc:TextType -->
<g id="edge2" class="edge">
<title>it:ItineraryName&#45;&gt;nc:TextType</title>
<path fill="none" stroke="#000000" d="M255.0629,-24C270.833,-24 288.0365,-24 303.388,-24"/>
<polygon fill="#000000" stroke="#000000" points="303.6797,-27.5001 313.6796,-24 303.6796,-20.5001 303.6797,-27.5001"/>
<text text-anchor="middle" x="284.5" y="-27.4" font-family="Helvetica,sans-Serif" font-size="12.00" fill="#000000">type</text>
</g>
<!-- Types -->
<g id="node2" class="node">
<title>Types</title>
<text text-anchor="start" x="2" y="-21.4" font-family="Helvetica,sans-Serif" font-weight="bold" font-size="12.00" fill="#000000">Types</text>
<g id="a_node2_1"><a xlink:href="../../it/ItineraryType/#diagram" xlink:title="A data type to provide additional information describing a place of departure and arrival and associated dates during a trip by a conveyance." target="_top">
<polygon fill="#ebebeb" stroke="transparent" points="1,-1 1,-16 83,-16 83,-1 1,-1"/>
<text text-anchor="start" x="2" y="-5.4" font-family="Helvetica,sans-Serif" font-size="12.00" fill="#000000">it:ItineraryType</text>
</a>
</g>
<polygon fill="#000000" stroke="#000000" points="0,-16 0,-16 84,-16 84,-16 0,-16"/>
<polygon fill="none" stroke="#000000" points="0,0 0,-32 84,-32 84,0 0,0"/>
</g>
<!-- Types&#45;&gt;it:ItineraryName -->
<g id="edge1" class="edge">
<title>Types:top&#45;&gt;it:ItineraryName</title>
<path fill="none" stroke="#000000" d="M83,-24C101.7207,-24 122.0842,-24 140.6306,-24"/>
<polygon fill="#000000" stroke="#000000" points="140.7253,-27.5001 150.7253,-24 140.7253,-20.5001 140.7253,-27.5001"/>
<text text-anchor="middle" x="117.5" y="-27.4" font-family="Helvetica,sans-Serif" font-size="12.00" fill="#000000">has&#45;a</text>
</g>
</g>
</svg>
