<?xml version="1.0" encoding="UTF-8" standalone="no"?>
<!DOCTYPE svg PUBLIC "-//W3C//DTD SVG 1.1//EN"
 "http://www.w3.org/Graphics/SVG/1.1/DTD/svg11.dtd">
<!-- Generated by graphviz version 2.40.1 (20161225.0304)
 -->
<!-- Title: graphic Pages: 1 -->
<svg width="1042pt" height="273pt"
 viewBox="0.00 0.00 1042.00 273.00" xmlns="http://www.w3.org/2000/svg" xmlns:xlink="http://www.w3.org/1999/xlink">
<g id="graph0" class="graph" transform="scale(1 1) rotate(0) translate(4 269)">
<title>graphic</title>
<polygon fill="#ffffff" stroke="transparent" points="-4,4 -4,-269 1038,-269 1038,4 -4,4"/>
<!-- hs:ServiceType -->
<g id="node1" class="node">
<title>hs:ServiceType</title>
<text text-anchor="start" x="184.5" y="-144.9" font-family="Helvetica,sans-Serif" font-weight="bold" font-size="12.00" fill="#000000">hs:ServiceType</text>
<g id="a_node1_0"><a xlink:href="../../hs/ResponsibilityForServiceCostText/#diagram" xlink:title="An agency responsible for paying the cost of a service." target="_top">
<polygon fill="#ebebeb" stroke="transparent" points="183.5,-124.5 183.5,-139.5 482.5,-139.5 482.5,-124.5 183.5,-124.5"/>
<text text-anchor="start" x="184.5" y="-128.9" font-family="Helvetica,sans-Serif" font-size="12.00" fill="#000000">hs:ResponsibilityForServiceCostText: nc:TextType [0&#45;n]</text>
</a>
</g>
<g id="a_node1_1"><a xlink:href="../../hs/ResponsibleEntityDescriptionText/#diagram" xlink:title="A description of the person or organization who will provide the service." target="_top">
<text text-anchor="start" x="184.5" y="-113.9" font-family="Helvetica,sans-Serif" font-size="12.00" fill="#000000">hs:ResponsibleEntityDescriptionText: nc:TextType [0&#45;n]</text>
</a>
</g>
<g id="a_node1_2"><a xlink:href="../../hs/ServiceCostValue/#diagram" xlink:title="A cost or estimated cost of the service." target="_top">
<polygon fill="#ebebeb" stroke="transparent" points="183.5,-94.5 183.5,-109.5 482.5,-109.5 482.5,-94.5 183.5,-94.5"/>
<text text-anchor="start" x="184.5" y="-98.9" font-family="Helvetica,sans-Serif" font-size="12.00" fill="#000000">hs:ServiceCostValue: nc:NumericType [0&#45;n]</text>
</a>
</g>
<g id="a_node1_3"><a xlink:href="../../hs/ServiceCategoryAbstract/#diagram" xlink:title="A data concept for a kind of a service that will be provided as part of a case plan. Categories include: assessment, treatment, program, benefit, education, transportation, respite care." target="_top">
<text text-anchor="start" x="184.5" y="-83.9" font-family="Helvetica,sans-Serif" font-size="12.00" fill="#000000">hs:ServiceCategoryAbstract [0&#45;n]</text>
</a>
</g>
<g id="a_node1_4"><a xlink:href="../../hs/ReferredOutServiceReasonText/#diagram" xlink:title="A reason a service was referred out." target="_top">
<polygon fill="#ebebeb" stroke="transparent" points="183.5,-64.5 183.5,-79.5 482.5,-79.5 482.5,-64.5 183.5,-64.5"/>
<text text-anchor="start" x="184.5" y="-68.9" font-family="Helvetica,sans-Serif" font-size="12.00" fill="#000000">hs:ReferredOutServiceReasonText: nc:TextType [0&#45;n]</text>
</a>
</g>
<g id="a_node1_5"><a xlink:href="../../hs/UnprovidedServiceReasonCategoryAbstract/#diagram" xlink:title="A data concept for a kind of reason a service was not provided, e.g organizational barriers." target="_top">
<text text-anchor="start" x="184.5" y="-53.9" font-family="Helvetica,sans-Serif" font-size="12.00" fill="#000000">hs:UnprovidedServiceReasonCategoryAbstract [0&#45;n]</text>
</a>
</g>
<g id="a_node1_6"><a xlink:href="../../hs/ServiceAugmentationPoint/#diagram" xlink:title="An augmentation point for ServiceType." target="_top">
<polygon fill="#ebebeb" stroke="transparent" points="183.5,-34.5 183.5,-49.5 482.5,-49.5 482.5,-34.5 183.5,-34.5"/>
<text text-anchor="start" x="184.5" y="-38.9" font-family="Helvetica,sans-Serif" font-size="12.00" fill="#000000">hs:ServiceAugmentationPoint [0&#45;n]</text>
</a>
</g>
<polygon fill="#ff0000" stroke="#ff0000" points="178.5,-139.5 178.5,-139.5 487.5,-139.5 487.5,-139.5 178.5,-139.5"/>
<polygon fill="none" stroke="#ff0000" stroke-width="5" points="180.5,-32 180.5,-157 484.5,-157 484.5,-32 180.5,-32"/>
</g>
<!-- subst_d9e19687 -->
<g id="node2" class="node">
<title>subst_d9e19687</title>
<g id="a_node2_7"><a xlink:href="../../hs/ServiceCategoryAbstract/#diagram" xlink:title="&lt;TABLE&gt;" target="_top">
<text text-anchor="start" x="629" y="-100.9" font-family="Helvetica,sans-Serif" font-weight="bold" font-size="12.00" fill="#000000">Substitution group hs:ServiceCategoryAbstract</text>
</a>
</g>
<g id="a_node2_8"><a xlink:href="../../hs/ServiceCategoryCode/#diagram" xlink:title="A kind of a service that will be provided as part of a case plan. Categories include: assessment, treatment, program, benefit, education, transportation, respite care." target="_top">
<polygon fill="#ebebeb" stroke="transparent" points="628,-80.5 628,-95.5 931,-95.5 931,-80.5 628,-80.5"/>
<text text-anchor="start" x="629" y="-84.9" font-family="Helvetica,sans-Serif" font-size="12.00" fill="#000000">hs:ServiceCategoryCode: hs:ServiceCategoryCodeType</text>
</a>
</g>
<g id="a_node2_9"><a xlink:href="../../hs/ServiceCategoryText/#diagram" xlink:title="A kind of a service that will be provided as part of a case plan. Categories include: assessment, treatment, program, benefit, education, transportation, respite care." target="_top">
<text text-anchor="start" x="629" y="-69.9" font-family="Helvetica,sans-Serif" font-size="12.00" fill="#000000">hs:ServiceCategoryText: nc:TextType</text>
</a>
</g>
<polygon fill="#000000" stroke="#000000" points="627,-95.5 627,-95.5 932,-95.5 932,-95.5 627,-95.5"/>
<polygon fill="none" stroke="#000000" points="626.5,-65 626.5,-112 931.5,-112 931.5,-65 626.5,-65"/>
</g>
<!-- hs:ServiceType&#45;&gt;subst_d9e19687 -->
<g id="edge1" class="edge">
<title>hs:ServiceType:e&#45;&gt;subst_d9e19687:w</title>
<path fill="none" stroke="#000000" d="M492.7509,-86.647C549.4276,-88.3085 566.454,-103.5 628,-103.5"/>
<polygon fill="#000000" stroke="#000000" points="492.5492,-83.1438 482.5,-86.5 492.4488,-90.1431 492.5492,-83.1438"/>
</g>
<!-- subst_d9e20479 -->
<g id="node3" class="node">
<title>subst_d9e20479</title>
<g id="a_node3_10"><a xlink:href="../../hs/UnprovidedServiceReasonCategoryAbstract/#diagram" xlink:title="&lt;TABLE&gt;" target="_top">
<text text-anchor="start" x="526" y="-35.9" font-family="Helvetica,sans-Serif" font-weight="bold" font-size="12.00" fill="#000000">Substitution group hs:UnprovidedServiceReasonCategoryAbstract</text>
</a>
</g>
<g id="a_node3_11"><a xlink:href="../../hs/UnprovidedServiceReasonCategoryCode/#diagram" xlink:title="A kind of reason a service was not provided, e.g organizational barriers." target="_top">
<polygon fill="#ebebeb" stroke="transparent" points="525,-15.5 525,-30.5 1033,-30.5 1033,-15.5 525,-15.5"/>
<text text-anchor="start" x="526" y="-19.9" font-family="Helvetica,sans-Serif" font-size="12.00" fill="#000000">hs:UnprovidedServiceReasonCategoryCode: hs:UnprovidedServiceReasonCategoryCodeType</text>
</a>
</g>
<g id="a_node3_12"><a xlink:href="../../hs/UnprovidedServiceReasonCategoryText/#diagram" xlink:title="A kind of reason a service was not provided, e.g organizational barriers." target="_top">
<text text-anchor="start" x="526" y="-4.9" font-family="Helvetica,sans-Serif" font-size="12.00" fill="#000000">hs:UnprovidedServiceReasonCategoryText: nc:TextType</text>
</a>
</g>
<polygon fill="#000000" stroke="#000000" points="524,-30.5 524,-30.5 1034,-30.5 1034,-30.5 524,-30.5"/>
<polygon fill="none" stroke="#000000" points="524,0 524,-47 1034,-47 1034,0 524,0"/>
</g>
<!-- hs:ServiceType&#45;&gt;subst_d9e20479 -->
<g id="edge2" class="edge">
<title>hs:ServiceType:e&#45;&gt;subst_d9e20479:w</title>
<path fill="none" stroke="#000000" d="M492.6242,-54.7083C504.3151,-50.1554 508.4933,-38.5 525,-38.5"/>
<polygon fill="#000000" stroke="#000000" points="491.737,-51.3108 482.5,-56.5 492.9569,-58.2037 491.737,-51.3108"/>
</g>
<!-- Properties -->
<g id="node4" class="node">
<title>Properties</title>
<text text-anchor="start" x="2.5" y="-144.9" font-family="Helvetica,sans-Serif" font-weight="bold" font-size="12.00" fill="#000000">Properties</text>
<g id="a_node4_13"><a xlink:href="../../hs/RequestedService/#diagram" xlink:title="A Service being requested by the sending agency" target="_top">
<polygon fill="#ebebeb" stroke="transparent" points="1.5,-124.5 1.5,-139.5 118.5,-139.5 118.5,-124.5 1.5,-124.5"/>
<text text-anchor="start" x="2.5" y="-128.9" font-family="Helvetica,sans-Serif" font-size="12.00" fill="#000000">hs:RequestedService</text>
</a>
</g>
<g id="a_node4_14"><a xlink:href="../../hs/Service/#diagram" xlink:title="A service that will be made available by the agency." target="_top">
<text text-anchor="start" x="2.5" y="-113.9" font-family="Helvetica,sans-Serif" font-size="12.00" fill="#000000">hs:Service</text>
</a>
</g>
<polygon fill="#000000" stroke="#000000" points=".5,-139.5 .5,-139.5 119.5,-139.5 119.5,-139.5 .5,-139.5"/>
<polygon fill="none" stroke="#000000" points="0,-109 0,-156 119,-156 119,-109 0,-109"/>
</g>
<!-- Properties&#45;&gt;hs:ServiceType -->
<g id="edge3" class="edge">
<title>Properties:top&#45;&gt;hs:ServiceType:top</title>
<path fill="none" stroke="#000000" d="M118.5,-147.5C143.6649,-147.5 152.3891,-147.5 173.3154,-147.5"/>
<polygon fill="#000000" stroke="#000000" points="173.5,-151.0001 183.5,-147.5 173.5,-144.0001 173.5,-151.0001"/>
<text text-anchor="middle" x="148.5" y="-150.9" font-family="Helvetica,sans-Serif" font-size="12.00" fill="#000000">type</text>
</g>
<!-- nc:ActivityType -->
<g id="node5" class="node">
<title>nc:ActivityType</title>
<g id="a_node5_15"><a xlink:href="../../nc/ActivityType/#diagram" xlink:title="A data type for a single or set of related actions, events, or process steps." target="_top">
<text text-anchor="start" x="292.5" y="-199.9" font-family="Helvetica,sans-Serif" font-size="12.00" fill="#000000">nc:ActivityType</text>
</a>
</g>
<polygon fill="none" stroke="#000000" points="290,-195 290,-212 375,-212 375,-195 290,-195"/>
</g>
<!-- nc:ActivityType&#45;&gt;hs:ServiceType -->
<g id="edge4" class="edge">
<title>nc:ActivityType&#45;&gt;hs:ServiceType</title>
<path fill="none" stroke="#000000" d="M332.5,-194.8644C332.5,-188.7696 332.5,-179.9448 332.5,-170.022"/>
<polygon fill="#000000" stroke="#000000" points="336.0001,-169.7935 332.5,-159.7936 329.0001,-169.7936 336.0001,-169.7935"/>
<text text-anchor="middle" x="323" y="-174.15" font-family="Helvetica,sans-Serif" font-size="12.00" fill="#000000">extension</text>
</g>
<!-- structures:ObjectType -->
<g id="node6" class="node">
<title>structures:ObjectType</title>
<g id="a_node6_16"><a xlink:href="../../structures/ObjectType/#diagram" xlink:title="A data type for a thing with its own lifespan that has some existence." target="_top">
<text text-anchor="start" x="273.5" y="-252.9" font-family="Helvetica,sans-Serif" font-size="12.00" fill="#000000">structures:ObjectType</text>
</a>
</g>
<polygon fill="none" stroke="#000000" points="271.5,-248 271.5,-265 393.5,-265 393.5,-248 271.5,-248"/>
</g>
<!-- structures:ObjectType&#45;&gt;nc:ActivityType -->
<g id="edge5" class="edge">
<title>structures:ObjectType&#45;&gt;nc:ActivityType</title>
<path fill="none" stroke="#000000" d="M332.5,-247.911C332.5,-241.0124 332.5,-231.0696 332.5,-222.34"/>
<polygon fill="#000000" stroke="#000000" points="336.0001,-222.2518 332.5,-212.2519 329.0001,-222.2519 336.0001,-222.2518"/>
<text text-anchor="middle" x="323" y="-226.9" font-family="Helvetica,sans-Serif" font-size="12.00" fill="#000000">extension</text>
</g>
</g>
</svg>
