<?xml version="1.0" encoding="UTF-8" standalone="no"?>
<!DOCTYPE svg PUBLIC "-//W3C//DTD SVG 1.1//EN"
 "http://www.w3.org/Graphics/SVG/1.1/DTD/svg11.dtd">
<!-- Generated by graphviz version 2.40.1 (20161225.0304)
 -->
<!-- Title: graphic Pages: 1 -->
<svg width="641pt" height="221pt"
 viewBox="0.00 0.00 641.00 220.50" xmlns="http://www.w3.org/2000/svg" xmlns:xlink="http://www.w3.org/1999/xlink">
<g id="graph0" class="graph" transform="scale(1 1) rotate(0) translate(4 216.5)">
<title>graphic</title>
<polygon fill="#ffffff" stroke="transparent" points="-4,4 -4,-216.5 637,-216.5 637,4 -4,4"/>
<!-- em:ManagementFunctionType -->
<g id="node1" class="node">
<title>em:ManagementFunctionType</title>
<text text-anchor="start" x="206.5" y="-145.4" font-family="Helvetica,sans-Serif" font-weight="bold" font-size="12.00" fill="#000000">em:ManagementFunctionType</text>
<g id="a_node1_0"><a xlink:href="../../em/Decision/#diagram" xlink:title="An activation or deactivating decision." target="_top">
<polygon fill="#ebebeb" stroke="transparent" points="205.5,-125 205.5,-140 628.5,-140 628.5,-125 205.5,-125"/>
<text text-anchor="start" x="206.5" y="-129.4" font-family="Helvetica,sans-Serif" font-size="12.00" fill="#000000">em:Decision: em:DecisionType [0&#45;n]</text>
</a>
</g>
<g id="a_node1_1"><a xlink:href="../../em/IncidentResponse/#diagram" xlink:title="A response to an incident." target="_top">
<text text-anchor="start" x="206.5" y="-114.4" font-family="Helvetica,sans-Serif" font-size="12.00" fill="#000000">em:IncidentResponse: em:IncidentResponseType [0&#45;n]</text>
</a>
</g>
<g id="a_node1_2"><a xlink:href="../../em/PlanApproval/#diagram" xlink:title="A set of information about a plan approval." target="_top">
<polygon fill="#ebebeb" stroke="transparent" points="205.5,-95 205.5,-110 628.5,-110 628.5,-95 205.5,-95"/>
<text text-anchor="start" x="206.5" y="-99.4" font-family="Helvetica,sans-Serif" font-size="12.00" fill="#000000">em:PlanApproval: em:PlanApprovalType [0&#45;n]</text>
</a>
</g>
<g id="a_node1_3"><a xlink:href="../../em/ActivityResponseCoordination/#diagram" xlink:title="A set of information about the coordination of a response to an activity or event." target="_top">
<text text-anchor="start" x="206.5" y="-84.4" font-family="Helvetica,sans-Serif" font-size="12.00" fill="#000000">em:ActivityResponseCoordination: em:ActivityResponseCoordinationType [0&#45;n]</text>
</a>
</g>
<g id="a_node1_4"><a xlink:href="../../em/PublicCommunication/#diagram" xlink:title="A set of information about communication releasable to the public." target="_top">
<polygon fill="#ebebeb" stroke="transparent" points="205.5,-65 205.5,-80 628.5,-80 628.5,-65 205.5,-65"/>
<text text-anchor="start" x="206.5" y="-69.4" font-family="Helvetica,sans-Serif" font-size="12.00" fill="#000000">em:PublicCommunication: em:PublicCommunicationType [0&#45;n]</text>
</a>
</g>
<g id="a_node1_5"><a xlink:href="../../em/InteragencyCommunication/#diagram" xlink:title="A communications data exchange across agencies." target="_top">
<text text-anchor="start" x="206.5" y="-54.4" font-family="Helvetica,sans-Serif" font-size="12.00" fill="#000000">em:InteragencyCommunication: em:InteragencyCommunicationType [0&#45;n]</text>
</a>
</g>
<g id="a_node1_6"><a xlink:href="../../em/IntraAgencyCommunication/#diagram" xlink:title="A communications data exchange within an agency." target="_top">
<polygon fill="#ebebeb" stroke="transparent" points="205.5,-35 205.5,-50 628.5,-50 628.5,-35 205.5,-35"/>
<text text-anchor="start" x="206.5" y="-39.4" font-family="Helvetica,sans-Serif" font-size="12.00" fill="#000000">em:IntraAgencyCommunication: em:IntraAgencyCommunicationType [0&#45;n]</text>
</a>
</g>
<g id="a_node1_7"><a xlink:href="../../em/ResponseAssignedLeadership/#diagram" xlink:title="A set of information about the leadership assigned to a response." target="_top">
<text text-anchor="start" x="206.5" y="-24.4" font-family="Helvetica,sans-Serif" font-size="12.00" fill="#000000">em:ResponseAssignedLeadership: em:LeadershipType [0&#45;n]</text>
</a>
</g>
<g id="a_node1_8"><a xlink:href="../../em/ManagementFunctionAugmentationPoint/#diagram" xlink:title="An augmentation point for type em:ManagementFunctionType" target="_top">
<polygon fill="#ebebeb" stroke="transparent" points="205.5,-5 205.5,-20 628.5,-20 628.5,-5 205.5,-5"/>
<text text-anchor="start" x="206.5" y="-9.4" font-family="Helvetica,sans-Serif" font-size="12.00" fill="#000000">em:ManagementFunctionAugmentationPoint [0&#45;n]</text>
</a>
</g>
<polygon fill="#ff0000" stroke="#ff0000" points="200.5,-140 200.5,-140 633.5,-140 633.5,-140 200.5,-140"/>
<polygon fill="none" stroke="#ff0000" stroke-width="5" points="202.5,-2.5 202.5,-157.5 630.5,-157.5 630.5,-2.5 202.5,-2.5"/>
</g>
<!-- Properties -->
<g id="node2" class="node">
<title>Properties</title>
<text text-anchor="start" x="2.5" y="-145.4" font-family="Helvetica,sans-Serif" font-weight="bold" font-size="12.00" fill="#000000">Properties</text>
<g id="a_node2_9"><a xlink:href="../../em/ManagementFunction/#diagram" xlink:title="A set of information for the managing and commanding function in a Public Health Emergency Operations Center." target="_top">
<polygon fill="#ebebeb" stroke="transparent" points="1.5,-125 1.5,-140 140.5,-140 140.5,-125 1.5,-125"/>
<text text-anchor="start" x="2.5" y="-129.4" font-family="Helvetica,sans-Serif" font-size="12.00" fill="#000000">em:ManagementFunction</text>
</a>
</g>
<polygon fill="#000000" stroke="#000000" points=".5,-140 .5,-140 141.5,-140 141.5,-140 .5,-140"/>
<polygon fill="none" stroke="#000000" points="0,-124 0,-156 141,-156 141,-124 0,-124"/>
</g>
<!-- Properties&#45;&gt;em:ManagementFunctionType -->
<g id="edge1" class="edge">
<title>Properties:top&#45;&gt;em:ManagementFunctionType:top</title>
<path fill="none" stroke="#000000" d="M140.5,-148C165.6649,-148 174.3891,-148 195.3154,-148"/>
<polygon fill="#000000" stroke="#000000" points="195.5,-151.5001 205.5,-148 195.5,-144.5001 195.5,-151.5001"/>
<text text-anchor="middle" x="170.5" y="-151.4" font-family="Helvetica,sans-Serif" font-size="12.00" fill="#000000">type</text>
</g>
<!-- structures:ObjectType -->
<g id="node3" class="node">
<title>structures:ObjectType</title>
<g id="a_node3_10"><a xlink:href="../../structures/ObjectType/#diagram" xlink:title="A data type for a thing with its own lifespan that has some existence." target="_top">
<text text-anchor="start" x="357.5" y="-200.4" font-family="Helvetica,sans-Serif" font-size="12.00" fill="#000000">structures:ObjectType</text>
</a>
</g>
<polygon fill="none" stroke="#000000" points="355.5,-195.5 355.5,-212.5 477.5,-212.5 477.5,-195.5 355.5,-195.5"/>
</g>
<!-- structures:ObjectType&#45;&gt;em:ManagementFunctionType -->
<g id="edge2" class="edge">
<title>structures:ObjectType&#45;&gt;em:ManagementFunctionType</title>
<path fill="none" stroke="#000000" d="M416.5,-195.225C416.5,-189.2024 416.5,-180.5203 416.5,-170.5842"/>
<polygon fill="#000000" stroke="#000000" points="420.0001,-170.2822 416.5,-160.2822 413.0001,-170.2823 420.0001,-170.2822"/>
<text text-anchor="middle" x="407" y="-174.65" font-family="Helvetica,sans-Serif" font-size="12.00" fill="#000000">extension</text>
</g>
</g>
</svg>
