<?xml version="1.0" encoding="UTF-8" standalone="no"?>
<!DOCTYPE svg PUBLIC "-//W3C//DTD SVG 1.1//EN"
 "http://www.w3.org/Graphics/SVG/1.1/DTD/svg11.dtd">
<!-- Generated by graphviz version 2.40.1 (20161225.0304)
 -->
<!-- Title: graphic Pages: 1 -->
<svg width="1090pt" height="247pt"
 viewBox="0.00 0.00 1090.00 247.00" xmlns="http://www.w3.org/2000/svg" xmlns:xlink="http://www.w3.org/1999/xlink">
<g id="graph0" class="graph" transform="scale(1 1) rotate(0) translate(4 243)">
<title>graphic</title>
<polygon fill="#ffffff" stroke="transparent" points="-4,4 -4,-243 1086,-243 1086,4 -4,4"/>
<!-- stat:DescribedValueDomainType -->
<g id="node1" class="node">
<title>stat:DescribedValueDomainType</title>
<text text-anchor="start" x="453.5" y="-65.9" font-family="Helvetica,sans-Serif" font-weight="bold" font-size="12.00" fill="#000000">stat:DescribedValueDomainType</text>
<g id="a_node1_0"><a xlink:href="../../stat/DescribedValueDomainCorrespondingDescribedConceptualDomain/#diagram" xlink:title="A described conceptual domain corresponding to a described value domain." target="_top">
<polygon fill="#ebebeb" stroke="transparent" points="452.5,-45.5 452.5,-60.5 1077.5,-60.5 1077.5,-45.5 452.5,-45.5"/>
<text text-anchor="start" x="453.5" y="-49.9" font-family="Helvetica,sans-Serif" font-size="12.00" fill="#000000">stat:DescribedValueDomainCorrespondingDescribedConceptualDomain: stat:DescribedConceptualDomainType [0&#45;n]</text>
</a>
</g>
<g id="a_node1_1"><a xlink:href="../../stat/DomainDataTypeText/#diagram" xlink:title="A data type of the described value domain." target="_top">
<text text-anchor="start" x="453.5" y="-34.9" font-family="Helvetica,sans-Serif" font-size="12.00" fill="#000000">stat:DomainDataTypeText: nc:TextType [0&#45;n]</text>
</a>
</g>
<g id="a_node1_2"><a xlink:href="../../stat/DescribedValueDomainAugmentationPoint/#diagram" xlink:title="An augmentation point for type stat:DescribedValueDomainType" target="_top">
<polygon fill="#ebebeb" stroke="transparent" points="452.5,-15.5 452.5,-30.5 1077.5,-30.5 1077.5,-15.5 452.5,-15.5"/>
<text text-anchor="start" x="453.5" y="-19.9" font-family="Helvetica,sans-Serif" font-size="12.00" fill="#000000">stat:DescribedValueDomainAugmentationPoint [0&#45;n]</text>
</a>
</g>
<polygon fill="#ff0000" stroke="#ff0000" points="447.5,-60.5 447.5,-60.5 1082.5,-60.5 1082.5,-60.5 447.5,-60.5"/>
<polygon fill="none" stroke="#ff0000" stroke-width="5" points="449.5,-13 449.5,-78 1079.5,-78 1079.5,-13 449.5,-13"/>
</g>
<!-- Properties -->
<g id="node2" class="node">
<title>Properties</title>
<text text-anchor="start" x="2" y="-65.9" font-family="Helvetica,sans-Serif" font-weight="bold" font-size="12.00" fill="#000000">Properties</text>
<g id="a_node2_3"><a xlink:href="../../stat/DescribedConceptualDomainCorrespondingDescribedValueDomain/#diagram" xlink:title="A described value domain corresponding to a described conceptual domain." target="_top">
<polygon fill="#ebebeb" stroke="transparent" points="1,-45.5 1,-60.5 387,-60.5 387,-45.5 1,-45.5"/>
<text text-anchor="start" x="2" y="-49.9" font-family="Helvetica,sans-Serif" font-size="12.00" fill="#000000">stat:DescribedConceptualDomainCorrespondingDescribedValueDomain</text>
</a>
</g>
<g id="a_node2_4"><a xlink:href="../../stat/DescribedValueDomain/#diagram" xlink:title="A value domain defined by an expression." target="_top">
<text text-anchor="start" x="2" y="-34.9" font-family="Helvetica,sans-Serif" font-size="12.00" fill="#000000">stat:DescribedValueDomain</text>
</a>
</g>
<g id="a_node2_5"><a xlink:href="../../stat/SentinelValueDomainFromDescribedValueDomain/#diagram" xlink:title="A described value domain from which a sentinel value domain takes values." target="_top">
<polygon fill="#ebebeb" stroke="transparent" points="1,-15.5 1,-30.5 387,-30.5 387,-15.5 1,-15.5"/>
<text text-anchor="start" x="2" y="-19.9" font-family="Helvetica,sans-Serif" font-size="12.00" fill="#000000">stat:SentinelValueDomainFromDescribedValueDomain</text>
</a>
</g>
<g id="a_node2_6"><a xlink:href="../../stat/SubstantiveValueDomainFromDescribedValueDomain/#diagram" xlink:title="A described value domain from which a substantive value domain takes values." target="_top">
<text text-anchor="start" x="2" y="-4.9" font-family="Helvetica,sans-Serif" font-size="12.00" fill="#000000">stat:SubstantiveValueDomainFromDescribedValueDomain</text>
</a>
</g>
<polygon fill="#000000" stroke="#000000" points="0,-60.5 0,-60.5 388,-60.5 388,-60.5 0,-60.5"/>
<polygon fill="none" stroke="#000000" points="0,0 0,-77 388,-77 388,0 0,0"/>
</g>
<!-- Properties&#45;&gt;stat:DescribedValueDomainType -->
<g id="edge1" class="edge">
<title>Properties:top&#45;&gt;stat:DescribedValueDomainType:top</title>
<path fill="none" stroke="#000000" d="M387,-68.5C412.3585,-68.5 421.1498,-68.5 442.2371,-68.5"/>
<polygon fill="#000000" stroke="#000000" points="442.5,-72.0001 452.5,-68.5 442.5,-65.0001 442.5,-72.0001"/>
<text text-anchor="middle" x="417.5" y="-71.9" font-family="Helvetica,sans-Serif" font-size="12.00" fill="#000000">type</text>
</g>
<!-- stat:ValueDomainType -->
<g id="node3" class="node">
<title>stat:ValueDomainType</title>
<g id="a_node3_7"><a xlink:href="../../stat/ValueDomainType/#diagram" xlink:title="A data type for a set of permissible values for a variable." target="_top">
<text text-anchor="start" x="703.5" y="-120.9" font-family="Helvetica,sans-Serif" font-size="12.00" fill="#000000">stat:ValueDomainType</text>
</a>
</g>
<polygon fill="none" stroke="#000000" points="701.5,-116 701.5,-133 827.5,-133 827.5,-116 701.5,-116"/>
</g>
<!-- stat:ValueDomainType&#45;&gt;stat:DescribedValueDomainType -->
<g id="edge2" class="edge">
<title>stat:ValueDomainType&#45;&gt;stat:DescribedValueDomainType</title>
<path fill="none" stroke="#000000" d="M764.5,-115.9117C764.5,-109.6025 764.5,-100.4911 764.5,-90.9049"/>
<polygon fill="#000000" stroke="#000000" points="768.0001,-90.8408 764.5,-80.8408 761.0001,-90.8409 768.0001,-90.8408"/>
<text text-anchor="middle" x="755" y="-95.15" font-family="Helvetica,sans-Serif" font-size="12.00" fill="#000000">extension</text>
</g>
<!-- stat:IdentifiableArtifactType -->
<g id="node4" class="node">
<title>stat:IdentifiableArtifactType</title>
<g id="a_node4_8"><a xlink:href="../../stat/IdentifiableArtifactType/#diagram" xlink:title="A data type for an abstract class that comprises the basic attributes and associations needed for identification, naming and other documentation." target="_top">
<text text-anchor="start" x="692.5" y="-173.9" font-family="Helvetica,sans-Serif" font-size="12.00" fill="#000000">stat:IdentifiableArtifactType</text>
</a>
</g>
<polygon fill="none" stroke="#000000" points="690,-169 690,-186 839,-186 839,-169 690,-169"/>
</g>
<!-- stat:IdentifiableArtifactType&#45;&gt;stat:ValueDomainType -->
<g id="edge3" class="edge">
<title>stat:IdentifiableArtifactType&#45;&gt;stat:ValueDomainType</title>
<path fill="none" stroke="#000000" d="M764.5,-168.911C764.5,-162.0124 764.5,-152.0696 764.5,-143.34"/>
<polygon fill="#000000" stroke="#000000" points="768.0001,-143.2518 764.5,-133.2519 761.0001,-143.2519 768.0001,-143.2518"/>
<text text-anchor="middle" x="755" y="-147.9" font-family="Helvetica,sans-Serif" font-size="12.00" fill="#000000">extension</text>
</g>
<!-- structures:ObjectType -->
<g id="node5" class="node">
<title>structures:ObjectType</title>
<g id="a_node5_9"><a xlink:href="../../structures/ObjectType/#diagram" xlink:title="A data type for a thing with its own lifespan that has some existence." target="_top">
<text text-anchor="start" x="705.5" y="-226.9" font-family="Helvetica,sans-Serif" font-size="12.00" fill="#000000">structures:ObjectType</text>
</a>
</g>
<polygon fill="none" stroke="#000000" points="703.5,-222 703.5,-239 825.5,-239 825.5,-222 703.5,-222"/>
</g>
<!-- structures:ObjectType&#45;&gt;stat:IdentifiableArtifactType -->
<g id="edge4" class="edge">
<title>structures:ObjectType&#45;&gt;stat:IdentifiableArtifactType</title>
<path fill="none" stroke="#000000" d="M764.5,-221.911C764.5,-215.0124 764.5,-205.0696 764.5,-196.34"/>
<polygon fill="#000000" stroke="#000000" points="768.0001,-196.2518 764.5,-186.2519 761.0001,-196.2519 768.0001,-196.2518"/>
<text text-anchor="middle" x="755" y="-200.9" font-family="Helvetica,sans-Serif" font-size="12.00" fill="#000000">extension</text>
</g>
</g>
</svg>
