<?xml version="1.0" encoding="UTF-8" standalone="no"?>
<!DOCTYPE svg PUBLIC "-//W3C//DTD SVG 1.1//EN"
 "http://www.w3.org/Graphics/SVG/1.1/DTD/svg11.dtd">
<!-- Generated by graphviz version 2.40.1 (20161225.0304)
 -->
<!-- Title: graphic Pages: 1 -->
<svg width="601pt" height="60pt"
 viewBox="0.00 0.00 601.00 59.50" xmlns="http://www.w3.org/2000/svg" xmlns:xlink="http://www.w3.org/1999/xlink">
<g id="graph0" class="graph" transform="scale(1 1) rotate(0) translate(4 55.5)">
<title>graphic</title>
<polygon fill="#ffffff" stroke="transparent" points="-4,4 -4,-55.5 597,-55.5 597,4 -4,4"/>
<!-- biom:TimeSourceDescriptionText -->
<g id="node1" class="node">
<title>biom:TimeSourceDescriptionText</title>
<text text-anchor="start" x="264.5" y="-35.9" font-family="Helvetica,sans-Serif" font-weight="bold" font-size="12.00" fill="#000000">biom:TimeSourceDescriptionText</text>
<polygon fill="none" stroke="#ff0000" stroke-width="5" points="260.5,-28.5 260.5,-48.5 460.5,-48.5 460.5,-28.5 260.5,-28.5"/>
</g>
<!-- nc:TextType -->
<g id="node3" class="node">
<title>nc:TextType</title>
<g id="a_node3_0"><a xlink:href="../../nc/TextType/#diagram" xlink:title="A data type for a character string." target="_top">
<text text-anchor="start" x="524.5" y="-34.9" font-family="Helvetica,sans-Serif" font-size="12.00" fill="#000000">nc:TextType</text>
</a>
</g>
<polygon fill="none" stroke="#000000" points="522,-30 522,-47 593,-47 593,-30 522,-30"/>
</g>
<!-- biom:TimeSourceDescriptionText&#45;&gt;nc:TextType -->
<g id="edge2" class="edge">
<title>biom:TimeSourceDescriptionText&#45;&gt;nc:TextType</title>
<path fill="none" stroke="#000000" d="M463.039,-38.5C480.0413,-38.5 496.8828,-38.5 511.5327,-38.5"/>
<polygon fill="#000000" stroke="#000000" points="511.7838,-42.0001 521.7838,-38.5 511.7837,-35.0001 511.7838,-42.0001"/>
<text text-anchor="middle" x="492.5" y="-41.9" font-family="Helvetica,sans-Serif" font-size="12.00" fill="#000000">type</text>
</g>
<!-- Types -->
<g id="node2" class="node">
<title>Types</title>
<text text-anchor="start" x="2.5" y="-35.9" font-family="Helvetica,sans-Serif" font-weight="bold" font-size="12.00" fill="#000000">Types</text>
<g id="a_node2_1"><a xlink:href="../../biom/ContentDiaryInformationType/#diagram" xlink:title="A data type lists highly&#45;detailed timings within the voice recording of specific audio segments of interest." target="_top">
<polygon fill="#ebebeb" stroke="transparent" points="1.5,-15.5 1.5,-30.5 190.5,-30.5 190.5,-15.5 1.5,-15.5"/>
<text text-anchor="start" x="2.5" y="-19.9" font-family="Helvetica,sans-Serif" font-size="12.00" fill="#000000">biom:ContentDiaryInformationType</text>
</a>
</g>
<g id="a_node2_2"><a xlink:href="../../biom/DiaryDetailType/#diagram" xlink:title="A data type that uniquely identifies time segments, giving start and end times of each relative to the absolute beginning of the voice recording" target="_top">
<text text-anchor="start" x="2.5" y="-4.9" font-family="Helvetica,sans-Serif" font-size="12.00" fill="#000000">biom:DiaryDetailType</text>
</a>
</g>
<polygon fill="#000000" stroke="#000000" points=".5,-30.5 .5,-30.5 191.5,-30.5 191.5,-30.5 .5,-30.5"/>
<polygon fill="none" stroke="#000000" points="0,0 0,-47 191,-47 191,0 0,0"/>
</g>
<!-- Types&#45;&gt;biom:TimeSourceDescriptionText -->
<g id="edge1" class="edge">
<title>Types:top&#45;&gt;biom:TimeSourceDescriptionText</title>
<path fill="none" stroke="#000000" d="M190.5,-38.5C208.888,-38.5 228.3947,-38.5 247.3865,-38.5"/>
<polygon fill="#000000" stroke="#000000" points="247.567,-42.0001 257.567,-38.5 247.567,-35.0001 247.567,-42.0001"/>
<text text-anchor="middle" x="224.5" y="-41.9" font-family="Helvetica,sans-Serif" font-size="12.00" fill="#000000">has&#45;a</text>
</g>
</g>
</svg>
