<?xml version="1.0" encoding="UTF-8" standalone="no"?>
<!DOCTYPE svg PUBLIC "-//W3C//DTD SVG 1.1//EN"
 "http://www.w3.org/Graphics/SVG/1.1/DTD/svg11.dtd">
<!-- Generated by graphviz version 2.40.1 (20161225.0304)
 -->
<!-- Title: graphic Pages: 1 -->
<svg width="404pt" height="154pt"
 viewBox="0.00 0.00 404.00 153.50" xmlns="http://www.w3.org/2000/svg" xmlns:xlink="http://www.w3.org/1999/xlink">
<g id="graph0" class="graph" transform="scale(1 1) rotate(0) translate(4 149.5)">
<title>graphic</title>
<polygon fill="#ffffff" stroke="transparent" points="-4,4 -4,-149.5 400,-149.5 400,4 -4,4"/>
<!-- nc:Degree90Type -->
<g id="node1" class="node">
<title>nc:Degree90Type</title>
<text text-anchor="start" x="184" y="-25.4" font-family="Helvetica,sans-Serif" font-weight="bold" font-size="12.00" fill="#000000">nc:Degree90Type</text>
<g id="a_node1_0"><a xlink:href="../../structures/SimpleObjectAttributeGroup/#diagram" xlink:title="A group of attributes that are applicable to objects, to be used when defining a complex type that is an extension of a simple type." target="_top">
<polygon fill="#ebebeb" stroke="transparent" points="183,-5 183,-20 391,-20 391,-5 183,-5"/>
<text text-anchor="start" x="184" y="-9.4" font-family="Helvetica,sans-Serif" font-size="12.00" fill="#000000">structures:SimpleObjectAttributeGroup</text>
</a>
</g>
<polygon fill="#ff0000" stroke="#ff0000" points="178,-20 178,-20 396,-20 396,-20 178,-20"/>
<polygon fill="none" stroke="#ff0000" stroke-width="5" points="180.5,-2.5 180.5,-37.5 393.5,-37.5 393.5,-2.5 180.5,-2.5"/>
</g>
<!-- Properties -->
<g id="node2" class="node">
<title>Properties</title>
<text text-anchor="start" x="2.5" y="-25.4" font-family="Helvetica,sans-Serif" font-weight="bold" font-size="12.00" fill="#000000">Properties</text>
<g id="a_node2_1"><a xlink:href="../../nc/Inclination90Value/#diagram" xlink:title="An orientation of an object with respect to the horizontal plane." target="_top">
<polygon fill="#ebebeb" stroke="transparent" points="1.5,-5 1.5,-20 118.5,-20 118.5,-5 1.5,-5"/>
<text text-anchor="start" x="2.5" y="-9.4" font-family="Helvetica,sans-Serif" font-size="12.00" fill="#000000">nc:Inclination90Value</text>
</a>
</g>
<polygon fill="#000000" stroke="#000000" points=".5,-20 .5,-20 119.5,-20 119.5,-20 .5,-20"/>
<polygon fill="none" stroke="#000000" points="0,-4 0,-36 119,-36 119,-4 0,-4"/>
</g>
<!-- Properties&#45;&gt;nc:Degree90Type -->
<g id="edge1" class="edge">
<title>Properties:top&#45;&gt;nc:Degree90Type:top</title>
<path fill="none" stroke="#000000" d="M118.5,-28C143.4714,-28 152.1284,-28 172.8937,-28"/>
<polygon fill="#000000" stroke="#000000" points="173,-31.5001 183,-28 173,-24.5001 173,-31.5001"/>
<text text-anchor="middle" x="148.5" y="-31.4" font-family="Helvetica,sans-Serif" font-size="12.00" fill="#000000">type</text>
</g>
<!-- nc:Degree90SimpleType -->
<g id="node3" class="node">
<title>nc:Degree90SimpleType</title>
<g id="a_node3_2"><a xlink:href="../../nc/Degree90SimpleType/#diagram" xlink:title="A data type for a value between 0 (inclusive) and 90 (exclusive)." target="_top">
<text text-anchor="start" x="221" y="-80.4" font-family="Helvetica,sans-Serif" font-size="12.00" fill="#000000">nc:Degree90SimpleType</text>
</a>
</g>
<polygon fill="none" stroke="#000000" points="218.5,-75.5 218.5,-92.5 355.5,-92.5 355.5,-75.5 218.5,-75.5"/>
</g>
<!-- nc:Degree90SimpleType&#45;&gt;nc:Degree90Type -->
<g id="edge2" class="edge">
<title>nc:Degree90SimpleType&#45;&gt;nc:Degree90Type</title>
<path fill="none" stroke="#000000" d="M287,-75.4351C287,-68.931 287,-59.5678 287,-50.3827"/>
<polygon fill="#000000" stroke="#000000" points="290.5001,-50.25 287,-40.25 283.5001,-50.25 290.5001,-50.25"/>
<text text-anchor="middle" x="277.5" y="-54.65" font-family="Helvetica,sans-Serif" font-size="12.00" fill="#000000">extension</text>
</g>
<!-- xs:decimal -->
<g id="node4" class="node">
<title>xs:decimal</title>
<g id="a_node4_3"><a xlink:href="../../xs/decimal/#diagram" xlink:title="&lt;TABLE&gt;" target="_top">
<text text-anchor="start" x="259" y="-133.4" font-family="Helvetica,sans-Serif" font-size="12.00" fill="#000000">xs:decimal</text>
</a>
</g>
<polygon fill="none" stroke="#000000" points="256.5,-128.5 256.5,-145.5 317.5,-145.5 317.5,-128.5 256.5,-128.5"/>
</g>
<!-- xs:decimal&#45;&gt;nc:Degree90SimpleType -->
<g id="edge3" class="edge">
<title>xs:decimal&#45;&gt;nc:Degree90SimpleType</title>
<path fill="none" stroke="#000000" d="M287,-128.411C287,-121.5124 287,-111.5696 287,-102.84"/>
<polygon fill="#000000" stroke="#000000" points="290.5001,-102.7518 287,-92.7519 283.5001,-102.7519 290.5001,-102.7518"/>
<text text-anchor="middle" x="277.5" y="-107.4" font-family="Helvetica,sans-Serif" font-size="12.00" fill="#000000">restriction</text>
</g>
</g>
</svg>
