<?xml version="1.0" encoding="UTF-8" standalone="no"?>
<!DOCTYPE svg PUBLIC "-//W3C//DTD SVG 1.1//EN"
 "http://www.w3.org/Graphics/SVG/1.1/DTD/svg11.dtd">
<!-- Generated by graphviz version 2.40.1 (20161225.0304)
 -->
<!-- Title: graphic Pages: 1 -->
<svg width="533pt" height="45pt"
 viewBox="0.00 0.00 533.00 45.00" xmlns="http://www.w3.org/2000/svg" xmlns:xlink="http://www.w3.org/1999/xlink">
<g id="graph0" class="graph" transform="scale(1 1) rotate(0) translate(4 41)">
<title>graphic</title>
<polygon fill="#ffffff" stroke="transparent" points="-4,4 -4,-41 529,-41 529,4 -4,4"/>
<!-- j:BookingCourtCaseIdentification -->
<g id="node1" class="node">
<title>j:BookingCourtCaseIdentification</title>
<text text-anchor="start" x="154.5" y="-21.4" font-family="Helvetica,sans-Serif" font-weight="bold" font-size="12.00" fill="#000000">j:BookingCourtCaseIdentification</text>
<polygon fill="none" stroke="#ff0000" stroke-width="5" points="150.5,-14 150.5,-34 348.5,-34 348.5,-14 150.5,-14"/>
</g>
<!-- nc:IdentificationType -->
<g id="node3" class="node">
<title>nc:IdentificationType</title>
<g id="a_node3_0"><a xlink:href="../../nc/IdentificationType/#diagram" xlink:title="A data type for a representation of an identity." target="_top">
<text text-anchor="start" x="412.5" y="-20.4" font-family="Helvetica,sans-Serif" font-size="12.00" fill="#000000">nc:IdentificationType</text>
</a>
</g>
<polygon fill="none" stroke="#000000" points="410,-15.5 410,-32.5 525,-32.5 525,-15.5 410,-15.5"/>
</g>
<!-- j:BookingCourtCaseIdentification&#45;&gt;nc:IdentificationType -->
<g id="edge2" class="edge">
<title>j:BookingCourtCaseIdentification&#45;&gt;nc:IdentificationType</title>
<path fill="none" stroke="#000000" d="M351.1602,-24C367.5747,-24 384.2122,-24 399.5746,-24"/>
<polygon fill="#000000" stroke="#000000" points="399.9881,-27.5001 409.9881,-24 399.988,-20.5001 399.9881,-27.5001"/>
<text text-anchor="middle" x="380.5" y="-27.4" font-family="Helvetica,sans-Serif" font-size="12.00" fill="#000000">type</text>
</g>
<!-- Types -->
<g id="node2" class="node">
<title>Types</title>
<text text-anchor="start" x="2.5" y="-21.4" font-family="Helvetica,sans-Serif" font-weight="bold" font-size="12.00" fill="#000000">Types</text>
<g id="a_node2_1"><a xlink:href="../../j/BookingType/#diagram" xlink:title="A data type for an administrative step taken after an arrest subject is brought to a police station or detention facility." target="_top">
<polygon fill="#ebebeb" stroke="transparent" points="1.5,-1 1.5,-16 80.5,-16 80.5,-1 1.5,-1"/>
<text text-anchor="start" x="2.5" y="-5.4" font-family="Helvetica,sans-Serif" font-size="12.00" fill="#000000">j:BookingType</text>
</a>
</g>
<polygon fill="#000000" stroke="#000000" points=".5,-16 .5,-16 81.5,-16 81.5,-16 .5,-16"/>
<polygon fill="none" stroke="#000000" points="0,0 0,-32 81,-32 81,0 0,0"/>
</g>
<!-- Types&#45;&gt;j:BookingCourtCaseIdentification -->
<g id="edge1" class="edge">
<title>Types:top&#45;&gt;j:BookingCourtCaseIdentification</title>
<path fill="none" stroke="#000000" d="M80.5,-24C98.9041,-24 118.4357,-24 137.4371,-24"/>
<polygon fill="#000000" stroke="#000000" points="137.6212,-27.5001 147.6212,-24 137.6212,-20.5001 137.6212,-27.5001"/>
<text text-anchor="middle" x="114.5" y="-27.4" font-family="Helvetica,sans-Serif" font-size="12.00" fill="#000000">has&#45;a</text>
</g>
</g>
</svg>
