<?xml version="1.0" encoding="UTF-8" standalone="no"?>
<!DOCTYPE svg PUBLIC "-//W3C//DTD SVG 1.1//EN"
 "http://www.w3.org/Graphics/SVG/1.1/DTD/svg11.dtd">
<!-- Generated by graphviz version 2.40.1 (20161225.0304)
 -->
<!-- Title: graphic Pages: 1 -->
<svg width="580pt" height="45pt"
 viewBox="0.00 0.00 580.00 45.00" xmlns="http://www.w3.org/2000/svg" xmlns:xlink="http://www.w3.org/1999/xlink">
<g id="graph0" class="graph" transform="scale(1 1) rotate(0) translate(4 41)">
<title>graphic</title>
<polygon fill="#ffffff" stroke="transparent" points="-4,4 -4,-41 576,-41 576,4 -4,4"/>
<!-- j:FacilityStaffingCapacityQuantity -->
<g id="node1" class="node">
<title>j:FacilityStaffingCapacityQuantity</title>
<text text-anchor="start" x="222.5" y="-21.4" font-family="Helvetica,sans-Serif" font-weight="bold" font-size="12.00" fill="#000000">j:FacilityStaffingCapacityQuantity</text>
<polygon fill="none" stroke="#ff0000" stroke-width="5" points="218.5,-14 218.5,-34 418.5,-34 418.5,-14 218.5,-14"/>
</g>
<!-- nc:QuantityType -->
<g id="node3" class="node">
<title>nc:QuantityType</title>
<g id="a_node3_0"><a xlink:href="../../nc/QuantityType/#diagram" xlink:title="A data type for a count or tally." target="_top">
<text text-anchor="start" x="482" y="-20.4" font-family="Helvetica,sans-Serif" font-size="12.00" fill="#000000">nc:QuantityType</text>
</a>
</g>
<polygon fill="none" stroke="#000000" points="480,-15.5 480,-32.5 572,-32.5 572,-15.5 480,-15.5"/>
</g>
<!-- j:FacilityStaffingCapacityQuantity&#45;&gt;nc:QuantityType -->
<g id="edge2" class="edge">
<title>j:FacilityStaffingCapacityQuantity&#45;&gt;nc:QuantityType</title>
<path fill="none" stroke="#000000" d="M421.0342,-24C437.792,-24 454.592,-24 469.6853,-24"/>
<polygon fill="#000000" stroke="#000000" points="469.8404,-27.5001 479.8403,-24 469.8403,-20.5001 469.8404,-27.5001"/>
<text text-anchor="middle" x="450.5" y="-27.4" font-family="Helvetica,sans-Serif" font-size="12.00" fill="#000000">type</text>
</g>
<!-- Types -->
<g id="node2" class="node">
<title>Types</title>
<text text-anchor="start" x="2.5" y="-21.4" font-family="Helvetica,sans-Serif" font-weight="bold" font-size="12.00" fill="#000000">Types</text>
<g id="a_node2_1"><a xlink:href="../../j/FacilityAugmentationType/#diagram" xlink:title="A data type for additional information about a Facility." target="_top">
<polygon fill="#ebebeb" stroke="transparent" points="1.5,-1 1.5,-16 148.5,-16 148.5,-1 1.5,-1"/>
<text text-anchor="start" x="2.5" y="-5.4" font-family="Helvetica,sans-Serif" font-size="12.00" fill="#000000">j:FacilityAugmentationType</text>
</a>
</g>
<polygon fill="#000000" stroke="#000000" points=".5,-16 .5,-16 149.5,-16 149.5,-16 .5,-16"/>
<polygon fill="none" stroke="#000000" points="0,0 0,-32 149,-32 149,0 0,0"/>
</g>
<!-- Types&#45;&gt;j:FacilityStaffingCapacityQuantity -->
<g id="edge1" class="edge">
<title>Types:top&#45;&gt;j:FacilityStaffingCapacityQuantity</title>
<path fill="none" stroke="#000000" d="M148.5,-24C166.888,-24 186.3947,-24 205.3865,-24"/>
<polygon fill="#000000" stroke="#000000" points="205.567,-27.5001 215.567,-24 205.567,-20.5001 205.567,-27.5001"/>
<text text-anchor="middle" x="182.5" y="-27.4" font-family="Helvetica,sans-Serif" font-size="12.00" fill="#000000">has&#45;a</text>
</g>
</g>
</svg>
