<?xml version="1.0" encoding="UTF-8" standalone="no"?>
<!DOCTYPE svg PUBLIC "-//W3C//DTD SVG 1.1//EN"
 "http://www.w3.org/Graphics/SVG/1.1/DTD/svg11.dtd">
<!-- Generated by graphviz version 2.40.1 (20161225.0304)
 -->
<!-- Title: graphic Pages: 1 -->
<svg width="499pt" height="86pt"
 viewBox="0.00 0.00 499.00 86.00" xmlns="http://www.w3.org/2000/svg" xmlns:xlink="http://www.w3.org/1999/xlink">
<g id="graph0" class="graph" transform="scale(1 1) rotate(0) translate(4 82)">
<title>graphic</title>
<polygon fill="#ffffff" stroke="transparent" points="-4,4 -4,-82 495,-82 495,4 -4,4"/>
<!-- j:SportsEquipmentCategoryCode -->
<g id="node1" class="node">
<title>j:SportsEquipmentCategoryCode</title>
<text text-anchor="start" x="6" y="-9.9" font-family="Helvetica,sans-Serif" font-weight="bold" font-size="12.00" fill="#000000">j:SportsEquipmentCategoryCode</text>
<polygon fill="none" stroke="#ff0000" stroke-width="5" points="2.5,-2.5 2.5,-22.5 199.5,-22.5 199.5,-2.5 2.5,-2.5"/>
</g>
<!-- ndex:SportsEquipmentCategoryCodeType -->
<g id="node3" class="node">
<title>ndex:SportsEquipmentCategoryCodeType</title>
<g id="a_node3_0"><a xlink:href="../../ndex/SportsEquipmentCategoryCodeType/#diagram" xlink:title="A data type for a code that identifies a type of sports/recreational equipment." target="_top">
<text text-anchor="start" x="263" y="-8.9" font-family="Helvetica,sans-Serif" font-size="12.00" fill="#000000">ndex:SportsEquipmentCategoryCodeType</text>
</a>
</g>
<polygon fill="none" stroke="#000000" points="261,-4 261,-21 491,-21 491,-4 261,-4"/>
</g>
<!-- j:SportsEquipmentCategoryCode&#45;&gt;ndex:SportsEquipmentCategoryCodeType -->
<g id="edge2" class="edge">
<title>j:SportsEquipmentCategoryCode&#45;&gt;ndex:SportsEquipmentCategoryCodeType</title>
<path fill="none" stroke="#000000" d="M202.2283,-12.5C217.9546,-12.5 234.3627,-12.5 250.5465,-12.5"/>
<polygon fill="#000000" stroke="#000000" points="250.5861,-16.0001 260.5861,-12.5 250.5861,-9.0001 250.5861,-16.0001"/>
<text text-anchor="middle" x="231.5" y="-15.9" font-family="Helvetica,sans-Serif" font-size="12.00" fill="#000000">type</text>
</g>
<!-- SubstitutionGroup -->
<g id="node2" class="node">
<title>SubstitutionGroup</title>
<g id="a_node2_1"><a xlink:href="../../nc/ItemCategoryAbstract/#diagram" xlink:title="A data concept for a kind of item." target="_top">
<text text-anchor="start" x="35" y="-65.9" font-family="Helvetica,sans-Serif" font-size="12.00" fill="#000000">nc:ItemCategoryAbstract</text>
</a>
</g>
<polygon fill="none" stroke="#000000" points="32.5,-61 32.5,-78 169.5,-78 169.5,-61 32.5,-61"/>
</g>
<!-- SubstitutionGroup&#45;&gt;j:SportsEquipmentCategoryCode -->
<g id="edge1" class="edge">
<title>SubstitutionGroup&#45;&gt;j:SportsEquipmentCategoryCode</title>
<path fill="none" stroke="#000000" d="M101,-50.9163C101,-42.4809 101,-32.7214 101,-25.1501"/>
<polygon fill="#000000" stroke="#000000" points="97.5001,-50.9472 101,-60.9473 104.5001,-50.9473 97.5001,-50.9472"/>
<text text-anchor="middle" x="91.5" y="-39.9" font-family="Helvetica,sans-Serif" font-size="12.00" fill="#000000">substitution group</text>
</g>
</g>
</svg>
