<?xml version="1.0" encoding="UTF-8" standalone="no"?>
<!DOCTYPE svg PUBLIC "-//W3C//DTD SVG 1.1//EN"
 "http://www.w3.org/Graphics/SVG/1.1/DTD/svg11.dtd">
<!-- Generated by graphviz version 2.40.1 (20161225.0304)
 -->
<!-- Title: graphic Pages: 1 -->
<svg width="379pt" height="101pt"
 viewBox="0.00 0.00 379.00 101.00" xmlns="http://www.w3.org/2000/svg" xmlns:xlink="http://www.w3.org/1999/xlink">
<g id="graph0" class="graph" transform="scale(1 1) rotate(0) translate(4 97)">
<title>graphic</title>
<polygon fill="#ffffff" stroke="transparent" points="-4,4 -4,-97 375,-97 375,4 -4,4"/>
<!-- nc:PersonMentalStateAbstract -->
<g id="node1" class="node">
<title>nc:PersonMentalStateAbstract</title>
<text text-anchor="start" x="174.5" y="-77.4" font-family="Helvetica,sans-Serif" font-weight="bold" font-size="12.00" fill="#000000">nc:PersonMentalStateAbstract</text>
<polygon fill="none" stroke="#ff0000" stroke-width="5" points="170.5,-70 170.5,-90 352.5,-90 352.5,-70 170.5,-70"/>
</g>
<!-- SubstitutableElements -->
<g id="node3" class="node">
<title>SubstitutableElements</title>
<text text-anchor="start" x="154.5" y="-21.4" font-family="Helvetica,sans-Serif" font-weight="bold" font-size="12.00" fill="#000000">Substitutable elements</text>
<g id="a_node3_0"><a xlink:href="../../nc/PersonMentalStateText/#diagram" xlink:title="A mental condition of a person." target="_top">
<polygon fill="#ebebeb" stroke="transparent" points="153.5,-1 153.5,-16 370.5,-16 370.5,-1 153.5,-1"/>
<text text-anchor="start" x="154.5" y="-5.4" font-family="Helvetica,sans-Serif" font-size="12.00" fill="#000000">nc:PersonMentalStateText: nc:TextType</text>
</a>
</g>
<polygon fill="#000000" stroke="#000000" points="152.5,-16 152.5,-16 371.5,-16 371.5,-16 152.5,-16"/>
<polygon fill="none" stroke="#000000" points="152,0 152,-32 371,-32 371,0 152,0"/>
</g>
<!-- nc:PersonMentalStateAbstract&#45;&gt;SubstitutableElements -->
<g id="edge2" class="edge">
<title>nc:PersonMentalStateAbstract&#45;&gt;SubstitutableElements</title>
<path fill="none" stroke="#000000" d="M261.5,-57.3063C261.5,-48.9972 261.5,-39.7712 261.5,-32.1499"/>
<polygon fill="#000000" stroke="#000000" points="258.0001,-57.4892 261.5,-67.4892 265.0001,-57.4892 258.0001,-57.4892"/>
<text text-anchor="middle" x="252" y="-46.65" font-family="Helvetica,sans-Serif" font-size="12.00" fill="#000000">substitutable for</text>
</g>
<!-- Types -->
<g id="node2" class="node">
<title>Types</title>
<text text-anchor="start" x="2.5" y="-77.4" font-family="Helvetica,sans-Serif" font-weight="bold" font-size="12.00" fill="#000000">Types</text>
<g id="a_node2_1"><a xlink:href="../../nc/PersonType/#diagram" xlink:title="A data type for a human being." target="_top">
<polygon fill="#ebebeb" stroke="transparent" points="1.5,-57 1.5,-72 84.5,-72 84.5,-57 1.5,-57"/>
<text text-anchor="start" x="2.5" y="-61.4" font-family="Helvetica,sans-Serif" font-size="12.00" fill="#000000">nc:PersonType</text>
</a>
</g>
<polygon fill="#000000" stroke="#000000" points=".5,-72 .5,-72 85.5,-72 85.5,-72 .5,-72"/>
<polygon fill="none" stroke="#000000" points="0,-56 0,-88 85,-88 85,-56 0,-56"/>
</g>
<!-- Types&#45;&gt;nc:PersonMentalStateAbstract -->
<g id="edge1" class="edge">
<title>Types:top&#45;&gt;nc:PersonMentalStateAbstract</title>
<path fill="none" stroke="#000000" d="M84.5,-80C108.1615,-80 133.6021,-80 157.6111,-80"/>
<polygon fill="#000000" stroke="#000000" points="157.8037,-83.5001 167.8036,-80 157.8036,-76.5001 157.8037,-83.5001"/>
<text text-anchor="middle" x="118.5" y="-83.4" font-family="Helvetica,sans-Serif" font-size="12.00" fill="#000000">has&#45;a</text>
</g>
</g>
</svg>
