<?xml version="1.0" encoding="UTF-8" standalone="no"?>
<!DOCTYPE svg PUBLIC "-//W3C//DTD SVG 1.1//EN"
 "http://www.w3.org/Graphics/SVG/1.1/DTD/svg11.dtd">
<!-- Generated by graphviz version 2.40.1 (20161225.0304)
 -->
<!-- Title: graphic Pages: 1 -->
<svg width="755pt" height="45pt"
 viewBox="0.00 0.00 755.00 45.00" xmlns="http://www.w3.org/2000/svg" xmlns:xlink="http://www.w3.org/1999/xlink">
<g id="graph0" class="graph" transform="scale(1 1) rotate(0) translate(4 41)">
<title>graphic</title>
<polygon fill="#ffffff" stroke="transparent" points="-4,4 -4,-41 751,-41 751,4 -4,4"/>
<!-- cbrn:AverageExposureRateUncertaintyValue -->
<g id="node1" class="node">
<title>cbrn:AverageExposureRateUncertaintyValue</title>
<text text-anchor="start" x="266.5" y="-21.4" font-family="Helvetica,sans-Serif" font-weight="bold" font-size="12.00" fill="#000000">cbrn:AverageExposureRateUncertaintyValue</text>
<polygon fill="none" stroke="#ff0000" stroke-width="5" points="262.5,-14 262.5,-34 526.5,-34 526.5,-14 262.5,-14"/>
</g>
<!-- cbrn:ExposureRatemRhType -->
<g id="node3" class="node">
<title>cbrn:ExposureRatemRhType</title>
<g id="a_node3_0"><a xlink:href="../../cbrn/ExposureRatemRhType/#diagram" xlink:title="A data type for a radiation exposure rate whose value is positive and expressed in milliroentgen per hour (mR/h) units." target="_top">
<text text-anchor="start" x="590.5" y="-20.4" font-family="Helvetica,sans-Serif" font-size="12.00" fill="#000000">cbrn:ExposureRatemRhType</text>
</a>
</g>
<polygon fill="none" stroke="#000000" points="588,-15.5 588,-32.5 747,-32.5 747,-15.5 588,-15.5"/>
</g>
<!-- cbrn:AverageExposureRateUncertaintyValue&#45;&gt;cbrn:ExposureRatemRhType -->
<g id="edge2" class="edge">
<title>cbrn:AverageExposureRateUncertaintyValue&#45;&gt;cbrn:ExposureRatemRhType</title>
<path fill="none" stroke="#000000" d="M529.0006,-24C545.5614,-24 562.1615,-24 577.8255,-24"/>
<polygon fill="#000000" stroke="#000000" points="577.974,-27.5001 587.9739,-24 577.9739,-20.5001 577.974,-27.5001"/>
<text text-anchor="middle" x="558.5" y="-27.4" font-family="Helvetica,sans-Serif" font-size="12.00" fill="#000000">type</text>
</g>
<!-- Types -->
<g id="node2" class="node">
<title>Types</title>
<text text-anchor="start" x="2.5" y="-21.4" font-family="Helvetica,sans-Serif" font-weight="bold" font-size="12.00" fill="#000000">Types</text>
<g id="a_node2_1"><a xlink:href="../../cbrn/ExposureAnalysisResultsType/#diagram" xlink:title="A data type to provide information on the results of analysis of radiation exposure data." target="_top">
<polygon fill="#ebebeb" stroke="transparent" points="1.5,-1 1.5,-16 192.5,-16 192.5,-1 1.5,-1"/>
<text text-anchor="start" x="2.5" y="-5.4" font-family="Helvetica,sans-Serif" font-size="12.00" fill="#000000">cbrn:ExposureAnalysisResultsType</text>
</a>
</g>
<polygon fill="#000000" stroke="#000000" points=".5,-16 .5,-16 193.5,-16 193.5,-16 .5,-16"/>
<polygon fill="none" stroke="#000000" points="0,0 0,-32 193,-32 193,0 0,0"/>
</g>
<!-- Types&#45;&gt;cbrn:AverageExposureRateUncertaintyValue -->
<g id="edge1" class="edge">
<title>Types:top&#45;&gt;cbrn:AverageExposureRateUncertaintyValue</title>
<path fill="none" stroke="#000000" d="M192.5,-24C211.0156,-24 230.4858,-24 249.7294,-24"/>
<polygon fill="#000000" stroke="#000000" points="249.7656,-27.5001 259.7656,-24 249.7656,-20.5001 249.7656,-27.5001"/>
<text text-anchor="middle" x="226.5" y="-27.4" font-family="Helvetica,sans-Serif" font-size="12.00" fill="#000000">has&#45;a</text>
</g>
</g>
</svg>
