<?xml version="1.0" encoding="UTF-8" standalone="no"?>
<!DOCTYPE svg PUBLIC "-//W3C//DTD SVG 1.1//EN"
 "http://www.w3.org/Graphics/SVG/1.1/DTD/svg11.dtd">
<!-- Generated by graphviz version 2.40.1 (20161225.0304)
 -->
<!-- Title: graphic Pages: 1 -->
<svg width="503pt" height="86pt"
 viewBox="0.00 0.00 503.00 86.00" xmlns="http://www.w3.org/2000/svg" xmlns:xlink="http://www.w3.org/1999/xlink">
<g id="graph0" class="graph" transform="scale(1 1) rotate(0) translate(4 82)">
<title>graphic</title>
<polygon fill="#ffffff" stroke="transparent" points="-4,4 -4,-82 499,-82 499,4 -4,4"/>
<!-- cbrn:InspectionThreatFindingCode -->
<g id="node1" class="node">
<title>cbrn:InspectionThreatFindingCode</title>
<text text-anchor="start" x="6" y="-9.9" font-family="Helvetica,sans-Serif" font-weight="bold" font-size="12.00" fill="#000000">cbrn:InspectionThreatFindingCode</text>
<polygon fill="none" stroke="#ff0000" stroke-width="5" points="2.5,-2.5 2.5,-22.5 209.5,-22.5 209.5,-2.5 2.5,-2.5"/>
</g>
<!-- cbrncl:InspectionThreatFindingCodeType -->
<g id="node3" class="node">
<title>cbrncl:InspectionThreatFindingCodeType</title>
<g id="a_node3_0"><a xlink:href="../../cbrncl/InspectionThreatFindingCodeType/#diagram" xlink:title="A data type that defines the inspection threat finding code" target="_top">
<text text-anchor="start" x="273" y="-8.9" font-family="Helvetica,sans-Serif" font-size="12.00" fill="#000000">cbrncl:InspectionThreatFindingCodeType</text>
</a>
</g>
<polygon fill="none" stroke="#000000" points="271,-4 271,-21 495,-21 495,-4 271,-4"/>
</g>
<!-- cbrn:InspectionThreatFindingCode&#45;&gt;cbrncl:InspectionThreatFindingCodeType -->
<g id="edge2" class="edge">
<title>cbrn:InspectionThreatFindingCode&#45;&gt;cbrncl:InspectionThreatFindingCodeType</title>
<path fill="none" stroke="#000000" d="M212.3032,-12.5C227.9475,-12.5 244.1721,-12.5 260.1169,-12.5"/>
<polygon fill="#000000" stroke="#000000" points="260.5457,-16.0001 270.5457,-12.5 260.5456,-9.0001 260.5457,-16.0001"/>
<text text-anchor="middle" x="241.5" y="-15.9" font-family="Helvetica,sans-Serif" font-size="12.00" fill="#000000">type</text>
</g>
<!-- SubstitutionGroup -->
<g id="node2" class="node">
<title>SubstitutionGroup</title>
<g id="a_node2_1"><a xlink:href="../../cbrn/InspectionThreatFindingAbstract/#diagram" xlink:title="A data concept for a category of threat found by an inspection." target="_top">
<text text-anchor="start" x="6" y="-65.9" font-family="Helvetica,sans-Serif" font-size="12.00" fill="#000000">cbrn:InspectionThreatFindingAbstract</text>
</a>
</g>
<polygon fill="none" stroke="#000000" points="4,-61 4,-78 208,-78 208,-61 4,-61"/>
</g>
<!-- SubstitutionGroup&#45;&gt;cbrn:InspectionThreatFindingCode -->
<g id="edge1" class="edge">
<title>SubstitutionGroup&#45;&gt;cbrn:InspectionThreatFindingCode</title>
<path fill="none" stroke="#000000" d="M106,-50.9163C106,-42.4809 106,-32.7214 106,-25.1501"/>
<polygon fill="#000000" stroke="#000000" points="102.5001,-50.9472 106,-60.9473 109.5001,-50.9473 102.5001,-50.9472"/>
<text text-anchor="middle" x="96.5" y="-39.9" font-family="Helvetica,sans-Serif" font-size="12.00" fill="#000000">substitution group</text>
</g>
</g>
</svg>
