<?xml version="1.0" encoding="UTF-8" standalone="no"?>
<!DOCTYPE svg PUBLIC "-//W3C//DTD SVG 1.1//EN"
 "http://www.w3.org/Graphics/SVG/1.1/DTD/svg11.dtd">
<!-- Generated by graphviz version 2.40.1 (20161225.0304)
 -->
<!-- Title: graphic Pages: 1 -->
<svg width="440pt" height="86pt"
 viewBox="0.00 0.00 440.00 86.00" xmlns="http://www.w3.org/2000/svg" xmlns:xlink="http://www.w3.org/1999/xlink">
<g id="graph0" class="graph" transform="scale(1 1) rotate(0) translate(4 82)">
<title>graphic</title>
<polygon fill="#ffffff" stroke="transparent" points="-4,4 -4,-82 436,-82 436,4 -4,4"/>
<!-- hs:CaseInitiationReasonCode -->
<g id="node1" class="node">
<title>hs:CaseInitiationReasonCode</title>
<text text-anchor="start" x="6.5" y="-9.9" font-family="Helvetica,sans-Serif" font-weight="bold" font-size="12.00" fill="#000000">hs:CaseInitiationReasonCode</text>
<polygon fill="none" stroke="#ff0000" stroke-width="5" points="2.5,-2.5 2.5,-22.5 180.5,-22.5 180.5,-2.5 2.5,-2.5"/>
</g>
<!-- hs:CaseInitiationReasonCodeType -->
<g id="node3" class="node">
<title>hs:CaseInitiationReasonCodeType</title>
<g id="a_node3_0"><a xlink:href="../../hs/CaseInitiationReasonCodeType/#diagram" xlink:title="A data type for the overall reason for opening the case." target="_top">
<text text-anchor="start" x="244" y="-8.9" font-family="Helvetica,sans-Serif" font-size="12.00" fill="#000000">hs:CaseInitiationReasonCodeType</text>
</a>
</g>
<polygon fill="none" stroke="#000000" points="242,-4 242,-21 432,-21 432,-4 242,-4"/>
</g>
<!-- hs:CaseInitiationReasonCode&#45;&gt;hs:CaseInitiationReasonCodeType -->
<g id="edge2" class="edge">
<title>hs:CaseInitiationReasonCode&#45;&gt;hs:CaseInitiationReasonCodeType</title>
<path fill="none" stroke="#000000" d="M183.2643,-12.5C198.9051,-12.5 215.2642,-12.5 231.2324,-12.5"/>
<polygon fill="#000000" stroke="#000000" points="231.6578,-16.0001 241.6578,-12.5 231.6577,-9.0001 231.6578,-16.0001"/>
<text text-anchor="middle" x="212.5" y="-15.9" font-family="Helvetica,sans-Serif" font-size="12.00" fill="#000000">type</text>
</g>
<!-- SubstitutionGroup -->
<g id="node2" class="node">
<title>SubstitutionGroup</title>
<g id="a_node2_1"><a xlink:href="../../hs/CaseInitiationReasonAbstract/#diagram" xlink:title="A data concept for expressing the procedural or factual reason for filing a case." target="_top">
<text text-anchor="start" x="4.5" y="-65.9" font-family="Helvetica,sans-Serif" font-size="12.00" fill="#000000">hs:CaseInitiationReasonAbstract</text>
</a>
</g>
<polygon fill="none" stroke="#000000" points="2,-61 2,-78 181,-78 181,-61 2,-61"/>
</g>
<!-- SubstitutionGroup&#45;&gt;hs:CaseInitiationReasonCode -->
<g id="edge1" class="edge">
<title>SubstitutionGroup&#45;&gt;hs:CaseInitiationReasonCode</title>
<path fill="none" stroke="#000000" d="M91.5,-50.9163C91.5,-42.4809 91.5,-32.7214 91.5,-25.1501"/>
<polygon fill="#000000" stroke="#000000" points="88.0001,-50.9472 91.5,-60.9473 95.0001,-50.9473 88.0001,-50.9472"/>
<text text-anchor="middle" x="82" y="-39.9" font-family="Helvetica,sans-Serif" font-size="12.00" fill="#000000">substitution group</text>
</g>
</g>
</svg>
