<?xml version="1.0" encoding="UTF-8" standalone="no"?>
<!DOCTYPE svg PUBLIC "-//W3C//DTD SVG 1.1//EN"
 "http://www.w3.org/Graphics/SVG/1.1/DTD/svg11.dtd">
<!-- Generated by graphviz version 2.40.1 (20161225.0304)
 -->
<!-- Title: graphic Pages: 1 -->
<svg width="546pt" height="45pt"
 viewBox="0.00 0.00 546.00 45.00" xmlns="http://www.w3.org/2000/svg" xmlns:xlink="http://www.w3.org/1999/xlink">
<g id="graph0" class="graph" transform="scale(1 1) rotate(0) translate(4 41)">
<title>graphic</title>
<polygon fill="#ffffff" stroke="transparent" points="-4,4 -4,-41 542,-41 542,4 -4,4"/>
<!-- j:EducationCourseTerminatedDate -->
<g id="node1" class="node">
<title>j:EducationCourseTerminatedDate</title>
<text text-anchor="start" x="202" y="-21.4" font-family="Helvetica,sans-Serif" font-weight="bold" font-size="12.00" fill="#000000">j:EducationCourseTerminatedDate</text>
<polygon fill="none" stroke="#ff0000" stroke-width="5" points="198.5,-14 198.5,-34 403.5,-34 403.5,-14 198.5,-14"/>
</g>
<!-- nc:DateType -->
<g id="node3" class="node">
<title>nc:DateType</title>
<g id="a_node3_0"><a xlink:href="../../nc/DateType/#diagram" xlink:title="A data type for a calendar date." target="_top">
<text text-anchor="start" x="467.5" y="-20.4" font-family="Helvetica,sans-Serif" font-size="12.00" fill="#000000">nc:DateType</text>
</a>
</g>
<polygon fill="none" stroke="#000000" points="465,-15.5 465,-32.5 538,-32.5 538,-15.5 465,-15.5"/>
</g>
<!-- j:EducationCourseTerminatedDate&#45;&gt;nc:DateType -->
<g id="edge2" class="edge">
<title>j:EducationCourseTerminatedDate&#45;&gt;nc:DateType</title>
<path fill="none" stroke="#000000" d="M406.2411,-24C423.1307,-24 439.831,-24 454.418,-24"/>
<polygon fill="#000000" stroke="#000000" points="454.6386,-27.5001 464.6386,-24 454.6385,-20.5001 454.6386,-27.5001"/>
<text text-anchor="middle" x="435.5" y="-27.4" font-family="Helvetica,sans-Serif" font-size="12.00" fill="#000000">type</text>
</g>
<!-- Types -->
<g id="node2" class="node">
<title>Types</title>
<text text-anchor="start" x="2.5" y="-21.4" font-family="Helvetica,sans-Serif" font-weight="bold" font-size="12.00" fill="#000000">Types</text>
<g id="a_node2_1"><a xlink:href="../../j/EducationCourseType/#diagram" xlink:title="A data type for a specific subject course offered thru and educational program or institution." target="_top">
<polygon fill="#ebebeb" stroke="transparent" points="1.5,-1 1.5,-16 128.5,-16 128.5,-1 1.5,-1"/>
<text text-anchor="start" x="2.5" y="-5.4" font-family="Helvetica,sans-Serif" font-size="12.00" fill="#000000">j:EducationCourseType</text>
</a>
</g>
<polygon fill="#000000" stroke="#000000" points=".5,-16 .5,-16 129.5,-16 129.5,-16 .5,-16"/>
<polygon fill="none" stroke="#000000" points="0,0 0,-32 129,-32 129,0 0,0"/>
</g>
<!-- Types&#45;&gt;j:EducationCourseTerminatedDate -->
<g id="edge1" class="edge">
<title>Types:top&#45;&gt;j:EducationCourseTerminatedDate</title>
<path fill="none" stroke="#000000" d="M128.5,-24C146.9045,-24 166.4136,-24 185.4362,-24"/>
<polygon fill="#000000" stroke="#000000" points="185.6364,-27.5001 195.6363,-24 185.6363,-20.5001 185.6364,-27.5001"/>
<text text-anchor="middle" x="162.5" y="-27.4" font-family="Helvetica,sans-Serif" font-size="12.00" fill="#000000">has&#45;a</text>
</g>
</g>
</svg>
