<?xml version="1.0" encoding="UTF-8" standalone="no"?>
<!DOCTYPE svg PUBLIC "-//W3C//DTD SVG 1.1//EN"
 "http://www.w3.org/Graphics/SVG/1.1/DTD/svg11.dtd">
<!-- Generated by graphviz version 2.40.1 (20161225.0304)
 -->
<!-- Title: graphic Pages: 1 -->
<svg width="701pt" height="45pt"
 viewBox="0.00 0.00 701.00 45.00" xmlns="http://www.w3.org/2000/svg" xmlns:xlink="http://www.w3.org/1999/xlink">
<g id="graph0" class="graph" transform="scale(1 1) rotate(0) translate(4 41)">
<title>graphic</title>
<polygon fill="#ffffff" stroke="transparent" points="-4,4 -4,-41 697,-41 697,4 -4,4"/>
<!-- hs:ChildSupportEnforcementServiceID -->
<g id="node1" class="node">
<title>hs:ChildSupportEnforcementServiceID</title>
<text text-anchor="start" x="326.5" y="-21.4" font-family="Helvetica,sans-Serif" font-weight="bold" font-size="12.00" fill="#000000">hs:ChildSupportEnforcementServiceID</text>
<polygon fill="none" stroke="#ff0000" stroke-width="5" points="322.5,-14 322.5,-34 552.5,-34 552.5,-14 322.5,-14"/>
</g>
<!-- niem&#45;xs:string -->
<g id="node3" class="node">
<title>niem&#45;xs:string</title>
<g id="a_node3_0"><a xlink:href="../../niem-xs/string/#diagram" xlink:title="A data type for character strings in XML." target="_top">
<text text-anchor="start" x="616.5" y="-20.4" font-family="Helvetica,sans-Serif" font-size="12.00" fill="#000000">niem&#45;xs:string</text>
</a>
</g>
<polygon fill="none" stroke="#000000" points="614,-15.5 614,-32.5 693,-32.5 693,-15.5 614,-15.5"/>
</g>
<!-- hs:ChildSupportEnforcementServiceID&#45;&gt;niem&#45;xs:string -->
<g id="edge2" class="edge">
<title>hs:ChildSupportEnforcementServiceID&#45;&gt;niem&#45;xs:string</title>
<path fill="none" stroke="#000000" d="M555.2966,-24C572.2965,-24 588.9699,-24 603.6134,-24"/>
<polygon fill="#000000" stroke="#000000" points="603.8931,-27.5001 613.8931,-24 603.893,-20.5001 603.8931,-27.5001"/>
<text text-anchor="middle" x="584.5" y="-27.4" font-family="Helvetica,sans-Serif" font-size="12.00" fill="#000000">type</text>
</g>
<!-- Types -->
<g id="node2" class="node">
<title>Types</title>
<text text-anchor="start" x="2.5" y="-21.4" font-family="Helvetica,sans-Serif" font-weight="bold" font-size="12.00" fill="#000000">Types</text>
<g id="a_node2_1"><a xlink:href="../../hs/ChildSupportEnforcementOrganizationType/#diagram" xlink:title="A data type for an applied augmentation for type nc:OrganizationType" target="_top">
<polygon fill="#ebebeb" stroke="transparent" points="1.5,-1 1.5,-16 252.5,-16 252.5,-1 1.5,-1"/>
<text text-anchor="start" x="2.5" y="-5.4" font-family="Helvetica,sans-Serif" font-size="12.00" fill="#000000">hs:ChildSupportEnforcementOrganizationType</text>
</a>
</g>
<polygon fill="#000000" stroke="#000000" points=".5,-16 .5,-16 253.5,-16 253.5,-16 .5,-16"/>
<polygon fill="none" stroke="#000000" points="0,0 0,-32 253,-32 253,0 0,0"/>
</g>
<!-- Types&#45;&gt;hs:ChildSupportEnforcementServiceID -->
<g id="edge1" class="edge">
<title>Types:top&#45;&gt;hs:ChildSupportEnforcementServiceID</title>
<path fill="none" stroke="#000000" d="M252.5,-24C270.8769,-24 290.2807,-24 309.3343,-24"/>
<polygon fill="#000000" stroke="#000000" points="309.5655,-27.5001 319.5655,-24 309.5654,-20.5001 309.5655,-27.5001"/>
<text text-anchor="middle" x="286.5" y="-27.4" font-family="Helvetica,sans-Serif" font-size="12.00" fill="#000000">has&#45;a</text>
</g>
</g>
</svg>
