<?xml version="1.0" encoding="UTF-8" standalone="no"?>
<!DOCTYPE svg PUBLIC "-//W3C//DTD SVG 1.1//EN"
 "http://www.w3.org/Graphics/SVG/1.1/DTD/svg11.dtd">
<!-- Generated by graphviz version 2.40.1 (20161225.0304)
 -->
<!-- Title: graphic Pages: 1 -->
<svg width="659pt" height="45pt"
 viewBox="0.00 0.00 659.00 45.00" xmlns="http://www.w3.org/2000/svg" xmlns:xlink="http://www.w3.org/1999/xlink">
<g id="graph0" class="graph" transform="scale(1 1) rotate(0) translate(4 41)">
<title>graphic</title>
<polygon fill="#ffffff" stroke="transparent" points="-4,4 -4,-41 655,-41 655,4 -4,4"/>
<!-- stat:ProvisionAgreementDataStructure -->
<g id="node1" class="node">
<title>stat:ProvisionAgreementDataStructure</title>
<text text-anchor="start" x="235.5" y="-21.4" font-family="Helvetica,sans-Serif" font-weight="bold" font-size="12.00" fill="#000000">stat:ProvisionAgreementDataStructure</text>
<polygon fill="none" stroke="#ff0000" stroke-width="5" points="231.5,-14 231.5,-34 461.5,-34 461.5,-14 231.5,-14"/>
</g>
<!-- stat:DataStructureType -->
<g id="node3" class="node">
<title>stat:DataStructureType</title>
<g id="a_node3_0"><a xlink:href="../../stat/DataStructureType/#diagram" xlink:title="A data type for a structure of an organized collection of data (data set)." target="_top">
<text text-anchor="start" x="525" y="-20.4" font-family="Helvetica,sans-Serif" font-size="12.00" fill="#000000">stat:DataStructureType</text>
</a>
</g>
<polygon fill="none" stroke="#000000" points="523,-15.5 523,-32.5 651,-32.5 651,-15.5 523,-15.5"/>
</g>
<!-- stat:ProvisionAgreementDataStructure&#45;&gt;stat:DataStructureType -->
<g id="edge2" class="edge">
<title>stat:ProvisionAgreementDataStructure&#45;&gt;stat:DataStructureType</title>
<path fill="none" stroke="#000000" d="M464.2841,-24C480.723,-24 497.2234,-24 512.5557,-24"/>
<polygon fill="#000000" stroke="#000000" points="512.9687,-27.5001 522.9687,-24 512.9686,-20.5001 512.9687,-27.5001"/>
<text text-anchor="middle" x="493.5" y="-27.4" font-family="Helvetica,sans-Serif" font-size="12.00" fill="#000000">type</text>
</g>
<!-- Types -->
<g id="node2" class="node">
<title>Types</title>
<text text-anchor="start" x="2" y="-21.4" font-family="Helvetica,sans-Serif" font-weight="bold" font-size="12.00" fill="#000000">Types</text>
<g id="a_node2_1"><a xlink:href="../../stat/ProvisionAgreementType/#diagram" xlink:title="A data type for a legal or other basis by which two parties agree to exchange data." target="_top">
<polygon fill="#ebebeb" stroke="transparent" points="1,-1 1,-16 161,-16 161,-1 1,-1"/>
<text text-anchor="start" x="2" y="-5.4" font-family="Helvetica,sans-Serif" font-size="12.00" fill="#000000">stat:ProvisionAgreementType</text>
</a>
</g>
<polygon fill="#000000" stroke="#000000" points="0,-16 0,-16 162,-16 162,-16 0,-16"/>
<polygon fill="none" stroke="#000000" points="0,0 0,-32 162,-32 162,0 0,0"/>
</g>
<!-- Types&#45;&gt;stat:ProvisionAgreementDataStructure -->
<g id="edge1" class="edge">
<title>Types:top&#45;&gt;stat:ProvisionAgreementDataStructure</title>
<path fill="none" stroke="#000000" d="M161,-24C179.6486,-24 199.3518,-24 218.6783,-24"/>
<polygon fill="#000000" stroke="#000000" points="218.743,-27.5001 228.743,-24 218.7429,-20.5001 218.743,-27.5001"/>
<text text-anchor="middle" x="195.5" y="-27.4" font-family="Helvetica,sans-Serif" font-size="12.00" fill="#000000">has&#45;a</text>
</g>
</g>
</svg>
