<?xml version="1.0" encoding="UTF-8" standalone="no"?>
<!DOCTYPE svg PUBLIC "-//W3C//DTD SVG 1.1//EN"
 "http://www.w3.org/Graphics/SVG/1.1/DTD/svg11.dtd">
<!-- Generated by graphviz version 2.40.1 (20161225.0304)
 -->
<!-- Title: graphic Pages: 1 -->
<svg width="460pt" height="154pt"
 viewBox="0.00 0.00 460.00 153.50" xmlns="http://www.w3.org/2000/svg" xmlns:xlink="http://www.w3.org/1999/xlink">
<g id="graph0" class="graph" transform="scale(1 1) rotate(0) translate(4 149.5)">
<title>graphic</title>
<polygon fill="#ffffff" stroke="transparent" points="-4,4 -4,-149.5 456,-149.5 456,4 -4,4"/>
<!-- ncic:CBTYCodeType -->
<g id="node1" class="node">
<title>ncic:CBTYCodeType</title>
<text text-anchor="start" x="240" y="-25.4" font-family="Helvetica,sans-Serif" font-weight="bold" font-size="12.00" fill="#000000">ncic:CBTYCodeType</text>
<g id="a_node1_0"><a xlink:href="../../structures/SimpleObjectAttributeGroup/#diagram" xlink:title="A group of attributes that are applicable to objects, to be used when defining a complex type that is an extension of a simple type." target="_top">
<polygon fill="#ebebeb" stroke="transparent" points="239,-5 239,-20 447,-20 447,-5 239,-5"/>
<text text-anchor="start" x="240" y="-9.4" font-family="Helvetica,sans-Serif" font-size="12.00" fill="#000000">structures:SimpleObjectAttributeGroup</text>
</a>
</g>
<polygon fill="#ff0000" stroke="#ff0000" points="234,-20 234,-20 452,-20 452,-20 234,-20"/>
<polygon fill="none" stroke="#ff0000" stroke-width="5" points="236.5,-2.5 236.5,-37.5 449.5,-37.5 449.5,-2.5 236.5,-2.5"/>
</g>
<!-- Properties -->
<g id="node2" class="node">
<title>Properties</title>
<text text-anchor="start" x="2.5" y="-25.4" font-family="Helvetica,sans-Serif" font-weight="bold" font-size="12.00" fill="#000000">Properties</text>
<g id="a_node2_1"><a xlink:href="../../j/VesselCategoryCanadianCode/#diagram" xlink:title="A kind of vessel." target="_top">
<polygon fill="#ebebeb" stroke="transparent" points="1.5,-5 1.5,-20 174.5,-20 174.5,-5 1.5,-5"/>
<text text-anchor="start" x="2.5" y="-9.4" font-family="Helvetica,sans-Serif" font-size="12.00" fill="#000000">j:VesselCategoryCanadianCode</text>
</a>
</g>
<polygon fill="#000000" stroke="#000000" points=".5,-20 .5,-20 175.5,-20 175.5,-20 .5,-20"/>
<polygon fill="none" stroke="#000000" points="0,-4 0,-36 175,-36 175,-4 0,-4"/>
</g>
<!-- Properties&#45;&gt;ncic:CBTYCodeType -->
<g id="edge1" class="edge">
<title>Properties:top&#45;&gt;ncic:CBTYCodeType:top</title>
<path fill="none" stroke="#000000" d="M174.5,-28C199.4714,-28 208.1284,-28 228.8937,-28"/>
<polygon fill="#000000" stroke="#000000" points="229,-31.5001 239,-28 229,-24.5001 229,-31.5001"/>
<text text-anchor="middle" x="204.5" y="-31.4" font-family="Helvetica,sans-Serif" font-size="12.00" fill="#000000">type</text>
</g>
<!-- ncic:CBTYCodeSimpleType -->
<g id="node3" class="node">
<title>ncic:CBTYCodeSimpleType</title>
<g id="a_node3_2"><a xlink:href="../../ncic/CBTYCodeSimpleType/#diagram" xlink:title="A data type for 6 &#45; Canadian Boat Type (TYP) Field Codes" target="_top">
<text text-anchor="start" x="269" y="-80.4" font-family="Helvetica,sans-Serif" font-size="12.00" fill="#000000">ncic:CBTYCodeSimpleType</text>
</a>
</g>
<polygon fill="none" stroke="#000000" points="266.5,-75.5 266.5,-92.5 419.5,-92.5 419.5,-75.5 266.5,-75.5"/>
</g>
<!-- ncic:CBTYCodeSimpleType&#45;&gt;ncic:CBTYCodeType -->
<g id="edge2" class="edge">
<title>ncic:CBTYCodeSimpleType&#45;&gt;ncic:CBTYCodeType</title>
<path fill="none" stroke="#000000" d="M343,-75.4351C343,-68.931 343,-59.5678 343,-50.3827"/>
<polygon fill="#000000" stroke="#000000" points="346.5001,-50.25 343,-40.25 339.5001,-50.25 346.5001,-50.25"/>
<text text-anchor="middle" x="333.5" y="-54.65" font-family="Helvetica,sans-Serif" font-size="12.00" fill="#000000">extension</text>
</g>
<!-- xs:token -->
<g id="node4" class="node">
<title>xs:token</title>
<g id="a_node4_3"><a xlink:href="../../xs/token/#diagram" xlink:title="&lt;TABLE&gt;" target="_top">
<text text-anchor="start" x="321" y="-133.4" font-family="Helvetica,sans-Serif" font-size="12.00" fill="#000000">xs:token</text>
</a>
</g>
<polygon fill="none" stroke="#000000" points="318.5,-128.5 318.5,-145.5 367.5,-145.5 367.5,-128.5 318.5,-128.5"/>
</g>
<!-- xs:token&#45;&gt;ncic:CBTYCodeSimpleType -->
<g id="edge3" class="edge">
<title>xs:token&#45;&gt;ncic:CBTYCodeSimpleType</title>
<path fill="none" stroke="#000000" d="M343,-128.411C343,-121.5124 343,-111.5696 343,-102.84"/>
<polygon fill="#000000" stroke="#000000" points="346.5001,-102.7518 343,-92.7519 339.5001,-102.7519 346.5001,-102.7518"/>
<text text-anchor="middle" x="333.5" y="-107.4" font-family="Helvetica,sans-Serif" font-size="12.00" fill="#000000">restriction</text>
</g>
</g>
</svg>
