<?xml version="1.0" encoding="UTF-8" standalone="no"?>
<!DOCTYPE svg PUBLIC "-//W3C//DTD SVG 1.1//EN"
 "http://www.w3.org/Graphics/SVG/1.1/DTD/svg11.dtd">
<!-- Generated by graphviz version 2.40.1 (20161225.0304)
 -->
<!-- Title: graphic Pages: 1 -->
<svg width="839pt" height="225pt"
 viewBox="0.00 0.00 839.00 225.00" xmlns="http://www.w3.org/2000/svg" xmlns:xlink="http://www.w3.org/1999/xlink">
<g id="graph0" class="graph" transform="scale(1 1) rotate(0) translate(4 221)">
<title>graphic</title>
<polygon fill="#ffffff" stroke="transparent" points="-4,4 -4,-221 835,-221 835,4 -4,4"/>
<!-- nc:Location -->
<g id="node1" class="node">
<title>nc:Location</title>
<text text-anchor="start" x="466.5" y="-201.4" font-family="Helvetica,sans-Serif" font-weight="bold" font-size="12.00" fill="#000000">nc:Location</text>
<polygon fill="none" stroke="#ff0000" stroke-width="5" points="463,-194 463,-214 538,-214 538,-194 463,-194"/>
</g>
<!-- SubstitutableElements -->
<g id="node3" class="node">
<title>SubstitutableElements</title>
<text text-anchor="start" x="324.5" y="-145.4" font-family="Helvetica,sans-Serif" font-weight="bold" font-size="12.00" fill="#000000">Substitutable elements</text>
<g id="a_node3_0"><a xlink:href="../../em/NotificationTargetLocation/#diagram" xlink:title="A notification target location" target="_top">
<polygon fill="#ebebeb" stroke="transparent" points="323.5,-125 323.5,-140 678.5,-140 678.5,-125 323.5,-125"/>
<text text-anchor="start" x="324.5" y="-129.4" font-family="Helvetica,sans-Serif" font-size="12.00" fill="#000000">em:NotificationTargetLocation: em:NotificationTargetLocationType</text>
</a>
</g>
<polygon fill="#000000" stroke="#000000" points="322.5,-140 322.5,-140 679.5,-140 679.5,-140 322.5,-140"/>
<polygon fill="none" stroke="#000000" points="322,-124 322,-156 679,-156 679,-124 322,-124"/>
</g>
<!-- nc:Location&#45;&gt;SubstitutableElements -->
<g id="edge2" class="edge">
<title>nc:Location&#45;&gt;SubstitutableElements</title>
<path fill="none" stroke="#000000" d="M500.5,-181.3063C500.5,-172.9972 500.5,-163.7712 500.5,-156.1499"/>
<polygon fill="#000000" stroke="#000000" points="497.0001,-181.4892 500.5,-191.4892 504.0001,-181.4892 497.0001,-181.4892"/>
<text text-anchor="middle" x="491" y="-170.65" font-family="Helvetica,sans-Serif" font-size="12.00" fill="#000000">substitutable for</text>
</g>
<!-- nc:LocationType -->
<g id="node4" class="node">
<title>nc:LocationType</title>
<g id="a_node4_1"><a xlink:href="../../nc/LocationType/#diagram" xlink:title="A data type for geospatial location." target="_top">
<text text-anchor="start" x="740.5" y="-200.4" font-family="Helvetica,sans-Serif" font-size="12.00" fill="#000000">nc:LocationType</text>
</a>
</g>
<polygon fill="none" stroke="#000000" points="738,-195.5 738,-212.5 831,-212.5 831,-195.5 738,-195.5"/>
</g>
<!-- nc:Location&#45;&gt;nc:LocationType -->
<g id="edge3" class="edge">
<title>nc:Location&#45;&gt;nc:LocationType</title>
<path fill="none" stroke="#000000" d="M540.5879,-204C589.3839,-204 672.1142,-204 727.5172,-204"/>
<polygon fill="#000000" stroke="#000000" points="727.5298,-207.5001 737.5298,-204 727.5297,-200.5001 727.5298,-207.5001"/>
<text text-anchor="middle" x="708.5" y="-207.4" font-family="Helvetica,sans-Serif" font-size="12.00" fill="#000000">type</text>
</g>
<!-- Types -->
<g id="node2" class="node">
<title>Types</title>
<text text-anchor="start" x="2.5" y="-201.4" font-family="Helvetica,sans-Serif" font-weight="bold" font-size="12.00" fill="#000000">Types</text>
<g id="a_node2_2"><a xlink:href="../../ip/AssetType/#diagram" xlink:title="A data type for an asset in an infrastructure." target="_top">
<polygon fill="#ebebeb" stroke="transparent" points="1.5,-181 1.5,-196 254.5,-196 254.5,-181 1.5,-181"/>
<text text-anchor="start" x="2.5" y="-185.4" font-family="Helvetica,sans-Serif" font-size="12.00" fill="#000000">ip:AssetType</text>
</a>
</g>
<g id="a_node2_3"><a xlink:href="../../j/ActivityLocationAssociationType/#diagram" xlink:title="A data type for an association between an activity and a location." target="_top">
<text text-anchor="start" x="2.5" y="-170.4" font-family="Helvetica,sans-Serif" font-size="12.00" fill="#000000">j:ActivityLocationAssociationType</text>
</a>
</g>
<g id="a_node2_4"><a xlink:href="../../j/CrashType/#diagram" xlink:title="A data type for a traffic accident." target="_top">
<polygon fill="#ebebeb" stroke="transparent" points="1.5,-151 1.5,-166 254.5,-166 254.5,-151 1.5,-151"/>
<text text-anchor="start" x="2.5" y="-155.4" font-family="Helvetica,sans-Serif" font-size="12.00" fill="#000000">j:CrashType</text>
</a>
</g>
<g id="a_node2_5"><a xlink:href="../../j/DeporteeDestinationLocationAssociationType/#diagram" xlink:title="A data type for a relationship between a deportee and a destination location to which they were deported." target="_top">
<text text-anchor="start" x="2.5" y="-140.4" font-family="Helvetica,sans-Serif" font-size="12.00" fill="#000000">j:DeporteeDestinationLocationAssociationType</text>
</a>
</g>
<g id="a_node2_6"><a xlink:href="../../j/DocumentLocationAssociationType/#diagram" xlink:title="A data type for an association between a document and a location." target="_top">
<polygon fill="#ebebeb" stroke="transparent" points="1.5,-121 1.5,-136 254.5,-136 254.5,-121 1.5,-121"/>
<text text-anchor="start" x="2.5" y="-125.4" font-family="Helvetica,sans-Serif" font-size="12.00" fill="#000000">j:DocumentLocationAssociationType</text>
</a>
</g>
<g id="a_node2_7"><a xlink:href="../../j/IncidentLocationAssociationType/#diagram" xlink:title="A data type for a relationship between an incident and where it occurred." target="_top">
<text text-anchor="start" x="2.5" y="-110.4" font-family="Helvetica,sans-Serif" font-size="12.00" fill="#000000">j:IncidentLocationAssociationType</text>
</a>
</g>
<g id="a_node2_8"><a xlink:href="../../j/OffenseLocationAssociationType/#diagram" xlink:title="A data type for a relationship between an offense and a location at which the offense occurred." target="_top">
<polygon fill="#ebebeb" stroke="transparent" points="1.5,-91 1.5,-106 254.5,-106 254.5,-91 1.5,-91"/>
<text text-anchor="start" x="2.5" y="-95.4" font-family="Helvetica,sans-Serif" font-size="12.00" fill="#000000">j:OffenseLocationAssociationType</text>
</a>
</g>
<g id="a_node2_9"><a xlink:href="../../j/PatientStudentServiceAssociationType/#diagram" xlink:title="A data type for a relationship between a service provider entity (person or organization) and a service recipient entity." target="_top">
<text text-anchor="start" x="2.5" y="-80.4" font-family="Helvetica,sans-Serif" font-size="12.00" fill="#000000">j:PatientStudentServiceAssociationType</text>
</a>
</g>
<g id="a_node2_10"><a xlink:href="../../j/ServiceCallLocationAssociationType/#diagram" xlink:title="A data type for a relationship between a service call and a location it involves." target="_top">
<polygon fill="#ebebeb" stroke="transparent" points="1.5,-61 1.5,-76 254.5,-76 254.5,-61 1.5,-61"/>
<text text-anchor="start" x="2.5" y="-65.4" font-family="Helvetica,sans-Serif" font-size="12.00" fill="#000000">j:ServiceCallLocationAssociationType</text>
</a>
</g>
<g id="a_node2_11"><a xlink:href="../../nc/ItemLocationAssociationType/#diagram" xlink:title="A data type for an association between a property and a location." target="_top">
<text text-anchor="start" x="2.5" y="-50.4" font-family="Helvetica,sans-Serif" font-size="12.00" fill="#000000">nc:ItemLocationAssociationType</text>
</a>
</g>
<g id="a_node2_12"><a xlink:href="../../nc/LocationContactInformationAssociationType/#diagram" xlink:title="A data type for an association between a location and contact information." target="_top">
<polygon fill="#ebebeb" stroke="transparent" points="1.5,-31 1.5,-46 254.5,-46 254.5,-31 1.5,-31"/>
<text text-anchor="start" x="2.5" y="-35.4" font-family="Helvetica,sans-Serif" font-size="12.00" fill="#000000">nc:LocationContactInformationAssociationType</text>
</a>
</g>
<g id="a_node2_13"><a xlink:href="../../nc/OrganizationLocationAssociationType/#diagram" xlink:title="A data type for an association between an organization and a location." target="_top">
<text text-anchor="start" x="2.5" y="-20.4" font-family="Helvetica,sans-Serif" font-size="12.00" fill="#000000">nc:OrganizationLocationAssociationType</text>
</a>
</g>
<g id="a_node2_14"><a xlink:href="../../nc/PersonLocationAssociationType/#diagram" xlink:title="A data type for an association between a person and a location." target="_top">
<polygon fill="#ebebeb" stroke="transparent" points="1.5,-1 1.5,-16 254.5,-16 254.5,-1 1.5,-1"/>
<text text-anchor="start" x="2.5" y="-5.4" font-family="Helvetica,sans-Serif" font-size="12.00" fill="#000000">nc:PersonLocationAssociationType</text>
</a>
</g>
<polygon fill="#000000" stroke="#000000" points=".5,-196 .5,-196 255.5,-196 255.5,-196 .5,-196"/>
<polygon fill="none" stroke="#000000" points="0,0 0,-212 255,-212 255,0 0,0"/>
</g>
<!-- Types&#45;&gt;nc:Location -->
<g id="edge1" class="edge">
<title>Types:top&#45;&gt;nc:Location</title>
<path fill="none" stroke="#000000" d="M254.5,-204C322.2828,-204 400.5713,-204 450.2865,-204"/>
<polygon fill="#000000" stroke="#000000" points="450.4474,-207.5001 460.4474,-204 450.4474,-200.5001 450.4474,-207.5001"/>
<text text-anchor="middle" x="288.5" y="-207.4" font-family="Helvetica,sans-Serif" font-size="12.00" fill="#000000">has&#45;a</text>
</g>
</g>
</svg>
