<?xml version="1.0" encoding="UTF-8" standalone="no"?>
<!DOCTYPE svg PUBLIC "-//W3C//DTD SVG 1.1//EN"
 "http://www.w3.org/Graphics/SVG/1.1/DTD/svg11.dtd">
<!-- Generated by graphviz version 2.40.1 (20161225.0304)
 -->
<!-- Title: graphic Pages: 1 -->
<svg width="624pt" height="154pt"
 viewBox="0.00 0.00 624.00 153.50" xmlns="http://www.w3.org/2000/svg" xmlns:xlink="http://www.w3.org/1999/xlink">
<g id="graph0" class="graph" transform="scale(1 1) rotate(0) translate(4 149.5)">
<title>graphic</title>
<polygon fill="#ffffff" stroke="transparent" points="-4,4 -4,-149.5 620,-149.5 620,4 -4,4"/>
<!-- hs:AdoptingParentRelationshipCategoryCodeType -->
<g id="node1" class="node">
<title>hs:AdoptingParentRelationshipCategoryCodeType</title>
<text text-anchor="start" x="316" y="-25.4" font-family="Helvetica,sans-Serif" font-weight="bold" font-size="12.00" fill="#000000">hs:AdoptingParentRelationshipCategoryCodeType</text>
<g id="a_node1_0"><a xlink:href="../../structures/SimpleObjectAttributeGroup/#diagram" xlink:title="A group of attributes that are applicable to objects, to be used when defining a complex type that is an extension of a simple type." target="_top">
<polygon fill="#ebebeb" stroke="transparent" points="315,-5 315,-20 608,-20 608,-5 315,-5"/>
<text text-anchor="start" x="316" y="-9.4" font-family="Helvetica,sans-Serif" font-size="12.00" fill="#000000">structures:SimpleObjectAttributeGroup</text>
</a>
</g>
<polygon fill="#ff0000" stroke="#ff0000" points="310,-20 310,-20 613,-20 613,-20 310,-20"/>
<polygon fill="none" stroke="#ff0000" stroke-width="5" points="312,-2.5 312,-37.5 610,-37.5 610,-2.5 312,-2.5"/>
</g>
<!-- Properties -->
<g id="node2" class="node">
<title>Properties</title>
<text text-anchor="start" x="2.5" y="-25.4" font-family="Helvetica,sans-Serif" font-weight="bold" font-size="12.00" fill="#000000">Properties</text>
<g id="a_node2_1"><a xlink:href="../../hs/AdoptingParentRelationshipCategoryCode/#diagram" xlink:title="A relationship of the child to the adopting parents." target="_top">
<polygon fill="#ebebeb" stroke="transparent" points="1.5,-5 1.5,-20 246.5,-20 246.5,-5 1.5,-5"/>
<text text-anchor="start" x="2.5" y="-9.4" font-family="Helvetica,sans-Serif" font-size="12.00" fill="#000000">hs:AdoptingParentRelationshipCategoryCode</text>
</a>
</g>
<polygon fill="#000000" stroke="#000000" points=".5,-20 .5,-20 247.5,-20 247.5,-20 .5,-20"/>
<polygon fill="none" stroke="#000000" points="0,-4 0,-36 247,-36 247,-4 0,-4"/>
</g>
<!-- Properties&#45;&gt;hs:AdoptingParentRelationshipCategoryCodeType -->
<g id="edge1" class="edge">
<title>Properties:top&#45;&gt;hs:AdoptingParentRelationshipCategoryCodeType:top</title>
<path fill="none" stroke="#000000" d="M246.5,-28C273.2578,-28 282.3774,-28 304.8635,-28"/>
<polygon fill="#000000" stroke="#000000" points="305,-31.5001 315,-28 305,-24.5001 305,-31.5001"/>
<text text-anchor="middle" x="276.5" y="-31.4" font-family="Helvetica,sans-Serif" font-size="12.00" fill="#000000">type</text>
</g>
<!-- hs:AdoptingParentRelationshipCategoryCodeSimpleType -->
<g id="node3" class="node">
<title>hs:AdoptingParentRelationshipCategoryCodeSimpleType</title>
<g id="a_node3_2"><a xlink:href="../../hs/AdoptingParentRelationshipCategoryCodeSimpleType/#diagram" xlink:title="A data type for describing the relationship of an adopting parent." target="_top">
<text text-anchor="start" x="308" y="-80.4" font-family="Helvetica,sans-Serif" font-size="12.00" fill="#000000">hs:AdoptingParentRelationshipCategoryCodeSimpleType</text>
</a>
</g>
<polygon fill="none" stroke="#000000" points="306,-75.5 306,-92.5 616,-92.5 616,-75.5 306,-75.5"/>
</g>
<!-- hs:AdoptingParentRelationshipCategoryCodeSimpleType&#45;&gt;hs:AdoptingParentRelationshipCategoryCodeType -->
<g id="edge2" class="edge">
<title>hs:AdoptingParentRelationshipCategoryCodeSimpleType&#45;&gt;hs:AdoptingParentRelationshipCategoryCodeType</title>
<path fill="none" stroke="#000000" d="M461,-75.4351C461,-68.931 461,-59.5678 461,-50.3827"/>
<polygon fill="#000000" stroke="#000000" points="464.5001,-50.25 461,-40.25 457.5001,-50.25 464.5001,-50.25"/>
<text text-anchor="middle" x="451.5" y="-54.65" font-family="Helvetica,sans-Serif" font-size="12.00" fill="#000000">extension</text>
</g>
<!-- xs:token -->
<g id="node4" class="node">
<title>xs:token</title>
<g id="a_node4_3"><a xlink:href="../../xs/token/#diagram" xlink:title="&lt;TABLE&gt;" target="_top">
<text text-anchor="start" x="439" y="-133.4" font-family="Helvetica,sans-Serif" font-size="12.00" fill="#000000">xs:token</text>
</a>
</g>
<polygon fill="none" stroke="#000000" points="436.5,-128.5 436.5,-145.5 485.5,-145.5 485.5,-128.5 436.5,-128.5"/>
</g>
<!-- xs:token&#45;&gt;hs:AdoptingParentRelationshipCategoryCodeSimpleType -->
<g id="edge3" class="edge">
<title>xs:token&#45;&gt;hs:AdoptingParentRelationshipCategoryCodeSimpleType</title>
<path fill="none" stroke="#000000" d="M461,-128.411C461,-121.5124 461,-111.5696 461,-102.84"/>
<polygon fill="#000000" stroke="#000000" points="464.5001,-102.7518 461,-92.7519 457.5001,-102.7519 464.5001,-102.7518"/>
<text text-anchor="middle" x="451.5" y="-107.4" font-family="Helvetica,sans-Serif" font-size="12.00" fill="#000000">restriction</text>
</g>
</g>
</svg>
