<?xml version="1.0" encoding="UTF-8" standalone="no"?>
<!DOCTYPE svg PUBLIC "-//W3C//DTD SVG 1.1//EN"
 "http://www.w3.org/Graphics/SVG/1.1/DTD/svg11.dtd">
<!-- Generated by graphviz version 2.40.1 (20161225.0304)
 -->
<!-- Title: graphic Pages: 1 -->
<svg width="432pt" height="45pt"
 viewBox="0.00 0.00 432.00 45.00" xmlns="http://www.w3.org/2000/svg" xmlns:xlink="http://www.w3.org/1999/xlink">
<g id="graph0" class="graph" transform="scale(1 1) rotate(0) translate(4 41)">
<title>graphic</title>
<polygon fill="#ffffff" stroke="transparent" points="-4,4 -4,-41 428,-41 428,4 -4,4"/>
<!-- nc:DispositionText -->
<g id="node1" class="node">
<title>nc:DispositionText</title>
<text text-anchor="start" x="179.5" y="-21.4" font-family="Helvetica,sans-Serif" font-weight="bold" font-size="12.00" fill="#000000">nc:DispositionText</text>
<polygon fill="none" stroke="#ff0000" stroke-width="5" points="175.5,-14 175.5,-34 291.5,-34 291.5,-14 175.5,-14"/>
</g>
<!-- nc:TextType -->
<g id="node3" class="node">
<title>nc:TextType</title>
<g id="a_node3_0"><a xlink:href="../../nc/TextType/#diagram" xlink:title="A data type for a character string." target="_top">
<text text-anchor="start" x="355.5" y="-20.4" font-family="Helvetica,sans-Serif" font-size="12.00" fill="#000000">nc:TextType</text>
</a>
</g>
<polygon fill="none" stroke="#000000" points="353,-15.5 353,-32.5 424,-32.5 424,-15.5 353,-15.5"/>
</g>
<!-- nc:DispositionText&#45;&gt;nc:TextType -->
<g id="edge2" class="edge">
<title>nc:DispositionText&#45;&gt;nc:TextType</title>
<path fill="none" stroke="#000000" d="M294.3152,-24C310.4403,-24 327.5769,-24 342.7504,-24"/>
<polygon fill="#000000" stroke="#000000" points="342.905,-27.5001 352.9049,-24 342.9049,-20.5001 342.905,-27.5001"/>
<text text-anchor="middle" x="323.5" y="-27.4" font-family="Helvetica,sans-Serif" font-size="12.00" fill="#000000">type</text>
</g>
<!-- Types -->
<g id="node2" class="node">
<title>Types</title>
<text text-anchor="start" x="2" y="-21.4" font-family="Helvetica,sans-Serif" font-weight="bold" font-size="12.00" fill="#000000">Types</text>
<g id="a_node2_1"><a xlink:href="../../nc/DispositionType/#diagram" xlink:title="A data type for a result or outcome that is the product of handling, processing, or finalizing something." target="_top">
<polygon fill="#ebebeb" stroke="transparent" points="1,-1 1,-16 105,-16 105,-1 1,-1"/>
<text text-anchor="start" x="2" y="-5.4" font-family="Helvetica,sans-Serif" font-size="12.00" fill="#000000">nc:DispositionType</text>
</a>
</g>
<polygon fill="#000000" stroke="#000000" points="0,-16 0,-16 106,-16 106,-16 0,-16"/>
<polygon fill="none" stroke="#000000" points="0,0 0,-32 106,-32 106,0 0,0"/>
</g>
<!-- Types&#45;&gt;nc:DispositionText -->
<g id="edge1" class="edge">
<title>Types:top&#45;&gt;nc:DispositionText</title>
<path fill="none" stroke="#000000" d="M105,-24C123.635,-24 143.7901,-24 162.4894,-24"/>
<polygon fill="#000000" stroke="#000000" points="162.7092,-27.5001 172.7091,-24 162.7091,-20.5001 162.7092,-27.5001"/>
<text text-anchor="middle" x="139.5" y="-27.4" font-family="Helvetica,sans-Serif" font-size="12.00" fill="#000000">has&#45;a</text>
</g>
</g>
</svg>
