<?xml version="1.0" encoding="UTF-8" standalone="no"?>
<!DOCTYPE svg PUBLIC "-//W3C//DTD SVG 1.1//EN"
 "http://www.w3.org/Graphics/SVG/1.1/DTD/svg11.dtd">
<!-- Generated by graphviz version 2.40.1 (20161225.0304)
 -->
<!-- Title: graphic Pages: 1 -->
<svg width="546pt" height="60pt"
 viewBox="0.00 0.00 546.00 59.50" xmlns="http://www.w3.org/2000/svg" xmlns:xlink="http://www.w3.org/1999/xlink">
<g id="graph0" class="graph" transform="scale(1 1) rotate(0) translate(4 55.5)">
<title>graphic</title>
<polygon fill="#ffffff" stroke="transparent" points="-4,4 -4,-55.5 542,-55.5 542,4 -4,4"/>
<!-- j:ChargeDescriptionText -->
<g id="node1" class="node">
<title>j:ChargeDescriptionText</title>
<text text-anchor="start" x="262" y="-35.9" font-family="Helvetica,sans-Serif" font-weight="bold" font-size="12.00" fill="#000000">j:ChargeDescriptionText</text>
<polygon fill="none" stroke="#ff0000" stroke-width="5" points="258.5,-28.5 258.5,-48.5 405.5,-48.5 405.5,-28.5 258.5,-28.5"/>
</g>
<!-- nc:TextType -->
<g id="node3" class="node">
<title>nc:TextType</title>
<g id="a_node3_0"><a xlink:href="../../nc/TextType/#diagram" xlink:title="A data type for a character string." target="_top">
<text text-anchor="start" x="469.5" y="-34.9" font-family="Helvetica,sans-Serif" font-size="12.00" fill="#000000">nc:TextType</text>
</a>
</g>
<polygon fill="none" stroke="#000000" points="467,-30 467,-47 538,-47 538,-30 467,-30"/>
</g>
<!-- j:ChargeDescriptionText&#45;&gt;nc:TextType -->
<g id="edge2" class="edge">
<title>j:ChargeDescriptionText&#45;&gt;nc:TextType</title>
<path fill="none" stroke="#000000" d="M408.2736,-38.5C424.6836,-38.5 441.5422,-38.5 456.3808,-38.5"/>
<polygon fill="#000000" stroke="#000000" points="456.7933,-42.0001 466.7933,-38.5 456.7933,-35.0001 456.7933,-42.0001"/>
<text text-anchor="middle" x="437.5" y="-41.9" font-family="Helvetica,sans-Serif" font-size="12.00" fill="#000000">type</text>
</g>
<!-- Types -->
<g id="node2" class="node">
<title>Types</title>
<text text-anchor="start" x="2.5" y="-35.9" font-family="Helvetica,sans-Serif" font-weight="bold" font-size="12.00" fill="#000000">Types</text>
<g id="a_node2_1"><a xlink:href="../../hs/JuvenileIntakeAssessmentType/#diagram" xlink:title="A data type for a juvenile intake assessment." target="_top">
<polygon fill="#ebebeb" stroke="transparent" points="1.5,-15.5 1.5,-30.5 188.5,-30.5 188.5,-15.5 1.5,-15.5"/>
<text text-anchor="start" x="2.5" y="-19.9" font-family="Helvetica,sans-Serif" font-size="12.00" fill="#000000">hs:JuvenileIntakeAssessmentType</text>
</a>
</g>
<g id="a_node2_2"><a xlink:href="../../j/ChargeType/#diagram" xlink:title="A data type for a formal allegation that a specific person has committed a specific offense." target="_top">
<text text-anchor="start" x="2.5" y="-4.9" font-family="Helvetica,sans-Serif" font-size="12.00" fill="#000000">j:ChargeType</text>
</a>
</g>
<polygon fill="#000000" stroke="#000000" points=".5,-30.5 .5,-30.5 189.5,-30.5 189.5,-30.5 .5,-30.5"/>
<polygon fill="none" stroke="#000000" points="0,0 0,-47 189,-47 189,0 0,0"/>
</g>
<!-- Types&#45;&gt;j:ChargeDescriptionText -->
<g id="edge1" class="edge">
<title>Types:top&#45;&gt;j:ChargeDescriptionText</title>
<path fill="none" stroke="#000000" d="M188.5,-38.5C206.9781,-38.5 226.7946,-38.5 245.6229,-38.5"/>
<polygon fill="#000000" stroke="#000000" points="245.6653,-42.0001 255.6653,-38.5 245.6652,-35.0001 245.6653,-42.0001"/>
<text text-anchor="middle" x="222.5" y="-41.9" font-family="Helvetica,sans-Serif" font-size="12.00" fill="#000000">has&#45;a</text>
</g>
</g>
</svg>
