<?xml version="1.0" encoding="UTF-8" standalone="no"?>
<!DOCTYPE svg PUBLIC "-//W3C//DTD SVG 1.1//EN"
 "http://www.w3.org/Graphics/SVG/1.1/DTD/svg11.dtd">
<!-- Generated by graphviz version 2.40.1 (20161225.0304)
 -->
<!-- Title: graphic Pages: 1 -->
<svg width="512pt" height="45pt"
 viewBox="0.00 0.00 512.00 45.00" xmlns="http://www.w3.org/2000/svg" xmlns:xlink="http://www.w3.org/1999/xlink">
<g id="graph0" class="graph" transform="scale(1 1) rotate(0) translate(4 41)">
<title>graphic</title>
<polygon fill="#ffffff" stroke="transparent" points="-4,4 -4,-41 508,-41 508,4 -4,4"/>
<!-- stat:ProcessSupportInputAugmentationPoint -->
<g id="node1" class="node">
<title>stat:ProcessSupportInputAugmentationPoint</title>
<text text-anchor="start" x="239.5" y="-21.4" font-family="Helvetica,sans-Serif" font-weight="bold" font-size="12.00" fill="#000000">stat:ProcessSupportInputAugmentationPoint</text>
<polygon fill="none" stroke="#ff0000" stroke-width="5" points="235.5,-14 235.5,-34 501.5,-34 501.5,-14 235.5,-14"/>
</g>
<!-- Types -->
<g id="node2" class="node">
<title>Types</title>
<text text-anchor="start" x="2" y="-21.4" font-family="Helvetica,sans-Serif" font-weight="bold" font-size="12.00" fill="#000000">Types</text>
<g id="a_node2_0"><a xlink:href="../../stat/ProcessSupportInputType/#diagram" xlink:title="A data type for a form of process input that influences the work performed by the process step, and therefore influences its outcome, but is not in itself changed by the process step." target="_top">
<polygon fill="#ebebeb" stroke="transparent" points="1,-1 1,-16 165,-16 165,-1 1,-1"/>
<text text-anchor="start" x="2" y="-5.4" font-family="Helvetica,sans-Serif" font-size="12.00" fill="#000000">stat:ProcessSupportInputType</text>
</a>
</g>
<polygon fill="#000000" stroke="#000000" points="0,-16 0,-16 166,-16 166,-16 0,-16"/>
<polygon fill="none" stroke="#000000" points="0,0 0,-32 166,-32 166,0 0,0"/>
</g>
<!-- Types&#45;&gt;stat:ProcessSupportInputAugmentationPoint -->
<g id="edge1" class="edge">
<title>Types:top&#45;&gt;stat:ProcessSupportInputAugmentationPoint</title>
<path fill="none" stroke="#000000" d="M165,-24C183.6531,-24 203.2679,-24 222.6543,-24"/>
<polygon fill="#000000" stroke="#000000" points="222.7651,-27.5001 232.7651,-24 222.765,-20.5001 222.7651,-27.5001"/>
<text text-anchor="middle" x="199.5" y="-27.4" font-family="Helvetica,sans-Serif" font-size="12.00" fill="#000000">has&#45;a</text>
</g>
</g>
</svg>
