<?xml version="1.0" encoding="UTF-8" standalone="no"?>
<!DOCTYPE svg PUBLIC "-//W3C//DTD SVG 1.1//EN"
 "http://www.w3.org/Graphics/SVG/1.1/DTD/svg11.dtd">
<!-- Generated by graphviz version 2.40.1 (20161225.0304)
 -->
<!-- Title: graphic Pages: 1 -->
<svg width="485pt" height="169pt"
 viewBox="0.00 0.00 485.00 169.00" xmlns="http://www.w3.org/2000/svg" xmlns:xlink="http://www.w3.org/1999/xlink">
<g id="graph0" class="graph" transform="scale(1 1) rotate(0) translate(4 165)">
<title>graphic</title>
<polygon fill="#ffffff" stroke="transparent" points="-4,4 -4,-165 481,-165 481,4 -4,4"/>
<!-- mo:IndicatorSettingDataType -->
<g id="node1" class="node">
<title>mo:IndicatorSettingDataType</title>
<text text-anchor="start" x="198.5" y="-39.9" font-family="Helvetica,sans-Serif" font-weight="bold" font-size="12.00" fill="#000000">mo:IndicatorSettingDataType</text>
<g id="a_node1_0"><a xlink:href="../../mo/SettingSelectedIndicator/#diagram" xlink:title="True if a setting has been selected; false if a setting has not been selected." target="_top">
<polygon fill="#ebebeb" stroke="transparent" points="197.5,-19.5 197.5,-34.5 472.5,-34.5 472.5,-19.5 197.5,-19.5"/>
<text text-anchor="start" x="198.5" y="-23.9" font-family="Helvetica,sans-Serif" font-size="12.00" fill="#000000">mo:SettingSelectedIndicator: niem&#45;xs:boolean [0&#45;n]</text>
</a>
</g>
<g id="a_node1_1"><a xlink:href="../../mo/IndicatorSettingDataAugmentationPoint/#diagram" xlink:title="An augmentation point for type mo:IndicatorSettingDataType" target="_top">
<text text-anchor="start" x="198.5" y="-8.9" font-family="Helvetica,sans-Serif" font-size="12.00" fill="#000000">mo:IndicatorSettingDataAugmentationPoint [0&#45;n]</text>
</a>
</g>
<polygon fill="#ff0000" stroke="#ff0000" points="192.5,-34.5 192.5,-34.5 477.5,-34.5 477.5,-34.5 192.5,-34.5"/>
<polygon fill="none" stroke="#ff0000" stroke-width="5" points="194.5,-2.5 194.5,-52.5 474.5,-52.5 474.5,-2.5 194.5,-2.5"/>
</g>
<!-- Properties -->
<g id="node2" class="node">
<title>Properties</title>
<text text-anchor="start" x="2.5" y="-39.9" font-family="Helvetica,sans-Serif" font-weight="bold" font-size="12.00" fill="#000000">Properties</text>
<g id="a_node2_2"><a xlink:href="../../mo/IndicatorSettingData/#diagram" xlink:title="A setting that is a true or false value" target="_top">
<polygon fill="#ebebeb" stroke="transparent" points="1.5,-19.5 1.5,-34.5 132.5,-34.5 132.5,-19.5 1.5,-19.5"/>
<text text-anchor="start" x="2.5" y="-23.9" font-family="Helvetica,sans-Serif" font-size="12.00" fill="#000000">mo:IndicatorSettingData</text>
</a>
</g>
<polygon fill="#000000" stroke="#000000" points=".5,-34.5 .5,-34.5 133.5,-34.5 133.5,-34.5 .5,-34.5"/>
<polygon fill="none" stroke="#000000" points="0,-18.5 0,-50.5 133,-50.5 133,-18.5 0,-18.5"/>
</g>
<!-- Properties&#45;&gt;mo:IndicatorSettingDataType -->
<g id="edge1" class="edge">
<title>Properties:top&#45;&gt;mo:IndicatorSettingDataType:top</title>
<path fill="none" stroke="#000000" d="M132.5,-42.5C157.6649,-42.5 166.3891,-42.5 187.3154,-42.5"/>
<polygon fill="#000000" stroke="#000000" points="187.5,-46.0001 197.5,-42.5 187.5,-39.0001 187.5,-46.0001"/>
<text text-anchor="middle" x="162.5" y="-45.9" font-family="Helvetica,sans-Serif" font-size="12.00" fill="#000000">type</text>
</g>
<!-- mo:SettingDataType -->
<g id="node3" class="node">
<title>mo:SettingDataType</title>
<g id="a_node3_3"><a xlink:href="../../mo/SettingDataType/#diagram" xlink:title="A data type for a value or set of data for a setting." target="_top">
<text text-anchor="start" x="279.5" y="-95.9" font-family="Helvetica,sans-Serif" font-size="12.00" fill="#000000">mo:SettingDataType</text>
</a>
</g>
<polygon fill="none" stroke="#000000" points="277.5,-91 277.5,-108 391.5,-108 391.5,-91 277.5,-91"/>
</g>
<!-- mo:SettingDataType&#45;&gt;mo:IndicatorSettingDataType -->
<g id="edge2" class="edge">
<title>mo:SettingDataType&#45;&gt;mo:IndicatorSettingDataType</title>
<path fill="none" stroke="#000000" d="M334.5,-90.8151C334.5,-84.3271 334.5,-74.9677 334.5,-65.4273"/>
<polygon fill="#000000" stroke="#000000" points="338.0001,-65.1311 334.5,-55.1312 331.0001,-65.1312 338.0001,-65.1311"/>
<text text-anchor="middle" x="325" y="-69.9" font-family="Helvetica,sans-Serif" font-size="12.00" fill="#000000">extension</text>
</g>
<!-- structures:ObjectType -->
<g id="node4" class="node">
<title>structures:ObjectType</title>
<g id="a_node4_4"><a xlink:href="../../structures/ObjectType/#diagram" xlink:title="A data type for a thing with its own lifespan that has some existence." target="_top">
<text text-anchor="start" x="275.5" y="-148.9" font-family="Helvetica,sans-Serif" font-size="12.00" fill="#000000">structures:ObjectType</text>
</a>
</g>
<polygon fill="none" stroke="#000000" points="273.5,-144 273.5,-161 395.5,-161 395.5,-144 273.5,-144"/>
</g>
<!-- structures:ObjectType&#45;&gt;mo:SettingDataType -->
<g id="edge3" class="edge">
<title>structures:ObjectType&#45;&gt;mo:SettingDataType</title>
<path fill="none" stroke="#000000" d="M334.5,-143.911C334.5,-137.0124 334.5,-127.0696 334.5,-118.34"/>
<polygon fill="#000000" stroke="#000000" points="338.0001,-118.2518 334.5,-108.2519 331.0001,-118.2519 338.0001,-118.2518"/>
<text text-anchor="middle" x="325" y="-122.9" font-family="Helvetica,sans-Serif" font-size="12.00" fill="#000000">extension</text>
</g>
</g>
</svg>
