<?xml version="1.0" encoding="UTF-8" standalone="no"?>
<!DOCTYPE svg PUBLIC "-//W3C//DTD SVG 1.1//EN"
 "http://www.w3.org/Graphics/SVG/1.1/DTD/svg11.dtd">
<!-- Generated by graphviz version 2.40.1 (20161225.0304)
 -->
<!-- Title: graphic Pages: 1 -->
<svg width="611pt" height="45pt"
 viewBox="0.00 0.00 611.00 45.00" xmlns="http://www.w3.org/2000/svg" xmlns:xlink="http://www.w3.org/1999/xlink">
<g id="graph0" class="graph" transform="scale(1 1) rotate(0) translate(4 41)">
<title>graphic</title>
<polygon fill="#ffffff" stroke="transparent" points="-4,4 -4,-41 607,-41 607,4 -4,4"/>
<!-- j:OffenseUnderInfluenceIndicator -->
<g id="node1" class="node">
<title>j:OffenseUnderInfluenceIndicator</title>
<text text-anchor="start" x="254.5" y="-21.4" font-family="Helvetica,sans-Serif" font-weight="bold" font-size="12.00" fill="#000000">j:OffenseUnderInfluenceIndicator</text>
<polygon fill="none" stroke="#ff0000" stroke-width="5" points="250.5,-14 250.5,-34 448.5,-34 448.5,-14 250.5,-14"/>
</g>
<!-- niem&#45;xs:boolean -->
<g id="node3" class="node">
<title>niem&#45;xs:boolean</title>
<g id="a_node3_0"><a xlink:href="../../niem-xs/boolean/#diagram" xlink:title="A data type for binary&#45;valued logic (true/false)." target="_top">
<text text-anchor="start" x="512.5" y="-20.4" font-family="Helvetica,sans-Serif" font-size="12.00" fill="#000000">niem&#45;xs:boolean</text>
</a>
</g>
<polygon fill="none" stroke="#000000" points="510,-15.5 510,-32.5 603,-32.5 603,-15.5 510,-15.5"/>
</g>
<!-- j:OffenseUnderInfluenceIndicator&#45;&gt;niem&#45;xs:boolean -->
<g id="edge2" class="edge">
<title>j:OffenseUnderInfluenceIndicator&#45;&gt;niem&#45;xs:boolean</title>
<path fill="none" stroke="#000000" d="M451.1807,-24C467.8786,-24 484.6396,-24 499.7245,-24"/>
<polygon fill="#000000" stroke="#000000" points="499.8789,-27.5001 509.8789,-24 499.8788,-20.5001 499.8789,-27.5001"/>
<text text-anchor="middle" x="480.5" y="-27.4" font-family="Helvetica,sans-Serif" font-size="12.00" fill="#000000">type</text>
</g>
<!-- Types -->
<g id="node2" class="node">
<title>Types</title>
<text text-anchor="start" x="2.5" y="-21.4" font-family="Helvetica,sans-Serif" font-weight="bold" font-size="12.00" fill="#000000">Types</text>
<g id="a_node2_1"><a xlink:href="../../j/OffenseSubjectAssociationType/#diagram" xlink:title="A data type for a relationship between an offense that was committed and the subject alleged to have committed that offense." target="_top">
<polygon fill="#ebebeb" stroke="transparent" points="1.5,-1 1.5,-16 180.5,-16 180.5,-1 1.5,-1"/>
<text text-anchor="start" x="2.5" y="-5.4" font-family="Helvetica,sans-Serif" font-size="12.00" fill="#000000">j:OffenseSubjectAssociationType</text>
</a>
</g>
<polygon fill="#000000" stroke="#000000" points=".5,-16 .5,-16 181.5,-16 181.5,-16 .5,-16"/>
<polygon fill="none" stroke="#000000" points="0,0 0,-32 181,-32 181,0 0,0"/>
</g>
<!-- Types&#45;&gt;j:OffenseUnderInfluenceIndicator -->
<g id="edge1" class="edge">
<title>Types:top&#45;&gt;j:OffenseUnderInfluenceIndicator</title>
<path fill="none" stroke="#000000" d="M180.5,-24C198.9041,-24 218.4357,-24 237.4371,-24"/>
<polygon fill="#000000" stroke="#000000" points="237.6212,-27.5001 247.6212,-24 237.6212,-20.5001 237.6212,-27.5001"/>
<text text-anchor="middle" x="214.5" y="-27.4" font-family="Helvetica,sans-Serif" font-size="12.00" fill="#000000">has&#45;a</text>
</g>
</g>
</svg>
