<?xml version="1.0" encoding="UTF-8" standalone="no"?>
<!DOCTYPE svg PUBLIC "-//W3C//DTD SVG 1.1//EN"
 "http://www.w3.org/Graphics/SVG/1.1/DTD/svg11.dtd">
<!-- Generated by graphviz version 2.40.1 (20161225.0304)
 -->
<!-- Title: graphic Pages: 1 -->
<svg width="560pt" height="45pt"
 viewBox="0.00 0.00 560.00 45.00" xmlns="http://www.w3.org/2000/svg" xmlns:xlink="http://www.w3.org/1999/xlink">
<g id="graph0" class="graph" transform="scale(1 1) rotate(0) translate(4 41)">
<title>graphic</title>
<polygon fill="#ffffff" stroke="transparent" points="-4,4 -4,-41 556,-41 556,4 -4,4"/>
<!-- j:TreatmentRecommendedText -->
<g id="node1" class="node">
<title>j:TreatmentRecommendedText</title>
<text text-anchor="start" x="239.5" y="-21.4" font-family="Helvetica,sans-Serif" font-weight="bold" font-size="12.00" fill="#000000">j:TreatmentRecommendedText</text>
<polygon fill="none" stroke="#ff0000" stroke-width="5" points="235.5,-14 235.5,-34 419.5,-34 419.5,-14 235.5,-14"/>
</g>
<!-- nc:TextType -->
<g id="node3" class="node">
<title>nc:TextType</title>
<g id="a_node3_0"><a xlink:href="../../nc/TextType/#diagram" xlink:title="A data type for a character string." target="_top">
<text text-anchor="start" x="483.5" y="-20.4" font-family="Helvetica,sans-Serif" font-size="12.00" fill="#000000">nc:TextType</text>
</a>
</g>
<polygon fill="none" stroke="#000000" points="481,-15.5 481,-32.5 552,-32.5 552,-15.5 481,-15.5"/>
</g>
<!-- j:TreatmentRecommendedText&#45;&gt;nc:TextType -->
<g id="edge2" class="edge">
<title>j:TreatmentRecommendedText&#45;&gt;nc:TextType</title>
<path fill="none" stroke="#000000" d="M422.2769,-24C439.0269,-24 455.7654,-24 470.3873,-24"/>
<polygon fill="#000000" stroke="#000000" points="470.6302,-27.5001 480.6301,-24 470.6301,-20.5001 470.6302,-27.5001"/>
<text text-anchor="middle" x="451.5" y="-27.4" font-family="Helvetica,sans-Serif" font-size="12.00" fill="#000000">type</text>
</g>
<!-- Types -->
<g id="node2" class="node">
<title>Types</title>
<text text-anchor="start" x="2" y="-21.4" font-family="Helvetica,sans-Serif" font-weight="bold" font-size="12.00" fill="#000000">Types</text>
<g id="a_node2_1"><a xlink:href="../../j/TreatmentAugmentationType/#diagram" xlink:title="A data type for additional information about a treatment." target="_top">
<polygon fill="#ebebeb" stroke="transparent" points="1,-1 1,-16 165,-16 165,-1 1,-1"/>
<text text-anchor="start" x="2" y="-5.4" font-family="Helvetica,sans-Serif" font-size="12.00" fill="#000000">j:TreatmentAugmentationType</text>
</a>
</g>
<polygon fill="#000000" stroke="#000000" points="0,-16 0,-16 166,-16 166,-16 0,-16"/>
<polygon fill="none" stroke="#000000" points="0,0 0,-32 166,-32 166,0 0,0"/>
</g>
<!-- Types&#45;&gt;j:TreatmentRecommendedText -->
<g id="edge1" class="edge">
<title>Types:top&#45;&gt;j:TreatmentRecommendedText</title>
<path fill="none" stroke="#000000" d="M165,-24C183.7388,-24 203.6931,-24 222.9707,-24"/>
<polygon fill="#000000" stroke="#000000" points="222.9799,-27.5001 232.9799,-24 222.9799,-20.5001 222.9799,-27.5001"/>
<text text-anchor="middle" x="199.5" y="-27.4" font-family="Helvetica,sans-Serif" font-size="12.00" fill="#000000">has&#45;a</text>
</g>
</g>
</svg>
