<?xml version="1.0" encoding="UTF-8" standalone="no"?>
<!DOCTYPE svg PUBLIC "-//W3C//DTD SVG 1.1//EN"
 "http://www.w3.org/Graphics/SVG/1.1/DTD/svg11.dtd">
<!-- Generated by graphviz version 2.40.1 (20161225.0304)
 -->
<!-- Title: graphic Pages: 1 -->
<svg width="767pt" height="45pt"
 viewBox="0.00 0.00 767.00 45.00" xmlns="http://www.w3.org/2000/svg" xmlns:xlink="http://www.w3.org/1999/xlink">
<g id="graph0" class="graph" transform="scale(1 1) rotate(0) translate(4 41)">
<title>graphic</title>
<polygon fill="#ffffff" stroke="transparent" points="-4,4 -4,-41 763,-41 763,4 -4,4"/>
<!-- im:BinationalCommissionTotalFundingSupportAmount -->
<g id="node1" class="node">
<title>im:BinationalCommissionTotalFundingSupportAmount</title>
<text text-anchor="start" x="289" y="-21.4" font-family="Helvetica,sans-Serif" font-weight="bold" font-size="12.00" fill="#000000">im:BinationalCommissionTotalFundingSupportAmount</text>
<polygon fill="none" stroke="#ff0000" stroke-width="5" points="285.5,-14 285.5,-34 608.5,-34 608.5,-14 285.5,-14"/>
</g>
<!-- nc:AmountType -->
<g id="node3" class="node">
<title>nc:AmountType</title>
<g id="a_node3_0"><a xlink:href="../../nc/AmountType/#diagram" xlink:title="A data type for an amount of money." target="_top">
<text text-anchor="start" x="672.5" y="-20.4" font-family="Helvetica,sans-Serif" font-size="12.00" fill="#000000">nc:AmountType</text>
</a>
</g>
<polygon fill="none" stroke="#000000" points="670,-15.5 670,-32.5 759,-32.5 759,-15.5 670,-15.5"/>
</g>
<!-- im:BinationalCommissionTotalFundingSupportAmount&#45;&gt;nc:AmountType -->
<g id="edge2" class="edge">
<title>im:BinationalCommissionTotalFundingSupportAmount&#45;&gt;nc:AmountType</title>
<path fill="none" stroke="#000000" d="M611.0775,-24C628.3954,-24 644.9973,-24 659.637,-24"/>
<polygon fill="#000000" stroke="#000000" points="659.9324,-27.5001 669.9324,-24 659.9323,-20.5001 659.9324,-27.5001"/>
<text text-anchor="middle" x="640.5" y="-27.4" font-family="Helvetica,sans-Serif" font-size="12.00" fill="#000000">type</text>
</g>
<!-- Types -->
<g id="node2" class="node">
<title>Types</title>
<text text-anchor="start" x="2" y="-21.4" font-family="Helvetica,sans-Serif" font-weight="bold" font-size="12.00" fill="#000000">Types</text>
<g id="a_node2_1"><a xlink:href="../../im/AlienExchangeVisitorAdmissionType/#diagram" xlink:title="A data type for a non&#45;immigrant alien arriving in the United States on a temporary basis as a participant in a program approved by the Department of State." target="_top">
<polygon fill="#ebebeb" stroke="transparent" points="1,-1 1,-16 215,-16 215,-1 1,-1"/>
<text text-anchor="start" x="2" y="-5.4" font-family="Helvetica,sans-Serif" font-size="12.00" fill="#000000">im:AlienExchangeVisitorAdmissionType</text>
</a>
</g>
<polygon fill="#000000" stroke="#000000" points="0,-16 0,-16 216,-16 216,-16 0,-16"/>
<polygon fill="none" stroke="#000000" points="0,0 0,-32 216,-32 216,0 0,0"/>
</g>
<!-- Types&#45;&gt;im:BinationalCommissionTotalFundingSupportAmount -->
<g id="edge1" class="edge">
<title>Types:top&#45;&gt;im:BinationalCommissionTotalFundingSupportAmount</title>
<path fill="none" stroke="#000000" d="M215,-24C233.693,-24 253.2332,-24 272.699,-24"/>
<polygon fill="#000000" stroke="#000000" points="272.8668,-27.5001 282.8668,-24 272.8667,-20.5001 272.8668,-27.5001"/>
<text text-anchor="middle" x="249.5" y="-27.4" font-family="Helvetica,sans-Serif" font-size="12.00" fill="#000000">has&#45;a</text>
</g>
</g>
</svg>
