<?xml version="1.0" encoding="UTF-8" standalone="no"?>
<!DOCTYPE svg PUBLIC "-//W3C//DTD SVG 1.1//EN"
 "http://www.w3.org/Graphics/SVG/1.1/DTD/svg11.dtd">
<!-- Generated by graphviz version 2.40.1 (20161225.0304)
 -->
<!-- Title: graphic Pages: 1 -->
<svg width="430pt" height="154pt"
 viewBox="0.00 0.00 430.00 153.50" xmlns="http://www.w3.org/2000/svg" xmlns:xlink="http://www.w3.org/1999/xlink">
<g id="graph0" class="graph" transform="scale(1 1) rotate(0) translate(4 149.5)">
<title>graphic</title>
<polygon fill="#ffffff" stroke="transparent" points="-4,4 -4,-149.5 426,-149.5 426,4 -4,4"/>
<!-- mo:NATOMilType -->
<g id="node1" class="node">
<title>mo:NATOMilType</title>
<text text-anchor="start" x="210" y="-25.4" font-family="Helvetica,sans-Serif" font-weight="bold" font-size="12.00" fill="#000000">mo:NATOMilType</text>
<g id="a_node1_0"><a xlink:href="../../structures/SimpleObjectAttributeGroup/#diagram" xlink:title="A group of attributes that are applicable to objects, to be used when defining a complex type that is an extension of a simple type." target="_top">
<polygon fill="#ebebeb" stroke="transparent" points="209,-5 209,-20 417,-20 417,-5 209,-5"/>
<text text-anchor="start" x="210" y="-9.4" font-family="Helvetica,sans-Serif" font-size="12.00" fill="#000000">structures:SimpleObjectAttributeGroup</text>
</a>
</g>
<polygon fill="#ff0000" stroke="#ff0000" points="204,-20 204,-20 422,-20 422,-20 204,-20"/>
<polygon fill="none" stroke="#ff0000" stroke-width="5" points="206.5,-2.5 206.5,-37.5 419.5,-37.5 419.5,-2.5 206.5,-2.5"/>
</g>
<!-- Properties -->
<g id="node2" class="node">
<title>Properties</title>
<text text-anchor="start" x="2.5" y="-25.4" font-family="Helvetica,sans-Serif" font-weight="bold" font-size="12.00" fill="#000000">Properties</text>
<g id="a_node2_1"><a xlink:href="../../mo/AngularNATOMilValue/#diagram" xlink:title="A measure of an angle in NATO Mils (there are 6400 NATO Mils in a circle)." target="_top">
<polygon fill="#ebebeb" stroke="transparent" points="1.5,-5 1.5,-20 144.5,-20 144.5,-5 1.5,-5"/>
<text text-anchor="start" x="2.5" y="-9.4" font-family="Helvetica,sans-Serif" font-size="12.00" fill="#000000">mo:AngularNATOMilValue</text>
</a>
</g>
<polygon fill="#000000" stroke="#000000" points=".5,-20 .5,-20 145.5,-20 145.5,-20 .5,-20"/>
<polygon fill="none" stroke="#000000" points="0,-4 0,-36 145,-36 145,-4 0,-4"/>
</g>
<!-- Properties&#45;&gt;mo:NATOMilType -->
<g id="edge1" class="edge">
<title>Properties:top&#45;&gt;mo:NATOMilType:top</title>
<path fill="none" stroke="#000000" d="M144.5,-28C169.4714,-28 178.1284,-28 198.8937,-28"/>
<polygon fill="#000000" stroke="#000000" points="199,-31.5001 209,-28 199,-24.5001 199,-31.5001"/>
<text text-anchor="middle" x="174.5" y="-31.4" font-family="Helvetica,sans-Serif" font-size="12.00" fill="#000000">type</text>
</g>
<!-- mo:NATOMilSimpleType -->
<g id="node3" class="node">
<title>mo:NATOMilSimpleType</title>
<g id="a_node3_2"><a xlink:href="../../mo/NATOMilSimpleType/#diagram" xlink:title="A data type for a measure of an angle in NATO Mils (there are 6400 NATO Mils in a circle)." target="_top">
<text text-anchor="start" x="247" y="-80.4" font-family="Helvetica,sans-Serif" font-size="12.00" fill="#000000">mo:NATOMilSimpleType</text>
</a>
</g>
<polygon fill="none" stroke="#000000" points="244.5,-75.5 244.5,-92.5 381.5,-92.5 381.5,-75.5 244.5,-75.5"/>
</g>
<!-- mo:NATOMilSimpleType&#45;&gt;mo:NATOMilType -->
<g id="edge2" class="edge">
<title>mo:NATOMilSimpleType&#45;&gt;mo:NATOMilType</title>
<path fill="none" stroke="#000000" d="M313,-75.4351C313,-68.931 313,-59.5678 313,-50.3827"/>
<polygon fill="#000000" stroke="#000000" points="316.5001,-50.25 313,-40.25 309.5001,-50.25 316.5001,-50.25"/>
<text text-anchor="middle" x="303.5" y="-54.65" font-family="Helvetica,sans-Serif" font-size="12.00" fill="#000000">extension</text>
</g>
<!-- xs:decimal -->
<g id="node4" class="node">
<title>xs:decimal</title>
<g id="a_node4_3"><a xlink:href="../../xs/decimal/#diagram" xlink:title="&lt;TABLE&gt;" target="_top">
<text text-anchor="start" x="285" y="-133.4" font-family="Helvetica,sans-Serif" font-size="12.00" fill="#000000">xs:decimal</text>
</a>
</g>
<polygon fill="none" stroke="#000000" points="282.5,-128.5 282.5,-145.5 343.5,-145.5 343.5,-128.5 282.5,-128.5"/>
</g>
<!-- xs:decimal&#45;&gt;mo:NATOMilSimpleType -->
<g id="edge3" class="edge">
<title>xs:decimal&#45;&gt;mo:NATOMilSimpleType</title>
<path fill="none" stroke="#000000" d="M313,-128.411C313,-121.5124 313,-111.5696 313,-102.84"/>
<polygon fill="#000000" stroke="#000000" points="316.5001,-102.7518 313,-92.7519 309.5001,-102.7519 316.5001,-102.7518"/>
<text text-anchor="middle" x="303.5" y="-107.4" font-family="Helvetica,sans-Serif" font-size="12.00" fill="#000000">restriction</text>
</g>
</g>
</svg>
