<?xml version="1.0" encoding="UTF-8" standalone="no"?>
<!DOCTYPE svg PUBLIC "-//W3C//DTD SVG 1.1//EN"
 "http://www.w3.org/Graphics/SVG/1.1/DTD/svg11.dtd">
<!-- Generated by graphviz version 2.40.1 (20161225.0304)
 -->
<!-- Title: graphic Pages: 1 -->
<svg width="581pt" height="45pt"
 viewBox="0.00 0.00 581.00 45.00" xmlns="http://www.w3.org/2000/svg" xmlns:xlink="http://www.w3.org/1999/xlink">
<g id="graph0" class="graph" transform="scale(1 1) rotate(0) translate(4 41)">
<title>graphic</title>
<polygon fill="#ffffff" stroke="transparent" points="-4,4 -4,-41 577,-41 577,4 -4,4"/>
<!-- j:MentalHealthConcernNotedDate -->
<g id="node1" class="node">
<title>j:MentalHealthConcernNotedDate</title>
<text text-anchor="start" x="244.5" y="-21.4" font-family="Helvetica,sans-Serif" font-weight="bold" font-size="12.00" fill="#000000">j:MentalHealthConcernNotedDate</text>
<polygon fill="none" stroke="#ff0000" stroke-width="5" points="240.5,-14 240.5,-34 438.5,-34 438.5,-14 240.5,-14"/>
</g>
<!-- nc:DateType -->
<g id="node3" class="node">
<title>nc:DateType</title>
<g id="a_node3_0"><a xlink:href="../../nc/DateType/#diagram" xlink:title="A data type for a calendar date." target="_top">
<text text-anchor="start" x="502.5" y="-20.4" font-family="Helvetica,sans-Serif" font-size="12.00" fill="#000000">nc:DateType</text>
</a>
</g>
<polygon fill="none" stroke="#000000" points="500,-15.5 500,-32.5 573,-32.5 573,-15.5 500,-15.5"/>
</g>
<!-- j:MentalHealthConcernNotedDate&#45;&gt;nc:DateType -->
<g id="edge2" class="edge">
<title>j:MentalHealthConcernNotedDate&#45;&gt;nc:DateType</title>
<path fill="none" stroke="#000000" d="M441.1738,-24C458.132,-24 474.9646,-24 489.6582,-24"/>
<polygon fill="#000000" stroke="#000000" points="489.9507,-27.5001 499.9507,-24 489.9506,-20.5001 489.9507,-27.5001"/>
<text text-anchor="middle" x="470.5" y="-27.4" font-family="Helvetica,sans-Serif" font-size="12.00" fill="#000000">type</text>
</g>
<!-- Types -->
<g id="node2" class="node">
<title>Types</title>
<text text-anchor="start" x="2.5" y="-21.4" font-family="Helvetica,sans-Serif" font-weight="bold" font-size="12.00" fill="#000000">Types</text>
<g id="a_node2_1"><a xlink:href="../../j/MentalHealthCertificationType/#diagram" xlink:title="A data type for an official pronouncement of the status of the mental health of subject, thru the testimony of medical professionals and/or declared by a court of law." target="_top">
<polygon fill="#ebebeb" stroke="transparent" points="1.5,-1 1.5,-16 170.5,-16 170.5,-1 1.5,-1"/>
<text text-anchor="start" x="2.5" y="-5.4" font-family="Helvetica,sans-Serif" font-size="12.00" fill="#000000">j:MentalHealthCertificationType</text>
</a>
</g>
<polygon fill="#000000" stroke="#000000" points=".5,-16 .5,-16 171.5,-16 171.5,-16 .5,-16"/>
<polygon fill="none" stroke="#000000" points="0,0 0,-32 171,-32 171,0 0,0"/>
</g>
<!-- Types&#45;&gt;j:MentalHealthConcernNotedDate -->
<g id="edge1" class="edge">
<title>Types:top&#45;&gt;j:MentalHealthConcernNotedDate</title>
<path fill="none" stroke="#000000" d="M170.5,-24C188.9041,-24 208.4357,-24 227.4371,-24"/>
<polygon fill="#000000" stroke="#000000" points="227.6212,-27.5001 237.6212,-24 227.6212,-20.5001 227.6212,-27.5001"/>
<text text-anchor="middle" x="204.5" y="-27.4" font-family="Helvetica,sans-Serif" font-size="12.00" fill="#000000">has&#45;a</text>
</g>
</g>
</svg>
