<?xml version="1.0" encoding="UTF-8" standalone="no"?>
<!DOCTYPE svg PUBLIC "-//W3C//DTD SVG 1.1//EN"
 "http://www.w3.org/Graphics/SVG/1.1/DTD/svg11.dtd">
<!-- Generated by graphviz version 2.40.1 (20161225.0304)
 -->
<!-- Title: graphic Pages: 1 -->
<svg width="1126pt" height="214pt"
 viewBox="0.00 0.00 1126.00 213.50" xmlns="http://www.w3.org/2000/svg" xmlns:xlink="http://www.w3.org/1999/xlink">
<g id="graph0" class="graph" transform="scale(1 1) rotate(0) translate(4 209.5)">
<title>graphic</title>
<polygon fill="#ffffff" stroke="transparent" points="-4,4 -4,-209.5 1122,-209.5 1122,4 -4,4"/>
<!-- j:DriverLicensePermitType -->
<g id="node1" class="node">
<title>j:DriverLicensePermitType</title>
<text text-anchor="start" x="184" y="-85.4" font-family="Helvetica,sans-Serif" font-weight="bold" font-size="12.00" fill="#000000">j:DriverLicensePermitType</text>
<g id="a_node1_0"><a xlink:href="../../j/DriverLicensePermitClassificationText/#diagram" xlink:title="A kind of commercial or non&#45;commercial vehicle that a licensed driver has been examined on and approved to operate subject to a permit." target="_top">
<polygon fill="#ebebeb" stroke="transparent" points="183,-65 183,-80 617,-80 617,-65 183,-65"/>
<text text-anchor="start" x="184" y="-69.4" font-family="Helvetica,sans-Serif" font-size="12.00" fill="#000000">j:DriverLicensePermitClassificationText: nc:TextType [0&#45;n]</text>
</a>
</g>
<g id="a_node1_1"><a xlink:href="../../j/DriverLicensePermitStatusAbstract/#diagram" xlink:title="A data concept for a current status of an individuals driver license permit." target="_top">
<text text-anchor="start" x="184" y="-54.4" font-family="Helvetica,sans-Serif" font-size="12.00" fill="#000000">j:DriverLicensePermitStatusAbstract [0&#45;n]</text>
</a>
</g>
<g id="a_node1_2"><a xlink:href="../../j/DriverLicensePermitRestriction/#diagram" xlink:title="A restriction on a driver license permit." target="_top">
<polygon fill="#ebebeb" stroke="transparent" points="183,-35 183,-50 617,-50 617,-35 183,-35"/>
<text text-anchor="start" x="184" y="-39.4" font-family="Helvetica,sans-Serif" font-size="12.00" fill="#000000">j:DriverLicensePermitRestriction: j:DriverLicensePermitRestrictionType [0&#45;n]</text>
</a>
</g>
<g id="a_node1_3"><a xlink:href="../../j/DriverLicensePermitEndorsement/#diagram" xlink:title="An endorsement on a driver license which authorizes the operation of specified types of vehicles carrying specified loads." target="_top">
<text text-anchor="start" x="184" y="-24.4" font-family="Helvetica,sans-Serif" font-size="12.00" fill="#000000">j:DriverLicensePermitEndorsement: j:DriverLicensePermitEndorsementType [0&#45;n]</text>
</a>
</g>
<g id="a_node1_4"><a xlink:href="../../j/DriverLicensePermitAugmentationPoint/#diagram" xlink:title="An augmentation point for DriverLicensePermitType." target="_top">
<polygon fill="#ebebeb" stroke="transparent" points="183,-5 183,-20 617,-20 617,-5 183,-5"/>
<text text-anchor="start" x="184" y="-9.4" font-family="Helvetica,sans-Serif" font-size="12.00" fill="#000000">j:DriverLicensePermitAugmentationPoint [0&#45;n]</text>
</a>
</g>
<polygon fill="#ff0000" stroke="#ff0000" points="178,-80 178,-80 622,-80 622,-80 178,-80"/>
<polygon fill="none" stroke="#ff0000" stroke-width="5" points="180.5,-2.5 180.5,-97.5 619.5,-97.5 619.5,-2.5 180.5,-2.5"/>
</g>
<!-- subst_d9e27646 -->
<g id="node2" class="node">
<title>subst_d9e27646</title>
<g id="a_node2_5"><a xlink:href="../../j/DriverLicensePermitStatusAbstract/#diagram" xlink:title="&lt;TABLE&gt;" target="_top">
<text text-anchor="start" x="661.5" y="-55.4" font-family="Helvetica,sans-Serif" font-weight="bold" font-size="12.00" fill="#000000">Substitution group j:DriverLicensePermitStatusAbstract</text>
</a>
</g>
<g id="a_node2_6"><a xlink:href="../../j/CrashDriverLicensePermitStatusCode/#diagram" xlink:title="A current status of an individuals driver license at the time of the crash." target="_top">
<polygon fill="#ebebeb" stroke="transparent" points="660.5,-35 660.5,-50 1117.5,-50 1117.5,-35 660.5,-35"/>
<text text-anchor="start" x="661.5" y="-39.4" font-family="Helvetica,sans-Serif" font-size="12.00" fill="#000000">j:CrashDriverLicensePermitStatusCode: mmucc:DriverLicensePermitStatusCodeType</text>
</a>
</g>
<g id="a_node2_7"><a xlink:href="../../j/DriverLicensePermitStatusCode/#diagram" xlink:title="A current status of an individuals driver license permit." target="_top">
<text text-anchor="start" x="661.5" y="-24.4" font-family="Helvetica,sans-Serif" font-size="12.00" fill="#000000">j:DriverLicensePermitStatusCode: aamva_d20:DrivingStatusCodeType</text>
</a>
</g>
<g id="a_node2_8"><a xlink:href="../../j/DriverLicensePermitStatusText/#diagram" xlink:title="A current status of an individuals driver license permit." target="_top">
<polygon fill="#ebebeb" stroke="transparent" points="660.5,-5 660.5,-20 1117.5,-20 1117.5,-5 660.5,-5"/>
<text text-anchor="start" x="661.5" y="-9.4" font-family="Helvetica,sans-Serif" font-size="12.00" fill="#000000">j:DriverLicensePermitStatusText: nc:TextType</text>
</a>
</g>
<polygon fill="#000000" stroke="#000000" points="659.5,-50 659.5,-50 1118.5,-50 1118.5,-50 659.5,-50"/>
<polygon fill="none" stroke="#000000" points="659,-4 659,-66 1118,-66 1118,-4 659,-4"/>
</g>
<!-- j:DriverLicensePermitType&#45;&gt;subst_d9e27646 -->
<g id="edge1" class="edge">
<title>j:DriverLicensePermitType:e&#45;&gt;subst_d9e27646:w</title>
<path fill="none" stroke="#000000" d="M627.2295,-58C638.8951,-58 645.0938,-58 660.5,-58"/>
<polygon fill="#000000" stroke="#000000" points="627,-54.5001 617,-58 627,-61.5001 627,-54.5001"/>
</g>
<!-- Properties -->
<g id="node3" class="node">
<title>Properties</title>
<text text-anchor="start" x="2.5" y="-85.4" font-family="Helvetica,sans-Serif" font-weight="bold" font-size="12.00" fill="#000000">Properties</text>
<g id="a_node3_9"><a xlink:href="../../j/DriverLicensePermit/#diagram" xlink:title="A driver license permit issued to a driver granting conditional or limited driving privileges." target="_top">
<polygon fill="#ebebeb" stroke="transparent" points="1.5,-65 1.5,-80 118.5,-80 118.5,-65 1.5,-65"/>
<text text-anchor="start" x="2.5" y="-69.4" font-family="Helvetica,sans-Serif" font-size="12.00" fill="#000000">j:DriverLicensePermit</text>
</a>
</g>
<polygon fill="#000000" stroke="#000000" points=".5,-80 .5,-80 119.5,-80 119.5,-80 .5,-80"/>
<polygon fill="none" stroke="#000000" points="0,-64 0,-96 119,-96 119,-64 0,-64"/>
</g>
<!-- Properties&#45;&gt;j:DriverLicensePermitType -->
<g id="edge2" class="edge">
<title>Properties:top&#45;&gt;j:DriverLicensePermitType:top</title>
<path fill="none" stroke="#000000" d="M118.5,-88C143.4714,-88 152.1284,-88 172.8937,-88"/>
<polygon fill="#000000" stroke="#000000" points="173,-91.5001 183,-88 173,-84.5001 173,-91.5001"/>
<text text-anchor="middle" x="148.5" y="-91.4" font-family="Helvetica,sans-Serif" font-size="12.00" fill="#000000">type</text>
</g>
<!-- j:DriverLicenseBaseType -->
<g id="node4" class="node">
<title>j:DriverLicenseBaseType</title>
<g id="a_node4_10"><a xlink:href="../../j/DriverLicenseBaseType/#diagram" xlink:title="A data type for an authorization issued to a driver granting driving privileges." target="_top">
<text text-anchor="start" x="333" y="-140.4" font-family="Helvetica,sans-Serif" font-size="12.00" fill="#000000">j:DriverLicenseBaseType</text>
</a>
</g>
<polygon fill="none" stroke="#000000" points="331,-135.5 331,-152.5 469,-152.5 469,-135.5 331,-135.5"/>
</g>
<!-- j:DriverLicenseBaseType&#45;&gt;j:DriverLicensePermitType -->
<g id="edge3" class="edge">
<title>j:DriverLicenseBaseType&#45;&gt;j:DriverLicensePermitType</title>
<path fill="none" stroke="#000000" d="M400,-135.375C400,-129.1263 400,-120.0624 400,-110.15"/>
<polygon fill="#000000" stroke="#000000" points="403.5001,-110.0274 400,-100.0274 396.5001,-110.0275 403.5001,-110.0274"/>
<text text-anchor="middle" x="390.5" y="-114.65" font-family="Helvetica,sans-Serif" font-size="12.00" fill="#000000">extension</text>
</g>
<!-- structures:ObjectType -->
<g id="node5" class="node">
<title>structures:ObjectType</title>
<g id="a_node5_11"><a xlink:href="../../structures/ObjectType/#diagram" xlink:title="A data type for a thing with its own lifespan that has some existence." target="_top">
<text text-anchor="start" x="341" y="-193.4" font-family="Helvetica,sans-Serif" font-size="12.00" fill="#000000">structures:ObjectType</text>
</a>
</g>
<polygon fill="none" stroke="#000000" points="339,-188.5 339,-205.5 461,-205.5 461,-188.5 339,-188.5"/>
</g>
<!-- structures:ObjectType&#45;&gt;j:DriverLicenseBaseType -->
<g id="edge4" class="edge">
<title>structures:ObjectType&#45;&gt;j:DriverLicenseBaseType</title>
<path fill="none" stroke="#000000" d="M400,-188.411C400,-181.5124 400,-171.5696 400,-162.84"/>
<polygon fill="#000000" stroke="#000000" points="403.5001,-162.7518 400,-152.7519 396.5001,-162.7519 403.5001,-162.7518"/>
<text text-anchor="middle" x="390.5" y="-167.4" font-family="Helvetica,sans-Serif" font-size="12.00" fill="#000000">extension</text>
</g>
</g>
</svg>
