<?xml version="1.0" encoding="UTF-8" standalone="no"?>
<!DOCTYPE svg PUBLIC "-//W3C//DTD SVG 1.1//EN"
 "http://www.w3.org/Graphics/SVG/1.1/DTD/svg11.dtd">
<!-- Generated by graphviz version 2.40.1 (20161225.0304)
 -->
<!-- Title: graphic Pages: 1 -->
<svg width="598pt" height="101pt"
 viewBox="0.00 0.00 598.00 101.00" xmlns="http://www.w3.org/2000/svg" xmlns:xlink="http://www.w3.org/1999/xlink">
<g id="graph0" class="graph" transform="scale(1 1) rotate(0) translate(4 97)">
<title>graphic</title>
<polygon fill="#ffffff" stroke="transparent" points="-4,4 -4,-97 594,-97 594,4 -4,4"/>
<!-- it:GoodsManufacturedRegionOriginAbstract -->
<g id="node1" class="node">
<title>it:GoodsManufacturedRegionOriginAbstract</title>
<text text-anchor="start" x="256.5" y="-77.4" font-family="Helvetica,sans-Serif" font-weight="bold" font-size="12.00" fill="#000000">it:GoodsManufacturedRegionOriginAbstract</text>
<polygon fill="none" stroke="#ff0000" stroke-width="5" points="252.5,-70 252.5,-90 512.5,-90 512.5,-70 252.5,-70"/>
</g>
<!-- SubstitutableElements -->
<g id="node3" class="node">
<title>SubstitutableElements</title>
<text text-anchor="start" x="177.5" y="-21.4" font-family="Helvetica,sans-Serif" font-weight="bold" font-size="12.00" fill="#000000">Substitutable elements</text>
<g id="a_node3_0"><a xlink:href="../../it/GoodsManufacturedRegionOriginCode/#diagram" xlink:title="A region in which the goods have been produced or manufactured, according to criteria laid down for the purposes of application of the Customs tariff, or quantitative restrictions, or of any other measure related to trade." target="_top">
<polygon fill="#ebebeb" stroke="transparent" points="176.5,-1 176.5,-16 589.5,-16 589.5,-1 176.5,-1"/>
<text text-anchor="start" x="177.5" y="-5.4" font-family="Helvetica,sans-Serif" font-size="12.00" fill="#000000">it:GoodsManufacturedRegionOriginCode: iso_3166:CountryAlpha2CodeType</text>
</a>
</g>
<polygon fill="#000000" stroke="#000000" points="175.5,-16 175.5,-16 590.5,-16 590.5,-16 175.5,-16"/>
<polygon fill="none" stroke="#000000" points="175,0 175,-32 590,-32 590,0 175,0"/>
</g>
<!-- it:GoodsManufacturedRegionOriginAbstract&#45;&gt;SubstitutableElements -->
<g id="edge2" class="edge">
<title>it:GoodsManufacturedRegionOriginAbstract&#45;&gt;SubstitutableElements</title>
<path fill="none" stroke="#000000" d="M382.5,-57.3063C382.5,-48.9972 382.5,-39.7712 382.5,-32.1499"/>
<polygon fill="#000000" stroke="#000000" points="379.0001,-57.4892 382.5,-67.4892 386.0001,-57.4892 379.0001,-57.4892"/>
<text text-anchor="middle" x="373" y="-46.65" font-family="Helvetica,sans-Serif" font-size="12.00" fill="#000000">substitutable for</text>
</g>
<!-- Types -->
<g id="node2" class="node">
<title>Types</title>
<text text-anchor="start" x="2" y="-77.4" font-family="Helvetica,sans-Serif" font-weight="bold" font-size="12.00" fill="#000000">Types</text>
<g id="a_node2_1"><a xlink:href="../../it/GoodsOriginType/#diagram" xlink:title="A data type to identify the place of origin for the goods manufactured or produced." target="_top">
<polygon fill="#ebebeb" stroke="transparent" points="1,-57 1,-72 107,-72 107,-57 1,-57"/>
<text text-anchor="start" x="2" y="-61.4" font-family="Helvetica,sans-Serif" font-size="12.00" fill="#000000">it:GoodsOriginType</text>
</a>
</g>
<polygon fill="#000000" stroke="#000000" points="0,-72 0,-72 108,-72 108,-72 0,-72"/>
<polygon fill="none" stroke="#000000" points="0,-56 0,-88 108,-88 108,-56 0,-56"/>
</g>
<!-- Types&#45;&gt;it:GoodsManufacturedRegionOriginAbstract -->
<g id="edge1" class="edge">
<title>Types:top&#45;&gt;it:GoodsManufacturedRegionOriginAbstract</title>
<path fill="none" stroke="#000000" d="M107,-80C150.0623,-80 196.9107,-80 239.556,-80"/>
<polygon fill="#000000" stroke="#000000" points="239.7274,-83.5001 249.7273,-80 239.7273,-76.5001 239.7274,-83.5001"/>
<text text-anchor="middle" x="141.5" y="-83.4" font-family="Helvetica,sans-Serif" font-size="12.00" fill="#000000">has&#45;a</text>
</g>
</g>
</svg>
