<?xml version="1.0" encoding="UTF-8" standalone="no"?>
<!DOCTYPE svg PUBLIC "-//W3C//DTD SVG 1.1//EN"
 "http://www.w3.org/Graphics/SVG/1.1/DTD/svg11.dtd">
<!-- Generated by graphviz version 2.40.1 (20161225.0304)
 -->
<!-- Title: graphic Pages: 1 -->
<svg width="441pt" height="45pt"
 viewBox="0.00 0.00 441.00 45.00" xmlns="http://www.w3.org/2000/svg" xmlns:xlink="http://www.w3.org/1999/xlink">
<g id="graph0" class="graph" transform="scale(1 1) rotate(0) translate(4 41)">
<title>graphic</title>
<polygon fill="#ffffff" stroke="transparent" points="-4,4 -4,-41 437,-41 437,4 -4,4"/>
<!-- it:PackageCategoryText -->
<g id="node1" class="node">
<title>it:PackageCategoryText</title>
<text text-anchor="start" x="160.5" y="-21.4" font-family="Helvetica,sans-Serif" font-weight="bold" font-size="12.00" fill="#000000">it:PackageCategoryText</text>
<polygon fill="none" stroke="#ff0000" stroke-width="5" points="156.5,-14 156.5,-34 300.5,-34 300.5,-14 156.5,-14"/>
</g>
<!-- nc:TextType -->
<g id="node3" class="node">
<title>nc:TextType</title>
<g id="a_node3_0"><a xlink:href="../../nc/TextType/#diagram" xlink:title="A data type for a character string." target="_top">
<text text-anchor="start" x="364.5" y="-20.4" font-family="Helvetica,sans-Serif" font-size="12.00" fill="#000000">nc:TextType</text>
</a>
</g>
<polygon fill="none" stroke="#000000" points="362,-15.5 362,-32.5 433,-32.5 433,-15.5 362,-15.5"/>
</g>
<!-- it:PackageCategoryText&#45;&gt;nc:TextType -->
<g id="edge2" class="edge">
<title>it:PackageCategoryText&#45;&gt;nc:TextType</title>
<path fill="none" stroke="#000000" d="M303.1178,-24C319.6419,-24 336.6771,-24 351.6491,-24"/>
<polygon fill="#000000" stroke="#000000" points="351.653,-27.5001 361.653,-24 351.653,-20.5001 351.653,-27.5001"/>
<text text-anchor="middle" x="332.5" y="-27.4" font-family="Helvetica,sans-Serif" font-size="12.00" fill="#000000">type</text>
</g>
<!-- Types -->
<g id="node2" class="node">
<title>Types</title>
<text text-anchor="start" x="2.5" y="-21.4" font-family="Helvetica,sans-Serif" font-weight="bold" font-size="12.00" fill="#000000">Types</text>
<g id="a_node2_1"><a xlink:href="../../it/PackageType/#diagram" xlink:title="A data type for an item packaged for containment, preservation, promotion, and/or protection of an article." target="_top">
<polygon fill="#ebebeb" stroke="transparent" points="1.5,-1 1.5,-16 86.5,-16 86.5,-1 1.5,-1"/>
<text text-anchor="start" x="2.5" y="-5.4" font-family="Helvetica,sans-Serif" font-size="12.00" fill="#000000">it:PackageType</text>
</a>
</g>
<polygon fill="#000000" stroke="#000000" points=".5,-16 .5,-16 87.5,-16 87.5,-16 .5,-16"/>
<polygon fill="none" stroke="#000000" points="0,0 0,-32 87,-32 87,0 0,0"/>
</g>
<!-- Types&#45;&gt;it:PackageCategoryText -->
<g id="edge1" class="edge">
<title>Types:top&#45;&gt;it:PackageCategoryText</title>
<path fill="none" stroke="#000000" d="M86.5,-24C104.9939,-24 124.8427,-24 143.6642,-24"/>
<polygon fill="#000000" stroke="#000000" points="143.6988,-27.5001 153.6988,-24 143.6988,-20.5001 143.6988,-27.5001"/>
<text text-anchor="middle" x="120.5" y="-27.4" font-family="Helvetica,sans-Serif" font-size="12.00" fill="#000000">has&#45;a</text>
</g>
</g>
</svg>
