<?xml version="1.0" encoding="UTF-8" standalone="no"?>
<!DOCTYPE svg PUBLIC "-//W3C//DTD SVG 1.1//EN"
 "http://www.w3.org/Graphics/SVG/1.1/DTD/svg11.dtd">
<!-- Generated by graphviz version 2.40.1 (20161225.0304)
 -->
<!-- Title: graphic Pages: 1 -->
<svg width="738pt" height="45pt"
 viewBox="0.00 0.00 738.00 45.00" xmlns="http://www.w3.org/2000/svg" xmlns:xlink="http://www.w3.org/1999/xlink">
<g id="graph0" class="graph" transform="scale(1 1) rotate(0) translate(4 41)">
<title>graphic</title>
<polygon fill="#ffffff" stroke="transparent" points="-4,4 -4,-41 734,-41 734,4 -4,4"/>
<!-- em:ProhibitiveDeploymentConditionDescriptionText -->
<g id="node1" class="node">
<title>em:ProhibitiveDeploymentConditionDescriptionText</title>
<text text-anchor="start" x="295.5" y="-21.4" font-family="Helvetica,sans-Serif" font-weight="bold" font-size="12.00" fill="#000000">em:ProhibitiveDeploymentConditionDescriptionText</text>
<polygon fill="none" stroke="#ff0000" stroke-width="5" points="291.5,-14 291.5,-34 597.5,-34 597.5,-14 291.5,-14"/>
</g>
<!-- nc:TextType -->
<g id="node3" class="node">
<title>nc:TextType</title>
<g id="a_node3_0"><a xlink:href="../../nc/TextType/#diagram" xlink:title="A data type for a character string." target="_top">
<text text-anchor="start" x="661.5" y="-20.4" font-family="Helvetica,sans-Serif" font-size="12.00" fill="#000000">nc:TextType</text>
</a>
</g>
<polygon fill="none" stroke="#000000" points="659,-15.5 659,-32.5 730,-32.5 730,-15.5 659,-15.5"/>
</g>
<!-- em:ProhibitiveDeploymentConditionDescriptionText&#45;&gt;nc:TextType -->
<g id="edge2" class="edge">
<title>em:ProhibitiveDeploymentConditionDescriptionText&#45;&gt;nc:TextType</title>
<path fill="none" stroke="#000000" d="M600.342,-24C617.6977,-24 634.2073,-24 648.4154,-24"/>
<polygon fill="#000000" stroke="#000000" points="648.8077,-27.5001 658.8077,-24 648.8077,-20.5001 648.8077,-27.5001"/>
<text text-anchor="middle" x="629.5" y="-27.4" font-family="Helvetica,sans-Serif" font-size="12.00" fill="#000000">type</text>
</g>
<!-- Types -->
<g id="node2" class="node">
<title>Types</title>
<text text-anchor="start" x="2" y="-21.4" font-family="Helvetica,sans-Serif" font-weight="bold" font-size="12.00" fill="#000000">Types</text>
<g id="a_node2_1"><a xlink:href="../../em/ProhibitiveDeploymentConditionType/#diagram" xlink:title="A data type for the condition a person is prohibited from being deployed to" target="_top">
<polygon fill="#ebebeb" stroke="transparent" points="1,-1 1,-16 221,-16 221,-1 1,-1"/>
<text text-anchor="start" x="2" y="-5.4" font-family="Helvetica,sans-Serif" font-size="12.00" fill="#000000">em:ProhibitiveDeploymentConditionType</text>
</a>
</g>
<polygon fill="#000000" stroke="#000000" points="0,-16 0,-16 222,-16 222,-16 0,-16"/>
<polygon fill="none" stroke="#000000" points="0,0 0,-32 222,-32 222,0 0,0"/>
</g>
<!-- Types&#45;&gt;em:ProhibitiveDeploymentConditionDescriptionText -->
<g id="edge1" class="edge">
<title>Types:top&#45;&gt;em:ProhibitiveDeploymentConditionDescriptionText</title>
<path fill="none" stroke="#000000" d="M221,-24C239.669,-24 259.2151,-24 278.6492,-24"/>
<polygon fill="#000000" stroke="#000000" points="278.7966,-27.5001 288.7966,-24 278.7966,-20.5001 278.7966,-27.5001"/>
<text text-anchor="middle" x="255.5" y="-27.4" font-family="Helvetica,sans-Serif" font-size="12.00" fill="#000000">has&#45;a</text>
</g>
</g>
</svg>
