<?xml version="1.0" encoding="UTF-8" standalone="no"?>
<!DOCTYPE svg PUBLIC "-//W3C//DTD SVG 1.1//EN"
 "http://www.w3.org/Graphics/SVG/1.1/DTD/svg11.dtd">
<!-- Generated by graphviz version 2.40.1 (20161225.0304)
 -->
<!-- Title: graphic Pages: 1 -->
<svg width="433pt" height="45pt"
 viewBox="0.00 0.00 433.00 45.00" xmlns="http://www.w3.org/2000/svg" xmlns:xlink="http://www.w3.org/1999/xlink">
<g id="graph0" class="graph" transform="scale(1 1) rotate(0) translate(4 41)">
<title>graphic</title>
<polygon fill="#ffffff" stroke="transparent" points="-4,4 -4,-41 429,-41 429,4 -4,4"/>
<!-- j:ConvictionOffense -->
<g id="node1" class="node">
<title>j:ConvictionOffense</title>
<text text-anchor="start" x="166.5" y="-21.4" font-family="Helvetica,sans-Serif" font-weight="bold" font-size="12.00" fill="#000000">j:ConvictionOffense</text>
<polygon fill="none" stroke="#ff0000" stroke-width="5" points="162.5,-14 162.5,-34 284.5,-34 284.5,-14 162.5,-14"/>
</g>
<!-- j:OffenseType -->
<g id="node3" class="node">
<title>j:OffenseType</title>
<g id="a_node3_0"><a xlink:href="../../j/OffenseType/#diagram" xlink:title="A data type for an alleged violation of a statute, ordinance, or rule." target="_top">
<text text-anchor="start" x="348.5" y="-20.4" font-family="Helvetica,sans-Serif" font-size="12.00" fill="#000000">j:OffenseType</text>
</a>
</g>
<polygon fill="none" stroke="#000000" points="346,-15.5 346,-32.5 425,-32.5 425,-15.5 346,-15.5"/>
</g>
<!-- j:ConvictionOffense&#45;&gt;j:OffenseType -->
<g id="edge2" class="edge">
<title>j:ConvictionOffense&#45;&gt;j:OffenseType</title>
<path fill="none" stroke="#000000" d="M287.0617,-24C303.1948,-24 320.2967,-24 335.6401,-24"/>
<polygon fill="#000000" stroke="#000000" points="335.9481,-27.5001 345.9481,-24 335.948,-20.5001 335.9481,-27.5001"/>
<text text-anchor="middle" x="316.5" y="-27.4" font-family="Helvetica,sans-Serif" font-size="12.00" fill="#000000">type</text>
</g>
<!-- Types -->
<g id="node2" class="node">
<title>Types</title>
<text text-anchor="start" x="2.5" y="-21.4" font-family="Helvetica,sans-Serif" font-weight="bold" font-size="12.00" fill="#000000">Types</text>
<g id="a_node2_1"><a xlink:href="../../j/ConvictionType/#diagram" xlink:title="A data type for a judgment that a defendant is guilty." target="_top">
<polygon fill="#ebebeb" stroke="transparent" points="1.5,-1 1.5,-16 92.5,-16 92.5,-1 1.5,-1"/>
<text text-anchor="start" x="2.5" y="-5.4" font-family="Helvetica,sans-Serif" font-size="12.00" fill="#000000">j:ConvictionType</text>
</a>
</g>
<polygon fill="#000000" stroke="#000000" points=".5,-16 .5,-16 93.5,-16 93.5,-16 .5,-16"/>
<polygon fill="none" stroke="#000000" points="0,0 0,-32 93,-32 93,0 0,0"/>
</g>
<!-- Types&#45;&gt;j:ConvictionOffense -->
<g id="edge1" class="edge">
<title>Types:top&#45;&gt;j:ConvictionOffense</title>
<path fill="none" stroke="#000000" d="M92.5,-24C111.0178,-24 131.0081,-24 149.6609,-24"/>
<polygon fill="#000000" stroke="#000000" points="149.8681,-27.5001 159.8681,-24 149.8681,-20.5001 149.8681,-27.5001"/>
<text text-anchor="middle" x="126.5" y="-27.4" font-family="Helvetica,sans-Serif" font-size="12.00" fill="#000000">has&#45;a</text>
</g>
</g>
</svg>
