<?xml version="1.0" encoding="UTF-8" standalone="no"?>
<!DOCTYPE svg PUBLIC "-//W3C//DTD SVG 1.1//EN"
 "http://www.w3.org/Graphics/SVG/1.1/DTD/svg11.dtd">
<!-- Generated by graphviz version 2.40.1 (20161225.0304)
 -->
<!-- Title: graphic Pages: 1 -->
<svg width="366pt" height="45pt"
 viewBox="0.00 0.00 366.00 45.00" xmlns="http://www.w3.org/2000/svg" xmlns:xlink="http://www.w3.org/1999/xlink">
<g id="graph0" class="graph" transform="scale(1 1) rotate(0) translate(4 41)">
<title>graphic</title>
<polygon fill="#ffffff" stroke="transparent" points="-4,4 -4,-41 362,-41 362,4 -4,4"/>
<!-- nc:DecalID -->
<g id="node1" class="node">
<title>nc:DecalID</title>
<text text-anchor="start" x="151.5" y="-21.4" font-family="Helvetica,sans-Serif" font-weight="bold" font-size="12.00" fill="#000000">nc:DecalID</text>
<polygon fill="none" stroke="#ff0000" stroke-width="5" points="147.5,-14 147.5,-34 217.5,-34 217.5,-14 147.5,-14"/>
</g>
<!-- niem&#45;xs:string -->
<g id="node3" class="node">
<title>niem&#45;xs:string</title>
<g id="a_node3_0"><a xlink:href="../../niem-xs/string/#diagram" xlink:title="A data type for character strings in XML." target="_top">
<text text-anchor="start" x="281.5" y="-20.4" font-family="Helvetica,sans-Serif" font-size="12.00" fill="#000000">niem&#45;xs:string</text>
</a>
</g>
<polygon fill="none" stroke="#000000" points="279,-15.5 279,-32.5 358,-32.5 358,-15.5 279,-15.5"/>
</g>
<!-- nc:DecalID&#45;&gt;niem&#45;xs:string -->
<g id="edge2" class="edge">
<title>nc:DecalID&#45;&gt;niem&#45;xs:string</title>
<path fill="none" stroke="#000000" d="M220.0226,-24C234.9856,-24 252.431,-24 268.4461,-24"/>
<polygon fill="#000000" stroke="#000000" points="268.7232,-27.5001 278.7232,-24 268.7232,-20.5001 268.7232,-27.5001"/>
<text text-anchor="middle" x="249.5" y="-27.4" font-family="Helvetica,sans-Serif" font-size="12.00" fill="#000000">type</text>
</g>
<!-- Types -->
<g id="node2" class="node">
<title>Types</title>
<text text-anchor="start" x="2" y="-21.4" font-family="Helvetica,sans-Serif" font-weight="bold" font-size="12.00" fill="#000000">Types</text>
<g id="a_node2_1"><a xlink:href="../../nc/DecalType/#diagram" xlink:title="A data type for a sticker." target="_top">
<polygon fill="#ebebeb" stroke="transparent" points="1,-1 1,-16 77,-16 77,-1 1,-1"/>
<text text-anchor="start" x="2" y="-5.4" font-family="Helvetica,sans-Serif" font-size="12.00" fill="#000000">nc:DecalType</text>
</a>
</g>
<polygon fill="#000000" stroke="#000000" points="0,-16 0,-16 78,-16 78,-16 0,-16"/>
<polygon fill="none" stroke="#000000" points="0,0 0,-32 78,-32 78,0 0,0"/>
</g>
<!-- Types&#45;&gt;nc:DecalID -->
<g id="edge1" class="edge">
<title>Types:top&#45;&gt;nc:DecalID</title>
<path fill="none" stroke="#000000" d="M77,-24C95.9205,-24 116.7498,-24 134.8665,-24"/>
<polygon fill="#000000" stroke="#000000" points="134.9031,-27.5001 144.9031,-24 134.903,-20.5001 134.9031,-27.5001"/>
<text text-anchor="middle" x="111.5" y="-27.4" font-family="Helvetica,sans-Serif" font-size="12.00" fill="#000000">has&#45;a</text>
</g>
</g>
</svg>
