<?xml version="1.0" encoding="UTF-8" standalone="no"?>
<!DOCTYPE svg PUBLIC "-//W3C//DTD SVG 1.1//EN"
 "http://www.w3.org/Graphics/SVG/1.1/DTD/svg11.dtd">
<!-- Generated by graphviz version 2.40.1 (20161225.0304)
 -->
<!-- Title: graphic Pages: 1 -->
<svg width="565pt" height="117pt"
 viewBox="0.00 0.00 565.00 116.50" xmlns="http://www.w3.org/2000/svg" xmlns:xlink="http://www.w3.org/1999/xlink">
<g id="graph0" class="graph" transform="scale(1 1) rotate(0) translate(4 112.5)">
<title>graphic</title>
<polygon fill="#ffffff" stroke="transparent" points="-4,4 -4,-112.5 561,-112.5 561,4 -4,4"/>
<!-- cbrn:ImagePerspectiveAbstract -->
<g id="node1" class="node">
<title>cbrn:ImagePerspectiveAbstract</title>
<text text-anchor="start" x="292.5" y="-92.9" font-family="Helvetica,sans-Serif" font-weight="bold" font-size="12.00" fill="#000000">cbrn:ImagePerspectiveAbstract</text>
<polygon fill="none" stroke="#ff0000" stroke-width="5" points="288.5,-85.5 288.5,-105.5 476.5,-105.5 476.5,-85.5 288.5,-85.5"/>
</g>
<!-- SubstitutableElements -->
<g id="node3" class="node">
<title>SubstitutableElements</title>
<text text-anchor="start" x="210.5" y="-35.9" font-family="Helvetica,sans-Serif" font-weight="bold" font-size="12.00" fill="#000000">Substitutable elements</text>
<g id="a_node3_0"><a xlink:href="../../cbrn/ImagePerspectiveCode/#diagram" xlink:title="A code for the viewing perspective of the subject of an image captured as a digital data file." target="_top">
<polygon fill="#ebebeb" stroke="transparent" points="209.5,-15.5 209.5,-30.5 556.5,-30.5 556.5,-15.5 209.5,-15.5"/>
<text text-anchor="start" x="210.5" y="-19.9" font-family="Helvetica,sans-Serif" font-size="12.00" fill="#000000">cbrn:ImagePerspectiveCode: cbrncl:ImagePerspectiveCodeType</text>
</a>
</g>
<g id="a_node3_1"><a xlink:href="../../cbrn/ImagePerspectiveText/#diagram" xlink:title="A description of the viewing perspective of the subject of an image captured as a digital data file." target="_top">
<text text-anchor="start" x="210.5" y="-4.9" font-family="Helvetica,sans-Serif" font-size="12.00" fill="#000000">cbrn:ImagePerspectiveText: niem&#45;xs:string</text>
</a>
</g>
<polygon fill="#000000" stroke="#000000" points="208.5,-30.5 208.5,-30.5 557.5,-30.5 557.5,-30.5 208.5,-30.5"/>
<polygon fill="none" stroke="#000000" points="208,0 208,-47 557,-47 557,0 208,0"/>
</g>
<!-- cbrn:ImagePerspectiveAbstract&#45;&gt;SubstitutableElements -->
<g id="edge2" class="edge">
<title>cbrn:ImagePerspectiveAbstract&#45;&gt;SubstitutableElements</title>
<path fill="none" stroke="#000000" d="M382.5,-72.9771C382.5,-64.7398 382.5,-55.4022 382.5,-47.0755"/>
<polygon fill="#000000" stroke="#000000" points="379.0001,-72.9945 382.5,-82.9945 386.0001,-72.9946 379.0001,-72.9945"/>
<text text-anchor="middle" x="373" y="-61.9" font-family="Helvetica,sans-Serif" font-size="12.00" fill="#000000">substitutable for</text>
</g>
<!-- Types -->
<g id="node2" class="node">
<title>Types</title>
<text text-anchor="start" x="2.5" y="-92.9" font-family="Helvetica,sans-Serif" font-weight="bold" font-size="12.00" fill="#000000">Types</text>
<g id="a_node2_2"><a xlink:href="../../cbrn/ImageFileType/#diagram" xlink:title="A data type to capture the Image file Type" target="_top">
<polygon fill="#ebebeb" stroke="transparent" points="1.5,-72.5 1.5,-87.5 140.5,-87.5 140.5,-72.5 1.5,-72.5"/>
<text text-anchor="start" x="2.5" y="-76.9" font-family="Helvetica,sans-Serif" font-size="12.00" fill="#000000">cbrn:ImageFileType</text>
</a>
</g>
<g id="a_node2_3"><a xlink:href="../../cbrn/MultimediaDataType/#diagram" xlink:title="A data type to provide data about a multimedia file, and optionally inclusion of the file content within the instant xml document." target="_top">
<text text-anchor="start" x="2.5" y="-61.9" font-family="Helvetica,sans-Serif" font-size="12.00" fill="#000000">cbrn:MultimediaDataType</text>
</a>
</g>
<polygon fill="#000000" stroke="#000000" points=".5,-87.5 .5,-87.5 141.5,-87.5 141.5,-87.5 .5,-87.5"/>
<polygon fill="none" stroke="#000000" points="0,-57 0,-104 141,-104 141,-57 0,-57"/>
</g>
<!-- Types&#45;&gt;cbrn:ImagePerspectiveAbstract -->
<g id="edge1" class="edge">
<title>Types:top&#45;&gt;cbrn:ImagePerspectiveAbstract</title>
<path fill="none" stroke="#000000" d="M140.5,-95.5C184.8411,-95.5 233.7522,-95.5 275.929,-95.5"/>
<polygon fill="#000000" stroke="#000000" points="275.9371,-99.0001 285.9371,-95.5 275.9371,-92.0001 275.9371,-99.0001"/>
<text text-anchor="middle" x="174.5" y="-98.9" font-family="Helvetica,sans-Serif" font-size="12.00" fill="#000000">has&#45;a</text>
</g>
</g>
</svg>
