<?xml version="1.0" encoding="UTF-8" standalone="no"?>
<!DOCTYPE svg PUBLIC "-//W3C//DTD SVG 1.1//EN"
 "http://www.w3.org/Graphics/SVG/1.1/DTD/svg11.dtd">
<!-- Generated by graphviz version 2.40.1 (20161225.0304)
 -->
<!-- Title: graphic Pages: 1 -->
<svg width="473pt" height="45pt"
 viewBox="0.00 0.00 473.00 45.00" xmlns="http://www.w3.org/2000/svg" xmlns:xlink="http://www.w3.org/1999/xlink">
<g id="graph0" class="graph" transform="scale(1 1) rotate(0) translate(4 41)">
<title>graphic</title>
<polygon fill="#ffffff" stroke="transparent" points="-4,4 -4,-41 469,-41 469,4 -4,4"/>
<!-- hs:Finding -->
<g id="node1" class="node">
<title>hs:Finding</title>
<text text-anchor="start" x="251" y="-21.4" font-family="Helvetica,sans-Serif" font-weight="bold" font-size="12.00" fill="#000000">hs:Finding</text>
<polygon fill="none" stroke="#ff0000" stroke-width="5" points="247.5,-14 247.5,-34 316.5,-34 316.5,-14 247.5,-14"/>
</g>
<!-- hs:FindingType -->
<g id="node3" class="node">
<title>hs:FindingType</title>
<g id="a_node3_0"><a xlink:href="../../hs/FindingType/#diagram" xlink:title="A data type for the details of the authoritative decision of the court." target="_top">
<text text-anchor="start" x="380.5" y="-20.4" font-family="Helvetica,sans-Serif" font-size="12.00" fill="#000000">hs:FindingType</text>
</a>
</g>
<polygon fill="none" stroke="#000000" points="378,-15.5 378,-32.5 465,-32.5 465,-15.5 378,-15.5"/>
</g>
<!-- hs:Finding&#45;&gt;hs:FindingType -->
<g id="edge2" class="edge">
<title>hs:Finding&#45;&gt;hs:FindingType</title>
<path fill="none" stroke="#000000" d="M319.0172,-24C333.8491,-24 351.2348,-24 367.4309,-24"/>
<polygon fill="#000000" stroke="#000000" points="367.8636,-27.5001 377.8635,-24 367.8635,-20.5001 367.8636,-27.5001"/>
<text text-anchor="middle" x="348.5" y="-27.4" font-family="Helvetica,sans-Serif" font-size="12.00" fill="#000000">type</text>
</g>
<!-- Types -->
<g id="node2" class="node">
<title>Types</title>
<text text-anchor="start" x="2" y="-21.4" font-family="Helvetica,sans-Serif" font-weight="bold" font-size="12.00" fill="#000000">Types</text>
<g id="a_node2_1"><a xlink:href="../../hs/EntityFindingAssociationType/#diagram" xlink:title="A data type for an association between a finding and a person or organization." target="_top">
<polygon fill="#ebebeb" stroke="transparent" points="1,-1 1,-16 177,-16 177,-1 1,-1"/>
<text text-anchor="start" x="2" y="-5.4" font-family="Helvetica,sans-Serif" font-size="12.00" fill="#000000">hs:EntityFindingAssociationType</text>
</a>
</g>
<polygon fill="#000000" stroke="#000000" points="0,-16 0,-16 178,-16 178,-16 0,-16"/>
<polygon fill="none" stroke="#000000" points="0,0 0,-32 178,-32 178,0 0,0"/>
</g>
<!-- Types&#45;&gt;hs:Finding -->
<g id="edge1" class="edge">
<title>Types:top&#45;&gt;hs:Finding</title>
<path fill="none" stroke="#000000" d="M177,-24C195.7433,-24 216.3686,-24 234.3405,-24"/>
<polygon fill="#000000" stroke="#000000" points="234.5813,-27.5001 244.5812,-24 234.5812,-20.5001 234.5813,-27.5001"/>
<text text-anchor="middle" x="211.5" y="-27.4" font-family="Helvetica,sans-Serif" font-size="12.00" fill="#000000">has&#45;a</text>
</g>
</g>
</svg>
