<?xml version="1.0" encoding="UTF-8" standalone="no"?>
<!DOCTYPE svg PUBLIC "-//W3C//DTD SVG 1.1//EN"
 "http://www.w3.org/Graphics/SVG/1.1/DTD/svg11.dtd">
<!-- Generated by graphviz version 2.40.1 (20161225.0304)
 -->
<!-- Title: graphic Pages: 1 -->
<svg width="529pt" height="45pt"
 viewBox="0.00 0.00 529.00 45.00" xmlns="http://www.w3.org/2000/svg" xmlns:xlink="http://www.w3.org/1999/xlink">
<g id="graph0" class="graph" transform="scale(1 1) rotate(0) translate(4 41)">
<title>graphic</title>
<polygon fill="#ffffff" stroke="transparent" points="-4,4 -4,-41 525,-41 525,4 -4,4"/>
<!-- nc:OrganizationIncorporationDate -->
<g id="node1" class="node">
<title>nc:OrganizationIncorporationDate</title>
<text text-anchor="start" x="188.5" y="-21.4" font-family="Helvetica,sans-Serif" font-weight="bold" font-size="12.00" fill="#000000">nc:OrganizationIncorporationDate</text>
<polygon fill="none" stroke="#ff0000" stroke-width="5" points="184.5,-14 184.5,-34 386.5,-34 386.5,-14 184.5,-14"/>
</g>
<!-- nc:DateType -->
<g id="node3" class="node">
<title>nc:DateType</title>
<g id="a_node3_0"><a xlink:href="../../nc/DateType/#diagram" xlink:title="A data type for a calendar date." target="_top">
<text text-anchor="start" x="450.5" y="-20.4" font-family="Helvetica,sans-Serif" font-size="12.00" fill="#000000">nc:DateType</text>
</a>
</g>
<polygon fill="none" stroke="#000000" points="448,-15.5 448,-32.5 521,-32.5 521,-15.5 448,-15.5"/>
</g>
<!-- nc:OrganizationIncorporationDate&#45;&gt;nc:DateType -->
<g id="edge2" class="edge">
<title>nc:OrganizationIncorporationDate&#45;&gt;nc:DateType</title>
<path fill="none" stroke="#000000" d="M389.08,-24C406.1029,-24 422.9663,-24 437.6726,-24"/>
<polygon fill="#000000" stroke="#000000" points="437.9714,-27.5001 447.9714,-24 437.9713,-20.5001 437.9714,-27.5001"/>
<text text-anchor="middle" x="418.5" y="-27.4" font-family="Helvetica,sans-Serif" font-size="12.00" fill="#000000">type</text>
</g>
<!-- Types -->
<g id="node2" class="node">
<title>Types</title>
<text text-anchor="start" x="2.5" y="-21.4" font-family="Helvetica,sans-Serif" font-weight="bold" font-size="12.00" fill="#000000">Types</text>
<g id="a_node2_1"><a xlink:href="../../nc/OrganizationType/#diagram" xlink:title="A data type for a body of people organized for a particular purpose." target="_top">
<polygon fill="#ebebeb" stroke="transparent" points="1.5,-1 1.5,-16 114.5,-16 114.5,-1 1.5,-1"/>
<text text-anchor="start" x="2.5" y="-5.4" font-family="Helvetica,sans-Serif" font-size="12.00" fill="#000000">nc:OrganizationType</text>
</a>
</g>
<polygon fill="#000000" stroke="#000000" points=".5,-16 .5,-16 115.5,-16 115.5,-16 .5,-16"/>
<polygon fill="none" stroke="#000000" points="0,0 0,-32 115,-32 115,0 0,0"/>
</g>
<!-- Types&#45;&gt;nc:OrganizationIncorporationDate -->
<g id="edge1" class="edge">
<title>Types:top&#45;&gt;nc:OrganizationIncorporationDate</title>
<path fill="none" stroke="#000000" d="M114.5,-24C132.9961,-24 152.6176,-24 171.7212,-24"/>
<polygon fill="#000000" stroke="#000000" points="171.9616,-27.5001 181.9615,-24 171.9615,-20.5001 171.9616,-27.5001"/>
<text text-anchor="middle" x="148.5" y="-27.4" font-family="Helvetica,sans-Serif" font-size="12.00" fill="#000000">has&#45;a</text>
</g>
</g>
</svg>
