<?xml version="1.0" encoding="UTF-8" standalone="no"?>
<!DOCTYPE svg PUBLIC "-//W3C//DTD SVG 1.1//EN"
 "http://www.w3.org/Graphics/SVG/1.1/DTD/svg11.dtd">
<!-- Generated by graphviz version 2.40.1 (20161225.0304)
 -->
<!-- Title: graphic Pages: 1 -->
<svg width="584pt" height="45pt"
 viewBox="0.00 0.00 584.00 45.00" xmlns="http://www.w3.org/2000/svg" xmlns:xlink="http://www.w3.org/1999/xlink">
<g id="graph0" class="graph" transform="scale(1 1) rotate(0) translate(4 41)">
<title>graphic</title>
<polygon fill="#ffffff" stroke="transparent" points="-4,4 -4,-41 580,-41 580,4 -4,4"/>
<!-- scr:ActivityResultsClassificationAugmentationPoint -->
<g id="node1" class="node">
<title>scr:ActivityResultsClassificationAugmentationPoint</title>
<text text-anchor="start" x="272" y="-21.4" font-family="Helvetica,sans-Serif" font-weight="bold" font-size="12.00" fill="#000000">scr:ActivityResultsClassificationAugmentationPoint</text>
<polygon fill="none" stroke="#ff0000" stroke-width="5" points="268.5,-14 268.5,-34 573.5,-34 573.5,-14 268.5,-14"/>
</g>
<!-- Types -->
<g id="node2" class="node">
<title>Types</title>
<text text-anchor="start" x="2.5" y="-21.4" font-family="Helvetica,sans-Serif" font-weight="bold" font-size="12.00" fill="#000000">Types</text>
<g id="a_node2_0"><a xlink:href="../../scr/ActivityResultsClassificationType/#diagram" xlink:title="A data type describing a classification of Screening activity results." target="_top">
<polygon fill="#ebebeb" stroke="transparent" points="1.5,-1 1.5,-16 198.5,-16 198.5,-1 1.5,-1"/>
<text text-anchor="start" x="2.5" y="-5.4" font-family="Helvetica,sans-Serif" font-size="12.00" fill="#000000">scr:ActivityResultsClassificationType</text>
</a>
</g>
<polygon fill="#000000" stroke="#000000" points=".5,-16 .5,-16 199.5,-16 199.5,-16 .5,-16"/>
<polygon fill="none" stroke="#000000" points="0,0 0,-32 199,-32 199,0 0,0"/>
</g>
<!-- Types&#45;&gt;scr:ActivityResultsClassificationAugmentationPoint -->
<g id="edge1" class="edge">
<title>Types:top&#45;&gt;scr:ActivityResultsClassificationAugmentationPoint</title>
<path fill="none" stroke="#000000" d="M198.5,-24C217.0854,-24 236.5441,-24 255.8913,-24"/>
<polygon fill="#000000" stroke="#000000" points="255.9933,-27.5001 265.9933,-24 255.9932,-20.5001 255.9933,-27.5001"/>
<text text-anchor="middle" x="232.5" y="-27.4" font-family="Helvetica,sans-Serif" font-size="12.00" fill="#000000">has&#45;a</text>
</g>
</g>
</svg>
