<?xml version="1.0" encoding="UTF-8" standalone="no"?>
<!DOCTYPE svg PUBLIC "-//W3C//DTD SVG 1.1//EN"
 "http://www.w3.org/Graphics/SVG/1.1/DTD/svg11.dtd">
<!-- Generated by graphviz version 2.40.1 (20161225.0304)
 -->
<!-- Title: graphic Pages: 1 -->
<svg width="462pt" height="86pt"
 viewBox="0.00 0.00 462.00 86.00" xmlns="http://www.w3.org/2000/svg" xmlns:xlink="http://www.w3.org/1999/xlink">
<g id="graph0" class="graph" transform="scale(1 1) rotate(0) translate(4 82)">
<title>graphic</title>
<polygon fill="#ffffff" stroke="transparent" points="-4,4 -4,-82 458,-82 458,4 -4,4"/>
<!-- j:SubjectAssessmentMilitaryServiceConsiderationText -->
<g id="node1" class="node">
<title>j:SubjectAssessmentMilitaryServiceConsiderationText</title>
<text text-anchor="start" x="6" y="-9.9" font-family="Helvetica,sans-Serif" font-weight="bold" font-size="12.00" fill="#000000">j:SubjectAssessmentMilitaryServiceConsiderationText</text>
<polygon fill="none" stroke="#ff0000" stroke-width="5" points="2.5,-2.5 2.5,-22.5 321.5,-22.5 321.5,-2.5 2.5,-2.5"/>
</g>
<!-- nc:TextType -->
<g id="node3" class="node">
<title>nc:TextType</title>
<g id="a_node3_0"><a xlink:href="../../nc/TextType/#diagram" xlink:title="A data type for a character string." target="_top">
<text text-anchor="start" x="385.5" y="-8.9" font-family="Helvetica,sans-Serif" font-size="12.00" fill="#000000">nc:TextType</text>
</a>
</g>
<polygon fill="none" stroke="#000000" points="383,-4 383,-21 454,-21 454,-4 383,-4"/>
</g>
<!-- j:SubjectAssessmentMilitaryServiceConsiderationText&#45;&gt;nc:TextType -->
<g id="edge2" class="edge">
<title>j:SubjectAssessmentMilitaryServiceConsiderationText&#45;&gt;nc:TextType</title>
<path fill="none" stroke="#000000" d="M324.0816,-12.5C341.5657,-12.5 358.1462,-12.5 372.3922,-12.5"/>
<polygon fill="#000000" stroke="#000000" points="372.8074,-16.0001 382.8074,-12.5 372.8073,-9.0001 372.8074,-16.0001"/>
<text text-anchor="middle" x="353.5" y="-15.9" font-family="Helvetica,sans-Serif" font-size="12.00" fill="#000000">type</text>
</g>
<!-- SubstitutionGroup -->
<g id="node2" class="node">
<title>SubstitutionGroup</title>
<g id="a_node2_1"><a xlink:href="../../j/SubjectAssessmentMilitaryServiceConsiderationAbstract/#diagram" xlink:title="A data concept for a kind of values to indicate military considerations." target="_top">
<text text-anchor="start" x="8" y="-65.9" font-family="Helvetica,sans-Serif" font-size="12.00" fill="#000000">j:SubjectAssessmentMilitaryServiceConsiderationAbstract</text>
</a>
</g>
<polygon fill="none" stroke="#000000" points="6,-61 6,-78 318,-78 318,-61 6,-61"/>
</g>
<!-- SubstitutionGroup&#45;&gt;j:SubjectAssessmentMilitaryServiceConsiderationText -->
<g id="edge1" class="edge">
<title>SubstitutionGroup&#45;&gt;j:SubjectAssessmentMilitaryServiceConsiderationText</title>
<path fill="none" stroke="#000000" d="M162,-50.9163C162,-42.4809 162,-32.7214 162,-25.1501"/>
<polygon fill="#000000" stroke="#000000" points="158.5001,-50.9472 162,-60.9473 165.5001,-50.9473 158.5001,-50.9472"/>
<text text-anchor="middle" x="152.5" y="-39.9" font-family="Helvetica,sans-Serif" font-size="12.00" fill="#000000">substitution group</text>
</g>
</g>
</svg>
