<?xml version="1.0" encoding="UTF-8" standalone="no"?>
<!DOCTYPE svg PUBLIC "-//W3C//DTD SVG 1.1//EN"
 "http://www.w3.org/Graphics/SVG/1.1/DTD/svg11.dtd">
<!-- Generated by graphviz version 2.40.1 (20161225.0304)
 -->
<!-- Title: graphic Pages: 1 -->
<svg width="670pt" height="45pt"
 viewBox="0.00 0.00 670.00 45.00" xmlns="http://www.w3.org/2000/svg" xmlns:xlink="http://www.w3.org/1999/xlink">
<g id="graph0" class="graph" transform="scale(1 1) rotate(0) translate(4 41)">
<title>graphic</title>
<polygon fill="#ffffff" stroke="transparent" points="-4,4 -4,-41 666,-41 666,4 -4,4"/>
<!-- biom:ToothDataADAReferenceCodeListAugmentationPoint -->
<g id="node1" class="node">
<title>biom:ToothDataADAReferenceCodeListAugmentationPoint</title>
<text text-anchor="start" x="317.5" y="-21.4" font-family="Helvetica,sans-Serif" font-weight="bold" font-size="12.00" fill="#000000">biom:ToothDataADAReferenceCodeListAugmentationPoint</text>
<polygon fill="none" stroke="#ff0000" stroke-width="5" points="313.5,-14 313.5,-34 659.5,-34 659.5,-14 313.5,-14"/>
</g>
<!-- Types -->
<g id="node2" class="node">
<title>Types</title>
<text text-anchor="start" x="2" y="-21.4" font-family="Helvetica,sans-Serif" font-weight="bold" font-size="12.00" fill="#000000">Types</text>
<g id="a_node2_0"><a xlink:href="../../biom/ToothDataADAReferenceCodeListType/#diagram" xlink:title="A data type for a list of tooth data ADA reference valid codes from ANSI/ADA Standard No. 1058, Section 9" target="_top">
<polygon fill="#ebebeb" stroke="transparent" points="1,-1 1,-16 243,-16 243,-1 1,-1"/>
<text text-anchor="start" x="2" y="-5.4" font-family="Helvetica,sans-Serif" font-size="12.00" fill="#000000">biom:ToothDataADAReferenceCodeListType</text>
</a>
</g>
<polygon fill="#000000" stroke="#000000" points="0,-16 0,-16 244,-16 244,-16 0,-16"/>
<polygon fill="none" stroke="#000000" points="0,0 0,-32 244,-32 244,0 0,0"/>
</g>
<!-- Types&#45;&gt;biom:ToothDataADAReferenceCodeListAugmentationPoint -->
<g id="edge1" class="edge">
<title>Types:top&#45;&gt;biom:ToothDataADAReferenceCodeListAugmentationPoint</title>
<path fill="none" stroke="#000000" d="M243,-24C261.7196,-24 281.2487,-24 300.7471,-24"/>
<polygon fill="#000000" stroke="#000000" points="300.9364,-27.5001 310.9363,-24 300.9363,-20.5001 300.9364,-27.5001"/>
<text text-anchor="middle" x="277.5" y="-27.4" font-family="Helvetica,sans-Serif" font-size="12.00" fill="#000000">has&#45;a</text>
</g>
</g>
</svg>
