<?xml version="1.0" encoding="UTF-8" standalone="no"?>
<!DOCTYPE svg PUBLIC "-//W3C//DTD SVG 1.1//EN"
 "http://www.w3.org/Graphics/SVG/1.1/DTD/svg11.dtd">
<!-- Generated by graphviz version 2.40.1 (20161225.0304)
 -->
<!-- Title: graphic Pages: 1 -->
<svg width="402pt" height="86pt"
 viewBox="0.00 0.00 402.00 86.00" xmlns="http://www.w3.org/2000/svg" xmlns:xlink="http://www.w3.org/1999/xlink">
<g id="graph0" class="graph" transform="scale(1 1) rotate(0) translate(4 82)">
<title>graphic</title>
<polygon fill="#ffffff" stroke="transparent" points="-4,4 -4,-82 398,-82 398,4 -4,4"/>
<!-- scr:AddressAugmentation -->
<g id="node1" class="node">
<title>scr:AddressAugmentation</title>
<text text-anchor="start" x="8" y="-9.9" font-family="Helvetica,sans-Serif" font-weight="bold" font-size="12.00" fill="#000000">scr:AddressAugmentation</text>
<polygon fill="none" stroke="#ff0000" stroke-width="5" points="4,-2.5 4,-22.5 162,-22.5 162,-2.5 4,-2.5"/>
</g>
<!-- scr:AddressAugmentationType -->
<g id="node3" class="node">
<title>scr:AddressAugmentationType</title>
<g id="a_node3_0"><a xlink:href="../../scr/AddressAugmentationType/#diagram" xlink:title="A data type for additional information about an address." target="_top">
<text text-anchor="start" x="227.5" y="-8.9" font-family="Helvetica,sans-Serif" font-size="12.00" fill="#000000">scr:AddressAugmentationType</text>
</a>
</g>
<polygon fill="none" stroke="#000000" points="225,-4 225,-21 394,-21 394,-4 225,-4"/>
</g>
<!-- scr:AddressAugmentation&#45;&gt;scr:AddressAugmentationType -->
<g id="edge2" class="edge">
<title>scr:AddressAugmentation&#45;&gt;scr:AddressAugmentationType</title>
<path fill="none" stroke="#000000" d="M164.7717,-12.5C180.9319,-12.5 198.0209,-12.5 214.5735,-12.5"/>
<polygon fill="#000000" stroke="#000000" points="214.7974,-16.0001 224.7974,-12.5 214.7974,-9.0001 214.7974,-16.0001"/>
<text text-anchor="middle" x="195.5" y="-15.9" font-family="Helvetica,sans-Serif" font-size="12.00" fill="#000000">type</text>
</g>
<!-- SubstitutionGroup -->
<g id="node2" class="node">
<title>SubstitutionGroup</title>
<g id="a_node2_1"><a xlink:href="../../nc/AddressAugmentationPoint/#diagram" xlink:title="An augmentation point for AddressType." target="_top">
<text text-anchor="start" x="2" y="-65.9" font-family="Helvetica,sans-Serif" font-size="12.00" fill="#000000">nc:AddressAugmentationPoint</text>
</a>
</g>
<polygon fill="none" stroke="#000000" points="0,-61 0,-78 166,-78 166,-61 0,-61"/>
</g>
<!-- SubstitutionGroup&#45;&gt;scr:AddressAugmentation -->
<g id="edge1" class="edge">
<title>SubstitutionGroup&#45;&gt;scr:AddressAugmentation</title>
<path fill="none" stroke="#000000" d="M83,-50.9163C83,-42.4809 83,-32.7214 83,-25.1501"/>
<polygon fill="#000000" stroke="#000000" points="79.5001,-50.9472 83,-60.9473 86.5001,-50.9473 79.5001,-50.9472"/>
<text text-anchor="middle" x="73.5" y="-39.9" font-family="Helvetica,sans-Serif" font-size="12.00" fill="#000000">substitution group</text>
</g>
</g>
</svg>
