<?xml version="1.0" encoding="UTF-8" standalone="no"?>
<!DOCTYPE svg PUBLIC "-//W3C//DTD SVG 1.1//EN"
 "http://www.w3.org/Graphics/SVG/1.1/DTD/svg11.dtd">
<!-- Generated by graphviz version 2.40.1 (20161225.0304)
 -->
<!-- Title: graphic Pages: 1 -->
<svg width="1110pt" height="212pt"
 viewBox="0.00 0.00 1110.00 212.00" xmlns="http://www.w3.org/2000/svg" xmlns:xlink="http://www.w3.org/1999/xlink">
<g id="graph0" class="graph" transform="scale(1 1) rotate(0) translate(4 208)">
<title>graphic</title>
<polygon fill="#ffffff" stroke="transparent" points="-4,4 -4,-208 1106,-208 1106,4 -4,4"/>
<!-- j:ObligationOrganizationAssociationType -->
<g id="node1" class="node">
<title>j:ObligationOrganizationAssociationType</title>
<text text-anchor="start" x="259.5" y="-83.9" font-family="Helvetica,sans-Serif" font-weight="bold" font-size="12.00" fill="#000000">j:ObligationOrganizationAssociationType</text>
<g id="a_node1_0"><a xlink:href="../../nc/Obligation/#diagram" xlink:title="A thing that is owed to an entity." target="_top">
<polygon fill="#ebebeb" stroke="transparent" points="258.5,-63.5 258.5,-78.5 579.5,-78.5 579.5,-63.5 258.5,-63.5"/>
<text text-anchor="start" x="259.5" y="-67.9" font-family="Helvetica,sans-Serif" font-size="12.00" fill="#000000">nc:Obligation: nc:ObligationType [0&#45;n]</text>
</a>
</g>
<g id="a_node1_1"><a xlink:href="../../nc/Organization/#diagram" xlink:title="A unit which conducts some sort of business or operations." target="_top">
<text text-anchor="start" x="259.5" y="-52.9" font-family="Helvetica,sans-Serif" font-size="12.00" fill="#000000">nc:Organization: nc:OrganizationType [0&#45;n]</text>
</a>
</g>
<g id="a_node1_2"><a xlink:href="../../j/ObligationOrganizationAssociationAugmentationPoint/#diagram" xlink:title="An augmentation point for ObligationOrganizationAssociationType." target="_top">
<polygon fill="#ebebeb" stroke="transparent" points="258.5,-33.5 258.5,-48.5 579.5,-48.5 579.5,-33.5 258.5,-33.5"/>
<text text-anchor="start" x="259.5" y="-37.9" font-family="Helvetica,sans-Serif" font-size="12.00" fill="#000000">j:ObligationOrganizationAssociationAugmentationPoint [0&#45;n]</text>
</a>
</g>
<polygon fill="#ff0000" stroke="#ff0000" points="253.5,-78.5 253.5,-78.5 584.5,-78.5 584.5,-78.5 253.5,-78.5"/>
<polygon fill="none" stroke="#ff0000" stroke-width="5" points="255.5,-31 255.5,-96 581.5,-96 581.5,-31 255.5,-31"/>
</g>
<!-- subst_d11e17305 -->
<g id="node2" class="node">
<title>subst_d11e17305</title>
<g id="a_node2_3"><a xlink:href="../../nc/Obligation/#diagram" xlink:title="&lt;TABLE&gt;" target="_top">
<text text-anchor="start" x="705.5" y="-86.9" font-family="Helvetica,sans-Serif" font-weight="bold" font-size="12.00" fill="#000000">Substitution group nc:Obligation</text>
</a>
</g>
<g id="a_node2_4"><a xlink:href="../../hs/ChildSupportObligation/#diagram" xlink:title="An obligation to provide support for a child." target="_top">
<polygon fill="#ebebeb" stroke="transparent" points="704.5,-66.5 704.5,-81.5 1019.5,-81.5 1019.5,-66.5 704.5,-66.5"/>
<text text-anchor="start" x="705.5" y="-70.9" font-family="Helvetica,sans-Serif" font-size="12.00" fill="#000000">hs:ChildSupportObligation: hs:ChildSupportObligationType</text>
</a>
</g>
<polygon fill="#000000" stroke="#000000" points="703.5,-81.5 703.5,-81.5 1020.5,-81.5 1020.5,-81.5 703.5,-81.5"/>
<polygon fill="none" stroke="#000000" points="703,-65.5 703,-97.5 1020,-97.5 1020,-65.5 703,-65.5"/>
</g>
<!-- j:ObligationOrganizationAssociationType&#45;&gt;subst_d11e17305 -->
<g id="edge1" class="edge">
<title>j:ObligationOrganizationAssociationType:e&#45;&gt;subst_d11e17305:w</title>
<path fill="none" stroke="#000000" d="M589.5369,-71.7021C637.3909,-73.6797 651.8794,-89.5 704.5,-89.5"/>
<polygon fill="#000000" stroke="#000000" points="589.5685,-68.2022 579.5,-71.5 589.4275,-75.2008 589.5685,-68.2022"/>
</g>
<!-- subst_d11e17574 -->
<g id="node3" class="node">
<title>subst_d11e17574</title>
<g id="a_node3_5"><a xlink:href="../../nc/Organization/#diagram" xlink:title="&lt;TABLE&gt;" target="_top">
<text text-anchor="start" x="623.5" y="-35.9" font-family="Helvetica,sans-Serif" font-weight="bold" font-size="12.00" fill="#000000">Substitution group nc:Organization</text>
</a>
</g>
<g id="a_node3_6"><a xlink:href="../../hs/ChildSupportEnforcementOrganization/#diagram" xlink:title="An organization charged with enforcing child support." target="_top">
<polygon fill="#ebebeb" stroke="transparent" points="622.5,-15.5 622.5,-30.5 1101.5,-30.5 1101.5,-15.5 622.5,-15.5"/>
<text text-anchor="start" x="623.5" y="-19.9" font-family="Helvetica,sans-Serif" font-size="12.00" fill="#000000">hs:ChildSupportEnforcementOrganization: hs:ChildSupportEnforcementOrganizationType</text>
</a>
</g>
<g id="a_node3_7"><a xlink:href="../../hs/ChildWelfareOrganization/#diagram" xlink:title="An organization charged with protecting the welfare of children." target="_top">
<text text-anchor="start" x="623.5" y="-4.9" font-family="Helvetica,sans-Serif" font-size="12.00" fill="#000000">hs:ChildWelfareOrganization: nc:OrganizationType</text>
</a>
</g>
<polygon fill="#000000" stroke="#000000" points="621.5,-30.5 621.5,-30.5 1102.5,-30.5 1102.5,-30.5 621.5,-30.5"/>
<polygon fill="none" stroke="#000000" points="621,0 621,-47 1102,-47 1102,0 621,0"/>
</g>
<!-- j:ObligationOrganizationAssociationType&#45;&gt;subst_d11e17574 -->
<g id="edge2" class="edge">
<title>j:ObligationOrganizationAssociationType:e&#45;&gt;subst_d11e17574:w</title>
<path fill="none" stroke="#000000" d="M589.6847,-53.8078C601.5038,-49.5079 605.9633,-38.5 622.5,-38.5"/>
<polygon fill="#000000" stroke="#000000" points="588.7911,-50.4082 579.5,-55.5 589.9385,-57.3136 588.7911,-50.4082"/>
</g>
<!-- Properties -->
<g id="node4" class="node">
<title>Properties</title>
<text text-anchor="start" x="2" y="-83.9" font-family="Helvetica,sans-Serif" font-weight="bold" font-size="12.00" fill="#000000">Properties</text>
<g id="a_node4_8"><a xlink:href="../../j/ObligationOrganizationAssociation/#diagram" xlink:title="An association between an obligation and an organization." target="_top">
<polygon fill="#ebebeb" stroke="transparent" points="1,-63.5 1,-78.5 193,-78.5 193,-63.5 1,-63.5"/>
<text text-anchor="start" x="2" y="-67.9" font-family="Helvetica,sans-Serif" font-size="12.00" fill="#000000">j:ObligationOrganizationAssociation</text>
</a>
</g>
<polygon fill="#000000" stroke="#000000" points="0,-78.5 0,-78.5 194,-78.5 194,-78.5 0,-78.5"/>
<polygon fill="none" stroke="#000000" points="0,-62.5 0,-94.5 194,-94.5 194,-62.5 0,-62.5"/>
</g>
<!-- Properties&#45;&gt;j:ObligationOrganizationAssociationType -->
<g id="edge3" class="edge">
<title>Properties:top&#45;&gt;j:ObligationOrganizationAssociationType:top</title>
<path fill="none" stroke="#000000" d="M193,-86.5C218.3585,-86.5 227.1498,-86.5 248.2371,-86.5"/>
<polygon fill="#000000" stroke="#000000" points="248.5,-90.0001 258.5,-86.5 248.5,-83.0001 248.5,-90.0001"/>
<text text-anchor="middle" x="223.5" y="-89.9" font-family="Helvetica,sans-Serif" font-size="12.00" fill="#000000">type</text>
</g>
<!-- nc:AssociationType -->
<g id="node5" class="node">
<title>nc:AssociationType</title>
<g id="a_node5_9"><a xlink:href="../../nc/AssociationType/#diagram" xlink:title="A data type for an association, connection, relationship, or involvement somehow linking people, things, and/or activities together." target="_top">
<text text-anchor="start" x="366.5" y="-138.9" font-family="Helvetica,sans-Serif" font-size="12.00" fill="#000000">nc:AssociationType</text>
</a>
</g>
<polygon fill="none" stroke="#000000" points="364,-134 364,-151 473,-151 473,-134 364,-134"/>
</g>
<!-- nc:AssociationType&#45;&gt;j:ObligationOrganizationAssociationType -->
<g id="edge4" class="edge">
<title>nc:AssociationType&#45;&gt;j:ObligationOrganizationAssociationType</title>
<path fill="none" stroke="#000000" d="M418.5,-133.9117C418.5,-127.6025 418.5,-118.4911 418.5,-108.9049"/>
<polygon fill="#000000" stroke="#000000" points="422.0001,-108.8408 418.5,-98.8408 415.0001,-108.8409 422.0001,-108.8408"/>
<text text-anchor="middle" x="409" y="-113.15" font-family="Helvetica,sans-Serif" font-size="12.00" fill="#000000">extension</text>
</g>
<!-- structures:AssociationType -->
<g id="node6" class="node">
<title>structures:AssociationType</title>
<g id="a_node6_10"><a xlink:href="../../structures/AssociationType/#diagram" xlink:title="A data type for a relationship between two or more objects, including any properties of that relationship." target="_top">
<text text-anchor="start" x="346.5" y="-191.9" font-family="Helvetica,sans-Serif" font-size="12.00" fill="#000000">structures:AssociationType</text>
</a>
</g>
<polygon fill="none" stroke="#000000" points="344,-187 344,-204 493,-204 493,-187 344,-187"/>
</g>
<!-- structures:AssociationType&#45;&gt;nc:AssociationType -->
<g id="edge5" class="edge">
<title>structures:AssociationType&#45;&gt;nc:AssociationType</title>
<path fill="none" stroke="#000000" d="M418.5,-186.911C418.5,-180.0124 418.5,-170.0696 418.5,-161.34"/>
<polygon fill="#000000" stroke="#000000" points="422.0001,-161.2518 418.5,-151.2519 415.0001,-161.2519 422.0001,-161.2518"/>
<text text-anchor="middle" x="409" y="-165.9" font-family="Helvetica,sans-Serif" font-size="12.00" fill="#000000">extension</text>
</g>
</g>
</svg>
