<?xml version="1.0" encoding="UTF-8" standalone="no"?>
<!DOCTYPE svg PUBLIC "-//W3C//DTD SVG 1.1//EN"
 "http://www.w3.org/Graphics/SVG/1.1/DTD/svg11.dtd">
<!-- Generated by graphviz version 2.40.1 (20161225.0304)
 -->
<!-- Title: graphic Pages: 1 -->
<svg width="324pt" height="86pt"
 viewBox="0.00 0.00 324.00 86.00" xmlns="http://www.w3.org/2000/svg" xmlns:xlink="http://www.w3.org/1999/xlink">
<g id="graph0" class="graph" transform="scale(1 1) rotate(0) translate(4 82)">
<title>graphic</title>
<polygon fill="#ffffff" stroke="transparent" points="-4,4 -4,-82 320,-82 320,4 -4,4"/>
<!-- j:DriverConvictionOffenseText -->
<g id="node1" class="node">
<title>j:DriverConvictionOffenseText</title>
<text text-anchor="start" x="6" y="-9.9" font-family="Helvetica,sans-Serif" font-weight="bold" font-size="12.00" fill="#000000">j:DriverConvictionOffenseText</text>
<polygon fill="none" stroke="#ff0000" stroke-width="5" points="2.5,-2.5 2.5,-22.5 183.5,-22.5 183.5,-2.5 2.5,-2.5"/>
</g>
<!-- nc:TextType -->
<g id="node3" class="node">
<title>nc:TextType</title>
<g id="a_node3_0"><a xlink:href="../../nc/TextType/#diagram" xlink:title="A data type for a character string." target="_top">
<text text-anchor="start" x="247.5" y="-8.9" font-family="Helvetica,sans-Serif" font-size="12.00" fill="#000000">nc:TextType</text>
</a>
</g>
<polygon fill="none" stroke="#000000" points="245,-4 245,-21 316,-21 316,-4 245,-4"/>
</g>
<!-- j:DriverConvictionOffenseText&#45;&gt;nc:TextType -->
<g id="edge2" class="edge">
<title>j:DriverConvictionOffenseText&#45;&gt;nc:TextType</title>
<path fill="none" stroke="#000000" d="M186.2007,-12.5C203.0631,-12.5 219.9492,-12.5 234.6768,-12.5"/>
<polygon fill="#000000" stroke="#000000" points="234.9881,-16.0001 244.9881,-12.5 234.9881,-9.0001 234.9881,-16.0001"/>
<text text-anchor="middle" x="215.5" y="-15.9" font-family="Helvetica,sans-Serif" font-size="12.00" fill="#000000">type</text>
</g>
<!-- SubstitutionGroup -->
<g id="node2" class="node">
<title>SubstitutionGroup</title>
<g id="a_node2_1"><a xlink:href="../../j/DriverConvictionOffenseAbstract/#diagram" xlink:title="A data concept for a specific offense or charge for which the party has been found guilty." target="_top">
<text text-anchor="start" x="3" y="-65.9" font-family="Helvetica,sans-Serif" font-size="12.00" fill="#000000">j:DriverConvictionOffenseAbstract</text>
</a>
</g>
<polygon fill="none" stroke="#000000" points=".5,-61 .5,-78 185.5,-78 185.5,-61 .5,-61"/>
</g>
<!-- SubstitutionGroup&#45;&gt;j:DriverConvictionOffenseText -->
<g id="edge1" class="edge">
<title>SubstitutionGroup&#45;&gt;j:DriverConvictionOffenseText</title>
<path fill="none" stroke="#000000" d="M93,-50.9163C93,-42.4809 93,-32.7214 93,-25.1501"/>
<polygon fill="#000000" stroke="#000000" points="89.5001,-50.9472 93,-60.9473 96.5001,-50.9473 89.5001,-50.9472"/>
<text text-anchor="middle" x="83.5" y="-39.9" font-family="Helvetica,sans-Serif" font-size="12.00" fill="#000000">substitution group</text>
</g>
</g>
</svg>
