<?xml version="1.0" encoding="UTF-8" standalone="no"?>
<!DOCTYPE svg PUBLIC "-//W3C//DTD SVG 1.1//EN"
 "http://www.w3.org/Graphics/SVG/1.1/DTD/svg11.dtd">
<!-- Generated by graphviz version 2.40.1 (20161225.0304)
 -->
<!-- Title: graphic Pages: 1 -->
<svg width="700pt" height="45pt"
 viewBox="0.00 0.00 700.00 45.00" xmlns="http://www.w3.org/2000/svg" xmlns:xlink="http://www.w3.org/1999/xlink">
<g id="graph0" class="graph" transform="scale(1 1) rotate(0) translate(4 41)">
<title>graphic</title>
<polygon fill="#ffffff" stroke="transparent" points="-4,4 -4,-41 696,-41 696,4 -4,4"/>
<!-- nc:LocationContactInformationAssociationAugmentationPoint -->
<g id="node1" class="node">
<title>nc:LocationContactInformationAssociationAugmentationPoint</title>
<text text-anchor="start" x="328" y="-21.4" font-family="Helvetica,sans-Serif" font-weight="bold" font-size="12.00" fill="#000000">nc:LocationContactInformationAssociationAugmentationPoint</text>
<polygon fill="none" stroke="#ff0000" stroke-width="5" points="324.5,-14 324.5,-34 689.5,-34 689.5,-14 324.5,-14"/>
</g>
<!-- Types -->
<g id="node2" class="node">
<title>Types</title>
<text text-anchor="start" x="2.5" y="-21.4" font-family="Helvetica,sans-Serif" font-weight="bold" font-size="12.00" fill="#000000">Types</text>
<g id="a_node2_0"><a xlink:href="../../nc/LocationContactInformationAssociationType/#diagram" xlink:title="A data type for an association between a location and contact information." target="_top">
<polygon fill="#ebebeb" stroke="transparent" points="1.5,-1 1.5,-16 254.5,-16 254.5,-1 1.5,-1"/>
<text text-anchor="start" x="2.5" y="-5.4" font-family="Helvetica,sans-Serif" font-size="12.00" fill="#000000">nc:LocationContactInformationAssociationType</text>
</a>
</g>
<polygon fill="#000000" stroke="#000000" points=".5,-16 .5,-16 255.5,-16 255.5,-16 .5,-16"/>
<polygon fill="none" stroke="#000000" points="0,0 0,-32 255,-32 255,0 0,0"/>
</g>
<!-- Types&#45;&gt;nc:LocationContactInformationAssociationAugmentationPoint -->
<g id="edge1" class="edge">
<title>Types:top&#45;&gt;nc:LocationContactInformationAssociationAugmentationPoint</title>
<path fill="none" stroke="#000000" d="M254.5,-24C273.0716,-24 292.4115,-24 311.7568,-24"/>
<polygon fill="#000000" stroke="#000000" points="311.8697,-27.5001 321.8696,-24 311.8696,-20.5001 311.8697,-27.5001"/>
<text text-anchor="middle" x="288.5" y="-27.4" font-family="Helvetica,sans-Serif" font-size="12.00" fill="#000000">has&#45;a</text>
</g>
</g>
</svg>
