<?xml version="1.0" encoding="UTF-8" standalone="no"?>
<!DOCTYPE svg PUBLIC "-//W3C//DTD SVG 1.1//EN"
 "http://www.w3.org/Graphics/SVG/1.1/DTD/svg11.dtd">
<!-- Generated by graphviz version 2.40.1 (20161225.0304)
 -->
<!-- Title: graphic Pages: 1 -->
<svg width="535pt" height="229pt"
 viewBox="0.00 0.00 535.00 229.00" xmlns="http://www.w3.org/2000/svg" xmlns:xlink="http://www.w3.org/1999/xlink">
<g id="graph0" class="graph" transform="scale(1 1) rotate(0) translate(4 225)">
<title>graphic</title>
<polygon fill="#ffffff" stroke="transparent" points="-4,4 -4,-225 531,-225 531,4 -4,4"/>
<!-- im:ImmigrationDeportationType -->
<g id="node1" class="node">
<title>im:ImmigrationDeportationType</title>
<text text-anchor="start" x="216.5" y="-99.9" font-family="Helvetica,sans-Serif" font-weight="bold" font-size="12.00" fill="#000000">im:ImmigrationDeportationType</text>
<g id="a_node1_0"><a xlink:href="../../nc/Person/#diagram" xlink:title="A human being." target="_top">
<polygon fill="#ebebeb" stroke="transparent" points="215.5,-79.5 215.5,-94.5 522.5,-94.5 522.5,-79.5 215.5,-79.5"/>
<text text-anchor="start" x="216.5" y="-83.9" font-family="Helvetica,sans-Serif" font-size="12.00" fill="#000000">nc:Person: nc:PersonType [0&#45;1]</text>
</a>
</g>
<g id="a_node1_1"><a xlink:href="../../im/DeportationCompleteIndicator/#diagram" xlink:title="True if the deportation has been completed; false otherwise" target="_top">
<text text-anchor="start" x="216.5" y="-68.9" font-family="Helvetica,sans-Serif" font-size="12.00" fill="#000000">im:DeportationCompleteIndicator: niem&#45;xs:boolean [0&#45;1]</text>
</a>
</g>
<g id="a_node1_2"><a xlink:href="../../im/DeportationInProgressIndicator/#diagram" xlink:title="True if the deportation is in progress; false otherwise" target="_top">
<polygon fill="#ebebeb" stroke="transparent" points="215.5,-49.5 215.5,-64.5 522.5,-64.5 522.5,-49.5 215.5,-49.5"/>
<text text-anchor="start" x="216.5" y="-53.9" font-family="Helvetica,sans-Serif" font-size="12.00" fill="#000000">im:DeportationInProgressIndicator: niem&#45;xs:boolean [0&#45;1]</text>
</a>
</g>
<g id="a_node1_3"><a xlink:href="../../im/DepartProofText/#diagram" xlink:title="An evidence of removal of an alien from the country provided on the deportation document." target="_top">
<text text-anchor="start" x="216.5" y="-38.9" font-family="Helvetica,sans-Serif" font-size="12.00" fill="#000000">im:DepartProofText: nc:TextType [0&#45;1]</text>
</a>
</g>
<g id="a_node1_4"><a xlink:href="../../im/DepartProofDescriptionText/#diagram" xlink:title="A description of the evidence of removal of an alien from the country." target="_top">
<polygon fill="#ebebeb" stroke="transparent" points="215.5,-19.5 215.5,-34.5 522.5,-34.5 522.5,-19.5 215.5,-19.5"/>
<text text-anchor="start" x="216.5" y="-23.9" font-family="Helvetica,sans-Serif" font-size="12.00" fill="#000000">im:DepartProofDescriptionText: nc:TextType [0&#45;1]</text>
</a>
</g>
<g id="a_node1_5"><a xlink:href="../../im/ImmigrationDeportationAugmentationPoint/#diagram" xlink:title="An augmentation point for ImmigrationDeportationType." target="_top">
<text text-anchor="start" x="216.5" y="-8.9" font-family="Helvetica,sans-Serif" font-size="12.00" fill="#000000">im:ImmigrationDeportationAugmentationPoint [0&#45;n]</text>
</a>
</g>
<polygon fill="#ff0000" stroke="#ff0000" points="210.5,-94.5 210.5,-94.5 527.5,-94.5 527.5,-94.5 210.5,-94.5"/>
<polygon fill="none" stroke="#ff0000" stroke-width="5" points="212.5,-2.5 212.5,-112.5 524.5,-112.5 524.5,-2.5 212.5,-2.5"/>
</g>
<!-- Properties -->
<g id="node2" class="node">
<title>Properties</title>
<text text-anchor="start" x="2.5" y="-99.9" font-family="Helvetica,sans-Serif" font-weight="bold" font-size="12.00" fill="#000000">Properties</text>
<g id="a_node2_6"><a xlink:href="../../im/ImmigrationDeportation/#diagram" xlink:title="An involuntary DEPARTURE of a PERSON based on a judicial decision or inspectors discretion" target="_top">
<polygon fill="#ebebeb" stroke="transparent" points="1.5,-79.5 1.5,-94.5 150.5,-94.5 150.5,-79.5 1.5,-79.5"/>
<text text-anchor="start" x="2.5" y="-83.9" font-family="Helvetica,sans-Serif" font-size="12.00" fill="#000000">im:ImmigrationDeportation</text>
</a>
</g>
<g id="a_node2_7"><a xlink:href="../../scr/DeportationDepartProof/#diagram" xlink:title="A detail defining Evidence of removal of an alien from the United States." target="_top">
<text text-anchor="start" x="2.5" y="-68.9" font-family="Helvetica,sans-Serif" font-size="12.00" fill="#000000">scr:DeportationDepartProof</text>
</a>
</g>
<polygon fill="#000000" stroke="#000000" points=".5,-94.5 .5,-94.5 151.5,-94.5 151.5,-94.5 .5,-94.5"/>
<polygon fill="none" stroke="#000000" points="0,-64 0,-111 151,-111 151,-64 0,-64"/>
</g>
<!-- Properties&#45;&gt;im:ImmigrationDeportationType -->
<g id="edge1" class="edge">
<title>Properties:top&#45;&gt;im:ImmigrationDeportationType:top</title>
<path fill="none" stroke="#000000" d="M150.5,-102.5C175.6649,-102.5 184.3891,-102.5 205.3154,-102.5"/>
<polygon fill="#000000" stroke="#000000" points="205.5,-106.0001 215.5,-102.5 205.5,-99.0001 205.5,-106.0001"/>
<text text-anchor="middle" x="180.5" y="-105.9" font-family="Helvetica,sans-Serif" font-size="12.00" fill="#000000">type</text>
</g>
<!-- nc:ActivityType -->
<g id="node3" class="node">
<title>nc:ActivityType</title>
<g id="a_node3_8"><a xlink:href="../../nc/ActivityType/#diagram" xlink:title="A data type for a single or set of related actions, events, or process steps." target="_top">
<text text-anchor="start" x="328.5" y="-155.9" font-family="Helvetica,sans-Serif" font-size="12.00" fill="#000000">nc:ActivityType</text>
</a>
</g>
<polygon fill="none" stroke="#000000" points="326,-151 326,-168 411,-168 411,-151 326,-151"/>
</g>
<!-- nc:ActivityType&#45;&gt;im:ImmigrationDeportationType -->
<g id="edge2" class="edge">
<title>nc:ActivityType&#45;&gt;im:ImmigrationDeportationType</title>
<path fill="none" stroke="#000000" d="M368.5,-150.9079C368.5,-144.5936 368.5,-135.3582 368.5,-125.1194"/>
<polygon fill="#000000" stroke="#000000" points="372.0001,-125.058 368.5,-115.058 365.0001,-125.0581 372.0001,-125.058"/>
<text text-anchor="middle" x="359" y="-129.9" font-family="Helvetica,sans-Serif" font-size="12.00" fill="#000000">extension</text>
</g>
<!-- structures:ObjectType -->
<g id="node4" class="node">
<title>structures:ObjectType</title>
<g id="a_node4_9"><a xlink:href="../../structures/ObjectType/#diagram" xlink:title="A data type for a thing with its own lifespan that has some existence." target="_top">
<text text-anchor="start" x="309.5" y="-208.9" font-family="Helvetica,sans-Serif" font-size="12.00" fill="#000000">structures:ObjectType</text>
</a>
</g>
<polygon fill="none" stroke="#000000" points="307.5,-204 307.5,-221 429.5,-221 429.5,-204 307.5,-204"/>
</g>
<!-- structures:ObjectType&#45;&gt;nc:ActivityType -->
<g id="edge3" class="edge">
<title>structures:ObjectType&#45;&gt;nc:ActivityType</title>
<path fill="none" stroke="#000000" d="M368.5,-203.911C368.5,-197.0124 368.5,-187.0696 368.5,-178.34"/>
<polygon fill="#000000" stroke="#000000" points="372.0001,-178.2518 368.5,-168.2519 365.0001,-178.2519 372.0001,-178.2518"/>
<text text-anchor="middle" x="359" y="-182.9" font-family="Helvetica,sans-Serif" font-size="12.00" fill="#000000">extension</text>
</g>
</g>
</svg>
