<?xml version="1.0" encoding="UTF-8" standalone="no"?>
<!DOCTYPE svg PUBLIC "-//W3C//DTD SVG 1.1//EN"
 "http://www.w3.org/Graphics/SVG/1.1/DTD/svg11.dtd">
<!-- Generated by graphviz version 2.40.1 (20161225.0304)
 -->
<!-- Title: graphic Pages: 1 -->
<svg width="293pt" height="86pt"
 viewBox="0.00 0.00 293.00 86.00" xmlns="http://www.w3.org/2000/svg" xmlns:xlink="http://www.w3.org/1999/xlink">
<g id="graph0" class="graph" transform="scale(1 1) rotate(0) translate(4 82)">
<title>graphic</title>
<polygon fill="#ffffff" stroke="transparent" points="-4,4 -4,-82 289,-82 289,4 -4,4"/>
<!-- hs:SpeciesCode -->
<g id="node1" class="node">
<title>hs:SpeciesCode</title>
<text text-anchor="start" x="6.5" y="-9.9" font-family="Helvetica,sans-Serif" font-weight="bold" font-size="12.00" fill="#000000">hs:SpeciesCode</text>
<polygon fill="none" stroke="#ff0000" stroke-width="5" points="3,-2.5 3,-22.5 104,-22.5 104,-2.5 3,-2.5"/>
</g>
<!-- hs:SpeciesCodeType -->
<g id="node3" class="node">
<title>hs:SpeciesCodeType</title>
<g id="a_node3_0"><a xlink:href="../../hs/SpeciesCodeType/#diagram" xlink:title="A data type for a kind of species, to differentiate humans from other potential patients." target="_top">
<text text-anchor="start" x="168.5" y="-8.9" font-family="Helvetica,sans-Serif" font-size="12.00" fill="#000000">hs:SpeciesCodeType</text>
</a>
</g>
<polygon fill="none" stroke="#000000" points="166,-4 166,-21 285,-21 285,-4 166,-4"/>
</g>
<!-- hs:SpeciesCode&#45;&gt;hs:SpeciesCodeType -->
<g id="edge2" class="edge">
<title>hs:SpeciesCode&#45;&gt;hs:SpeciesCodeType</title>
<path fill="none" stroke="#000000" d="M106.5091,-12.5C122.04,-12.5 139.2628,-12.5 155.6709,-12.5"/>
<polygon fill="#000000" stroke="#000000" points="155.7595,-16.0001 165.7595,-12.5 155.7595,-9.0001 155.7595,-16.0001"/>
<text text-anchor="middle" x="136.5" y="-15.9" font-family="Helvetica,sans-Serif" font-size="12.00" fill="#000000">type</text>
</g>
<!-- SubstitutionGroup -->
<g id="node2" class="node">
<title>SubstitutionGroup</title>
<g id="a_node2_1"><a xlink:href="../../hs/SpeciesAbstract/#diagram" xlink:title="A data concept for a kind of species, to differentiate humans from other potential patients." target="_top">
<text text-anchor="start" x="2.5" y="-65.9" font-family="Helvetica,sans-Serif" font-size="12.00" fill="#000000">hs:SpeciesAbstract</text>
</a>
</g>
<polygon fill="none" stroke="#000000" points="0,-61 0,-78 107,-78 107,-61 0,-61"/>
</g>
<!-- SubstitutionGroup&#45;&gt;hs:SpeciesCode -->
<g id="edge1" class="edge">
<title>SubstitutionGroup&#45;&gt;hs:SpeciesCode</title>
<path fill="none" stroke="#000000" d="M53.5,-50.9163C53.5,-42.4809 53.5,-32.7214 53.5,-25.1501"/>
<polygon fill="#000000" stroke="#000000" points="50.0001,-50.9472 53.5,-60.9473 57.0001,-50.9473 50.0001,-50.9472"/>
<text text-anchor="middle" x="44" y="-39.9" font-family="Helvetica,sans-Serif" font-size="12.00" fill="#000000">substitution group</text>
</g>
</g>
</svg>
