<?xml version="1.0" encoding="UTF-8" standalone="no"?>
<!DOCTYPE svg PUBLIC "-//W3C//DTD SVG 1.1//EN"
 "http://www.w3.org/Graphics/SVG/1.1/DTD/svg11.dtd">
<!-- Generated by graphviz version 2.40.1 (20161225.0304)
 -->
<!-- Title: graphic Pages: 1 -->
<svg width="591pt" height="117pt"
 viewBox="0.00 0.00 591.00 116.50" xmlns="http://www.w3.org/2000/svg" xmlns:xlink="http://www.w3.org/1999/xlink">
<g id="graph0" class="graph" transform="scale(1 1) rotate(0) translate(4 112.5)">
<title>graphic</title>
<polygon fill="#ffffff" stroke="transparent" points="-4,4 -4,-112.5 587,-112.5 587,4 -4,4"/>
<!-- hs:PriorDetentionHoldingForCountyAbstract -->
<g id="node1" class="node">
<title>hs:PriorDetentionHoldingForCountyAbstract</title>
<text text-anchor="start" x="259" y="-92.9" font-family="Helvetica,sans-Serif" font-weight="bold" font-size="12.00" fill="#000000">hs:PriorDetentionHoldingForCountyAbstract</text>
<polygon fill="none" stroke="#ff0000" stroke-width="5" points="255.5,-85.5 255.5,-105.5 518.5,-105.5 518.5,-85.5 255.5,-85.5"/>
</g>
<!-- SubstitutableElements -->
<g id="node3" class="node">
<title>SubstitutableElements</title>
<text text-anchor="start" x="193" y="-35.9" font-family="Helvetica,sans-Serif" font-weight="bold" font-size="12.00" fill="#000000">Substitutable elements</text>
<g id="a_node3_0"><a xlink:href="../../hs/PriorDetentionHoldingForCountyCode/#diagram" xlink:title="A county for whom a person was held in a prior detention." target="_top">
<polygon fill="#ebebeb" stroke="transparent" points="192,-15.5 192,-30.5 582,-30.5 582,-15.5 192,-15.5"/>
<text text-anchor="start" x="193" y="-19.9" font-family="Helvetica,sans-Serif" font-size="12.00" fill="#000000">hs:PriorDetentionHoldingForCountyCode: fips:USCounty3DigitCodeType</text>
</a>
</g>
<g id="a_node3_1"><a xlink:href="../../hs/PriorDetentionHoldingForCountyText/#diagram" xlink:title="A county for whom a person was held in a prior detention." target="_top">
<text text-anchor="start" x="193" y="-4.9" font-family="Helvetica,sans-Serif" font-size="12.00" fill="#000000">hs:PriorDetentionHoldingForCountyText: nc:TextType</text>
</a>
</g>
<polygon fill="#000000" stroke="#000000" points="191,-30.5 191,-30.5 583,-30.5 583,-30.5 191,-30.5"/>
<polygon fill="none" stroke="#000000" points="191,0 191,-47 583,-47 583,0 191,0"/>
</g>
<!-- hs:PriorDetentionHoldingForCountyAbstract&#45;&gt;SubstitutableElements -->
<g id="edge2" class="edge">
<title>hs:PriorDetentionHoldingForCountyAbstract&#45;&gt;SubstitutableElements</title>
<path fill="none" stroke="#000000" d="M387,-72.9771C387,-64.7398 387,-55.4022 387,-47.0755"/>
<polygon fill="#000000" stroke="#000000" points="383.5001,-72.9945 387,-82.9945 390.5001,-72.9946 383.5001,-72.9945"/>
<text text-anchor="middle" x="377.5" y="-61.9" font-family="Helvetica,sans-Serif" font-size="12.00" fill="#000000">substitutable for</text>
</g>
<!-- Types -->
<g id="node2" class="node">
<title>Types</title>
<text text-anchor="start" x="2" y="-92.9" font-family="Helvetica,sans-Serif" font-weight="bold" font-size="12.00" fill="#000000">Types</text>
<g id="a_node2_2"><a xlink:href="../../hs/PriorDetentionType/#diagram" xlink:title="A data type for describing a prior detention." target="_top">
<polygon fill="#ebebeb" stroke="transparent" points="1,-72.5 1,-87.5 123,-87.5 123,-72.5 1,-72.5"/>
<text text-anchor="start" x="2" y="-76.9" font-family="Helvetica,sans-Serif" font-size="12.00" fill="#000000">hs:PriorDetentionType</text>
</a>
</g>
<polygon fill="#000000" stroke="#000000" points="0,-87.5 0,-87.5 124,-87.5 124,-87.5 0,-87.5"/>
<polygon fill="none" stroke="#000000" points="0,-71.5 0,-103.5 124,-103.5 124,-71.5 0,-71.5"/>
</g>
<!-- Types&#45;&gt;hs:PriorDetentionHoldingForCountyAbstract -->
<g id="edge1" class="edge">
<title>Types:top&#45;&gt;hs:PriorDetentionHoldingForCountyAbstract</title>
<path fill="none" stroke="#000000" d="M123,-95.5C161.7077,-95.5 203.6077,-95.5 242.3813,-95.5"/>
<polygon fill="#000000" stroke="#000000" points="242.6965,-99.0001 252.6965,-95.5 242.6964,-92.0001 242.6965,-99.0001"/>
<text text-anchor="middle" x="157.5" y="-98.9" font-family="Helvetica,sans-Serif" font-size="12.00" fill="#000000">has&#45;a</text>
</g>
</g>
</svg>
