<?xml version="1.0" encoding="UTF-8" standalone="no"?>
<!DOCTYPE svg PUBLIC "-//W3C//DTD SVG 1.1//EN"
 "http://www.w3.org/Graphics/SVG/1.1/DTD/svg11.dtd">
<!-- Generated by graphviz version 2.40.1 (20161225.0304)
 -->
<!-- Title: graphic Pages: 1 -->
<svg width="551pt" height="45pt"
 viewBox="0.00 0.00 551.00 45.00" xmlns="http://www.w3.org/2000/svg" xmlns:xlink="http://www.w3.org/1999/xlink">
<g id="graph0" class="graph" transform="scale(1 1) rotate(0) translate(4 41)">
<title>graphic</title>
<polygon fill="#ffffff" stroke="transparent" points="-4,4 -4,-41 547,-41 547,4 -4,4"/>
<!-- biom:MinutiaRidgeCount -->
<g id="node1" class="node">
<title>biom:MinutiaRidgeCount</title>
<text text-anchor="start" x="172.5" y="-21.4" font-family="Helvetica,sans-Serif" font-weight="bold" font-size="12.00" fill="#000000">biom:MinutiaRidgeCount</text>
<polygon fill="none" stroke="#ff0000" stroke-width="5" points="168.5,-14 168.5,-34 318.5,-34 318.5,-14 168.5,-14"/>
</g>
<!-- biom:MinutiaRidgeCountType -->
<g id="node3" class="node">
<title>biom:MinutiaRidgeCountType</title>
<g id="a_node3_0"><a xlink:href="../../biom/MinutiaRidgeCountType/#diagram" xlink:title="A data type for a minutia ridge count" target="_top">
<text text-anchor="start" x="382.5" y="-20.4" font-family="Helvetica,sans-Serif" font-size="12.00" fill="#000000">biom:MinutiaRidgeCountType</text>
</a>
</g>
<polygon fill="none" stroke="#000000" points="380,-15.5 380,-32.5 543,-32.5 543,-15.5 380,-15.5"/>
</g>
<!-- biom:MinutiaRidgeCount&#45;&gt;biom:MinutiaRidgeCountType -->
<g id="edge2" class="edge">
<title>biom:MinutiaRidgeCount&#45;&gt;biom:MinutiaRidgeCountType</title>
<path fill="none" stroke="#000000" d="M321.2797,-24C336.8272,-24 353.3002,-24 369.2802,-24"/>
<polygon fill="#000000" stroke="#000000" points="369.6956,-27.5001 379.6955,-24 369.6955,-20.5001 369.6956,-27.5001"/>
<text text-anchor="middle" x="350.5" y="-27.4" font-family="Helvetica,sans-Serif" font-size="12.00" fill="#000000">type</text>
</g>
<!-- Types -->
<g id="node2" class="node">
<title>Types</title>
<text text-anchor="start" x="2.5" y="-21.4" font-family="Helvetica,sans-Serif" font-weight="bold" font-size="12.00" fill="#000000">Types</text>
<g id="a_node2_1"><a xlink:href="../../biom/MinutiaType/#diagram" xlink:title="A data type definition for a single minutia." target="_top">
<polygon fill="#ebebeb" stroke="transparent" points="1.5,-1 1.5,-16 98.5,-16 98.5,-1 1.5,-1"/>
<text text-anchor="start" x="2.5" y="-5.4" font-family="Helvetica,sans-Serif" font-size="12.00" fill="#000000">biom:MinutiaType</text>
</a>
</g>
<polygon fill="#000000" stroke="#000000" points=".5,-16 .5,-16 99.5,-16 99.5,-16 .5,-16"/>
<polygon fill="none" stroke="#000000" points="0,0 0,-32 99,-32 99,0 0,0"/>
</g>
<!-- Types&#45;&gt;biom:MinutiaRidgeCount -->
<g id="edge1" class="edge">
<title>Types:top&#45;&gt;biom:MinutiaRidgeCount</title>
<path fill="none" stroke="#000000" d="M98.5,-24C117.0646,-24 136.9661,-24 155.8937,-24"/>
<polygon fill="#000000" stroke="#000000" points="155.9912,-27.5001 165.9912,-24 155.9911,-20.5001 155.9912,-27.5001"/>
<text text-anchor="middle" x="132.5" y="-27.4" font-family="Helvetica,sans-Serif" font-size="12.00" fill="#000000">has&#45;a</text>
</g>
</g>
</svg>
