<?xml version="1.0" encoding="UTF-8" standalone="no"?>
<!DOCTYPE svg PUBLIC "-//W3C//DTD SVG 1.1//EN"
 "http://www.w3.org/Graphics/SVG/1.1/DTD/svg11.dtd">
<!-- Generated by graphviz version 2.40.1 (20161225.0304)
 -->
<!-- Title: graphic Pages: 1 -->
<svg width="619pt" height="45pt"
 viewBox="0.00 0.00 619.00 45.00" xmlns="http://www.w3.org/2000/svg" xmlns:xlink="http://www.w3.org/1999/xlink">
<g id="graph0" class="graph" transform="scale(1 1) rotate(0) translate(4 41)">
<title>graphic</title>
<polygon fill="#ffffff" stroke="transparent" points="-4,4 -4,-41 615,-41 615,4 -4,4"/>
<!-- cbrn:MessagePriorityCode -->
<g id="node1" class="node">
<title>cbrn:MessagePriorityCode</title>
<text text-anchor="start" x="212.5" y="-21.4" font-family="Helvetica,sans-Serif" font-weight="bold" font-size="12.00" fill="#000000">cbrn:MessagePriorityCode</text>
<polygon fill="none" stroke="#ff0000" stroke-width="5" points="208.5,-14 208.5,-34 368.5,-34 368.5,-14 208.5,-14"/>
</g>
<!-- cbrncl:MessagePriorityCodeType -->
<g id="node3" class="node">
<title>cbrncl:MessagePriorityCodeType</title>
<g id="a_node3_0"><a xlink:href="../../cbrncl/MessagePriorityCodeType/#diagram" xlink:title="A data type that defines the priority associated with a message" target="_top">
<text text-anchor="start" x="432.5" y="-20.4" font-family="Helvetica,sans-Serif" font-size="12.00" fill="#000000">cbrncl:MessagePriorityCodeType</text>
</a>
</g>
<polygon fill="none" stroke="#000000" points="430,-15.5 430,-32.5 611,-32.5 611,-15.5 430,-15.5"/>
</g>
<!-- cbrn:MessagePriorityCode&#45;&gt;cbrncl:MessagePriorityCodeType -->
<g id="edge2" class="edge">
<title>cbrn:MessagePriorityCode&#45;&gt;cbrncl:MessagePriorityCodeType</title>
<path fill="none" stroke="#000000" d="M371.2748,-24C387.0084,-24 403.6327,-24 419.8496,-24"/>
<polygon fill="#000000" stroke="#000000" points="419.8826,-27.5001 429.8826,-24 419.8826,-20.5001 419.8826,-27.5001"/>
<text text-anchor="middle" x="400.5" y="-27.4" font-family="Helvetica,sans-Serif" font-size="12.00" fill="#000000">type</text>
</g>
<!-- Types -->
<g id="node2" class="node">
<title>Types</title>
<text text-anchor="start" x="2.5" y="-21.4" font-family="Helvetica,sans-Serif" font-weight="bold" font-size="12.00" fill="#000000">Types</text>
<g id="a_node2_1"><a xlink:href="../../cbrn/ContentHeaderType/#diagram" xlink:title="A data type for information about the contents of a message." target="_top">
<polygon fill="#ebebeb" stroke="transparent" points="1.5,-1 1.5,-16 138.5,-16 138.5,-1 1.5,-1"/>
<text text-anchor="start" x="2.5" y="-5.4" font-family="Helvetica,sans-Serif" font-size="12.00" fill="#000000">cbrn:ContentHeaderType</text>
</a>
</g>
<polygon fill="#000000" stroke="#000000" points=".5,-16 .5,-16 139.5,-16 139.5,-16 .5,-16"/>
<polygon fill="none" stroke="#000000" points="0,0 0,-32 139,-32 139,0 0,0"/>
</g>
<!-- Types&#45;&gt;cbrn:MessagePriorityCode -->
<g id="edge1" class="edge">
<title>Types:top&#45;&gt;cbrn:MessagePriorityCode</title>
<path fill="none" stroke="#000000" d="M138.5,-24C157.0425,-24 176.8743,-24 195.8438,-24"/>
<polygon fill="#000000" stroke="#000000" points="195.9755,-27.5001 205.9755,-24 195.9755,-20.5001 195.9755,-27.5001"/>
<text text-anchor="middle" x="172.5" y="-27.4" font-family="Helvetica,sans-Serif" font-size="12.00" fill="#000000">has&#45;a</text>
</g>
</g>
</svg>
