<?xml version="1.0" encoding="UTF-8" standalone="no"?>
<!DOCTYPE svg PUBLIC "-//W3C//DTD SVG 1.1//EN"
 "http://www.w3.org/Graphics/SVG/1.1/DTD/svg11.dtd">
<!-- Generated by graphviz version 2.40.1 (20161225.0304)
 -->
<!-- Title: graphic Pages: 1 -->
<svg width="436pt" height="101pt"
 viewBox="0.00 0.00 436.00 100.50" xmlns="http://www.w3.org/2000/svg" xmlns:xlink="http://www.w3.org/1999/xlink">
<g id="graph0" class="graph" transform="scale(1 1) rotate(0) translate(4 96.5)">
<title>graphic</title>
<polygon fill="#ffffff" stroke="transparent" points="-4,4 -4,-96.5 432,-96.5 432,4 -4,4"/>
<!-- it:WCODocumentFunctionCategoryAbstract -->
<g id="node1" class="node">
<title>it:WCODocumentFunctionCategoryAbstract</title>
<text text-anchor="start" x="89" y="-77.4" font-family="Helvetica,sans-Serif" font-weight="bold" font-size="12.00" fill="#000000">it:WCODocumentFunctionCategoryAbstract</text>
<polygon fill="none" stroke="#ff0000" stroke-width="5" points="85,-70 85,-90 343,-90 343,-70 85,-70"/>
</g>
<!-- SubstitutableElements -->
<g id="node2" class="node">
<title>SubstitutableElements</title>
<text text-anchor="start" x="2" y="-21.4" font-family="Helvetica,sans-Serif" font-weight="bold" font-size="12.00" fill="#000000">Substitutable elements</text>
<g id="a_node2_0"><a xlink:href="../../it/WCODocumentFunctionCategoryCode/#diagram" xlink:title="A code indicating the function of a document." target="_top">
<polygon fill="#ebebeb" stroke="transparent" points="1,-1 1,-16 427,-16 427,-1 1,-1"/>
<text text-anchor="start" x="2" y="-5.4" font-family="Helvetica,sans-Serif" font-size="12.00" fill="#000000">it:WCODocumentFunctionCategoryCode: itcodes:DocumentCategoryCodeType</text>
</a>
</g>
<polygon fill="#000000" stroke="#000000" points="0,-16 0,-16 428,-16 428,-16 0,-16"/>
<polygon fill="none" stroke="#000000" points="0,0 0,-32 428,-32 428,0 0,0"/>
</g>
<!-- it:WCODocumentFunctionCategoryAbstract&#45;&gt;SubstitutableElements -->
<g id="edge1" class="edge">
<title>it:WCODocumentFunctionCategoryAbstract&#45;&gt;SubstitutableElements</title>
<path fill="none" stroke="#000000" d="M214,-57.3063C214,-48.9972 214,-39.7712 214,-32.1499"/>
<polygon fill="#000000" stroke="#000000" points="210.5001,-57.4892 214,-67.4892 217.5001,-57.4892 210.5001,-57.4892"/>
<text text-anchor="middle" x="204.5" y="-46.65" font-family="Helvetica,sans-Serif" font-size="12.00" fill="#000000">substitutable for</text>
</g>
</g>
</svg>
