<?xml version="1.0" encoding="UTF-8" standalone="no"?>
<!DOCTYPE svg PUBLIC "-//W3C//DTD SVG 1.1//EN"
 "http://www.w3.org/Graphics/SVG/1.1/DTD/svg11.dtd">
<!-- Generated by graphviz version 2.40.1 (20161225.0304)
 -->
<!-- Title: graphic Pages: 1 -->
<svg width="462pt" height="164pt"
 viewBox="0.00 0.00 462.00 164.00" xmlns="http://www.w3.org/2000/svg" xmlns:xlink="http://www.w3.org/1999/xlink">
<g id="graph0" class="graph" transform="scale(1 1) rotate(0) translate(4 160)">
<title>graphic</title>
<polygon fill="#ffffff" stroke="transparent" points="-4,4 -4,-160 458,-160 458,4 -4,4"/>
<!-- biom:Integer0To9Type -->
<g id="node1" class="node">
<title>biom:Integer0To9Type</title>
<text text-anchor="start" x="242" y="-35.9" font-family="Helvetica,sans-Serif" font-weight="bold" font-size="12.00" fill="#000000">biom:Integer0To9Type</text>
<g id="a_node1_0"><a xlink:href="../../structures/SimpleObjectAttributeGroup/#diagram" xlink:title="A group of attributes that are applicable to objects, to be used when defining a complex type that is an extension of a simple type." target="_top">
<polygon fill="#ebebeb" stroke="transparent" points="241,-15.5 241,-30.5 449,-30.5 449,-15.5 241,-15.5"/>
<text text-anchor="start" x="242" y="-19.9" font-family="Helvetica,sans-Serif" font-size="12.00" fill="#000000">structures:SimpleObjectAttributeGroup</text>
</a>
</g>
<polygon fill="#ff0000" stroke="#ff0000" points="236,-30.5 236,-30.5 454,-30.5 454,-30.5 236,-30.5"/>
<polygon fill="none" stroke="#ff0000" stroke-width="5" points="238.5,-13 238.5,-48 451.5,-48 451.5,-13 238.5,-13"/>
</g>
<!-- Properties -->
<g id="node2" class="node">
<title>Properties</title>
<text text-anchor="start" x="2.5" y="-35.9" font-family="Helvetica,sans-Serif" font-weight="bold" font-size="12.00" fill="#000000">Properties</text>
<g id="a_node2_1"><a xlink:href="../../biom/IntelligibilityValue/#diagram" xlink:title="An indication for the comprehensibility of speech." target="_top">
<polygon fill="#ebebeb" stroke="transparent" points="1.5,-15.5 1.5,-30.5 176.5,-30.5 176.5,-15.5 1.5,-15.5"/>
<text text-anchor="start" x="2.5" y="-19.9" font-family="Helvetica,sans-Serif" font-size="12.00" fill="#000000">biom:IntelligibilityValue</text>
</a>
</g>
<g id="a_node2_2"><a xlink:href="../../biom/LanguageProficiencyValue/#diagram" xlink:title="An indication of the fluency with which a language is spoken." target="_top">
<text text-anchor="start" x="2.5" y="-4.9" font-family="Helvetica,sans-Serif" font-size="12.00" fill="#000000">biom:LanguageProficiencyValue</text>
</a>
</g>
<polygon fill="#000000" stroke="#000000" points=".5,-30.5 .5,-30.5 177.5,-30.5 177.5,-30.5 .5,-30.5"/>
<polygon fill="none" stroke="#000000" points="0,0 0,-47 177,-47 177,0 0,0"/>
</g>
<!-- Properties&#45;&gt;biom:Integer0To9Type -->
<g id="edge1" class="edge">
<title>Properties:top&#45;&gt;biom:Integer0To9Type:top</title>
<path fill="none" stroke="#000000" d="M176.5,-38.5C201.4714,-38.5 210.1284,-38.5 230.8937,-38.5"/>
<polygon fill="#000000" stroke="#000000" points="231,-42.0001 241,-38.5 231,-35.0001 231,-42.0001"/>
<text text-anchor="middle" x="206.5" y="-41.9" font-family="Helvetica,sans-Serif" font-size="12.00" fill="#000000">type</text>
</g>
<!-- biom:Integer0To9SimpleType -->
<g id="node3" class="node">
<title>biom:Integer0To9SimpleType</title>
<g id="a_node3_3"><a xlink:href="../../biom/Integer0To9SimpleType/#diagram" xlink:title="A data type for integer values from 0 to 9" target="_top">
<text text-anchor="start" x="266" y="-90.9" font-family="Helvetica,sans-Serif" font-size="12.00" fill="#000000">biom:Integer0To9SimpleType</text>
</a>
</g>
<polygon fill="none" stroke="#000000" points="264,-86 264,-103 426,-103 426,-86 264,-86"/>
</g>
<!-- biom:Integer0To9SimpleType&#45;&gt;biom:Integer0To9Type -->
<g id="edge2" class="edge">
<title>biom:Integer0To9SimpleType&#45;&gt;biom:Integer0To9Type</title>
<path fill="none" stroke="#000000" d="M345,-85.9351C345,-79.431 345,-70.0678 345,-60.8827"/>
<polygon fill="#000000" stroke="#000000" points="348.5001,-60.75 345,-50.75 341.5001,-60.75 348.5001,-60.75"/>
<text text-anchor="middle" x="335.5" y="-65.15" font-family="Helvetica,sans-Serif" font-size="12.00" fill="#000000">extension</text>
</g>
<!-- xs:nonNegativeInteger -->
<g id="node4" class="node">
<title>xs:nonNegativeInteger</title>
<g id="a_node4_4"><a xlink:href="../../xs/nonNegativeInteger/#diagram" xlink:title="&lt;TABLE&gt;" target="_top">
<text text-anchor="start" x="285" y="-143.9" font-family="Helvetica,sans-Serif" font-size="12.00" fill="#000000">xs:nonNegativeInteger</text>
</a>
</g>
<polygon fill="none" stroke="#000000" points="282.5,-139 282.5,-156 407.5,-156 407.5,-139 282.5,-139"/>
</g>
<!-- xs:nonNegativeInteger&#45;&gt;biom:Integer0To9SimpleType -->
<g id="edge3" class="edge">
<title>xs:nonNegativeInteger&#45;&gt;biom:Integer0To9SimpleType</title>
<path fill="none" stroke="#000000" d="M345,-138.911C345,-132.0124 345,-122.0696 345,-113.34"/>
<polygon fill="#000000" stroke="#000000" points="348.5001,-113.2518 345,-103.2519 341.5001,-113.2519 348.5001,-113.2518"/>
<text text-anchor="middle" x="335.5" y="-117.9" font-family="Helvetica,sans-Serif" font-size="12.00" fill="#000000">restriction</text>
</g>
</g>
</svg>
