<?xml version="1.0" encoding="UTF-8" standalone="no"?>
<!DOCTYPE svg PUBLIC "-//W3C//DTD SVG 1.1//EN"
 "http://www.w3.org/Graphics/SVG/1.1/DTD/svg11.dtd">
<!-- Generated by graphviz version 2.40.1 (20161225.0304)
 -->
<!-- Title: graphic Pages: 1 -->
<svg width="1051pt" height="357pt"
 viewBox="0.00 0.00 1051.00 356.50" xmlns="http://www.w3.org/2000/svg" xmlns:xlink="http://www.w3.org/1999/xlink">
<g id="graph0" class="graph" transform="scale(1 1) rotate(0) translate(4 352.5)">
<title>graphic</title>
<polygon fill="#ffffff" stroke="transparent" points="-4,4 -4,-352.5 1047,-352.5 1047,4 -4,4"/>
<!-- j:SubjectAssignmentType -->
<g id="node1" class="node">
<title>j:SubjectAssignmentType</title>
<text text-anchor="start" x="178.5" y="-175.4" font-family="Helvetica,sans-Serif" font-weight="bold" font-size="12.00" fill="#000000">j:SubjectAssignmentType</text>
<g id="a_node1_0"><a xlink:href="../../j/ProgramViolation/#diagram" xlink:title="A set of details describing activities and infractions of a subject in a program." target="_top">
<polygon fill="#ebebeb" stroke="transparent" points="177.5,-155 177.5,-170 608.5,-170 608.5,-155 177.5,-155"/>
<text text-anchor="start" x="178.5" y="-159.4" font-family="Helvetica,sans-Serif" font-size="12.00" fill="#000000">j:ProgramViolation: j:OffenseType [0&#45;n]</text>
</a>
</g>
<g id="a_node1_1"><a xlink:href="../../j/ServiceDeliveryProgram/#diagram" xlink:title="A program that exists as part of a rehabilitation program and constitutes a significant scope of work most often defined as evidence&#45;based, such as: Substance Abuse Training, Education, etc." target="_top">
<text text-anchor="start" x="178.5" y="-144.4" font-family="Helvetica,sans-Serif" font-size="12.00" fill="#000000">j:ServiceDeliveryProgram: nc:ProgramType [0&#45;n]</text>
</a>
</g>
<g id="a_node1_2"><a xlink:href="../../j/SubjectAssignmentApprovalDate/#diagram" xlink:title="A date that a subject&#39;s placement was approved." target="_top">
<polygon fill="#ebebeb" stroke="transparent" points="177.5,-125 177.5,-140 608.5,-140 608.5,-125 177.5,-125"/>
<text text-anchor="start" x="178.5" y="-129.4" font-family="Helvetica,sans-Serif" font-size="12.00" fill="#000000">j:SubjectAssignmentApprovalDate: nc:DateType [0&#45;n]</text>
</a>
</g>
<g id="a_node1_3"><a xlink:href="../../j/SubjectAssignmentApprover/#diagram" xlink:title="A staff member who approves a subject&#39;s assignment." target="_top">
<text text-anchor="start" x="178.5" y="-114.4" font-family="Helvetica,sans-Serif" font-size="12.00" fill="#000000">j:SubjectAssignmentApprover: nc:EntityType [0&#45;n]</text>
</a>
</g>
<g id="a_node1_4"><a xlink:href="../../j/SubjectAssignmentCategoryAbstract/#diagram" xlink:title="A data concept for a kind of assignment." target="_top">
<polygon fill="#ebebeb" stroke="transparent" points="177.5,-95 177.5,-110 608.5,-110 608.5,-95 177.5,-95"/>
<text text-anchor="start" x="178.5" y="-99.4" font-family="Helvetica,sans-Serif" font-size="12.00" fill="#000000">j:SubjectAssignmentCategoryAbstract [0&#45;n]</text>
</a>
</g>
<g id="a_node1_5"><a xlink:href="../../j/SubjectAssignmentDocument/#diagram" xlink:title="A document detailing the assessment and assignment of a subject." target="_top">
<text text-anchor="start" x="178.5" y="-84.4" font-family="Helvetica,sans-Serif" font-size="12.00" fill="#000000">j:SubjectAssignmentDocument: nc:DocumentType [0&#45;n]</text>
</a>
</g>
<g id="a_node1_6"><a xlink:href="../../j/SubjectAssignmentSegregationReasonText/#diagram" xlink:title="A comment indicating the reason(s) for segregation assignment of a subject." target="_top">
<polygon fill="#ebebeb" stroke="transparent" points="177.5,-65 177.5,-80 608.5,-80 608.5,-65 177.5,-65"/>
<text text-anchor="start" x="178.5" y="-69.4" font-family="Helvetica,sans-Serif" font-size="12.00" fill="#000000">j:SubjectAssignmentSegregationReasonText: nc:TextType [0&#45;n]</text>
</a>
</g>
<g id="a_node1_7"><a xlink:href="../../j/SubjectAssignmentSingleCellApprovalReasonText/#diagram" xlink:title="A comment indicating the reason for approving a subject&#39;s single cell assignment." target="_top">
<text text-anchor="start" x="178.5" y="-54.4" font-family="Helvetica,sans-Serif" font-size="12.00" fill="#000000">j:SubjectAssignmentSingleCellApprovalReasonText: nc:TextType [0&#45;n]</text>
</a>
</g>
<g id="a_node1_8"><a xlink:href="../../j/SubjectAssignmentSingleCellApprovalStatusText/#diagram" xlink:title="A comment regarding the current condition of the approval of a subject&#39;s single cell assignment." target="_top">
<polygon fill="#ebebeb" stroke="transparent" points="177.5,-35 177.5,-50 608.5,-50 608.5,-35 177.5,-35"/>
<text text-anchor="start" x="178.5" y="-39.4" font-family="Helvetica,sans-Serif" font-size="12.00" fill="#000000">j:SubjectAssignmentSingleCellApprovalStatusText: nc:TextType [0&#45;n]</text>
</a>
</g>
<g id="a_node1_9"><a xlink:href="../../j/SubjectAssignmentSingleCellRequestsTemporaryStatusText/#diagram" xlink:title="A comment indicating a temporary status for a single cell request for a subject." target="_top">
<text text-anchor="start" x="178.5" y="-24.4" font-family="Helvetica,sans-Serif" font-size="12.00" fill="#000000">j:SubjectAssignmentSingleCellRequestsTemporaryStatusText: nc:TextType [0&#45;n]</text>
</a>
</g>
<g id="a_node1_10"><a xlink:href="../../j/SubjectAssignmentAugmentationPoint/#diagram" xlink:title="An augmentation point for type j:SubjectAssignmentType" target="_top">
<polygon fill="#ebebeb" stroke="transparent" points="177.5,-5 177.5,-20 608.5,-20 608.5,-5 177.5,-5"/>
<text text-anchor="start" x="178.5" y="-9.4" font-family="Helvetica,sans-Serif" font-size="12.00" fill="#000000">j:SubjectAssignmentAugmentationPoint [0&#45;n]</text>
</a>
</g>
<polygon fill="#ff0000" stroke="#ff0000" points="172.5,-170 172.5,-170 613.5,-170 613.5,-170 172.5,-170"/>
<polygon fill="none" stroke="#ff0000" stroke-width="5" points="174.5,-2.5 174.5,-187.5 610.5,-187.5 610.5,-2.5 174.5,-2.5"/>
</g>
<!-- subst_d9e46062 -->
<g id="node2" class="node">
<title>subst_d9e46062</title>
<g id="a_node2_11"><a xlink:href="../../j/SubjectAssignmentCategoryAbstract/#diagram" xlink:title="&lt;TABLE&gt;" target="_top">
<text text-anchor="start" x="652.5" y="-100.4" font-family="Helvetica,sans-Serif" font-weight="bold" font-size="12.00" fill="#000000">Substitution group j:SubjectAssignmentCategoryAbstract</text>
</a>
</g>
<g id="a_node2_12"><a xlink:href="../../j/SubjectAssignmentCategoryCode/#diagram" xlink:title="A kind of assignment." target="_top">
<polygon fill="#ebebeb" stroke="transparent" points="651.5,-80 651.5,-95 1042.5,-95 1042.5,-80 651.5,-80"/>
<text text-anchor="start" x="652.5" y="-84.4" font-family="Helvetica,sans-Serif" font-size="12.00" fill="#000000">j:SubjectAssignmentCategoryCode: ndex:AssignmentCategoryCodeType</text>
</a>
</g>
<g id="a_node2_13"><a xlink:href="../../j/SubjectAssignmentCategoryText/#diagram" xlink:title="A kind of assignment." target="_top">
<text text-anchor="start" x="652.5" y="-69.4" font-family="Helvetica,sans-Serif" font-size="12.00" fill="#000000">j:SubjectAssignmentCategoryText: nc:TextType</text>
</a>
</g>
<polygon fill="#000000" stroke="#000000" points="650.5,-95 650.5,-95 1043.5,-95 1043.5,-95 650.5,-95"/>
<polygon fill="none" stroke="#000000" points="650,-64.5 650,-111.5 1043,-111.5 1043,-64.5 650,-64.5"/>
</g>
<!-- j:SubjectAssignmentType&#45;&gt;subst_d9e46062 -->
<g id="edge1" class="edge">
<title>j:SubjectAssignmentType:e&#45;&gt;subst_d9e46062:w</title>
<path fill="none" stroke="#000000" d="M618.6119,-103C630.1435,-103 636.2708,-103 651.5,-103"/>
<polygon fill="#000000" stroke="#000000" points="618.5,-99.5001 608.5,-103 618.5,-106.5001 618.5,-99.5001"/>
</g>
<!-- Properties -->
<g id="node3" class="node">
<title>Properties</title>
<text text-anchor="start" x="2.5" y="-175.4" font-family="Helvetica,sans-Serif" font-weight="bold" font-size="12.00" fill="#000000">Properties</text>
<g id="a_node3_14"><a xlink:href="../../j/SubjectAssignment/#diagram" xlink:title="An event or activity involving the assignment of a corrections subject." target="_top">
<polygon fill="#ebebeb" stroke="transparent" points="1.5,-155 1.5,-170 112.5,-170 112.5,-155 1.5,-155"/>
<text text-anchor="start" x="2.5" y="-159.4" font-family="Helvetica,sans-Serif" font-size="12.00" fill="#000000">j:SubjectAssignment</text>
</a>
</g>
<polygon fill="#000000" stroke="#000000" points=".5,-170 .5,-170 113.5,-170 113.5,-170 .5,-170"/>
<polygon fill="none" stroke="#000000" points="0,-154 0,-186 113,-186 113,-154 0,-154"/>
</g>
<!-- Properties&#45;&gt;j:SubjectAssignmentType -->
<g id="edge2" class="edge">
<title>Properties:top&#45;&gt;j:SubjectAssignmentType:top</title>
<path fill="none" stroke="#000000" d="M112.5,-178C137.6649,-178 146.3891,-178 167.3154,-178"/>
<polygon fill="#000000" stroke="#000000" points="167.5,-181.5001 177.5,-178 167.5,-174.5001 167.5,-181.5001"/>
<text text-anchor="middle" x="142.5" y="-181.4" font-family="Helvetica,sans-Serif" font-size="12.00" fill="#000000">type</text>
</g>
<!-- j:AssignmentType -->
<g id="node4" class="node">
<title>j:AssignmentType</title>
<g id="a_node4_15"><a xlink:href="../../j/AssignmentType/#diagram" xlink:title="A data type for a location and environment into which a person is placed, such as an office, dormitory, barracks, etc." target="_top">
<text text-anchor="start" x="344.5" y="-230.4" font-family="Helvetica,sans-Serif" font-size="12.00" fill="#000000">j:AssignmentType</text>
</a>
</g>
<polygon fill="none" stroke="#000000" points="342.5,-225.5 342.5,-242.5 442.5,-242.5 442.5,-225.5 342.5,-225.5"/>
</g>
<!-- j:AssignmentType&#45;&gt;j:SubjectAssignmentType -->
<g id="edge3" class="edge">
<title>j:AssignmentType&#45;&gt;j:SubjectAssignmentType</title>
<path fill="none" stroke="#000000" d="M392.5,-225.3049C392.5,-219.2475 392.5,-210.4385 392.5,-200.2134"/>
<polygon fill="#000000" stroke="#000000" points="396.0001,-200.0195 392.5,-190.0195 389.0001,-200.0196 396.0001,-200.0195"/>
<text text-anchor="middle" x="383" y="-204.65" font-family="Helvetica,sans-Serif" font-size="12.00" fill="#000000">extension</text>
</g>
<!-- nc:ActivityType -->
<g id="node5" class="node">
<title>nc:ActivityType</title>
<g id="a_node5_16"><a xlink:href="../../nc/ActivityType/#diagram" xlink:title="A data type for a single or set of related actions, events, or process steps." target="_top">
<text text-anchor="start" x="352.5" y="-283.4" font-family="Helvetica,sans-Serif" font-size="12.00" fill="#000000">nc:ActivityType</text>
</a>
</g>
<polygon fill="none" stroke="#000000" points="350,-278.5 350,-295.5 435,-295.5 435,-278.5 350,-278.5"/>
</g>
<!-- nc:ActivityType&#45;&gt;j:AssignmentType -->
<g id="edge4" class="edge">
<title>nc:ActivityType&#45;&gt;j:AssignmentType</title>
<path fill="none" stroke="#000000" d="M392.5,-278.411C392.5,-271.5124 392.5,-261.5696 392.5,-252.84"/>
<polygon fill="#000000" stroke="#000000" points="396.0001,-252.7518 392.5,-242.7519 389.0001,-252.7519 396.0001,-252.7518"/>
<text text-anchor="middle" x="383" y="-257.4" font-family="Helvetica,sans-Serif" font-size="12.00" fill="#000000">extension</text>
</g>
<!-- structures:ObjectType -->
<g id="node6" class="node">
<title>structures:ObjectType</title>
<g id="a_node6_17"><a xlink:href="../../structures/ObjectType/#diagram" xlink:title="A data type for a thing with its own lifespan that has some existence." target="_top">
<text text-anchor="start" x="333.5" y="-336.4" font-family="Helvetica,sans-Serif" font-size="12.00" fill="#000000">structures:ObjectType</text>
</a>
</g>
<polygon fill="none" stroke="#000000" points="331.5,-331.5 331.5,-348.5 453.5,-348.5 453.5,-331.5 331.5,-331.5"/>
</g>
<!-- structures:ObjectType&#45;&gt;nc:ActivityType -->
<g id="edge5" class="edge">
<title>structures:ObjectType&#45;&gt;nc:ActivityType</title>
<path fill="none" stroke="#000000" d="M392.5,-331.411C392.5,-324.5124 392.5,-314.5696 392.5,-305.84"/>
<polygon fill="#000000" stroke="#000000" points="396.0001,-305.7518 392.5,-295.7519 389.0001,-305.7519 396.0001,-305.7518"/>
<text text-anchor="middle" x="383" y="-310.4" font-family="Helvetica,sans-Serif" font-size="12.00" fill="#000000">extension</text>
</g>
</g>
</svg>
