<?xml version="1.0" encoding="UTF-8" standalone="no"?>
<!DOCTYPE svg PUBLIC "-//W3C//DTD SVG 1.1//EN"
 "http://www.w3.org/Graphics/SVG/1.1/DTD/svg11.dtd">
<!-- Generated by graphviz version 2.40.1 (20161225.0304)
 -->
<!-- Title: graphic Pages: 1 -->
<svg width="496pt" height="45pt"
 viewBox="0.00 0.00 496.00 45.00" xmlns="http://www.w3.org/2000/svg" xmlns:xlink="http://www.w3.org/1999/xlink">
<g id="graph0" class="graph" transform="scale(1 1) rotate(0) translate(4 41)">
<title>graphic</title>
<polygon fill="#ffffff" stroke="transparent" points="-4,4 -4,-41 492,-41 492,4 -4,4"/>
<!-- j:SubjectFuturePlansAndGoalsText -->
<g id="node1" class="node">
<title>j:SubjectFuturePlansAndGoalsText</title>
<text text-anchor="start" x="150" y="-21.4" font-family="Helvetica,sans-Serif" font-weight="bold" font-size="12.00" fill="#000000">j:SubjectFuturePlansAndGoalsText</text>
<polygon fill="none" stroke="#ff0000" stroke-width="5" points="146.5,-14 146.5,-34 355.5,-34 355.5,-14 146.5,-14"/>
</g>
<!-- nc:TextType -->
<g id="node3" class="node">
<title>nc:TextType</title>
<g id="a_node3_0"><a xlink:href="../../nc/TextType/#diagram" xlink:title="A data type for a character string." target="_top">
<text text-anchor="start" x="419.5" y="-20.4" font-family="Helvetica,sans-Serif" font-size="12.00" fill="#000000">nc:TextType</text>
</a>
</g>
<polygon fill="none" stroke="#000000" points="417,-15.5 417,-32.5 488,-32.5 488,-15.5 417,-15.5"/>
</g>
<!-- j:SubjectFuturePlansAndGoalsText&#45;&gt;nc:TextType -->
<g id="edge2" class="edge">
<title>j:SubjectFuturePlansAndGoalsText&#45;&gt;nc:TextType</title>
<path fill="none" stroke="#000000" d="M358.2397,-24C375.1808,-24 391.8763,-24 406.3994,-24"/>
<polygon fill="#000000" stroke="#000000" points="406.563,-27.5001 416.563,-24 406.5629,-20.5001 406.563,-27.5001"/>
<text text-anchor="middle" x="387.5" y="-27.4" font-family="Helvetica,sans-Serif" font-size="12.00" fill="#000000">type</text>
</g>
<!-- Types -->
<g id="node2" class="node">
<title>Types</title>
<text text-anchor="start" x="2.5" y="-21.4" font-family="Helvetica,sans-Serif" font-weight="bold" font-size="12.00" fill="#000000">Types</text>
<g id="a_node2_1"><a xlink:href="../../j/SubjectType/#diagram" xlink:title="A data type for a person or organization that is involved or suspected of being involved in a violation of a criminal statute, ordinance or rule." target="_top">
<polygon fill="#ebebeb" stroke="transparent" points="1.5,-1 1.5,-16 76.5,-16 76.5,-1 1.5,-1"/>
<text text-anchor="start" x="2.5" y="-5.4" font-family="Helvetica,sans-Serif" font-size="12.00" fill="#000000">j:SubjectType</text>
</a>
</g>
<polygon fill="#000000" stroke="#000000" points=".5,-16 .5,-16 77.5,-16 77.5,-16 .5,-16"/>
<polygon fill="none" stroke="#000000" points="0,0 0,-32 77,-32 77,0 0,0"/>
</g>
<!-- Types&#45;&gt;j:SubjectFuturePlansAndGoalsText -->
<g id="edge1" class="edge">
<title>Types:top&#45;&gt;j:SubjectFuturePlansAndGoalsText</title>
<path fill="none" stroke="#000000" d="M76.5,-24C94.9895,-24 114.581,-24 133.6982,-24"/>
<polygon fill="#000000" stroke="#000000" points="133.9505,-27.5001 143.9505,-24 133.9504,-20.5001 133.9505,-27.5001"/>
<text text-anchor="middle" x="110.5" y="-27.4" font-family="Helvetica,sans-Serif" font-size="12.00" fill="#000000">has&#45;a</text>
</g>
</g>
</svg>
