<?xml version="1.0" encoding="UTF-8" standalone="no"?>
<!DOCTYPE svg PUBLIC "-//W3C//DTD SVG 1.1//EN"
 "http://www.w3.org/Graphics/SVG/1.1/DTD/svg11.dtd">
<!-- Generated by graphviz version 2.40.1 (20161225.0304)
 -->
<!-- Title: graphic Pages: 1 -->
<svg width="620pt" height="45pt"
 viewBox="0.00 0.00 620.00 45.00" xmlns="http://www.w3.org/2000/svg" xmlns:xlink="http://www.w3.org/1999/xlink">
<g id="graph0" class="graph" transform="scale(1 1) rotate(0) translate(4 41)">
<title>graphic</title>
<polygon fill="#ffffff" stroke="transparent" points="-4,4 -4,-41 616,-41 616,4 -4,4"/>
<!-- it:TransportDocumentIssuePlace -->
<g id="node1" class="node">
<title>it:TransportDocumentIssuePlace</title>
<text text-anchor="start" x="265.5" y="-21.4" font-family="Helvetica,sans-Serif" font-weight="bold" font-size="12.00" fill="#000000">it:TransportDocumentIssuePlace</text>
<polygon fill="none" stroke="#ff0000" stroke-width="5" points="261.5,-14 261.5,-34 457.5,-34 457.5,-14 261.5,-14"/>
</g>
<!-- nc:LocationType -->
<g id="node3" class="node">
<title>nc:LocationType</title>
<g id="a_node3_0"><a xlink:href="../../nc/LocationType/#diagram" xlink:title="A data type for geospatial location." target="_top">
<text text-anchor="start" x="521.5" y="-20.4" font-family="Helvetica,sans-Serif" font-size="12.00" fill="#000000">nc:LocationType</text>
</a>
</g>
<polygon fill="none" stroke="#000000" points="519,-15.5 519,-32.5 612,-32.5 612,-15.5 519,-15.5"/>
</g>
<!-- it:TransportDocumentIssuePlace&#45;&gt;nc:LocationType -->
<g id="edge2" class="edge">
<title>it:TransportDocumentIssuePlace&#45;&gt;nc:LocationType</title>
<path fill="none" stroke="#000000" d="M460.0861,-24C476.7657,-24 493.5297,-24 508.6272,-24"/>
<polygon fill="#000000" stroke="#000000" points="508.7917,-27.5001 518.7916,-24 508.7916,-20.5001 508.7917,-27.5001"/>
<text text-anchor="middle" x="489.5" y="-27.4" font-family="Helvetica,sans-Serif" font-size="12.00" fill="#000000">type</text>
</g>
<!-- Types -->
<g id="node2" class="node">
<title>Types</title>
<text text-anchor="start" x="2" y="-21.4" font-family="Helvetica,sans-Serif" font-weight="bold" font-size="12.00" fill="#000000">Types</text>
<g id="a_node2_1"><a xlink:href="../../it/TransportContractDocumentType/#diagram" xlink:title="A data type for a contract between multiple parties pertaining to cargo shipments e.g. export shipment with a carrier i.e. bill of lading(s) or manifest." target="_top">
<polygon fill="#ebebeb" stroke="transparent" points="1,-1 1,-16 191,-16 191,-1 1,-1"/>
<text text-anchor="start" x="2" y="-5.4" font-family="Helvetica,sans-Serif" font-size="12.00" fill="#000000">it:TransportContractDocumentType</text>
</a>
</g>
<polygon fill="#000000" stroke="#000000" points="0,-16 0,-16 192,-16 192,-16 0,-16"/>
<polygon fill="none" stroke="#000000" points="0,0 0,-32 192,-32 192,0 0,0"/>
</g>
<!-- Types&#45;&gt;it:TransportDocumentIssuePlace -->
<g id="edge1" class="edge">
<title>Types:top&#45;&gt;it:TransportDocumentIssuePlace</title>
<path fill="none" stroke="#000000" d="M191,-24C209.6834,-24 229.532,-24 248.8017,-24"/>
<polygon fill="#000000" stroke="#000000" points="248.8165,-27.5001 258.8164,-24 248.8164,-20.5001 248.8165,-27.5001"/>
<text text-anchor="middle" x="225.5" y="-27.4" font-family="Helvetica,sans-Serif" font-size="12.00" fill="#000000">has&#45;a</text>
</g>
</g>
</svg>
