<?xml version="1.0" encoding="UTF-8" standalone="no"?>
<!DOCTYPE svg PUBLIC "-//W3C//DTD SVG 1.1//EN"
 "http://www.w3.org/Graphics/SVG/1.1/DTD/svg11.dtd">
<!-- Generated by graphviz version 2.40.1 (20161225.0304)
 -->
<!-- Title: graphic Pages: 1 -->
<svg width="535pt" height="45pt"
 viewBox="0.00 0.00 535.00 45.00" xmlns="http://www.w3.org/2000/svg" xmlns:xlink="http://www.w3.org/1999/xlink">
<g id="graph0" class="graph" transform="scale(1 1) rotate(0) translate(4 41)">
<title>graphic</title>
<polygon fill="#ffffff" stroke="transparent" points="-4,4 -4,-41 531,-41 531,4 -4,4"/>
<!-- j:IncarcerationProjectedReleaseDate -->
<g id="node1" class="node">
<title>j:IncarcerationProjectedReleaseDate</title>
<text text-anchor="start" x="180.5" y="-21.4" font-family="Helvetica,sans-Serif" font-weight="bold" font-size="12.00" fill="#000000">j:IncarcerationProjectedReleaseDate</text>
<polygon fill="none" stroke="#ff0000" stroke-width="5" points="176.5,-14 176.5,-34 392.5,-34 392.5,-14 176.5,-14"/>
</g>
<!-- nc:DateType -->
<g id="node3" class="node">
<title>nc:DateType</title>
<g id="a_node3_0"><a xlink:href="../../nc/DateType/#diagram" xlink:title="A data type for a calendar date." target="_top">
<text text-anchor="start" x="456.5" y="-20.4" font-family="Helvetica,sans-Serif" font-size="12.00" fill="#000000">nc:DateType</text>
</a>
</g>
<polygon fill="none" stroke="#000000" points="454,-15.5 454,-32.5 527,-32.5 527,-15.5 454,-15.5"/>
</g>
<!-- j:IncarcerationProjectedReleaseDate&#45;&gt;nc:DateType -->
<g id="edge2" class="edge">
<title>j:IncarcerationProjectedReleaseDate&#45;&gt;nc:DateType</title>
<path fill="none" stroke="#000000" d="M395.0379,-24C412.0886,-24 428.8622,-24 443.4765,-24"/>
<polygon fill="#000000" stroke="#000000" points="443.7094,-27.5001 453.7094,-24 443.7093,-20.5001 443.7094,-27.5001"/>
<text text-anchor="middle" x="424.5" y="-27.4" font-family="Helvetica,sans-Serif" font-size="12.00" fill="#000000">type</text>
</g>
<!-- Types -->
<g id="node2" class="node">
<title>Types</title>
<text text-anchor="start" x="2.5" y="-21.4" font-family="Helvetica,sans-Serif" font-weight="bold" font-size="12.00" fill="#000000">Types</text>
<g id="a_node2_1"><a xlink:href="../../j/IncarcerationType/#diagram" xlink:title="A data type for a confinement of a subject as sentenced by a court." target="_top">
<polygon fill="#ebebeb" stroke="transparent" points="1.5,-1 1.5,-16 106.5,-16 106.5,-1 1.5,-1"/>
<text text-anchor="start" x="2.5" y="-5.4" font-family="Helvetica,sans-Serif" font-size="12.00" fill="#000000">j:IncarcerationType</text>
</a>
</g>
<polygon fill="#000000" stroke="#000000" points=".5,-16 .5,-16 107.5,-16 107.5,-16 .5,-16"/>
<polygon fill="none" stroke="#000000" points="0,0 0,-32 107,-32 107,0 0,0"/>
</g>
<!-- Types&#45;&gt;j:IncarcerationProjectedReleaseDate -->
<g id="edge1" class="edge">
<title>Types:top&#45;&gt;j:IncarcerationProjectedReleaseDate</title>
<path fill="none" stroke="#000000" d="M106.5,-24C124.9674,-24 144.5126,-24 163.626,-24"/>
<polygon fill="#000000" stroke="#000000" points="163.8808,-27.5001 173.8808,-24 163.8808,-20.5001 163.8808,-27.5001"/>
<text text-anchor="middle" x="140.5" y="-27.4" font-family="Helvetica,sans-Serif" font-size="12.00" fill="#000000">has&#45;a</text>
</g>
</g>
</svg>
