<?xml version="1.0" encoding="UTF-8" standalone="no"?>
<!DOCTYPE svg PUBLIC "-//W3C//DTD SVG 1.1//EN"
 "http://www.w3.org/Graphics/SVG/1.1/DTD/svg11.dtd">
<!-- Generated by graphviz version 2.40.1 (20161225.0304)
 -->
<!-- Title: graphic Pages: 1 -->
<svg width="537pt" height="45pt"
 viewBox="0.00 0.00 537.00 45.00" xmlns="http://www.w3.org/2000/svg" xmlns:xlink="http://www.w3.org/1999/xlink">
<g id="graph0" class="graph" transform="scale(1 1) rotate(0) translate(4 41)">
<title>graphic</title>
<polygon fill="#ffffff" stroke="transparent" points="-4,4 -4,-41 533,-41 533,4 -4,4"/>
<!-- biom:MediaCommentText -->
<g id="node1" class="node">
<title>biom:MediaCommentText</title>
<text text-anchor="start" x="246.5" y="-21.4" font-family="Helvetica,sans-Serif" font-weight="bold" font-size="12.00" fill="#000000">biom:MediaCommentText</text>
<polygon fill="none" stroke="#ff0000" stroke-width="5" points="242.5,-14 242.5,-34 396.5,-34 396.5,-14 242.5,-14"/>
</g>
<!-- nc:TextType -->
<g id="node3" class="node">
<title>nc:TextType</title>
<g id="a_node3_0"><a xlink:href="../../nc/TextType/#diagram" xlink:title="A data type for a character string." target="_top">
<text text-anchor="start" x="460.5" y="-20.4" font-family="Helvetica,sans-Serif" font-size="12.00" fill="#000000">nc:TextType</text>
</a>
</g>
<polygon fill="none" stroke="#000000" points="458,-15.5 458,-32.5 529,-32.5 529,-15.5 458,-15.5"/>
</g>
<!-- biom:MediaCommentText&#45;&gt;nc:TextType -->
<g id="edge2" class="edge">
<title>biom:MediaCommentText&#45;&gt;nc:TextType</title>
<path fill="none" stroke="#000000" d="M399.1163,-24C415.6781,-24 432.5993,-24 447.4559,-24"/>
<polygon fill="#000000" stroke="#000000" points="447.8744,-27.5001 457.8744,-24 447.8743,-20.5001 447.8744,-27.5001"/>
<text text-anchor="middle" x="428.5" y="-27.4" font-family="Helvetica,sans-Serif" font-size="12.00" fill="#000000">type</text>
</g>
<!-- Types -->
<g id="node2" class="node">
<title>Types</title>
<text text-anchor="start" x="2.5" y="-21.4" font-family="Helvetica,sans-Serif" font-weight="bold" font-size="12.00" fill="#000000">Types</text>
<g id="a_node2_1"><a xlink:href="../../biom/PhysicalMediaObjectType/#diagram" xlink:title="A data type for a description of the characteristics of physical media containing a recording." target="_top">
<polygon fill="#ebebeb" stroke="transparent" points="1.5,-1 1.5,-16 172.5,-16 172.5,-1 1.5,-1"/>
<text text-anchor="start" x="2.5" y="-5.4" font-family="Helvetica,sans-Serif" font-size="12.00" fill="#000000">biom:PhysicalMediaObjectType</text>
</a>
</g>
<polygon fill="#000000" stroke="#000000" points=".5,-16 .5,-16 173.5,-16 173.5,-16 .5,-16"/>
<polygon fill="none" stroke="#000000" points="0,0 0,-32 173,-32 173,0 0,0"/>
</g>
<!-- Types&#45;&gt;biom:MediaCommentText -->
<g id="edge1" class="edge">
<title>Types:top&#45;&gt;biom:MediaCommentText</title>
<path fill="none" stroke="#000000" d="M172.5,-24C190.9961,-24 210.8013,-24 229.692,-24"/>
<polygon fill="#000000" stroke="#000000" points="229.7758,-27.5001 239.7757,-24 229.7757,-20.5001 229.7758,-27.5001"/>
<text text-anchor="middle" x="206.5" y="-27.4" font-family="Helvetica,sans-Serif" font-size="12.00" fill="#000000">has&#45;a</text>
</g>
</g>
</svg>
