<?xml version="1.0" encoding="UTF-8" standalone="no"?>
<!DOCTYPE svg PUBLIC "-//W3C//DTD SVG 1.1//EN"
 "http://www.w3.org/Graphics/SVG/1.1/DTD/svg11.dtd">
<!-- Generated by graphviz version 2.40.1 (20161225.0304)
 -->
<!-- Title: graphic Pages: 1 -->
<svg width="407pt" height="86pt"
 viewBox="0.00 0.00 407.00 86.00" xmlns="http://www.w3.org/2000/svg" xmlns:xlink="http://www.w3.org/1999/xlink">
<g id="graph0" class="graph" transform="scale(1 1) rotate(0) translate(4 82)">
<title>graphic</title>
<polygon fill="#ffffff" stroke="transparent" points="-4,4 -4,-82 403,-82 403,4 -4,4"/>
<!-- hs:AdoptingParentRelationshipCategoryText -->
<g id="node1" class="node">
<title>hs:AdoptingParentRelationshipCategoryText</title>
<text text-anchor="start" x="6.5" y="-9.9" font-family="Helvetica,sans-Serif" font-weight="bold" font-size="12.00" fill="#000000">hs:AdoptingParentRelationshipCategoryText</text>
<polygon fill="none" stroke="#ff0000" stroke-width="5" points="2.5,-2.5 2.5,-22.5 266.5,-22.5 266.5,-2.5 2.5,-2.5"/>
</g>
<!-- nc:TextType -->
<g id="node3" class="node">
<title>nc:TextType</title>
<g id="a_node3_0"><a xlink:href="../../nc/TextType/#diagram" xlink:title="A data type for a character string." target="_top">
<text text-anchor="start" x="330.5" y="-8.9" font-family="Helvetica,sans-Serif" font-size="12.00" fill="#000000">nc:TextType</text>
</a>
</g>
<polygon fill="none" stroke="#000000" points="328,-4 328,-21 399,-21 399,-4 328,-4"/>
</g>
<!-- hs:AdoptingParentRelationshipCategoryText&#45;&gt;nc:TextType -->
<g id="edge2" class="edge">
<title>hs:AdoptingParentRelationshipCategoryText&#45;&gt;nc:TextType</title>
<path fill="none" stroke="#000000" d="M269.0348,-12.5C286.4268,-12.5 303.1822,-12.5 317.6281,-12.5"/>
<polygon fill="#000000" stroke="#000000" points="317.7149,-16.0001 327.7148,-12.5 317.7148,-9.0001 317.7149,-16.0001"/>
<text text-anchor="middle" x="298.5" y="-15.9" font-family="Helvetica,sans-Serif" font-size="12.00" fill="#000000">type</text>
</g>
<!-- SubstitutionGroup -->
<g id="node2" class="node">
<title>SubstitutionGroup</title>
<g id="a_node2_1"><a xlink:href="../../hs/AdoptingParentRelationshipCategoryAbstract/#diagram" xlink:title="A data concept for describing the relationship between a child and the adopting parent." target="_top">
<text text-anchor="start" x="5.5" y="-65.9" font-family="Helvetica,sans-Serif" font-size="12.00" fill="#000000">hs:AdoptingParentRelationshipCategoryAbstract</text>
</a>
</g>
<polygon fill="none" stroke="#000000" points="3.5,-61 3.5,-78 265.5,-78 265.5,-61 3.5,-61"/>
</g>
<!-- SubstitutionGroup&#45;&gt;hs:AdoptingParentRelationshipCategoryText -->
<g id="edge1" class="edge">
<title>SubstitutionGroup&#45;&gt;hs:AdoptingParentRelationshipCategoryText</title>
<path fill="none" stroke="#000000" d="M134.5,-50.9163C134.5,-42.4809 134.5,-32.7214 134.5,-25.1501"/>
<polygon fill="#000000" stroke="#000000" points="131.0001,-50.9472 134.5,-60.9473 138.0001,-50.9473 131.0001,-50.9472"/>
<text text-anchor="middle" x="125" y="-39.9" font-family="Helvetica,sans-Serif" font-size="12.00" fill="#000000">substitution group</text>
</g>
</g>
</svg>
