<?xml version="1.0" encoding="UTF-8" standalone="no"?>
<!DOCTYPE svg PUBLIC "-//W3C//DTD SVG 1.1//EN"
 "http://www.w3.org/Graphics/SVG/1.1/DTD/svg11.dtd">
<!-- Generated by graphviz version 2.40.1 (20161225.0304)
 -->
<!-- Title: graphic Pages: 1 -->
<svg width="561pt" height="101pt"
 viewBox="0.00 0.00 561.00 101.00" xmlns="http://www.w3.org/2000/svg" xmlns:xlink="http://www.w3.org/1999/xlink">
<g id="graph0" class="graph" transform="scale(1 1) rotate(0) translate(4 97)">
<title>graphic</title>
<polygon fill="#ffffff" stroke="transparent" points="-4,4 -4,-97 557,-97 557,4 -4,4"/>
<!-- scr:EnforcementCategoryAbstract -->
<g id="node1" class="node">
<title>scr:EnforcementCategoryAbstract</title>
<text text-anchor="start" x="271.5" y="-77.4" font-family="Helvetica,sans-Serif" font-weight="bold" font-size="12.00" fill="#000000">scr:EnforcementCategoryAbstract</text>
<polygon fill="none" stroke="#ff0000" stroke-width="5" points="267.5,-70 267.5,-90 471.5,-90 471.5,-70 267.5,-70"/>
</g>
<!-- SubstitutableElements -->
<g id="node3" class="node">
<title>SubstitutableElements</title>
<text text-anchor="start" x="188.5" y="-21.4" font-family="Helvetica,sans-Serif" font-weight="bold" font-size="12.00" fill="#000000">Substitutable elements</text>
<g id="a_node3_0"><a xlink:href="../../scr/EnforcementCategoryCode/#diagram" xlink:title="A classification of ENFORCEMENT" target="_top">
<polygon fill="#ebebeb" stroke="transparent" points="187.5,-1 187.5,-16 552.5,-16 552.5,-1 187.5,-1"/>
<text text-anchor="start" x="188.5" y="-5.4" font-family="Helvetica,sans-Serif" font-size="12.00" fill="#000000">scr:EnforcementCategoryCode: scr:EnforcementCategoryCodeType</text>
</a>
</g>
<polygon fill="#000000" stroke="#000000" points="186.5,-16 186.5,-16 553.5,-16 553.5,-16 186.5,-16"/>
<polygon fill="none" stroke="#000000" points="186,0 186,-32 553,-32 553,0 186,0"/>
</g>
<!-- scr:EnforcementCategoryAbstract&#45;&gt;SubstitutableElements -->
<g id="edge2" class="edge">
<title>scr:EnforcementCategoryAbstract&#45;&gt;SubstitutableElements</title>
<path fill="none" stroke="#000000" d="M369.5,-57.3063C369.5,-48.9972 369.5,-39.7712 369.5,-32.1499"/>
<polygon fill="#000000" stroke="#000000" points="366.0001,-57.4892 369.5,-67.4892 373.0001,-57.4892 366.0001,-57.4892"/>
<text text-anchor="middle" x="360" y="-46.65" font-family="Helvetica,sans-Serif" font-size="12.00" fill="#000000">substitutable for</text>
</g>
<!-- Types -->
<g id="node2" class="node">
<title>Types</title>
<text text-anchor="start" x="2.5" y="-77.4" font-family="Helvetica,sans-Serif" font-weight="bold" font-size="12.00" fill="#000000">Types</text>
<g id="a_node2_1"><a xlink:href="../../scr/EnforcementType/#diagram" xlink:title="A data type for classifying the type of Enforcement action." target="_top">
<polygon fill="#ebebeb" stroke="transparent" points="1.5,-57 1.5,-72 118.5,-72 118.5,-57 1.5,-57"/>
<text text-anchor="start" x="2.5" y="-61.4" font-family="Helvetica,sans-Serif" font-size="12.00" fill="#000000">scr:EnforcementType</text>
</a>
</g>
<polygon fill="#000000" stroke="#000000" points=".5,-72 .5,-72 119.5,-72 119.5,-72 .5,-72"/>
<polygon fill="none" stroke="#000000" points="0,-56 0,-88 119,-88 119,-56 0,-56"/>
</g>
<!-- Types&#45;&gt;scr:EnforcementCategoryAbstract -->
<g id="edge1" class="edge">
<title>Types:top&#45;&gt;scr:EnforcementCategoryAbstract</title>
<path fill="none" stroke="#000000" d="M118.5,-80C162.9773,-80 211.8878,-80 254.6264,-80"/>
<polygon fill="#000000" stroke="#000000" points="254.7808,-83.5001 264.7808,-80 254.7808,-76.5001 254.7808,-83.5001"/>
<text text-anchor="middle" x="152.5" y="-83.4" font-family="Helvetica,sans-Serif" font-size="12.00" fill="#000000">has&#45;a</text>
</g>
</g>
</svg>
