<?xml version="1.0" encoding="UTF-8" standalone="no"?>
<!DOCTYPE svg PUBLIC "-//W3C//DTD SVG 1.1//EN"
 "http://www.w3.org/Graphics/SVG/1.1/DTD/svg11.dtd">
<!-- Generated by graphviz version 2.40.1 (20161225.0304)
 -->
<!-- Title: graphic Pages: 1 -->
<svg width="397pt" height="45pt"
 viewBox="0.00 0.00 397.00 45.00" xmlns="http://www.w3.org/2000/svg" xmlns:xlink="http://www.w3.org/1999/xlink">
<g id="graph0" class="graph" transform="scale(1 1) rotate(0) translate(4 41)">
<title>graphic</title>
<polygon fill="#ffffff" stroke="transparent" points="-4,4 -4,-41 393,-41 393,4 -4,4"/>
<!-- j:CourtClerk -->
<g id="node1" class="node">
<title>j:CourtClerk</title>
<text text-anchor="start" x="140" y="-21.4" font-family="Helvetica,sans-Serif" font-weight="bold" font-size="12.00" fill="#000000">j:CourtClerk</text>
<polygon fill="none" stroke="#ff0000" stroke-width="5" points="136.5,-14 136.5,-34 213.5,-34 213.5,-14 136.5,-14"/>
</g>
<!-- j:JudicialOfficialType -->
<g id="node3" class="node">
<title>j:JudicialOfficialType</title>
<g id="a_node3_0"><a xlink:href="../../j/JudicialOfficialType/#diagram" xlink:title="A data type for a person involved in a judicial area of government." target="_top">
<text text-anchor="start" x="277" y="-20.4" font-family="Helvetica,sans-Serif" font-size="12.00" fill="#000000">j:JudicialOfficialType</text>
</a>
</g>
<polygon fill="none" stroke="#000000" points="275,-15.5 275,-32.5 389,-32.5 389,-15.5 275,-15.5"/>
</g>
<!-- j:CourtClerk&#45;&gt;j:JudicialOfficialType -->
<g id="edge2" class="edge">
<title>j:CourtClerk&#45;&gt;j:JudicialOfficialType</title>
<path fill="none" stroke="#000000" d="M216.2499,-24C231.0716,-24 248.1997,-24 264.6597,-24"/>
<polygon fill="#000000" stroke="#000000" points="264.7954,-27.5001 274.7954,-24 264.7954,-20.5001 264.7954,-27.5001"/>
<text text-anchor="middle" x="245.5" y="-27.4" font-family="Helvetica,sans-Serif" font-size="12.00" fill="#000000">type</text>
</g>
<!-- Types -->
<g id="node2" class="node">
<title>Types</title>
<text text-anchor="start" x="2.5" y="-21.4" font-family="Helvetica,sans-Serif" font-weight="bold" font-size="12.00" fill="#000000">Types</text>
<g id="a_node2_1"><a xlink:href="../../j/CourtType/#diagram" xlink:title="A data type for a court or a unit of a court responsible for trying justice proceedings." target="_top">
<polygon fill="#ebebeb" stroke="transparent" points="1.5,-1 1.5,-16 66.5,-16 66.5,-1 1.5,-1"/>
<text text-anchor="start" x="2.5" y="-5.4" font-family="Helvetica,sans-Serif" font-size="12.00" fill="#000000">j:CourtType</text>
</a>
</g>
<polygon fill="#000000" stroke="#000000" points=".5,-16 .5,-16 67.5,-16 67.5,-16 .5,-16"/>
<polygon fill="none" stroke="#000000" points="0,0 0,-32 67,-32 67,0 0,0"/>
</g>
<!-- Types&#45;&gt;j:CourtClerk -->
<g id="edge1" class="edge">
<title>Types:top&#45;&gt;j:CourtClerk</title>
<path fill="none" stroke="#000000" d="M66.5,-24C85.1676,-24 105.6418,-24 123.7263,-24"/>
<polygon fill="#000000" stroke="#000000" points="123.7826,-27.5001 133.7826,-24 123.7826,-20.5001 123.7826,-27.5001"/>
<text text-anchor="middle" x="100.5" y="-27.4" font-family="Helvetica,sans-Serif" font-size="12.00" fill="#000000">has&#45;a</text>
</g>
</g>
</svg>
