<?xml version="1.0" encoding="UTF-8" standalone="no"?>
<!DOCTYPE svg PUBLIC "-//W3C//DTD SVG 1.1//EN"
 "http://www.w3.org/Graphics/SVG/1.1/DTD/svg11.dtd">
<!-- Generated by graphviz version 2.40.1 (20161225.0304)
 -->
<!-- Title: graphic Pages: 1 -->
<svg width="339pt" height="191pt"
 viewBox="0.00 0.00 339.00 190.50" xmlns="http://www.w3.org/2000/svg" xmlns:xlink="http://www.w3.org/1999/xlink">
<g id="graph0" class="graph" transform="scale(1 1) rotate(0) translate(4 186.5)">
<title>graphic</title>
<polygon fill="#ffffff" stroke="transparent" points="-4,4 -4,-186.5 335,-186.5 335,4 -4,4"/>
<!-- cbrn:DataFileSetType -->
<g id="node1" class="node">
<title>cbrn:DataFileSetType</title>
<text text-anchor="start" x="6.5" y="-115.4" font-family="Helvetica,sans-Serif" font-weight="bold" font-size="12.00" fill="#000000">cbrn:DataFileSetType</text>
<g id="a_node1_0"><a xlink:href="../../cbrn/DataFile/#diagram" xlink:title="A digital data file." target="_top">
<polygon fill="#ebebeb" stroke="transparent" points="5.5,-95 5.5,-110 326.5,-110 326.5,-95 5.5,-95"/>
<text text-anchor="start" x="6.5" y="-99.4" font-family="Helvetica,sans-Serif" font-size="12.00" fill="#000000">cbrn:DataFile: cbrn:DataFileType [0&#45;n]</text>
</a>
</g>
<g id="a_node1_1"><a xlink:href="../../cbrn/DataFileSetName/#diagram" xlink:title="A Name of a file set." target="_top">
<text text-anchor="start" x="6.5" y="-84.4" font-family="Helvetica,sans-Serif" font-size="12.00" fill="#000000">cbrn:DataFileSetName: niem&#45;xs:string [0&#45;n]</text>
</a>
</g>
<g id="a_node1_2"><a xlink:href="../../cbrn/DataFileSetDescriptionText/#diagram" xlink:title="A Description of a file set." target="_top">
<polygon fill="#ebebeb" stroke="transparent" points="5.5,-65 5.5,-80 326.5,-80 326.5,-65 5.5,-65"/>
<text text-anchor="start" x="6.5" y="-69.4" font-family="Helvetica,sans-Serif" font-size="12.00" fill="#000000">cbrn:DataFileSetDescriptionText: nc:TextType [0&#45;n]</text>
</a>
</g>
<g id="a_node1_3"><a xlink:href="../../cbrn/DataFileSetUUID/#diagram" xlink:title="A Unique identifier of a file set. Also serves as the Data File UUID of a file containing the identifiers of the members of the file set." target="_top">
<text text-anchor="start" x="6.5" y="-54.4" font-family="Helvetica,sans-Serif" font-size="12.00" fill="#000000">cbrn:DataFileSetUUID: niem&#45;xs:string [0&#45;n]</text>
</a>
</g>
<g id="a_node1_4"><a xlink:href="../../cbrn/DataFileSetQuantity/#diagram" xlink:title="A number of files in a file set." target="_top">
<polygon fill="#ebebeb" stroke="transparent" points="5.5,-35 5.5,-50 326.5,-50 326.5,-35 5.5,-35"/>
<text text-anchor="start" x="6.5" y="-39.4" font-family="Helvetica,sans-Serif" font-size="12.00" fill="#000000">cbrn:DataFileSetQuantity: niem&#45;xs:nonNegativeInteger [0&#45;n]</text>
</a>
</g>
<g id="a_node1_5"><a xlink:href="../../cbrn/DataFileSetMember/#diagram" xlink:title="A digit file that is a member of a file set." target="_top">
<text text-anchor="start" x="6.5" y="-24.4" font-family="Helvetica,sans-Serif" font-size="12.00" fill="#000000">cbrn:DataFileSetMember: cbrn:DataFileType [0&#45;n]</text>
</a>
</g>
<g id="a_node1_6"><a xlink:href="../../cbrn/DataFileSetAugmentationPoint/#diagram" xlink:title="An augmentation point for cbrn:DataFileSetType." target="_top">
<polygon fill="#ebebeb" stroke="transparent" points="5.5,-5 5.5,-20 326.5,-20 326.5,-5 5.5,-5"/>
<text text-anchor="start" x="6.5" y="-9.4" font-family="Helvetica,sans-Serif" font-size="12.00" fill="#000000">cbrn:DataFileSetAugmentationPoint [0&#45;n]</text>
</a>
</g>
<polygon fill="#ff0000" stroke="#ff0000" points=".5,-110 .5,-110 331.5,-110 331.5,-110 .5,-110"/>
<polygon fill="none" stroke="#ff0000" stroke-width="5" points="2.5,-2.5 2.5,-127.5 328.5,-127.5 328.5,-2.5 2.5,-2.5"/>
</g>
<!-- structures:ObjectType -->
<g id="node2" class="node">
<title>structures:ObjectType</title>
<g id="a_node2_7"><a xlink:href="../../structures/ObjectType/#diagram" xlink:title="A data type for a thing with its own lifespan that has some existence." target="_top">
<text text-anchor="start" x="106.5" y="-170.4" font-family="Helvetica,sans-Serif" font-size="12.00" fill="#000000">structures:ObjectType</text>
</a>
</g>
<polygon fill="none" stroke="#000000" points="104.5,-165.5 104.5,-182.5 226.5,-182.5 226.5,-165.5 104.5,-165.5"/>
</g>
<!-- structures:ObjectType&#45;&gt;cbrn:DataFileSetType -->
<g id="edge1" class="edge">
<title>structures:ObjectType&#45;&gt;cbrn:DataFileSetType</title>
<path fill="none" stroke="#000000" d="M165.5,-165.3644C165.5,-159.2696 165.5,-150.4448 165.5,-140.522"/>
<polygon fill="#000000" stroke="#000000" points="169.0001,-140.2935 165.5,-130.2936 162.0001,-140.2936 169.0001,-140.2935"/>
<text text-anchor="middle" x="156" y="-144.65" font-family="Helvetica,sans-Serif" font-size="12.00" fill="#000000">extension</text>
</g>
</g>
</svg>
