<?xml version="1.0" encoding="UTF-8" standalone="no"?>
<!DOCTYPE svg PUBLIC "-//W3C//DTD SVG 1.1//EN"
 "http://www.w3.org/Graphics/SVG/1.1/DTD/svg11.dtd">
<!-- Generated by graphviz version 2.40.1 (20161225.0304)
 -->
<!-- Title: graphic Pages: 1 -->
<svg width="490pt" height="45pt"
 viewBox="0.00 0.00 490.00 45.00" xmlns="http://www.w3.org/2000/svg" xmlns:xlink="http://www.w3.org/1999/xlink">
<g id="graph0" class="graph" transform="scale(1 1) rotate(0) translate(4 41)">
<title>graphic</title>
<polygon fill="#ffffff" stroke="transparent" points="-4,4 -4,-41 486,-41 486,4 -4,4"/>
<!-- j:ParoleActionDischargeDate -->
<g id="node1" class="node">
<title>j:ParoleActionDischargeDate</title>
<text text-anchor="start" x="178" y="-21.4" font-family="Helvetica,sans-Serif" font-weight="bold" font-size="12.00" fill="#000000">j:ParoleActionDischargeDate</text>
<polygon fill="none" stroke="#ff0000" stroke-width="5" points="174.5,-14 174.5,-34 347.5,-34 347.5,-14 174.5,-14"/>
</g>
<!-- nc:DateType -->
<g id="node3" class="node">
<title>nc:DateType</title>
<g id="a_node3_0"><a xlink:href="../../nc/DateType/#diagram" xlink:title="A data type for a calendar date." target="_top">
<text text-anchor="start" x="411.5" y="-20.4" font-family="Helvetica,sans-Serif" font-size="12.00" fill="#000000">nc:DateType</text>
</a>
</g>
<polygon fill="none" stroke="#000000" points="409,-15.5 409,-32.5 482,-32.5 482,-15.5 409,-15.5"/>
</g>
<!-- j:ParoleActionDischargeDate&#45;&gt;nc:DateType -->
<g id="edge2" class="edge">
<title>j:ParoleActionDischargeDate&#45;&gt;nc:DateType</title>
<path fill="none" stroke="#000000" d="M350.0074,-24C366.7655,-24 383.6665,-24 398.4946,-24"/>
<polygon fill="#000000" stroke="#000000" points="398.8937,-27.5001 408.8937,-24 398.8936,-20.5001 398.8937,-27.5001"/>
<text text-anchor="middle" x="379.5" y="-27.4" font-family="Helvetica,sans-Serif" font-size="12.00" fill="#000000">type</text>
</g>
<!-- Types -->
<g id="node2" class="node">
<title>Types</title>
<text text-anchor="start" x="2.5" y="-21.4" font-family="Helvetica,sans-Serif" font-weight="bold" font-size="12.00" fill="#000000">Types</text>
<g id="a_node2_1"><a xlink:href="../../j/ParoleActionType/#diagram" xlink:title="A data type for an event or activity regarding a subject&#39;s parole." target="_top">
<polygon fill="#ebebeb" stroke="transparent" points="1.5,-1 1.5,-16 104.5,-16 104.5,-1 1.5,-1"/>
<text text-anchor="start" x="2.5" y="-5.4" font-family="Helvetica,sans-Serif" font-size="12.00" fill="#000000">j:ParoleActionType</text>
</a>
</g>
<polygon fill="#000000" stroke="#000000" points=".5,-16 .5,-16 105.5,-16 105.5,-16 .5,-16"/>
<polygon fill="none" stroke="#000000" points="0,0 0,-32 105,-32 105,0 0,0"/>
</g>
<!-- Types&#45;&gt;j:ParoleActionDischargeDate -->
<g id="edge1" class="edge">
<title>Types:top&#45;&gt;j:ParoleActionDischargeDate</title>
<path fill="none" stroke="#000000" d="M104.5,-24C122.9248,-24 142.5696,-24 161.4954,-24"/>
<polygon fill="#000000" stroke="#000000" points="161.6188,-27.5001 171.6187,-24 161.6187,-20.5001 161.6188,-27.5001"/>
<text text-anchor="middle" x="138.5" y="-27.4" font-family="Helvetica,sans-Serif" font-size="12.00" fill="#000000">has&#45;a</text>
</g>
</g>
</svg>
