<?xml version="1.0" encoding="UTF-8" standalone="no"?>
<!DOCTYPE svg PUBLIC "-//W3C//DTD SVG 1.1//EN"
 "http://www.w3.org/Graphics/SVG/1.1/DTD/svg11.dtd">
<!-- Generated by graphviz version 2.40.1 (20161225.0304)
 -->
<!-- Title: graphic Pages: 1 -->
<svg width="461pt" height="169pt"
 viewBox="0.00 0.00 461.00 169.00" xmlns="http://www.w3.org/2000/svg" xmlns:xlink="http://www.w3.org/1999/xlink">
<g id="graph0" class="graph" transform="scale(1 1) rotate(0) translate(4 165)">
<title>graphic</title>
<polygon fill="#ffffff" stroke="transparent" points="-4,4 -4,-165 457,-165 457,4 -4,4"/>
<!-- im:ResidentRoleType -->
<g id="node1" class="node">
<title>im:ResidentRoleType</title>
<text text-anchor="start" x="158.5" y="-39.9" font-family="Helvetica,sans-Serif" font-weight="bold" font-size="12.00" fill="#000000">im:ResidentRoleType</text>
<g id="a_node1_0"><a xlink:href="../../im/ResidentReasonDescriptionText/#diagram" xlink:title="A description of the reason why a Person is considered a Resident." target="_top">
<polygon fill="#ebebeb" stroke="transparent" points="157.5,-19.5 157.5,-34.5 448.5,-34.5 448.5,-19.5 157.5,-19.5"/>
<text text-anchor="start" x="158.5" y="-23.9" font-family="Helvetica,sans-Serif" font-size="12.00" fill="#000000">im:ResidentReasonDescriptionText: nc:TextType [0&#45;n]</text>
</a>
</g>
<g id="a_node1_1"><a xlink:href="../../im/ResidentRoleAugmentationPoint/#diagram" xlink:title="An augmentation point for ResidentRoleType." target="_top">
<text text-anchor="start" x="158.5" y="-8.9" font-family="Helvetica,sans-Serif" font-size="12.00" fill="#000000">im:ResidentRoleAugmentationPoint [0&#45;n]</text>
</a>
</g>
<polygon fill="#ff0000" stroke="#ff0000" points="152.5,-34.5 152.5,-34.5 453.5,-34.5 453.5,-34.5 152.5,-34.5"/>
<polygon fill="none" stroke="#ff0000" stroke-width="5" points="154.5,-2.5 154.5,-52.5 450.5,-52.5 450.5,-2.5 154.5,-2.5"/>
</g>
<!-- Properties -->
<g id="node2" class="node">
<title>Properties</title>
<text text-anchor="start" x="2.5" y="-39.9" font-family="Helvetica,sans-Serif" font-weight="bold" font-size="12.00" fill="#000000">Properties</text>
<g id="a_node2_2"><a xlink:href="../../im/ResidentRole/#diagram" xlink:title="A person who resides in a particular place permanently or for an extended period" target="_top">
<polygon fill="#ebebeb" stroke="transparent" points="1.5,-19.5 1.5,-34.5 92.5,-34.5 92.5,-19.5 1.5,-19.5"/>
<text text-anchor="start" x="2.5" y="-23.9" font-family="Helvetica,sans-Serif" font-size="12.00" fill="#000000">im:ResidentRole</text>
</a>
</g>
<polygon fill="#000000" stroke="#000000" points=".5,-34.5 .5,-34.5 93.5,-34.5 93.5,-34.5 .5,-34.5"/>
<polygon fill="none" stroke="#000000" points="0,-18.5 0,-50.5 93,-50.5 93,-18.5 0,-18.5"/>
</g>
<!-- Properties&#45;&gt;im:ResidentRoleType -->
<g id="edge1" class="edge">
<title>Properties:top&#45;&gt;im:ResidentRoleType:top</title>
<path fill="none" stroke="#000000" d="M92.5,-42.5C117.6649,-42.5 126.3891,-42.5 147.3154,-42.5"/>
<polygon fill="#000000" stroke="#000000" points="147.5,-46.0001 157.5,-42.5 147.5,-39.0001 147.5,-46.0001"/>
<text text-anchor="middle" x="122.5" y="-45.9" font-family="Helvetica,sans-Serif" font-size="12.00" fill="#000000">type</text>
</g>
<!-- im:PersonCountryRoleType -->
<g id="node3" class="node">
<title>im:PersonCountryRoleType</title>
<g id="a_node3_3"><a xlink:href="../../im/PersonCountryRoleType/#diagram" xlink:title="A data type for the role played by the Person with respect to a Country" target="_top">
<text text-anchor="start" x="228.5" y="-95.9" font-family="Helvetica,sans-Serif" font-size="12.00" fill="#000000">im:PersonCountryRoleType</text>
</a>
</g>
<polygon fill="none" stroke="#000000" points="226.5,-91 226.5,-108 378.5,-108 378.5,-91 226.5,-91"/>
</g>
<!-- im:PersonCountryRoleType&#45;&gt;im:ResidentRoleType -->
<g id="edge2" class="edge">
<title>im:PersonCountryRoleType&#45;&gt;im:ResidentRoleType</title>
<path fill="none" stroke="#000000" d="M302.5,-90.8151C302.5,-84.3271 302.5,-74.9677 302.5,-65.4273"/>
<polygon fill="#000000" stroke="#000000" points="306.0001,-65.1311 302.5,-55.1312 299.0001,-65.1312 306.0001,-65.1311"/>
<text text-anchor="middle" x="293" y="-69.9" font-family="Helvetica,sans-Serif" font-size="12.00" fill="#000000">extension</text>
</g>
<!-- structures:ObjectType -->
<g id="node4" class="node">
<title>structures:ObjectType</title>
<g id="a_node4_4"><a xlink:href="../../structures/ObjectType/#diagram" xlink:title="A data type for a thing with its own lifespan that has some existence." target="_top">
<text text-anchor="start" x="243.5" y="-148.9" font-family="Helvetica,sans-Serif" font-size="12.00" fill="#000000">structures:ObjectType</text>
</a>
</g>
<polygon fill="none" stroke="#000000" points="241.5,-144 241.5,-161 363.5,-161 363.5,-144 241.5,-144"/>
</g>
<!-- structures:ObjectType&#45;&gt;im:PersonCountryRoleType -->
<g id="edge3" class="edge">
<title>structures:ObjectType&#45;&gt;im:PersonCountryRoleType</title>
<path fill="none" stroke="#000000" d="M302.5,-143.911C302.5,-137.0124 302.5,-127.0696 302.5,-118.34"/>
<polygon fill="#000000" stroke="#000000" points="306.0001,-118.2518 302.5,-108.2519 299.0001,-118.2519 306.0001,-118.2518"/>
<text text-anchor="middle" x="293" y="-122.9" font-family="Helvetica,sans-Serif" font-size="12.00" fill="#000000">extension</text>
</g>
</g>
</svg>
