<?xml version="1.0" encoding="UTF-8" standalone="no"?>
<!DOCTYPE svg PUBLIC "-//W3C//DTD SVG 1.1//EN"
 "http://www.w3.org/Graphics/SVG/1.1/DTD/svg11.dtd">
<!-- Generated by graphviz version 2.40.1 (20161225.0304)
 -->
<!-- Title: graphic Pages: 1 -->
<svg width="583pt" height="45pt"
 viewBox="0.00 0.00 583.00 45.00" xmlns="http://www.w3.org/2000/svg" xmlns:xlink="http://www.w3.org/1999/xlink">
<g id="graph0" class="graph" transform="scale(1 1) rotate(0) translate(4 41)">
<title>graphic</title>
<polygon fill="#ffffff" stroke="transparent" points="-4,4 -4,-41 579,-41 579,4 -4,4"/>
<!-- stat:EnvironmentChangeOriginText -->
<g id="node1" class="node">
<title>stat:EnvironmentChangeOriginText</title>
<text text-anchor="start" x="236.5" y="-21.4" font-family="Helvetica,sans-Serif" font-weight="bold" font-size="12.00" fill="#000000">stat:EnvironmentChangeOriginText</text>
<polygon fill="none" stroke="#ff0000" stroke-width="5" points="232.5,-14 232.5,-34 442.5,-34 442.5,-14 232.5,-14"/>
</g>
<!-- nc:TextType -->
<g id="node3" class="node">
<title>nc:TextType</title>
<g id="a_node3_0"><a xlink:href="../../nc/TextType/#diagram" xlink:title="A data type for a character string." target="_top">
<text text-anchor="start" x="506.5" y="-20.4" font-family="Helvetica,sans-Serif" font-size="12.00" fill="#000000">nc:TextType</text>
</a>
</g>
<polygon fill="none" stroke="#000000" points="504,-15.5 504,-32.5 575,-32.5 575,-15.5 504,-15.5"/>
</g>
<!-- stat:EnvironmentChangeOriginText&#45;&gt;nc:TextType -->
<g id="edge2" class="edge">
<title>stat:EnvironmentChangeOriginText&#45;&gt;nc:TextType</title>
<path fill="none" stroke="#000000" d="M445.0058,-24C462.1406,-24 479.0247,-24 493.6745,-24"/>
<polygon fill="#000000" stroke="#000000" points="493.9185,-27.5001 503.9185,-24 493.9184,-20.5001 493.9185,-27.5001"/>
<text text-anchor="middle" x="474.5" y="-27.4" font-family="Helvetica,sans-Serif" font-size="12.00" fill="#000000">type</text>
</g>
<!-- Types -->
<g id="node2" class="node">
<title>Types</title>
<text text-anchor="start" x="2.5" y="-21.4" font-family="Helvetica,sans-Serif" font-weight="bold" font-size="12.00" fill="#000000">Types</text>
<g id="a_node2_1"><a xlink:href="../../stat/EnvironmentChangeType/#diagram" xlink:title="A data type for a requirement for change that originates from a change in the operating environment of the statistical organization." target="_top">
<polygon fill="#ebebeb" stroke="transparent" points="1.5,-1 1.5,-16 162.5,-16 162.5,-1 1.5,-1"/>
<text text-anchor="start" x="2.5" y="-5.4" font-family="Helvetica,sans-Serif" font-size="12.00" fill="#000000">stat:EnvironmentChangeType</text>
</a>
</g>
<polygon fill="#000000" stroke="#000000" points=".5,-16 .5,-16 163.5,-16 163.5,-16 .5,-16"/>
<polygon fill="none" stroke="#000000" points="0,0 0,-32 163,-32 163,0 0,0"/>
</g>
<!-- Types&#45;&gt;stat:EnvironmentChangeOriginText -->
<g id="edge1" class="edge">
<title>Types:top&#45;&gt;stat:EnvironmentChangeOriginText</title>
<path fill="none" stroke="#000000" d="M162.5,-24C180.9137,-24 200.4173,-24 219.4626,-24"/>
<polygon fill="#000000" stroke="#000000" points="219.6779,-27.5001 229.6778,-24 219.6778,-20.5001 219.6779,-27.5001"/>
<text text-anchor="middle" x="196.5" y="-27.4" font-family="Helvetica,sans-Serif" font-size="12.00" fill="#000000">has&#45;a</text>
</g>
</g>
</svg>
