<?xml version="1.0" encoding="UTF-8" standalone="no"?>
<!DOCTYPE svg PUBLIC "-//W3C//DTD SVG 1.1//EN"
 "http://www.w3.org/Graphics/SVG/1.1/DTD/svg11.dtd">
<!-- Generated by graphviz version 2.40.1 (20161225.0304)
 -->
<!-- Title: graphic Pages: 1 -->
<svg width="517pt" height="45pt"
 viewBox="0.00 0.00 517.00 45.00" xmlns="http://www.w3.org/2000/svg" xmlns:xlink="http://www.w3.org/1999/xlink">
<g id="graph0" class="graph" transform="scale(1 1) rotate(0) translate(4 41)">
<title>graphic</title>
<polygon fill="#ffffff" stroke="transparent" points="-4,4 -4,-41 513,-41 513,4 -4,4"/>
<!-- cbrn:CaseClosedIndicator -->
<g id="node1" class="node">
<title>cbrn:CaseClosedIndicator</title>
<text text-anchor="start" x="201" y="-21.4" font-family="Helvetica,sans-Serif" font-weight="bold" font-size="12.00" fill="#000000">cbrn:CaseClosedIndicator</text>
<polygon fill="none" stroke="#ff0000" stroke-width="5" points="197.5,-14 197.5,-34 354.5,-34 354.5,-14 197.5,-14"/>
</g>
<!-- niem&#45;xs:boolean -->
<g id="node3" class="node">
<title>niem&#45;xs:boolean</title>
<g id="a_node3_0"><a xlink:href="../../niem-xs/boolean/#diagram" xlink:title="A data type for binary&#45;valued logic (true/false)." target="_top">
<text text-anchor="start" x="418.5" y="-20.4" font-family="Helvetica,sans-Serif" font-size="12.00" fill="#000000">niem&#45;xs:boolean</text>
</a>
</g>
<polygon fill="none" stroke="#000000" points="416,-15.5 416,-32.5 509,-32.5 509,-15.5 416,-15.5"/>
</g>
<!-- cbrn:CaseClosedIndicator&#45;&gt;niem&#45;xs:boolean -->
<g id="edge2" class="edge">
<title>cbrn:CaseClosedIndicator&#45;&gt;niem&#45;xs:boolean</title>
<path fill="none" stroke="#000000" d="M357.2591,-24C373.5291,-24 390.2943,-24 405.529,-24"/>
<polygon fill="#000000" stroke="#000000" points="405.8067,-27.5001 415.8066,-24 405.8066,-20.5001 405.8067,-27.5001"/>
<text text-anchor="middle" x="386.5" y="-27.4" font-family="Helvetica,sans-Serif" font-size="12.00" fill="#000000">type</text>
</g>
<!-- Types -->
<g id="node2" class="node">
<title>Types</title>
<text text-anchor="start" x="2" y="-21.4" font-family="Helvetica,sans-Serif" font-weight="bold" font-size="12.00" fill="#000000">Types</text>
<g id="a_node2_1"><a xlink:href="../../cbrn/CBRNECaseType/#diagram" xlink:title="A data type for an aggregation of information about activities and events associated with detection and interdiction of CBRNE threats." target="_top">
<polygon fill="#ebebeb" stroke="transparent" points="1,-1 1,-16 127,-16 127,-1 1,-1"/>
<text text-anchor="start" x="2" y="-5.4" font-family="Helvetica,sans-Serif" font-size="12.00" fill="#000000">cbrn:CBRNECaseType</text>
</a>
</g>
<polygon fill="#000000" stroke="#000000" points="0,-16 0,-16 128,-16 128,-16 0,-16"/>
<polygon fill="none" stroke="#000000" points="0,0 0,-32 128,-32 128,0 0,0"/>
</g>
<!-- Types&#45;&gt;cbrn:CaseClosedIndicator -->
<g id="edge1" class="edge">
<title>Types:top&#45;&gt;cbrn:CaseClosedIndicator</title>
<path fill="none" stroke="#000000" d="M127,-24C145.6381,-24 165.5877,-24 184.6341,-24"/>
<polygon fill="#000000" stroke="#000000" points="184.803,-27.5001 194.803,-24 184.8029,-20.5001 184.803,-27.5001"/>
<text text-anchor="middle" x="161.5" y="-27.4" font-family="Helvetica,sans-Serif" font-size="12.00" fill="#000000">has&#45;a</text>
</g>
</g>
</svg>
