<?xml version="1.0" encoding="UTF-8" standalone="no"?>
<!DOCTYPE svg PUBLIC "-//W3C//DTD SVG 1.1//EN"
 "http://www.w3.org/Graphics/SVG/1.1/DTD/svg11.dtd">
<!-- Generated by graphviz version 2.40.1 (20161225.0304)
 -->
<!-- Title: graphic Pages: 1 -->
<svg width="560pt" height="45pt"
 viewBox="0.00 0.00 560.00 45.00" xmlns="http://www.w3.org/2000/svg" xmlns:xlink="http://www.w3.org/1999/xlink">
<g id="graph0" class="graph" transform="scale(1 1) rotate(0) translate(4 41)">
<title>graphic</title>
<polygon fill="#ffffff" stroke="transparent" points="-4,4 -4,-41 556,-41 556,4 -4,4"/>
<!-- im:TransferRequestStatus -->
<g id="node1" class="node">
<title>im:TransferRequestStatus</title>
<text text-anchor="start" x="165.5" y="-21.4" font-family="Helvetica,sans-Serif" font-weight="bold" font-size="12.00" fill="#000000">im:TransferRequestStatus</text>
<polygon fill="none" stroke="#ff0000" stroke-width="5" points="161.5,-14 161.5,-34 319.5,-34 319.5,-14 161.5,-14"/>
</g>
<!-- im:TransferRequestStatusType -->
<g id="node3" class="node">
<title>im:TransferRequestStatusType</title>
<g id="a_node3_0"><a xlink:href="../../im/TransferRequestStatusType/#diagram" xlink:title="A data type for the classification of the request made by a non&#45;immigrant alien student to leave an authorized educational program and enter another one." target="_top">
<text text-anchor="start" x="383.5" y="-20.4" font-family="Helvetica,sans-Serif" font-size="12.00" fill="#000000">im:TransferRequestStatusType</text>
</a>
</g>
<polygon fill="none" stroke="#000000" points="381,-15.5 381,-32.5 552,-32.5 552,-15.5 381,-15.5"/>
</g>
<!-- im:TransferRequestStatus&#45;&gt;im:TransferRequestStatusType -->
<g id="edge2" class="edge">
<title>im:TransferRequestStatus&#45;&gt;im:TransferRequestStatusType</title>
<path fill="none" stroke="#000000" d="M322.0912,-24C337.9016,-24 354.603,-24 370.8172,-24"/>
<polygon fill="#000000" stroke="#000000" points="370.8376,-27.5001 380.8376,-24 370.8375,-20.5001 370.8376,-27.5001"/>
<text text-anchor="middle" x="351.5" y="-27.4" font-family="Helvetica,sans-Serif" font-size="12.00" fill="#000000">type</text>
</g>
<!-- Types -->
<g id="node2" class="node">
<title>Types</title>
<text text-anchor="start" x="2" y="-21.4" font-family="Helvetica,sans-Serif" font-weight="bold" font-size="12.00" fill="#000000">Types</text>
<g id="a_node2_1"><a xlink:href="../../im/TransferType/#diagram" xlink:title="A data type for the transfer of a non&#45;immigrant alien student or exchange visitor from an authorized educational program to a different authorized educational program." target="_top">
<polygon fill="#ebebeb" stroke="transparent" points="1,-1 1,-16 91,-16 91,-1 1,-1"/>
<text text-anchor="start" x="2" y="-5.4" font-family="Helvetica,sans-Serif" font-size="12.00" fill="#000000">im:TransferType</text>
</a>
</g>
<polygon fill="#000000" stroke="#000000" points="0,-16 0,-16 92,-16 92,-16 0,-16"/>
<polygon fill="none" stroke="#000000" points="0,0 0,-32 92,-32 92,0 0,0"/>
</g>
<!-- Types&#45;&gt;im:TransferRequestStatus -->
<g id="edge1" class="edge">
<title>Types:top&#45;&gt;im:TransferRequestStatus</title>
<path fill="none" stroke="#000000" d="M91,-24C109.5907,-24 129.4817,-24 148.4902,-24"/>
<polygon fill="#000000" stroke="#000000" points="148.6408,-27.5001 158.6407,-24 148.6407,-20.5001 148.6408,-27.5001"/>
<text text-anchor="middle" x="125.5" y="-27.4" font-family="Helvetica,sans-Serif" font-size="12.00" fill="#000000">has&#45;a</text>
</g>
</g>
</svg>
