<?xml version="1.0" encoding="UTF-8" standalone="no"?>
<!DOCTYPE svg PUBLIC "-//W3C//DTD SVG 1.1//EN"
 "http://www.w3.org/Graphics/SVG/1.1/DTD/svg11.dtd">
<!-- Generated by graphviz version 2.40.1 (20161225.0304)
 -->
<!-- Title: graphic Pages: 1 -->
<svg width="920pt" height="386pt"
 viewBox="0.00 0.00 920.00 386.00" xmlns="http://www.w3.org/2000/svg" xmlns:xlink="http://www.w3.org/1999/xlink">
<g id="graph0" class="graph" transform="scale(1 1) rotate(0) translate(4 382)">
<title>graphic</title>
<polygon fill="#ffffff" stroke="transparent" points="-4,4 -4,-382 916,-382 916,4 -4,4"/>
<!-- nc:SupervisionType -->
<g id="node1" class="node">
<title>nc:SupervisionType</title>
<text text-anchor="start" x="242" y="-257.9" font-family="Helvetica,sans-Serif" font-weight="bold" font-size="12.00" fill="#000000">nc:SupervisionType</text>
<g id="a_node1_0"><a xlink:href="../../nc/SupervisionCurrentIndicator/#diagram" xlink:title="True if a subject is currently under supervision; false otherwise." target="_top">
<polygon fill="#ebebeb" stroke="transparent" points="241,-237.5 241,-252.5 547,-252.5 547,-237.5 241,-237.5"/>
<text text-anchor="start" x="242" y="-241.9" font-family="Helvetica,sans-Serif" font-size="12.00" fill="#000000">nc:SupervisionCurrentIndicator: niem&#45;xs:boolean [0&#45;n]</text>
</a>
</g>
<g id="a_node1_1"><a xlink:href="../../nc/SupervisionCustodyStatus/#diagram" xlink:title="A status of the custody of a person under supervision." target="_top">
<text text-anchor="start" x="242" y="-226.9" font-family="Helvetica,sans-Serif" font-size="12.00" fill="#000000">nc:SupervisionCustodyStatus: nc:StatusType [0&#45;n]</text>
</a>
</g>
<g id="a_node1_2"><a xlink:href="../../nc/SupervisionFacility/#diagram" xlink:title="A facility at which a subject is being supervised." target="_top">
<polygon fill="#ebebeb" stroke="transparent" points="241,-207.5 241,-222.5 547,-222.5 547,-207.5 241,-207.5"/>
<text text-anchor="start" x="242" y="-211.9" font-family="Helvetica,sans-Serif" font-size="12.00" fill="#000000">nc:SupervisionFacility: nc:FacilityType [0&#45;n]</text>
</a>
</g>
<g id="a_node1_3"><a xlink:href="../../nc/SupervisionMandatoryIndicator/#diagram" xlink:title="True if a supervision of a person is required; false if a supervision is optional." target="_top">
<text text-anchor="start" x="242" y="-196.9" font-family="Helvetica,sans-Serif" font-size="12.00" fill="#000000">nc:SupervisionMandatoryIndicator: niem&#45;xs:boolean [0&#45;n]</text>
</a>
</g>
<g id="a_node1_4"><a xlink:href="../../nc/SupervisionRelease/#diagram" xlink:title="A complete and unrestricted release of a subject from a supervision." target="_top">
<polygon fill="#ebebeb" stroke="transparent" points="241,-177.5 241,-192.5 547,-192.5 547,-177.5 241,-177.5"/>
<text text-anchor="start" x="242" y="-181.9" font-family="Helvetica,sans-Serif" font-size="12.00" fill="#000000">nc:SupervisionRelease: nc:ReleaseType [0&#45;n]</text>
</a>
</g>
<g id="a_node1_5"><a xlink:href="../../nc/SupervisionPerson/#diagram" xlink:title="A person who is being supervised." target="_top">
<text text-anchor="start" x="242" y="-166.9" font-family="Helvetica,sans-Serif" font-size="12.00" fill="#000000">nc:SupervisionPerson: nc:PersonType [0&#45;n]</text>
</a>
</g>
<g id="a_node1_6"><a xlink:href="../../nc/SupervisionPersonStatus/#diagram" xlink:title="A status of a person under supervision." target="_top">
<polygon fill="#ebebeb" stroke="transparent" points="241,-147.5 241,-162.5 547,-162.5 547,-147.5 241,-147.5"/>
<text text-anchor="start" x="242" y="-151.9" font-family="Helvetica,sans-Serif" font-size="12.00" fill="#000000">nc:SupervisionPersonStatus: nc:StatusType [0&#45;n]</text>
</a>
</g>
<g id="a_node1_7"><a xlink:href="../../nc/SupervisionSupervisor/#diagram" xlink:title="An entity that supervises a person." target="_top">
<text text-anchor="start" x="242" y="-136.9" font-family="Helvetica,sans-Serif" font-size="12.00" fill="#000000">nc:SupervisionSupervisor: nc:EntityType [0&#45;n]</text>
</a>
</g>
<g id="a_node1_8"><a xlink:href="../../nc/SupervisionAugmentationPoint/#diagram" xlink:title="An augmentation point for SupervisionType." target="_top">
<polygon fill="#ebebeb" stroke="transparent" points="241,-117.5 241,-132.5 547,-132.5 547,-117.5 241,-117.5"/>
<text text-anchor="start" x="242" y="-121.9" font-family="Helvetica,sans-Serif" font-size="12.00" fill="#000000">nc:SupervisionAugmentationPoint [0&#45;n]</text>
</a>
</g>
<polygon fill="#ff0000" stroke="#ff0000" points="236,-252.5 236,-252.5 552,-252.5 552,-252.5 236,-252.5"/>
<polygon fill="none" stroke="#ff0000" stroke-width="5" points="238.5,-115 238.5,-270 549.5,-270 549.5,-115 238.5,-115"/>
</g>
<!-- subst_d9e22327 -->
<g id="node2" class="node">
<title>subst_d9e22327</title>
<g id="a_node2_9"><a xlink:href="../../nc/SupervisionAugmentationPoint/#diagram" xlink:title="&lt;TABLE&gt;" target="_top">
<text text-anchor="start" x="591.5" y="-121.9" font-family="Helvetica,sans-Serif" font-weight="bold" font-size="12.00" fill="#000000">Substitution group nc:SupervisionAugmentationPoint</text>
</a>
</g>
<g id="a_node2_10"><a xlink:href="../../j/SupervisionAugmentation/#diagram" xlink:title="Additional information about a supervision." target="_top">
<polygon fill="#ebebeb" stroke="transparent" points="590.5,-101.5 590.5,-116.5 911.5,-116.5 911.5,-101.5 590.5,-101.5"/>
<text text-anchor="start" x="591.5" y="-105.9" font-family="Helvetica,sans-Serif" font-size="12.00" fill="#000000">j:SupervisionAugmentation: j:SupervisionAugmentationType</text>
</a>
</g>
<polygon fill="#000000" stroke="#000000" points="589.5,-116.5 589.5,-116.5 912.5,-116.5 912.5,-116.5 589.5,-116.5"/>
<polygon fill="none" stroke="#000000" points="589,-100.5 589,-132.5 912,-132.5 912,-100.5 589,-100.5"/>
</g>
<!-- nc:SupervisionType&#45;&gt;subst_d9e22327 -->
<g id="edge1" class="edge">
<title>nc:SupervisionType:e&#45;&gt;subst_d9e22327:w</title>
<path fill="none" stroke="#000000" d="M557.2295,-124.5C568.8951,-124.5 575.0938,-124.5 590.5,-124.5"/>
<polygon fill="#000000" stroke="#000000" points="557,-121.0001 547,-124.5 557,-128.0001 557,-121.0001"/>
</g>
<!-- DerivedTypes -->
<g id="node4" class="node">
<title>DerivedTypes</title>
<text text-anchor="start" x="326" y="-65.9" font-family="Helvetica,sans-Serif" font-weight="bold" font-size="12.00" fill="#000000">Derived types</text>
<g id="a_node4_11"><a xlink:href="../../j/IncarcerationType/#diagram" xlink:title="A data type for a confinement of a subject as sentenced by a court." target="_top">
<polygon fill="#ebebeb" stroke="transparent" points="325,-45.5 325,-60.5 464,-60.5 464,-45.5 325,-45.5"/>
<text text-anchor="start" x="326" y="-49.9" font-family="Helvetica,sans-Serif" font-size="12.00" fill="#000000">j:IncarcerationType</text>
</a>
</g>
<g id="a_node4_12"><a xlink:href="../../j/ParoleType/#diagram" xlink:title="A data type for a set of details about a subject&#39;s conditions and circumstance of parole." target="_top">
<text text-anchor="start" x="326" y="-34.9" font-family="Helvetica,sans-Serif" font-size="12.00" fill="#000000">j:ParoleType</text>
</a>
</g>
<g id="a_node4_13"><a xlink:href="../../j/SupervisedReleaseType/#diagram" xlink:title="A data type for an activity relating to the supervision of a subject based on specific conditions placed upon a subject as imposed by a court or supervising agency." target="_top">
<polygon fill="#ebebeb" stroke="transparent" points="325,-15.5 325,-30.5 464,-30.5 464,-15.5 325,-15.5"/>
<text text-anchor="start" x="326" y="-19.9" font-family="Helvetica,sans-Serif" font-size="12.00" fill="#000000">j:SupervisedReleaseType</text>
</a>
</g>
<g id="a_node4_14"><a xlink:href="../../scr/AlienDetentionType/#diagram" xlink:title="A data type that supplements information for nc:SupervisionType" target="_top">
<text text-anchor="start" x="326" y="-4.9" font-family="Helvetica,sans-Serif" font-size="12.00" fill="#000000">scr:AlienDetentionType</text>
</a>
</g>
<polygon fill="#000000" stroke="#000000" points="324,-60.5 324,-60.5 465,-60.5 465,-60.5 324,-60.5"/>
<polygon fill="none" stroke="#000000" points="323.5,0 323.5,-77 464.5,-77 464.5,0 323.5,0"/>
</g>
<!-- nc:SupervisionType&#45;&gt;DerivedTypes -->
<g id="edge3" class="edge">
<title>nc:SupervisionType&#45;&gt;DerivedTypes</title>
<path fill="none" stroke="#000000" d="M394,-112.4764C394,-103.9812 394,-95.5351 394,-87.5526"/>
<polygon fill="#000000" stroke="#000000" points="397.5001,-87.3607 394,-77.3607 390.5001,-87.3607 397.5001,-87.3607"/>
<text text-anchor="middle" x="384.5" y="-91.65" font-family="Helvetica,sans-Serif" font-size="12.00" fill="#000000">derived</text>
</g>
<!-- Properties -->
<g id="node3" class="node">
<title>Properties</title>
<text text-anchor="start" x="2.5" y="-257.9" font-family="Helvetica,sans-Serif" font-weight="bold" font-size="12.00" fill="#000000">Properties</text>
<g id="a_node3_15"><a xlink:href="../../hs/PreAdjudicationSupervision/#diagram" xlink:title="A set of details about pre&#45;adjudication information for an individual." target="_top">
<polygon fill="#ebebeb" stroke="transparent" points="1.5,-237.5 1.5,-252.5 176.5,-252.5 176.5,-237.5 1.5,-237.5"/>
<text text-anchor="start" x="2.5" y="-241.9" font-family="Helvetica,sans-Serif" font-size="12.00" fill="#000000">hs:PreAdjudicationSupervision</text>
</a>
</g>
<g id="a_node3_16"><a xlink:href="../../hs/PreTrialSupervision/#diagram" xlink:title="A set of pre&#45;trial information for an individual." target="_top">
<text text-anchor="start" x="2.5" y="-226.9" font-family="Helvetica,sans-Serif" font-size="12.00" fill="#000000">hs:PreTrialSupervision</text>
</a>
</g>
<g id="a_node3_17"><a xlink:href="../../j/Corrections/#diagram" xlink:title="An involvement of an agency or facility with the custody, confinement, supervision, or treatment of alleged or adjudicated offenders." target="_top">
<polygon fill="#ebebeb" stroke="transparent" points="1.5,-207.5 1.5,-222.5 176.5,-222.5 176.5,-207.5 1.5,-207.5"/>
<text text-anchor="start" x="2.5" y="-211.9" font-family="Helvetica,sans-Serif" font-size="12.00" fill="#000000">j:Corrections</text>
</a>
</g>
<g id="a_node3_18"><a xlink:href="../../j/Detention/#diagram" xlink:title="A mandatory confined supervision of a person." target="_top">
<text text-anchor="start" x="2.5" y="-196.9" font-family="Helvetica,sans-Serif" font-size="12.00" fill="#000000">j:Detention</text>
</a>
</g>
<g id="a_node3_19"><a xlink:href="../../j/Holding/#diagram" xlink:title="A confinement or detainment of a subject prior to court disposition." target="_top">
<polygon fill="#ebebeb" stroke="transparent" points="1.5,-177.5 1.5,-192.5 176.5,-192.5 176.5,-177.5 1.5,-177.5"/>
<text text-anchor="start" x="2.5" y="-181.9" font-family="Helvetica,sans-Serif" font-size="12.00" fill="#000000">j:Holding</text>
</a>
</g>
<g id="a_node3_20"><a xlink:href="../../j/Parole/#diagram" xlink:title="An added period of control following release from prison." target="_top">
<text text-anchor="start" x="2.5" y="-166.9" font-family="Helvetica,sans-Serif" font-size="12.00" fill="#000000">j:Parole</text>
</a>
</g>
<g id="a_node3_21"><a xlink:href="../../j/Probation/#diagram" xlink:title="A judicial requirement that a person fulfill certain conditions of behavior in lieu of jail time." target="_top">
<polygon fill="#ebebeb" stroke="transparent" points="1.5,-147.5 1.5,-162.5 176.5,-162.5 176.5,-147.5 1.5,-147.5"/>
<text text-anchor="start" x="2.5" y="-151.9" font-family="Helvetica,sans-Serif" font-size="12.00" fill="#000000">j:Probation</text>
</a>
</g>
<g id="a_node3_22"><a xlink:href="../../j/SentenceModificationProbation/#diagram" xlink:title="A modification made to a sentence that results in the probation of the offender." target="_top">
<text text-anchor="start" x="2.5" y="-136.9" font-family="Helvetica,sans-Serif" font-size="12.00" fill="#000000">j:SentenceModificationProbation</text>
</a>
</g>
<g id="a_node3_23"><a xlink:href="../../j/SubjectSupervision/#diagram" xlink:title="An incarceration, detention, or other form of supervision a subject is currently undergoing." target="_top">
<polygon fill="#ebebeb" stroke="transparent" points="1.5,-117.5 1.5,-132.5 176.5,-132.5 176.5,-117.5 1.5,-117.5"/>
<text text-anchor="start" x="2.5" y="-121.9" font-family="Helvetica,sans-Serif" font-size="12.00" fill="#000000">j:SubjectSupervision</text>
</a>
</g>
<g id="a_node3_24"><a xlink:href="../../nc/Supervision/#diagram" xlink:title="A process of overseeing, supervising, or keeping track in some capacity of a person." target="_top">
<text text-anchor="start" x="2.5" y="-106.9" font-family="Helvetica,sans-Serif" font-size="12.00" fill="#000000">nc:Supervision</text>
</a>
</g>
<polygon fill="#000000" stroke="#000000" points=".5,-252.5 .5,-252.5 177.5,-252.5 177.5,-252.5 .5,-252.5"/>
<polygon fill="none" stroke="#000000" points="0,-102 0,-269 177,-269 177,-102 0,-102"/>
</g>
<!-- Properties&#45;&gt;nc:SupervisionType -->
<g id="edge2" class="edge">
<title>Properties:top&#45;&gt;nc:SupervisionType:top</title>
<path fill="none" stroke="#000000" d="M176.5,-260.5C201.4714,-260.5 210.1284,-260.5 230.8937,-260.5"/>
<polygon fill="#000000" stroke="#000000" points="231,-264.0001 241,-260.5 231,-257.0001 231,-264.0001"/>
<text text-anchor="middle" x="206.5" y="-263.9" font-family="Helvetica,sans-Serif" font-size="12.00" fill="#000000">type</text>
</g>
<!-- nc:ActivityType -->
<g id="node5" class="node">
<title>nc:ActivityType</title>
<g id="a_node5_25"><a xlink:href="../../nc/ActivityType/#diagram" xlink:title="A data type for a single or set of related actions, events, or process steps." target="_top">
<text text-anchor="start" x="354" y="-312.9" font-family="Helvetica,sans-Serif" font-size="12.00" fill="#000000">nc:ActivityType</text>
</a>
</g>
<polygon fill="none" stroke="#000000" points="351.5,-308 351.5,-325 436.5,-325 436.5,-308 351.5,-308"/>
</g>
<!-- nc:ActivityType&#45;&gt;nc:SupervisionType -->
<g id="edge4" class="edge">
<title>nc:ActivityType&#45;&gt;nc:SupervisionType</title>
<path fill="none" stroke="#000000" d="M394,-307.725C394,-301.7024 394,-293.0203 394,-283.0842"/>
<polygon fill="#000000" stroke="#000000" points="397.5001,-282.7822 394,-272.7822 390.5001,-282.7823 397.5001,-282.7822"/>
<text text-anchor="middle" x="384.5" y="-287.15" font-family="Helvetica,sans-Serif" font-size="12.00" fill="#000000">extension</text>
</g>
<!-- structures:ObjectType -->
<g id="node6" class="node">
<title>structures:ObjectType</title>
<g id="a_node6_26"><a xlink:href="../../structures/ObjectType/#diagram" xlink:title="A data type for a thing with its own lifespan that has some existence." target="_top">
<text text-anchor="start" x="335" y="-365.9" font-family="Helvetica,sans-Serif" font-size="12.00" fill="#000000">structures:ObjectType</text>
</a>
</g>
<polygon fill="none" stroke="#000000" points="333,-361 333,-378 455,-378 455,-361 333,-361"/>
</g>
<!-- structures:ObjectType&#45;&gt;nc:ActivityType -->
<g id="edge5" class="edge">
<title>structures:ObjectType&#45;&gt;nc:ActivityType</title>
<path fill="none" stroke="#000000" d="M394,-360.911C394,-354.0124 394,-344.0696 394,-335.34"/>
<polygon fill="#000000" stroke="#000000" points="397.5001,-335.2518 394,-325.2519 390.5001,-335.2519 397.5001,-335.2518"/>
<text text-anchor="middle" x="384.5" y="-339.9" font-family="Helvetica,sans-Serif" font-size="12.00" fill="#000000">extension</text>
</g>
</g>
</svg>
