<?xml version="1.0" encoding="UTF-8" standalone="no"?>
<!DOCTYPE svg PUBLIC "-//W3C//DTD SVG 1.1//EN"
 "http://www.w3.org/Graphics/SVG/1.1/DTD/svg11.dtd">
<!-- Generated by graphviz version 2.40.1 (20161225.0304)
 -->
<!-- Title: graphic Pages: 1 -->
<svg width="756pt" height="237pt"
 viewBox="0.00 0.00 756.00 236.50" xmlns="http://www.w3.org/2000/svg" xmlns:xlink="http://www.w3.org/1999/xlink">
<g id="graph0" class="graph" transform="scale(1 1) rotate(0) translate(4 232.5)">
<title>graphic</title>
<polygon fill="#ffffff" stroke="transparent" points="-4,4 -4,-232.5 752,-232.5 752,4 -4,4"/>
<!-- j:SupervisionAssessmentType -->
<g id="node1" class="node">
<title>j:SupervisionAssessmentType</title>
<text text-anchor="start" x="309.5" y="-55.4" font-family="Helvetica,sans-Serif" font-weight="bold" font-size="12.00" fill="#000000">j:SupervisionAssessmentType</text>
<g id="a_node1_0"><a xlink:href="../../j/SupervisionAssessmentExclusionaryFactorText/#diagram" xlink:title="A kind of exclusionary factor applied to a subject." target="_top">
<polygon fill="#ebebeb" stroke="transparent" points="308.5,-35 308.5,-50 743.5,-50 743.5,-35 308.5,-35"/>
<text text-anchor="start" x="309.5" y="-39.4" font-family="Helvetica,sans-Serif" font-size="12.00" fill="#000000">j:SupervisionAssessmentExclusionaryFactorText: nc:TextType [0&#45;n]</text>
</a>
</g>
<g id="a_node1_1"><a xlink:href="../../j/SupervisionAssessmentHighRiskSexOffenderScoreValue/#diagram" xlink:title="A high risk sex offender (HRSO) score." target="_top">
<text text-anchor="start" x="309.5" y="-24.4" font-family="Helvetica,sans-Serif" font-size="12.00" fill="#000000">j:SupervisionAssessmentHighRiskSexOffenderScoreValue: nc:NumericType [0&#45;n]</text>
</a>
</g>
<g id="a_node1_2"><a xlink:href="../../j/SupervisionAssessmentAugmentationPoint/#diagram" xlink:title="An augmentation point for type j:SupervisionAssessmentType" target="_top">
<polygon fill="#ebebeb" stroke="transparent" points="308.5,-5 308.5,-20 743.5,-20 743.5,-5 308.5,-5"/>
<text text-anchor="start" x="309.5" y="-9.4" font-family="Helvetica,sans-Serif" font-size="12.00" fill="#000000">j:SupervisionAssessmentAugmentationPoint [0&#45;n]</text>
</a>
</g>
<polygon fill="#ff0000" stroke="#ff0000" points="303.5,-50 303.5,-50 748.5,-50 748.5,-50 303.5,-50"/>
<polygon fill="none" stroke="#ff0000" stroke-width="5" points="305.5,-2.5 305.5,-67.5 745.5,-67.5 745.5,-2.5 305.5,-2.5"/>
</g>
<!-- Properties -->
<g id="node2" class="node">
<title>Properties</title>
<text text-anchor="start" x="2" y="-55.4" font-family="Helvetica,sans-Serif" font-weight="bold" font-size="12.00" fill="#000000">Properties</text>
<g id="a_node2_3"><a xlink:href="../../j/SubjectAssessmentSupervisionAssessment/#diagram" xlink:title="A portion of a subject&#39;s assessment specific to issues during their supervision." target="_top">
<polygon fill="#ebebeb" stroke="transparent" points="1,-35 1,-50 243,-50 243,-35 1,-35"/>
<text text-anchor="start" x="2" y="-39.4" font-family="Helvetica,sans-Serif" font-size="12.00" fill="#000000">j:SubjectAssessmentSupervisionAssessment</text>
</a>
</g>
<polygon fill="#000000" stroke="#000000" points="0,-50 0,-50 244,-50 244,-50 0,-50"/>
<polygon fill="none" stroke="#000000" points="0,-34 0,-66 244,-66 244,-34 0,-34"/>
</g>
<!-- Properties&#45;&gt;j:SupervisionAssessmentType -->
<g id="edge1" class="edge">
<title>Properties:top&#45;&gt;j:SupervisionAssessmentType:top</title>
<path fill="none" stroke="#000000" d="M243,-58C268.3585,-58 277.1498,-58 298.2371,-58"/>
<polygon fill="#000000" stroke="#000000" points="298.5,-61.5001 308.5,-58 298.5,-54.5001 298.5,-61.5001"/>
<text text-anchor="middle" x="273.5" y="-61.4" font-family="Helvetica,sans-Serif" font-size="12.00" fill="#000000">type</text>
</g>
<!-- nc:AssessmentType -->
<g id="node3" class="node">
<title>nc:AssessmentType</title>
<g id="a_node3_4"><a xlink:href="../../nc/AssessmentType/#diagram" xlink:title="A data type for an evaluation, appraisal, or assessment of something or someone." target="_top">
<text text-anchor="start" x="471.5" y="-110.4" font-family="Helvetica,sans-Serif" font-size="12.00" fill="#000000">nc:AssessmentType</text>
</a>
</g>
<polygon fill="none" stroke="#000000" points="469,-105.5 469,-122.5 582,-122.5 582,-105.5 469,-105.5"/>
</g>
<!-- nc:AssessmentType&#45;&gt;j:SupervisionAssessmentType -->
<g id="edge2" class="edge">
<title>nc:AssessmentType&#45;&gt;j:SupervisionAssessmentType</title>
<path fill="none" stroke="#000000" d="M525.5,-105.4117C525.5,-99.1025 525.5,-89.9911 525.5,-80.4049"/>
<polygon fill="#000000" stroke="#000000" points="529.0001,-80.3408 525.5,-70.3408 522.0001,-80.3409 529.0001,-80.3408"/>
<text text-anchor="middle" x="516" y="-84.65" font-family="Helvetica,sans-Serif" font-size="12.00" fill="#000000">extension</text>
</g>
<!-- nc:ActivityType -->
<g id="node4" class="node">
<title>nc:ActivityType</title>
<g id="a_node4_5"><a xlink:href="../../nc/ActivityType/#diagram" xlink:title="A data type for a single or set of related actions, events, or process steps." target="_top">
<text text-anchor="start" x="485.5" y="-163.4" font-family="Helvetica,sans-Serif" font-size="12.00" fill="#000000">nc:ActivityType</text>
</a>
</g>
<polygon fill="none" stroke="#000000" points="483,-158.5 483,-175.5 568,-175.5 568,-158.5 483,-158.5"/>
</g>
<!-- nc:ActivityType&#45;&gt;nc:AssessmentType -->
<g id="edge3" class="edge">
<title>nc:ActivityType&#45;&gt;nc:AssessmentType</title>
<path fill="none" stroke="#000000" d="M525.5,-158.411C525.5,-151.5124 525.5,-141.5696 525.5,-132.84"/>
<polygon fill="#000000" stroke="#000000" points="529.0001,-132.7518 525.5,-122.7519 522.0001,-132.7519 529.0001,-132.7518"/>
<text text-anchor="middle" x="516" y="-137.4" font-family="Helvetica,sans-Serif" font-size="12.00" fill="#000000">extension</text>
</g>
<!-- structures:ObjectType -->
<g id="node5" class="node">
<title>structures:ObjectType</title>
<g id="a_node5_6"><a xlink:href="../../structures/ObjectType/#diagram" xlink:title="A data type for a thing with its own lifespan that has some existence." target="_top">
<text text-anchor="start" x="466.5" y="-216.4" font-family="Helvetica,sans-Serif" font-size="12.00" fill="#000000">structures:ObjectType</text>
</a>
</g>
<polygon fill="none" stroke="#000000" points="464.5,-211.5 464.5,-228.5 586.5,-228.5 586.5,-211.5 464.5,-211.5"/>
</g>
<!-- structures:ObjectType&#45;&gt;nc:ActivityType -->
<g id="edge4" class="edge">
<title>structures:ObjectType&#45;&gt;nc:ActivityType</title>
<path fill="none" stroke="#000000" d="M525.5,-211.411C525.5,-204.5124 525.5,-194.5696 525.5,-185.84"/>
<polygon fill="#000000" stroke="#000000" points="529.0001,-185.7518 525.5,-175.7519 522.0001,-185.7519 529.0001,-185.7518"/>
<text text-anchor="middle" x="516" y="-190.4" font-family="Helvetica,sans-Serif" font-size="12.00" fill="#000000">extension</text>
</g>
</g>
</svg>
