<?xml version="1.0" encoding="UTF-8" standalone="no"?>
<!DOCTYPE svg PUBLIC "-//W3C//DTD SVG 1.1//EN"
 "http://www.w3.org/Graphics/SVG/1.1/DTD/svg11.dtd">
<!-- Generated by graphviz version 2.40.1 (20161225.0304)
 -->
<!-- Title: graphic Pages: 1 -->
<svg width="425pt" height="45pt"
 viewBox="0.00 0.00 425.00 45.00" xmlns="http://www.w3.org/2000/svg" xmlns:xlink="http://www.w3.org/1999/xlink">
<g id="graph0" class="graph" transform="scale(1 1) rotate(0) translate(4 41)">
<title>graphic</title>
<polygon fill="#ffffff" stroke="transparent" points="-4,4 -4,-41 421,-41 421,4 -4,4"/>
<!-- em:ValueListURNText -->
<g id="node1" class="node">
<title>em:ValueListURNText</title>
<text text-anchor="start" x="155" y="-21.4" font-family="Helvetica,sans-Serif" font-weight="bold" font-size="12.00" fill="#000000">em:ValueListURNText</text>
<polygon fill="none" stroke="#ff0000" stroke-width="5" points="151.5,-14 151.5,-34 284.5,-34 284.5,-14 151.5,-14"/>
</g>
<!-- nc:TextType -->
<g id="node3" class="node">
<title>nc:TextType</title>
<g id="a_node3_0"><a xlink:href="../../nc/TextType/#diagram" xlink:title="A data type for a character string." target="_top">
<text text-anchor="start" x="348.5" y="-20.4" font-family="Helvetica,sans-Serif" font-size="12.00" fill="#000000">nc:TextType</text>
</a>
</g>
<polygon fill="none" stroke="#000000" points="346,-15.5 346,-32.5 417,-32.5 417,-15.5 346,-15.5"/>
</g>
<!-- em:ValueListURNText&#45;&gt;nc:TextType -->
<g id="edge2" class="edge">
<title>em:ValueListURNText&#45;&gt;nc:TextType</title>
<path fill="none" stroke="#000000" d="M287.3387,-24C303.7448,-24 320.8337,-24 335.8789,-24"/>
<polygon fill="#000000" stroke="#000000" points="335.9348,-27.5001 345.9348,-24 335.9347,-20.5001 335.9348,-27.5001"/>
<text text-anchor="middle" x="316.5" y="-27.4" font-family="Helvetica,sans-Serif" font-size="12.00" fill="#000000">type</text>
</g>
<!-- Types -->
<g id="node2" class="node">
<title>Types</title>
<text text-anchor="start" x="2" y="-21.4" font-family="Helvetica,sans-Serif" font-weight="bold" font-size="12.00" fill="#000000">Types</text>
<g id="a_node2_1"><a xlink:href="../../em/ValueType/#diagram" xlink:title="A data type of values or names from certified lists referenced by the Community of Interest (COI)" target="_top">
<polygon fill="#ebebeb" stroke="transparent" points="1,-1 1,-16 81,-16 81,-1 1,-1"/>
<text text-anchor="start" x="2" y="-5.4" font-family="Helvetica,sans-Serif" font-size="12.00" fill="#000000">em:ValueType</text>
</a>
</g>
<polygon fill="#000000" stroke="#000000" points="0,-16 0,-16 82,-16 82,-16 0,-16"/>
<polygon fill="none" stroke="#000000" points="0,0 0,-32 82,-32 82,0 0,0"/>
</g>
<!-- Types&#45;&gt;em:ValueListURNText -->
<g id="edge1" class="edge">
<title>Types:top&#45;&gt;em:ValueListURNText</title>
<path fill="none" stroke="#000000" d="M81,-24C99.6492,-24 119.7263,-24 138.6073,-24"/>
<polygon fill="#000000" stroke="#000000" points="138.6562,-27.5001 148.6562,-24 138.6561,-20.5001 138.6562,-27.5001"/>
<text text-anchor="middle" x="115.5" y="-27.4" font-family="Helvetica,sans-Serif" font-size="12.00" fill="#000000">has&#45;a</text>
</g>
</g>
</svg>
