<?xml version="1.0" encoding="UTF-8" standalone="no"?>
<!DOCTYPE svg PUBLIC "-//W3C//DTD SVG 1.1//EN"
 "http://www.w3.org/Graphics/SVG/1.1/DTD/svg11.dtd">
<!-- Generated by graphviz version 2.40.1 (20161225.0304)
 -->
<!-- Title: graphic Pages: 1 -->
<svg width="462pt" height="45pt"
 viewBox="0.00 0.00 462.00 45.00" xmlns="http://www.w3.org/2000/svg" xmlns:xlink="http://www.w3.org/1999/xlink">
<g id="graph0" class="graph" transform="scale(1 1) rotate(0) translate(4 41)">
<title>graphic</title>
<polygon fill="#ffffff" stroke="transparent" points="-4,4 -4,-41 458,-41 458,4 -4,4"/>
<!-- j:ChargeIdentification -->
<g id="node1" class="node">
<title>j:ChargeIdentification</title>
<text text-anchor="start" x="150" y="-21.4" font-family="Helvetica,sans-Serif" font-weight="bold" font-size="12.00" fill="#000000">j:ChargeIdentification</text>
<polygon fill="none" stroke="#ff0000" stroke-width="5" points="146.5,-14 146.5,-34 277.5,-34 277.5,-14 146.5,-14"/>
</g>
<!-- nc:IdentificationType -->
<g id="node3" class="node">
<title>nc:IdentificationType</title>
<g id="a_node3_0"><a xlink:href="../../nc/IdentificationType/#diagram" xlink:title="A data type for a representation of an identity." target="_top">
<text text-anchor="start" x="341.5" y="-20.4" font-family="Helvetica,sans-Serif" font-size="12.00" fill="#000000">nc:IdentificationType</text>
</a>
</g>
<polygon fill="none" stroke="#000000" points="339,-15.5 339,-32.5 454,-32.5 454,-15.5 339,-15.5"/>
</g>
<!-- j:ChargeIdentification&#45;&gt;nc:IdentificationType -->
<g id="edge2" class="edge">
<title>j:ChargeIdentification&#45;&gt;nc:IdentificationType</title>
<path fill="none" stroke="#000000" d="M280.1768,-24C296.0075,-24 312.8551,-24 328.6707,-24"/>
<polygon fill="#000000" stroke="#000000" points="328.8938,-27.5001 338.8938,-24 328.8938,-20.5001 328.8938,-27.5001"/>
<text text-anchor="middle" x="309.5" y="-27.4" font-family="Helvetica,sans-Serif" font-size="12.00" fill="#000000">type</text>
</g>
<!-- Types -->
<g id="node2" class="node">
<title>Types</title>
<text text-anchor="start" x="2.5" y="-21.4" font-family="Helvetica,sans-Serif" font-weight="bold" font-size="12.00" fill="#000000">Types</text>
<g id="a_node2_1"><a xlink:href="../../j/ChargeType/#diagram" xlink:title="A data type for a formal allegation that a specific person has committed a specific offense." target="_top">
<polygon fill="#ebebeb" stroke="transparent" points="1.5,-1 1.5,-16 76.5,-16 76.5,-1 1.5,-1"/>
<text text-anchor="start" x="2.5" y="-5.4" font-family="Helvetica,sans-Serif" font-size="12.00" fill="#000000">j:ChargeType</text>
</a>
</g>
<polygon fill="#000000" stroke="#000000" points=".5,-16 .5,-16 77.5,-16 77.5,-16 .5,-16"/>
<polygon fill="none" stroke="#000000" points="0,0 0,-32 77,-32 77,0 0,0"/>
</g>
<!-- Types&#45;&gt;j:ChargeIdentification -->
<g id="edge1" class="edge">
<title>Types:top&#45;&gt;j:ChargeIdentification</title>
<path fill="none" stroke="#000000" d="M76.5,-24C94.9592,-24 114.833,-24 133.5198,-24"/>
<polygon fill="#000000" stroke="#000000" points="133.7628,-27.5001 143.7627,-24 133.7627,-20.5001 133.7628,-27.5001"/>
<text text-anchor="middle" x="110.5" y="-27.4" font-family="Helvetica,sans-Serif" font-size="12.00" fill="#000000">has&#45;a</text>
</g>
</g>
</svg>
