<?xml version="1.0" encoding="UTF-8" standalone="no"?>
<!DOCTYPE svg PUBLIC "-//W3C//DTD SVG 1.1//EN"
 "http://www.w3.org/Graphics/SVG/1.1/DTD/svg11.dtd">
<!-- Generated by graphviz version 2.40.1 (20161225.0304)
 -->
<!-- Title: graphic Pages: 1 -->
<svg width="554pt" height="117pt"
 viewBox="0.00 0.00 554.00 116.50" xmlns="http://www.w3.org/2000/svg" xmlns:xlink="http://www.w3.org/1999/xlink">
<g id="graph0" class="graph" transform="scale(1 1) rotate(0) translate(4 112.5)">
<title>graphic</title>
<polygon fill="#ffffff" stroke="transparent" points="-4,4 -4,-112.5 550,-112.5 550,4 -4,4"/>
<!-- em:AlarmEventCategoryAbstract -->
<g id="node1" class="node">
<title>em:AlarmEventCategoryAbstract</title>
<text text-anchor="start" x="269" y="-92.9" font-family="Helvetica,sans-Serif" font-weight="bold" font-size="12.00" fill="#000000">em:AlarmEventCategoryAbstract</text>
<polygon fill="none" stroke="#ff0000" stroke-width="5" points="265,-85.5 265,-105.5 461,-105.5 461,-85.5 265,-85.5"/>
</g>
<!-- SubstitutableElements -->
<g id="node3" class="node">
<title>SubstitutableElements</title>
<text text-anchor="start" x="182" y="-35.9" font-family="Helvetica,sans-Serif" font-weight="bold" font-size="12.00" fill="#000000">Substitutable elements</text>
<g id="a_node3_0"><a xlink:href="../../em/AlarmEventCategoryCode/#diagram" xlink:title="A kind of alarm event" target="_top">
<polygon fill="#ebebeb" stroke="transparent" points="181,-15.5 181,-30.5 545,-30.5 545,-15.5 181,-15.5"/>
<text text-anchor="start" x="182" y="-19.9" font-family="Helvetica,sans-Serif" font-size="12.00" fill="#000000">em:AlarmEventCategoryCode: apco:AlarmEventCategoryCodeType</text>
</a>
</g>
<g id="a_node3_1"><a xlink:href="../../em/AlarmEventCategoryText/#diagram" xlink:title="A kind of event which resulted in an alarm" target="_top">
<text text-anchor="start" x="182" y="-4.9" font-family="Helvetica,sans-Serif" font-size="12.00" fill="#000000">em:AlarmEventCategoryText: nc:TextType</text>
</a>
</g>
<polygon fill="#000000" stroke="#000000" points="180,-30.5 180,-30.5 546,-30.5 546,-30.5 180,-30.5"/>
<polygon fill="none" stroke="#000000" points="180,0 180,-47 546,-47 546,0 180,0"/>
</g>
<!-- em:AlarmEventCategoryAbstract&#45;&gt;SubstitutableElements -->
<g id="edge2" class="edge">
<title>em:AlarmEventCategoryAbstract&#45;&gt;SubstitutableElements</title>
<path fill="none" stroke="#000000" d="M363,-72.9771C363,-64.7398 363,-55.4022 363,-47.0755"/>
<polygon fill="#000000" stroke="#000000" points="359.5001,-72.9945 363,-82.9945 366.5001,-72.9946 359.5001,-72.9945"/>
<text text-anchor="middle" x="353.5" y="-61.9" font-family="Helvetica,sans-Serif" font-size="12.00" fill="#000000">substitutable for</text>
</g>
<!-- Types -->
<g id="node2" class="node">
<title>Types</title>
<text text-anchor="start" x="2.5" y="-92.9" font-family="Helvetica,sans-Serif" font-weight="bold" font-size="12.00" fill="#000000">Types</text>
<g id="a_node2_2"><a xlink:href="../../em/AlarmEventType/#diagram" xlink:title="A data type for an alarm event" target="_top">
<polygon fill="#ebebeb" stroke="transparent" points="1.5,-72.5 1.5,-87.5 112.5,-87.5 112.5,-72.5 1.5,-72.5"/>
<text text-anchor="start" x="2.5" y="-76.9" font-family="Helvetica,sans-Serif" font-size="12.00" fill="#000000">em:AlarmEventType</text>
</a>
</g>
<polygon fill="#000000" stroke="#000000" points=".5,-87.5 .5,-87.5 113.5,-87.5 113.5,-87.5 .5,-87.5"/>
<polygon fill="none" stroke="#000000" points="0,-71.5 0,-103.5 113,-103.5 113,-71.5 0,-71.5"/>
</g>
<!-- Types&#45;&gt;em:AlarmEventCategoryAbstract -->
<g id="edge1" class="edge">
<title>Types:top&#45;&gt;em:AlarmEventCategoryAbstract</title>
<path fill="none" stroke="#000000" d="M112.5,-95.5C158.2936,-95.5 208.7961,-95.5 252.3863,-95.5"/>
<polygon fill="#000000" stroke="#000000" points="252.4414,-99.0001 262.4414,-95.5 252.4413,-92.0001 252.4414,-99.0001"/>
<text text-anchor="middle" x="146.5" y="-98.9" font-family="Helvetica,sans-Serif" font-size="12.00" fill="#000000">has&#45;a</text>
</g>
</g>
</svg>
