<?xml version="1.0" encoding="UTF-8" standalone="no"?>
<!DOCTYPE svg PUBLIC "-//W3C//DTD SVG 1.1//EN"
 "http://www.w3.org/Graphics/SVG/1.1/DTD/svg11.dtd">
<!-- Generated by graphviz version 2.40.1 (20161225.0304)
 -->
<!-- Title: graphic Pages: 1 -->
<svg width="473pt" height="45pt"
 viewBox="0.00 0.00 473.00 45.00" xmlns="http://www.w3.org/2000/svg" xmlns:xlink="http://www.w3.org/1999/xlink">
<g id="graph0" class="graph" transform="scale(1 1) rotate(0) translate(4 41)">
<title>graphic</title>
<polygon fill="#ffffff" stroke="transparent" points="-4,4 -4,-41 469,-41 469,4 -4,4"/>
<!-- em:RoleDescriptionText -->
<g id="node1" class="node">
<title>em:RoleDescriptionText</title>
<text text-anchor="start" x="190.5" y="-21.4" font-family="Helvetica,sans-Serif" font-weight="bold" font-size="12.00" fill="#000000">em:RoleDescriptionText</text>
<polygon fill="none" stroke="#ff0000" stroke-width="5" points="186.5,-14 186.5,-34 332.5,-34 332.5,-14 186.5,-14"/>
</g>
<!-- nc:TextType -->
<g id="node3" class="node">
<title>nc:TextType</title>
<g id="a_node3_0"><a xlink:href="../../nc/TextType/#diagram" xlink:title="A data type for a character string." target="_top">
<text text-anchor="start" x="396.5" y="-20.4" font-family="Helvetica,sans-Serif" font-size="12.00" fill="#000000">nc:TextType</text>
</a>
</g>
<polygon fill="none" stroke="#000000" points="394,-15.5 394,-32.5 465,-32.5 465,-15.5 394,-15.5"/>
</g>
<!-- em:RoleDescriptionText&#45;&gt;nc:TextType -->
<g id="edge2" class="edge">
<title>em:RoleDescriptionText&#45;&gt;nc:TextType</title>
<path fill="none" stroke="#000000" d="M335.0545,-24C351.6261,-24 368.6825,-24 383.6623,-24"/>
<polygon fill="#000000" stroke="#000000" points="383.6697,-27.5001 393.6697,-24 383.6697,-20.5001 383.6697,-27.5001"/>
<text text-anchor="middle" x="364.5" y="-27.4" font-family="Helvetica,sans-Serif" font-size="12.00" fill="#000000">type</text>
</g>
<!-- Types -->
<g id="node2" class="node">
<title>Types</title>
<text text-anchor="start" x="2.5" y="-21.4" font-family="Helvetica,sans-Serif" font-weight="bold" font-size="12.00" fill="#000000">Types</text>
<g id="a_node2_1"><a xlink:href="../../em/ContactRoleType/#diagram" xlink:title="A data type for the role kind of a contact" target="_top">
<polygon fill="#ebebeb" stroke="transparent" points="1.5,-1 1.5,-16 116.5,-16 116.5,-1 1.5,-1"/>
<text text-anchor="start" x="2.5" y="-5.4" font-family="Helvetica,sans-Serif" font-size="12.00" fill="#000000">em:ContactRoleType</text>
</a>
</g>
<polygon fill="#000000" stroke="#000000" points=".5,-16 .5,-16 117.5,-16 117.5,-16 .5,-16"/>
<polygon fill="none" stroke="#000000" points="0,0 0,-32 117,-32 117,0 0,0"/>
</g>
<!-- Types&#45;&gt;em:RoleDescriptionText -->
<g id="edge1" class="edge">
<title>Types:top&#45;&gt;em:RoleDescriptionText</title>
<path fill="none" stroke="#000000" d="M116.5,-24C135.0189,-24 154.8869,-24 173.7454,-24"/>
<polygon fill="#000000" stroke="#000000" points="173.8019,-27.5001 183.8018,-24 173.8018,-20.5001 173.8019,-27.5001"/>
<text text-anchor="middle" x="150.5" y="-27.4" font-family="Helvetica,sans-Serif" font-size="12.00" fill="#000000">has&#45;a</text>
</g>
</g>
</svg>
