<?xml version="1.0" encoding="UTF-8" standalone="no"?>
<!DOCTYPE svg PUBLIC "-//W3C//DTD SVG 1.1//EN"
 "http://www.w3.org/Graphics/SVG/1.1/DTD/svg11.dtd">
<!-- Generated by graphviz version 2.40.1 (20161225.0304)
 -->
<!-- Title: graphic Pages: 1 -->
<svg width="775pt" height="101pt"
 viewBox="0.00 0.00 775.00 101.00" xmlns="http://www.w3.org/2000/svg" xmlns:xlink="http://www.w3.org/1999/xlink">
<g id="graph0" class="graph" transform="scale(1 1) rotate(0) translate(4 97)">
<title>graphic</title>
<polygon fill="#ffffff" stroke="transparent" points="-4,4 -4,-97 771,-97 771,4 -4,4"/>
<!-- scr:ClassOfAdmissionClassificationAbstract -->
<g id="node1" class="node">
<title>scr:ClassOfAdmissionClassificationAbstract</title>
<text text-anchor="start" x="384.5" y="-77.4" font-family="Helvetica,sans-Serif" font-weight="bold" font-size="12.00" fill="#000000">scr:ClassOfAdmissionClassificationAbstract</text>
<polygon fill="none" stroke="#ff0000" stroke-width="5" points="381,-70 381,-90 644,-90 644,-70 381,-70"/>
</g>
<!-- SubstitutableElements -->
<g id="node3" class="node">
<title>SubstitutableElements</title>
<text text-anchor="start" x="260.5" y="-21.4" font-family="Helvetica,sans-Serif" font-weight="bold" font-size="12.00" fill="#000000">Substitutable elements</text>
<g id="a_node3_0"><a xlink:href="../../scr/ClassOfAdmissionClassificationCode/#diagram" xlink:title="A category of class of admission for a Person" target="_top">
<polygon fill="#ebebeb" stroke="transparent" points="259.5,-1 259.5,-16 766.5,-16 766.5,-1 259.5,-1"/>
<text text-anchor="start" x="260.5" y="-5.4" font-family="Helvetica,sans-Serif" font-size="12.00" fill="#000000">scr:ClassOfAdmissionClassificationCode: im:ImmigrationClassOfAdmissionCategoryCodeType</text>
</a>
</g>
<polygon fill="#000000" stroke="#000000" points="258.5,-16 258.5,-16 767.5,-16 767.5,-16 258.5,-16"/>
<polygon fill="none" stroke="#000000" points="258,0 258,-32 767,-32 767,0 258,0"/>
</g>
<!-- scr:ClassOfAdmissionClassificationAbstract&#45;&gt;SubstitutableElements -->
<g id="edge2" class="edge">
<title>scr:ClassOfAdmissionClassificationAbstract&#45;&gt;SubstitutableElements</title>
<path fill="none" stroke="#000000" d="M512.5,-57.3063C512.5,-48.9972 512.5,-39.7712 512.5,-32.1499"/>
<polygon fill="#000000" stroke="#000000" points="509.0001,-57.4892 512.5,-67.4892 516.0001,-57.4892 509.0001,-57.4892"/>
<text text-anchor="middle" x="503" y="-46.65" font-family="Helvetica,sans-Serif" font-size="12.00" fill="#000000">substitutable for</text>
</g>
<!-- Types -->
<g id="node2" class="node">
<title>Types</title>
<text text-anchor="start" x="2.5" y="-77.4" font-family="Helvetica,sans-Serif" font-weight="bold" font-size="12.00" fill="#000000">Types</text>
<g id="a_node2_1"><a xlink:href="../../scr/PersonCrossingEncounterType/#diagram" xlink:title="A data type for a Person Encounter involving the activity of a person while crossing the borders of United States." target="_top">
<polygon fill="#ebebeb" stroke="transparent" points="1.5,-57 1.5,-72 190.5,-72 190.5,-57 1.5,-57"/>
<text text-anchor="start" x="2.5" y="-61.4" font-family="Helvetica,sans-Serif" font-size="12.00" fill="#000000">scr:PersonCrossingEncounterType</text>
</a>
</g>
<g id="a_node2_2"><a xlink:href="../../scr/VisaType/#diagram" xlink:title="A data type for a travel document allowing international travelers to enter a country for a designated purpose within a designated period of time." target="_top">
<text text-anchor="start" x="2.5" y="-46.4" font-family="Helvetica,sans-Serif" font-size="12.00" fill="#000000">scr:VisaType</text>
</a>
</g>
<polygon fill="#000000" stroke="#000000" points=".5,-72 .5,-72 191.5,-72 191.5,-72 .5,-72"/>
<polygon fill="none" stroke="#000000" points="0,-41.5 0,-88.5 191,-88.5 191,-41.5 0,-41.5"/>
</g>
<!-- Types&#45;&gt;scr:ClassOfAdmissionClassificationAbstract -->
<g id="edge1" class="edge">
<title>Types:top&#45;&gt;scr:ClassOfAdmissionClassificationAbstract</title>
<path fill="none" stroke="#000000" d="M190.5,-80C248.5215,-80 312.4239,-80 367.9015,-80"/>
<polygon fill="#000000" stroke="#000000" points="368.1591,-83.5001 378.159,-80 368.159,-76.5001 368.1591,-83.5001"/>
<text text-anchor="middle" x="224.5" y="-83.4" font-family="Helvetica,sans-Serif" font-size="12.00" fill="#000000">has&#45;a</text>
</g>
</g>
</svg>
