<?xml version="1.0" encoding="UTF-8" standalone="no"?>
<!DOCTYPE svg PUBLIC "-//W3C//DTD SVG 1.1//EN"
 "http://www.w3.org/Graphics/SVG/1.1/DTD/svg11.dtd">
<!-- Generated by graphviz version 2.40.1 (20161225.0304)
 -->
<!-- Title: graphic Pages: 1 -->
<svg width="397pt" height="154pt"
 viewBox="0.00 0.00 397.00 153.50" xmlns="http://www.w3.org/2000/svg" xmlns:xlink="http://www.w3.org/1999/xlink">
<g id="graph0" class="graph" transform="scale(1 1) rotate(0) translate(4 149.5)">
<title>graphic</title>
<polygon fill="#ffffff" stroke="transparent" points="-4,4 -4,-149.5 393,-149.5 393,4 -4,4"/>
<!-- mmucc:CrashMannerCodeType -->
<g id="node1" class="node">
<title>mmucc:CrashMannerCodeType</title>
<text text-anchor="start" x="177" y="-25.4" font-family="Helvetica,sans-Serif" font-weight="bold" font-size="12.00" fill="#000000">mmucc:CrashMannerCodeType</text>
<g id="a_node1_0"><a xlink:href="../../structures/SimpleObjectAttributeGroup/#diagram" xlink:title="A group of attributes that are applicable to objects, to be used when defining a complex type that is an extension of a simple type." target="_top">
<polygon fill="#ebebeb" stroke="transparent" points="176,-5 176,-20 384,-20 384,-5 176,-5"/>
<text text-anchor="start" x="177" y="-9.4" font-family="Helvetica,sans-Serif" font-size="12.00" fill="#000000">structures:SimpleObjectAttributeGroup</text>
</a>
</g>
<polygon fill="#ff0000" stroke="#ff0000" points="171,-20 171,-20 389,-20 389,-20 171,-20"/>
<polygon fill="none" stroke="#ff0000" stroke-width="5" points="173.5,-2.5 173.5,-37.5 386.5,-37.5 386.5,-2.5 173.5,-2.5"/>
</g>
<!-- Properties -->
<g id="node2" class="node">
<title>Properties</title>
<text text-anchor="start" x="2" y="-25.4" font-family="Helvetica,sans-Serif" font-weight="bold" font-size="12.00" fill="#000000">Properties</text>
<g id="a_node2_1"><a xlink:href="../../j/CrashMannerCode/#diagram" xlink:title="A manner of crash." target="_top">
<polygon fill="#ebebeb" stroke="transparent" points="1,-5 1,-20 111,-20 111,-5 1,-5"/>
<text text-anchor="start" x="2" y="-9.4" font-family="Helvetica,sans-Serif" font-size="12.00" fill="#000000">j:CrashMannerCode</text>
</a>
</g>
<polygon fill="#000000" stroke="#000000" points="0,-20 0,-20 112,-20 112,-20 0,-20"/>
<polygon fill="none" stroke="#000000" points="0,-4 0,-36 112,-36 112,-4 0,-4"/>
</g>
<!-- Properties&#45;&gt;mmucc:CrashMannerCodeType -->
<g id="edge1" class="edge">
<title>Properties:top&#45;&gt;mmucc:CrashMannerCodeType:top</title>
<path fill="none" stroke="#000000" d="M111,-28C136.1649,-28 144.8891,-28 165.8154,-28"/>
<polygon fill="#000000" stroke="#000000" points="166,-31.5001 176,-28 166,-24.5001 166,-31.5001"/>
<text text-anchor="middle" x="141.5" y="-31.4" font-family="Helvetica,sans-Serif" font-size="12.00" fill="#000000">type</text>
</g>
<!-- mmucc:CrashMannerCodeSimpleType -->
<g id="node3" class="node">
<title>mmucc:CrashMannerCodeSimpleType</title>
<g id="a_node3_2"><a xlink:href="../../mmucc/CrashMannerCodeSimpleType/#diagram" xlink:title="A data type for a manner in which two motor vehicles in transport initially came together without regard to the direction of force." target="_top">
<text text-anchor="start" x="177" y="-80.4" font-family="Helvetica,sans-Serif" font-size="12.00" fill="#000000">mmucc:CrashMannerCodeSimpleType</text>
</a>
</g>
<polygon fill="none" stroke="#000000" points="174.5,-75.5 174.5,-92.5 385.5,-92.5 385.5,-75.5 174.5,-75.5"/>
</g>
<!-- mmucc:CrashMannerCodeSimpleType&#45;&gt;mmucc:CrashMannerCodeType -->
<g id="edge2" class="edge">
<title>mmucc:CrashMannerCodeSimpleType&#45;&gt;mmucc:CrashMannerCodeType</title>
<path fill="none" stroke="#000000" d="M280,-75.4351C280,-68.931 280,-59.5678 280,-50.3827"/>
<polygon fill="#000000" stroke="#000000" points="283.5001,-50.25 280,-40.25 276.5001,-50.25 283.5001,-50.25"/>
<text text-anchor="middle" x="270.5" y="-54.65" font-family="Helvetica,sans-Serif" font-size="12.00" fill="#000000">extension</text>
</g>
<!-- xs:token -->
<g id="node4" class="node">
<title>xs:token</title>
<g id="a_node4_3"><a xlink:href="../../xs/token/#diagram" xlink:title="&lt;TABLE&gt;" target="_top">
<text text-anchor="start" x="258" y="-133.4" font-family="Helvetica,sans-Serif" font-size="12.00" fill="#000000">xs:token</text>
</a>
</g>
<polygon fill="none" stroke="#000000" points="255.5,-128.5 255.5,-145.5 304.5,-145.5 304.5,-128.5 255.5,-128.5"/>
</g>
<!-- xs:token&#45;&gt;mmucc:CrashMannerCodeSimpleType -->
<g id="edge3" class="edge">
<title>xs:token&#45;&gt;mmucc:CrashMannerCodeSimpleType</title>
<path fill="none" stroke="#000000" d="M280,-128.411C280,-121.5124 280,-111.5696 280,-102.84"/>
<polygon fill="#000000" stroke="#000000" points="283.5001,-102.7518 280,-92.7519 276.5001,-102.7519 283.5001,-102.7518"/>
<text text-anchor="middle" x="270.5" y="-107.4" font-family="Helvetica,sans-Serif" font-size="12.00" fill="#000000">restriction</text>
</g>
</g>
</svg>
