<?xml version="1.0" encoding="UTF-8" standalone="no"?>
<!DOCTYPE svg PUBLIC "-//W3C//DTD SVG 1.1//EN"
 "http://www.w3.org/Graphics/SVG/1.1/DTD/svg11.dtd">
<!-- Generated by graphviz version 2.40.1 (20161225.0304)
 -->
<!-- Title: graphic Pages: 1 -->
<svg width="584pt" height="45pt"
 viewBox="0.00 0.00 584.00 45.00" xmlns="http://www.w3.org/2000/svg" xmlns:xlink="http://www.w3.org/1999/xlink">
<g id="graph0" class="graph" transform="scale(1 1) rotate(0) translate(4 41)">
<title>graphic</title>
<polygon fill="#ffffff" stroke="transparent" points="-4,4 -4,-41 580,-41 580,4 -4,4"/>
<!-- im:ProgramIdentification -->
<g id="node1" class="node">
<title>im:ProgramIdentification</title>
<text text-anchor="start" x="253.5" y="-21.4" font-family="Helvetica,sans-Serif" font-weight="bold" font-size="12.00" fill="#000000">im:ProgramIdentification</text>
<polygon fill="none" stroke="#ff0000" stroke-width="5" points="249.5,-14 249.5,-34 399.5,-34 399.5,-14 249.5,-14"/>
</g>
<!-- nc:IdentificationType -->
<g id="node3" class="node">
<title>nc:IdentificationType</title>
<g id="a_node3_0"><a xlink:href="../../nc/IdentificationType/#diagram" xlink:title="A data type for a representation of an identity." target="_top">
<text text-anchor="start" x="463.5" y="-20.4" font-family="Helvetica,sans-Serif" font-size="12.00" fill="#000000">nc:IdentificationType</text>
</a>
</g>
<polygon fill="none" stroke="#000000" points="461,-15.5 461,-32.5 576,-32.5 576,-15.5 461,-15.5"/>
</g>
<!-- im:ProgramIdentification&#45;&gt;nc:IdentificationType -->
<g id="edge2" class="edge">
<title>im:ProgramIdentification&#45;&gt;nc:IdentificationType</title>
<path fill="none" stroke="#000000" d="M402.0103,-24C418.1134,-24 434.964,-24 450.6865,-24"/>
<polygon fill="#000000" stroke="#000000" points="450.8363,-27.5001 460.8363,-24 450.8362,-20.5001 450.8363,-27.5001"/>
<text text-anchor="middle" x="431.5" y="-27.4" font-family="Helvetica,sans-Serif" font-size="12.00" fill="#000000">type</text>
</g>
<!-- Types -->
<g id="node2" class="node">
<title>Types</title>
<text text-anchor="start" x="2" y="-21.4" font-family="Helvetica,sans-Serif" font-weight="bold" font-size="12.00" fill="#000000">Types</text>
<g id="a_node2_1"><a xlink:href="../../im/ExchangeVisitorProgramType/#diagram" xlink:title="A data type for the educational or training program authorized for non&#45;immigrant alien exchange visitors." target="_top">
<polygon fill="#ebebeb" stroke="transparent" points="1,-1 1,-16 179,-16 179,-1 1,-1"/>
<text text-anchor="start" x="2" y="-5.4" font-family="Helvetica,sans-Serif" font-size="12.00" fill="#000000">im:ExchangeVisitorProgramType</text>
</a>
</g>
<polygon fill="#000000" stroke="#000000" points="0,-16 0,-16 180,-16 180,-16 0,-16"/>
<polygon fill="none" stroke="#000000" points="0,0 0,-32 180,-32 180,0 0,0"/>
</g>
<!-- Types&#45;&gt;im:ProgramIdentification -->
<g id="edge1" class="edge">
<title>Types:top&#45;&gt;im:ProgramIdentification</title>
<path fill="none" stroke="#000000" d="M179,-24C197.6286,-24 217.5987,-24 236.5916,-24"/>
<polygon fill="#000000" stroke="#000000" points="236.7239,-27.5001 246.7239,-24 236.7239,-20.5001 236.7239,-27.5001"/>
<text text-anchor="middle" x="213.5" y="-27.4" font-family="Helvetica,sans-Serif" font-size="12.00" fill="#000000">has&#45;a</text>
</g>
</g>
</svg>
