<?xml version="1.0" encoding="UTF-8" standalone="no"?>
<!DOCTYPE svg PUBLIC "-//W3C//DTD SVG 1.1//EN"
 "http://www.w3.org/Graphics/SVG/1.1/DTD/svg11.dtd">
<!-- Generated by graphviz version 2.40.1 (20161225.0304)
 -->
<!-- Title: graphic Pages: 1 -->
<svg width="913pt" height="143pt"
 viewBox="0.00 0.00 913.00 142.50" xmlns="http://www.w3.org/2000/svg" xmlns:xlink="http://www.w3.org/1999/xlink">
<g id="graph0" class="graph" transform="scale(1 1) rotate(0) translate(4 138.5)">
<title>graphic</title>
<polygon fill="#ffffff" stroke="transparent" points="-4,4 -4,-138.5 909,-138.5 909,4 -4,4"/>
<!-- mo:AngularMeasureAugmentationType -->
<g id="node1" class="node">
<title>mo:AngularMeasureAugmentationType</title>
<text text-anchor="start" x="252.5" y="-67.4" font-family="Helvetica,sans-Serif" font-weight="bold" font-size="12.00" fill="#000000">mo:AngularMeasureAugmentationType</text>
<g id="a_node1_0"><a xlink:href="../../mo/AngularNATOMilValue/#diagram" xlink:title="A measure of an angle in NATO Mils (there are 6400 NATO Mils in a circle)." target="_top">
<polygon fill="#ebebeb" stroke="transparent" points="251.5,-47 251.5,-62 524.5,-62 524.5,-47 251.5,-47"/>
<text text-anchor="start" x="252.5" y="-51.4" font-family="Helvetica,sans-Serif" font-size="12.00" fill="#000000">mo:AngularNATOMilValue: mo:NATOMilType [0&#45;n]</text>
</a>
</g>
<g id="a_node1_1"><a xlink:href="../../nc/AngleMeasure/#diagram" xlink:title="A measure of an angular value." target="_top">
<text text-anchor="start" x="252.5" y="-36.4" font-family="Helvetica,sans-Serif" font-size="12.00" fill="#000000">nc:AngleMeasure: nc:AngleMeasureType [0&#45;n]</text>
</a>
</g>
<g id="a_node1_2"><a xlink:href="../../mo/HorizontalAngularMeasureAbstract/#diagram" xlink:title="A data concept for an angular measure in the horizontal plane." target="_top">
<polygon fill="#ebebeb" stroke="transparent" points="251.5,-17 251.5,-32 524.5,-32 524.5,-17 251.5,-17"/>
<text text-anchor="start" x="252.5" y="-21.4" font-family="Helvetica,sans-Serif" font-size="12.00" fill="#000000">mo:HorizontalAngularMeasureAbstract [0&#45;n]</text>
</a>
</g>
<polygon fill="#ff0000" stroke="#ff0000" points="246.5,-62 246.5,-62 529.5,-62 529.5,-62 246.5,-62"/>
<polygon fill="none" stroke="#ff0000" stroke-width="5" points="248.5,-14.5 248.5,-79.5 526.5,-79.5 526.5,-14.5 248.5,-14.5"/>
</g>
<!-- subst_d9e4677 -->
<g id="node2" class="node">
<title>subst_d9e4677</title>
<g id="a_node2_3"><a xlink:href="../../mo/HorizontalAngularMeasureAbstract/#diagram" xlink:title="&lt;TABLE&gt;" target="_top">
<text text-anchor="start" x="568.5" y="-21.4" font-family="Helvetica,sans-Serif" font-weight="bold" font-size="12.00" fill="#000000">Substitution group mo:HorizontalAngularMeasureAbstract</text>
</a>
</g>
<g id="a_node2_4"><a xlink:href="../../mo/AngularMeasureCompassCode/#diagram" xlink:title="An angle characterized by one of the sixteen generalized directions based on the compass rose." target="_top">
<polygon fill="#ebebeb" stroke="transparent" points="567.5,-1 567.5,-16 904.5,-16 904.5,-1 567.5,-1"/>
<text text-anchor="start" x="568.5" y="-5.4" font-family="Helvetica,sans-Serif" font-size="12.00" fill="#000000">mo:AngularMeasureCompassCode: nc:DirectionCodeType</text>
</a>
</g>
<polygon fill="#000000" stroke="#000000" points="566.5,-16 566.5,-16 905.5,-16 905.5,-16 566.5,-16"/>
<polygon fill="none" stroke="#000000" points="566,0 566,-32 905,-32 905,0 566,0"/>
</g>
<!-- mo:AngularMeasureAugmentationType&#45;&gt;subst_d9e4677 -->
<g id="edge1" class="edge">
<title>mo:AngularMeasureAugmentationType:e&#45;&gt;subst_d9e4677:w</title>
<path fill="none" stroke="#000000" d="M534.6119,-24C546.1435,-24 552.2708,-24 567.5,-24"/>
<polygon fill="#000000" stroke="#000000" points="534.5,-20.5001 524.5,-24 534.5,-27.5001 534.5,-20.5001"/>
</g>
<!-- Properties -->
<g id="node3" class="node">
<title>Properties</title>
<text text-anchor="start" x="2.5" y="-67.4" font-family="Helvetica,sans-Serif" font-weight="bold" font-size="12.00" fill="#000000">Properties</text>
<g id="a_node3_5"><a xlink:href="../../mo/AngularMeasureAugmentation/#diagram" xlink:title="Additional information about an angular measure." target="_top">
<polygon fill="#ebebeb" stroke="transparent" points="1.5,-47 1.5,-62 186.5,-62 186.5,-47 1.5,-47"/>
<text text-anchor="start" x="2.5" y="-51.4" font-family="Helvetica,sans-Serif" font-size="12.00" fill="#000000">mo:AngularMeasureAugmentation</text>
</a>
</g>
<polygon fill="#000000" stroke="#000000" points=".5,-62 .5,-62 187.5,-62 187.5,-62 .5,-62"/>
<polygon fill="none" stroke="#000000" points="0,-46 0,-78 187,-78 187,-46 0,-46"/>
</g>
<!-- Properties&#45;&gt;mo:AngularMeasureAugmentationType -->
<g id="edge2" class="edge">
<title>Properties:top&#45;&gt;mo:AngularMeasureAugmentationType:top</title>
<path fill="none" stroke="#000000" d="M186.5,-70C211.6649,-70 220.3891,-70 241.3154,-70"/>
<polygon fill="#000000" stroke="#000000" points="241.5,-73.5001 251.5,-70 241.5,-66.5001 241.5,-73.5001"/>
<text text-anchor="middle" x="216.5" y="-73.4" font-family="Helvetica,sans-Serif" font-size="12.00" fill="#000000">type</text>
</g>
<!-- structures:AugmentationType -->
<g id="node4" class="node">
<title>structures:AugmentationType</title>
<g id="a_node4_6"><a xlink:href="../../structures/AugmentationType/#diagram" xlink:title="A data type for a set of properties to be applied to a base type." target="_top">
<text text-anchor="start" x="309.5" y="-122.4" font-family="Helvetica,sans-Serif" font-size="12.00" fill="#000000">structures:AugmentationType</text>
</a>
</g>
<polygon fill="none" stroke="#000000" points="307,-117.5 307,-134.5 468,-134.5 468,-117.5 307,-117.5"/>
</g>
<!-- structures:AugmentationType&#45;&gt;mo:AngularMeasureAugmentationType -->
<g id="edge3" class="edge">
<title>structures:AugmentationType&#45;&gt;mo:AngularMeasureAugmentationType</title>
<path fill="none" stroke="#000000" d="M387.5,-117.4117C387.5,-111.1025 387.5,-101.9911 387.5,-92.4049"/>
<polygon fill="#000000" stroke="#000000" points="391.0001,-92.3408 387.5,-82.3408 384.0001,-92.3409 391.0001,-92.3408"/>
<text text-anchor="middle" x="378" y="-96.65" font-family="Helvetica,sans-Serif" font-size="12.00" fill="#000000">extension</text>
</g>
</g>
</svg>
