<?xml version="1.0" encoding="UTF-8" standalone="no"?>
<!DOCTYPE svg PUBLIC "-//W3C//DTD SVG 1.1//EN"
 "http://www.w3.org/Graphics/SVG/1.1/DTD/svg11.dtd">
<!-- Generated by graphviz version 2.40.1 (20161225.0304)
 -->
<!-- Title: graphic Pages: 1 -->
<svg width="693pt" height="45pt"
 viewBox="0.00 0.00 693.00 45.00" xmlns="http://www.w3.org/2000/svg" xmlns:xlink="http://www.w3.org/1999/xlink">
<g id="graph0" class="graph" transform="scale(1 1) rotate(0) translate(4 41)">
<title>graphic</title>
<polygon fill="#ffffff" stroke="transparent" points="-4,4 -4,-41 689,-41 689,4 -4,4"/>
<!-- j:RegisteredOffenderNonExpiringRegistrationIndicator -->
<g id="node1" class="node">
<title>j:RegisteredOffenderNonExpiringRegistrationIndicator</title>
<text text-anchor="start" x="215" y="-21.4" font-family="Helvetica,sans-Serif" font-weight="bold" font-size="12.00" fill="#000000">j:RegisteredOffenderNonExpiringRegistrationIndicator</text>
<polygon fill="none" stroke="#ff0000" stroke-width="5" points="211.5,-14 211.5,-34 530.5,-34 530.5,-14 211.5,-14"/>
</g>
<!-- niem&#45;xs:boolean -->
<g id="node3" class="node">
<title>niem&#45;xs:boolean</title>
<g id="a_node3_0"><a xlink:href="../../niem-xs/boolean/#diagram" xlink:title="A data type for binary&#45;valued logic (true/false)." target="_top">
<text text-anchor="start" x="594.5" y="-20.4" font-family="Helvetica,sans-Serif" font-size="12.00" fill="#000000">niem&#45;xs:boolean</text>
</a>
</g>
<polygon fill="none" stroke="#000000" points="592,-15.5 592,-32.5 685,-32.5 685,-15.5 592,-15.5"/>
</g>
<!-- j:RegisteredOffenderNonExpiringRegistrationIndicator&#45;&gt;niem&#45;xs:boolean -->
<g id="edge2" class="edge">
<title>j:RegisteredOffenderNonExpiringRegistrationIndicator&#45;&gt;niem&#45;xs:boolean</title>
<path fill="none" stroke="#000000" d="M533.1609,-24C550.3768,-24 566.9344,-24 581.6201,-24"/>
<polygon fill="#000000" stroke="#000000" points="581.9654,-27.5001 591.9654,-24 581.9653,-20.5001 581.9654,-27.5001"/>
<text text-anchor="middle" x="562.5" y="-27.4" font-family="Helvetica,sans-Serif" font-size="12.00" fill="#000000">type</text>
</g>
<!-- Types -->
<g id="node2" class="node">
<title>Types</title>
<text text-anchor="start" x="2" y="-21.4" font-family="Helvetica,sans-Serif" font-weight="bold" font-size="12.00" fill="#000000">Types</text>
<g id="a_node2_1"><a xlink:href="../../j/RegisteredOffenderType/#diagram" xlink:title="A data type for information about a person who is required to register information with a law enforcement agency due to having been convicted of a certain type of crime." target="_top">
<polygon fill="#ebebeb" stroke="transparent" points="1,-1 1,-16 141,-16 141,-1 1,-1"/>
<text text-anchor="start" x="2" y="-5.4" font-family="Helvetica,sans-Serif" font-size="12.00" fill="#000000">j:RegisteredOffenderType</text>
</a>
</g>
<polygon fill="#000000" stroke="#000000" points="0,-16 0,-16 142,-16 142,-16 0,-16"/>
<polygon fill="none" stroke="#000000" points="0,0 0,-32 142,-32 142,0 0,0"/>
</g>
<!-- Types&#45;&gt;j:RegisteredOffenderNonExpiringRegistrationIndicator -->
<g id="edge1" class="edge">
<title>Types:top&#45;&gt;j:RegisteredOffenderNonExpiringRegistrationIndicator</title>
<path fill="none" stroke="#000000" d="M141,-24C159.7019,-24 179.2591,-24 198.7327,-24"/>
<polygon fill="#000000" stroke="#000000" points="198.9037,-27.5001 208.9036,-24 198.9036,-20.5001 198.9037,-27.5001"/>
<text text-anchor="middle" x="175.5" y="-27.4" font-family="Helvetica,sans-Serif" font-size="12.00" fill="#000000">has&#45;a</text>
</g>
</g>
</svg>
