<?xml version="1.0" encoding="UTF-8" standalone="no"?>
<!DOCTYPE svg PUBLIC "-//W3C//DTD SVG 1.1//EN"
 "http://www.w3.org/Graphics/SVG/1.1/DTD/svg11.dtd">
<!-- Generated by graphviz version 2.40.1 (20161225.0304)
 -->
<!-- Title: graphic Pages: 1 -->
<svg width="603pt" height="45pt"
 viewBox="0.00 0.00 603.00 45.00" xmlns="http://www.w3.org/2000/svg" xmlns:xlink="http://www.w3.org/1999/xlink">
<g id="graph0" class="graph" transform="scale(1 1) rotate(0) translate(4 41)">
<title>graphic</title>
<polygon fill="#ffffff" stroke="transparent" points="-4,4 -4,-41 599,-41 599,4 -4,4"/>
<!-- em:PersonEmploymentExperienceText -->
<g id="node1" class="node">
<title>em:PersonEmploymentExperienceText</title>
<text text-anchor="start" x="236.5" y="-21.4" font-family="Helvetica,sans-Serif" font-weight="bold" font-size="12.00" fill="#000000">em:PersonEmploymentExperienceText</text>
<polygon fill="none" stroke="#ff0000" stroke-width="5" points="232.5,-14 232.5,-34 462.5,-34 462.5,-14 232.5,-14"/>
</g>
<!-- nc:TextType -->
<g id="node3" class="node">
<title>nc:TextType</title>
<g id="a_node3_0"><a xlink:href="../../nc/TextType/#diagram" xlink:title="A data type for a character string." target="_top">
<text text-anchor="start" x="526.5" y="-20.4" font-family="Helvetica,sans-Serif" font-size="12.00" fill="#000000">nc:TextType</text>
</a>
</g>
<polygon fill="none" stroke="#000000" points="524,-15.5 524,-32.5 595,-32.5 595,-15.5 524,-15.5"/>
</g>
<!-- em:PersonEmploymentExperienceText&#45;&gt;nc:TextType -->
<g id="edge2" class="edge">
<title>em:PersonEmploymentExperienceText&#45;&gt;nc:TextType</title>
<path fill="none" stroke="#000000" d="M465.2791,-24C482.4578,-24 499.2187,-24 513.7268,-24"/>
<polygon fill="#000000" stroke="#000000" points="513.8666,-27.5001 523.8666,-24 513.8665,-20.5001 513.8666,-27.5001"/>
<text text-anchor="middle" x="494.5" y="-27.4" font-family="Helvetica,sans-Serif" font-size="12.00" fill="#000000">type</text>
</g>
<!-- Types -->
<g id="node2" class="node">
<title>Types</title>
<text text-anchor="start" x="2.5" y="-21.4" font-family="Helvetica,sans-Serif" font-weight="bold" font-size="12.00" fill="#000000">Types</text>
<g id="a_node2_1"><a xlink:href="../../em/PersonAugmentationType/#diagram" xlink:title="A data type for additional information about a person." target="_top">
<polygon fill="#ebebeb" stroke="transparent" points="1.5,-1 1.5,-16 162.5,-16 162.5,-1 1.5,-1"/>
<text text-anchor="start" x="2.5" y="-5.4" font-family="Helvetica,sans-Serif" font-size="12.00" fill="#000000">em:PersonAugmentationType</text>
</a>
</g>
<polygon fill="#000000" stroke="#000000" points=".5,-16 .5,-16 163.5,-16 163.5,-16 .5,-16"/>
<polygon fill="none" stroke="#000000" points="0,0 0,-32 163,-32 163,0 0,0"/>
</g>
<!-- Types&#45;&gt;em:PersonEmploymentExperienceText -->
<g id="edge1" class="edge">
<title>Types:top&#45;&gt;em:PersonEmploymentExperienceText</title>
<path fill="none" stroke="#000000" d="M162.5,-24C180.8769,-24 200.2807,-24 219.3343,-24"/>
<polygon fill="#000000" stroke="#000000" points="219.5655,-27.5001 229.5655,-24 219.5654,-20.5001 219.5655,-27.5001"/>
<text text-anchor="middle" x="196.5" y="-27.4" font-family="Helvetica,sans-Serif" font-size="12.00" fill="#000000">has&#45;a</text>
</g>
</g>
</svg>
