<?xml version="1.0" encoding="UTF-8" standalone="no"?>
<!DOCTYPE svg PUBLIC "-//W3C//DTD SVG 1.1//EN"
 "http://www.w3.org/Graphics/SVG/1.1/DTD/svg11.dtd">
<!-- Generated by graphviz version 2.40.1 (20161225.0304)
 -->
<!-- Title: graphic Pages: 1 -->
<svg width="1182pt" height="267pt"
 viewBox="0.00 0.00 1182.00 266.50" xmlns="http://www.w3.org/2000/svg" xmlns:xlink="http://www.w3.org/1999/xlink">
<g id="graph0" class="graph" transform="scale(1 1) rotate(0) translate(4 262.5)">
<title>graphic</title>
<polygon fill="#ffffff" stroke="transparent" points="-4,4 -4,-262.5 1178,-262.5 1178,4 -4,4"/>
<!-- biom:FingerprintImageType -->
<g id="node1" class="node">
<title>biom:FingerprintImageType</title>
<text text-anchor="start" x="190.5" y="-85.4" font-family="Helvetica,sans-Serif" font-weight="bold" font-size="12.00" fill="#000000">biom:FingerprintImageType</text>
<g id="a_node1_0"><a xlink:href="../../biom/FingerprintImagePosition/#diagram" xlink:title="A set of possible finger position codes, most probable position first." target="_top">
<polygon fill="#ebebeb" stroke="transparent" points="189.5,-65 189.5,-80 574.5,-80 574.5,-65 189.5,-65"/>
<text text-anchor="start" x="190.5" y="-69.4" font-family="Helvetica,sans-Serif" font-size="12.00" fill="#000000">biom:FingerprintImagePosition: biom:FingerprintPositionListType [0&#45;n]</text>
</a>
</g>
<g id="a_node1_1"><a xlink:href="../../biom/FrictionRidgeImageImpressionCaptureCategoryAbstract/#diagram" xlink:title="A data concept for a kind of impression capture by which a fingerprint image information was obtained" target="_top">
<text text-anchor="start" x="190.5" y="-54.4" font-family="Helvetica,sans-Serif" font-size="12.00" fill="#000000">biom:FrictionRidgeImageImpressionCaptureCategoryAbstract [0&#45;n]</text>
</a>
</g>
<g id="a_node1_2"><a xlink:href="../../biom/FingerprintImpressionCategoryDescriptionText/#diagram" xlink:title="A description of a kind of fingerprint impression." target="_top">
<polygon fill="#ebebeb" stroke="transparent" points="189.5,-35 189.5,-50 574.5,-50 574.5,-35 189.5,-35"/>
<text text-anchor="start" x="190.5" y="-39.4" font-family="Helvetica,sans-Serif" font-size="12.00" fill="#000000">biom:FingerprintImpressionCategoryDescriptionText: nc:TextType [0&#45;n]</text>
</a>
</g>
<g id="a_node1_3"><a xlink:href="../../biom/SubjectExistentialDetails/#diagram" xlink:title="An optional field. This field is particularly useful if the image contained in this record is of an injury or latent image on a person. However, its use is not limited to such circumstances. Note that Field 10.041: SMT size or size of injury" target="_top">
<text text-anchor="start" x="190.5" y="-24.4" font-family="Helvetica,sans-Serif" font-size="12.00" fill="#000000">biom:SubjectExistentialDetails: biom:SubjectExistentialDetailsType [0&#45;n]</text>
</a>
</g>
<g id="a_node1_4"><a xlink:href="../../biom/FingerprintImageAugmentationPoint/#diagram" xlink:title="An augmentation point for FingerprintImageType." target="_top">
<polygon fill="#ebebeb" stroke="transparent" points="189.5,-5 189.5,-20 574.5,-20 574.5,-5 189.5,-5"/>
<text text-anchor="start" x="190.5" y="-9.4" font-family="Helvetica,sans-Serif" font-size="12.00" fill="#000000">biom:FingerprintImageAugmentationPoint [0&#45;n]</text>
</a>
</g>
<polygon fill="#ff0000" stroke="#ff0000" points="184.5,-80 184.5,-80 579.5,-80 579.5,-80 184.5,-80"/>
<polygon fill="none" stroke="#ff0000" stroke-width="5" points="186.5,-2.5 186.5,-97.5 576.5,-97.5 576.5,-2.5 186.5,-2.5"/>
</g>
<!-- subst_d9e25307 -->
<g id="node2" class="node">
<title>subst_d9e25307</title>
<g id="a_node2_5"><a xlink:href="../../biom/FrictionRidgeImageImpressionCaptureCategoryAbstract/#diagram" xlink:title="&lt;TABLE&gt;" target="_top">
<text text-anchor="start" x="618" y="-55.4" font-family="Helvetica,sans-Serif" font-weight="bold" font-size="12.00" fill="#000000">Substitution group biom:FrictionRidgeImageImpressionCaptureCategoryAbstract</text>
</a>
</g>
<g id="a_node2_6"><a xlink:href="../../biom/FingerprintImageImpressionCaptureCategoryCode/#diagram" xlink:title="A kind of impression capture by which a fingerprint image information was obtained" target="_top">
<polygon fill="#ebebeb" stroke="transparent" points="617,-35 617,-50 1173,-50 1173,-35 617,-35"/>
<text text-anchor="start" x="618" y="-39.4" font-family="Helvetica,sans-Serif" font-size="12.00" fill="#000000">biom:FingerprintImageImpressionCaptureCategoryCode: biom:ImpressionCaptureCategoryCodeType</text>
</a>
</g>
<g id="a_node2_7"><a xlink:href="../../biom/FrictionRidgeImageImpressionCaptureCategoryCode/#diagram" xlink:title="A kind of impression capture by which friction ridge image information was obtained" target="_top">
<text text-anchor="start" x="618" y="-24.4" font-family="Helvetica,sans-Serif" font-size="12.00" fill="#000000">biom:FrictionRidgeImageImpressionCaptureCategoryCode: biom:ImpressionCaptureCategoryCodeType</text>
</a>
</g>
<g id="a_node2_8"><a xlink:href="../../biom/FrictionRidgeImpressionCaptureCode/#diagram" xlink:title="A method used to capture a friction ridge impression. Conforms to ITL 2015." target="_top">
<polygon fill="#ebebeb" stroke="transparent" points="617,-5 617,-20 1173,-20 1173,-5 617,-5"/>
<text text-anchor="start" x="618" y="-9.4" font-family="Helvetica,sans-Serif" font-size="12.00" fill="#000000">biom:FrictionRidgeImpressionCaptureCode: biom:ImpressionCaptureCodeType</text>
</a>
</g>
<polygon fill="#000000" stroke="#000000" points="616,-50 616,-50 1174,-50 1174,-50 616,-50"/>
<polygon fill="none" stroke="#000000" points="616,-4 616,-66 1174,-66 1174,-4 616,-4"/>
</g>
<!-- biom:FingerprintImageType&#45;&gt;subst_d9e25307 -->
<g id="edge1" class="edge">
<title>biom:FingerprintImageType:e&#45;&gt;subst_d9e25307:w</title>
<path fill="none" stroke="#000000" d="M584.828,-58C596.0114,-58 602.0955,-58 617,-58"/>
<polygon fill="#000000" stroke="#000000" points="584.5,-54.5001 574.5,-58 584.5,-61.5001 584.5,-54.5001"/>
</g>
<!-- Properties -->
<g id="node3" class="node">
<title>Properties</title>
<text text-anchor="start" x="2.5" y="-85.4" font-family="Helvetica,sans-Serif" font-weight="bold" font-size="12.00" fill="#000000">Properties</text>
<g id="a_node3_9"><a xlink:href="../../biom/FingerprintImage/#diagram" xlink:title="An image of a fingerprint" target="_top">
<polygon fill="#ebebeb" stroke="transparent" points="1.5,-65 1.5,-80 124.5,-80 124.5,-65 1.5,-65"/>
<text text-anchor="start" x="2.5" y="-69.4" font-family="Helvetica,sans-Serif" font-size="12.00" fill="#000000">biom:FingerprintImage</text>
</a>
</g>
<polygon fill="#000000" stroke="#000000" points=".5,-80 .5,-80 125.5,-80 125.5,-80 .5,-80"/>
<polygon fill="none" stroke="#000000" points="0,-64 0,-96 125,-96 125,-64 0,-64"/>
</g>
<!-- Properties&#45;&gt;biom:FingerprintImageType -->
<g id="edge2" class="edge">
<title>Properties:top&#45;&gt;biom:FingerprintImageType:top</title>
<path fill="none" stroke="#000000" d="M124.5,-88C149.6649,-88 158.3891,-88 179.3154,-88"/>
<polygon fill="#000000" stroke="#000000" points="179.5,-91.5001 189.5,-88 179.5,-84.5001 179.5,-91.5001"/>
<text text-anchor="middle" x="154.5" y="-91.4" font-family="Helvetica,sans-Serif" font-size="12.00" fill="#000000">type</text>
</g>
<!-- nc:ImageType -->
<g id="node4" class="node">
<title>nc:ImageType</title>
<g id="a_node4_10"><a xlink:href="../../nc/ImageType/#diagram" xlink:title="A data type for a picture or visual representation of something." target="_top">
<text text-anchor="start" x="343.5" y="-140.4" font-family="Helvetica,sans-Serif" font-size="12.00" fill="#000000">nc:ImageType</text>
</a>
</g>
<polygon fill="none" stroke="#000000" points="341,-135.5 341,-152.5 422,-152.5 422,-135.5 341,-135.5"/>
</g>
<!-- nc:ImageType&#45;&gt;biom:FingerprintImageType -->
<g id="edge3" class="edge">
<title>nc:ImageType&#45;&gt;biom:FingerprintImageType</title>
<path fill="none" stroke="#000000" d="M381.5,-135.375C381.5,-129.1263 381.5,-120.0624 381.5,-110.15"/>
<polygon fill="#000000" stroke="#000000" points="385.0001,-110.0274 381.5,-100.0274 378.0001,-110.0275 385.0001,-110.0274"/>
<text text-anchor="middle" x="372" y="-114.65" font-family="Helvetica,sans-Serif" font-size="12.00" fill="#000000">extension</text>
</g>
<!-- nc:BinaryType -->
<g id="node5" class="node">
<title>nc:BinaryType</title>
<g id="a_node5_11"><a xlink:href="../../nc/BinaryType/#diagram" xlink:title="A data type for a digital representation of an object encoded in a binary format." target="_top">
<text text-anchor="start" x="343.5" y="-193.4" font-family="Helvetica,sans-Serif" font-size="12.00" fill="#000000">nc:BinaryType</text>
</a>
</g>
<polygon fill="none" stroke="#000000" points="341,-188.5 341,-205.5 422,-205.5 422,-188.5 341,-188.5"/>
</g>
<!-- nc:BinaryType&#45;&gt;nc:ImageType -->
<g id="edge4" class="edge">
<title>nc:BinaryType&#45;&gt;nc:ImageType</title>
<path fill="none" stroke="#000000" d="M381.5,-188.411C381.5,-181.5124 381.5,-171.5696 381.5,-162.84"/>
<polygon fill="#000000" stroke="#000000" points="385.0001,-162.7518 381.5,-152.7519 378.0001,-162.7519 385.0001,-162.7518"/>
<text text-anchor="middle" x="372" y="-167.4" font-family="Helvetica,sans-Serif" font-size="12.00" fill="#000000">extension</text>
</g>
<!-- structures:ObjectType -->
<g id="node6" class="node">
<title>structures:ObjectType</title>
<g id="a_node6_12"><a xlink:href="../../structures/ObjectType/#diagram" xlink:title="A data type for a thing with its own lifespan that has some existence." target="_top">
<text text-anchor="start" x="322.5" y="-246.4" font-family="Helvetica,sans-Serif" font-size="12.00" fill="#000000">structures:ObjectType</text>
</a>
</g>
<polygon fill="none" stroke="#000000" points="320.5,-241.5 320.5,-258.5 442.5,-258.5 442.5,-241.5 320.5,-241.5"/>
</g>
<!-- structures:ObjectType&#45;&gt;nc:BinaryType -->
<g id="edge5" class="edge">
<title>structures:ObjectType&#45;&gt;nc:BinaryType</title>
<path fill="none" stroke="#000000" d="M381.5,-241.411C381.5,-234.5124 381.5,-224.5696 381.5,-215.84"/>
<polygon fill="#000000" stroke="#000000" points="385.0001,-215.7518 381.5,-205.7519 378.0001,-215.7519 385.0001,-215.7518"/>
<text text-anchor="middle" x="372" y="-220.4" font-family="Helvetica,sans-Serif" font-size="12.00" fill="#000000">extension</text>
</g>
</g>
</svg>
