<?xml version="1.0" encoding="UTF-8" standalone="no"?>
<!DOCTYPE svg PUBLIC "-//W3C//DTD SVG 1.1//EN"
 "http://www.w3.org/Graphics/SVG/1.1/DTD/svg11.dtd">
<!-- Generated by graphviz version 2.40.1 (20161225.0304)
 -->
<!-- Title: graphic Pages: 1 -->
<svg width="455pt" height="222pt"
 viewBox="0.00 0.00 455.00 222.00" xmlns="http://www.w3.org/2000/svg" xmlns:xlink="http://www.w3.org/1999/xlink">
<g id="graph0" class="graph" transform="scale(1 1) rotate(0) translate(4 218)">
<title>graphic</title>
<polygon fill="#ffffff" stroke="transparent" points="-4,4 -4,-218 451,-218 451,4 -4,4"/>
<!-- stat:UnitDataPointType -->
<g id="node1" class="node">
<title>stat:UnitDataPointType</title>
<text text-anchor="start" x="166.5" y="-39.9" font-family="Helvetica,sans-Serif" font-weight="bold" font-size="12.00" fill="#000000">stat:UnitDataPointType</text>
<g id="a_node1_0"><a xlink:href="../../stat/UnitDataPointObservedUnit/#diagram" xlink:title="A unit observed by a unit data point." target="_top">
<polygon fill="#ebebeb" stroke="transparent" points="165.5,-19.5 165.5,-34.5 442.5,-34.5 442.5,-19.5 165.5,-19.5"/>
<text text-anchor="start" x="166.5" y="-23.9" font-family="Helvetica,sans-Serif" font-size="12.00" fill="#000000">stat:UnitDataPointObservedUnit: stat:UnitType [0&#45;n]</text>
</a>
</g>
<g id="a_node1_1"><a xlink:href="../../stat/UnitDataPointAugmentationPoint/#diagram" xlink:title="An augmentation point for type stat:UnitDataPointType" target="_top">
<text text-anchor="start" x="166.5" y="-8.9" font-family="Helvetica,sans-Serif" font-size="12.00" fill="#000000">stat:UnitDataPointAugmentationPoint [0&#45;n]</text>
</a>
</g>
<polygon fill="#ff0000" stroke="#ff0000" points="160.5,-34.5 160.5,-34.5 447.5,-34.5 447.5,-34.5 160.5,-34.5"/>
<polygon fill="none" stroke="#ff0000" stroke-width="5" points="162.5,-2.5 162.5,-52.5 444.5,-52.5 444.5,-2.5 162.5,-2.5"/>
</g>
<!-- Properties -->
<g id="node2" class="node">
<title>Properties</title>
<text text-anchor="start" x="2.5" y="-39.9" font-family="Helvetica,sans-Serif" font-weight="bold" font-size="12.00" fill="#000000">Properties</text>
<g id="a_node2_2"><a xlink:href="../../stat/UnitDataPoint/#diagram" xlink:title="A placeholder (or cell) for the value of an instance variable with respect to a Unit." target="_top">
<polygon fill="#ebebeb" stroke="transparent" points="1.5,-19.5 1.5,-34.5 100.5,-34.5 100.5,-19.5 1.5,-19.5"/>
<text text-anchor="start" x="2.5" y="-23.9" font-family="Helvetica,sans-Serif" font-size="12.00" fill="#000000">stat:UnitDataPoint</text>
</a>
</g>
<polygon fill="#000000" stroke="#000000" points=".5,-34.5 .5,-34.5 101.5,-34.5 101.5,-34.5 .5,-34.5"/>
<polygon fill="none" stroke="#000000" points="0,-18.5 0,-50.5 101,-50.5 101,-18.5 0,-18.5"/>
</g>
<!-- Properties&#45;&gt;stat:UnitDataPointType -->
<g id="edge1" class="edge">
<title>Properties:top&#45;&gt;stat:UnitDataPointType:top</title>
<path fill="none" stroke="#000000" d="M100.5,-42.5C125.6649,-42.5 134.3891,-42.5 155.3154,-42.5"/>
<polygon fill="#000000" stroke="#000000" points="155.5,-46.0001 165.5,-42.5 155.5,-39.0001 155.5,-46.0001"/>
<text text-anchor="middle" x="130.5" y="-45.9" font-family="Helvetica,sans-Serif" font-size="12.00" fill="#000000">type</text>
</g>
<!-- stat:DataPointType -->
<g id="node3" class="node">
<title>stat:DataPointType</title>
<g id="a_node3_3"><a xlink:href="../../stat/DataPointType/#diagram" xlink:title="A data type for a placeholder (or cell) for the value of an instance variable." target="_top">
<text text-anchor="start" x="252.5" y="-95.9" font-family="Helvetica,sans-Serif" font-size="12.00" fill="#000000">stat:DataPointType</text>
</a>
</g>
<polygon fill="none" stroke="#000000" points="250,-91 250,-108 357,-108 357,-91 250,-91"/>
</g>
<!-- stat:DataPointType&#45;&gt;stat:UnitDataPointType -->
<g id="edge2" class="edge">
<title>stat:DataPointType&#45;&gt;stat:UnitDataPointType</title>
<path fill="none" stroke="#000000" d="M303.5,-90.8151C303.5,-84.3271 303.5,-74.9677 303.5,-65.4273"/>
<polygon fill="#000000" stroke="#000000" points="307.0001,-65.1311 303.5,-55.1312 300.0001,-65.1312 307.0001,-65.1311"/>
<text text-anchor="middle" x="294" y="-69.9" font-family="Helvetica,sans-Serif" font-size="12.00" fill="#000000">extension</text>
</g>
<!-- stat:IdentifiableArtifactType -->
<g id="node4" class="node">
<title>stat:IdentifiableArtifactType</title>
<g id="a_node4_4"><a xlink:href="../../stat/IdentifiableArtifactType/#diagram" xlink:title="A data type for an abstract class that comprises the basic attributes and associations needed for identification, naming and other documentation." target="_top">
<text text-anchor="start" x="231.5" y="-148.9" font-family="Helvetica,sans-Serif" font-size="12.00" fill="#000000">stat:IdentifiableArtifactType</text>
</a>
</g>
<polygon fill="none" stroke="#000000" points="229,-144 229,-161 378,-161 378,-144 229,-144"/>
</g>
<!-- stat:IdentifiableArtifactType&#45;&gt;stat:DataPointType -->
<g id="edge3" class="edge">
<title>stat:IdentifiableArtifactType&#45;&gt;stat:DataPointType</title>
<path fill="none" stroke="#000000" d="M303.5,-143.911C303.5,-137.0124 303.5,-127.0696 303.5,-118.34"/>
<polygon fill="#000000" stroke="#000000" points="307.0001,-118.2518 303.5,-108.2519 300.0001,-118.2519 307.0001,-118.2518"/>
<text text-anchor="middle" x="294" y="-122.9" font-family="Helvetica,sans-Serif" font-size="12.00" fill="#000000">extension</text>
</g>
<!-- structures:ObjectType -->
<g id="node5" class="node">
<title>structures:ObjectType</title>
<g id="a_node5_5"><a xlink:href="../../structures/ObjectType/#diagram" xlink:title="A data type for a thing with its own lifespan that has some existence." target="_top">
<text text-anchor="start" x="244.5" y="-201.9" font-family="Helvetica,sans-Serif" font-size="12.00" fill="#000000">structures:ObjectType</text>
</a>
</g>
<polygon fill="none" stroke="#000000" points="242.5,-197 242.5,-214 364.5,-214 364.5,-197 242.5,-197"/>
</g>
<!-- structures:ObjectType&#45;&gt;stat:IdentifiableArtifactType -->
<g id="edge4" class="edge">
<title>structures:ObjectType&#45;&gt;stat:IdentifiableArtifactType</title>
<path fill="none" stroke="#000000" d="M303.5,-196.911C303.5,-190.0124 303.5,-180.0696 303.5,-171.34"/>
<polygon fill="#000000" stroke="#000000" points="307.0001,-171.2518 303.5,-161.2519 300.0001,-171.2519 307.0001,-171.2518"/>
<text text-anchor="middle" x="294" y="-175.9" font-family="Helvetica,sans-Serif" font-size="12.00" fill="#000000">extension</text>
</g>
</g>
</svg>
