<?xml version="1.0" encoding="UTF-8" standalone="no"?>
<!DOCTYPE svg PUBLIC "-//W3C//DTD SVG 1.1//EN"
 "http://www.w3.org/Graphics/SVG/1.1/DTD/svg11.dtd">
<!-- Generated by graphviz version 2.40.1 (20161225.0304)
 -->
<!-- Title: graphic Pages: 1 -->
<svg width="1021pt" height="146pt"
 viewBox="0.00 0.00 1021.00 146.00" xmlns="http://www.w3.org/2000/svg" xmlns:xlink="http://www.w3.org/1999/xlink">
<g id="graph0" class="graph" transform="scale(1 1) rotate(0) translate(4 142)">
<title>graphic</title>
<polygon fill="#ffffff" stroke="transparent" points="-4,4 -4,-142 1017,-142 1017,4 -4,4"/>
<!-- im:ImmigrationBenefitEvidenceType -->
<g id="node1" class="node">
<title>im:ImmigrationBenefitEvidenceType</title>
<text text-anchor="start" x="235.5" y="-69.9" font-family="Helvetica,sans-Serif" font-weight="bold" font-size="12.00" fill="#000000">im:ImmigrationBenefitEvidenceType</text>
<g id="a_node1_0"><a xlink:href="../../im/ArrivalDepartureNotProvidingReasonText/#diagram" xlink:title="A reason for not providing arrival or departure at the border." target="_top">
<polygon fill="#ebebeb" stroke="transparent" points="234.5,-49.5 234.5,-64.5 573.5,-64.5 573.5,-49.5 234.5,-49.5"/>
<text text-anchor="start" x="235.5" y="-53.9" font-family="Helvetica,sans-Serif" font-size="12.00" fill="#000000">im:ArrivalDepartureNotProvidingReasonText: nc:TextType [0&#45;1]</text>
</a>
</g>
<g id="a_node1_1"><a xlink:href="../../im/BenefitEvidenceCategoryAbstract/#diagram" xlink:title="A data concept for evidence provided in support of a benefit request." target="_top">
<text text-anchor="start" x="235.5" y="-38.9" font-family="Helvetica,sans-Serif" font-size="12.00" fill="#000000">im:BenefitEvidenceCategoryAbstract [0&#45;n]</text>
</a>
</g>
<g id="a_node1_2"><a xlink:href="../../im/BenefitEvidenceNotProvidedReasonText/#diagram" xlink:title="A reason that evidence was not provided in support of a benefit request." target="_top">
<polygon fill="#ebebeb" stroke="transparent" points="234.5,-19.5 234.5,-34.5 573.5,-34.5 573.5,-19.5 234.5,-19.5"/>
<text text-anchor="start" x="235.5" y="-23.9" font-family="Helvetica,sans-Serif" font-size="12.00" fill="#000000">im:BenefitEvidenceNotProvidedReasonText: nc:TextType [0&#45;n]</text>
</a>
</g>
<g id="a_node1_3"><a xlink:href="../../im/ImmigrationBenefitEvidenceAugmentationPoint/#diagram" xlink:title="An augmentation point for ImmigrationBenefitEvidenceType." target="_top">
<text text-anchor="start" x="235.5" y="-8.9" font-family="Helvetica,sans-Serif" font-size="12.00" fill="#000000">im:ImmigrationBenefitEvidenceAugmentationPoint [0&#45;n]</text>
</a>
</g>
<polygon fill="#ff0000" stroke="#ff0000" points="229.5,-64.5 229.5,-64.5 578.5,-64.5 578.5,-64.5 229.5,-64.5"/>
<polygon fill="none" stroke="#ff0000" stroke-width="5" points="231.5,-2.5 231.5,-82.5 575.5,-82.5 575.5,-2.5 231.5,-2.5"/>
</g>
<!-- subst_d9e14544 -->
<g id="node2" class="node">
<title>subst_d9e14544</title>
<g id="a_node2_4"><a xlink:href="../../im/BenefitEvidenceCategoryAbstract/#diagram" xlink:title="&lt;TABLE&gt;" target="_top">
<text text-anchor="start" x="617" y="-38.9" font-family="Helvetica,sans-Serif" font-weight="bold" font-size="12.00" fill="#000000">Substitution group im:BenefitEvidenceCategoryAbstract</text>
</a>
</g>
<g id="a_node2_5"><a xlink:href="../../im/BenefitEvidenceCategoryCode/#diagram" xlink:title="A kind of evidence provided in support of a benefit request." target="_top">
<polygon fill="#ebebeb" stroke="transparent" points="616,-18.5 616,-33.5 1012,-33.5 1012,-18.5 616,-18.5"/>
<text text-anchor="start" x="617" y="-22.9" font-family="Helvetica,sans-Serif" font-size="12.00" fill="#000000">im:BenefitEvidenceCategoryCode: im:BenefitEvidenceCategoryCodeType</text>
</a>
</g>
<g id="a_node2_6"><a xlink:href="../../im/BenefitEvidenceCategoryText/#diagram" xlink:title="A kind of evidence provided in support of a benefit request," target="_top">
<text text-anchor="start" x="617" y="-7.9" font-family="Helvetica,sans-Serif" font-size="12.00" fill="#000000">im:BenefitEvidenceCategoryText: nc:TextType</text>
</a>
</g>
<polygon fill="#000000" stroke="#000000" points="615,-33.5 615,-33.5 1013,-33.5 1013,-33.5 615,-33.5"/>
<polygon fill="none" stroke="#000000" points="615,-3 615,-50 1013,-50 1013,-3 615,-3"/>
</g>
<!-- im:ImmigrationBenefitEvidenceType&#45;&gt;subst_d9e14544 -->
<g id="edge1" class="edge">
<title>im:ImmigrationBenefitEvidenceType:e&#45;&gt;subst_d9e14544:w</title>
<path fill="none" stroke="#000000" d="M583.828,-41.5C595.0114,-41.5 601.0955,-41.5 616,-41.5"/>
<polygon fill="#000000" stroke="#000000" points="583.5,-38.0001 573.5,-41.5 583.5,-45.0001 583.5,-38.0001"/>
</g>
<!-- Properties -->
<g id="node3" class="node">
<title>Properties</title>
<text text-anchor="start" x="2" y="-69.9" font-family="Helvetica,sans-Serif" font-weight="bold" font-size="12.00" fill="#000000">Properties</text>
<g id="a_node3_7"><a xlink:href="../../im/ImmigrationBenefitEvidence/#diagram" xlink:title="A piece of evidence provided in support of an immigration benefit request." target="_top">
<polygon fill="#ebebeb" stroke="transparent" points="1,-49.5 1,-64.5 169,-64.5 169,-49.5 1,-49.5"/>
<text text-anchor="start" x="2" y="-53.9" font-family="Helvetica,sans-Serif" font-size="12.00" fill="#000000">im:ImmigrationBenefitEvidence</text>
</a>
</g>
<polygon fill="#000000" stroke="#000000" points="0,-64.5 0,-64.5 170,-64.5 170,-64.5 0,-64.5"/>
<polygon fill="none" stroke="#000000" points="0,-48.5 0,-80.5 170,-80.5 170,-48.5 0,-48.5"/>
</g>
<!-- Properties&#45;&gt;im:ImmigrationBenefitEvidenceType -->
<g id="edge2" class="edge">
<title>Properties:top&#45;&gt;im:ImmigrationBenefitEvidenceType:top</title>
<path fill="none" stroke="#000000" d="M169,-72.5C194.3585,-72.5 203.1498,-72.5 224.2371,-72.5"/>
<polygon fill="#000000" stroke="#000000" points="224.5,-76.0001 234.5,-72.5 224.5,-69.0001 224.5,-76.0001"/>
<text text-anchor="middle" x="199.5" y="-75.9" font-family="Helvetica,sans-Serif" font-size="12.00" fill="#000000">type</text>
</g>
<!-- structures:ObjectType -->
<g id="node4" class="node">
<title>structures:ObjectType</title>
<g id="a_node4_8"><a xlink:href="../../structures/ObjectType/#diagram" xlink:title="A data type for a thing with its own lifespan that has some existence." target="_top">
<text text-anchor="start" x="344.5" y="-125.9" font-family="Helvetica,sans-Serif" font-size="12.00" fill="#000000">structures:ObjectType</text>
</a>
</g>
<polygon fill="none" stroke="#000000" points="342.5,-121 342.5,-138 464.5,-138 464.5,-121 342.5,-121"/>
</g>
<!-- structures:ObjectType&#45;&gt;im:ImmigrationBenefitEvidenceType -->
<g id="edge3" class="edge">
<title>structures:ObjectType&#45;&gt;im:ImmigrationBenefitEvidenceType</title>
<path fill="none" stroke="#000000" d="M403.5,-120.9761C403.5,-114.614 403.5,-105.3292 403.5,-95.3557"/>
<polygon fill="#000000" stroke="#000000" points="407.0001,-95.2354 403.5,-85.2354 400.0001,-95.2354 407.0001,-95.2354"/>
<text text-anchor="middle" x="394" y="-99.9" font-family="Helvetica,sans-Serif" font-size="12.00" fill="#000000">extension</text>
</g>
</g>
</svg>
