<?xml version="1.0" encoding="UTF-8" standalone="no"?>
<!DOCTYPE svg PUBLIC "-//W3C//DTD SVG 1.1//EN"
 "http://www.w3.org/Graphics/SVG/1.1/DTD/svg11.dtd">
<!-- Generated by graphviz version 2.40.1 (20161225.0304)
 -->
<!-- Title: graphic Pages: 1 -->
<svg width="506pt" height="45pt"
 viewBox="0.00 0.00 506.00 45.00" xmlns="http://www.w3.org/2000/svg" xmlns:xlink="http://www.w3.org/1999/xlink">
<g id="graph0" class="graph" transform="scale(1 1) rotate(0) translate(4 41)">
<title>graphic</title>
<polygon fill="#ffffff" stroke="transparent" points="-4,4 -4,-41 502,-41 502,4 -4,4"/>
<!-- cbrn:ParentDeviceID -->
<g id="node1" class="node">
<title>cbrn:ParentDeviceID</title>
<text text-anchor="start" x="235.5" y="-21.4" font-family="Helvetica,sans-Serif" font-weight="bold" font-size="12.00" fill="#000000">cbrn:ParentDeviceID</text>
<polygon fill="none" stroke="#ff0000" stroke-width="5" points="231.5,-14 231.5,-34 357.5,-34 357.5,-14 231.5,-14"/>
</g>
<!-- niem&#45;xs:string -->
<g id="node3" class="node">
<title>niem&#45;xs:string</title>
<g id="a_node3_0"><a xlink:href="../../niem-xs/string/#diagram" xlink:title="A data type for character strings in XML." target="_top">
<text text-anchor="start" x="421.5" y="-20.4" font-family="Helvetica,sans-Serif" font-size="12.00" fill="#000000">niem&#45;xs:string</text>
</a>
</g>
<polygon fill="none" stroke="#000000" points="419,-15.5 419,-32.5 498,-32.5 498,-15.5 419,-15.5"/>
</g>
<!-- cbrn:ParentDeviceID&#45;&gt;niem&#45;xs:string -->
<g id="edge2" class="edge">
<title>cbrn:ParentDeviceID&#45;&gt;niem&#45;xs:string</title>
<path fill="none" stroke="#000000" d="M360.2601,-24C376.3339,-24 393.275,-24 408.4774,-24"/>
<polygon fill="#000000" stroke="#000000" points="408.6923,-27.5001 418.6923,-24 408.6922,-20.5001 408.6923,-27.5001"/>
<text text-anchor="middle" x="389.5" y="-27.4" font-family="Helvetica,sans-Serif" font-size="12.00" fill="#000000">type</text>
</g>
<!-- Types -->
<g id="node2" class="node">
<title>Types</title>
<text text-anchor="start" x="2" y="-21.4" font-family="Helvetica,sans-Serif" font-weight="bold" font-size="12.00" fill="#000000">Types</text>
<g id="a_node2_1"><a xlink:href="../../cbrn/DeviceIdentificationType/#diagram" xlink:title="A data type to provide information regarding an encounter device." target="_top">
<polygon fill="#ebebeb" stroke="transparent" points="1,-1 1,-16 161,-16 161,-1 1,-1"/>
<text text-anchor="start" x="2" y="-5.4" font-family="Helvetica,sans-Serif" font-size="12.00" fill="#000000">cbrn:DeviceIdentificationType</text>
</a>
</g>
<polygon fill="#000000" stroke="#000000" points="0,-16 0,-16 162,-16 162,-16 0,-16"/>
<polygon fill="none" stroke="#000000" points="0,0 0,-32 162,-32 162,0 0,0"/>
</g>
<!-- Types&#45;&gt;cbrn:ParentDeviceID -->
<g id="edge1" class="edge">
<title>Types:top&#45;&gt;cbrn:ParentDeviceID</title>
<path fill="none" stroke="#000000" d="M161,-24C179.7621,-24 200.0075,-24 218.9219,-24"/>
<polygon fill="#000000" stroke="#000000" points="218.9748,-27.5001 228.9747,-24 218.9747,-20.5001 218.9748,-27.5001"/>
<text text-anchor="middle" x="195.5" y="-27.4" font-family="Helvetica,sans-Serif" font-size="12.00" fill="#000000">has&#45;a</text>
</g>
</g>
</svg>
