<?xml version="1.0" encoding="UTF-8" standalone="no"?>
<!DOCTYPE svg PUBLIC "-//W3C//DTD SVG 1.1//EN"
 "http://www.w3.org/Graphics/SVG/1.1/DTD/svg11.dtd">
<!-- Generated by graphviz version 2.40.1 (20161225.0304)
 -->
<!-- Title: graphic Pages: 1 -->
<svg width="430pt" height="154pt"
 viewBox="0.00 0.00 430.00 153.50" xmlns="http://www.w3.org/2000/svg" xmlns:xlink="http://www.w3.org/1999/xlink">
<g id="graph0" class="graph" transform="scale(1 1) rotate(0) translate(4 149.5)">
<title>graphic</title>
<polygon fill="#ffffff" stroke="transparent" points="-4,4 -4,-149.5 426,-149.5 426,4 -4,4"/>
<!-- st:RoadwayPavementLongitudinalMarkingEdgeLinePresenceCodeType -->
<g id="node1" class="node">
<title>st:RoadwayPavementLongitudinalMarkingEdgeLinePresenceCodeType</title>
<text text-anchor="start" x="7" y="-25.4" font-family="Helvetica,sans-Serif" font-weight="bold" font-size="12.00" fill="#000000">st:RoadwayPavementLongitudinalMarkingEdgeLinePresenceCodeType</text>
<g id="a_node1_0"><a xlink:href="../../structures/SimpleObjectAttributeGroup/#diagram" xlink:title="A group of attributes that are applicable to objects, to be used when defining a complex type that is an extension of a simple type." target="_top">
<polygon fill="#ebebeb" stroke="transparent" points="6,-5 6,-20 416,-20 416,-5 6,-5"/>
<text text-anchor="start" x="7" y="-9.4" font-family="Helvetica,sans-Serif" font-size="12.00" fill="#000000">structures:SimpleObjectAttributeGroup</text>
</a>
</g>
<polygon fill="#ff0000" stroke="#ff0000" points="1,-20 1,-20 421,-20 421,-20 1,-20"/>
<polygon fill="none" stroke="#ff0000" stroke-width="5" points="3.5,-2.5 3.5,-37.5 418.5,-37.5 418.5,-2.5 3.5,-2.5"/>
</g>
<!-- st:RoadwayPavementLongitudinalMarkingEdgeLinePresenceCodeSimpleType -->
<g id="node2" class="node">
<title>st:RoadwayPavementLongitudinalMarkingEdgeLinePresenceCodeSimpleType</title>
<g id="a_node2_1"><a xlink:href="../../st/RoadwayPavementLongitudinalMarkingEdgeLinePresenceCodeSimpleType/#diagram" xlink:title="A data type for Edge line Presence/Type on the roadway surface to guide or control the path followed by drivers." target="_top">
<text text-anchor="start" x="2" y="-80.4" font-family="Helvetica,sans-Serif" font-size="12.00" fill="#000000">st:RoadwayPavementLongitudinalMarkingEdgeLinePresenceCodeSimpleType</text>
</a>
</g>
<polygon fill="none" stroke="#000000" points="0,-75.5 0,-92.5 422,-92.5 422,-75.5 0,-75.5"/>
</g>
<!-- st:RoadwayPavementLongitudinalMarkingEdgeLinePresenceCodeSimpleType&#45;&gt;st:RoadwayPavementLongitudinalMarkingEdgeLinePresenceCodeType -->
<g id="edge1" class="edge">
<title>st:RoadwayPavementLongitudinalMarkingEdgeLinePresenceCodeSimpleType&#45;&gt;st:RoadwayPavementLongitudinalMarkingEdgeLinePresenceCodeType</title>
<path fill="none" stroke="#000000" d="M211,-75.4351C211,-68.931 211,-59.5678 211,-50.3827"/>
<polygon fill="#000000" stroke="#000000" points="214.5001,-50.25 211,-40.25 207.5001,-50.25 214.5001,-50.25"/>
<text text-anchor="middle" x="201.5" y="-54.65" font-family="Helvetica,sans-Serif" font-size="12.00" fill="#000000">extension</text>
</g>
<!-- xs:token -->
<g id="node3" class="node">
<title>xs:token</title>
<g id="a_node3_2"><a xlink:href="../../xs/token/#diagram" xlink:title="&lt;TABLE&gt;" target="_top">
<text text-anchor="start" x="189" y="-133.4" font-family="Helvetica,sans-Serif" font-size="12.00" fill="#000000">xs:token</text>
</a>
</g>
<polygon fill="none" stroke="#000000" points="186.5,-128.5 186.5,-145.5 235.5,-145.5 235.5,-128.5 186.5,-128.5"/>
</g>
<!-- xs:token&#45;&gt;st:RoadwayPavementLongitudinalMarkingEdgeLinePresenceCodeSimpleType -->
<g id="edge2" class="edge">
<title>xs:token&#45;&gt;st:RoadwayPavementLongitudinalMarkingEdgeLinePresenceCodeSimpleType</title>
<path fill="none" stroke="#000000" d="M211,-128.411C211,-121.5124 211,-111.5696 211,-102.84"/>
<polygon fill="#000000" stroke="#000000" points="214.5001,-102.7518 211,-92.7519 207.5001,-102.7519 214.5001,-102.7518"/>
<text text-anchor="middle" x="201.5" y="-107.4" font-family="Helvetica,sans-Serif" font-size="12.00" fill="#000000">restriction</text>
</g>
</g>
</svg>
