<?xml version="1.0" encoding="UTF-8" standalone="no"?>
<!DOCTYPE svg PUBLIC "-//W3C//DTD SVG 1.1//EN"
 "http://www.w3.org/Graphics/SVG/1.1/DTD/svg11.dtd">
<!-- Generated by graphviz version 2.40.1 (20161225.0304)
 -->
<!-- Title: graphic Pages: 1 -->
<svg width="603pt" height="45pt"
 viewBox="0.00 0.00 603.00 45.00" xmlns="http://www.w3.org/2000/svg" xmlns:xlink="http://www.w3.org/1999/xlink">
<g id="graph0" class="graph" transform="scale(1 1) rotate(0) translate(4 41)">
<title>graphic</title>
<polygon fill="#ffffff" stroke="transparent" points="-4,4 -4,-41 599,-41 599,4 -4,4"/>
<!-- biom:PoseRollUncertaintyValue -->
<g id="node1" class="node">
<title>biom:PoseRollUncertaintyValue</title>
<text text-anchor="start" x="192.5" y="-21.4" font-family="Helvetica,sans-Serif" font-weight="bold" font-size="12.00" fill="#000000">biom:PoseRollUncertaintyValue</text>
<polygon fill="none" stroke="#ff0000" stroke-width="5" points="188.5,-14 188.5,-34 378.5,-34 378.5,-14 188.5,-14"/>
</g>
<!-- niem&#45;xs:nonNegativeInteger -->
<g id="node3" class="node">
<title>niem&#45;xs:nonNegativeInteger</title>
<g id="a_node3_0"><a xlink:href="../../niem-xs/nonNegativeInteger/#diagram" xlink:title="A data type for an integer with a minimum value of 0." target="_top">
<text text-anchor="start" x="442.5" y="-20.4" font-family="Helvetica,sans-Serif" font-size="12.00" fill="#000000">niem&#45;xs:nonNegativeInteger</text>
</a>
</g>
<polygon fill="none" stroke="#000000" points="440,-15.5 440,-32.5 595,-32.5 595,-15.5 440,-15.5"/>
</g>
<!-- biom:PoseRollUncertaintyValue&#45;&gt;niem&#45;xs:nonNegativeInteger -->
<g id="edge2" class="edge">
<title>biom:PoseRollUncertaintyValue&#45;&gt;niem&#45;xs:nonNegativeInteger</title>
<path fill="none" stroke="#000000" d="M381.0426,-24C397.0904,-24 413.6407,-24 429.4398,-24"/>
<polygon fill="#000000" stroke="#000000" points="429.7008,-27.5001 439.7008,-24 429.7007,-20.5001 429.7008,-27.5001"/>
<text text-anchor="middle" x="410.5" y="-27.4" font-family="Helvetica,sans-Serif" font-size="12.00" fill="#000000">type</text>
</g>
<!-- Types -->
<g id="node2" class="node">
<title>Types</title>
<text text-anchor="start" x="2.5" y="-21.4" font-family="Helvetica,sans-Serif" font-weight="bold" font-size="12.00" fill="#000000">Types</text>
<g id="a_node2_1"><a xlink:href="../../biom/PoseAngleType/#diagram" xlink:title="A data type for a set of angular offsets of a subject from a full face or a profile, for a determined 3D pose" target="_top">
<polygon fill="#ebebeb" stroke="transparent" points="1.5,-1 1.5,-16 118.5,-16 118.5,-1 1.5,-1"/>
<text text-anchor="start" x="2.5" y="-5.4" font-family="Helvetica,sans-Serif" font-size="12.00" fill="#000000">biom:PoseAngleType</text>
</a>
</g>
<polygon fill="#000000" stroke="#000000" points=".5,-16 .5,-16 119.5,-16 119.5,-16 .5,-16"/>
<polygon fill="none" stroke="#000000" points="0,0 0,-32 119,-32 119,0 0,0"/>
</g>
<!-- Types&#45;&gt;biom:PoseRollUncertaintyValue -->
<g id="edge1" class="edge">
<title>Types:top&#45;&gt;biom:PoseRollUncertaintyValue</title>
<path fill="none" stroke="#000000" d="M118.5,-24C136.9542,-24 156.5694,-24 175.5926,-24"/>
<polygon fill="#000000" stroke="#000000" points="175.7818,-27.5001 185.7818,-24 175.7817,-20.5001 175.7818,-27.5001"/>
<text text-anchor="middle" x="152.5" y="-27.4" font-family="Helvetica,sans-Serif" font-size="12.00" fill="#000000">has&#45;a</text>
</g>
</g>
</svg>
