<?xml version="1.0" encoding="UTF-8" standalone="no"?>
<!DOCTYPE svg PUBLIC "-//W3C//DTD SVG 1.1//EN"
 "http://www.w3.org/Graphics/SVG/1.1/DTD/svg11.dtd">
<!-- Generated by graphviz version 2.40.1 (20161225.0304)
 -->
<!-- Title: graphic Pages: 1 -->
<svg width="523pt" height="45pt"
 viewBox="0.00 0.00 523.00 45.00" xmlns="http://www.w3.org/2000/svg" xmlns:xlink="http://www.w3.org/1999/xlink">
<g id="graph0" class="graph" transform="scale(1 1) rotate(0) translate(4 41)">
<title>graphic</title>
<polygon fill="#ffffff" stroke="transparent" points="-4,4 -4,-41 519,-41 519,4 -4,4"/>
<!-- j:BookingTelephoneCall -->
<g id="node1" class="node">
<title>j:BookingTelephoneCall</title>
<text text-anchor="start" x="154" y="-21.4" font-family="Helvetica,sans-Serif" font-weight="bold" font-size="12.00" fill="#000000">j:BookingTelephoneCall</text>
<polygon fill="none" stroke="#ff0000" stroke-width="5" points="150.5,-14 150.5,-34 295.5,-34 295.5,-14 150.5,-14"/>
</g>
<!-- j:BookingTelephoneCallType -->
<g id="node3" class="node">
<title>j:BookingTelephoneCallType</title>
<g id="a_node3_0"><a xlink:href="../../j/BookingTelephoneCallType/#diagram" xlink:title="A data type for a telephone call a subject makes while being booked or detained from an arrest." target="_top">
<text text-anchor="start" x="359" y="-20.4" font-family="Helvetica,sans-Serif" font-size="12.00" fill="#000000">j:BookingTelephoneCallType</text>
</a>
</g>
<polygon fill="none" stroke="#000000" points="357,-15.5 357,-32.5 515,-32.5 515,-15.5 357,-15.5"/>
</g>
<!-- j:BookingTelephoneCall&#45;&gt;j:BookingTelephoneCallType -->
<g id="edge2" class="edge">
<title>j:BookingTelephoneCall&#45;&gt;j:BookingTelephoneCallType</title>
<path fill="none" stroke="#000000" d="M298.0958,-24C313.8666,-24 330.6464,-24 346.8732,-24"/>
<polygon fill="#000000" stroke="#000000" points="346.8913,-27.5001 356.8912,-24 346.8912,-20.5001 346.8913,-27.5001"/>
<text text-anchor="middle" x="327.5" y="-27.4" font-family="Helvetica,sans-Serif" font-size="12.00" fill="#000000">type</text>
</g>
<!-- Types -->
<g id="node2" class="node">
<title>Types</title>
<text text-anchor="start" x="2.5" y="-21.4" font-family="Helvetica,sans-Serif" font-weight="bold" font-size="12.00" fill="#000000">Types</text>
<g id="a_node2_1"><a xlink:href="../../j/BookingType/#diagram" xlink:title="A data type for an administrative step taken after an arrest subject is brought to a police station or detention facility." target="_top">
<polygon fill="#ebebeb" stroke="transparent" points="1.5,-1 1.5,-16 80.5,-16 80.5,-1 1.5,-1"/>
<text text-anchor="start" x="2.5" y="-5.4" font-family="Helvetica,sans-Serif" font-size="12.00" fill="#000000">j:BookingType</text>
</a>
</g>
<polygon fill="#000000" stroke="#000000" points=".5,-16 .5,-16 81.5,-16 81.5,-16 .5,-16"/>
<polygon fill="none" stroke="#000000" points="0,0 0,-32 81,-32 81,0 0,0"/>
</g>
<!-- Types&#45;&gt;j:BookingTelephoneCall -->
<g id="edge1" class="edge">
<title>Types:top&#45;&gt;j:BookingTelephoneCall</title>
<path fill="none" stroke="#000000" d="M80.5,-24C99.059,-24 118.9777,-24 137.8655,-24"/>
<polygon fill="#000000" stroke="#000000" points="137.9354,-27.5001 147.9354,-24 137.9354,-20.5001 137.9354,-27.5001"/>
<text text-anchor="middle" x="114.5" y="-27.4" font-family="Helvetica,sans-Serif" font-size="12.00" fill="#000000">has&#45;a</text>
</g>
</g>
</svg>
