<?xml version="1.0" encoding="UTF-8" standalone="no"?>
<!DOCTYPE svg PUBLIC "-//W3C//DTD SVG 1.1//EN"
 "http://www.w3.org/Graphics/SVG/1.1/DTD/svg11.dtd">
<!-- Generated by graphviz version 2.40.1 (20161225.0304)
 -->
<!-- Title: graphic Pages: 1 -->
<svg width="819pt" height="45pt"
 viewBox="0.00 0.00 819.00 45.00" xmlns="http://www.w3.org/2000/svg" xmlns:xlink="http://www.w3.org/1999/xlink">
<g id="graph0" class="graph" transform="scale(1 1) rotate(0) translate(4 41)">
<title>graphic</title>
<polygon fill="#ffffff" stroke="transparent" points="-4,4 -4,-41 815,-41 815,4 -4,4"/>
<!-- j:PreparingAgencyObligationComputationAssociationAugmentationPoint -->
<g id="node1" class="node">
<title>j:PreparingAgencyObligationComputationAssociationAugmentationPoint</title>
<text text-anchor="start" x="386.5" y="-21.4" font-family="Helvetica,sans-Serif" font-weight="bold" font-size="12.00" fill="#000000">j:PreparingAgencyObligationComputationAssociationAugmentationPoint</text>
<polygon fill="none" stroke="#ff0000" stroke-width="5" points="382.5,-14 382.5,-34 808.5,-34 808.5,-14 382.5,-14"/>
</g>
<!-- Types -->
<g id="node2" class="node">
<title>Types</title>
<text text-anchor="start" x="2.5" y="-21.4" font-family="Helvetica,sans-Serif" font-weight="bold" font-size="12.00" fill="#000000">Types</text>
<g id="a_node2_0"><a xlink:href="../../j/PreparingAgencyObligationComputationAssociationType/#diagram" xlink:title="A data type for a relationship between an obligation computation and an organization that prepared it." target="_top">
<polygon fill="#ebebeb" stroke="transparent" points="1.5,-1 1.5,-16 312.5,-16 312.5,-1 1.5,-1"/>
<text text-anchor="start" x="2.5" y="-5.4" font-family="Helvetica,sans-Serif" font-size="12.00" fill="#000000">j:PreparingAgencyObligationComputationAssociationType</text>
</a>
</g>
<polygon fill="#000000" stroke="#000000" points=".5,-16 .5,-16 313.5,-16 313.5,-16 .5,-16"/>
<polygon fill="none" stroke="#000000" points="0,0 0,-32 313,-32 313,0 0,0"/>
</g>
<!-- Types&#45;&gt;j:PreparingAgencyObligationComputationAssociationAugmentationPoint -->
<g id="edge1" class="edge">
<title>Types:top&#45;&gt;j:PreparingAgencyObligationComputationAssociationAugmentationPoint</title>
<path fill="none" stroke="#000000" d="M312.5,-24C331.1183,-24 350.4256,-24 369.81,-24"/>
<polygon fill="#000000" stroke="#000000" points="369.9506,-27.5001 379.9506,-24 369.9505,-20.5001 369.9506,-27.5001"/>
<text text-anchor="middle" x="346.5" y="-27.4" font-family="Helvetica,sans-Serif" font-size="12.00" fill="#000000">has&#45;a</text>
</g>
</g>
</svg>
