<?xml version="1.0" encoding="UTF-8" standalone="no"?>
<!DOCTYPE svg PUBLIC "-//W3C//DTD SVG 1.1//EN"
 "http://www.w3.org/Graphics/SVG/1.1/DTD/svg11.dtd">
<!-- Generated by graphviz version 2.40.1 (20161225.0304)
 -->
<!-- Title: graphic Pages: 1 -->
<svg width="595pt" height="120pt"
 viewBox="0.00 0.00 595.00 119.50" xmlns="http://www.w3.org/2000/svg" xmlns:xlink="http://www.w3.org/1999/xlink">
<g id="graph0" class="graph" transform="scale(1 1) rotate(0) translate(4 115.5)">
<title>graphic</title>
<polygon fill="#ffffff" stroke="transparent" points="-4,4 -4,-115.5 591,-115.5 591,4 -4,4"/>
<!-- j:DriverLicense -->
<g id="node1" class="node">
<title>j:DriverLicense</title>
<text text-anchor="start" x="324.5" y="-95.9" font-family="Helvetica,sans-Serif" font-weight="bold" font-size="12.00" fill="#000000">j:DriverLicense</text>
<polygon fill="none" stroke="#ff0000" stroke-width="5" points="320.5,-88.5 320.5,-108.5 414.5,-108.5 414.5,-88.5 320.5,-88.5"/>
</g>
<!-- j:DriverLicenseType -->
<g id="node3" class="node">
<title>j:DriverLicenseType</title>
<g id="a_node3_0"><a xlink:href="../../j/DriverLicenseType/#diagram" xlink:title="A data type for a license issued to a person granting driving privileges." target="_top">
<text text-anchor="start" x="478.5" y="-94.9" font-family="Helvetica,sans-Serif" font-size="12.00" fill="#000000">j:DriverLicenseType</text>
</a>
</g>
<polygon fill="none" stroke="#000000" points="476,-90 476,-107 587,-107 587,-90 476,-90"/>
</g>
<!-- j:DriverLicense&#45;&gt;j:DriverLicenseType -->
<g id="edge2" class="edge">
<title>j:DriverLicense&#45;&gt;j:DriverLicenseType</title>
<path fill="none" stroke="#000000" d="M417.1505,-98.5C432.3857,-98.5 449.3952,-98.5 465.5412,-98.5"/>
<polygon fill="#000000" stroke="#000000" points="465.9995,-102.0001 475.9994,-98.5 465.9994,-95.0001 465.9995,-102.0001"/>
<text text-anchor="middle" x="446.5" y="-101.9" font-family="Helvetica,sans-Serif" font-size="12.00" fill="#000000">type</text>
</g>
<!-- Types -->
<g id="node2" class="node">
<title>Types</title>
<text text-anchor="start" x="2.5" y="-95.9" font-family="Helvetica,sans-Serif" font-weight="bold" font-size="12.00" fill="#000000">Types</text>
<g id="a_node2_1"><a xlink:href="../../j/ActivityDriverLicenseAssociationType/#diagram" xlink:title="A data type for an association between an activity and a driver license." target="_top">
<polygon fill="#ebebeb" stroke="transparent" points="1.5,-75.5 1.5,-90.5 250.5,-90.5 250.5,-75.5 1.5,-75.5"/>
<text text-anchor="start" x="2.5" y="-79.9" font-family="Helvetica,sans-Serif" font-size="12.00" fill="#000000">j:ActivityDriverLicenseAssociationType</text>
</a>
</g>
<g id="a_node2_2"><a xlink:href="../../j/CrashDriverType/#diagram" xlink:title="A data type for a motor vehicle driver involved in a traffic accident." target="_top">
<text text-anchor="start" x="2.5" y="-64.9" font-family="Helvetica,sans-Serif" font-size="12.00" fill="#000000">j:CrashDriverType</text>
</a>
</g>
<g id="a_node2_3"><a xlink:href="../../j/DriverLicenseAssociationType/#diagram" xlink:title="A data type for an association between a driver license and a person." target="_top">
<polygon fill="#ebebeb" stroke="transparent" points="1.5,-45.5 1.5,-60.5 250.5,-60.5 250.5,-45.5 1.5,-45.5"/>
<text text-anchor="start" x="2.5" y="-49.9" font-family="Helvetica,sans-Serif" font-size="12.00" fill="#000000">j:DriverLicenseAssociationType</text>
</a>
</g>
<g id="a_node2_4"><a xlink:href="../../j/DriverLicenseDrivingIncidentAssociationType/#diagram" xlink:title="A data type for an association between a driver license and a driving incident." target="_top">
<text text-anchor="start" x="2.5" y="-34.9" font-family="Helvetica,sans-Serif" font-size="12.00" fill="#000000">j:DriverLicenseDrivingIncidentAssociationType</text>
</a>
</g>
<g id="a_node2_5"><a xlink:href="../../j/DriverLicenseWithdrawalType/#diagram" xlink:title="A data type for a driver license withdrawal." target="_top">
<polygon fill="#ebebeb" stroke="transparent" points="1.5,-15.5 1.5,-30.5 250.5,-30.5 250.5,-15.5 1.5,-15.5"/>
<text text-anchor="start" x="2.5" y="-19.9" font-family="Helvetica,sans-Serif" font-size="12.00" fill="#000000">j:DriverLicenseWithdrawalType</text>
</a>
</g>
<g id="a_node2_6"><a xlink:href="../../j/PersonAugmentationType/#diagram" xlink:title="A data type for additional information about a person." target="_top">
<text text-anchor="start" x="2.5" y="-4.9" font-family="Helvetica,sans-Serif" font-size="12.00" fill="#000000">j:PersonAugmentationType</text>
</a>
</g>
<polygon fill="#000000" stroke="#000000" points=".5,-90.5 .5,-90.5 251.5,-90.5 251.5,-90.5 .5,-90.5"/>
<polygon fill="none" stroke="#000000" points="0,0 0,-107 251,-107 251,0 0,0"/>
</g>
<!-- Types&#45;&gt;j:DriverLicense -->
<g id="edge1" class="edge">
<title>Types:top&#45;&gt;j:DriverLicense</title>
<path fill="none" stroke="#000000" d="M250.5,-98.5C269.1812,-98.5 289.5401,-98.5 307.9603,-98.5"/>
<polygon fill="#000000" stroke="#000000" points="307.9714,-102.0001 317.9714,-98.5 307.9713,-95.0001 307.9714,-102.0001"/>
<text text-anchor="middle" x="284.5" y="-101.9" font-family="Helvetica,sans-Serif" font-size="12.00" fill="#000000">has&#45;a</text>
</g>
</g>
</svg>
