<?xml version="1.0" encoding="UTF-8" standalone="no"?>
<!DOCTYPE svg PUBLIC "-//W3C//DTD SVG 1.1//EN"
 "http://www.w3.org/Graphics/SVG/1.1/DTD/svg11.dtd">
<!-- Generated by graphviz version 2.40.1 (20161225.0304)
 -->
<!-- Title: graphic Pages: 1 -->
<svg width="501pt" height="45pt"
 viewBox="0.00 0.00 501.00 45.00" xmlns="http://www.w3.org/2000/svg" xmlns:xlink="http://www.w3.org/1999/xlink">
<g id="graph0" class="graph" transform="scale(1 1) rotate(0) translate(4 41)">
<title>graphic</title>
<polygon fill="#ffffff" stroke="transparent" points="-4,4 -4,-41 497,-41 497,4 -4,4"/>
<!-- j:CourtOrderDesignatedSubject -->
<g id="node1" class="node">
<title>j:CourtOrderDesignatedSubject</title>
<text text-anchor="start" x="170.5" y="-21.4" font-family="Helvetica,sans-Serif" font-weight="bold" font-size="12.00" fill="#000000">j:CourtOrderDesignatedSubject</text>
<polygon fill="none" stroke="#ff0000" stroke-width="5" points="166.5,-14 166.5,-34 354.5,-34 354.5,-14 166.5,-14"/>
</g>
<!-- j:SubjectType -->
<g id="node3" class="node">
<title>j:SubjectType</title>
<g id="a_node3_0"><a xlink:href="../../j/SubjectType/#diagram" xlink:title="A data type for a person or organization that is involved or suspected of being involved in a violation of a criminal statute, ordinance or rule." target="_top">
<text text-anchor="start" x="418.5" y="-20.4" font-family="Helvetica,sans-Serif" font-size="12.00" fill="#000000">j:SubjectType</text>
</a>
</g>
<polygon fill="none" stroke="#000000" points="416,-15.5 416,-32.5 493,-32.5 493,-15.5 416,-15.5"/>
</g>
<!-- j:CourtOrderDesignatedSubject&#45;&gt;j:SubjectType -->
<g id="edge2" class="edge">
<title>j:CourtOrderDesignatedSubject&#45;&gt;j:SubjectType</title>
<path fill="none" stroke="#000000" d="M357.2158,-24C373.8653,-24 390.526,-24 405.2357,-24"/>
<polygon fill="#000000" stroke="#000000" points="405.5738,-27.5001 415.5738,-24 405.5738,-20.5001 405.5738,-27.5001"/>
<text text-anchor="middle" x="386.5" y="-27.4" font-family="Helvetica,sans-Serif" font-size="12.00" fill="#000000">type</text>
</g>
<!-- Types -->
<g id="node2" class="node">
<title>Types</title>
<text text-anchor="start" x="2.5" y="-21.4" font-family="Helvetica,sans-Serif" font-weight="bold" font-size="12.00" fill="#000000">Types</text>
<g id="a_node2_1"><a xlink:href="../../j/CourtOrderType/#diagram" xlink:title="A data type for a direction of a judge not including a judgment, which determines some point or directs some steps in proceedings." target="_top">
<polygon fill="#ebebeb" stroke="transparent" points="1.5,-1 1.5,-16 96.5,-16 96.5,-1 1.5,-1"/>
<text text-anchor="start" x="2.5" y="-5.4" font-family="Helvetica,sans-Serif" font-size="12.00" fill="#000000">j:CourtOrderType</text>
</a>
</g>
<polygon fill="#000000" stroke="#000000" points=".5,-16 .5,-16 97.5,-16 97.5,-16 .5,-16"/>
<polygon fill="none" stroke="#000000" points="0,0 0,-32 97,-32 97,0 0,0"/>
</g>
<!-- Types&#45;&gt;j:CourtOrderDesignatedSubject -->
<g id="edge1" class="edge">
<title>Types:top&#45;&gt;j:CourtOrderDesignatedSubject</title>
<path fill="none" stroke="#000000" d="M96.5,-24C114.963,-24 134.5952,-24 153.6196,-24"/>
<polygon fill="#000000" stroke="#000000" points="153.8079,-27.5001 163.8078,-24 153.8078,-20.5001 153.8079,-27.5001"/>
<text text-anchor="middle" x="130.5" y="-27.4" font-family="Helvetica,sans-Serif" font-size="12.00" fill="#000000">has&#45;a</text>
</g>
</g>
</svg>
