<?xml version="1.0" encoding="UTF-8" standalone="no"?>
<!DOCTYPE svg PUBLIC "-//W3C//DTD SVG 1.1//EN"
 "http://www.w3.org/Graphics/SVG/1.1/DTD/svg11.dtd">
<!-- Generated by graphviz version 2.40.1 (20161225.0304)
 -->
<!-- Title: graphic Pages: 1 -->
<svg width="528pt" height="154pt"
 viewBox="0.00 0.00 528.00 153.50" xmlns="http://www.w3.org/2000/svg" xmlns:xlink="http://www.w3.org/1999/xlink">
<g id="graph0" class="graph" transform="scale(1 1) rotate(0) translate(4 149.5)">
<title>graphic</title>
<polygon fill="#ffffff" stroke="transparent" points="-4,4 -4,-149.5 524,-149.5 524,4 -4,4"/>
<!-- commodity:MachineryCategoryCodeType -->
<g id="node1" class="node">
<title>commodity:MachineryCategoryCodeType</title>
<text text-anchor="start" x="270" y="-25.4" font-family="Helvetica,sans-Serif" font-weight="bold" font-size="12.00" fill="#000000">commodity:MachineryCategoryCodeType</text>
<g id="a_node1_0"><a xlink:href="../../structures/SimpleObjectAttributeGroup/#diagram" xlink:title="A group of attributes that are applicable to objects, to be used when defining a complex type that is an extension of a simple type." target="_top">
<polygon fill="#ebebeb" stroke="transparent" points="269,-5 269,-20 509,-20 509,-5 269,-5"/>
<text text-anchor="start" x="270" y="-9.4" font-family="Helvetica,sans-Serif" font-size="12.00" fill="#000000">structures:SimpleObjectAttributeGroup</text>
</a>
</g>
<polygon fill="#ff0000" stroke="#ff0000" points="264,-20 264,-20 514,-20 514,-20 264,-20"/>
<polygon fill="none" stroke="#ff0000" stroke-width="5" points="266.5,-2.5 266.5,-37.5 511.5,-37.5 511.5,-2.5 266.5,-2.5"/>
</g>
<!-- Properties -->
<g id="node2" class="node">
<title>Properties</title>
<text text-anchor="start" x="2.5" y="-25.4" font-family="Helvetica,sans-Serif" font-weight="bold" font-size="12.00" fill="#000000">Properties</text>
<g id="a_node2_1"><a xlink:href="../../commodity/MachineryCategoryCode/#diagram" xlink:title="A kind of machinery." target="_top">
<polygon fill="#ebebeb" stroke="transparent" points="1.5,-5 1.5,-20 198.5,-20 198.5,-5 1.5,-5"/>
<text text-anchor="start" x="2.5" y="-9.4" font-family="Helvetica,sans-Serif" font-size="12.00" fill="#000000">commodity:MachineryCategoryCode</text>
</a>
</g>
<polygon fill="#000000" stroke="#000000" points=".5,-20 .5,-20 199.5,-20 199.5,-20 .5,-20"/>
<polygon fill="none" stroke="#000000" points="0,-4 0,-36 199,-36 199,-4 0,-4"/>
</g>
<!-- Properties&#45;&gt;commodity:MachineryCategoryCodeType -->
<g id="edge1" class="edge">
<title>Properties:top&#45;&gt;commodity:MachineryCategoryCodeType:top</title>
<path fill="none" stroke="#000000" d="M198.5,-28C226.1615,-28 235.508,-28 258.8769,-28"/>
<polygon fill="#000000" stroke="#000000" points="259,-31.5001 269,-28 259,-24.5001 259,-31.5001"/>
<text text-anchor="middle" x="228.5" y="-31.4" font-family="Helvetica,sans-Serif" font-size="12.00" fill="#000000">type</text>
</g>
<!-- commodity:MachineryCategoryCodeSimpleType -->
<g id="node3" class="node">
<title>commodity:MachineryCategoryCodeSimpleType</title>
<g id="a_node3_2"><a xlink:href="../../commodity/MachineryCategoryCodeSimpleType/#diagram" xlink:title="A data type for a kind of machinery." target="_top">
<text text-anchor="start" x="260" y="-80.4" font-family="Helvetica,sans-Serif" font-size="12.00" fill="#000000">commodity:MachineryCategoryCodeSimpleType</text>
</a>
</g>
<polygon fill="none" stroke="#000000" points="258,-75.5 258,-92.5 520,-92.5 520,-75.5 258,-75.5"/>
</g>
<!-- commodity:MachineryCategoryCodeSimpleType&#45;&gt;commodity:MachineryCategoryCodeType -->
<g id="edge2" class="edge">
<title>commodity:MachineryCategoryCodeSimpleType&#45;&gt;commodity:MachineryCategoryCodeType</title>
<path fill="none" stroke="#000000" d="M389,-75.4351C389,-68.931 389,-59.5678 389,-50.3827"/>
<polygon fill="#000000" stroke="#000000" points="392.5001,-50.25 389,-40.25 385.5001,-50.25 392.5001,-50.25"/>
<text text-anchor="middle" x="379.5" y="-54.65" font-family="Helvetica,sans-Serif" font-size="12.00" fill="#000000">extension</text>
</g>
<!-- xs:token -->
<g id="node4" class="node">
<title>xs:token</title>
<g id="a_node4_3"><a xlink:href="../../xs/token/#diagram" xlink:title="&lt;TABLE&gt;" target="_top">
<text text-anchor="start" x="367" y="-133.4" font-family="Helvetica,sans-Serif" font-size="12.00" fill="#000000">xs:token</text>
</a>
</g>
<polygon fill="none" stroke="#000000" points="364.5,-128.5 364.5,-145.5 413.5,-145.5 413.5,-128.5 364.5,-128.5"/>
</g>
<!-- xs:token&#45;&gt;commodity:MachineryCategoryCodeSimpleType -->
<g id="edge3" class="edge">
<title>xs:token&#45;&gt;commodity:MachineryCategoryCodeSimpleType</title>
<path fill="none" stroke="#000000" d="M389,-128.411C389,-121.5124 389,-111.5696 389,-102.84"/>
<polygon fill="#000000" stroke="#000000" points="392.5001,-102.7518 389,-92.7519 385.5001,-102.7519 392.5001,-102.7518"/>
<text text-anchor="middle" x="379.5" y="-107.4" font-family="Helvetica,sans-Serif" font-size="12.00" fill="#000000">restriction</text>
</g>
</g>
</svg>
