<?xml version="1.0" encoding="UTF-8" standalone="no"?>
<!DOCTYPE svg PUBLIC "-//W3C//DTD SVG 1.1//EN"
 "http://www.w3.org/Graphics/SVG/1.1/DTD/svg11.dtd">
<!-- Generated by graphviz version 2.40.1 (20161225.0304)
 -->
<!-- Title: graphic Pages: 1 -->
<svg width="555pt" height="154pt"
 viewBox="0.00 0.00 555.00 153.50" xmlns="http://www.w3.org/2000/svg" xmlns:xlink="http://www.w3.org/1999/xlink">
<g id="graph0" class="graph" transform="scale(1 1) rotate(0) translate(4 149.5)">
<title>graphic</title>
<polygon fill="#ffffff" stroke="transparent" points="-4,4 -4,-149.5 551,-149.5 551,4 -4,4"/>
<!-- scr:EntryStatusFoundCategoryCodeType -->
<g id="node1" class="node">
<title>scr:EntryStatusFoundCategoryCodeType</title>
<text text-anchor="start" x="298.5" y="-25.4" font-family="Helvetica,sans-Serif" font-weight="bold" font-size="12.00" fill="#000000">scr:EntryStatusFoundCategoryCodeType</text>
<g id="a_node1_0"><a xlink:href="../../structures/SimpleObjectAttributeGroup/#diagram" xlink:title="A group of attributes that are applicable to objects, to be used when defining a complex type that is an extension of a simple type." target="_top">
<polygon fill="#ebebeb" stroke="transparent" points="297.5,-5 297.5,-20 536.5,-20 536.5,-5 297.5,-5"/>
<text text-anchor="start" x="298.5" y="-9.4" font-family="Helvetica,sans-Serif" font-size="12.00" fill="#000000">structures:SimpleObjectAttributeGroup</text>
</a>
</g>
<polygon fill="#ff0000" stroke="#ff0000" points="292.5,-20 292.5,-20 541.5,-20 541.5,-20 292.5,-20"/>
<polygon fill="none" stroke="#ff0000" stroke-width="5" points="294.5,-2.5 294.5,-37.5 538.5,-37.5 538.5,-2.5 294.5,-2.5"/>
</g>
<!-- Properties -->
<g id="node2" class="node">
<title>Properties</title>
<text text-anchor="start" x="2.5" y="-25.4" font-family="Helvetica,sans-Serif" font-weight="bold" font-size="12.00" fill="#000000">Properties</text>
<g id="a_node2_1"><a xlink:href="../../scr/AlienStatusWhenFoundCategoryCode/#diagram" xlink:title="A subjects activity or status when apprehended." target="_top">
<polygon fill="#ebebeb" stroke="transparent" points="1.5,-5 1.5,-20 226.5,-20 226.5,-5 1.5,-5"/>
<text text-anchor="start" x="2.5" y="-9.4" font-family="Helvetica,sans-Serif" font-size="12.00" fill="#000000">scr:AlienStatusWhenFoundCategoryCode</text>
</a>
</g>
<polygon fill="#000000" stroke="#000000" points=".5,-20 .5,-20 227.5,-20 227.5,-20 .5,-20"/>
<polygon fill="none" stroke="#000000" points="0,-4 0,-36 227,-36 227,-4 0,-4"/>
</g>
<!-- Properties&#45;&gt;scr:EntryStatusFoundCategoryCodeType -->
<g id="edge1" class="edge">
<title>Properties:top&#45;&gt;scr:EntryStatusFoundCategoryCodeType:top</title>
<path fill="none" stroke="#000000" d="M226.5,-28C254.3576,-28 263.7705,-28 287.3051,-28"/>
<polygon fill="#000000" stroke="#000000" points="287.5,-31.5001 297.5,-28 287.5,-24.5001 287.5,-31.5001"/>
<text text-anchor="middle" x="256.5" y="-31.4" font-family="Helvetica,sans-Serif" font-size="12.00" fill="#000000">type</text>
</g>
<!-- scr:EntryStatusFoundCategoryCodeSimpleType -->
<g id="node3" class="node">
<title>scr:EntryStatusFoundCategoryCodeSimpleType</title>
<g id="a_node3_2"><a xlink:href="../../scr/EntryStatusFoundCategoryCodeSimpleType/#diagram" xlink:title="A data type describing the kinds of entry status that exists when encountering subjects" target="_top">
<text text-anchor="start" x="288.5" y="-80.4" font-family="Helvetica,sans-Serif" font-size="12.00" fill="#000000">scr:EntryStatusFoundCategoryCodeSimpleType</text>
</a>
</g>
<polygon fill="none" stroke="#000000" points="286,-75.5 286,-92.5 547,-92.5 547,-75.5 286,-75.5"/>
</g>
<!-- scr:EntryStatusFoundCategoryCodeSimpleType&#45;&gt;scr:EntryStatusFoundCategoryCodeType -->
<g id="edge2" class="edge">
<title>scr:EntryStatusFoundCategoryCodeSimpleType&#45;&gt;scr:EntryStatusFoundCategoryCodeType</title>
<path fill="none" stroke="#000000" d="M416.5,-75.4351C416.5,-68.931 416.5,-59.5678 416.5,-50.3827"/>
<polygon fill="#000000" stroke="#000000" points="420.0001,-50.25 416.5,-40.25 413.0001,-50.25 420.0001,-50.25"/>
<text text-anchor="middle" x="407" y="-54.65" font-family="Helvetica,sans-Serif" font-size="12.00" fill="#000000">extension</text>
</g>
<!-- xs:token -->
<g id="node4" class="node">
<title>xs:token</title>
<g id="a_node4_3"><a xlink:href="../../xs/token/#diagram" xlink:title="&lt;TABLE&gt;" target="_top">
<text text-anchor="start" x="394.5" y="-133.4" font-family="Helvetica,sans-Serif" font-size="12.00" fill="#000000">xs:token</text>
</a>
</g>
<polygon fill="none" stroke="#000000" points="392,-128.5 392,-145.5 441,-145.5 441,-128.5 392,-128.5"/>
</g>
<!-- xs:token&#45;&gt;scr:EntryStatusFoundCategoryCodeSimpleType -->
<g id="edge3" class="edge">
<title>xs:token&#45;&gt;scr:EntryStatusFoundCategoryCodeSimpleType</title>
<path fill="none" stroke="#000000" d="M416.5,-128.411C416.5,-121.5124 416.5,-111.5696 416.5,-102.84"/>
<polygon fill="#000000" stroke="#000000" points="420.0001,-102.7518 416.5,-92.7519 413.0001,-102.7519 420.0001,-102.7518"/>
<text text-anchor="middle" x="407" y="-107.4" font-family="Helvetica,sans-Serif" font-size="12.00" fill="#000000">restriction</text>
</g>
</g>
</svg>
