<?xml version="1.0" encoding="UTF-8" standalone="no"?>
<!DOCTYPE svg PUBLIC "-//W3C//DTD SVG 1.1//EN"
 "http://www.w3.org/Graphics/SVG/1.1/DTD/svg11.dtd">
<!-- Generated by graphviz version 2.40.1 (20161225.0304)
 -->
<!-- Title: graphic Pages: 1 -->
<svg width="480pt" height="154pt"
 viewBox="0.00 0.00 480.00 153.50" xmlns="http://www.w3.org/2000/svg" xmlns:xlink="http://www.w3.org/1999/xlink">
<g id="graph0" class="graph" transform="scale(1 1) rotate(0) translate(4 149.5)">
<title>graphic</title>
<polygon fill="#ffffff" stroke="transparent" points="-4,4 -4,-149.5 476,-149.5 476,4 -4,4"/>
<!-- hs:PresentingProblemCodeType -->
<g id="node1" class="node">
<title>hs:PresentingProblemCodeType</title>
<text text-anchor="start" x="260" y="-25.4" font-family="Helvetica,sans-Serif" font-weight="bold" font-size="12.00" fill="#000000">hs:PresentingProblemCodeType</text>
<g id="a_node1_0"><a xlink:href="../../structures/SimpleObjectAttributeGroup/#diagram" xlink:title="A group of attributes that are applicable to objects, to be used when defining a complex type that is an extension of a simple type." target="_top">
<polygon fill="#ebebeb" stroke="transparent" points="259,-5 259,-20 467,-20 467,-5 259,-5"/>
<text text-anchor="start" x="260" y="-9.4" font-family="Helvetica,sans-Serif" font-size="12.00" fill="#000000">structures:SimpleObjectAttributeGroup</text>
</a>
</g>
<polygon fill="#ff0000" stroke="#ff0000" points="254,-20 254,-20 472,-20 472,-20 254,-20"/>
<polygon fill="none" stroke="#ff0000" stroke-width="5" points="256.5,-2.5 256.5,-37.5 469.5,-37.5 469.5,-2.5 256.5,-2.5"/>
</g>
<!-- Properties -->
<g id="node2" class="node">
<title>Properties</title>
<text text-anchor="start" x="2.5" y="-25.4" font-family="Helvetica,sans-Serif" font-weight="bold" font-size="12.00" fill="#000000">Properties</text>
<g id="a_node2_1"><a xlink:href="../../hs/AtIntakePresentingProblemCode/#diagram" xlink:title="A problem presented at intake." target="_top">
<polygon fill="#ebebeb" stroke="transparent" points="1.5,-5 1.5,-20 194.5,-20 194.5,-5 1.5,-5"/>
<text text-anchor="start" x="2.5" y="-9.4" font-family="Helvetica,sans-Serif" font-size="12.00" fill="#000000">hs:AtIntakePresentingProblemCode</text>
</a>
</g>
<polygon fill="#000000" stroke="#000000" points=".5,-20 .5,-20 195.5,-20 195.5,-20 .5,-20"/>
<polygon fill="none" stroke="#000000" points="0,-4 0,-36 195,-36 195,-4 0,-4"/>
</g>
<!-- Properties&#45;&gt;hs:PresentingProblemCodeType -->
<g id="edge1" class="edge">
<title>Properties:top&#45;&gt;hs:PresentingProblemCodeType:top</title>
<path fill="none" stroke="#000000" d="M194.5,-28C219.4714,-28 228.1284,-28 248.8937,-28"/>
<polygon fill="#000000" stroke="#000000" points="249,-31.5001 259,-28 249,-24.5001 249,-31.5001"/>
<text text-anchor="middle" x="224.5" y="-31.4" font-family="Helvetica,sans-Serif" font-size="12.00" fill="#000000">type</text>
</g>
<!-- hs:PresentingProblemCodeSimpleType -->
<g id="node3" class="node">
<title>hs:PresentingProblemCodeSimpleType</title>
<g id="a_node3_2"><a xlink:href="../../hs/PresentingProblemCodeSimpleType/#diagram" xlink:title="A data type for describing problems presented at intake." target="_top">
<text text-anchor="start" x="258" y="-80.4" font-family="Helvetica,sans-Serif" font-size="12.00" fill="#000000">hs:PresentingProblemCodeSimpleType</text>
</a>
</g>
<polygon fill="none" stroke="#000000" points="255.5,-75.5 255.5,-92.5 470.5,-92.5 470.5,-75.5 255.5,-75.5"/>
</g>
<!-- hs:PresentingProblemCodeSimpleType&#45;&gt;hs:PresentingProblemCodeType -->
<g id="edge2" class="edge">
<title>hs:PresentingProblemCodeSimpleType&#45;&gt;hs:PresentingProblemCodeType</title>
<path fill="none" stroke="#000000" d="M363,-75.4351C363,-68.931 363,-59.5678 363,-50.3827"/>
<polygon fill="#000000" stroke="#000000" points="366.5001,-50.25 363,-40.25 359.5001,-50.25 366.5001,-50.25"/>
<text text-anchor="middle" x="353.5" y="-54.65" font-family="Helvetica,sans-Serif" font-size="12.00" fill="#000000">extension</text>
</g>
<!-- xs:token -->
<g id="node4" class="node">
<title>xs:token</title>
<g id="a_node4_3"><a xlink:href="../../xs/token/#diagram" xlink:title="&lt;TABLE&gt;" target="_top">
<text text-anchor="start" x="341" y="-133.4" font-family="Helvetica,sans-Serif" font-size="12.00" fill="#000000">xs:token</text>
</a>
</g>
<polygon fill="none" stroke="#000000" points="338.5,-128.5 338.5,-145.5 387.5,-145.5 387.5,-128.5 338.5,-128.5"/>
</g>
<!-- xs:token&#45;&gt;hs:PresentingProblemCodeSimpleType -->
<g id="edge3" class="edge">
<title>xs:token&#45;&gt;hs:PresentingProblemCodeSimpleType</title>
<path fill="none" stroke="#000000" d="M363,-128.411C363,-121.5124 363,-111.5696 363,-102.84"/>
<polygon fill="#000000" stroke="#000000" points="366.5001,-102.7518 363,-92.7519 359.5001,-102.7519 366.5001,-102.7518"/>
<text text-anchor="middle" x="353.5" y="-107.4" font-family="Helvetica,sans-Serif" font-size="12.00" fill="#000000">restriction</text>
</g>
</g>
</svg>
