<?xml version="1.0" encoding="UTF-8" standalone="no"?>
<!DOCTYPE svg PUBLIC "-//W3C//DTD SVG 1.1//EN"
 "http://www.w3.org/Graphics/SVG/1.1/DTD/svg11.dtd">
<!-- Generated by graphviz version 2.40.1 (20161225.0304)
 -->
<!-- Title: graphic Pages: 1 -->
<svg width="472pt" height="45pt"
 viewBox="0.00 0.00 472.00 45.00" xmlns="http://www.w3.org/2000/svg" xmlns:xlink="http://www.w3.org/1999/xlink">
<g id="graph0" class="graph" transform="scale(1 1) rotate(0) translate(4 41)">
<title>graphic</title>
<polygon fill="#ffffff" stroke="transparent" points="-4,4 -4,-41 468,-41 468,4 -4,4"/>
<!-- cbrn:OriginDescriptionText -->
<g id="node1" class="node">
<title>cbrn:OriginDescriptionText</title>
<text text-anchor="start" x="163.5" y="-21.4" font-family="Helvetica,sans-Serif" font-weight="bold" font-size="12.00" fill="#000000">cbrn:OriginDescriptionText</text>
<polygon fill="none" stroke="#ff0000" stroke-width="5" points="159.5,-14 159.5,-34 323.5,-34 323.5,-14 159.5,-14"/>
</g>
<!-- niem&#45;xs:string -->
<g id="node3" class="node">
<title>niem&#45;xs:string</title>
<g id="a_node3_0"><a xlink:href="../../niem-xs/string/#diagram" xlink:title="A data type for character strings in XML." target="_top">
<text text-anchor="start" x="387.5" y="-20.4" font-family="Helvetica,sans-Serif" font-size="12.00" fill="#000000">niem&#45;xs:string</text>
</a>
</g>
<polygon fill="none" stroke="#000000" points="385,-15.5 385,-32.5 464,-32.5 464,-15.5 385,-15.5"/>
</g>
<!-- cbrn:OriginDescriptionText&#45;&gt;niem&#45;xs:string -->
<g id="edge2" class="edge">
<title>cbrn:OriginDescriptionText&#45;&gt;niem&#45;xs:string</title>
<path fill="none" stroke="#000000" d="M326.0363,-24C342.6242,-24 359.5191,-24 374.5234,-24"/>
<polygon fill="#000000" stroke="#000000" points="374.5819,-27.5001 384.5819,-24 374.5819,-20.5001 374.5819,-27.5001"/>
<text text-anchor="middle" x="355.5" y="-27.4" font-family="Helvetica,sans-Serif" font-size="12.00" fill="#000000">type</text>
</g>
<!-- Types -->
<g id="node2" class="node">
<title>Types</title>
<text text-anchor="start" x="2" y="-21.4" font-family="Helvetica,sans-Serif" font-weight="bold" font-size="12.00" fill="#000000">Types</text>
<g id="a_node2_1"><a xlink:href="../../cbrn/OriginType/#diagram" xlink:title="A data type for the origin of a relative location coordinate system." target="_top">
<polygon fill="#ebebeb" stroke="transparent" points="1,-1 1,-16 89,-16 89,-1 1,-1"/>
<text text-anchor="start" x="2" y="-5.4" font-family="Helvetica,sans-Serif" font-size="12.00" fill="#000000">cbrn:OriginType</text>
</a>
</g>
<polygon fill="#000000" stroke="#000000" points="0,-16 0,-16 90,-16 90,-16 0,-16"/>
<polygon fill="none" stroke="#000000" points="0,0 0,-32 90,-32 90,0 0,0"/>
</g>
<!-- Types&#45;&gt;cbrn:OriginDescriptionText -->
<g id="edge1" class="edge">
<title>Types:top&#45;&gt;cbrn:OriginDescriptionText</title>
<path fill="none" stroke="#000000" d="M89,-24C107.6271,-24 127.534,-24 146.6104,-24"/>
<polygon fill="#000000" stroke="#000000" points="146.8031,-27.5001 156.803,-24 146.803,-20.5001 146.8031,-27.5001"/>
<text text-anchor="middle" x="123.5" y="-27.4" font-family="Helvetica,sans-Serif" font-size="12.00" fill="#000000">has&#45;a</text>
</g>
</g>
</svg>
