<?xml version="1.0" encoding="UTF-8" standalone="no"?>
<!DOCTYPE svg PUBLIC "-//W3C//DTD SVG 1.1//EN"
 "http://www.w3.org/Graphics/SVG/1.1/DTD/svg11.dtd">
<!-- Generated by graphviz version 2.40.1 (20161225.0304)
 -->
<!-- Title: graphic Pages: 1 -->
<svg width="658pt" height="154pt"
 viewBox="0.00 0.00 658.00 153.50" xmlns="http://www.w3.org/2000/svg" xmlns:xlink="http://www.w3.org/1999/xlink">
<g id="graph0" class="graph" transform="scale(1 1) rotate(0) translate(4 149.5)">
<title>graphic</title>
<polygon fill="#ffffff" stroke="transparent" points="-4,4 -4,-149.5 654,-149.5 654,4 -4,4"/>
<!-- biom:MinutiaeRidgeWavelengthMapFormatCodeType -->
<g id="node1" class="node">
<title>biom:MinutiaeRidgeWavelengthMapFormatCodeType</title>
<text text-anchor="start" x="334.5" y="-25.4" font-family="Helvetica,sans-Serif" font-weight="bold" font-size="12.00" fill="#000000">biom:MinutiaeRidgeWavelengthMapFormatCodeType</text>
<g id="a_node1_0"><a xlink:href="../../structures/SimpleObjectAttributeGroup/#diagram" xlink:title="A group of attributes that are applicable to objects, to be used when defining a complex type that is an extension of a simple type." target="_top">
<polygon fill="#ebebeb" stroke="transparent" points="333.5,-5 333.5,-20 640.5,-20 640.5,-5 333.5,-5"/>
<text text-anchor="start" x="334.5" y="-9.4" font-family="Helvetica,sans-Serif" font-size="12.00" fill="#000000">structures:SimpleObjectAttributeGroup</text>
</a>
</g>
<polygon fill="#ff0000" stroke="#ff0000" points="328.5,-20 328.5,-20 645.5,-20 645.5,-20 328.5,-20"/>
<polygon fill="none" stroke="#ff0000" stroke-width="5" points="330.5,-2.5 330.5,-37.5 642.5,-37.5 642.5,-2.5 330.5,-2.5"/>
</g>
<!-- Properties -->
<g id="node2" class="node">
<title>Properties</title>
<text text-anchor="start" x="2" y="-25.4" font-family="Helvetica,sans-Serif" font-weight="bold" font-size="12.00" fill="#000000">Properties</text>
<g id="a_node2_1"><a xlink:href="../../biom/MinutiaeRidgeWavelengthMapFormatCode/#diagram" xlink:title="A format of ridge wavelength values in a ridge wavelength map" target="_top">
<polygon fill="#ebebeb" stroke="transparent" points="1,-5 1,-20 263,-20 263,-5 1,-5"/>
<text text-anchor="start" x="2" y="-9.4" font-family="Helvetica,sans-Serif" font-size="12.00" fill="#000000">biom:MinutiaeRidgeWavelengthMapFormatCode</text>
</a>
</g>
<polygon fill="#000000" stroke="#000000" points="0,-20 0,-20 264,-20 264,-20 0,-20"/>
<polygon fill="none" stroke="#000000" points="0,-4 0,-36 264,-36 264,-4 0,-4"/>
</g>
<!-- Properties&#45;&gt;biom:MinutiaeRidgeWavelengthMapFormatCodeType -->
<g id="edge1" class="edge">
<title>Properties:top&#45;&gt;biom:MinutiaeRidgeWavelengthMapFormatCodeType:top</title>
<path fill="none" stroke="#000000" d="M263,-28C290.6615,-28 300.008,-28 323.3769,-28"/>
<polygon fill="#000000" stroke="#000000" points="323.5,-31.5001 333.5,-28 323.5,-24.5001 323.5,-31.5001"/>
<text text-anchor="middle" x="293.5" y="-31.4" font-family="Helvetica,sans-Serif" font-size="12.00" fill="#000000">type</text>
</g>
<!-- biom:MinutiaeRidgeWavelengthMapFormatCodeSimpleType -->
<g id="node3" class="node">
<title>biom:MinutiaeRidgeWavelengthMapFormatCodeSimpleType</title>
<g id="a_node3_2"><a xlink:href="../../biom/MinutiaeRidgeWavelengthMapFormatCodeSimpleType/#diagram" xlink:title="A data type for a format of ridge wavelength values in the ridge wavelength map" target="_top">
<text text-anchor="start" x="325.5" y="-80.4" font-family="Helvetica,sans-Serif" font-size="12.00" fill="#000000">biom:MinutiaeRidgeWavelengthMapFormatCodeSimpleType</text>
</a>
</g>
<polygon fill="none" stroke="#000000" points="323,-75.5 323,-92.5 650,-92.5 650,-75.5 323,-75.5"/>
</g>
<!-- biom:MinutiaeRidgeWavelengthMapFormatCodeSimpleType&#45;&gt;biom:MinutiaeRidgeWavelengthMapFormatCodeType -->
<g id="edge2" class="edge">
<title>biom:MinutiaeRidgeWavelengthMapFormatCodeSimpleType&#45;&gt;biom:MinutiaeRidgeWavelengthMapFormatCodeType</title>
<path fill="none" stroke="#000000" d="M486.5,-75.4351C486.5,-68.931 486.5,-59.5678 486.5,-50.3827"/>
<polygon fill="#000000" stroke="#000000" points="490.0001,-50.25 486.5,-40.25 483.0001,-50.25 490.0001,-50.25"/>
<text text-anchor="middle" x="477" y="-54.65" font-family="Helvetica,sans-Serif" font-size="12.00" fill="#000000">extension</text>
</g>
<!-- xs:token -->
<g id="node4" class="node">
<title>xs:token</title>
<g id="a_node4_3"><a xlink:href="../../xs/token/#diagram" xlink:title="&lt;TABLE&gt;" target="_top">
<text text-anchor="start" x="464.5" y="-133.4" font-family="Helvetica,sans-Serif" font-size="12.00" fill="#000000">xs:token</text>
</a>
</g>
<polygon fill="none" stroke="#000000" points="462,-128.5 462,-145.5 511,-145.5 511,-128.5 462,-128.5"/>
</g>
<!-- xs:token&#45;&gt;biom:MinutiaeRidgeWavelengthMapFormatCodeSimpleType -->
<g id="edge3" class="edge">
<title>xs:token&#45;&gt;biom:MinutiaeRidgeWavelengthMapFormatCodeSimpleType</title>
<path fill="none" stroke="#000000" d="M486.5,-128.411C486.5,-121.5124 486.5,-111.5696 486.5,-102.84"/>
<polygon fill="#000000" stroke="#000000" points="490.0001,-102.7518 486.5,-92.7519 483.0001,-102.7519 490.0001,-102.7518"/>
<text text-anchor="middle" x="477" y="-107.4" font-family="Helvetica,sans-Serif" font-size="12.00" fill="#000000">restriction</text>
</g>
</g>
</svg>
