<?xml version="1.0" encoding="UTF-8" standalone="no"?>
<!DOCTYPE svg PUBLIC "-//W3C//DTD SVG 1.1//EN"
 "http://www.w3.org/Graphics/SVG/1.1/DTD/svg11.dtd">
<!-- Generated by graphviz version 2.40.1 (20161225.0304)
 -->
<!-- Title: graphic Pages: 1 -->
<svg width="575pt" height="45pt"
 viewBox="0.00 0.00 575.00 45.00" xmlns="http://www.w3.org/2000/svg" xmlns:xlink="http://www.w3.org/1999/xlink">
<g id="graph0" class="graph" transform="scale(1 1) rotate(0) translate(4 41)">
<title>graphic</title>
<polygon fill="#ffffff" stroke="transparent" points="-4,4 -4,-41 571,-41 571,4 -4,4"/>
<!-- j:EducationalActivityDocumentedDate -->
<g id="node1" class="node">
<title>j:EducationalActivityDocumentedDate</title>
<text text-anchor="start" x="211" y="-21.4" font-family="Helvetica,sans-Serif" font-weight="bold" font-size="12.00" fill="#000000">j:EducationalActivityDocumentedDate</text>
<polygon fill="none" stroke="#ff0000" stroke-width="5" points="207.5,-14 207.5,-34 432.5,-34 432.5,-14 207.5,-14"/>
</g>
<!-- nc:DateType -->
<g id="node3" class="node">
<title>nc:DateType</title>
<g id="a_node3_0"><a xlink:href="../../nc/DateType/#diagram" xlink:title="A data type for a calendar date." target="_top">
<text text-anchor="start" x="496.5" y="-20.4" font-family="Helvetica,sans-Serif" font-size="12.00" fill="#000000">nc:DateType</text>
</a>
</g>
<polygon fill="none" stroke="#000000" points="494,-15.5 494,-32.5 567,-32.5 567,-15.5 494,-15.5"/>
</g>
<!-- j:EducationalActivityDocumentedDate&#45;&gt;nc:DateType -->
<g id="edge2" class="edge">
<title>j:EducationalActivityDocumentedDate&#45;&gt;nc:DateType</title>
<path fill="none" stroke="#000000" d="M435.1043,-24C452.2508,-24 469.0453,-24 483.6461,-24"/>
<polygon fill="#000000" stroke="#000000" points="483.8638,-27.5001 493.8638,-24 483.8637,-20.5001 483.8638,-27.5001"/>
<text text-anchor="middle" x="464.5" y="-27.4" font-family="Helvetica,sans-Serif" font-size="12.00" fill="#000000">type</text>
</g>
<!-- Types -->
<g id="node2" class="node">
<title>Types</title>
<text text-anchor="start" x="2" y="-21.4" font-family="Helvetica,sans-Serif" font-weight="bold" font-size="12.00" fill="#000000">Types</text>
<g id="a_node2_1"><a xlink:href="../../j/EducationalActivityType/#diagram" xlink:title="A data type for any event or activity in the process of an education course and programs." target="_top">
<polygon fill="#ebebeb" stroke="transparent" points="1,-1 1,-16 137,-16 137,-1 1,-1"/>
<text text-anchor="start" x="2" y="-5.4" font-family="Helvetica,sans-Serif" font-size="12.00" fill="#000000">j:EducationalActivityType</text>
</a>
</g>
<polygon fill="#000000" stroke="#000000" points="0,-16 0,-16 138,-16 138,-16 0,-16"/>
<polygon fill="none" stroke="#000000" points="0,0 0,-32 138,-32 138,0 0,0"/>
</g>
<!-- Types&#45;&gt;j:EducationalActivityDocumentedDate -->
<g id="edge1" class="edge">
<title>Types:top&#45;&gt;j:EducationalActivityDocumentedDate</title>
<path fill="none" stroke="#000000" d="M137,-24C155.6678,-24 175.4069,-24 194.7419,-24"/>
<polygon fill="#000000" stroke="#000000" points="194.8083,-27.5001 204.8083,-24 194.8082,-20.5001 194.8083,-27.5001"/>
<text text-anchor="middle" x="171.5" y="-27.4" font-family="Helvetica,sans-Serif" font-size="12.00" fill="#000000">has&#45;a</text>
</g>
</g>
</svg>
