<?xml version="1.0" encoding="UTF-8" standalone="no"?>
<!DOCTYPE svg PUBLIC "-//W3C//DTD SVG 1.1//EN"
 "http://www.w3.org/Graphics/SVG/1.1/DTD/svg11.dtd">
<!-- Generated by graphviz version 2.40.1 (20161225.0304)
 -->
<!-- Title: graphic Pages: 1 -->
<svg width="475pt" height="45pt"
 viewBox="0.00 0.00 475.00 45.00" xmlns="http://www.w3.org/2000/svg" xmlns:xlink="http://www.w3.org/1999/xlink">
<g id="graph0" class="graph" transform="scale(1 1) rotate(0) translate(4 41)">
<title>graphic</title>
<polygon fill="#ffffff" stroke="transparent" points="-4,4 -4,-41 471,-41 471,4 -4,4"/>
<!-- j:JuvenileOffenderIndicator -->
<g id="node1" class="node">
<title>j:JuvenileOffenderIndicator</title>
<text text-anchor="start" x="152.5" y="-21.4" font-family="Helvetica,sans-Serif" font-weight="bold" font-size="12.00" fill="#000000">j:JuvenileOffenderIndicator</text>
<polygon fill="none" stroke="#ff0000" stroke-width="5" points="148.5,-14 148.5,-34 312.5,-34 312.5,-14 148.5,-14"/>
</g>
<!-- niem&#45;xs:boolean -->
<g id="node3" class="node">
<title>niem&#45;xs:boolean</title>
<g id="a_node3_0"><a xlink:href="../../niem-xs/boolean/#diagram" xlink:title="A data type for binary&#45;valued logic (true/false)." target="_top">
<text text-anchor="start" x="376.5" y="-20.4" font-family="Helvetica,sans-Serif" font-size="12.00" fill="#000000">niem&#45;xs:boolean</text>
</a>
</g>
<polygon fill="none" stroke="#000000" points="374,-15.5 374,-32.5 467,-32.5 467,-15.5 374,-15.5"/>
</g>
<!-- j:JuvenileOffenderIndicator&#45;&gt;niem&#45;xs:boolean -->
<g id="edge2" class="edge">
<title>j:JuvenileOffenderIndicator&#45;&gt;niem&#45;xs:boolean</title>
<path fill="none" stroke="#000000" d="M315.2201,-24C331.6224,-24 348.4384,-24 363.6811,-24"/>
<polygon fill="#000000" stroke="#000000" points="363.9581,-27.5001 373.9581,-24 363.958,-20.5001 363.9581,-27.5001"/>
<text text-anchor="middle" x="344.5" y="-27.4" font-family="Helvetica,sans-Serif" font-size="12.00" fill="#000000">type</text>
</g>
<!-- Types -->
<g id="node2" class="node">
<title>Types</title>
<text text-anchor="start" x="2.5" y="-21.4" font-family="Helvetica,sans-Serif" font-weight="bold" font-size="12.00" fill="#000000">Types</text>
<g id="a_node2_1"><a xlink:href="../../j/OffenseType/#diagram" xlink:title="A data type for an alleged violation of a statute, ordinance, or rule." target="_top">
<polygon fill="#ebebeb" stroke="transparent" points="1.5,-1 1.5,-16 78.5,-16 78.5,-1 1.5,-1"/>
<text text-anchor="start" x="2.5" y="-5.4" font-family="Helvetica,sans-Serif" font-size="12.00" fill="#000000">j:OffenseType</text>
</a>
</g>
<polygon fill="#000000" stroke="#000000" points=".5,-16 .5,-16 79.5,-16 79.5,-16 .5,-16"/>
<polygon fill="none" stroke="#000000" points="0,0 0,-32 79,-32 79,0 0,0"/>
</g>
<!-- Types&#45;&gt;j:JuvenileOffenderIndicator -->
<g id="edge1" class="edge">
<title>Types:top&#45;&gt;j:JuvenileOffenderIndicator</title>
<path fill="none" stroke="#000000" d="M78.5,-24C96.9542,-24 116.6687,-24 135.5778,-24"/>
<polygon fill="#000000" stroke="#000000" points="135.683,-27.5001 145.683,-24 135.6829,-20.5001 135.683,-27.5001"/>
<text text-anchor="middle" x="112.5" y="-27.4" font-family="Helvetica,sans-Serif" font-size="12.00" fill="#000000">has&#45;a</text>
</g>
</g>
</svg>
