<?xml version="1.0" encoding="UTF-8" standalone="no"?>
<!DOCTYPE svg PUBLIC "-//W3C//DTD SVG 1.1//EN"
 "http://www.w3.org/Graphics/SVG/1.1/DTD/svg11.dtd">
<!-- Generated by graphviz version 2.40.1 (20161225.0304)
 -->
<!-- Title: graphic Pages: 1 -->
<svg width="509pt" height="45pt"
 viewBox="0.00 0.00 509.00 45.00" xmlns="http://www.w3.org/2000/svg" xmlns:xlink="http://www.w3.org/1999/xlink">
<g id="graph0" class="graph" transform="scale(1 1) rotate(0) translate(4 41)">
<title>graphic</title>
<polygon fill="#ffffff" stroke="transparent" points="-4,4 -4,-41 505,-41 505,4 -4,4"/>
<!-- j:InjuryCircumstancesText -->
<g id="node1" class="node">
<title>j:InjuryCircumstancesText</title>
<text text-anchor="start" x="214.5" y="-21.4" font-family="Helvetica,sans-Serif" font-weight="bold" font-size="12.00" fill="#000000">j:InjuryCircumstancesText</text>
<polygon fill="none" stroke="#ff0000" stroke-width="5" points="210.5,-14 210.5,-34 368.5,-34 368.5,-14 210.5,-14"/>
</g>
<!-- nc:TextType -->
<g id="node3" class="node">
<title>nc:TextType</title>
<g id="a_node3_0"><a xlink:href="../../nc/TextType/#diagram" xlink:title="A data type for a character string." target="_top">
<text text-anchor="start" x="432.5" y="-20.4" font-family="Helvetica,sans-Serif" font-size="12.00" fill="#000000">nc:TextType</text>
</a>
</g>
<polygon fill="none" stroke="#000000" points="430,-15.5 430,-32.5 501,-32.5 501,-15.5 430,-15.5"/>
</g>
<!-- j:InjuryCircumstancesText&#45;&gt;nc:TextType -->
<g id="edge2" class="edge">
<title>j:InjuryCircumstancesText&#45;&gt;nc:TextType</title>
<path fill="none" stroke="#000000" d="M371.0598,-24C387.7018,-24 404.6526,-24 419.5144,-24"/>
<polygon fill="#000000" stroke="#000000" points="419.9326,-27.5001 429.9326,-24 419.9326,-20.5001 419.9326,-27.5001"/>
<text text-anchor="middle" x="400.5" y="-27.4" font-family="Helvetica,sans-Serif" font-size="12.00" fill="#000000">type</text>
</g>
<!-- Types -->
<g id="node2" class="node">
<title>Types</title>
<text text-anchor="start" x="2.5" y="-21.4" font-family="Helvetica,sans-Serif" font-weight="bold" font-size="12.00" fill="#000000">Types</text>
<g id="a_node2_1"><a xlink:href="../../j/InjuryAugmentationType/#diagram" xlink:title="A data type for additional information about a Injury." target="_top">
<polygon fill="#ebebeb" stroke="transparent" points="1.5,-1 1.5,-16 140.5,-16 140.5,-1 1.5,-1"/>
<text text-anchor="start" x="2.5" y="-5.4" font-family="Helvetica,sans-Serif" font-size="12.00" fill="#000000">j:InjuryAugmentationType</text>
</a>
</g>
<polygon fill="#000000" stroke="#000000" points=".5,-16 .5,-16 141.5,-16 141.5,-16 .5,-16"/>
<polygon fill="none" stroke="#000000" points="0,0 0,-32 141,-32 141,0 0,0"/>
</g>
<!-- Types&#45;&gt;j:InjuryCircumstancesText -->
<g id="edge1" class="edge">
<title>Types:top&#45;&gt;j:InjuryCircumstancesText</title>
<path fill="none" stroke="#000000" d="M140.5,-24C159.0285,-24 178.853,-24 197.7979,-24"/>
<polygon fill="#000000" stroke="#000000" points="197.9145,-27.5001 207.9145,-24 197.9145,-20.5001 197.9145,-27.5001"/>
<text text-anchor="middle" x="174.5" y="-27.4" font-family="Helvetica,sans-Serif" font-size="12.00" fill="#000000">has&#45;a</text>
</g>
</g>
</svg>
