<?xml version="1.0" encoding="UTF-8" standalone="no"?>
<!DOCTYPE svg PUBLIC "-//W3C//DTD SVG 1.1//EN"
 "http://www.w3.org/Graphics/SVG/1.1/DTD/svg11.dtd">
<!-- Generated by graphviz version 2.40.1 (20161225.0304)
 -->
<!-- Title: graphic Pages: 1 -->
<svg width="739pt" height="199pt"
 viewBox="0.00 0.00 739.00 199.00" xmlns="http://www.w3.org/2000/svg" xmlns:xlink="http://www.w3.org/1999/xlink">
<g id="graph0" class="graph" transform="scale(1 1) rotate(0) translate(4 195)">
<title>graphic</title>
<polygon fill="#ffffff" stroke="transparent" points="-4,4 -4,-195 735,-195 735,4 -4,4"/>
<!-- j:ChargeConvictionAssociationType -->
<g id="node1" class="node">
<title>j:ChargeConvictionAssociationType</title>
<text text-anchor="start" x="232" y="-69.9" font-family="Helvetica,sans-Serif" font-weight="bold" font-size="12.00" fill="#000000">j:ChargeConvictionAssociationType</text>
<g id="a_node1_0"><a xlink:href="../../j/Charge/#diagram" xlink:title="A formal allegation that a specific person has committed a specific offense." target="_top">
<polygon fill="#ebebeb" stroke="transparent" points="231,-49.5 231,-64.5 525,-64.5 525,-49.5 231,-49.5"/>
<text text-anchor="start" x="232" y="-53.9" font-family="Helvetica,sans-Serif" font-size="12.00" fill="#000000">j:Charge: j:ChargeType [0&#45;n]</text>
</a>
</g>
<g id="a_node1_1"><a xlink:href="../../j/Conviction/#diagram" xlink:title="A judgment, based either on the verdict of a jury or judicial official or the guilty plea of a defendant, that the defendant is guilty." target="_top">
<text text-anchor="start" x="232" y="-38.9" font-family="Helvetica,sans-Serif" font-size="12.00" fill="#000000">j:Conviction: j:ConvictionType [0&#45;n]</text>
</a>
</g>
<g id="a_node1_2"><a xlink:href="../../j/Subject/#diagram" xlink:title="A person who is involved or suspected of being involved in an incident or criminal activity." target="_top">
<polygon fill="#ebebeb" stroke="transparent" points="231,-19.5 231,-34.5 525,-34.5 525,-19.5 231,-19.5"/>
<text text-anchor="start" x="232" y="-23.9" font-family="Helvetica,sans-Serif" font-size="12.00" fill="#000000">j:Subject: j:SubjectType [0&#45;n]</text>
</a>
</g>
<g id="a_node1_3"><a xlink:href="../../j/ChargeConvictionAssociationAugmentationPoint/#diagram" xlink:title="An augmentation point for ChargeConvictionAssociationType." target="_top">
<text text-anchor="start" x="232" y="-8.9" font-family="Helvetica,sans-Serif" font-size="12.00" fill="#000000">j:ChargeConvictionAssociationAugmentationPoint [0&#45;n]</text>
</a>
</g>
<polygon fill="#ff0000" stroke="#ff0000" points="226,-64.5 226,-64.5 530,-64.5 530,-64.5 226,-64.5"/>
<polygon fill="none" stroke="#ff0000" stroke-width="5" points="228.5,-2.5 228.5,-82.5 527.5,-82.5 527.5,-2.5 228.5,-2.5"/>
</g>
<!-- subst_d9e22338 -->
<g id="node2" class="node">
<title>subst_d9e22338</title>
<g id="a_node2_4"><a xlink:href="../../j/Charge/#diagram" xlink:title="&lt;TABLE&gt;" target="_top">
<text text-anchor="start" x="569" y="-54.9" font-family="Helvetica,sans-Serif" font-weight="bold" font-size="12.00" fill="#000000">Substitution group j:Charge</text>
</a>
</g>
<g id="a_node2_5"><a xlink:href="../../hs/Allegation/#diagram" xlink:title="A formal allegation that a specific person has abused or neglected a child." target="_top">
<polygon fill="#ebebeb" stroke="transparent" points="568,-34.5 568,-49.5 730,-49.5 730,-34.5 568,-34.5"/>
<text text-anchor="start" x="569" y="-38.9" font-family="Helvetica,sans-Serif" font-size="12.00" fill="#000000">hs:Allegation: j:ChargeType</text>
</a>
</g>
<polygon fill="#000000" stroke="#000000" points="567,-49.5 567,-49.5 731,-49.5 731,-49.5 567,-49.5"/>
<polygon fill="none" stroke="#000000" points="567,-33.5 567,-65.5 731,-65.5 731,-33.5 567,-33.5"/>
</g>
<!-- j:ChargeConvictionAssociationType&#45;&gt;subst_d9e22338 -->
<g id="edge1" class="edge">
<title>j:ChargeConvictionAssociationType:e&#45;&gt;subst_d9e22338:w</title>
<path fill="none" stroke="#000000" d="M535.1119,-57.5C546.6435,-57.5 552.7708,-57.5 568,-57.5"/>
<polygon fill="#000000" stroke="#000000" points="535,-54.0001 525,-57.5 535,-61.0001 535,-54.0001"/>
</g>
<!-- Properties -->
<g id="node3" class="node">
<title>Properties</title>
<text text-anchor="start" x="2.5" y="-69.9" font-family="Helvetica,sans-Serif" font-weight="bold" font-size="12.00" fill="#000000">Properties</text>
<g id="a_node3_6"><a xlink:href="../../j/ChargeConvictionAssociation/#diagram" xlink:title="An association between a charge and a conviction." target="_top">
<polygon fill="#ebebeb" stroke="transparent" points="1.5,-49.5 1.5,-64.5 166.5,-64.5 166.5,-49.5 1.5,-49.5"/>
<text text-anchor="start" x="2.5" y="-53.9" font-family="Helvetica,sans-Serif" font-size="12.00" fill="#000000">j:ChargeConvictionAssociation</text>
</a>
</g>
<polygon fill="#000000" stroke="#000000" points=".5,-64.5 .5,-64.5 167.5,-64.5 167.5,-64.5 .5,-64.5"/>
<polygon fill="none" stroke="#000000" points="0,-48.5 0,-80.5 167,-80.5 167,-48.5 0,-48.5"/>
</g>
<!-- Properties&#45;&gt;j:ChargeConvictionAssociationType -->
<g id="edge2" class="edge">
<title>Properties:top&#45;&gt;j:ChargeConvictionAssociationType:top</title>
<path fill="none" stroke="#000000" d="M166.5,-72.5C191.4714,-72.5 200.1284,-72.5 220.8937,-72.5"/>
<polygon fill="#000000" stroke="#000000" points="221,-76.0001 231,-72.5 221,-69.0001 221,-76.0001"/>
<text text-anchor="middle" x="196.5" y="-75.9" font-family="Helvetica,sans-Serif" font-size="12.00" fill="#000000">type</text>
</g>
<!-- nc:AssociationType -->
<g id="node4" class="node">
<title>nc:AssociationType</title>
<g id="a_node4_7"><a xlink:href="../../nc/AssociationType/#diagram" xlink:title="A data type for an association, connection, relationship, or involvement somehow linking people, things, and/or activities together." target="_top">
<text text-anchor="start" x="326" y="-125.9" font-family="Helvetica,sans-Serif" font-size="12.00" fill="#000000">nc:AssociationType</text>
</a>
</g>
<polygon fill="none" stroke="#000000" points="323.5,-121 323.5,-138 432.5,-138 432.5,-121 323.5,-121"/>
</g>
<!-- nc:AssociationType&#45;&gt;j:ChargeConvictionAssociationType -->
<g id="edge3" class="edge">
<title>nc:AssociationType&#45;&gt;j:ChargeConvictionAssociationType</title>
<path fill="none" stroke="#000000" d="M378,-120.9761C378,-114.614 378,-105.3292 378,-95.3557"/>
<polygon fill="#000000" stroke="#000000" points="381.5001,-95.2354 378,-85.2354 374.5001,-95.2354 381.5001,-95.2354"/>
<text text-anchor="middle" x="368.5" y="-99.9" font-family="Helvetica,sans-Serif" font-size="12.00" fill="#000000">extension</text>
</g>
<!-- structures:AssociationType -->
<g id="node5" class="node">
<title>structures:AssociationType</title>
<g id="a_node5_8"><a xlink:href="../../structures/AssociationType/#diagram" xlink:title="A data type for a relationship between two or more objects, including any properties of that relationship." target="_top">
<text text-anchor="start" x="306" y="-178.9" font-family="Helvetica,sans-Serif" font-size="12.00" fill="#000000">structures:AssociationType</text>
</a>
</g>
<polygon fill="none" stroke="#000000" points="303.5,-174 303.5,-191 452.5,-191 452.5,-174 303.5,-174"/>
</g>
<!-- structures:AssociationType&#45;&gt;nc:AssociationType -->
<g id="edge4" class="edge">
<title>structures:AssociationType&#45;&gt;nc:AssociationType</title>
<path fill="none" stroke="#000000" d="M378,-173.911C378,-167.0124 378,-157.0696 378,-148.34"/>
<polygon fill="#000000" stroke="#000000" points="381.5001,-148.2518 378,-138.2519 374.5001,-148.2519 381.5001,-148.2518"/>
<text text-anchor="middle" x="368.5" y="-152.9" font-family="Helvetica,sans-Serif" font-size="12.00" fill="#000000">extension</text>
</g>
</g>
</svg>
