<?xml version="1.0" encoding="UTF-8" standalone="no"?>
<!DOCTYPE svg PUBLIC "-//W3C//DTD SVG 1.1//EN"
 "http://www.w3.org/Graphics/SVG/1.1/DTD/svg11.dtd">
<!-- Generated by graphviz version 2.40.1 (20161225.0304)
 -->
<!-- Title: graphic Pages: 1 -->
<svg width="290pt" height="86pt"
 viewBox="0.00 0.00 290.00 86.00" xmlns="http://www.w3.org/2000/svg" xmlns:xlink="http://www.w3.org/1999/xlink">
<g id="graph0" class="graph" transform="scale(1 1) rotate(0) translate(4 82)">
<title>graphic</title>
<polygon fill="#ffffff" stroke="transparent" points="-4,4 -4,-82 286,-82 286,4 -4,4"/>
<!-- nc:PersonEyeColorText -->
<g id="node1" class="node">
<title>nc:PersonEyeColorText</title>
<text text-anchor="start" x="8" y="-9.9" font-family="Helvetica,sans-Serif" font-weight="bold" font-size="12.00" fill="#000000">nc:PersonEyeColorText</text>
<polygon fill="none" stroke="#ff0000" stroke-width="5" points="4,-2.5 4,-22.5 148,-22.5 148,-2.5 4,-2.5"/>
</g>
<!-- nc:TextType -->
<g id="node3" class="node">
<title>nc:TextType</title>
<g id="a_node3_0"><a xlink:href="../../nc/TextType/#diagram" xlink:title="A data type for a character string." target="_top">
<text text-anchor="start" x="213.5" y="-8.9" font-family="Helvetica,sans-Serif" font-size="12.00" fill="#000000">nc:TextType</text>
</a>
</g>
<polygon fill="none" stroke="#000000" points="211,-4 211,-21 282,-21 282,-4 211,-4"/>
</g>
<!-- nc:PersonEyeColorText&#45;&gt;nc:TextType -->
<g id="edge2" class="edge">
<title>nc:PersonEyeColorText&#45;&gt;nc:TextType</title>
<path fill="none" stroke="#000000" d="M150.7838,-12.5C167.6498,-12.5 185.0708,-12.5 200.3519,-12.5"/>
<polygon fill="#000000" stroke="#000000" points="200.5562,-16.0001 210.5562,-12.5 200.5561,-9.0001 200.5562,-16.0001"/>
<text text-anchor="middle" x="181.5" y="-15.9" font-family="Helvetica,sans-Serif" font-size="12.00" fill="#000000">type</text>
</g>
<!-- SubstitutionGroup -->
<g id="node2" class="node">
<title>SubstitutionGroup</title>
<g id="a_node2_1"><a xlink:href="../../nc/PersonEyeColorAbstract/#diagram" xlink:title="A data concept for a color of the eyes of a person." target="_top">
<text text-anchor="start" x="2" y="-65.9" font-family="Helvetica,sans-Serif" font-size="12.00" fill="#000000">nc:PersonEyeColorAbstract</text>
</a>
</g>
<polygon fill="none" stroke="#000000" points="0,-61 0,-78 152,-78 152,-61 0,-61"/>
</g>
<!-- SubstitutionGroup&#45;&gt;nc:PersonEyeColorText -->
<g id="edge1" class="edge">
<title>SubstitutionGroup&#45;&gt;nc:PersonEyeColorText</title>
<path fill="none" stroke="#000000" d="M76,-50.9163C76,-42.4809 76,-32.7214 76,-25.1501"/>
<polygon fill="#000000" stroke="#000000" points="72.5001,-50.9472 76,-60.9473 79.5001,-50.9473 72.5001,-50.9472"/>
<text text-anchor="middle" x="66.5" y="-39.9" font-family="Helvetica,sans-Serif" font-size="12.00" fill="#000000">substitution group</text>
</g>
</g>
</svg>
