<?xml version="1.0" encoding="UTF-8" standalone="no"?>
<!DOCTYPE svg PUBLIC "-//W3C//DTD SVG 1.1//EN"
 "http://www.w3.org/Graphics/SVG/1.1/DTD/svg11.dtd">
<!-- Generated by graphviz version 2.40.1 (20161225.0304)
 -->
<!-- Title: graphic Pages: 1 -->
<svg width="480pt" height="45pt"
 viewBox="0.00 0.00 480.00 45.00" xmlns="http://www.w3.org/2000/svg" xmlns:xlink="http://www.w3.org/1999/xlink">
<g id="graph0" class="graph" transform="scale(1 1) rotate(0) translate(4 41)">
<title>graphic</title>
<polygon fill="#ffffff" stroke="transparent" points="-4,4 -4,-41 476,-41 476,4 -4,4"/>
<!-- j:CourtSupervisingAgency -->
<g id="node1" class="node">
<title>j:CourtSupervisingAgency</title>
<text text-anchor="start" x="140" y="-21.4" font-family="Helvetica,sans-Serif" font-weight="bold" font-size="12.00" fill="#000000">j:CourtSupervisingAgency</text>
<polygon fill="none" stroke="#ff0000" stroke-width="5" points="136.5,-14 136.5,-34 295.5,-34 295.5,-14 136.5,-14"/>
</g>
<!-- nc:OrganizationType -->
<g id="node3" class="node">
<title>nc:OrganizationType</title>
<g id="a_node3_0"><a xlink:href="../../nc/OrganizationType/#diagram" xlink:title="A data type for a body of people organized for a particular purpose." target="_top">
<text text-anchor="start" x="359.5" y="-20.4" font-family="Helvetica,sans-Serif" font-size="12.00" fill="#000000">nc:OrganizationType</text>
</a>
</g>
<polygon fill="none" stroke="#000000" points="357,-15.5 357,-32.5 472,-32.5 472,-15.5 357,-15.5"/>
</g>
<!-- j:CourtSupervisingAgency&#45;&gt;nc:OrganizationType -->
<g id="edge2" class="edge">
<title>j:CourtSupervisingAgency&#45;&gt;nc:OrganizationType</title>
<path fill="none" stroke="#000000" d="M298.1704,-24C314.3565,-24 331.1675,-24 346.8108,-24"/>
<polygon fill="#000000" stroke="#000000" points="346.9039,-27.5001 356.9039,-24 346.9038,-20.5001 346.9039,-27.5001"/>
<text text-anchor="middle" x="327.5" y="-27.4" font-family="Helvetica,sans-Serif" font-size="12.00" fill="#000000">type</text>
</g>
<!-- Types -->
<g id="node2" class="node">
<title>Types</title>
<text text-anchor="start" x="2.5" y="-21.4" font-family="Helvetica,sans-Serif" font-weight="bold" font-size="12.00" fill="#000000">Types</text>
<g id="a_node2_1"><a xlink:href="../../j/CourtType/#diagram" xlink:title="A data type for a court or a unit of a court responsible for trying justice proceedings." target="_top">
<polygon fill="#ebebeb" stroke="transparent" points="1.5,-1 1.5,-16 66.5,-16 66.5,-1 1.5,-1"/>
<text text-anchor="start" x="2.5" y="-5.4" font-family="Helvetica,sans-Serif" font-size="12.00" fill="#000000">j:CourtType</text>
</a>
</g>
<polygon fill="#000000" stroke="#000000" points=".5,-16 .5,-16 67.5,-16 67.5,-16 .5,-16"/>
<polygon fill="none" stroke="#000000" points="0,0 0,-32 67,-32 67,0 0,0"/>
</g>
<!-- Types&#45;&gt;j:CourtSupervisingAgency -->
<g id="edge1" class="edge">
<title>Types:top&#45;&gt;j:CourtSupervisingAgency</title>
<path fill="none" stroke="#000000" d="M66.5,-24C84.9807,-24 104.7464,-24 123.6526,-24"/>
<polygon fill="#000000" stroke="#000000" points="123.7506,-27.5001 133.7506,-24 123.7506,-20.5001 123.7506,-27.5001"/>
<text text-anchor="middle" x="100.5" y="-27.4" font-family="Helvetica,sans-Serif" font-size="12.00" fill="#000000">has&#45;a</text>
</g>
</g>
</svg>
