<?xml version="1.0" encoding="UTF-8" standalone="no"?>
<!DOCTYPE svg PUBLIC "-//W3C//DTD SVG 1.1//EN"
 "http://www.w3.org/Graphics/SVG/1.1/DTD/svg11.dtd">
<!-- Generated by graphviz version 2.40.1 (20161225.0304)
 -->
<!-- Title: graphic Pages: 1 -->
<svg width="482pt" height="154pt"
 viewBox="0.00 0.00 482.00 153.50" xmlns="http://www.w3.org/2000/svg" xmlns:xlink="http://www.w3.org/1999/xlink">
<g id="graph0" class="graph" transform="scale(1 1) rotate(0) translate(4 149.5)">
<title>graphic</title>
<polygon fill="#ffffff" stroke="transparent" points="-4,4 -4,-149.5 478,-149.5 478,4 -4,4"/>
<!-- em:IncidentActivationLevelCodeType -->
<g id="node1" class="node">
<title>em:IncidentActivationLevelCodeType</title>
<text text-anchor="start" x="247.5" y="-25.4" font-family="Helvetica,sans-Serif" font-weight="bold" font-size="12.00" fill="#000000">em:IncidentActivationLevelCodeType</text>
<g id="a_node1_0"><a xlink:href="../../structures/SimpleObjectAttributeGroup/#diagram" xlink:title="A group of attributes that are applicable to objects, to be used when defining a complex type that is an extension of a simple type." target="_top">
<polygon fill="#ebebeb" stroke="transparent" points="246.5,-5 246.5,-20 463.5,-20 463.5,-5 246.5,-5"/>
<text text-anchor="start" x="247.5" y="-9.4" font-family="Helvetica,sans-Serif" font-size="12.00" fill="#000000">structures:SimpleObjectAttributeGroup</text>
</a>
</g>
<polygon fill="#ff0000" stroke="#ff0000" points="241.5,-20 241.5,-20 468.5,-20 468.5,-20 241.5,-20"/>
<polygon fill="none" stroke="#ff0000" stroke-width="5" points="243.5,-2.5 243.5,-37.5 465.5,-37.5 465.5,-2.5 243.5,-2.5"/>
</g>
<!-- Properties -->
<g id="node2" class="node">
<title>Properties</title>
<text text-anchor="start" x="2" y="-25.4" font-family="Helvetica,sans-Serif" font-weight="bold" font-size="12.00" fill="#000000">Properties</text>
<g id="a_node2_1"><a xlink:href="../../em/IncidentActivationLevelCode/#diagram" xlink:title="An activity level or status of an incident." target="_top">
<polygon fill="#ebebeb" stroke="transparent" points="1,-5 1,-20 175,-20 175,-5 1,-5"/>
<text text-anchor="start" x="2" y="-9.4" font-family="Helvetica,sans-Serif" font-size="12.00" fill="#000000">em:IncidentActivationLevelCode</text>
</a>
</g>
<polygon fill="#000000" stroke="#000000" points="0,-20 0,-20 176,-20 176,-20 0,-20"/>
<polygon fill="none" stroke="#000000" points="0,-4 0,-36 176,-36 176,-4 0,-4"/>
</g>
<!-- Properties&#45;&gt;em:IncidentActivationLevelCodeType -->
<g id="edge1" class="edge">
<title>Properties:top&#45;&gt;em:IncidentActivationLevelCodeType:top</title>
<path fill="none" stroke="#000000" d="M175,-28C203.0538,-28 212.5329,-28 236.2333,-28"/>
<polygon fill="#000000" stroke="#000000" points="236.5,-31.5001 246.5,-28 236.5,-24.5001 236.5,-31.5001"/>
<text text-anchor="middle" x="205.5" y="-31.4" font-family="Helvetica,sans-Serif" font-size="12.00" fill="#000000">type</text>
</g>
<!-- em:IncidentActivationLevelCodeSimpleType -->
<g id="node3" class="node">
<title>em:IncidentActivationLevelCodeSimpleType</title>
<g id="a_node3_2"><a xlink:href="../../em/IncidentActivationLevelCodeSimpleType/#diagram" xlink:title="A data type for an emergency operations center (EOC) activation level (status) based on those used in the 2017 FEMA National Incident Management System." target="_top">
<text text-anchor="start" x="237.5" y="-80.4" font-family="Helvetica,sans-Serif" font-size="12.00" fill="#000000">em:IncidentActivationLevelCodeSimpleType</text>
</a>
</g>
<polygon fill="none" stroke="#000000" points="235,-75.5 235,-92.5 474,-92.5 474,-75.5 235,-75.5"/>
</g>
<!-- em:IncidentActivationLevelCodeSimpleType&#45;&gt;em:IncidentActivationLevelCodeType -->
<g id="edge2" class="edge">
<title>em:IncidentActivationLevelCodeSimpleType&#45;&gt;em:IncidentActivationLevelCodeType</title>
<path fill="none" stroke="#000000" d="M354.5,-75.4351C354.5,-68.931 354.5,-59.5678 354.5,-50.3827"/>
<polygon fill="#000000" stroke="#000000" points="358.0001,-50.25 354.5,-40.25 351.0001,-50.25 358.0001,-50.25"/>
<text text-anchor="middle" x="345" y="-54.65" font-family="Helvetica,sans-Serif" font-size="12.00" fill="#000000">extension</text>
</g>
<!-- xs:token -->
<g id="node4" class="node">
<title>xs:token</title>
<g id="a_node4_3"><a xlink:href="../../xs/token/#diagram" xlink:title="&lt;TABLE&gt;" target="_top">
<text text-anchor="start" x="332.5" y="-133.4" font-family="Helvetica,sans-Serif" font-size="12.00" fill="#000000">xs:token</text>
</a>
</g>
<polygon fill="none" stroke="#000000" points="330,-128.5 330,-145.5 379,-145.5 379,-128.5 330,-128.5"/>
</g>
<!-- xs:token&#45;&gt;em:IncidentActivationLevelCodeSimpleType -->
<g id="edge3" class="edge">
<title>xs:token&#45;&gt;em:IncidentActivationLevelCodeSimpleType</title>
<path fill="none" stroke="#000000" d="M354.5,-128.411C354.5,-121.5124 354.5,-111.5696 354.5,-102.84"/>
<polygon fill="#000000" stroke="#000000" points="358.0001,-102.7518 354.5,-92.7519 351.0001,-102.7519 358.0001,-102.7518"/>
<text text-anchor="middle" x="345" y="-107.4" font-family="Helvetica,sans-Serif" font-size="12.00" fill="#000000">restriction</text>
</g>
</g>
</svg>
