<?xml version="1.0" encoding="UTF-8" standalone="no"?>
<!DOCTYPE svg PUBLIC "-//W3C//DTD SVG 1.1//EN"
 "http://www.w3.org/Graphics/SVG/1.1/DTD/svg11.dtd">
<!-- Generated by graphviz version 2.40.1 (20161225.0304)
 -->
<!-- Title: graphic Pages: 1 -->
<svg width="563pt" height="199pt"
 viewBox="0.00 0.00 563.00 199.00" xmlns="http://www.w3.org/2000/svg" xmlns:xlink="http://www.w3.org/1999/xlink">
<g id="graph0" class="graph" transform="scale(1 1) rotate(0) translate(4 195)">
<title>graphic</title>
<polygon fill="#ffffff" stroke="transparent" points="-4,4 -4,-195 559,-195 559,4 -4,4"/>
<!-- nc:PersonWorkerAssociationType -->
<g id="node1" class="node">
<title>nc:PersonWorkerAssociationType</title>
<text text-anchor="start" x="266.5" y="-69.9" font-family="Helvetica,sans-Serif" font-weight="bold" font-size="12.00" fill="#000000">nc:PersonWorkerAssociationType</text>
<g id="a_node1_0"><a xlink:href="../../nc/Person/#diagram" xlink:title="A human being." target="_top">
<polygon fill="#ebebeb" stroke="transparent" points="265.5,-49.5 265.5,-64.5 550.5,-64.5 550.5,-49.5 265.5,-49.5"/>
<text text-anchor="start" x="266.5" y="-53.9" font-family="Helvetica,sans-Serif" font-size="12.00" fill="#000000">nc:Person: nc:PersonType [0&#45;n]</text>
</a>
</g>
<g id="a_node1_1"><a xlink:href="../../nc/PersonWorker/#diagram" xlink:title="A person assigned to do work for or on behalf of a person." target="_top">
<text text-anchor="start" x="266.5" y="-38.9" font-family="Helvetica,sans-Serif" font-size="12.00" fill="#000000">nc:PersonWorker: nc:PersonType [0&#45;n]</text>
</a>
</g>
<g id="a_node1_2"><a xlink:href="../../nc/Activity/#diagram" xlink:title="A single or set of related actions, events, or process steps." target="_top">
<polygon fill="#ebebeb" stroke="transparent" points="265.5,-19.5 265.5,-34.5 550.5,-34.5 550.5,-19.5 265.5,-19.5"/>
<text text-anchor="start" x="266.5" y="-23.9" font-family="Helvetica,sans-Serif" font-size="12.00" fill="#000000">nc:Activity: nc:ActivityType [0&#45;n]</text>
</a>
</g>
<g id="a_node1_3"><a xlink:href="../../nc/PersonWorkerAssociationAugmentationPoint/#diagram" xlink:title="An augmentation point for PersonWorkerAssociationType." target="_top">
<text text-anchor="start" x="266.5" y="-8.9" font-family="Helvetica,sans-Serif" font-size="12.00" fill="#000000">nc:PersonWorkerAssociationAugmentationPoint [0&#45;n]</text>
</a>
</g>
<polygon fill="#ff0000" stroke="#ff0000" points="260.5,-64.5 260.5,-64.5 555.5,-64.5 555.5,-64.5 260.5,-64.5"/>
<polygon fill="none" stroke="#ff0000" stroke-width="5" points="262.5,-2.5 262.5,-82.5 552.5,-82.5 552.5,-2.5 262.5,-2.5"/>
</g>
<!-- Properties -->
<g id="node2" class="node">
<title>Properties</title>
<text text-anchor="start" x="2.5" y="-69.9" font-family="Helvetica,sans-Serif" font-weight="bold" font-size="12.00" fill="#000000">Properties</text>
<g id="a_node2_4"><a xlink:href="../../nc/PersonPrimaryWorkerAssociation/#diagram" xlink:title="An association between a person and a primary worker assigned to that person." target="_top">
<polygon fill="#ebebeb" stroke="transparent" points="1.5,-49.5 1.5,-64.5 200.5,-64.5 200.5,-49.5 1.5,-49.5"/>
<text text-anchor="start" x="2.5" y="-53.9" font-family="Helvetica,sans-Serif" font-size="12.00" fill="#000000">nc:PersonPrimaryWorkerAssociation</text>
</a>
</g>
<g id="a_node2_5"><a xlink:href="../../nc/PersonReferralWorkerAssociation/#diagram" xlink:title="An association between a person and a referral worker assigned to that person." target="_top">
<text text-anchor="start" x="2.5" y="-38.9" font-family="Helvetica,sans-Serif" font-size="12.00" fill="#000000">nc:PersonReferralWorkerAssociation</text>
</a>
</g>
<g id="a_node2_6"><a xlink:href="../../nc/PersonWorkerAssociation/#diagram" xlink:title="An association between a person and a person assigned to do work for or on behalf of that person." target="_top">
<polygon fill="#ebebeb" stroke="transparent" points="1.5,-19.5 1.5,-34.5 200.5,-34.5 200.5,-19.5 1.5,-19.5"/>
<text text-anchor="start" x="2.5" y="-23.9" font-family="Helvetica,sans-Serif" font-size="12.00" fill="#000000">nc:PersonWorkerAssociation</text>
</a>
</g>
<polygon fill="#000000" stroke="#000000" points=".5,-64.5 .5,-64.5 201.5,-64.5 201.5,-64.5 .5,-64.5"/>
<polygon fill="none" stroke="#000000" points="0,-18.5 0,-80.5 201,-80.5 201,-18.5 0,-18.5"/>
</g>
<!-- Properties&#45;&gt;nc:PersonWorkerAssociationType -->
<g id="edge1" class="edge">
<title>Properties:top&#45;&gt;nc:PersonWorkerAssociationType:top</title>
<path fill="none" stroke="#000000" d="M200.5,-72.5C225.6649,-72.5 234.3891,-72.5 255.3154,-72.5"/>
<polygon fill="#000000" stroke="#000000" points="255.5,-76.0001 265.5,-72.5 255.5,-69.0001 255.5,-76.0001"/>
<text text-anchor="middle" x="230.5" y="-75.9" font-family="Helvetica,sans-Serif" font-size="12.00" fill="#000000">type</text>
</g>
<!-- nc:AssociationType -->
<g id="node3" class="node">
<title>nc:AssociationType</title>
<g id="a_node3_7"><a xlink:href="../../nc/AssociationType/#diagram" xlink:title="A data type for an association, connection, relationship, or involvement somehow linking people, things, and/or activities together." target="_top">
<text text-anchor="start" x="355.5" y="-125.9" font-family="Helvetica,sans-Serif" font-size="12.00" fill="#000000">nc:AssociationType</text>
</a>
</g>
<polygon fill="none" stroke="#000000" points="353,-121 353,-138 462,-138 462,-121 353,-121"/>
</g>
<!-- nc:AssociationType&#45;&gt;nc:PersonWorkerAssociationType -->
<g id="edge2" class="edge">
<title>nc:AssociationType&#45;&gt;nc:PersonWorkerAssociationType</title>
<path fill="none" stroke="#000000" d="M407.5,-120.9761C407.5,-114.614 407.5,-105.3292 407.5,-95.3557"/>
<polygon fill="#000000" stroke="#000000" points="411.0001,-95.2354 407.5,-85.2354 404.0001,-95.2354 411.0001,-95.2354"/>
<text text-anchor="middle" x="398" y="-99.9" font-family="Helvetica,sans-Serif" font-size="12.00" fill="#000000">extension</text>
</g>
<!-- structures:AssociationType -->
<g id="node4" class="node">
<title>structures:AssociationType</title>
<g id="a_node4_8"><a xlink:href="../../structures/AssociationType/#diagram" xlink:title="A data type for a relationship between two or more objects, including any properties of that relationship." target="_top">
<text text-anchor="start" x="335.5" y="-178.9" font-family="Helvetica,sans-Serif" font-size="12.00" fill="#000000">structures:AssociationType</text>
</a>
</g>
<polygon fill="none" stroke="#000000" points="333,-174 333,-191 482,-191 482,-174 333,-174"/>
</g>
<!-- structures:AssociationType&#45;&gt;nc:AssociationType -->
<g id="edge3" class="edge">
<title>structures:AssociationType&#45;&gt;nc:AssociationType</title>
<path fill="none" stroke="#000000" d="M407.5,-173.911C407.5,-167.0124 407.5,-157.0696 407.5,-148.34"/>
<polygon fill="#000000" stroke="#000000" points="411.0001,-148.2518 407.5,-138.2519 404.0001,-148.2519 411.0001,-148.2518"/>
<text text-anchor="middle" x="398" y="-152.9" font-family="Helvetica,sans-Serif" font-size="12.00" fill="#000000">extension</text>
</g>
</g>
</svg>
