<?xml version="1.0" encoding="UTF-8" standalone="no"?>
<!DOCTYPE svg PUBLIC "-//W3C//DTD SVG 1.1//EN"
 "http://www.w3.org/Graphics/SVG/1.1/DTD/svg11.dtd">
<!-- Generated by graphviz version 2.40.1 (20161225.0304)
 -->
<!-- Title: graphic Pages: 1 -->
<svg width="546pt" height="169pt"
 viewBox="0.00 0.00 546.00 169.00" xmlns="http://www.w3.org/2000/svg" xmlns:xlink="http://www.w3.org/1999/xlink">
<g id="graph0" class="graph" transform="scale(1 1) rotate(0) translate(4 165)">
<title>graphic</title>
<polygon fill="#ffffff" stroke="transparent" points="-4,4 -4,-165 542,-165 542,4 -4,4"/>
<!-- em:PatientLaboratoryReportingType -->
<g id="node1" class="node">
<title>em:PatientLaboratoryReportingType</title>
<text text-anchor="start" x="236" y="-39.9" font-family="Helvetica,sans-Serif" font-weight="bold" font-size="12.00" fill="#000000">em:PatientLaboratoryReportingType</text>
<g id="a_node1_0"><a xlink:href="../../j/BiologicTest/#diagram" xlink:title="A test administered to identify, quantify or describe biologic material from a person&#39;s system/body." target="_top">
<polygon fill="#ebebeb" stroke="transparent" points="235,-19.5 235,-34.5 533,-34.5 533,-19.5 235,-19.5"/>
<text text-anchor="start" x="236" y="-23.9" font-family="Helvetica,sans-Serif" font-size="12.00" fill="#000000">j:BiologicTest: j:BiologicTestType [0&#45;n]</text>
</a>
</g>
<g id="a_node1_1"><a xlink:href="../../em/PatientLaboratoryReportingAugmentationPoint/#diagram" xlink:title="An augmentation point for type em:PatientLaboratoryReportingType" target="_top">
<text text-anchor="start" x="236" y="-8.9" font-family="Helvetica,sans-Serif" font-size="12.00" fill="#000000">em:PatientLaboratoryReportingAugmentationPoint [0&#45;n]</text>
</a>
</g>
<polygon fill="#ff0000" stroke="#ff0000" points="230,-34.5 230,-34.5 538,-34.5 538,-34.5 230,-34.5"/>
<polygon fill="none" stroke="#ff0000" stroke-width="5" points="232.5,-2.5 232.5,-52.5 535.5,-52.5 535.5,-2.5 232.5,-2.5"/>
</g>
<!-- Properties -->
<g id="node2" class="node">
<title>Properties</title>
<text text-anchor="start" x="2.5" y="-39.9" font-family="Helvetica,sans-Serif" font-weight="bold" font-size="12.00" fill="#000000">Properties</text>
<g id="a_node2_2"><a xlink:href="../../em/PatientLaboratoryReporting/#diagram" xlink:title="A situational analysis that pertains to the laboratory reporting of a patient&#45;level data." target="_top">
<polygon fill="#ebebeb" stroke="transparent" points="1.5,-19.5 1.5,-34.5 170.5,-34.5 170.5,-19.5 1.5,-19.5"/>
<text text-anchor="start" x="2.5" y="-23.9" font-family="Helvetica,sans-Serif" font-size="12.00" fill="#000000">em:PatientLaboratoryReporting</text>
</a>
</g>
<polygon fill="#000000" stroke="#000000" points=".5,-34.5 .5,-34.5 171.5,-34.5 171.5,-34.5 .5,-34.5"/>
<polygon fill="none" stroke="#000000" points="0,-18.5 0,-50.5 171,-50.5 171,-18.5 0,-18.5"/>
</g>
<!-- Properties&#45;&gt;em:PatientLaboratoryReportingType -->
<g id="edge1" class="edge">
<title>Properties:top&#45;&gt;em:PatientLaboratoryReportingType:top</title>
<path fill="none" stroke="#000000" d="M170.5,-42.5C195.4714,-42.5 204.1284,-42.5 224.8937,-42.5"/>
<polygon fill="#000000" stroke="#000000" points="225,-46.0001 235,-42.5 225,-39.0001 225,-46.0001"/>
<text text-anchor="middle" x="200.5" y="-45.9" font-family="Helvetica,sans-Serif" font-size="12.00" fill="#000000">type</text>
</g>
<!-- nc:ActivityType -->
<g id="node3" class="node">
<title>nc:ActivityType</title>
<g id="a_node3_3"><a xlink:href="../../nc/ActivityType/#diagram" xlink:title="A data type for a single or set of related actions, events, or process steps." target="_top">
<text text-anchor="start" x="344" y="-95.9" font-family="Helvetica,sans-Serif" font-size="12.00" fill="#000000">nc:ActivityType</text>
</a>
</g>
<polygon fill="none" stroke="#000000" points="341.5,-91 341.5,-108 426.5,-108 426.5,-91 341.5,-91"/>
</g>
<!-- nc:ActivityType&#45;&gt;em:PatientLaboratoryReportingType -->
<g id="edge2" class="edge">
<title>nc:ActivityType&#45;&gt;em:PatientLaboratoryReportingType</title>
<path fill="none" stroke="#000000" d="M384,-90.8151C384,-84.3271 384,-74.9677 384,-65.4273"/>
<polygon fill="#000000" stroke="#000000" points="387.5001,-65.1311 384,-55.1312 380.5001,-65.1312 387.5001,-65.1311"/>
<text text-anchor="middle" x="374.5" y="-69.9" font-family="Helvetica,sans-Serif" font-size="12.00" fill="#000000">extension</text>
</g>
<!-- structures:ObjectType -->
<g id="node4" class="node">
<title>structures:ObjectType</title>
<g id="a_node4_4"><a xlink:href="../../structures/ObjectType/#diagram" xlink:title="A data type for a thing with its own lifespan that has some existence." target="_top">
<text text-anchor="start" x="325" y="-148.9" font-family="Helvetica,sans-Serif" font-size="12.00" fill="#000000">structures:ObjectType</text>
</a>
</g>
<polygon fill="none" stroke="#000000" points="323,-144 323,-161 445,-161 445,-144 323,-144"/>
</g>
<!-- structures:ObjectType&#45;&gt;nc:ActivityType -->
<g id="edge3" class="edge">
<title>structures:ObjectType&#45;&gt;nc:ActivityType</title>
<path fill="none" stroke="#000000" d="M384,-143.911C384,-137.0124 384,-127.0696 384,-118.34"/>
<polygon fill="#000000" stroke="#000000" points="387.5001,-118.2518 384,-108.2519 380.5001,-118.2519 387.5001,-118.2518"/>
<text text-anchor="middle" x="374.5" y="-122.9" font-family="Helvetica,sans-Serif" font-size="12.00" fill="#000000">extension</text>
</g>
</g>
</svg>
