<?xml version="1.0" encoding="UTF-8" standalone="no"?>
<!DOCTYPE svg PUBLIC "-//W3C//DTD SVG 1.1//EN"
 "http://www.w3.org/Graphics/SVG/1.1/DTD/svg11.dtd">
<!-- Generated by graphviz version 2.40.1 (20161225.0304)
 -->
<!-- Title: graphic Pages: 1 -->
<svg width="537pt" height="86pt"
 viewBox="0.00 0.00 537.00 86.00" xmlns="http://www.w3.org/2000/svg" xmlns:xlink="http://www.w3.org/1999/xlink">
<g id="graph0" class="graph" transform="scale(1 1) rotate(0) translate(4 82)">
<title>graphic</title>
<polygon fill="#ffffff" stroke="transparent" points="-4,4 -4,-82 533,-82 533,4 -4,4"/>
<!-- commodity:ConveyanceCategoryCode -->
<g id="node1" class="node">
<title>commodity:ConveyanceCategoryCode</title>
<text text-anchor="start" x="6.5" y="-9.9" font-family="Helvetica,sans-Serif" font-weight="bold" font-size="12.00" fill="#000000">commodity:ConveyanceCategoryCode</text>
<polygon fill="none" stroke="#ff0000" stroke-width="5" points="2.5,-2.5 2.5,-22.5 230.5,-22.5 230.5,-2.5 2.5,-2.5"/>
</g>
<!-- commodity:ConveyanceCategoryCodeType -->
<g id="node3" class="node">
<title>commodity:ConveyanceCategoryCodeType</title>
<g id="a_node3_0"><a xlink:href="../../commodity/ConveyanceCategoryCodeType/#diagram" xlink:title="A data type for a kind of conveyance." target="_top">
<text text-anchor="start" x="294.5" y="-8.9" font-family="Helvetica,sans-Serif" font-size="12.00" fill="#000000">commodity:ConveyanceCategoryCodeType</text>
</a>
</g>
<polygon fill="none" stroke="#000000" points="292,-4 292,-21 529,-21 529,-4 292,-4"/>
</g>
<!-- commodity:ConveyanceCategoryCode&#45;&gt;commodity:ConveyanceCategoryCodeType -->
<g id="edge2" class="edge">
<title>commodity:ConveyanceCategoryCode&#45;&gt;commodity:ConveyanceCategoryCodeType</title>
<path fill="none" stroke="#000000" d="M233.1188,-12.5C249.0505,-12.5 265.48,-12.5 281.6138,-12.5"/>
<polygon fill="#000000" stroke="#000000" points="281.6142,-16.0001 291.6142,-12.5 281.6141,-9.0001 281.6142,-16.0001"/>
<text text-anchor="middle" x="262.5" y="-15.9" font-family="Helvetica,sans-Serif" font-size="12.00" fill="#000000">type</text>
</g>
<!-- SubstitutionGroup -->
<g id="node2" class="node">
<title>SubstitutionGroup</title>
<g id="a_node2_1"><a xlink:href="../../nc/ConveyanceCategoryAbstract/#diagram" xlink:title="A data concept for a kind of conveyance." target="_top">
<text text-anchor="start" x="28.5" y="-65.9" font-family="Helvetica,sans-Serif" font-size="12.00" fill="#000000">nc:ConveyanceCategoryAbstract</text>
</a>
</g>
<polygon fill="none" stroke="#000000" points="26.5,-61 26.5,-78 206.5,-78 206.5,-61 26.5,-61"/>
</g>
<!-- SubstitutionGroup&#45;&gt;commodity:ConveyanceCategoryCode -->
<g id="edge1" class="edge">
<title>SubstitutionGroup&#45;&gt;commodity:ConveyanceCategoryCode</title>
<path fill="none" stroke="#000000" d="M116.5,-50.9163C116.5,-42.4809 116.5,-32.7214 116.5,-25.1501"/>
<polygon fill="#000000" stroke="#000000" points="113.0001,-50.9472 116.5,-60.9473 120.0001,-50.9473 113.0001,-50.9472"/>
<text text-anchor="middle" x="107" y="-39.9" font-family="Helvetica,sans-Serif" font-size="12.00" fill="#000000">substitution group</text>
</g>
</g>
</svg>
