<?xml version="1.0" encoding="UTF-8" standalone="no"?>
<!DOCTYPE svg PUBLIC "-//W3C//DTD SVG 1.1//EN"
 "http://www.w3.org/Graphics/SVG/1.1/DTD/svg11.dtd">
<!-- Generated by graphviz version 2.40.1 (20161225.0304)
 -->
<!-- Title: graphic Pages: 1 -->
<svg width="361pt" height="45pt"
 viewBox="0.00 0.00 361.00 45.00" xmlns="http://www.w3.org/2000/svg" xmlns:xlink="http://www.w3.org/1999/xlink">
<g id="graph0" class="graph" transform="scale(1 1) rotate(0) translate(4 41)">
<title>graphic</title>
<polygon fill="#ffffff" stroke="transparent" points="-4,4 -4,-41 357,-41 357,4 -4,4"/>
<!-- it:PartyName -->
<g id="node1" class="node">
<title>it:PartyName</title>
<text text-anchor="start" x="142.5" y="-21.4" font-family="Helvetica,sans-Serif" font-weight="bold" font-size="12.00" fill="#000000">it:PartyName</text>
<polygon fill="none" stroke="#ff0000" stroke-width="5" points="138.5,-14 138.5,-34 220.5,-34 220.5,-14 138.5,-14"/>
</g>
<!-- nc:TextType -->
<g id="node3" class="node">
<title>nc:TextType</title>
<g id="a_node3_0"><a xlink:href="../../nc/TextType/#diagram" xlink:title="A data type for a character string." target="_top">
<text text-anchor="start" x="284.5" y="-20.4" font-family="Helvetica,sans-Serif" font-size="12.00" fill="#000000">nc:TextType</text>
</a>
</g>
<polygon fill="none" stroke="#000000" points="282,-15.5 282,-32.5 353,-32.5 353,-15.5 282,-15.5"/>
</g>
<!-- it:PartyName&#45;&gt;nc:TextType -->
<g id="edge2" class="edge">
<title>it:PartyName&#45;&gt;nc:TextType</title>
<path fill="none" stroke="#000000" d="M223.1641,-24C238.7101,-24 256.2488,-24 271.9491,-24"/>
<polygon fill="#000000" stroke="#000000" points="271.9616,-27.5001 281.9616,-24 271.9615,-20.5001 271.9616,-27.5001"/>
<text text-anchor="middle" x="252.5" y="-27.4" font-family="Helvetica,sans-Serif" font-size="12.00" fill="#000000">type</text>
</g>
<!-- Types -->
<g id="node2" class="node">
<title>Types</title>
<text text-anchor="start" x="2.5" y="-21.4" font-family="Helvetica,sans-Serif" font-weight="bold" font-size="12.00" fill="#000000">Types</text>
<g id="a_node2_1"><a xlink:href="../../it/PartyType/#diagram" xlink:title="A data type for a Organization, Person or Thing associated with processing a Cargo entry." target="_top">
<polygon fill="#ebebeb" stroke="transparent" points="1.5,-1 1.5,-16 68.5,-16 68.5,-1 1.5,-1"/>
<text text-anchor="start" x="2.5" y="-5.4" font-family="Helvetica,sans-Serif" font-size="12.00" fill="#000000">it:PartyType</text>
</a>
</g>
<polygon fill="#000000" stroke="#000000" points=".5,-16 .5,-16 69.5,-16 69.5,-16 .5,-16"/>
<polygon fill="none" stroke="#000000" points="0,0 0,-32 69,-32 69,0 0,0"/>
</g>
<!-- Types&#45;&gt;it:PartyName -->
<g id="edge1" class="edge">
<title>Types:top&#45;&gt;it:PartyName</title>
<path fill="none" stroke="#000000" d="M68.5,-24C87.1122,-24 107.4798,-24 125.6291,-24"/>
<polygon fill="#000000" stroke="#000000" points="125.7427,-27.5001 135.7427,-24 125.7427,-20.5001 125.7427,-27.5001"/>
<text text-anchor="middle" x="102.5" y="-27.4" font-family="Helvetica,sans-Serif" font-size="12.00" fill="#000000">has&#45;a</text>
</g>
</g>
</svg>
