<?xml version="1.0" encoding="UTF-8" standalone="no"?>
<!DOCTYPE svg PUBLIC "-//W3C//DTD SVG 1.1//EN"
 "http://www.w3.org/Graphics/SVG/1.1/DTD/svg11.dtd">
<!-- Generated by graphviz version 2.40.1 (20161225.0304)
 -->
<!-- Title: graphic Pages: 1 -->
<svg width="222pt" height="154pt"
 viewBox="0.00 0.00 222.00 153.50" xmlns="http://www.w3.org/2000/svg" xmlns:xlink="http://www.w3.org/1999/xlink">
<g id="graph0" class="graph" transform="scale(1 1) rotate(0) translate(4 149.5)">
<title>graphic</title>
<polygon fill="#ffffff" stroke="transparent" points="-4,4 -4,-149.5 218,-149.5 218,4 -4,4"/>
<!-- em:Cat&#45;FCategoryCodeSimpleType -->
<g id="node1" class="node">
<title>em:Cat&#45;FCategoryCodeSimpleType</title>
<text text-anchor="start" x="6" y="-77.4" font-family="Helvetica,sans-Serif" font-weight="bold" font-size="12.00" fill="#000000">em:Cat&#45;FCategoryCodeSimpleType</text>
<polygon fill="none" stroke="#ff0000" stroke-width="5" points="2.5,-70 2.5,-90 211.5,-90 211.5,-70 2.5,-70"/>
</g>
<!-- DerivedTypes -->
<g id="node2" class="node">
<title>DerivedTypes</title>
<text text-anchor="start" x="30" y="-21.4" font-family="Helvetica,sans-Serif" font-weight="bold" font-size="12.00" fill="#000000">Derived types</text>
<g id="a_node2_0"><a xlink:href="../../em/Cat-FCategoryCodeType/#diagram" xlink:title="A data type for the Utilities." target="_top">
<polygon fill="#ebebeb" stroke="transparent" points="29,-1 29,-16 186,-16 186,-1 29,-1"/>
<text text-anchor="start" x="30" y="-5.4" font-family="Helvetica,sans-Serif" font-size="12.00" fill="#000000">em:Cat&#45;FCategoryCodeType</text>
</a>
</g>
<polygon fill="#000000" stroke="#000000" points="28,-16 28,-16 187,-16 187,-16 28,-16"/>
<polygon fill="none" stroke="#000000" points="27.5,0 27.5,-32 186.5,-32 186.5,0 27.5,0"/>
</g>
<!-- em:Cat&#45;FCategoryCodeSimpleType&#45;&gt;DerivedTypes -->
<g id="edge1" class="edge">
<title>em:Cat&#45;FCategoryCodeSimpleType&#45;&gt;DerivedTypes</title>
<path fill="none" stroke="#000000" d="M107,-67.4892C107,-60.3101 107,-51.0172 107,-42.306"/>
<polygon fill="#000000" stroke="#000000" points="110.5001,-42.1499 107,-32.1499 103.5001,-42.1499 110.5001,-42.1499"/>
<text text-anchor="middle" x="97.5" y="-46.65" font-family="Helvetica,sans-Serif" font-size="12.00" fill="#000000">derived</text>
</g>
<!-- xs:token -->
<g id="node3" class="node">
<title>xs:token</title>
<g id="a_node3_1"><a xlink:href="../../xs/token/#diagram" xlink:title="&lt;TABLE&gt;" target="_top">
<text text-anchor="start" x="85" y="-133.4" font-family="Helvetica,sans-Serif" font-size="12.00" fill="#000000">xs:token</text>
</a>
</g>
<polygon fill="none" stroke="#000000" points="82.5,-128.5 82.5,-145.5 131.5,-145.5 131.5,-128.5 82.5,-128.5"/>
</g>
<!-- xs:token&#45;&gt;em:Cat&#45;FCategoryCodeSimpleType -->
<g id="edge2" class="edge">
<title>xs:token&#45;&gt;em:Cat&#45;FCategoryCodeSimpleType</title>
<path fill="none" stroke="#000000" d="M107,-128.4473C107,-121.6242 107,-111.7417 107,-102.6794"/>
<polygon fill="#000000" stroke="#000000" points="110.5001,-102.6501 107,-92.6501 103.5001,-102.6502 110.5001,-102.6501"/>
<text text-anchor="middle" x="97.5" y="-107.4" font-family="Helvetica,sans-Serif" font-size="12.00" fill="#000000">restriction</text>
</g>
</g>
</svg>
