<?xml version="1.0" encoding="UTF-8" standalone="no"?>
<!DOCTYPE svg PUBLIC "-//W3C//DTD SVG 1.1//EN"
 "http://www.w3.org/Graphics/SVG/1.1/DTD/svg11.dtd">
<!-- Generated by graphviz version 2.40.1 (20161225.0304)
 -->
<!-- Title: graphic Pages: 1 -->
<svg width="660pt" height="199pt"
 viewBox="0.00 0.00 660.00 199.00" xmlns="http://www.w3.org/2000/svg" xmlns:xlink="http://www.w3.org/1999/xlink">
<g id="graph0" class="graph" transform="scale(1 1) rotate(0) translate(4 195)">
<title>graphic</title>
<polygon fill="#ffffff" stroke="transparent" points="-4,4 -4,-195 656,-195 656,4 -4,4"/>
<!-- scr:AircraftFlightPlanSummaryAssociationType -->
<g id="node1" class="node">
<title>scr:AircraftFlightPlanSummaryAssociationType</title>
<text text-anchor="start" x="293.5" y="-69.9" font-family="Helvetica,sans-Serif" font-weight="bold" font-size="12.00" fill="#000000">scr:AircraftFlightPlanSummaryAssociationType</text>
<g id="a_node1_0"><a xlink:href="../../it/Carrier/#diagram" xlink:title="A party providing the transport of goods between named points." target="_top">
<polygon fill="#ebebeb" stroke="transparent" points="292.5,-49.5 292.5,-64.5 647.5,-64.5 647.5,-49.5 292.5,-49.5"/>
<text text-anchor="start" x="293.5" y="-53.9" font-family="Helvetica,sans-Serif" font-size="12.00" fill="#000000">it:Carrier: it:CarrierType [0&#45;n]</text>
</a>
</g>
<g id="a_node1_1"><a xlink:href="../../nc/Aircraft/#diagram" xlink:title="A mode of transportation capable of flying in the air." target="_top">
<text text-anchor="start" x="293.5" y="-38.9" font-family="Helvetica,sans-Serif" font-size="12.00" fill="#000000">nc:Aircraft: nc:AircraftType [0&#45;n]</text>
</a>
</g>
<g id="a_node1_2"><a xlink:href="../../scr/FlightPlanSummary/#diagram" xlink:title="A data type representing information related to a specific flight plan" target="_top">
<polygon fill="#ebebeb" stroke="transparent" points="292.5,-19.5 292.5,-34.5 647.5,-34.5 647.5,-19.5 292.5,-19.5"/>
<text text-anchor="start" x="293.5" y="-23.9" font-family="Helvetica,sans-Serif" font-size="12.00" fill="#000000">scr:FlightPlanSummary: scr:FlightPlanSummaryType [0&#45;n]</text>
</a>
</g>
<g id="a_node1_3"><a xlink:href="../../scr/AircraftFlightPlanSummaryAssociationAugmentationPoint/#diagram" xlink:title="An augmentation point for AircraftFlightPlanSummaryAssociationType." target="_top">
<text text-anchor="start" x="293.5" y="-8.9" font-family="Helvetica,sans-Serif" font-size="12.00" fill="#000000">scr:AircraftFlightPlanSummaryAssociationAugmentationPoint [0&#45;n]</text>
</a>
</g>
<polygon fill="#ff0000" stroke="#ff0000" points="287.5,-64.5 287.5,-64.5 652.5,-64.5 652.5,-64.5 287.5,-64.5"/>
<polygon fill="none" stroke="#ff0000" stroke-width="5" points="289.5,-2.5 289.5,-82.5 649.5,-82.5 649.5,-2.5 289.5,-2.5"/>
</g>
<!-- Properties -->
<g id="node2" class="node">
<title>Properties</title>
<text text-anchor="start" x="2" y="-69.9" font-family="Helvetica,sans-Serif" font-weight="bold" font-size="12.00" fill="#000000">Properties</text>
<g id="a_node2_4"><a xlink:href="../../scr/AircraftFlightPlanSummaryAssociation/#diagram" xlink:title="An association between a flight plan summary, an aircraft, and a carrier." target="_top">
<polygon fill="#ebebeb" stroke="transparent" points="1,-49.5 1,-64.5 227,-64.5 227,-49.5 1,-49.5"/>
<text text-anchor="start" x="2" y="-53.9" font-family="Helvetica,sans-Serif" font-size="12.00" fill="#000000">scr:AircraftFlightPlanSummaryAssociation</text>
</a>
</g>
<polygon fill="#000000" stroke="#000000" points="0,-64.5 0,-64.5 228,-64.5 228,-64.5 0,-64.5"/>
<polygon fill="none" stroke="#000000" points="0,-48.5 0,-80.5 228,-80.5 228,-48.5 0,-48.5"/>
</g>
<!-- Properties&#45;&gt;scr:AircraftFlightPlanSummaryAssociationType -->
<g id="edge1" class="edge">
<title>Properties:top&#45;&gt;scr:AircraftFlightPlanSummaryAssociationType:top</title>
<path fill="none" stroke="#000000" d="M227,-72.5C252.3585,-72.5 261.1498,-72.5 282.2371,-72.5"/>
<polygon fill="#000000" stroke="#000000" points="282.5,-76.0001 292.5,-72.5 282.5,-69.0001 282.5,-76.0001"/>
<text text-anchor="middle" x="257.5" y="-75.9" font-family="Helvetica,sans-Serif" font-size="12.00" fill="#000000">type</text>
</g>
<!-- nc:AssociationType -->
<g id="node3" class="node">
<title>nc:AssociationType</title>
<g id="a_node3_5"><a xlink:href="../../nc/AssociationType/#diagram" xlink:title="A data type for an association, connection, relationship, or involvement somehow linking people, things, and/or activities together." target="_top">
<text text-anchor="start" x="417.5" y="-125.9" font-family="Helvetica,sans-Serif" font-size="12.00" fill="#000000">nc:AssociationType</text>
</a>
</g>
<polygon fill="none" stroke="#000000" points="415,-121 415,-138 524,-138 524,-121 415,-121"/>
</g>
<!-- nc:AssociationType&#45;&gt;scr:AircraftFlightPlanSummaryAssociationType -->
<g id="edge2" class="edge">
<title>nc:AssociationType&#45;&gt;scr:AircraftFlightPlanSummaryAssociationType</title>
<path fill="none" stroke="#000000" d="M469.5,-120.9761C469.5,-114.614 469.5,-105.3292 469.5,-95.3557"/>
<polygon fill="#000000" stroke="#000000" points="473.0001,-95.2354 469.5,-85.2354 466.0001,-95.2354 473.0001,-95.2354"/>
<text text-anchor="middle" x="460" y="-99.9" font-family="Helvetica,sans-Serif" font-size="12.00" fill="#000000">extension</text>
</g>
<!-- structures:AssociationType -->
<g id="node4" class="node">
<title>structures:AssociationType</title>
<g id="a_node4_6"><a xlink:href="../../structures/AssociationType/#diagram" xlink:title="A data type for a relationship between two or more objects, including any properties of that relationship." target="_top">
<text text-anchor="start" x="397.5" y="-178.9" font-family="Helvetica,sans-Serif" font-size="12.00" fill="#000000">structures:AssociationType</text>
</a>
</g>
<polygon fill="none" stroke="#000000" points="395,-174 395,-191 544,-191 544,-174 395,-174"/>
</g>
<!-- structures:AssociationType&#45;&gt;nc:AssociationType -->
<g id="edge3" class="edge">
<title>structures:AssociationType&#45;&gt;nc:AssociationType</title>
<path fill="none" stroke="#000000" d="M469.5,-173.911C469.5,-167.0124 469.5,-157.0696 469.5,-148.34"/>
<polygon fill="#000000" stroke="#000000" points="473.0001,-148.2518 469.5,-138.2519 466.0001,-148.2519 473.0001,-148.2518"/>
<text text-anchor="middle" x="460" y="-152.9" font-family="Helvetica,sans-Serif" font-size="12.00" fill="#000000">extension</text>
</g>
</g>
</svg>
