<?xml version="1.0" encoding="UTF-8" standalone="no"?>
<!DOCTYPE svg PUBLIC "-//W3C//DTD SVG 1.1//EN"
 "http://www.w3.org/Graphics/SVG/1.1/DTD/svg11.dtd">
<!-- Generated by graphviz version 2.40.1 (20161225.0304)
 -->
<!-- Title: graphic Pages: 1 -->
<svg width="803pt" height="236pt"
 viewBox="0.00 0.00 803.00 236.00" xmlns="http://www.w3.org/2000/svg" xmlns:xlink="http://www.w3.org/1999/xlink">
<g id="graph0" class="graph" transform="scale(1 1) rotate(0) translate(4 232)">
<title>graphic</title>
<polygon fill="#ffffff" stroke="transparent" points="-4,4 -4,-232 799,-232 799,4 -4,4"/>
<!-- nc:RequestType -->
<g id="node1" class="node">
<title>nc:RequestType</title>
<text text-anchor="start" x="130.5" y="-159.9" font-family="Helvetica,sans-Serif" font-weight="bold" font-size="12.00" fill="#000000">nc:RequestType</text>
<g id="a_node1_0"><a xlink:href="../../nc/RequestContactInformation/#diagram" xlink:title="A set of contact information for a point of contact for the request." target="_top">
<polygon fill="#ebebeb" stroke="transparent" points="129.5,-139.5 129.5,-154.5 472.5,-154.5 472.5,-139.5 129.5,-139.5"/>
<text text-anchor="start" x="130.5" y="-143.9" font-family="Helvetica,sans-Serif" font-size="12.00" fill="#000000">nc:RequestContactInformation: nc:ContactInformationType [0&#45;n]</text>
</a>
</g>
<g id="a_node1_1"><a xlink:href="../../nc/RequestDate/#diagram" xlink:title="A date on which a request was made." target="_top">
<text text-anchor="start" x="130.5" y="-128.9" font-family="Helvetica,sans-Serif" font-size="12.00" fill="#000000">nc:RequestDate: nc:DateType [0&#45;n]</text>
</a>
</g>
<g id="a_node1_2"><a xlink:href="../../nc/RequestDecisionText/#diagram" xlink:title="A decision that was made over a request." target="_top">
<polygon fill="#ebebeb" stroke="transparent" points="129.5,-109.5 129.5,-124.5 472.5,-124.5 472.5,-109.5 129.5,-109.5"/>
<text text-anchor="start" x="130.5" y="-113.9" font-family="Helvetica,sans-Serif" font-size="12.00" fill="#000000">nc:RequestDecisionText: nc:TextType [0&#45;n]</text>
</a>
</g>
<g id="a_node1_3"><a xlink:href="../../nc/RequestDescriptionText/#diagram" xlink:title="A description of a request." target="_top">
<text text-anchor="start" x="130.5" y="-98.9" font-family="Helvetica,sans-Serif" font-size="12.00" fill="#000000">nc:RequestDescriptionText: nc:TextType [0&#45;n]</text>
</a>
</g>
<g id="a_node1_4"><a xlink:href="../../nc/RequestIdentification/#diagram" xlink:title="An identification of a request." target="_top">
<polygon fill="#ebebeb" stroke="transparent" points="129.5,-79.5 129.5,-94.5 472.5,-94.5 472.5,-79.5 129.5,-79.5"/>
<text text-anchor="start" x="130.5" y="-83.9" font-family="Helvetica,sans-Serif" font-size="12.00" fill="#000000">nc:RequestIdentification: nc:IdentificationType [0&#45;n]</text>
</a>
</g>
<g id="a_node1_5"><a xlink:href="../../nc/RequestText/#diagram" xlink:title="A request message." target="_top">
<text text-anchor="start" x="130.5" y="-68.9" font-family="Helvetica,sans-Serif" font-size="12.00" fill="#000000">nc:RequestText: nc:TextType [0&#45;n]</text>
</a>
</g>
<g id="a_node1_6"><a xlink:href="../../nc/RequestDecisionDate/#diagram" xlink:title="A date on which a decision was recorded for a request." target="_top">
<polygon fill="#ebebeb" stroke="transparent" points="129.5,-49.5 129.5,-64.5 472.5,-64.5 472.5,-49.5 129.5,-49.5"/>
<text text-anchor="start" x="130.5" y="-53.9" font-family="Helvetica,sans-Serif" font-size="12.00" fill="#000000">nc:RequestDecisionDate: nc:DateType [0&#45;n]</text>
</a>
</g>
<g id="a_node1_7"><a xlink:href="../../nc/RequestCategoryAbstract/#diagram" xlink:title="A data concept for a kind of request." target="_top">
<text text-anchor="start" x="130.5" y="-38.9" font-family="Helvetica,sans-Serif" font-size="12.00" fill="#000000">nc:RequestCategoryAbstract [0&#45;n]</text>
</a>
</g>
<g id="a_node1_8"><a xlink:href="../../nc/RequestStatus/#diagram" xlink:title="A status of a request." target="_top">
<polygon fill="#ebebeb" stroke="transparent" points="129.5,-19.5 129.5,-34.5 472.5,-34.5 472.5,-19.5 129.5,-19.5"/>
<text text-anchor="start" x="130.5" y="-23.9" font-family="Helvetica,sans-Serif" font-size="12.00" fill="#000000">nc:RequestStatus: nc:StatusType [0&#45;n]</text>
</a>
</g>
<g id="a_node1_9"><a xlink:href="../../nc/RequestAugmentationPoint/#diagram" xlink:title="An augmentation point for RequestType." target="_top">
<text text-anchor="start" x="130.5" y="-8.9" font-family="Helvetica,sans-Serif" font-size="12.00" fill="#000000">nc:RequestAugmentationPoint [0&#45;n]</text>
</a>
</g>
<polygon fill="#ff0000" stroke="#ff0000" points="124.5,-154.5 124.5,-154.5 477.5,-154.5 477.5,-154.5 124.5,-154.5"/>
<polygon fill="none" stroke="#ff0000" stroke-width="5" points="126.5,-2.5 126.5,-172.5 474.5,-172.5 474.5,-2.5 126.5,-2.5"/>
</g>
<!-- subst_d9e21274 -->
<g id="node2" class="node">
<title>subst_d9e21274</title>
<g id="a_node2_10"><a xlink:href="../../nc/RequestCategoryAbstract/#diagram" xlink:title="&lt;TABLE&gt;" target="_top">
<text text-anchor="start" x="516.5" y="-38.9" font-family="Helvetica,sans-Serif" font-weight="bold" font-size="12.00" fill="#000000">Substitution group nc:RequestCategoryAbstract</text>
</a>
</g>
<g id="a_node2_11"><a xlink:href="../../nc/RequestCategoryText/#diagram" xlink:title="A kind of request." target="_top">
<polygon fill="#ebebeb" stroke="transparent" points="515.5,-18.5 515.5,-33.5 794.5,-33.5 794.5,-18.5 515.5,-18.5"/>
<text text-anchor="start" x="516.5" y="-22.9" font-family="Helvetica,sans-Serif" font-size="12.00" fill="#000000">nc:RequestCategoryText: nc:TextType</text>
</a>
</g>
<polygon fill="#000000" stroke="#000000" points="514.5,-33.5 514.5,-33.5 795.5,-33.5 795.5,-33.5 514.5,-33.5"/>
<polygon fill="none" stroke="#000000" points="514,-17.5 514,-49.5 795,-49.5 795,-17.5 514,-17.5"/>
</g>
<!-- nc:RequestType&#45;&gt;subst_d9e21274 -->
<g id="edge1" class="edge">
<title>nc:RequestType:e&#45;&gt;subst_d9e21274:w</title>
<path fill="none" stroke="#000000" d="M482.6119,-41.5C494.1435,-41.5 500.2708,-41.5 515.5,-41.5"/>
<polygon fill="#000000" stroke="#000000" points="482.5,-38.0001 472.5,-41.5 482.5,-45.0001 482.5,-38.0001"/>
</g>
<!-- Properties -->
<g id="node3" class="node">
<title>Properties</title>
<text text-anchor="start" x="2.5" y="-159.9" font-family="Helvetica,sans-Serif" font-weight="bold" font-size="12.00" fill="#000000">Properties</text>
<g id="a_node3_12"><a xlink:href="../../nc/Request/#diagram" xlink:title="A formal message requesting something that is submitted to an authority." target="_top">
<polygon fill="#ebebeb" stroke="transparent" points="1.5,-139.5 1.5,-154.5 64.5,-154.5 64.5,-139.5 1.5,-139.5"/>
<text text-anchor="start" x="2.5" y="-143.9" font-family="Helvetica,sans-Serif" font-size="12.00" fill="#000000">nc:Request</text>
</a>
</g>
<polygon fill="#000000" stroke="#000000" points=".5,-154.5 .5,-154.5 65.5,-154.5 65.5,-154.5 .5,-154.5"/>
<polygon fill="none" stroke="#000000" points="0,-138.5 0,-170.5 65,-170.5 65,-138.5 0,-138.5"/>
</g>
<!-- Properties&#45;&gt;nc:RequestType -->
<g id="edge2" class="edge">
<title>Properties:top&#45;&gt;nc:RequestType:top</title>
<path fill="none" stroke="#000000" d="M64.5,-162.5C89.6649,-162.5 98.3891,-162.5 119.3154,-162.5"/>
<polygon fill="#000000" stroke="#000000" points="119.5,-166.0001 129.5,-162.5 119.5,-159.0001 119.5,-166.0001"/>
<text text-anchor="middle" x="94.5" y="-165.9" font-family="Helvetica,sans-Serif" font-size="12.00" fill="#000000">type</text>
</g>
<!-- structures:ObjectType -->
<g id="node4" class="node">
<title>structures:ObjectType</title>
<g id="a_node4_13"><a xlink:href="../../structures/ObjectType/#diagram" xlink:title="A data type for a thing with its own lifespan that has some existence." target="_top">
<text text-anchor="start" x="241.5" y="-215.9" font-family="Helvetica,sans-Serif" font-size="12.00" fill="#000000">structures:ObjectType</text>
</a>
</g>
<polygon fill="none" stroke="#000000" points="239.5,-211 239.5,-228 361.5,-228 361.5,-211 239.5,-211"/>
</g>
<!-- structures:ObjectType&#45;&gt;nc:RequestType -->
<g id="edge3" class="edge">
<title>structures:ObjectType&#45;&gt;nc:RequestType</title>
<path fill="none" stroke="#000000" d="M300.5,-210.9836C300.5,-204.7984 300.5,-195.6933 300.5,-185.1828"/>
<polygon fill="#000000" stroke="#000000" points="304.0001,-185.1787 300.5,-175.1787 297.0001,-185.1787 304.0001,-185.1787"/>
<text text-anchor="middle" x="291" y="-189.9" font-family="Helvetica,sans-Serif" font-size="12.00" fill="#000000">extension</text>
</g>
</g>
</svg>
