<?xml version="1.0" encoding="UTF-8" standalone="no"?>
<!DOCTYPE svg PUBLIC "-//W3C//DTD SVG 1.1//EN"
 "http://www.w3.org/Graphics/SVG/1.1/DTD/svg11.dtd">
<!-- Generated by graphviz version 2.40.1 (20161225.0304)
 -->
<!-- Title: graphic Pages: 1 -->
<svg width="700pt" height="45pt"
 viewBox="0.00 0.00 700.00 45.00" xmlns="http://www.w3.org/2000/svg" xmlns:xlink="http://www.w3.org/1999/xlink">
<g id="graph0" class="graph" transform="scale(1 1) rotate(0) translate(4 41)">
<title>graphic</title>
<polygon fill="#ffffff" stroke="transparent" points="-4,4 -4,-41 696,-41 696,4 -4,4"/>
<!-- stat:ProcessDesignSpecifiedBusinessFunction -->
<g id="node1" class="node">
<title>stat:ProcessDesignSpecifiedBusinessFunction</title>
<text text-anchor="start" x="208" y="-21.4" font-family="Helvetica,sans-Serif" font-weight="bold" font-size="12.00" fill="#000000">stat:ProcessDesignSpecifiedBusinessFunction</text>
<polygon fill="none" stroke="#ff0000" stroke-width="5" points="204.5,-14 204.5,-34 481.5,-34 481.5,-14 204.5,-14"/>
</g>
<!-- stat:BusinessFunctionType -->
<g id="node3" class="node">
<title>stat:BusinessFunctionType</title>
<g id="a_node3_0"><a xlink:href="../../stat/BusinessFunctionType/#diagram" xlink:title="A data type for a thing an enterprise does, or needs to do, in order to achieve its objectives." target="_top">
<text text-anchor="start" x="545.5" y="-20.4" font-family="Helvetica,sans-Serif" font-size="12.00" fill="#000000">stat:BusinessFunctionType</text>
</a>
</g>
<polygon fill="none" stroke="#000000" points="543,-15.5 543,-32.5 692,-32.5 692,-15.5 543,-15.5"/>
</g>
<!-- stat:ProcessDesignSpecifiedBusinessFunction&#45;&gt;stat:BusinessFunctionType -->
<g id="edge2" class="edge">
<title>stat:ProcessDesignSpecifiedBusinessFunction&#45;&gt;stat:BusinessFunctionType</title>
<path fill="none" stroke="#000000" d="M484.2705,-24C500.8656,-24 517.3823,-24 532.849,-24"/>
<polygon fill="#000000" stroke="#000000" points="532.8515,-27.5001 542.8514,-24 532.8514,-20.5001 532.8515,-27.5001"/>
<text text-anchor="middle" x="513.5" y="-27.4" font-family="Helvetica,sans-Serif" font-size="12.00" fill="#000000">type</text>
</g>
<!-- Types -->
<g id="node2" class="node">
<title>Types</title>
<text text-anchor="start" x="2.5" y="-21.4" font-family="Helvetica,sans-Serif" font-weight="bold" font-size="12.00" fill="#000000">Types</text>
<g id="a_node2_1"><a xlink:href="../../stat/ProcessDesignType/#diagram" xlink:title="A data type for a process design specifies delivery of business functions." target="_top">
<polygon fill="#ebebeb" stroke="transparent" points="1.5,-1 1.5,-16 134.5,-16 134.5,-1 1.5,-1"/>
<text text-anchor="start" x="2.5" y="-5.4" font-family="Helvetica,sans-Serif" font-size="12.00" fill="#000000">stat:ProcessDesignType</text>
</a>
</g>
<polygon fill="#000000" stroke="#000000" points=".5,-16 .5,-16 135.5,-16 135.5,-16 .5,-16"/>
<polygon fill="none" stroke="#000000" points="0,0 0,-32 135,-32 135,0 0,0"/>
</g>
<!-- Types&#45;&gt;stat:ProcessDesignSpecifiedBusinessFunction -->
<g id="edge1" class="edge">
<title>Types:top&#45;&gt;stat:ProcessDesignSpecifiedBusinessFunction</title>
<path fill="none" stroke="#000000" d="M134.5,-24C153.0719,-24 172.5744,-24 191.8884,-24"/>
<polygon fill="#000000" stroke="#000000" points="191.9654,-27.5001 201.9653,-24 191.9653,-20.5001 191.9654,-27.5001"/>
<text text-anchor="middle" x="168.5" y="-27.4" font-family="Helvetica,sans-Serif" font-size="12.00" fill="#000000">has&#45;a</text>
</g>
</g>
</svg>
