<?xml version="1.0" encoding="UTF-8" standalone="no"?>
<!DOCTYPE svg PUBLIC "-//W3C//DTD SVG 1.1//EN"
 "http://www.w3.org/Graphics/SVG/1.1/DTD/svg11.dtd">
<!-- Generated by graphviz version 2.40.1 (20161225.0304)
 -->
<!-- Title: graphic Pages: 1 -->
<svg width="448pt" height="86pt"
 viewBox="0.00 0.00 448.00 86.00" xmlns="http://www.w3.org/2000/svg" xmlns:xlink="http://www.w3.org/1999/xlink">
<g id="graph0" class="graph" transform="scale(1 1) rotate(0) translate(4 82)">
<title>graphic</title>
<polygon fill="#ffffff" stroke="transparent" points="-4,4 -4,-82 444,-82 444,4 -4,4"/>
<!-- cbrn:ConveyanceCategoryCode -->
<g id="node1" class="node">
<title>cbrn:ConveyanceCategoryCode</title>
<text text-anchor="start" x="6.5" y="-9.9" font-family="Helvetica,sans-Serif" font-weight="bold" font-size="12.00" fill="#000000">cbrn:ConveyanceCategoryCode</text>
<polygon fill="none" stroke="#ff0000" stroke-width="5" points="2.5,-2.5 2.5,-22.5 192.5,-22.5 192.5,-2.5 2.5,-2.5"/>
</g>
<!-- cbrncl:ConveyanceKindCodeType -->
<g id="node3" class="node">
<title>cbrncl:ConveyanceKindCodeType</title>
<g id="a_node3_0"><a xlink:href="../../cbrncl/ConveyanceKindCodeType/#diagram" xlink:title="A data type for the kind of Conveyance" target="_top">
<text text-anchor="start" x="256" y="-8.9" font-family="Helvetica,sans-Serif" font-size="12.00" fill="#000000">cbrncl:ConveyanceKindCodeType</text>
</a>
</g>
<polygon fill="none" stroke="#000000" points="254,-4 254,-21 440,-21 440,-4 254,-4"/>
</g>
<!-- cbrn:ConveyanceCategoryCode&#45;&gt;cbrncl:ConveyanceKindCodeType -->
<g id="edge2" class="edge">
<title>cbrn:ConveyanceCategoryCode&#45;&gt;cbrncl:ConveyanceKindCodeType</title>
<path fill="none" stroke="#000000" d="M195.0352,-12.5C210.8435,-12.5 227.2648,-12.5 243.2153,-12.5"/>
<polygon fill="#000000" stroke="#000000" points="243.6179,-16.0001 253.6179,-12.5 243.6179,-9.0001 243.6179,-16.0001"/>
<text text-anchor="middle" x="224.5" y="-15.9" font-family="Helvetica,sans-Serif" font-size="12.00" fill="#000000">type</text>
</g>
<!-- SubstitutionGroup -->
<g id="node2" class="node">
<title>SubstitutionGroup</title>
<g id="a_node2_1"><a xlink:href="../../nc/ConveyanceCategoryAbstract/#diagram" xlink:title="A data concept for a kind of conveyance." target="_top">
<text text-anchor="start" x="9.5" y="-65.9" font-family="Helvetica,sans-Serif" font-size="12.00" fill="#000000">nc:ConveyanceCategoryAbstract</text>
</a>
</g>
<polygon fill="none" stroke="#000000" points="7.5,-61 7.5,-78 187.5,-78 187.5,-61 7.5,-61"/>
</g>
<!-- SubstitutionGroup&#45;&gt;cbrn:ConveyanceCategoryCode -->
<g id="edge1" class="edge">
<title>SubstitutionGroup&#45;&gt;cbrn:ConveyanceCategoryCode</title>
<path fill="none" stroke="#000000" d="M97.5,-50.9163C97.5,-42.4809 97.5,-32.7214 97.5,-25.1501"/>
<polygon fill="#000000" stroke="#000000" points="94.0001,-50.9472 97.5,-60.9473 101.0001,-50.9473 94.0001,-50.9472"/>
<text text-anchor="middle" x="88" y="-39.9" font-family="Helvetica,sans-Serif" font-size="12.00" fill="#000000">substitution group</text>
</g>
</g>
</svg>
