<?xml version="1.0" encoding="UTF-8" standalone="no"?>
<!DOCTYPE svg PUBLIC "-//W3C//DTD SVG 1.1//EN"
 "http://www.w3.org/Graphics/SVG/1.1/DTD/svg11.dtd">
<!-- Generated by graphviz version 2.40.1 (20161225.0304)
 -->
<!-- Title: graphic Pages: 1 -->
<svg width="384pt" height="86pt"
 viewBox="0.00 0.00 384.00 86.00" xmlns="http://www.w3.org/2000/svg" xmlns:xlink="http://www.w3.org/1999/xlink">
<g id="graph0" class="graph" transform="scale(1 1) rotate(0) translate(4 82)">
<title>graphic</title>
<polygon fill="#ffffff" stroke="transparent" points="-4,4 -4,-82 380,-82 380,4 -4,4"/>
<!-- j:FirearmCategoryDetailedCode -->
<g id="node1" class="node">
<title>j:FirearmCategoryDetailedCode</title>
<text text-anchor="start" x="6.5" y="-9.9" font-family="Helvetica,sans-Serif" font-weight="bold" font-size="12.00" fill="#000000">j:FirearmCategoryDetailedCode</text>
<polygon fill="none" stroke="#ff0000" stroke-width="5" points="2.5,-2.5 2.5,-22.5 190.5,-22.5 190.5,-2.5 2.5,-2.5"/>
</g>
<!-- ncic:GTYP3CodeType -->
<g id="node3" class="node">
<title>ncic:GTYP3CodeType</title>
<g id="a_node3_0"><a xlink:href="../../ncic/GTYP3CodeType/#diagram" xlink:title="A data type for 4.3: Gun Type Combination Field Codes" target="_top">
<text text-anchor="start" x="254" y="-8.9" font-family="Helvetica,sans-Serif" font-size="12.00" fill="#000000">ncic:GTYP3CodeType</text>
</a>
</g>
<polygon fill="none" stroke="#000000" points="252,-4 252,-21 376,-21 376,-4 252,-4"/>
</g>
<!-- j:FirearmCategoryDetailedCode&#45;&gt;ncic:GTYP3CodeType -->
<g id="edge2" class="edge">
<title>j:FirearmCategoryDetailedCode&#45;&gt;ncic:GTYP3CodeType</title>
<path fill="none" stroke="#000000" d="M193.1653,-12.5C209.5453,-12.5 226.2957,-12.5 241.905,-12.5"/>
<polygon fill="#000000" stroke="#000000" points="241.9825,-16.0001 251.9825,-12.5 241.9824,-9.0001 241.9825,-16.0001"/>
<text text-anchor="middle" x="222.5" y="-15.9" font-family="Helvetica,sans-Serif" font-size="12.00" fill="#000000">type</text>
</g>
<!-- SubstitutionGroup -->
<g id="node2" class="node">
<title>SubstitutionGroup</title>
<g id="a_node2_1"><a xlink:href="../../j/FirearmCategoryAbstract/#diagram" xlink:title="A data concept for a kind of firearm." target="_top">
<text text-anchor="start" x="26.5" y="-65.9" font-family="Helvetica,sans-Serif" font-size="12.00" fill="#000000">j:FirearmCategoryAbstract</text>
</a>
</g>
<polygon fill="none" stroke="#000000" points="24,-61 24,-78 169,-78 169,-61 24,-61"/>
</g>
<!-- SubstitutionGroup&#45;&gt;j:FirearmCategoryDetailedCode -->
<g id="edge1" class="edge">
<title>SubstitutionGroup&#45;&gt;j:FirearmCategoryDetailedCode</title>
<path fill="none" stroke="#000000" d="M96.5,-50.9163C96.5,-42.4809 96.5,-32.7214 96.5,-25.1501"/>
<polygon fill="#000000" stroke="#000000" points="93.0001,-50.9472 96.5,-60.9473 100.0001,-50.9473 93.0001,-50.9472"/>
<text text-anchor="middle" x="87" y="-39.9" font-family="Helvetica,sans-Serif" font-size="12.00" fill="#000000">substitution group</text>
</g>
</g>
</svg>
