<?xml version="1.0" encoding="UTF-8" standalone="no"?>
<!DOCTYPE svg PUBLIC "-//W3C//DTD SVG 1.1//EN"
 "http://www.w3.org/Graphics/SVG/1.1/DTD/svg11.dtd">
<!-- Generated by graphviz version 2.40.1 (20161225.0304)
 -->
<!-- Title: graphic Pages: 1 -->
<svg width="484pt" height="45pt"
 viewBox="0.00 0.00 484.00 45.00" xmlns="http://www.w3.org/2000/svg" xmlns:xlink="http://www.w3.org/1999/xlink">
<g id="graph0" class="graph" transform="scale(1 1) rotate(0) translate(4 41)">
<title>graphic</title>
<polygon fill="#ffffff" stroke="transparent" points="-4,4 -4,-41 480,-41 480,4 -4,4"/>
<!-- j:WitnessWillTestifyIndicator -->
<g id="node1" class="node">
<title>j:WitnessWillTestifyIndicator</title>
<text text-anchor="start" x="153.5" y="-21.4" font-family="Helvetica,sans-Serif" font-weight="bold" font-size="12.00" fill="#000000">j:WitnessWillTestifyIndicator</text>
<polygon fill="none" stroke="#ff0000" stroke-width="5" points="149.5,-14 149.5,-34 321.5,-34 321.5,-14 149.5,-14"/>
</g>
<!-- niem&#45;xs:boolean -->
<g id="node3" class="node">
<title>niem&#45;xs:boolean</title>
<g id="a_node3_0"><a xlink:href="../../niem-xs/boolean/#diagram" xlink:title="A data type for binary&#45;valued logic (true/false)." target="_top">
<text text-anchor="start" x="385.5" y="-20.4" font-family="Helvetica,sans-Serif" font-size="12.00" fill="#000000">niem&#45;xs:boolean</text>
</a>
</g>
<polygon fill="none" stroke="#000000" points="383,-15.5 383,-32.5 476,-32.5 476,-15.5 383,-15.5"/>
</g>
<!-- j:WitnessWillTestifyIndicator&#45;&gt;niem&#45;xs:boolean -->
<g id="edge2" class="edge">
<title>j:WitnessWillTestifyIndicator&#45;&gt;niem&#45;xs:boolean</title>
<path fill="none" stroke="#000000" d="M324.2676,-24C340.7236,-24 357.4978,-24 372.6775,-24"/>
<polygon fill="#000000" stroke="#000000" points="372.9083,-27.5001 382.9083,-24 372.9083,-20.5001 372.9083,-27.5001"/>
<text text-anchor="middle" x="353.5" y="-27.4" font-family="Helvetica,sans-Serif" font-size="12.00" fill="#000000">type</text>
</g>
<!-- Types -->
<g id="node2" class="node">
<title>Types</title>
<text text-anchor="start" x="2" y="-21.4" font-family="Helvetica,sans-Serif" font-weight="bold" font-size="12.00" fill="#000000">Types</text>
<g id="a_node2_1"><a xlink:href="../../j/WitnessType/#diagram" xlink:title="A data type for a person who has observed an incident." target="_top">
<polygon fill="#ebebeb" stroke="transparent" points="1,-1 1,-16 79,-16 79,-1 1,-1"/>
<text text-anchor="start" x="2" y="-5.4" font-family="Helvetica,sans-Serif" font-size="12.00" fill="#000000">j:WitnessType</text>
</a>
</g>
<polygon fill="#000000" stroke="#000000" points="0,-16 0,-16 80,-16 80,-16 0,-16"/>
<polygon fill="none" stroke="#000000" points="0,0 0,-32 80,-32 80,0 0,0"/>
</g>
<!-- Types&#45;&gt;j:WitnessWillTestifyIndicator -->
<g id="edge1" class="edge">
<title>Types:top&#45;&gt;j:WitnessWillTestifyIndicator</title>
<path fill="none" stroke="#000000" d="M79,-24C97.6551,-24 117.561,-24 136.7048,-24"/>
<polygon fill="#000000" stroke="#000000" points="136.9411,-27.5001 146.9411,-24 136.9411,-20.5001 136.9411,-27.5001"/>
<text text-anchor="middle" x="113.5" y="-27.4" font-family="Helvetica,sans-Serif" font-size="12.00" fill="#000000">has&#45;a</text>
</g>
</g>
</svg>
