<?xml version="1.0" encoding="UTF-8" standalone="no"?>
<!DOCTYPE svg PUBLIC "-//W3C//DTD SVG 1.1//EN"
 "http://www.w3.org/Graphics/SVG/1.1/DTD/svg11.dtd">
<!-- Generated by graphviz version 2.40.1 (20161225.0304)
 -->
<!-- Title: graphic Pages: 1 -->
<svg width="509pt" height="131pt"
 viewBox="0.00 0.00 509.00 131.00" xmlns="http://www.w3.org/2000/svg" xmlns:xlink="http://www.w3.org/1999/xlink">
<g id="graph0" class="graph" transform="scale(1 1) rotate(0) translate(4 127)">
<title>graphic</title>
<polygon fill="#ffffff" stroke="transparent" points="-4,4 -4,-127 505,-127 505,4 -4,4"/>
<!-- nc:EducationAugmentationPoint -->
<g id="node1" class="node">
<title>nc:EducationAugmentationPoint</title>
<text text-anchor="start" x="241.5" y="-107.4" font-family="Helvetica,sans-Serif" font-weight="bold" font-size="12.00" fill="#000000">nc:EducationAugmentationPoint</text>
<polygon fill="none" stroke="#ff0000" stroke-width="5" points="237.5,-100 237.5,-120 431.5,-120 431.5,-100 237.5,-100"/>
</g>
<!-- SubstitutableElements -->
<g id="node3" class="node">
<title>SubstitutableElements</title>
<text text-anchor="start" x="170.5" y="-51.4" font-family="Helvetica,sans-Serif" font-weight="bold" font-size="12.00" fill="#000000">Substitutable elements</text>
<g id="a_node3_0"><a xlink:href="../../em/EducationAugmentation/#diagram" xlink:title="Additional information about an education." target="_top">
<polygon fill="#ebebeb" stroke="transparent" points="169.5,-31 169.5,-46 500.5,-46 500.5,-31 169.5,-31"/>
<text text-anchor="start" x="170.5" y="-35.4" font-family="Helvetica,sans-Serif" font-size="12.00" fill="#000000">em:EducationAugmentation: em:EducationAugmentationType</text>
</a>
</g>
<g id="a_node3_1"><a xlink:href="../../im/EducationAugmentation/#diagram" xlink:title="Additional information about education." target="_top">
<text text-anchor="start" x="170.5" y="-20.4" font-family="Helvetica,sans-Serif" font-size="12.00" fill="#000000">im:EducationAugmentation: im:EducationAugmentationType</text>
</a>
</g>
<g id="a_node3_2"><a xlink:href="../../j/EducationAugmentation/#diagram" xlink:title="Additional information about an education." target="_top">
<polygon fill="#ebebeb" stroke="transparent" points="169.5,-1 169.5,-16 500.5,-16 500.5,-1 169.5,-1"/>
<text text-anchor="start" x="170.5" y="-5.4" font-family="Helvetica,sans-Serif" font-size="12.00" fill="#000000">j:EducationAugmentation: j:EducationAugmentationType</text>
</a>
</g>
<polygon fill="#000000" stroke="#000000" points="168.5,-46 168.5,-46 501.5,-46 501.5,-46 168.5,-46"/>
<polygon fill="none" stroke="#000000" points="168,0 168,-62 501,-62 501,0 168,0"/>
</g>
<!-- nc:EducationAugmentationPoint&#45;&gt;SubstitutableElements -->
<g id="edge2" class="edge">
<title>nc:EducationAugmentationPoint&#45;&gt;SubstitutableElements</title>
<path fill="none" stroke="#000000" d="M334.5,-87.1686C334.5,-79.3868 334.5,-70.5481 334.5,-62.2229"/>
<polygon fill="#000000" stroke="#000000" points="331.0001,-87.3018 334.5,-97.3018 338.0001,-87.3018 331.0001,-87.3018"/>
<text text-anchor="middle" x="325" y="-76.65" font-family="Helvetica,sans-Serif" font-size="12.00" fill="#000000">substitutable for</text>
</g>
<!-- Types -->
<g id="node2" class="node">
<title>Types</title>
<text text-anchor="start" x="2.5" y="-107.4" font-family="Helvetica,sans-Serif" font-weight="bold" font-size="12.00" fill="#000000">Types</text>
<g id="a_node2_3"><a xlink:href="../../nc/EducationType/#diagram" xlink:title="A data type for a person&#39;s educational background." target="_top">
<polygon fill="#ebebeb" stroke="transparent" points="1.5,-87 1.5,-102 100.5,-102 100.5,-87 1.5,-87"/>
<text text-anchor="start" x="2.5" y="-91.4" font-family="Helvetica,sans-Serif" font-size="12.00" fill="#000000">nc:EducationType</text>
</a>
</g>
<polygon fill="#000000" stroke="#000000" points=".5,-102 .5,-102 101.5,-102 101.5,-102 .5,-102"/>
<polygon fill="none" stroke="#000000" points="0,-86 0,-118 101,-118 101,-86 0,-86"/>
</g>
<!-- Types&#45;&gt;nc:EducationAugmentationPoint -->
<g id="edge1" class="edge">
<title>Types:top&#45;&gt;nc:EducationAugmentationPoint</title>
<path fill="none" stroke="#000000" d="M100.5,-110C141.0484,-110 185.5492,-110 224.7565,-110"/>
<polygon fill="#000000" stroke="#000000" points="224.8689,-113.5001 234.8689,-110 224.8689,-106.5001 224.8689,-113.5001"/>
<text text-anchor="middle" x="134.5" y="-113.4" font-family="Helvetica,sans-Serif" font-size="12.00" fill="#000000">has&#45;a</text>
</g>
</g>
</svg>
