<?xml version="1.0" encoding="UTF-8" standalone="no"?>
<!DOCTYPE svg PUBLIC "-//W3C//DTD SVG 1.1//EN"
 "http://www.w3.org/Graphics/SVG/1.1/DTD/svg11.dtd">
<!-- Generated by graphviz version 2.40.1 (20161225.0304)
 -->
<!-- Title: graphic Pages: 1 -->
<svg width="614pt" height="45pt"
 viewBox="0.00 0.00 614.00 45.00" xmlns="http://www.w3.org/2000/svg" xmlns:xlink="http://www.w3.org/1999/xlink">
<g id="graph0" class="graph" transform="scale(1 1) rotate(0) translate(4 41)">
<title>graphic</title>
<polygon fill="#ffffff" stroke="transparent" points="-4,4 -4,-41 610,-41 610,4 -4,4"/>
<!-- j:SubjectAssessmentPriorArrestNumeric -->
<g id="node1" class="node">
<title>j:SubjectAssessmentPriorArrestNumeric</title>
<text text-anchor="start" x="216.5" y="-21.4" font-family="Helvetica,sans-Serif" font-weight="bold" font-size="12.00" fill="#000000">j:SubjectAssessmentPriorArrestNumeric</text>
<polygon fill="none" stroke="#ff0000" stroke-width="5" points="212.5,-14 212.5,-34 452.5,-34 452.5,-14 212.5,-14"/>
</g>
<!-- nc:NumericType -->
<g id="node3" class="node">
<title>nc:NumericType</title>
<g id="a_node3_0"><a xlink:href="../../nc/NumericType/#diagram" xlink:title="A data type for a number value." target="_top">
<text text-anchor="start" x="516" y="-20.4" font-family="Helvetica,sans-Serif" font-size="12.00" fill="#000000">nc:NumericType</text>
</a>
</g>
<polygon fill="none" stroke="#000000" points="514,-15.5 514,-32.5 606,-32.5 606,-15.5 514,-15.5"/>
</g>
<!-- j:SubjectAssessmentPriorArrestNumeric&#45;&gt;nc:NumericType -->
<g id="edge2" class="edge">
<title>j:SubjectAssessmentPriorArrestNumeric&#45;&gt;nc:NumericType</title>
<path fill="none" stroke="#000000" d="M455.2395,-24C472.2059,-24 488.9039,-24 503.8111,-24"/>
<polygon fill="#000000" stroke="#000000" points="503.8266,-27.5001 513.8265,-24 503.8265,-20.5001 503.8266,-27.5001"/>
<text text-anchor="middle" x="484.5" y="-27.4" font-family="Helvetica,sans-Serif" font-size="12.00" fill="#000000">type</text>
</g>
<!-- Types -->
<g id="node2" class="node">
<title>Types</title>
<text text-anchor="start" x="2.5" y="-21.4" font-family="Helvetica,sans-Serif" font-weight="bold" font-size="12.00" fill="#000000">Types</text>
<g id="a_node2_1"><a xlink:href="../../j/SubjectAssessmentType/#diagram" xlink:title="A data type for an event or activity involving the assessment of a corrections subject." target="_top">
<polygon fill="#ebebeb" stroke="transparent" points="1.5,-1 1.5,-16 142.5,-16 142.5,-1 1.5,-1"/>
<text text-anchor="start" x="2.5" y="-5.4" font-family="Helvetica,sans-Serif" font-size="12.00" fill="#000000">j:SubjectAssessmentType</text>
</a>
</g>
<polygon fill="#000000" stroke="#000000" points=".5,-16 .5,-16 143.5,-16 143.5,-16 .5,-16"/>
<polygon fill="none" stroke="#000000" points="0,0 0,-32 143,-32 143,0 0,0"/>
</g>
<!-- Types&#45;&gt;j:SubjectAssessmentPriorArrestNumeric -->
<g id="edge1" class="edge">
<title>Types:top&#45;&gt;j:SubjectAssessmentPriorArrestNumeric</title>
<path fill="none" stroke="#000000" d="M142.5,-24C161.0392,-24 180.596,-24 199.8299,-24"/>
<polygon fill="#000000" stroke="#000000" points="199.8516,-27.5001 209.8515,-24 199.8515,-20.5001 199.8516,-27.5001"/>
<text text-anchor="middle" x="176.5" y="-27.4" font-family="Helvetica,sans-Serif" font-size="12.00" fill="#000000">has&#45;a</text>
</g>
</g>
</svg>
