<?xml version="1.0" encoding="UTF-8" standalone="no"?>
<!DOCTYPE svg PUBLIC "-//W3C//DTD SVG 1.1//EN"
 "http://www.w3.org/Graphics/SVG/1.1/DTD/svg11.dtd">
<!-- Generated by graphviz version 2.40.1 (20161225.0304)
 -->
<!-- Title: graphic Pages: 1 -->
<svg width="390pt" height="45pt"
 viewBox="0.00 0.00 390.00 45.00" xmlns="http://www.w3.org/2000/svg" xmlns:xlink="http://www.w3.org/1999/xlink">
<g id="graph0" class="graph" transform="scale(1 1) rotate(0) translate(4 41)">
<title>graphic</title>
<polygon fill="#ffffff" stroke="transparent" points="-4,4 -4,-41 386,-41 386,4 -4,4"/>
<!-- nc:Amount -->
<g id="node1" class="node">
<title>nc:Amount</title>
<text text-anchor="start" x="162" y="-21.4" font-family="Helvetica,sans-Serif" font-weight="bold" font-size="12.00" fill="#000000">nc:Amount</text>
<polygon fill="none" stroke="#ff0000" stroke-width="5" points="158.5,-14 158.5,-34 229.5,-34 229.5,-14 158.5,-14"/>
</g>
<!-- niem&#45;xs:decimal -->
<g id="node3" class="node">
<title>niem&#45;xs:decimal</title>
<g id="a_node3_0"><a xlink:href="../../niem-xs/decimal/#diagram" xlink:title="A data type for arbitrary precision decimal numbers." target="_top">
<text text-anchor="start" x="293.5" y="-20.4" font-family="Helvetica,sans-Serif" font-size="12.00" fill="#000000">niem&#45;xs:decimal</text>
</a>
</g>
<polygon fill="none" stroke="#000000" points="291,-15.5 291,-32.5 382,-32.5 382,-15.5 291,-15.5"/>
</g>
<!-- nc:Amount&#45;&gt;niem&#45;xs:decimal -->
<g id="edge2" class="edge">
<title>nc:Amount&#45;&gt;niem&#45;xs:decimal</title>
<path fill="none" stroke="#000000" d="M232.1874,-24C246.9979,-24 264.2575,-24 280.4241,-24"/>
<polygon fill="#000000" stroke="#000000" points="280.8533,-27.5001 290.8533,-24 280.8532,-20.5001 280.8533,-27.5001"/>
<text text-anchor="middle" x="261.5" y="-27.4" font-family="Helvetica,sans-Serif" font-size="12.00" fill="#000000">type</text>
</g>
<!-- Types -->
<g id="node2" class="node">
<title>Types</title>
<text text-anchor="start" x="2.5" y="-21.4" font-family="Helvetica,sans-Serif" font-weight="bold" font-size="12.00" fill="#000000">Types</text>
<g id="a_node2_1"><a xlink:href="../../nc/AmountType/#diagram" xlink:title="A data type for an amount of money." target="_top">
<polygon fill="#ebebeb" stroke="transparent" points="1.5,-1 1.5,-16 88.5,-16 88.5,-1 1.5,-1"/>
<text text-anchor="start" x="2.5" y="-5.4" font-family="Helvetica,sans-Serif" font-size="12.00" fill="#000000">nc:AmountType</text>
</a>
</g>
<polygon fill="#000000" stroke="#000000" points=".5,-16 .5,-16 89.5,-16 89.5,-16 .5,-16"/>
<polygon fill="none" stroke="#000000" points="0,0 0,-32 89,-32 89,0 0,0"/>
</g>
<!-- Types&#45;&gt;nc:Amount -->
<g id="edge1" class="edge">
<title>Types:top&#45;&gt;nc:Amount</title>
<path fill="none" stroke="#000000" d="M88.5,-24C107.1794,-24 127.7192,-24 145.6726,-24"/>
<polygon fill="#000000" stroke="#000000" points="145.9109,-27.5001 155.9108,-24 145.9108,-20.5001 145.9109,-27.5001"/>
<text text-anchor="middle" x="122.5" y="-27.4" font-family="Helvetica,sans-Serif" font-size="12.00" fill="#000000">has&#45;a</text>
</g>
</g>
</svg>
