<?xml version="1.0" encoding="UTF-8" standalone="no"?>
<!DOCTYPE svg PUBLIC "-//W3C//DTD SVG 1.1//EN"
 "http://www.w3.org/Graphics/SVG/1.1/DTD/svg11.dtd">
<!-- Generated by graphviz version 2.40.1 (20161225.0304)
 -->
<!-- Title: graphic Pages: 1 -->
<svg width="515pt" height="45pt"
 viewBox="0.00 0.00 515.00 45.00" xmlns="http://www.w3.org/2000/svg" xmlns:xlink="http://www.w3.org/1999/xlink">
<g id="graph0" class="graph" transform="scale(1 1) rotate(0) translate(4 41)">
<title>graphic</title>
<polygon fill="#ffffff" stroke="transparent" points="-4,4 -4,-41 511,-41 511,4 -4,4"/>
<!-- nc:EncounterCommentText -->
<g id="node1" class="node">
<title>nc:EncounterCommentText</title>
<text text-anchor="start" x="213" y="-21.4" font-family="Helvetica,sans-Serif" font-weight="bold" font-size="12.00" fill="#000000">nc:EncounterCommentText</text>
<polygon fill="none" stroke="#ff0000" stroke-width="5" points="209.5,-14 209.5,-34 374.5,-34 374.5,-14 209.5,-14"/>
</g>
<!-- nc:TextType -->
<g id="node3" class="node">
<title>nc:TextType</title>
<g id="a_node3_0"><a xlink:href="../../nc/TextType/#diagram" xlink:title="A data type for a character string." target="_top">
<text text-anchor="start" x="438.5" y="-20.4" font-family="Helvetica,sans-Serif" font-size="12.00" fill="#000000">nc:TextType</text>
</a>
</g>
<polygon fill="none" stroke="#000000" points="436,-15.5 436,-32.5 507,-32.5 507,-15.5 436,-15.5"/>
</g>
<!-- nc:EncounterCommentText&#45;&gt;nc:TextType -->
<g id="edge2" class="edge">
<title>nc:EncounterCommentText&#45;&gt;nc:TextType</title>
<path fill="none" stroke="#000000" d="M377.019,-24C393.6442,-24 410.4864,-24 425.2554,-24"/>
<polygon fill="#000000" stroke="#000000" points="425.6103,-27.5001 435.6103,-24 425.6102,-20.5001 425.6103,-27.5001"/>
<text text-anchor="middle" x="406.5" y="-27.4" font-family="Helvetica,sans-Serif" font-size="12.00" fill="#000000">type</text>
</g>
<!-- Types -->
<g id="node2" class="node">
<title>Types</title>
<text text-anchor="start" x="2" y="-21.4" font-family="Helvetica,sans-Serif" font-weight="bold" font-size="12.00" fill="#000000">Types</text>
<g id="a_node2_1"><a xlink:href="../../nc/PersonEncounterType/#diagram" xlink:title="A data type for an encounter between a person of interest and a governmental element, such as an organization, official or surveillance system." target="_top">
<polygon fill="#ebebeb" stroke="transparent" points="1,-1 1,-16 139,-16 139,-1 1,-1"/>
<text text-anchor="start" x="2" y="-5.4" font-family="Helvetica,sans-Serif" font-size="12.00" fill="#000000">nc:PersonEncounterType</text>
</a>
</g>
<polygon fill="#000000" stroke="#000000" points="0,-16 0,-16 140,-16 140,-16 0,-16"/>
<polygon fill="none" stroke="#000000" points="0,0 0,-32 140,-32 140,0 0,0"/>
</g>
<!-- Types&#45;&gt;nc:EncounterCommentText -->
<g id="edge1" class="edge">
<title>Types:top&#45;&gt;nc:EncounterCommentText</title>
<path fill="none" stroke="#000000" d="M139,-24C157.5756,-24 177.4198,-24 196.4533,-24"/>
<polygon fill="#000000" stroke="#000000" points="196.625,-27.5001 206.625,-24 196.6249,-20.5001 196.625,-27.5001"/>
<text text-anchor="middle" x="173.5" y="-27.4" font-family="Helvetica,sans-Serif" font-size="12.00" fill="#000000">has&#45;a</text>
</g>
</g>
</svg>
