<?xml version="1.0" encoding="UTF-8" standalone="no"?>
<!DOCTYPE svg PUBLIC "-//W3C//DTD SVG 1.1//EN"
 "http://www.w3.org/Graphics/SVG/1.1/DTD/svg11.dtd">
<!-- Generated by graphviz version 2.40.1 (20161225.0304)
 -->
<!-- Title: graphic Pages: 1 -->
<svg width="499pt" height="45pt"
 viewBox="0.00 0.00 499.00 45.00" xmlns="http://www.w3.org/2000/svg" xmlns:xlink="http://www.w3.org/1999/xlink">
<g id="graph0" class="graph" transform="scale(1 1) rotate(0) translate(4 41)">
<title>graphic</title>
<polygon fill="#ffffff" stroke="transparent" points="-4,4 -4,-41 495,-41 495,4 -4,4"/>
<!-- nc:PersonMedicalFileIndicator -->
<g id="node1" class="node">
<title>nc:PersonMedicalFileIndicator</title>
<text text-anchor="start" x="158.5" y="-21.4" font-family="Helvetica,sans-Serif" font-weight="bold" font-size="12.00" fill="#000000">nc:PersonMedicalFileIndicator</text>
<polygon fill="none" stroke="#ff0000" stroke-width="5" points="154.5,-14 154.5,-34 336.5,-34 336.5,-14 154.5,-14"/>
</g>
<!-- niem&#45;xs:boolean -->
<g id="node3" class="node">
<title>niem&#45;xs:boolean</title>
<g id="a_node3_0"><a xlink:href="../../niem-xs/boolean/#diagram" xlink:title="A data type for binary&#45;valued logic (true/false)." target="_top">
<text text-anchor="start" x="400.5" y="-20.4" font-family="Helvetica,sans-Serif" font-size="12.00" fill="#000000">niem&#45;xs:boolean</text>
</a>
</g>
<polygon fill="none" stroke="#000000" points="398,-15.5 398,-32.5 491,-32.5 491,-15.5 398,-15.5"/>
</g>
<!-- nc:PersonMedicalFileIndicator&#45;&gt;niem&#45;xs:boolean -->
<g id="edge2" class="edge">
<title>nc:PersonMedicalFileIndicator&#45;&gt;niem&#45;xs:boolean</title>
<path fill="none" stroke="#000000" d="M339.1729,-24C355.7183,-24 372.4792,-24 387.6174,-24"/>
<polygon fill="#000000" stroke="#000000" points="387.8159,-27.5001 397.8158,-24 387.8158,-20.5001 387.8159,-27.5001"/>
<text text-anchor="middle" x="368.5" y="-27.4" font-family="Helvetica,sans-Serif" font-size="12.00" fill="#000000">type</text>
</g>
<!-- Types -->
<g id="node2" class="node">
<title>Types</title>
<text text-anchor="start" x="2.5" y="-21.4" font-family="Helvetica,sans-Serif" font-weight="bold" font-size="12.00" fill="#000000">Types</text>
<g id="a_node2_1"><a xlink:href="../../nc/PersonType/#diagram" xlink:title="A data type for a human being." target="_top">
<polygon fill="#ebebeb" stroke="transparent" points="1.5,-1 1.5,-16 84.5,-16 84.5,-1 1.5,-1"/>
<text text-anchor="start" x="2.5" y="-5.4" font-family="Helvetica,sans-Serif" font-size="12.00" fill="#000000">nc:PersonType</text>
</a>
</g>
<polygon fill="#000000" stroke="#000000" points=".5,-16 .5,-16 85.5,-16 85.5,-16 .5,-16"/>
<polygon fill="none" stroke="#000000" points="0,0 0,-32 85,-32 85,0 0,0"/>
</g>
<!-- Types&#45;&gt;nc:PersonMedicalFileIndicator -->
<g id="edge1" class="edge">
<title>Types:top&#45;&gt;nc:PersonMedicalFileIndicator</title>
<path fill="none" stroke="#000000" d="M84.5,-24C102.9807,-24 122.6546,-24 141.6727,-24"/>
<polygon fill="#000000" stroke="#000000" points="141.8524,-27.5001 151.8524,-24 141.8524,-20.5001 141.8524,-27.5001"/>
<text text-anchor="middle" x="118.5" y="-27.4" font-family="Helvetica,sans-Serif" font-size="12.00" fill="#000000">has&#45;a</text>
</g>
</g>
</svg>
