<?xml version="1.0" encoding="UTF-8" standalone="no"?>
<!DOCTYPE svg PUBLIC "-//W3C//DTD SVG 1.1//EN"
 "http://www.w3.org/Graphics/SVG/1.1/DTD/svg11.dtd">
<!-- Generated by graphviz version 2.40.1 (20161225.0304)
 -->
<!-- Title: graphic Pages: 1 -->
<svg width="573pt" height="45pt"
 viewBox="0.00 0.00 573.00 45.00" xmlns="http://www.w3.org/2000/svg" xmlns:xlink="http://www.w3.org/1999/xlink">
<g id="graph0" class="graph" transform="scale(1 1) rotate(0) translate(4 41)">
<title>graphic</title>
<polygon fill="#ffffff" stroke="transparent" points="-4,4 -4,-41 569,-41 569,4 -4,4"/>
<!-- j:PersonMilitaryVeteranIndicator -->
<g id="node1" class="node">
<title>j:PersonMilitaryVeteranIndicator</title>
<text text-anchor="start" x="222.5" y="-21.4" font-family="Helvetica,sans-Serif" font-weight="bold" font-size="12.00" fill="#000000">j:PersonMilitaryVeteranIndicator</text>
<polygon fill="none" stroke="#ff0000" stroke-width="5" points="218.5,-14 218.5,-34 410.5,-34 410.5,-14 218.5,-14"/>
</g>
<!-- niem&#45;xs:boolean -->
<g id="node3" class="node">
<title>niem&#45;xs:boolean</title>
<g id="a_node3_0"><a xlink:href="../../niem-xs/boolean/#diagram" xlink:title="A data type for binary&#45;valued logic (true/false)." target="_top">
<text text-anchor="start" x="474.5" y="-20.4" font-family="Helvetica,sans-Serif" font-size="12.00" fill="#000000">niem&#45;xs:boolean</text>
</a>
</g>
<polygon fill="none" stroke="#000000" points="472,-15.5 472,-32.5 565,-32.5 565,-15.5 472,-15.5"/>
</g>
<!-- j:PersonMilitaryVeteranIndicator&#45;&gt;niem&#45;xs:boolean -->
<g id="edge2" class="edge">
<title>j:PersonMilitaryVeteranIndicator&#45;&gt;niem&#45;xs:boolean</title>
<path fill="none" stroke="#000000" d="M413.2134,-24C429.8227,-24 446.5483,-24 461.6261,-24"/>
<polygon fill="#000000" stroke="#000000" points="461.7798,-27.5001 471.7797,-24 461.7797,-20.5001 461.7798,-27.5001"/>
<text text-anchor="middle" x="442.5" y="-27.4" font-family="Helvetica,sans-Serif" font-size="12.00" fill="#000000">type</text>
</g>
<!-- Types -->
<g id="node2" class="node">
<title>Types</title>
<text text-anchor="start" x="2.5" y="-21.4" font-family="Helvetica,sans-Serif" font-weight="bold" font-size="12.00" fill="#000000">Types</text>
<g id="a_node2_1"><a xlink:href="../../j/PersonAugmentationType/#diagram" xlink:title="A data type for additional information about a person." target="_top">
<polygon fill="#ebebeb" stroke="transparent" points="1.5,-1 1.5,-16 148.5,-16 148.5,-1 1.5,-1"/>
<text text-anchor="start" x="2.5" y="-5.4" font-family="Helvetica,sans-Serif" font-size="12.00" fill="#000000">j:PersonAugmentationType</text>
</a>
</g>
<polygon fill="#000000" stroke="#000000" points=".5,-16 .5,-16 149.5,-16 149.5,-16 .5,-16"/>
<polygon fill="none" stroke="#000000" points="0,0 0,-32 149,-32 149,0 0,0"/>
</g>
<!-- Types&#45;&gt;j:PersonMilitaryVeteranIndicator -->
<g id="edge1" class="edge">
<title>Types:top&#45;&gt;j:PersonMilitaryVeteranIndicator</title>
<path fill="none" stroke="#000000" d="M148.5,-24C166.9439,-24 186.5405,-24 205.5608,-24"/>
<polygon fill="#000000" stroke="#000000" points="205.7501,-27.5001 215.7501,-24 205.75,-20.5001 205.7501,-27.5001"/>
<text text-anchor="middle" x="182.5" y="-27.4" font-family="Helvetica,sans-Serif" font-size="12.00" fill="#000000">has&#45;a</text>
</g>
</g>
</svg>
