<?xml version="1.0" encoding="UTF-8" standalone="no"?>
<!DOCTYPE svg PUBLIC "-//W3C//DTD SVG 1.1//EN"
 "http://www.w3.org/Graphics/SVG/1.1/DTD/svg11.dtd">
<!-- Generated by graphviz version 2.40.1 (20161225.0304)
 -->
<!-- Title: graphic Pages: 1 -->
<svg width="1065pt" height="319pt"
 viewBox="0.00 0.00 1065.00 319.00" xmlns="http://www.w3.org/2000/svg" xmlns:xlink="http://www.w3.org/1999/xlink">
<g id="graph0" class="graph" transform="scale(1 1) rotate(0) translate(4 315)">
<title>graphic</title>
<polygon fill="#ffffff" stroke="transparent" points="-4,4 -4,-315 1061,-315 1061,4 -4,4"/>
<!-- em:AlarmEventType -->
<g id="node1" class="node">
<title>em:AlarmEventType</title>
<text text-anchor="start" x="152.5" y="-189.9" font-family="Helvetica,sans-Serif" font-weight="bold" font-size="12.00" fill="#000000">em:AlarmEventType</text>
<g id="a_node1_0"><a xlink:href="../../em/AlarmEventCategoryAbstract/#diagram" xlink:title="A data concept for a kind of alarm event" target="_top">
<polygon fill="#ebebeb" stroke="transparent" points="151.5,-169.5 151.5,-184.5 558.5,-184.5 558.5,-169.5 151.5,-169.5"/>
<text text-anchor="start" x="152.5" y="-173.9" font-family="Helvetica,sans-Serif" font-size="12.00" fill="#000000">em:AlarmEventCategoryAbstract [0&#45;n]</text>
</a>
</g>
<g id="a_node1_1"><a xlink:href="../../em/AlarmEventCallBackTelephoneNumber/#diagram" xlink:title="A telephone number of the alarm event requester" target="_top">
<text text-anchor="start" x="152.5" y="-158.9" font-family="Helvetica,sans-Serif" font-size="12.00" fill="#000000">em:AlarmEventCallBackTelephoneNumber: nc:TelephoneNumberType [0&#45;n]</text>
</a>
</g>
<g id="a_node1_2"><a xlink:href="../../em/AlarmEventLocationCategoryAbstract/#diagram" xlink:title="A data concept for a kind of location at which an alarm event occurs" target="_top">
<polygon fill="#ebebeb" stroke="transparent" points="151.5,-139.5 151.5,-154.5 558.5,-154.5 558.5,-139.5 151.5,-139.5"/>
<text text-anchor="start" x="152.5" y="-143.9" font-family="Helvetica,sans-Serif" font-size="12.00" fill="#000000">em:AlarmEventLocationCategoryAbstract [0&#45;n]</text>
</a>
</g>
<g id="a_node1_3"><a xlink:href="../../em/AlarmAudibleIndicator/#diagram" xlink:title="True if an audible alarm is sounding; false if the alarm is inaudible" target="_top">
<text text-anchor="start" x="152.5" y="-128.9" font-family="Helvetica,sans-Serif" font-size="12.00" fill="#000000">em:AlarmAudibleIndicator: niem&#45;xs:boolean [0&#45;n]</text>
</a>
</g>
<g id="a_node1_4"><a xlink:href="../../em/AlarmEventDetailsText/#diagram" xlink:title="A text describing details about the alarm event" target="_top">
<polygon fill="#ebebeb" stroke="transparent" points="151.5,-109.5 151.5,-124.5 558.5,-124.5 558.5,-109.5 151.5,-109.5"/>
<text text-anchor="start" x="152.5" y="-113.9" font-family="Helvetica,sans-Serif" font-size="12.00" fill="#000000">em:AlarmEventDetailsText: nc:TextType [0&#45;n]</text>
</a>
</g>
<g id="a_node1_5"><a xlink:href="../../em/AlarmEventRequesterReceiveDate/#diagram" xlink:title="A date the requester received the alarm event" target="_top">
<text text-anchor="start" x="152.5" y="-98.9" font-family="Helvetica,sans-Serif" font-size="12.00" fill="#000000">em:AlarmEventRequesterReceiveDate: nc:DateType [0&#45;n]</text>
</a>
</g>
<g id="a_node1_6"><a xlink:href="../../em/AlarmEventCallPrivacyBypassCodeText/#diagram" xlink:title="A code necessary to access the sites phone system" target="_top">
<polygon fill="#ebebeb" stroke="transparent" points="151.5,-79.5 151.5,-94.5 558.5,-94.5 558.5,-79.5 151.5,-79.5"/>
<text text-anchor="start" x="152.5" y="-83.9" font-family="Helvetica,sans-Serif" font-size="12.00" fill="#000000">em:AlarmEventCallPrivacyBypassCodeText: nc:TextType [0&#45;n]</text>
</a>
</g>
<g id="a_node1_7"><a xlink:href="../../em/AlarmEventCallToPremisesIndicator/#diagram" xlink:title="True if an agency is to call the premise before arrival; false otherwise" target="_top">
<text text-anchor="start" x="152.5" y="-68.9" font-family="Helvetica,sans-Serif" font-size="12.00" fill="#000000">em:AlarmEventCallToPremisesIndicator: niem&#45;xs:boolean [0&#45;n]</text>
</a>
</g>
<g id="a_node1_8"><a xlink:href="../../em/AlarmEventPermit/#diagram" xlink:title="A permit for the alarm event site" target="_top">
<polygon fill="#ebebeb" stroke="transparent" points="151.5,-49.5 151.5,-64.5 558.5,-64.5 558.5,-49.5 151.5,-49.5"/>
<text text-anchor="start" x="152.5" y="-53.9" font-family="Helvetica,sans-Serif" font-size="12.00" fill="#000000">em:AlarmEventPermit: nc:PermitType [0&#45;n]</text>
</a>
</g>
<g id="a_node1_9"><a xlink:href="../../em/AlarmEventResponseActionAbstract/#diagram" xlink:title="A data concept for an action requested of an alarm event responder" target="_top">
<text text-anchor="start" x="152.5" y="-38.9" font-family="Helvetica,sans-Serif" font-size="12.00" fill="#000000">em:AlarmEventResponseActionAbstract [0&#45;n]</text>
</a>
</g>
<g id="a_node1_10"><a xlink:href="../../em/AlarmEventDispatchAgency/#diagram" xlink:title="An agency to which an alarm event is dispatched" target="_top">
<polygon fill="#ebebeb" stroke="transparent" points="151.5,-19.5 151.5,-34.5 558.5,-34.5 558.5,-19.5 151.5,-19.5"/>
<text text-anchor="start" x="152.5" y="-23.9" font-family="Helvetica,sans-Serif" font-size="12.00" fill="#000000">em:AlarmEventDispatchAgency: nc:OrganizationType [0&#45;n]</text>
</a>
</g>
<g id="a_node1_11"><a xlink:href="../../em/AlarmEventAugmentationPoint/#diagram" xlink:title="An augmentation point for AlarmEventType" target="_top">
<text text-anchor="start" x="152.5" y="-8.9" font-family="Helvetica,sans-Serif" font-size="12.00" fill="#000000">em:AlarmEventAugmentationPoint [0&#45;n]</text>
</a>
</g>
<polygon fill="#ff0000" stroke="#ff0000" points="146.5,-184.5 146.5,-184.5 563.5,-184.5 563.5,-184.5 146.5,-184.5"/>
<polygon fill="none" stroke="#ff0000" stroke-width="5" points="148.5,-2.5 148.5,-202.5 560.5,-202.5 560.5,-2.5 148.5,-2.5"/>
</g>
<!-- subst_d9e17666 -->
<g id="node2" class="node">
<title>subst_d9e17666</title>
<g id="a_node2_12"><a xlink:href="../../em/AlarmEventCategoryAbstract/#diagram" xlink:title="&lt;TABLE&gt;" target="_top">
<text text-anchor="start" x="647.5" y="-191.9" font-family="Helvetica,sans-Serif" font-weight="bold" font-size="12.00" fill="#000000">Substitution group em:AlarmEventCategoryAbstract</text>
</a>
</g>
<g id="a_node2_13"><a xlink:href="../../em/AlarmEventCategoryCode/#diagram" xlink:title="A kind of alarm event" target="_top">
<polygon fill="#ebebeb" stroke="transparent" points="646.5,-171.5 646.5,-186.5 1010.5,-186.5 1010.5,-171.5 646.5,-171.5"/>
<text text-anchor="start" x="647.5" y="-175.9" font-family="Helvetica,sans-Serif" font-size="12.00" fill="#000000">em:AlarmEventCategoryCode: apco:AlarmEventCategoryCodeType</text>
</a>
</g>
<g id="a_node2_14"><a xlink:href="../../em/AlarmEventCategoryText/#diagram" xlink:title="A kind of event which resulted in an alarm" target="_top">
<text text-anchor="start" x="647.5" y="-160.9" font-family="Helvetica,sans-Serif" font-size="12.00" fill="#000000">em:AlarmEventCategoryText: nc:TextType</text>
</a>
</g>
<polygon fill="#000000" stroke="#000000" points="645.5,-186.5 645.5,-186.5 1011.5,-186.5 1011.5,-186.5 645.5,-186.5"/>
<polygon fill="none" stroke="#000000" points="645.5,-156 645.5,-203 1011.5,-203 1011.5,-156 645.5,-156"/>
</g>
<!-- em:AlarmEventType&#45;&gt;subst_d9e17666 -->
<g id="edge1" class="edge">
<title>em:AlarmEventType:e&#45;&gt;subst_d9e17666:w</title>
<path fill="none" stroke="#000000" d="M568.5194,-177.887C600.0856,-180.4175 610.2446,-194.5 646.5,-194.5"/>
<polygon fill="#000000" stroke="#000000" points="568.6277,-174.3887 558.5,-177.5 568.3574,-181.3835 568.6277,-174.3887"/>
</g>
<!-- subst_d9e17706 -->
<g id="node3" class="node">
<title>subst_d9e17706</title>
<g id="a_node3_15"><a xlink:href="../../em/AlarmEventLocationCategoryAbstract/#diagram" xlink:title="&lt;TABLE&gt;" target="_top">
<text text-anchor="start" x="602.5" y="-126.9" font-family="Helvetica,sans-Serif" font-weight="bold" font-size="12.00" fill="#000000">Substitution group em:AlarmEventLocationCategoryAbstract</text>
</a>
</g>
<g id="a_node3_16"><a xlink:href="../../em/AlarmEventLocationCategoryCode/#diagram" xlink:title="A kind of location at which an alarm event occurs" target="_top">
<polygon fill="#ebebeb" stroke="transparent" points="601.5,-106.5 601.5,-121.5 1056.5,-121.5 1056.5,-106.5 601.5,-106.5"/>
<text text-anchor="start" x="602.5" y="-110.9" font-family="Helvetica,sans-Serif" font-size="12.00" fill="#000000">em:AlarmEventLocationCategoryCode: apco:AlarmEventLocationCategoryCodeType</text>
</a>
</g>
<g id="a_node3_17"><a xlink:href="../../em/AlarmEventLocationCategoryText/#diagram" xlink:title="A kind of location at which an alarm event occurs" target="_top">
<text text-anchor="start" x="602.5" y="-95.9" font-family="Helvetica,sans-Serif" font-size="12.00" fill="#000000">em:AlarmEventLocationCategoryText: nc:TextType</text>
</a>
</g>
<polygon fill="#000000" stroke="#000000" points="600.5,-121.5 600.5,-121.5 1057.5,-121.5 1057.5,-121.5 600.5,-121.5"/>
<polygon fill="none" stroke="#000000" points="600,-91 600,-138 1057,-138 1057,-91 600,-91"/>
</g>
<!-- em:AlarmEventType&#45;&gt;subst_d9e17706 -->
<g id="edge2" class="edge">
<title>em:AlarmEventType:e&#45;&gt;subst_d9e17706:w</title>
<path fill="none" stroke="#000000" d="M568.3862,-145.8389C580.4779,-141.3828 584.6666,-129.5 601.5,-129.5"/>
<polygon fill="#000000" stroke="#000000" points="567.7818,-142.3913 558.5,-147.5 568.9417,-149.2945 567.7818,-142.3913"/>
</g>
<!-- subst_d9e17747 -->
<g id="node4" class="node">
<title>subst_d9e17747</title>
<g id="a_node4_18"><a xlink:href="../../em/AlarmEventResponseActionAbstract/#diagram" xlink:title="&lt;TABLE&gt;" target="_top">
<text text-anchor="start" x="609.5" y="-38.9" font-family="Helvetica,sans-Serif" font-weight="bold" font-size="12.00" fill="#000000">Substitution group em:AlarmEventResponseActionAbstract</text>
</a>
</g>
<g id="a_node4_19"><a xlink:href="../../em/AlarmEventResponseActionCode/#diagram" xlink:title="An action requested of an alarm event responder" target="_top">
<polygon fill="#ebebeb" stroke="transparent" points="608.5,-18.5 608.5,-33.5 1049.5,-33.5 1049.5,-18.5 608.5,-18.5"/>
<text text-anchor="start" x="609.5" y="-22.9" font-family="Helvetica,sans-Serif" font-size="12.00" fill="#000000">em:AlarmEventResponseActionCode: apco:AlarmEventResponseActionCodeType</text>
</a>
</g>
<g id="a_node4_20"><a xlink:href="../../em/AlarmEventResponseActionText/#diagram" xlink:title="An action requested of an alarm event responder" target="_top">
<text text-anchor="start" x="609.5" y="-7.9" font-family="Helvetica,sans-Serif" font-size="12.00" fill="#000000">em:AlarmEventResponseActionText: nc:TextType</text>
</a>
</g>
<polygon fill="#000000" stroke="#000000" points="607.5,-33.5 607.5,-33.5 1050.5,-33.5 1050.5,-33.5 607.5,-33.5"/>
<polygon fill="none" stroke="#000000" points="607,-3 607,-50 1050,-50 1050,-3 607,-3"/>
</g>
<!-- em:AlarmEventType&#45;&gt;subst_d9e17747 -->
<g id="edge3" class="edge">
<title>em:AlarmEventType:e&#45;&gt;subst_d9e17747:w</title>
<path fill="none" stroke="#000000" d="M568.6505,-41.5C583.1243,-41.5 590.0972,-41.5 608.5,-41.5"/>
<polygon fill="#000000" stroke="#000000" points="568.5,-38.0001 558.5,-41.5 568.5,-45.0001 568.5,-38.0001"/>
</g>
<!-- Properties -->
<g id="node5" class="node">
<title>Properties</title>
<text text-anchor="start" x="2.5" y="-189.9" font-family="Helvetica,sans-Serif" font-weight="bold" font-size="12.00" fill="#000000">Properties</text>
<g id="a_node5_21"><a xlink:href="../../em/AlarmEvent/#diagram" xlink:title="An alarm event" target="_top">
<polygon fill="#ebebeb" stroke="transparent" points="1.5,-169.5 1.5,-184.5 86.5,-184.5 86.5,-169.5 1.5,-169.5"/>
<text text-anchor="start" x="2.5" y="-173.9" font-family="Helvetica,sans-Serif" font-size="12.00" fill="#000000">em:AlarmEvent</text>
</a>
</g>
<polygon fill="#000000" stroke="#000000" points=".5,-184.5 .5,-184.5 87.5,-184.5 87.5,-184.5 .5,-184.5"/>
<polygon fill="none" stroke="#000000" points="0,-168.5 0,-200.5 87,-200.5 87,-168.5 0,-168.5"/>
</g>
<!-- Properties&#45;&gt;em:AlarmEventType -->
<g id="edge4" class="edge">
<title>Properties:top&#45;&gt;em:AlarmEventType:top</title>
<path fill="none" stroke="#000000" d="M86.5,-192.5C111.6649,-192.5 120.3891,-192.5 141.3154,-192.5"/>
<polygon fill="#000000" stroke="#000000" points="141.5,-196.0001 151.5,-192.5 141.5,-189.0001 141.5,-196.0001"/>
<text text-anchor="middle" x="116.5" y="-195.9" font-family="Helvetica,sans-Serif" font-size="12.00" fill="#000000">type</text>
</g>
<!-- nc:ActivityType -->
<g id="node6" class="node">
<title>nc:ActivityType</title>
<g id="a_node6_22"><a xlink:href="../../nc/ActivityType/#diagram" xlink:title="A data type for a single or set of related actions, events, or process steps." target="_top">
<text text-anchor="start" x="314.5" y="-245.9" font-family="Helvetica,sans-Serif" font-size="12.00" fill="#000000">nc:ActivityType</text>
</a>
</g>
<polygon fill="none" stroke="#000000" points="312,-241 312,-258 397,-258 397,-241 312,-241"/>
</g>
<!-- nc:ActivityType&#45;&gt;em:AlarmEventType -->
<g id="edge5" class="edge">
<title>nc:ActivityType&#45;&gt;em:AlarmEventType</title>
<path fill="none" stroke="#000000" d="M354.5,-240.8397C354.5,-234.7941 354.5,-225.9801 354.5,-215.6817"/>
<polygon fill="#000000" stroke="#000000" points="358.0001,-215.3951 354.5,-205.3952 351.0001,-215.3952 358.0001,-215.3951"/>
<text text-anchor="middle" x="345" y="-219.9" font-family="Helvetica,sans-Serif" font-size="12.00" fill="#000000">extension</text>
</g>
<!-- structures:ObjectType -->
<g id="node7" class="node">
<title>structures:ObjectType</title>
<g id="a_node7_23"><a xlink:href="../../structures/ObjectType/#diagram" xlink:title="A data type for a thing with its own lifespan that has some existence." target="_top">
<text text-anchor="start" x="295.5" y="-298.9" font-family="Helvetica,sans-Serif" font-size="12.00" fill="#000000">structures:ObjectType</text>
</a>
</g>
<polygon fill="none" stroke="#000000" points="293.5,-294 293.5,-311 415.5,-311 415.5,-294 293.5,-294"/>
</g>
<!-- structures:ObjectType&#45;&gt;nc:ActivityType -->
<g id="edge6" class="edge">
<title>structures:ObjectType&#45;&gt;nc:ActivityType</title>
<path fill="none" stroke="#000000" d="M354.5,-293.911C354.5,-287.0124 354.5,-277.0696 354.5,-268.34"/>
<polygon fill="#000000" stroke="#000000" points="358.0001,-268.2518 354.5,-258.2519 351.0001,-268.2519 358.0001,-268.2518"/>
<text text-anchor="middle" x="345" y="-272.9" font-family="Helvetica,sans-Serif" font-size="12.00" fill="#000000">extension</text>
</g>
</g>
</svg>
