<?xml version="1.0" encoding="UTF-8" standalone="no"?>
<!DOCTYPE svg PUBLIC "-//W3C//DTD SVG 1.1//EN"
 "http://www.w3.org/Graphics/SVG/1.1/DTD/svg11.dtd">
<!-- Generated by graphviz version 2.40.1 (20161225.0304)
 -->
<!-- Title: graphic Pages: 1 -->
<svg width="613pt" height="45pt"
 viewBox="0.00 0.00 613.00 45.00" xmlns="http://www.w3.org/2000/svg" xmlns:xlink="http://www.w3.org/1999/xlink">
<g id="graph0" class="graph" transform="scale(1 1) rotate(0) translate(4 41)">
<title>graphic</title>
<polygon fill="#ffffff" stroke="transparent" points="-4,4 -4,-41 609,-41 609,4 -4,4"/>
<!-- j:PersonDisabilityMedicalEquipment -->
<g id="node1" class="node">
<title>j:PersonDisabilityMedicalEquipment</title>
<text text-anchor="start" x="196" y="-21.4" font-family="Helvetica,sans-Serif" font-weight="bold" font-size="12.00" fill="#000000">j:PersonDisabilityMedicalEquipment</text>
<polygon fill="none" stroke="#ff0000" stroke-width="5" points="192.5,-14 192.5,-34 407.5,-34 407.5,-14 192.5,-14"/>
</g>
<!-- j:MedicalEquipmentType -->
<g id="node3" class="node">
<title>j:MedicalEquipmentType</title>
<g id="a_node3_0"><a xlink:href="../../j/MedicalEquipmentType/#diagram" xlink:title="A data type for medical equipment or devices required by a subject due to a physical disability." target="_top">
<text text-anchor="start" x="471" y="-20.4" font-family="Helvetica,sans-Serif" font-size="12.00" fill="#000000">j:MedicalEquipmentType</text>
</a>
</g>
<polygon fill="none" stroke="#000000" points="469,-15.5 469,-32.5 605,-32.5 605,-15.5 469,-15.5"/>
</g>
<!-- j:PersonDisabilityMedicalEquipment&#45;&gt;j:MedicalEquipmentType -->
<g id="edge2" class="edge">
<title>j:PersonDisabilityMedicalEquipment&#45;&gt;j:MedicalEquipmentType</title>
<path fill="none" stroke="#000000" d="M410.1741,-24C426.5355,-24 443.1096,-24 458.6406,-24"/>
<polygon fill="#000000" stroke="#000000" points="458.6834,-27.5001 468.6833,-24 458.6833,-20.5001 458.6834,-27.5001"/>
<text text-anchor="middle" x="439.5" y="-27.4" font-family="Helvetica,sans-Serif" font-size="12.00" fill="#000000">type</text>
</g>
<!-- Types -->
<g id="node2" class="node">
<title>Types</title>
<text text-anchor="start" x="2.5" y="-21.4" font-family="Helvetica,sans-Serif" font-weight="bold" font-size="12.00" fill="#000000">Types</text>
<g id="a_node2_1"><a xlink:href="../../j/PersonDisabilityType/#diagram" xlink:title="A data type for a type of disability recorded as part of a subject assessment." target="_top">
<polygon fill="#ebebeb" stroke="transparent" points="1.5,-1 1.5,-16 122.5,-16 122.5,-1 1.5,-1"/>
<text text-anchor="start" x="2.5" y="-5.4" font-family="Helvetica,sans-Serif" font-size="12.00" fill="#000000">j:PersonDisabilityType</text>
</a>
</g>
<polygon fill="#000000" stroke="#000000" points=".5,-16 .5,-16 123.5,-16 123.5,-16 .5,-16"/>
<polygon fill="none" stroke="#000000" points="0,0 0,-32 123,-32 123,0 0,0"/>
</g>
<!-- Types&#45;&gt;j:PersonDisabilityMedicalEquipment -->
<g id="edge1" class="edge">
<title>Types:top&#45;&gt;j:PersonDisabilityMedicalEquipment</title>
<path fill="none" stroke="#000000" d="M122.5,-24C140.9156,-24 160.4058,-24 179.4655,-24"/>
<polygon fill="#000000" stroke="#000000" points="179.6915,-27.5001 189.6915,-24 179.6915,-20.5001 179.6915,-27.5001"/>
<text text-anchor="middle" x="156.5" y="-27.4" font-family="Helvetica,sans-Serif" font-size="12.00" fill="#000000">has&#45;a</text>
</g>
</g>
</svg>
