<?xml version="1.0" encoding="UTF-8" standalone="no"?>
<!DOCTYPE svg PUBLIC "-//W3C//DTD SVG 1.1//EN"
 "http://www.w3.org/Graphics/SVG/1.1/DTD/svg11.dtd">
<!-- Generated by graphviz version 2.40.1 (20161225.0304)
 -->
<!-- Title: graphic Pages: 1 -->
<svg width="203pt" height="154pt"
 viewBox="0.00 0.00 203.00 153.50" xmlns="http://www.w3.org/2000/svg" xmlns:xlink="http://www.w3.org/1999/xlink">
<g id="graph0" class="graph" transform="scale(1 1) rotate(0) translate(4 149.5)">
<title>graphic</title>
<polygon fill="#ffffff" stroke="transparent" points="-4,4 -4,-149.5 199,-149.5 199,4 -4,4"/>
<!-- nc:DayOfWeekCodeSimpleType -->
<g id="node1" class="node">
<title>nc:DayOfWeekCodeSimpleType</title>
<text text-anchor="start" x="6.5" y="-77.4" font-family="Helvetica,sans-Serif" font-weight="bold" font-size="12.00" fill="#000000">nc:DayOfWeekCodeSimpleType</text>
<polygon fill="none" stroke="#ff0000" stroke-width="5" points="2.5,-70 2.5,-90 192.5,-90 192.5,-70 2.5,-70"/>
</g>
<!-- DerivedTypes -->
<g id="node2" class="node">
<title>DerivedTypes</title>
<text text-anchor="start" x="29.5" y="-21.4" font-family="Helvetica,sans-Serif" font-weight="bold" font-size="12.00" fill="#000000">Derived types</text>
<g id="a_node2_0"><a xlink:href="../../nc/DayOfWeekCodeType/#diagram" xlink:title="A data type for days of the week." target="_top">
<polygon fill="#ebebeb" stroke="transparent" points="28.5,-1 28.5,-16 167.5,-16 167.5,-1 28.5,-1"/>
<text text-anchor="start" x="29.5" y="-5.4" font-family="Helvetica,sans-Serif" font-size="12.00" fill="#000000">nc:DayOfWeekCodeType</text>
</a>
</g>
<polygon fill="#000000" stroke="#000000" points="27.5,-16 27.5,-16 168.5,-16 168.5,-16 27.5,-16"/>
<polygon fill="none" stroke="#000000" points="27,0 27,-32 168,-32 168,0 27,0"/>
</g>
<!-- nc:DayOfWeekCodeSimpleType&#45;&gt;DerivedTypes -->
<g id="edge1" class="edge">
<title>nc:DayOfWeekCodeSimpleType&#45;&gt;DerivedTypes</title>
<path fill="none" stroke="#000000" d="M97.5,-67.4892C97.5,-60.3101 97.5,-51.0172 97.5,-42.306"/>
<polygon fill="#000000" stroke="#000000" points="101.0001,-42.1499 97.5,-32.1499 94.0001,-42.1499 101.0001,-42.1499"/>
<text text-anchor="middle" x="88" y="-46.65" font-family="Helvetica,sans-Serif" font-size="12.00" fill="#000000">derived</text>
</g>
<!-- xs:token -->
<g id="node3" class="node">
<title>xs:token</title>
<g id="a_node3_1"><a xlink:href="../../xs/token/#diagram" xlink:title="&lt;TABLE&gt;" target="_top">
<text text-anchor="start" x="75.5" y="-133.4" font-family="Helvetica,sans-Serif" font-size="12.00" fill="#000000">xs:token</text>
</a>
</g>
<polygon fill="none" stroke="#000000" points="73,-128.5 73,-145.5 122,-145.5 122,-128.5 73,-128.5"/>
</g>
<!-- xs:token&#45;&gt;nc:DayOfWeekCodeSimpleType -->
<g id="edge2" class="edge">
<title>xs:token&#45;&gt;nc:DayOfWeekCodeSimpleType</title>
<path fill="none" stroke="#000000" d="M97.5,-128.4473C97.5,-121.6242 97.5,-111.7417 97.5,-102.6794"/>
<polygon fill="#000000" stroke="#000000" points="101.0001,-102.6501 97.5,-92.6501 94.0001,-102.6502 101.0001,-102.6501"/>
<text text-anchor="middle" x="88" y="-107.4" font-family="Helvetica,sans-Serif" font-size="12.00" fill="#000000">restriction</text>
</g>
</g>
</svg>
