<?xml version="1.0" encoding="UTF-8" standalone="no"?>
<!DOCTYPE svg PUBLIC "-//W3C//DTD SVG 1.1//EN"
 "http://www.w3.org/Graphics/SVG/1.1/DTD/svg11.dtd">
<!-- Generated by graphviz version 2.40.1 (20161225.0304)
 -->
<!-- Title: graphic Pages: 1 -->
<svg width="545pt" height="131pt"
 viewBox="0.00 0.00 545.00 130.50" xmlns="http://www.w3.org/2000/svg" xmlns:xlink="http://www.w3.org/1999/xlink">
<g id="graph0" class="graph" transform="scale(1 1) rotate(0) translate(4 126.5)">
<title>graphic</title>
<polygon fill="#ffffff" stroke="transparent" points="-4,4 -4,-126.5 541,-126.5 541,4 -4,4"/>
<!-- nc:ObligationExemptionType -->
<g id="node1" class="node">
<title>nc:ObligationExemptionType</title>
<text text-anchor="start" x="196.5" y="-55.4" font-family="Helvetica,sans-Serif" font-weight="bold" font-size="12.00" fill="#000000">nc:ObligationExemptionType</text>
<g id="a_node1_0"><a xlink:href="../../nc/FinancialObligationExemptionAmount/#diagram" xlink:title="An amount of an exemption from a payment obligation." target="_top">
<polygon fill="#ebebeb" stroke="transparent" points="195.5,-35 195.5,-50 532.5,-50 532.5,-35 195.5,-35"/>
<text text-anchor="start" x="196.5" y="-39.4" font-family="Helvetica,sans-Serif" font-size="12.00" fill="#000000">nc:FinancialObligationExemptionAmount: nc:AmountType [0&#45;n]</text>
</a>
</g>
<g id="a_node1_1"><a xlink:href="../../nc/ObligationExemptionDescriptionText/#diagram" xlink:title="A description of an exemption from an obligation." target="_top">
<text text-anchor="start" x="196.5" y="-24.4" font-family="Helvetica,sans-Serif" font-size="12.00" fill="#000000">nc:ObligationExemptionDescriptionText: nc:TextType [0&#45;n]</text>
</a>
</g>
<g id="a_node1_2"><a xlink:href="../../nc/ObligationExemptionAugmentationPoint/#diagram" xlink:title="An augmentation point for ObligationExemptionType." target="_top">
<polygon fill="#ebebeb" stroke="transparent" points="195.5,-5 195.5,-20 532.5,-20 532.5,-5 195.5,-5"/>
<text text-anchor="start" x="196.5" y="-9.4" font-family="Helvetica,sans-Serif" font-size="12.00" fill="#000000">nc:ObligationExemptionAugmentationPoint [0&#45;n]</text>
</a>
</g>
<polygon fill="#ff0000" stroke="#ff0000" points="190.5,-50 190.5,-50 537.5,-50 537.5,-50 190.5,-50"/>
<polygon fill="none" stroke="#ff0000" stroke-width="5" points="192.5,-2.5 192.5,-67.5 534.5,-67.5 534.5,-2.5 192.5,-2.5"/>
</g>
<!-- Properties -->
<g id="node2" class="node">
<title>Properties</title>
<text text-anchor="start" x="2.5" y="-55.4" font-family="Helvetica,sans-Serif" font-weight="bold" font-size="12.00" fill="#000000">Properties</text>
<g id="a_node2_3"><a xlink:href="../../nc/ObligationExemption/#diagram" xlink:title="A waiving or dismissal of an obligation." target="_top">
<polygon fill="#ebebeb" stroke="transparent" points="1.5,-35 1.5,-50 130.5,-50 130.5,-35 1.5,-35"/>
<text text-anchor="start" x="2.5" y="-39.4" font-family="Helvetica,sans-Serif" font-size="12.00" fill="#000000">nc:ObligationExemption</text>
</a>
</g>
<polygon fill="#000000" stroke="#000000" points=".5,-50 .5,-50 131.5,-50 131.5,-50 .5,-50"/>
<polygon fill="none" stroke="#000000" points="0,-34 0,-66 131,-66 131,-34 0,-34"/>
</g>
<!-- Properties&#45;&gt;nc:ObligationExemptionType -->
<g id="edge1" class="edge">
<title>Properties:top&#45;&gt;nc:ObligationExemptionType:top</title>
<path fill="none" stroke="#000000" d="M130.5,-58C155.6649,-58 164.3891,-58 185.3154,-58"/>
<polygon fill="#000000" stroke="#000000" points="185.5,-61.5001 195.5,-58 185.5,-54.5001 185.5,-61.5001"/>
<text text-anchor="middle" x="160.5" y="-61.4" font-family="Helvetica,sans-Serif" font-size="12.00" fill="#000000">type</text>
</g>
<!-- structures:ObjectType -->
<g id="node3" class="node">
<title>structures:ObjectType</title>
<g id="a_node3_4"><a xlink:href="../../structures/ObjectType/#diagram" xlink:title="A data type for a thing with its own lifespan that has some existence." target="_top">
<text text-anchor="start" x="304.5" y="-110.4" font-family="Helvetica,sans-Serif" font-size="12.00" fill="#000000">structures:ObjectType</text>
</a>
</g>
<polygon fill="none" stroke="#000000" points="302.5,-105.5 302.5,-122.5 424.5,-122.5 424.5,-105.5 302.5,-105.5"/>
</g>
<!-- structures:ObjectType&#45;&gt;nc:ObligationExemptionType -->
<g id="edge2" class="edge">
<title>structures:ObjectType&#45;&gt;nc:ObligationExemptionType</title>
<path fill="none" stroke="#000000" d="M363.5,-105.4117C363.5,-99.1025 363.5,-89.9911 363.5,-80.4049"/>
<polygon fill="#000000" stroke="#000000" points="367.0001,-80.3408 363.5,-70.3408 360.0001,-80.3409 367.0001,-80.3408"/>
<text text-anchor="middle" x="354" y="-84.65" font-family="Helvetica,sans-Serif" font-size="12.00" fill="#000000">extension</text>
</g>
</g>
</svg>
