<?xml version="1.0" encoding="UTF-8" standalone="no"?>
<!DOCTYPE svg PUBLIC "-//W3C//DTD SVG 1.1//EN"
 "http://www.w3.org/Graphics/SVG/1.1/DTD/svg11.dtd">
<!-- Generated by graphviz version 2.40.1 (20161225.0304)
 -->
<!-- Title: graphic Pages: 1 -->
<svg width="597pt" height="45pt"
 viewBox="0.00 0.00 597.00 45.00" xmlns="http://www.w3.org/2000/svg" xmlns:xlink="http://www.w3.org/1999/xlink">
<g id="graph0" class="graph" transform="scale(1 1) rotate(0) translate(4 41)">
<title>graphic</title>
<polygon fill="#ffffff" stroke="transparent" points="-4,4 -4,-41 593,-41 593,4 -4,4"/>
<!-- j:HearingDecisionBasisDescriptionText -->
<g id="node1" class="node">
<title>j:HearingDecisionBasisDescriptionText</title>
<text text-anchor="start" x="228.5" y="-21.4" font-family="Helvetica,sans-Serif" font-weight="bold" font-size="12.00" fill="#000000">j:HearingDecisionBasisDescriptionText</text>
<polygon fill="none" stroke="#ff0000" stroke-width="5" points="224.5,-14 224.5,-34 456.5,-34 456.5,-14 224.5,-14"/>
</g>
<!-- nc:TextType -->
<g id="node3" class="node">
<title>nc:TextType</title>
<g id="a_node3_0"><a xlink:href="../../nc/TextType/#diagram" xlink:title="A data type for a character string." target="_top">
<text text-anchor="start" x="520.5" y="-20.4" font-family="Helvetica,sans-Serif" font-size="12.00" fill="#000000">nc:TextType</text>
</a>
</g>
<polygon fill="none" stroke="#000000" points="518,-15.5 518,-32.5 589,-32.5 589,-15.5 518,-15.5"/>
</g>
<!-- j:HearingDecisionBasisDescriptionText&#45;&gt;nc:TextType -->
<g id="edge2" class="edge">
<title>j:HearingDecisionBasisDescriptionText&#45;&gt;nc:TextType</title>
<path fill="none" stroke="#000000" d="M459.1449,-24C476.3632,-24 493.1524,-24 507.6806,-24"/>
<polygon fill="#000000" stroke="#000000" points="507.8336,-27.5001 517.8336,-24 507.8336,-20.5001 507.8336,-27.5001"/>
<text text-anchor="middle" x="488.5" y="-27.4" font-family="Helvetica,sans-Serif" font-size="12.00" fill="#000000">type</text>
</g>
<!-- Types -->
<g id="node2" class="node">
<title>Types</title>
<text text-anchor="start" x="2.5" y="-21.4" font-family="Helvetica,sans-Serif" font-weight="bold" font-size="12.00" fill="#000000">Types</text>
<g id="a_node2_1"><a xlink:href="../../j/HearingDecisionBasisType/#diagram" xlink:title="A data type for a set of foundational elements of a hearing decision." target="_top">
<polygon fill="#ebebeb" stroke="transparent" points="1.5,-1 1.5,-16 154.5,-16 154.5,-1 1.5,-1"/>
<text text-anchor="start" x="2.5" y="-5.4" font-family="Helvetica,sans-Serif" font-size="12.00" fill="#000000">j:HearingDecisionBasisType</text>
</a>
</g>
<polygon fill="#000000" stroke="#000000" points=".5,-16 .5,-16 155.5,-16 155.5,-16 .5,-16"/>
<polygon fill="none" stroke="#000000" points="0,0 0,-32 155,-32 155,0 0,0"/>
</g>
<!-- Types&#45;&gt;j:HearingDecisionBasisDescriptionText -->
<g id="edge1" class="edge">
<title>Types:top&#45;&gt;j:HearingDecisionBasisDescriptionText</title>
<path fill="none" stroke="#000000" d="M154.5,-24C173.0614,-24 192.6647,-24 211.9063,-24"/>
<polygon fill="#000000" stroke="#000000" points="211.928,-27.5001 221.928,-24 211.9279,-20.5001 211.928,-27.5001"/>
<text text-anchor="middle" x="188.5" y="-27.4" font-family="Helvetica,sans-Serif" font-size="12.00" fill="#000000">has&#45;a</text>
</g>
</g>
</svg>
