<?xml version="1.0" encoding="UTF-8" standalone="no"?>
<!DOCTYPE svg PUBLIC "-//W3C//DTD SVG 1.1//EN"
 "http://www.w3.org/Graphics/SVG/1.1/DTD/svg11.dtd">
<!-- Generated by graphviz version 2.40.1 (20161225.0304)
 -->
<!-- Title: graphic Pages: 1 -->
<svg width="563pt" height="45pt"
 viewBox="0.00 0.00 563.00 45.00" xmlns="http://www.w3.org/2000/svg" xmlns:xlink="http://www.w3.org/1999/xlink">
<g id="graph0" class="graph" transform="scale(1 1) rotate(0) translate(4 41)">
<title>graphic</title>
<polygon fill="#ffffff" stroke="transparent" points="-4,4 -4,-41 559,-41 559,4 -4,4"/>
<!-- hs:ProtectedHealthInformationIndicator -->
<g id="node1" class="node">
<title>hs:ProtectedHealthInformationIndicator</title>
<text text-anchor="start" x="170.5" y="-21.4" font-family="Helvetica,sans-Serif" font-weight="bold" font-size="12.00" fill="#000000">hs:ProtectedHealthInformationIndicator</text>
<polygon fill="none" stroke="#ff0000" stroke-width="5" points="166.5,-14 166.5,-34 400.5,-34 400.5,-14 166.5,-14"/>
</g>
<!-- niem&#45;xs:boolean -->
<g id="node3" class="node">
<title>niem&#45;xs:boolean</title>
<g id="a_node3_0"><a xlink:href="../../niem-xs/boolean/#diagram" xlink:title="A data type for binary&#45;valued logic (true/false)." target="_top">
<text text-anchor="start" x="464.5" y="-20.4" font-family="Helvetica,sans-Serif" font-size="12.00" fill="#000000">niem&#45;xs:boolean</text>
</a>
</g>
<polygon fill="none" stroke="#000000" points="462,-15.5 462,-32.5 555,-32.5 555,-15.5 462,-15.5"/>
</g>
<!-- hs:ProtectedHealthInformationIndicator&#45;&gt;niem&#45;xs:boolean -->
<g id="edge2" class="edge">
<title>hs:ProtectedHealthInformationIndicator&#45;&gt;niem&#45;xs:boolean</title>
<path fill="none" stroke="#000000" d="M403.2465,-24C420.1301,-24 436.7951,-24 451.7121,-24"/>
<polygon fill="#000000" stroke="#000000" points="451.7411,-27.5001 461.7411,-24 451.7411,-20.5001 451.7411,-27.5001"/>
<text text-anchor="middle" x="432.5" y="-27.4" font-family="Helvetica,sans-Serif" font-size="12.00" fill="#000000">type</text>
</g>
<!-- Types -->
<g id="node2" class="node">
<title>Types</title>
<text text-anchor="start" x="2.5" y="-21.4" font-family="Helvetica,sans-Serif" font-weight="bold" font-size="12.00" fill="#000000">Types</text>
<g id="a_node2_1"><a xlink:href="../../hs/MetadataType/#diagram" xlink:title="A data type for metadata about a record." target="_top">
<polygon fill="#ebebeb" stroke="transparent" points="1.5,-1 1.5,-16 96.5,-16 96.5,-1 1.5,-1"/>
<text text-anchor="start" x="2.5" y="-5.4" font-family="Helvetica,sans-Serif" font-size="12.00" fill="#000000">hs:MetadataType</text>
</a>
</g>
<polygon fill="#000000" stroke="#000000" points=".5,-16 .5,-16 97.5,-16 97.5,-16 .5,-16"/>
<polygon fill="none" stroke="#000000" points="0,0 0,-32 97,-32 97,0 0,0"/>
</g>
<!-- Types&#45;&gt;hs:ProtectedHealthInformationIndicator -->
<g id="edge1" class="edge">
<title>Types:top&#45;&gt;hs:ProtectedHealthInformationIndicator</title>
<path fill="none" stroke="#000000" d="M96.5,-24C115.023,-24 134.578,-24 153.785,-24"/>
<polygon fill="#000000" stroke="#000000" points="153.79,-27.5001 163.79,-24 153.7899,-20.5001 153.79,-27.5001"/>
<text text-anchor="middle" x="130.5" y="-27.4" font-family="Helvetica,sans-Serif" font-size="12.00" fill="#000000">has&#45;a</text>
</g>
</g>
</svg>
