<?xml version="1.0" encoding="UTF-8" standalone="no"?>
<!DOCTYPE svg PUBLIC "-//W3C//DTD SVG 1.1//EN"
 "http://www.w3.org/Graphics/SVG/1.1/DTD/svg11.dtd">
<!-- Generated by graphviz version 2.40.1 (20161225.0304)
 -->
<!-- Title: graphic Pages: 1 -->
<svg width="608pt" height="45pt"
 viewBox="0.00 0.00 608.00 45.00" xmlns="http://www.w3.org/2000/svg" xmlns:xlink="http://www.w3.org/1999/xlink">
<g id="graph0" class="graph" transform="scale(1 1) rotate(0) translate(4 41)">
<title>graphic</title>
<polygon fill="#ffffff" stroke="transparent" points="-4,4 -4,-41 604,-41 604,4 -4,4"/>
<!-- j:MentalHealthAssessmentReferral -->
<g id="node1" class="node">
<title>j:MentalHealthAssessmentReferral</title>
<text text-anchor="start" x="246.5" y="-21.4" font-family="Helvetica,sans-Serif" font-weight="bold" font-size="12.00" fill="#000000">j:MentalHealthAssessmentReferral</text>
<polygon fill="none" stroke="#ff0000" stroke-width="5" points="242.5,-14 242.5,-34 448.5,-34 448.5,-14 242.5,-14"/>
</g>
<!-- nc:ReferralType -->
<g id="node3" class="node">
<title>nc:ReferralType</title>
<g id="a_node3_0"><a xlink:href="../../nc/ReferralType/#diagram" xlink:title="A data type for a recommendation of a person to an activity, program, or product." target="_top">
<text text-anchor="start" x="512" y="-20.4" font-family="Helvetica,sans-Serif" font-size="12.00" fill="#000000">nc:ReferralType</text>
</a>
</g>
<polygon fill="none" stroke="#000000" points="510,-15.5 510,-32.5 600,-32.5 600,-15.5 510,-15.5"/>
</g>
<!-- j:MentalHealthAssessmentReferral&#45;&gt;nc:ReferralType -->
<g id="edge2" class="edge">
<title>j:MentalHealthAssessmentReferral&#45;&gt;nc:ReferralType</title>
<path fill="none" stroke="#000000" d="M451.1706,-24C467.9435,-24 484.6848,-24 499.6744,-24"/>
<polygon fill="#000000" stroke="#000000" points="499.7508,-27.5001 509.7507,-24 499.7507,-20.5001 499.7508,-27.5001"/>
<text text-anchor="middle" x="480.5" y="-27.4" font-family="Helvetica,sans-Serif" font-size="12.00" fill="#000000">type</text>
</g>
<!-- Types -->
<g id="node2" class="node">
<title>Types</title>
<text text-anchor="start" x="2.5" y="-21.4" font-family="Helvetica,sans-Serif" font-weight="bold" font-size="12.00" fill="#000000">Types</text>
<g id="a_node2_1"><a xlink:href="../../j/MentalHealthAssessmentType/#diagram" xlink:title="A data type for an activity of reviewing and assessing a subject&#39;s mental health condition." target="_top">
<polygon fill="#ebebeb" stroke="transparent" points="1.5,-1 1.5,-16 172.5,-16 172.5,-1 1.5,-1"/>
<text text-anchor="start" x="2.5" y="-5.4" font-family="Helvetica,sans-Serif" font-size="12.00" fill="#000000">j:MentalHealthAssessmentType</text>
</a>
</g>
<polygon fill="#000000" stroke="#000000" points=".5,-16 .5,-16 173.5,-16 173.5,-16 .5,-16"/>
<polygon fill="none" stroke="#000000" points="0,0 0,-32 173,-32 173,0 0,0"/>
</g>
<!-- Types&#45;&gt;j:MentalHealthAssessmentReferral -->
<g id="edge1" class="edge">
<title>Types:top&#45;&gt;j:MentalHealthAssessmentReferral</title>
<path fill="none" stroke="#000000" d="M172.5,-24C190.9579,-24 210.5235,-24 229.6013,-24"/>
<polygon fill="#000000" stroke="#000000" points="229.831,-27.5001 239.8309,-24 229.8309,-20.5001 229.831,-27.5001"/>
<text text-anchor="middle" x="206.5" y="-27.4" font-family="Helvetica,sans-Serif" font-size="12.00" fill="#000000">has&#45;a</text>
</g>
</g>
</svg>
