<?xml version="1.0" encoding="UTF-8" standalone="no"?>
<!DOCTYPE svg PUBLIC "-//W3C//DTD SVG 1.1//EN"
 "http://www.w3.org/Graphics/SVG/1.1/DTD/svg11.dtd">
<!-- Generated by graphviz version 2.40.1 (20161225.0304)
 -->
<!-- Title: graphic Pages: 1 -->
<svg width="670pt" height="131pt"
 viewBox="0.00 0.00 670.00 130.50" xmlns="http://www.w3.org/2000/svg" xmlns:xlink="http://www.w3.org/1999/xlink">
<g id="graph0" class="graph" transform="scale(1 1) rotate(0) translate(4 126.5)">
<title>graphic</title>
<polygon fill="#ffffff" stroke="transparent" points="-4,4 -4,-126.5 666,-126.5 666,4 -4,4"/>
<!-- cui:PortionMarkingMetadataType -->
<g id="node1" class="node">
<title>cui:PortionMarkingMetadataType</title>
<text text-anchor="start" x="219.5" y="-55.4" font-family="Helvetica,sans-Serif" font-weight="bold" font-size="12.00" fill="#000000">cui:PortionMarkingMetadataType</text>
<g id="a_node1_0"><a xlink:href="../../cui/SpecifiedCategoryMarkingCode/#diagram" xlink:title="A Controlled Unclassified Information (CUI) category in which the authorizing law, regulation, or Government&#45;wide policy contains specific handling controls that it requires or permits agencies to use that differ from those of CUI Basic." target="_top">
<polygon fill="#ebebeb" stroke="transparent" points="218.5,-35 218.5,-50 657.5,-50 657.5,-35 218.5,-35"/>
<text text-anchor="start" x="219.5" y="-39.4" font-family="Helvetica,sans-Serif" font-size="12.00" fill="#000000">cui:SpecifiedCategoryMarkingCode: cui:SpecifiedCategoryMarkingCodeType [0&#45;n]</text>
</a>
</g>
<g id="a_node1_1"><a xlink:href="../../cui/BasicCategoryMarkingCode/#diagram" xlink:title="A Controlled Unclassified Information (CUI) category for which the authorizing law, regulation, or Government&#45;wide policy does not set out specific handling or dissemination controls." target="_top">
<text text-anchor="start" x="219.5" y="-24.4" font-family="Helvetica,sans-Serif" font-size="12.00" fill="#000000">cui:BasicCategoryMarkingCode: cui:BasicCategoryMarkingCodeType [0&#45;n]</text>
</a>
</g>
<g id="a_node1_2"><a xlink:href="../../cui/LDCMarking/#diagram" xlink:title="A marking for a Controlled Unclassified Information (CUI) Executive Agent&#45;approved control that agencies may use to limit or specify CUI dissemination." target="_top">
<polygon fill="#ebebeb" stroke="transparent" points="218.5,-5 218.5,-20 657.5,-20 657.5,-5 218.5,-5"/>
<text text-anchor="start" x="219.5" y="-9.4" font-family="Helvetica,sans-Serif" font-size="12.00" fill="#000000">cui:LDCMarking: cui:LDCType [0&#45;n]</text>
</a>
</g>
<polygon fill="#ff0000" stroke="#ff0000" points="213.5,-50 213.5,-50 662.5,-50 662.5,-50 213.5,-50"/>
<polygon fill="none" stroke="#ff0000" stroke-width="5" points="215.5,-2.5 215.5,-67.5 659.5,-67.5 659.5,-2.5 215.5,-2.5"/>
</g>
<!-- Properties -->
<g id="node2" class="node">
<title>Properties</title>
<text text-anchor="start" x="2" y="-55.4" font-family="Helvetica,sans-Serif" font-weight="bold" font-size="12.00" fill="#000000">Properties</text>
<g id="a_node2_3"><a xlink:href="../../cui/PortionMarkingMetadata/#diagram" xlink:title="Metadata about the Controlled Unclassified Information (CUI) portion marking of a document." target="_top">
<polygon fill="#ebebeb" stroke="transparent" points="1,-35 1,-50 153,-50 153,-35 1,-35"/>
<text text-anchor="start" x="2" y="-39.4" font-family="Helvetica,sans-Serif" font-size="12.00" fill="#000000">cui:PortionMarkingMetadata</text>
</a>
</g>
<polygon fill="#000000" stroke="#000000" points="0,-50 0,-50 154,-50 154,-50 0,-50"/>
<polygon fill="none" stroke="#000000" points="0,-34 0,-66 154,-66 154,-34 0,-34"/>
</g>
<!-- Properties&#45;&gt;cui:PortionMarkingMetadataType -->
<g id="edge1" class="edge">
<title>Properties:top&#45;&gt;cui:PortionMarkingMetadataType:top</title>
<path fill="none" stroke="#000000" d="M153,-58C178.3585,-58 187.1498,-58 208.2371,-58"/>
<polygon fill="#000000" stroke="#000000" points="208.5,-61.5001 218.5,-58 208.5,-54.5001 208.5,-61.5001"/>
<text text-anchor="middle" x="183.5" y="-61.4" font-family="Helvetica,sans-Serif" font-size="12.00" fill="#000000">type</text>
</g>
<!-- structures:MetadataType -->
<g id="node3" class="node">
<title>structures:MetadataType</title>
<g id="a_node3_4"><a xlink:href="../../structures/MetadataType/#diagram" xlink:title="A data type for data about data." target="_top">
<text text-anchor="start" x="371.5" y="-110.4" font-family="Helvetica,sans-Serif" font-size="12.00" fill="#000000">structures:MetadataType</text>
</a>
</g>
<polygon fill="none" stroke="#000000" points="369,-105.5 369,-122.5 506,-122.5 506,-105.5 369,-105.5"/>
</g>
<!-- structures:MetadataType&#45;&gt;cui:PortionMarkingMetadataType -->
<g id="edge2" class="edge">
<title>structures:MetadataType&#45;&gt;cui:PortionMarkingMetadataType</title>
<path fill="none" stroke="#000000" d="M437.5,-105.4117C437.5,-99.1025 437.5,-89.9911 437.5,-80.4049"/>
<polygon fill="#000000" stroke="#000000" points="441.0001,-80.3408 437.5,-70.3408 434.0001,-80.3409 441.0001,-80.3408"/>
<text text-anchor="middle" x="428" y="-84.65" font-family="Helvetica,sans-Serif" font-size="12.00" fill="#000000">extension</text>
</g>
</g>
</svg>
