<?xml version="1.0" encoding="UTF-8" standalone="no"?>
<!DOCTYPE svg PUBLIC "-//W3C//DTD SVG 1.1//EN"
 "http://www.w3.org/Graphics/SVG/1.1/DTD/svg11.dtd">
<!-- Generated by graphviz version 2.40.1 (20161225.0304)
 -->
<!-- Title: graphic Pages: 1 -->
<svg width="460pt" height="45pt"
 viewBox="0.00 0.00 460.00 45.00" xmlns="http://www.w3.org/2000/svg" xmlns:xlink="http://www.w3.org/1999/xlink">
<g id="graph0" class="graph" transform="scale(1 1) rotate(0) translate(4 41)">
<title>graphic</title>
<polygon fill="#ffffff" stroke="transparent" points="-4,4 -4,-41 456,-41 456,4 -4,4"/>
<!-- it:GoodsBrandNameText -->
<g id="node1" class="node">
<title>it:GoodsBrandNameText</title>
<text text-anchor="start" x="174" y="-21.4" font-family="Helvetica,sans-Serif" font-weight="bold" font-size="12.00" fill="#000000">it:GoodsBrandNameText</text>
<polygon fill="none" stroke="#ff0000" stroke-width="5" points="170.5,-14 170.5,-34 319.5,-34 319.5,-14 170.5,-14"/>
</g>
<!-- nc:TextType -->
<g id="node3" class="node">
<title>nc:TextType</title>
<g id="a_node3_0"><a xlink:href="../../nc/TextType/#diagram" xlink:title="A data type for a character string." target="_top">
<text text-anchor="start" x="383.5" y="-20.4" font-family="Helvetica,sans-Serif" font-size="12.00" fill="#000000">nc:TextType</text>
</a>
</g>
<polygon fill="none" stroke="#000000" points="381,-15.5 381,-32.5 452,-32.5 452,-15.5 381,-15.5"/>
</g>
<!-- it:GoodsBrandNameText&#45;&gt;nc:TextType -->
<g id="edge2" class="edge">
<title>it:GoodsBrandNameText&#45;&gt;nc:TextType</title>
<path fill="none" stroke="#000000" d="M322.2211,-24C338.6758,-24 355.5537,-24 370.3987,-24"/>
<polygon fill="#000000" stroke="#000000" points="370.8138,-27.5001 380.8137,-24 370.8137,-20.5001 370.8138,-27.5001"/>
<text text-anchor="middle" x="351.5" y="-27.4" font-family="Helvetica,sans-Serif" font-size="12.00" fill="#000000">type</text>
</g>
<!-- Types -->
<g id="node2" class="node">
<title>Types</title>
<text text-anchor="start" x="2.5" y="-21.4" font-family="Helvetica,sans-Serif" font-weight="bold" font-size="12.00" fill="#000000">Types</text>
<g id="a_node2_1"><a xlink:href="../../it/CommodityType/#diagram" xlink:title="A data type for a description of the nature of a goods item sufficient to identify it for customs, statistical or transport purposes." target="_top">
<polygon fill="#ebebeb" stroke="transparent" points="1.5,-1 1.5,-16 100.5,-16 100.5,-1 1.5,-1"/>
<text text-anchor="start" x="2.5" y="-5.4" font-family="Helvetica,sans-Serif" font-size="12.00" fill="#000000">it:CommodityType</text>
</a>
</g>
<polygon fill="#000000" stroke="#000000" points=".5,-16 .5,-16 101.5,-16 101.5,-16 .5,-16"/>
<polygon fill="none" stroke="#000000" points="0,0 0,-32 101,-32 101,0 0,0"/>
</g>
<!-- Types&#45;&gt;it:GoodsBrandNameText -->
<g id="edge1" class="edge">
<title>Types:top&#45;&gt;it:GoodsBrandNameText</title>
<path fill="none" stroke="#000000" d="M100.5,-24C119.0005,-24 138.8334,-24 157.6958,-24"/>
<polygon fill="#000000" stroke="#000000" points="157.7585,-27.5001 167.7584,-24 157.7584,-20.5001 157.7585,-27.5001"/>
<text text-anchor="middle" x="134.5" y="-27.4" font-family="Helvetica,sans-Serif" font-size="12.00" fill="#000000">has&#45;a</text>
</g>
</g>
</svg>
