<?xml version="1.0" encoding="UTF-8" standalone="no"?>
<!DOCTYPE svg PUBLIC "-//W3C//DTD SVG 1.1//EN"
 "http://www.w3.org/Graphics/SVG/1.1/DTD/svg11.dtd">
<!-- Generated by graphviz version 2.40.1 (20161225.0304)
 -->
<!-- Title: graphic Pages: 1 -->
<svg width="223pt" height="207pt"
 viewBox="0.00 0.00 223.00 206.50" xmlns="http://www.w3.org/2000/svg" xmlns:xlink="http://www.w3.org/1999/xlink">
<g id="graph0" class="graph" transform="scale(1 1) rotate(0) translate(4 202.5)">
<title>graphic</title>
<polygon fill="#ffffff" stroke="transparent" points="-4,4 -4,-202.5 219,-202.5 219,4 -4,4"/>
<!-- em:SpecimenType -->
<g id="node1" class="node">
<title>em:SpecimenType</title>
<text text-anchor="start" x="6.5" y="-25.4" font-family="Helvetica,sans-Serif" font-weight="bold" font-size="12.00" fill="#000000">em:SpecimenType</text>
<g id="a_node1_0"><a xlink:href="../../em/SpecimenAugmentationPoint/#diagram" xlink:title="An augmentation point for type em:SpecimenType" target="_top">
<polygon fill="#ebebeb" stroke="transparent" points="5.5,-5 5.5,-20 210.5,-20 210.5,-5 5.5,-5"/>
<text text-anchor="start" x="6.5" y="-9.4" font-family="Helvetica,sans-Serif" font-size="12.00" fill="#000000">em:SpecimenAugmentationPoint [0&#45;n]</text>
</a>
</g>
<polygon fill="#ff0000" stroke="#ff0000" points=".5,-20 .5,-20 215.5,-20 215.5,-20 .5,-20"/>
<polygon fill="none" stroke="#ff0000" stroke-width="5" points="2.5,-2.5 2.5,-37.5 212.5,-37.5 212.5,-2.5 2.5,-2.5"/>
</g>
<!-- nc:SubstanceType -->
<g id="node2" class="node">
<title>nc:SubstanceType</title>
<g id="a_node2_1"><a xlink:href="../../nc/SubstanceType/#diagram" xlink:title="A data type for the matter or substance of which something consists." target="_top">
<text text-anchor="start" x="57.5" y="-80.4" font-family="Helvetica,sans-Serif" font-size="12.00" fill="#000000">nc:SubstanceType</text>
</a>
</g>
<polygon fill="none" stroke="#000000" points="55.5,-75.5 55.5,-92.5 159.5,-92.5 159.5,-75.5 55.5,-75.5"/>
</g>
<!-- nc:SubstanceType&#45;&gt;em:SpecimenType -->
<g id="edge1" class="edge">
<title>nc:SubstanceType&#45;&gt;em:SpecimenType</title>
<path fill="none" stroke="#000000" d="M107.5,-75.4351C107.5,-68.931 107.5,-59.5678 107.5,-50.3827"/>
<polygon fill="#000000" stroke="#000000" points="111.0001,-50.25 107.5,-40.25 104.0001,-50.25 111.0001,-50.25"/>
<text text-anchor="middle" x="98" y="-54.65" font-family="Helvetica,sans-Serif" font-size="12.00" fill="#000000">extension</text>
</g>
<!-- nc:ItemType -->
<g id="node3" class="node">
<title>nc:ItemType</title>
<g id="a_node3_2"><a xlink:href="../../nc/ItemType/#diagram" xlink:title="A data type for an article or thing." target="_top">
<text text-anchor="start" x="74.5" y="-133.4" font-family="Helvetica,sans-Serif" font-size="12.00" fill="#000000">nc:ItemType</text>
</a>
</g>
<polygon fill="none" stroke="#000000" points="72,-128.5 72,-145.5 143,-145.5 143,-128.5 72,-128.5"/>
</g>
<!-- nc:ItemType&#45;&gt;nc:SubstanceType -->
<g id="edge2" class="edge">
<title>nc:ItemType&#45;&gt;nc:SubstanceType</title>
<path fill="none" stroke="#000000" d="M107.5,-128.411C107.5,-121.5124 107.5,-111.5696 107.5,-102.84"/>
<polygon fill="#000000" stroke="#000000" points="111.0001,-102.7518 107.5,-92.7519 104.0001,-102.7519 111.0001,-102.7518"/>
<text text-anchor="middle" x="98" y="-107.4" font-family="Helvetica,sans-Serif" font-size="12.00" fill="#000000">extension</text>
</g>
<!-- structures:ObjectType -->
<g id="node4" class="node">
<title>structures:ObjectType</title>
<g id="a_node4_3"><a xlink:href="../../structures/ObjectType/#diagram" xlink:title="A data type for a thing with its own lifespan that has some existence." target="_top">
<text text-anchor="start" x="48.5" y="-186.4" font-family="Helvetica,sans-Serif" font-size="12.00" fill="#000000">structures:ObjectType</text>
</a>
</g>
<polygon fill="none" stroke="#000000" points="46.5,-181.5 46.5,-198.5 168.5,-198.5 168.5,-181.5 46.5,-181.5"/>
</g>
<!-- structures:ObjectType&#45;&gt;nc:ItemType -->
<g id="edge3" class="edge">
<title>structures:ObjectType&#45;&gt;nc:ItemType</title>
<path fill="none" stroke="#000000" d="M107.5,-181.411C107.5,-174.5124 107.5,-164.5696 107.5,-155.84"/>
<polygon fill="#000000" stroke="#000000" points="111.0001,-155.7518 107.5,-145.7519 104.0001,-155.7519 111.0001,-155.7518"/>
<text text-anchor="middle" x="98" y="-160.4" font-family="Helvetica,sans-Serif" font-size="12.00" fill="#000000">extension</text>
</g>
</g>
</svg>
