<?xml version="1.0" encoding="UTF-8" standalone="no"?>
<!DOCTYPE svg PUBLIC "-//W3C//DTD SVG 1.1//EN"
 "http://www.w3.org/Graphics/SVG/1.1/DTD/svg11.dtd">
<!-- Generated by graphviz version 2.40.1 (20161225.0304)
 -->
<!-- Title: graphic Pages: 1 -->
<svg width="413pt" height="207pt"
 viewBox="0.00 0.00 413.00 206.50" xmlns="http://www.w3.org/2000/svg" xmlns:xlink="http://www.w3.org/1999/xlink">
<g id="graph0" class="graph" transform="scale(1 1) rotate(0) translate(4 202.5)">
<title>graphic</title>
<polygon fill="#ffffff" stroke="transparent" points="-4,4 -4,-202.5 409,-202.5 409,4 -4,4"/>
<!-- stat:QuestionBlockType -->
<g id="node1" class="node">
<title>stat:QuestionBlockType</title>
<text text-anchor="start" x="170.5" y="-25.4" font-family="Helvetica,sans-Serif" font-weight="bold" font-size="12.00" fill="#000000">stat:QuestionBlockType</text>
<g id="a_node1_0"><a xlink:href="../../stat/QuestionBlockAugmentationPoint/#diagram" xlink:title="An augmentation point for type stat:QuestionBlockType" target="_top">
<polygon fill="#ebebeb" stroke="transparent" points="169.5,-5 169.5,-20 400.5,-20 400.5,-5 169.5,-5"/>
<text text-anchor="start" x="170.5" y="-9.4" font-family="Helvetica,sans-Serif" font-size="12.00" fill="#000000">stat:QuestionBlockAugmentationPoint [0&#45;n]</text>
</a>
</g>
<polygon fill="#ff0000" stroke="#ff0000" points="164.5,-20 164.5,-20 405.5,-20 405.5,-20 164.5,-20"/>
<polygon fill="none" stroke="#ff0000" stroke-width="5" points="166.5,-2.5 166.5,-37.5 402.5,-37.5 402.5,-2.5 166.5,-2.5"/>
</g>
<!-- Properties -->
<g id="node2" class="node">
<title>Properties</title>
<text text-anchor="start" x="2.5" y="-25.4" font-family="Helvetica,sans-Serif" font-weight="bold" font-size="12.00" fill="#000000">Properties</text>
<g id="a_node2_1"><a xlink:href="../../stat/QuestionBlock/#diagram" xlink:title="A set of questions, statements or instructions which are used together." target="_top">
<polygon fill="#ebebeb" stroke="transparent" points="1.5,-5 1.5,-20 104.5,-20 104.5,-5 1.5,-5"/>
<text text-anchor="start" x="2.5" y="-9.4" font-family="Helvetica,sans-Serif" font-size="12.00" fill="#000000">stat:QuestionBlock</text>
</a>
</g>
<polygon fill="#000000" stroke="#000000" points=".5,-20 .5,-20 105.5,-20 105.5,-20 .5,-20"/>
<polygon fill="none" stroke="#000000" points="0,-4 0,-36 105,-36 105,-4 0,-4"/>
</g>
<!-- Properties&#45;&gt;stat:QuestionBlockType -->
<g id="edge1" class="edge">
<title>Properties:top&#45;&gt;stat:QuestionBlockType:top</title>
<path fill="none" stroke="#000000" d="M104.5,-28C129.6649,-28 138.3891,-28 159.3154,-28"/>
<polygon fill="#000000" stroke="#000000" points="159.5,-31.5001 169.5,-28 159.5,-24.5001 159.5,-31.5001"/>
<text text-anchor="middle" x="134.5" y="-31.4" font-family="Helvetica,sans-Serif" font-size="12.00" fill="#000000">type</text>
</g>
<!-- stat:QuestionnaireComponentType -->
<g id="node3" class="node">
<title>stat:QuestionnaireComponentType</title>
<g id="a_node3_2"><a xlink:href="../../stat/QuestionnaireComponentType/#diagram" xlink:title="A data type for a record of the flow of a questionnaire specification and its use of questions, question blocks and statements." target="_top">
<text text-anchor="start" x="191.5" y="-80.4" font-family="Helvetica,sans-Serif" font-size="12.00" fill="#000000">stat:QuestionnaireComponentType</text>
</a>
</g>
<polygon fill="none" stroke="#000000" points="189,-75.5 189,-92.5 380,-92.5 380,-75.5 189,-75.5"/>
</g>
<!-- stat:QuestionnaireComponentType&#45;&gt;stat:QuestionBlockType -->
<g id="edge2" class="edge">
<title>stat:QuestionnaireComponentType&#45;&gt;stat:QuestionBlockType</title>
<path fill="none" stroke="#000000" d="M284.5,-75.4351C284.5,-68.931 284.5,-59.5678 284.5,-50.3827"/>
<polygon fill="#000000" stroke="#000000" points="288.0001,-50.25 284.5,-40.25 281.0001,-50.25 288.0001,-50.25"/>
<text text-anchor="middle" x="275" y="-54.65" font-family="Helvetica,sans-Serif" font-size="12.00" fill="#000000">extension</text>
</g>
<!-- stat:IdentifiableArtifactType -->
<g id="node4" class="node">
<title>stat:IdentifiableArtifactType</title>
<g id="a_node4_3"><a xlink:href="../../stat/IdentifiableArtifactType/#diagram" xlink:title="A data type for an abstract class that comprises the basic attributes and associations needed for identification, naming and other documentation." target="_top">
<text text-anchor="start" x="212.5" y="-133.4" font-family="Helvetica,sans-Serif" font-size="12.00" fill="#000000">stat:IdentifiableArtifactType</text>
</a>
</g>
<polygon fill="none" stroke="#000000" points="210,-128.5 210,-145.5 359,-145.5 359,-128.5 210,-128.5"/>
</g>
<!-- stat:IdentifiableArtifactType&#45;&gt;stat:QuestionnaireComponentType -->
<g id="edge3" class="edge">
<title>stat:IdentifiableArtifactType&#45;&gt;stat:QuestionnaireComponentType</title>
<path fill="none" stroke="#000000" d="M284.5,-128.411C284.5,-121.5124 284.5,-111.5696 284.5,-102.84"/>
<polygon fill="#000000" stroke="#000000" points="288.0001,-102.7518 284.5,-92.7519 281.0001,-102.7519 288.0001,-102.7518"/>
<text text-anchor="middle" x="275" y="-107.4" font-family="Helvetica,sans-Serif" font-size="12.00" fill="#000000">extension</text>
</g>
<!-- structures:ObjectType -->
<g id="node5" class="node">
<title>structures:ObjectType</title>
<g id="a_node5_4"><a xlink:href="../../structures/ObjectType/#diagram" xlink:title="A data type for a thing with its own lifespan that has some existence." target="_top">
<text text-anchor="start" x="225.5" y="-186.4" font-family="Helvetica,sans-Serif" font-size="12.00" fill="#000000">structures:ObjectType</text>
</a>
</g>
<polygon fill="none" stroke="#000000" points="223.5,-181.5 223.5,-198.5 345.5,-198.5 345.5,-181.5 223.5,-181.5"/>
</g>
<!-- structures:ObjectType&#45;&gt;stat:IdentifiableArtifactType -->
<g id="edge4" class="edge">
<title>structures:ObjectType&#45;&gt;stat:IdentifiableArtifactType</title>
<path fill="none" stroke="#000000" d="M284.5,-181.411C284.5,-174.5124 284.5,-164.5696 284.5,-155.84"/>
<polygon fill="#000000" stroke="#000000" points="288.0001,-155.7518 284.5,-145.7519 281.0001,-155.7519 288.0001,-155.7518"/>
<text text-anchor="middle" x="275" y="-160.4" font-family="Helvetica,sans-Serif" font-size="12.00" fill="#000000">extension</text>
</g>
</g>
</svg>
