<?xml version="1.0" encoding="UTF-8" standalone="no"?>
<!DOCTYPE svg PUBLIC "-//W3C//DTD SVG 1.1//EN"
 "http://www.w3.org/Graphics/SVG/1.1/DTD/svg11.dtd">
<!-- Generated by graphviz version 2.40.1 (20161225.0304)
 -->
<!-- Title: graphic Pages: 1 -->
<svg width="715pt" height="45pt"
 viewBox="0.00 0.00 715.00 45.00" xmlns="http://www.w3.org/2000/svg" xmlns:xlink="http://www.w3.org/1999/xlink">
<g id="graph0" class="graph" transform="scale(1 1) rotate(0) translate(4 41)">
<title>graphic</title>
<polygon fill="#ffffff" stroke="transparent" points="-4,4 -4,-41 711,-41 711,4 -4,4"/>
<!-- hs:FosterCareTotalRemovalQuantity -->
<g id="node1" class="node">
<title>hs:FosterCareTotalRemovalQuantity</title>
<text text-anchor="start" x="278.5" y="-21.4" font-family="Helvetica,sans-Serif" font-weight="bold" font-size="12.00" fill="#000000">hs:FosterCareTotalRemovalQuantity</text>
<polygon fill="none" stroke="#ff0000" stroke-width="5" points="274.5,-14 274.5,-34 490.5,-34 490.5,-14 274.5,-14"/>
</g>
<!-- niem&#45;xs:nonNegativeInteger -->
<g id="node3" class="node">
<title>niem&#45;xs:nonNegativeInteger</title>
<g id="a_node3_0"><a xlink:href="../../niem-xs/nonNegativeInteger/#diagram" xlink:title="A data type for an integer with a minimum value of 0." target="_top">
<text text-anchor="start" x="554.5" y="-20.4" font-family="Helvetica,sans-Serif" font-size="12.00" fill="#000000">niem&#45;xs:nonNegativeInteger</text>
</a>
</g>
<polygon fill="none" stroke="#000000" points="552,-15.5 552,-32.5 707,-32.5 707,-15.5 552,-15.5"/>
</g>
<!-- hs:FosterCareTotalRemovalQuantity&#45;&gt;niem&#45;xs:nonNegativeInteger -->
<g id="edge2" class="edge">
<title>hs:FosterCareTotalRemovalQuantity&#45;&gt;niem&#45;xs:nonNegativeInteger</title>
<path fill="none" stroke="#000000" d="M493.3562,-24C509.5575,-24 526.0521,-24 541.709,-24"/>
<polygon fill="#000000" stroke="#000000" points="541.8654,-27.5001 551.8653,-24 541.8653,-20.5001 541.8654,-27.5001"/>
<text text-anchor="middle" x="522.5" y="-27.4" font-family="Helvetica,sans-Serif" font-size="12.00" fill="#000000">type</text>
</g>
<!-- Types -->
<g id="node2" class="node">
<title>Types</title>
<text text-anchor="start" x="2.5" y="-21.4" font-family="Helvetica,sans-Serif" font-weight="bold" font-size="12.00" fill="#000000">Types</text>
<g id="a_node2_1"><a xlink:href="../../hs/FosterParentChildAssociationType/#diagram" xlink:title="A data type for an association between a child and a foster parent." target="_top">
<polygon fill="#ebebeb" stroke="transparent" points="1.5,-1 1.5,-16 204.5,-16 204.5,-1 1.5,-1"/>
<text text-anchor="start" x="2.5" y="-5.4" font-family="Helvetica,sans-Serif" font-size="12.00" fill="#000000">hs:FosterParentChildAssociationType</text>
</a>
</g>
<polygon fill="#000000" stroke="#000000" points=".5,-16 .5,-16 205.5,-16 205.5,-16 .5,-16"/>
<polygon fill="none" stroke="#000000" points="0,0 0,-32 205,-32 205,0 0,0"/>
</g>
<!-- Types&#45;&gt;hs:FosterCareTotalRemovalQuantity -->
<g id="edge1" class="edge">
<title>Types:top&#45;&gt;hs:FosterCareTotalRemovalQuantity</title>
<path fill="none" stroke="#000000" d="M204.5,-24C222.9674,-24 242.5126,-24 261.626,-24"/>
<polygon fill="#000000" stroke="#000000" points="261.8808,-27.5001 271.8808,-24 261.8808,-20.5001 261.8808,-27.5001"/>
<text text-anchor="middle" x="238.5" y="-27.4" font-family="Helvetica,sans-Serif" font-size="12.00" fill="#000000">has&#45;a</text>
</g>
</g>
</svg>
