<?xml version="1.0" encoding="UTF-8" standalone="no"?>
<!DOCTYPE svg PUBLIC "-//W3C//DTD SVG 1.1//EN"
 "http://www.w3.org/Graphics/SVG/1.1/DTD/svg11.dtd">
<!-- Generated by graphviz version 2.40.1 (20161225.0304)
 -->
<!-- Title: graphic Pages: 1 -->
<svg width="452pt" height="45pt"
 viewBox="0.00 0.00 452.00 45.00" xmlns="http://www.w3.org/2000/svg" xmlns:xlink="http://www.w3.org/1999/xlink">
<g id="graph0" class="graph" transform="scale(1 1) rotate(0) translate(4 41)">
<title>graphic</title>
<polygon fill="#ffffff" stroke="transparent" points="-4,4 -4,-41 448,-41 448,4 -4,4"/>
<!-- cbrn:InspectionDataAugmentationPoint -->
<g id="node1" class="node">
<title>cbrn:InspectionDataAugmentationPoint</title>
<text text-anchor="start" x="211.5" y="-21.4" font-family="Helvetica,sans-Serif" font-weight="bold" font-size="12.00" fill="#000000">cbrn:InspectionDataAugmentationPoint</text>
<polygon fill="none" stroke="#ff0000" stroke-width="5" points="207.5,-14 207.5,-34 441.5,-34 441.5,-14 207.5,-14"/>
</g>
<!-- Types -->
<g id="node2" class="node">
<title>Types</title>
<text text-anchor="start" x="2" y="-21.4" font-family="Helvetica,sans-Serif" font-weight="bold" font-size="12.00" fill="#000000">Types</text>
<g id="a_node2_0"><a xlink:href="../../cbrn/InspectionDataType/#diagram" xlink:title="A data type for information regarding an inspection of an item of interest." target="_top">
<polygon fill="#ebebeb" stroke="transparent" points="1,-1 1,-16 137,-16 137,-1 1,-1"/>
<text text-anchor="start" x="2" y="-5.4" font-family="Helvetica,sans-Serif" font-size="12.00" fill="#000000">cbrn:InspectionDataType</text>
</a>
</g>
<polygon fill="#000000" stroke="#000000" points="0,-16 0,-16 138,-16 138,-16 0,-16"/>
<polygon fill="none" stroke="#000000" points="0,0 0,-32 138,-32 138,0 0,0"/>
</g>
<!-- Types&#45;&gt;cbrn:InspectionDataAugmentationPoint -->
<g id="edge1" class="edge">
<title>Types:top&#45;&gt;cbrn:InspectionDataAugmentationPoint</title>
<path fill="none" stroke="#000000" d="M137,-24C155.7111,-24 175.4725,-24 194.8692,-24"/>
<polygon fill="#000000" stroke="#000000" points="194.9718,-27.5001 204.9717,-24 194.9717,-20.5001 194.9718,-27.5001"/>
<text text-anchor="middle" x="171.5" y="-27.4" font-family="Helvetica,sans-Serif" font-size="12.00" fill="#000000">has&#45;a</text>
</g>
</g>
</svg>
