<?xml version="1.0" encoding="UTF-8" standalone="no"?>
<!DOCTYPE svg PUBLIC "-//W3C//DTD SVG 1.1//EN"
 "http://www.w3.org/Graphics/SVG/1.1/DTD/svg11.dtd">
<!-- Generated by graphviz version 2.40.1 (20161225.0304)
 -->
<!-- Title: graphic Pages: 1 -->
<svg width="635pt" height="45pt"
 viewBox="0.00 0.00 635.00 45.00" xmlns="http://www.w3.org/2000/svg" xmlns:xlink="http://www.w3.org/1999/xlink">
<g id="graph0" class="graph" transform="scale(1 1) rotate(0) translate(4 41)">
<title>graphic</title>
<polygon fill="#ffffff" stroke="transparent" points="-4,4 -4,-41 631,-41 631,4 -4,4"/>
<!-- stat:CorrespondenceTableTargetLevelText -->
<g id="node1" class="node">
<title>stat:CorrespondenceTableTargetLevelText</title>
<text text-anchor="start" x="246.5" y="-21.4" font-family="Helvetica,sans-Serif" font-weight="bold" font-size="12.00" fill="#000000">stat:CorrespondenceTableTargetLevelText</text>
<polygon fill="none" stroke="#ff0000" stroke-width="5" points="242.5,-14 242.5,-34 494.5,-34 494.5,-14 242.5,-14"/>
</g>
<!-- nc:TextType -->
<g id="node3" class="node">
<title>nc:TextType</title>
<g id="a_node3_0"><a xlink:href="../../nc/TextType/#diagram" xlink:title="A data type for a character string." target="_top">
<text text-anchor="start" x="558.5" y="-20.4" font-family="Helvetica,sans-Serif" font-size="12.00" fill="#000000">nc:TextType</text>
</a>
</g>
<polygon fill="none" stroke="#000000" points="556,-15.5 556,-32.5 627,-32.5 627,-15.5 556,-15.5"/>
</g>
<!-- stat:CorrespondenceTableTargetLevelText&#45;&gt;nc:TextType -->
<g id="edge2" class="edge">
<title>stat:CorrespondenceTableTargetLevelText&#45;&gt;nc:TextType</title>
<path fill="none" stroke="#000000" d="M497.2511,-24C514.5023,-24 531.1889,-24 545.6048,-24"/>
<polygon fill="#000000" stroke="#000000" points="545.6761,-27.5001 555.676,-24 545.676,-20.5001 545.6761,-27.5001"/>
<text text-anchor="middle" x="526.5" y="-27.4" font-family="Helvetica,sans-Serif" font-size="12.00" fill="#000000">type</text>
</g>
<!-- Types -->
<g id="node2" class="node">
<title>Types</title>
<text text-anchor="start" x="2.5" y="-21.4" font-family="Helvetica,sans-Serif" font-weight="bold" font-size="12.00" fill="#000000">Types</text>
<g id="a_node2_1"><a xlink:href="../../stat/CorrespondenceTableType/#diagram" xlink:title="A data type for a correspondence table expresses the relationship between two statistical classifications. These are typically: two versions from the same classification series; statistical classifications from different classification series; a variant and the version on which it is based; or, different versions of a variant. In the first and last examples, the correspondence table facilitates comparability over time. Correspondence relationships are shown in both directions." target="_top">
<polygon fill="#ebebeb" stroke="transparent" points="1.5,-1 1.5,-16 172.5,-16 172.5,-1 1.5,-1"/>
<text text-anchor="start" x="2.5" y="-5.4" font-family="Helvetica,sans-Serif" font-size="12.00" fill="#000000">stat:CorrespondenceTableType</text>
</a>
</g>
<polygon fill="#000000" stroke="#000000" points=".5,-16 .5,-16 173.5,-16 173.5,-16 .5,-16"/>
<polygon fill="none" stroke="#000000" points="0,0 0,-32 173,-32 173,0 0,0"/>
</g>
<!-- Types&#45;&gt;stat:CorrespondenceTableTargetLevelText -->
<g id="edge1" class="edge">
<title>Types:top&#45;&gt;stat:CorrespondenceTableTargetLevelText</title>
<path fill="none" stroke="#000000" d="M172.5,-24C191.0451,-24 210.5773,-24 229.8357,-24"/>
<polygon fill="#000000" stroke="#000000" points="229.875,-27.5001 239.875,-24 229.875,-20.5001 229.875,-27.5001"/>
<text text-anchor="middle" x="206.5" y="-27.4" font-family="Helvetica,sans-Serif" font-size="12.00" fill="#000000">has&#45;a</text>
</g>
</g>
</svg>
