<?xml version="1.0" encoding="UTF-8" standalone="no"?>
<!DOCTYPE svg PUBLIC "-//W3C//DTD SVG 1.1//EN"
 "http://www.w3.org/Graphics/SVG/1.1/DTD/svg11.dtd">
<!-- Generated by graphviz version 2.40.1 (20161225.0304)
 -->
<!-- Title: graphic Pages: 1 -->
<svg width="460pt" height="45pt"
 viewBox="0.00 0.00 460.00 45.00" xmlns="http://www.w3.org/2000/svg" xmlns:xlink="http://www.w3.org/1999/xlink">
<g id="graph0" class="graph" transform="scale(1 1) rotate(0) translate(4 41)">
<title>graphic</title>
<polygon fill="#ffffff" stroke="transparent" points="-4,4 -4,-41 456,-41 456,4 -4,4"/>
<!-- j:ServiceCallOriginator -->
<g id="node1" class="node">
<title>j:ServiceCallOriginator</title>
<text text-anchor="start" x="171.5" y="-21.4" font-family="Helvetica,sans-Serif" font-weight="bold" font-size="12.00" fill="#000000">j:ServiceCallOriginator</text>
<polygon fill="none" stroke="#ff0000" stroke-width="5" points="167.5,-14 167.5,-34 305.5,-34 305.5,-14 167.5,-14"/>
</g>
<!-- nc:PersonType -->
<g id="node3" class="node">
<title>nc:PersonType</title>
<g id="a_node3_0"><a xlink:href="../../nc/PersonType/#diagram" xlink:title="A data type for a human being." target="_top">
<text text-anchor="start" x="369.5" y="-20.4" font-family="Helvetica,sans-Serif" font-size="12.00" fill="#000000">nc:PersonType</text>
</a>
</g>
<polygon fill="none" stroke="#000000" points="367,-15.5 367,-32.5 452,-32.5 452,-15.5 367,-15.5"/>
</g>
<!-- j:ServiceCallOriginator&#45;&gt;nc:PersonType -->
<g id="edge2" class="edge">
<title>j:ServiceCallOriginator&#45;&gt;nc:PersonType</title>
<path fill="none" stroke="#000000" d="M308.1145,-24C324.2772,-24 341.1548,-24 356.3977,-24"/>
<polygon fill="#000000" stroke="#000000" points="356.6605,-27.5001 366.6604,-24 356.6604,-20.5001 356.6605,-27.5001"/>
<text text-anchor="middle" x="337.5" y="-27.4" font-family="Helvetica,sans-Serif" font-size="12.00" fill="#000000">type</text>
</g>
<!-- Types -->
<g id="node2" class="node">
<title>Types</title>
<text text-anchor="start" x="2" y="-21.4" font-family="Helvetica,sans-Serif" font-weight="bold" font-size="12.00" fill="#000000">Types</text>
<g id="a_node2_1"><a xlink:href="../../j/ServiceCallType/#diagram" xlink:title="A data type for a call for service received from a person alerting an authority of a situation." target="_top">
<polygon fill="#ebebeb" stroke="transparent" points="1,-1 1,-16 97,-16 97,-1 1,-1"/>
<text text-anchor="start" x="2" y="-5.4" font-family="Helvetica,sans-Serif" font-size="12.00" fill="#000000">j:ServiceCallType</text>
</a>
</g>
<polygon fill="#000000" stroke="#000000" points="0,-16 0,-16 98,-16 98,-16 0,-16"/>
<polygon fill="none" stroke="#000000" points="0,0 0,-32 98,-32 98,0 0,0"/>
</g>
<!-- Types&#45;&gt;j:ServiceCallOriginator -->
<g id="edge1" class="edge">
<title>Types:top&#45;&gt;j:ServiceCallOriginator</title>
<path fill="none" stroke="#000000" d="M97,-24C115.6815,-24 135.7704,-24 154.7223,-24"/>
<polygon fill="#000000" stroke="#000000" points="154.8157,-27.5001 164.8156,-24 154.8156,-20.5001 154.8157,-27.5001"/>
<text text-anchor="middle" x="131.5" y="-27.4" font-family="Helvetica,sans-Serif" font-size="12.00" fill="#000000">has&#45;a</text>
</g>
</g>
</svg>
