<?xml version="1.0" encoding="UTF-8" standalone="no"?>
<!DOCTYPE svg PUBLIC "-//W3C//DTD SVG 1.1//EN"
 "http://www.w3.org/Graphics/SVG/1.1/DTD/svg11.dtd">
<!-- Generated by graphviz version 2.40.1 (20161225.0304)
 -->
<!-- Title: graphic Pages: 1 -->
<svg width="445pt" height="45pt"
 viewBox="0.00 0.00 445.00 45.00" xmlns="http://www.w3.org/2000/svg" xmlns:xlink="http://www.w3.org/1999/xlink">
<g id="graph0" class="graph" transform="scale(1 1) rotate(0) translate(4 41)">
<title>graphic</title>
<polygon fill="#ffffff" stroke="transparent" points="-4,4 -4,-41 441,-41 441,4 -4,4"/>
<!-- nc:BinaryDescriptionText -->
<g id="node1" class="node">
<title>nc:BinaryDescriptionText</title>
<text text-anchor="start" x="154.5" y="-21.4" font-family="Helvetica,sans-Serif" font-weight="bold" font-size="12.00" fill="#000000">nc:BinaryDescriptionText</text>
<polygon fill="none" stroke="#ff0000" stroke-width="5" points="150.5,-14 150.5,-34 304.5,-34 304.5,-14 150.5,-14"/>
</g>
<!-- nc:TextType -->
<g id="node3" class="node">
<title>nc:TextType</title>
<g id="a_node3_0"><a xlink:href="../../nc/TextType/#diagram" xlink:title="A data type for a character string." target="_top">
<text text-anchor="start" x="368.5" y="-20.4" font-family="Helvetica,sans-Serif" font-size="12.00" fill="#000000">nc:TextType</text>
</a>
</g>
<polygon fill="none" stroke="#000000" points="366,-15.5 366,-32.5 437,-32.5 437,-15.5 366,-15.5"/>
</g>
<!-- nc:BinaryDescriptionText&#45;&gt;nc:TextType -->
<g id="edge2" class="edge">
<title>nc:BinaryDescriptionText&#45;&gt;nc:TextType</title>
<path fill="none" stroke="#000000" d="M307.1163,-24C323.6781,-24 340.5993,-24 355.4559,-24"/>
<polygon fill="#000000" stroke="#000000" points="355.8744,-27.5001 365.8744,-24 355.8743,-20.5001 355.8744,-27.5001"/>
<text text-anchor="middle" x="336.5" y="-27.4" font-family="Helvetica,sans-Serif" font-size="12.00" fill="#000000">type</text>
</g>
<!-- Types -->
<g id="node2" class="node">
<title>Types</title>
<text text-anchor="start" x="2.5" y="-21.4" font-family="Helvetica,sans-Serif" font-weight="bold" font-size="12.00" fill="#000000">Types</text>
<g id="a_node2_1"><a xlink:href="../../nc/BinaryType/#diagram" xlink:title="A data type for a digital representation of an object encoded in a binary format." target="_top">
<polygon fill="#ebebeb" stroke="transparent" points="1.5,-1 1.5,-16 80.5,-16 80.5,-1 1.5,-1"/>
<text text-anchor="start" x="2.5" y="-5.4" font-family="Helvetica,sans-Serif" font-size="12.00" fill="#000000">nc:BinaryType</text>
</a>
</g>
<polygon fill="#000000" stroke="#000000" points=".5,-16 .5,-16 81.5,-16 81.5,-16 .5,-16"/>
<polygon fill="none" stroke="#000000" points="0,0 0,-32 81,-32 81,0 0,0"/>
</g>
<!-- Types&#45;&gt;nc:BinaryDescriptionText -->
<g id="edge1" class="edge">
<title>Types:top&#45;&gt;nc:BinaryDescriptionText</title>
<path fill="none" stroke="#000000" d="M80.5,-24C98.9961,-24 118.8013,-24 137.692,-24"/>
<polygon fill="#000000" stroke="#000000" points="137.7758,-27.5001 147.7757,-24 137.7757,-20.5001 137.7758,-27.5001"/>
<text text-anchor="middle" x="114.5" y="-27.4" font-family="Helvetica,sans-Serif" font-size="12.00" fill="#000000">has&#45;a</text>
</g>
</g>
</svg>
