<?xml version="1.0" encoding="UTF-8" standalone="no"?>
<!DOCTYPE svg PUBLIC "-//W3C//DTD SVG 1.1//EN"
 "http://www.w3.org/Graphics/SVG/1.1/DTD/svg11.dtd">
<!-- Generated by graphviz version 2.40.1 (20161225.0304)
 -->
<!-- Title: graphic Pages: 1 -->
<svg width="542pt" height="45pt"
 viewBox="0.00 0.00 542.00 45.00" xmlns="http://www.w3.org/2000/svg" xmlns:xlink="http://www.w3.org/1999/xlink">
<g id="graph0" class="graph" transform="scale(1 1) rotate(0) translate(4 41)">
<title>graphic</title>
<polygon fill="#ffffff" stroke="transparent" points="-4,4 -4,-41 538,-41 538,4 -4,4"/>
<!-- im:ChainOfCustodySequenceID -->
<g id="node1" class="node">
<title>im:ChainOfCustodySequenceID</title>
<text text-anchor="start" x="208" y="-21.4" font-family="Helvetica,sans-Serif" font-weight="bold" font-size="12.00" fill="#000000">im:ChainOfCustodySequenceID</text>
<polygon fill="none" stroke="#ff0000" stroke-width="5" points="204.5,-14 204.5,-34 393.5,-34 393.5,-14 204.5,-14"/>
</g>
<!-- niem&#45;xs:string -->
<g id="node3" class="node">
<title>niem&#45;xs:string</title>
<g id="a_node3_0"><a xlink:href="../../niem-xs/string/#diagram" xlink:title="A data type for character strings in XML." target="_top">
<text text-anchor="start" x="457.5" y="-20.4" font-family="Helvetica,sans-Serif" font-size="12.00" fill="#000000">niem&#45;xs:string</text>
</a>
</g>
<polygon fill="none" stroke="#000000" points="455,-15.5 455,-32.5 534,-32.5 534,-15.5 455,-15.5"/>
</g>
<!-- im:ChainOfCustodySequenceID&#45;&gt;niem&#45;xs:string -->
<g id="edge2" class="edge">
<title>im:ChainOfCustodySequenceID&#45;&gt;niem&#45;xs:string</title>
<path fill="none" stroke="#000000" d="M396.1772,-24C412.8338,-24 429.5125,-24 444.2787,-24"/>
<polygon fill="#000000" stroke="#000000" points="444.6652,-27.5001 454.6652,-24 444.6651,-20.5001 444.6652,-27.5001"/>
<text text-anchor="middle" x="425.5" y="-27.4" font-family="Helvetica,sans-Serif" font-size="12.00" fill="#000000">type</text>
</g>
<!-- Types -->
<g id="node2" class="node">
<title>Types</title>
<text text-anchor="start" x="2.5" y="-21.4" font-family="Helvetica,sans-Serif" font-weight="bold" font-size="12.00" fill="#000000">Types</text>
<g id="a_node2_1"><a xlink:href="../../im/ChainOfCustodyType/#diagram" xlink:title="A data type for the information about the possession of evidence which may include information on which United States Immigration official took possession of the evidence and when." target="_top">
<polygon fill="#ebebeb" stroke="transparent" points="1.5,-1 1.5,-16 134.5,-16 134.5,-1 1.5,-1"/>
<text text-anchor="start" x="2.5" y="-5.4" font-family="Helvetica,sans-Serif" font-size="12.00" fill="#000000">im:ChainOfCustodyType</text>
</a>
</g>
<polygon fill="#000000" stroke="#000000" points=".5,-16 .5,-16 135.5,-16 135.5,-16 .5,-16"/>
<polygon fill="none" stroke="#000000" points="0,0 0,-32 135,-32 135,0 0,0"/>
</g>
<!-- Types&#45;&gt;im:ChainOfCustodySequenceID -->
<g id="edge1" class="edge">
<title>Types:top&#45;&gt;im:ChainOfCustodySequenceID</title>
<path fill="none" stroke="#000000" d="M134.5,-24C152.8983,-24 172.454,-24 191.4195,-24"/>
<polygon fill="#000000" stroke="#000000" points="191.5779,-27.5001 201.5779,-24 191.5778,-20.5001 191.5779,-27.5001"/>
<text text-anchor="middle" x="168.5" y="-27.4" font-family="Helvetica,sans-Serif" font-size="12.00" fill="#000000">has&#45;a</text>
</g>
</g>
</svg>
