<?xml version="1.0" encoding="UTF-8" standalone="no"?>
<!DOCTYPE svg PUBLIC "-//W3C//DTD SVG 1.1//EN"
 "http://www.w3.org/Graphics/SVG/1.1/DTD/svg11.dtd">
<!-- Generated by graphviz version 2.40.1 (20161225.0304)
 -->
<!-- Title: graphic Pages: 1 -->
<svg width="472pt" height="161pt"
 viewBox="0.00 0.00 472.00 160.50" xmlns="http://www.w3.org/2000/svg" xmlns:xlink="http://www.w3.org/1999/xlink">
<g id="graph0" class="graph" transform="scale(1 1) rotate(0) translate(4 156.5)">
<title>graphic</title>
<polygon fill="#ffffff" stroke="transparent" points="-4,4 -4,-156.5 468,-156.5 468,4 -4,4"/>
<!-- j:ClothingType -->
<g id="node1" class="node">
<title>j:ClothingType</title>
<text text-anchor="start" x="224" y="-85.4" font-family="Helvetica,sans-Serif" font-weight="bold" font-size="12.00" fill="#000000">j:ClothingType</text>
<g id="a_node1_0"><a xlink:href="../../j/ClothingCategoryText/#diagram" xlink:title="A kind of clothing." target="_top">
<polygon fill="#ebebeb" stroke="transparent" points="223,-65 223,-80 459,-80 459,-65 223,-65"/>
<text text-anchor="start" x="224" y="-69.4" font-family="Helvetica,sans-Serif" font-size="12.00" fill="#000000">j:ClothingCategoryText: nc:TextType [0&#45;n]</text>
</a>
</g>
<g id="a_node1_1"><a xlink:href="../../j/ClothingColorText/#diagram" xlink:title="A color of an article of clothing." target="_top">
<text text-anchor="start" x="224" y="-54.4" font-family="Helvetica,sans-Serif" font-size="12.00" fill="#000000">j:ClothingColorText: nc:TextType [0&#45;n]</text>
</a>
</g>
<g id="a_node1_2"><a xlink:href="../../j/ClothingDescriptionText/#diagram" xlink:title="A description of an article of clothing." target="_top">
<polygon fill="#ebebeb" stroke="transparent" points="223,-35 223,-50 459,-50 459,-35 223,-35"/>
<text text-anchor="start" x="224" y="-39.4" font-family="Helvetica,sans-Serif" font-size="12.00" fill="#000000">j:ClothingDescriptionText: nc:TextType [0&#45;n]</text>
</a>
</g>
<g id="a_node1_3"><a xlink:href="../../j/ClothingStyleText/#diagram" xlink:title="A style of an article of clothing." target="_top">
<text text-anchor="start" x="224" y="-24.4" font-family="Helvetica,sans-Serif" font-size="12.00" fill="#000000">j:ClothingStyleText: nc:TextType [0&#45;n]</text>
</a>
</g>
<g id="a_node1_4"><a xlink:href="../../j/ClothingAugmentationPoint/#diagram" xlink:title="An augmentation point for ClothingType." target="_top">
<polygon fill="#ebebeb" stroke="transparent" points="223,-5 223,-20 459,-20 459,-5 223,-5"/>
<text text-anchor="start" x="224" y="-9.4" font-family="Helvetica,sans-Serif" font-size="12.00" fill="#000000">j:ClothingAugmentationPoint [0&#45;n]</text>
</a>
</g>
<polygon fill="#ff0000" stroke="#ff0000" points="218,-80 218,-80 464,-80 464,-80 218,-80"/>
<polygon fill="none" stroke="#ff0000" stroke-width="5" points="220.5,-2.5 220.5,-97.5 461.5,-97.5 461.5,-2.5 220.5,-2.5"/>
</g>
<!-- Properties -->
<g id="node2" class="node">
<title>Properties</title>
<text text-anchor="start" x="2.5" y="-85.4" font-family="Helvetica,sans-Serif" font-weight="bold" font-size="12.00" fill="#000000">Properties</text>
<g id="a_node2_5"><a xlink:href="../../j/Clothing/#diagram" xlink:title="A requirement or stipulation." target="_top">
<polygon fill="#ebebeb" stroke="transparent" points="1.5,-65 1.5,-80 158.5,-80 158.5,-65 1.5,-65"/>
<text text-anchor="start" x="2.5" y="-69.4" font-family="Helvetica,sans-Serif" font-size="12.00" fill="#000000">j:Clothing</text>
</a>
</g>
<g id="a_node2_6"><a xlink:href="../../j/PersonClothing/#diagram" xlink:title="An article of clothing, dress, or attire for a person." target="_top">
<text text-anchor="start" x="2.5" y="-54.4" font-family="Helvetica,sans-Serif" font-size="12.00" fill="#000000">j:PersonClothing</text>
</a>
</g>
<g id="a_node2_7"><a xlink:href="../../j/SupervisedReleaseClothing/#diagram" xlink:title="A collection clothing given to the subject for release." target="_top">
<polygon fill="#ebebeb" stroke="transparent" points="1.5,-35 1.5,-50 158.5,-50 158.5,-35 1.5,-35"/>
<text text-anchor="start" x="2.5" y="-39.4" font-family="Helvetica,sans-Serif" font-size="12.00" fill="#000000">j:SupervisedReleaseClothing</text>
</a>
</g>
<polygon fill="#000000" stroke="#000000" points=".5,-80 .5,-80 159.5,-80 159.5,-80 .5,-80"/>
<polygon fill="none" stroke="#000000" points="0,-34 0,-96 159,-96 159,-34 0,-34"/>
</g>
<!-- Properties&#45;&gt;j:ClothingType -->
<g id="edge1" class="edge">
<title>Properties:top&#45;&gt;j:ClothingType:top</title>
<path fill="none" stroke="#000000" d="M158.5,-88C183.4714,-88 192.1284,-88 212.8937,-88"/>
<polygon fill="#000000" stroke="#000000" points="213,-91.5001 223,-88 213,-84.5001 213,-91.5001"/>
<text text-anchor="middle" x="188.5" y="-91.4" font-family="Helvetica,sans-Serif" font-size="12.00" fill="#000000">type</text>
</g>
<!-- structures:ObjectType -->
<g id="node3" class="node">
<title>structures:ObjectType</title>
<g id="a_node3_8"><a xlink:href="../../structures/ObjectType/#diagram" xlink:title="A data type for a thing with its own lifespan that has some existence." target="_top">
<text text-anchor="start" x="282" y="-140.4" font-family="Helvetica,sans-Serif" font-size="12.00" fill="#000000">structures:ObjectType</text>
</a>
</g>
<polygon fill="none" stroke="#000000" points="280,-135.5 280,-152.5 402,-152.5 402,-135.5 280,-135.5"/>
</g>
<!-- structures:ObjectType&#45;&gt;j:ClothingType -->
<g id="edge2" class="edge">
<title>structures:ObjectType&#45;&gt;j:ClothingType</title>
<path fill="none" stroke="#000000" d="M341,-135.375C341,-129.1263 341,-120.0624 341,-110.15"/>
<polygon fill="#000000" stroke="#000000" points="344.5001,-110.0274 341,-100.0274 337.5001,-110.0275 344.5001,-110.0274"/>
<text text-anchor="middle" x="331.5" y="-114.65" font-family="Helvetica,sans-Serif" font-size="12.00" fill="#000000">extension</text>
</g>
</g>
</svg>
