<?xml version="1.0" encoding="UTF-8" standalone="no"?>
<!DOCTYPE svg PUBLIC "-//W3C//DTD SVG 1.1//EN"
 "http://www.w3.org/Graphics/SVG/1.1/DTD/svg11.dtd">
<!-- Generated by graphviz version 2.40.1 (20161225.0304)
 -->
<!-- Title: graphic Pages: 1 -->
<svg width="685pt" height="86pt"
 viewBox="0.00 0.00 685.00 86.00" xmlns="http://www.w3.org/2000/svg" xmlns:xlink="http://www.w3.org/1999/xlink">
<g id="graph0" class="graph" transform="scale(1 1) rotate(0) translate(4 82)">
<title>graphic</title>
<polygon fill="#ffffff" stroke="transparent" points="-4,4 -4,-82 681,-82 681,4 -4,4"/>
<!-- j:DriverLicenseMedicalCertificationStatusCode -->
<g id="node1" class="node">
<title>j:DriverLicenseMedicalCertificationStatusCode</title>
<text text-anchor="start" x="6" y="-9.9" font-family="Helvetica,sans-Serif" font-weight="bold" font-size="12.00" fill="#000000">j:DriverLicenseMedicalCertificationStatusCode</text>
<polygon fill="none" stroke="#ff0000" stroke-width="5" points="2.5,-2.5 2.5,-22.5 277.5,-22.5 277.5,-2.5 2.5,-2.5"/>
</g>
<!-- aamva_d20:DriverLicenseMedicalCertificationStatusCodeType -->
<g id="node3" class="node">
<title>aamva_d20:DriverLicenseMedicalCertificationStatusCodeType</title>
<g id="a_node3_0"><a xlink:href="../../aamva_d20/DriverLicenseMedicalCertificationStatusCodeType/#diagram" xlink:title="A data type for an indication of the status of a driver&#39;s medical certification." target="_top">
<text text-anchor="start" x="341" y="-8.9" font-family="Helvetica,sans-Serif" font-size="12.00" fill="#000000">aamva_d20:DriverLicenseMedicalCertificationStatusCodeType</text>
</a>
</g>
<polygon fill="none" stroke="#000000" points="339,-4 339,-21 677,-21 677,-4 339,-4"/>
</g>
<!-- j:DriverLicenseMedicalCertificationStatusCode&#45;&gt;aamva_d20:DriverLicenseMedicalCertificationStatusCodeType -->
<g id="edge2" class="edge">
<title>j:DriverLicenseMedicalCertificationStatusCode&#45;&gt;aamva_d20:DriverLicenseMedicalCertificationStatusCodeType</title>
<path fill="none" stroke="#000000" d="M280.1748,-12.5C296.0704,-12.5 312.4293,-12.5 328.7386,-12.5"/>
<polygon fill="#000000" stroke="#000000" points="328.8824,-16.0001 338.8824,-12.5 328.8824,-9.0001 328.8824,-16.0001"/>
<text text-anchor="middle" x="309.5" y="-15.9" font-family="Helvetica,sans-Serif" font-size="12.00" fill="#000000">type</text>
</g>
<!-- SubstitutionGroup -->
<g id="node2" class="node">
<title>SubstitutionGroup</title>
<g id="a_node2_1"><a xlink:href="../../j/DriverLicenseMedicalCertificationStatusAbstract/#diagram" xlink:title="A data concept for an indication of the status of a driver&#39;s medical certification." target="_top">
<text text-anchor="start" x="9" y="-65.9" font-family="Helvetica,sans-Serif" font-size="12.00" fill="#000000">j:DriverLicenseMedicalCertificationStatusAbstract</text>
</a>
</g>
<polygon fill="none" stroke="#000000" points="6.5,-61 6.5,-78 273.5,-78 273.5,-61 6.5,-61"/>
</g>
<!-- SubstitutionGroup&#45;&gt;j:DriverLicenseMedicalCertificationStatusCode -->
<g id="edge1" class="edge">
<title>SubstitutionGroup&#45;&gt;j:DriverLicenseMedicalCertificationStatusCode</title>
<path fill="none" stroke="#000000" d="M140,-50.9163C140,-42.4809 140,-32.7214 140,-25.1501"/>
<polygon fill="#000000" stroke="#000000" points="136.5001,-50.9472 140,-60.9473 143.5001,-50.9473 136.5001,-50.9472"/>
<text text-anchor="middle" x="130.5" y="-39.9" font-family="Helvetica,sans-Serif" font-size="12.00" fill="#000000">substitution group</text>
</g>
</g>
</svg>
