<?xml version="1.0" encoding="UTF-8" standalone="no"?>
<!DOCTYPE svg PUBLIC "-//W3C//DTD SVG 1.1//EN"
 "http://www.w3.org/Graphics/SVG/1.1/DTD/svg11.dtd">
<!-- Generated by graphviz version 2.40.1 (20161225.0304)
 -->
<!-- Title: graphic Pages: 1 -->
<svg width="548pt" height="86pt"
 viewBox="0.00 0.00 548.00 86.00" xmlns="http://www.w3.org/2000/svg" xmlns:xlink="http://www.w3.org/1999/xlink">
<g id="graph0" class="graph" transform="scale(1 1) rotate(0) translate(4 82)">
<title>graphic</title>
<polygon fill="#ffffff" stroke="transparent" points="-4,4 -4,-82 544,-82 544,4 -4,4"/>
<!-- biom:FaceImageAcquisitionProfileCode -->
<g id="node1" class="node">
<title>biom:FaceImageAcquisitionProfileCode</title>
<text text-anchor="start" x="6" y="-9.9" font-family="Helvetica,sans-Serif" font-weight="bold" font-size="12.00" fill="#000000">biom:FaceImageAcquisitionProfileCode</text>
<polygon fill="none" stroke="#ff0000" stroke-width="5" points="2.5,-2.5 2.5,-22.5 237.5,-22.5 237.5,-2.5 2.5,-2.5"/>
</g>
<!-- biom:FaceImageAcquisitionProfileCodeType -->
<g id="node3" class="node">
<title>biom:FaceImageAcquisitionProfileCodeType</title>
<g id="a_node3_0"><a xlink:href="../../biom/FaceImageAcquisitionProfileCodeType/#diagram" xlink:title="A data type for a set of criteria under which the facial image was captured" target="_top">
<text text-anchor="start" x="301.5" y="-8.9" font-family="Helvetica,sans-Serif" font-size="12.00" fill="#000000">biom:FaceImageAcquisitionProfileCodeType</text>
</a>
</g>
<polygon fill="none" stroke="#000000" points="299,-4 299,-21 540,-21 540,-4 299,-4"/>
</g>
<!-- biom:FaceImageAcquisitionProfileCode&#45;&gt;biom:FaceImageAcquisitionProfileCodeType -->
<g id="edge2" class="edge">
<title>biom:FaceImageAcquisitionProfileCode&#45;&gt;biom:FaceImageAcquisitionProfileCodeType</title>
<path fill="none" stroke="#000000" d="M240.0924,-12.5C256.13,-12.5 272.6403,-12.5 288.8473,-12.5"/>
<polygon fill="#000000" stroke="#000000" points="288.8923,-16.0001 298.8923,-12.5 288.8922,-9.0001 288.8923,-16.0001"/>
<text text-anchor="middle" x="269.5" y="-15.9" font-family="Helvetica,sans-Serif" font-size="12.00" fill="#000000">type</text>
</g>
<!-- SubstitutionGroup -->
<g id="node2" class="node">
<title>SubstitutionGroup</title>
<g id="a_node2_1"><a xlink:href="../../biom/FaceImageAcquisitionProfileAbstract/#diagram" xlink:title="A data concept for a set of criteria under which the facial image was captured" target="_top">
<text text-anchor="start" x="7" y="-65.9" font-family="Helvetica,sans-Serif" font-size="12.00" fill="#000000">biom:FaceImageAcquisitionProfileAbstract</text>
</a>
</g>
<polygon fill="none" stroke="#000000" points="5,-61 5,-78 235,-78 235,-61 5,-61"/>
</g>
<!-- SubstitutionGroup&#45;&gt;biom:FaceImageAcquisitionProfileCode -->
<g id="edge1" class="edge">
<title>SubstitutionGroup&#45;&gt;biom:FaceImageAcquisitionProfileCode</title>
<path fill="none" stroke="#000000" d="M120,-50.9163C120,-42.4809 120,-32.7214 120,-25.1501"/>
<polygon fill="#000000" stroke="#000000" points="116.5001,-50.9472 120,-60.9473 123.5001,-50.9473 116.5001,-50.9472"/>
<text text-anchor="middle" x="110.5" y="-39.9" font-family="Helvetica,sans-Serif" font-size="12.00" fill="#000000">substitution group</text>
</g>
</g>
</svg>
