<?xml version="1.0" encoding="UTF-8" standalone="no"?>
<!DOCTYPE svg PUBLIC "-//W3C//DTD SVG 1.1//EN"
 "http://www.w3.org/Graphics/SVG/1.1/DTD/svg11.dtd">
<!-- Generated by graphviz version 2.40.1 (20161225.0304)
 -->
<!-- Title: graphic Pages: 1 -->
<svg width="669pt" height="154pt"
 viewBox="0.00 0.00 669.00 153.50" xmlns="http://www.w3.org/2000/svg" xmlns:xlink="http://www.w3.org/1999/xlink">
<g id="graph0" class="graph" transform="scale(1 1) rotate(0) translate(4 149.5)">
<title>graphic</title>
<polygon fill="#ffffff" stroke="transparent" points="-4,4 -4,-149.5 665,-149.5 665,4 -4,4"/>
<!-- em:IndividualAssistanceFloodWaterLocationCodeType -->
<g id="node1" class="node">
<title>em:IndividualAssistanceFloodWaterLocationCodeType</title>
<text text-anchor="start" x="337.5" y="-25.4" font-family="Helvetica,sans-Serif" font-weight="bold" font-size="12.00" fill="#000000">em:IndividualAssistanceFloodWaterLocationCodeType</text>
<g id="a_node1_0"><a xlink:href="../../structures/SimpleObjectAttributeGroup/#diagram" xlink:title="A group of attributes that are applicable to objects, to be used when defining a complex type that is an extension of a simple type." target="_top">
<polygon fill="#ebebeb" stroke="transparent" points="336.5,-5 336.5,-20 653.5,-20 653.5,-5 336.5,-5"/>
<text text-anchor="start" x="337.5" y="-9.4" font-family="Helvetica,sans-Serif" font-size="12.00" fill="#000000">structures:SimpleObjectAttributeGroup</text>
</a>
</g>
<polygon fill="#ff0000" stroke="#ff0000" points="331.5,-20 331.5,-20 658.5,-20 658.5,-20 331.5,-20"/>
<polygon fill="none" stroke="#ff0000" stroke-width="5" points="333.5,-2.5 333.5,-37.5 655.5,-37.5 655.5,-2.5 333.5,-2.5"/>
</g>
<!-- Properties -->
<g id="node2" class="node">
<title>Properties</title>
<text text-anchor="start" x="2.5" y="-25.4" font-family="Helvetica,sans-Serif" font-weight="bold" font-size="12.00" fill="#000000">Properties</text>
<g id="a_node2_1"><a xlink:href="../../em/IndividualAssistanceFloodWaterLocationCode/#diagram" xlink:title="An element that specifies the location of flood waters" target="_top">
<polygon fill="#ebebeb" stroke="transparent" points="1.5,-5 1.5,-20 268.5,-20 268.5,-5 1.5,-5"/>
<text text-anchor="start" x="2.5" y="-9.4" font-family="Helvetica,sans-Serif" font-size="12.00" fill="#000000">em:IndividualAssistanceFloodWaterLocationCode</text>
</a>
</g>
<polygon fill="#000000" stroke="#000000" points=".5,-20 .5,-20 269.5,-20 269.5,-20 .5,-20"/>
<polygon fill="none" stroke="#000000" points="0,-4 0,-36 269,-36 269,-4 0,-4"/>
</g>
<!-- Properties&#45;&gt;em:IndividualAssistanceFloodWaterLocationCodeType -->
<g id="edge1" class="edge">
<title>Properties:top&#45;&gt;em:IndividualAssistanceFloodWaterLocationCodeType:top</title>
<path fill="none" stroke="#000000" d="M268.5,-28C295.0625,-28 304.1155,-28 326.4375,-28"/>
<polygon fill="#000000" stroke="#000000" points="326.5,-31.5001 336.5,-28 326.5,-24.5001 326.5,-31.5001"/>
<text text-anchor="middle" x="298.5" y="-31.4" font-family="Helvetica,sans-Serif" font-size="12.00" fill="#000000">type</text>
</g>
<!-- em:IndividualAssistanceFloodWaterLocationCodeSimpleType -->
<g id="node3" class="node">
<title>em:IndividualAssistanceFloodWaterLocationCodeSimpleType</title>
<g id="a_node3_2"><a xlink:href="../../em/IndividualAssistanceFloodWaterLocationCodeSimpleType/#diagram" xlink:title="A data type code to specify the part of the home was impacted." target="_top">
<text text-anchor="start" x="330.5" y="-80.4" font-family="Helvetica,sans-Serif" font-size="12.00" fill="#000000">em:IndividualAssistanceFloodWaterLocationCodeSimpleType</text>
</a>
</g>
<polygon fill="none" stroke="#000000" points="328,-75.5 328,-92.5 661,-92.5 661,-75.5 328,-75.5"/>
</g>
<!-- em:IndividualAssistanceFloodWaterLocationCodeSimpleType&#45;&gt;em:IndividualAssistanceFloodWaterLocationCodeType -->
<g id="edge2" class="edge">
<title>em:IndividualAssistanceFloodWaterLocationCodeSimpleType&#45;&gt;em:IndividualAssistanceFloodWaterLocationCodeType</title>
<path fill="none" stroke="#000000" d="M494.5,-75.4351C494.5,-68.931 494.5,-59.5678 494.5,-50.3827"/>
<polygon fill="#000000" stroke="#000000" points="498.0001,-50.25 494.5,-40.25 491.0001,-50.25 498.0001,-50.25"/>
<text text-anchor="middle" x="485" y="-54.65" font-family="Helvetica,sans-Serif" font-size="12.00" fill="#000000">extension</text>
</g>
<!-- xs:token -->
<g id="node4" class="node">
<title>xs:token</title>
<g id="a_node4_3"><a xlink:href="../../xs/token/#diagram" xlink:title="&lt;TABLE&gt;" target="_top">
<text text-anchor="start" x="472.5" y="-133.4" font-family="Helvetica,sans-Serif" font-size="12.00" fill="#000000">xs:token</text>
</a>
</g>
<polygon fill="none" stroke="#000000" points="470,-128.5 470,-145.5 519,-145.5 519,-128.5 470,-128.5"/>
</g>
<!-- xs:token&#45;&gt;em:IndividualAssistanceFloodWaterLocationCodeSimpleType -->
<g id="edge3" class="edge">
<title>xs:token&#45;&gt;em:IndividualAssistanceFloodWaterLocationCodeSimpleType</title>
<path fill="none" stroke="#000000" d="M494.5,-128.411C494.5,-121.5124 494.5,-111.5696 494.5,-102.84"/>
<polygon fill="#000000" stroke="#000000" points="498.0001,-102.7518 494.5,-92.7519 491.0001,-102.7519 498.0001,-102.7518"/>
<text text-anchor="middle" x="485" y="-107.4" font-family="Helvetica,sans-Serif" font-size="12.00" fill="#000000">restriction</text>
</g>
</g>
</svg>
