<?xml version="1.0" encoding="UTF-8" standalone="no"?>
<!DOCTYPE svg PUBLIC "-//W3C//DTD SVG 1.1//EN"
 "http://www.w3.org/Graphics/SVG/1.1/DTD/svg11.dtd">
<!-- Generated by graphviz version 2.40.1 (20161225.0304)
 -->
<!-- Title: graphic Pages: 1 -->
<svg width="220pt" height="154pt"
 viewBox="0.00 0.00 220.00 153.50" xmlns="http://www.w3.org/2000/svg" xmlns:xlink="http://www.w3.org/1999/xlink">
<g id="graph0" class="graph" transform="scale(1 1) rotate(0) translate(4 149.5)">
<title>graphic</title>
<polygon fill="#ffffff" stroke="transparent" points="-4,4 -4,-149.5 216,-149.5 216,4 -4,4"/>
<!-- ag_codes:CoreProductSimpleType -->
<g id="node1" class="node">
<title>ag_codes:CoreProductSimpleType</title>
<text text-anchor="start" x="6" y="-77.4" font-family="Helvetica,sans-Serif" font-weight="bold" font-size="12.00" fill="#000000">ag_codes:CoreProductSimpleType</text>
<polygon fill="none" stroke="#ff0000" stroke-width="5" points="2.5,-70 2.5,-90 209.5,-90 209.5,-70 2.5,-70"/>
</g>
<!-- DerivedTypes -->
<g id="node2" class="node">
<title>DerivedTypes</title>
<text text-anchor="start" x="31" y="-21.4" font-family="Helvetica,sans-Serif" font-weight="bold" font-size="12.00" fill="#000000">Derived types</text>
<g id="a_node2_0"><a xlink:href="../../ag_codes/CoreProductType/#diagram" xlink:title="A data type containing classification codes." target="_top">
<polygon fill="#ebebeb" stroke="transparent" points="30,-1 30,-16 182,-16 182,-1 30,-1"/>
<text text-anchor="start" x="31" y="-5.4" font-family="Helvetica,sans-Serif" font-size="12.00" fill="#000000">ag_codes:CoreProductType</text>
</a>
</g>
<polygon fill="#000000" stroke="#000000" points="29,-16 29,-16 183,-16 183,-16 29,-16"/>
<polygon fill="none" stroke="#000000" points="29,0 29,-32 183,-32 183,0 29,0"/>
</g>
<!-- ag_codes:CoreProductSimpleType&#45;&gt;DerivedTypes -->
<g id="edge1" class="edge">
<title>ag_codes:CoreProductSimpleType&#45;&gt;DerivedTypes</title>
<path fill="none" stroke="#000000" d="M106,-67.4892C106,-60.3101 106,-51.0172 106,-42.306"/>
<polygon fill="#000000" stroke="#000000" points="109.5001,-42.1499 106,-32.1499 102.5001,-42.1499 109.5001,-42.1499"/>
<text text-anchor="middle" x="96.5" y="-46.65" font-family="Helvetica,sans-Serif" font-size="12.00" fill="#000000">derived</text>
</g>
<!-- xs:token -->
<g id="node3" class="node">
<title>xs:token</title>
<g id="a_node3_1"><a xlink:href="../../xs/token/#diagram" xlink:title="&lt;TABLE&gt;" target="_top">
<text text-anchor="start" x="84" y="-133.4" font-family="Helvetica,sans-Serif" font-size="12.00" fill="#000000">xs:token</text>
</a>
</g>
<polygon fill="none" stroke="#000000" points="81.5,-128.5 81.5,-145.5 130.5,-145.5 130.5,-128.5 81.5,-128.5"/>
</g>
<!-- xs:token&#45;&gt;ag_codes:CoreProductSimpleType -->
<g id="edge2" class="edge">
<title>xs:token&#45;&gt;ag_codes:CoreProductSimpleType</title>
<path fill="none" stroke="#000000" d="M106,-128.4473C106,-121.6242 106,-111.7417 106,-102.6794"/>
<polygon fill="#000000" stroke="#000000" points="109.5001,-102.6501 106,-92.6501 102.5001,-102.6502 109.5001,-102.6501"/>
<text text-anchor="middle" x="96.5" y="-107.4" font-family="Helvetica,sans-Serif" font-size="12.00" fill="#000000">restriction</text>
</g>
</g>
</svg>
