<?xml version="1.0" encoding="UTF-8" standalone="no"?>
<!DOCTYPE svg PUBLIC "-//W3C//DTD SVG 1.1//EN"
 "http://www.w3.org/Graphics/SVG/1.1/DTD/svg11.dtd">
<!-- Generated by graphviz version 2.40.1 (20161225.0304)
 -->
<!-- Title: graphic Pages: 1 -->
<svg width="489pt" height="45pt"
 viewBox="0.00 0.00 489.00 45.00" xmlns="http://www.w3.org/2000/svg" xmlns:xlink="http://www.w3.org/1999/xlink">
<g id="graph0" class="graph" transform="scale(1 1) rotate(0) translate(4 41)">
<title>graphic</title>
<polygon fill="#ffffff" stroke="transparent" points="-4,4 -4,-41 485,-41 485,4 -4,4"/>
<!-- j:CourtAppearanceCase -->
<g id="node1" class="node">
<title>j:CourtAppearanceCase</title>
<text text-anchor="start" x="204.5" y="-21.4" font-family="Helvetica,sans-Serif" font-weight="bold" font-size="12.00" fill="#000000">j:CourtAppearanceCase</text>
<polygon fill="none" stroke="#ff0000" stroke-width="5" points="200.5,-14 200.5,-34 344.5,-34 344.5,-14 200.5,-14"/>
</g>
<!-- nc:CaseType -->
<g id="node3" class="node">
<title>nc:CaseType</title>
<g id="a_node3_0"><a xlink:href="../../nc/CaseType/#diagram" xlink:title="A data type for an aggregation of information about a set of related activities and events." target="_top">
<text text-anchor="start" x="408.5" y="-20.4" font-family="Helvetica,sans-Serif" font-size="12.00" fill="#000000">nc:CaseType</text>
</a>
</g>
<polygon fill="none" stroke="#000000" points="406,-15.5 406,-32.5 481,-32.5 481,-15.5 406,-15.5"/>
</g>
<!-- j:CourtAppearanceCase&#45;&gt;nc:CaseType -->
<g id="edge2" class="edge">
<title>j:CourtAppearanceCase&#45;&gt;nc:CaseType</title>
<path fill="none" stroke="#000000" d="M347.0056,-24C363.5322,-24 380.6161,-24 395.7318,-24"/>
<polygon fill="#000000" stroke="#000000" points="395.851,-27.5001 405.851,-24 395.851,-20.5001 395.851,-27.5001"/>
<text text-anchor="middle" x="376.5" y="-27.4" font-family="Helvetica,sans-Serif" font-size="12.00" fill="#000000">type</text>
</g>
<!-- Types -->
<g id="node2" class="node">
<title>Types</title>
<text text-anchor="start" x="2.5" y="-21.4" font-family="Helvetica,sans-Serif" font-weight="bold" font-size="12.00" fill="#000000">Types</text>
<g id="a_node2_1"><a xlink:href="../../j/CourtAppearanceType/#diagram" xlink:title="A data type for an appearance required of a party in a court of law on a certain date." target="_top">
<polygon fill="#ebebeb" stroke="transparent" points="1.5,-1 1.5,-16 130.5,-16 130.5,-1 1.5,-1"/>
<text text-anchor="start" x="2.5" y="-5.4" font-family="Helvetica,sans-Serif" font-size="12.00" fill="#000000">j:CourtAppearanceType</text>
</a>
</g>
<polygon fill="#000000" stroke="#000000" points=".5,-16 .5,-16 131.5,-16 131.5,-16 .5,-16"/>
<polygon fill="none" stroke="#000000" points="0,0 0,-32 131,-32 131,0 0,0"/>
</g>
<!-- Types&#45;&gt;j:CourtAppearanceCase -->
<g id="edge1" class="edge">
<title>Types:top&#45;&gt;j:CourtAppearanceCase</title>
<path fill="none" stroke="#000000" d="M130.5,-24C148.9939,-24 168.8427,-24 187.6642,-24"/>
<polygon fill="#000000" stroke="#000000" points="187.6988,-27.5001 197.6988,-24 187.6988,-20.5001 187.6988,-27.5001"/>
<text text-anchor="middle" x="164.5" y="-27.4" font-family="Helvetica,sans-Serif" font-size="12.00" fill="#000000">has&#45;a</text>
</g>
</g>
</svg>
