<?xml version="1.0" encoding="UTF-8" standalone="no"?>
<!DOCTYPE svg PUBLIC "-//W3C//DTD SVG 1.1//EN"
 "http://www.w3.org/Graphics/SVG/1.1/DTD/svg11.dtd">
<!-- Generated by graphviz version 2.40.1 (20161225.0304)
 -->
<!-- Title: graphic Pages: 1 -->
<svg width="383pt" height="86pt"
 viewBox="0.00 0.00 383.00 86.00" xmlns="http://www.w3.org/2000/svg" xmlns:xlink="http://www.w3.org/1999/xlink">
<g id="graph0" class="graph" transform="scale(1 1) rotate(0) translate(4 82)">
<title>graphic</title>
<polygon fill="#ffffff" stroke="transparent" points="-4,4 -4,-82 379,-82 379,4 -4,4"/>
<!-- m:MerchantMarinerDocumentRatingText -->
<g id="node1" class="node">
<title>m:MerchantMarinerDocumentRatingText</title>
<text text-anchor="start" x="6.5" y="-9.9" font-family="Helvetica,sans-Serif" font-weight="bold" font-size="12.00" fill="#000000">m:MerchantMarinerDocumentRatingText</text>
<polygon fill="none" stroke="#ff0000" stroke-width="5" points="2.5,-2.5 2.5,-22.5 242.5,-22.5 242.5,-2.5 2.5,-2.5"/>
</g>
<!-- nc:TextType -->
<g id="node3" class="node">
<title>nc:TextType</title>
<g id="a_node3_0"><a xlink:href="../../nc/TextType/#diagram" xlink:title="A data type for a character string." target="_top">
<text text-anchor="start" x="306.5" y="-8.9" font-family="Helvetica,sans-Serif" font-size="12.00" fill="#000000">nc:TextType</text>
</a>
</g>
<polygon fill="none" stroke="#000000" points="304,-4 304,-21 375,-21 375,-4 304,-4"/>
</g>
<!-- m:MerchantMarinerDocumentRatingText&#45;&gt;nc:TextType -->
<g id="edge2" class="edge">
<title>m:MerchantMarinerDocumentRatingText&#45;&gt;nc:TextType</title>
<path fill="none" stroke="#000000" d="M245.2674,-12.5C262.553,-12.5 279.3469,-12.5 293.853,-12.5"/>
<polygon fill="#000000" stroke="#000000" points="293.9857,-16.0001 303.9857,-12.5 293.9856,-9.0001 293.9857,-16.0001"/>
<text text-anchor="middle" x="274.5" y="-15.9" font-family="Helvetica,sans-Serif" font-size="12.00" fill="#000000">type</text>
</g>
<!-- SubstitutionGroup -->
<g id="node2" class="node">
<title>SubstitutionGroup</title>
<g id="a_node2_1"><a xlink:href="../../m/MerchantMarinerDocumentRatingAbstract/#diagram" xlink:title="A data concept for a rating on a merchant mariner document which authorizes the performance of certain shipboard duties or actions." target="_top">
<text text-anchor="start" x="3.5" y="-65.9" font-family="Helvetica,sans-Serif" font-size="12.00" fill="#000000">m:MerchantMarinerDocumentRatingAbstract</text>
</a>
</g>
<polygon fill="none" stroke="#000000" points="1.5,-61 1.5,-78 243.5,-78 243.5,-61 1.5,-61"/>
</g>
<!-- SubstitutionGroup&#45;&gt;m:MerchantMarinerDocumentRatingText -->
<g id="edge1" class="edge">
<title>SubstitutionGroup&#45;&gt;m:MerchantMarinerDocumentRatingText</title>
<path fill="none" stroke="#000000" d="M122.5,-50.9163C122.5,-42.4809 122.5,-32.7214 122.5,-25.1501"/>
<polygon fill="#000000" stroke="#000000" points="119.0001,-50.9472 122.5,-60.9473 126.0001,-50.9473 119.0001,-50.9472"/>
<text text-anchor="middle" x="113" y="-39.9" font-family="Helvetica,sans-Serif" font-size="12.00" fill="#000000">substitution group</text>
</g>
</g>
</svg>
