<?xml version="1.0" encoding="UTF-8" standalone="no"?>
<!DOCTYPE svg PUBLIC "-//W3C//DTD SVG 1.1//EN"
 "http://www.w3.org/Graphics/SVG/1.1/DTD/svg11.dtd">
<!-- Generated by graphviz version 2.40.1 (20161225.0304)
 -->
<!-- Title: graphic Pages: 1 -->
<svg width="929pt" height="184pt"
 viewBox="0.00 0.00 929.00 183.50" xmlns="http://www.w3.org/2000/svg" xmlns:xlink="http://www.w3.org/1999/xlink">
<g id="graph0" class="graph" transform="scale(1 1) rotate(0) translate(4 179.5)">
<title>graphic</title>
<polygon fill="#ffffff" stroke="transparent" points="-4,4 -4,-179.5 925,-179.5 925,4 -4,4"/>
<!-- j:DocumentJudicialOfficialAssociationType -->
<g id="node1" class="node">
<title>j:DocumentJudicialOfficialAssociationType</title>
<text text-anchor="start" x="268" y="-55.4" font-family="Helvetica,sans-Serif" font-weight="bold" font-size="12.00" fill="#000000">j:DocumentJudicialOfficialAssociationType</text>
<g id="a_node1_0"><a xlink:href="../../nc/Document/#diagram" xlink:title="A paper or electronic document." target="_top">
<polygon fill="#ebebeb" stroke="transparent" points="267,-35 267,-50 597,-50 597,-35 267,-35"/>
<text text-anchor="start" x="268" y="-39.4" font-family="Helvetica,sans-Serif" font-size="12.00" fill="#000000">nc:Document: nc:DocumentType [0&#45;n]</text>
</a>
</g>
<g id="a_node1_1"><a xlink:href="../../j/JudicialOfficial/#diagram" xlink:title="A person involved in a judicial area of government." target="_top">
<text text-anchor="start" x="268" y="-24.4" font-family="Helvetica,sans-Serif" font-size="12.00" fill="#000000">j:JudicialOfficial: j:JudicialOfficialType [0&#45;n]</text>
</a>
</g>
<g id="a_node1_2"><a xlink:href="../../j/DocumentJudicialOfficialAssociationAugmentationPoint/#diagram" xlink:title="An augmentation point for DocumentJudicialOfficialAssociationType." target="_top">
<polygon fill="#ebebeb" stroke="transparent" points="267,-5 267,-20 597,-20 597,-5 267,-5"/>
<text text-anchor="start" x="268" y="-9.4" font-family="Helvetica,sans-Serif" font-size="12.00" fill="#000000">j:DocumentJudicialOfficialAssociationAugmentationPoint [0&#45;n]</text>
</a>
</g>
<polygon fill="#ff0000" stroke="#ff0000" points="262,-50 262,-50 602,-50 602,-50 262,-50"/>
<polygon fill="none" stroke="#ff0000" stroke-width="5" points="264.5,-2.5 264.5,-67.5 599.5,-67.5 599.5,-2.5 264.5,-2.5"/>
</g>
<!-- subst_d11e11939 -->
<g id="node2" class="node">
<title>subst_d11e11939</title>
<g id="a_node2_3"><a xlink:href="../../nc/Document/#diagram" xlink:title="&lt;TABLE&gt;" target="_top">
<text text-anchor="start" x="641" y="-40.4" font-family="Helvetica,sans-Serif" font-weight="bold" font-size="12.00" fill="#000000">Substitution group nc:Document</text>
</a>
</g>
<g id="a_node2_4"><a xlink:href="../../it/AdditionalDocument/#diagram" xlink:title="An applied augmentation for type nc:DocumentType." target="_top">
<polygon fill="#ebebeb" stroke="transparent" points="640,-20 640,-35 920,-35 920,-20 640,-20"/>
<text text-anchor="start" x="641" y="-24.4" font-family="Helvetica,sans-Serif" font-size="12.00" fill="#000000">it:AdditionalDocument: it:AdditionalDocumentType</text>
</a>
</g>
<g id="a_node2_5"><a xlink:href="../../it/AdditionalInformation/#diagram" xlink:title="An applied augmentation for type nc:DocumentType." target="_top">
<text text-anchor="start" x="641" y="-9.4" font-family="Helvetica,sans-Serif" font-size="12.00" fill="#000000">it:AdditionalInformation: it:AdditionalInformationType</text>
</a>
</g>
<polygon fill="#000000" stroke="#000000" points="639,-35 639,-35 921,-35 921,-35 639,-35"/>
<polygon fill="none" stroke="#000000" points="639,-4.5 639,-51.5 921,-51.5 921,-4.5 639,-4.5"/>
</g>
<!-- j:DocumentJudicialOfficialAssociationType&#45;&gt;subst_d11e11939 -->
<g id="edge1" class="edge">
<title>j:DocumentJudicialOfficialAssociationType:e&#45;&gt;subst_d11e11939:w</title>
<path fill="none" stroke="#000000" d="M607.1119,-43C618.6435,-43 624.7708,-43 640,-43"/>
<polygon fill="#000000" stroke="#000000" points="607,-39.5001 597,-43 607,-46.5001 607,-39.5001"/>
</g>
<!-- Properties -->
<g id="node3" class="node">
<title>Properties</title>
<text text-anchor="start" x="2.5" y="-55.4" font-family="Helvetica,sans-Serif" font-weight="bold" font-size="12.00" fill="#000000">Properties</text>
<g id="a_node3_6"><a xlink:href="../../j/DocumentJudicialOfficialAssociation/#diagram" xlink:title="An association between a document and a judicial official." target="_top">
<polygon fill="#ebebeb" stroke="transparent" points="1.5,-35 1.5,-50 202.5,-50 202.5,-35 1.5,-35"/>
<text text-anchor="start" x="2.5" y="-39.4" font-family="Helvetica,sans-Serif" font-size="12.00" fill="#000000">j:DocumentJudicialOfficialAssociation</text>
</a>
</g>
<polygon fill="#000000" stroke="#000000" points=".5,-50 .5,-50 203.5,-50 203.5,-50 .5,-50"/>
<polygon fill="none" stroke="#000000" points="0,-34 0,-66 203,-66 203,-34 0,-34"/>
</g>
<!-- Properties&#45;&gt;j:DocumentJudicialOfficialAssociationType -->
<g id="edge2" class="edge">
<title>Properties:top&#45;&gt;j:DocumentJudicialOfficialAssociationType:top</title>
<path fill="none" stroke="#000000" d="M202.5,-58C227.4714,-58 236.1284,-58 256.8937,-58"/>
<polygon fill="#000000" stroke="#000000" points="257,-61.5001 267,-58 257,-54.5001 257,-61.5001"/>
<text text-anchor="middle" x="232.5" y="-61.4" font-family="Helvetica,sans-Serif" font-size="12.00" fill="#000000">type</text>
</g>
<!-- nc:AssociationType -->
<g id="node4" class="node">
<title>nc:AssociationType</title>
<g id="a_node4_7"><a xlink:href="../../nc/AssociationType/#diagram" xlink:title="A data type for an association, connection, relationship, or involvement somehow linking people, things, and/or activities together." target="_top">
<text text-anchor="start" x="380" y="-110.4" font-family="Helvetica,sans-Serif" font-size="12.00" fill="#000000">nc:AssociationType</text>
</a>
</g>
<polygon fill="none" stroke="#000000" points="377.5,-105.5 377.5,-122.5 486.5,-122.5 486.5,-105.5 377.5,-105.5"/>
</g>
<!-- nc:AssociationType&#45;&gt;j:DocumentJudicialOfficialAssociationType -->
<g id="edge3" class="edge">
<title>nc:AssociationType&#45;&gt;j:DocumentJudicialOfficialAssociationType</title>
<path fill="none" stroke="#000000" d="M432,-105.4117C432,-99.1025 432,-89.9911 432,-80.4049"/>
<polygon fill="#000000" stroke="#000000" points="435.5001,-80.3408 432,-70.3408 428.5001,-80.3409 435.5001,-80.3408"/>
<text text-anchor="middle" x="422.5" y="-84.65" font-family="Helvetica,sans-Serif" font-size="12.00" fill="#000000">extension</text>
</g>
<!-- structures:AssociationType -->
<g id="node5" class="node">
<title>structures:AssociationType</title>
<g id="a_node5_8"><a xlink:href="../../structures/AssociationType/#diagram" xlink:title="A data type for a relationship between two or more objects, including any properties of that relationship." target="_top">
<text text-anchor="start" x="360" y="-163.4" font-family="Helvetica,sans-Serif" font-size="12.00" fill="#000000">structures:AssociationType</text>
</a>
</g>
<polygon fill="none" stroke="#000000" points="357.5,-158.5 357.5,-175.5 506.5,-175.5 506.5,-158.5 357.5,-158.5"/>
</g>
<!-- structures:AssociationType&#45;&gt;nc:AssociationType -->
<g id="edge4" class="edge">
<title>structures:AssociationType&#45;&gt;nc:AssociationType</title>
<path fill="none" stroke="#000000" d="M432,-158.411C432,-151.5124 432,-141.5696 432,-132.84"/>
<polygon fill="#000000" stroke="#000000" points="435.5001,-132.7518 432,-122.7519 428.5001,-132.7519 435.5001,-132.7518"/>
<text text-anchor="middle" x="422.5" y="-137.4" font-family="Helvetica,sans-Serif" font-size="12.00" fill="#000000">extension</text>
</g>
</g>
</svg>
