<?xml version="1.0" encoding="UTF-8" standalone="no"?>
<!DOCTYPE svg PUBLIC "-//W3C//DTD SVG 1.1//EN"
 "http://www.w3.org/Graphics/SVG/1.1/DTD/svg11.dtd">
<!-- Generated by graphviz version 2.40.1 (20161225.0304)
 -->
<!-- Title: graphic Pages: 1 -->
<svg width="579pt" height="312pt"
 viewBox="0.00 0.00 579.00 312.00" xmlns="http://www.w3.org/2000/svg" xmlns:xlink="http://www.w3.org/1999/xlink">
<g id="graph0" class="graph" transform="scale(1 1) rotate(0) translate(4 308)">
<title>graphic</title>
<polygon fill="#ffffff" stroke="transparent" points="-4,4 -4,-308 575,-308 575,4 -4,4"/>
<!-- j:ConditionalReleaseType -->
<g id="node1" class="node">
<title>j:ConditionalReleaseType</title>
<text text-anchor="start" x="242.5" y="-129.9" font-family="Helvetica,sans-Serif" font-weight="bold" font-size="12.00" fill="#000000">j:ConditionalReleaseType</text>
<g id="a_node1_0"><a xlink:href="../../j/ConditionalReleaseCondition/#diagram" xlink:title="A requirement or prerequisite for release. A restriction, modification, or qualification of a term or terms of release. (Ex. no contact with victim; do not leave jurisdiction of court, etc.)" target="_top">
<polygon fill="#ebebeb" stroke="transparent" points="241.5,-109.5 241.5,-124.5 566.5,-124.5 566.5,-109.5 241.5,-109.5"/>
<text text-anchor="start" x="242.5" y="-113.9" font-family="Helvetica,sans-Serif" font-size="12.00" fill="#000000">j:ConditionalReleaseCondition: nc:ConditionType [0&#45;n]</text>
</a>
</g>
<g id="a_node1_1"><a xlink:href="../../j/ConditionalReleaseExpirationDate/#diagram" xlink:title="A date of the Subject&#39;s Probation Expiration" target="_top">
<text text-anchor="start" x="242.5" y="-98.9" font-family="Helvetica,sans-Serif" font-size="12.00" fill="#000000">j:ConditionalReleaseExpirationDate: nc:DateType [0&#45;n]</text>
</a>
</g>
<g id="a_node1_2"><a xlink:href="../../j/ConditionalReleaseOppositionText/#diagram" xlink:title="A reason against releasing a person." target="_top">
<polygon fill="#ebebeb" stroke="transparent" points="241.5,-79.5 241.5,-94.5 566.5,-94.5 566.5,-79.5 241.5,-79.5"/>
<text text-anchor="start" x="242.5" y="-83.9" font-family="Helvetica,sans-Serif" font-size="12.00" fill="#000000">j:ConditionalReleaseOppositionText: nc:TextType [0&#45;n]</text>
</a>
</g>
<g id="a_node1_3"><a xlink:href="../../j/ConditionalReleaseProjectedDate/#diagram" xlink:title="An expected date of conditional release. This date may change over time." target="_top">
<text text-anchor="start" x="242.5" y="-68.9" font-family="Helvetica,sans-Serif" font-size="12.00" fill="#000000">j:ConditionalReleaseProjectedDate: nc:DateType [0&#45;n]</text>
</a>
</g>
<g id="a_node1_4"><a xlink:href="../../j/ConditionalReleaseRevokedDate/#diagram" xlink:title="A date a conditional release was revoked due to a person&#39;s failure in meeting required conditions or for other reasons." target="_top">
<polygon fill="#ebebeb" stroke="transparent" points="241.5,-49.5 241.5,-64.5 566.5,-64.5 566.5,-49.5 241.5,-49.5"/>
<text text-anchor="start" x="242.5" y="-53.9" font-family="Helvetica,sans-Serif" font-size="12.00" fill="#000000">j:ConditionalReleaseRevokedDate: nc:DateType [0&#45;n]</text>
</a>
</g>
<g id="a_node1_5"><a xlink:href="../../j/ConditionalReleaseRevokedReasonText/#diagram" xlink:title="A reason why a conditional release was revoked." target="_top">
<text text-anchor="start" x="242.5" y="-38.9" font-family="Helvetica,sans-Serif" font-size="12.00" fill="#000000">j:ConditionalReleaseRevokedReasonText: nc:TextType [0&#45;n]</text>
</a>
</g>
<g id="a_node1_6"><a xlink:href="../../j/ConditionalReleaseSupportText/#diagram" xlink:title="A reason in support of releasing a person." target="_top">
<polygon fill="#ebebeb" stroke="transparent" points="241.5,-19.5 241.5,-34.5 566.5,-34.5 566.5,-19.5 241.5,-19.5"/>
<text text-anchor="start" x="242.5" y="-23.9" font-family="Helvetica,sans-Serif" font-size="12.00" fill="#000000">j:ConditionalReleaseSupportText: nc:TextType [0&#45;n]</text>
</a>
</g>
<g id="a_node1_7"><a xlink:href="../../j/ConditionalReleaseAugmentationPoint/#diagram" xlink:title="An augmentation point for ConditionalReleaseType." target="_top">
<text text-anchor="start" x="242.5" y="-8.9" font-family="Helvetica,sans-Serif" font-size="12.00" fill="#000000">j:ConditionalReleaseAugmentationPoint [0&#45;n]</text>
</a>
</g>
<polygon fill="#ff0000" stroke="#ff0000" points="236.5,-124.5 236.5,-124.5 571.5,-124.5 571.5,-124.5 236.5,-124.5"/>
<polygon fill="none" stroke="#ff0000" stroke-width="5" points="238.5,-2.5 238.5,-142.5 568.5,-142.5 568.5,-2.5 238.5,-2.5"/>
</g>
<!-- Properties -->
<g id="node2" class="node">
<title>Properties</title>
<text text-anchor="start" x="2.5" y="-129.9" font-family="Helvetica,sans-Serif" font-weight="bold" font-size="12.00" fill="#000000">Properties</text>
<g id="a_node2_8"><a xlink:href="../../j/ConditionalRelease/#diagram" xlink:title="A release of a person or item from confinement, holding, or obligation, that is dependent upon certain conditions being met." target="_top">
<polygon fill="#ebebeb" stroke="transparent" points="1.5,-109.5 1.5,-124.5 176.5,-124.5 176.5,-109.5 1.5,-109.5"/>
<text text-anchor="start" x="2.5" y="-113.9" font-family="Helvetica,sans-Serif" font-size="12.00" fill="#000000">j:ConditionalRelease</text>
</a>
</g>
<g id="a_node2_9"><a xlink:href="../../j/SupervisionConditionalRelease/#diagram" xlink:title="A provisional release of a subject that requires defined conditions to be met to prevent the supervision from being reinstated." target="_top">
<text text-anchor="start" x="2.5" y="-98.9" font-family="Helvetica,sans-Serif" font-size="12.00" fill="#000000">j:SupervisionConditionalRelease</text>
</a>
</g>
<polygon fill="#000000" stroke="#000000" points=".5,-124.5 .5,-124.5 177.5,-124.5 177.5,-124.5 .5,-124.5"/>
<polygon fill="none" stroke="#000000" points="0,-94 0,-141 177,-141 177,-94 0,-94"/>
</g>
<!-- Properties&#45;&gt;j:ConditionalReleaseType -->
<g id="edge1" class="edge">
<title>Properties:top&#45;&gt;j:ConditionalReleaseType:top</title>
<path fill="none" stroke="#000000" d="M176.5,-132.5C201.6649,-132.5 210.3891,-132.5 231.3154,-132.5"/>
<polygon fill="#000000" stroke="#000000" points="231.5,-136.0001 241.5,-132.5 231.5,-129.0001 231.5,-136.0001"/>
<text text-anchor="middle" x="206.5" y="-135.9" font-family="Helvetica,sans-Serif" font-size="12.00" fill="#000000">type</text>
</g>
<!-- nc:ReleaseType -->
<g id="node3" class="node">
<title>nc:ReleaseType</title>
<g id="a_node3_10"><a xlink:href="../../nc/ReleaseType/#diagram" xlink:title="A data type for a freeing or discharging of someone or something from an activity, supervision, or obligation." target="_top">
<text text-anchor="start" x="360.5" y="-185.9" font-family="Helvetica,sans-Serif" font-size="12.00" fill="#000000">nc:ReleaseType</text>
</a>
</g>
<polygon fill="none" stroke="#000000" points="358,-181 358,-198 449,-198 449,-181 358,-181"/>
</g>
<!-- nc:ReleaseType&#45;&gt;j:ConditionalReleaseType -->
<g id="edge2" class="edge">
<title>nc:ReleaseType&#45;&gt;j:ConditionalReleaseType</title>
<path fill="none" stroke="#000000" d="M403.5,-180.8462C403.5,-174.6576 403.5,-165.636 403.5,-155.4002"/>
<polygon fill="#000000" stroke="#000000" points="407.0001,-155.2673 403.5,-145.2673 400.0001,-155.2674 407.0001,-155.2673"/>
<text text-anchor="middle" x="394" y="-159.9" font-family="Helvetica,sans-Serif" font-size="12.00" fill="#000000">extension</text>
</g>
<!-- nc:ActivityType -->
<g id="node4" class="node">
<title>nc:ActivityType</title>
<g id="a_node4_11"><a xlink:href="../../nc/ActivityType/#diagram" xlink:title="A data type for a single or set of related actions, events, or process steps." target="_top">
<text text-anchor="start" x="363.5" y="-238.9" font-family="Helvetica,sans-Serif" font-size="12.00" fill="#000000">nc:ActivityType</text>
</a>
</g>
<polygon fill="none" stroke="#000000" points="361,-234 361,-251 446,-251 446,-234 361,-234"/>
</g>
<!-- nc:ActivityType&#45;&gt;nc:ReleaseType -->
<g id="edge3" class="edge">
<title>nc:ActivityType&#45;&gt;nc:ReleaseType</title>
<path fill="none" stroke="#000000" d="M403.5,-233.911C403.5,-227.0124 403.5,-217.0696 403.5,-208.34"/>
<polygon fill="#000000" stroke="#000000" points="407.0001,-208.2518 403.5,-198.2519 400.0001,-208.2519 407.0001,-208.2518"/>
<text text-anchor="middle" x="394" y="-212.9" font-family="Helvetica,sans-Serif" font-size="12.00" fill="#000000">extension</text>
</g>
<!-- structures:ObjectType -->
<g id="node5" class="node">
<title>structures:ObjectType</title>
<g id="a_node5_12"><a xlink:href="../../structures/ObjectType/#diagram" xlink:title="A data type for a thing with its own lifespan that has some existence." target="_top">
<text text-anchor="start" x="344.5" y="-291.9" font-family="Helvetica,sans-Serif" font-size="12.00" fill="#000000">structures:ObjectType</text>
</a>
</g>
<polygon fill="none" stroke="#000000" points="342.5,-287 342.5,-304 464.5,-304 464.5,-287 342.5,-287"/>
</g>
<!-- structures:ObjectType&#45;&gt;nc:ActivityType -->
<g id="edge4" class="edge">
<title>structures:ObjectType&#45;&gt;nc:ActivityType</title>
<path fill="none" stroke="#000000" d="M403.5,-286.911C403.5,-280.0124 403.5,-270.0696 403.5,-261.34"/>
<polygon fill="#000000" stroke="#000000" points="407.0001,-261.2518 403.5,-251.2519 400.0001,-261.2519 407.0001,-261.2518"/>
<text text-anchor="middle" x="394" y="-265.9" font-family="Helvetica,sans-Serif" font-size="12.00" fill="#000000">extension</text>
</g>
</g>
</svg>
