<?xml version="1.0" encoding="UTF-8" standalone="no"?>
<!DOCTYPE svg PUBLIC "-//W3C//DTD SVG 1.1//EN"
 "http://www.w3.org/Graphics/SVG/1.1/DTD/svg11.dtd">
<!-- Generated by graphviz version 2.40.1 (20161225.0304)
 -->
<!-- Title: graphic Pages: 1 -->
<svg width="731pt" height="45pt"
 viewBox="0.00 0.00 731.00 45.00" xmlns="http://www.w3.org/2000/svg" xmlns:xlink="http://www.w3.org/1999/xlink">
<g id="graph0" class="graph" transform="scale(1 1) rotate(0) translate(4 41)">
<title>graphic</title>
<polygon fill="#ffffff" stroke="transparent" points="-4,4 -4,-41 727,-41 727,4 -4,4"/>
<!-- j:DisciplinaryHearingDispositionPrivilegeLossEndDate -->
<g id="node1" class="node">
<title>j:DisciplinaryHearingDispositionPrivilegeLossEndDate</title>
<text text-anchor="start" x="272.5" y="-21.4" font-family="Helvetica,sans-Serif" font-weight="bold" font-size="12.00" fill="#000000">j:DisciplinaryHearingDispositionPrivilegeLossEndDate</text>
<polygon fill="none" stroke="#ff0000" stroke-width="5" points="268.5,-14 268.5,-34 588.5,-34 588.5,-14 268.5,-14"/>
</g>
<!-- nc:DateType -->
<g id="node3" class="node">
<title>nc:DateType</title>
<g id="a_node3_0"><a xlink:href="../../nc/DateType/#diagram" xlink:title="A data type for a calendar date." target="_top">
<text text-anchor="start" x="652.5" y="-20.4" font-family="Helvetica,sans-Serif" font-size="12.00" fill="#000000">nc:DateType</text>
</a>
</g>
<polygon fill="none" stroke="#000000" points="650,-15.5 650,-32.5 723,-32.5 723,-15.5 650,-15.5"/>
</g>
<!-- j:DisciplinaryHearingDispositionPrivilegeLossEndDate&#45;&gt;nc:DateType -->
<g id="edge2" class="edge">
<title>j:DisciplinaryHearingDispositionPrivilegeLossEndDate&#45;&gt;nc:DateType</title>
<path fill="none" stroke="#000000" d="M591.1633,-24C608.815,-24 625.5625,-24 639.9532,-24"/>
<polygon fill="#000000" stroke="#000000" points="639.9947,-27.5001 649.9947,-24 639.9946,-20.5001 639.9947,-27.5001"/>
<text text-anchor="middle" x="620.5" y="-27.4" font-family="Helvetica,sans-Serif" font-size="12.00" fill="#000000">type</text>
</g>
<!-- Types -->
<g id="node2" class="node">
<title>Types</title>
<text text-anchor="start" x="2.5" y="-21.4" font-family="Helvetica,sans-Serif" font-weight="bold" font-size="12.00" fill="#000000">Types</text>
<g id="a_node2_1"><a xlink:href="../../j/DisciplinaryHearingDispositionType/#diagram" xlink:title="A data type for a outcome of a disciplinary hearing." target="_top">
<polygon fill="#ebebeb" stroke="transparent" points="1.5,-1 1.5,-16 198.5,-16 198.5,-1 1.5,-1"/>
<text text-anchor="start" x="2.5" y="-5.4" font-family="Helvetica,sans-Serif" font-size="12.00" fill="#000000">j:DisciplinaryHearingDispositionType</text>
</a>
</g>
<polygon fill="#000000" stroke="#000000" points=".5,-16 .5,-16 199.5,-16 199.5,-16 .5,-16"/>
<polygon fill="none" stroke="#000000" points="0,0 0,-32 199,-32 199,0 0,0"/>
</g>
<!-- Types&#45;&gt;j:DisciplinaryHearingDispositionPrivilegeLossEndDate -->
<g id="edge1" class="edge">
<title>Types:top&#45;&gt;j:DisciplinaryHearingDispositionPrivilegeLossEndDate</title>
<path fill="none" stroke="#000000" d="M198.5,-24C217.0318,-24 236.4036,-24 255.7016,-24"/>
<polygon fill="#000000" stroke="#000000" points="255.7817,-27.5001 265.7817,-24 255.7817,-20.5001 255.7817,-27.5001"/>
<text text-anchor="middle" x="232.5" y="-27.4" font-family="Helvetica,sans-Serif" font-size="12.00" fill="#000000">has&#45;a</text>
</g>
</g>
</svg>
