<?xml version="1.0" encoding="UTF-8" standalone="no"?>
<!DOCTYPE svg PUBLIC "-//W3C//DTD SVG 1.1//EN"
 "http://www.w3.org/Graphics/SVG/1.1/DTD/svg11.dtd">
<!-- Generated by graphviz version 2.40.1 (20161225.0304)
 -->
<!-- Title: graphic Pages: 1 -->
<svg width="469pt" height="45pt"
 viewBox="0.00 0.00 469.00 45.00" xmlns="http://www.w3.org/2000/svg" xmlns:xlink="http://www.w3.org/1999/xlink">
<g id="graph0" class="graph" transform="scale(1 1) rotate(0) translate(4 41)">
<title>graphic</title>
<polygon fill="#ffffff" stroke="transparent" points="-4,4 -4,-41 465,-41 465,4 -4,4"/>
<!-- j:EvaluationDescriptionText -->
<g id="node1" class="node">
<title>j:EvaluationDescriptionText</title>
<text text-anchor="start" x="166.5" y="-21.4" font-family="Helvetica,sans-Serif" font-weight="bold" font-size="12.00" fill="#000000">j:EvaluationDescriptionText</text>
<polygon fill="none" stroke="#ff0000" stroke-width="5" points="162.5,-14 162.5,-34 328.5,-34 328.5,-14 162.5,-14"/>
</g>
<!-- nc:TextType -->
<g id="node3" class="node">
<title>nc:TextType</title>
<g id="a_node3_0"><a xlink:href="../../nc/TextType/#diagram" xlink:title="A data type for a character string." target="_top">
<text text-anchor="start" x="392.5" y="-20.4" font-family="Helvetica,sans-Serif" font-size="12.00" fill="#000000">nc:TextType</text>
</a>
</g>
<polygon fill="none" stroke="#000000" points="390,-15.5 390,-32.5 461,-32.5 461,-15.5 390,-15.5"/>
</g>
<!-- j:EvaluationDescriptionText&#45;&gt;nc:TextType -->
<g id="edge2" class="edge">
<title>j:EvaluationDescriptionText&#45;&gt;nc:TextType</title>
<path fill="none" stroke="#000000" d="M331.0192,-24C347.6614,-24 364.5085,-24 379.2766,-24"/>
<polygon fill="#000000" stroke="#000000" points="379.63,-27.5001 389.63,-24 379.6299,-20.5001 379.63,-27.5001"/>
<text text-anchor="middle" x="360.5" y="-27.4" font-family="Helvetica,sans-Serif" font-size="12.00" fill="#000000">type</text>
</g>
<!-- Types -->
<g id="node2" class="node">
<title>Types</title>
<text text-anchor="start" x="2.5" y="-21.4" font-family="Helvetica,sans-Serif" font-weight="bold" font-size="12.00" fill="#000000">Types</text>
<g id="a_node2_1"><a xlink:href="../../j/EvaluationType/#diagram" xlink:title="A data type for an activity resulting in a mental and/or physical diagnosis" target="_top">
<polygon fill="#ebebeb" stroke="transparent" points="1.5,-1 1.5,-16 92.5,-16 92.5,-1 1.5,-1"/>
<text text-anchor="start" x="2.5" y="-5.4" font-family="Helvetica,sans-Serif" font-size="12.00" fill="#000000">j:EvaluationType</text>
</a>
</g>
<polygon fill="#000000" stroke="#000000" points=".5,-16 .5,-16 93.5,-16 93.5,-16 .5,-16"/>
<polygon fill="none" stroke="#000000" points="0,0 0,-32 93,-32 93,0 0,0"/>
</g>
<!-- Types&#45;&gt;j:EvaluationDescriptionText -->
<g id="edge1" class="edge">
<title>Types:top&#45;&gt;j:EvaluationDescriptionText</title>
<path fill="none" stroke="#000000" d="M92.5,-24C110.963,-24 130.6793,-24 149.6071,-24"/>
<polygon fill="#000000" stroke="#000000" points="149.7243,-27.5001 159.7242,-24 149.7242,-20.5001 149.7243,-27.5001"/>
<text text-anchor="middle" x="126.5" y="-27.4" font-family="Helvetica,sans-Serif" font-size="12.00" fill="#000000">has&#45;a</text>
</g>
</g>
</svg>
