<?xml version="1.0" encoding="UTF-8" standalone="no"?>
<!DOCTYPE svg PUBLIC "-//W3C//DTD SVG 1.1//EN"
 "http://www.w3.org/Graphics/SVG/1.1/DTD/svg11.dtd">
<!-- Generated by graphviz version 2.40.1 (20161225.0304)
 -->
<!-- Title: graphic Pages: 1 -->
<svg width="384pt" height="101pt"
 viewBox="0.00 0.00 384.00 101.00" xmlns="http://www.w3.org/2000/svg" xmlns:xlink="http://www.w3.org/1999/xlink">
<g id="graph0" class="graph" transform="scale(1 1) rotate(0) translate(4 97)">
<title>graphic</title>
<polygon fill="#ffffff" stroke="transparent" points="-4,4 -4,-97 380,-97 380,4 -4,4"/>
<!-- nc:VehicleColorInteriorAbstract -->
<g id="node1" class="node">
<title>nc:VehicleColorInteriorAbstract</title>
<text text-anchor="start" x="174" y="-77.4" font-family="Helvetica,sans-Serif" font-weight="bold" font-size="12.00" fill="#000000">nc:VehicleColorInteriorAbstract</text>
<polygon fill="none" stroke="#ff0000" stroke-width="5" points="170.5,-70 170.5,-90 359.5,-90 359.5,-70 170.5,-70"/>
</g>
<!-- SubstitutableElements -->
<g id="node3" class="node">
<title>SubstitutableElements</title>
<text text-anchor="start" x="156" y="-21.4" font-family="Helvetica,sans-Serif" font-weight="bold" font-size="12.00" fill="#000000">Substitutable elements</text>
<g id="a_node3_0"><a xlink:href="../../nc/VehicleColorInteriorText/#diagram" xlink:title="A color of the interior of a vehicle." target="_top">
<polygon fill="#ebebeb" stroke="transparent" points="155,-1 155,-16 375,-16 375,-1 155,-1"/>
<text text-anchor="start" x="156" y="-5.4" font-family="Helvetica,sans-Serif" font-size="12.00" fill="#000000">nc:VehicleColorInteriorText: nc:TextType</text>
</a>
</g>
<polygon fill="#000000" stroke="#000000" points="154,-16 154,-16 376,-16 376,-16 154,-16"/>
<polygon fill="none" stroke="#000000" points="154,0 154,-32 376,-32 376,0 154,0"/>
</g>
<!-- nc:VehicleColorInteriorAbstract&#45;&gt;SubstitutableElements -->
<g id="edge2" class="edge">
<title>nc:VehicleColorInteriorAbstract&#45;&gt;SubstitutableElements</title>
<path fill="none" stroke="#000000" d="M265,-57.3063C265,-48.9972 265,-39.7712 265,-32.1499"/>
<polygon fill="#000000" stroke="#000000" points="261.5001,-57.4892 265,-67.4892 268.5001,-57.4892 261.5001,-57.4892"/>
<text text-anchor="middle" x="255.5" y="-46.65" font-family="Helvetica,sans-Serif" font-size="12.00" fill="#000000">substitutable for</text>
</g>
<!-- Types -->
<g id="node2" class="node">
<title>Types</title>
<text text-anchor="start" x="2.5" y="-77.4" font-family="Helvetica,sans-Serif" font-weight="bold" font-size="12.00" fill="#000000">Types</text>
<g id="a_node2_1"><a xlink:href="../../nc/VehicleType/#diagram" xlink:title="A data type for a conveyance designed to carry an operator, passengers and/or cargo, over land." target="_top">
<polygon fill="#ebebeb" stroke="transparent" points="1.5,-57 1.5,-72 86.5,-72 86.5,-57 1.5,-57"/>
<text text-anchor="start" x="2.5" y="-61.4" font-family="Helvetica,sans-Serif" font-size="12.00" fill="#000000">nc:VehicleType</text>
</a>
</g>
<polygon fill="#000000" stroke="#000000" points=".5,-72 .5,-72 87.5,-72 87.5,-72 .5,-72"/>
<polygon fill="none" stroke="#000000" points="0,-56 0,-88 87,-88 87,-56 0,-56"/>
</g>
<!-- Types&#45;&gt;nc:VehicleColorInteriorAbstract -->
<g id="edge1" class="edge">
<title>Types:top&#45;&gt;nc:VehicleColorInteriorAbstract</title>
<path fill="none" stroke="#000000" d="M86.5,-80C109.4456,-80 134.0504,-80 157.435,-80"/>
<polygon fill="#000000" stroke="#000000" points="157.7271,-83.5001 167.727,-80 157.727,-76.5001 157.7271,-83.5001"/>
<text text-anchor="middle" x="120.5" y="-83.4" font-family="Helvetica,sans-Serif" font-size="12.00" fill="#000000">has&#45;a</text>
</g>
</g>
</svg>
