<?xml version="1.0" encoding="UTF-8" standalone="no"?>
<!DOCTYPE svg PUBLIC "-//W3C//DTD SVG 1.1//EN"
 "http://www.w3.org/Graphics/SVG/1.1/DTD/svg11.dtd">
<!-- Generated by graphviz version 2.40.1 (20161225.0304)
 -->
<!-- Title: graphic Pages: 1 -->
<svg width="482pt" height="164pt"
 viewBox="0.00 0.00 482.00 164.00" xmlns="http://www.w3.org/2000/svg" xmlns:xlink="http://www.w3.org/1999/xlink">
<g id="graph0" class="graph" transform="scale(1 1) rotate(0) translate(4 160)">
<title>graphic</title>
<polygon fill="#ffffff" stroke="transparent" points="-4,4 -4,-160 478,-160 478,4 -4,4"/>
<!-- scr:AlertCategoryCodeType -->
<g id="node1" class="node">
<title>scr:AlertCategoryCodeType</title>
<text text-anchor="start" x="262" y="-35.9" font-family="Helvetica,sans-Serif" font-weight="bold" font-size="12.00" fill="#000000">scr:AlertCategoryCodeType</text>
<g id="a_node1_0"><a xlink:href="../../structures/SimpleObjectAttributeGroup/#diagram" xlink:title="A group of attributes that are applicable to objects, to be used when defining a complex type that is an extension of a simple type." target="_top">
<polygon fill="#ebebeb" stroke="transparent" points="261,-15.5 261,-30.5 469,-30.5 469,-15.5 261,-15.5"/>
<text text-anchor="start" x="262" y="-19.9" font-family="Helvetica,sans-Serif" font-size="12.00" fill="#000000">structures:SimpleObjectAttributeGroup</text>
</a>
</g>
<polygon fill="#ff0000" stroke="#ff0000" points="256,-30.5 256,-30.5 474,-30.5 474,-30.5 256,-30.5"/>
<polygon fill="none" stroke="#ff0000" stroke-width="5" points="258.5,-13 258.5,-48 471.5,-48 471.5,-13 258.5,-13"/>
</g>
<!-- Properties -->
<g id="node2" class="node">
<title>Properties</title>
<text text-anchor="start" x="2.5" y="-35.9" font-family="Helvetica,sans-Serif" font-weight="bold" font-size="12.00" fill="#000000">Properties</text>
<g id="a_node2_1"><a xlink:href="../../scr/AlertCategoryClassificationCode/#diagram" xlink:title="A kind of alert Category" target="_top">
<polygon fill="#ebebeb" stroke="transparent" points="1.5,-15.5 1.5,-30.5 196.5,-30.5 196.5,-15.5 1.5,-15.5"/>
<text text-anchor="start" x="2.5" y="-19.9" font-family="Helvetica,sans-Serif" font-size="12.00" fill="#000000">scr:AlertCategoryClassificationCode</text>
</a>
</g>
<g id="a_node2_2"><a xlink:href="../../scr/ScreeningAlertCategoryCode/#diagram" xlink:title="A kind of Screening Alert category" target="_top">
<text text-anchor="start" x="2.5" y="-4.9" font-family="Helvetica,sans-Serif" font-size="12.00" fill="#000000">scr:ScreeningAlertCategoryCode</text>
</a>
</g>
<polygon fill="#000000" stroke="#000000" points=".5,-30.5 .5,-30.5 197.5,-30.5 197.5,-30.5 .5,-30.5"/>
<polygon fill="none" stroke="#000000" points="0,0 0,-47 197,-47 197,0 0,0"/>
</g>
<!-- Properties&#45;&gt;scr:AlertCategoryCodeType -->
<g id="edge1" class="edge">
<title>Properties:top&#45;&gt;scr:AlertCategoryCodeType:top</title>
<path fill="none" stroke="#000000" d="M196.5,-38.5C221.4714,-38.5 230.1284,-38.5 250.8937,-38.5"/>
<polygon fill="#000000" stroke="#000000" points="251,-42.0001 261,-38.5 251,-35.0001 251,-42.0001"/>
<text text-anchor="middle" x="226.5" y="-41.9" font-family="Helvetica,sans-Serif" font-size="12.00" fill="#000000">type</text>
</g>
<!-- scr:AlertCategoryCodeSimpleType -->
<g id="node3" class="node">
<title>scr:AlertCategoryCodeSimpleType</title>
<g id="a_node3_3"><a xlink:href="../../scr/AlertCategoryCodeSimpleType/#diagram" xlink:title="A data type for denoting the type of alert message." target="_top">
<text text-anchor="start" x="273" y="-90.9" font-family="Helvetica,sans-Serif" font-size="12.00" fill="#000000">scr:AlertCategoryCodeSimpleType</text>
</a>
</g>
<polygon fill="none" stroke="#000000" points="270.5,-86 270.5,-103 459.5,-103 459.5,-86 270.5,-86"/>
</g>
<!-- scr:AlertCategoryCodeSimpleType&#45;&gt;scr:AlertCategoryCodeType -->
<g id="edge2" class="edge">
<title>scr:AlertCategoryCodeSimpleType&#45;&gt;scr:AlertCategoryCodeType</title>
<path fill="none" stroke="#000000" d="M365,-85.9351C365,-79.431 365,-70.0678 365,-60.8827"/>
<polygon fill="#000000" stroke="#000000" points="368.5001,-60.75 365,-50.75 361.5001,-60.75 368.5001,-60.75"/>
<text text-anchor="middle" x="355.5" y="-65.15" font-family="Helvetica,sans-Serif" font-size="12.00" fill="#000000">extension</text>
</g>
<!-- xs:token -->
<g id="node4" class="node">
<title>xs:token</title>
<g id="a_node4_4"><a xlink:href="../../xs/token/#diagram" xlink:title="&lt;TABLE&gt;" target="_top">
<text text-anchor="start" x="343" y="-143.9" font-family="Helvetica,sans-Serif" font-size="12.00" fill="#000000">xs:token</text>
</a>
</g>
<polygon fill="none" stroke="#000000" points="340.5,-139 340.5,-156 389.5,-156 389.5,-139 340.5,-139"/>
</g>
<!-- xs:token&#45;&gt;scr:AlertCategoryCodeSimpleType -->
<g id="edge3" class="edge">
<title>xs:token&#45;&gt;scr:AlertCategoryCodeSimpleType</title>
<path fill="none" stroke="#000000" d="M365,-138.911C365,-132.0124 365,-122.0696 365,-113.34"/>
<polygon fill="#000000" stroke="#000000" points="368.5001,-113.2518 365,-103.2519 361.5001,-113.2519 368.5001,-113.2518"/>
<text text-anchor="middle" x="355.5" y="-117.9" font-family="Helvetica,sans-Serif" font-size="12.00" fill="#000000">restriction</text>
</g>
</g>
</svg>
