<?xml version="1.0" encoding="UTF-8" standalone="no"?>
<!DOCTYPE svg PUBLIC "-//W3C//DTD SVG 1.1//EN"
 "http://www.w3.org/Graphics/SVG/1.1/DTD/svg11.dtd">
<!-- Generated by graphviz version 2.40.1 (20161225.0304)
 -->
<!-- Title: graphic Pages: 1 -->
<svg width="529pt" height="86pt"
 viewBox="0.00 0.00 529.00 86.00" xmlns="http://www.w3.org/2000/svg" xmlns:xlink="http://www.w3.org/1999/xlink">
<g id="graph0" class="graph" transform="scale(1 1) rotate(0) translate(4 82)">
<title>graphic</title>
<polygon fill="#ffffff" stroke="transparent" points="-4,4 -4,-82 525,-82 525,4 -4,4"/>
<!-- j:OffenseFactorJustifiableHomicideCode -->
<g id="node1" class="node">
<title>j:OffenseFactorJustifiableHomicideCode</title>
<text text-anchor="start" x="6.5" y="-9.9" font-family="Helvetica,sans-Serif" font-weight="bold" font-size="12.00" fill="#000000">j:OffenseFactorJustifiableHomicideCode</text>
<polygon fill="none" stroke="#ff0000" stroke-width="5" points="2.5,-2.5 2.5,-22.5 242.5,-22.5 242.5,-2.5 2.5,-2.5"/>
</g>
<!-- ucr:JustifiableHomicideFactorCodeType -->
<g id="node3" class="node">
<title>ucr:JustifiableHomicideFactorCodeType</title>
<g id="a_node3_0"><a xlink:href="../../ucr/JustifiableHomicideFactorCodeType/#diagram" xlink:title="A data type for circumstances of a justifiable homicide." target="_top">
<text text-anchor="start" x="306.5" y="-8.9" font-family="Helvetica,sans-Serif" font-size="12.00" fill="#000000">ucr:JustifiableHomicideFactorCodeType</text>
</a>
</g>
<polygon fill="none" stroke="#000000" points="304,-4 304,-21 521,-21 521,-4 304,-4"/>
</g>
<!-- j:OffenseFactorJustifiableHomicideCode&#45;&gt;ucr:JustifiableHomicideFactorCodeType -->
<g id="edge2" class="edge">
<title>j:OffenseFactorJustifiableHomicideCode&#45;&gt;ucr:JustifiableHomicideFactorCodeType</title>
<path fill="none" stroke="#000000" d="M245.0658,-12.5C261.0436,-12.5 277.3939,-12.5 293.3151,-12.5"/>
<polygon fill="#000000" stroke="#000000" points="293.7074,-16.0001 303.7074,-12.5 293.7073,-9.0001 293.7074,-16.0001"/>
<text text-anchor="middle" x="274.5" y="-15.9" font-family="Helvetica,sans-Serif" font-size="12.00" fill="#000000">type</text>
</g>
<!-- SubstitutionGroup -->
<g id="node2" class="node">
<title>SubstitutionGroup</title>
<g id="a_node2_1"><a xlink:href="../../j/OffenseFactorDesignationAbstract/#diagram" xlink:title="A data concept for an offense factor designation." target="_top">
<text text-anchor="start" x="27.5" y="-65.9" font-family="Helvetica,sans-Serif" font-size="12.00" fill="#000000">j:OffenseFactorDesignationAbstract</text>
</a>
</g>
<polygon fill="none" stroke="#000000" points="25.5,-61 25.5,-78 219.5,-78 219.5,-61 25.5,-61"/>
</g>
<!-- SubstitutionGroup&#45;&gt;j:OffenseFactorJustifiableHomicideCode -->
<g id="edge1" class="edge">
<title>SubstitutionGroup&#45;&gt;j:OffenseFactorJustifiableHomicideCode</title>
<path fill="none" stroke="#000000" d="M122.5,-50.9163C122.5,-42.4809 122.5,-32.7214 122.5,-25.1501"/>
<polygon fill="#000000" stroke="#000000" points="119.0001,-50.9472 122.5,-60.9473 126.0001,-50.9473 119.0001,-50.9472"/>
<text text-anchor="middle" x="113" y="-39.9" font-family="Helvetica,sans-Serif" font-size="12.00" fill="#000000">substitution group</text>
</g>
</g>
</svg>
