<?xml version="1.0" encoding="UTF-8" standalone="no"?>
<!DOCTYPE svg PUBLIC "-//W3C//DTD SVG 1.1//EN"
 "http://www.w3.org/Graphics/SVG/1.1/DTD/svg11.dtd">
<!-- Generated by graphviz version 2.40.1 (20161225.0304)
 -->
<!-- Title: graphic Pages: 1 -->
<svg width="785pt" height="191pt"
 viewBox="0.00 0.00 785.00 190.50" xmlns="http://www.w3.org/2000/svg" xmlns:xlink="http://www.w3.org/1999/xlink">
<g id="graph0" class="graph" transform="scale(1 1) rotate(0) translate(4 186.5)">
<title>graphic</title>
<polygon fill="#ffffff" stroke="transparent" points="-4,4 -4,-186.5 781,-186.5 781,4 -4,4"/>
<!-- nc:OrientationType -->
<g id="node1" class="node">
<title>nc:OrientationType</title>
<text text-anchor="start" x="144.5" y="-114.4" font-family="Helvetica,sans-Serif" font-weight="bold" font-size="12.00" fill="#000000">nc:OrientationType</text>
<g id="a_node1_0"><a xlink:href="../../nc/AzimuthAbstract/#diagram" xlink:title="A data concept for an orientation of something with respect to True North." target="_top">
<polygon fill="#ebebeb" stroke="transparent" points="143.5,-94 143.5,-109 404.5,-109 404.5,-94 143.5,-94"/>
<text text-anchor="start" x="144.5" y="-98.4" font-family="Helvetica,sans-Serif" font-size="12.00" fill="#000000">nc:AzimuthAbstract [0&#45;n]</text>
</a>
</g>
<g id="a_node1_1"><a xlink:href="../../nc/InclinationAbstract/#diagram" xlink:title="A data concept for an orientation of an object with respect to the horizontal plane." target="_top">
<text text-anchor="start" x="144.5" y="-83.4" font-family="Helvetica,sans-Serif" font-size="12.00" fill="#000000">nc:InclinationAbstract [0&#45;n]</text>
</a>
</g>
<g id="a_node1_2"><a xlink:href="../../nc/RollValue/#diagram" xlink:title="An angle of rotation of a thing about its longitudinal axis, measured in degrees between the lateral axis and the horizontal plane; negative values indicate the left side is rotated downward." target="_top">
<polygon fill="#ebebeb" stroke="transparent" points="143.5,-64 143.5,-79 404.5,-79 404.5,-64 143.5,-64"/>
<text text-anchor="start" x="144.5" y="-68.4" font-family="Helvetica,sans-Serif" font-size="12.00" fill="#000000">nc:RollValue: nc:Degree180PlusMinusType [0&#45;n]</text>
</a>
</g>
<g id="a_node1_3"><a xlink:href="../../nc/OrientationAugmentationPoint/#diagram" xlink:title="An augmentation point for OrientationType" target="_top">
<text text-anchor="start" x="144.5" y="-53.4" font-family="Helvetica,sans-Serif" font-size="12.00" fill="#000000">nc:OrientationAugmentationPoint [0&#45;n]</text>
</a>
</g>
<polygon fill="#ff0000" stroke="#ff0000" points="138.5,-109 138.5,-109 409.5,-109 409.5,-109 138.5,-109"/>
<polygon fill="none" stroke="#ff0000" stroke-width="5" points="140.5,-47 140.5,-127 406.5,-127 406.5,-47 140.5,-47"/>
</g>
<!-- subst_d9e10004 -->
<g id="node2" class="node">
<title>subst_d9e10004</title>
<g id="a_node2_4"><a xlink:href="../../nc/AzimuthAbstract/#diagram" xlink:title="&lt;TABLE&gt;" target="_top">
<text text-anchor="start" x="495.5" y="-131.4" font-family="Helvetica,sans-Serif" font-weight="bold" font-size="12.00" fill="#000000">Substitution group nc:AzimuthAbstract</text>
</a>
</g>
<g id="a_node2_5"><a xlink:href="../../cbrn/Azimuth180Value/#diagram" xlink:title="An objects(i.e., instrument, detector, or item) orientation, with respect to True North. Its value is the angle subtended by a line from the center point of the object to True North in the horizontal plane and the line formed by the object&#39;s front&#45;to&#45;back axis projected onto the horizontal plane. The angle range is from &quot;&#45;180.0&quot; to &quot;+180.0&quot; degrees. A value of zero implies the front of the object&#39;s body is pointed to True North; positive values imply the front is pointed to the east of True North; negative values imply the front is pointed to the west of True North." target="_top">
<polygon fill="#ebebeb" stroke="transparent" points="494.5,-111 494.5,-126 728.5,-126 728.5,-111 494.5,-111"/>
<text text-anchor="start" x="495.5" y="-115.4" font-family="Helvetica,sans-Serif" font-size="12.00" fill="#000000">cbrn:Azimuth180Value: cbrn:Angle180Type</text>
</a>
</g>
<g id="a_node2_6"><a xlink:href="../../nc/Azimuth360Value/#diagram" xlink:title="An orientation of something with respect to True North." target="_top">
<text text-anchor="start" x="495.5" y="-100.4" font-family="Helvetica,sans-Serif" font-size="12.00" fill="#000000">nc:Azimuth360Value: nc:Degree360Type</text>
</a>
</g>
<g id="a_node2_7"><a xlink:href="../../nc/AzimuthDecimalValue/#diagram" xlink:title="An orientation of something with respect to True North." target="_top">
<polygon fill="#ebebeb" stroke="transparent" points="494.5,-81 494.5,-96 728.5,-96 728.5,-81 494.5,-81"/>
<text text-anchor="start" x="495.5" y="-85.4" font-family="Helvetica,sans-Serif" font-size="12.00" fill="#000000">nc:AzimuthDecimalValue: niem&#45;xs:decimal</text>
</a>
</g>
<polygon fill="#000000" stroke="#000000" points="493.5,-126 493.5,-126 729.5,-126 729.5,-126 493.5,-126"/>
<polygon fill="none" stroke="#000000" points="493.5,-80 493.5,-142 729.5,-142 729.5,-80 493.5,-80"/>
</g>
<!-- nc:OrientationType&#45;&gt;subst_d9e10004 -->
<g id="edge1" class="edge">
<title>nc:OrientationType:e&#45;&gt;subst_d9e10004:w</title>
<path fill="none" stroke="#000000" d="M414.6647,-102.6684C448.1046,-107.2637 455.6951,-134 494.5,-134"/>
<polygon fill="#000000" stroke="#000000" points="414.7081,-99.1638 404.5,-102 414.2488,-106.1487 414.7081,-99.1638"/>
</g>
<!-- subst_d9e14463 -->
<g id="node3" class="node">
<title>subst_d9e14463</title>
<g id="a_node3_8"><a xlink:href="../../nc/InclinationAbstract/#diagram" xlink:title="&lt;TABLE&gt;" target="_top">
<text text-anchor="start" x="448.5" y="-51.4" font-family="Helvetica,sans-Serif" font-weight="bold" font-size="12.00" fill="#000000">Substitution group nc:InclinationAbstract</text>
</a>
</g>
<g id="a_node3_9"><a xlink:href="../../nc/Inclination90PlusMinusValue/#diagram" xlink:title="An angle of rotation of a thing about its lateral axis, measured in degrees between the longitudinal axis and the horizontal plane; negative values indicate a downward rotation." target="_top">
<polygon fill="#ebebeb" stroke="transparent" points="447.5,-31 447.5,-46 776.5,-46 776.5,-31 447.5,-31"/>
<text text-anchor="start" x="448.5" y="-35.4" font-family="Helvetica,sans-Serif" font-size="12.00" fill="#000000">nc:Inclination90PlusMinusValue: nc:Degree90PlusMinusType</text>
</a>
</g>
<g id="a_node3_10"><a xlink:href="../../nc/Inclination90Value/#diagram" xlink:title="An orientation of an object with respect to the horizontal plane." target="_top">
<text text-anchor="start" x="448.5" y="-20.4" font-family="Helvetica,sans-Serif" font-size="12.00" fill="#000000">nc:Inclination90Value: nc:Degree90Type</text>
</a>
</g>
<g id="a_node3_11"><a xlink:href="../../nc/InclinationDecimalValue/#diagram" xlink:title="An orientation of an object with respect to the horizontal plane." target="_top">
<polygon fill="#ebebeb" stroke="transparent" points="447.5,-1 447.5,-16 776.5,-16 776.5,-1 447.5,-1"/>
<text text-anchor="start" x="448.5" y="-5.4" font-family="Helvetica,sans-Serif" font-size="12.00" fill="#000000">nc:InclinationDecimalValue: niem&#45;xs:decimal</text>
</a>
</g>
<polygon fill="#000000" stroke="#000000" points="446.5,-46 446.5,-46 777.5,-46 777.5,-46 446.5,-46"/>
<polygon fill="none" stroke="#000000" points="446,0 446,-62 777,-62 777,0 446,0"/>
</g>
<!-- nc:OrientationType&#45;&gt;subst_d9e14463 -->
<g id="edge2" class="edge">
<title>nc:OrientationType:e&#45;&gt;subst_d9e14463:w</title>
<path fill="none" stroke="#000000" d="M414.5496,-83.489C427.5667,-75.9453 427.7721,-54 447.5,-54"/>
<polygon fill="#000000" stroke="#000000" points="413.3533,-80.1803 404.5,-86 415.0502,-86.9715 413.3533,-80.1803"/>
</g>
<!-- Properties -->
<g id="node4" class="node">
<title>Properties</title>
<text text-anchor="start" x="2.5" y="-114.4" font-family="Helvetica,sans-Serif" font-weight="bold" font-size="12.00" fill="#000000">Properties</text>
<g id="a_node4_12"><a xlink:href="../../nc/Orientation/#diagram" xlink:title="A set of angles of rotation about the principle axes (normal, lateral, longitudinal) of a thing, relative to true north and the horizontal plane, measured in degrees." target="_top">
<polygon fill="#ebebeb" stroke="transparent" points="1.5,-94 1.5,-109 78.5,-109 78.5,-94 1.5,-94"/>
<text text-anchor="start" x="2.5" y="-98.4" font-family="Helvetica,sans-Serif" font-size="12.00" fill="#000000">nc:Orientation</text>
</a>
</g>
<polygon fill="#000000" stroke="#000000" points=".5,-109 .5,-109 79.5,-109 79.5,-109 .5,-109"/>
<polygon fill="none" stroke="#000000" points="0,-93 0,-125 79,-125 79,-93 0,-93"/>
</g>
<!-- Properties&#45;&gt;nc:OrientationType -->
<g id="edge3" class="edge">
<title>Properties:top&#45;&gt;nc:OrientationType:top</title>
<path fill="none" stroke="#000000" d="M78.5,-117C103.6649,-117 112.3891,-117 133.3154,-117"/>
<polygon fill="#000000" stroke="#000000" points="133.5,-120.5001 143.5,-117 133.5,-113.5001 133.5,-120.5001"/>
<text text-anchor="middle" x="108.5" y="-120.4" font-family="Helvetica,sans-Serif" font-size="12.00" fill="#000000">type</text>
</g>
<!-- structures:ObjectType -->
<g id="node5" class="node">
<title>structures:ObjectType</title>
<g id="a_node5_13"><a xlink:href="../../structures/ObjectType/#diagram" xlink:title="A data type for a thing with its own lifespan that has some existence." target="_top">
<text text-anchor="start" x="214.5" y="-170.4" font-family="Helvetica,sans-Serif" font-size="12.00" fill="#000000">structures:ObjectType</text>
</a>
</g>
<polygon fill="none" stroke="#000000" points="212.5,-165.5 212.5,-182.5 334.5,-182.5 334.5,-165.5 212.5,-165.5"/>
</g>
<!-- structures:ObjectType&#45;&gt;nc:OrientationType -->
<g id="edge4" class="edge">
<title>structures:ObjectType&#45;&gt;nc:OrientationType</title>
<path fill="none" stroke="#000000" d="M273.5,-165.4761C273.5,-159.114 273.5,-149.8292 273.5,-139.8557"/>
<polygon fill="#000000" stroke="#000000" points="277.0001,-139.7354 273.5,-129.7354 270.0001,-139.7354 277.0001,-139.7354"/>
<text text-anchor="middle" x="264" y="-144.4" font-family="Helvetica,sans-Serif" font-size="12.00" fill="#000000">extension</text>
</g>
</g>
</svg>
