<?xml version="1.0" encoding="UTF-8" standalone="no"?>
<!DOCTYPE svg PUBLIC "-//W3C//DTD SVG 1.1//EN"
 "http://www.w3.org/Graphics/SVG/1.1/DTD/svg11.dtd">
<!-- Generated by graphviz version 2.40.1 (20161225.0304)
 -->
<!-- Title: graphic Pages: 1 -->
<svg width="575pt" height="45pt"
 viewBox="0.00 0.00 575.00 45.00" xmlns="http://www.w3.org/2000/svg" xmlns:xlink="http://www.w3.org/1999/xlink">
<g id="graph0" class="graph" transform="scale(1 1) rotate(0) translate(4 41)">
<title>graphic</title>
<polygon fill="#ffffff" stroke="transparent" points="-4,4 -4,-41 571,-41 571,4 -4,4"/>
<!-- it:GoodsPreviousProcedureCodeText -->
<g id="node1" class="node">
<title>it:GoodsPreviousProcedureCodeText</title>
<text text-anchor="start" x="216.5" y="-21.4" font-family="Helvetica,sans-Serif" font-weight="bold" font-size="12.00" fill="#000000">it:GoodsPreviousProcedureCodeText</text>
<polygon fill="none" stroke="#ff0000" stroke-width="5" points="212.5,-14 212.5,-34 434.5,-34 434.5,-14 212.5,-14"/>
</g>
<!-- nc:TextType -->
<g id="node3" class="node">
<title>nc:TextType</title>
<g id="a_node3_0"><a xlink:href="../../nc/TextType/#diagram" xlink:title="A data type for a character string." target="_top">
<text text-anchor="start" x="498.5" y="-20.4" font-family="Helvetica,sans-Serif" font-size="12.00" fill="#000000">nc:TextType</text>
</a>
</g>
<polygon fill="none" stroke="#000000" points="496,-15.5 496,-32.5 567,-32.5 567,-15.5 496,-15.5"/>
</g>
<!-- it:GoodsPreviousProcedureCodeText&#45;&gt;nc:TextType -->
<g id="edge2" class="edge">
<title>it:GoodsPreviousProcedureCodeText&#45;&gt;nc:TextType</title>
<path fill="none" stroke="#000000" d="M437.2373,-24C454.3327,-24 471.0741,-24 485.592,-24"/>
<polygon fill="#000000" stroke="#000000" points="485.7436,-27.5001 495.7435,-24 485.7435,-20.5001 485.7436,-27.5001"/>
<text text-anchor="middle" x="466.5" y="-27.4" font-family="Helvetica,sans-Serif" font-size="12.00" fill="#000000">type</text>
</g>
<!-- Types -->
<g id="node2" class="node">
<title>Types</title>
<text text-anchor="start" x="2.5" y="-21.4" font-family="Helvetica,sans-Serif" font-weight="bold" font-size="12.00" fill="#000000">Types</text>
<g id="a_node2_1"><a xlink:href="../../it/CustomsProcedureType/#diagram" xlink:title="A data type for a specific activity required for Customs" target="_top">
<polygon fill="#ebebeb" stroke="transparent" points="1.5,-1 1.5,-16 142.5,-16 142.5,-1 1.5,-1"/>
<text text-anchor="start" x="2.5" y="-5.4" font-family="Helvetica,sans-Serif" font-size="12.00" fill="#000000">it:CustomsProcedureType</text>
</a>
</g>
<polygon fill="#000000" stroke="#000000" points=".5,-16 .5,-16 143.5,-16 143.5,-16 .5,-16"/>
<polygon fill="none" stroke="#000000" points="0,0 0,-32 143,-32 143,0 0,0"/>
</g>
<!-- Types&#45;&gt;it:GoodsPreviousProcedureCodeText -->
<g id="edge1" class="edge">
<title>Types:top&#45;&gt;it:GoodsPreviousProcedureCodeText</title>
<path fill="none" stroke="#000000" d="M142.5,-24C160.8791,-24 180.308,-24 199.3477,-24"/>
<polygon fill="#000000" stroke="#000000" points="199.5672,-27.5001 209.5672,-24 199.5671,-20.5001 199.5672,-27.5001"/>
<text text-anchor="middle" x="176.5" y="-27.4" font-family="Helvetica,sans-Serif" font-size="12.00" fill="#000000">has&#45;a</text>
</g>
</g>
</svg>
