<?xml version="1.0" encoding="UTF-8" standalone="no"?>
<!DOCTYPE svg PUBLIC "-//W3C//DTD SVG 1.1//EN"
 "http://www.w3.org/Graphics/SVG/1.1/DTD/svg11.dtd">
<!-- Generated by graphviz version 2.40.1 (20161225.0304)
 -->
<!-- Title: graphic Pages: 1 -->
<svg width="503pt" height="45pt"
 viewBox="0.00 0.00 503.00 45.00" xmlns="http://www.w3.org/2000/svg" xmlns:xlink="http://www.w3.org/1999/xlink">
<g id="graph0" class="graph" transform="scale(1 1) rotate(0) translate(4 41)">
<title>graphic</title>
<polygon fill="#ffffff" stroke="transparent" points="-4,4 -4,-41 499,-41 499,4 -4,4"/>
<!-- stat:ProvisionAgreementAugmentationPoint -->
<g id="node1" class="node">
<title>stat:ProvisionAgreementAugmentationPoint</title>
<text text-anchor="start" x="235" y="-21.4" font-family="Helvetica,sans-Serif" font-weight="bold" font-size="12.00" fill="#000000">stat:ProvisionAgreementAugmentationPoint</text>
<polygon fill="none" stroke="#ff0000" stroke-width="5" points="231.5,-14 231.5,-34 492.5,-34 492.5,-14 231.5,-14"/>
</g>
<!-- Types -->
<g id="node2" class="node">
<title>Types</title>
<text text-anchor="start" x="2" y="-21.4" font-family="Helvetica,sans-Serif" font-weight="bold" font-size="12.00" fill="#000000">Types</text>
<g id="a_node2_0"><a xlink:href="../../stat/ProvisionAgreementType/#diagram" xlink:title="A data type for a legal or other basis by which two parties agree to exchange data." target="_top">
<polygon fill="#ebebeb" stroke="transparent" points="1,-1 1,-16 161,-16 161,-1 1,-1"/>
<text text-anchor="start" x="2" y="-5.4" font-family="Helvetica,sans-Serif" font-size="12.00" fill="#000000">stat:ProvisionAgreementType</text>
</a>
</g>
<polygon fill="#000000" stroke="#000000" points="0,-16 0,-16 162,-16 162,-16 0,-16"/>
<polygon fill="none" stroke="#000000" points="0,0 0,-32 162,-32 162,0 0,0"/>
</g>
<!-- Types&#45;&gt;stat:ProvisionAgreementAugmentationPoint -->
<g id="edge1" class="edge">
<title>Types:top&#45;&gt;stat:ProvisionAgreementAugmentationPoint</title>
<path fill="none" stroke="#000000" d="M161,-24C179.6468,-24 199.2666,-24 218.6408,-24"/>
<polygon fill="#000000" stroke="#000000" points="218.7435,-27.5001 228.7435,-24 218.7434,-20.5001 218.7435,-27.5001"/>
<text text-anchor="middle" x="195.5" y="-27.4" font-family="Helvetica,sans-Serif" font-size="12.00" fill="#000000">has&#45;a</text>
</g>
</g>
</svg>
