<?xml version="1.0" encoding="UTF-8" standalone="no"?>
<!DOCTYPE svg PUBLIC "-//W3C//DTD SVG 1.1//EN"
 "http://www.w3.org/Graphics/SVG/1.1/DTD/svg11.dtd">
<!-- Generated by graphviz version 2.40.1 (20161225.0304)
 -->
<!-- Title: graphic Pages: 1 -->
<svg width="515pt" height="45pt"
 viewBox="0.00 0.00 515.00 45.00" xmlns="http://www.w3.org/2000/svg" xmlns:xlink="http://www.w3.org/1999/xlink">
<g id="graph0" class="graph" transform="scale(1 1) rotate(0) translate(4 41)">
<title>graphic</title>
<polygon fill="#ffffff" stroke="transparent" points="-4,4 -4,-41 511,-41 511,4 -4,4"/>
<!-- j:CourtEventAppearance -->
<g id="node1" class="node">
<title>j:CourtEventAppearance</title>
<text text-anchor="start" x="170.5" y="-21.4" font-family="Helvetica,sans-Serif" font-weight="bold" font-size="12.00" fill="#000000">j:CourtEventAppearance</text>
<polygon fill="none" stroke="#ff0000" stroke-width="5" points="166.5,-14 166.5,-34 314.5,-34 314.5,-14 166.5,-14"/>
</g>
<!-- j:CourtAppearanceType -->
<g id="node3" class="node">
<title>j:CourtAppearanceType</title>
<g id="a_node3_0"><a xlink:href="../../j/CourtAppearanceType/#diagram" xlink:title="A data type for an appearance required of a party in a court of law on a certain date." target="_top">
<text text-anchor="start" x="378.5" y="-20.4" font-family="Helvetica,sans-Serif" font-size="12.00" fill="#000000">j:CourtAppearanceType</text>
</a>
</g>
<polygon fill="none" stroke="#000000" points="376,-15.5 376,-32.5 507,-32.5 507,-15.5 376,-15.5"/>
</g>
<!-- j:CourtEventAppearance&#45;&gt;j:CourtAppearanceType -->
<g id="edge2" class="edge">
<title>j:CourtEventAppearance&#45;&gt;j:CourtAppearanceType</title>
<path fill="none" stroke="#000000" d="M317.0629,-24C332.9892,-24 349.767,-24 365.6669,-24"/>
<polygon fill="#000000" stroke="#000000" points="365.9708,-27.5001 375.9708,-24 365.9708,-20.5001 365.9708,-27.5001"/>
<text text-anchor="middle" x="346.5" y="-27.4" font-family="Helvetica,sans-Serif" font-size="12.00" fill="#000000">type</text>
</g>
<!-- Types -->
<g id="node2" class="node">
<title>Types</title>
<text text-anchor="start" x="2.5" y="-21.4" font-family="Helvetica,sans-Serif" font-weight="bold" font-size="12.00" fill="#000000">Types</text>
<g id="a_node2_1"><a xlink:href="../../j/CourtEventType/#diagram" xlink:title="A data type for a court occurrence." target="_top">
<polygon fill="#ebebeb" stroke="transparent" points="1.5,-1 1.5,-16 96.5,-16 96.5,-1 1.5,-1"/>
<text text-anchor="start" x="2.5" y="-5.4" font-family="Helvetica,sans-Serif" font-size="12.00" fill="#000000">j:CourtEventType</text>
</a>
</g>
<polygon fill="#000000" stroke="#000000" points=".5,-16 .5,-16 97.5,-16 97.5,-16 .5,-16"/>
<polygon fill="none" stroke="#000000" points="0,0 0,-32 97,-32 97,0 0,0"/>
</g>
<!-- Types&#45;&gt;j:CourtEventAppearance -->
<g id="edge1" class="edge">
<title>Types:top&#45;&gt;j:CourtEventAppearance</title>
<path fill="none" stroke="#000000" d="M96.5,-24C115.0425,-24 134.928,-24 153.8219,-24"/>
<polygon fill="#000000" stroke="#000000" points="153.8993,-27.5001 163.8993,-24 153.8992,-20.5001 153.8993,-27.5001"/>
<text text-anchor="middle" x="130.5" y="-27.4" font-family="Helvetica,sans-Serif" font-size="12.00" fill="#000000">has&#45;a</text>
</g>
</g>
</svg>
