<?xml version="1.0" encoding="UTF-8" standalone="no"?>
<!DOCTYPE svg PUBLIC "-//W3C//DTD SVG 1.1//EN"
 "http://www.w3.org/Graphics/SVG/1.1/DTD/svg11.dtd">
<!-- Generated by graphviz version 2.40.1 (20161225.0304)
 -->
<!-- Title: graphic Pages: 1 -->
<svg width="467pt" height="101pt"
 viewBox="0.00 0.00 467.00 101.00" xmlns="http://www.w3.org/2000/svg" xmlns:xlink="http://www.w3.org/1999/xlink">
<g id="graph0" class="graph" transform="scale(1 1) rotate(0) translate(4 97)">
<title>graphic</title>
<polygon fill="#ffffff" stroke="transparent" points="-4,4 -4,-97 463,-97 463,4 -4,4"/>
<!-- j:SubjectArmedWithAbstract -->
<g id="node1" class="node">
<title>j:SubjectArmedWithAbstract</title>
<text text-anchor="start" x="221.5" y="-77.4" font-family="Helvetica,sans-Serif" font-weight="bold" font-size="12.00" fill="#000000">j:SubjectArmedWithAbstract</text>
<polygon fill="none" stroke="#ff0000" stroke-width="5" points="218,-70 218,-90 389,-90 389,-70 218,-70"/>
</g>
<!-- SubstitutableElements -->
<g id="node3" class="node">
<title>SubstitutableElements</title>
<text text-anchor="start" x="150.5" y="-21.4" font-family="Helvetica,sans-Serif" font-weight="bold" font-size="12.00" fill="#000000">Substitutable elements</text>
<g id="a_node3_0"><a xlink:href="../../j/SubjectArmedWithCode/#diagram" xlink:title="A code that identifies the kind of weapon found in the possession of a subject at the time of booking." target="_top">
<polygon fill="#ebebeb" stroke="transparent" points="149.5,-1 149.5,-16 458.5,-16 458.5,-1 149.5,-1"/>
<text text-anchor="start" x="150.5" y="-5.4" font-family="Helvetica,sans-Serif" font-size="12.00" fill="#000000">j:SubjectArmedWithCode: ucr:ArresteeWeaponCodeType</text>
</a>
</g>
<polygon fill="#000000" stroke="#000000" points="148.5,-16 148.5,-16 459.5,-16 459.5,-16 148.5,-16"/>
<polygon fill="none" stroke="#000000" points="148,0 148,-32 459,-32 459,0 148,0"/>
</g>
<!-- j:SubjectArmedWithAbstract&#45;&gt;SubstitutableElements -->
<g id="edge2" class="edge">
<title>j:SubjectArmedWithAbstract&#45;&gt;SubstitutableElements</title>
<path fill="none" stroke="#000000" d="M303.5,-57.3063C303.5,-48.9972 303.5,-39.7712 303.5,-32.1499"/>
<polygon fill="#000000" stroke="#000000" points="300.0001,-57.4892 303.5,-67.4892 307.0001,-57.4892 300.0001,-57.4892"/>
<text text-anchor="middle" x="294" y="-46.65" font-family="Helvetica,sans-Serif" font-size="12.00" fill="#000000">substitutable for</text>
</g>
<!-- Types -->
<g id="node2" class="node">
<title>Types</title>
<text text-anchor="start" x="2.5" y="-77.4" font-family="Helvetica,sans-Serif" font-weight="bold" font-size="12.00" fill="#000000">Types</text>
<g id="a_node2_1"><a xlink:href="../../j/BookingType/#diagram" xlink:title="A data type for an administrative step taken after an arrest subject is brought to a police station or detention facility." target="_top">
<polygon fill="#ebebeb" stroke="transparent" points="1.5,-57 1.5,-72 80.5,-72 80.5,-57 1.5,-57"/>
<text text-anchor="start" x="2.5" y="-61.4" font-family="Helvetica,sans-Serif" font-size="12.00" fill="#000000">j:BookingType</text>
</a>
</g>
<polygon fill="#000000" stroke="#000000" points=".5,-72 .5,-72 81.5,-72 81.5,-72 .5,-72"/>
<polygon fill="none" stroke="#000000" points="0,-56 0,-88 81,-88 81,-56 0,-56"/>
</g>
<!-- Types&#45;&gt;j:SubjectArmedWithAbstract -->
<g id="edge1" class="edge">
<title>Types:top&#45;&gt;j:SubjectArmedWithAbstract</title>
<path fill="none" stroke="#000000" d="M80.5,-80C121.2815,-80 166.2581,-80 205.0727,-80"/>
<polygon fill="#000000" stroke="#000000" points="205.3234,-83.5001 215.3234,-80 205.3233,-76.5001 205.3234,-83.5001"/>
<text text-anchor="middle" x="114.5" y="-83.4" font-family="Helvetica,sans-Serif" font-size="12.00" fill="#000000">has&#45;a</text>
</g>
</g>
</svg>
