<?xml version="1.0" encoding="UTF-8" standalone="no"?>
<!DOCTYPE svg PUBLIC "-//W3C//DTD SVG 1.1//EN"
 "http://www.w3.org/Graphics/SVG/1.1/DTD/svg11.dtd">
<!-- Generated by graphviz version 2.40.1 (20161225.0304)
 -->
<!-- Title: graphic Pages: 1 -->
<svg width="822pt" height="45pt"
 viewBox="0.00 0.00 822.00 45.00" xmlns="http://www.w3.org/2000/svg" xmlns:xlink="http://www.w3.org/1999/xlink">
<g id="graph0" class="graph" transform="scale(1 1) rotate(0) translate(4 41)">
<title>graphic</title>
<polygon fill="#ffffff" stroke="transparent" points="-4,4 -4,-41 818,-41 818,4 -4,4"/>
<!-- biom:SubjectDNARecordsAvailableCode -->
<g id="node1" class="node">
<title>biom:SubjectDNARecordsAvailableCode</title>
<text text-anchor="start" x="268.5" y="-21.4" font-family="Helvetica,sans-Serif" font-weight="bold" font-size="12.00" fill="#000000">biom:SubjectDNARecordsAvailableCode</text>
<polygon fill="none" stroke="#ff0000" stroke-width="5" points="264.5,-14 264.5,-34 504.5,-34 504.5,-14 264.5,-14"/>
</g>
<!-- biom:SubjectDNARecordsAvailableCodeType -->
<g id="node3" class="node">
<title>biom:SubjectDNARecordsAvailableCodeType</title>
<g id="a_node3_0"><a xlink:href="../../biom/SubjectDNARecordsAvailableCodeType/#diagram" xlink:title="A data type for a single letter for DNA records are available for the subject or not" target="_top">
<text text-anchor="start" x="568" y="-20.4" font-family="Helvetica,sans-Serif" font-size="12.00" fill="#000000">biom:SubjectDNARecordsAvailableCodeType</text>
</a>
</g>
<polygon fill="none" stroke="#000000" points="566,-15.5 566,-32.5 814,-32.5 814,-15.5 566,-15.5"/>
</g>
<!-- biom:SubjectDNARecordsAvailableCode&#45;&gt;biom:SubjectDNARecordsAvailableCodeType -->
<g id="edge2" class="edge">
<title>biom:SubjectDNARecordsAvailableCode&#45;&gt;biom:SubjectDNARecordsAvailableCodeType</title>
<path fill="none" stroke="#000000" d="M507.438,-24C523.215,-24 539.4336,-24 555.3845,-24"/>
<polygon fill="#000000" stroke="#000000" points="555.8206,-27.5001 565.8206,-24 555.8206,-20.5001 555.8206,-27.5001"/>
<text text-anchor="middle" x="536.5" y="-27.4" font-family="Helvetica,sans-Serif" font-size="12.00" fill="#000000">type</text>
</g>
<!-- Types -->
<g id="node2" class="node">
<title>Types</title>
<text text-anchor="start" x="2.5" y="-21.4" font-family="Helvetica,sans-Serif" font-weight="bold" font-size="12.00" fill="#000000">Types</text>
<g id="a_node2_1"><a xlink:href="../../biom/DentalSubjectInformationType/#diagram" xlink:title="A data type for a set of information regarding the status of the individual at the time when the relevant data was recorded." target="_top">
<polygon fill="#ebebeb" stroke="transparent" points="1.5,-1 1.5,-16 194.5,-16 194.5,-1 1.5,-1"/>
<text text-anchor="start" x="2.5" y="-5.4" font-family="Helvetica,sans-Serif" font-size="12.00" fill="#000000">biom:DentalSubjectInformationType</text>
</a>
</g>
<polygon fill="#000000" stroke="#000000" points=".5,-16 .5,-16 195.5,-16 195.5,-16 .5,-16"/>
<polygon fill="none" stroke="#000000" points="0,0 0,-32 195,-32 195,0 0,0"/>
</g>
<!-- Types&#45;&gt;biom:SubjectDNARecordsAvailableCode -->
<g id="edge1" class="edge">
<title>Types:top&#45;&gt;biom:SubjectDNARecordsAvailableCode</title>
<path fill="none" stroke="#000000" d="M194.5,-24C213.0392,-24 232.596,-24 251.8299,-24"/>
<polygon fill="#000000" stroke="#000000" points="251.8516,-27.5001 261.8515,-24 251.8515,-20.5001 251.8516,-27.5001"/>
<text text-anchor="middle" x="228.5" y="-27.4" font-family="Helvetica,sans-Serif" font-size="12.00" fill="#000000">has&#45;a</text>
</g>
</g>
</svg>
