<?xml version="1.0" encoding="UTF-8" standalone="no"?>
<!DOCTYPE svg PUBLIC "-//W3C//DTD SVG 1.1//EN"
 "http://www.w3.org/Graphics/SVG/1.1/DTD/svg11.dtd">
<!-- Generated by graphviz version 2.40.1 (20161225.0304)
 -->
<!-- Title: graphic Pages: 1 -->
<svg width="686pt" height="45pt"
 viewBox="0.00 0.00 686.00 45.00" xmlns="http://www.w3.org/2000/svg" xmlns:xlink="http://www.w3.org/1999/xlink">
<g id="graph0" class="graph" transform="scale(1 1) rotate(0) translate(4 41)">
<title>graphic</title>
<polygon fill="#ffffff" stroke="transparent" points="-4,4 -4,-41 682,-41 682,4 -4,4"/>
<!-- j:ConveyanceRegistration -->
<g id="node1" class="node">
<title>j:ConveyanceRegistration</title>
<text text-anchor="start" x="296.5" y="-21.4" font-family="Helvetica,sans-Serif" font-weight="bold" font-size="12.00" fill="#000000">j:ConveyanceRegistration</text>
<polygon fill="none" stroke="#ff0000" stroke-width="5" points="292.5,-14 292.5,-34 448.5,-34 448.5,-14 292.5,-14"/>
</g>
<!-- j:ConveyanceRegistrationType -->
<g id="node3" class="node">
<title>j:ConveyanceRegistrationType</title>
<g id="a_node3_0"><a xlink:href="../../j/ConveyanceRegistrationType/#diagram" xlink:title="A data type for a registration of a conveyance with an authority." target="_top">
<text text-anchor="start" x="512" y="-20.4" font-family="Helvetica,sans-Serif" font-size="12.00" fill="#000000">j:ConveyanceRegistrationType</text>
</a>
</g>
<polygon fill="none" stroke="#000000" points="510,-15.5 510,-32.5 678,-32.5 678,-15.5 510,-15.5"/>
</g>
<!-- j:ConveyanceRegistration&#45;&gt;j:ConveyanceRegistrationType -->
<g id="edge2" class="edge">
<title>j:ConveyanceRegistration&#45;&gt;j:ConveyanceRegistrationType</title>
<path fill="none" stroke="#000000" d="M451.1886,-24C466.7792,-24 483.2459,-24 499.2374,-24"/>
<polygon fill="#000000" stroke="#000000" points="499.6635,-27.5001 509.6635,-24 499.6635,-20.5001 499.6635,-27.5001"/>
<text text-anchor="middle" x="480.5" y="-27.4" font-family="Helvetica,sans-Serif" font-size="12.00" fill="#000000">type</text>
</g>
<!-- Types -->
<g id="node2" class="node">
<title>Types</title>
<text text-anchor="start" x="2.5" y="-21.4" font-family="Helvetica,sans-Serif" font-weight="bold" font-size="12.00" fill="#000000">Types</text>
<g id="a_node2_1"><a xlink:href="../../scr/LPRConveyanceCheckMessageType/#diagram" xlink:title="A data type for a Screening conveyance check message" target="_top">
<polygon fill="#ebebeb" stroke="transparent" points="1.5,-1 1.5,-16 222.5,-16 222.5,-1 1.5,-1"/>
<text text-anchor="start" x="2.5" y="-5.4" font-family="Helvetica,sans-Serif" font-size="12.00" fill="#000000">scr:LPRConveyanceCheckMessageType</text>
</a>
</g>
<polygon fill="#000000" stroke="#000000" points=".5,-16 .5,-16 223.5,-16 223.5,-16 .5,-16"/>
<polygon fill="none" stroke="#000000" points="0,0 0,-32 223,-32 223,0 0,0"/>
</g>
<!-- Types&#45;&gt;j:ConveyanceRegistration -->
<g id="edge1" class="edge">
<title>Types:top&#45;&gt;j:ConveyanceRegistration</title>
<path fill="none" stroke="#000000" d="M222.5,-24C241.013,-24 260.8287,-24 279.7473,-24"/>
<polygon fill="#000000" stroke="#000000" points="279.8479,-27.5001 289.8479,-24 279.8479,-20.5001 279.8479,-27.5001"/>
<text text-anchor="middle" x="256.5" y="-27.4" font-family="Helvetica,sans-Serif" font-size="12.00" fill="#000000">has&#45;a</text>
</g>
</g>
</svg>
