<?xml version="1.0" encoding="UTF-8" standalone="no"?>
<!DOCTYPE svg PUBLIC "-//W3C//DTD SVG 1.1//EN"
 "http://www.w3.org/Graphics/SVG/1.1/DTD/svg11.dtd">
<!-- Generated by graphviz version 2.40.1 (20161225.0304)
 -->
<!-- Title: graphic Pages: 1 -->
<svg width="409pt" height="101pt"
 viewBox="0.00 0.00 409.00 101.00" xmlns="http://www.w3.org/2000/svg" xmlns:xlink="http://www.w3.org/1999/xlink">
<g id="graph0" class="graph" transform="scale(1 1) rotate(0) translate(4 97)">
<title>graphic</title>
<polygon fill="#ffffff" stroke="transparent" points="-4,4 -4,-97 405,-97 405,4 -4,4"/>
<!-- nc:InjuryAugmentationPoint -->
<g id="node1" class="node">
<title>nc:InjuryAugmentationPoint</title>
<text text-anchor="start" x="191.5" y="-77.4" font-family="Helvetica,sans-Serif" font-weight="bold" font-size="12.00" fill="#000000">nc:InjuryAugmentationPoint</text>
<polygon fill="none" stroke="#ff0000" stroke-width="5" points="188,-70 188,-90 357,-90 357,-70 188,-70"/>
</g>
<!-- SubstitutableElements -->
<g id="node3" class="node">
<title>SubstitutableElements</title>
<text text-anchor="start" x="146.5" y="-21.4" font-family="Helvetica,sans-Serif" font-weight="bold" font-size="12.00" fill="#000000">Substitutable elements</text>
<g id="a_node3_0"><a xlink:href="../../j/InjuryAugmentation/#diagram" xlink:title="Additional information about a Injury." target="_top">
<polygon fill="#ebebeb" stroke="transparent" points="145.5,-1 145.5,-16 400.5,-16 400.5,-1 145.5,-1"/>
<text text-anchor="start" x="146.5" y="-5.4" font-family="Helvetica,sans-Serif" font-size="12.00" fill="#000000">j:InjuryAugmentation: j:InjuryAugmentationType</text>
</a>
</g>
<polygon fill="#000000" stroke="#000000" points="144.5,-16 144.5,-16 401.5,-16 401.5,-16 144.5,-16"/>
<polygon fill="none" stroke="#000000" points="144,0 144,-32 401,-32 401,0 144,0"/>
</g>
<!-- nc:InjuryAugmentationPoint&#45;&gt;SubstitutableElements -->
<g id="edge2" class="edge">
<title>nc:InjuryAugmentationPoint&#45;&gt;SubstitutableElements</title>
<path fill="none" stroke="#000000" d="M272.5,-57.3063C272.5,-48.9972 272.5,-39.7712 272.5,-32.1499"/>
<polygon fill="#000000" stroke="#000000" points="269.0001,-57.4892 272.5,-67.4892 276.0001,-57.4892 269.0001,-57.4892"/>
<text text-anchor="middle" x="263" y="-46.65" font-family="Helvetica,sans-Serif" font-size="12.00" fill="#000000">substitutable for</text>
</g>
<!-- Types -->
<g id="node2" class="node">
<title>Types</title>
<text text-anchor="start" x="2.5" y="-77.4" font-family="Helvetica,sans-Serif" font-weight="bold" font-size="12.00" fill="#000000">Types</text>
<g id="a_node2_1"><a xlink:href="../../nc/InjuryType/#diagram" xlink:title="A data type for a form of harm or damage sustained by a person." target="_top">
<polygon fill="#ebebeb" stroke="transparent" points="1.5,-57 1.5,-72 76.5,-72 76.5,-57 1.5,-57"/>
<text text-anchor="start" x="2.5" y="-61.4" font-family="Helvetica,sans-Serif" font-size="12.00" fill="#000000">nc:InjuryType</text>
</a>
</g>
<polygon fill="#000000" stroke="#000000" points=".5,-72 .5,-72 77.5,-72 77.5,-72 .5,-72"/>
<polygon fill="none" stroke="#000000" points="0,-56 0,-88 77,-88 77,-56 0,-56"/>
</g>
<!-- Types&#45;&gt;nc:InjuryAugmentationPoint -->
<g id="edge1" class="edge">
<title>Types:top&#45;&gt;nc:InjuryAugmentationPoint</title>
<path fill="none" stroke="#000000" d="M76.5,-80C108.5865,-80 143.6276,-80 175.0935,-80"/>
<polygon fill="#000000" stroke="#000000" points="175.1758,-83.5001 185.1758,-80 175.1757,-76.5001 175.1758,-83.5001"/>
<text text-anchor="middle" x="110.5" y="-83.4" font-family="Helvetica,sans-Serif" font-size="12.00" fill="#000000">has&#45;a</text>
</g>
</g>
</svg>
