<?xml version="1.0" encoding="UTF-8" standalone="no"?>
<!DOCTYPE svg PUBLIC "-//W3C//DTD SVG 1.1//EN"
 "http://www.w3.org/Graphics/SVG/1.1/DTD/svg11.dtd">
<!-- Generated by graphviz version 2.40.1 (20161225.0304)
 -->
<!-- Title: graphic Pages: 1 -->
<svg width="368pt" height="184pt"
 viewBox="0.00 0.00 368.00 183.50" xmlns="http://www.w3.org/2000/svg" xmlns:xlink="http://www.w3.org/1999/xlink">
<g id="graph0" class="graph" transform="scale(1 1) rotate(0) translate(4 179.5)">
<title>graphic</title>
<polygon fill="#ffffff" stroke="transparent" points="-4,4 -4,-179.5 364,-179.5 364,4 -4,4"/>
<!-- stat:MapType -->
<g id="node1" class="node">
<title>stat:MapType</title>
<text text-anchor="start" x="129.5" y="-55.4" font-family="Helvetica,sans-Serif" font-weight="bold" font-size="12.00" fill="#000000">stat:MapType</text>
<g id="a_node1_0"><a xlink:href="../../stat/MapSourceNode/#diagram" xlink:title="A source node for a map." target="_top">
<polygon fill="#ebebeb" stroke="transparent" points="128.5,-35 128.5,-50 355.5,-50 355.5,-35 128.5,-35"/>
<text text-anchor="start" x="129.5" y="-39.4" font-family="Helvetica,sans-Serif" font-size="12.00" fill="#000000">stat:MapSourceNode: stat:NodeType [0&#45;n]</text>
</a>
</g>
<g id="a_node1_1"><a xlink:href="../../stat/MapTargetNode/#diagram" xlink:title="A target node for a map." target="_top">
<text text-anchor="start" x="129.5" y="-24.4" font-family="Helvetica,sans-Serif" font-size="12.00" fill="#000000">stat:MapTargetNode: stat:NodeType [0&#45;n]</text>
</a>
</g>
<g id="a_node1_2"><a xlink:href="../../stat/MapAugmentationPoint/#diagram" xlink:title="An augmentation point for type stat:MapType" target="_top">
<polygon fill="#ebebeb" stroke="transparent" points="128.5,-5 128.5,-20 355.5,-20 355.5,-5 128.5,-5"/>
<text text-anchor="start" x="129.5" y="-9.4" font-family="Helvetica,sans-Serif" font-size="12.00" fill="#000000">stat:MapAugmentationPoint [0&#45;n]</text>
</a>
</g>
<polygon fill="#ff0000" stroke="#ff0000" points="123.5,-50 123.5,-50 360.5,-50 360.5,-50 123.5,-50"/>
<polygon fill="none" stroke="#ff0000" stroke-width="5" points="125.5,-2.5 125.5,-67.5 357.5,-67.5 357.5,-2.5 125.5,-2.5"/>
</g>
<!-- Properties -->
<g id="node2" class="node">
<title>Properties</title>
<text text-anchor="start" x="2" y="-55.4" font-family="Helvetica,sans-Serif" font-weight="bold" font-size="12.00" fill="#000000">Properties</text>
<g id="a_node2_3"><a xlink:href="../../stat/Map/#diagram" xlink:title="A relation between a classification item in a source statistical classification and a corresponding classification item in the target statistical classification. The map should specify whether the relationship between the two classification items is partial or complete. Depending on the relationship type of the correspondence table, there may be several maps for a single source or target item." target="_top">
<polygon fill="#ebebeb" stroke="transparent" points="1,-35 1,-50 63,-50 63,-35 1,-35"/>
<text text-anchor="start" x="2" y="-39.4" font-family="Helvetica,sans-Serif" font-size="12.00" fill="#000000">stat:Map</text>
</a>
</g>
<polygon fill="#000000" stroke="#000000" points="0,-50 0,-50 64,-50 64,-50 0,-50"/>
<polygon fill="none" stroke="#000000" points="0,-34 0,-66 64,-66 64,-34 0,-34"/>
</g>
<!-- Properties&#45;&gt;stat:MapType -->
<g id="edge1" class="edge">
<title>Properties:top&#45;&gt;stat:MapType:top</title>
<path fill="none" stroke="#000000" d="M63,-58C88.3585,-58 97.1498,-58 118.2371,-58"/>
<polygon fill="#000000" stroke="#000000" points="118.5,-61.5001 128.5,-58 118.5,-54.5001 118.5,-61.5001"/>
<text text-anchor="middle" x="93.5" y="-61.4" font-family="Helvetica,sans-Serif" font-size="12.00" fill="#000000">type</text>
</g>
<!-- stat:IdentifiableArtifactType -->
<g id="node3" class="node">
<title>stat:IdentifiableArtifactType</title>
<g id="a_node3_4"><a xlink:href="../../stat/IdentifiableArtifactType/#diagram" xlink:title="A data type for an abstract class that comprises the basic attributes and associations needed for identification, naming and other documentation." target="_top">
<text text-anchor="start" x="169.5" y="-110.4" font-family="Helvetica,sans-Serif" font-size="12.00" fill="#000000">stat:IdentifiableArtifactType</text>
</a>
</g>
<polygon fill="none" stroke="#000000" points="167,-105.5 167,-122.5 316,-122.5 316,-105.5 167,-105.5"/>
</g>
<!-- stat:IdentifiableArtifactType&#45;&gt;stat:MapType -->
<g id="edge2" class="edge">
<title>stat:IdentifiableArtifactType&#45;&gt;stat:MapType</title>
<path fill="none" stroke="#000000" d="M241.5,-105.4117C241.5,-99.1025 241.5,-89.9911 241.5,-80.4049"/>
<polygon fill="#000000" stroke="#000000" points="245.0001,-80.3408 241.5,-70.3408 238.0001,-80.3409 245.0001,-80.3408"/>
<text text-anchor="middle" x="232" y="-84.65" font-family="Helvetica,sans-Serif" font-size="12.00" fill="#000000">extension</text>
</g>
<!-- structures:ObjectType -->
<g id="node4" class="node">
<title>structures:ObjectType</title>
<g id="a_node4_5"><a xlink:href="../../structures/ObjectType/#diagram" xlink:title="A data type for a thing with its own lifespan that has some existence." target="_top">
<text text-anchor="start" x="182.5" y="-163.4" font-family="Helvetica,sans-Serif" font-size="12.00" fill="#000000">structures:ObjectType</text>
</a>
</g>
<polygon fill="none" stroke="#000000" points="180.5,-158.5 180.5,-175.5 302.5,-175.5 302.5,-158.5 180.5,-158.5"/>
</g>
<!-- structures:ObjectType&#45;&gt;stat:IdentifiableArtifactType -->
<g id="edge3" class="edge">
<title>structures:ObjectType&#45;&gt;stat:IdentifiableArtifactType</title>
<path fill="none" stroke="#000000" d="M241.5,-158.411C241.5,-151.5124 241.5,-141.5696 241.5,-132.84"/>
<polygon fill="#000000" stroke="#000000" points="245.0001,-132.7518 241.5,-122.7519 238.0001,-132.7519 245.0001,-132.7518"/>
<text text-anchor="middle" x="232" y="-137.4" font-family="Helvetica,sans-Serif" font-size="12.00" fill="#000000">extension</text>
</g>
</g>
</svg>
