<?xml version="1.0" encoding="UTF-8" standalone="no"?>
<!DOCTYPE svg PUBLIC "-//W3C//DTD SVG 1.1//EN"
 "http://www.w3.org/Graphics/SVG/1.1/DTD/svg11.dtd">
<!-- Generated by graphviz version 2.40.1 (20161225.0304)
 -->
<!-- Title: graphic Pages: 1 -->
<svg width="294pt" height="86pt"
 viewBox="0.00 0.00 294.00 86.00" xmlns="http://www.w3.org/2000/svg" xmlns:xlink="http://www.w3.org/1999/xlink">
<g id="graph0" class="graph" transform="scale(1 1) rotate(0) translate(4 82)">
<title>graphic</title>
<polygon fill="#ffffff" stroke="transparent" points="-4,4 -4,-82 290,-82 290,4 -4,4"/>
<!-- hs:ActionRequestedText -->
<g id="node1" class="node">
<title>hs:ActionRequestedText</title>
<text text-anchor="start" x="7" y="-9.9" font-family="Helvetica,sans-Serif" font-weight="bold" font-size="12.00" fill="#000000">hs:ActionRequestedText</text>
<polygon fill="none" stroke="#ff0000" stroke-width="5" points="3.5,-2.5 3.5,-22.5 152.5,-22.5 152.5,-2.5 3.5,-2.5"/>
</g>
<!-- nc:TextType -->
<g id="node3" class="node">
<title>nc:TextType</title>
<g id="a_node3_0"><a xlink:href="../../nc/TextType/#diagram" xlink:title="A data type for a character string." target="_top">
<text text-anchor="start" x="217.5" y="-8.9" font-family="Helvetica,sans-Serif" font-size="12.00" fill="#000000">nc:TextType</text>
</a>
</g>
<polygon fill="none" stroke="#000000" points="215,-4 215,-21 286,-21 286,-4 215,-4"/>
</g>
<!-- hs:ActionRequestedText&#45;&gt;nc:TextType -->
<g id="edge2" class="edge">
<title>hs:ActionRequestedText&#45;&gt;nc:TextType</title>
<path fill="none" stroke="#000000" d="M155.1683,-12.5C172.0777,-12.5 189.458,-12.5 204.6704,-12.5"/>
<polygon fill="#000000" stroke="#000000" points="204.8233,-16.0001 214.8233,-12.5 204.8233,-9.0001 204.8233,-16.0001"/>
<text text-anchor="middle" x="185.5" y="-15.9" font-family="Helvetica,sans-Serif" font-size="12.00" fill="#000000">type</text>
</g>
<!-- SubstitutionGroup -->
<g id="node2" class="node">
<title>SubstitutionGroup</title>
<g id="a_node2_1"><a xlink:href="../../hs/ActionRequestedAbstract/#diagram" xlink:title="A data concept for describing an agency&#39;s request for court action, based upon the needs of the child, youth, or family." target="_top">
<text text-anchor="start" x="2" y="-65.9" font-family="Helvetica,sans-Serif" font-size="12.00" fill="#000000">hs:ActionRequestedAbstract</text>
</a>
</g>
<polygon fill="none" stroke="#000000" points="0,-61 0,-78 156,-78 156,-61 0,-61"/>
</g>
<!-- SubstitutionGroup&#45;&gt;hs:ActionRequestedText -->
<g id="edge1" class="edge">
<title>SubstitutionGroup&#45;&gt;hs:ActionRequestedText</title>
<path fill="none" stroke="#000000" d="M78,-50.9163C78,-42.4809 78,-32.7214 78,-25.1501"/>
<polygon fill="#000000" stroke="#000000" points="74.5001,-50.9472 78,-60.9473 81.5001,-50.9473 74.5001,-50.9472"/>
<text text-anchor="middle" x="68.5" y="-39.9" font-family="Helvetica,sans-Serif" font-size="12.00" fill="#000000">substitution group</text>
</g>
</g>
</svg>
