<?xml version="1.0" encoding="UTF-8" standalone="no"?>
<!DOCTYPE svg PUBLIC "-//W3C//DTD SVG 1.1//EN"
 "http://www.w3.org/Graphics/SVG/1.1/DTD/svg11.dtd">
<!-- Generated by graphviz version 2.40.1 (20161225.0304)
 -->
<!-- Title: graphic Pages: 1 -->
<svg width="671pt" height="45pt"
 viewBox="0.00 0.00 671.00 45.00" xmlns="http://www.w3.org/2000/svg" xmlns:xlink="http://www.w3.org/1999/xlink">
<g id="graph0" class="graph" transform="scale(1 1) rotate(0) translate(4 41)">
<title>graphic</title>
<polygon fill="#ffffff" stroke="transparent" points="-4,4 -4,-41 667,-41 667,4 -4,4"/>
<!-- stat:BusinessProcessBusinessFunction -->
<g id="node1" class="node">
<title>stat:BusinessProcessBusinessFunction</title>
<text text-anchor="start" x="219" y="-21.4" font-family="Helvetica,sans-Serif" font-weight="bold" font-size="12.00" fill="#000000">stat:BusinessProcessBusinessFunction</text>
<polygon fill="none" stroke="#ff0000" stroke-width="5" points="215.5,-14 215.5,-34 452.5,-34 452.5,-14 215.5,-14"/>
</g>
<!-- stat:BusinessFunctionType -->
<g id="node3" class="node">
<title>stat:BusinessFunctionType</title>
<g id="a_node3_0"><a xlink:href="../../stat/BusinessFunctionType/#diagram" xlink:title="A data type for a thing an enterprise does, or needs to do, in order to achieve its objectives." target="_top">
<text text-anchor="start" x="516.5" y="-20.4" font-family="Helvetica,sans-Serif" font-size="12.00" fill="#000000">stat:BusinessFunctionType</text>
</a>
</g>
<polygon fill="none" stroke="#000000" points="514,-15.5 514,-32.5 663,-32.5 663,-15.5 514,-15.5"/>
</g>
<!-- stat:BusinessProcessBusinessFunction&#45;&gt;stat:BusinessFunctionType -->
<g id="edge2" class="edge">
<title>stat:BusinessProcessBusinessFunction&#45;&gt;stat:BusinessFunctionType</title>
<path fill="none" stroke="#000000" d="M455.2871,-24C471.6704,-24 488.1858,-24 503.7438,-24"/>
<polygon fill="#000000" stroke="#000000" points="503.8184,-27.5001 513.8184,-24 503.8183,-20.5001 503.8184,-27.5001"/>
<text text-anchor="middle" x="484.5" y="-27.4" font-family="Helvetica,sans-Serif" font-size="12.00" fill="#000000">type</text>
</g>
<!-- Types -->
<g id="node2" class="node">
<title>Types</title>
<text text-anchor="start" x="2" y="-21.4" font-family="Helvetica,sans-Serif" font-weight="bold" font-size="12.00" fill="#000000">Types</text>
<g id="a_node2_1"><a xlink:href="../../stat/BusinessProcessType/#diagram" xlink:title="A data type for a set of process steps to perform one of more business functions to deliver a statistical program cycle or statistical support program." target="_top">
<polygon fill="#ebebeb" stroke="transparent" points="1,-1 1,-16 145,-16 145,-1 1,-1"/>
<text text-anchor="start" x="2" y="-5.4" font-family="Helvetica,sans-Serif" font-size="12.00" fill="#000000">stat:BusinessProcessType</text>
</a>
</g>
<polygon fill="#000000" stroke="#000000" points="0,-16 0,-16 146,-16 146,-16 0,-16"/>
<polygon fill="none" stroke="#000000" points="0,0 0,-32 146,-32 146,0 0,0"/>
</g>
<!-- Types&#45;&gt;stat:BusinessProcessBusinessFunction -->
<g id="edge1" class="edge">
<title>Types:top&#45;&gt;stat:BusinessProcessBusinessFunction</title>
<path fill="none" stroke="#000000" d="M145,-24C163.6512,-24 183.3378,-24 202.6803,-24"/>
<polygon fill="#000000" stroke="#000000" points="202.7566,-27.5001 212.7566,-24 202.7566,-20.5001 202.7566,-27.5001"/>
<text text-anchor="middle" x="179.5" y="-27.4" font-family="Helvetica,sans-Serif" font-size="12.00" fill="#000000">has&#45;a</text>
</g>
</g>
</svg>
