<?xml version="1.0" encoding="UTF-8" standalone="no"?>
<!DOCTYPE svg PUBLIC "-//W3C//DTD SVG 1.1//EN"
 "http://www.w3.org/Graphics/SVG/1.1/DTD/svg11.dtd">
<!-- Generated by graphviz version 2.40.1 (20161225.0304)
 -->
<!-- Title: graphic Pages: 1 -->
<svg width="268pt" height="86pt"
 viewBox="0.00 0.00 268.00 86.00" xmlns="http://www.w3.org/2000/svg" xmlns:xlink="http://www.w3.org/1999/xlink">
<g id="graph0" class="graph" transform="scale(1 1) rotate(0) translate(4 82)">
<title>graphic</title>
<polygon fill="#ffffff" stroke="transparent" points="-4,4 -4,-82 264,-82 264,4 -4,4"/>
<!-- j:JewelryShapeText -->
<g id="node1" class="node">
<title>j:JewelryShapeText</title>
<text text-anchor="start" x="9" y="-9.9" font-family="Helvetica,sans-Serif" font-weight="bold" font-size="12.00" fill="#000000">j:JewelryShapeText</text>
<polygon fill="none" stroke="#ff0000" stroke-width="5" points="5,-2.5 5,-22.5 125,-22.5 125,-2.5 5,-2.5"/>
</g>
<!-- nc:TextType -->
<g id="node3" class="node">
<title>nc:TextType</title>
<g id="a_node3_0"><a xlink:href="../../nc/TextType/#diagram" xlink:title="A data type for a character string." target="_top">
<text text-anchor="start" x="191.5" y="-8.9" font-family="Helvetica,sans-Serif" font-size="12.00" fill="#000000">nc:TextType</text>
</a>
</g>
<polygon fill="none" stroke="#000000" points="189,-4 189,-21 260,-21 260,-4 189,-4"/>
</g>
<!-- j:JewelryShapeText&#45;&gt;nc:TextType -->
<g id="edge2" class="edge">
<title>j:JewelryShapeText&#45;&gt;nc:TextType</title>
<path fill="none" stroke="#000000" d="M127.5808,-12.5C144.6199,-12.5 162.7567,-12.5 178.6766,-12.5"/>
<polygon fill="#000000" stroke="#000000" points="178.7843,-16.0001 188.7842,-12.5 178.7842,-9.0001 178.7843,-16.0001"/>
<text text-anchor="middle" x="159.5" y="-15.9" font-family="Helvetica,sans-Serif" font-size="12.00" fill="#000000">type</text>
</g>
<!-- SubstitutionGroup -->
<g id="node2" class="node">
<title>SubstitutionGroup</title>
<g id="a_node2_1"><a xlink:href="../../j/JewelryShapeAbstract/#diagram" xlink:title="A data concept for a shape of a piece of jewelry." target="_top">
<text text-anchor="start" x="2" y="-65.9" font-family="Helvetica,sans-Serif" font-size="12.00" fill="#000000">j:JewelryShapeAbstract</text>
</a>
</g>
<polygon fill="none" stroke="#000000" points="0,-61 0,-78 130,-78 130,-61 0,-61"/>
</g>
<!-- SubstitutionGroup&#45;&gt;j:JewelryShapeText -->
<g id="edge1" class="edge">
<title>SubstitutionGroup&#45;&gt;j:JewelryShapeText</title>
<path fill="none" stroke="#000000" d="M65,-50.9163C65,-42.4809 65,-32.7214 65,-25.1501"/>
<polygon fill="#000000" stroke="#000000" points="61.5001,-50.9472 65,-60.9473 68.5001,-50.9473 61.5001,-50.9472"/>
<text text-anchor="middle" x="55.5" y="-39.9" font-family="Helvetica,sans-Serif" font-size="12.00" fill="#000000">substitution group</text>
</g>
</g>
</svg>
