<?xml version="1.0" encoding="UTF-8" standalone="no"?>
<!DOCTYPE svg PUBLIC "-//W3C//DTD SVG 1.1//EN"
 "http://www.w3.org/Graphics/SVG/1.1/DTD/svg11.dtd">
<!-- Generated by graphviz version 2.40.1 (20161225.0304)
 -->
<!-- Title: graphic Pages: 1 -->
<svg width="620pt" height="45pt"
 viewBox="0.00 0.00 620.00 45.00" xmlns="http://www.w3.org/2000/svg" xmlns:xlink="http://www.w3.org/1999/xlink">
<g id="graph0" class="graph" transform="scale(1 1) rotate(0) translate(4 41)">
<title>graphic</title>
<polygon fill="#ffffff" stroke="transparent" points="-4,4 -4,-41 616,-41 616,4 -4,4"/>
<!-- nc:EducationQualificationExpirationDate -->
<g id="node1" class="node">
<title>nc:EducationQualificationExpirationDate</title>
<text text-anchor="start" x="240" y="-21.4" font-family="Helvetica,sans-Serif" font-weight="bold" font-size="12.00" fill="#000000">nc:EducationQualificationExpirationDate</text>
<polygon fill="none" stroke="#ff0000" stroke-width="5" points="236.5,-14 236.5,-34 477.5,-34 477.5,-14 236.5,-14"/>
</g>
<!-- nc:DateType -->
<g id="node3" class="node">
<title>nc:DateType</title>
<g id="a_node3_0"><a xlink:href="../../nc/DateType/#diagram" xlink:title="A data type for a calendar date." target="_top">
<text text-anchor="start" x="541.5" y="-20.4" font-family="Helvetica,sans-Serif" font-size="12.00" fill="#000000">nc:DateType</text>
</a>
</g>
<polygon fill="none" stroke="#000000" points="539,-15.5 539,-32.5 612,-32.5 612,-15.5 539,-15.5"/>
</g>
<!-- nc:EducationQualificationExpirationDate&#45;&gt;nc:DateType -->
<g id="edge2" class="edge">
<title>nc:EducationQualificationExpirationDate&#45;&gt;nc:DateType</title>
<path fill="none" stroke="#000000" d="M480.2983,-24C497.4351,-24 514.1029,-24 528.5773,-24"/>
<polygon fill="#000000" stroke="#000000" points="528.7047,-27.5001 538.7047,-24 528.7046,-20.5001 528.7047,-27.5001"/>
<text text-anchor="middle" x="509.5" y="-27.4" font-family="Helvetica,sans-Serif" font-size="12.00" fill="#000000">type</text>
</g>
<!-- Types -->
<g id="node2" class="node">
<title>Types</title>
<text text-anchor="start" x="2.5" y="-21.4" font-family="Helvetica,sans-Serif" font-weight="bold" font-size="12.00" fill="#000000">Types</text>
<g id="a_node2_1"><a xlink:href="../../nc/EducationQualificationType/#diagram" xlink:title="A data type for a degree, certificate, credit, or other educational qualification obtained by a person." target="_top">
<polygon fill="#ebebeb" stroke="transparent" points="1.5,-1 1.5,-16 166.5,-16 166.5,-1 1.5,-1"/>
<text text-anchor="start" x="2.5" y="-5.4" font-family="Helvetica,sans-Serif" font-size="12.00" fill="#000000">nc:EducationQualificationType</text>
</a>
</g>
<polygon fill="#000000" stroke="#000000" points=".5,-16 .5,-16 167.5,-16 167.5,-16 .5,-16"/>
<polygon fill="none" stroke="#000000" points="0,0 0,-32 167,-32 167,0 0,0"/>
</g>
<!-- Types&#45;&gt;nc:EducationQualificationExpirationDate -->
<g id="edge1" class="edge">
<title>Types:top&#45;&gt;nc:EducationQualificationExpirationDate</title>
<path fill="none" stroke="#000000" d="M166.5,-24C185.0176,-24 204.5477,-24 223.7616,-24"/>
<polygon fill="#000000" stroke="#000000" points="223.7735,-27.5001 233.7734,-24 223.7734,-20.5001 223.7735,-27.5001"/>
<text text-anchor="middle" x="200.5" y="-27.4" font-family="Helvetica,sans-Serif" font-size="12.00" fill="#000000">has&#45;a</text>
</g>
</g>
</svg>
