<?xml version="1.0" encoding="UTF-8" standalone="no"?>
<!DOCTYPE svg PUBLIC "-//W3C//DTD SVG 1.1//EN"
 "http://www.w3.org/Graphics/SVG/1.1/DTD/svg11.dtd">
<!-- Generated by graphviz version 2.40.1 (20161225.0304)
 -->
<!-- Title: graphic Pages: 1 -->
<svg width="528pt" height="45pt"
 viewBox="0.00 0.00 528.00 45.00" xmlns="http://www.w3.org/2000/svg" xmlns:xlink="http://www.w3.org/1999/xlink">
<g id="graph0" class="graph" transform="scale(1 1) rotate(0) translate(4 41)">
<title>graphic</title>
<polygon fill="#ffffff" stroke="transparent" points="-4,4 -4,-41 524,-41 524,4 -4,4"/>
<!-- it:GoodsCustomsAmount -->
<g id="node1" class="node">
<title>it:GoodsCustomsAmount</title>
<text text-anchor="start" x="220" y="-21.4" font-family="Helvetica,sans-Serif" font-weight="bold" font-size="12.00" fill="#000000">it:GoodsCustomsAmount</text>
<polygon fill="none" stroke="#ff0000" stroke-width="5" points="216.5,-14 216.5,-34 369.5,-34 369.5,-14 216.5,-14"/>
</g>
<!-- nc:AmountType -->
<g id="node3" class="node">
<title>nc:AmountType</title>
<g id="a_node3_0"><a xlink:href="../../nc/AmountType/#diagram" xlink:title="A data type for an amount of money." target="_top">
<text text-anchor="start" x="433.5" y="-20.4" font-family="Helvetica,sans-Serif" font-size="12.00" fill="#000000">nc:AmountType</text>
</a>
</g>
<polygon fill="none" stroke="#000000" points="431,-15.5 431,-32.5 520,-32.5 520,-15.5 431,-15.5"/>
</g>
<!-- it:GoodsCustomsAmount&#45;&gt;nc:AmountType -->
<g id="edge2" class="edge">
<title>it:GoodsCustomsAmount&#45;&gt;nc:AmountType</title>
<path fill="none" stroke="#000000" d="M372.2509,-24C388.586,-24 405.4431,-24 420.679,-24"/>
<polygon fill="#000000" stroke="#000000" points="420.9417,-27.5001 430.9417,-24 420.9416,-20.5001 420.9417,-27.5001"/>
<text text-anchor="middle" x="401.5" y="-27.4" font-family="Helvetica,sans-Serif" font-size="12.00" fill="#000000">type</text>
</g>
<!-- Types -->
<g id="node2" class="node">
<title>Types</title>
<text text-anchor="start" x="2.5" y="-21.4" font-family="Helvetica,sans-Serif" font-weight="bold" font-size="12.00" fill="#000000">Types</text>
<g id="a_node2_1"><a xlink:href="../../it/CustomsGoodsItemType/#diagram" xlink:title="A data type for a value declared for purposes of those goods in a consignment." target="_top">
<polygon fill="#ebebeb" stroke="transparent" points="1.5,-1 1.5,-16 146.5,-16 146.5,-1 1.5,-1"/>
<text text-anchor="start" x="2.5" y="-5.4" font-family="Helvetica,sans-Serif" font-size="12.00" fill="#000000">it:CustomsGoodsItemType</text>
</a>
</g>
<polygon fill="#000000" stroke="#000000" points=".5,-16 .5,-16 147.5,-16 147.5,-16 .5,-16"/>
<polygon fill="none" stroke="#000000" points="0,0 0,-32 147,-32 147,0 0,0"/>
</g>
<!-- Types&#45;&gt;it:GoodsCustomsAmount -->
<g id="edge1" class="edge">
<title>Types:top&#45;&gt;it:GoodsCustomsAmount</title>
<path fill="none" stroke="#000000" d="M146.5,-24C165.041,-24 184.9019,-24 203.8276,-24"/>
<polygon fill="#000000" stroke="#000000" points="203.9281,-27.5001 213.9281,-24 203.9281,-20.5001 203.9281,-27.5001"/>
<text text-anchor="middle" x="180.5" y="-27.4" font-family="Helvetica,sans-Serif" font-size="12.00" fill="#000000">has&#45;a</text>
</g>
</g>
</svg>
