<?xml version="1.0" encoding="UTF-8" standalone="no"?>
<!DOCTYPE svg PUBLIC "-//W3C//DTD SVG 1.1//EN"
 "http://www.w3.org/Graphics/SVG/1.1/DTD/svg11.dtd">
<!-- Generated by graphviz version 2.40.1 (20161225.0304)
 -->
<!-- Title: graphic Pages: 1 -->
<svg width="513pt" height="101pt"
 viewBox="0.00 0.00 513.00 101.00" xmlns="http://www.w3.org/2000/svg" xmlns:xlink="http://www.w3.org/1999/xlink">
<g id="graph0" class="graph" transform="scale(1 1) rotate(0) translate(4 97)">
<title>graphic</title>
<polygon fill="#ffffff" stroke="transparent" points="-4,4 -4,-97 509,-97 509,4 -4,4"/>
<!-- biom:IrisEyePositionAbstract -->
<g id="node1" class="node">
<title>biom:IrisEyePositionAbstract</title>
<text text-anchor="start" x="272.5" y="-77.4" font-family="Helvetica,sans-Serif" font-weight="bold" font-size="12.00" fill="#000000">biom:IrisEyePositionAbstract</text>
<polygon fill="none" stroke="#ff0000" stroke-width="5" points="268.5,-70 268.5,-90 444.5,-90 444.5,-70 268.5,-70"/>
</g>
<!-- SubstitutableElements -->
<g id="node3" class="node">
<title>SubstitutableElements</title>
<text text-anchor="start" x="210.5" y="-21.4" font-family="Helvetica,sans-Serif" font-weight="bold" font-size="12.00" fill="#000000">Substitutable elements</text>
<g id="a_node3_0"><a xlink:href="../../biom/IrisEyePositionCode/#diagram" xlink:title="A designator of which eye is represented by the image" target="_top">
<polygon fill="#ebebeb" stroke="transparent" points="209.5,-1 209.5,-16 504.5,-16 504.5,-1 209.5,-1"/>
<text text-anchor="start" x="210.5" y="-5.4" font-family="Helvetica,sans-Serif" font-size="12.00" fill="#000000">biom:IrisEyePositionCode: biom:EyePositionCodeType</text>
</a>
</g>
<polygon fill="#000000" stroke="#000000" points="208.5,-16 208.5,-16 505.5,-16 505.5,-16 208.5,-16"/>
<polygon fill="none" stroke="#000000" points="208,0 208,-32 505,-32 505,0 208,0"/>
</g>
<!-- biom:IrisEyePositionAbstract&#45;&gt;SubstitutableElements -->
<g id="edge2" class="edge">
<title>biom:IrisEyePositionAbstract&#45;&gt;SubstitutableElements</title>
<path fill="none" stroke="#000000" d="M356.5,-57.3063C356.5,-48.9972 356.5,-39.7712 356.5,-32.1499"/>
<polygon fill="#000000" stroke="#000000" points="353.0001,-57.4892 356.5,-67.4892 360.0001,-57.4892 353.0001,-57.4892"/>
<text text-anchor="middle" x="347" y="-46.65" font-family="Helvetica,sans-Serif" font-size="12.00" fill="#000000">substitutable for</text>
</g>
<!-- Types -->
<g id="node2" class="node">
<title>Types</title>
<text text-anchor="start" x="2.5" y="-77.4" font-family="Helvetica,sans-Serif" font-weight="bold" font-size="12.00" fill="#000000">Types</text>
<g id="a_node2_1"><a xlink:href="../../biom/IrisImageDetailType/#diagram" xlink:title="A data type for details about a Type&#45;17 iris image record" target="_top">
<polygon fill="#ebebeb" stroke="transparent" points="1.5,-57 1.5,-72 140.5,-72 140.5,-57 1.5,-57"/>
<text text-anchor="start" x="2.5" y="-61.4" font-family="Helvetica,sans-Serif" font-size="12.00" fill="#000000">biom:IrisImageDetailType</text>
</a>
</g>
<polygon fill="#000000" stroke="#000000" points=".5,-72 .5,-72 141.5,-72 141.5,-72 .5,-72"/>
<polygon fill="none" stroke="#000000" points="0,-56 0,-88 141,-88 141,-56 0,-56"/>
</g>
<!-- Types&#45;&gt;biom:IrisEyePositionAbstract -->
<g id="edge1" class="edge">
<title>Types:top&#45;&gt;biom:IrisEyePositionAbstract</title>
<path fill="none" stroke="#000000" d="M140.5,-80C178.1194,-80 219.4242,-80 255.7492,-80"/>
<polygon fill="#000000" stroke="#000000" points="255.8555,-83.5001 265.8555,-80 255.8555,-76.5001 255.8555,-83.5001"/>
<text text-anchor="middle" x="174.5" y="-83.4" font-family="Helvetica,sans-Serif" font-size="12.00" fill="#000000">has&#45;a</text>
</g>
</g>
</svg>
