<?xml version="1.0" encoding="UTF-8" standalone="no"?>
<!DOCTYPE svg PUBLIC "-//W3C//DTD SVG 1.1//EN"
 "http://www.w3.org/Graphics/SVG/1.1/DTD/svg11.dtd">
<!-- Generated by graphviz version 2.40.1 (20161225.0304)
 -->
<!-- Title: graphic Pages: 1 -->
<svg width="633pt" height="45pt"
 viewBox="0.00 0.00 633.00 45.00" xmlns="http://www.w3.org/2000/svg" xmlns:xlink="http://www.w3.org/1999/xlink">
<g id="graph0" class="graph" transform="scale(1 1) rotate(0) translate(4 41)">
<title>graphic</title>
<polygon fill="#ffffff" stroke="transparent" points="-4,4 -4,-41 629,-41 629,4 -4,4"/>
<!-- j:ParoleHearingDecisionImplementationDate -->
<g id="node1" class="node">
<title>j:ParoleHearingDecisionImplementationDate</title>
<text text-anchor="start" x="233" y="-21.4" font-family="Helvetica,sans-Serif" font-weight="bold" font-size="12.00" fill="#000000">j:ParoleHearingDecisionImplementationDate</text>
<polygon fill="none" stroke="#ff0000" stroke-width="5" points="229.5,-14 229.5,-34 490.5,-34 490.5,-14 229.5,-14"/>
</g>
<!-- nc:DateType -->
<g id="node3" class="node">
<title>nc:DateType</title>
<g id="a_node3_0"><a xlink:href="../../nc/DateType/#diagram" xlink:title="A data type for a calendar date." target="_top">
<text text-anchor="start" x="554.5" y="-20.4" font-family="Helvetica,sans-Serif" font-size="12.00" fill="#000000">nc:DateType</text>
</a>
</g>
<polygon fill="none" stroke="#000000" points="552,-15.5 552,-32.5 625,-32.5 625,-15.5 552,-15.5"/>
</g>
<!-- j:ParoleHearingDecisionImplementationDate&#45;&gt;nc:DateType -->
<g id="edge2" class="edge">
<title>j:ParoleHearingDecisionImplementationDate&#45;&gt;nc:DateType</title>
<path fill="none" stroke="#000000" d="M493.25,-24C510.5853,-24 527.3202,-24 541.7973,-24"/>
<polygon fill="#000000" stroke="#000000" points="541.9163,-27.5001 551.9162,-24 541.9162,-20.5001 541.9163,-27.5001"/>
<text text-anchor="middle" x="522.5" y="-27.4" font-family="Helvetica,sans-Serif" font-size="12.00" fill="#000000">type</text>
</g>
<!-- Types -->
<g id="node2" class="node">
<title>Types</title>
<text text-anchor="start" x="2" y="-21.4" font-family="Helvetica,sans-Serif" font-weight="bold" font-size="12.00" fill="#000000">Types</text>
<g id="a_node2_1"><a xlink:href="../../j/ParoleHearingDecisionType/#diagram" xlink:title="A data type for The outcome or disposition of a court parole hearing." target="_top">
<polygon fill="#ebebeb" stroke="transparent" points="1,-1 1,-16 159,-16 159,-1 1,-1"/>
<text text-anchor="start" x="2" y="-5.4" font-family="Helvetica,sans-Serif" font-size="12.00" fill="#000000">j:ParoleHearingDecisionType</text>
</a>
</g>
<polygon fill="#000000" stroke="#000000" points="0,-16 0,-16 160,-16 160,-16 0,-16"/>
<polygon fill="none" stroke="#000000" points="0,0 0,-32 160,-32 160,0 0,0"/>
</g>
<!-- Types&#45;&gt;j:ParoleHearingDecisionImplementationDate -->
<g id="edge1" class="edge">
<title>Types:top&#45;&gt;j:ParoleHearingDecisionImplementationDate</title>
<path fill="none" stroke="#000000" d="M159,-24C177.6468,-24 197.2666,-24 216.6408,-24"/>
<polygon fill="#000000" stroke="#000000" points="216.7435,-27.5001 226.7435,-24 216.7434,-20.5001 216.7435,-27.5001"/>
<text text-anchor="middle" x="193.5" y="-27.4" font-family="Helvetica,sans-Serif" font-size="12.00" fill="#000000">has&#45;a</text>
</g>
</g>
</svg>
