<?xml version="1.0" encoding="UTF-8" standalone="no"?>
<!DOCTYPE svg PUBLIC "-//W3C//DTD SVG 1.1//EN"
 "http://www.w3.org/Graphics/SVG/1.1/DTD/svg11.dtd">
<!-- Generated by graphviz version 2.40.1 (20161225.0304)
 -->
<!-- Title: graphic Pages: 1 -->
<svg width="571pt" height="45pt"
 viewBox="0.00 0.00 571.00 45.00" xmlns="http://www.w3.org/2000/svg" xmlns:xlink="http://www.w3.org/1999/xlink">
<g id="graph0" class="graph" transform="scale(1 1) rotate(0) translate(4 41)">
<title>graphic</title>
<polygon fill="#ffffff" stroke="transparent" points="-4,4 -4,-41 567,-41 567,4 -4,4"/>
<!-- im:ChainOfCustodyItemReceivedDate -->
<g id="node1" class="node">
<title>im:ChainOfCustodyItemReceivedDate</title>
<text text-anchor="start" x="208.5" y="-21.4" font-family="Helvetica,sans-Serif" font-weight="bold" font-size="12.00" fill="#000000">im:ChainOfCustodyItemReceivedDate</text>
<polygon fill="none" stroke="#ff0000" stroke-width="5" points="204.5,-14 204.5,-34 428.5,-34 428.5,-14 204.5,-14"/>
</g>
<!-- nc:DateType -->
<g id="node3" class="node">
<title>nc:DateType</title>
<g id="a_node3_0"><a xlink:href="../../nc/DateType/#diagram" xlink:title="A data type for a calendar date." target="_top">
<text text-anchor="start" x="492.5" y="-20.4" font-family="Helvetica,sans-Serif" font-size="12.00" fill="#000000">nc:DateType</text>
</a>
</g>
<polygon fill="none" stroke="#000000" points="490,-15.5 490,-32.5 563,-32.5 563,-15.5 490,-15.5"/>
</g>
<!-- im:ChainOfCustodyItemReceivedDate&#45;&gt;nc:DateType -->
<g id="edge2" class="edge">
<title>im:ChainOfCustodyItemReceivedDate&#45;&gt;nc:DateType</title>
<path fill="none" stroke="#000000" d="M431.0245,-24C448.17,-24 464.9739,-24 479.5874,-24"/>
<polygon fill="#000000" stroke="#000000" points="479.8148,-27.5001 489.8148,-24 479.8148,-20.5001 479.8148,-27.5001"/>
<text text-anchor="middle" x="460.5" y="-27.4" font-family="Helvetica,sans-Serif" font-size="12.00" fill="#000000">type</text>
</g>
<!-- Types -->
<g id="node2" class="node">
<title>Types</title>
<text text-anchor="start" x="2.5" y="-21.4" font-family="Helvetica,sans-Serif" font-weight="bold" font-size="12.00" fill="#000000">Types</text>
<g id="a_node2_1"><a xlink:href="../../im/ChainOfCustodyType/#diagram" xlink:title="A data type for the information about the possession of evidence which may include information on which United States Immigration official took possession of the evidence and when." target="_top">
<polygon fill="#ebebeb" stroke="transparent" points="1.5,-1 1.5,-16 134.5,-16 134.5,-1 1.5,-1"/>
<text text-anchor="start" x="2.5" y="-5.4" font-family="Helvetica,sans-Serif" font-size="12.00" fill="#000000">im:ChainOfCustodyType</text>
</a>
</g>
<polygon fill="#000000" stroke="#000000" points=".5,-16 .5,-16 135.5,-16 135.5,-16 .5,-16"/>
<polygon fill="none" stroke="#000000" points="0,0 0,-32 135,-32 135,0 0,0"/>
</g>
<!-- Types&#45;&gt;im:ChainOfCustodyItemReceivedDate -->
<g id="edge1" class="edge">
<title>Types:top&#45;&gt;im:ChainOfCustodyItemReceivedDate</title>
<path fill="none" stroke="#000000" d="M134.5,-24C153.0658,-24 172.697,-24 191.9264,-24"/>
<polygon fill="#000000" stroke="#000000" points="191.9378,-27.5001 201.9377,-24 191.9377,-20.5001 191.9378,-27.5001"/>
<text text-anchor="middle" x="168.5" y="-27.4" font-family="Helvetica,sans-Serif" font-size="12.00" fill="#000000">has&#45;a</text>
</g>
</g>
</svg>
