<?xml version="1.0" encoding="UTF-8" standalone="no"?>
<!DOCTYPE svg PUBLIC "-//W3C//DTD SVG 1.1//EN"
 "http://www.w3.org/Graphics/SVG/1.1/DTD/svg11.dtd">
<!-- Generated by graphviz version 2.40.1 (20161225.0304)
 -->
<!-- Title: graphic Pages: 1 -->
<svg width="645pt" height="194pt"
 viewBox="0.00 0.00 645.00 194.00" xmlns="http://www.w3.org/2000/svg" xmlns:xlink="http://www.w3.org/1999/xlink">
<g id="graph0" class="graph" transform="scale(1 1) rotate(0) translate(4 190)">
<title>graphic</title>
<polygon fill="#ffffff" stroke="transparent" points="-4,4 -4,-190 641,-190 641,4 -4,4"/>
<!-- j:ActivityTelephoneNumberAssociationType -->
<g id="node1" class="node">
<title>j:ActivityTelephoneNumberAssociationType</title>
<text text-anchor="start" x="297" y="-65.9" font-family="Helvetica,sans-Serif" font-weight="bold" font-size="12.00" fill="#000000">j:ActivityTelephoneNumberAssociationType</text>
<g id="a_node1_0"><a xlink:href="../../nc/Activity/#diagram" xlink:title="A single or set of related actions, events, or process steps." target="_top">
<polygon fill="#ebebeb" stroke="transparent" points="296,-45.5 296,-60.5 632,-60.5 632,-45.5 296,-45.5"/>
<text text-anchor="start" x="297" y="-49.9" font-family="Helvetica,sans-Serif" font-size="12.00" fill="#000000">nc:Activity: nc:ActivityType [0&#45;n]</text>
</a>
</g>
<g id="a_node1_1"><a xlink:href="../../nc/TelephoneNumber/#diagram" xlink:title="A telephone number for a telecommunication device." target="_top">
<text text-anchor="start" x="297" y="-34.9" font-family="Helvetica,sans-Serif" font-size="12.00" fill="#000000">nc:TelephoneNumber: nc:TelephoneNumberType [0&#45;n]</text>
</a>
</g>
<g id="a_node1_2"><a xlink:href="../../j/ActivityTelephoneNumberAssociationAugmentationPoint/#diagram" xlink:title="An augmentation point for ActivityTelephoneNumberAssociationType." target="_top">
<polygon fill="#ebebeb" stroke="transparent" points="296,-15.5 296,-30.5 632,-30.5 632,-15.5 296,-15.5"/>
<text text-anchor="start" x="297" y="-19.9" font-family="Helvetica,sans-Serif" font-size="12.00" fill="#000000">j:ActivityTelephoneNumberAssociationAugmentationPoint [0&#45;n]</text>
</a>
</g>
<polygon fill="#ff0000" stroke="#ff0000" points="291,-60.5 291,-60.5 637,-60.5 637,-60.5 291,-60.5"/>
<polygon fill="none" stroke="#ff0000" stroke-width="5" points="293.5,-13 293.5,-78 634.5,-78 634.5,-13 293.5,-13"/>
</g>
<!-- Properties -->
<g id="node2" class="node">
<title>Properties</title>
<text text-anchor="start" x="2" y="-65.9" font-family="Helvetica,sans-Serif" font-weight="bold" font-size="12.00" fill="#000000">Properties</text>
<g id="a_node2_3"><a xlink:href="../../j/ActivityTelephoneNumberAssociation/#diagram" xlink:title="A relationship between an activity and a telephone number." target="_top">
<polygon fill="#ebebeb" stroke="transparent" points="1,-45.5 1,-60.5 231,-60.5 231,-45.5 1,-45.5"/>
<text text-anchor="start" x="2" y="-49.9" font-family="Helvetica,sans-Serif" font-size="12.00" fill="#000000">j:ActivityTelephoneNumberAssociation</text>
</a>
</g>
<g id="a_node2_4"><a xlink:href="../../j/IncidentTelephoneNumberAssociation/#diagram" xlink:title="A relationship between an incident and a telephone number." target="_top">
<text text-anchor="start" x="2" y="-34.9" font-family="Helvetica,sans-Serif" font-size="12.00" fill="#000000">j:IncidentTelephoneNumberAssociation</text>
</a>
</g>
<g id="a_node2_5"><a xlink:href="../../j/OffenseTelephoneNumberAssociation/#diagram" xlink:title="A relationship between an offense and a telephone number." target="_top">
<polygon fill="#ebebeb" stroke="transparent" points="1,-15.5 1,-30.5 231,-30.5 231,-15.5 1,-15.5"/>
<text text-anchor="start" x="2" y="-19.9" font-family="Helvetica,sans-Serif" font-size="12.00" fill="#000000">j:OffenseTelephoneNumberAssociation</text>
</a>
</g>
<g id="a_node2_6"><a xlink:href="../../j/ServiceCallTelephoneNumberAssociation/#diagram" xlink:title="A relationship between a service call and a telephone number." target="_top">
<text text-anchor="start" x="2" y="-4.9" font-family="Helvetica,sans-Serif" font-size="12.00" fill="#000000">j:ServiceCallTelephoneNumberAssociation</text>
</a>
</g>
<polygon fill="#000000" stroke="#000000" points="0,-60.5 0,-60.5 232,-60.5 232,-60.5 0,-60.5"/>
<polygon fill="none" stroke="#000000" points="0,0 0,-77 232,-77 232,0 0,0"/>
</g>
<!-- Properties&#45;&gt;j:ActivityTelephoneNumberAssociationType -->
<g id="edge1" class="edge">
<title>Properties:top&#45;&gt;j:ActivityTelephoneNumberAssociationType:top</title>
<path fill="none" stroke="#000000" d="M231,-68.5C256.1649,-68.5 264.8891,-68.5 285.8154,-68.5"/>
<polygon fill="#000000" stroke="#000000" points="286,-72.0001 296,-68.5 286,-65.0001 286,-72.0001"/>
<text text-anchor="middle" x="261.5" y="-71.9" font-family="Helvetica,sans-Serif" font-size="12.00" fill="#000000">type</text>
</g>
<!-- nc:AssociationType -->
<g id="node3" class="node">
<title>nc:AssociationType</title>
<g id="a_node3_7"><a xlink:href="../../nc/AssociationType/#diagram" xlink:title="A data type for an association, connection, relationship, or involvement somehow linking people, things, and/or activities together." target="_top">
<text text-anchor="start" x="412" y="-120.9" font-family="Helvetica,sans-Serif" font-size="12.00" fill="#000000">nc:AssociationType</text>
</a>
</g>
<polygon fill="none" stroke="#000000" points="409.5,-116 409.5,-133 518.5,-133 518.5,-116 409.5,-116"/>
</g>
<!-- nc:AssociationType&#45;&gt;j:ActivityTelephoneNumberAssociationType -->
<g id="edge2" class="edge">
<title>nc:AssociationType&#45;&gt;j:ActivityTelephoneNumberAssociationType</title>
<path fill="none" stroke="#000000" d="M464,-115.9117C464,-109.6025 464,-100.4911 464,-90.9049"/>
<polygon fill="#000000" stroke="#000000" points="467.5001,-90.8408 464,-80.8408 460.5001,-90.8409 467.5001,-90.8408"/>
<text text-anchor="middle" x="454.5" y="-95.15" font-family="Helvetica,sans-Serif" font-size="12.00" fill="#000000">extension</text>
</g>
<!-- structures:AssociationType -->
<g id="node4" class="node">
<title>structures:AssociationType</title>
<g id="a_node4_8"><a xlink:href="../../structures/AssociationType/#diagram" xlink:title="A data type for a relationship between two or more objects, including any properties of that relationship." target="_top">
<text text-anchor="start" x="392" y="-173.9" font-family="Helvetica,sans-Serif" font-size="12.00" fill="#000000">structures:AssociationType</text>
</a>
</g>
<polygon fill="none" stroke="#000000" points="389.5,-169 389.5,-186 538.5,-186 538.5,-169 389.5,-169"/>
</g>
<!-- structures:AssociationType&#45;&gt;nc:AssociationType -->
<g id="edge3" class="edge">
<title>structures:AssociationType&#45;&gt;nc:AssociationType</title>
<path fill="none" stroke="#000000" d="M464,-168.911C464,-162.0124 464,-152.0696 464,-143.34"/>
<polygon fill="#000000" stroke="#000000" points="467.5001,-143.2518 464,-133.2519 460.5001,-143.2519 467.5001,-143.2518"/>
<text text-anchor="middle" x="454.5" y="-147.9" font-family="Helvetica,sans-Serif" font-size="12.00" fill="#000000">extension</text>
</g>
</g>
</svg>
