<?xml version="1.0" encoding="UTF-8" standalone="no"?>
<!DOCTYPE svg PUBLIC "-//W3C//DTD SVG 1.1//EN"
 "http://www.w3.org/Graphics/SVG/1.1/DTD/svg11.dtd">
<!-- Generated by graphviz version 2.40.1 (20161225.0304)
 -->
<!-- Title: graphic Pages: 1 -->
<svg width="570pt" height="45pt"
 viewBox="0.00 0.00 570.00 45.00" xmlns="http://www.w3.org/2000/svg" xmlns:xlink="http://www.w3.org/1999/xlink">
<g id="graph0" class="graph" transform="scale(1 1) rotate(0) translate(4 41)">
<title>graphic</title>
<polygon fill="#ffffff" stroke="transparent" points="-4,4 -4,-41 566,-41 566,4 -4,4"/>
<!-- nc:OrganizationIncorporatedIndicator -->
<g id="node1" class="node">
<title>nc:OrganizationIncorporatedIndicator</title>
<text text-anchor="start" x="188" y="-21.4" font-family="Helvetica,sans-Serif" font-weight="bold" font-size="12.00" fill="#000000">nc:OrganizationIncorporatedIndicator</text>
<polygon fill="none" stroke="#ff0000" stroke-width="5" points="184.5,-14 184.5,-34 407.5,-34 407.5,-14 184.5,-14"/>
</g>
<!-- niem&#45;xs:boolean -->
<g id="node3" class="node">
<title>niem&#45;xs:boolean</title>
<g id="a_node3_0"><a xlink:href="../../niem-xs/boolean/#diagram" xlink:title="A data type for binary&#45;valued logic (true/false)." target="_top">
<text text-anchor="start" x="471.5" y="-20.4" font-family="Helvetica,sans-Serif" font-size="12.00" fill="#000000">niem&#45;xs:boolean</text>
</a>
</g>
<polygon fill="none" stroke="#000000" points="469,-15.5 469,-32.5 562,-32.5 562,-15.5 469,-15.5"/>
</g>
<!-- nc:OrganizationIncorporatedIndicator&#45;&gt;niem&#45;xs:boolean -->
<g id="edge2" class="edge">
<title>nc:OrganizationIncorporatedIndicator&#45;&gt;niem&#45;xs:boolean</title>
<path fill="none" stroke="#000000" d="M410.2503,-24C427.0932,-24 443.7945,-24 458.7639,-24"/>
<polygon fill="#000000" stroke="#000000" points="458.8312,-27.5001 468.8311,-24 458.8311,-20.5001 458.8312,-27.5001"/>
<text text-anchor="middle" x="439.5" y="-27.4" font-family="Helvetica,sans-Serif" font-size="12.00" fill="#000000">type</text>
</g>
<!-- Types -->
<g id="node2" class="node">
<title>Types</title>
<text text-anchor="start" x="2.5" y="-21.4" font-family="Helvetica,sans-Serif" font-weight="bold" font-size="12.00" fill="#000000">Types</text>
<g id="a_node2_1"><a xlink:href="../../nc/OrganizationType/#diagram" xlink:title="A data type for a body of people organized for a particular purpose." target="_top">
<polygon fill="#ebebeb" stroke="transparent" points="1.5,-1 1.5,-16 114.5,-16 114.5,-1 1.5,-1"/>
<text text-anchor="start" x="2.5" y="-5.4" font-family="Helvetica,sans-Serif" font-size="12.00" fill="#000000">nc:OrganizationType</text>
</a>
</g>
<polygon fill="#000000" stroke="#000000" points=".5,-16 .5,-16 115.5,-16 115.5,-16 .5,-16"/>
<polygon fill="none" stroke="#000000" points="0,0 0,-32 115,-32 115,0 0,0"/>
</g>
<!-- Types&#45;&gt;nc:OrganizationIncorporatedIndicator -->
<g id="edge1" class="edge">
<title>Types:top&#45;&gt;nc:OrganizationIncorporatedIndicator</title>
<path fill="none" stroke="#000000" d="M114.5,-24C132.9299,-24 152.4125,-24 171.5047,-24"/>
<polygon fill="#000000" stroke="#000000" points="171.7525,-27.5001 181.7525,-24 171.7524,-20.5001 171.7525,-27.5001"/>
<text text-anchor="middle" x="148.5" y="-27.4" font-family="Helvetica,sans-Serif" font-size="12.00" fill="#000000">has&#45;a</text>
</g>
</g>
</svg>
