<?xml version="1.0" encoding="UTF-8" standalone="no"?>
<!DOCTYPE svg PUBLIC "-//W3C//DTD SVG 1.1//EN"
 "http://www.w3.org/Graphics/SVG/1.1/DTD/svg11.dtd">
<!-- Generated by graphviz version 2.40.1 (20161225.0304)
 -->
<!-- Title: graphic Pages: 1 -->
<svg width="553pt" height="45pt"
 viewBox="0.00 0.00 553.00 45.00" xmlns="http://www.w3.org/2000/svg" xmlns:xlink="http://www.w3.org/1999/xlink">
<g id="graph0" class="graph" transform="scale(1 1) rotate(0) translate(4 41)">
<title>graphic</title>
<polygon fill="#ffffff" stroke="transparent" points="-4,4 -4,-41 549,-41 549,4 -4,4"/>
<!-- biom:BiometricCaptureMetricAugmentationPoint -->
<g id="node1" class="node">
<title>biom:BiometricCaptureMetricAugmentationPoint</title>
<text text-anchor="start" x="259" y="-21.4" font-family="Helvetica,sans-Serif" font-weight="bold" font-size="12.00" fill="#000000">biom:BiometricCaptureMetricAugmentationPoint</text>
<polygon fill="none" stroke="#ff0000" stroke-width="5" points="255.5,-14 255.5,-34 542.5,-34 542.5,-14 255.5,-14"/>
</g>
<!-- Types -->
<g id="node2" class="node">
<title>Types</title>
<text text-anchor="start" x="2" y="-21.4" font-family="Helvetica,sans-Serif" font-weight="bold" font-size="12.00" fill="#000000">Types</text>
<g id="a_node2_0"><a xlink:href="../../biom/BiometricCaptureMetricType/#diagram" xlink:title="A data type for representing Biometric Quality Metrics for the captured biometric image" target="_top">
<polygon fill="#ebebeb" stroke="transparent" points="1,-1 1,-16 185,-16 185,-1 1,-1"/>
<text text-anchor="start" x="2" y="-5.4" font-family="Helvetica,sans-Serif" font-size="12.00" fill="#000000">biom:BiometricCaptureMetricType</text>
</a>
</g>
<polygon fill="#000000" stroke="#000000" points="0,-16 0,-16 186,-16 186,-16 0,-16"/>
<polygon fill="none" stroke="#000000" points="0,0 0,-32 186,-32 186,0 0,0"/>
</g>
<!-- Types&#45;&gt;biom:BiometricCaptureMetricAugmentationPoint -->
<g id="edge1" class="edge">
<title>Types:top&#45;&gt;biom:BiometricCaptureMetricAugmentationPoint</title>
<path fill="none" stroke="#000000" d="M185,-24C203.6664,-24 223.2486,-24 242.6682,-24"/>
<polygon fill="#000000" stroke="#000000" points="242.8029,-27.5001 252.8029,-24 242.8029,-20.5001 242.8029,-27.5001"/>
<text text-anchor="middle" x="219.5" y="-27.4" font-family="Helvetica,sans-Serif" font-size="12.00" fill="#000000">has&#45;a</text>
</g>
</g>
</svg>
