<?xml version="1.0" encoding="UTF-8" standalone="no"?>
<!DOCTYPE svg PUBLIC "-//W3C//DTD SVG 1.1//EN"
 "http://www.w3.org/Graphics/SVG/1.1/DTD/svg11.dtd">
<!-- Generated by graphviz version 2.40.1 (20161225.0304)
 -->
<!-- Title: graphic Pages: 1 -->
<svg width="647pt" height="98pt"
 viewBox="0.00 0.00 647.00 97.50" xmlns="http://www.w3.org/2000/svg" xmlns:xlink="http://www.w3.org/1999/xlink">
<g id="graph0" class="graph" transform="scale(1 1) rotate(0) translate(4 93.5)">
<title>graphic</title>
<polygon fill="#ffffff" stroke="transparent" points="-4,4 -4,-93.5 643,-93.5 643,4 -4,4"/>
<!-- cbrn:RadMeasurement -->
<g id="node1" class="node">
<title>cbrn:RadMeasurement</title>
<text text-anchor="start" x="253.5" y="-21.4" font-family="Helvetica,sans-Serif" font-weight="bold" font-size="12.00" fill="#000000">cbrn:RadMeasurement</text>
<polygon fill="none" stroke="#ff0000" stroke-width="5" points="249.5,-14 249.5,-34 387.5,-34 387.5,-14 249.5,-14"/>
</g>
<!-- cbrn:RadMeasurementType -->
<g id="node4" class="node">
<title>cbrn:RadMeasurementType</title>
<g id="a_node4_0"><a xlink:href="../../cbrn/RadMeasurementType/#diagram" xlink:title="A data type for a set of radiation measurements that were taken in the same time period." target="_top">
<text text-anchor="start" x="488.5" y="-20.4" font-family="Helvetica,sans-Serif" font-size="12.00" fill="#000000">cbrn:RadMeasurementType</text>
</a>
</g>
<polygon fill="none" stroke="#000000" points="486,-15.5 486,-32.5 639,-32.5 639,-15.5 486,-15.5"/>
</g>
<!-- cbrn:RadMeasurement&#45;&gt;cbrn:RadMeasurementType -->
<g id="edge3" class="edge">
<title>cbrn:RadMeasurement&#45;&gt;cbrn:RadMeasurementType</title>
<path fill="none" stroke="#000000" d="M390.0594,-24C416.8607,-24 447.6037,-24 475.64,-24"/>
<polygon fill="#000000" stroke="#000000" points="475.8344,-27.5001 485.8344,-24 475.8344,-20.5001 475.8344,-27.5001"/>
<text text-anchor="middle" x="456.5" y="-27.4" font-family="Helvetica,sans-Serif" font-size="12.00" fill="#000000">type</text>
</g>
<!-- Types -->
<g id="node2" class="node">
<title>Types</title>
<text text-anchor="start" x="2.5" y="-21.4" font-family="Helvetica,sans-Serif" font-weight="bold" font-size="12.00" fill="#000000">Types</text>
<g id="a_node2_1"><a xlink:href="../../cbrn/AnalysisResultsType/#diagram" xlink:title="A data type to provide information on the results of a radiation data analysis." target="_top">
<polygon fill="#ebebeb" stroke="transparent" points="1.5,-1 1.5,-16 142.5,-16 142.5,-1 1.5,-1"/>
<text text-anchor="start" x="2.5" y="-5.4" font-family="Helvetica,sans-Serif" font-size="12.00" fill="#000000">cbrn:AnalysisResultsType</text>
</a>
</g>
<polygon fill="#000000" stroke="#000000" points=".5,-16 .5,-16 143.5,-16 143.5,-16 .5,-16"/>
<polygon fill="none" stroke="#000000" points="0,0 0,-32 143,-32 143,0 0,0"/>
</g>
<!-- Types&#45;&gt;cbrn:RadMeasurement -->
<g id="edge1" class="edge">
<title>Types:top&#45;&gt;cbrn:RadMeasurement</title>
<path fill="none" stroke="#000000" d="M142.5,-24C173.2495,-24 207.021,-24 236.6867,-24"/>
<polygon fill="#000000" stroke="#000000" points="236.997,-27.5001 246.9969,-24 236.9969,-20.5001 236.997,-27.5001"/>
<text text-anchor="middle" x="176.5" y="-27.4" font-family="Helvetica,sans-Serif" font-size="12.00" fill="#000000">has&#45;a</text>
</g>
<!-- SubstitutionGroup -->
<g id="node3" class="node">
<title>SubstitutionGroup</title>
<g id="a_node3_2"><a xlink:href="../../cbrn/RadInstrumentDataChoiceAbstract/#diagram" xlink:title="A data concept for a variant of data that is generated by the rad instrument." target="_top">
<text text-anchor="start" x="212.5" y="-77.4" font-family="Helvetica,sans-Serif" font-size="12.00" fill="#000000">cbrn:RadInstrumentDataChoiceAbstract</text>
</a>
</g>
<polygon fill="none" stroke="#000000" points="210,-72.5 210,-89.5 427,-89.5 427,-72.5 210,-72.5"/>
</g>
<!-- SubstitutionGroup&#45;&gt;cbrn:RadMeasurement -->
<g id="edge2" class="edge">
<title>SubstitutionGroup&#45;&gt;cbrn:RadMeasurement</title>
<path fill="none" stroke="#000000" d="M318.5,-62.4163C318.5,-53.9809 318.5,-44.2214 318.5,-36.6501"/>
<polygon fill="#000000" stroke="#000000" points="315.0001,-62.4472 318.5,-72.4473 322.0001,-62.4473 315.0001,-62.4472"/>
<text text-anchor="middle" x="309" y="-51.4" font-family="Helvetica,sans-Serif" font-size="12.00" fill="#000000">substitution group</text>
</g>
</g>
</svg>
