<?xml version="1.0" encoding="UTF-8" standalone="no"?>
<!DOCTYPE svg PUBLIC "-//W3C//DTD SVG 1.1//EN"
 "http://www.w3.org/Graphics/SVG/1.1/DTD/svg11.dtd">
<!-- Generated by graphviz version 2.40.1 (20161225.0304)
 -->
<!-- Title: graphic Pages: 1 -->
<svg width="642pt" height="45pt"
 viewBox="0.00 0.00 642.00 45.00" xmlns="http://www.w3.org/2000/svg" xmlns:xlink="http://www.w3.org/1999/xlink">
<g id="graph0" class="graph" transform="scale(1 1) rotate(0) translate(4 41)">
<title>graphic</title>
<polygon fill="#ffffff" stroke="transparent" points="-4,4 -4,-41 638,-41 638,4 -4,4"/>
<!-- j:SupervisionViolationSupplementalIndicator -->
<g id="node1" class="node">
<title>j:SupervisionViolationSupplementalIndicator</title>
<text text-anchor="start" x="219.5" y="-21.4" font-family="Helvetica,sans-Serif" font-weight="bold" font-size="12.00" fill="#000000">j:SupervisionViolationSupplementalIndicator</text>
<polygon fill="none" stroke="#ff0000" stroke-width="5" points="215.5,-14 215.5,-34 479.5,-34 479.5,-14 215.5,-14"/>
</g>
<!-- niem&#45;xs:boolean -->
<g id="node3" class="node">
<title>niem&#45;xs:boolean</title>
<g id="a_node3_0"><a xlink:href="../../niem-xs/boolean/#diagram" xlink:title="A data type for binary&#45;valued logic (true/false)." target="_top">
<text text-anchor="start" x="543.5" y="-20.4" font-family="Helvetica,sans-Serif" font-size="12.00" fill="#000000">niem&#45;xs:boolean</text>
</a>
</g>
<polygon fill="none" stroke="#000000" points="541,-15.5 541,-32.5 634,-32.5 634,-15.5 541,-15.5"/>
</g>
<!-- j:SupervisionViolationSupplementalIndicator&#45;&gt;niem&#45;xs:boolean -->
<g id="edge2" class="edge">
<title>j:SupervisionViolationSupplementalIndicator&#45;&gt;niem&#45;xs:boolean</title>
<path fill="none" stroke="#000000" d="M482.2325,-24C499.1708,-24 515.7116,-24 530.4772,-24"/>
<polygon fill="#000000" stroke="#000000" points="530.8954,-27.5001 540.8954,-24 530.8953,-20.5001 530.8954,-27.5001"/>
<text text-anchor="middle" x="511.5" y="-27.4" font-family="Helvetica,sans-Serif" font-size="12.00" fill="#000000">type</text>
</g>
<!-- Types -->
<g id="node2" class="node">
<title>Types</title>
<text text-anchor="start" x="2" y="-21.4" font-family="Helvetica,sans-Serif" font-weight="bold" font-size="12.00" fill="#000000">Types</text>
<g id="a_node2_1"><a xlink:href="../../j/SupervisionViolationType/#diagram" xlink:title="A data type for a set of details about a subject&#39;s supervision violation." target="_top">
<polygon fill="#ebebeb" stroke="transparent" points="1,-1 1,-16 145,-16 145,-1 1,-1"/>
<text text-anchor="start" x="2" y="-5.4" font-family="Helvetica,sans-Serif" font-size="12.00" fill="#000000">j:SupervisionViolationType</text>
</a>
</g>
<polygon fill="#000000" stroke="#000000" points="0,-16 0,-16 146,-16 146,-16 0,-16"/>
<polygon fill="none" stroke="#000000" points="0,0 0,-32 146,-32 146,0 0,0"/>
</g>
<!-- Types&#45;&gt;j:SupervisionViolationSupplementalIndicator -->
<g id="edge1" class="edge">
<title>Types:top&#45;&gt;j:SupervisionViolationSupplementalIndicator</title>
<path fill="none" stroke="#000000" d="M145,-24C163.7111,-24 183.3947,-24 202.8377,-24"/>
<polygon fill="#000000" stroke="#000000" points="202.9768,-27.5001 212.9768,-24 202.9767,-20.5001 202.9768,-27.5001"/>
<text text-anchor="middle" x="179.5" y="-27.4" font-family="Helvetica,sans-Serif" font-size="12.00" fill="#000000">has&#45;a</text>
</g>
</g>
</svg>
