<?xml version="1.0" encoding="UTF-8" standalone="no"?>
<!DOCTYPE svg PUBLIC "-//W3C//DTD SVG 1.1//EN"
 "http://www.w3.org/Graphics/SVG/1.1/DTD/svg11.dtd">
<!-- Generated by graphviz version 2.40.1 (20161225.0304)
 -->
<!-- Title: graphic Pages: 1 -->
<svg width="653pt" height="45pt"
 viewBox="0.00 0.00 653.00 45.00" xmlns="http://www.w3.org/2000/svg" xmlns:xlink="http://www.w3.org/1999/xlink">
<g id="graph0" class="graph" transform="scale(1 1) rotate(0) translate(4 41)">
<title>graphic</title>
<polygon fill="#ffffff" stroke="transparent" points="-4,4 -4,-41 649,-41 649,4 -4,4"/>
<!-- j:TelephoneNumberDayIndicator -->
<g id="node1" class="node">
<title>j:TelephoneNumberDayIndicator</title>
<text text-anchor="start" x="301" y="-21.4" font-family="Helvetica,sans-Serif" font-weight="bold" font-size="12.00" fill="#000000">j:TelephoneNumberDayIndicator</text>
<polygon fill="none" stroke="#ff0000" stroke-width="5" points="297.5,-14 297.5,-34 490.5,-34 490.5,-14 297.5,-14"/>
</g>
<!-- niem&#45;xs:boolean -->
<g id="node3" class="node">
<title>niem&#45;xs:boolean</title>
<g id="a_node3_0"><a xlink:href="../../niem-xs/boolean/#diagram" xlink:title="A data type for binary&#45;valued logic (true/false)." target="_top">
<text text-anchor="start" x="554.5" y="-20.4" font-family="Helvetica,sans-Serif" font-size="12.00" fill="#000000">niem&#45;xs:boolean</text>
</a>
</g>
<polygon fill="none" stroke="#000000" points="552,-15.5 552,-32.5 645,-32.5 645,-15.5 552,-15.5"/>
</g>
<!-- j:TelephoneNumberDayIndicator&#45;&gt;niem&#45;xs:boolean -->
<g id="edge2" class="edge">
<title>j:TelephoneNumberDayIndicator&#45;&gt;niem&#45;xs:boolean</title>
<path fill="none" stroke="#000000" d="M493.2548,-24C509.8743,-24 526.5994,-24 541.6718,-24"/>
<polygon fill="#000000" stroke="#000000" points="541.8209,-27.5001 551.8209,-24 541.8209,-20.5001 541.8209,-27.5001"/>
<text text-anchor="middle" x="522.5" y="-27.4" font-family="Helvetica,sans-Serif" font-size="12.00" fill="#000000">type</text>
</g>
<!-- Types -->
<g id="node2" class="node">
<title>Types</title>
<text text-anchor="start" x="2" y="-21.4" font-family="Helvetica,sans-Serif" font-weight="bold" font-size="12.00" fill="#000000">Types</text>
<g id="a_node2_1"><a xlink:href="../../j/EntityTelephoneNumberAssociationType/#diagram" xlink:title="A data type for a relationship between an entity (person or organization) and a telephone number." target="_top">
<polygon fill="#ebebeb" stroke="transparent" points="1,-1 1,-16 227,-16 227,-1 1,-1"/>
<text text-anchor="start" x="2" y="-5.4" font-family="Helvetica,sans-Serif" font-size="12.00" fill="#000000">j:EntityTelephoneNumberAssociationType</text>
</a>
</g>
<polygon fill="#000000" stroke="#000000" points="0,-16 0,-16 228,-16 228,-16 0,-16"/>
<polygon fill="none" stroke="#000000" points="0,0 0,-32 228,-32 228,0 0,0"/>
</g>
<!-- Types&#45;&gt;j:TelephoneNumberDayIndicator -->
<g id="edge1" class="edge">
<title>Types:top&#45;&gt;j:TelephoneNumberDayIndicator</title>
<path fill="none" stroke="#000000" d="M227,-24C245.555,-24 265.2696,-24 284.4045,-24"/>
<polygon fill="#000000" stroke="#000000" points="284.6552,-27.5001 294.6552,-24 284.6551,-20.5001 284.6552,-27.5001"/>
<text text-anchor="middle" x="261.5" y="-27.4" font-family="Helvetica,sans-Serif" font-size="12.00" fill="#000000">has&#45;a</text>
</g>
</g>
</svg>
