<?xml version="1.0" encoding="UTF-8" standalone="no"?>
<!DOCTYPE svg PUBLIC "-//W3C//DTD SVG 1.1//EN"
 "http://www.w3.org/Graphics/SVG/1.1/DTD/svg11.dtd">
<!-- Generated by graphviz version 2.40.1 (20161225.0304)
 -->
<!-- Title: graphic Pages: 1 -->
<svg width="522pt" height="45pt"
 viewBox="0.00 0.00 522.00 45.00" xmlns="http://www.w3.org/2000/svg" xmlns:xlink="http://www.w3.org/1999/xlink">
<g id="graph0" class="graph" transform="scale(1 1) rotate(0) translate(4 41)">
<title>graphic</title>
<polygon fill="#ffffff" stroke="transparent" points="-4,4 -4,-41 518,-41 518,4 -4,4"/>
<!-- j:SubjectDisciplinaryAction -->
<g id="node1" class="node">
<title>j:SubjectDisciplinaryAction</title>
<text text-anchor="start" x="150.5" y="-21.4" font-family="Helvetica,sans-Serif" font-weight="bold" font-size="12.00" fill="#000000">j:SubjectDisciplinaryAction</text>
<polygon fill="none" stroke="#ff0000" stroke-width="5" points="146.5,-14 146.5,-34 310.5,-34 310.5,-14 146.5,-14"/>
</g>
<!-- nc:DisciplinaryActionType -->
<g id="node3" class="node">
<title>nc:DisciplinaryActionType</title>
<g id="a_node3_0"><a xlink:href="../../nc/DisciplinaryActionType/#diagram" xlink:title="A data type for an activity assigned to a person for the purpose of self&#45;improvement, punishment, or restitution." target="_top">
<text text-anchor="start" x="374" y="-20.4" font-family="Helvetica,sans-Serif" font-size="12.00" fill="#000000">nc:DisciplinaryActionType</text>
</a>
</g>
<polygon fill="none" stroke="#000000" points="372,-15.5 372,-32.5 514,-32.5 514,-15.5 372,-15.5"/>
</g>
<!-- j:SubjectDisciplinaryAction&#45;&gt;nc:DisciplinaryActionType -->
<g id="edge2" class="edge">
<title>j:SubjectDisciplinaryAction&#45;&gt;nc:DisciplinaryActionType</title>
<path fill="none" stroke="#000000" d="M313.2761,-24C329.2221,-24 345.8622,-24 361.6991,-24"/>
<polygon fill="#000000" stroke="#000000" points="361.9749,-27.5001 371.9749,-24 361.9749,-20.5001 361.9749,-27.5001"/>
<text text-anchor="middle" x="342.5" y="-27.4" font-family="Helvetica,sans-Serif" font-size="12.00" fill="#000000">type</text>
</g>
<!-- Types -->
<g id="node2" class="node">
<title>Types</title>
<text text-anchor="start" x="2.5" y="-21.4" font-family="Helvetica,sans-Serif" font-weight="bold" font-size="12.00" fill="#000000">Types</text>
<g id="a_node2_1"><a xlink:href="../../j/SubjectType/#diagram" xlink:title="A data type for a person or organization that is involved or suspected of being involved in a violation of a criminal statute, ordinance or rule." target="_top">
<polygon fill="#ebebeb" stroke="transparent" points="1.5,-1 1.5,-16 76.5,-16 76.5,-1 1.5,-1"/>
<text text-anchor="start" x="2.5" y="-5.4" font-family="Helvetica,sans-Serif" font-size="12.00" fill="#000000">j:SubjectType</text>
</a>
</g>
<polygon fill="#000000" stroke="#000000" points=".5,-16 .5,-16 77.5,-16 77.5,-16 .5,-16"/>
<polygon fill="none" stroke="#000000" points="0,0 0,-32 77,-32 77,0 0,0"/>
</g>
<!-- Types&#45;&gt;j:SubjectDisciplinaryAction -->
<g id="edge1" class="edge">
<title>Types:top&#45;&gt;j:SubjectDisciplinaryAction</title>
<path fill="none" stroke="#000000" d="M76.5,-24C94.9542,-24 114.6687,-24 133.5778,-24"/>
<polygon fill="#000000" stroke="#000000" points="133.683,-27.5001 143.683,-24 133.6829,-20.5001 133.683,-27.5001"/>
<text text-anchor="middle" x="110.5" y="-27.4" font-family="Helvetica,sans-Serif" font-size="12.00" fill="#000000">has&#45;a</text>
</g>
</g>
</svg>
