<?xml version="1.0" encoding="UTF-8" standalone="no"?>
<!DOCTYPE svg PUBLIC "-//W3C//DTD SVG 1.1//EN"
 "http://www.w3.org/Graphics/SVG/1.1/DTD/svg11.dtd">
<!-- Generated by graphviz version 2.40.1 (20161225.0304)
 -->
<!-- Title: graphic Pages: 1 -->
<svg width="688pt" height="45pt"
 viewBox="0.00 0.00 688.00 45.00" xmlns="http://www.w3.org/2000/svg" xmlns:xlink="http://www.w3.org/1999/xlink">
<g id="graph0" class="graph" transform="scale(1 1) rotate(0) translate(4 41)">
<title>graphic</title>
<polygon fill="#ffffff" stroke="transparent" points="-4,4 -4,-41 684,-41 684,4 -4,4"/>
<!-- scr:ActivityProcessClassification -->
<g id="node1" class="node">
<title>scr:ActivityProcessClassification</title>
<text text-anchor="start" x="221.5" y="-21.4" font-family="Helvetica,sans-Serif" font-weight="bold" font-size="12.00" fill="#000000">scr:ActivityProcessClassification</text>
<polygon fill="none" stroke="#ff0000" stroke-width="5" points="217.5,-14 217.5,-34 415.5,-34 415.5,-14 217.5,-14"/>
</g>
<!-- scr:ActivityProcessClassificationType -->
<g id="node3" class="node">
<title>scr:ActivityProcessClassificationType</title>
<g id="a_node3_0"><a xlink:href="../../scr/ActivityProcessClassificationType/#diagram" xlink:title="A data type describing a kind of Screening activity process." target="_top">
<text text-anchor="start" x="479.5" y="-20.4" font-family="Helvetica,sans-Serif" font-size="12.00" fill="#000000">scr:ActivityProcessClassificationType</text>
</a>
</g>
<polygon fill="none" stroke="#000000" points="477,-15.5 477,-32.5 680,-32.5 680,-15.5 477,-15.5"/>
</g>
<!-- scr:ActivityProcessClassification&#45;&gt;scr:ActivityProcessClassificationType -->
<g id="edge2" class="edge">
<title>scr:ActivityProcessClassification&#45;&gt;scr:ActivityProcessClassificationType</title>
<path fill="none" stroke="#000000" d="M418.171,-24C434.1328,-24 450.707,-24 466.8783,-24"/>
<polygon fill="#000000" stroke="#000000" points="466.8861,-27.5001 476.8861,-24 466.8861,-20.5001 466.8861,-27.5001"/>
<text text-anchor="middle" x="447.5" y="-27.4" font-family="Helvetica,sans-Serif" font-size="12.00" fill="#000000">type</text>
</g>
<!-- Types -->
<g id="node2" class="node">
<title>Types</title>
<text text-anchor="start" x="2" y="-21.4" font-family="Helvetica,sans-Serif" font-weight="bold" font-size="12.00" fill="#000000">Types</text>
<g id="a_node2_1"><a xlink:href="../../scr/ScreeningProcessType/#diagram" xlink:title="A data type that specifies the service requester transaction performance metrics information." target="_top">
<polygon fill="#ebebeb" stroke="transparent" points="1,-1 1,-16 147,-16 147,-1 1,-1"/>
<text text-anchor="start" x="2" y="-5.4" font-family="Helvetica,sans-Serif" font-size="12.00" fill="#000000">scr:ScreeningProcessType</text>
</a>
</g>
<polygon fill="#000000" stroke="#000000" points="0,-16 0,-16 148,-16 148,-16 0,-16"/>
<polygon fill="none" stroke="#000000" points="0,0 0,-32 148,-32 148,0 0,0"/>
</g>
<!-- Types&#45;&gt;scr:ActivityProcessClassification -->
<g id="edge1" class="edge">
<title>Types:top&#45;&gt;scr:ActivityProcessClassification</title>
<path fill="none" stroke="#000000" d="M147,-24C165.669,-24 185.4945,-24 204.7569,-24"/>
<polygon fill="#000000" stroke="#000000" points="204.7695,-27.5001 214.7695,-24 204.7695,-20.5001 204.7695,-27.5001"/>
<text text-anchor="middle" x="181.5" y="-27.4" font-family="Helvetica,sans-Serif" font-size="12.00" fill="#000000">has&#45;a</text>
</g>
</g>
</svg>
