<?xml version="1.0" encoding="UTF-8" standalone="no"?>
<!DOCTYPE svg PUBLIC "-//W3C//DTD SVG 1.1//EN"
 "http://www.w3.org/Graphics/SVG/1.1/DTD/svg11.dtd">
<!-- Generated by graphviz version 2.40.1 (20161225.0304)
 -->
<!-- Title: graphic Pages: 1 -->
<svg width="986pt" height="131pt"
 viewBox="0.00 0.00 986.00 130.50" xmlns="http://www.w3.org/2000/svg" xmlns:xlink="http://www.w3.org/1999/xlink">
<g id="graph0" class="graph" transform="scale(1 1) rotate(0) translate(4 126.5)">
<title>graphic</title>
<polygon fill="#ffffff" stroke="transparent" points="-4,4 -4,-126.5 982,-126.5 982,4 -4,4"/>
<!-- m:CrewNationalityCountType -->
<g id="node1" class="node">
<title>m:CrewNationalityCountType</title>
<text text-anchor="start" x="199.5" y="-55.4" font-family="Helvetica,sans-Serif" font-weight="bold" font-size="12.00" fill="#000000">m:CrewNationalityCountType</text>
<g id="a_node1_0"><a xlink:href="../../m/CrewNationalityAbstract/#diagram" xlink:title="A data concept for a nationality of one or more crew members on a vessel" target="_top">
<polygon fill="#ebebeb" stroke="transparent" points="198.5,-35 198.5,-50 527.5,-50 527.5,-35 198.5,-35"/>
<text text-anchor="start" x="199.5" y="-39.4" font-family="Helvetica,sans-Serif" font-size="12.00" fill="#000000">m:CrewNationalityAbstract [0&#45;n]</text>
</a>
</g>
<g id="a_node1_1"><a xlink:href="../../m/CrewNationalityQuantity/#diagram" xlink:title="A count of crew members of a particular nationality" target="_top">
<text text-anchor="start" x="199.5" y="-24.4" font-family="Helvetica,sans-Serif" font-size="12.00" fill="#000000">m:CrewNationalityQuantity: niem&#45;xs:nonNegativeInteger [0&#45;n]</text>
</a>
</g>
<g id="a_node1_2"><a xlink:href="../../m/CrewNationalityCountAugmentationPoint/#diagram" xlink:title="An augmentation point for CrewNationalityCountType." target="_top">
<polygon fill="#ebebeb" stroke="transparent" points="198.5,-5 198.5,-20 527.5,-20 527.5,-5 198.5,-5"/>
<text text-anchor="start" x="199.5" y="-9.4" font-family="Helvetica,sans-Serif" font-size="12.00" fill="#000000">m:CrewNationalityCountAugmentationPoint [0&#45;n]</text>
</a>
</g>
<polygon fill="#ff0000" stroke="#ff0000" points="193.5,-50 193.5,-50 532.5,-50 532.5,-50 193.5,-50"/>
<polygon fill="none" stroke="#ff0000" stroke-width="5" points="195.5,-2.5 195.5,-67.5 529.5,-67.5 529.5,-2.5 195.5,-2.5"/>
</g>
<!-- subst_d9e3313 -->
<g id="node2" class="node">
<title>subst_d9e3313</title>
<g id="a_node2_3"><a xlink:href="../../m/CrewNationalityAbstract/#diagram" xlink:title="&lt;TABLE&gt;" target="_top">
<text text-anchor="start" x="571.5" y="-40.4" font-family="Helvetica,sans-Serif" font-weight="bold" font-size="12.00" fill="#000000">Substitution group m:CrewNationalityAbstract</text>
</a>
</g>
<g id="a_node2_4"><a xlink:href="../../m/CrewNationalityISO3166Alpha2Code/#diagram" xlink:title="A nationality of a crew member or members" target="_top">
<polygon fill="#ebebeb" stroke="transparent" points="570.5,-20 570.5,-35 977.5,-35 977.5,-20 570.5,-20"/>
<text text-anchor="start" x="571.5" y="-24.4" font-family="Helvetica,sans-Serif" font-size="12.00" fill="#000000">m:CrewNationalityISO3166Alpha2Code: iso_3166:CountryAlpha2CodeType</text>
</a>
</g>
<polygon fill="#000000" stroke="#000000" points="569.5,-35 569.5,-35 978.5,-35 978.5,-35 569.5,-35"/>
<polygon fill="none" stroke="#000000" points="569,-19 569,-51 978,-51 978,-19 569,-19"/>
</g>
<!-- m:CrewNationalityCountType&#45;&gt;subst_d9e3313 -->
<g id="edge1" class="edge">
<title>m:CrewNationalityCountType:e&#45;&gt;subst_d9e3313:w</title>
<path fill="none" stroke="#000000" d="M537.6119,-43C549.1435,-43 555.2708,-43 570.5,-43"/>
<polygon fill="#000000" stroke="#000000" points="537.5,-39.5001 527.5,-43 537.5,-46.5001 537.5,-39.5001"/>
</g>
<!-- Properties -->
<g id="node3" class="node">
<title>Properties</title>
<text text-anchor="start" x="2" y="-55.4" font-family="Helvetica,sans-Serif" font-weight="bold" font-size="12.00" fill="#000000">Properties</text>
<g id="a_node3_5"><a xlink:href="../../m/CrewNationalityCount/#diagram" xlink:title="A count of the number of crew members on a vessel with a particular nationality" target="_top">
<polygon fill="#ebebeb" stroke="transparent" points="1,-35 1,-50 133,-50 133,-35 1,-35"/>
<text text-anchor="start" x="2" y="-39.4" font-family="Helvetica,sans-Serif" font-size="12.00" fill="#000000">m:CrewNationalityCount</text>
</a>
</g>
<polygon fill="#000000" stroke="#000000" points="0,-50 0,-50 134,-50 134,-50 0,-50"/>
<polygon fill="none" stroke="#000000" points="0,-34 0,-66 134,-66 134,-34 0,-34"/>
</g>
<!-- Properties&#45;&gt;m:CrewNationalityCountType -->
<g id="edge2" class="edge">
<title>Properties:top&#45;&gt;m:CrewNationalityCountType:top</title>
<path fill="none" stroke="#000000" d="M133,-58C158.3585,-58 167.1498,-58 188.2371,-58"/>
<polygon fill="#000000" stroke="#000000" points="188.5,-61.5001 198.5,-58 188.5,-54.5001 188.5,-61.5001"/>
<text text-anchor="middle" x="163.5" y="-61.4" font-family="Helvetica,sans-Serif" font-size="12.00" fill="#000000">type</text>
</g>
<!-- structures:ObjectType -->
<g id="node4" class="node">
<title>structures:ObjectType</title>
<g id="a_node4_6"><a xlink:href="../../structures/ObjectType/#diagram" xlink:title="A data type for a thing with its own lifespan that has some existence." target="_top">
<text text-anchor="start" x="303.5" y="-110.4" font-family="Helvetica,sans-Serif" font-size="12.00" fill="#000000">structures:ObjectType</text>
</a>
</g>
<polygon fill="none" stroke="#000000" points="301.5,-105.5 301.5,-122.5 423.5,-122.5 423.5,-105.5 301.5,-105.5"/>
</g>
<!-- structures:ObjectType&#45;&gt;m:CrewNationalityCountType -->
<g id="edge3" class="edge">
<title>structures:ObjectType&#45;&gt;m:CrewNationalityCountType</title>
<path fill="none" stroke="#000000" d="M362.5,-105.4117C362.5,-99.1025 362.5,-89.9911 362.5,-80.4049"/>
<polygon fill="#000000" stroke="#000000" points="366.0001,-80.3408 362.5,-70.3408 359.0001,-80.3409 366.0001,-80.3408"/>
<text text-anchor="middle" x="353" y="-84.65" font-family="Helvetica,sans-Serif" font-size="12.00" fill="#000000">extension</text>
</g>
</g>
</svg>
