<?xml version="1.0" encoding="UTF-8" standalone="no"?>
<!DOCTYPE svg PUBLIC "-//W3C//DTD SVG 1.1//EN"
 "http://www.w3.org/Graphics/SVG/1.1/DTD/svg11.dtd">
<!-- Generated by graphviz version 2.40.1 (20161225.0304)
 -->
<!-- Title: graphic Pages: 1 -->
<svg width="647pt" height="45pt"
 viewBox="0.00 0.00 647.00 45.00" xmlns="http://www.w3.org/2000/svg" xmlns:xlink="http://www.w3.org/1999/xlink">
<g id="graph0" class="graph" transform="scale(1 1) rotate(0) translate(4 41)">
<title>graphic</title>
<polygon fill="#ffffff" stroke="transparent" points="-4,4 -4,-41 643,-41 643,4 -4,4"/>
<!-- j:ConveyanceJointlyRegisteredIndicator -->
<g id="node1" class="node">
<title>j:ConveyanceJointlyRegisteredIndicator</title>
<text text-anchor="start" x="251" y="-21.4" font-family="Helvetica,sans-Serif" font-weight="bold" font-size="12.00" fill="#000000">j:ConveyanceJointlyRegisteredIndicator</text>
<polygon fill="none" stroke="#ff0000" stroke-width="5" points="247.5,-14 247.5,-34 484.5,-34 484.5,-14 247.5,-14"/>
</g>
<!-- niem&#45;xs:boolean -->
<g id="node3" class="node">
<title>niem&#45;xs:boolean</title>
<g id="a_node3_0"><a xlink:href="../../niem-xs/boolean/#diagram" xlink:title="A data type for binary&#45;valued logic (true/false)." target="_top">
<text text-anchor="start" x="548.5" y="-20.4" font-family="Helvetica,sans-Serif" font-size="12.00" fill="#000000">niem&#45;xs:boolean</text>
</a>
</g>
<polygon fill="none" stroke="#000000" points="546,-15.5 546,-32.5 639,-32.5 639,-15.5 546,-15.5"/>
</g>
<!-- j:ConveyanceJointlyRegisteredIndicator&#45;&gt;niem&#45;xs:boolean -->
<g id="edge2" class="edge">
<title>j:ConveyanceJointlyRegisteredIndicator&#45;&gt;niem&#45;xs:boolean</title>
<path fill="none" stroke="#000000" d="M487.2071,-24C504.1279,-24 520.8106,-24 535.7344,-24"/>
<polygon fill="#000000" stroke="#000000" points="535.7665,-27.5001 545.7665,-24 535.7665,-20.5001 535.7665,-27.5001"/>
<text text-anchor="middle" x="516.5" y="-27.4" font-family="Helvetica,sans-Serif" font-size="12.00" fill="#000000">type</text>
</g>
<!-- Types -->
<g id="node2" class="node">
<title>Types</title>
<text text-anchor="start" x="2" y="-21.4" font-family="Helvetica,sans-Serif" font-weight="bold" font-size="12.00" fill="#000000">Types</text>
<g id="a_node2_1"><a xlink:href="../../j/ConveyanceAugmentationType/#diagram" xlink:title="A data type for additional information about a conveyance." target="_top">
<polygon fill="#ebebeb" stroke="transparent" points="1,-1 1,-16 177,-16 177,-1 1,-1"/>
<text text-anchor="start" x="2" y="-5.4" font-family="Helvetica,sans-Serif" font-size="12.00" fill="#000000">j:ConveyanceAugmentationType</text>
</a>
</g>
<polygon fill="#000000" stroke="#000000" points="0,-16 0,-16 178,-16 178,-16 0,-16"/>
<polygon fill="none" stroke="#000000" points="0,0 0,-32 178,-32 178,0 0,0"/>
</g>
<!-- Types&#45;&gt;j:ConveyanceJointlyRegisteredIndicator -->
<g id="edge1" class="edge">
<title>Types:top&#45;&gt;j:ConveyanceJointlyRegisteredIndicator</title>
<path fill="none" stroke="#000000" d="M177,-24C195.6512,-24 215.3378,-24 234.6803,-24"/>
<polygon fill="#000000" stroke="#000000" points="234.7566,-27.5001 244.7566,-24 234.7566,-20.5001 234.7566,-27.5001"/>
<text text-anchor="middle" x="211.5" y="-27.4" font-family="Helvetica,sans-Serif" font-size="12.00" fill="#000000">has&#45;a</text>
</g>
</g>
</svg>
