<?xml version="1.0" encoding="UTF-8" standalone="no"?>
<!DOCTYPE svg PUBLIC "-//W3C//DTD SVG 1.1//EN"
 "http://www.w3.org/Graphics/SVG/1.1/DTD/svg11.dtd">
<!-- Generated by graphviz version 2.40.1 (20161225.0304)
 -->
<!-- Title: graphic Pages: 1 -->
<svg width="510pt" height="45pt"
 viewBox="0.00 0.00 510.00 45.00" xmlns="http://www.w3.org/2000/svg" xmlns:xlink="http://www.w3.org/1999/xlink">
<g id="graph0" class="graph" transform="scale(1 1) rotate(0) translate(4 41)">
<title>graphic</title>
<polygon fill="#ffffff" stroke="transparent" points="-4,4 -4,-41 506,-41 506,4 -4,4"/>
<!-- hs:ChangeOfSchoolIndicator -->
<g id="node1" class="node">
<title>hs:ChangeOfSchoolIndicator</title>
<text text-anchor="start" x="177.5" y="-21.4" font-family="Helvetica,sans-Serif" font-weight="bold" font-size="12.00" fill="#000000">hs:ChangeOfSchoolIndicator</text>
<polygon fill="none" stroke="#ff0000" stroke-width="5" points="173.5,-14 173.5,-34 347.5,-34 347.5,-14 173.5,-14"/>
</g>
<!-- niem&#45;xs:boolean -->
<g id="node3" class="node">
<title>niem&#45;xs:boolean</title>
<g id="a_node3_0"><a xlink:href="../../niem-xs/boolean/#diagram" xlink:title="A data type for binary&#45;valued logic (true/false)." target="_top">
<text text-anchor="start" x="411.5" y="-20.4" font-family="Helvetica,sans-Serif" font-size="12.00" fill="#000000">niem&#45;xs:boolean</text>
</a>
</g>
<polygon fill="none" stroke="#000000" points="409,-15.5 409,-32.5 502,-32.5 502,-15.5 409,-15.5"/>
</g>
<!-- hs:ChangeOfSchoolIndicator&#45;&gt;niem&#45;xs:boolean -->
<g id="edge2" class="edge">
<title>hs:ChangeOfSchoolIndicator&#45;&gt;niem&#45;xs:boolean</title>
<path fill="none" stroke="#000000" d="M350.0099,-24C366.5237,-24 383.3453,-24 398.5626,-24"/>
<polygon fill="#000000" stroke="#000000" points="398.8179,-27.5001 408.8178,-24 398.8178,-20.5001 398.8179,-27.5001"/>
<text text-anchor="middle" x="379.5" y="-27.4" font-family="Helvetica,sans-Serif" font-size="12.00" fill="#000000">type</text>
</g>
<!-- Types -->
<g id="node2" class="node">
<title>Types</title>
<text text-anchor="start" x="2" y="-21.4" font-family="Helvetica,sans-Serif" font-weight="bold" font-size="12.00" fill="#000000">Types</text>
<g id="a_node2_1"><a xlink:href="../../hs/PlacementType/#diagram" xlink:title="A data type for the placement history of a child or youth." target="_top">
<polygon fill="#ebebeb" stroke="transparent" points="1,-1 1,-16 103,-16 103,-1 1,-1"/>
<text text-anchor="start" x="2" y="-5.4" font-family="Helvetica,sans-Serif" font-size="12.00" fill="#000000">hs:PlacementType</text>
</a>
</g>
<polygon fill="#000000" stroke="#000000" points="0,-16 0,-16 104,-16 104,-16 0,-16"/>
<polygon fill="none" stroke="#000000" points="0,0 0,-32 104,-32 104,0 0,0"/>
</g>
<!-- Types&#45;&gt;hs:ChangeOfSchoolIndicator -->
<g id="edge1" class="edge">
<title>Types:top&#45;&gt;hs:ChangeOfSchoolIndicator</title>
<path fill="none" stroke="#000000" d="M103,-24C121.6584,-24 141.5601,-24 160.7167,-24"/>
<polygon fill="#000000" stroke="#000000" points="160.9616,-27.5001 170.9616,-24 160.9616,-20.5001 160.9616,-27.5001"/>
<text text-anchor="middle" x="137.5" y="-27.4" font-family="Helvetica,sans-Serif" font-size="12.00" fill="#000000">has&#45;a</text>
</g>
</g>
</svg>
