<?xml version="1.0" encoding="UTF-8" standalone="no"?>
<!DOCTYPE svg PUBLIC "-//W3C//DTD SVG 1.1//EN"
 "http://www.w3.org/Graphics/SVG/1.1/DTD/svg11.dtd">
<!-- Generated by graphviz version 2.40.1 (20161225.0304)
 -->
<!-- Title: graphic Pages: 1 -->
<svg width="569pt" height="45pt"
 viewBox="0.00 0.00 569.00 45.00" xmlns="http://www.w3.org/2000/svg" xmlns:xlink="http://www.w3.org/1999/xlink">
<g id="graph0" class="graph" transform="scale(1 1) rotate(0) translate(4 41)">
<title>graphic</title>
<polygon fill="#ffffff" stroke="transparent" points="-4,4 -4,-41 565,-41 565,4 -4,4"/>
<!-- scr:WatchlistClassification -->
<g id="node1" class="node">
<title>scr:WatchlistClassification</title>
<text text-anchor="start" x="172" y="-21.4" font-family="Helvetica,sans-Serif" font-weight="bold" font-size="12.00" fill="#000000">scr:WatchlistClassification</text>
<polygon fill="none" stroke="#ff0000" stroke-width="5" points="168.5,-14 168.5,-34 329.5,-34 329.5,-14 168.5,-14"/>
</g>
<!-- scr:WatchlistClassificationType -->
<g id="node3" class="node">
<title>scr:WatchlistClassificationType</title>
<g id="a_node3_0"><a xlink:href="../../scr/WatchlistClassificationType/#diagram" xlink:title="A data type for a classification of the WATCHLIST." target="_top">
<text text-anchor="start" x="393" y="-20.4" font-family="Helvetica,sans-Serif" font-size="12.00" fill="#000000">scr:WatchlistClassificationType</text>
</a>
</g>
<polygon fill="none" stroke="#000000" points="391,-15.5 391,-32.5 561,-32.5 561,-15.5 391,-15.5"/>
</g>
<!-- scr:WatchlistClassification&#45;&gt;scr:WatchlistClassificationType -->
<g id="edge2" class="edge">
<title>scr:WatchlistClassification&#45;&gt;scr:WatchlistClassificationType</title>
<path fill="none" stroke="#000000" d="M332.2374,-24C347.9109,-24 364.415,-24 380.4304,-24"/>
<polygon fill="#000000" stroke="#000000" points="380.8707,-27.5001 390.8707,-24 380.8706,-20.5001 380.8707,-27.5001"/>
<text text-anchor="middle" x="361.5" y="-27.4" font-family="Helvetica,sans-Serif" font-size="12.00" fill="#000000">type</text>
</g>
<!-- Types -->
<g id="node2" class="node">
<title>Types</title>
<text text-anchor="start" x="2.5" y="-21.4" font-family="Helvetica,sans-Serif" font-weight="bold" font-size="12.00" fill="#000000">Types</text>
<g id="a_node2_1"><a xlink:href="../../scr/WatchlistType/#diagram" xlink:title="A data type for a DOCUMENT which contains a nomination list prepared and approved by the National Center of Counter Terrorism." target="_top">
<polygon fill="#ebebeb" stroke="transparent" points="1.5,-1 1.5,-16 98.5,-16 98.5,-1 1.5,-1"/>
<text text-anchor="start" x="2.5" y="-5.4" font-family="Helvetica,sans-Serif" font-size="12.00" fill="#000000">scr:WatchlistType</text>
</a>
</g>
<polygon fill="#000000" stroke="#000000" points=".5,-16 .5,-16 99.5,-16 99.5,-16 .5,-16"/>
<polygon fill="none" stroke="#000000" points="0,0 0,-32 99,-32 99,0 0,0"/>
</g>
<!-- Types&#45;&gt;scr:WatchlistClassification -->
<g id="edge1" class="edge">
<title>Types:top&#45;&gt;scr:WatchlistClassification</title>
<path fill="none" stroke="#000000" d="M98.5,-24C116.9935,-24 136.7654,-24 155.695,-24"/>
<polygon fill="#000000" stroke="#000000" points="155.8073,-27.5001 165.8073,-24 155.8073,-20.5001 155.8073,-27.5001"/>
<text text-anchor="middle" x="132.5" y="-27.4" font-family="Helvetica,sans-Serif" font-size="12.00" fill="#000000">has&#45;a</text>
</g>
</g>
</svg>
