<?xml version="1.0" encoding="UTF-8" standalone="no"?>
<!DOCTYPE svg PUBLIC "-//W3C//DTD SVG 1.1//EN"
 "http://www.w3.org/Graphics/SVG/1.1/DTD/svg11.dtd">
<!-- Generated by graphviz version 2.40.1 (20161225.0304)
 -->
<!-- Title: graphic Pages: 1 -->
<svg width="905pt" height="326pt"
 viewBox="0.00 0.00 905.00 325.50" xmlns="http://www.w3.org/2000/svg" xmlns:xlink="http://www.w3.org/1999/xlink">
<g id="graph0" class="graph" transform="scale(1 1) rotate(0) translate(4 321.5)">
<title>graphic</title>
<polygon fill="#ffffff" stroke="transparent" points="-4,4 -4,-321.5 901,-321.5 901,4 -4,4"/>
<!-- em:PersonHumanResourceType -->
<g id="node1" class="node">
<title>em:PersonHumanResourceType</title>
<text text-anchor="start" x="218.5" y="-197.4" font-family="Helvetica,sans-Serif" font-weight="bold" font-size="12.00" fill="#000000">em:PersonHumanResourceType</text>
<g id="a_node1_0"><a xlink:href="../../em/PersonIDCard/#diagram" xlink:title="An element contains information about a person identification information" target="_top">
<polygon fill="#ebebeb" stroke="transparent" points="217.5,-177 217.5,-192 496.5,-192 496.5,-177 217.5,-177"/>
<text text-anchor="start" x="218.5" y="-181.4" font-family="Helvetica,sans-Serif" font-size="12.00" fill="#000000">em:PersonIDCard: em:PersonIDCardType [0&#45;n]</text>
</a>
</g>
<g id="a_node1_1"><a xlink:href="../../nc/Address/#diagram" xlink:title="A set of location information, often described by postal information." target="_top">
<text text-anchor="start" x="218.5" y="-166.4" font-family="Helvetica,sans-Serif" font-size="12.00" fill="#000000">nc:Address: nc:AddressType [0&#45;n]</text>
</a>
</g>
<g id="a_node1_2"><a xlink:href="../../em/AvailabilityText/#diagram" xlink:title="A text or code indicating availability of an item" target="_top">
<polygon fill="#ebebeb" stroke="transparent" points="217.5,-147 217.5,-162 496.5,-162 496.5,-147 217.5,-147"/>
<text text-anchor="start" x="218.5" y="-151.4" font-family="Helvetica,sans-Serif" font-size="12.00" fill="#000000">em:AvailabilityText: nc:TextType [0&#45;n]</text>
</a>
</g>
<g id="a_node1_3"><a xlink:href="../../nc/ContactMeansAbstract/#diagram" xlink:title="A data concept for a means of contacting someone." target="_top">
<text text-anchor="start" x="218.5" y="-136.4" font-family="Helvetica,sans-Serif" font-size="12.00" fill="#000000">nc:ContactMeansAbstract [0&#45;n]</text>
</a>
</g>
<g id="a_node1_4"><a xlink:href="../../em/UpdateRecord/#diagram" xlink:title="An element contains information about the data update information" target="_top">
<polygon fill="#ebebeb" stroke="transparent" points="217.5,-117 217.5,-132 496.5,-132 496.5,-117 217.5,-117"/>
<text text-anchor="start" x="218.5" y="-121.4" font-family="Helvetica,sans-Serif" font-size="12.00" fill="#000000">em:UpdateRecord: em:UpdateRecordType [0&#45;n]</text>
</a>
</g>
<g id="a_node1_5"><a xlink:href="../../nc/Attachment/#diagram" xlink:title="A binary attachment to a report or document." target="_top">
<text text-anchor="start" x="218.5" y="-106.4" font-family="Helvetica,sans-Serif" font-size="12.00" fill="#000000">nc:Attachment: nc:BinaryType [0&#45;n]</text>
</a>
</g>
<g id="a_node1_6"><a xlink:href="../../em/PersonHumanResourceAugmentationPoint/#diagram" xlink:title="An augmentation point for PersonHumanResourceType" target="_top">
<polygon fill="#ebebeb" stroke="transparent" points="217.5,-87 217.5,-102 496.5,-102 496.5,-87 217.5,-87"/>
<text text-anchor="start" x="218.5" y="-91.4" font-family="Helvetica,sans-Serif" font-size="12.00" fill="#000000">em:PersonHumanResourceAugmentationPoint [0&#45;n]</text>
</a>
</g>
<polygon fill="#ff0000" stroke="#ff0000" points="212.5,-192 212.5,-192 501.5,-192 501.5,-192 212.5,-192"/>
<polygon fill="none" stroke="#ff0000" stroke-width="5" points="214.5,-84.5 214.5,-209.5 498.5,-209.5 498.5,-84.5 214.5,-84.5"/>
</g>
<!-- subst_d12e9122 -->
<g id="node2" class="node">
<title>subst_d12e9122</title>
<g id="a_node2_7"><a xlink:href="../../nc/Address/#diagram" xlink:title="&lt;TABLE&gt;" target="_top">
<text text-anchor="start" x="604.5" y="-191.4" font-family="Helvetica,sans-Serif" font-weight="bold" font-size="12.00" fill="#000000">Substitution group nc:Address</text>
</a>
</g>
<g id="a_node2_8"><a xlink:href="../../im/NaturalizationAddress/#diagram" xlink:title="A location address where the alien was naturalized as a U.S. Citizen" target="_top">
<polygon fill="#ebebeb" stroke="transparent" points="603.5,-171 603.5,-186 832.5,-186 832.5,-171 603.5,-171"/>
<text text-anchor="start" x="604.5" y="-175.4" font-family="Helvetica,sans-Serif" font-size="12.00" fill="#000000">im:NaturalizationAddress: nc:AddressType</text>
</a>
</g>
<g id="a_node2_9"><a xlink:href="../../nc/MailingAddress/#diagram" xlink:title="A mailing address for a location. This may or may not be the same as the location&#39;s physical address." target="_top">
<text text-anchor="start" x="604.5" y="-160.4" font-family="Helvetica,sans-Serif" font-size="12.00" fill="#000000">nc:MailingAddress: nc:AddressType</text>
</a>
</g>
<g id="a_node2_10"><a xlink:href="../../nc/PhysicalAddress/#diagram" xlink:title="A physical address for a location. This may or may not be the same as the location&#39;s mailing address." target="_top">
<polygon fill="#ebebeb" stroke="transparent" points="603.5,-141 603.5,-156 832.5,-156 832.5,-141 603.5,-141"/>
<text text-anchor="start" x="604.5" y="-145.4" font-family="Helvetica,sans-Serif" font-size="12.00" fill="#000000">nc:PhysicalAddress: nc:AddressType</text>
</a>
</g>
<polygon fill="#000000" stroke="#000000" points="602.5,-186 602.5,-186 833.5,-186 833.5,-186 602.5,-186"/>
<polygon fill="none" stroke="#000000" points="602,-140 602,-202 833,-202 833,-140 602,-140"/>
</g>
<!-- em:PersonHumanResourceType&#45;&gt;subst_d12e9122 -->
<g id="edge1" class="edge">
<title>em:PersonHumanResourceType:e&#45;&gt;subst_d12e9122:w</title>
<path fill="none" stroke="#000000" d="M506.7357,-170.377C546.8671,-173.4303 558.3801,-194 603.5,-194"/>
<polygon fill="#000000" stroke="#000000" points="506.6221,-166.8705 496.5,-170 506.3644,-173.8658 506.6221,-166.8705"/>
</g>
<!-- subst_d12e10877 -->
<g id="node3" class="node">
<title>subst_d12e10877</title>
<g id="a_node3_11"><a xlink:href="../../nc/ContactMeansAbstract/#diagram" xlink:title="&lt;TABLE&gt;" target="_top">
<text text-anchor="start" x="540.5" y="-111.4" font-family="Helvetica,sans-Serif" font-weight="bold" font-size="12.00" fill="#000000">Substitution group nc:ContactMeansAbstract</text>
</a>
</g>
<g id="a_node3_12"><a xlink:href="../../mo/ContactDSNTelephoneNumber/#diagram" xlink:title="A Defense Switched Network (DSN) telephone number for a telecommunications device by which a person or organization may be contacted." target="_top">
<polygon fill="#ebebeb" stroke="transparent" points="539.5,-91 539.5,-106 896.5,-106 896.5,-91 539.5,-91"/>
<text text-anchor="start" x="540.5" y="-95.4" font-family="Helvetica,sans-Serif" font-size="12.00" fill="#000000">mo:ContactDSNTelephoneNumber: nc:FullTelephoneNumberType</text>
</a>
</g>
<g id="a_node3_13"><a xlink:href="../../nc/ContactEmailID/#diagram" xlink:title="An electronic mailing address by which a person or organization may be contacted." target="_top">
<text text-anchor="start" x="540.5" y="-80.4" font-family="Helvetica,sans-Serif" font-size="12.00" fill="#000000">nc:ContactEmailID: niem&#45;xs:string</text>
</a>
</g>
<g id="a_node3_14"><a xlink:href="../../nc/ContactInstantMessenger/#diagram" xlink:title="A user account for an instant messaging program by which a person or organization may be contacted." target="_top">
<polygon fill="#ebebeb" stroke="transparent" points="539.5,-61 539.5,-76 896.5,-76 896.5,-61 539.5,-61"/>
<text text-anchor="start" x="540.5" y="-65.4" font-family="Helvetica,sans-Serif" font-size="12.00" fill="#000000">nc:ContactInstantMessenger: nc:InstantMessengerType</text>
</a>
</g>
<g id="a_node3_15"><a xlink:href="../../nc/ContactMailingAddress/#diagram" xlink:title="A postal address by which a person or organization may be contacted." target="_top">
<text text-anchor="start" x="540.5" y="-50.4" font-family="Helvetica,sans-Serif" font-size="12.00" fill="#000000">nc:ContactMailingAddress: nc:AddressType</text>
</a>
</g>
<g id="a_node3_16"><a xlink:href="../../nc/ContactRadio/#diagram" xlink:title="A method of contacting a person or organization by messages over a radio." target="_top">
<polygon fill="#ebebeb" stroke="transparent" points="539.5,-31 539.5,-46 896.5,-46 896.5,-31 539.5,-31"/>
<text text-anchor="start" x="540.5" y="-35.4" font-family="Helvetica,sans-Serif" font-size="12.00" fill="#000000">nc:ContactRadio: nc:ContactRadioType</text>
</a>
</g>
<g id="a_node3_17"><a xlink:href="../../nc/ContactTelephoneNumber/#diagram" xlink:title="A telephone number for a telecommunication device by which a person or organization may be contacted." target="_top">
<text text-anchor="start" x="540.5" y="-20.4" font-family="Helvetica,sans-Serif" font-size="12.00" fill="#000000">nc:ContactTelephoneNumber: nc:TelephoneNumberType</text>
</a>
</g>
<g id="a_node3_18"><a xlink:href="../../nc/ContactWebsiteURI/#diagram" xlink:title="A website address by which a person or organization may be contacted." target="_top">
<polygon fill="#ebebeb" stroke="transparent" points="539.5,-1 539.5,-16 896.5,-16 896.5,-1 539.5,-1"/>
<text text-anchor="start" x="540.5" y="-5.4" font-family="Helvetica,sans-Serif" font-size="12.00" fill="#000000">nc:ContactWebsiteURI: niem&#45;xs:anyURI</text>
</a>
</g>
<polygon fill="#000000" stroke="#000000" points="538.5,-106 538.5,-106 897.5,-106 897.5,-106 538.5,-106"/>
<polygon fill="none" stroke="#000000" points="538,0 538,-122 897,-122 897,0 538,0"/>
</g>
<!-- em:PersonHumanResourceType&#45;&gt;subst_d12e10877 -->
<g id="edge2" class="edge">
<title>em:PersonHumanResourceType:e&#45;&gt;subst_d12e10877:w</title>
<path fill="none" stroke="#000000" d="M506.4285,-136.8685C518.9235,-130.8228 521.3659,-114 539.5,-114"/>
<polygon fill="#000000" stroke="#000000" points="505.5426,-133.4789 496.5,-139 507.0119,-140.323 505.5426,-133.4789"/>
</g>
<!-- Properties -->
<g id="node4" class="node">
<title>Properties</title>
<text text-anchor="start" x="2.5" y="-197.4" font-family="Helvetica,sans-Serif" font-weight="bold" font-size="12.00" fill="#000000">Properties</text>
<g id="a_node4_19"><a xlink:href="../../em/CheckInOutPerson/#diagram" xlink:title="A data element for a person who performed check&#45;in or check&#45;out operation" target="_top">
<polygon fill="#ebebeb" stroke="transparent" points="1.5,-177 1.5,-192 152.5,-192 152.5,-177 1.5,-177"/>
<text text-anchor="start" x="2.5" y="-181.4" font-family="Helvetica,sans-Serif" font-size="12.00" fill="#000000">em:CheckInOutPerson</text>
</a>
</g>
<g id="a_node4_20"><a xlink:href="../../em/PersonHumanResource/#diagram" xlink:title="A data element for the human resource detail information" target="_top">
<text text-anchor="start" x="2.5" y="-166.4" font-family="Helvetica,sans-Serif" font-size="12.00" fill="#000000">em:PersonHumanResource</text>
</a>
</g>
<polygon fill="#000000" stroke="#000000" points=".5,-192 .5,-192 153.5,-192 153.5,-192 .5,-192"/>
<polygon fill="none" stroke="#000000" points="0,-161.5 0,-208.5 153,-208.5 153,-161.5 0,-161.5"/>
</g>
<!-- Properties&#45;&gt;em:PersonHumanResourceType -->
<g id="edge3" class="edge">
<title>Properties:top&#45;&gt;em:PersonHumanResourceType:top</title>
<path fill="none" stroke="#000000" d="M152.5,-200C177.6649,-200 186.3891,-200 207.3154,-200"/>
<polygon fill="#000000" stroke="#000000" points="207.5,-203.5001 217.5,-200 207.5,-196.5001 207.5,-203.5001"/>
<text text-anchor="middle" x="182.5" y="-203.4" font-family="Helvetica,sans-Serif" font-size="12.00" fill="#000000">type</text>
</g>
<!-- nc:PersonType -->
<g id="node5" class="node">
<title>nc:PersonType</title>
<g id="a_node5_21"><a xlink:href="../../nc/PersonType/#diagram" xlink:title="A data type for a human being." target="_top">
<text text-anchor="start" x="316.5" y="-252.4" font-family="Helvetica,sans-Serif" font-size="12.00" fill="#000000">nc:PersonType</text>
</a>
</g>
<polygon fill="none" stroke="#000000" points="314,-247.5 314,-264.5 399,-264.5 399,-247.5 314,-247.5"/>
</g>
<!-- nc:PersonType&#45;&gt;em:PersonHumanResourceType -->
<g id="edge4" class="edge">
<title>nc:PersonType&#45;&gt;em:PersonHumanResourceType</title>
<path fill="none" stroke="#000000" d="M356.5,-247.3644C356.5,-241.2696 356.5,-232.4448 356.5,-222.522"/>
<polygon fill="#000000" stroke="#000000" points="360.0001,-222.2935 356.5,-212.2936 353.0001,-222.2936 360.0001,-222.2935"/>
<text text-anchor="middle" x="347" y="-226.65" font-family="Helvetica,sans-Serif" font-size="12.00" fill="#000000">extension</text>
</g>
<!-- structures:ObjectType -->
<g id="node6" class="node">
<title>structures:ObjectType</title>
<g id="a_node6_22"><a xlink:href="../../structures/ObjectType/#diagram" xlink:title="A data type for a thing with its own lifespan that has some existence." target="_top">
<text text-anchor="start" x="297.5" y="-305.4" font-family="Helvetica,sans-Serif" font-size="12.00" fill="#000000">structures:ObjectType</text>
</a>
</g>
<polygon fill="none" stroke="#000000" points="295.5,-300.5 295.5,-317.5 417.5,-317.5 417.5,-300.5 295.5,-300.5"/>
</g>
<!-- structures:ObjectType&#45;&gt;nc:PersonType -->
<g id="edge5" class="edge">
<title>structures:ObjectType&#45;&gt;nc:PersonType</title>
<path fill="none" stroke="#000000" d="M356.5,-300.411C356.5,-293.5124 356.5,-283.5696 356.5,-274.84"/>
<polygon fill="#000000" stroke="#000000" points="360.0001,-274.7518 356.5,-264.7519 353.0001,-274.7519 360.0001,-274.7518"/>
<text text-anchor="middle" x="347" y="-279.4" font-family="Helvetica,sans-Serif" font-size="12.00" fill="#000000">extension</text>
</g>
</g>
</svg>
