<?xml version="1.0" encoding="UTF-8" standalone="no"?>
<!DOCTYPE svg PUBLIC "-//W3C//DTD SVG 1.1//EN"
 "http://www.w3.org/Graphics/SVG/1.1/DTD/svg11.dtd">
<!-- Generated by graphviz version 2.40.1 (20161225.0304)
 -->
<!-- Title: graphic Pages: 1 -->
<svg width="480pt" height="45pt"
 viewBox="0.00 0.00 480.00 45.00" xmlns="http://www.w3.org/2000/svg" xmlns:xlink="http://www.w3.org/1999/xlink">
<g id="graph0" class="graph" transform="scale(1 1) rotate(0) translate(4 41)">
<title>graphic</title>
<polygon fill="#ffffff" stroke="transparent" points="-4,4 -4,-41 476,-41 476,4 -4,4"/>
<!-- nc:AddressUrbanizationName -->
<g id="node1" class="node">
<title>nc:AddressUrbanizationName</title>
<text text-anchor="start" x="164" y="-21.4" font-family="Helvetica,sans-Serif" font-weight="bold" font-size="12.00" fill="#000000">nc:AddressUrbanizationName</text>
<polygon fill="none" stroke="#ff0000" stroke-width="5" points="160.5,-14 160.5,-34 339.5,-34 339.5,-14 160.5,-14"/>
</g>
<!-- nc:TextType -->
<g id="node3" class="node">
<title>nc:TextType</title>
<g id="a_node3_0"><a xlink:href="../../nc/TextType/#diagram" xlink:title="A data type for a character string." target="_top">
<text text-anchor="start" x="403.5" y="-20.4" font-family="Helvetica,sans-Serif" font-size="12.00" fill="#000000">nc:TextType</text>
</a>
</g>
<polygon fill="none" stroke="#000000" points="401,-15.5 401,-32.5 472,-32.5 472,-15.5 401,-15.5"/>
</g>
<!-- nc:AddressUrbanizationName&#45;&gt;nc:TextType -->
<g id="edge2" class="edge">
<title>nc:AddressUrbanizationName&#45;&gt;nc:TextType</title>
<path fill="none" stroke="#000000" d="M342.1572,-24C358.9942,-24 375.8787,-24 390.6147,-24"/>
<polygon fill="#000000" stroke="#000000" points="390.9337,-27.5001 400.9337,-24 390.9336,-20.5001 390.9337,-27.5001"/>
<text text-anchor="middle" x="371.5" y="-27.4" font-family="Helvetica,sans-Serif" font-size="12.00" fill="#000000">type</text>
</g>
<!-- Types -->
<g id="node2" class="node">
<title>Types</title>
<text text-anchor="start" x="2.5" y="-21.4" font-family="Helvetica,sans-Serif" font-weight="bold" font-size="12.00" fill="#000000">Types</text>
<g id="a_node2_1"><a xlink:href="../../nc/AddressType/#diagram" xlink:title="A data type for a geophysical location described by postal information." target="_top">
<polygon fill="#ebebeb" stroke="transparent" points="1.5,-1 1.5,-16 90.5,-16 90.5,-1 1.5,-1"/>
<text text-anchor="start" x="2.5" y="-5.4" font-family="Helvetica,sans-Serif" font-size="12.00" fill="#000000">nc:AddressType</text>
</a>
</g>
<polygon fill="#000000" stroke="#000000" points=".5,-16 .5,-16 91.5,-16 91.5,-16 .5,-16"/>
<polygon fill="none" stroke="#000000" points="0,0 0,-32 91,-32 91,0 0,0"/>
</g>
<!-- Types&#45;&gt;nc:AddressUrbanizationName -->
<g id="edge1" class="edge">
<title>Types:top&#45;&gt;nc:AddressUrbanizationName</title>
<path fill="none" stroke="#000000" d="M90.5,-24C108.9259,-24 128.549,-24 147.5023,-24"/>
<polygon fill="#000000" stroke="#000000" points="147.6456,-27.5001 157.6455,-24 147.6455,-20.5001 147.6456,-27.5001"/>
<text text-anchor="middle" x="124.5" y="-27.4" font-family="Helvetica,sans-Serif" font-size="12.00" fill="#000000">has&#45;a</text>
</g>
</g>
</svg>
