<?xml version="1.0" encoding="UTF-8" standalone="no"?>
<!DOCTYPE svg PUBLIC "-//W3C//DTD SVG 1.1//EN"
 "http://www.w3.org/Graphics/SVG/1.1/DTD/svg11.dtd">
<!-- Generated by graphviz version 2.40.1 (20161225.0304)
 -->
<!-- Title: graphic Pages: 1 -->
<svg width="766pt" height="45pt"
 viewBox="0.00 0.00 766.00 45.00" xmlns="http://www.w3.org/2000/svg" xmlns:xlink="http://www.w3.org/1999/xlink">
<g id="graph0" class="graph" transform="scale(1 1) rotate(0) translate(4 41)">
<title>graphic</title>
<polygon fill="#ffffff" stroke="transparent" points="-4,4 -4,-41 762,-41 762,4 -4,4"/>
<!-- j:EmploymentIncludesCommunityServiceIndicator -->
<g id="node1" class="node">
<title>j:EmploymentIncludesCommunityServiceIndicator</title>
<text text-anchor="start" x="312" y="-21.4" font-family="Helvetica,sans-Serif" font-weight="bold" font-size="12.00" fill="#000000">j:EmploymentIncludesCommunityServiceIndicator</text>
<polygon fill="none" stroke="#ff0000" stroke-width="5" points="308.5,-14 308.5,-34 603.5,-34 603.5,-14 308.5,-14"/>
</g>
<!-- niem&#45;xs:boolean -->
<g id="node3" class="node">
<title>niem&#45;xs:boolean</title>
<g id="a_node3_0"><a xlink:href="../../niem-xs/boolean/#diagram" xlink:title="A data type for binary&#45;valued logic (true/false)." target="_top">
<text text-anchor="start" x="667.5" y="-20.4" font-family="Helvetica,sans-Serif" font-size="12.00" fill="#000000">niem&#45;xs:boolean</text>
</a>
</g>
<polygon fill="none" stroke="#000000" points="665,-15.5 665,-32.5 758,-32.5 758,-15.5 665,-15.5"/>
</g>
<!-- j:EmploymentIncludesCommunityServiceIndicator&#45;&gt;niem&#45;xs:boolean -->
<g id="edge2" class="edge">
<title>j:EmploymentIncludesCommunityServiceIndicator&#45;&gt;niem&#45;xs:boolean</title>
<path fill="none" stroke="#000000" d="M606.1033,-24C623.2352,-24 639.8136,-24 654.5538,-24"/>
<polygon fill="#000000" stroke="#000000" points="654.9438,-27.5001 664.9437,-24 654.9437,-20.5001 654.9438,-27.5001"/>
<text text-anchor="middle" x="635.5" y="-27.4" font-family="Helvetica,sans-Serif" font-size="12.00" fill="#000000">type</text>
</g>
<!-- Types -->
<g id="node2" class="node">
<title>Types</title>
<text text-anchor="start" x="2.5" y="-21.4" font-family="Helvetica,sans-Serif" font-weight="bold" font-size="12.00" fill="#000000">Types</text>
<g id="a_node2_1"><a xlink:href="../../j/EmploymentAssociationAugmentationType/#diagram" xlink:title="A data type for additional information about an employment association." target="_top">
<polygon fill="#ebebeb" stroke="transparent" points="1.5,-1 1.5,-16 238.5,-16 238.5,-1 1.5,-1"/>
<text text-anchor="start" x="2.5" y="-5.4" font-family="Helvetica,sans-Serif" font-size="12.00" fill="#000000">j:EmploymentAssociationAugmentationType</text>
</a>
</g>
<polygon fill="#000000" stroke="#000000" points=".5,-16 .5,-16 239.5,-16 239.5,-16 .5,-16"/>
<polygon fill="none" stroke="#000000" points="0,0 0,-32 239,-32 239,0 0,0"/>
</g>
<!-- Types&#45;&gt;j:EmploymentIncludesCommunityServiceIndicator -->
<g id="edge1" class="edge">
<title>Types:top&#45;&gt;j:EmploymentIncludesCommunityServiceIndicator</title>
<path fill="none" stroke="#000000" d="M238.5,-24C257.0697,-24 276.5312,-24 295.8567,-24"/>
<polygon fill="#000000" stroke="#000000" points="295.9448,-27.5001 305.9448,-24 295.9448,-20.5001 295.9448,-27.5001"/>
<text text-anchor="middle" x="272.5" y="-27.4" font-family="Helvetica,sans-Serif" font-size="12.00" fill="#000000">has&#45;a</text>
</g>
</g>
</svg>
