<?xml version="1.0" encoding="UTF-8" standalone="no"?>
<!DOCTYPE svg PUBLIC "-//W3C//DTD SVG 1.1//EN"
 "http://www.w3.org/Graphics/SVG/1.1/DTD/svg11.dtd">
<!-- Generated by graphviz version 2.40.1 (20161225.0304)
 -->
<!-- Title: graphic Pages: 1 -->
<svg width="512pt" height="45pt"
 viewBox="0.00 0.00 512.00 45.00" xmlns="http://www.w3.org/2000/svg" xmlns:xlink="http://www.w3.org/1999/xlink">
<g id="graph0" class="graph" transform="scale(1 1) rotate(0) translate(4 41)">
<title>graphic</title>
<polygon fill="#ffffff" stroke="transparent" points="-4,4 -4,-41 508,-41 508,4 -4,4"/>
<!-- j:JudgePanelIdentification -->
<g id="node1" class="node">
<title>j:JudgePanelIdentification</title>
<text text-anchor="start" x="174" y="-21.4" font-family="Helvetica,sans-Serif" font-weight="bold" font-size="12.00" fill="#000000">j:JudgePanelIdentification</text>
<polygon fill="none" stroke="#ff0000" stroke-width="5" points="170.5,-14 170.5,-34 327.5,-34 327.5,-14 170.5,-14"/>
</g>
<!-- nc:IdentificationType -->
<g id="node3" class="node">
<title>nc:IdentificationType</title>
<g id="a_node3_0"><a xlink:href="../../nc/IdentificationType/#diagram" xlink:title="A data type for a representation of an identity." target="_top">
<text text-anchor="start" x="391.5" y="-20.4" font-family="Helvetica,sans-Serif" font-size="12.00" fill="#000000">nc:IdentificationType</text>
</a>
</g>
<polygon fill="none" stroke="#000000" points="389,-15.5 389,-32.5 504,-32.5 504,-15.5 389,-15.5"/>
</g>
<!-- j:JudgePanelIdentification&#45;&gt;nc:IdentificationType -->
<g id="edge2" class="edge">
<title>j:JudgePanelIdentification&#45;&gt;nc:IdentificationType</title>
<path fill="none" stroke="#000000" d="M330.1858,-24C346.3318,-24 363.125,-24 378.7634,-24"/>
<polygon fill="#000000" stroke="#000000" points="378.8548,-27.5001 388.8548,-24 378.8548,-20.5001 378.8548,-27.5001"/>
<text text-anchor="middle" x="359.5" y="-27.4" font-family="Helvetica,sans-Serif" font-size="12.00" fill="#000000">type</text>
</g>
<!-- Types -->
<g id="node2" class="node">
<title>Types</title>
<text text-anchor="start" x="2.5" y="-21.4" font-family="Helvetica,sans-Serif" font-weight="bold" font-size="12.00" fill="#000000">Types</text>
<g id="a_node2_1"><a xlink:href="../../j/JudgePanelType/#diagram" xlink:title="A data type for a group of judges needed to decide a court case." target="_top">
<polygon fill="#ebebeb" stroke="transparent" points="1.5,-1 1.5,-16 100.5,-16 100.5,-1 1.5,-1"/>
<text text-anchor="start" x="2.5" y="-5.4" font-family="Helvetica,sans-Serif" font-size="12.00" fill="#000000">j:JudgePanelType</text>
</a>
</g>
<polygon fill="#000000" stroke="#000000" points=".5,-16 .5,-16 101.5,-16 101.5,-16 .5,-16"/>
<polygon fill="none" stroke="#000000" points="0,0 0,-32 101,-32 101,0 0,0"/>
</g>
<!-- Types&#45;&gt;j:JudgePanelIdentification -->
<g id="edge1" class="edge">
<title>Types:top&#45;&gt;j:JudgePanelIdentification</title>
<path fill="none" stroke="#000000" d="M100.5,-24C118.9663,-24 138.7243,-24 157.6056,-24"/>
<polygon fill="#000000" stroke="#000000" points="157.6883,-27.5001 167.6883,-24 157.6882,-20.5001 157.6883,-27.5001"/>
<text text-anchor="middle" x="134.5" y="-27.4" font-family="Helvetica,sans-Serif" font-size="12.00" fill="#000000">has&#45;a</text>
</g>
</g>
</svg>
