<?xml version="1.0" encoding="UTF-8" standalone="no"?>
<!DOCTYPE svg PUBLIC "-//W3C//DTD SVG 1.1//EN"
 "http://www.w3.org/Graphics/SVG/1.1/DTD/svg11.dtd">
<!-- Generated by graphviz version 2.40.1 (20161225.0304)
 -->
<!-- Title: graphic Pages: 1 -->
<svg width="244pt" height="154pt"
 viewBox="0.00 0.00 244.00 153.50" xmlns="http://www.w3.org/2000/svg" xmlns:xlink="http://www.w3.org/1999/xlink">
<g id="graph0" class="graph" transform="scale(1 1) rotate(0) translate(4 149.5)">
<title>graphic</title>
<polygon fill="#ffffff" stroke="transparent" points="-4,4 -4,-149.5 240,-149.5 240,4 -4,4"/>
<!-- mo:MGRSCoordinateStringSimpleType -->
<g id="node1" class="node">
<title>mo:MGRSCoordinateStringSimpleType</title>
<text text-anchor="start" x="6" y="-77.4" font-family="Helvetica,sans-Serif" font-weight="bold" font-size="12.00" fill="#000000">mo:MGRSCoordinateStringSimpleType</text>
<polygon fill="none" stroke="#ff0000" stroke-width="5" points="2.5,-70 2.5,-90 233.5,-90 233.5,-70 2.5,-70"/>
</g>
<!-- DerivedTypes -->
<g id="node2" class="node">
<title>DerivedTypes</title>
<text text-anchor="start" x="32" y="-21.4" font-family="Helvetica,sans-Serif" font-weight="bold" font-size="12.00" fill="#000000">Derived types</text>
<g id="a_node2_0"><a xlink:href="../../mo/MGRSCoordinateStringType/#diagram" xlink:title="A data type for a complete coordinate string from the Military Grid Reference System (MGRS) which represents a location with a Universal Transverse Mercator (UTM) or Universal Polar Stereographic (UPS) coordinate and a unique military grid square." target="_top">
<polygon fill="#ebebeb" stroke="transparent" points="31,-1 31,-16 206,-16 206,-1 31,-1"/>
<text text-anchor="start" x="32" y="-5.4" font-family="Helvetica,sans-Serif" font-size="12.00" fill="#000000">mo:MGRSCoordinateStringType</text>
</a>
</g>
<polygon fill="#000000" stroke="#000000" points="30,-16 30,-16 207,-16 207,-16 30,-16"/>
<polygon fill="none" stroke="#000000" points="29.5,0 29.5,-32 206.5,-32 206.5,0 29.5,0"/>
</g>
<!-- mo:MGRSCoordinateStringSimpleType&#45;&gt;DerivedTypes -->
<g id="edge1" class="edge">
<title>mo:MGRSCoordinateStringSimpleType&#45;&gt;DerivedTypes</title>
<path fill="none" stroke="#000000" d="M118,-67.4892C118,-60.3101 118,-51.0172 118,-42.306"/>
<polygon fill="#000000" stroke="#000000" points="121.5001,-42.1499 118,-32.1499 114.5001,-42.1499 121.5001,-42.1499"/>
<text text-anchor="middle" x="108.5" y="-46.65" font-family="Helvetica,sans-Serif" font-size="12.00" fill="#000000">derived</text>
</g>
<!-- xs:string -->
<g id="node3" class="node">
<title>xs:string</title>
<g id="a_node3_1"><a xlink:href="../../xs/string/#diagram" xlink:title="&lt;TABLE&gt;" target="_top">
<text text-anchor="start" x="96" y="-133.4" font-family="Helvetica,sans-Serif" font-size="12.00" fill="#000000">xs:string</text>
</a>
</g>
<polygon fill="none" stroke="#000000" points="93.5,-128.5 93.5,-145.5 142.5,-145.5 142.5,-128.5 93.5,-128.5"/>
</g>
<!-- xs:string&#45;&gt;mo:MGRSCoordinateStringSimpleType -->
<g id="edge2" class="edge">
<title>xs:string&#45;&gt;mo:MGRSCoordinateStringSimpleType</title>
<path fill="none" stroke="#000000" d="M118,-128.4473C118,-121.6242 118,-111.7417 118,-102.6794"/>
<polygon fill="#000000" stroke="#000000" points="121.5001,-102.6501 118,-92.6501 114.5001,-102.6502 121.5001,-102.6501"/>
<text text-anchor="middle" x="108.5" y="-107.4" font-family="Helvetica,sans-Serif" font-size="12.00" fill="#000000">restriction</text>
</g>
</g>
</svg>
