<?xml version="1.0" encoding="UTF-8" standalone="no"?>
<!DOCTYPE svg PUBLIC "-//W3C//DTD SVG 1.1//EN"
 "http://www.w3.org/Graphics/SVG/1.1/DTD/svg11.dtd">
<!-- Generated by graphviz version 2.40.1 (20161225.0304)
 -->
<!-- Title: graphic Pages: 1 -->
<svg width="816pt" height="45pt"
 viewBox="0.00 0.00 816.00 45.00" xmlns="http://www.w3.org/2000/svg" xmlns:xlink="http://www.w3.org/1999/xlink">
<g id="graph0" class="graph" transform="scale(1 1) rotate(0) translate(4 41)">
<title>graphic</title>
<polygon fill="#ffffff" stroke="transparent" points="-4,4 -4,-41 812,-41 812,4 -4,4"/>
<!-- j:SubjectAssignedDisabilityPlacementExpirationDate -->
<g id="node1" class="node">
<title>j:SubjectAssignedDisabilityPlacementExpirationDate</title>
<text text-anchor="start" x="367.5" y="-21.4" font-family="Helvetica,sans-Serif" font-weight="bold" font-size="12.00" fill="#000000">j:SubjectAssignedDisabilityPlacementExpirationDate</text>
<polygon fill="none" stroke="#ff0000" stroke-width="5" points="363.5,-14 363.5,-34 673.5,-34 673.5,-14 363.5,-14"/>
</g>
<!-- nc:DateType -->
<g id="node3" class="node">
<title>nc:DateType</title>
<g id="a_node3_0"><a xlink:href="../../nc/DateType/#diagram" xlink:title="A data type for a calendar date." target="_top">
<text text-anchor="start" x="737.5" y="-20.4" font-family="Helvetica,sans-Serif" font-size="12.00" fill="#000000">nc:DateType</text>
</a>
</g>
<polygon fill="none" stroke="#000000" points="735,-15.5 735,-32.5 808,-32.5 808,-15.5 735,-15.5"/>
</g>
<!-- j:SubjectAssignedDisabilityPlacementExpirationDate&#45;&gt;nc:DateType -->
<g id="edge2" class="edge">
<title>j:SubjectAssignedDisabilityPlacementExpirationDate&#45;&gt;nc:DateType</title>
<path fill="none" stroke="#000000" d="M676.2121,-24C693.787,-24 710.5047,-24 724.8893,-24"/>
<polygon fill="#000000" stroke="#000000" points="724.9302,-27.5001 734.9302,-24 724.9301,-20.5001 724.9302,-27.5001"/>
<text text-anchor="middle" x="705.5" y="-27.4" font-family="Helvetica,sans-Serif" font-size="12.00" fill="#000000">type</text>
</g>
<!-- Types -->
<g id="node2" class="node">
<title>Types</title>
<text text-anchor="start" x="2" y="-21.4" font-family="Helvetica,sans-Serif" font-weight="bold" font-size="12.00" fill="#000000">Types</text>
<g id="a_node2_1"><a xlink:href="../../j/SubjectAssignedAssignmentDisabilityPlacementType/#diagram" xlink:title="A data type for a kind of placement or assignment specific to a disability." target="_top">
<polygon fill="#ebebeb" stroke="transparent" points="1,-1 1,-16 293,-16 293,-1 1,-1"/>
<text text-anchor="start" x="2" y="-5.4" font-family="Helvetica,sans-Serif" font-size="12.00" fill="#000000">j:SubjectAssignedAssignmentDisabilityPlacementType</text>
</a>
</g>
<polygon fill="#000000" stroke="#000000" points="0,-16 0,-16 294,-16 294,-16 0,-16"/>
<polygon fill="none" stroke="#000000" points="0,0 0,-32 294,-32 294,0 0,0"/>
</g>
<!-- Types&#45;&gt;j:SubjectAssignedDisabilityPlacementExpirationDate -->
<g id="edge1" class="edge">
<title>Types:top&#45;&gt;j:SubjectAssignedDisabilityPlacementExpirationDate</title>
<path fill="none" stroke="#000000" d="M293,-24C311.6693,-24 331.2081,-24 350.6445,-24"/>
<polygon fill="#000000" stroke="#000000" points="350.7941,-27.5001 360.7941,-24 350.794,-20.5001 350.7941,-27.5001"/>
<text text-anchor="middle" x="327.5" y="-27.4" font-family="Helvetica,sans-Serif" font-size="12.00" fill="#000000">has&#45;a</text>
</g>
</g>
</svg>
