<?xml version="1.0" encoding="UTF-8" standalone="no"?>
<!DOCTYPE svg PUBLIC "-//W3C//DTD SVG 1.1//EN"
 "http://www.w3.org/Graphics/SVG/1.1/DTD/svg11.dtd">
<!-- Generated by graphviz version 2.40.1 (20161225.0304)
 -->
<!-- Title: graphic Pages: 1 -->
<svg width="665pt" height="45pt"
 viewBox="0.00 0.00 665.00 45.00" xmlns="http://www.w3.org/2000/svg" xmlns:xlink="http://www.w3.org/1999/xlink">
<g id="graph0" class="graph" transform="scale(1 1) rotate(0) translate(4 41)">
<title>graphic</title>
<polygon fill="#ffffff" stroke="transparent" points="-4,4 -4,-41 661,-41 661,4 -4,4"/>
<!-- im:BenefitEvidenceNotProvidedReasonText -->
<g id="node1" class="node">
<title>im:BenefitEvidenceNotProvidedReasonText</title>
<text text-anchor="start" x="270.5" y="-21.4" font-family="Helvetica,sans-Serif" font-weight="bold" font-size="12.00" fill="#000000">im:BenefitEvidenceNotProvidedReasonText</text>
<polygon fill="none" stroke="#ff0000" stroke-width="5" points="266.5,-14 266.5,-34 524.5,-34 524.5,-14 266.5,-14"/>
</g>
<!-- nc:TextType -->
<g id="node3" class="node">
<title>nc:TextType</title>
<g id="a_node3_0"><a xlink:href="../../nc/TextType/#diagram" xlink:title="A data type for a character string." target="_top">
<text text-anchor="start" x="588.5" y="-20.4" font-family="Helvetica,sans-Serif" font-size="12.00" fill="#000000">nc:TextType</text>
</a>
</g>
<polygon fill="none" stroke="#000000" points="586,-15.5 586,-32.5 657,-32.5 657,-15.5 586,-15.5"/>
</g>
<!-- im:BenefitEvidenceNotProvidedReasonText&#45;&gt;nc:TextType -->
<g id="edge2" class="edge">
<title>im:BenefitEvidenceNotProvidedReasonText&#45;&gt;nc:TextType</title>
<path fill="none" stroke="#000000" d="M527.2922,-24C544.5937,-24 561.2904,-24 575.6983,-24"/>
<polygon fill="#000000" stroke="#000000" points="575.7608,-27.5001 585.7608,-24 575.7607,-20.5001 575.7608,-27.5001"/>
<text text-anchor="middle" x="556.5" y="-27.4" font-family="Helvetica,sans-Serif" font-size="12.00" fill="#000000">type</text>
</g>
<!-- Types -->
<g id="node2" class="node">
<title>Types</title>
<text text-anchor="start" x="2.5" y="-21.4" font-family="Helvetica,sans-Serif" font-weight="bold" font-size="12.00" fill="#000000">Types</text>
<g id="a_node2_1"><a xlink:href="../../im/ImmigrationBenefitEvidenceType/#diagram" xlink:title="A data type for the evidence provided in support of an immigration benefit request." target="_top">
<polygon fill="#ebebeb" stroke="transparent" points="1.5,-1 1.5,-16 196.5,-16 196.5,-1 1.5,-1"/>
<text text-anchor="start" x="2.5" y="-5.4" font-family="Helvetica,sans-Serif" font-size="12.00" fill="#000000">im:ImmigrationBenefitEvidenceType</text>
</a>
</g>
<polygon fill="#000000" stroke="#000000" points=".5,-16 .5,-16 197.5,-16 197.5,-16 .5,-16"/>
<polygon fill="none" stroke="#000000" points="0,0 0,-32 197,-32 197,0 0,0"/>
</g>
<!-- Types&#45;&gt;im:BenefitEvidenceNotProvidedReasonText -->
<g id="edge1" class="edge">
<title>Types:top&#45;&gt;im:BenefitEvidenceNotProvidedReasonText</title>
<path fill="none" stroke="#000000" d="M196.5,-24C215.0348,-24 234.5406,-24 253.7965,-24"/>
<polygon fill="#000000" stroke="#000000" points="253.8369,-27.5001 263.8369,-24 253.8369,-20.5001 253.8369,-27.5001"/>
<text text-anchor="middle" x="230.5" y="-27.4" font-family="Helvetica,sans-Serif" font-size="12.00" fill="#000000">has&#45;a</text>
</g>
</g>
</svg>
