<?xml version="1.0" encoding="UTF-8" standalone="no"?>
<!DOCTYPE svg PUBLIC "-//W3C//DTD SVG 1.1//EN"
 "http://www.w3.org/Graphics/SVG/1.1/DTD/svg11.dtd">
<!-- Generated by graphviz version 2.40.1 (20161225.0304)
 -->
<!-- Title: graphic Pages: 1 -->
<svg width="719pt" height="221pt"
 viewBox="0.00 0.00 719.00 220.50" xmlns="http://www.w3.org/2000/svg" xmlns:xlink="http://www.w3.org/1999/xlink">
<g id="graph0" class="graph" transform="scale(1 1) rotate(0) translate(4 216.5)">
<title>graphic</title>
<polygon fill="#ffffff" stroke="transparent" points="-4,4 -4,-216.5 715,-216.5 715,4 -4,4"/>
<!-- im:ImmigrationBenefitDisabilityAccommodationType -->
<g id="node1" class="node">
<title>im:ImmigrationBenefitDisabilityAccommodationType</title>
<text text-anchor="start" x="326.5" y="-145.4" font-family="Helvetica,sans-Serif" font-weight="bold" font-size="12.00" fill="#000000">im:ImmigrationBenefitDisabilityAccommodationType</text>
<g id="a_node1_0"><a xlink:href="../../nc/Person/#diagram" xlink:title="A human being." target="_top">
<polygon fill="#ebebeb" stroke="transparent" points="325.5,-125 325.5,-140 706.5,-140 706.5,-125 325.5,-125"/>
<text text-anchor="start" x="326.5" y="-129.4" font-family="Helvetica,sans-Serif" font-size="12.00" fill="#000000">nc:Person: nc:PersonType [0&#45;n]</text>
</a>
</g>
<g id="a_node1_1"><a xlink:href="../../im/DisabilityImpairmentIndicator/#diagram" xlink:title="True if the Applicant or Beneficiary has a disability; false otherwise" target="_top">
<text text-anchor="start" x="326.5" y="-114.4" font-family="Helvetica,sans-Serif" font-size="12.00" fill="#000000">im:DisabilityImpairmentIndicator: niem&#45;xs:boolean [0&#45;n]</text>
</a>
</g>
<g id="a_node1_2"><a xlink:href="../../im/DeafHardHearingIndicator/#diagram" xlink:title="True if the Applicant has a hearing impairment; false otherwise" target="_top">
<polygon fill="#ebebeb" stroke="transparent" points="325.5,-95 325.5,-110 706.5,-110 706.5,-95 325.5,-95"/>
<text text-anchor="start" x="326.5" y="-99.4" font-family="Helvetica,sans-Serif" font-size="12.00" fill="#000000">im:DeafHardHearingIndicator: niem&#45;xs:boolean [0&#45;1]</text>
</a>
</g>
<g id="a_node1_3"><a xlink:href="../../im/BlindSightImpairedIndicator/#diagram" xlink:title="True if the Applicant has a sight impairment; false otherwise" target="_top">
<text text-anchor="start" x="326.5" y="-84.4" font-family="Helvetica,sans-Serif" font-size="12.00" fill="#000000">im:BlindSightImpairedIndicator: niem&#45;xs:boolean [0&#45;1]</text>
</a>
</g>
<g id="a_node1_4"><a xlink:href="../../im/DisabilityAccommodationIndicator/#diagram" xlink:title="True if the Applicant has a physical impairment; false otherwise" target="_top">
<polygon fill="#ebebeb" stroke="transparent" points="325.5,-65 325.5,-80 706.5,-80 706.5,-65 325.5,-65"/>
<text text-anchor="start" x="326.5" y="-69.4" font-family="Helvetica,sans-Serif" font-size="12.00" fill="#000000">im:DisabilityAccommodationIndicator: niem&#45;xs:boolean [0&#45;1]</text>
</a>
</g>
<g id="a_node1_5"><a xlink:href="../../im/DeafHardHearingAccommodationText/#diagram" xlink:title="A requested hearing accommodation for a disabled person." target="_top">
<text text-anchor="start" x="326.5" y="-54.4" font-family="Helvetica,sans-Serif" font-size="12.00" fill="#000000">im:DeafHardHearingAccommodationText: nc:TextType [0&#45;1]</text>
</a>
</g>
<g id="a_node1_6"><a xlink:href="../../im/BlindSightImpairedAccommodationText/#diagram" xlink:title="A requested Sight accommodation for a disabled person." target="_top">
<polygon fill="#ebebeb" stroke="transparent" points="325.5,-35 325.5,-50 706.5,-50 706.5,-35 325.5,-35"/>
<text text-anchor="start" x="326.5" y="-39.4" font-family="Helvetica,sans-Serif" font-size="12.00" fill="#000000">im:BlindSightImpairedAccommodationText: nc:TextType [0&#45;1]</text>
</a>
</g>
<g id="a_node1_7"><a xlink:href="../../im/DisabilityAccommodationText/#diagram" xlink:title="A requested physical accommodation for a disabled person." target="_top">
<text text-anchor="start" x="326.5" y="-24.4" font-family="Helvetica,sans-Serif" font-size="12.00" fill="#000000">im:DisabilityAccommodationText: nc:TextType [0&#45;1]</text>
</a>
</g>
<g id="a_node1_8"><a xlink:href="../../im/ImmigrationBenefitDisabilityAccommodationAugmentationPoint/#diagram" xlink:title="An augmentation point for ImmigrationBenefitDisabilityAccommodationType." target="_top">
<polygon fill="#ebebeb" stroke="transparent" points="325.5,-5 325.5,-20 706.5,-20 706.5,-5 325.5,-5"/>
<text text-anchor="start" x="326.5" y="-9.4" font-family="Helvetica,sans-Serif" font-size="12.00" fill="#000000">im:ImmigrationBenefitDisabilityAccommodationAugmentationPoint [0&#45;n]</text>
</a>
</g>
<polygon fill="#ff0000" stroke="#ff0000" points="320.5,-140 320.5,-140 711.5,-140 711.5,-140 320.5,-140"/>
<polygon fill="none" stroke="#ff0000" stroke-width="5" points="322.5,-2.5 322.5,-157.5 708.5,-157.5 708.5,-2.5 322.5,-2.5"/>
</g>
<!-- Properties -->
<g id="node2" class="node">
<title>Properties</title>
<text text-anchor="start" x="2.5" y="-145.4" font-family="Helvetica,sans-Serif" font-weight="bold" font-size="12.00" fill="#000000">Properties</text>
<g id="a_node2_9"><a xlink:href="../../im/ImmigrationBenefitDisabilityAccommodations/#diagram" xlink:title="An accommodation required at the immigration interview for a disabled applicant." target="_top">
<polygon fill="#ebebeb" stroke="transparent" points="1.5,-125 1.5,-140 260.5,-140 260.5,-125 1.5,-125"/>
<text text-anchor="start" x="2.5" y="-129.4" font-family="Helvetica,sans-Serif" font-size="12.00" fill="#000000">im:ImmigrationBenefitDisabilityAccommodations</text>
</a>
</g>
<polygon fill="#000000" stroke="#000000" points=".5,-140 .5,-140 261.5,-140 261.5,-140 .5,-140"/>
<polygon fill="none" stroke="#000000" points="0,-124 0,-156 261,-156 261,-124 0,-124"/>
</g>
<!-- Properties&#45;&gt;im:ImmigrationBenefitDisabilityAccommodationType -->
<g id="edge1" class="edge">
<title>Properties:top&#45;&gt;im:ImmigrationBenefitDisabilityAccommodationType:top</title>
<path fill="none" stroke="#000000" d="M260.5,-148C285.6649,-148 294.3891,-148 315.3154,-148"/>
<polygon fill="#000000" stroke="#000000" points="315.5,-151.5001 325.5,-148 315.5,-144.5001 315.5,-151.5001"/>
<text text-anchor="middle" x="290.5" y="-151.4" font-family="Helvetica,sans-Serif" font-size="12.00" fill="#000000">type</text>
</g>
<!-- structures:ObjectType -->
<g id="node3" class="node">
<title>structures:ObjectType</title>
<g id="a_node3_10"><a xlink:href="../../structures/ObjectType/#diagram" xlink:title="A data type for a thing with its own lifespan that has some existence." target="_top">
<text text-anchor="start" x="456.5" y="-200.4" font-family="Helvetica,sans-Serif" font-size="12.00" fill="#000000">structures:ObjectType</text>
</a>
</g>
<polygon fill="none" stroke="#000000" points="454.5,-195.5 454.5,-212.5 576.5,-212.5 576.5,-195.5 454.5,-195.5"/>
</g>
<!-- structures:ObjectType&#45;&gt;im:ImmigrationBenefitDisabilityAccommodationType -->
<g id="edge2" class="edge">
<title>structures:ObjectType&#45;&gt;im:ImmigrationBenefitDisabilityAccommodationType</title>
<path fill="none" stroke="#000000" d="M515.5,-195.225C515.5,-189.2024 515.5,-180.5203 515.5,-170.5842"/>
<polygon fill="#000000" stroke="#000000" points="519.0001,-170.2822 515.5,-160.2822 512.0001,-170.2823 519.0001,-170.2822"/>
<text text-anchor="middle" x="506" y="-174.65" font-family="Helvetica,sans-Serif" font-size="12.00" fill="#000000">extension</text>
</g>
</g>
</svg>
