<?xml version="1.0" encoding="UTF-8" standalone="no"?>
<!DOCTYPE svg PUBLIC "-//W3C//DTD SVG 1.1//EN"
 "http://www.w3.org/Graphics/SVG/1.1/DTD/svg11.dtd">
<!-- Generated by graphviz version 2.40.1 (20161225.0304)
 -->
<!-- Title: graphic Pages: 1 -->
<svg width="501pt" height="45pt"
 viewBox="0.00 0.00 501.00 45.00" xmlns="http://www.w3.org/2000/svg" xmlns:xlink="http://www.w3.org/1999/xlink">
<g id="graph0" class="graph" transform="scale(1 1) rotate(0) translate(4 41)">
<title>graphic</title>
<polygon fill="#ffffff" stroke="transparent" points="-4,4 -4,-41 497,-41 497,4 -4,4"/>
<!-- nc:PersonMedicationRequiredText -->
<g id="node1" class="node">
<title>nc:PersonMedicationRequiredText</title>
<text text-anchor="start" x="158.5" y="-21.4" font-family="Helvetica,sans-Serif" font-weight="bold" font-size="12.00" fill="#000000">nc:PersonMedicationRequiredText</text>
<polygon fill="none" stroke="#ff0000" stroke-width="5" points="154.5,-14 154.5,-34 360.5,-34 360.5,-14 154.5,-14"/>
</g>
<!-- nc:TextType -->
<g id="node3" class="node">
<title>nc:TextType</title>
<g id="a_node3_0"><a xlink:href="../../nc/TextType/#diagram" xlink:title="A data type for a character string." target="_top">
<text text-anchor="start" x="424.5" y="-20.4" font-family="Helvetica,sans-Serif" font-size="12.00" fill="#000000">nc:TextType</text>
</a>
</g>
<polygon fill="none" stroke="#000000" points="422,-15.5 422,-32.5 493,-32.5 493,-15.5 422,-15.5"/>
</g>
<!-- nc:PersonMedicationRequiredText&#45;&gt;nc:TextType -->
<g id="edge2" class="edge">
<title>nc:PersonMedicationRequiredText&#45;&gt;nc:TextType</title>
<path fill="none" stroke="#000000" d="M363.0639,-24C380.141,-24 397.001,-24 411.6437,-24"/>
<polygon fill="#000000" stroke="#000000" points="411.8854,-27.5001 421.8854,-24 411.8854,-20.5001 411.8854,-27.5001"/>
<text text-anchor="middle" x="392.5" y="-27.4" font-family="Helvetica,sans-Serif" font-size="12.00" fill="#000000">type</text>
</g>
<!-- Types -->
<g id="node2" class="node">
<title>Types</title>
<text text-anchor="start" x="2.5" y="-21.4" font-family="Helvetica,sans-Serif" font-weight="bold" font-size="12.00" fill="#000000">Types</text>
<g id="a_node2_1"><a xlink:href="../../nc/PersonType/#diagram" xlink:title="A data type for a human being." target="_top">
<polygon fill="#ebebeb" stroke="transparent" points="1.5,-1 1.5,-16 84.5,-16 84.5,-1 1.5,-1"/>
<text text-anchor="start" x="2.5" y="-5.4" font-family="Helvetica,sans-Serif" font-size="12.00" fill="#000000">nc:PersonType</text>
</a>
</g>
<polygon fill="#000000" stroke="#000000" points=".5,-16 .5,-16 85.5,-16 85.5,-16 .5,-16"/>
<polygon fill="none" stroke="#000000" points="0,0 0,-32 85,-32 85,0 0,0"/>
</g>
<!-- Types&#45;&gt;nc:PersonMedicationRequiredText -->
<g id="edge1" class="edge">
<title>Types:top&#45;&gt;nc:PersonMedicationRequiredText</title>
<path fill="none" stroke="#000000" d="M84.5,-24C102.9579,-24 122.5235,-24 141.6013,-24"/>
<polygon fill="#000000" stroke="#000000" points="141.831,-27.5001 151.8309,-24 141.8309,-20.5001 141.831,-27.5001"/>
<text text-anchor="middle" x="118.5" y="-27.4" font-family="Helvetica,sans-Serif" font-size="12.00" fill="#000000">has&#45;a</text>
</g>
</g>
</svg>
