<?xml version="1.0" encoding="UTF-8" standalone="no"?>
<!DOCTYPE svg PUBLIC "-//W3C//DTD SVG 1.1//EN"
 "http://www.w3.org/Graphics/SVG/1.1/DTD/svg11.dtd">
<!-- Generated by graphviz version 2.40.1 (20161225.0304)
 -->
<!-- Title: graphic Pages: 1 -->
<svg width="257pt" height="154pt"
 viewBox="0.00 0.00 257.00 153.50" xmlns="http://www.w3.org/2000/svg" xmlns:xlink="http://www.w3.org/1999/xlink">
<g id="graph0" class="graph" transform="scale(1 1) rotate(0) translate(4 149.5)">
<title>graphic</title>
<polygon fill="#ffffff" stroke="transparent" points="-4,4 -4,-149.5 253,-149.5 253,4 -4,4"/>
<!-- cbrncl:SealVerificationStatusCodeType -->
<g id="node1" class="node">
<title>cbrncl:SealVerificationStatusCodeType</title>
<text text-anchor="start" x="12.5" y="-25.4" font-family="Helvetica,sans-Serif" font-weight="bold" font-size="12.00" fill="#000000">cbrncl:SealVerificationStatusCodeType</text>
<g id="a_node1_0"><a xlink:href="../../structures/SimpleObjectAttributeGroup/#diagram" xlink:title="A group of attributes that are applicable to objects, to be used when defining a complex type that is an extension of a simple type." target="_top">
<polygon fill="#ebebeb" stroke="transparent" points="11.5,-5 11.5,-20 238.5,-20 238.5,-5 11.5,-5"/>
<text text-anchor="start" x="12.5" y="-9.4" font-family="Helvetica,sans-Serif" font-size="12.00" fill="#000000">structures:SimpleObjectAttributeGroup</text>
</a>
</g>
<polygon fill="#ff0000" stroke="#ff0000" points="6.5,-20 6.5,-20 243.5,-20 243.5,-20 6.5,-20"/>
<polygon fill="none" stroke="#ff0000" stroke-width="5" points="8.5,-2.5 8.5,-37.5 240.5,-37.5 240.5,-2.5 8.5,-2.5"/>
</g>
<!-- cbrncl:SealVerificationStatusCodeSimpleType -->
<g id="node2" class="node">
<title>cbrncl:SealVerificationStatusCodeSimpleType</title>
<g id="a_node2_1"><a xlink:href="../../cbrncl/SealVerificationStatusCodeSimpleType/#diagram" xlink:title="A data type that defines the various seal verification status codes" target="_top">
<text text-anchor="start" x="2.5" y="-80.4" font-family="Helvetica,sans-Serif" font-size="12.00" fill="#000000">cbrncl:SealVerificationStatusCodeSimpleType</text>
</a>
</g>
<polygon fill="none" stroke="#000000" points="0,-75.5 0,-92.5 249,-92.5 249,-75.5 0,-75.5"/>
</g>
<!-- cbrncl:SealVerificationStatusCodeSimpleType&#45;&gt;cbrncl:SealVerificationStatusCodeType -->
<g id="edge1" class="edge">
<title>cbrncl:SealVerificationStatusCodeSimpleType&#45;&gt;cbrncl:SealVerificationStatusCodeType</title>
<path fill="none" stroke="#000000" d="M124.5,-75.4351C124.5,-68.931 124.5,-59.5678 124.5,-50.3827"/>
<polygon fill="#000000" stroke="#000000" points="128.0001,-50.25 124.5,-40.25 121.0001,-50.25 128.0001,-50.25"/>
<text text-anchor="middle" x="115" y="-54.65" font-family="Helvetica,sans-Serif" font-size="12.00" fill="#000000">extension</text>
</g>
<!-- xs:token -->
<g id="node3" class="node">
<title>xs:token</title>
<g id="a_node3_2"><a xlink:href="../../xs/token/#diagram" xlink:title="&lt;TABLE&gt;" target="_top">
<text text-anchor="start" x="102.5" y="-133.4" font-family="Helvetica,sans-Serif" font-size="12.00" fill="#000000">xs:token</text>
</a>
</g>
<polygon fill="none" stroke="#000000" points="100,-128.5 100,-145.5 149,-145.5 149,-128.5 100,-128.5"/>
</g>
<!-- xs:token&#45;&gt;cbrncl:SealVerificationStatusCodeSimpleType -->
<g id="edge2" class="edge">
<title>xs:token&#45;&gt;cbrncl:SealVerificationStatusCodeSimpleType</title>
<path fill="none" stroke="#000000" d="M124.5,-128.411C124.5,-121.5124 124.5,-111.5696 124.5,-102.84"/>
<polygon fill="#000000" stroke="#000000" points="128.0001,-102.7518 124.5,-92.7519 121.0001,-102.7519 128.0001,-102.7518"/>
<text text-anchor="middle" x="115" y="-107.4" font-family="Helvetica,sans-Serif" font-size="12.00" fill="#000000">restriction</text>
</g>
</g>
</svg>
