<?xml version="1.0" encoding="UTF-8" standalone="no"?>
<!DOCTYPE svg PUBLIC "-//W3C//DTD SVG 1.1//EN"
 "http://www.w3.org/Graphics/SVG/1.1/DTD/svg11.dtd">
<!-- Generated by graphviz version 2.40.1 (20161225.0304)
 -->
<!-- Title: graphic Pages: 1 -->
<svg width="416pt" height="45pt"
 viewBox="0.00 0.00 416.00 45.00" xmlns="http://www.w3.org/2000/svg" xmlns:xlink="http://www.w3.org/1999/xlink">
<g id="graph0" class="graph" transform="scale(1 1) rotate(0) translate(4 41)">
<title>graphic</title>
<polygon fill="#ffffff" stroke="transparent" points="-4,4 -4,-41 412,-41 412,4 -4,4"/>
<!-- hs:VisitationPlanAugmentationPoint -->
<g id="node1" class="node">
<title>hs:VisitationPlanAugmentationPoint</title>
<text text-anchor="start" x="193.5" y="-21.4" font-family="Helvetica,sans-Serif" font-weight="bold" font-size="12.00" fill="#000000">hs:VisitationPlanAugmentationPoint</text>
<polygon fill="none" stroke="#ff0000" stroke-width="5" points="189.5,-14 189.5,-34 405.5,-34 405.5,-14 189.5,-14"/>
</g>
<!-- Types -->
<g id="node2" class="node">
<title>Types</title>
<text text-anchor="start" x="2" y="-21.4" font-family="Helvetica,sans-Serif" font-weight="bold" font-size="12.00" fill="#000000">Types</text>
<g id="a_node2_0"><a xlink:href="../../hs/VisitationPlanType/#diagram" xlink:title="A data type for the details about a current visitation agreement" target="_top">
<polygon fill="#ebebeb" stroke="transparent" points="1,-1 1,-16 119,-16 119,-1 1,-1"/>
<text text-anchor="start" x="2" y="-5.4" font-family="Helvetica,sans-Serif" font-size="12.00" fill="#000000">hs:VisitationPlanType</text>
</a>
</g>
<polygon fill="#000000" stroke="#000000" points="0,-16 0,-16 120,-16 120,-16 0,-16"/>
<polygon fill="none" stroke="#000000" points="0,0 0,-32 120,-32 120,0 0,0"/>
</g>
<!-- Types&#45;&gt;hs:VisitationPlanAugmentationPoint -->
<g id="edge1" class="edge">
<title>Types:top&#45;&gt;hs:VisitationPlanAugmentationPoint</title>
<path fill="none" stroke="#000000" d="M119,-24C137.6046,-24 157.3,-24 176.5514,-24"/>
<polygon fill="#000000" stroke="#000000" points="176.5701,-27.5001 186.5701,-24 176.57,-20.5001 176.5701,-27.5001"/>
<text text-anchor="middle" x="153.5" y="-27.4" font-family="Helvetica,sans-Serif" font-size="12.00" fill="#000000">has&#45;a</text>
</g>
</g>
</svg>
