<?xml version="1.0" encoding="UTF-8" standalone="no"?>
<!DOCTYPE svg PUBLIC "-//W3C//DTD SVG 1.1//EN"
 "http://www.w3.org/Graphics/SVG/1.1/DTD/svg11.dtd">
<!-- Generated by graphviz version 2.40.1 (20161225.0304)
 -->
<!-- Title: graphic Pages: 1 -->
<svg width="472pt" height="45pt"
 viewBox="0.00 0.00 472.00 45.00" xmlns="http://www.w3.org/2000/svg" xmlns:xlink="http://www.w3.org/1999/xlink">
<g id="graph0" class="graph" transform="scale(1 1) rotate(0) translate(4 41)">
<title>graphic</title>
<polygon fill="#ffffff" stroke="transparent" points="-4,4 -4,-41 468,-41 468,4 -4,4"/>
<!-- cbrn:GeographicPointAugmentationPoint -->
<g id="node1" class="node">
<title>cbrn:GeographicPointAugmentationPoint</title>
<text text-anchor="start" x="220" y="-21.4" font-family="Helvetica,sans-Serif" font-weight="bold" font-size="12.00" fill="#000000">cbrn:GeographicPointAugmentationPoint</text>
<polygon fill="none" stroke="#ff0000" stroke-width="5" points="216.5,-14 216.5,-34 461.5,-34 461.5,-14 216.5,-14"/>
</g>
<!-- Types -->
<g id="node2" class="node">
<title>Types</title>
<text text-anchor="start" x="2.5" y="-21.4" font-family="Helvetica,sans-Serif" font-weight="bold" font-size="12.00" fill="#000000">Types</text>
<g id="a_node2_0"><a xlink:href="../../cbrn/GeographicPointType/#diagram" xlink:title="A data type for geographical coordinates of a point on the surface of the earth. For latitudes, positive values correspond to Northern latitudes, and negative values to Southern; for longitudes, positive values are Eastern longitudes and negative are Western. The units of measure for elevation and positional accuracy elements is given by the units attribute." target="_top">
<polygon fill="#ebebeb" stroke="transparent" points="1.5,-1 1.5,-16 146.5,-16 146.5,-1 1.5,-1"/>
<text text-anchor="start" x="2.5" y="-5.4" font-family="Helvetica,sans-Serif" font-size="12.00" fill="#000000">cbrn:GeographicPointType</text>
</a>
</g>
<polygon fill="#000000" stroke="#000000" points=".5,-16 .5,-16 147.5,-16 147.5,-16 .5,-16"/>
<polygon fill="none" stroke="#000000" points="0,0 0,-32 147,-32 147,0 0,0"/>
</g>
<!-- Types&#45;&gt;cbrn:GeographicPointAugmentationPoint -->
<g id="edge1" class="edge">
<title>Types:top&#45;&gt;cbrn:GeographicPointAugmentationPoint</title>
<path fill="none" stroke="#000000" d="M146.5,-24C165.0697,-24 184.6471,-24 203.9198,-24"/>
<polygon fill="#000000" stroke="#000000" points="203.9635,-27.5001 213.9635,-24 203.9635,-20.5001 203.9635,-27.5001"/>
<text text-anchor="middle" x="180.5" y="-27.4" font-family="Helvetica,sans-Serif" font-size="12.00" fill="#000000">has&#45;a</text>
</g>
</g>
</svg>
