<?xml version="1.0" encoding="UTF-8" standalone="no"?>
<!DOCTYPE svg PUBLIC "-//W3C//DTD SVG 1.1//EN"
 "http://www.w3.org/Graphics/SVG/1.1/DTD/svg11.dtd">
<!-- Generated by graphviz version 2.40.1 (20161225.0304)
 -->
<!-- Title: graphic Pages: 1 -->
<svg width="363pt" height="184pt"
 viewBox="0.00 0.00 363.00 183.50" xmlns="http://www.w3.org/2000/svg" xmlns:xlink="http://www.w3.org/1999/xlink">
<g id="graph0" class="graph" transform="scale(1 1) rotate(0) translate(4 179.5)">
<title>graphic</title>
<polygon fill="#ffffff" stroke="transparent" points="-4,4 -4,-179.5 359,-179.5 359,4 -4,4"/>
<!-- j:InspectionType -->
<g id="node1" class="node">
<title>j:InspectionType</title>
<text text-anchor="start" x="130.5" y="-55.4" font-family="Helvetica,sans-Serif" font-weight="bold" font-size="12.00" fill="#000000">j:InspectionType</text>
<g id="a_node1_0"><a xlink:href="../../j/InspectionScopeText/#diagram" xlink:title="A text statement of the scope of the inspection." target="_top">
<polygon fill="#ebebeb" stroke="transparent" points="129.5,-35 129.5,-50 350.5,-50 350.5,-35 129.5,-35"/>
<text text-anchor="start" x="130.5" y="-39.4" font-family="Helvetica,sans-Serif" font-size="12.00" fill="#000000">j:InspectionScopeText: nc:TextType [0&#45;n]</text>
</a>
</g>
<g id="a_node1_1"><a xlink:href="../../j/InspectionTopicText/#diagram" xlink:title="A kind of inspection." target="_top">
<text text-anchor="start" x="130.5" y="-24.4" font-family="Helvetica,sans-Serif" font-size="12.00" fill="#000000">j:InspectionTopicText: nc:TextType [0&#45;n]</text>
</a>
</g>
<g id="a_node1_2"><a xlink:href="../../j/InspectionAugmentationPoint/#diagram" xlink:title="An augmentation point for type j:InspectionType" target="_top">
<polygon fill="#ebebeb" stroke="transparent" points="129.5,-5 129.5,-20 350.5,-20 350.5,-5 129.5,-5"/>
<text text-anchor="start" x="130.5" y="-9.4" font-family="Helvetica,sans-Serif" font-size="12.00" fill="#000000">j:InspectionAugmentationPoint [0&#45;n]</text>
</a>
</g>
<polygon fill="#ff0000" stroke="#ff0000" points="124.5,-50 124.5,-50 355.5,-50 355.5,-50 124.5,-50"/>
<polygon fill="none" stroke="#ff0000" stroke-width="5" points="126.5,-2.5 126.5,-67.5 352.5,-67.5 352.5,-2.5 126.5,-2.5"/>
</g>
<!-- Properties -->
<g id="node2" class="node">
<title>Properties</title>
<text text-anchor="start" x="2.5" y="-55.4" font-family="Helvetica,sans-Serif" font-weight="bold" font-size="12.00" fill="#000000">Properties</text>
<g id="a_node2_3"><a xlink:href="../../j/Inspection/#diagram" xlink:title="A checking or testing of an individual or entity against established standards." target="_top">
<polygon fill="#ebebeb" stroke="transparent" points="1.5,-35 1.5,-50 64.5,-50 64.5,-35 1.5,-35"/>
<text text-anchor="start" x="2.5" y="-39.4" font-family="Helvetica,sans-Serif" font-size="12.00" fill="#000000">j:Inspection</text>
</a>
</g>
<polygon fill="#000000" stroke="#000000" points=".5,-50 .5,-50 65.5,-50 65.5,-50 .5,-50"/>
<polygon fill="none" stroke="#000000" points="0,-34 0,-66 65,-66 65,-34 0,-34"/>
</g>
<!-- Properties&#45;&gt;j:InspectionType -->
<g id="edge1" class="edge">
<title>Properties:top&#45;&gt;j:InspectionType:top</title>
<path fill="none" stroke="#000000" d="M64.5,-58C89.6649,-58 98.3891,-58 119.3154,-58"/>
<polygon fill="#000000" stroke="#000000" points="119.5,-61.5001 129.5,-58 119.5,-54.5001 119.5,-61.5001"/>
<text text-anchor="middle" x="94.5" y="-61.4" font-family="Helvetica,sans-Serif" font-size="12.00" fill="#000000">type</text>
</g>
<!-- nc:ActivityType -->
<g id="node3" class="node">
<title>nc:ActivityType</title>
<g id="a_node3_4"><a xlink:href="../../nc/ActivityType/#diagram" xlink:title="A data type for a single or set of related actions, events, or process steps." target="_top">
<text text-anchor="start" x="199.5" y="-110.4" font-family="Helvetica,sans-Serif" font-size="12.00" fill="#000000">nc:ActivityType</text>
</a>
</g>
<polygon fill="none" stroke="#000000" points="197,-105.5 197,-122.5 282,-122.5 282,-105.5 197,-105.5"/>
</g>
<!-- nc:ActivityType&#45;&gt;j:InspectionType -->
<g id="edge2" class="edge">
<title>nc:ActivityType&#45;&gt;j:InspectionType</title>
<path fill="none" stroke="#000000" d="M239.5,-105.4117C239.5,-99.1025 239.5,-89.9911 239.5,-80.4049"/>
<polygon fill="#000000" stroke="#000000" points="243.0001,-80.3408 239.5,-70.3408 236.0001,-80.3409 243.0001,-80.3408"/>
<text text-anchor="middle" x="230" y="-84.65" font-family="Helvetica,sans-Serif" font-size="12.00" fill="#000000">extension</text>
</g>
<!-- structures:ObjectType -->
<g id="node4" class="node">
<title>structures:ObjectType</title>
<g id="a_node4_5"><a xlink:href="../../structures/ObjectType/#diagram" xlink:title="A data type for a thing with its own lifespan that has some existence." target="_top">
<text text-anchor="start" x="180.5" y="-163.4" font-family="Helvetica,sans-Serif" font-size="12.00" fill="#000000">structures:ObjectType</text>
</a>
</g>
<polygon fill="none" stroke="#000000" points="178.5,-158.5 178.5,-175.5 300.5,-175.5 300.5,-158.5 178.5,-158.5"/>
</g>
<!-- structures:ObjectType&#45;&gt;nc:ActivityType -->
<g id="edge3" class="edge">
<title>structures:ObjectType&#45;&gt;nc:ActivityType</title>
<path fill="none" stroke="#000000" d="M239.5,-158.411C239.5,-151.5124 239.5,-141.5696 239.5,-132.84"/>
<polygon fill="#000000" stroke="#000000" points="243.0001,-132.7518 239.5,-122.7519 236.0001,-132.7519 243.0001,-132.7518"/>
<text text-anchor="middle" x="230" y="-137.4" font-family="Helvetica,sans-Serif" font-size="12.00" fill="#000000">extension</text>
</g>
</g>
</svg>
