<?xml version="1.0" encoding="UTF-8" standalone="no"?>
<!DOCTYPE svg PUBLIC "-//W3C//DTD SVG 1.1//EN"
 "http://www.w3.org/Graphics/SVG/1.1/DTD/svg11.dtd">
<!-- Generated by graphviz version 2.40.1 (20161225.0304)
 -->
<!-- Title: graphic Pages: 1 -->
<svg width="1042pt" height="184pt"
 viewBox="0.00 0.00 1042.00 183.50" xmlns="http://www.w3.org/2000/svg" xmlns:xlink="http://www.w3.org/1999/xlink">
<g id="graph0" class="graph" transform="scale(1 1) rotate(0) translate(4 179.5)">
<title>graphic</title>
<polygon fill="#ffffff" stroke="transparent" points="-4,4 -4,-179.5 1038,-179.5 1038,4 -4,4"/>
<!-- hs:AssessmentRecommendedCourseOfActionType -->
<g id="node1" class="node">
<title>hs:AssessmentRecommendedCourseOfActionType</title>
<text text-anchor="start" x="317.5" y="-55.4" font-family="Helvetica,sans-Serif" font-weight="bold" font-size="12.00" fill="#000000">hs:AssessmentRecommendedCourseOfActionType</text>
<g id="a_node1_0"><a xlink:href="../../hs/AssessmentCourseOfActionWillBeTakenIndicator/#diagram" xlink:title="True if defined course of action will be taken; false otherwise." target="_top">
<polygon fill="#ebebeb" stroke="transparent" points="316.5,-35 316.5,-50 1029.5,-50 1029.5,-35 316.5,-35"/>
<text text-anchor="start" x="317.5" y="-39.4" font-family="Helvetica,sans-Serif" font-size="12.00" fill="#000000">hs:AssessmentCourseOfActionWillBeTakenIndicator: niem&#45;xs:boolean [0&#45;n]</text>
</a>
</g>
<g id="a_node1_1"><a xlink:href="../../hs/AssessmentRecommendedCourseOfActionCategoryCode/#diagram" xlink:title="A kind of course of action." target="_top">
<text text-anchor="start" x="317.5" y="-24.4" font-family="Helvetica,sans-Serif" font-size="12.00" fill="#000000">hs:AssessmentRecommendedCourseOfActionCategoryCode: hs:AssessmentRecommendedCourseOfActionCategoryCodeType [0&#45;n]</text>
</a>
</g>
<g id="a_node1_2"><a xlink:href="../../hs/AssessmentRecommendedCourseOfActionAugmentationPoint/#diagram" xlink:title="An augmentation point for AssessmentRecommendedCourseOfActionType." target="_top">
<polygon fill="#ebebeb" stroke="transparent" points="316.5,-5 316.5,-20 1029.5,-20 1029.5,-5 316.5,-5"/>
<text text-anchor="start" x="317.5" y="-9.4" font-family="Helvetica,sans-Serif" font-size="12.00" fill="#000000">hs:AssessmentRecommendedCourseOfActionAugmentationPoint [0&#45;n]</text>
</a>
</g>
<polygon fill="#ff0000" stroke="#ff0000" points="311.5,-50 311.5,-50 1034.5,-50 1034.5,-50 311.5,-50"/>
<polygon fill="none" stroke="#ff0000" stroke-width="5" points="313.5,-2.5 313.5,-67.5 1031.5,-67.5 1031.5,-2.5 313.5,-2.5"/>
</g>
<!-- Properties -->
<g id="node2" class="node">
<title>Properties</title>
<text text-anchor="start" x="2" y="-55.4" font-family="Helvetica,sans-Serif" font-weight="bold" font-size="12.00" fill="#000000">Properties</text>
<g id="a_node2_3"><a xlink:href="../../hs/AssessmentRecommendedCourseOfAction/#diagram" xlink:title="A recommended course of action arising from an assessment." target="_top">
<polygon fill="#ebebeb" stroke="transparent" points="1,-35 1,-50 251,-50 251,-35 1,-35"/>
<text text-anchor="start" x="2" y="-39.4" font-family="Helvetica,sans-Serif" font-size="12.00" fill="#000000">hs:AssessmentRecommendedCourseOfAction</text>
</a>
</g>
<polygon fill="#000000" stroke="#000000" points="0,-50 0,-50 252,-50 252,-50 0,-50"/>
<polygon fill="none" stroke="#000000" points="0,-34 0,-66 252,-66 252,-34 0,-34"/>
</g>
<!-- Properties&#45;&gt;hs:AssessmentRecommendedCourseOfActionType -->
<g id="edge1" class="edge">
<title>Properties:top&#45;&gt;hs:AssessmentRecommendedCourseOfActionType:top</title>
<path fill="none" stroke="#000000" d="M251,-58C276.3585,-58 285.1498,-58 306.2371,-58"/>
<polygon fill="#000000" stroke="#000000" points="306.5,-61.5001 316.5,-58 306.5,-54.5001 306.5,-61.5001"/>
<text text-anchor="middle" x="281.5" y="-61.4" font-family="Helvetica,sans-Serif" font-size="12.00" fill="#000000">type</text>
</g>
<!-- nc:ActivityType -->
<g id="node3" class="node">
<title>nc:ActivityType</title>
<g id="a_node3_4"><a xlink:href="../../nc/ActivityType/#diagram" xlink:title="A data type for a single or set of related actions, events, or process steps." target="_top">
<text text-anchor="start" x="632.5" y="-110.4" font-family="Helvetica,sans-Serif" font-size="12.00" fill="#000000">nc:ActivityType</text>
</a>
</g>
<polygon fill="none" stroke="#000000" points="630,-105.5 630,-122.5 715,-122.5 715,-105.5 630,-105.5"/>
</g>
<!-- nc:ActivityType&#45;&gt;hs:AssessmentRecommendedCourseOfActionType -->
<g id="edge2" class="edge">
<title>nc:ActivityType&#45;&gt;hs:AssessmentRecommendedCourseOfActionType</title>
<path fill="none" stroke="#000000" d="M672.5,-105.4117C672.5,-99.1025 672.5,-89.9911 672.5,-80.4049"/>
<polygon fill="#000000" stroke="#000000" points="676.0001,-80.3408 672.5,-70.3408 669.0001,-80.3409 676.0001,-80.3408"/>
<text text-anchor="middle" x="663" y="-84.65" font-family="Helvetica,sans-Serif" font-size="12.00" fill="#000000">extension</text>
</g>
<!-- structures:ObjectType -->
<g id="node4" class="node">
<title>structures:ObjectType</title>
<g id="a_node4_5"><a xlink:href="../../structures/ObjectType/#diagram" xlink:title="A data type for a thing with its own lifespan that has some existence." target="_top">
<text text-anchor="start" x="613.5" y="-163.4" font-family="Helvetica,sans-Serif" font-size="12.00" fill="#000000">structures:ObjectType</text>
</a>
</g>
<polygon fill="none" stroke="#000000" points="611.5,-158.5 611.5,-175.5 733.5,-175.5 733.5,-158.5 611.5,-158.5"/>
</g>
<!-- structures:ObjectType&#45;&gt;nc:ActivityType -->
<g id="edge3" class="edge">
<title>structures:ObjectType&#45;&gt;nc:ActivityType</title>
<path fill="none" stroke="#000000" d="M672.5,-158.411C672.5,-151.5124 672.5,-141.5696 672.5,-132.84"/>
<polygon fill="#000000" stroke="#000000" points="676.0001,-132.7518 672.5,-122.7519 669.0001,-132.7519 676.0001,-132.7518"/>
<text text-anchor="middle" x="663" y="-137.4" font-family="Helvetica,sans-Serif" font-size="12.00" fill="#000000">extension</text>
</g>
</g>
</svg>
