<?xml version="1.0" encoding="UTF-8" standalone="no"?>
<!DOCTYPE svg PUBLIC "-//W3C//DTD SVG 1.1//EN"
 "http://www.w3.org/Graphics/SVG/1.1/DTD/svg11.dtd">
<!-- Generated by graphviz version 2.40.1 (20161225.0304)
 -->
<!-- Title: graphic Pages: 1 -->
<svg width="425pt" height="86pt"
 viewBox="0.00 0.00 425.00 86.00" xmlns="http://www.w3.org/2000/svg" xmlns:xlink="http://www.w3.org/1999/xlink">
<g id="graph0" class="graph" transform="scale(1 1) rotate(0) translate(4 82)">
<title>graphic</title>
<polygon fill="#ffffff" stroke="transparent" points="-4,4 -4,-82 421,-82 421,4 -4,4"/>
<!-- nc:SeparationCategoryCode -->
<g id="node1" class="node">
<title>nc:SeparationCategoryCode</title>
<text text-anchor="start" x="6.5" y="-9.9" font-family="Helvetica,sans-Serif" font-weight="bold" font-size="12.00" fill="#000000">nc:SeparationCategoryCode</text>
<polygon fill="none" stroke="#ff0000" stroke-width="5" points="2.5,-2.5 2.5,-22.5 172.5,-22.5 172.5,-2.5 2.5,-2.5"/>
</g>
<!-- nc:SeparationCategoryCodeType -->
<g id="node3" class="node">
<title>nc:SeparationCategoryCodeType</title>
<g id="a_node3_0"><a xlink:href="../../nc/SeparationCategoryCodeType/#diagram" xlink:title="A data type for a code that identifies the type of separation between the parties in a Person Union." target="_top">
<text text-anchor="start" x="236.5" y="-8.9" font-family="Helvetica,sans-Serif" font-size="12.00" fill="#000000">nc:SeparationCategoryCodeType</text>
</a>
</g>
<polygon fill="none" stroke="#000000" points="234,-4 234,-21 417,-21 417,-4 234,-4"/>
</g>
<!-- nc:SeparationCategoryCode&#45;&gt;nc:SeparationCategoryCodeType -->
<g id="edge2" class="edge">
<title>nc:SeparationCategoryCode&#45;&gt;nc:SeparationCategoryCodeType</title>
<path fill="none" stroke="#000000" d="M175.1085,-12.5C190.9141,-12.5 207.5155,-12.5 223.6845,-12.5"/>
<polygon fill="#000000" stroke="#000000" points="223.6852,-16.0001 233.6851,-12.5 223.6851,-9.0001 223.6852,-16.0001"/>
<text text-anchor="middle" x="204.5" y="-15.9" font-family="Helvetica,sans-Serif" font-size="12.00" fill="#000000">type</text>
</g>
<!-- SubstitutionGroup -->
<g id="node2" class="node">
<title>SubstitutionGroup</title>
<g id="a_node2_1"><a xlink:href="../../nc/SeparationCategoryAbstract/#diagram" xlink:title="A data concept for a description of the separation of the parties in a Person Union began." target="_top">
<text text-anchor="start" x="4.5" y="-65.9" font-family="Helvetica,sans-Serif" font-size="12.00" fill="#000000">nc:SeparationCategoryAbstract</text>
</a>
</g>
<polygon fill="none" stroke="#000000" points="2,-61 2,-78 173,-78 173,-61 2,-61"/>
</g>
<!-- SubstitutionGroup&#45;&gt;nc:SeparationCategoryCode -->
<g id="edge1" class="edge">
<title>SubstitutionGroup&#45;&gt;nc:SeparationCategoryCode</title>
<path fill="none" stroke="#000000" d="M87.5,-50.9163C87.5,-42.4809 87.5,-32.7214 87.5,-25.1501"/>
<polygon fill="#000000" stroke="#000000" points="84.0001,-50.9472 87.5,-60.9473 91.0001,-50.9473 84.0001,-50.9472"/>
<text text-anchor="middle" x="78" y="-39.9" font-family="Helvetica,sans-Serif" font-size="12.00" fill="#000000">substitution group</text>
</g>
</g>
</svg>
