<?xml version="1.0" encoding="UTF-8" standalone="no"?>
<!DOCTYPE svg PUBLIC "-//W3C//DTD SVG 1.1//EN"
 "http://www.w3.org/Graphics/SVG/1.1/DTD/svg11.dtd">
<!-- Generated by graphviz version 2.40.1 (20161225.0304)
 -->
<!-- Title: graphic Pages: 1 -->
<svg width="165pt" height="154pt"
 viewBox="0.00 0.00 165.00 153.50" xmlns="http://www.w3.org/2000/svg" xmlns:xlink="http://www.w3.org/1999/xlink">
<g id="graph0" class="graph" transform="scale(1 1) rotate(0) translate(4 149.5)">
<title>graphic</title>
<polygon fill="#ffffff" stroke="transparent" points="-4,4 -4,-149.5 161,-149.5 161,4 -4,4"/>
<!-- ncic:IDTCodeSimpleType -->
<g id="node1" class="node">
<title>ncic:IDTCodeSimpleType</title>
<text text-anchor="start" x="6.5" y="-77.4" font-family="Helvetica,sans-Serif" font-weight="bold" font-size="12.00" fill="#000000">ncic:IDTCodeSimpleType</text>
<polygon fill="none" stroke="#ff0000" stroke-width="5" points="2.5,-70 2.5,-90 154.5,-90 154.5,-70 2.5,-70"/>
</g>
<!-- DerivedTypes -->
<g id="node2" class="node">
<title>DerivedTypes</title>
<text text-anchor="start" x="28.5" y="-21.4" font-family="Helvetica,sans-Serif" font-weight="bold" font-size="12.00" fill="#000000">Derived types</text>
<g id="a_node2_0"><a xlink:href="../../ncic/IDTCodeType/#diagram" xlink:title="A data type for 28 &#45; Identity Theft Type (IDT) Field Codes" target="_top">
<polygon fill="#ebebeb" stroke="transparent" points="27.5,-1 27.5,-16 129.5,-16 129.5,-1 27.5,-1"/>
<text text-anchor="start" x="28.5" y="-5.4" font-family="Helvetica,sans-Serif" font-size="12.00" fill="#000000">ncic:IDTCodeType</text>
</a>
</g>
<polygon fill="#000000" stroke="#000000" points="26.5,-16 26.5,-16 130.5,-16 130.5,-16 26.5,-16"/>
<polygon fill="none" stroke="#000000" points="26.5,0 26.5,-32 130.5,-32 130.5,0 26.5,0"/>
</g>
<!-- ncic:IDTCodeSimpleType&#45;&gt;DerivedTypes -->
<g id="edge1" class="edge">
<title>ncic:IDTCodeSimpleType&#45;&gt;DerivedTypes</title>
<path fill="none" stroke="#000000" d="M78.5,-67.4892C78.5,-60.3101 78.5,-51.0172 78.5,-42.306"/>
<polygon fill="#000000" stroke="#000000" points="82.0001,-42.1499 78.5,-32.1499 75.0001,-42.1499 82.0001,-42.1499"/>
<text text-anchor="middle" x="69" y="-46.65" font-family="Helvetica,sans-Serif" font-size="12.00" fill="#000000">derived</text>
</g>
<!-- xs:token -->
<g id="node3" class="node">
<title>xs:token</title>
<g id="a_node3_1"><a xlink:href="../../xs/token/#diagram" xlink:title="&lt;TABLE&gt;" target="_top">
<text text-anchor="start" x="56.5" y="-133.4" font-family="Helvetica,sans-Serif" font-size="12.00" fill="#000000">xs:token</text>
</a>
</g>
<polygon fill="none" stroke="#000000" points="54,-128.5 54,-145.5 103,-145.5 103,-128.5 54,-128.5"/>
</g>
<!-- xs:token&#45;&gt;ncic:IDTCodeSimpleType -->
<g id="edge2" class="edge">
<title>xs:token&#45;&gt;ncic:IDTCodeSimpleType</title>
<path fill="none" stroke="#000000" d="M78.5,-128.4473C78.5,-121.6242 78.5,-111.7417 78.5,-102.6794"/>
<polygon fill="#000000" stroke="#000000" points="82.0001,-102.6501 78.5,-92.6501 75.0001,-102.6502 82.0001,-102.6501"/>
<text text-anchor="middle" x="69" y="-107.4" font-family="Helvetica,sans-Serif" font-size="12.00" fill="#000000">restriction</text>
</g>
</g>
</svg>
