<?xml version="1.0" encoding="UTF-8" standalone="no"?>
<!DOCTYPE svg PUBLIC "-//W3C//DTD SVG 1.1//EN"
 "http://www.w3.org/Graphics/SVG/1.1/DTD/svg11.dtd">
<!-- Generated by graphviz version 2.40.1 (20161225.0304)
 -->
<!-- Title: graphic Pages: 1 -->
<svg width="683pt" height="101pt"
 viewBox="0.00 0.00 683.00 101.00" xmlns="http://www.w3.org/2000/svg" xmlns:xlink="http://www.w3.org/1999/xlink">
<g id="graph0" class="graph" transform="scale(1 1) rotate(0) translate(4 97)">
<title>graphic</title>
<polygon fill="#ffffff" stroke="transparent" points="-4,4 -4,-97 679,-97 679,4 -4,4"/>
<!-- j:MedicalPractitionerSpecialtyAbstract -->
<g id="node1" class="node">
<title>j:MedicalPractitionerSpecialtyAbstract</title>
<text text-anchor="start" x="330.5" y="-77.4" font-family="Helvetica,sans-Serif" font-weight="bold" font-size="12.00" fill="#000000">j:MedicalPractitionerSpecialtyAbstract</text>
<polygon fill="none" stroke="#ff0000" stroke-width="5" points="327,-70 327,-90 554,-90 554,-70 327,-70"/>
</g>
<!-- SubstitutableElements -->
<g id="node3" class="node">
<title>SubstitutableElements</title>
<text text-anchor="start" x="208.5" y="-21.4" font-family="Helvetica,sans-Serif" font-weight="bold" font-size="12.00" fill="#000000">Substitutable elements</text>
<g id="a_node3_0"><a xlink:href="../../j/MedicalPractitionerSpecialtyCode/#diagram" xlink:title="A code indicating the specialty of the medical practitioner." target="_top">
<polygon fill="#ebebeb" stroke="transparent" points="207.5,-1 207.5,-16 674.5,-16 674.5,-1 207.5,-1"/>
<text text-anchor="start" x="208.5" y="-5.4" font-family="Helvetica,sans-Serif" font-size="12.00" fill="#000000">j:MedicalPractitionerSpecialtyCode: aamva_d20:MedicalPractitionerSpecialtyCodeType</text>
</a>
</g>
<polygon fill="#000000" stroke="#000000" points="206.5,-16 206.5,-16 675.5,-16 675.5,-16 206.5,-16"/>
<polygon fill="none" stroke="#000000" points="206,0 206,-32 675,-32 675,0 206,0"/>
</g>
<!-- j:MedicalPractitionerSpecialtyAbstract&#45;&gt;SubstitutableElements -->
<g id="edge2" class="edge">
<title>j:MedicalPractitionerSpecialtyAbstract&#45;&gt;SubstitutableElements</title>
<path fill="none" stroke="#000000" d="M440.5,-57.3063C440.5,-48.9972 440.5,-39.7712 440.5,-32.1499"/>
<polygon fill="#000000" stroke="#000000" points="437.0001,-57.4892 440.5,-67.4892 444.0001,-57.4892 437.0001,-57.4892"/>
<text text-anchor="middle" x="431" y="-46.65" font-family="Helvetica,sans-Serif" font-size="12.00" fill="#000000">substitutable for</text>
</g>
<!-- Types -->
<g id="node2" class="node">
<title>Types</title>
<text text-anchor="start" x="2.5" y="-77.4" font-family="Helvetica,sans-Serif" font-weight="bold" font-size="12.00" fill="#000000">Types</text>
<g id="a_node2_1"><a xlink:href="../../j/MedicalPractitionerType/#diagram" xlink:title="A data type for a person who practices medicine." target="_top">
<polygon fill="#ebebeb" stroke="transparent" points="1.5,-57 1.5,-72 138.5,-72 138.5,-57 1.5,-57"/>
<text text-anchor="start" x="2.5" y="-61.4" font-family="Helvetica,sans-Serif" font-size="12.00" fill="#000000">j:MedicalPractitionerType</text>
</a>
</g>
<polygon fill="#000000" stroke="#000000" points=".5,-72 .5,-72 139.5,-72 139.5,-72 .5,-72"/>
<polygon fill="none" stroke="#000000" points="0,-56 0,-88 139,-88 139,-56 0,-56"/>
</g>
<!-- Types&#45;&gt;j:MedicalPractitionerSpecialtyAbstract -->
<g id="edge1" class="edge">
<title>Types:top&#45;&gt;j:MedicalPractitionerSpecialtyAbstract</title>
<path fill="none" stroke="#000000" d="M138.5,-80C196.1296,-80 259.9451,-80 314.0106,-80"/>
<polygon fill="#000000" stroke="#000000" points="314.3383,-83.5001 324.3383,-80 314.3382,-76.5001 314.3383,-83.5001"/>
<text text-anchor="middle" x="172.5" y="-83.4" font-family="Helvetica,sans-Serif" font-size="12.00" fill="#000000">has&#45;a</text>
</g>
</g>
</svg>
