<?xml version="1.0" encoding="UTF-8" standalone="no"?>
<!DOCTYPE svg PUBLIC "-//W3C//DTD SVG 1.1//EN"
 "http://www.w3.org/Graphics/SVG/1.1/DTD/svg11.dtd">
<!-- Generated by graphviz version 2.40.1 (20161225.0304)
 -->
<!-- Title: graphic Pages: 1 -->
<svg width="688pt" height="45pt"
 viewBox="0.00 0.00 688.00 45.00" xmlns="http://www.w3.org/2000/svg" xmlns:xlink="http://www.w3.org/1999/xlink">
<g id="graph0" class="graph" transform="scale(1 1) rotate(0) translate(4 41)">
<title>graphic</title>
<polygon fill="#ffffff" stroke="transparent" points="-4,4 -4,-41 684,-41 684,4 -4,4"/>
<!-- m:VesselCertificateOfFinancialResponsibilityOperator -->
<g id="node1" class="node">
<title>m:VesselCertificateOfFinancialResponsibilityOperator</title>
<text text-anchor="start" x="228" y="-21.4" font-family="Helvetica,sans-Serif" font-weight="bold" font-size="12.00" fill="#000000">m:VesselCertificateOfFinancialResponsibilityOperator</text>
<polygon fill="none" stroke="#ff0000" stroke-width="5" points="224.5,-14 224.5,-34 541.5,-34 541.5,-14 224.5,-14"/>
</g>
<!-- nc:EntityType -->
<g id="node3" class="node">
<title>nc:EntityType</title>
<g id="a_node3_0"><a xlink:href="../../nc/EntityType/#diagram" xlink:title="A data type for a person, organization, or item." target="_top">
<text text-anchor="start" x="605.5" y="-20.4" font-family="Helvetica,sans-Serif" font-size="12.00" fill="#000000">nc:EntityType</text>
</a>
</g>
<polygon fill="none" stroke="#000000" points="603,-15.5 603,-32.5 680,-32.5 680,-15.5 603,-15.5"/>
</g>
<!-- m:VesselCertificateOfFinancialResponsibilityOperator&#45;&gt;nc:EntityType -->
<g id="edge2" class="edge">
<title>m:VesselCertificateOfFinancialResponsibilityOperator&#45;&gt;nc:EntityType</title>
<path fill="none" stroke="#000000" d="M544.1406,-24C561.6034,-24 578.2378,-24 592.6571,-24"/>
<polygon fill="#000000" stroke="#000000" points="592.7454,-27.5001 602.7453,-24 592.7453,-20.5001 592.7454,-27.5001"/>
<text text-anchor="middle" x="573.5" y="-27.4" font-family="Helvetica,sans-Serif" font-size="12.00" fill="#000000">type</text>
</g>
<!-- Types -->
<g id="node2" class="node">
<title>Types</title>
<text text-anchor="start" x="2.5" y="-21.4" font-family="Helvetica,sans-Serif" font-weight="bold" font-size="12.00" fill="#000000">Types</text>
<g id="a_node2_1"><a xlink:href="../../m/VesselAugmentationType/#diagram" xlink:title="A data type for additional information about a vessel." target="_top">
<polygon fill="#ebebeb" stroke="transparent" points="1.5,-1 1.5,-16 154.5,-16 154.5,-1 1.5,-1"/>
<text text-anchor="start" x="2.5" y="-5.4" font-family="Helvetica,sans-Serif" font-size="12.00" fill="#000000">m:VesselAugmentationType</text>
</a>
</g>
<polygon fill="#000000" stroke="#000000" points=".5,-16 .5,-16 155.5,-16 155.5,-16 .5,-16"/>
<polygon fill="none" stroke="#000000" points="0,0 0,-32 155,-32 155,0 0,0"/>
</g>
<!-- Types&#45;&gt;m:VesselCertificateOfFinancialResponsibilityOperator -->
<g id="edge1" class="edge">
<title>Types:top&#45;&gt;m:VesselCertificateOfFinancialResponsibilityOperator</title>
<path fill="none" stroke="#000000" d="M154.5,-24C173.0799,-24 192.5096,-24 211.8562,-24"/>
<polygon fill="#000000" stroke="#000000" points="211.9608,-27.5001 221.9608,-24 211.9607,-20.5001 211.9608,-27.5001"/>
<text text-anchor="middle" x="188.5" y="-27.4" font-family="Helvetica,sans-Serif" font-size="12.00" fill="#000000">has&#45;a</text>
</g>
</g>
</svg>
