<?xml version="1.0" encoding="UTF-8" standalone="no"?>
<!DOCTYPE svg PUBLIC "-//W3C//DTD SVG 1.1//EN"
 "http://www.w3.org/Graphics/SVG/1.1/DTD/svg11.dtd">
<!-- Generated by graphviz version 2.40.1 (20161225.0304)
 -->
<!-- Title: graphic Pages: 1 -->
<svg width="383pt" height="154pt"
 viewBox="0.00 0.00 383.00 153.50" xmlns="http://www.w3.org/2000/svg" xmlns:xlink="http://www.w3.org/1999/xlink">
<g id="graph0" class="graph" transform="scale(1 1) rotate(0) translate(4 149.5)">
<title>graphic</title>
<polygon fill="#ffffff" stroke="transparent" points="-4,4 -4,-149.5 379,-149.5 379,4 -4,4"/>
<!-- mmucc:CrashVehicleEmergencyUseIndicationCodeSimpleType -->
<g id="node1" class="node">
<title>mmucc:CrashVehicleEmergencyUseIndicationCodeSimpleType</title>
<text text-anchor="start" x="6.5" y="-77.4" font-family="Helvetica,sans-Serif" font-weight="bold" font-size="12.00" fill="#000000">mmucc:CrashVehicleEmergencyUseIndicationCodeSimpleType</text>
<polygon fill="none" stroke="#ff0000" stroke-width="5" points="2.5,-70 2.5,-90 372.5,-90 372.5,-70 2.5,-70"/>
</g>
<!-- DerivedTypes -->
<g id="node2" class="node">
<title>DerivedTypes</title>
<text text-anchor="start" x="36.5" y="-21.4" font-family="Helvetica,sans-Serif" font-weight="bold" font-size="12.00" fill="#000000">Derived types</text>
<g id="a_node2_0"><a xlink:href="../../mmucc/CrashVehicleEmergencyUseIndicationCodeType/#diagram" xlink:title="A data type for official motor vehicles that are involved in a crash while on an emergency response." target="_top">
<polygon fill="#ebebeb" stroke="transparent" points="35.5,-1 35.5,-16 340.5,-16 340.5,-1 35.5,-1"/>
<text text-anchor="start" x="36.5" y="-5.4" font-family="Helvetica,sans-Serif" font-size="12.00" fill="#000000">mmucc:CrashVehicleEmergencyUseIndicationCodeType</text>
</a>
</g>
<polygon fill="#000000" stroke="#000000" points="34.5,-16 34.5,-16 341.5,-16 341.5,-16 34.5,-16"/>
<polygon fill="none" stroke="#000000" points="34,0 34,-32 341,-32 341,0 34,0"/>
</g>
<!-- mmucc:CrashVehicleEmergencyUseIndicationCodeSimpleType&#45;&gt;DerivedTypes -->
<g id="edge1" class="edge">
<title>mmucc:CrashVehicleEmergencyUseIndicationCodeSimpleType&#45;&gt;DerivedTypes</title>
<path fill="none" stroke="#000000" d="M187.5,-67.4892C187.5,-60.3101 187.5,-51.0172 187.5,-42.306"/>
<polygon fill="#000000" stroke="#000000" points="191.0001,-42.1499 187.5,-32.1499 184.0001,-42.1499 191.0001,-42.1499"/>
<text text-anchor="middle" x="178" y="-46.65" font-family="Helvetica,sans-Serif" font-size="12.00" fill="#000000">derived</text>
</g>
<!-- xs:token -->
<g id="node3" class="node">
<title>xs:token</title>
<g id="a_node3_1"><a xlink:href="../../xs/token/#diagram" xlink:title="&lt;TABLE&gt;" target="_top">
<text text-anchor="start" x="165.5" y="-133.4" font-family="Helvetica,sans-Serif" font-size="12.00" fill="#000000">xs:token</text>
</a>
</g>
<polygon fill="none" stroke="#000000" points="163,-128.5 163,-145.5 212,-145.5 212,-128.5 163,-128.5"/>
</g>
<!-- xs:token&#45;&gt;mmucc:CrashVehicleEmergencyUseIndicationCodeSimpleType -->
<g id="edge2" class="edge">
<title>xs:token&#45;&gt;mmucc:CrashVehicleEmergencyUseIndicationCodeSimpleType</title>
<path fill="none" stroke="#000000" d="M187.5,-128.4473C187.5,-121.6242 187.5,-111.7417 187.5,-102.6794"/>
<polygon fill="#000000" stroke="#000000" points="191.0001,-102.6501 187.5,-92.6501 184.0001,-102.6502 191.0001,-102.6501"/>
<text text-anchor="middle" x="178" y="-107.4" font-family="Helvetica,sans-Serif" font-size="12.00" fill="#000000">restriction</text>
</g>
</g>
</svg>
