<?xml version="1.0" encoding="UTF-8" standalone="no"?>
<!DOCTYPE svg PUBLIC "-//W3C//DTD SVG 1.1//EN"
 "http://www.w3.org/Graphics/SVG/1.1/DTD/svg11.dtd">
<!-- Generated by graphviz version 2.40.1 (20161225.0304)
 -->
<!-- Title: graphic Pages: 1 -->
<svg width="573pt" height="86pt"
 viewBox="0.00 0.00 573.00 86.00" xmlns="http://www.w3.org/2000/svg" xmlns:xlink="http://www.w3.org/1999/xlink">
<g id="graph0" class="graph" transform="scale(1 1) rotate(0) translate(4 82)">
<title>graphic</title>
<polygon fill="#ffffff" stroke="transparent" points="-4,4 -4,-82 569,-82 569,4 -4,4"/>
<!-- biom:PlantarImageAcquisitionProfileCode -->
<g id="node1" class="node">
<title>biom:PlantarImageAcquisitionProfileCode</title>
<text text-anchor="start" x="6.5" y="-9.9" font-family="Helvetica,sans-Serif" font-weight="bold" font-size="12.00" fill="#000000">biom:PlantarImageAcquisitionProfileCode</text>
<polygon fill="none" stroke="#ff0000" stroke-width="5" points="2.5,-2.5 2.5,-22.5 250.5,-22.5 250.5,-2.5 2.5,-2.5"/>
</g>
<!-- biom:PlantarImageAcquisitionProfileCodeType -->
<g id="node3" class="node">
<title>biom:PlantarImageAcquisitionProfileCodeType</title>
<g id="a_node3_0"><a xlink:href="../../biom/PlantarImageAcquisitionProfileCodeType/#diagram" xlink:title="A data type for a set of criteria under which the Plantar image was captured" target="_top">
<text text-anchor="start" x="314.5" y="-8.9" font-family="Helvetica,sans-Serif" font-size="12.00" fill="#000000">biom:PlantarImageAcquisitionProfileCodeType</text>
</a>
</g>
<polygon fill="none" stroke="#000000" points="312,-4 312,-21 565,-21 565,-4 312,-4"/>
</g>
<!-- biom:PlantarImageAcquisitionProfileCode&#45;&gt;biom:PlantarImageAcquisitionProfileCodeType -->
<g id="edge2" class="edge">
<title>biom:PlantarImageAcquisitionProfileCode&#45;&gt;biom:PlantarImageAcquisitionProfileCodeType</title>
<path fill="none" stroke="#000000" d="M253.4023,-12.5C269.3994,-12.5 285.8196,-12.5 301.9577,-12.5"/>
<polygon fill="#000000" stroke="#000000" points="301.9632,-16.0001 311.9631,-12.5 301.9631,-9.0001 301.9632,-16.0001"/>
<text text-anchor="middle" x="282.5" y="-15.9" font-family="Helvetica,sans-Serif" font-size="12.00" fill="#000000">type</text>
</g>
<!-- SubstitutionGroup -->
<g id="node2" class="node">
<title>SubstitutionGroup</title>
<g id="a_node2_1"><a xlink:href="../../biom/PlantarImageAcquisitionProfileAbstract/#diagram" xlink:title="A data concept for a set of criteria under which the Plantar image was captured" target="_top">
<text text-anchor="start" x="8.5" y="-65.9" font-family="Helvetica,sans-Serif" font-size="12.00" fill="#000000">biom:PlantarImageAcquisitionProfileAbstract</text>
</a>
</g>
<polygon fill="none" stroke="#000000" points="6,-61 6,-78 247,-78 247,-61 6,-61"/>
</g>
<!-- SubstitutionGroup&#45;&gt;biom:PlantarImageAcquisitionProfileCode -->
<g id="edge1" class="edge">
<title>SubstitutionGroup&#45;&gt;biom:PlantarImageAcquisitionProfileCode</title>
<path fill="none" stroke="#000000" d="M126.5,-50.9163C126.5,-42.4809 126.5,-32.7214 126.5,-25.1501"/>
<polygon fill="#000000" stroke="#000000" points="123.0001,-50.9472 126.5,-60.9473 130.0001,-50.9473 123.0001,-50.9472"/>
<text text-anchor="middle" x="117" y="-39.9" font-family="Helvetica,sans-Serif" font-size="12.00" fill="#000000">substitution group</text>
</g>
</g>
</svg>
