<?xml version="1.0" encoding="UTF-8" standalone="no"?>
<!DOCTYPE svg PUBLIC "-//W3C//DTD SVG 1.1//EN"
 "http://www.w3.org/Graphics/SVG/1.1/DTD/svg11.dtd">
<!-- Generated by graphviz version 2.40.1 (20161225.0304)
 -->
<!-- Title: graphic Pages: 1 -->
<svg width="489pt" height="184pt"
 viewBox="0.00 0.00 489.00 183.50" xmlns="http://www.w3.org/2000/svg" xmlns:xlink="http://www.w3.org/1999/xlink">
<g id="graph0" class="graph" transform="scale(1 1) rotate(0) translate(4 179.5)">
<title>graphic</title>
<polygon fill="#ffffff" stroke="transparent" points="-4,4 -4,-179.5 485,-179.5 485,4 -4,4"/>
<!-- j:ActivityJudgeAssociationType -->
<g id="node1" class="node">
<title>j:ActivityJudgeAssociationType</title>
<text text-anchor="start" x="208.5" y="-55.4" font-family="Helvetica,sans-Serif" font-weight="bold" font-size="12.00" fill="#000000">j:ActivityJudgeAssociationType</text>
<g id="a_node1_0"><a xlink:href="../../nc/Activity/#diagram" xlink:title="A single or set of related actions, events, or process steps." target="_top">
<polygon fill="#ebebeb" stroke="transparent" points="207.5,-35 207.5,-50 476.5,-50 476.5,-35 207.5,-35"/>
<text text-anchor="start" x="208.5" y="-39.4" font-family="Helvetica,sans-Serif" font-size="12.00" fill="#000000">nc:Activity: nc:ActivityType [0&#45;n]</text>
</a>
</g>
<g id="a_node1_1"><a xlink:href="../../j/Judge/#diagram" xlink:title="An official who hears and decides a case or who rules over a case proceeding." target="_top">
<text text-anchor="start" x="208.5" y="-24.4" font-family="Helvetica,sans-Serif" font-size="12.00" fill="#000000">j:Judge: j:JudicialOfficialType [0&#45;n]</text>
</a>
</g>
<g id="a_node1_2"><a xlink:href="../../j/ActivityJudgeAssociationAugmentationPoint/#diagram" xlink:title="An augmentation point for ActivityJudgeAssociationType." target="_top">
<polygon fill="#ebebeb" stroke="transparent" points="207.5,-5 207.5,-20 476.5,-20 476.5,-5 207.5,-5"/>
<text text-anchor="start" x="208.5" y="-9.4" font-family="Helvetica,sans-Serif" font-size="12.00" fill="#000000">j:ActivityJudgeAssociationAugmentationPoint [0&#45;n]</text>
</a>
</g>
<polygon fill="#ff0000" stroke="#ff0000" points="202.5,-50 202.5,-50 481.5,-50 481.5,-50 202.5,-50"/>
<polygon fill="none" stroke="#ff0000" stroke-width="5" points="204.5,-2.5 204.5,-67.5 478.5,-67.5 478.5,-2.5 204.5,-2.5"/>
</g>
<!-- Properties -->
<g id="node2" class="node">
<title>Properties</title>
<text text-anchor="start" x="2.5" y="-55.4" font-family="Helvetica,sans-Serif" font-weight="bold" font-size="12.00" fill="#000000">Properties</text>
<g id="a_node2_3"><a xlink:href="../../j/ActivityJudgeAssociation/#diagram" xlink:title="An association between an activity and a judge." target="_top">
<polygon fill="#ebebeb" stroke="transparent" points="1.5,-35 1.5,-50 142.5,-50 142.5,-35 1.5,-35"/>
<text text-anchor="start" x="2.5" y="-39.4" font-family="Helvetica,sans-Serif" font-size="12.00" fill="#000000">j:ActivityJudgeAssociation</text>
</a>
</g>
<polygon fill="#000000" stroke="#000000" points=".5,-50 .5,-50 143.5,-50 143.5,-50 .5,-50"/>
<polygon fill="none" stroke="#000000" points="0,-34 0,-66 143,-66 143,-34 0,-34"/>
</g>
<!-- Properties&#45;&gt;j:ActivityJudgeAssociationType -->
<g id="edge1" class="edge">
<title>Properties:top&#45;&gt;j:ActivityJudgeAssociationType:top</title>
<path fill="none" stroke="#000000" d="M142.5,-58C167.6649,-58 176.3891,-58 197.3154,-58"/>
<polygon fill="#000000" stroke="#000000" points="197.5,-61.5001 207.5,-58 197.5,-54.5001 197.5,-61.5001"/>
<text text-anchor="middle" x="172.5" y="-61.4" font-family="Helvetica,sans-Serif" font-size="12.00" fill="#000000">type</text>
</g>
<!-- nc:AssociationType -->
<g id="node3" class="node">
<title>nc:AssociationType</title>
<g id="a_node3_4"><a xlink:href="../../nc/AssociationType/#diagram" xlink:title="A data type for an association, connection, relationship, or involvement somehow linking people, things, and/or activities together." target="_top">
<text text-anchor="start" x="289.5" y="-110.4" font-family="Helvetica,sans-Serif" font-size="12.00" fill="#000000">nc:AssociationType</text>
</a>
</g>
<polygon fill="none" stroke="#000000" points="287,-105.5 287,-122.5 396,-122.5 396,-105.5 287,-105.5"/>
</g>
<!-- nc:AssociationType&#45;&gt;j:ActivityJudgeAssociationType -->
<g id="edge2" class="edge">
<title>nc:AssociationType&#45;&gt;j:ActivityJudgeAssociationType</title>
<path fill="none" stroke="#000000" d="M341.5,-105.4117C341.5,-99.1025 341.5,-89.9911 341.5,-80.4049"/>
<polygon fill="#000000" stroke="#000000" points="345.0001,-80.3408 341.5,-70.3408 338.0001,-80.3409 345.0001,-80.3408"/>
<text text-anchor="middle" x="332" y="-84.65" font-family="Helvetica,sans-Serif" font-size="12.00" fill="#000000">extension</text>
</g>
<!-- structures:AssociationType -->
<g id="node4" class="node">
<title>structures:AssociationType</title>
<g id="a_node4_5"><a xlink:href="../../structures/AssociationType/#diagram" xlink:title="A data type for a relationship between two or more objects, including any properties of that relationship." target="_top">
<text text-anchor="start" x="269.5" y="-163.4" font-family="Helvetica,sans-Serif" font-size="12.00" fill="#000000">structures:AssociationType</text>
</a>
</g>
<polygon fill="none" stroke="#000000" points="267,-158.5 267,-175.5 416,-175.5 416,-158.5 267,-158.5"/>
</g>
<!-- structures:AssociationType&#45;&gt;nc:AssociationType -->
<g id="edge3" class="edge">
<title>structures:AssociationType&#45;&gt;nc:AssociationType</title>
<path fill="none" stroke="#000000" d="M341.5,-158.411C341.5,-151.5124 341.5,-141.5696 341.5,-132.84"/>
<polygon fill="#000000" stroke="#000000" points="345.0001,-132.7518 341.5,-122.7519 338.0001,-132.7519 345.0001,-132.7518"/>
<text text-anchor="middle" x="332" y="-137.4" font-family="Helvetica,sans-Serif" font-size="12.00" fill="#000000">extension</text>
</g>
</g>
</svg>
