<?xml version="1.0" encoding="UTF-8" standalone="no"?>
<!DOCTYPE svg PUBLIC "-//W3C//DTD SVG 1.1//EN"
 "http://www.w3.org/Graphics/SVG/1.1/DTD/svg11.dtd">
<!-- Generated by graphviz version 2.40.1 (20161225.0304)
 -->
<!-- Title: graphic Pages: 1 -->
<svg width="539pt" height="45pt"
 viewBox="0.00 0.00 539.00 45.00" xmlns="http://www.w3.org/2000/svg" xmlns:xlink="http://www.w3.org/1999/xlink">
<g id="graph0" class="graph" transform="scale(1 1) rotate(0) translate(4 41)">
<title>graphic</title>
<polygon fill="#ffffff" stroke="transparent" points="-4,4 -4,-41 535,-41 535,4 -4,4"/>
<!-- em:SecurityObject -->
<g id="node1" class="node">
<title>em:SecurityObject</title>
<text text-anchor="start" x="278.5" y="-21.4" font-family="Helvetica,sans-Serif" font-weight="bold" font-size="12.00" fill="#000000">em:SecurityObject</text>
<polygon fill="none" stroke="#ff0000" stroke-width="5" points="274.5,-14 274.5,-34 388.5,-34 388.5,-14 274.5,-14"/>
</g>
<!-- nc:BinaryType -->
<g id="node3" class="node">
<title>nc:BinaryType</title>
<g id="a_node3_0"><a xlink:href="../../nc/BinaryType/#diagram" xlink:title="A data type for a digital representation of an object encoded in a binary format." target="_top">
<text text-anchor="start" x="452.5" y="-20.4" font-family="Helvetica,sans-Serif" font-size="12.00" fill="#000000">nc:BinaryType</text>
</a>
</g>
<polygon fill="none" stroke="#000000" points="450,-15.5 450,-32.5 531,-32.5 531,-15.5 450,-15.5"/>
</g>
<!-- em:SecurityObject&#45;&gt;nc:BinaryType -->
<g id="edge2" class="edge">
<title>em:SecurityObject&#45;&gt;nc:BinaryType</title>
<path fill="none" stroke="#000000" d="M391.1581,-24C407.0526,-24 424.0774,-24 439.4636,-24"/>
<polygon fill="#000000" stroke="#000000" points="439.8197,-27.5001 449.8196,-24 439.8196,-20.5001 439.8197,-27.5001"/>
<text text-anchor="middle" x="420.5" y="-27.4" font-family="Helvetica,sans-Serif" font-size="12.00" fill="#000000">type</text>
</g>
<!-- Types -->
<g id="node2" class="node">
<title>Types</title>
<text text-anchor="start" x="2.5" y="-21.4" font-family="Helvetica,sans-Serif" font-weight="bold" font-size="12.00" fill="#000000">Types</text>
<g id="a_node2_1"><a xlink:href="../../em/NISTSP800733PIVCardDataType/#diagram" xlink:title="A data type for fields contained on a PIV card" target="_top">
<polygon fill="#ebebeb" stroke="transparent" points="1.5,-1 1.5,-16 204.5,-16 204.5,-1 1.5,-1"/>
<text text-anchor="start" x="2.5" y="-5.4" font-family="Helvetica,sans-Serif" font-size="12.00" fill="#000000">em:NISTSP800733PIVCardDataType</text>
</a>
</g>
<polygon fill="#000000" stroke="#000000" points=".5,-16 .5,-16 205.5,-16 205.5,-16 .5,-16"/>
<polygon fill="none" stroke="#000000" points="0,0 0,-32 205,-32 205,0 0,0"/>
</g>
<!-- Types&#45;&gt;em:SecurityObject -->
<g id="edge1" class="edge">
<title>Types:top&#45;&gt;em:SecurityObject</title>
<path fill="none" stroke="#000000" d="M204.5,-24C223.0105,-24 243.0386,-24 261.5982,-24"/>
<polygon fill="#000000" stroke="#000000" points="261.7391,-27.5001 271.739,-24 261.739,-20.5001 261.7391,-27.5001"/>
<text text-anchor="middle" x="238.5" y="-27.4" font-family="Helvetica,sans-Serif" font-size="12.00" fill="#000000">has&#45;a</text>
</g>
</g>
</svg>
