<?xml version="1.0" encoding="UTF-8" standalone="no"?>
<!DOCTYPE svg PUBLIC "-//W3C//DTD SVG 1.1//EN"
 "http://www.w3.org/Graphics/SVG/1.1/DTD/svg11.dtd">
<!-- Generated by graphviz version 2.40.1 (20161225.0304)
 -->
<!-- Title: graphic Pages: 1 -->
<svg width="431pt" height="45pt"
 viewBox="0.00 0.00 431.00 45.00" xmlns="http://www.w3.org/2000/svg" xmlns:xlink="http://www.w3.org/1999/xlink">
<g id="graph0" class="graph" transform="scale(1 1) rotate(0) translate(4 41)">
<title>graphic</title>
<polygon fill="#ffffff" stroke="transparent" points="-4,4 -4,-41 427,-41 427,4 -4,4"/>
<!-- j:ParoleViolation -->
<g id="node1" class="node">
<title>j:ParoleViolation</title>
<text text-anchor="start" x="145.5" y="-21.4" font-family="Helvetica,sans-Serif" font-weight="bold" font-size="12.00" fill="#000000">j:ParoleViolation</text>
<polygon fill="none" stroke="#ff0000" stroke-width="5" points="141.5,-14 141.5,-34 243.5,-34 243.5,-14 141.5,-14"/>
</g>
<!-- j:ParoleViolationType -->
<g id="node3" class="node">
<title>j:ParoleViolationType</title>
<g id="a_node3_0"><a xlink:href="../../j/ParoleViolationType/#diagram" xlink:title="A data type for a set of details regarding the facts and events which constitute a violation of parole." target="_top">
<text text-anchor="start" x="307" y="-20.4" font-family="Helvetica,sans-Serif" font-size="12.00" fill="#000000">j:ParoleViolationType</text>
</a>
</g>
<polygon fill="none" stroke="#000000" points="305,-15.5 305,-32.5 423,-32.5 423,-15.5 305,-15.5"/>
</g>
<!-- j:ParoleViolation&#45;&gt;j:ParoleViolationType -->
<g id="edge2" class="edge">
<title>j:ParoleViolation&#45;&gt;j:ParoleViolationType</title>
<path fill="none" stroke="#000000" d="M246.2931,-24C261.5231,-24 278.3225,-24 294.3444,-24"/>
<polygon fill="#000000" stroke="#000000" points="294.7365,-27.5001 304.7365,-24 294.7364,-20.5001 294.7365,-27.5001"/>
<text text-anchor="middle" x="275.5" y="-27.4" font-family="Helvetica,sans-Serif" font-size="12.00" fill="#000000">type</text>
</g>
<!-- Types -->
<g id="node2" class="node">
<title>Types</title>
<text text-anchor="start" x="2" y="-21.4" font-family="Helvetica,sans-Serif" font-weight="bold" font-size="12.00" fill="#000000">Types</text>
<g id="a_node2_1"><a xlink:href="../../j/ParoleType/#diagram" xlink:title="A data type for a set of details about a subject&#39;s conditions and circumstance of parole." target="_top">
<polygon fill="#ebebeb" stroke="transparent" points="1,-1 1,-16 71,-16 71,-1 1,-1"/>
<text text-anchor="start" x="2" y="-5.4" font-family="Helvetica,sans-Serif" font-size="12.00" fill="#000000">j:ParoleType</text>
</a>
</g>
<polygon fill="#000000" stroke="#000000" points="0,-16 0,-16 72,-16 72,-16 0,-16"/>
<polygon fill="none" stroke="#000000" points="0,0 0,-32 72,-32 72,0 0,0"/>
</g>
<!-- Types&#45;&gt;j:ParoleViolation -->
<g id="edge1" class="edge">
<title>Types:top&#45;&gt;j:ParoleViolation</title>
<path fill="none" stroke="#000000" d="M71,-24C89.7767,-24 110.1857,-24 128.8216,-24"/>
<polygon fill="#000000" stroke="#000000" points="128.9708,-27.5001 138.9708,-24 128.9708,-20.5001 128.9708,-27.5001"/>
<text text-anchor="middle" x="105.5" y="-27.4" font-family="Helvetica,sans-Serif" font-size="12.00" fill="#000000">has&#45;a</text>
</g>
</g>
</svg>
