<?xml version="1.0" encoding="UTF-8" standalone="no"?>
<!DOCTYPE svg PUBLIC "-//W3C//DTD SVG 1.1//EN"
 "http://www.w3.org/Graphics/SVG/1.1/DTD/svg11.dtd">
<!-- Generated by graphviz version 2.40.1 (20161225.0304)
 -->
<!-- Title: graphic Pages: 1 -->
<svg width="465pt" height="45pt"
 viewBox="0.00 0.00 465.00 45.00" xmlns="http://www.w3.org/2000/svg" xmlns:xlink="http://www.w3.org/1999/xlink">
<g id="graph0" class="graph" transform="scale(1 1) rotate(0) translate(4 41)">
<title>graphic</title>
<polygon fill="#ffffff" stroke="transparent" points="-4,4 -4,-41 461,-41 461,4 -4,4"/>
<!-- ag:FieldCropAcreageAugmentationPoint -->
<g id="node1" class="node">
<title>ag:FieldCropAcreageAugmentationPoint</title>
<text text-anchor="start" x="218.5" y="-21.4" font-family="Helvetica,sans-Serif" font-weight="bold" font-size="12.00" fill="#000000">ag:FieldCropAcreageAugmentationPoint</text>
<polygon fill="none" stroke="#ff0000" stroke-width="5" points="214.5,-14 214.5,-34 454.5,-34 454.5,-14 214.5,-14"/>
</g>
<!-- Types -->
<g id="node2" class="node">
<title>Types</title>
<text text-anchor="start" x="2.5" y="-21.4" font-family="Helvetica,sans-Serif" font-weight="bold" font-size="12.00" fill="#000000">Types</text>
<g id="a_node2_0"><a xlink:href="../../ag/FieldCropAcreageType/#diagram" xlink:title="A data type that contains field related information including CLU related information, field number, and one to many agriculture production plans." target="_top">
<polygon fill="#ebebeb" stroke="transparent" points="1.5,-1 1.5,-16 144.5,-16 144.5,-1 1.5,-1"/>
<text text-anchor="start" x="2.5" y="-5.4" font-family="Helvetica,sans-Serif" font-size="12.00" fill="#000000">ag:FieldCropAcreageType</text>
</a>
</g>
<polygon fill="#000000" stroke="#000000" points=".5,-16 .5,-16 145.5,-16 145.5,-16 .5,-16"/>
<polygon fill="none" stroke="#000000" points="0,0 0,-32 145,-32 145,0 0,0"/>
</g>
<!-- Types&#45;&gt;ag:FieldCropAcreageAugmentationPoint -->
<g id="edge1" class="edge">
<title>Types:top&#45;&gt;ag:FieldCropAcreageAugmentationPoint</title>
<path fill="none" stroke="#000000" d="M144.5,-24C163.0392,-24 182.596,-24 201.8299,-24"/>
<polygon fill="#000000" stroke="#000000" points="201.8516,-27.5001 211.8515,-24 201.8515,-20.5001 201.8516,-27.5001"/>
<text text-anchor="middle" x="178.5" y="-27.4" font-family="Helvetica,sans-Serif" font-size="12.00" fill="#000000">has&#45;a</text>
</g>
</g>
</svg>
