<?xml version="1.0" encoding="UTF-8" standalone="no"?>
<!DOCTYPE svg PUBLIC "-//W3C//DTD SVG 1.1//EN"
 "http://www.w3.org/Graphics/SVG/1.1/DTD/svg11.dtd">
<!-- Generated by graphviz version 2.40.1 (20161225.0304)
 -->
<!-- Title: graphic Pages: 1 -->
<svg width="183pt" height="131pt"
 viewBox="0.00 0.00 183.00 130.50" xmlns="http://www.w3.org/2000/svg" xmlns:xlink="http://www.w3.org/1999/xlink">
<g id="graph0" class="graph" transform="scale(1 1) rotate(0) translate(4 126.5)">
<title>graphic</title>
<polygon fill="#ffffff" stroke="transparent" points="-4,4 -4,-126.5 179,-126.5 179,4 -4,4"/>
<!-- nc:DoubleListSimpleType -->
<g id="node1" class="node">
<title>nc:DoubleListSimpleType</title>
<text text-anchor="start" x="13.5" y="-107.4" font-family="Helvetica,sans-Serif" font-weight="bold" font-size="12.00" fill="#000000">nc:DoubleListSimpleType</text>
<polygon fill="none" stroke="#ff0000" stroke-width="5" points="10,-100 10,-120 165,-120 165,-100 10,-100"/>
</g>
<!-- DerivedTypes -->
<g id="node2" class="node">
<title>DerivedTypes</title>
<text text-anchor="start" x="2.5" y="-51.4" font-family="Helvetica,sans-Serif" font-weight="bold" font-size="12.00" fill="#000000">Derived types</text>
<g id="a_node2_0"><a xlink:href="../../nc/DoubleListType/#diagram" xlink:title="A data type for a white space&#45;delimited list of double." target="_top">
<polygon fill="#ebebeb" stroke="transparent" points="1.5,-31 1.5,-46 174.5,-46 174.5,-31 1.5,-31"/>
<text text-anchor="start" x="2.5" y="-35.4" font-family="Helvetica,sans-Serif" font-size="12.00" fill="#000000">nc:DoubleListType</text>
</a>
</g>
<g id="a_node2_1"><a xlink:href="../../cbrn/ChannelDataType/#diagram" xlink:title="A data type for spectrum channel data." target="_top">
<text text-anchor="start" x="2.5" y="-20.4" font-family="Helvetica,sans-Serif" font-size="12.00" fill="#000000">cbrn:ChannelDataType</text>
</a>
</g>
<g id="a_node2_2"><a xlink:href="../../cbrn/EnergyDeviationsKeVType/#diagram" xlink:title="A data type for an Energy Deviation measure whose values can be positive or negative and measured in keV." target="_top">
<polygon fill="#ebebeb" stroke="transparent" points="1.5,-1 1.5,-16 174.5,-16 174.5,-1 1.5,-1"/>
<text text-anchor="start" x="2.5" y="-5.4" font-family="Helvetica,sans-Serif" font-size="12.00" fill="#000000">cbrn:EnergyDeviationsKeVType</text>
</a>
</g>
<polygon fill="#000000" stroke="#000000" points=".5,-46 .5,-46 175.5,-46 175.5,-46 .5,-46"/>
<polygon fill="none" stroke="#000000" points="0,0 0,-62 175,-62 175,0 0,0"/>
</g>
<!-- nc:DoubleListSimpleType&#45;&gt;DerivedTypes -->
<g id="edge1" class="edge">
<title>nc:DoubleListSimpleType&#45;&gt;DerivedTypes</title>
<path fill="none" stroke="#000000" d="M87.5,-97.3018C87.5,-90.4212 87.5,-81.487 87.5,-72.4176"/>
<polygon fill="#000000" stroke="#000000" points="91.0001,-72.2229 87.5,-62.2229 84.0001,-72.2229 91.0001,-72.2229"/>
<text text-anchor="middle" x="78" y="-76.65" font-family="Helvetica,sans-Serif" font-size="12.00" fill="#000000">derived</text>
</g>
</g>
</svg>
