<?xml version="1.0" encoding="UTF-8" standalone="no"?>
<!DOCTYPE svg PUBLIC "-//W3C//DTD SVG 1.1//EN"
 "http://www.w3.org/Graphics/SVG/1.1/DTD/svg11.dtd">
<!-- Generated by graphviz version 2.40.1 (20161225.0304)
 -->
<!-- Title: graphic Pages: 1 -->
<svg width="960pt" height="244pt"
 viewBox="0.00 0.00 960.00 243.50" xmlns="http://www.w3.org/2000/svg" xmlns:xlink="http://www.w3.org/1999/xlink">
<g id="graph0" class="graph" transform="scale(1 1) rotate(0) translate(4 239.5)">
<title>graphic</title>
<polygon fill="#ffffff" stroke="transparent" points="-4,4 -4,-239.5 956,-239.5 956,4 -4,4"/>
<!-- cbrn:ScanIdentificationType -->
<g id="node1" class="node">
<title>cbrn:ScanIdentificationType</title>
<text text-anchor="start" x="216" y="-115.4" font-family="Helvetica,sans-Serif" font-weight="bold" font-size="12.00" fill="#000000">cbrn:ScanIdentificationType</text>
<g id="a_node1_0"><a xlink:href="../../cbrn/MeasuredItemID/#diagram" xlink:title="An Identifier of a measured item. There is no required format for the ID value." target="_top">
<polygon fill="#ebebeb" stroke="transparent" points="215,-95 215,-110 527,-110 527,-95 215,-95"/>
<text text-anchor="start" x="216" y="-99.4" font-family="Helvetica,sans-Serif" font-size="12.00" fill="#000000">cbrn:MeasuredItemID: niem&#45;xs:string [0&#45;n]</text>
</a>
</g>
<g id="a_node1_1"><a xlink:href="../../cbrn/MeasuredItemKindAbstract/#diagram" xlink:title="A data concept for a kind or general category of item that is being inspected." target="_top">
<text text-anchor="start" x="216" y="-84.4" font-family="Helvetica,sans-Serif" font-size="12.00" fill="#000000">cbrn:MeasuredItemKindAbstract [0&#45;n]</text>
</a>
</g>
<g id="a_node1_2"><a xlink:href="../../cbrn/MeasuredItemIDKindAbstract/#diagram" xlink:title="A data concept for a kind of identifier used for identifying a measured item." target="_top">
<polygon fill="#ebebeb" stroke="transparent" points="215,-65 215,-80 527,-80 527,-65 215,-65"/>
<text text-anchor="start" x="216" y="-69.4" font-family="Helvetica,sans-Serif" font-size="12.00" fill="#000000">cbrn:MeasuredItemIDKindAbstract [0&#45;n]</text>
</a>
</g>
<g id="a_node1_3"><a xlink:href="../../cbrn/TraversalID/#diagram" xlink:title="A unique identifier of a traversal. There is no required format for the ID value." target="_top">
<text text-anchor="start" x="216" y="-54.4" font-family="Helvetica,sans-Serif" font-size="12.00" fill="#000000">cbrn:TraversalID: niem&#45;xs:string [0&#45;n]</text>
</a>
</g>
<g id="a_node1_4"><a xlink:href="../../cbrn/DetectionEventUUID/#diagram" xlink:title="A unique identifier of the Detection Event for which the user entered the data." target="_top">
<polygon fill="#ebebeb" stroke="transparent" points="215,-35 215,-50 527,-50 527,-35 215,-35"/>
<text text-anchor="start" x="216" y="-39.4" font-family="Helvetica,sans-Serif" font-size="12.00" fill="#000000">cbrn:DetectionEventUUID: niem&#45;xs:string [0&#45;n]</text>
</a>
</g>
<g id="a_node1_5"><a xlink:href="../../cbrn/ScanQualityCode/#diagram" xlink:title="A code describing the quality of a scan." target="_top">
<text text-anchor="start" x="216" y="-24.4" font-family="Helvetica,sans-Serif" font-size="12.00" fill="#000000">cbrn:ScanQualityCode: cbrncl:ScanQualityCodeType [0&#45;n]</text>
</a>
</g>
<g id="a_node1_6"><a xlink:href="../../cbrn/ScanIdentificationAugmentationPoint/#diagram" xlink:title="An augmentation point for ScanIdentificationType." target="_top">
<polygon fill="#ebebeb" stroke="transparent" points="215,-5 215,-20 527,-20 527,-5 215,-5"/>
<text text-anchor="start" x="216" y="-9.4" font-family="Helvetica,sans-Serif" font-size="12.00" fill="#000000">cbrn:ScanIdentificationAugmentationPoint [0&#45;n]</text>
</a>
</g>
<polygon fill="#ff0000" stroke="#ff0000" points="210,-110 210,-110 532,-110 532,-110 210,-110"/>
<polygon fill="none" stroke="#ff0000" stroke-width="5" points="212.5,-2.5 212.5,-127.5 529.5,-127.5 529.5,-2.5 212.5,-2.5"/>
</g>
<!-- subst_d9e6192 -->
<g id="node2" class="node">
<title>subst_d9e6192</title>
<g id="a_node2_7"><a xlink:href="../../cbrn/MeasuredItemKindAbstract/#diagram" xlink:title="&lt;TABLE&gt;" target="_top">
<text text-anchor="start" x="583.5" y="-110.4" font-family="Helvetica,sans-Serif" font-weight="bold" font-size="12.00" fill="#000000">Substitution group cbrn:MeasuredItemKindAbstract</text>
</a>
</g>
<g id="a_node2_8"><a xlink:href="../../cbrn/MeasuredItemKindCode/#diagram" xlink:title="A kind or general category of item that is being inspected." target="_top">
<polygon fill="#ebebeb" stroke="transparent" points="582.5,-90 582.5,-105 939.5,-105 939.5,-90 582.5,-90"/>
<text text-anchor="start" x="583.5" y="-94.4" font-family="Helvetica,sans-Serif" font-size="12.00" fill="#000000">cbrn:MeasuredItemKindCode: cbrncl:MeasuredItemKindCodeType</text>
</a>
</g>
<g id="a_node2_9"><a xlink:href="../../cbrn/MeasuredItemKindText/#diagram" xlink:title="A description of a kind or general category of item that is being inspected." target="_top">
<text text-anchor="start" x="583.5" y="-79.4" font-family="Helvetica,sans-Serif" font-size="12.00" fill="#000000">cbrn:MeasuredItemKindText: niem&#45;xs:string</text>
</a>
</g>
<polygon fill="#000000" stroke="#000000" points="581.5,-105 581.5,-105 940.5,-105 940.5,-105 581.5,-105"/>
<polygon fill="none" stroke="#000000" points="581,-74.5 581,-121.5 940,-121.5 940,-74.5 581,-74.5"/>
</g>
<!-- cbrn:ScanIdentificationType&#45;&gt;subst_d9e6192 -->
<g id="edge1" class="edge">
<title>cbrn:ScanIdentificationType:e&#45;&gt;subst_d9e6192:w</title>
<path fill="none" stroke="#000000" d="M537.0336,-89.3441C554.9528,-94.5369 559.2507,-113 582.5,-113"/>
<polygon fill="#000000" stroke="#000000" points="537.3762,-85.8588 527,-88 536.4467,-92.7968 537.3762,-85.8588"/>
</g>
<!-- subst_d9e6167 -->
<g id="node3" class="node">
<title>subst_d9e6167</title>
<g id="a_node3_10"><a xlink:href="../../cbrn/MeasuredItemIDKindAbstract/#diagram" xlink:title="&lt;TABLE&gt;" target="_top">
<text text-anchor="start" x="571.5" y="-45.4" font-family="Helvetica,sans-Serif" font-weight="bold" font-size="12.00" fill="#000000">Substitution group cbrn:MeasuredItemIDKindAbstract</text>
</a>
</g>
<g id="a_node3_11"><a xlink:href="../../cbrn/MeasuredItemIDKindCode/#diagram" xlink:title="A code for a kind of identifier used for identifying a measured item." target="_top">
<polygon fill="#ebebeb" stroke="transparent" points="570.5,-25 570.5,-40 951.5,-40 951.5,-25 570.5,-25"/>
<text text-anchor="start" x="571.5" y="-29.4" font-family="Helvetica,sans-Serif" font-size="12.00" fill="#000000">cbrn:MeasuredItemIDKindCode: cbrncl:MeasuredItemIDKindCodeType</text>
</a>
</g>
<g id="a_node3_12"><a xlink:href="../../cbrn/MeasuredItemIDKindText/#diagram" xlink:title="A description of a kind of identifier used for identifying a measured item." target="_top">
<text text-anchor="start" x="571.5" y="-14.4" font-family="Helvetica,sans-Serif" font-size="12.00" fill="#000000">cbrn:MeasuredItemIDKindText: niem&#45;xs:string</text>
</a>
</g>
<polygon fill="#000000" stroke="#000000" points="569.5,-40 569.5,-40 952.5,-40 952.5,-40 569.5,-40"/>
<polygon fill="none" stroke="#000000" points="569,-9.5 569,-56.5 952,-56.5 952,-9.5 569,-9.5"/>
</g>
<!-- cbrn:ScanIdentificationType&#45;&gt;subst_d9e6167 -->
<g id="edge2" class="edge">
<title>cbrn:ScanIdentificationType:e&#45;&gt;subst_d9e6167:w</title>
<path fill="none" stroke="#000000" d="M537.0257,-70.8685C549.6597,-64.8228 552.2081,-48 570.5,-48"/>
<polygon fill="#000000" stroke="#000000" points="536.0535,-67.4969 527,-73 537.5093,-74.3439 536.0535,-67.4969"/>
</g>
<!-- Properties -->
<g id="node4" class="node">
<title>Properties</title>
<text text-anchor="start" x="2.5" y="-115.4" font-family="Helvetica,sans-Serif" font-weight="bold" font-size="12.00" fill="#000000">Properties</text>
<g id="a_node4_13"><a xlink:href="../../cbrn/ScanIdentificationData/#diagram" xlink:title="An inspected item&#39;s scan information" target="_top">
<polygon fill="#ebebeb" stroke="transparent" points="1.5,-95 1.5,-110 150.5,-110 150.5,-95 1.5,-95"/>
<text text-anchor="start" x="2.5" y="-99.4" font-family="Helvetica,sans-Serif" font-size="12.00" fill="#000000">cbrn:ScanIdentificationData</text>
</a>
</g>
<polygon fill="#000000" stroke="#000000" points=".5,-110 .5,-110 151.5,-110 151.5,-110 .5,-110"/>
<polygon fill="none" stroke="#000000" points="0,-94 0,-126 151,-126 151,-94 0,-94"/>
</g>
<!-- Properties&#45;&gt;cbrn:ScanIdentificationType -->
<g id="edge3" class="edge">
<title>Properties:top&#45;&gt;cbrn:ScanIdentificationType:top</title>
<path fill="none" stroke="#000000" d="M150.5,-118C175.4714,-118 184.1284,-118 204.8937,-118"/>
<polygon fill="#000000" stroke="#000000" points="205,-121.5001 215,-118 205,-114.5001 205,-121.5001"/>
<text text-anchor="middle" x="180.5" y="-121.4" font-family="Helvetica,sans-Serif" font-size="12.00" fill="#000000">type</text>
</g>
<!-- cbrn:RemarksComplexObjectType -->
<g id="node5" class="node">
<title>cbrn:RemarksComplexObjectType</title>
<g id="a_node5_14"><a xlink:href="../../cbrn/RemarksComplexObjectType/#diagram" xlink:title="A data type providing a Remark via inheritance to applicable Types." target="_top">
<text text-anchor="start" x="279" y="-170.4" font-family="Helvetica,sans-Serif" font-size="12.00" fill="#000000">cbrn:RemarksComplexObjectType</text>
</a>
</g>
<polygon fill="none" stroke="#000000" points="277,-165.5 277,-182.5 465,-182.5 465,-165.5 277,-165.5"/>
</g>
<!-- cbrn:RemarksComplexObjectType&#45;&gt;cbrn:ScanIdentificationType -->
<g id="edge4" class="edge">
<title>cbrn:RemarksComplexObjectType&#45;&gt;cbrn:ScanIdentificationType</title>
<path fill="none" stroke="#000000" d="M371,-165.3644C371,-159.2696 371,-150.4448 371,-140.522"/>
<polygon fill="#000000" stroke="#000000" points="374.5001,-140.2935 371,-130.2936 367.5001,-140.2936 374.5001,-140.2935"/>
<text text-anchor="middle" x="361.5" y="-144.65" font-family="Helvetica,sans-Serif" font-size="12.00" fill="#000000">extension</text>
</g>
<!-- structures:ObjectType -->
<g id="node6" class="node">
<title>structures:ObjectType</title>
<g id="a_node6_15"><a xlink:href="../../structures/ObjectType/#diagram" xlink:title="A data type for a thing with its own lifespan that has some existence." target="_top">
<text text-anchor="start" x="312" y="-223.4" font-family="Helvetica,sans-Serif" font-size="12.00" fill="#000000">structures:ObjectType</text>
</a>
</g>
<polygon fill="none" stroke="#000000" points="310,-218.5 310,-235.5 432,-235.5 432,-218.5 310,-218.5"/>
</g>
<!-- structures:ObjectType&#45;&gt;cbrn:RemarksComplexObjectType -->
<g id="edge5" class="edge">
<title>structures:ObjectType&#45;&gt;cbrn:RemarksComplexObjectType</title>
<path fill="none" stroke="#000000" d="M371,-218.411C371,-211.5124 371,-201.5696 371,-192.84"/>
<polygon fill="#000000" stroke="#000000" points="374.5001,-192.7518 371,-182.7519 367.5001,-192.7519 374.5001,-192.7518"/>
<text text-anchor="middle" x="361.5" y="-197.4" font-family="Helvetica,sans-Serif" font-size="12.00" fill="#000000">extension</text>
</g>
</g>
</svg>
