<?xml version="1.0" encoding="UTF-8" standalone="no"?>
<!DOCTYPE svg PUBLIC "-//W3C//DTD SVG 1.1//EN"
 "http://www.w3.org/Graphics/SVG/1.1/DTD/svg11.dtd">
<!-- Generated by graphviz version 2.40.1 (20161225.0304)
 -->
<!-- Title: graphic Pages: 1 -->
<svg width="408pt" height="86pt"
 viewBox="0.00 0.00 408.00 86.00" xmlns="http://www.w3.org/2000/svg" xmlns:xlink="http://www.w3.org/1999/xlink">
<g id="graph0" class="graph" transform="scale(1 1) rotate(0) translate(4 82)">
<title>graphic</title>
<polygon fill="#ffffff" stroke="transparent" points="-4,4 -4,-82 404,-82 404,4 -4,4"/>
<!-- j:ObligationAugmentation -->
<g id="node1" class="node">
<title>j:ObligationAugmentation</title>
<text text-anchor="start" x="14" y="-9.9" font-family="Helvetica,sans-Serif" font-weight="bold" font-size="12.00" fill="#000000">j:ObligationAugmentation</text>
<polygon fill="none" stroke="#ff0000" stroke-width="5" points="10.5,-2.5 10.5,-22.5 165.5,-22.5 165.5,-2.5 10.5,-2.5"/>
</g>
<!-- j:ObligationAugmentationType -->
<g id="node3" class="node">
<title>j:ObligationAugmentationType</title>
<g id="a_node3_0"><a xlink:href="../../j/ObligationAugmentationType/#diagram" xlink:title="A data type for additional information about a Obligation." target="_top">
<text text-anchor="start" x="237.5" y="-8.9" font-family="Helvetica,sans-Serif" font-size="12.00" fill="#000000">j:ObligationAugmentationType</text>
</a>
</g>
<polygon fill="none" stroke="#000000" points="235,-4 235,-21 400,-21 400,-4 235,-4"/>
</g>
<!-- j:ObligationAugmentation&#45;&gt;j:ObligationAugmentationType -->
<g id="edge2" class="edge">
<title>j:ObligationAugmentation&#45;&gt;j:ObligationAugmentationType</title>
<path fill="none" stroke="#000000" d="M168.268,-12.5C186.5658,-12.5 206.1533,-12.5 224.9185,-12.5"/>
<polygon fill="#000000" stroke="#000000" points="224.9442,-16.0001 234.9442,-12.5 224.9441,-9.0001 224.9442,-16.0001"/>
<text text-anchor="middle" x="205.5" y="-15.9" font-family="Helvetica,sans-Serif" font-size="12.00" fill="#000000">type</text>
</g>
<!-- SubstitutionGroup -->
<g id="node2" class="node">
<title>SubstitutionGroup</title>
<g id="a_node2_1"><a xlink:href="../../nc/ObligationAugmentationPoint/#diagram" xlink:title="An augmentation point for ObligationType." target="_top">
<text text-anchor="start" x="2" y="-65.9" font-family="Helvetica,sans-Serif" font-size="12.00" fill="#000000">nc:ObligationAugmentationPoint</text>
</a>
</g>
<polygon fill="none" stroke="#000000" points="0,-61 0,-78 176,-78 176,-61 0,-61"/>
</g>
<!-- SubstitutionGroup&#45;&gt;j:ObligationAugmentation -->
<g id="edge1" class="edge">
<title>SubstitutionGroup&#45;&gt;j:ObligationAugmentation</title>
<path fill="none" stroke="#000000" d="M88,-50.9163C88,-42.4809 88,-32.7214 88,-25.1501"/>
<polygon fill="#000000" stroke="#000000" points="84.5001,-50.9472 88,-60.9473 91.5001,-50.9473 84.5001,-50.9472"/>
<text text-anchor="middle" x="78.5" y="-39.9" font-family="Helvetica,sans-Serif" font-size="12.00" fill="#000000">substitution group</text>
</g>
</g>
</svg>
