<?xml version="1.0" encoding="UTF-8" standalone="no"?>
<!DOCTYPE svg PUBLIC "-//W3C//DTD SVG 1.1//EN"
 "http://www.w3.org/Graphics/SVG/1.1/DTD/svg11.dtd">
<!-- Generated by graphviz version 2.40.1 (20161225.0304)
 -->
<!-- Title: graphic Pages: 1 -->
<svg width="619pt" height="101pt"
 viewBox="0.00 0.00 619.00 101.00" xmlns="http://www.w3.org/2000/svg" xmlns:xlink="http://www.w3.org/1999/xlink">
<g id="graph0" class="graph" transform="scale(1 1) rotate(0) translate(4 97)">
<title>graphic</title>
<polygon fill="#ffffff" stroke="transparent" points="-4,4 -4,-97 615,-97 615,4 -4,4"/>
<!-- nc:PersonAssociationAugmentationPoint -->
<g id="node1" class="node">
<title>nc:PersonAssociationAugmentationPoint</title>
<text text-anchor="start" x="293.5" y="-77.4" font-family="Helvetica,sans-Serif" font-weight="bold" font-size="12.00" fill="#000000">nc:PersonAssociationAugmentationPoint</text>
<polygon fill="none" stroke="#ff0000" stroke-width="5" points="290,-70 290,-90 535,-90 535,-70 290,-70"/>
</g>
<!-- SubstitutableElements -->
<g id="node3" class="node">
<title>SubstitutableElements</title>
<text text-anchor="start" x="216.5" y="-21.4" font-family="Helvetica,sans-Serif" font-weight="bold" font-size="12.00" fill="#000000">Substitutable elements</text>
<g id="a_node3_0"><a xlink:href="../../j/PersonAssociationAugmentation/#diagram" xlink:title="Additional information about a person association." target="_top">
<polygon fill="#ebebeb" stroke="transparent" points="215.5,-1 215.5,-16 610.5,-16 610.5,-1 215.5,-1"/>
<text text-anchor="start" x="216.5" y="-5.4" font-family="Helvetica,sans-Serif" font-size="12.00" fill="#000000">j:PersonAssociationAugmentation: j:PersonAssociationAugmentationType</text>
</a>
</g>
<polygon fill="#000000" stroke="#000000" points="214.5,-16 214.5,-16 611.5,-16 611.5,-16 214.5,-16"/>
<polygon fill="none" stroke="#000000" points="214,0 214,-32 611,-32 611,0 214,0"/>
</g>
<!-- nc:PersonAssociationAugmentationPoint&#45;&gt;SubstitutableElements -->
<g id="edge2" class="edge">
<title>nc:PersonAssociationAugmentationPoint&#45;&gt;SubstitutableElements</title>
<path fill="none" stroke="#000000" d="M412.5,-57.3063C412.5,-48.9972 412.5,-39.7712 412.5,-32.1499"/>
<polygon fill="#000000" stroke="#000000" points="409.0001,-57.4892 412.5,-67.4892 416.0001,-57.4892 409.0001,-57.4892"/>
<text text-anchor="middle" x="403" y="-46.65" font-family="Helvetica,sans-Serif" font-size="12.00" fill="#000000">substitutable for</text>
</g>
<!-- Types -->
<g id="node2" class="node">
<title>Types</title>
<text text-anchor="start" x="2.5" y="-77.4" font-family="Helvetica,sans-Serif" font-weight="bold" font-size="12.00" fill="#000000">Types</text>
<g id="a_node2_1"><a xlink:href="../../nc/PersonAssociationType/#diagram" xlink:title="A data type for an association between people." target="_top">
<polygon fill="#ebebeb" stroke="transparent" points="1.5,-57 1.5,-72 146.5,-72 146.5,-57 1.5,-57"/>
<text text-anchor="start" x="2.5" y="-61.4" font-family="Helvetica,sans-Serif" font-size="12.00" fill="#000000">nc:PersonAssociationType</text>
</a>
</g>
<polygon fill="#000000" stroke="#000000" points=".5,-72 .5,-72 147.5,-72 147.5,-72 .5,-72"/>
<polygon fill="none" stroke="#000000" points="0,-56 0,-88 147,-88 147,-56 0,-56"/>
</g>
<!-- Types&#45;&gt;nc:PersonAssociationAugmentationPoint -->
<g id="edge1" class="edge">
<title>Types:top&#45;&gt;nc:PersonAssociationAugmentationPoint</title>
<path fill="none" stroke="#000000" d="M146.5,-80C188.9496,-80 235.2097,-80 277.071,-80"/>
<polygon fill="#000000" stroke="#000000" points="277.3314,-83.5001 287.3313,-80 277.3313,-76.5001 277.3314,-83.5001"/>
<text text-anchor="middle" x="180.5" y="-83.4" font-family="Helvetica,sans-Serif" font-size="12.00" fill="#000000">has&#45;a</text>
</g>
</g>
</svg>
