<?xml version="1.0" encoding="UTF-8" standalone="no"?>
<!DOCTYPE svg PUBLIC "-//W3C//DTD SVG 1.1//EN"
 "http://www.w3.org/Graphics/SVG/1.1/DTD/svg11.dtd">
<!-- Generated by graphviz version 2.40.1 (20161225.0304)
 -->
<!-- Title: graphic Pages: 1 -->
<svg width="574pt" height="45pt"
 viewBox="0.00 0.00 574.00 45.00" xmlns="http://www.w3.org/2000/svg" xmlns:xlink="http://www.w3.org/1999/xlink">
<g id="graph0" class="graph" transform="scale(1 1) rotate(0) translate(4 41)">
<title>graphic</title>
<polygon fill="#ffffff" stroke="transparent" points="-4,4 -4,-41 570,-41 570,4 -4,4"/>
<!-- j:DriverLicenseRestriction -->
<g id="node1" class="node">
<title>j:DriverLicenseRestriction</title>
<text text-anchor="start" x="184" y="-21.4" font-family="Helvetica,sans-Serif" font-weight="bold" font-size="12.00" fill="#000000">j:DriverLicenseRestriction</text>
<polygon fill="none" stroke="#ff0000" stroke-width="5" points="180.5,-14 180.5,-34 337.5,-34 337.5,-14 180.5,-14"/>
</g>
<!-- j:DriverLicenseRestrictionType -->
<g id="node3" class="node">
<title>j:DriverLicenseRestrictionType</title>
<g id="a_node3_0"><a xlink:href="../../j/DriverLicenseRestrictionType/#diagram" xlink:title="A data type for a restriction applicable to a driver license." target="_top">
<text text-anchor="start" x="401.5" y="-20.4" font-family="Helvetica,sans-Serif" font-size="12.00" fill="#000000">j:DriverLicenseRestrictionType</text>
</a>
</g>
<polygon fill="none" stroke="#000000" points="399,-15.5 399,-32.5 566,-32.5 566,-15.5 399,-15.5"/>
</g>
<!-- j:DriverLicenseRestriction&#45;&gt;j:DriverLicenseRestrictionType -->
<g id="edge2" class="edge">
<title>j:DriverLicenseRestriction&#45;&gt;j:DriverLicenseRestrictionType</title>
<path fill="none" stroke="#000000" d="M340.0046,-24C355.8331,-24 372.5539,-24 388.7561,-24"/>
<polygon fill="#000000" stroke="#000000" points="388.7646,-27.5001 398.7646,-24 388.7646,-20.5001 388.7646,-27.5001"/>
<text text-anchor="middle" x="369.5" y="-27.4" font-family="Helvetica,sans-Serif" font-size="12.00" fill="#000000">type</text>
</g>
<!-- Types -->
<g id="node2" class="node">
<title>Types</title>
<text text-anchor="start" x="2.5" y="-21.4" font-family="Helvetica,sans-Serif" font-weight="bold" font-size="12.00" fill="#000000">Types</text>
<g id="a_node2_1"><a xlink:href="../../j/DriverLicenseType/#diagram" xlink:title="A data type for a license issued to a person granting driving privileges." target="_top">
<polygon fill="#ebebeb" stroke="transparent" points="1.5,-1 1.5,-16 110.5,-16 110.5,-1 1.5,-1"/>
<text text-anchor="start" x="2.5" y="-5.4" font-family="Helvetica,sans-Serif" font-size="12.00" fill="#000000">j:DriverLicenseType</text>
</a>
</g>
<polygon fill="#000000" stroke="#000000" points=".5,-16 .5,-16 111.5,-16 111.5,-16 .5,-16"/>
<polygon fill="none" stroke="#000000" points="0,0 0,-32 111,-32 111,0 0,0"/>
</g>
<!-- Types&#45;&gt;j:DriverLicenseRestriction -->
<g id="edge1" class="edge">
<title>Types:top&#45;&gt;j:DriverLicenseRestriction</title>
<path fill="none" stroke="#000000" d="M110.5,-24C128.9663,-24 148.7243,-24 167.6056,-24"/>
<polygon fill="#000000" stroke="#000000" points="167.6883,-27.5001 177.6883,-24 167.6882,-20.5001 167.6883,-27.5001"/>
<text text-anchor="middle" x="144.5" y="-27.4" font-family="Helvetica,sans-Serif" font-size="12.00" fill="#000000">has&#45;a</text>
</g>
</g>
</svg>
