<?xml version="1.0" encoding="UTF-8" standalone="no"?>
<!DOCTYPE svg PUBLIC "-//W3C//DTD SVG 1.1//EN"
 "http://www.w3.org/Graphics/SVG/1.1/DTD/svg11.dtd">
<!-- Generated by graphviz version 2.40.1 (20161225.0304)
 -->
<!-- Title: graphic Pages: 1 -->
<svg width="486pt" height="45pt"
 viewBox="0.00 0.00 486.00 45.00" xmlns="http://www.w3.org/2000/svg" xmlns:xlink="http://www.w3.org/1999/xlink">
<g id="graph0" class="graph" transform="scale(1 1) rotate(0) translate(4 41)">
<title>graphic</title>
<polygon fill="#ffffff" stroke="transparent" points="-4,4 -4,-41 482,-41 482,4 -4,4"/>
<!-- m:PortMaximumVesselQuantity -->
<g id="node1" class="node">
<title>m:PortMaximumVesselQuantity</title>
<text text-anchor="start" x="140.5" y="-21.4" font-family="Helvetica,sans-Serif" font-weight="bold" font-size="12.00" fill="#000000">m:PortMaximumVesselQuantity</text>
<polygon fill="none" stroke="#ff0000" stroke-width="5" points="136.5,-14 136.5,-34 324.5,-34 324.5,-14 136.5,-14"/>
</g>
<!-- nc:QuantityType -->
<g id="node3" class="node">
<title>nc:QuantityType</title>
<g id="a_node3_0"><a xlink:href="../../nc/QuantityType/#diagram" xlink:title="A data type for a count or tally." target="_top">
<text text-anchor="start" x="388" y="-20.4" font-family="Helvetica,sans-Serif" font-size="12.00" fill="#000000">nc:QuantityType</text>
</a>
</g>
<polygon fill="none" stroke="#000000" points="386,-15.5 386,-32.5 478,-32.5 478,-15.5 386,-15.5"/>
</g>
<!-- m:PortMaximumVesselQuantity&#45;&gt;nc:QuantityType -->
<g id="edge2" class="edge">
<title>m:PortMaximumVesselQuantity&#45;&gt;nc:QuantityType</title>
<path fill="none" stroke="#000000" d="M327.1187,-24C343.778,-24 360.5881,-24 375.723,-24"/>
<polygon fill="#000000" stroke="#000000" points="375.911,-27.5001 385.911,-24 375.911,-20.5001 375.911,-27.5001"/>
<text text-anchor="middle" x="356.5" y="-27.4" font-family="Helvetica,sans-Serif" font-size="12.00" fill="#000000">type</text>
</g>
<!-- Types -->
<g id="node2" class="node">
<title>Types</title>
<text text-anchor="start" x="2.5" y="-21.4" font-family="Helvetica,sans-Serif" font-weight="bold" font-size="12.00" fill="#000000">Types</text>
<g id="a_node2_1"><a xlink:href="../../m/PortType/#diagram" xlink:title="A data type for a facility capable of receiving vessels and transferring cargo." target="_top">
<polygon fill="#ebebeb" stroke="transparent" points="1.5,-1 1.5,-16 66.5,-16 66.5,-1 1.5,-1"/>
<text text-anchor="start" x="2.5" y="-5.4" font-family="Helvetica,sans-Serif" font-size="12.00" fill="#000000">m:PortType</text>
</a>
</g>
<polygon fill="#000000" stroke="#000000" points=".5,-16 .5,-16 67.5,-16 67.5,-16 .5,-16"/>
<polygon fill="none" stroke="#000000" points="0,0 0,-32 67,-32 67,0 0,0"/>
</g>
<!-- Types&#45;&gt;m:PortMaximumVesselQuantity -->
<g id="edge1" class="edge">
<title>Types:top&#45;&gt;m:PortMaximumVesselQuantity</title>
<path fill="none" stroke="#000000" d="M66.5,-24C84.963,-24 104.5952,-24 123.6196,-24"/>
<polygon fill="#000000" stroke="#000000" points="123.8079,-27.5001 133.8078,-24 123.8078,-20.5001 123.8079,-27.5001"/>
<text text-anchor="middle" x="100.5" y="-27.4" font-family="Helvetica,sans-Serif" font-size="12.00" fill="#000000">has&#45;a</text>
</g>
</g>
</svg>
