<?xml version="1.0" encoding="UTF-8" standalone="no"?>
<!DOCTYPE svg PUBLIC "-//W3C//DTD SVG 1.1//EN"
 "http://www.w3.org/Graphics/SVG/1.1/DTD/svg11.dtd">
<!-- Generated by graphviz version 2.40.1 (20161225.0304)
 -->
<!-- Title: graphic Pages: 1 -->
<svg width="413pt" height="117pt"
 viewBox="0.00 0.00 413.00 116.50" xmlns="http://www.w3.org/2000/svg" xmlns:xlink="http://www.w3.org/1999/xlink">
<g id="graph0" class="graph" transform="scale(1 1) rotate(0) translate(4 112.5)">
<title>graphic</title>
<polygon fill="#ffffff" stroke="transparent" points="-4,4 -4,-112.5 409,-112.5 409,4 -4,4"/>
<!-- j:ItemDetailAbstract -->
<g id="node1" class="node">
<title>j:ItemDetailAbstract</title>
<text text-anchor="start" x="246.5" y="-92.9" font-family="Helvetica,sans-Serif" font-weight="bold" font-size="12.00" fill="#000000">j:ItemDetailAbstract</text>
<polygon fill="none" stroke="#ff0000" stroke-width="5" points="243,-85.5 243,-105.5 364,-105.5 364,-85.5 243,-85.5"/>
</g>
<!-- SubstitutableElements -->
<g id="node3" class="node">
<title>SubstitutableElements</title>
<text text-anchor="start" x="204.5" y="-35.9" font-family="Helvetica,sans-Serif" font-weight="bold" font-size="12.00" fill="#000000">Substitutable elements</text>
<g id="a_node3_0"><a xlink:href="../../j/ItemDetailCode/#diagram" xlink:title="A feature or characteristic of a property item." target="_top">
<polygon fill="#ebebeb" stroke="transparent" points="203.5,-15.5 203.5,-30.5 404.5,-30.5 404.5,-15.5 203.5,-15.5"/>
<text text-anchor="start" x="204.5" y="-19.9" font-family="Helvetica,sans-Serif" font-size="12.00" fill="#000000">j:ItemDetailCode: ncic:TYPCodeType</text>
</a>
</g>
<g id="a_node3_1"><a xlink:href="../../j/ItemDetailText/#diagram" xlink:title="A feature or characteristic of a property item." target="_top">
<text text-anchor="start" x="204.5" y="-4.9" font-family="Helvetica,sans-Serif" font-size="12.00" fill="#000000">j:ItemDetailText: nc:TextType</text>
</a>
</g>
<polygon fill="#000000" stroke="#000000" points="202.5,-30.5 202.5,-30.5 405.5,-30.5 405.5,-30.5 202.5,-30.5"/>
<polygon fill="none" stroke="#000000" points="202,0 202,-47 405,-47 405,0 202,0"/>
</g>
<!-- j:ItemDetailAbstract&#45;&gt;SubstitutableElements -->
<g id="edge2" class="edge">
<title>j:ItemDetailAbstract&#45;&gt;SubstitutableElements</title>
<path fill="none" stroke="#000000" d="M303.5,-72.9771C303.5,-64.7398 303.5,-55.4022 303.5,-47.0755"/>
<polygon fill="#000000" stroke="#000000" points="300.0001,-72.9945 303.5,-82.9945 307.0001,-72.9946 300.0001,-72.9945"/>
<text text-anchor="middle" x="294" y="-61.9" font-family="Helvetica,sans-Serif" font-size="12.00" fill="#000000">substitutable for</text>
</g>
<!-- Types -->
<g id="node2" class="node">
<title>Types</title>
<text text-anchor="start" x="2.5" y="-92.9" font-family="Helvetica,sans-Serif" font-weight="bold" font-size="12.00" fill="#000000">Types</text>
<g id="a_node2_2"><a xlink:href="../../j/ItemAugmentationType/#diagram" xlink:title="A data type for additional information about an item." target="_top">
<polygon fill="#ebebeb" stroke="transparent" points="1.5,-72.5 1.5,-87.5 134.5,-87.5 134.5,-72.5 1.5,-72.5"/>
<text text-anchor="start" x="2.5" y="-76.9" font-family="Helvetica,sans-Serif" font-size="12.00" fill="#000000">j:ItemAugmentationType</text>
</a>
</g>
<polygon fill="#000000" stroke="#000000" points=".5,-87.5 .5,-87.5 135.5,-87.5 135.5,-87.5 .5,-87.5"/>
<polygon fill="none" stroke="#000000" points="0,-71.5 0,-103.5 135,-103.5 135,-71.5 0,-71.5"/>
</g>
<!-- Types&#45;&gt;j:ItemDetailAbstract -->
<g id="edge1" class="edge">
<title>Types:top&#45;&gt;j:ItemDetailAbstract</title>
<path fill="none" stroke="#000000" d="M134.5,-95.5C165.7325,-95.5 200.2117,-95.5 229.8374,-95.5"/>
<polygon fill="#000000" stroke="#000000" points="230.1007,-99.0001 240.1007,-95.5 230.1006,-92.0001 230.1007,-99.0001"/>
<text text-anchor="middle" x="168.5" y="-98.9" font-family="Helvetica,sans-Serif" font-size="12.00" fill="#000000">has&#45;a</text>
</g>
</g>
</svg>
