<?xml version="1.0" encoding="UTF-8" standalone="no"?>
<!DOCTYPE svg PUBLIC "-//W3C//DTD SVG 1.1//EN"
 "http://www.w3.org/Graphics/SVG/1.1/DTD/svg11.dtd">
<!-- Generated by graphviz version 2.40.1 (20161225.0304)
 -->
<!-- Title: graphic Pages: 1 -->
<svg width="515pt" height="45pt"
 viewBox="0.00 0.00 515.00 45.00" xmlns="http://www.w3.org/2000/svg" xmlns:xlink="http://www.w3.org/1999/xlink">
<g id="graph0" class="graph" transform="scale(1 1) rotate(0) translate(4 41)">
<title>graphic</title>
<polygon fill="#ffffff" stroke="transparent" points="-4,4 -4,-41 511,-41 511,4 -4,4"/>
<!-- im:ChainOfCustody -->
<g id="node1" class="node">
<title>im:ChainOfCustody</title>
<text text-anchor="start" x="194.5" y="-21.4" font-family="Helvetica,sans-Serif" font-weight="bold" font-size="12.00" fill="#000000">im:ChainOfCustody</text>
<polygon fill="none" stroke="#ff0000" stroke-width="5" points="190.5,-14 190.5,-34 310.5,-34 310.5,-14 190.5,-14"/>
</g>
<!-- im:ChainOfCustodyType -->
<g id="node3" class="node">
<title>im:ChainOfCustodyType</title>
<g id="a_node3_0"><a xlink:href="../../im/ChainOfCustodyType/#diagram" xlink:title="A data type for the information about the possession of evidence which may include information on which United States Immigration official took possession of the evidence and when." target="_top">
<text text-anchor="start" x="374.5" y="-20.4" font-family="Helvetica,sans-Serif" font-size="12.00" fill="#000000">im:ChainOfCustodyType</text>
</a>
</g>
<polygon fill="none" stroke="#000000" points="372,-15.5 372,-32.5 507,-32.5 507,-15.5 372,-15.5"/>
</g>
<!-- im:ChainOfCustody&#45;&gt;im:ChainOfCustodyType -->
<g id="edge2" class="edge">
<title>im:ChainOfCustody&#45;&gt;im:ChainOfCustodyType</title>
<path fill="none" stroke="#000000" d="M313.1717,-24C328.5972,-24 345.3037,-24 361.3603,-24"/>
<polygon fill="#000000" stroke="#000000" points="361.7979,-27.5001 371.7979,-24 361.7979,-20.5001 361.7979,-27.5001"/>
<text text-anchor="middle" x="342.5" y="-27.4" font-family="Helvetica,sans-Serif" font-size="12.00" fill="#000000">type</text>
</g>
<!-- Types -->
<g id="node2" class="node">
<title>Types</title>
<text text-anchor="start" x="2.5" y="-21.4" font-family="Helvetica,sans-Serif" font-weight="bold" font-size="12.00" fill="#000000">Types</text>
<g id="a_node2_1"><a xlink:href="../../im/ICEEmployeeType/#diagram" xlink:title="A data type for the classification of the person employed by the Department of Homeland Security (DHS) Immigration and Customs Enforcement (ICE) agency." target="_top">
<polygon fill="#ebebeb" stroke="transparent" points="1.5,-1 1.5,-16 120.5,-16 120.5,-1 1.5,-1"/>
<text text-anchor="start" x="2.5" y="-5.4" font-family="Helvetica,sans-Serif" font-size="12.00" fill="#000000">im:ICEEmployeeType</text>
</a>
</g>
<polygon fill="#000000" stroke="#000000" points=".5,-16 .5,-16 121.5,-16 121.5,-16 .5,-16"/>
<polygon fill="none" stroke="#000000" points="0,0 0,-32 121,-32 121,0 0,0"/>
</g>
<!-- Types&#45;&gt;im:ChainOfCustody -->
<g id="edge1" class="edge">
<title>Types:top&#45;&gt;im:ChainOfCustody</title>
<path fill="none" stroke="#000000" d="M120.5,-24C138.9717,-24 158.9197,-24 177.5121,-24"/>
<polygon fill="#000000" stroke="#000000" points="177.6839,-27.5001 187.6838,-24 177.6838,-20.5001 177.6839,-27.5001"/>
<text text-anchor="middle" x="154.5" y="-27.4" font-family="Helvetica,sans-Serif" font-size="12.00" fill="#000000">has&#45;a</text>
</g>
</g>
</svg>
