<?xml version="1.0" encoding="UTF-8" standalone="no"?>
<!DOCTYPE svg PUBLIC "-//W3C//DTD SVG 1.1//EN"
 "http://www.w3.org/Graphics/SVG/1.1/DTD/svg11.dtd">
<!-- Generated by graphviz version 2.40.1 (20161225.0304)
 -->
<!-- Title: graphic Pages: 1 -->
<svg width="778pt" height="45pt"
 viewBox="0.00 0.00 778.00 45.00" xmlns="http://www.w3.org/2000/svg" xmlns:xlink="http://www.w3.org/1999/xlink">
<g id="graph0" class="graph" transform="scale(1 1) rotate(0) translate(4 41)">
<title>graphic</title>
<polygon fill="#ffffff" stroke="transparent" points="-4,4 -4,-41 774,-41 774,4 -4,4"/>
<!-- biom:FaceImageOcclusionCategoryCode -->
<g id="node1" class="node">
<title>biom:FaceImageOcclusionCategoryCode</title>
<text text-anchor="start" x="246.5" y="-21.4" font-family="Helvetica,sans-Serif" font-weight="bold" font-size="12.00" fill="#000000">biom:FaceImageOcclusionCategoryCode</text>
<polygon fill="none" stroke="#ff0000" stroke-width="5" points="242.5,-14 242.5,-34 484.5,-34 484.5,-14 242.5,-14"/>
</g>
<!-- biom:ImageOcclusionCategoryCodeType -->
<g id="node3" class="node">
<title>biom:ImageOcclusionCategoryCodeType</title>
<g id="a_node3_0"><a xlink:href="../../biom/ImageOcclusionCategoryCodeType/#diagram" xlink:title="A data type for a kind of blockage in an image" target="_top">
<text text-anchor="start" x="548" y="-20.4" font-family="Helvetica,sans-Serif" font-size="12.00" fill="#000000">biom:ImageOcclusionCategoryCodeType</text>
</a>
</g>
<polygon fill="none" stroke="#000000" points="546,-15.5 546,-32.5 770,-32.5 770,-15.5 546,-15.5"/>
</g>
<!-- biom:FaceImageOcclusionCategoryCode&#45;&gt;biom:ImageOcclusionCategoryCodeType -->
<g id="edge2" class="edge">
<title>biom:FaceImageOcclusionCategoryCode&#45;&gt;biom:ImageOcclusionCategoryCodeType</title>
<path fill="none" stroke="#000000" d="M487.1145,-24C503.1258,-24 519.5201,-24 535.513,-24"/>
<polygon fill="#000000" stroke="#000000" points="535.9567,-27.5001 545.9567,-24 535.9566,-20.5001 535.9567,-27.5001"/>
<text text-anchor="middle" x="516.5" y="-27.4" font-family="Helvetica,sans-Serif" font-size="12.00" fill="#000000">type</text>
</g>
<!-- Types -->
<g id="node2" class="node">
<title>Types</title>
<text text-anchor="start" x="2.5" y="-21.4" font-family="Helvetica,sans-Serif" font-weight="bold" font-size="12.00" fill="#000000">Types</text>
<g id="a_node2_1"><a xlink:href="../../biom/FaceImageOcclusionType/#diagram" xlink:title="A data type for a blockage in a face image" target="_top">
<polygon fill="#ebebeb" stroke="transparent" points="1.5,-1 1.5,-16 172.5,-16 172.5,-1 1.5,-1"/>
<text text-anchor="start" x="2.5" y="-5.4" font-family="Helvetica,sans-Serif" font-size="12.00" fill="#000000">biom:FaceImageOcclusionType</text>
</a>
</g>
<polygon fill="#000000" stroke="#000000" points=".5,-16 .5,-16 173.5,-16 173.5,-16 .5,-16"/>
<polygon fill="none" stroke="#000000" points="0,0 0,-32 173,-32 173,0 0,0"/>
</g>
<!-- Types&#45;&gt;biom:FaceImageOcclusionCategoryCode -->
<g id="edge1" class="edge">
<title>Types:top&#45;&gt;biom:FaceImageOcclusionCategoryCode</title>
<path fill="none" stroke="#000000" d="M172.5,-24C191.0662,-24 210.6476,-24 229.9119,-24"/>
<polygon fill="#000000" stroke="#000000" points="229.95,-27.5001 239.95,-24 229.95,-20.5001 229.95,-27.5001"/>
<text text-anchor="middle" x="206.5" y="-27.4" font-family="Helvetica,sans-Serif" font-size="12.00" fill="#000000">has&#45;a</text>
</g>
</g>
</svg>
