<?xml version="1.0" encoding="UTF-8" standalone="no"?>
<!DOCTYPE svg PUBLIC "-//W3C//DTD SVG 1.1//EN"
 "http://www.w3.org/Graphics/SVG/1.1/DTD/svg11.dtd">
<!-- Generated by graphviz version 2.40.1 (20161225.0304)
 -->
<!-- Title: graphic Pages: 1 -->
<svg width="560pt" height="45pt"
 viewBox="0.00 0.00 560.00 45.00" xmlns="http://www.w3.org/2000/svg" xmlns:xlink="http://www.w3.org/1999/xlink">
<g id="graph0" class="graph" transform="scale(1 1) rotate(0) translate(4 41)">
<title>graphic</title>
<polygon fill="#ffffff" stroke="transparent" points="-4,4 -4,-41 556,-41 556,4 -4,4"/>
<!-- scr:PersonCategoryDescriptionText -->
<g id="node1" class="node">
<title>scr:PersonCategoryDescriptionText</title>
<text text-anchor="start" x="210" y="-21.4" font-family="Helvetica,sans-Serif" font-weight="bold" font-size="12.00" fill="#000000">scr:PersonCategoryDescriptionText</text>
<polygon fill="none" stroke="#ff0000" stroke-width="5" points="206.5,-14 206.5,-34 419.5,-34 419.5,-14 206.5,-14"/>
</g>
<!-- nc:TextType -->
<g id="node3" class="node">
<title>nc:TextType</title>
<g id="a_node3_0"><a xlink:href="../../nc/TextType/#diagram" xlink:title="A data type for a character string." target="_top">
<text text-anchor="start" x="483.5" y="-20.4" font-family="Helvetica,sans-Serif" font-size="12.00" fill="#000000">nc:TextType</text>
</a>
</g>
<polygon fill="none" stroke="#000000" points="481,-15.5 481,-32.5 552,-32.5 552,-15.5 481,-15.5"/>
</g>
<!-- scr:PersonCategoryDescriptionText&#45;&gt;nc:TextType -->
<g id="edge2" class="edge">
<title>scr:PersonCategoryDescriptionText&#45;&gt;nc:TextType</title>
<path fill="none" stroke="#000000" d="M422.1965,-24C439.1919,-24 455.9088,-24 470.4368,-24"/>
<polygon fill="#000000" stroke="#000000" points="470.6014,-27.5001 480.6013,-24 470.6013,-20.5001 470.6014,-27.5001"/>
<text text-anchor="middle" x="451.5" y="-27.4" font-family="Helvetica,sans-Serif" font-size="12.00" fill="#000000">type</text>
</g>
<!-- Types -->
<g id="node2" class="node">
<title>Types</title>
<text text-anchor="start" x="2.5" y="-21.4" font-family="Helvetica,sans-Serif" font-weight="bold" font-size="12.00" fill="#000000">Types</text>
<g id="a_node2_1"><a xlink:href="../../scr/PersonCategoryType/#diagram" xlink:title="A data type for the category of a PERSON." target="_top">
<polygon fill="#ebebeb" stroke="transparent" points="1.5,-1 1.5,-16 136.5,-16 136.5,-1 1.5,-1"/>
<text text-anchor="start" x="2.5" y="-5.4" font-family="Helvetica,sans-Serif" font-size="12.00" fill="#000000">scr:PersonCategoryType</text>
</a>
</g>
<polygon fill="#000000" stroke="#000000" points=".5,-16 .5,-16 137.5,-16 137.5,-16 .5,-16"/>
<polygon fill="none" stroke="#000000" points="0,0 0,-32 137,-32 137,0 0,0"/>
</g>
<!-- Types&#45;&gt;scr:PersonCategoryDescriptionText -->
<g id="edge1" class="edge">
<title>Types:top&#45;&gt;scr:PersonCategoryDescriptionText</title>
<path fill="none" stroke="#000000" d="M136.5,-24C154.9417,-24 174.4672,-24 193.5478,-24"/>
<polygon fill="#000000" stroke="#000000" points="193.7835,-27.5001 203.7835,-24 193.7834,-20.5001 193.7835,-27.5001"/>
<text text-anchor="middle" x="170.5" y="-27.4" font-family="Helvetica,sans-Serif" font-size="12.00" fill="#000000">has&#45;a</text>
</g>
</g>
</svg>
