<?xml version="1.0" encoding="UTF-8" standalone="no"?>
<!DOCTYPE svg PUBLIC "-//W3C//DTD SVG 1.1//EN"
 "http://www.w3.org/Graphics/SVG/1.1/DTD/svg11.dtd">
<!-- Generated by graphviz version 2.40.1 (20161225.0304)
 -->
<!-- Title: graphic Pages: 1 -->
<svg width="615pt" height="45pt"
 viewBox="0.00 0.00 615.00 45.00" xmlns="http://www.w3.org/2000/svg" xmlns:xlink="http://www.w3.org/1999/xlink">
<g id="graph0" class="graph" transform="scale(1 1) rotate(0) translate(4 41)">
<title>graphic</title>
<polygon fill="#ffffff" stroke="transparent" points="-4,4 -4,-41 611,-41 611,4 -4,4"/>
<!-- nc:EncounterClassification -->
<g id="node1" class="node">
<title>nc:EncounterClassification</title>
<text text-anchor="start" x="213" y="-21.4" font-family="Helvetica,sans-Serif" font-weight="bold" font-size="12.00" fill="#000000">nc:EncounterClassification</text>
<polygon fill="none" stroke="#ff0000" stroke-width="5" points="209.5,-14 209.5,-34 372.5,-34 372.5,-14 209.5,-14"/>
</g>
<!-- nc:EncounterClassificationType -->
<g id="node3" class="node">
<title>nc:EncounterClassificationType</title>
<g id="a_node3_0"><a xlink:href="../../nc/EncounterClassificationType/#diagram" xlink:title="A data type for a kind of encounter between a person or item of interest and a governmental element, such as an organization, official or surveillance system." target="_top">
<text text-anchor="start" x="436.5" y="-20.4" font-family="Helvetica,sans-Serif" font-size="12.00" fill="#000000">nc:EncounterClassificationType</text>
</a>
</g>
<polygon fill="none" stroke="#000000" points="434,-15.5 434,-32.5 607,-32.5 607,-15.5 434,-15.5"/>
</g>
<!-- nc:EncounterClassification&#45;&gt;nc:EncounterClassificationType -->
<g id="edge2" class="edge">
<title>nc:EncounterClassification&#45;&gt;nc:EncounterClassificationType</title>
<path fill="none" stroke="#000000" d="M375.1542,-24C390.7904,-24 407.2442,-24 423.2343,-24"/>
<polygon fill="#000000" stroke="#000000" points="423.6618,-27.5001 433.6618,-24 423.6617,-20.5001 423.6618,-27.5001"/>
<text text-anchor="middle" x="404.5" y="-27.4" font-family="Helvetica,sans-Serif" font-size="12.00" fill="#000000">type</text>
</g>
<!-- Types -->
<g id="node2" class="node">
<title>Types</title>
<text text-anchor="start" x="2" y="-21.4" font-family="Helvetica,sans-Serif" font-weight="bold" font-size="12.00" fill="#000000">Types</text>
<g id="a_node2_1"><a xlink:href="../../nc/PersonEncounterType/#diagram" xlink:title="A data type for an encounter between a person of interest and a governmental element, such as an organization, official or surveillance system." target="_top">
<polygon fill="#ebebeb" stroke="transparent" points="1,-1 1,-16 139,-16 139,-1 1,-1"/>
<text text-anchor="start" x="2" y="-5.4" font-family="Helvetica,sans-Serif" font-size="12.00" fill="#000000">nc:PersonEncounterType</text>
</a>
</g>
<polygon fill="#000000" stroke="#000000" points="0,-16 0,-16 140,-16 140,-16 0,-16"/>
<polygon fill="none" stroke="#000000" points="0,0 0,-32 140,-32 140,0 0,0"/>
</g>
<!-- Types&#45;&gt;nc:EncounterClassification -->
<g id="edge1" class="edge">
<title>Types:top&#45;&gt;nc:EncounterClassification</title>
<path fill="none" stroke="#000000" d="M139,-24C157.6779,-24 177.6468,-24 196.765,-24"/>
<polygon fill="#000000" stroke="#000000" points="196.9782,-27.5001 206.9781,-24 196.9781,-20.5001 196.9782,-27.5001"/>
<text text-anchor="middle" x="173.5" y="-27.4" font-family="Helvetica,sans-Serif" font-size="12.00" fill="#000000">has&#45;a</text>
</g>
</g>
</svg>
