<?xml version="1.0" encoding="UTF-8" standalone="no"?>
<!DOCTYPE svg PUBLIC "-//W3C//DTD SVG 1.1//EN"
 "http://www.w3.org/Graphics/SVG/1.1/DTD/svg11.dtd">
<!-- Generated by graphviz version 2.40.1 (20161225.0304)
 -->
<!-- Title: graphic Pages: 1 -->
<svg width="228pt" height="154pt"
 viewBox="0.00 0.00 228.00 153.50" xmlns="http://www.w3.org/2000/svg" xmlns:xlink="http://www.w3.org/1999/xlink">
<g id="graph0" class="graph" transform="scale(1 1) rotate(0) translate(4 149.5)">
<title>graphic</title>
<polygon fill="#ffffff" stroke="transparent" points="-4,4 -4,-149.5 224,-149.5 224,4 -4,4"/>
<!-- mmucc:VehicleBusUseCodeType -->
<g id="node1" class="node">
<title>mmucc:VehicleBusUseCodeType</title>
<text text-anchor="start" x="7" y="-25.4" font-family="Helvetica,sans-Serif" font-weight="bold" font-size="12.00" fill="#000000">mmucc:VehicleBusUseCodeType</text>
<g id="a_node1_0"><a xlink:href="../../structures/SimpleObjectAttributeGroup/#diagram" xlink:title="A group of attributes that are applicable to objects, to be used when defining a complex type that is an extension of a simple type." target="_top">
<polygon fill="#ebebeb" stroke="transparent" points="6,-5 6,-20 214,-20 214,-5 6,-5"/>
<text text-anchor="start" x="7" y="-9.4" font-family="Helvetica,sans-Serif" font-size="12.00" fill="#000000">structures:SimpleObjectAttributeGroup</text>
</a>
</g>
<polygon fill="#ff0000" stroke="#ff0000" points="1,-20 1,-20 219,-20 219,-20 1,-20"/>
<polygon fill="none" stroke="#ff0000" stroke-width="5" points="3.5,-2.5 3.5,-37.5 216.5,-37.5 216.5,-2.5 3.5,-2.5"/>
</g>
<!-- mmucc:VehicleBusUseCodeSimpleType -->
<g id="node2" class="node">
<title>mmucc:VehicleBusUseCodeSimpleType</title>
<g id="a_node2_1"><a xlink:href="../../mmucc/VehicleBusUseCodeSimpleType/#diagram" xlink:title="A data type describes the common type of bus service this vehicle was being used as at the time of the crash. Buses are any motor vehicle with seats to transport nine (9) or more people, including the driver&#39;s seat. This element does not include vans which are owned and operated for personal use." target="_top">
<text text-anchor="start" x="2" y="-80.4" font-family="Helvetica,sans-Serif" font-size="12.00" fill="#000000">mmucc:VehicleBusUseCodeSimpleType</text>
</a>
</g>
<polygon fill="none" stroke="#000000" points="0,-75.5 0,-92.5 220,-92.5 220,-75.5 0,-75.5"/>
</g>
<!-- mmucc:VehicleBusUseCodeSimpleType&#45;&gt;mmucc:VehicleBusUseCodeType -->
<g id="edge1" class="edge">
<title>mmucc:VehicleBusUseCodeSimpleType&#45;&gt;mmucc:VehicleBusUseCodeType</title>
<path fill="none" stroke="#000000" d="M110,-75.4351C110,-68.931 110,-59.5678 110,-50.3827"/>
<polygon fill="#000000" stroke="#000000" points="113.5001,-50.25 110,-40.25 106.5001,-50.25 113.5001,-50.25"/>
<text text-anchor="middle" x="100.5" y="-54.65" font-family="Helvetica,sans-Serif" font-size="12.00" fill="#000000">extension</text>
</g>
<!-- xs:token -->
<g id="node3" class="node">
<title>xs:token</title>
<g id="a_node3_2"><a xlink:href="../../xs/token/#diagram" xlink:title="&lt;TABLE&gt;" target="_top">
<text text-anchor="start" x="88" y="-133.4" font-family="Helvetica,sans-Serif" font-size="12.00" fill="#000000">xs:token</text>
</a>
</g>
<polygon fill="none" stroke="#000000" points="85.5,-128.5 85.5,-145.5 134.5,-145.5 134.5,-128.5 85.5,-128.5"/>
</g>
<!-- xs:token&#45;&gt;mmucc:VehicleBusUseCodeSimpleType -->
<g id="edge2" class="edge">
<title>xs:token&#45;&gt;mmucc:VehicleBusUseCodeSimpleType</title>
<path fill="none" stroke="#000000" d="M110,-128.411C110,-121.5124 110,-111.5696 110,-102.84"/>
<polygon fill="#000000" stroke="#000000" points="113.5001,-102.7518 110,-92.7519 106.5001,-102.7519 113.5001,-102.7518"/>
<text text-anchor="middle" x="100.5" y="-107.4" font-family="Helvetica,sans-Serif" font-size="12.00" fill="#000000">restriction</text>
</g>
</g>
</svg>
