<?xml version="1.0" encoding="UTF-8" standalone="no"?>
<!DOCTYPE svg PUBLIC "-//W3C//DTD SVG 1.1//EN"
 "http://www.w3.org/Graphics/SVG/1.1/DTD/svg11.dtd">
<!-- Generated by graphviz version 2.40.1 (20161225.0304)
 -->
<!-- Title: graphic Pages: 1 -->
<svg width="514pt" height="135pt"
 viewBox="0.00 0.00 514.00 135.00" xmlns="http://www.w3.org/2000/svg" xmlns:xlink="http://www.w3.org/1999/xlink">
<g id="graph0" class="graph" transform="scale(1 1) rotate(0) translate(4 131)">
<title>graphic</title>
<polygon fill="#ffffff" stroke="transparent" points="-4,4 -4,-131 510,-131 510,4 -4,4"/>
<!-- j:Victim -->
<g id="node1" class="node">
<title>j:Victim</title>
<text text-anchor="start" x="327" y="-111.4" font-family="Helvetica,sans-Serif" font-weight="bold" font-size="12.00" fill="#000000">j:Victim</text>
<polygon fill="none" stroke="#ff0000" stroke-width="5" points="323.5,-104 323.5,-124 374.5,-124 374.5,-104 323.5,-104"/>
</g>
<!-- j:VictimType -->
<g id="node3" class="node">
<title>j:VictimType</title>
<g id="a_node3_0"><a xlink:href="../../j/VictimType/#diagram" xlink:title="A data type for a person who suffers injury, loss, or death as a result of an incident." target="_top">
<text text-anchor="start" x="438" y="-110.4" font-family="Helvetica,sans-Serif" font-size="12.00" fill="#000000">j:VictimType</text>
</a>
</g>
<polygon fill="none" stroke="#000000" points="436,-105.5 436,-122.5 506,-122.5 506,-105.5 436,-105.5"/>
</g>
<!-- j:Victim&#45;&gt;j:VictimType -->
<g id="edge2" class="edge">
<title>j:Victim&#45;&gt;j:VictimType</title>
<path fill="none" stroke="#000000" d="M377.2959,-114C391.616,-114 409.3501,-114 425.5243,-114"/>
<polygon fill="#000000" stroke="#000000" points="425.8763,-117.5001 435.8762,-114 425.8762,-110.5001 425.8763,-117.5001"/>
<text text-anchor="middle" x="406.5" y="-117.4" font-family="Helvetica,sans-Serif" font-size="12.00" fill="#000000">type</text>
</g>
<!-- Types -->
<g id="node2" class="node">
<title>Types</title>
<text text-anchor="start" x="2" y="-111.4" font-family="Helvetica,sans-Serif" font-weight="bold" font-size="12.00" fill="#000000">Types</text>
<g id="a_node2_1"><a xlink:href="../../em/EmergencyIncidentType/#diagram" xlink:title="A data type for the description for an emergency Incident" target="_top">
<polygon fill="#ebebeb" stroke="transparent" points="1,-91 1,-106 253,-106 253,-91 1,-91"/>
<text text-anchor="start" x="2" y="-95.4" font-family="Helvetica,sans-Serif" font-size="12.00" fill="#000000">em:EmergencyIncidentType</text>
</a>
</g>
<g id="a_node2_2"><a xlink:href="../../hs/VictimPerpetratorAllegationAssociationType/#diagram" xlink:title="A data type for a relationship among the victim, a perpetrator (subject), and an allegation (charge)." target="_top">
<text text-anchor="start" x="2" y="-80.4" font-family="Helvetica,sans-Serif" font-size="12.00" fill="#000000">hs:VictimPerpetratorAllegationAssociationType</text>
</a>
</g>
<g id="a_node2_3"><a xlink:href="../../j/ActivityVictimAssociationType/#diagram" xlink:title="A data type for an association between an activity and a victim." target="_top">
<polygon fill="#ebebeb" stroke="transparent" points="1,-61 1,-76 253,-76 253,-61 1,-61"/>
<text text-anchor="start" x="2" y="-65.4" font-family="Helvetica,sans-Serif" font-size="12.00" fill="#000000">j:ActivityVictimAssociationType</text>
</a>
</g>
<g id="a_node2_4"><a xlink:href="../../j/OffenseVictimAssociationType/#diagram" xlink:title="A data type for a relationship between an offense that was committed and an entity that was adversely affected by that offense." target="_top">
<text text-anchor="start" x="2" y="-50.4" font-family="Helvetica,sans-Serif" font-size="12.00" fill="#000000">j:OffenseVictimAssociationType</text>
</a>
</g>
<g id="a_node2_5"><a xlink:href="../../j/PersonStolenIdentityAssociationType/#diagram" xlink:title="A data type for a relationship between a person and a stolen identity used by that person." target="_top">
<polygon fill="#ebebeb" stroke="transparent" points="1,-31 1,-46 253,-46 253,-31 1,-31"/>
<text text-anchor="start" x="2" y="-35.4" font-family="Helvetica,sans-Serif" font-size="12.00" fill="#000000">j:PersonStolenIdentityAssociationType</text>
</a>
</g>
<g id="a_node2_6"><a xlink:href="../../j/SubjectVictimAssociationType/#diagram" xlink:title="A data type for a relationship between a subject and a victim." target="_top">
<text text-anchor="start" x="2" y="-20.4" font-family="Helvetica,sans-Serif" font-size="12.00" fill="#000000">j:SubjectVictimAssociationType</text>
</a>
</g>
<g id="a_node2_7"><a xlink:href="../../j/ViolatedStatuteAssociationType/#diagram" xlink:title="A data type for an association of a statute that has been violated and other information." target="_top">
<polygon fill="#ebebeb" stroke="transparent" points="1,-1 1,-16 253,-16 253,-1 1,-1"/>
<text text-anchor="start" x="2" y="-5.4" font-family="Helvetica,sans-Serif" font-size="12.00" fill="#000000">j:ViolatedStatuteAssociationType</text>
</a>
</g>
<polygon fill="#000000" stroke="#000000" points="0,-106 0,-106 254,-106 254,-106 0,-106"/>
<polygon fill="none" stroke="#000000" points="0,0 0,-122 254,-122 254,0 0,0"/>
</g>
<!-- Types&#45;&gt;j:Victim -->
<g id="edge1" class="edge">
<title>Types:top&#45;&gt;j:Victim</title>
<path fill="none" stroke="#000000" d="M253,-114C271.9089,-114 292.9127,-114 310.4408,-114"/>
<polygon fill="#000000" stroke="#000000" points="310.8557,-117.5001 320.8556,-114 310.8556,-110.5001 310.8557,-117.5001"/>
<text text-anchor="middle" x="287.5" y="-117.4" font-family="Helvetica,sans-Serif" font-size="12.00" fill="#000000">has&#45;a</text>
</g>
</g>
</svg>
