<?xml version="1.0" encoding="UTF-8" standalone="no"?>
<!DOCTYPE svg PUBLIC "-//W3C//DTD SVG 1.1//EN"
 "http://www.w3.org/Graphics/SVG/1.1/DTD/svg11.dtd">
<!-- Generated by graphviz version 2.40.1 (20161225.0304)
 -->
<!-- Title: graphic Pages: 1 -->
<svg width="695pt" height="45pt"
 viewBox="0.00 0.00 695.00 45.00" xmlns="http://www.w3.org/2000/svg" xmlns:xlink="http://www.w3.org/1999/xlink">
<g id="graph0" class="graph" transform="scale(1 1) rotate(0) translate(4 41)">
<title>graphic</title>
<polygon fill="#ffffff" stroke="transparent" points="-4,4 -4,-41 691,-41 691,4 -4,4"/>
<!-- biom:LipPrintMediumCode -->
<g id="node1" class="node">
<title>biom:LipPrintMediumCode</title>
<text text-anchor="start" x="295" y="-21.4" font-family="Helvetica,sans-Serif" font-weight="bold" font-size="12.00" fill="#000000">biom:LipPrintMediumCode</text>
<polygon fill="none" stroke="#ff0000" stroke-width="5" points="291.5,-14 291.5,-34 452.5,-34 452.5,-14 291.5,-14"/>
</g>
<!-- biom:LipPrintMediumCodeType -->
<g id="node3" class="node">
<title>biom:LipPrintMediumCodeType</title>
<g id="a_node3_0"><a xlink:href="../../biom/LipPrintMediumCodeType/#diagram" xlink:title="A data type for a lip print medium code list" target="_top">
<text text-anchor="start" x="516.5" y="-20.4" font-family="Helvetica,sans-Serif" font-size="12.00" fill="#000000">biom:LipPrintMediumCodeType</text>
</a>
</g>
<polygon fill="none" stroke="#000000" points="514,-15.5 514,-32.5 687,-32.5 687,-15.5 514,-15.5"/>
</g>
<!-- biom:LipPrintMediumCode&#45;&gt;biom:LipPrintMediumCodeType -->
<g id="edge2" class="edge">
<title>biom:LipPrintMediumCode&#45;&gt;biom:LipPrintMediumCodeType</title>
<path fill="none" stroke="#000000" d="M455.1401,-24C470.9911,-24 487.7068,-24 503.9348,-24"/>
<polygon fill="#000000" stroke="#000000" points="503.9638,-27.5001 513.9638,-24 503.9638,-20.5001 503.9638,-27.5001"/>
<text text-anchor="middle" x="484.5" y="-27.4" font-family="Helvetica,sans-Serif" font-size="12.00" fill="#000000">type</text>
</g>
<!-- Types -->
<g id="node2" class="node">
<title>Types</title>
<text text-anchor="start" x="2" y="-21.4" font-family="Helvetica,sans-Serif" font-weight="bold" font-size="12.00" fill="#000000">Types</text>
<g id="a_node2_1"><a xlink:href="../../biom/CheiloscopicImageInformationType/#diagram" xlink:title="A data type that is particularly useful if the image contained in this record is of an injury or latent image on a person. However, its use is not limited to such circumstances." target="_top">
<polygon fill="#ebebeb" stroke="transparent" points="1,-1 1,-16 221,-16 221,-1 1,-1"/>
<text text-anchor="start" x="2" y="-5.4" font-family="Helvetica,sans-Serif" font-size="12.00" fill="#000000">biom:CheiloscopicImageInformationType</text>
</a>
</g>
<polygon fill="#000000" stroke="#000000" points="0,-16 0,-16 222,-16 222,-16 0,-16"/>
<polygon fill="none" stroke="#000000" points="0,0 0,-32 222,-32 222,0 0,0"/>
</g>
<!-- Types&#45;&gt;biom:LipPrintMediumCode -->
<g id="edge1" class="edge">
<title>Types:top&#45;&gt;biom:LipPrintMediumCode</title>
<path fill="none" stroke="#000000" d="M221,-24C239.6661,-24 259.6301,-24 278.7261,-24"/>
<polygon fill="#000000" stroke="#000000" points="278.9254,-27.5001 288.9253,-24 278.9253,-20.5001 278.9254,-27.5001"/>
<text text-anchor="middle" x="255.5" y="-27.4" font-family="Helvetica,sans-Serif" font-size="12.00" fill="#000000">has&#45;a</text>
</g>
</g>
</svg>
