<?xml version="1.0" encoding="UTF-8" standalone="no"?>
<!DOCTYPE svg PUBLIC "-//W3C//DTD SVG 1.1//EN"
 "http://www.w3.org/Graphics/SVG/1.1/DTD/svg11.dtd">
<!-- Generated by graphviz version 2.40.1 (20161225.0304)
 -->
<!-- Title: graphic Pages: 1 -->
<svg width="233pt" height="154pt"
 viewBox="0.00 0.00 233.00 153.50" xmlns="http://www.w3.org/2000/svg" xmlns:xlink="http://www.w3.org/1999/xlink">
<g id="graph0" class="graph" transform="scale(1 1) rotate(0) translate(4 149.5)">
<title>graphic</title>
<polygon fill="#ffffff" stroke="transparent" points="-4,4 -4,-149.5 229,-149.5 229,4 -4,4"/>
<!-- hs:HearingCategoryCodeSimpleType -->
<g id="node1" class="node">
<title>hs:HearingCategoryCodeSimpleType</title>
<text text-anchor="start" x="6.5" y="-77.4" font-family="Helvetica,sans-Serif" font-weight="bold" font-size="12.00" fill="#000000">hs:HearingCategoryCodeSimpleType</text>
<polygon fill="none" stroke="#ff0000" stroke-width="5" points="2.5,-70 2.5,-90 222.5,-90 222.5,-70 2.5,-70"/>
</g>
<!-- DerivedTypes -->
<g id="node2" class="node">
<title>DerivedTypes</title>
<text text-anchor="start" x="31.5" y="-21.4" font-family="Helvetica,sans-Serif" font-weight="bold" font-size="12.00" fill="#000000">Derived types</text>
<g id="a_node2_0"><a xlink:href="../../hs/HearingCategoryCodeType/#diagram" xlink:title="A data type for the type of hearing that is going to take place." target="_top">
<polygon fill="#ebebeb" stroke="transparent" points="30.5,-1 30.5,-16 195.5,-16 195.5,-1 30.5,-1"/>
<text text-anchor="start" x="31.5" y="-5.4" font-family="Helvetica,sans-Serif" font-size="12.00" fill="#000000">hs:HearingCategoryCodeType</text>
</a>
</g>
<polygon fill="#000000" stroke="#000000" points="29.5,-16 29.5,-16 196.5,-16 196.5,-16 29.5,-16"/>
<polygon fill="none" stroke="#000000" points="29,0 29,-32 196,-32 196,0 29,0"/>
</g>
<!-- hs:HearingCategoryCodeSimpleType&#45;&gt;DerivedTypes -->
<g id="edge1" class="edge">
<title>hs:HearingCategoryCodeSimpleType&#45;&gt;DerivedTypes</title>
<path fill="none" stroke="#000000" d="M112.5,-67.4892C112.5,-60.3101 112.5,-51.0172 112.5,-42.306"/>
<polygon fill="#000000" stroke="#000000" points="116.0001,-42.1499 112.5,-32.1499 109.0001,-42.1499 116.0001,-42.1499"/>
<text text-anchor="middle" x="103" y="-46.65" font-family="Helvetica,sans-Serif" font-size="12.00" fill="#000000">derived</text>
</g>
<!-- xs:token -->
<g id="node3" class="node">
<title>xs:token</title>
<g id="a_node3_1"><a xlink:href="../../xs/token/#diagram" xlink:title="&lt;TABLE&gt;" target="_top">
<text text-anchor="start" x="90.5" y="-133.4" font-family="Helvetica,sans-Serif" font-size="12.00" fill="#000000">xs:token</text>
</a>
</g>
<polygon fill="none" stroke="#000000" points="88,-128.5 88,-145.5 137,-145.5 137,-128.5 88,-128.5"/>
</g>
<!-- xs:token&#45;&gt;hs:HearingCategoryCodeSimpleType -->
<g id="edge2" class="edge">
<title>xs:token&#45;&gt;hs:HearingCategoryCodeSimpleType</title>
<path fill="none" stroke="#000000" d="M112.5,-128.4473C112.5,-121.6242 112.5,-111.7417 112.5,-102.6794"/>
<polygon fill="#000000" stroke="#000000" points="116.0001,-102.6501 112.5,-92.6501 109.0001,-102.6502 116.0001,-102.6501"/>
<text text-anchor="middle" x="103" y="-107.4" font-family="Helvetica,sans-Serif" font-size="12.00" fill="#000000">restriction</text>
</g>
</g>
</svg>
