<?xml version="1.0" encoding="UTF-8" standalone="no"?>
<!DOCTYPE svg PUBLIC "-//W3C//DTD SVG 1.1//EN"
 "http://www.w3.org/Graphics/SVG/1.1/DTD/svg11.dtd">
<!-- Generated by graphviz version 2.40.1 (20161225.0304)
 -->
<!-- Title: graphic Pages: 1 -->
<svg width="452pt" height="45pt"
 viewBox="0.00 0.00 452.00 45.00" xmlns="http://www.w3.org/2000/svg" xmlns:xlink="http://www.w3.org/1999/xlink">
<g id="graph0" class="graph" transform="scale(1 1) rotate(0) translate(4 41)">
<title>graphic</title>
<polygon fill="#ffffff" stroke="transparent" points="-4,4 -4,-41 448,-41 448,4 -4,4"/>
<!-- j:JudicialOfficialCourt -->
<g id="node1" class="node">
<title>j:JudicialOfficialCourt</title>
<text text-anchor="start" x="187.5" y="-21.4" font-family="Helvetica,sans-Serif" font-weight="bold" font-size="12.00" fill="#000000">j:JudicialOfficialCourt</text>
<polygon fill="none" stroke="#ff0000" stroke-width="5" points="183.5,-14 183.5,-34 315.5,-34 315.5,-14 183.5,-14"/>
</g>
<!-- j:CourtType -->
<g id="node3" class="node">
<title>j:CourtType</title>
<g id="a_node3_0"><a xlink:href="../../j/CourtType/#diagram" xlink:title="A data type for a court or a unit of a court responsible for trying justice proceedings." target="_top">
<text text-anchor="start" x="379.5" y="-20.4" font-family="Helvetica,sans-Serif" font-size="12.00" fill="#000000">j:CourtType</text>
</a>
</g>
<polygon fill="none" stroke="#000000" points="377,-15.5 377,-32.5 444,-32.5 444,-15.5 377,-15.5"/>
</g>
<!-- j:JudicialOfficialCourt&#45;&gt;j:CourtType -->
<g id="edge2" class="edge">
<title>j:JudicialOfficialCourt&#45;&gt;j:CourtType</title>
<path fill="none" stroke="#000000" d="M318.2455,-24C334.7728,-24 351.9756,-24 366.9861,-24"/>
<polygon fill="#000000" stroke="#000000" points="366.9925,-27.5001 376.9925,-24 366.9925,-20.5001 366.9925,-27.5001"/>
<text text-anchor="middle" x="347.5" y="-27.4" font-family="Helvetica,sans-Serif" font-size="12.00" fill="#000000">type</text>
</g>
<!-- Types -->
<g id="node2" class="node">
<title>Types</title>
<text text-anchor="start" x="2" y="-21.4" font-family="Helvetica,sans-Serif" font-weight="bold" font-size="12.00" fill="#000000">Types</text>
<g id="a_node2_1"><a xlink:href="../../j/JudicialOfficialType/#diagram" xlink:title="A data type for a person involved in a judicial area of government." target="_top">
<polygon fill="#ebebeb" stroke="transparent" points="1,-1 1,-16 113,-16 113,-1 1,-1"/>
<text text-anchor="start" x="2" y="-5.4" font-family="Helvetica,sans-Serif" font-size="12.00" fill="#000000">j:JudicialOfficialType</text>
</a>
</g>
<polygon fill="#000000" stroke="#000000" points="0,-16 0,-16 114,-16 114,-16 0,-16"/>
<polygon fill="none" stroke="#000000" points="0,0 0,-32 114,-32 114,0 0,0"/>
</g>
<!-- Types&#45;&gt;j:JudicialOfficialCourt -->
<g id="edge1" class="edge">
<title>Types:top&#45;&gt;j:JudicialOfficialCourt</title>
<path fill="none" stroke="#000000" d="M113,-24C131.6815,-24 151.8013,-24 170.702,-24"/>
<polygon fill="#000000" stroke="#000000" points="170.7592,-27.5001 180.7591,-24 170.7591,-20.5001 170.7592,-27.5001"/>
<text text-anchor="middle" x="147.5" y="-27.4" font-family="Helvetica,sans-Serif" font-size="12.00" fill="#000000">has&#45;a</text>
</g>
</g>
</svg>
