<?xml version="1.0" encoding="UTF-8" standalone="no"?>
<!DOCTYPE svg PUBLIC "-//W3C//DTD SVG 1.1//EN"
 "http://www.w3.org/Graphics/SVG/1.1/DTD/svg11.dtd">
<!-- Generated by graphviz version 2.40.1 (20161225.0304)
 -->
<!-- Title: graphic Pages: 1 -->
<svg width="978pt" height="131pt"
 viewBox="0.00 0.00 978.00 130.50" xmlns="http://www.w3.org/2000/svg" xmlns:xlink="http://www.w3.org/1999/xlink">
<g id="graph0" class="graph" transform="scale(1 1) rotate(0) translate(4 126.5)">
<title>graphic</title>
<polygon fill="#ffffff" stroke="transparent" points="-4,4 -4,-126.5 974,-126.5 974,4 -4,4"/>
<!-- scr:EncounterMethodType -->
<g id="node1" class="node">
<title>scr:EncounterMethodType</title>
<text text-anchor="start" x="208" y="-55.4" font-family="Helvetica,sans-Serif" font-weight="bold" font-size="12.00" fill="#000000">scr:EncounterMethodType</text>
<g id="a_node1_0"><a xlink:href="../../scr/EncounterMethodDescriptionText/#diagram" xlink:title="A description of kind of encounter method." target="_top">
<polygon fill="#ebebeb" stroke="transparent" points="207,-35 207,-50 507,-50 507,-35 207,-35"/>
<text text-anchor="start" x="208" y="-39.4" font-family="Helvetica,sans-Serif" font-size="12.00" fill="#000000">scr:EncounterMethodDescriptionText: nc:TextType [0&#45;n]</text>
</a>
</g>
<g id="a_node1_1"><a xlink:href="../../scr/EncounterMethodCategoryAbstract/#diagram" xlink:title="A data concept for a kind of encounter method." target="_top">
<text text-anchor="start" x="208" y="-24.4" font-family="Helvetica,sans-Serif" font-size="12.00" fill="#000000">scr:EncounterMethodCategoryAbstract [0&#45;n]</text>
</a>
</g>
<g id="a_node1_2"><a xlink:href="../../scr/EncounterMethodAugmentationPoint/#diagram" xlink:title="An augmentation point for EncounterMethodType." target="_top">
<polygon fill="#ebebeb" stroke="transparent" points="207,-5 207,-20 507,-20 507,-5 207,-5"/>
<text text-anchor="start" x="208" y="-9.4" font-family="Helvetica,sans-Serif" font-size="12.00" fill="#000000">scr:EncounterMethodAugmentationPoint [0&#45;n]</text>
</a>
</g>
<polygon fill="#ff0000" stroke="#ff0000" points="202,-50 202,-50 512,-50 512,-50 202,-50"/>
<polygon fill="none" stroke="#ff0000" stroke-width="5" points="204.5,-2.5 204.5,-67.5 509.5,-67.5 509.5,-2.5 204.5,-2.5"/>
</g>
<!-- subst_d9e37130 -->
<g id="node2" class="node">
<title>subst_d9e37130</title>
<g id="a_node2_3"><a xlink:href="../../scr/EncounterMethodCategoryAbstract/#diagram" xlink:title="&lt;TABLE&gt;" target="_top">
<text text-anchor="start" x="551.5" y="-24.4" font-family="Helvetica,sans-Serif" font-weight="bold" font-size="12.00" fill="#000000">Substitution group scr:EncounterMethodCategoryAbstract</text>
</a>
</g>
<g id="a_node2_4"><a xlink:href="../../scr/EncounterMethodCategoryCode/#diagram" xlink:title="A kind of encounter method." target="_top">
<polygon fill="#ebebeb" stroke="transparent" points="550.5,-4 550.5,-19 969.5,-19 969.5,-4 550.5,-4"/>
<text text-anchor="start" x="551.5" y="-8.4" font-family="Helvetica,sans-Serif" font-size="12.00" fill="#000000">scr:EncounterMethodCategoryCode: scr:EncounterMethodCategoryCodeType</text>
</a>
</g>
<polygon fill="#000000" stroke="#000000" points="549.5,-19 549.5,-19 970.5,-19 970.5,-19 549.5,-19"/>
<polygon fill="none" stroke="#000000" points="549,-3 549,-35 970,-35 970,-3 549,-3"/>
</g>
<!-- scr:EncounterMethodType&#45;&gt;subst_d9e37130 -->
<g id="edge1" class="edge">
<title>scr:EncounterMethodType:e&#45;&gt;subst_d9e37130:w</title>
<path fill="none" stroke="#000000" d="M517.2295,-27C528.8951,-27 535.0938,-27 550.5,-27"/>
<polygon fill="#000000" stroke="#000000" points="517,-23.5001 507,-27 517,-30.5001 517,-23.5001"/>
</g>
<!-- Properties -->
<g id="node3" class="node">
<title>Properties</title>
<text text-anchor="start" x="2.5" y="-55.4" font-family="Helvetica,sans-Serif" font-weight="bold" font-size="12.00" fill="#000000">Properties</text>
<g id="a_node3_5"><a xlink:href="../../scr/EncounterMethodKind/#diagram" xlink:title="A kind of encounter method." target="_top">
<polygon fill="#ebebeb" stroke="transparent" points="1.5,-35 1.5,-50 142.5,-50 142.5,-35 1.5,-35"/>
<text text-anchor="start" x="2.5" y="-39.4" font-family="Helvetica,sans-Serif" font-size="12.00" fill="#000000">scr:EncounterMethodKind</text>
</a>
</g>
<polygon fill="#000000" stroke="#000000" points=".5,-50 .5,-50 143.5,-50 143.5,-50 .5,-50"/>
<polygon fill="none" stroke="#000000" points="0,-34 0,-66 143,-66 143,-34 0,-34"/>
</g>
<!-- Properties&#45;&gt;scr:EncounterMethodType -->
<g id="edge2" class="edge">
<title>Properties:top&#45;&gt;scr:EncounterMethodType:top</title>
<path fill="none" stroke="#000000" d="M142.5,-58C167.4714,-58 176.1284,-58 196.8937,-58"/>
<polygon fill="#000000" stroke="#000000" points="197,-61.5001 207,-58 197,-54.5001 197,-61.5001"/>
<text text-anchor="middle" x="172.5" y="-61.4" font-family="Helvetica,sans-Serif" font-size="12.00" fill="#000000">type</text>
</g>
<!-- structures:ObjectType -->
<g id="node4" class="node">
<title>structures:ObjectType</title>
<g id="a_node4_6"><a xlink:href="../../structures/ObjectType/#diagram" xlink:title="A data type for a thing with its own lifespan that has some existence." target="_top">
<text text-anchor="start" x="298" y="-110.4" font-family="Helvetica,sans-Serif" font-size="12.00" fill="#000000">structures:ObjectType</text>
</a>
</g>
<polygon fill="none" stroke="#000000" points="296,-105.5 296,-122.5 418,-122.5 418,-105.5 296,-105.5"/>
</g>
<!-- structures:ObjectType&#45;&gt;scr:EncounterMethodType -->
<g id="edge3" class="edge">
<title>structures:ObjectType&#45;&gt;scr:EncounterMethodType</title>
<path fill="none" stroke="#000000" d="M357,-105.4117C357,-99.1025 357,-89.9911 357,-80.4049"/>
<polygon fill="#000000" stroke="#000000" points="360.5001,-80.3408 357,-70.3408 353.5001,-80.3409 360.5001,-80.3408"/>
<text text-anchor="middle" x="347.5" y="-84.65" font-family="Helvetica,sans-Serif" font-size="12.00" fill="#000000">extension</text>
</g>
</g>
</svg>
