<?xml version="1.0" encoding="UTF-8" standalone="no"?>
<!DOCTYPE svg PUBLIC "-//W3C//DTD SVG 1.1//EN"
 "http://www.w3.org/Graphics/SVG/1.1/DTD/svg11.dtd">
<!-- Generated by graphviz version 2.40.1 (20161225.0304)
 -->
<!-- Title: graphic Pages: 1 -->
<svg width="543pt" height="45pt"
 viewBox="0.00 0.00 543.00 45.00" xmlns="http://www.w3.org/2000/svg" xmlns:xlink="http://www.w3.org/1999/xlink">
<g id="graph0" class="graph" transform="scale(1 1) rotate(0) translate(4 41)">
<title>graphic</title>
<polygon fill="#ffffff" stroke="transparent" points="-4,4 -4,-41 539,-41 539,4 -4,4"/>
<!-- mo:WGS84LocationCylinderAugmentationPoint -->
<g id="node1" class="node">
<title>mo:WGS84LocationCylinderAugmentationPoint</title>
<text text-anchor="start" x="256.5" y="-21.4" font-family="Helvetica,sans-Serif" font-weight="bold" font-size="12.00" fill="#000000">mo:WGS84LocationCylinderAugmentationPoint</text>
<polygon fill="none" stroke="#ff0000" stroke-width="5" points="252.5,-14 252.5,-34 532.5,-34 532.5,-14 252.5,-14"/>
</g>
<!-- Types -->
<g id="node2" class="node">
<title>Types</title>
<text text-anchor="start" x="2.5" y="-21.4" font-family="Helvetica,sans-Serif" font-weight="bold" font-size="12.00" fill="#000000">Types</text>
<g id="a_node2_0"><a xlink:href="../../mo/WGS84LocationCylinderType/#diagram" xlink:title="A data type for a cylinder described with WGS84 coordinates and meters." target="_top">
<polygon fill="#ebebeb" stroke="transparent" points="1.5,-1 1.5,-16 182.5,-16 182.5,-1 1.5,-1"/>
<text text-anchor="start" x="2.5" y="-5.4" font-family="Helvetica,sans-Serif" font-size="12.00" fill="#000000">mo:WGS84LocationCylinderType</text>
</a>
</g>
<polygon fill="#000000" stroke="#000000" points=".5,-16 .5,-16 183.5,-16 183.5,-16 .5,-16"/>
<polygon fill="none" stroke="#000000" points="0,0 0,-32 183,-32 183,0 0,0"/>
</g>
<!-- Types&#45;&gt;mo:WGS84LocationCylinderAugmentationPoint -->
<g id="edge1" class="edge">
<title>Types:top&#45;&gt;mo:WGS84LocationCylinderAugmentationPoint</title>
<path fill="none" stroke="#000000" d="M182.5,-24C201.0503,-24 220.5224,-24 239.817,-24"/>
<polygon fill="#000000" stroke="#000000" points="239.8848,-27.5001 249.8848,-24 239.8848,-20.5001 239.8848,-27.5001"/>
<text text-anchor="middle" x="216.5" y="-27.4" font-family="Helvetica,sans-Serif" font-size="12.00" fill="#000000">has&#45;a</text>
</g>
</g>
</svg>
