<?xml version="1.0" encoding="UTF-8" standalone="no"?>
<!DOCTYPE svg PUBLIC "-//W3C//DTD SVG 1.1//EN"
 "http://www.w3.org/Graphics/SVG/1.1/DTD/svg11.dtd">
<!-- Generated by graphviz version 2.40.1 (20161225.0304)
 -->
<!-- Title: graphic Pages: 1 -->
<svg width="482pt" height="237pt"
 viewBox="0.00 0.00 482.00 236.50" xmlns="http://www.w3.org/2000/svg" xmlns:xlink="http://www.w3.org/1999/xlink">
<g id="graph0" class="graph" transform="scale(1 1) rotate(0) translate(4 232.5)">
<title>graphic</title>
<polygon fill="#ffffff" stroke="transparent" points="-4,4 -4,-232.5 478,-232.5 478,4 -4,4"/>
<!-- mo:RangeValueSettingDataType -->
<g id="node1" class="node">
<title>mo:RangeValueSettingDataType</title>
<text text-anchor="start" x="188" y="-55.4" font-family="Helvetica,sans-Serif" font-weight="bold" font-size="12.00" fill="#000000">mo:RangeValueSettingDataType</text>
<g id="a_node1_0"><a xlink:href="../../mo/SettingMinimumMeasure/#diagram" xlink:title="A minimum allowable value or measure for a setting." target="_top">
<polygon fill="#ebebeb" stroke="transparent" points="187,-35 187,-50 469,-50 469,-35 187,-35"/>
<text text-anchor="start" x="188" y="-39.4" font-family="Helvetica,sans-Serif" font-size="12.00" fill="#000000">mo:SettingMinimumMeasure: nc:MeasureType [0&#45;n]</text>
</a>
</g>
<g id="a_node1_1"><a xlink:href="../../mo/SettingMaximumMeasure/#diagram" xlink:title="A maximum allowable value or measure for a setting." target="_top">
<text text-anchor="start" x="188" y="-24.4" font-family="Helvetica,sans-Serif" font-size="12.00" fill="#000000">mo:SettingMaximumMeasure: nc:MeasureType [0&#45;n]</text>
</a>
</g>
<g id="a_node1_2"><a xlink:href="../../mo/RangeValueSettingDataAugmentationPoint/#diagram" xlink:title="An augmentation point for type mo:RangeValueSettingDataType" target="_top">
<polygon fill="#ebebeb" stroke="transparent" points="187,-5 187,-20 469,-20 469,-5 187,-5"/>
<text text-anchor="start" x="188" y="-9.4" font-family="Helvetica,sans-Serif" font-size="12.00" fill="#000000">mo:RangeValueSettingDataAugmentationPoint [0&#45;n]</text>
</a>
</g>
<polygon fill="#ff0000" stroke="#ff0000" points="182,-50 182,-50 474,-50 474,-50 182,-50"/>
<polygon fill="none" stroke="#ff0000" stroke-width="5" points="184.5,-2.5 184.5,-67.5 471.5,-67.5 471.5,-2.5 184.5,-2.5"/>
</g>
<!-- Properties -->
<g id="node2" class="node">
<title>Properties</title>
<text text-anchor="start" x="2.5" y="-55.4" font-family="Helvetica,sans-Serif" font-weight="bold" font-size="12.00" fill="#000000">Properties</text>
<g id="a_node2_3"><a xlink:href="../../mo/RangeSettingData/#diagram" xlink:title="A setting that is specified by a value or measure within a given range." target="_top">
<polygon fill="#ebebeb" stroke="transparent" points="1.5,-35 1.5,-50 122.5,-50 122.5,-35 1.5,-35"/>
<text text-anchor="start" x="2.5" y="-39.4" font-family="Helvetica,sans-Serif" font-size="12.00" fill="#000000">mo:RangeSettingData</text>
</a>
</g>
<polygon fill="#000000" stroke="#000000" points=".5,-50 .5,-50 123.5,-50 123.5,-50 .5,-50"/>
<polygon fill="none" stroke="#000000" points="0,-34 0,-66 123,-66 123,-34 0,-34"/>
</g>
<!-- Properties&#45;&gt;mo:RangeValueSettingDataType -->
<g id="edge1" class="edge">
<title>Properties:top&#45;&gt;mo:RangeValueSettingDataType:top</title>
<path fill="none" stroke="#000000" d="M122.5,-58C147.4714,-58 156.1284,-58 176.8937,-58"/>
<polygon fill="#000000" stroke="#000000" points="177,-61.5001 187,-58 177,-54.5001 177,-61.5001"/>
<text text-anchor="middle" x="152.5" y="-61.4" font-family="Helvetica,sans-Serif" font-size="12.00" fill="#000000">type</text>
</g>
<!-- mo:ValueSettingDataType -->
<g id="node3" class="node">
<title>mo:ValueSettingDataType</title>
<g id="a_node3_4"><a xlink:href="../../mo/ValueSettingDataType/#diagram" xlink:title="A data type for a setting that is specified by a value or measure." target="_top">
<text text-anchor="start" x="258" y="-110.4" font-family="Helvetica,sans-Serif" font-size="12.00" fill="#000000">mo:ValueSettingDataType</text>
</a>
</g>
<polygon fill="none" stroke="#000000" points="255.5,-105.5 255.5,-122.5 400.5,-122.5 400.5,-105.5 255.5,-105.5"/>
</g>
<!-- mo:ValueSettingDataType&#45;&gt;mo:RangeValueSettingDataType -->
<g id="edge2" class="edge">
<title>mo:ValueSettingDataType&#45;&gt;mo:RangeValueSettingDataType</title>
<path fill="none" stroke="#000000" d="M328,-105.4117C328,-99.1025 328,-89.9911 328,-80.4049"/>
<polygon fill="#000000" stroke="#000000" points="331.5001,-80.3408 328,-70.3408 324.5001,-80.3409 331.5001,-80.3408"/>
<text text-anchor="middle" x="318.5" y="-84.65" font-family="Helvetica,sans-Serif" font-size="12.00" fill="#000000">extension</text>
</g>
<!-- mo:SettingDataType -->
<g id="node4" class="node">
<title>mo:SettingDataType</title>
<g id="a_node4_5"><a xlink:href="../../mo/SettingDataType/#diagram" xlink:title="A data type for a value or set of data for a setting." target="_top">
<text text-anchor="start" x="273" y="-163.4" font-family="Helvetica,sans-Serif" font-size="12.00" fill="#000000">mo:SettingDataType</text>
</a>
</g>
<polygon fill="none" stroke="#000000" points="271,-158.5 271,-175.5 385,-175.5 385,-158.5 271,-158.5"/>
</g>
<!-- mo:SettingDataType&#45;&gt;mo:ValueSettingDataType -->
<g id="edge3" class="edge">
<title>mo:SettingDataType&#45;&gt;mo:ValueSettingDataType</title>
<path fill="none" stroke="#000000" d="M328,-158.411C328,-151.5124 328,-141.5696 328,-132.84"/>
<polygon fill="#000000" stroke="#000000" points="331.5001,-132.7518 328,-122.7519 324.5001,-132.7519 331.5001,-132.7518"/>
<text text-anchor="middle" x="318.5" y="-137.4" font-family="Helvetica,sans-Serif" font-size="12.00" fill="#000000">extension</text>
</g>
<!-- structures:ObjectType -->
<g id="node5" class="node">
<title>structures:ObjectType</title>
<g id="a_node5_6"><a xlink:href="../../structures/ObjectType/#diagram" xlink:title="A data type for a thing with its own lifespan that has some existence." target="_top">
<text text-anchor="start" x="269" y="-216.4" font-family="Helvetica,sans-Serif" font-size="12.00" fill="#000000">structures:ObjectType</text>
</a>
</g>
<polygon fill="none" stroke="#000000" points="267,-211.5 267,-228.5 389,-228.5 389,-211.5 267,-211.5"/>
</g>
<!-- structures:ObjectType&#45;&gt;mo:SettingDataType -->
<g id="edge4" class="edge">
<title>structures:ObjectType&#45;&gt;mo:SettingDataType</title>
<path fill="none" stroke="#000000" d="M328,-211.411C328,-204.5124 328,-194.5696 328,-185.84"/>
<polygon fill="#000000" stroke="#000000" points="331.5001,-185.7518 328,-175.7519 324.5001,-185.7519 331.5001,-185.7518"/>
<text text-anchor="middle" x="318.5" y="-190.4" font-family="Helvetica,sans-Serif" font-size="12.00" fill="#000000">extension</text>
</g>
</g>
</svg>
