<?xml version="1.0" encoding="UTF-8" standalone="no"?>
<!DOCTYPE svg PUBLIC "-//W3C//DTD SVG 1.1//EN"
 "http://www.w3.org/Graphics/SVG/1.1/DTD/svg11.dtd">
<!-- Generated by graphviz version 2.40.1 (20161225.0304)
 -->
<!-- Title: graphic Pages: 1 -->
<svg width="262pt" height="154pt"
 viewBox="0.00 0.00 262.00 153.50" xmlns="http://www.w3.org/2000/svg" xmlns:xlink="http://www.w3.org/1999/xlink">
<g id="graph0" class="graph" transform="scale(1 1) rotate(0) translate(4 149.5)">
<title>graphic</title>
<polygon fill="#ffffff" stroke="transparent" points="-4,4 -4,-149.5 258,-149.5 258,4 -4,4"/>
<!-- cbrncl:LayerMaterialKindCodeSimpleType -->
<g id="node1" class="node">
<title>cbrncl:LayerMaterialKindCodeSimpleType</title>
<text text-anchor="start" x="6" y="-77.4" font-family="Helvetica,sans-Serif" font-weight="bold" font-size="12.00" fill="#000000">cbrncl:LayerMaterialKindCodeSimpleType</text>
<polygon fill="none" stroke="#ff0000" stroke-width="5" points="2.5,-70 2.5,-90 251.5,-90 251.5,-70 2.5,-70"/>
</g>
<!-- DerivedTypes -->
<g id="node2" class="node">
<title>DerivedTypes</title>
<text text-anchor="start" x="33" y="-21.4" font-family="Helvetica,sans-Serif" font-weight="bold" font-size="12.00" fill="#000000">Derived types</text>
<g id="a_node2_0"><a xlink:href="../../cbrncl/LayerMaterialKindCodeType/#diagram" xlink:title="A data type that defines the layer material kind code" target="_top">
<polygon fill="#ebebeb" stroke="transparent" points="32,-1 32,-16 222,-16 222,-1 32,-1"/>
<text text-anchor="start" x="33" y="-5.4" font-family="Helvetica,sans-Serif" font-size="12.00" fill="#000000">cbrncl:LayerMaterialKindCodeType</text>
</a>
</g>
<polygon fill="#000000" stroke="#000000" points="31,-16 31,-16 223,-16 223,-16 31,-16"/>
<polygon fill="none" stroke="#000000" points="31,0 31,-32 223,-32 223,0 31,0"/>
</g>
<!-- cbrncl:LayerMaterialKindCodeSimpleType&#45;&gt;DerivedTypes -->
<g id="edge1" class="edge">
<title>cbrncl:LayerMaterialKindCodeSimpleType&#45;&gt;DerivedTypes</title>
<path fill="none" stroke="#000000" d="M127,-67.4892C127,-60.3101 127,-51.0172 127,-42.306"/>
<polygon fill="#000000" stroke="#000000" points="130.5001,-42.1499 127,-32.1499 123.5001,-42.1499 130.5001,-42.1499"/>
<text text-anchor="middle" x="117.5" y="-46.65" font-family="Helvetica,sans-Serif" font-size="12.00" fill="#000000">derived</text>
</g>
<!-- xs:token -->
<g id="node3" class="node">
<title>xs:token</title>
<g id="a_node3_1"><a xlink:href="../../xs/token/#diagram" xlink:title="&lt;TABLE&gt;" target="_top">
<text text-anchor="start" x="105" y="-133.4" font-family="Helvetica,sans-Serif" font-size="12.00" fill="#000000">xs:token</text>
</a>
</g>
<polygon fill="none" stroke="#000000" points="102.5,-128.5 102.5,-145.5 151.5,-145.5 151.5,-128.5 102.5,-128.5"/>
</g>
<!-- xs:token&#45;&gt;cbrncl:LayerMaterialKindCodeSimpleType -->
<g id="edge2" class="edge">
<title>xs:token&#45;&gt;cbrncl:LayerMaterialKindCodeSimpleType</title>
<path fill="none" stroke="#000000" d="M127,-128.4473C127,-121.6242 127,-111.7417 127,-102.6794"/>
<polygon fill="#000000" stroke="#000000" points="130.5001,-102.6501 127,-92.6501 123.5001,-102.6502 130.5001,-102.6501"/>
<text text-anchor="middle" x="117.5" y="-107.4" font-family="Helvetica,sans-Serif" font-size="12.00" fill="#000000">restriction</text>
</g>
</g>
</svg>
