<?xml version="1.0" encoding="UTF-8" standalone="no"?>
<!DOCTYPE svg PUBLIC "-//W3C//DTD SVG 1.1//EN"
 "http://www.w3.org/Graphics/SVG/1.1/DTD/svg11.dtd">
<!-- Generated by graphviz version 2.40.1 (20161225.0304)
 -->
<!-- Title: graphic Pages: 1 -->
<svg width="513pt" height="45pt"
 viewBox="0.00 0.00 513.00 45.00" xmlns="http://www.w3.org/2000/svg" xmlns:xlink="http://www.w3.org/1999/xlink">
<g id="graph0" class="graph" transform="scale(1 1) rotate(0) translate(4 41)">
<title>graphic</title>
<polygon fill="#ffffff" stroke="transparent" points="-4,4 -4,-41 509,-41 509,4 -4,4"/>
<!-- j:CaseOfficialRoleDescriptionText -->
<g id="node1" class="node">
<title>j:CaseOfficialRoleDescriptionText</title>
<text text-anchor="start" x="175" y="-21.4" font-family="Helvetica,sans-Serif" font-weight="bold" font-size="12.00" fill="#000000">j:CaseOfficialRoleDescriptionText</text>
<polygon fill="none" stroke="#ff0000" stroke-width="5" points="171.5,-14 171.5,-34 372.5,-34 372.5,-14 171.5,-14"/>
</g>
<!-- nc:TextType -->
<g id="node3" class="node">
<title>nc:TextType</title>
<g id="a_node3_0"><a xlink:href="../../nc/TextType/#diagram" xlink:title="A data type for a character string." target="_top">
<text text-anchor="start" x="436.5" y="-20.4" font-family="Helvetica,sans-Serif" font-size="12.00" fill="#000000">nc:TextType</text>
</a>
</g>
<polygon fill="none" stroke="#000000" points="434,-15.5 434,-32.5 505,-32.5 505,-15.5 434,-15.5"/>
</g>
<!-- j:CaseOfficialRoleDescriptionText&#45;&gt;nc:TextType -->
<g id="edge2" class="edge">
<title>j:CaseOfficialRoleDescriptionText&#45;&gt;nc:TextType</title>
<path fill="none" stroke="#000000" d="M375.0884,-24C392.0977,-24 408.935,-24 423.5766,-24"/>
<polygon fill="#000000" stroke="#000000" points="423.821,-27.5001 433.8209,-24 423.8209,-20.5001 423.821,-27.5001"/>
<text text-anchor="middle" x="404.5" y="-27.4" font-family="Helvetica,sans-Serif" font-size="12.00" fill="#000000">type</text>
</g>
<!-- Types -->
<g id="node2" class="node">
<title>Types</title>
<text text-anchor="start" x="2" y="-21.4" font-family="Helvetica,sans-Serif" font-weight="bold" font-size="12.00" fill="#000000">Types</text>
<g id="a_node2_1"><a xlink:href="../../j/CaseOfficialType/#diagram" xlink:title="A data type for an official&#39;s involvement in a case." target="_top">
<polygon fill="#ebebeb" stroke="transparent" points="1,-1 1,-16 101,-16 101,-1 1,-1"/>
<text text-anchor="start" x="2" y="-5.4" font-family="Helvetica,sans-Serif" font-size="12.00" fill="#000000">j:CaseOfficialType</text>
</a>
</g>
<polygon fill="#000000" stroke="#000000" points="0,-16 0,-16 102,-16 102,-16 0,-16"/>
<polygon fill="none" stroke="#000000" points="0,0 0,-32 102,-32 102,0 0,0"/>
</g>
<!-- Types&#45;&gt;j:CaseOfficialRoleDescriptionText -->
<g id="edge1" class="edge">
<title>Types:top&#45;&gt;j:CaseOfficialRoleDescriptionText</title>
<path fill="none" stroke="#000000" d="M101,-24C119.7078,-24 139.5668,-24 158.8767,-24"/>
<polygon fill="#000000" stroke="#000000" points="158.9156,-27.5001 168.9155,-24 158.9155,-20.5001 158.9156,-27.5001"/>
<text text-anchor="middle" x="135.5" y="-27.4" font-family="Helvetica,sans-Serif" font-size="12.00" fill="#000000">has&#45;a</text>
</g>
</g>
</svg>
