<?xml version="1.0" encoding="UTF-8" standalone="no"?>
<!DOCTYPE svg PUBLIC "-//W3C//DTD SVG 1.1//EN"
 "http://www.w3.org/Graphics/SVG/1.1/DTD/svg11.dtd">
<!-- Generated by graphviz version 2.40.1 (20161225.0304)
 -->
<!-- Title: graphic Pages: 1 -->
<svg width="505pt" height="45pt"
 viewBox="0.00 0.00 505.00 45.00" xmlns="http://www.w3.org/2000/svg" xmlns:xlink="http://www.w3.org/1999/xlink">
<g id="graph0" class="graph" transform="scale(1 1) rotate(0) translate(4 41)">
<title>graphic</title>
<polygon fill="#ffffff" stroke="transparent" points="-4,4 -4,-41 501,-41 501,4 -4,4"/>
<!-- scr:VisaWaiverIndicator -->
<g id="node1" class="node">
<title>scr:VisaWaiverIndicator</title>
<text text-anchor="start" x="202.5" y="-21.4" font-family="Helvetica,sans-Serif" font-weight="bold" font-size="12.00" fill="#000000">scr:VisaWaiverIndicator</text>
<polygon fill="none" stroke="#ff0000" stroke-width="5" points="198.5,-14 198.5,-34 342.5,-34 342.5,-14 198.5,-14"/>
</g>
<!-- niem&#45;xs:boolean -->
<g id="node3" class="node">
<title>niem&#45;xs:boolean</title>
<g id="a_node3_0"><a xlink:href="../../niem-xs/boolean/#diagram" xlink:title="A data type for binary&#45;valued logic (true/false)." target="_top">
<text text-anchor="start" x="406.5" y="-20.4" font-family="Helvetica,sans-Serif" font-size="12.00" fill="#000000">niem&#45;xs:boolean</text>
</a>
</g>
<polygon fill="none" stroke="#000000" points="404,-15.5 404,-32.5 497,-32.5 497,-15.5 404,-15.5"/>
</g>
<!-- scr:VisaWaiverIndicator&#45;&gt;niem&#45;xs:boolean -->
<g id="edge2" class="edge">
<title>scr:VisaWaiverIndicator&#45;&gt;niem&#45;xs:boolean</title>
<path fill="none" stroke="#000000" d="M345.0122,-24C361.2002,-24 378.0775,-24 393.4634,-24"/>
<polygon fill="#000000" stroke="#000000" points="393.8502,-27.5001 403.8501,-24 393.8501,-20.5001 393.8502,-27.5001"/>
<text text-anchor="middle" x="374.5" y="-27.4" font-family="Helvetica,sans-Serif" font-size="12.00" fill="#000000">type</text>
</g>
<!-- Types -->
<g id="node2" class="node">
<title>Types</title>
<text text-anchor="start" x="2.5" y="-21.4" font-family="Helvetica,sans-Serif" font-weight="bold" font-size="12.00" fill="#000000">Types</text>
<g id="a_node2_1"><a xlink:href="../../scr/ScreenedAlienType/#diagram" xlink:title="A data type for additional information about an Alien being screened." target="_top">
<polygon fill="#ebebeb" stroke="transparent" points="1.5,-1 1.5,-16 128.5,-16 128.5,-1 1.5,-1"/>
<text text-anchor="start" x="2.5" y="-5.4" font-family="Helvetica,sans-Serif" font-size="12.00" fill="#000000">scr:ScreenedAlienType</text>
</a>
</g>
<polygon fill="#000000" stroke="#000000" points=".5,-16 .5,-16 129.5,-16 129.5,-16 .5,-16"/>
<polygon fill="none" stroke="#000000" points="0,0 0,-32 129,-32 129,0 0,0"/>
</g>
<!-- Types&#45;&gt;scr:VisaWaiverIndicator -->
<g id="edge1" class="edge">
<title>Types:top&#45;&gt;scr:VisaWaiverIndicator</title>
<path fill="none" stroke="#000000" d="M128.5,-24C146.9939,-24 166.8427,-24 185.6642,-24"/>
<polygon fill="#000000" stroke="#000000" points="185.6988,-27.5001 195.6988,-24 185.6988,-20.5001 185.6988,-27.5001"/>
<text text-anchor="middle" x="162.5" y="-27.4" font-family="Helvetica,sans-Serif" font-size="12.00" fill="#000000">has&#45;a</text>
</g>
</g>
</svg>
