<?xml version="1.0" encoding="UTF-8" standalone="no"?>
<!DOCTYPE svg PUBLIC "-//W3C//DTD SVG 1.1//EN"
 "http://www.w3.org/Graphics/SVG/1.1/DTD/svg11.dtd">
<!-- Generated by graphviz version 2.40.1 (20161225.0304)
 -->
<!-- Title: graphic Pages: 1 -->
<svg width="433pt" height="206pt"
 viewBox="0.00 0.00 433.00 206.00" xmlns="http://www.w3.org/2000/svg" xmlns:xlink="http://www.w3.org/1999/xlink">
<g id="graph0" class="graph" transform="scale(1 1) rotate(0) translate(4 202)">
<title>graphic</title>
<polygon fill="#ffffff" stroke="transparent" points="-4,4 -4,-202 429,-202 429,4 -4,4"/>
<!-- j:CurriculumType -->
<g id="node1" class="node">
<title>j:CurriculumType</title>
<text text-anchor="start" x="134.5" y="-129.9" font-family="Helvetica,sans-Serif" font-weight="bold" font-size="12.00" fill="#000000">j:CurriculumType</text>
<g id="a_node1_0"><a xlink:href="../../j/CurriculumCapacityRatioText/#diagram" xlink:title="A limit of the capacity of students to instructors for a specific course or subject." target="_top">
<polygon fill="#ebebeb" stroke="transparent" points="133.5,-109.5 133.5,-124.5 420.5,-124.5 420.5,-109.5 133.5,-109.5"/>
<text text-anchor="start" x="134.5" y="-113.9" font-family="Helvetica,sans-Serif" font-size="12.00" fill="#000000">j:CurriculumCapacityRatioText: nc:TextType [0&#45;n]</text>
</a>
</g>
<g id="a_node1_1"><a xlink:href="../../j/CurriculumDescriptionText/#diagram" xlink:title="A text description of the purpose of the Curriculum." target="_top">
<text text-anchor="start" x="134.5" y="-98.9" font-family="Helvetica,sans-Serif" font-size="12.00" fill="#000000">j:CurriculumDescriptionText: nc:TextType [0&#45;n]</text>
</a>
</g>
<g id="a_node1_2"><a xlink:href="../../j/CurriculumGenderRestrictionText/#diagram" xlink:title="A gender for which a Curriculum is designed, if appropriate." target="_top">
<polygon fill="#ebebeb" stroke="transparent" points="133.5,-79.5 133.5,-94.5 420.5,-94.5 420.5,-79.5 133.5,-79.5"/>
<text text-anchor="start" x="134.5" y="-83.9" font-family="Helvetica,sans-Serif" font-size="12.00" fill="#000000">j:CurriculumGenderRestrictionText: nc:TextType [0&#45;n]</text>
</a>
</g>
<g id="a_node1_3"><a xlink:href="../../j/CurriculumID/#diagram" xlink:title="An identifier for a Curriculum." target="_top">
<text text-anchor="start" x="134.5" y="-68.9" font-family="Helvetica,sans-Serif" font-size="12.00" fill="#000000">j:CurriculumID: niem&#45;xs:string [0&#45;n]</text>
</a>
</g>
<g id="a_node1_4"><a xlink:href="../../j/CurriculumName/#diagram" xlink:title="A name used to identify a curriculum." target="_top">
<polygon fill="#ebebeb" stroke="transparent" points="133.5,-49.5 133.5,-64.5 420.5,-64.5 420.5,-49.5 133.5,-49.5"/>
<text text-anchor="start" x="134.5" y="-53.9" font-family="Helvetica,sans-Serif" font-size="12.00" fill="#000000">j:CurriculumName: nc:ProperNameTextType [0&#45;n]</text>
</a>
</g>
<g id="a_node1_5"><a xlink:href="../../j/CurriculumSequenceNumeric/#diagram" xlink:title="A number assigned to each Curriculum to order the way the curriculum is sequenced within a program with all other Curricula." target="_top">
<text text-anchor="start" x="134.5" y="-38.9" font-family="Helvetica,sans-Serif" font-size="12.00" fill="#000000">j:CurriculumSequenceNumeric: nc:NumericType [0&#45;n]</text>
</a>
</g>
<g id="a_node1_6"><a xlink:href="../../j/CurriculumStartDate/#diagram" xlink:title="A scheduled date for the start of a Curriculum." target="_top">
<polygon fill="#ebebeb" stroke="transparent" points="133.5,-19.5 133.5,-34.5 420.5,-34.5 420.5,-19.5 133.5,-19.5"/>
<text text-anchor="start" x="134.5" y="-23.9" font-family="Helvetica,sans-Serif" font-size="12.00" fill="#000000">j:CurriculumStartDate: nc:DateType [0&#45;n]</text>
</a>
</g>
<g id="a_node1_7"><a xlink:href="../../j/CurriculumAugmentationPoint/#diagram" xlink:title="An augmentation point for type j:CurriculumType" target="_top">
<text text-anchor="start" x="134.5" y="-8.9" font-family="Helvetica,sans-Serif" font-size="12.00" fill="#000000">j:CurriculumAugmentationPoint [0&#45;n]</text>
</a>
</g>
<polygon fill="#ff0000" stroke="#ff0000" points="128.5,-124.5 128.5,-124.5 425.5,-124.5 425.5,-124.5 128.5,-124.5"/>
<polygon fill="none" stroke="#ff0000" stroke-width="5" points="130.5,-2.5 130.5,-142.5 422.5,-142.5 422.5,-2.5 130.5,-2.5"/>
</g>
<!-- Properties -->
<g id="node2" class="node">
<title>Properties</title>
<text text-anchor="start" x="2.5" y="-129.9" font-family="Helvetica,sans-Serif" font-weight="bold" font-size="12.00" fill="#000000">Properties</text>
<g id="a_node2_8"><a xlink:href="../../j/Curriculum/#diagram" xlink:title="A collection of subjects comprising a course of study offered by an educational system or program." target="_top">
<polygon fill="#ebebeb" stroke="transparent" points="1.5,-109.5 1.5,-124.5 68.5,-124.5 68.5,-109.5 1.5,-109.5"/>
<text text-anchor="start" x="2.5" y="-113.9" font-family="Helvetica,sans-Serif" font-size="12.00" fill="#000000">j:Curriculum</text>
</a>
</g>
<polygon fill="#000000" stroke="#000000" points=".5,-124.5 .5,-124.5 69.5,-124.5 69.5,-124.5 .5,-124.5"/>
<polygon fill="none" stroke="#000000" points="0,-108.5 0,-140.5 69,-140.5 69,-108.5 0,-108.5"/>
</g>
<!-- Properties&#45;&gt;j:CurriculumType -->
<g id="edge1" class="edge">
<title>Properties:top&#45;&gt;j:CurriculumType:top</title>
<path fill="none" stroke="#000000" d="M68.5,-132.5C93.6649,-132.5 102.3891,-132.5 123.3154,-132.5"/>
<polygon fill="#000000" stroke="#000000" points="123.5,-136.0001 133.5,-132.5 123.5,-129.0001 123.5,-136.0001"/>
<text text-anchor="middle" x="98.5" y="-135.9" font-family="Helvetica,sans-Serif" font-size="12.00" fill="#000000">type</text>
</g>
<!-- structures:ObjectType -->
<g id="node3" class="node">
<title>structures:ObjectType</title>
<g id="a_node3_9"><a xlink:href="../../structures/ObjectType/#diagram" xlink:title="A data type for a thing with its own lifespan that has some existence." target="_top">
<text text-anchor="start" x="217.5" y="-185.9" font-family="Helvetica,sans-Serif" font-size="12.00" fill="#000000">structures:ObjectType</text>
</a>
</g>
<polygon fill="none" stroke="#000000" points="215.5,-181 215.5,-198 337.5,-198 337.5,-181 215.5,-181"/>
</g>
<!-- structures:ObjectType&#45;&gt;j:CurriculumType -->
<g id="edge2" class="edge">
<title>structures:ObjectType&#45;&gt;j:CurriculumType</title>
<path fill="none" stroke="#000000" d="M276.5,-180.8462C276.5,-174.6576 276.5,-165.636 276.5,-155.4002"/>
<polygon fill="#000000" stroke="#000000" points="280.0001,-155.2673 276.5,-145.2673 273.0001,-155.2674 280.0001,-155.2673"/>
<text text-anchor="middle" x="267" y="-159.9" font-family="Helvetica,sans-Serif" font-size="12.00" fill="#000000">extension</text>
</g>
</g>
</svg>
