<?xml version="1.0" encoding="UTF-8" standalone="no"?>
<!DOCTYPE svg PUBLIC "-//W3C//DTD SVG 1.1//EN"
 "http://www.w3.org/Graphics/SVG/1.1/DTD/svg11.dtd">
<!-- Generated by graphviz version 2.40.1 (20161225.0304)
 -->
<!-- Title: graphic Pages: 1 -->
<svg width="601pt" height="176pt"
 viewBox="0.00 0.00 601.00 176.00" xmlns="http://www.w3.org/2000/svg" xmlns:xlink="http://www.w3.org/1999/xlink">
<g id="graph0" class="graph" transform="scale(1 1) rotate(0) translate(4 172)">
<title>graphic</title>
<polygon fill="#ffffff" stroke="transparent" points="-4,4 -4,-172 597,-172 597,4 -4,4"/>
<!-- biom:VocalSegmentQualityValueType -->
<g id="node1" class="node">
<title>biom:VocalSegmentQualityValueType</title>
<text text-anchor="start" x="245" y="-99.9" font-family="Helvetica,sans-Serif" font-weight="bold" font-size="12.00" fill="#000000">biom:VocalSegmentQualityValueType</text>
<g id="a_node1_0"><a xlink:href="../../biom/SegmentIDList/#diagram" xlink:title="A list of segment identifiers." target="_top">
<polygon fill="#ebebeb" stroke="transparent" points="244,-79.5 244,-94.5 588,-94.5 588,-79.5 244,-79.5"/>
<text text-anchor="start" x="245" y="-83.9" font-family="Helvetica,sans-Serif" font-size="12.00" fill="#000000">biom:SegmentIDList: biom:SegmentIDListType [1&#45;n]</text>
</a>
</g>
<g id="a_node1_1"><a xlink:href="../../biom/QualityAlgorithmVendorID/#diagram" xlink:title="A unique identifier for the vendor of a quality&#45;algorithm product" target="_top">
<text text-anchor="start" x="245" y="-68.9" font-family="Helvetica,sans-Serif" font-size="12.00" fill="#000000">biom:QualityAlgorithmVendorID: biom:HexDoubleByteType [0&#45;n]</text>
</a>
</g>
<g id="a_node1_2"><a xlink:href="../../biom/QualityAlgorithmProductID/#diagram" xlink:title="A unique identifier for a quality&#45;algorithm product, assigned by the vendor" target="_top">
<polygon fill="#ebebeb" stroke="transparent" points="244,-49.5 244,-64.5 588,-64.5 588,-49.5 244,-49.5"/>
<text text-anchor="start" x="245" y="-53.9" font-family="Helvetica,sans-Serif" font-size="12.00" fill="#000000">biom:QualityAlgorithmProductID: niem&#45;xs:unsignedShort [0&#45;n]</text>
</a>
</g>
<g id="a_node1_3"><a xlink:href="../../biom/QualityValue/#diagram" xlink:title="A value of the quality of a particular sample" target="_top">
<text text-anchor="start" x="245" y="-38.9" font-family="Helvetica,sans-Serif" font-size="12.00" fill="#000000">biom:QualityValue: biom:QualityScoreType [0&#45;n]</text>
</a>
</g>
<g id="a_node1_4"><a xlink:href="../../biom/VocalSegmentQualityCommentText/#diagram" xlink:title="A comment describing additional information about the Audio Signal Quality." target="_top">
<polygon fill="#ebebeb" stroke="transparent" points="244,-19.5 244,-34.5 588,-34.5 588,-19.5 244,-19.5"/>
<text text-anchor="start" x="245" y="-23.9" font-family="Helvetica,sans-Serif" font-size="12.00" fill="#000000">biom:VocalSegmentQualityCommentText: nc:TextType [0&#45;n]</text>
</a>
</g>
<g id="a_node1_5"><a xlink:href="../../biom/VocalSegmentQualityValueAugmentationPoint/#diagram" xlink:title="An augmentation point for VocalSegmentQualityValueType." target="_top">
<text text-anchor="start" x="245" y="-8.9" font-family="Helvetica,sans-Serif" font-size="12.00" fill="#000000">biom:VocalSegmentQualityValueAugmentationPoint [0&#45;n]</text>
</a>
</g>
<polygon fill="#ff0000" stroke="#ff0000" points="239,-94.5 239,-94.5 593,-94.5 593,-94.5 239,-94.5"/>
<polygon fill="none" stroke="#ff0000" stroke-width="5" points="241.5,-2.5 241.5,-112.5 590.5,-112.5 590.5,-2.5 241.5,-2.5"/>
</g>
<!-- Properties -->
<g id="node2" class="node">
<title>Properties</title>
<text text-anchor="start" x="2" y="-99.9" font-family="Helvetica,sans-Serif" font-weight="bold" font-size="12.00" fill="#000000">Properties</text>
<g id="a_node2_6"><a xlink:href="../../biom/VocalSegmentQualityValue/#diagram" xlink:title="A kind of field if Vocal content / VOC is present, then this field shall only be present if DII = 1. This field shall only be present if Vocal content diary / VCD is present." target="_top">
<polygon fill="#ebebeb" stroke="transparent" points="1,-79.5 1,-94.5 179,-94.5 179,-79.5 1,-79.5"/>
<text text-anchor="start" x="2" y="-83.9" font-family="Helvetica,sans-Serif" font-size="12.00" fill="#000000">biom:VocalSegmentQualityValue</text>
</a>
</g>
<polygon fill="#000000" stroke="#000000" points="0,-94.5 0,-94.5 180,-94.5 180,-94.5 0,-94.5"/>
<polygon fill="none" stroke="#000000" points="0,-78.5 0,-110.5 180,-110.5 180,-78.5 0,-78.5"/>
</g>
<!-- Properties&#45;&gt;biom:VocalSegmentQualityValueType -->
<g id="edge1" class="edge">
<title>Properties:top&#45;&gt;biom:VocalSegmentQualityValueType:top</title>
<path fill="none" stroke="#000000" d="M179,-102.5C204.1649,-102.5 212.8891,-102.5 233.8154,-102.5"/>
<polygon fill="#000000" stroke="#000000" points="234,-106.0001 244,-102.5 234,-99.0001 234,-106.0001"/>
<text text-anchor="middle" x="209.5" y="-105.9" font-family="Helvetica,sans-Serif" font-size="12.00" fill="#000000">type</text>
</g>
<!-- structures:ObjectType -->
<g id="node3" class="node">
<title>structures:ObjectType</title>
<g id="a_node3_7"><a xlink:href="../../structures/ObjectType/#diagram" xlink:title="A data type for a thing with its own lifespan that has some existence." target="_top">
<text text-anchor="start" x="357" y="-155.9" font-family="Helvetica,sans-Serif" font-size="12.00" fill="#000000">structures:ObjectType</text>
</a>
</g>
<polygon fill="none" stroke="#000000" points="355,-151 355,-168 477,-168 477,-151 355,-151"/>
</g>
<!-- structures:ObjectType&#45;&gt;biom:VocalSegmentQualityValueType -->
<g id="edge2" class="edge">
<title>structures:ObjectType&#45;&gt;biom:VocalSegmentQualityValueType</title>
<path fill="none" stroke="#000000" d="M416,-150.9079C416,-144.5936 416,-135.3582 416,-125.1194"/>
<polygon fill="#000000" stroke="#000000" points="419.5001,-125.058 416,-115.058 412.5001,-125.0581 419.5001,-125.058"/>
<text text-anchor="middle" x="406.5" y="-129.9" font-family="Helvetica,sans-Serif" font-size="12.00" fill="#000000">extension</text>
</g>
</g>
</svg>
