<?xml version="1.0" encoding="UTF-8" standalone="no"?>
<!DOCTYPE svg PUBLIC "-//W3C//DTD SVG 1.1//EN"
 "http://www.w3.org/Graphics/SVG/1.1/DTD/svg11.dtd">
<!-- Generated by graphviz version 2.40.1 (20161225.0304)
 -->
<!-- Title: graphic Pages: 1 -->
<svg width="532pt" height="164pt"
 viewBox="0.00 0.00 532.00 164.00" xmlns="http://www.w3.org/2000/svg" xmlns:xlink="http://www.w3.org/1999/xlink">
<g id="graph0" class="graph" transform="scale(1 1) rotate(0) translate(4 160)">
<title>graphic</title>
<polygon fill="#ffffff" stroke="transparent" points="-4,4 -4,-160 528,-160 528,4 -4,4"/>
<!-- genc:CountryAlpha3CodeType -->
<g id="node1" class="node">
<title>genc:CountryAlpha3CodeType</title>
<text text-anchor="start" x="312" y="-35.9" font-family="Helvetica,sans-Serif" font-weight="bold" font-size="12.00" fill="#000000">genc:CountryAlpha3CodeType</text>
<g id="a_node1_0"><a xlink:href="../../structures/SimpleObjectAttributeGroup/#diagram" xlink:title="A group of attributes that are applicable to objects, to be used when defining a complex type that is an extension of a simple type." target="_top">
<polygon fill="#ebebeb" stroke="transparent" points="311,-15.5 311,-30.5 519,-30.5 519,-15.5 311,-15.5"/>
<text text-anchor="start" x="312" y="-19.9" font-family="Helvetica,sans-Serif" font-size="12.00" fill="#000000">structures:SimpleObjectAttributeGroup</text>
</a>
</g>
<polygon fill="#ff0000" stroke="#ff0000" points="306,-30.5 306,-30.5 524,-30.5 524,-30.5 306,-30.5"/>
<polygon fill="none" stroke="#ff0000" stroke-width="5" points="308.5,-13 308.5,-48 521.5,-48 521.5,-13 308.5,-13"/>
</g>
<!-- Properties -->
<g id="node2" class="node">
<title>Properties</title>
<text text-anchor="start" x="2.5" y="-35.9" font-family="Helvetica,sans-Serif" font-weight="bold" font-size="12.00" fill="#000000">Properties</text>
<g id="a_node2_1"><a xlink:href="../../cui/LimitedDisseminationControlCountryCode/#diagram" xlink:title="A country code for use with a REL TO and DISPLAY ONLY limited dissemination control for Controlled Unclassified Information (CUI)." target="_top">
<polygon fill="#ebebeb" stroke="transparent" points="1.5,-15.5 1.5,-30.5 246.5,-30.5 246.5,-15.5 1.5,-15.5"/>
<text text-anchor="start" x="2.5" y="-19.9" font-family="Helvetica,sans-Serif" font-size="12.00" fill="#000000">cui:LimitedDisseminationControlCountryCode</text>
</a>
</g>
<g id="a_node2_2"><a xlink:href="../../genc/CountryAlpha3Code/#diagram" xlink:title="A country, territory, dependency, or other such geopolitical subdivision of a location." target="_top">
<text text-anchor="start" x="2.5" y="-4.9" font-family="Helvetica,sans-Serif" font-size="12.00" fill="#000000">genc:CountryAlpha3Code</text>
</a>
</g>
<polygon fill="#000000" stroke="#000000" points=".5,-30.5 .5,-30.5 247.5,-30.5 247.5,-30.5 .5,-30.5"/>
<polygon fill="none" stroke="#000000" points="0,0 0,-47 247,-47 247,0 0,0"/>
</g>
<!-- Properties&#45;&gt;genc:CountryAlpha3CodeType -->
<g id="edge1" class="edge">
<title>Properties:top&#45;&gt;genc:CountryAlpha3CodeType:top</title>
<path fill="none" stroke="#000000" d="M246.5,-38.5C271.4714,-38.5 280.1284,-38.5 300.8937,-38.5"/>
<polygon fill="#000000" stroke="#000000" points="301,-42.0001 311,-38.5 301,-35.0001 301,-42.0001"/>
<text text-anchor="middle" x="276.5" y="-41.9" font-family="Helvetica,sans-Serif" font-size="12.00" fill="#000000">type</text>
</g>
<!-- genc:CountryAlpha3CodeSimpleType -->
<g id="node3" class="node">
<title>genc:CountryAlpha3CodeSimpleType</title>
<g id="a_node3_3"><a xlink:href="../../genc/CountryAlpha3CodeSimpleType/#diagram" xlink:title="A data type for country codes." target="_top">
<text text-anchor="start" x="315" y="-90.9" font-family="Helvetica,sans-Serif" font-size="12.00" fill="#000000">genc:CountryAlpha3CodeSimpleType</text>
</a>
</g>
<polygon fill="none" stroke="#000000" points="312.5,-86 312.5,-103 517.5,-103 517.5,-86 312.5,-86"/>
</g>
<!-- genc:CountryAlpha3CodeSimpleType&#45;&gt;genc:CountryAlpha3CodeType -->
<g id="edge2" class="edge">
<title>genc:CountryAlpha3CodeSimpleType&#45;&gt;genc:CountryAlpha3CodeType</title>
<path fill="none" stroke="#000000" d="M415,-85.9351C415,-79.431 415,-70.0678 415,-60.8827"/>
<polygon fill="#000000" stroke="#000000" points="418.5001,-60.75 415,-50.75 411.5001,-60.75 418.5001,-60.75"/>
<text text-anchor="middle" x="405.5" y="-65.15" font-family="Helvetica,sans-Serif" font-size="12.00" fill="#000000">extension</text>
</g>
<!-- xs:token -->
<g id="node4" class="node">
<title>xs:token</title>
<g id="a_node4_4"><a xlink:href="../../xs/token/#diagram" xlink:title="&lt;TABLE&gt;" target="_top">
<text text-anchor="start" x="393" y="-143.9" font-family="Helvetica,sans-Serif" font-size="12.00" fill="#000000">xs:token</text>
</a>
</g>
<polygon fill="none" stroke="#000000" points="390.5,-139 390.5,-156 439.5,-156 439.5,-139 390.5,-139"/>
</g>
<!-- xs:token&#45;&gt;genc:CountryAlpha3CodeSimpleType -->
<g id="edge3" class="edge">
<title>xs:token&#45;&gt;genc:CountryAlpha3CodeSimpleType</title>
<path fill="none" stroke="#000000" d="M415,-138.911C415,-132.0124 415,-122.0696 415,-113.34"/>
<polygon fill="#000000" stroke="#000000" points="418.5001,-113.2518 415,-103.2519 411.5001,-113.2519 418.5001,-113.2518"/>
<text text-anchor="middle" x="405.5" y="-117.9" font-family="Helvetica,sans-Serif" font-size="12.00" fill="#000000">restriction</text>
</g>
</g>
</svg>
