<?xml version="1.0" encoding="UTF-8" standalone="no"?>
<!DOCTYPE svg PUBLIC "-//W3C//DTD SVG 1.1//EN"
 "http://www.w3.org/Graphics/SVG/1.1/DTD/svg11.dtd">
<!-- Generated by graphviz version 2.40.1 (20161225.0304)
 -->
<!-- Title: graphic Pages: 1 -->
<svg width="585pt" height="98pt"
 viewBox="0.00 0.00 585.00 97.50" xmlns="http://www.w3.org/2000/svg" xmlns:xlink="http://www.w3.org/1999/xlink">
<g id="graph0" class="graph" transform="scale(1 1) rotate(0) translate(4 93.5)">
<title>graphic</title>
<polygon fill="#ffffff" stroke="transparent" points="-4,4 -4,-93.5 581,-93.5 581,4 -4,4"/>
<!-- nc:DeviceStoredContactInformation -->
<g id="node1" class="node">
<title>nc:DeviceStoredContactInformation</title>
<text text-anchor="start" x="157" y="-21.4" font-family="Helvetica,sans-Serif" font-weight="bold" font-size="12.00" fill="#000000">nc:DeviceStoredContactInformation</text>
<polygon fill="none" stroke="#ff0000" stroke-width="5" points="153.5,-14 153.5,-34 366.5,-34 366.5,-14 153.5,-14"/>
</g>
<!-- nc:ContactInformationType -->
<g id="node4" class="node">
<title>nc:ContactInformationType</title>
<g id="a_node4_0"><a xlink:href="../../nc/ContactInformationType/#diagram" xlink:title="A data type for how to contact a person or an organization." target="_top">
<text text-anchor="start" x="430.5" y="-20.4" font-family="Helvetica,sans-Serif" font-size="12.00" fill="#000000">nc:ContactInformationType</text>
</a>
</g>
<polygon fill="none" stroke="#000000" points="428,-15.5 428,-32.5 577,-32.5 577,-15.5 428,-15.5"/>
</g>
<!-- nc:DeviceStoredContactInformation&#45;&gt;nc:ContactInformationType -->
<g id="edge3" class="edge">
<title>nc:DeviceStoredContactInformation&#45;&gt;nc:ContactInformationType</title>
<path fill="none" stroke="#000000" d="M369.1901,-24C385.4839,-24 402.071,-24 417.7589,-24"/>
<polygon fill="#000000" stroke="#000000" points="417.9261,-27.5001 427.9261,-24 417.9261,-20.5001 417.9261,-27.5001"/>
<text text-anchor="middle" x="398.5" y="-27.4" font-family="Helvetica,sans-Serif" font-size="12.00" fill="#000000">type</text>
</g>
<!-- Types -->
<g id="node2" class="node">
<title>Types</title>
<text text-anchor="start" x="2" y="-21.4" font-family="Helvetica,sans-Serif" font-weight="bold" font-size="12.00" fill="#000000">Types</text>
<g id="a_node2_1"><a xlink:href="../../nc/DeviceType/#diagram" xlink:title="A data type for a device." target="_top">
<polygon fill="#ebebeb" stroke="transparent" points="1,-1 1,-16 83,-16 83,-1 1,-1"/>
<text text-anchor="start" x="2" y="-5.4" font-family="Helvetica,sans-Serif" font-size="12.00" fill="#000000">nc:DeviceType</text>
</a>
</g>
<polygon fill="#000000" stroke="#000000" points="0,-16 0,-16 84,-16 84,-16 0,-16"/>
<polygon fill="none" stroke="#000000" points="0,0 0,-32 84,-32 84,0 0,0"/>
</g>
<!-- Types&#45;&gt;nc:DeviceStoredContactInformation -->
<g id="edge1" class="edge">
<title>Types:top&#45;&gt;nc:DeviceStoredContactInformation</title>
<path fill="none" stroke="#000000" d="M83,-24C101.71,-24 121.5325,-24 140.8799,-24"/>
<polygon fill="#000000" stroke="#000000" points="140.9456,-27.5001 150.9456,-24 140.9456,-20.5001 140.9456,-27.5001"/>
<text text-anchor="middle" x="117.5" y="-27.4" font-family="Helvetica,sans-Serif" font-size="12.00" fill="#000000">has&#45;a</text>
</g>
<!-- SubstitutionGroup -->
<g id="node3" class="node">
<title>SubstitutionGroup</title>
<g id="a_node3_2"><a xlink:href="../../nc/DeviceStoredInformationAbstract/#diagram" xlink:title="A data concept for a call, message, file, communication, or other kind of information stored on a device." target="_top">
<text text-anchor="start" x="164" y="-77.4" font-family="Helvetica,sans-Serif" font-size="12.00" fill="#000000">nc:DeviceStoredInformationAbstract</text>
</a>
</g>
<polygon fill="none" stroke="#000000" points="161.5,-72.5 161.5,-89.5 358.5,-89.5 358.5,-72.5 161.5,-72.5"/>
</g>
<!-- SubstitutionGroup&#45;&gt;nc:DeviceStoredContactInformation -->
<g id="edge2" class="edge">
<title>SubstitutionGroup&#45;&gt;nc:DeviceStoredContactInformation</title>
<path fill="none" stroke="#000000" d="M260,-62.4163C260,-53.9809 260,-44.2214 260,-36.6501"/>
<polygon fill="#000000" stroke="#000000" points="256.5001,-62.4472 260,-72.4473 263.5001,-62.4473 256.5001,-62.4472"/>
<text text-anchor="middle" x="250.5" y="-51.4" font-family="Helvetica,sans-Serif" font-size="12.00" fill="#000000">substitution group</text>
</g>
</g>
</svg>
