<?xml version="1.0" encoding="UTF-8" standalone="no"?>
<!DOCTYPE svg PUBLIC "-//W3C//DTD SVG 1.1//EN"
 "http://www.w3.org/Graphics/SVG/1.1/DTD/svg11.dtd">
<!-- Generated by graphviz version 2.40.1 (20161225.0304)
 -->
<!-- Title: graphic Pages: 1 -->
<svg width="615pt" height="45pt"
 viewBox="0.00 0.00 615.00 45.00" xmlns="http://www.w3.org/2000/svg" xmlns:xlink="http://www.w3.org/1999/xlink">
<g id="graph0" class="graph" transform="scale(1 1) rotate(0) translate(4 41)">
<title>graphic</title>
<polygon fill="#ffffff" stroke="transparent" points="-4,4 -4,-41 611,-41 611,4 -4,4"/>
<!-- cbrn:CharacteristicValueUnitsText -->
<g id="node1" class="node">
<title>cbrn:CharacteristicValueUnitsText</title>
<text text-anchor="start" x="204.5" y="-21.4" font-family="Helvetica,sans-Serif" font-weight="bold" font-size="12.00" fill="#000000">cbrn:CharacteristicValueUnitsText</text>
<polygon fill="none" stroke="#ff0000" stroke-width="5" points="200.5,-14 200.5,-34 404.5,-34 404.5,-14 200.5,-14"/>
</g>
<!-- cbrn:NonBlankStringType -->
<g id="node3" class="node">
<title>cbrn:NonBlankStringType</title>
<g id="a_node3_0"><a xlink:href="../../cbrn/NonBlankStringType/#diagram" xlink:title="A data type that defines a string value that can not be blank" target="_top">
<text text-anchor="start" x="468.5" y="-20.4" font-family="Helvetica,sans-Serif" font-size="12.00" fill="#000000">cbrn:NonBlankStringType</text>
</a>
</g>
<polygon fill="none" stroke="#000000" points="466,-15.5 466,-32.5 607,-32.5 607,-15.5 466,-15.5"/>
</g>
<!-- cbrn:CharacteristicValueUnitsText&#45;&gt;cbrn:NonBlankStringType -->
<g id="edge2" class="edge">
<title>cbrn:CharacteristicValueUnitsText&#45;&gt;cbrn:NonBlankStringType</title>
<path fill="none" stroke="#000000" d="M407.1805,-24C423.4514,-24 440.0436,-24 455.6797,-24"/>
<polygon fill="#000000" stroke="#000000" points="455.8038,-27.5001 465.8037,-24 455.8037,-20.5001 455.8038,-27.5001"/>
<text text-anchor="middle" x="436.5" y="-27.4" font-family="Helvetica,sans-Serif" font-size="12.00" fill="#000000">type</text>
</g>
<!-- Types -->
<g id="node2" class="node">
<title>Types</title>
<text text-anchor="start" x="2.5" y="-21.4" font-family="Helvetica,sans-Serif" font-weight="bold" font-size="12.00" fill="#000000">Types</text>
<g id="a_node2_1"><a xlink:href="../../cbrn/CharacteristicType/#diagram" xlink:title="A data type for describing additional characteristics of something, such as a radiation instrument, detector, or item being inspected. This can be used to supplement those characteristics specifically defined in this standard." target="_top">
<polygon fill="#ebebeb" stroke="transparent" points="1.5,-1 1.5,-16 130.5,-16 130.5,-1 1.5,-1"/>
<text text-anchor="start" x="2.5" y="-5.4" font-family="Helvetica,sans-Serif" font-size="12.00" fill="#000000">cbrn:CharacteristicType</text>
</a>
</g>
<polygon fill="#000000" stroke="#000000" points=".5,-16 .5,-16 131.5,-16 131.5,-16 .5,-16"/>
<polygon fill="none" stroke="#000000" points="0,0 0,-32 131,-32 131,0 0,0"/>
</g>
<!-- Types&#45;&gt;cbrn:CharacteristicValueUnitsText -->
<g id="edge1" class="edge">
<title>Types:top&#45;&gt;cbrn:CharacteristicValueUnitsText</title>
<path fill="none" stroke="#000000" d="M130.5,-24C148.9777,-24 168.572,-24 187.6636,-24"/>
<polygon fill="#000000" stroke="#000000" points="187.8991,-27.5001 197.899,-24 187.899,-20.5001 187.8991,-27.5001"/>
<text text-anchor="middle" x="164.5" y="-27.4" font-family="Helvetica,sans-Serif" font-size="12.00" fill="#000000">has&#45;a</text>
</g>
</g>
</svg>
