<?xml version="1.0" encoding="UTF-8" standalone="no"?>
<!DOCTYPE svg PUBLIC "-//W3C//DTD SVG 1.1//EN"
 "http://www.w3.org/Graphics/SVG/1.1/DTD/svg11.dtd">
<!-- Generated by graphviz version 2.40.1 (20161225.0304)
 -->
<!-- Title: graphic Pages: 1 -->
<svg width="526pt" height="45pt"
 viewBox="0.00 0.00 526.00 45.00" xmlns="http://www.w3.org/2000/svg" xmlns:xlink="http://www.w3.org/1999/xlink">
<g id="graph0" class="graph" transform="scale(1 1) rotate(0) translate(4 41)">
<title>graphic</title>
<polygon fill="#ffffff" stroke="transparent" points="-4,4 -4,-41 522,-41 522,4 -4,4"/>
<!-- j:ServiceDeliveryProgram -->
<g id="node1" class="node">
<title>j:ServiceDeliveryProgram</title>
<text text-anchor="start" x="213.5" y="-21.4" font-family="Helvetica,sans-Serif" font-weight="bold" font-size="12.00" fill="#000000">j:ServiceDeliveryProgram</text>
<polygon fill="none" stroke="#ff0000" stroke-width="5" points="209.5,-14 209.5,-34 363.5,-34 363.5,-14 209.5,-14"/>
</g>
<!-- nc:ProgramType -->
<g id="node3" class="node">
<title>nc:ProgramType</title>
<g id="a_node3_0"><a xlink:href="../../nc/ProgramType/#diagram" xlink:title="A data type for a set of projects, activities, or services intended to meet a need." target="_top">
<text text-anchor="start" x="427.5" y="-20.4" font-family="Helvetica,sans-Serif" font-size="12.00" fill="#000000">nc:ProgramType</text>
</a>
</g>
<polygon fill="none" stroke="#000000" points="425,-15.5 425,-32.5 518,-32.5 518,-15.5 425,-15.5"/>
</g>
<!-- j:ServiceDeliveryProgram&#45;&gt;nc:ProgramType -->
<g id="edge2" class="edge">
<title>j:ServiceDeliveryProgram&#45;&gt;nc:ProgramType</title>
<path fill="none" stroke="#000000" d="M366.0303,-24C382.3421,-24 399.2029,-24 414.5292,-24"/>
<polygon fill="#000000" stroke="#000000" points="414.869,-27.5001 424.869,-24 414.8689,-20.5001 414.869,-27.5001"/>
<text text-anchor="middle" x="395.5" y="-27.4" font-family="Helvetica,sans-Serif" font-size="12.00" fill="#000000">type</text>
</g>
<!-- Types -->
<g id="node2" class="node">
<title>Types</title>
<text text-anchor="start" x="2" y="-21.4" font-family="Helvetica,sans-Serif" font-weight="bold" font-size="12.00" fill="#000000">Types</text>
<g id="a_node2_1"><a xlink:href="../../j/SubjectAssignmentType/#diagram" xlink:title="A data type for an event or activity involving the assignment of a corrections subject." target="_top">
<polygon fill="#ebebeb" stroke="transparent" points="1,-1 1,-16 139,-16 139,-1 1,-1"/>
<text text-anchor="start" x="2" y="-5.4" font-family="Helvetica,sans-Serif" font-size="12.00" fill="#000000">j:SubjectAssignmentType</text>
</a>
</g>
<polygon fill="#000000" stroke="#000000" points="0,-16 0,-16 140,-16 140,-16 0,-16"/>
<polygon fill="none" stroke="#000000" points="0,0 0,-32 140,-32 140,0 0,0"/>
</g>
<!-- Types&#45;&gt;j:ServiceDeliveryProgram -->
<g id="edge1" class="edge">
<title>Types:top&#45;&gt;j:ServiceDeliveryProgram</title>
<path fill="none" stroke="#000000" d="M139,-24C157.6676,-24 177.6641,-24 196.719,-24"/>
<polygon fill="#000000" stroke="#000000" points="196.8884,-27.5001 206.8884,-24 196.8883,-20.5001 196.8884,-27.5001"/>
<text text-anchor="middle" x="173.5" y="-27.4" font-family="Helvetica,sans-Serif" font-size="12.00" fill="#000000">has&#45;a</text>
</g>
</g>
</svg>
