<?xml version="1.0" encoding="UTF-8" standalone="no"?>
<!DOCTYPE svg PUBLIC "-//W3C//DTD SVG 1.1//EN"
 "http://www.w3.org/Graphics/SVG/1.1/DTD/svg11.dtd">
<!-- Generated by graphviz version 2.40.1 (20161225.0304)
 -->
<!-- Title: graphic Pages: 1 -->
<svg width="579pt" height="45pt"
 viewBox="0.00 0.00 579.00 45.00" xmlns="http://www.w3.org/2000/svg" xmlns:xlink="http://www.w3.org/1999/xlink">
<g id="graph0" class="graph" transform="scale(1 1) rotate(0) translate(4 41)">
<title>graphic</title>
<polygon fill="#ffffff" stroke="transparent" points="-4,4 -4,-41 575,-41 575,4 -4,4"/>
<!-- it:ProcessingEstablishment -->
<g id="node1" class="node">
<title>it:ProcessingEstablishment</title>
<text text-anchor="start" x="172.5" y="-21.4" font-family="Helvetica,sans-Serif" font-weight="bold" font-size="12.00" fill="#000000">it:ProcessingEstablishment</text>
<polygon fill="none" stroke="#ff0000" stroke-width="5" points="168.5,-14 168.5,-34 334.5,-34 334.5,-14 168.5,-14"/>
</g>
<!-- it:ProcessingEstablishmentType -->
<g id="node3" class="node">
<title>it:ProcessingEstablishmentType</title>
<g id="a_node3_0"><a xlink:href="../../it/ProcessingEstablishmentType/#diagram" xlink:title="A data type for a name [and address] of slaughtering, freezing, or other processing establishment." target="_top">
<text text-anchor="start" x="398.5" y="-20.4" font-family="Helvetica,sans-Serif" font-size="12.00" fill="#000000">it:ProcessingEstablishmentType</text>
</a>
</g>
<polygon fill="none" stroke="#000000" points="396,-15.5 396,-32.5 571,-32.5 571,-15.5 396,-15.5"/>
</g>
<!-- it:ProcessingEstablishment&#45;&gt;it:ProcessingEstablishmentType -->
<g id="edge2" class="edge">
<title>it:ProcessingEstablishment&#45;&gt;it:ProcessingEstablishmentType</title>
<path fill="none" stroke="#000000" d="M337.2291,-24C352.9,-24 369.3634,-24 385.3624,-24"/>
<polygon fill="#000000" stroke="#000000" points="385.7959,-27.5001 395.7959,-24 385.7959,-20.5001 385.7959,-27.5001"/>
<text text-anchor="middle" x="366.5" y="-27.4" font-family="Helvetica,sans-Serif" font-size="12.00" fill="#000000">type</text>
</g>
<!-- Types -->
<g id="node2" class="node">
<title>Types</title>
<text text-anchor="start" x="2.5" y="-21.4" font-family="Helvetica,sans-Serif" font-weight="bold" font-size="12.00" fill="#000000">Types</text>
<g id="a_node2_1"><a xlink:href="../../it/GoodsItemType/#diagram" xlink:title="A data type for a specific Item sent for sale, storage, or shipment." target="_top">
<polygon fill="#ebebeb" stroke="transparent" points="1.5,-1 1.5,-16 98.5,-16 98.5,-1 1.5,-1"/>
<text text-anchor="start" x="2.5" y="-5.4" font-family="Helvetica,sans-Serif" font-size="12.00" fill="#000000">it:GoodsItemType</text>
</a>
</g>
<polygon fill="#000000" stroke="#000000" points=".5,-16 .5,-16 99.5,-16 99.5,-16 .5,-16"/>
<polygon fill="none" stroke="#000000" points="0,0 0,-32 99,-32 99,0 0,0"/>
</g>
<!-- Types&#45;&gt;it:ProcessingEstablishment -->
<g id="edge1" class="edge">
<title>Types:top&#45;&gt;it:ProcessingEstablishment</title>
<path fill="none" stroke="#000000" d="M98.5,-24C116.963,-24 136.6793,-24 155.6071,-24"/>
<polygon fill="#000000" stroke="#000000" points="155.7243,-27.5001 165.7242,-24 155.7242,-20.5001 155.7243,-27.5001"/>
<text text-anchor="middle" x="132.5" y="-27.4" font-family="Helvetica,sans-Serif" font-size="12.00" fill="#000000">has&#45;a</text>
</g>
</g>
</svg>
