<?xml version="1.0" encoding="UTF-8" standalone="no"?>
<!DOCTYPE svg PUBLIC "-//W3C//DTD SVG 1.1//EN"
 "http://www.w3.org/Graphics/SVG/1.1/DTD/svg11.dtd">
<!-- Generated by graphviz version 2.40.1 (20161225.0304)
 -->
<!-- Title: graphic Pages: 1 -->
<svg width="709pt" height="98pt"
 viewBox="0.00 0.00 709.00 97.50" xmlns="http://www.w3.org/2000/svg" xmlns:xlink="http://www.w3.org/1999/xlink">
<g id="graph0" class="graph" transform="scale(1 1) rotate(0) translate(4 93.5)">
<title>graphic</title>
<polygon fill="#ffffff" stroke="transparent" points="-4,4 -4,-93.5 705,-93.5 705,4 -4,4"/>
<!-- cbrn:IntrinsicFullEnergyPeakEfficiencyCalibration -->
<g id="node1" class="node">
<title>cbrn:IntrinsicFullEnergyPeakEfficiencyCalibration</title>
<text text-anchor="start" x="182.5" y="-21.4" font-family="Helvetica,sans-Serif" font-weight="bold" font-size="12.00" fill="#000000">cbrn:IntrinsicFullEnergyPeakEfficiencyCalibration</text>
<polygon fill="none" stroke="#ff0000" stroke-width="5" points="178.5,-14 178.5,-34 472.5,-34 472.5,-14 178.5,-14"/>
</g>
<!-- cbrn:EfficiencyCalibrationType -->
<g id="node4" class="node">
<title>cbrn:EfficiencyCalibrationType</title>
<g id="a_node4_0"><a xlink:href="../../cbrn/EfficiencyCalibrationType/#diagram" xlink:title="A data type for efficiency calibration." target="_top">
<text text-anchor="start" x="536.5" y="-20.4" font-family="Helvetica,sans-Serif" font-size="12.00" fill="#000000">cbrn:EfficiencyCalibrationType</text>
</a>
</g>
<polygon fill="none" stroke="#000000" points="534,-15.5 534,-32.5 701,-32.5 701,-15.5 534,-15.5"/>
</g>
<!-- cbrn:IntrinsicFullEnergyPeakEfficiencyCalibration&#45;&gt;cbrn:EfficiencyCalibrationType -->
<g id="edge3" class="edge">
<title>cbrn:IntrinsicFullEnergyPeakEfficiencyCalibration&#45;&gt;cbrn:EfficiencyCalibrationType</title>
<path fill="none" stroke="#000000" d="M475.3492,-24C491.7752,-24 508.1362,-24 523.5998,-24"/>
<polygon fill="#000000" stroke="#000000" points="523.6236,-27.5001 533.6236,-24 523.6236,-20.5001 523.6236,-27.5001"/>
<text text-anchor="middle" x="504.5" y="-27.4" font-family="Helvetica,sans-Serif" font-size="12.00" fill="#000000">type</text>
</g>
<!-- Types -->
<g id="node2" class="node">
<title>Types</title>
<text text-anchor="start" x="2.5" y="-21.4" font-family="Helvetica,sans-Serif" font-weight="bold" font-size="12.00" fill="#000000">Types</text>
<g id="a_node2_1"><a xlink:href="../../cbrn/SpectrumType/#diagram" xlink:title="A data type that provides spectrum measurement data." target="_top">
<polygon fill="#ebebeb" stroke="transparent" points="1.5,-1 1.5,-16 108.5,-16 108.5,-1 1.5,-1"/>
<text text-anchor="start" x="2.5" y="-5.4" font-family="Helvetica,sans-Serif" font-size="12.00" fill="#000000">cbrn:SpectrumType</text>
</a>
</g>
<polygon fill="#000000" stroke="#000000" points=".5,-16 .5,-16 109.5,-16 109.5,-16 .5,-16"/>
<polygon fill="none" stroke="#000000" points="0,0 0,-32 109,-32 109,0 0,0"/>
</g>
<!-- Types&#45;&gt;cbrn:IntrinsicFullEnergyPeakEfficiencyCalibration -->
<g id="edge1" class="edge">
<title>Types:top&#45;&gt;cbrn:IntrinsicFullEnergyPeakEfficiencyCalibration</title>
<path fill="none" stroke="#000000" d="M108.5,-24C127.027,-24 146.4438,-24 165.7248,-24"/>
<polygon fill="#000000" stroke="#000000" points="165.7898,-27.5001 175.7898,-24 165.7897,-20.5001 165.7898,-27.5001"/>
<text text-anchor="middle" x="142.5" y="-27.4" font-family="Helvetica,sans-Serif" font-size="12.00" fill="#000000">has&#45;a</text>
</g>
<!-- SubstitutionGroup -->
<g id="node3" class="node">
<title>SubstitutionGroup</title>
<g id="a_node3_2"><a xlink:href="../../cbrn/RadInstrumentDataChoiceAbstract/#diagram" xlink:title="A data concept for a variant of data that is generated by the rad instrument." target="_top">
<text text-anchor="start" x="219.5" y="-77.4" font-family="Helvetica,sans-Serif" font-size="12.00" fill="#000000">cbrn:RadInstrumentDataChoiceAbstract</text>
</a>
</g>
<polygon fill="none" stroke="#000000" points="217,-72.5 217,-89.5 434,-89.5 434,-72.5 217,-72.5"/>
</g>
<!-- SubstitutionGroup&#45;&gt;cbrn:IntrinsicFullEnergyPeakEfficiencyCalibration -->
<g id="edge2" class="edge">
<title>SubstitutionGroup&#45;&gt;cbrn:IntrinsicFullEnergyPeakEfficiencyCalibration</title>
<path fill="none" stroke="#000000" d="M325.5,-62.4163C325.5,-53.9809 325.5,-44.2214 325.5,-36.6501"/>
<polygon fill="#000000" stroke="#000000" points="322.0001,-62.4472 325.5,-72.4473 329.0001,-62.4473 322.0001,-62.4472"/>
<text text-anchor="middle" x="316" y="-51.4" font-family="Helvetica,sans-Serif" font-size="12.00" fill="#000000">substitution group</text>
</g>
</g>
</svg>
