<?xml version="1.0" encoding="UTF-8" standalone="no"?>
<!DOCTYPE svg PUBLIC "-//W3C//DTD SVG 1.1//EN"
 "http://www.w3.org/Graphics/SVG/1.1/DTD/svg11.dtd">
<!-- Generated by graphviz version 2.40.1 (20161225.0304)
 -->
<!-- Title: graphic Pages: 1 -->
<svg width="557pt" height="45pt"
 viewBox="0.00 0.00 557.00 45.00" xmlns="http://www.w3.org/2000/svg" xmlns:xlink="http://www.w3.org/1999/xlink">
<g id="graph0" class="graph" transform="scale(1 1) rotate(0) translate(4 41)">
<title>graphic</title>
<polygon fill="#ffffff" stroke="transparent" points="-4,4 -4,-41 553,-41 553,4 -4,4"/>
<!-- m:VesselDeckConfigurationText -->
<g id="node1" class="node">
<title>m:VesselDeckConfigurationText</title>
<text text-anchor="start" x="228.5" y="-21.4" font-family="Helvetica,sans-Serif" font-weight="bold" font-size="12.00" fill="#000000">m:VesselDeckConfigurationText</text>
<polygon fill="none" stroke="#ff0000" stroke-width="5" points="224.5,-14 224.5,-34 416.5,-34 416.5,-14 224.5,-14"/>
</g>
<!-- nc:TextType -->
<g id="node3" class="node">
<title>nc:TextType</title>
<g id="a_node3_0"><a xlink:href="../../nc/TextType/#diagram" xlink:title="A data type for a character string." target="_top">
<text text-anchor="start" x="480.5" y="-20.4" font-family="Helvetica,sans-Serif" font-size="12.00" fill="#000000">nc:TextType</text>
</a>
</g>
<polygon fill="none" stroke="#000000" points="478,-15.5 478,-32.5 549,-32.5 549,-15.5 478,-15.5"/>
</g>
<!-- m:VesselDeckConfigurationText&#45;&gt;nc:TextType -->
<g id="edge2" class="edge">
<title>m:VesselDeckConfigurationText&#45;&gt;nc:TextType</title>
<path fill="none" stroke="#000000" d="M419.2615,-24C436.1277,-24 452.9018,-24 467.5213,-24"/>
<polygon fill="#000000" stroke="#000000" points="467.7563,-27.5001 477.7562,-24 467.7562,-20.5001 467.7563,-27.5001"/>
<text text-anchor="middle" x="448.5" y="-27.4" font-family="Helvetica,sans-Serif" font-size="12.00" fill="#000000">type</text>
</g>
<!-- Types -->
<g id="node2" class="node">
<title>Types</title>
<text text-anchor="start" x="2.5" y="-21.4" font-family="Helvetica,sans-Serif" font-weight="bold" font-size="12.00" fill="#000000">Types</text>
<g id="a_node2_1"><a xlink:href="../../m/VesselAugmentationType/#diagram" xlink:title="A data type for additional information about a vessel." target="_top">
<polygon fill="#ebebeb" stroke="transparent" points="1.5,-1 1.5,-16 154.5,-16 154.5,-1 1.5,-1"/>
<text text-anchor="start" x="2.5" y="-5.4" font-family="Helvetica,sans-Serif" font-size="12.00" fill="#000000">m:VesselAugmentationType</text>
</a>
</g>
<polygon fill="#000000" stroke="#000000" points=".5,-16 .5,-16 155.5,-16 155.5,-16 .5,-16"/>
<polygon fill="none" stroke="#000000" points="0,0 0,-32 155,-32 155,0 0,0"/>
</g>
<!-- Types&#45;&gt;m:VesselDeckConfigurationText -->
<g id="edge1" class="edge">
<title>Types:top&#45;&gt;m:VesselDeckConfigurationText</title>
<path fill="none" stroke="#000000" d="M154.5,-24C172.9439,-24 192.5405,-24 211.5608,-24"/>
<polygon fill="#000000" stroke="#000000" points="211.7501,-27.5001 221.7501,-24 211.75,-20.5001 211.7501,-27.5001"/>
<text text-anchor="middle" x="188.5" y="-27.4" font-family="Helvetica,sans-Serif" font-size="12.00" fill="#000000">has&#45;a</text>
</g>
</g>
</svg>
