<?xml version="1.0" encoding="UTF-8" standalone="no"?>
<!DOCTYPE svg PUBLIC "-//W3C//DTD SVG 1.1//EN"
 "http://www.w3.org/Graphics/SVG/1.1/DTD/svg11.dtd">
<!-- Generated by graphviz version 2.40.1 (20161225.0304)
 -->
<!-- Title: graphic Pages: 1 -->
<svg width="554pt" height="131pt"
 viewBox="0.00 0.00 554.00 130.50" xmlns="http://www.w3.org/2000/svg" xmlns:xlink="http://www.w3.org/1999/xlink">
<g id="graph0" class="graph" transform="scale(1 1) rotate(0) translate(4 126.5)">
<title>graphic</title>
<polygon fill="#ffffff" stroke="transparent" points="-4,4 -4,-126.5 550,-126.5 550,4 -4,4"/>
<!-- em:EMSTrafficType -->
<g id="node1" class="node">
<title>em:EMSTrafficType</title>
<text text-anchor="start" x="149.5" y="-55.4" font-family="Helvetica,sans-Serif" font-weight="bold" font-size="12.00" fill="#000000">em:EMSTrafficType</text>
<g id="a_node1_0"><a xlink:href="../../em/EMSTrafficReasonText/#diagram" xlink:title="A report the contributing factor to an EMSTraffic Status" target="_top">
<polygon fill="#ebebeb" stroke="transparent" points="148.5,-35 148.5,-50 541.5,-50 541.5,-35 148.5,-35"/>
<text text-anchor="start" x="149.5" y="-39.4" font-family="Helvetica,sans-Serif" font-size="12.00" fill="#000000">em:EMSTrafficReasonText: nc:TextType [0&#45;n]</text>
</a>
</g>
<g id="a_node1_1"><a xlink:href="../../em/EMSTrafficStatusCode/#diagram" xlink:title="A status describing EMS traffic operations" target="_top">
<text text-anchor="start" x="149.5" y="-24.4" font-family="Helvetica,sans-Serif" font-size="12.00" fill="#000000">em:EMSTrafficStatusCode: have&#45;codes:EMSTrafficStatusCodeType [0&#45;n]</text>
</a>
</g>
<g id="a_node1_2"><a xlink:href="../../em/EMSTrafficAugmentationPoint/#diagram" xlink:title="An augmentation point for EMSTrafficType" target="_top">
<polygon fill="#ebebeb" stroke="transparent" points="148.5,-5 148.5,-20 541.5,-20 541.5,-5 148.5,-5"/>
<text text-anchor="start" x="149.5" y="-9.4" font-family="Helvetica,sans-Serif" font-size="12.00" fill="#000000">em:EMSTrafficAugmentationPoint [0&#45;n]</text>
</a>
</g>
<polygon fill="#ff0000" stroke="#ff0000" points="143.5,-50 143.5,-50 546.5,-50 546.5,-50 143.5,-50"/>
<polygon fill="none" stroke="#ff0000" stroke-width="5" points="145.5,-2.5 145.5,-67.5 543.5,-67.5 543.5,-2.5 145.5,-2.5"/>
</g>
<!-- Properties -->
<g id="node2" class="node">
<title>Properties</title>
<text text-anchor="start" x="2" y="-55.4" font-family="Helvetica,sans-Serif" font-weight="bold" font-size="12.00" fill="#000000">Properties</text>
<g id="a_node2_3"><a xlink:href="../../em/EMSTraffic/#diagram" xlink:title="A container of all of the elements related to the status of operations of EMS traffic" target="_top">
<polygon fill="#ebebeb" stroke="transparent" points="1,-35 1,-50 83,-50 83,-35 1,-35"/>
<text text-anchor="start" x="2" y="-39.4" font-family="Helvetica,sans-Serif" font-size="12.00" fill="#000000">em:EMSTraffic</text>
</a>
</g>
<polygon fill="#000000" stroke="#000000" points="0,-50 0,-50 84,-50 84,-50 0,-50"/>
<polygon fill="none" stroke="#000000" points="0,-34 0,-66 84,-66 84,-34 0,-34"/>
</g>
<!-- Properties&#45;&gt;em:EMSTrafficType -->
<g id="edge1" class="edge">
<title>Properties:top&#45;&gt;em:EMSTrafficType:top</title>
<path fill="none" stroke="#000000" d="M83,-58C108.3585,-58 117.1498,-58 138.2371,-58"/>
<polygon fill="#000000" stroke="#000000" points="138.5,-61.5001 148.5,-58 138.5,-54.5001 138.5,-61.5001"/>
<text text-anchor="middle" x="113.5" y="-61.4" font-family="Helvetica,sans-Serif" font-size="12.00" fill="#000000">type</text>
</g>
<!-- structures:ObjectType -->
<g id="node3" class="node">
<title>structures:ObjectType</title>
<g id="a_node3_4"><a xlink:href="../../structures/ObjectType/#diagram" xlink:title="A data type for a thing with its own lifespan that has some existence." target="_top">
<text text-anchor="start" x="285.5" y="-110.4" font-family="Helvetica,sans-Serif" font-size="12.00" fill="#000000">structures:ObjectType</text>
</a>
</g>
<polygon fill="none" stroke="#000000" points="283.5,-105.5 283.5,-122.5 405.5,-122.5 405.5,-105.5 283.5,-105.5"/>
</g>
<!-- structures:ObjectType&#45;&gt;em:EMSTrafficType -->
<g id="edge2" class="edge">
<title>structures:ObjectType&#45;&gt;em:EMSTrafficType</title>
<path fill="none" stroke="#000000" d="M344.5,-105.4117C344.5,-99.1025 344.5,-89.9911 344.5,-80.4049"/>
<polygon fill="#000000" stroke="#000000" points="348.0001,-80.3408 344.5,-70.3408 341.0001,-80.3409 348.0001,-80.3408"/>
<text text-anchor="middle" x="335" y="-84.65" font-family="Helvetica,sans-Serif" font-size="12.00" fill="#000000">extension</text>
</g>
</g>
</svg>
