<?xml version="1.0" encoding="UTF-8" standalone="no"?>
<!DOCTYPE svg PUBLIC "-//W3C//DTD SVG 1.1//EN"
 "http://www.w3.org/Graphics/SVG/1.1/DTD/svg11.dtd">
<!-- Generated by graphviz version 2.40.1 (20161225.0304)
 -->
<!-- Title: graphic Pages: 1 -->
<svg width="703pt" height="45pt"
 viewBox="0.00 0.00 703.00 45.00" xmlns="http://www.w3.org/2000/svg" xmlns:xlink="http://www.w3.org/1999/xlink">
<g id="graph0" class="graph" transform="scale(1 1) rotate(0) translate(4 41)">
<title>graphic</title>
<polygon fill="#ffffff" stroke="transparent" points="-4,4 -4,-41 699,-41 699,4 -4,4"/>
<!-- stat:ArtifactLifeCycleStatusCode -->
<g id="node1" class="node">
<title>stat:ArtifactLifeCycleStatusCode</title>
<text text-anchor="start" x="239" y="-21.4" font-family="Helvetica,sans-Serif" font-weight="bold" font-size="12.00" fill="#000000">stat:ArtifactLifeCycleStatusCode</text>
<polygon fill="none" stroke="#ff0000" stroke-width="5" points="235.5,-14 235.5,-34 430.5,-34 430.5,-14 235.5,-14"/>
</g>
<!-- stat:ArtifactLifeCycleStatusCodeType -->
<g id="node3" class="node">
<title>stat:ArtifactLifeCycleStatusCodeType</title>
<g id="a_node3_0"><a xlink:href="../../stat/ArtifactLifeCycleStatusCodeType/#diagram" xlink:title="A data type for the quality of an item, e.g., incomplete, valid." target="_top">
<text text-anchor="start" x="494.5" y="-20.4" font-family="Helvetica,sans-Serif" font-size="12.00" fill="#000000">stat:ArtifactLifeCycleStatusCodeType</text>
</a>
</g>
<polygon fill="none" stroke="#000000" points="492,-15.5 492,-32.5 695,-32.5 695,-15.5 492,-15.5"/>
</g>
<!-- stat:ArtifactLifeCycleStatusCode&#45;&gt;stat:ArtifactLifeCycleStatusCodeType -->
<g id="edge2" class="edge">
<title>stat:ArtifactLifeCycleStatusCode&#45;&gt;stat:ArtifactLifeCycleStatusCodeType</title>
<path fill="none" stroke="#000000" d="M433.3435,-24C449.0984,-24 465.4703,-24 481.4683,-24"/>
<polygon fill="#000000" stroke="#000000" points="481.917,-27.5001 491.917,-24 481.9169,-20.5001 481.917,-27.5001"/>
<text text-anchor="middle" x="462.5" y="-27.4" font-family="Helvetica,sans-Serif" font-size="12.00" fill="#000000">type</text>
</g>
<!-- Types -->
<g id="node2" class="node">
<title>Types</title>
<text text-anchor="start" x="2" y="-21.4" font-family="Helvetica,sans-Serif" font-weight="bold" font-size="12.00" fill="#000000">Types</text>
<g id="a_node2_1"><a xlink:href="../../stat/AdministrativeDetailsType/#diagram" xlink:title="A data type for extensions to the model based on an organization&#39;s administrative needs." target="_top">
<polygon fill="#ebebeb" stroke="transparent" points="1,-1 1,-16 165,-16 165,-1 1,-1"/>
<text text-anchor="start" x="2" y="-5.4" font-family="Helvetica,sans-Serif" font-size="12.00" fill="#000000">stat:AdministrativeDetailsType</text>
</a>
</g>
<polygon fill="#000000" stroke="#000000" points="0,-16 0,-16 166,-16 166,-16 0,-16"/>
<polygon fill="none" stroke="#000000" points="0,0 0,-32 166,-32 166,0 0,0"/>
</g>
<!-- Types&#45;&gt;stat:ArtifactLifeCycleStatusCode -->
<g id="edge1" class="edge">
<title>Types:top&#45;&gt;stat:ArtifactLifeCycleStatusCode</title>
<path fill="none" stroke="#000000" d="M165,-24C183.5425,-24 203.2362,-24 222.3657,-24"/>
<polygon fill="#000000" stroke="#000000" points="222.6152,-27.5001 232.6152,-24 222.6152,-20.5001 222.6152,-27.5001"/>
<text text-anchor="middle" x="199.5" y="-27.4" font-family="Helvetica,sans-Serif" font-size="12.00" fill="#000000">has&#45;a</text>
</g>
</g>
</svg>
