<?xml version="1.0" encoding="UTF-8" standalone="no"?>
<!DOCTYPE svg PUBLIC "-//W3C//DTD SVG 1.1//EN"
 "http://www.w3.org/Graphics/SVG/1.1/DTD/svg11.dtd">
<!-- Generated by graphviz version 2.40.1 (20161225.0304)
 -->
<!-- Title: graphic Pages: 1 -->
<svg width="570pt" height="45pt"
 viewBox="0.00 0.00 570.00 45.00" xmlns="http://www.w3.org/2000/svg" xmlns:xlink="http://www.w3.org/1999/xlink">
<g id="graph0" class="graph" transform="scale(1 1) rotate(0) translate(4 41)">
<title>graphic</title>
<polygon fill="#ffffff" stroke="transparent" points="-4,4 -4,-41 566,-41 566,4 -4,4"/>
<!-- em:AlarmConfirmation -->
<g id="node1" class="node">
<title>em:AlarmConfirmation</title>
<text text-anchor="start" x="215.5" y="-21.4" font-family="Helvetica,sans-Serif" font-weight="bold" font-size="12.00" fill="#000000">em:AlarmConfirmation</text>
<polygon fill="none" stroke="#ff0000" stroke-width="5" points="211.5,-14 211.5,-34 349.5,-34 349.5,-14 211.5,-14"/>
</g>
<!-- em:AlarmConfirmationType -->
<g id="node3" class="node">
<title>em:AlarmConfirmationType</title>
<g id="a_node3_0"><a xlink:href="../../em/AlarmConfirmationType/#diagram" xlink:title="A data type for the container for information related to the confirmation of an alarm" target="_top">
<text text-anchor="start" x="413.5" y="-20.4" font-family="Helvetica,sans-Serif" font-size="12.00" fill="#000000">em:AlarmConfirmationType</text>
</a>
</g>
<polygon fill="none" stroke="#000000" points="411,-15.5 411,-32.5 562,-32.5 562,-15.5 411,-15.5"/>
</g>
<!-- em:AlarmConfirmation&#45;&gt;em:AlarmConfirmationType -->
<g id="edge2" class="edge">
<title>em:AlarmConfirmation&#45;&gt;em:AlarmConfirmationType</title>
<path fill="none" stroke="#000000" d="M352.2596,-24C367.7856,-24 384.3576,-24 400.3704,-24"/>
<polygon fill="#000000" stroke="#000000" points="400.7958,-27.5001 410.7958,-24 400.7958,-20.5001 400.7958,-27.5001"/>
<text text-anchor="middle" x="381.5" y="-27.4" font-family="Helvetica,sans-Serif" font-size="12.00" fill="#000000">type</text>
</g>
<!-- Types -->
<g id="node2" class="node">
<title>Types</title>
<text text-anchor="start" x="2" y="-21.4" font-family="Helvetica,sans-Serif" font-weight="bold" font-size="12.00" fill="#000000">Types</text>
<g id="a_node2_1"><a xlink:href="../../em/AlarmNotificationType/#diagram" xlink:title="A data type for an alarm" target="_top">
<polygon fill="#ebebeb" stroke="transparent" points="1,-1 1,-16 141,-16 141,-1 1,-1"/>
<text text-anchor="start" x="2" y="-5.4" font-family="Helvetica,sans-Serif" font-size="12.00" fill="#000000">em:AlarmNotificationType</text>
</a>
</g>
<polygon fill="#000000" stroke="#000000" points="0,-16 0,-16 142,-16 142,-16 0,-16"/>
<polygon fill="none" stroke="#000000" points="0,0 0,-32 142,-32 142,0 0,0"/>
</g>
<!-- Types&#45;&gt;em:AlarmConfirmation -->
<g id="edge1" class="edge">
<title>Types:top&#45;&gt;em:AlarmConfirmation</title>
<path fill="none" stroke="#000000" d="M141,-24C159.6815,-24 179.7704,-24 198.7223,-24"/>
<polygon fill="#000000" stroke="#000000" points="198.8157,-27.5001 208.8156,-24 198.8156,-20.5001 198.8157,-27.5001"/>
<text text-anchor="middle" x="175.5" y="-27.4" font-family="Helvetica,sans-Serif" font-size="12.00" fill="#000000">has&#45;a</text>
</g>
</g>
</svg>
