<?xml version="1.0" encoding="UTF-8" standalone="no"?>
<!DOCTYPE svg PUBLIC "-//W3C//DTD SVG 1.1//EN"
 "http://www.w3.org/Graphics/SVG/1.1/DTD/svg11.dtd">
<!-- Generated by graphviz version 2.40.1 (20161225.0304)
 -->
<!-- Title: graphic Pages: 1 -->
<svg width="273pt" height="86pt"
 viewBox="0.00 0.00 273.00 86.00" xmlns="http://www.w3.org/2000/svg" xmlns:xlink="http://www.w3.org/1999/xlink">
<g id="graph0" class="graph" transform="scale(1 1) rotate(0) translate(4 82)">
<title>graphic</title>
<polygon fill="#ffffff" stroke="transparent" points="-4,4 -4,-82 269,-82 269,4 -4,4"/>
<!-- nc:StateCode -->
<g id="node1" class="node">
<title>nc:StateCode</title>
<text text-anchor="start" x="26" y="-9.9" font-family="Helvetica,sans-Serif" font-weight="bold" font-size="12.00" fill="#000000">nc:StateCode</text>
<polygon fill="none" stroke="#ff0000" stroke-width="5" points="22.5,-2.5 22.5,-22.5 107.5,-22.5 107.5,-2.5 22.5,-2.5"/>
</g>
<!-- nc:CodeType -->
<g id="node3" class="node">
<title>nc:CodeType</title>
<g id="a_node3_0"><a xlink:href="../../nc/CodeType/#diagram" xlink:title="A data type for a code with codes sourced from an external code list." target="_top">
<text text-anchor="start" x="191" y="-8.9" font-family="Helvetica,sans-Serif" font-size="12.00" fill="#000000">nc:CodeType</text>
</a>
</g>
<polygon fill="none" stroke="#000000" points="189,-4 189,-21 265,-21 265,-4 189,-4"/>
</g>
<!-- nc:StateCode&#45;&gt;nc:CodeType -->
<g id="edge2" class="edge">
<title>nc:StateCode&#45;&gt;nc:CodeType</title>
<path fill="none" stroke="#000000" d="M110.126,-12.5C131.5439,-12.5 157.1553,-12.5 178.9368,-12.5"/>
<polygon fill="#000000" stroke="#000000" points="178.9655,-16.0001 188.9654,-12.5 178.9654,-9.0001 178.9655,-16.0001"/>
<text text-anchor="middle" x="159.5" y="-15.9" font-family="Helvetica,sans-Serif" font-size="12.00" fill="#000000">type</text>
</g>
<!-- SubstitutionGroup -->
<g id="node2" class="node">
<title>SubstitutionGroup</title>
<g id="a_node2_1"><a xlink:href="../../nc/StateRepresentation/#diagram" xlink:title="A data concept for a representation of a state, commonwealth, province, or other such geopolitical subdivision of a country." target="_top">
<text text-anchor="start" x="2" y="-65.9" font-family="Helvetica,sans-Serif" font-size="12.00" fill="#000000">nc:StateRepresentation</text>
</a>
</g>
<polygon fill="none" stroke="#000000" points="0,-61 0,-78 130,-78 130,-61 0,-61"/>
</g>
<!-- SubstitutionGroup&#45;&gt;nc:StateCode -->
<g id="edge1" class="edge">
<title>SubstitutionGroup&#45;&gt;nc:StateCode</title>
<path fill="none" stroke="#000000" d="M65,-50.9163C65,-42.4809 65,-32.7214 65,-25.1501"/>
<polygon fill="#000000" stroke="#000000" points="61.5001,-50.9472 65,-60.9473 68.5001,-50.9473 61.5001,-50.9472"/>
<text text-anchor="middle" x="55.5" y="-39.9" font-family="Helvetica,sans-Serif" font-size="12.00" fill="#000000">substitution group</text>
</g>
</g>
</svg>
