<?xml version="1.0" encoding="UTF-8" standalone="no"?>
<!DOCTYPE svg PUBLIC "-//W3C//DTD SVG 1.1//EN"
 "http://www.w3.org/Graphics/SVG/1.1/DTD/svg11.dtd">
<!-- Generated by graphviz version 2.40.1 (20161225.0304)
 -->
<!-- Title: graphic Pages: 1 -->
<svg width="592pt" height="45pt"
 viewBox="0.00 0.00 592.00 45.00" xmlns="http://www.w3.org/2000/svg" xmlns:xlink="http://www.w3.org/1999/xlink">
<g id="graph0" class="graph" transform="scale(1 1) rotate(0) translate(4 41)">
<title>graphic</title>
<polygon fill="#ffffff" stroke="transparent" points="-4,4 -4,-41 588,-41 588,4 -4,4"/>
<!-- stat:ProcessOutput -->
<g id="node1" class="node">
<title>stat:ProcessOutput</title>
<text text-anchor="start" x="274" y="-21.4" font-family="Helvetica,sans-Serif" font-weight="bold" font-size="12.00" fill="#000000">stat:ProcessOutput</text>
<polygon fill="none" stroke="#ff0000" stroke-width="5" points="270.5,-14 270.5,-34 389.5,-34 389.5,-14 270.5,-14"/>
</g>
<!-- stat:ProcessOutputType -->
<g id="node3" class="node">
<title>stat:ProcessOutputType</title>
<g id="a_node3_0"><a xlink:href="../../stat/ProcessOutputType/#diagram" xlink:title="A data type for any instance of an information object which is produced by a process step as a result of its execution." target="_top">
<text text-anchor="start" x="453.5" y="-20.4" font-family="Helvetica,sans-Serif" font-size="12.00" fill="#000000">stat:ProcessOutputType</text>
</a>
</g>
<polygon fill="none" stroke="#000000" points="451,-15.5 451,-32.5 584,-32.5 584,-15.5 451,-15.5"/>
</g>
<!-- stat:ProcessOutput&#45;&gt;stat:ProcessOutputType -->
<g id="edge2" class="edge">
<title>stat:ProcessOutput&#45;&gt;stat:ProcessOutputType</title>
<path fill="none" stroke="#000000" d="M392.1743,-24C407.6523,-24 424.4303,-24 440.5263,-24"/>
<polygon fill="#000000" stroke="#000000" points="440.9847,-27.5001 450.9847,-24 440.9847,-20.5001 440.9847,-27.5001"/>
<text text-anchor="middle" x="421.5" y="-27.4" font-family="Helvetica,sans-Serif" font-size="12.00" fill="#000000">type</text>
</g>
<!-- Types -->
<g id="node2" class="node">
<title>Types</title>
<text text-anchor="start" x="2.5" y="-21.4" font-family="Helvetica,sans-Serif" font-weight="bold" font-size="12.00" fill="#000000">Types</text>
<g id="a_node2_1"><a xlink:href="../../stat/ProcessOutputSpecificationType/#diagram" xlink:title="A data type for a record of the types of outputs required for a process design." target="_top">
<polygon fill="#ebebeb" stroke="transparent" points="1.5,-1 1.5,-16 200.5,-16 200.5,-1 1.5,-1"/>
<text text-anchor="start" x="2.5" y="-5.4" font-family="Helvetica,sans-Serif" font-size="12.00" fill="#000000">stat:ProcessOutputSpecificationType</text>
</a>
</g>
<polygon fill="#000000" stroke="#000000" points=".5,-16 .5,-16 201.5,-16 201.5,-16 .5,-16"/>
<polygon fill="none" stroke="#000000" points="0,0 0,-32 201,-32 201,0 0,0"/>
</g>
<!-- Types&#45;&gt;stat:ProcessOutput -->
<g id="edge1" class="edge">
<title>Types:top&#45;&gt;stat:ProcessOutput</title>
<path fill="none" stroke="#000000" d="M200.5,-24C218.9955,-24 238.9768,-24 257.5792,-24"/>
<polygon fill="#000000" stroke="#000000" points="257.7537,-27.5001 267.7537,-24 257.7537,-20.5001 257.7537,-27.5001"/>
<text text-anchor="middle" x="234.5" y="-27.4" font-family="Helvetica,sans-Serif" font-size="12.00" fill="#000000">has&#45;a</text>
</g>
</g>
</svg>
