<?xml version="1.0" encoding="UTF-8" standalone="no"?>
<!DOCTYPE svg PUBLIC "-//W3C//DTD SVG 1.1//EN"
 "http://www.w3.org/Graphics/SVG/1.1/DTD/svg11.dtd">
<!-- Generated by graphviz version 2.40.1 (20161225.0304)
 -->
<!-- Title: graphic Pages: 1 -->
<svg width="581pt" height="45pt"
 viewBox="0.00 0.00 581.00 45.00" xmlns="http://www.w3.org/2000/svg" xmlns:xlink="http://www.w3.org/1999/xlink">
<g id="graph0" class="graph" transform="scale(1 1) rotate(0) translate(4 41)">
<title>graphic</title>
<polygon fill="#ffffff" stroke="transparent" points="-4,4 -4,-41 577,-41 577,4 -4,4"/>
<!-- scr:ASASubAgencyCodeText -->
<g id="node1" class="node">
<title>scr:ASASubAgencyCodeText</title>
<text text-anchor="start" x="268.5" y="-21.4" font-family="Helvetica,sans-Serif" font-weight="bold" font-size="12.00" fill="#000000">scr:ASASubAgencyCodeText</text>
<polygon fill="none" stroke="#ff0000" stroke-width="5" points="264.5,-14 264.5,-34 440.5,-34 440.5,-14 264.5,-14"/>
</g>
<!-- nc:TextType -->
<g id="node3" class="node">
<title>nc:TextType</title>
<g id="a_node3_0"><a xlink:href="../../nc/TextType/#diagram" xlink:title="A data type for a character string." target="_top">
<text text-anchor="start" x="504.5" y="-20.4" font-family="Helvetica,sans-Serif" font-size="12.00" fill="#000000">nc:TextType</text>
</a>
</g>
<polygon fill="none" stroke="#000000" points="502,-15.5 502,-32.5 573,-32.5 573,-15.5 502,-15.5"/>
</g>
<!-- scr:ASASubAgencyCodeText&#45;&gt;nc:TextType -->
<g id="edge2" class="edge">
<title>scr:ASASubAgencyCodeText&#45;&gt;nc:TextType</title>
<path fill="none" stroke="#000000" d="M443.1031,-24C459.8997,-24 476.7797,-24 491.5265,-24"/>
<polygon fill="#000000" stroke="#000000" points="491.8558,-27.5001 501.8558,-24 491.8558,-20.5001 491.8558,-27.5001"/>
<text text-anchor="middle" x="472.5" y="-27.4" font-family="Helvetica,sans-Serif" font-size="12.00" fill="#000000">type</text>
</g>
<!-- Types -->
<g id="node2" class="node">
<title>Types</title>
<text text-anchor="start" x="2.5" y="-21.4" font-family="Helvetica,sans-Serif" font-weight="bold" font-size="12.00" fill="#000000">Types</text>
<g id="a_node2_1"><a xlink:href="../../scr/ScreeningTECSRecordInfoType/#diagram" xlink:title="A data type for the Screening record information received from the CBP Traveler Encounter Compliance System (TECS)." target="_top">
<polygon fill="#ebebeb" stroke="transparent" points="1.5,-1 1.5,-16 194.5,-16 194.5,-1 1.5,-1"/>
<text text-anchor="start" x="2.5" y="-5.4" font-family="Helvetica,sans-Serif" font-size="12.00" fill="#000000">scr:ScreeningTECSRecordInfoType</text>
</a>
</g>
<polygon fill="#000000" stroke="#000000" points=".5,-16 .5,-16 195.5,-16 195.5,-16 .5,-16"/>
<polygon fill="none" stroke="#000000" points="0,0 0,-32 195,-32 195,0 0,0"/>
</g>
<!-- Types&#45;&gt;scr:ASASubAgencyCodeText -->
<g id="edge1" class="edge">
<title>Types:top&#45;&gt;scr:ASASubAgencyCodeText</title>
<path fill="none" stroke="#000000" d="M194.5,-24C212.9851,-24 232.6867,-24 251.6834,-24"/>
<polygon fill="#000000" stroke="#000000" points="251.8464,-27.5001 261.8464,-24 251.8464,-20.5001 251.8464,-27.5001"/>
<text text-anchor="middle" x="228.5" y="-27.4" font-family="Helvetica,sans-Serif" font-size="12.00" fill="#000000">has&#45;a</text>
</g>
</g>
</svg>
