<?xml version="1.0" encoding="UTF-8" standalone="no"?>
<!DOCTYPE svg PUBLIC "-//W3C//DTD SVG 1.1//EN"
 "http://www.w3.org/Graphics/SVG/1.1/DTD/svg11.dtd">
<!-- Generated by graphviz version 2.40.1 (20161225.0304)
 -->
<!-- Title: graphic Pages: 1 -->
<svg width="547pt" height="101pt"
 viewBox="0.00 0.00 547.00 101.00" xmlns="http://www.w3.org/2000/svg" xmlns:xlink="http://www.w3.org/1999/xlink">
<g id="graph0" class="graph" transform="scale(1 1) rotate(0) translate(4 97)">
<title>graphic</title>
<polygon fill="#ffffff" stroke="transparent" points="-4,4 -4,-97 543,-97 543,4 -4,4"/>
<!-- scr:TravelModeCategoryAbstract -->
<g id="node1" class="node">
<title>scr:TravelModeCategoryAbstract</title>
<text text-anchor="start" x="265" y="-77.4" font-family="Helvetica,sans-Serif" font-weight="bold" font-size="12.00" fill="#000000">scr:TravelModeCategoryAbstract</text>
<polygon fill="none" stroke="#ff0000" stroke-width="5" points="261.5,-70 261.5,-90 458.5,-90 458.5,-70 261.5,-70"/>
</g>
<!-- SubstitutableElements -->
<g id="node3" class="node">
<title>SubstitutableElements</title>
<text text-anchor="start" x="183" y="-21.4" font-family="Helvetica,sans-Serif" font-weight="bold" font-size="12.00" fill="#000000">Substitutable elements</text>
<g id="a_node3_0"><a xlink:href="../../scr/TravelModeCategoryCode/#diagram" xlink:title="A means of transport used by the alien." target="_top">
<polygon fill="#ebebeb" stroke="transparent" points="182,-1 182,-16 538,-16 538,-1 182,-1"/>
<text text-anchor="start" x="183" y="-5.4" font-family="Helvetica,sans-Serif" font-size="12.00" fill="#000000">scr:TravelModeCategoryCode: scr:TravelModeCategoryCodeType</text>
</a>
</g>
<polygon fill="#000000" stroke="#000000" points="181,-16 181,-16 539,-16 539,-16 181,-16"/>
<polygon fill="none" stroke="#000000" points="181,0 181,-32 539,-32 539,0 181,0"/>
</g>
<!-- scr:TravelModeCategoryAbstract&#45;&gt;SubstitutableElements -->
<g id="edge2" class="edge">
<title>scr:TravelModeCategoryAbstract&#45;&gt;SubstitutableElements</title>
<path fill="none" stroke="#000000" d="M360,-57.3063C360,-48.9972 360,-39.7712 360,-32.1499"/>
<polygon fill="#000000" stroke="#000000" points="356.5001,-57.4892 360,-67.4892 363.5001,-57.4892 356.5001,-57.4892"/>
<text text-anchor="middle" x="350.5" y="-46.65" font-family="Helvetica,sans-Serif" font-size="12.00" fill="#000000">substitutable for</text>
</g>
<!-- Types -->
<g id="node2" class="node">
<title>Types</title>
<text text-anchor="start" x="2" y="-77.4" font-family="Helvetica,sans-Serif" font-weight="bold" font-size="12.00" fill="#000000">Types</text>
<g id="a_node2_1"><a xlink:href="../../scr/TravelModeType/#diagram" xlink:title="A data type for the manner of transport used by a person during a person crossing the US Borders." target="_top">
<polygon fill="#ebebeb" stroke="transparent" points="1,-57 1,-72 113,-72 113,-57 1,-57"/>
<text text-anchor="start" x="2" y="-61.4" font-family="Helvetica,sans-Serif" font-size="12.00" fill="#000000">scr:TravelModeType</text>
</a>
</g>
<polygon fill="#000000" stroke="#000000" points="0,-72 0,-72 114,-72 114,-72 0,-72"/>
<polygon fill="none" stroke="#000000" points="0,-56 0,-88 114,-88 114,-56 0,-56"/>
</g>
<!-- Types&#45;&gt;scr:TravelModeCategoryAbstract -->
<g id="edge1" class="edge">
<title>Types:top&#45;&gt;scr:TravelModeCategoryAbstract</title>
<path fill="none" stroke="#000000" d="M113,-80C157.364,-80 206.2101,-80 248.6703,-80"/>
<polygon fill="#000000" stroke="#000000" points="248.7535,-83.5001 258.7535,-80 248.7534,-76.5001 248.7535,-83.5001"/>
<text text-anchor="middle" x="147.5" y="-83.4" font-family="Helvetica,sans-Serif" font-size="12.00" fill="#000000">has&#45;a</text>
</g>
</g>
</svg>
