<?xml version="1.0" encoding="UTF-8" standalone="no"?>
<!DOCTYPE svg PUBLIC "-//W3C//DTD SVG 1.1//EN"
 "http://www.w3.org/Graphics/SVG/1.1/DTD/svg11.dtd">
<!-- Generated by graphviz version 2.40.1 (20161225.0304)
 -->
<!-- Title: graphic Pages: 1 -->
<svg width="430pt" height="154pt"
 viewBox="0.00 0.00 430.00 153.50" xmlns="http://www.w3.org/2000/svg" xmlns:xlink="http://www.w3.org/1999/xlink">
<g id="graph0" class="graph" transform="scale(1 1) rotate(0) translate(4 149.5)">
<title>graphic</title>
<polygon fill="#ffffff" stroke="transparent" points="-4,4 -4,-149.5 426,-149.5 426,4 -4,4"/>
<!-- ndex:LivestockCategoryCodeType -->
<g id="node1" class="node">
<title>ndex:LivestockCategoryCodeType</title>
<text text-anchor="start" x="206.5" y="-25.4" font-family="Helvetica,sans-Serif" font-weight="bold" font-size="12.00" fill="#000000">ndex:LivestockCategoryCodeType</text>
<g id="a_node1_0"><a xlink:href="../../structures/SimpleObjectAttributeGroup/#diagram" xlink:title="A group of attributes that are applicable to objects, to be used when defining a complex type that is an extension of a simple type." target="_top">
<polygon fill="#ebebeb" stroke="transparent" points="205.5,-5 205.5,-20 413.5,-20 413.5,-5 205.5,-5"/>
<text text-anchor="start" x="206.5" y="-9.4" font-family="Helvetica,sans-Serif" font-size="12.00" fill="#000000">structures:SimpleObjectAttributeGroup</text>
</a>
</g>
<polygon fill="#ff0000" stroke="#ff0000" points="200.5,-20 200.5,-20 418.5,-20 418.5,-20 200.5,-20"/>
<polygon fill="none" stroke="#ff0000" stroke-width="5" points="203,-2.5 203,-37.5 416,-37.5 416,-2.5 203,-2.5"/>
</g>
<!-- Properties -->
<g id="node2" class="node">
<title>Properties</title>
<text text-anchor="start" x="2" y="-25.4" font-family="Helvetica,sans-Serif" font-weight="bold" font-size="12.00" fill="#000000">Properties</text>
<g id="a_node2_1"><a xlink:href="../../j/LivestockCategoryCode/#diagram" xlink:title="A kind of livestock/pet." target="_top">
<polygon fill="#ebebeb" stroke="transparent" points="1,-5 1,-20 137,-20 137,-5 1,-5"/>
<text text-anchor="start" x="2" y="-9.4" font-family="Helvetica,sans-Serif" font-size="12.00" fill="#000000">j:LivestockCategoryCode</text>
</a>
</g>
<polygon fill="#000000" stroke="#000000" points="0,-20 0,-20 138,-20 138,-20 0,-20"/>
<polygon fill="none" stroke="#000000" points="0,-4 0,-36 138,-36 138,-4 0,-4"/>
</g>
<!-- Properties&#45;&gt;ndex:LivestockCategoryCodeType -->
<g id="edge1" class="edge">
<title>Properties:top&#45;&gt;ndex:LivestockCategoryCodeType:top</title>
<path fill="none" stroke="#000000" d="M137,-28C163.7578,-28 172.8774,-28 195.3635,-28"/>
<polygon fill="#000000" stroke="#000000" points="195.5,-31.5001 205.5,-28 195.5,-24.5001 195.5,-31.5001"/>
<text text-anchor="middle" x="167.5" y="-31.4" font-family="Helvetica,sans-Serif" font-size="12.00" fill="#000000">type</text>
</g>
<!-- ndex:LivestockCategoryCodeSimpleType -->
<g id="node3" class="node">
<title>ndex:LivestockCategoryCodeSimpleType</title>
<g id="a_node3_2"><a xlink:href="../../ndex/LivestockCategoryCodeSimpleType/#diagram" xlink:title="A data type for a code that identifies a type of livestock/pet." target="_top">
<text text-anchor="start" x="199.5" y="-80.4" font-family="Helvetica,sans-Serif" font-size="12.00" fill="#000000">ndex:LivestockCategoryCodeSimpleType</text>
</a>
</g>
<polygon fill="none" stroke="#000000" points="197,-75.5 197,-92.5 422,-92.5 422,-75.5 197,-75.5"/>
</g>
<!-- ndex:LivestockCategoryCodeSimpleType&#45;&gt;ndex:LivestockCategoryCodeType -->
<g id="edge2" class="edge">
<title>ndex:LivestockCategoryCodeSimpleType&#45;&gt;ndex:LivestockCategoryCodeType</title>
<path fill="none" stroke="#000000" d="M309.5,-75.4351C309.5,-68.931 309.5,-59.5678 309.5,-50.3827"/>
<polygon fill="#000000" stroke="#000000" points="313.0001,-50.25 309.5,-40.25 306.0001,-50.25 313.0001,-50.25"/>
<text text-anchor="middle" x="300" y="-54.65" font-family="Helvetica,sans-Serif" font-size="12.00" fill="#000000">extension</text>
</g>
<!-- xs:token -->
<g id="node4" class="node">
<title>xs:token</title>
<g id="a_node4_3"><a xlink:href="../../xs/token/#diagram" xlink:title="&lt;TABLE&gt;" target="_top">
<text text-anchor="start" x="287.5" y="-133.4" font-family="Helvetica,sans-Serif" font-size="12.00" fill="#000000">xs:token</text>
</a>
</g>
<polygon fill="none" stroke="#000000" points="285,-128.5 285,-145.5 334,-145.5 334,-128.5 285,-128.5"/>
</g>
<!-- xs:token&#45;&gt;ndex:LivestockCategoryCodeSimpleType -->
<g id="edge3" class="edge">
<title>xs:token&#45;&gt;ndex:LivestockCategoryCodeSimpleType</title>
<path fill="none" stroke="#000000" d="M309.5,-128.411C309.5,-121.5124 309.5,-111.5696 309.5,-102.84"/>
<polygon fill="#000000" stroke="#000000" points="313.0001,-102.7518 309.5,-92.7519 306.0001,-102.7519 313.0001,-102.7518"/>
<text text-anchor="middle" x="300" y="-107.4" font-family="Helvetica,sans-Serif" font-size="12.00" fill="#000000">restriction</text>
</g>
</g>
</svg>
