<?xml version="1.0" encoding="UTF-8" standalone="no"?>
<!DOCTYPE svg PUBLIC "-//W3C//DTD SVG 1.1//EN"
 "http://www.w3.org/Graphics/SVG/1.1/DTD/svg11.dtd">
<!-- Generated by graphviz version 2.40.1 (20161225.0304)
 -->
<!-- Title: graphic Pages: 1 -->
<svg width="625pt" height="60pt"
 viewBox="0.00 0.00 625.00 59.50" xmlns="http://www.w3.org/2000/svg" xmlns:xlink="http://www.w3.org/1999/xlink">
<g id="graph0" class="graph" transform="scale(1 1) rotate(0) translate(4 55.5)">
<title>graphic</title>
<polygon fill="#ffffff" stroke="transparent" points="-4,4 -4,-55.5 621,-55.5 621,4 -4,4"/>
<!-- nc:PhysicalFeatureDescriptionText -->
<g id="node1" class="node">
<title>nc:PhysicalFeatureDescriptionText</title>
<text text-anchor="start" x="280.5" y="-35.9" font-family="Helvetica,sans-Serif" font-weight="bold" font-size="12.00" fill="#000000">nc:PhysicalFeatureDescriptionText</text>
<polygon fill="none" stroke="#ff0000" stroke-width="5" points="276.5,-28.5 276.5,-48.5 484.5,-48.5 484.5,-28.5 276.5,-28.5"/>
</g>
<!-- nc:TextType -->
<g id="node3" class="node">
<title>nc:TextType</title>
<g id="a_node3_0"><a xlink:href="../../nc/TextType/#diagram" xlink:title="A data type for a character string." target="_top">
<text text-anchor="start" x="548.5" y="-34.9" font-family="Helvetica,sans-Serif" font-size="12.00" fill="#000000">nc:TextType</text>
</a>
</g>
<polygon fill="none" stroke="#000000" points="546,-30 546,-47 617,-47 617,-30 546,-30"/>
</g>
<!-- nc:PhysicalFeatureDescriptionText&#45;&gt;nc:TextType -->
<g id="edge2" class="edge">
<title>nc:PhysicalFeatureDescriptionText&#45;&gt;nc:TextType</title>
<path fill="none" stroke="#000000" d="M487.1796,-38.5C504.2673,-38.5 521.1158,-38.5 535.7392,-38.5"/>
<polygon fill="#000000" stroke="#000000" points="535.9657,-42.0001 545.9657,-38.5 535.9657,-35.0001 535.9657,-42.0001"/>
<text text-anchor="middle" x="516.5" y="-41.9" font-family="Helvetica,sans-Serif" font-size="12.00" fill="#000000">type</text>
</g>
<!-- Types -->
<g id="node2" class="node">
<title>Types</title>
<text text-anchor="start" x="2.5" y="-35.9" font-family="Helvetica,sans-Serif" font-weight="bold" font-size="12.00" fill="#000000">Types</text>
<g id="a_node2_1"><a xlink:href="../../biom/PhysicalFeatureDescriptionType/#diagram" xlink:title="A data type for a description of a physical feature" target="_top">
<polygon fill="#ebebeb" stroke="transparent" points="1.5,-15.5 1.5,-30.5 206.5,-30.5 206.5,-15.5 1.5,-15.5"/>
<text text-anchor="start" x="2.5" y="-19.9" font-family="Helvetica,sans-Serif" font-size="12.00" fill="#000000">biom:PhysicalFeatureDescriptionType</text>
</a>
</g>
<g id="a_node2_2"><a xlink:href="../../nc/PhysicalFeatureType/#diagram" xlink:title="A data type for a prominent or easily identifiable aspect of something or someone." target="_top">
<text text-anchor="start" x="2.5" y="-4.9" font-family="Helvetica,sans-Serif" font-size="12.00" fill="#000000">nc:PhysicalFeatureType</text>
</a>
</g>
<polygon fill="#000000" stroke="#000000" points=".5,-30.5 .5,-30.5 207.5,-30.5 207.5,-30.5 .5,-30.5"/>
<polygon fill="none" stroke="#000000" points="0,0 0,-47 207,-47 207,0 0,0"/>
</g>
<!-- Types&#45;&gt;nc:PhysicalFeatureDescriptionText -->
<g id="edge1" class="edge">
<title>Types:top&#45;&gt;nc:PhysicalFeatureDescriptionText</title>
<path fill="none" stroke="#000000" d="M206.5,-38.5C224.9365,-38.5 244.4719,-38.5 263.5343,-38.5"/>
<polygon fill="#000000" stroke="#000000" points="263.7572,-42.0001 273.7572,-38.5 263.7572,-35.0001 263.7572,-42.0001"/>
<text text-anchor="middle" x="240.5" y="-41.9" font-family="Helvetica,sans-Serif" font-size="12.00" fill="#000000">has&#45;a</text>
</g>
</g>
</svg>
