<?xml version="1.0" encoding="UTF-8" standalone="no"?>
<!DOCTYPE svg PUBLIC "-//W3C//DTD SVG 1.1//EN"
 "http://www.w3.org/Graphics/SVG/1.1/DTD/svg11.dtd">
<!-- Generated by graphviz version 2.40.1 (20161225.0304)
 -->
<!-- Title: graphic Pages: 1 -->
<svg width="579pt" height="146pt"
 viewBox="0.00 0.00 579.00 146.00" xmlns="http://www.w3.org/2000/svg" xmlns:xlink="http://www.w3.org/1999/xlink">
<g id="graph0" class="graph" transform="scale(1 1) rotate(0) translate(4 142)">
<title>graphic</title>
<polygon fill="#ffffff" stroke="transparent" points="-4,4 -4,-142 575,-142 575,4 -4,4"/>
<!-- nc:CrossStreetType -->
<g id="node1" class="node">
<title>nc:CrossStreetType</title>
<text text-anchor="start" x="231" y="-69.9" font-family="Helvetica,sans-Serif" font-weight="bold" font-size="12.00" fill="#000000">nc:CrossStreetType</text>
<g id="a_node1_0"><a xlink:href="../../nc/CrossStreetDescriptionText/#diagram" xlink:title="A description of a street intersection." target="_top">
<polygon fill="#ebebeb" stroke="transparent" points="230,-49.5 230,-64.5 566,-64.5 566,-49.5 230,-49.5"/>
<text text-anchor="start" x="231" y="-53.9" font-family="Helvetica,sans-Serif" font-size="12.00" fill="#000000">nc:CrossStreetDescriptionText: nc:TextType [0&#45;n]</text>
</a>
</g>
<g id="a_node1_1"><a xlink:href="../../nc/CrossStreetRelativeLocation/#diagram" xlink:title="A location of something relative to a street intersection." target="_top">
<text text-anchor="start" x="231" y="-38.9" font-family="Helvetica,sans-Serif" font-size="12.00" fill="#000000">nc:CrossStreetRelativeLocation: nc:RelativeLocationType [0&#45;n]</text>
</a>
</g>
<g id="a_node1_2"><a xlink:href="../../nc/AddressStreet/#diagram" xlink:title="A road, thoroughfare or highway." target="_top">
<polygon fill="#ebebeb" stroke="transparent" points="230,-19.5 230,-34.5 566,-34.5 566,-19.5 230,-19.5"/>
<text text-anchor="start" x="231" y="-23.9" font-family="Helvetica,sans-Serif" font-size="12.00" fill="#000000">nc:AddressStreet: nc:StreetType [0&#45;n]</text>
</a>
</g>
<g id="a_node1_3"><a xlink:href="../../nc/CrossStreetAugmentationPoint/#diagram" xlink:title="An augmentation point for CrossStreetType." target="_top">
<text text-anchor="start" x="231" y="-8.9" font-family="Helvetica,sans-Serif" font-size="12.00" fill="#000000">nc:CrossStreetAugmentationPoint [0&#45;n]</text>
</a>
</g>
<polygon fill="#ff0000" stroke="#ff0000" points="225,-64.5 225,-64.5 571,-64.5 571,-64.5 225,-64.5"/>
<polygon fill="none" stroke="#ff0000" stroke-width="5" points="227.5,-2.5 227.5,-82.5 568.5,-82.5 568.5,-2.5 227.5,-2.5"/>
</g>
<!-- Properties -->
<g id="node2" class="node">
<title>Properties</title>
<text text-anchor="start" x="2" y="-69.9" font-family="Helvetica,sans-Serif" font-weight="bold" font-size="12.00" fill="#000000">Properties</text>
<g id="a_node2_4"><a xlink:href="../../st/LocationRoadCrossingPoint/#diagram" xlink:title="A Location of the center of the junction on the first intersecting route (e.g. route&#45;milepost). Note that if the Junction File is a spatial data file, this would be the coordinates and would be the same for all crossing roads" target="_top">
<polygon fill="#ebebeb" stroke="transparent" points="1,-49.5 1,-64.5 165,-64.5 165,-49.5 1,-49.5"/>
<text text-anchor="start" x="2" y="-53.9" font-family="Helvetica,sans-Serif" font-size="12.00" fill="#000000">st:LocationRoadCrossingPoint</text>
</a>
</g>
<g id="a_node2_5"><a xlink:href="../../nc/AddressCrossStreet/#diagram" xlink:title="A location identified by two or more streets which intersect." target="_top">
<text text-anchor="start" x="2" y="-38.9" font-family="Helvetica,sans-Serif" font-size="12.00" fill="#000000">nc:AddressCrossStreet</text>
</a>
</g>
<polygon fill="#000000" stroke="#000000" points="0,-64.5 0,-64.5 166,-64.5 166,-64.5 0,-64.5"/>
<polygon fill="none" stroke="#000000" points="0,-34 0,-81 166,-81 166,-34 0,-34"/>
</g>
<!-- Properties&#45;&gt;nc:CrossStreetType -->
<g id="edge1" class="edge">
<title>Properties:top&#45;&gt;nc:CrossStreetType:top</title>
<path fill="none" stroke="#000000" d="M165,-72.5C190.1649,-72.5 198.8891,-72.5 219.8154,-72.5"/>
<polygon fill="#000000" stroke="#000000" points="220,-76.0001 230,-72.5 220,-69.0001 220,-76.0001"/>
<text text-anchor="middle" x="195.5" y="-75.9" font-family="Helvetica,sans-Serif" font-size="12.00" fill="#000000">type</text>
</g>
<!-- structures:ObjectType -->
<g id="node3" class="node">
<title>structures:ObjectType</title>
<g id="a_node3_6"><a xlink:href="../../structures/ObjectType/#diagram" xlink:title="A data type for a thing with its own lifespan that has some existence." target="_top">
<text text-anchor="start" x="339" y="-125.9" font-family="Helvetica,sans-Serif" font-size="12.00" fill="#000000">structures:ObjectType</text>
</a>
</g>
<polygon fill="none" stroke="#000000" points="337,-121 337,-138 459,-138 459,-121 337,-121"/>
</g>
<!-- structures:ObjectType&#45;&gt;nc:CrossStreetType -->
<g id="edge2" class="edge">
<title>structures:ObjectType&#45;&gt;nc:CrossStreetType</title>
<path fill="none" stroke="#000000" d="M398,-120.9761C398,-114.614 398,-105.3292 398,-95.3557"/>
<polygon fill="#000000" stroke="#000000" points="401.5001,-95.2354 398,-85.2354 394.5001,-95.2354 401.5001,-95.2354"/>
<text text-anchor="middle" x="388.5" y="-99.9" font-family="Helvetica,sans-Serif" font-size="12.00" fill="#000000">extension</text>
</g>
</g>
</svg>
