<?xml version="1.0" encoding="UTF-8" standalone="no"?>
<!DOCTYPE svg PUBLIC "-//W3C//DTD SVG 1.1//EN"
 "http://www.w3.org/Graphics/SVG/1.1/DTD/svg11.dtd">
<!-- Generated by graphviz version 2.40.1 (20161225.0304)
 -->
<!-- Title: graphic Pages: 1 -->
<svg width="321pt" height="154pt"
 viewBox="0.00 0.00 321.00 153.50" xmlns="http://www.w3.org/2000/svg" xmlns:xlink="http://www.w3.org/1999/xlink">
<g id="graph0" class="graph" transform="scale(1 1) rotate(0) translate(4 149.5)">
<title>graphic</title>
<polygon fill="#ffffff" stroke="transparent" points="-4,4 -4,-149.5 317,-149.5 317,4 -4,4"/>
<!-- biom:SubjectDNARecordsAvailableCodeSimpleType -->
<g id="node1" class="node">
<title>biom:SubjectDNARecordsAvailableCodeSimpleType</title>
<text text-anchor="start" x="6.5" y="-77.4" font-family="Helvetica,sans-Serif" font-weight="bold" font-size="12.00" fill="#000000">biom:SubjectDNARecordsAvailableCodeSimpleType</text>
<polygon fill="none" stroke="#ff0000" stroke-width="5" points="2.5,-70 2.5,-90 310.5,-90 310.5,-70 2.5,-70"/>
</g>
<!-- DerivedTypes -->
<g id="node2" class="node">
<title>DerivedTypes</title>
<text text-anchor="start" x="34.5" y="-21.4" font-family="Helvetica,sans-Serif" font-weight="bold" font-size="12.00" fill="#000000">Derived types</text>
<g id="a_node2_0"><a xlink:href="../../biom/SubjectDNARecordsAvailableCodeType/#diagram" xlink:title="A data type for a single letter for DNA records are available for the subject or not" target="_top">
<polygon fill="#ebebeb" stroke="transparent" points="33.5,-1 33.5,-16 279.5,-16 279.5,-1 33.5,-1"/>
<text text-anchor="start" x="34.5" y="-5.4" font-family="Helvetica,sans-Serif" font-size="12.00" fill="#000000">biom:SubjectDNARecordsAvailableCodeType</text>
</a>
</g>
<polygon fill="#000000" stroke="#000000" points="32.5,-16 32.5,-16 280.5,-16 280.5,-16 32.5,-16"/>
<polygon fill="none" stroke="#000000" points="32.5,0 32.5,-32 280.5,-32 280.5,0 32.5,0"/>
</g>
<!-- biom:SubjectDNARecordsAvailableCodeSimpleType&#45;&gt;DerivedTypes -->
<g id="edge1" class="edge">
<title>biom:SubjectDNARecordsAvailableCodeSimpleType&#45;&gt;DerivedTypes</title>
<path fill="none" stroke="#000000" d="M156.5,-67.4892C156.5,-60.3101 156.5,-51.0172 156.5,-42.306"/>
<polygon fill="#000000" stroke="#000000" points="160.0001,-42.1499 156.5,-32.1499 153.0001,-42.1499 160.0001,-42.1499"/>
<text text-anchor="middle" x="147" y="-46.65" font-family="Helvetica,sans-Serif" font-size="12.00" fill="#000000">derived</text>
</g>
<!-- xs:token -->
<g id="node3" class="node">
<title>xs:token</title>
<g id="a_node3_1"><a xlink:href="../../xs/token/#diagram" xlink:title="&lt;TABLE&gt;" target="_top">
<text text-anchor="start" x="134.5" y="-133.4" font-family="Helvetica,sans-Serif" font-size="12.00" fill="#000000">xs:token</text>
</a>
</g>
<polygon fill="none" stroke="#000000" points="132,-128.5 132,-145.5 181,-145.5 181,-128.5 132,-128.5"/>
</g>
<!-- xs:token&#45;&gt;biom:SubjectDNARecordsAvailableCodeSimpleType -->
<g id="edge2" class="edge">
<title>xs:token&#45;&gt;biom:SubjectDNARecordsAvailableCodeSimpleType</title>
<path fill="none" stroke="#000000" d="M156.5,-128.4473C156.5,-121.6242 156.5,-111.7417 156.5,-102.6794"/>
<polygon fill="#000000" stroke="#000000" points="160.0001,-102.6501 156.5,-92.6501 153.0001,-102.6502 160.0001,-102.6501"/>
<text text-anchor="middle" x="147" y="-107.4" font-family="Helvetica,sans-Serif" font-size="12.00" fill="#000000">restriction</text>
</g>
</g>
</svg>
