<?xml version="1.0" encoding="UTF-8" standalone="no"?>
<!DOCTYPE svg PUBLIC "-//W3C//DTD SVG 1.1//EN"
 "http://www.w3.org/Graphics/SVG/1.1/DTD/svg11.dtd">
<!-- Generated by graphviz version 2.40.1 (20161225.0304)
 -->
<!-- Title: graphic Pages: 1 -->
<svg width="683pt" height="98pt"
 viewBox="0.00 0.00 683.00 97.50" xmlns="http://www.w3.org/2000/svg" xmlns:xlink="http://www.w3.org/1999/xlink">
<g id="graph0" class="graph" transform="scale(1 1) rotate(0) translate(4 93.5)">
<title>graphic</title>
<polygon fill="#ffffff" stroke="transparent" points="-4,4 -4,-93.5 679,-93.5 679,4 -4,4"/>
<!-- cbrn:ConveyanceColorPrimaryCode -->
<g id="node1" class="node">
<title>cbrn:ConveyanceColorPrimaryCode</title>
<text text-anchor="start" x="212.5" y="-21.4" font-family="Helvetica,sans-Serif" font-weight="bold" font-size="12.00" fill="#000000">cbrn:ConveyanceColorPrimaryCode</text>
<polygon fill="none" stroke="#ff0000" stroke-width="5" points="208.5,-14 208.5,-34 422.5,-34 422.5,-14 208.5,-14"/>
</g>
<!-- cbrncl:ConveyanceColorCodeType -->
<g id="node4" class="node">
<title>cbrncl:ConveyanceColorCodeType</title>
<g id="a_node4_0"><a xlink:href="../../cbrncl/ConveyanceColorCodeType/#diagram" xlink:title="A data type for conveyance color codes." target="_top">
<text text-anchor="start" x="486.5" y="-20.4" font-family="Helvetica,sans-Serif" font-size="12.00" fill="#000000">cbrncl:ConveyanceColorCodeType</text>
</a>
</g>
<polygon fill="none" stroke="#000000" points="484,-15.5 484,-32.5 675,-32.5 675,-15.5 484,-15.5"/>
</g>
<!-- cbrn:ConveyanceColorPrimaryCode&#45;&gt;cbrncl:ConveyanceColorCodeType -->
<g id="edge3" class="edge">
<title>cbrn:ConveyanceColorPrimaryCode&#45;&gt;cbrncl:ConveyanceColorCodeType</title>
<path fill="none" stroke="#000000" d="M425.1663,-24C441.0872,-24 457.4546,-24 473.3055,-24"/>
<polygon fill="#000000" stroke="#000000" points="473.6373,-27.5001 483.6372,-24 473.6372,-20.5001 473.6373,-27.5001"/>
<text text-anchor="middle" x="454.5" y="-27.4" font-family="Helvetica,sans-Serif" font-size="12.00" fill="#000000">type</text>
</g>
<!-- Types -->
<g id="node2" class="node">
<title>Types</title>
<text text-anchor="start" x="2.5" y="-21.4" font-family="Helvetica,sans-Serif" font-weight="bold" font-size="12.00" fill="#000000">Types</text>
<g id="a_node2_1"><a xlink:href="../../it/ShippingContainerType/#diagram" xlink:title="A data type for a reusable container for transporting goods and materials." target="_top">
<polygon fill="#ebebeb" stroke="transparent" points="1.5,-1 1.5,-16 138.5,-16 138.5,-1 1.5,-1"/>
<text text-anchor="start" x="2.5" y="-5.4" font-family="Helvetica,sans-Serif" font-size="12.00" fill="#000000">it:ShippingContainerType</text>
</a>
</g>
<polygon fill="#000000" stroke="#000000" points=".5,-16 .5,-16 139.5,-16 139.5,-16 .5,-16"/>
<polygon fill="none" stroke="#000000" points="0,0 0,-32 139,-32 139,0 0,0"/>
</g>
<!-- Types&#45;&gt;cbrn:ConveyanceColorPrimaryCode -->
<g id="edge1" class="edge">
<title>Types:top&#45;&gt;cbrn:ConveyanceColorPrimaryCode</title>
<path fill="none" stroke="#000000" d="M138.5,-24C157.0791,-24 176.7553,-24 195.9739,-24"/>
<polygon fill="#000000" stroke="#000000" points="195.9741,-27.5001 205.9741,-24 195.974,-20.5001 195.9741,-27.5001"/>
<text text-anchor="middle" x="172.5" y="-27.4" font-family="Helvetica,sans-Serif" font-size="12.00" fill="#000000">has&#45;a</text>
</g>
<!-- SubstitutionGroup -->
<g id="node3" class="node">
<title>SubstitutionGroup</title>
<g id="a_node3_2"><a xlink:href="../../nc/ItemColorPrimaryAbstract/#diagram" xlink:title="A data concept for a primary color of an item." target="_top">
<text text-anchor="start" x="238.5" y="-77.4" font-family="Helvetica,sans-Serif" font-size="12.00" fill="#000000">nc:ItemColorPrimaryAbstract</text>
</a>
</g>
<polygon fill="none" stroke="#000000" points="236.5,-72.5 236.5,-89.5 394.5,-89.5 394.5,-72.5 236.5,-72.5"/>
</g>
<!-- SubstitutionGroup&#45;&gt;cbrn:ConveyanceColorPrimaryCode -->
<g id="edge2" class="edge">
<title>SubstitutionGroup&#45;&gt;cbrn:ConveyanceColorPrimaryCode</title>
<path fill="none" stroke="#000000" d="M315.5,-62.4163C315.5,-53.9809 315.5,-44.2214 315.5,-36.6501"/>
<polygon fill="#000000" stroke="#000000" points="312.0001,-62.4472 315.5,-72.4473 319.0001,-62.4473 312.0001,-62.4472"/>
<text text-anchor="middle" x="306" y="-51.4" font-family="Helvetica,sans-Serif" font-size="12.00" fill="#000000">substitution group</text>
</g>
</g>
</svg>
