<?xml version="1.0" encoding="UTF-8" standalone="no"?>
<!DOCTYPE svg PUBLIC "-//W3C//DTD SVG 1.1//EN"
 "http://www.w3.org/Graphics/SVG/1.1/DTD/svg11.dtd">
<!-- Generated by graphviz version 2.40.1 (20161225.0304)
 -->
<!-- Title: graphic Pages: 1 -->
<svg width="672pt" height="45pt"
 viewBox="0.00 0.00 672.00 45.00" xmlns="http://www.w3.org/2000/svg" xmlns:xlink="http://www.w3.org/1999/xlink">
<g id="graph0" class="graph" transform="scale(1 1) rotate(0) translate(4 41)">
<title>graphic</title>
<polygon fill="#ffffff" stroke="transparent" points="-4,4 -4,-41 668,-41 668,4 -4,4"/>
<!-- biom:MinutiaeLatentSubstrateDescriptionText -->
<g id="node1" class="node">
<title>biom:MinutiaeLatentSubstrateDescriptionText</title>
<text text-anchor="start" x="264" y="-21.4" font-family="Helvetica,sans-Serif" font-weight="bold" font-size="12.00" fill="#000000">biom:MinutiaeLatentSubstrateDescriptionText</text>
<polygon fill="none" stroke="#ff0000" stroke-width="5" points="260.5,-14 260.5,-34 531.5,-34 531.5,-14 260.5,-14"/>
</g>
<!-- nc:TextType -->
<g id="node3" class="node">
<title>nc:TextType</title>
<g id="a_node3_0"><a xlink:href="../../nc/TextType/#diagram" xlink:title="A data type for a character string." target="_top">
<text text-anchor="start" x="595.5" y="-20.4" font-family="Helvetica,sans-Serif" font-size="12.00" fill="#000000">nc:TextType</text>
</a>
</g>
<polygon fill="none" stroke="#000000" points="593,-15.5 593,-32.5 664,-32.5 664,-15.5 593,-15.5"/>
</g>
<!-- biom:MinutiaeLatentSubstrateDescriptionText&#45;&gt;nc:TextType -->
<g id="edge2" class="edge">
<title>biom:MinutiaeLatentSubstrateDescriptionText&#45;&gt;nc:TextType</title>
<path fill="none" stroke="#000000" d="M534.2685,-24C551.6888,-24 568.4243,-24 582.8323,-24"/>
<polygon fill="#000000" stroke="#000000" points="582.8887,-27.5001 592.8886,-24 582.8886,-20.5001 582.8887,-27.5001"/>
<text text-anchor="middle" x="563.5" y="-27.4" font-family="Helvetica,sans-Serif" font-size="12.00" fill="#000000">type</text>
</g>
<!-- Types -->
<g id="node2" class="node">
<title>Types</title>
<text text-anchor="start" x="2.5" y="-21.4" font-family="Helvetica,sans-Serif" font-weight="bold" font-size="12.00" fill="#000000">Types</text>
<g id="a_node2_1"><a xlink:href="../../biom/MinutiaeLatentSubstrateType/#diagram" xlink:title="A data type for a surface on which a friction ridge impression was deposited" target="_top">
<polygon fill="#ebebeb" stroke="transparent" points="1.5,-1 1.5,-16 190.5,-16 190.5,-1 1.5,-1"/>
<text text-anchor="start" x="2.5" y="-5.4" font-family="Helvetica,sans-Serif" font-size="12.00" fill="#000000">biom:MinutiaeLatentSubstrateType</text>
</a>
</g>
<polygon fill="#000000" stroke="#000000" points=".5,-16 .5,-16 191.5,-16 191.5,-16 .5,-16"/>
<polygon fill="none" stroke="#000000" points="0,0 0,-32 191,-32 191,0 0,0"/>
</g>
<!-- Types&#45;&gt;biom:MinutiaeLatentSubstrateDescriptionText -->
<g id="edge1" class="edge">
<title>Types:top&#45;&gt;biom:MinutiaeLatentSubstrateDescriptionText</title>
<path fill="none" stroke="#000000" d="M190.5,-24C209.0326,-24 228.5053,-24 247.7735,-24"/>
<polygon fill="#000000" stroke="#000000" points="247.8249,-27.5001 257.8249,-24 247.8248,-20.5001 247.8249,-27.5001"/>
<text text-anchor="middle" x="224.5" y="-27.4" font-family="Helvetica,sans-Serif" font-size="12.00" fill="#000000">has&#45;a</text>
</g>
</g>
</svg>
