<?xml version="1.0" encoding="UTF-8" standalone="no"?>
<!DOCTYPE svg PUBLIC "-//W3C//DTD SVG 1.1//EN"
 "http://www.w3.org/Graphics/SVG/1.1/DTD/svg11.dtd">
<!-- Generated by graphviz version 2.40.1 (20161225.0304)
 -->
<!-- Title: graphic Pages: 1 -->
<svg width="1272pt" height="195pt"
 viewBox="0.00 0.00 1272.00 195.00" xmlns="http://www.w3.org/2000/svg" xmlns:xlink="http://www.w3.org/1999/xlink">
<g id="graph0" class="graph" transform="scale(1 1) rotate(0) translate(4 191)">
<title>graphic</title>
<polygon fill="#ffffff" stroke="transparent" points="-4,4 -4,-191 1268,-191 1268,4 -4,4"/>
<!-- j:PreparingAgencyFinancialCompilationAssociationType -->
<g id="node1" class="node">
<title>j:PreparingAgencyFinancialCompilationAssociationType</title>
<text text-anchor="start" x="340" y="-66.9" font-family="Helvetica,sans-Serif" font-weight="bold" font-size="12.00" fill="#000000">j:PreparingAgencyFinancialCompilationAssociationType</text>
<g id="a_node1_0"><a xlink:href="../../j/FinancialCompilation/#diagram" xlink:title="A set of financial details for a person." target="_top">
<polygon fill="#ebebeb" stroke="transparent" points="339,-46.5 339,-61.5 741,-61.5 741,-46.5 339,-46.5"/>
<text text-anchor="start" x="340" y="-50.9" font-family="Helvetica,sans-Serif" font-size="12.00" fill="#000000">j:FinancialCompilation: j:FinancialCompilationType [0&#45;n]</text>
</a>
</g>
<g id="a_node1_1"><a xlink:href="../../nc/Organization/#diagram" xlink:title="A unit which conducts some sort of business or operations." target="_top">
<text text-anchor="start" x="340" y="-35.9" font-family="Helvetica,sans-Serif" font-size="12.00" fill="#000000">nc:Organization: nc:OrganizationType [0&#45;n]</text>
</a>
</g>
<g id="a_node1_2"><a xlink:href="../../j/PreparingAgencyFinancialCompilationAssociationAugmentationPoint/#diagram" xlink:title="An augmentation point for PreparingAgencyFinancialCompilationAssociationType." target="_top">
<polygon fill="#ebebeb" stroke="transparent" points="339,-16.5 339,-31.5 741,-31.5 741,-16.5 339,-16.5"/>
<text text-anchor="start" x="340" y="-20.9" font-family="Helvetica,sans-Serif" font-size="12.00" fill="#000000">j:PreparingAgencyFinancialCompilationAssociationAugmentationPoint [0&#45;n]</text>
</a>
</g>
<polygon fill="#ff0000" stroke="#ff0000" points="334,-61.5 334,-61.5 746,-61.5 746,-61.5 334,-61.5"/>
<polygon fill="none" stroke="#ff0000" stroke-width="5" points="336.5,-14 336.5,-79 743.5,-79 743.5,-14 336.5,-14"/>
</g>
<!-- subst_d12e17574 -->
<g id="node2" class="node">
<title>subst_d12e17574</title>
<g id="a_node2_3"><a xlink:href="../../nc/Organization/#diagram" xlink:title="&lt;TABLE&gt;" target="_top">
<text text-anchor="start" x="785.5" y="-35.9" font-family="Helvetica,sans-Serif" font-weight="bold" font-size="12.00" fill="#000000">Substitution group nc:Organization</text>
</a>
</g>
<g id="a_node2_4"><a xlink:href="../../hs/ChildSupportEnforcementOrganization/#diagram" xlink:title="An organization charged with enforcing child support." target="_top">
<polygon fill="#ebebeb" stroke="transparent" points="784.5,-15.5 784.5,-30.5 1263.5,-30.5 1263.5,-15.5 784.5,-15.5"/>
<text text-anchor="start" x="785.5" y="-19.9" font-family="Helvetica,sans-Serif" font-size="12.00" fill="#000000">hs:ChildSupportEnforcementOrganization: hs:ChildSupportEnforcementOrganizationType</text>
</a>
</g>
<g id="a_node2_5"><a xlink:href="../../hs/ChildWelfareOrganization/#diagram" xlink:title="An organization charged with protecting the welfare of children." target="_top">
<text text-anchor="start" x="785.5" y="-4.9" font-family="Helvetica,sans-Serif" font-size="12.00" fill="#000000">hs:ChildWelfareOrganization: nc:OrganizationType</text>
</a>
</g>
<polygon fill="#000000" stroke="#000000" points="783.5,-30.5 783.5,-30.5 1264.5,-30.5 1264.5,-30.5 783.5,-30.5"/>
<polygon fill="none" stroke="#000000" points="783,0 783,-47 1264,-47 1264,0 783,0"/>
</g>
<!-- j:PreparingAgencyFinancialCompilationAssociationType&#45;&gt;subst_d12e17574 -->
<g id="edge1" class="edge">
<title>j:PreparingAgencyFinancialCompilationAssociationType:e&#45;&gt;subst_d12e17574:w</title>
<path fill="none" stroke="#000000" d="M751.2295,-38.5C762.8951,-38.5 769.0938,-38.5 784.5,-38.5"/>
<polygon fill="#000000" stroke="#000000" points="751,-35.0001 741,-38.5 751,-42.0001 751,-35.0001"/>
</g>
<!-- Properties -->
<g id="node3" class="node">
<title>Properties</title>
<text text-anchor="start" x="2.5" y="-66.9" font-family="Helvetica,sans-Serif" font-weight="bold" font-size="12.00" fill="#000000">Properties</text>
<g id="a_node3_6"><a xlink:href="../../j/PreparingAgencyFinancialCompilationAssociation/#diagram" xlink:title="A relationship between an organization and a financial compilation." target="_top">
<polygon fill="#ebebeb" stroke="transparent" points="1.5,-46.5 1.5,-61.5 274.5,-61.5 274.5,-46.5 1.5,-46.5"/>
<text text-anchor="start" x="2.5" y="-50.9" font-family="Helvetica,sans-Serif" font-size="12.00" fill="#000000">j:PreparingAgencyFinancialCompilationAssociation</text>
</a>
</g>
<polygon fill="#000000" stroke="#000000" points=".5,-61.5 .5,-61.5 275.5,-61.5 275.5,-61.5 .5,-61.5"/>
<polygon fill="none" stroke="#000000" points="0,-45.5 0,-77.5 275,-77.5 275,-45.5 0,-45.5"/>
</g>
<!-- Properties&#45;&gt;j:PreparingAgencyFinancialCompilationAssociationType -->
<g id="edge2" class="edge">
<title>Properties:top&#45;&gt;j:PreparingAgencyFinancialCompilationAssociationType:top</title>
<path fill="none" stroke="#000000" d="M274.5,-69.5C299.4714,-69.5 308.1284,-69.5 328.8937,-69.5"/>
<polygon fill="#000000" stroke="#000000" points="329,-73.0001 339,-69.5 329,-66.0001 329,-73.0001"/>
<text text-anchor="middle" x="304.5" y="-72.9" font-family="Helvetica,sans-Serif" font-size="12.00" fill="#000000">type</text>
</g>
<!-- nc:AssociationType -->
<g id="node4" class="node">
<title>nc:AssociationType</title>
<g id="a_node4_7"><a xlink:href="../../nc/AssociationType/#diagram" xlink:title="A data type for an association, connection, relationship, or involvement somehow linking people, things, and/or activities together." target="_top">
<text text-anchor="start" x="488" y="-121.9" font-family="Helvetica,sans-Serif" font-size="12.00" fill="#000000">nc:AssociationType</text>
</a>
</g>
<polygon fill="none" stroke="#000000" points="485.5,-117 485.5,-134 594.5,-134 594.5,-117 485.5,-117"/>
</g>
<!-- nc:AssociationType&#45;&gt;j:PreparingAgencyFinancialCompilationAssociationType -->
<g id="edge3" class="edge">
<title>nc:AssociationType&#45;&gt;j:PreparingAgencyFinancialCompilationAssociationType</title>
<path fill="none" stroke="#000000" d="M540,-116.9117C540,-110.6025 540,-101.4911 540,-91.9049"/>
<polygon fill="#000000" stroke="#000000" points="543.5001,-91.8408 540,-81.8408 536.5001,-91.8409 543.5001,-91.8408"/>
<text text-anchor="middle" x="530.5" y="-96.15" font-family="Helvetica,sans-Serif" font-size="12.00" fill="#000000">extension</text>
</g>
<!-- structures:AssociationType -->
<g id="node5" class="node">
<title>structures:AssociationType</title>
<g id="a_node5_8"><a xlink:href="../../structures/AssociationType/#diagram" xlink:title="A data type for a relationship between two or more objects, including any properties of that relationship." target="_top">
<text text-anchor="start" x="468" y="-174.9" font-family="Helvetica,sans-Serif" font-size="12.00" fill="#000000">structures:AssociationType</text>
</a>
</g>
<polygon fill="none" stroke="#000000" points="465.5,-170 465.5,-187 614.5,-187 614.5,-170 465.5,-170"/>
</g>
<!-- structures:AssociationType&#45;&gt;nc:AssociationType -->
<g id="edge4" class="edge">
<title>structures:AssociationType&#45;&gt;nc:AssociationType</title>
<path fill="none" stroke="#000000" d="M540,-169.911C540,-163.0124 540,-153.0696 540,-144.34"/>
<polygon fill="#000000" stroke="#000000" points="543.5001,-144.2518 540,-134.2519 536.5001,-144.2519 543.5001,-144.2518"/>
<text text-anchor="middle" x="530.5" y="-148.9" font-family="Helvetica,sans-Serif" font-size="12.00" fill="#000000">extension</text>
</g>
</g>
</svg>
