<?xml version="1.0" encoding="UTF-8" standalone="no"?>
<!DOCTYPE svg PUBLIC "-//W3C//DTD SVG 1.1//EN"
 "http://www.w3.org/Graphics/SVG/1.1/DTD/svg11.dtd">
<!-- Generated by graphviz version 2.40.1 (20161225.0304)
 -->
<!-- Title: graphic Pages: 1 -->
<svg width="446pt" height="101pt"
 viewBox="0.00 0.00 446.00 101.00" xmlns="http://www.w3.org/2000/svg" xmlns:xlink="http://www.w3.org/1999/xlink">
<g id="graph0" class="graph" transform="scale(1 1) rotate(0) translate(4 97)">
<title>graphic</title>
<polygon fill="#ffffff" stroke="transparent" points="-4,4 -4,-97 442,-97 442,4 -4,4"/>
<!-- nc:IncidentAugmentationPoint -->
<g id="node1" class="node">
<title>nc:IncidentAugmentationPoint</title>
<text text-anchor="start" x="210" y="-77.4" font-family="Helvetica,sans-Serif" font-weight="bold" font-size="12.00" fill="#000000">nc:IncidentAugmentationPoint</text>
<polygon fill="none" stroke="#ff0000" stroke-width="5" points="206,-70 206,-90 388,-90 388,-70 206,-70"/>
</g>
<!-- SubstitutableElements -->
<g id="node3" class="node">
<title>SubstitutableElements</title>
<text text-anchor="start" x="158" y="-21.4" font-family="Helvetica,sans-Serif" font-weight="bold" font-size="12.00" fill="#000000">Substitutable elements</text>
<g id="a_node3_0"><a xlink:href="../../j/IncidentAugmentation/#diagram" xlink:title="Additional information about an incident." target="_top">
<polygon fill="#ebebeb" stroke="transparent" points="157,-1 157,-16 437,-16 437,-1 157,-1"/>
<text text-anchor="start" x="158" y="-5.4" font-family="Helvetica,sans-Serif" font-size="12.00" fill="#000000">j:IncidentAugmentation: j:IncidentAugmentationType</text>
</a>
</g>
<polygon fill="#000000" stroke="#000000" points="156,-16 156,-16 438,-16 438,-16 156,-16"/>
<polygon fill="none" stroke="#000000" points="156,0 156,-32 438,-32 438,0 156,0"/>
</g>
<!-- nc:IncidentAugmentationPoint&#45;&gt;SubstitutableElements -->
<g id="edge2" class="edge">
<title>nc:IncidentAugmentationPoint&#45;&gt;SubstitutableElements</title>
<path fill="none" stroke="#000000" d="M297,-57.3063C297,-48.9972 297,-39.7712 297,-32.1499"/>
<polygon fill="#000000" stroke="#000000" points="293.5001,-57.4892 297,-67.4892 300.5001,-57.4892 293.5001,-57.4892"/>
<text text-anchor="middle" x="287.5" y="-46.65" font-family="Helvetica,sans-Serif" font-size="12.00" fill="#000000">substitutable for</text>
</g>
<!-- Types -->
<g id="node2" class="node">
<title>Types</title>
<text text-anchor="start" x="2.5" y="-77.4" font-family="Helvetica,sans-Serif" font-weight="bold" font-size="12.00" fill="#000000">Types</text>
<g id="a_node2_1"><a xlink:href="../../nc/IncidentType/#diagram" xlink:title="A data type for an occurrence or an event that may require a response." target="_top">
<polygon fill="#ebebeb" stroke="transparent" points="1.5,-57 1.5,-72 88.5,-72 88.5,-57 1.5,-57"/>
<text text-anchor="start" x="2.5" y="-61.4" font-family="Helvetica,sans-Serif" font-size="12.00" fill="#000000">nc:IncidentType</text>
</a>
</g>
<polygon fill="#000000" stroke="#000000" points=".5,-72 .5,-72 89.5,-72 89.5,-72 .5,-72"/>
<polygon fill="none" stroke="#000000" points="0,-56 0,-88 89,-88 89,-56 0,-56"/>
</g>
<!-- Types&#45;&gt;nc:IncidentAugmentationPoint -->
<g id="edge1" class="edge">
<title>Types:top&#45;&gt;nc:IncidentAugmentationPoint</title>
<path fill="none" stroke="#000000" d="M88.5,-80C122.5345,-80 159.6941,-80 193.0921,-80"/>
<polygon fill="#000000" stroke="#000000" points="193.3287,-83.5001 203.3286,-80 193.3286,-76.5001 193.3287,-83.5001"/>
<text text-anchor="middle" x="122.5" y="-83.4" font-family="Helvetica,sans-Serif" font-size="12.00" fill="#000000">has&#45;a</text>
</g>
</g>
</svg>
