<?xml version="1.0" encoding="UTF-8" standalone="no"?>
<!DOCTYPE svg PUBLIC "-//W3C//DTD SVG 1.1//EN"
 "http://www.w3.org/Graphics/SVG/1.1/DTD/svg11.dtd">
<!-- Generated by graphviz version 2.40.1 (20161225.0304)
 -->
<!-- Title: graphic Pages: 1 -->
<svg width="611pt" height="131pt"
 viewBox="0.00 0.00 611.00 130.50" xmlns="http://www.w3.org/2000/svg" xmlns:xlink="http://www.w3.org/1999/xlink">
<g id="graph0" class="graph" transform="scale(1 1) rotate(0) translate(4 126.5)">
<title>graphic</title>
<polygon fill="#ffffff" stroke="transparent" points="-4,4 -4,-126.5 607,-126.5 607,4 -4,4"/>
<!-- biom:FingerprintImageNISTQualityType -->
<g id="node1" class="node">
<title>biom:FingerprintImageNISTQualityType</title>
<text text-anchor="start" x="254.5" y="-55.4" font-family="Helvetica,sans-Serif" font-weight="bold" font-size="12.00" fill="#000000">biom:FingerprintImageNISTQualityType</text>
<g id="a_node1_0"><a xlink:href="../../biom/FingerPositionCode/#diagram" xlink:title="A finger position code" target="_top">
<polygon fill="#ebebeb" stroke="transparent" points="253.5,-35 253.5,-50 598.5,-50 598.5,-35 253.5,-35"/>
<text text-anchor="start" x="254.5" y="-39.4" font-family="Helvetica,sans-Serif" font-size="12.00" fill="#000000">biom:FingerPositionCode: biom:FingerPositionCodeType [0&#45;n]</text>
</a>
</g>
<g id="a_node1_1"><a xlink:href="../../biom/NISTQualityMeasure/#diagram" xlink:title="A value of a NIST Fingerprint Image Quality score, predicted matcher accuracy" target="_top">
<text text-anchor="start" x="254.5" y="-24.4" font-family="Helvetica,sans-Serif" font-size="12.00" fill="#000000">biom:NISTQualityMeasure: biom:NISTQualityMeasureType [0&#45;n]</text>
</a>
</g>
<g id="a_node1_2"><a xlink:href="../../biom/FingerprintImageNISTQualityAugmentationPoint/#diagram" xlink:title="An augmentation point for FingerprintImageNISTQualityType." target="_top">
<polygon fill="#ebebeb" stroke="transparent" points="253.5,-5 253.5,-20 598.5,-20 598.5,-5 253.5,-5"/>
<text text-anchor="start" x="254.5" y="-9.4" font-family="Helvetica,sans-Serif" font-size="12.00" fill="#000000">biom:FingerprintImageNISTQualityAugmentationPoint [0&#45;n]</text>
</a>
</g>
<polygon fill="#ff0000" stroke="#ff0000" points="248.5,-50 248.5,-50 603.5,-50 603.5,-50 248.5,-50"/>
<polygon fill="none" stroke="#ff0000" stroke-width="5" points="250.5,-2.5 250.5,-67.5 600.5,-67.5 600.5,-2.5 250.5,-2.5"/>
</g>
<!-- Properties -->
<g id="node2" class="node">
<title>Properties</title>
<text text-anchor="start" x="2.5" y="-55.4" font-family="Helvetica,sans-Serif" font-weight="bold" font-size="12.00" fill="#000000">Properties</text>
<g id="a_node2_3"><a xlink:href="../../biom/FingerprintImageNISTQuality/#diagram" xlink:title="A quality measure of a fingerprint, as defined by NIST" target="_top">
<polygon fill="#ebebeb" stroke="transparent" points="1.5,-35 1.5,-50 188.5,-50 188.5,-35 1.5,-35"/>
<text text-anchor="start" x="2.5" y="-39.4" font-family="Helvetica,sans-Serif" font-size="12.00" fill="#000000">biom:FingerprintImageNISTQuality</text>
</a>
</g>
<polygon fill="#000000" stroke="#000000" points=".5,-50 .5,-50 189.5,-50 189.5,-50 .5,-50"/>
<polygon fill="none" stroke="#000000" points="0,-34 0,-66 189,-66 189,-34 0,-34"/>
</g>
<!-- Properties&#45;&gt;biom:FingerprintImageNISTQualityType -->
<g id="edge1" class="edge">
<title>Properties:top&#45;&gt;biom:FingerprintImageNISTQualityType:top</title>
<path fill="none" stroke="#000000" d="M188.5,-58C213.6649,-58 222.3891,-58 243.3154,-58"/>
<polygon fill="#000000" stroke="#000000" points="243.5,-61.5001 253.5,-58 243.5,-54.5001 243.5,-61.5001"/>
<text text-anchor="middle" x="218.5" y="-61.4" font-family="Helvetica,sans-Serif" font-size="12.00" fill="#000000">type</text>
</g>
<!-- structures:ObjectType -->
<g id="node3" class="node">
<title>structures:ObjectType</title>
<g id="a_node3_4"><a xlink:href="../../structures/ObjectType/#diagram" xlink:title="A data type for a thing with its own lifespan that has some existence." target="_top">
<text text-anchor="start" x="366.5" y="-110.4" font-family="Helvetica,sans-Serif" font-size="12.00" fill="#000000">structures:ObjectType</text>
</a>
</g>
<polygon fill="none" stroke="#000000" points="364.5,-105.5 364.5,-122.5 486.5,-122.5 486.5,-105.5 364.5,-105.5"/>
</g>
<!-- structures:ObjectType&#45;&gt;biom:FingerprintImageNISTQualityType -->
<g id="edge2" class="edge">
<title>structures:ObjectType&#45;&gt;biom:FingerprintImageNISTQualityType</title>
<path fill="none" stroke="#000000" d="M425.5,-105.4117C425.5,-99.1025 425.5,-89.9911 425.5,-80.4049"/>
<polygon fill="#000000" stroke="#000000" points="429.0001,-80.3408 425.5,-70.3408 422.0001,-80.3409 429.0001,-80.3408"/>
<text text-anchor="middle" x="416" y="-84.65" font-family="Helvetica,sans-Serif" font-size="12.00" fill="#000000">extension</text>
</g>
</g>
</svg>
