<?xml version="1.0" encoding="UTF-8" standalone="no"?>
<!DOCTYPE svg PUBLIC "-//W3C//DTD SVG 1.1//EN"
 "http://www.w3.org/Graphics/SVG/1.1/DTD/svg11.dtd">
<!-- Generated by graphviz version 2.40.1 (20161225.0304)
 -->
<!-- Title: graphic Pages: 1 -->
<svg width="580pt" height="199pt"
 viewBox="0.00 0.00 580.00 199.00" xmlns="http://www.w3.org/2000/svg" xmlns:xlink="http://www.w3.org/1999/xlink">
<g id="graph0" class="graph" transform="scale(1 1) rotate(0) translate(4 195)">
<title>graphic</title>
<polygon fill="#ffffff" stroke="transparent" points="-4,4 -4,-195 576,-195 576,4 -4,4"/>
<!-- mo:AircraftTargetAssociationType -->
<g id="node1" class="node">
<title>mo:AircraftTargetAssociationType</title>
<text text-anchor="start" x="273.5" y="-69.9" font-family="Helvetica,sans-Serif" font-weight="bold" font-size="12.00" fill="#000000">mo:AircraftTargetAssociationType</text>
<g id="a_node1_0"><a xlink:href="../../mo/AircraftTargetRunInitialPoint/#diagram" xlink:title="A well&#45;defined point, easily distinguishable visually and/or electronically, used as a starting point for the bomb run to the target." target="_top">
<polygon fill="#ebebeb" stroke="transparent" points="272.5,-49.5 272.5,-64.5 567.5,-64.5 567.5,-49.5 272.5,-49.5"/>
<text text-anchor="start" x="273.5" y="-53.9" font-family="Helvetica,sans-Serif" font-size="12.00" fill="#000000">mo:AircraftTargetRunInitialPoint: nc:LocationType [0&#45;n]</text>
</a>
</g>
<g id="a_node1_1"><a xlink:href="../../nc/Aircraft/#diagram" xlink:title="A mode of transportation capable of flying in the air." target="_top">
<text text-anchor="start" x="273.5" y="-38.9" font-family="Helvetica,sans-Serif" font-size="12.00" fill="#000000">nc:Aircraft: nc:AircraftType [0&#45;n]</text>
</a>
</g>
<g id="a_node1_2"><a xlink:href="../../mo/Target/#diagram" xlink:title="A role of an entity or object considered for possible engagement or other action." target="_top">
<polygon fill="#ebebeb" stroke="transparent" points="272.5,-19.5 272.5,-34.5 567.5,-34.5 567.5,-19.5 272.5,-19.5"/>
<text text-anchor="start" x="273.5" y="-23.9" font-family="Helvetica,sans-Serif" font-size="12.00" fill="#000000">mo:Target: mo:TargetType [0&#45;n]</text>
</a>
</g>
<g id="a_node1_3"><a xlink:href="../../mo/AircraftTargetAssociationAugmentationPoint/#diagram" xlink:title="An augmentation point for type mo:AircraftTargetAssociationType" target="_top">
<text text-anchor="start" x="273.5" y="-8.9" font-family="Helvetica,sans-Serif" font-size="12.00" fill="#000000">mo:AircraftTargetAssociationAugmentationPoint [0&#45;n]</text>
</a>
</g>
<polygon fill="#ff0000" stroke="#ff0000" points="267.5,-64.5 267.5,-64.5 572.5,-64.5 572.5,-64.5 267.5,-64.5"/>
<polygon fill="none" stroke="#ff0000" stroke-width="5" points="269.5,-2.5 269.5,-82.5 569.5,-82.5 569.5,-2.5 269.5,-2.5"/>
</g>
<!-- Properties -->
<g id="node2" class="node">
<title>Properties</title>
<text text-anchor="start" x="2" y="-69.9" font-family="Helvetica,sans-Serif" font-weight="bold" font-size="12.00" fill="#000000">Properties</text>
<g id="a_node2_4"><a xlink:href="../../mo/AircraftAssignedTargetAssociation/#diagram" xlink:title="A relationship between an aircraft and a target." target="_top">
<polygon fill="#ebebeb" stroke="transparent" points="1,-49.5 1,-64.5 207,-64.5 207,-49.5 1,-49.5"/>
<text text-anchor="start" x="2" y="-53.9" font-family="Helvetica,sans-Serif" font-size="12.00" fill="#000000">mo:AircraftAssignedTargetAssociation</text>
</a>
</g>
<polygon fill="#000000" stroke="#000000" points="0,-64.5 0,-64.5 208,-64.5 208,-64.5 0,-64.5"/>
<polygon fill="none" stroke="#000000" points="0,-48.5 0,-80.5 208,-80.5 208,-48.5 0,-48.5"/>
</g>
<!-- Properties&#45;&gt;mo:AircraftTargetAssociationType -->
<g id="edge1" class="edge">
<title>Properties:top&#45;&gt;mo:AircraftTargetAssociationType:top</title>
<path fill="none" stroke="#000000" d="M207,-72.5C232.3585,-72.5 241.1498,-72.5 262.2371,-72.5"/>
<polygon fill="#000000" stroke="#000000" points="262.5,-76.0001 272.5,-72.5 262.5,-69.0001 262.5,-76.0001"/>
<text text-anchor="middle" x="237.5" y="-75.9" font-family="Helvetica,sans-Serif" font-size="12.00" fill="#000000">type</text>
</g>
<!-- nc:AssociationType -->
<g id="node3" class="node">
<title>nc:AssociationType</title>
<g id="a_node3_5"><a xlink:href="../../nc/AssociationType/#diagram" xlink:title="A data type for an association, connection, relationship, or involvement somehow linking people, things, and/or activities together." target="_top">
<text text-anchor="start" x="367.5" y="-125.9" font-family="Helvetica,sans-Serif" font-size="12.00" fill="#000000">nc:AssociationType</text>
</a>
</g>
<polygon fill="none" stroke="#000000" points="365,-121 365,-138 474,-138 474,-121 365,-121"/>
</g>
<!-- nc:AssociationType&#45;&gt;mo:AircraftTargetAssociationType -->
<g id="edge2" class="edge">
<title>nc:AssociationType&#45;&gt;mo:AircraftTargetAssociationType</title>
<path fill="none" stroke="#000000" d="M419.5,-120.9761C419.5,-114.614 419.5,-105.3292 419.5,-95.3557"/>
<polygon fill="#000000" stroke="#000000" points="423.0001,-95.2354 419.5,-85.2354 416.0001,-95.2354 423.0001,-95.2354"/>
<text text-anchor="middle" x="410" y="-99.9" font-family="Helvetica,sans-Serif" font-size="12.00" fill="#000000">extension</text>
</g>
<!-- structures:AssociationType -->
<g id="node4" class="node">
<title>structures:AssociationType</title>
<g id="a_node4_6"><a xlink:href="../../structures/AssociationType/#diagram" xlink:title="A data type for a relationship between two or more objects, including any properties of that relationship." target="_top">
<text text-anchor="start" x="347.5" y="-178.9" font-family="Helvetica,sans-Serif" font-size="12.00" fill="#000000">structures:AssociationType</text>
</a>
</g>
<polygon fill="none" stroke="#000000" points="345,-174 345,-191 494,-191 494,-174 345,-174"/>
</g>
<!-- structures:AssociationType&#45;&gt;nc:AssociationType -->
<g id="edge3" class="edge">
<title>structures:AssociationType&#45;&gt;nc:AssociationType</title>
<path fill="none" stroke="#000000" d="M419.5,-173.911C419.5,-167.0124 419.5,-157.0696 419.5,-148.34"/>
<polygon fill="#000000" stroke="#000000" points="423.0001,-148.2518 419.5,-138.2519 416.0001,-148.2519 423.0001,-148.2518"/>
<text text-anchor="middle" x="410" y="-152.9" font-family="Helvetica,sans-Serif" font-size="12.00" fill="#000000">extension</text>
</g>
</g>
</svg>
