<?xml version="1.0" encoding="UTF-8" standalone="no"?>
<!DOCTYPE svg PUBLIC "-//W3C//DTD SVG 1.1//EN"
 "http://www.w3.org/Graphics/SVG/1.1/DTD/svg11.dtd">
<!-- Generated by graphviz version 2.40.1 (20161225.0304)
 -->
<!-- Title: graphic Pages: 1 -->
<svg width="1405pt" height="410pt"
 viewBox="0.00 0.00 1405.00 409.50" xmlns="http://www.w3.org/2000/svg" xmlns:xlink="http://www.w3.org/1999/xlink">
<g id="graph0" class="graph" transform="scale(1 1) rotate(0) translate(4 405.5)">
<title>graphic</title>
<polygon fill="#ffffff" stroke="transparent" points="-4,4 -4,-405.5 1401,-405.5 1401,4 -4,4"/>
<!-- hs:JuvenileAggravatingMitigatingAssessmentType -->
<g id="node1" class="node">
<title>hs:JuvenileAggravatingMitigatingAssessmentType</title>
<text text-anchor="start" x="310" y="-175.4" font-family="Helvetica,sans-Serif" font-weight="bold" font-size="12.00" fill="#000000">hs:JuvenileAggravatingMitigatingAssessmentType</text>
<g id="a_node1_0"><a xlink:href="../../hs/DueDate/#diagram" xlink:title="A date something is due, not necessarily the date that something actually starts or ends." target="_top">
<polygon fill="#ebebeb" stroke="transparent" points="309,-155 309,-170 681,-170 681,-155 309,-155"/>
<text text-anchor="start" x="310" y="-159.4" font-family="Helvetica,sans-Serif" font-size="12.00" fill="#000000">hs:DueDate: nc:DateType [0&#45;n]</text>
</a>
</g>
<g id="a_node1_1"><a xlink:href="../../hs/AssessmentAppealedIndicator/#diagram" xlink:title="True if the assessment is appealed; false otherwise." target="_top">
<text text-anchor="start" x="310" y="-144.4" font-family="Helvetica,sans-Serif" font-size="12.00" fill="#000000">hs:AssessmentAppealedIndicator: niem&#45;xs:boolean [0&#45;n]</text>
</a>
</g>
<g id="a_node1_2"><a xlink:href="../../hs/JuvenileAggravatingMitigatingAssessmentCategoryAbstract/#diagram" xlink:title="A data concept for describing whether an assessment is for aggravating or mitigating actions, behaviors, or conditions." target="_top">
<polygon fill="#ebebeb" stroke="transparent" points="309,-125 309,-140 681,-140 681,-125 309,-125"/>
<text text-anchor="start" x="310" y="-129.4" font-family="Helvetica,sans-Serif" font-size="12.00" fill="#000000">hs:JuvenileAggravatingMitigatingAssessmentCategoryAbstract [0&#45;n]</text>
</a>
</g>
<g id="a_node1_3"><a xlink:href="../../hs/OffenderCulpabilityText/#diagram" xlink:title="A description of the offender&#39;s culpability." target="_top">
<text text-anchor="start" x="310" y="-114.4" font-family="Helvetica,sans-Serif" font-size="12.00" fill="#000000">hs:OffenderCulpabilityText: nc:TextType [0&#45;n]</text>
</a>
</g>
<g id="a_node1_4"><a xlink:href="../../hs/OffenseCharacteristicsText/#diagram" xlink:title="A description of the characteristics of the offense." target="_top">
<polygon fill="#ebebeb" stroke="transparent" points="309,-95 309,-110 681,-110 681,-95 309,-95"/>
<text text-anchor="start" x="310" y="-99.4" font-family="Helvetica,sans-Serif" font-size="12.00" fill="#000000">hs:OffenseCharacteristicsText: nc:TextType [0&#45;n]</text>
</a>
</g>
<g id="a_node1_5"><a xlink:href="../../hs/PeerInfluenceDescriptionText/#diagram" xlink:title="A description of the influence of peers on a person." target="_top">
<text text-anchor="start" x="310" y="-84.4" font-family="Helvetica,sans-Serif" font-size="12.00" fill="#000000">hs:PeerInfluenceDescriptionText: nc:TextType [0&#45;n]</text>
</a>
</g>
<g id="a_node1_6"><a xlink:href="../../hs/PendingCharge/#diagram" xlink:title="A charge that is pending." target="_top">
<polygon fill="#ebebeb" stroke="transparent" points="309,-65 309,-80 681,-80 681,-65 309,-65"/>
<text text-anchor="start" x="310" y="-69.4" font-family="Helvetica,sans-Serif" font-size="12.00" fill="#000000">hs:PendingCharge: j:ChargeType [0&#45;n]</text>
</a>
</g>
<g id="a_node1_7"><a xlink:href="../../hs/PerpetratorJuvenileRelationshipText/#diagram" xlink:title="A relationship of the perpetrator of an allegation to the juvenile." target="_top">
<text text-anchor="start" x="310" y="-54.4" font-family="Helvetica,sans-Serif" font-size="12.00" fill="#000000">hs:PerpetratorJuvenileRelationshipText: nc:TextType [0&#45;n]</text>
</a>
</g>
<g id="a_node1_8"><a xlink:href="../../hs/RemovalIndicator/#diagram" xlink:title="True if the child was removed; false otherwise." target="_top">
<polygon fill="#ebebeb" stroke="transparent" points="309,-35 309,-50 681,-50 681,-35 309,-35"/>
<text text-anchor="start" x="310" y="-39.4" font-family="Helvetica,sans-Serif" font-size="12.00" fill="#000000">hs:RemovalIndicator: niem&#45;xs:boolean [0&#45;n]</text>
</a>
</g>
<g id="a_node1_9"><a xlink:href="../../hs/VictimCircumstanceDescriptionText/#diagram" xlink:title="A description of the circumstances of a victim." target="_top">
<text text-anchor="start" x="310" y="-24.4" font-family="Helvetica,sans-Serif" font-size="12.00" fill="#000000">hs:VictimCircumstanceDescriptionText: nc:TextType [0&#45;n]</text>
</a>
</g>
<g id="a_node1_10"><a xlink:href="../../hs/JuvenileAggravatingMitigatingAssessmentAugmentationPoint/#diagram" xlink:title="An augmentation point for JuvenileAggravatingMitigatingAssessmentType." target="_top">
<polygon fill="#ebebeb" stroke="transparent" points="309,-5 309,-20 681,-20 681,-5 309,-5"/>
<text text-anchor="start" x="310" y="-9.4" font-family="Helvetica,sans-Serif" font-size="12.00" fill="#000000">hs:JuvenileAggravatingMitigatingAssessmentAugmentationPoint [0&#45;n]</text>
</a>
</g>
<polygon fill="#ff0000" stroke="#ff0000" points="304,-170 304,-170 686,-170 686,-170 304,-170"/>
<polygon fill="none" stroke="#ff0000" stroke-width="5" points="306.5,-2.5 306.5,-187.5 683.5,-187.5 683.5,-2.5 306.5,-2.5"/>
</g>
<!-- subst_d9e16714 -->
<g id="node2" class="node">
<title>subst_d9e16714</title>
<g id="a_node2_11"><a xlink:href="../../hs/JuvenileAggravatingMitigatingAssessmentCategoryAbstract/#diagram" xlink:title="&lt;TABLE&gt;" target="_top">
<text text-anchor="start" x="725" y="-130.4" font-family="Helvetica,sans-Serif" font-weight="bold" font-size="12.00" fill="#000000">Substitution group hs:JuvenileAggravatingMitigatingAssessmentCategoryAbstract</text>
</a>
</g>
<g id="a_node2_12"><a xlink:href="../../hs/JuvenileAggravatingMitigatingAssessmentCategoryCode/#diagram" xlink:title="An enumeration that specifies whether an assessment is for Aggravating or Mitigating actions, behaviors, or conditions." target="_top">
<polygon fill="#ebebeb" stroke="transparent" points="724,-110 724,-125 1396,-125 1396,-110 724,-110"/>
<text text-anchor="start" x="725" y="-114.4" font-family="Helvetica,sans-Serif" font-size="12.00" fill="#000000">hs:JuvenileAggravatingMitigatingAssessmentCategoryCode: hs:JuvenileAggravatingMitigatingAssessmentCategoryCodeType</text>
</a>
</g>
<g id="a_node2_13"><a xlink:href="../../hs/JuvenileAggravatingMitigatingAssessmentCategoryText/#diagram" xlink:title="A kind of assessment of a juvenile&#39;s aggravating or mitigating actions, behaviors, or other considerations." target="_top">
<text text-anchor="start" x="725" y="-99.4" font-family="Helvetica,sans-Serif" font-size="12.00" fill="#000000">hs:JuvenileAggravatingMitigatingAssessmentCategoryText: nc:TextType</text>
</a>
</g>
<polygon fill="#000000" stroke="#000000" points="723,-125 723,-125 1397,-125 1397,-125 723,-125"/>
<polygon fill="none" stroke="#000000" points="723,-94.5 723,-141.5 1397,-141.5 1397,-94.5 723,-94.5"/>
</g>
<!-- hs:JuvenileAggravatingMitigatingAssessmentType&#45;&gt;subst_d9e16714 -->
<g id="edge1" class="edge">
<title>hs:JuvenileAggravatingMitigatingAssessmentType:e&#45;&gt;subst_d9e16714:w</title>
<path fill="none" stroke="#000000" d="M691.1119,-133C702.6435,-133 708.7708,-133 724,-133"/>
<polygon fill="#000000" stroke="#000000" points="691,-129.5001 681,-133 691,-136.5001 691,-129.5001"/>
</g>
<!-- Properties -->
<g id="node3" class="node">
<title>Properties</title>
<text text-anchor="start" x="2.5" y="-175.4" font-family="Helvetica,sans-Serif" font-weight="bold" font-size="12.00" fill="#000000">Properties</text>
<g id="a_node3_14"><a xlink:href="../../hs/JuvenileAggravatingMitigatingAssessment/#diagram" xlink:title="An assessment of aggravating or mitigating actions, behavior, or other considerations." target="_top">
<polygon fill="#ebebeb" stroke="transparent" points="1.5,-155 1.5,-170 244.5,-170 244.5,-155 1.5,-155"/>
<text text-anchor="start" x="2.5" y="-159.4" font-family="Helvetica,sans-Serif" font-size="12.00" fill="#000000">hs:JuvenileAggravatingMitigatingAssessment</text>
</a>
</g>
<polygon fill="#000000" stroke="#000000" points=".5,-170 .5,-170 245.5,-170 245.5,-170 .5,-170"/>
<polygon fill="none" stroke="#000000" points="0,-154 0,-186 245,-186 245,-154 0,-154"/>
</g>
<!-- Properties&#45;&gt;hs:JuvenileAggravatingMitigatingAssessmentType -->
<g id="edge2" class="edge">
<title>Properties:top&#45;&gt;hs:JuvenileAggravatingMitigatingAssessmentType:top</title>
<path fill="none" stroke="#000000" d="M244.5,-178C269.4714,-178 278.1284,-178 298.8937,-178"/>
<polygon fill="#000000" stroke="#000000" points="299,-181.5001 309,-178 299,-174.5001 299,-181.5001"/>
<text text-anchor="middle" x="274.5" y="-181.4" font-family="Helvetica,sans-Serif" font-size="12.00" fill="#000000">type</text>
</g>
<!-- hs:JuvenileAssessmentType -->
<g id="node4" class="node">
<title>hs:JuvenileAssessmentType</title>
<g id="a_node4_15"><a xlink:href="../../hs/JuvenileAssessmentType/#diagram" xlink:title="A data type for a juvenile assessment." target="_top">
<text text-anchor="start" x="419" y="-230.4" font-family="Helvetica,sans-Serif" font-size="12.00" fill="#000000">hs:JuvenileAssessmentType</text>
</a>
</g>
<polygon fill="none" stroke="#000000" points="416.5,-225.5 416.5,-242.5 573.5,-242.5 573.5,-225.5 416.5,-225.5"/>
</g>
<!-- hs:JuvenileAssessmentType&#45;&gt;hs:JuvenileAggravatingMitigatingAssessmentType -->
<g id="edge3" class="edge">
<title>hs:JuvenileAssessmentType&#45;&gt;hs:JuvenileAggravatingMitigatingAssessmentType</title>
<path fill="none" stroke="#000000" d="M495,-225.3049C495,-219.2475 495,-210.4385 495,-200.2134"/>
<polygon fill="#000000" stroke="#000000" points="498.5001,-200.0195 495,-190.0195 491.5001,-200.0196 498.5001,-200.0195"/>
<text text-anchor="middle" x="485.5" y="-204.65" font-family="Helvetica,sans-Serif" font-size="12.00" fill="#000000">extension</text>
</g>
<!-- nc:AssessmentType -->
<g id="node5" class="node">
<title>nc:AssessmentType</title>
<g id="a_node5_16"><a xlink:href="../../nc/AssessmentType/#diagram" xlink:title="A data type for an evaluation, appraisal, or assessment of something or someone." target="_top">
<text text-anchor="start" x="441" y="-283.4" font-family="Helvetica,sans-Serif" font-size="12.00" fill="#000000">nc:AssessmentType</text>
</a>
</g>
<polygon fill="none" stroke="#000000" points="438.5,-278.5 438.5,-295.5 551.5,-295.5 551.5,-278.5 438.5,-278.5"/>
</g>
<!-- nc:AssessmentType&#45;&gt;hs:JuvenileAssessmentType -->
<g id="edge4" class="edge">
<title>nc:AssessmentType&#45;&gt;hs:JuvenileAssessmentType</title>
<path fill="none" stroke="#000000" d="M495,-278.411C495,-271.5124 495,-261.5696 495,-252.84"/>
<polygon fill="#000000" stroke="#000000" points="498.5001,-252.7518 495,-242.7519 491.5001,-252.7519 498.5001,-252.7518"/>
<text text-anchor="middle" x="485.5" y="-257.4" font-family="Helvetica,sans-Serif" font-size="12.00" fill="#000000">extension</text>
</g>
<!-- nc:ActivityType -->
<g id="node6" class="node">
<title>nc:ActivityType</title>
<g id="a_node6_17"><a xlink:href="../../nc/ActivityType/#diagram" xlink:title="A data type for a single or set of related actions, events, or process steps." target="_top">
<text text-anchor="start" x="455" y="-336.4" font-family="Helvetica,sans-Serif" font-size="12.00" fill="#000000">nc:ActivityType</text>
</a>
</g>
<polygon fill="none" stroke="#000000" points="452.5,-331.5 452.5,-348.5 537.5,-348.5 537.5,-331.5 452.5,-331.5"/>
</g>
<!-- nc:ActivityType&#45;&gt;nc:AssessmentType -->
<g id="edge5" class="edge">
<title>nc:ActivityType&#45;&gt;nc:AssessmentType</title>
<path fill="none" stroke="#000000" d="M495,-331.411C495,-324.5124 495,-314.5696 495,-305.84"/>
<polygon fill="#000000" stroke="#000000" points="498.5001,-305.7518 495,-295.7519 491.5001,-305.7519 498.5001,-305.7518"/>
<text text-anchor="middle" x="485.5" y="-310.4" font-family="Helvetica,sans-Serif" font-size="12.00" fill="#000000">extension</text>
</g>
<!-- structures:ObjectType -->
<g id="node7" class="node">
<title>structures:ObjectType</title>
<g id="a_node7_18"><a xlink:href="../../structures/ObjectType/#diagram" xlink:title="A data type for a thing with its own lifespan that has some existence." target="_top">
<text text-anchor="start" x="436" y="-389.4" font-family="Helvetica,sans-Serif" font-size="12.00" fill="#000000">structures:ObjectType</text>
</a>
</g>
<polygon fill="none" stroke="#000000" points="434,-384.5 434,-401.5 556,-401.5 556,-384.5 434,-384.5"/>
</g>
<!-- structures:ObjectType&#45;&gt;nc:ActivityType -->
<g id="edge6" class="edge">
<title>structures:ObjectType&#45;&gt;nc:ActivityType</title>
<path fill="none" stroke="#000000" d="M495,-384.411C495,-377.5124 495,-367.5696 495,-358.84"/>
<polygon fill="#000000" stroke="#000000" points="498.5001,-358.7518 495,-348.7519 491.5001,-358.7519 498.5001,-358.7518"/>
<text text-anchor="middle" x="485.5" y="-363.4" font-family="Helvetica,sans-Serif" font-size="12.00" fill="#000000">extension</text>
</g>
</g>
</svg>
