<?xml version="1.0" encoding="UTF-8" standalone="no"?>
<!DOCTYPE svg PUBLIC "-//W3C//DTD SVG 1.1//EN"
 "http://www.w3.org/Graphics/SVG/1.1/DTD/svg11.dtd">
<!-- Generated by graphviz version 2.40.1 (20161225.0304)
 -->
<!-- Title: graphic Pages: 1 -->
<svg width="204pt" height="154pt"
 viewBox="0.00 0.00 204.00 153.50" xmlns="http://www.w3.org/2000/svg" xmlns:xlink="http://www.w3.org/1999/xlink">
<g id="graph0" class="graph" transform="scale(1 1) rotate(0) translate(4 149.5)">
<title>graphic</title>
<polygon fill="#ffffff" stroke="transparent" points="-4,4 -4,-149.5 200,-149.5 200,4 -4,4"/>
<!-- ncic:ReferenceCodeSimpleType -->
<g id="node1" class="node">
<title>ncic:ReferenceCodeSimpleType</title>
<text text-anchor="start" x="6" y="-77.4" font-family="Helvetica,sans-Serif" font-weight="bold" font-size="12.00" fill="#000000">ncic:ReferenceCodeSimpleType</text>
<polygon fill="none" stroke="#ff0000" stroke-width="5" points="2.5,-70 2.5,-90 193.5,-90 193.5,-70 2.5,-70"/>
</g>
<!-- DerivedTypes -->
<g id="node2" class="node">
<title>DerivedTypes</title>
<text text-anchor="start" x="30" y="-21.4" font-family="Helvetica,sans-Serif" font-weight="bold" font-size="12.00" fill="#000000">Derived types</text>
<g id="a_node2_0"><a xlink:href="../../ncic/ReferenceCodeType/#diagram" xlink:title="A data type for 2.3: For Reference Only Country Codes" target="_top">
<polygon fill="#ebebeb" stroke="transparent" points="29,-1 29,-16 167,-16 167,-1 29,-1"/>
<text text-anchor="start" x="30" y="-5.4" font-family="Helvetica,sans-Serif" font-size="12.00" fill="#000000">ncic:ReferenceCodeType</text>
</a>
</g>
<polygon fill="#000000" stroke="#000000" points="28,-16 28,-16 168,-16 168,-16 28,-16"/>
<polygon fill="none" stroke="#000000" points="28,0 28,-32 168,-32 168,0 28,0"/>
</g>
<!-- ncic:ReferenceCodeSimpleType&#45;&gt;DerivedTypes -->
<g id="edge1" class="edge">
<title>ncic:ReferenceCodeSimpleType&#45;&gt;DerivedTypes</title>
<path fill="none" stroke="#000000" d="M98,-67.4892C98,-60.3101 98,-51.0172 98,-42.306"/>
<polygon fill="#000000" stroke="#000000" points="101.5001,-42.1499 98,-32.1499 94.5001,-42.1499 101.5001,-42.1499"/>
<text text-anchor="middle" x="88.5" y="-46.65" font-family="Helvetica,sans-Serif" font-size="12.00" fill="#000000">derived</text>
</g>
<!-- xs:token -->
<g id="node3" class="node">
<title>xs:token</title>
<g id="a_node3_1"><a xlink:href="../../xs/token/#diagram" xlink:title="&lt;TABLE&gt;" target="_top">
<text text-anchor="start" x="76" y="-133.4" font-family="Helvetica,sans-Serif" font-size="12.00" fill="#000000">xs:token</text>
</a>
</g>
<polygon fill="none" stroke="#000000" points="73.5,-128.5 73.5,-145.5 122.5,-145.5 122.5,-128.5 73.5,-128.5"/>
</g>
<!-- xs:token&#45;&gt;ncic:ReferenceCodeSimpleType -->
<g id="edge2" class="edge">
<title>xs:token&#45;&gt;ncic:ReferenceCodeSimpleType</title>
<path fill="none" stroke="#000000" d="M98,-128.4473C98,-121.6242 98,-111.7417 98,-102.6794"/>
<polygon fill="#000000" stroke="#000000" points="101.5001,-102.6501 98,-92.6501 94.5001,-102.6502 101.5001,-102.6501"/>
<text text-anchor="middle" x="88.5" y="-107.4" font-family="Helvetica,sans-Serif" font-size="12.00" fill="#000000">restriction</text>
</g>
</g>
</svg>
