<?xml version="1.0" encoding="UTF-8" standalone="no"?>
<!DOCTYPE svg PUBLIC "-//W3C//DTD SVG 1.1//EN"
 "http://www.w3.org/Graphics/SVG/1.1/DTD/svg11.dtd">
<!-- Generated by graphviz version 2.40.1 (20161225.0304)
 -->
<!-- Title: graphic Pages: 1 -->
<svg width="544pt" height="154pt"
 viewBox="0.00 0.00 544.00 153.50" xmlns="http://www.w3.org/2000/svg" xmlns:xlink="http://www.w3.org/1999/xlink">
<g id="graph0" class="graph" transform="scale(1 1) rotate(0) translate(4 149.5)">
<title>graphic</title>
<polygon fill="#ffffff" stroke="transparent" points="-4,4 -4,-149.5 540,-149.5 540,4 -4,4"/>
<!-- scr:PersonMedicalConditionCodeType -->
<g id="node1" class="node">
<title>scr:PersonMedicalConditionCodeType</title>
<text text-anchor="start" x="303" y="-25.4" font-family="Helvetica,sans-Serif" font-weight="bold" font-size="12.00" fill="#000000">scr:PersonMedicalConditionCodeType</text>
<g id="a_node1_0"><a xlink:href="../../structures/SimpleObjectAttributeGroup/#diagram" xlink:title="A group of attributes that are applicable to objects, to be used when defining a complex type that is an extension of a simple type." target="_top">
<polygon fill="#ebebeb" stroke="transparent" points="302,-5 302,-20 525,-20 525,-5 302,-5"/>
<text text-anchor="start" x="303" y="-9.4" font-family="Helvetica,sans-Serif" font-size="12.00" fill="#000000">structures:SimpleObjectAttributeGroup</text>
</a>
</g>
<polygon fill="#ff0000" stroke="#ff0000" points="297,-20 297,-20 530,-20 530,-20 297,-20"/>
<polygon fill="none" stroke="#ff0000" stroke-width="5" points="299,-2.5 299,-37.5 527,-37.5 527,-2.5 299,-2.5"/>
</g>
<!-- Properties -->
<g id="node2" class="node">
<title>Properties</title>
<text text-anchor="start" x="2.5" y="-25.4" font-family="Helvetica,sans-Serif" font-weight="bold" font-size="12.00" fill="#000000">Properties</text>
<g id="a_node2_1"><a xlink:href="../../scr/PersonMedicalConditionCategoryCode/#diagram" xlink:title="A kind of medical condition of a person." target="_top">
<polygon fill="#ebebeb" stroke="transparent" points="1.5,-5 1.5,-20 230.5,-20 230.5,-5 1.5,-5"/>
<text text-anchor="start" x="2.5" y="-9.4" font-family="Helvetica,sans-Serif" font-size="12.00" fill="#000000">scr:PersonMedicalConditionCategoryCode</text>
</a>
</g>
<polygon fill="#000000" stroke="#000000" points=".5,-20 .5,-20 231.5,-20 231.5,-20 .5,-20"/>
<polygon fill="none" stroke="#000000" points="0,-4 0,-36 231,-36 231,-4 0,-4"/>
</g>
<!-- Properties&#45;&gt;scr:PersonMedicalConditionCodeType -->
<g id="edge1" class="edge">
<title>Properties:top&#45;&gt;scr:PersonMedicalConditionCodeType:top</title>
<path fill="none" stroke="#000000" d="M230.5,-28C258.5538,-28 268.0329,-28 291.7333,-28"/>
<polygon fill="#000000" stroke="#000000" points="292,-31.5001 302,-28 292,-24.5001 292,-31.5001"/>
<text text-anchor="middle" x="260.5" y="-31.4" font-family="Helvetica,sans-Serif" font-size="12.00" fill="#000000">type</text>
</g>
<!-- scr:PersonMedicalConditionCodeSimpleType -->
<g id="node3" class="node">
<title>scr:PersonMedicalConditionCodeSimpleType</title>
<g id="a_node3_2"><a xlink:href="../../scr/PersonMedicalConditionCodeSimpleType/#diagram" xlink:title="A data type describing the kinds of medical conditions for a person involved in a screening activity" target="_top">
<text text-anchor="start" x="292" y="-80.4" font-family="Helvetica,sans-Serif" font-size="12.00" fill="#000000">scr:PersonMedicalConditionCodeSimpleType</text>
</a>
</g>
<polygon fill="none" stroke="#000000" points="290,-75.5 290,-92.5 536,-92.5 536,-75.5 290,-75.5"/>
</g>
<!-- scr:PersonMedicalConditionCodeSimpleType&#45;&gt;scr:PersonMedicalConditionCodeType -->
<g id="edge2" class="edge">
<title>scr:PersonMedicalConditionCodeSimpleType&#45;&gt;scr:PersonMedicalConditionCodeType</title>
<path fill="none" stroke="#000000" d="M413,-75.4351C413,-68.931 413,-59.5678 413,-50.3827"/>
<polygon fill="#000000" stroke="#000000" points="416.5001,-50.25 413,-40.25 409.5001,-50.25 416.5001,-50.25"/>
<text text-anchor="middle" x="403.5" y="-54.65" font-family="Helvetica,sans-Serif" font-size="12.00" fill="#000000">extension</text>
</g>
<!-- xs:token -->
<g id="node4" class="node">
<title>xs:token</title>
<g id="a_node4_3"><a xlink:href="../../xs/token/#diagram" xlink:title="&lt;TABLE&gt;" target="_top">
<text text-anchor="start" x="391" y="-133.4" font-family="Helvetica,sans-Serif" font-size="12.00" fill="#000000">xs:token</text>
</a>
</g>
<polygon fill="none" stroke="#000000" points="388.5,-128.5 388.5,-145.5 437.5,-145.5 437.5,-128.5 388.5,-128.5"/>
</g>
<!-- xs:token&#45;&gt;scr:PersonMedicalConditionCodeSimpleType -->
<g id="edge3" class="edge">
<title>xs:token&#45;&gt;scr:PersonMedicalConditionCodeSimpleType</title>
<path fill="none" stroke="#000000" d="M413,-128.411C413,-121.5124 413,-111.5696 413,-102.84"/>
<polygon fill="#000000" stroke="#000000" points="416.5001,-102.7518 413,-92.7519 409.5001,-102.7519 416.5001,-102.7518"/>
<text text-anchor="middle" x="403.5" y="-107.4" font-family="Helvetica,sans-Serif" font-size="12.00" fill="#000000">restriction</text>
</g>
</g>
</svg>
