<?xml version="1.0" encoding="UTF-8" standalone="no"?>
<!DOCTYPE svg PUBLIC "-//W3C//DTD SVG 1.1//EN"
 "http://www.w3.org/Graphics/SVG/1.1/DTD/svg11.dtd">
<!-- Generated by graphviz version 2.40.1 (20161225.0304)
 -->
<!-- Title: graphic Pages: 1 -->
<svg width="421pt" height="86pt"
 viewBox="0.00 0.00 421.00 86.00" xmlns="http://www.w3.org/2000/svg" xmlns:xlink="http://www.w3.org/1999/xlink">
<g id="graph0" class="graph" transform="scale(1 1) rotate(0) translate(4 82)">
<title>graphic</title>
<polygon fill="#ffffff" stroke="transparent" points="-4,4 -4,-82 417,-82 417,4 -4,4"/>
<!-- j:AlcoholTestResultCode -->
<g id="node1" class="node">
<title>j:AlcoholTestResultCode</title>
<text text-anchor="start" x="6.5" y="-9.9" font-family="Helvetica,sans-Serif" font-weight="bold" font-size="12.00" fill="#000000">j:AlcoholTestResultCode</text>
<polygon fill="none" stroke="#ff0000" stroke-width="5" points="2.5,-2.5 2.5,-22.5 152.5,-22.5 152.5,-2.5 2.5,-2.5"/>
</g>
<!-- mmucc:AlcoholTestResultCodeType -->
<g id="node3" class="node">
<title>mmucc:AlcoholTestResultCodeType</title>
<g id="a_node3_0"><a xlink:href="../../mmucc/AlcoholTestResultCodeType/#diagram" xlink:title="A data type for a status of BAC Test results." target="_top">
<text text-anchor="start" x="216.5" y="-8.9" font-family="Helvetica,sans-Serif" font-size="12.00" fill="#000000">mmucc:AlcoholTestResultCodeType</text>
</a>
</g>
<polygon fill="none" stroke="#000000" points="214,-4 214,-21 413,-21 413,-4 214,-4"/>
</g>
<!-- j:AlcoholTestResultCode&#45;&gt;mmucc:AlcoholTestResultCodeType -->
<g id="edge2" class="edge">
<title>j:AlcoholTestResultCode&#45;&gt;mmucc:AlcoholTestResultCodeType</title>
<path fill="none" stroke="#000000" d="M155.1021,-12.5C170.6778,-12.5 187.3214,-12.5 203.7508,-12.5"/>
<polygon fill="#000000" stroke="#000000" points="203.9412,-16.0001 213.9412,-12.5 203.9411,-9.0001 203.9412,-16.0001"/>
<text text-anchor="middle" x="184.5" y="-15.9" font-family="Helvetica,sans-Serif" font-size="12.00" fill="#000000">type</text>
</g>
<!-- SubstitutionGroup -->
<g id="node2" class="node">
<title>SubstitutionGroup</title>
<g id="a_node2_1"><a xlink:href="../../j/AlcoholTestResultAbstract/#diagram" xlink:title="A data concept for a status of BAC Test results." target="_top">
<text text-anchor="start" x="4.5" y="-65.9" font-family="Helvetica,sans-Serif" font-size="12.00" fill="#000000">j:AlcoholTestResultAbstract</text>
</a>
</g>
<polygon fill="none" stroke="#000000" points="2,-61 2,-78 153,-78 153,-61 2,-61"/>
</g>
<!-- SubstitutionGroup&#45;&gt;j:AlcoholTestResultCode -->
<g id="edge1" class="edge">
<title>SubstitutionGroup&#45;&gt;j:AlcoholTestResultCode</title>
<path fill="none" stroke="#000000" d="M77.5,-50.9163C77.5,-42.4809 77.5,-32.7214 77.5,-25.1501"/>
<polygon fill="#000000" stroke="#000000" points="74.0001,-50.9472 77.5,-60.9473 81.0001,-50.9473 74.0001,-50.9472"/>
<text text-anchor="middle" x="68" y="-39.9" font-family="Helvetica,sans-Serif" font-size="12.00" fill="#000000">substitution group</text>
</g>
</g>
</svg>
