<?xml version="1.0" encoding="UTF-8" standalone="no"?>
<!DOCTYPE svg PUBLIC "-//W3C//DTD SVG 1.1//EN"
 "http://www.w3.org/Graphics/SVG/1.1/DTD/svg11.dtd">
<!-- Generated by graphviz version 2.40.1 (20161225.0304)
 -->
<!-- Title: graphic Pages: 1 -->
<svg width="602pt" height="45pt"
 viewBox="0.00 0.00 602.00 45.00" xmlns="http://www.w3.org/2000/svg" xmlns:xlink="http://www.w3.org/1999/xlink">
<g id="graph0" class="graph" transform="scale(1 1) rotate(0) translate(4 41)">
<title>graphic</title>
<polygon fill="#ffffff" stroke="transparent" points="-4,4 -4,-41 598,-41 598,4 -4,4"/>
<!-- im:DeportationCompleteIndicator -->
<g id="node1" class="node">
<title>im:DeportationCompleteIndicator</title>
<text text-anchor="start" x="245.5" y="-21.4" font-family="Helvetica,sans-Serif" font-weight="bold" font-size="12.00" fill="#000000">im:DeportationCompleteIndicator</text>
<polygon fill="none" stroke="#ff0000" stroke-width="5" points="241.5,-14 241.5,-34 439.5,-34 439.5,-14 241.5,-14"/>
</g>
<!-- niem&#45;xs:boolean -->
<g id="node3" class="node">
<title>niem&#45;xs:boolean</title>
<g id="a_node3_0"><a xlink:href="../../niem-xs/boolean/#diagram" xlink:title="A data type for binary&#45;valued logic (true/false)." target="_top">
<text text-anchor="start" x="503.5" y="-20.4" font-family="Helvetica,sans-Serif" font-size="12.00" fill="#000000">niem&#45;xs:boolean</text>
</a>
</g>
<polygon fill="none" stroke="#000000" points="501,-15.5 501,-32.5 594,-32.5 594,-15.5 501,-15.5"/>
</g>
<!-- im:DeportationCompleteIndicator&#45;&gt;niem&#45;xs:boolean -->
<g id="edge2" class="edge">
<title>im:DeportationCompleteIndicator&#45;&gt;niem&#45;xs:boolean</title>
<path fill="none" stroke="#000000" d="M442.1807,-24C458.8786,-24 475.6396,-24 490.7245,-24"/>
<polygon fill="#000000" stroke="#000000" points="490.8789,-27.5001 500.8789,-24 490.8788,-20.5001 490.8789,-27.5001"/>
<text text-anchor="middle" x="471.5" y="-27.4" font-family="Helvetica,sans-Serif" font-size="12.00" fill="#000000">type</text>
</g>
<!-- Types -->
<g id="node2" class="node">
<title>Types</title>
<text text-anchor="start" x="2" y="-21.4" font-family="Helvetica,sans-Serif" font-weight="bold" font-size="12.00" fill="#000000">Types</text>
<g id="a_node2_1"><a xlink:href="../../im/ImmigrationDeportationType/#diagram" xlink:title="A data type that indicates if the Alien has been deported from the Country." target="_top">
<polygon fill="#ebebeb" stroke="transparent" points="1,-1 1,-16 171,-16 171,-1 1,-1"/>
<text text-anchor="start" x="2" y="-5.4" font-family="Helvetica,sans-Serif" font-size="12.00" fill="#000000">im:ImmigrationDeportationType</text>
</a>
</g>
<polygon fill="#000000" stroke="#000000" points="0,-16 0,-16 172,-16 172,-16 0,-16"/>
<polygon fill="none" stroke="#000000" points="0,0 0,-32 172,-32 172,0 0,0"/>
</g>
<!-- Types&#45;&gt;im:DeportationCompleteIndicator -->
<g id="edge1" class="edge">
<title>Types:top&#45;&gt;im:DeportationCompleteIndicator</title>
<path fill="none" stroke="#000000" d="M171,-24C189.669,-24 209.4945,-24 228.7569,-24"/>
<polygon fill="#000000" stroke="#000000" points="228.7695,-27.5001 238.7695,-24 228.7695,-20.5001 228.7695,-27.5001"/>
<text text-anchor="middle" x="205.5" y="-27.4" font-family="Helvetica,sans-Serif" font-size="12.00" fill="#000000">has&#45;a</text>
</g>
</g>
</svg>
