<?xml version="1.0" encoding="UTF-8" standalone="no"?>
<!DOCTYPE svg PUBLIC "-//W3C//DTD SVG 1.1//EN"
 "http://www.w3.org/Graphics/SVG/1.1/DTD/svg11.dtd">
<!-- Generated by graphviz version 2.40.1 (20161225.0304)
 -->
<!-- Title: graphic Pages: 1 -->
<svg width="370pt" height="207pt"
 viewBox="0.00 0.00 370.00 206.50" xmlns="http://www.w3.org/2000/svg" xmlns:xlink="http://www.w3.org/1999/xlink">
<g id="graph0" class="graph" transform="scale(1 1) rotate(0) translate(4 202.5)">
<title>graphic</title>
<polygon fill="#ffffff" stroke="transparent" points="-4,4 -4,-202.5 366,-202.5 366,4 -4,4"/>
<!-- stat:MaintainerType -->
<g id="node1" class="node">
<title>stat:MaintainerType</title>
<text text-anchor="start" x="148" y="-25.4" font-family="Helvetica,sans-Serif" font-weight="bold" font-size="12.00" fill="#000000">stat:MaintainerType</text>
<g id="a_node1_0"><a xlink:href="../../stat/MaintainerAugmentationPoint/#diagram" xlink:title="An augmentation point for type stat:MaintainerType" target="_top">
<polygon fill="#ebebeb" stroke="transparent" points="147,-5 147,-20 357,-20 357,-5 147,-5"/>
<text text-anchor="start" x="148" y="-9.4" font-family="Helvetica,sans-Serif" font-size="12.00" fill="#000000">stat:MaintainerAugmentationPoint [0&#45;n]</text>
</a>
</g>
<polygon fill="#ff0000" stroke="#ff0000" points="142,-20 142,-20 362,-20 362,-20 142,-20"/>
<polygon fill="none" stroke="#ff0000" stroke-width="5" points="144.5,-2.5 144.5,-37.5 359.5,-37.5 359.5,-2.5 144.5,-2.5"/>
</g>
<!-- Properties -->
<g id="node2" class="node">
<title>Properties</title>
<text text-anchor="start" x="2.5" y="-25.4" font-family="Helvetica,sans-Serif" font-weight="bold" font-size="12.00" fill="#000000">Properties</text>
<g id="a_node2_1"><a xlink:href="../../stat/Maintainer/#diagram" xlink:title="A unit or a group of persons within the organization responsible for managing an information object and its metadata e.g. adding, modifying or deleting metadata about an information object." target="_top">
<polygon fill="#ebebeb" stroke="transparent" points="1.5,-5 1.5,-20 82.5,-20 82.5,-5 1.5,-5"/>
<text text-anchor="start" x="2.5" y="-9.4" font-family="Helvetica,sans-Serif" font-size="12.00" fill="#000000">stat:Maintainer</text>
</a>
</g>
<polygon fill="#000000" stroke="#000000" points=".5,-20 .5,-20 83.5,-20 83.5,-20 .5,-20"/>
<polygon fill="none" stroke="#000000" points="0,-4 0,-36 83,-36 83,-4 0,-4"/>
</g>
<!-- Properties&#45;&gt;stat:MaintainerType -->
<g id="edge1" class="edge">
<title>Properties:top&#45;&gt;stat:MaintainerType:top</title>
<path fill="none" stroke="#000000" d="M82.5,-28C107.4714,-28 116.1284,-28 136.8937,-28"/>
<polygon fill="#000000" stroke="#000000" points="137,-31.5001 147,-28 137,-24.5001 137,-31.5001"/>
<text text-anchor="middle" x="112.5" y="-31.4" font-family="Helvetica,sans-Serif" font-size="12.00" fill="#000000">type</text>
</g>
<!-- stat:RoleType -->
<g id="node3" class="node">
<title>stat:RoleType</title>
<g id="a_node3_2"><a xlink:href="../../stat/RoleType/#diagram" xlink:title="A data type for a responsible function involved in the statistical business process." target="_top">
<text text-anchor="start" x="215" y="-80.4" font-family="Helvetica,sans-Serif" font-size="12.00" fill="#000000">stat:RoleType</text>
</a>
</g>
<polygon fill="none" stroke="#000000" points="212.5,-75.5 212.5,-92.5 291.5,-92.5 291.5,-75.5 212.5,-75.5"/>
</g>
<!-- stat:RoleType&#45;&gt;stat:MaintainerType -->
<g id="edge2" class="edge">
<title>stat:RoleType&#45;&gt;stat:MaintainerType</title>
<path fill="none" stroke="#000000" d="M252,-75.4351C252,-68.931 252,-59.5678 252,-50.3827"/>
<polygon fill="#000000" stroke="#000000" points="255.5001,-50.25 252,-40.25 248.5001,-50.25 255.5001,-50.25"/>
<text text-anchor="middle" x="242.5" y="-54.65" font-family="Helvetica,sans-Serif" font-size="12.00" fill="#000000">extension</text>
</g>
<!-- stat:IdentifiableArtifactType -->
<g id="node4" class="node">
<title>stat:IdentifiableArtifactType</title>
<g id="a_node4_3"><a xlink:href="../../stat/IdentifiableArtifactType/#diagram" xlink:title="A data type for an abstract class that comprises the basic attributes and associations needed for identification, naming and other documentation." target="_top">
<text text-anchor="start" x="180" y="-133.4" font-family="Helvetica,sans-Serif" font-size="12.00" fill="#000000">stat:IdentifiableArtifactType</text>
</a>
</g>
<polygon fill="none" stroke="#000000" points="177.5,-128.5 177.5,-145.5 326.5,-145.5 326.5,-128.5 177.5,-128.5"/>
</g>
<!-- stat:IdentifiableArtifactType&#45;&gt;stat:RoleType -->
<g id="edge3" class="edge">
<title>stat:IdentifiableArtifactType&#45;&gt;stat:RoleType</title>
<path fill="none" stroke="#000000" d="M252,-128.411C252,-121.5124 252,-111.5696 252,-102.84"/>
<polygon fill="#000000" stroke="#000000" points="255.5001,-102.7518 252,-92.7519 248.5001,-102.7519 255.5001,-102.7518"/>
<text text-anchor="middle" x="242.5" y="-107.4" font-family="Helvetica,sans-Serif" font-size="12.00" fill="#000000">extension</text>
</g>
<!-- structures:ObjectType -->
<g id="node5" class="node">
<title>structures:ObjectType</title>
<g id="a_node5_4"><a xlink:href="../../structures/ObjectType/#diagram" xlink:title="A data type for a thing with its own lifespan that has some existence." target="_top">
<text text-anchor="start" x="193" y="-186.4" font-family="Helvetica,sans-Serif" font-size="12.00" fill="#000000">structures:ObjectType</text>
</a>
</g>
<polygon fill="none" stroke="#000000" points="191,-181.5 191,-198.5 313,-198.5 313,-181.5 191,-181.5"/>
</g>
<!-- structures:ObjectType&#45;&gt;stat:IdentifiableArtifactType -->
<g id="edge4" class="edge">
<title>structures:ObjectType&#45;&gt;stat:IdentifiableArtifactType</title>
<path fill="none" stroke="#000000" d="M252,-181.411C252,-174.5124 252,-164.5696 252,-155.84"/>
<polygon fill="#000000" stroke="#000000" points="255.5001,-155.7518 252,-145.7519 248.5001,-155.7519 255.5001,-155.7518"/>
<text text-anchor="middle" x="242.5" y="-160.4" font-family="Helvetica,sans-Serif" font-size="12.00" fill="#000000">extension</text>
</g>
</g>
</svg>
