<?xml version="1.0" encoding="UTF-8" standalone="no"?>
<!DOCTYPE svg PUBLIC "-//W3C//DTD SVG 1.1//EN"
 "http://www.w3.org/Graphics/SVG/1.1/DTD/svg11.dtd">
<!-- Generated by graphviz version 2.40.1 (20161225.0304)
 -->
<!-- Title: graphic Pages: 1 -->
<svg width="485pt" height="98pt"
 viewBox="0.00 0.00 485.00 97.50" xmlns="http://www.w3.org/2000/svg" xmlns:xlink="http://www.w3.org/1999/xlink">
<g id="graph0" class="graph" transform="scale(1 1) rotate(0) translate(4 93.5)">
<title>graphic</title>
<polygon fill="#ffffff" stroke="transparent" points="-4,4 -4,-93.5 481,-93.5 481,4 -4,4"/>
<!-- nc:AddressDeliveryPointText -->
<g id="node1" class="node">
<title>nc:AddressDeliveryPointText</title>
<text text-anchor="start" x="173" y="-21.4" font-family="Helvetica,sans-Serif" font-weight="bold" font-size="12.00" fill="#000000">nc:AddressDeliveryPointText</text>
<polygon fill="none" stroke="#ff0000" stroke-width="5" points="169.5,-14 169.5,-34 344.5,-34 344.5,-14 169.5,-14"/>
</g>
<!-- nc:TextType -->
<g id="node4" class="node">
<title>nc:TextType</title>
<g id="a_node4_0"><a xlink:href="../../nc/TextType/#diagram" xlink:title="A data type for a character string." target="_top">
<text text-anchor="start" x="408.5" y="-20.4" font-family="Helvetica,sans-Serif" font-size="12.00" fill="#000000">nc:TextType</text>
</a>
</g>
<polygon fill="none" stroke="#000000" points="406,-15.5 406,-32.5 477,-32.5 477,-15.5 406,-15.5"/>
</g>
<!-- nc:AddressDeliveryPointText&#45;&gt;nc:TextType -->
<g id="edge3" class="edge">
<title>nc:AddressDeliveryPointText&#45;&gt;nc:TextType</title>
<path fill="none" stroke="#000000" d="M347.0881,-24C363.8705,-24 380.7485,-24 395.4985,-24"/>
<polygon fill="#000000" stroke="#000000" points="395.8309,-27.5001 405.8309,-24 395.8309,-20.5001 395.8309,-27.5001"/>
<text text-anchor="middle" x="376.5" y="-27.4" font-family="Helvetica,sans-Serif" font-size="12.00" fill="#000000">type</text>
</g>
<!-- Types -->
<g id="node2" class="node">
<title>Types</title>
<text text-anchor="start" x="2" y="-21.4" font-family="Helvetica,sans-Serif" font-weight="bold" font-size="12.00" fill="#000000">Types</text>
<g id="a_node2_1"><a xlink:href="../../it/TradePartyType/#diagram" xlink:title="A data type for information about a trading party." target="_top">
<polygon fill="#ebebeb" stroke="transparent" points="1,-1 1,-16 99,-16 99,-1 1,-1"/>
<text text-anchor="start" x="2" y="-5.4" font-family="Helvetica,sans-Serif" font-size="12.00" fill="#000000">it:TradePartyType</text>
</a>
</g>
<polygon fill="#000000" stroke="#000000" points="0,-16 0,-16 100,-16 100,-16 0,-16"/>
<polygon fill="none" stroke="#000000" points="0,0 0,-32 100,-32 100,0 0,0"/>
</g>
<!-- Types&#45;&gt;nc:AddressDeliveryPointText -->
<g id="edge1" class="edge">
<title>Types:top&#45;&gt;nc:AddressDeliveryPointText</title>
<path fill="none" stroke="#000000" d="M99,-24C117.6013,-24 137.4345,-24 156.5417,-24"/>
<polygon fill="#000000" stroke="#000000" points="156.7621,-27.5001 166.762,-24 156.762,-20.5001 156.7621,-27.5001"/>
<text text-anchor="middle" x="133.5" y="-27.4" font-family="Helvetica,sans-Serif" font-size="12.00" fill="#000000">has&#45;a</text>
</g>
<!-- SubstitutionGroup -->
<g id="node3" class="node">
<title>SubstitutionGroup</title>
<g id="a_node3_2"><a xlink:href="../../nc/AddressDeliveryPointAbstract/#diagram" xlink:title="A data concept for a single place or unit at which mail is delivered." target="_top">
<text text-anchor="start" x="170" y="-77.4" font-family="Helvetica,sans-Serif" font-size="12.00" fill="#000000">nc:AddressDeliveryPointAbstract</text>
</a>
</g>
<polygon fill="none" stroke="#000000" points="167.5,-72.5 167.5,-89.5 346.5,-89.5 346.5,-72.5 167.5,-72.5"/>
</g>
<!-- SubstitutionGroup&#45;&gt;nc:AddressDeliveryPointText -->
<g id="edge2" class="edge">
<title>SubstitutionGroup&#45;&gt;nc:AddressDeliveryPointText</title>
<path fill="none" stroke="#000000" d="M257,-62.4163C257,-53.9809 257,-44.2214 257,-36.6501"/>
<polygon fill="#000000" stroke="#000000" points="253.5001,-62.4472 257,-72.4473 260.5001,-62.4473 253.5001,-62.4472"/>
<text text-anchor="middle" x="247.5" y="-51.4" font-family="Helvetica,sans-Serif" font-size="12.00" fill="#000000">substitution group</text>
</g>
</g>
</svg>
