<?xml version="1.0" encoding="UTF-8" standalone="no"?>
<!DOCTYPE svg PUBLIC "-//W3C//DTD SVG 1.1//EN"
 "http://www.w3.org/Graphics/SVG/1.1/DTD/svg11.dtd">
<!-- Generated by graphviz version 2.40.1 (20161225.0304)
 -->
<!-- Title: graphic Pages: 1 -->
<svg width="665pt" height="117pt"
 viewBox="0.00 0.00 665.00 116.50" xmlns="http://www.w3.org/2000/svg" xmlns:xlink="http://www.w3.org/1999/xlink">
<g id="graph0" class="graph" transform="scale(1 1) rotate(0) translate(4 112.5)">
<title>graphic</title>
<polygon fill="#ffffff" stroke="transparent" points="-4,4 -4,-112.5 661,-112.5 661,4 -4,4"/>
<!-- hs:ProblemTreatmentHistoryAbstract -->
<g id="node1" class="node">
<title>hs:ProblemTreatmentHistoryAbstract</title>
<text text-anchor="start" x="349.5" y="-92.9" font-family="Helvetica,sans-Serif" font-weight="bold" font-size="12.00" fill="#000000">hs:ProblemTreatmentHistoryAbstract</text>
<polygon fill="none" stroke="#ff0000" stroke-width="5" points="345.5,-85.5 345.5,-105.5 567.5,-105.5 567.5,-85.5 345.5,-85.5"/>
</g>
<!-- SubstitutableElements -->
<g id="node3" class="node">
<title>SubstitutableElements</title>
<text text-anchor="start" x="258.5" y="-35.9" font-family="Helvetica,sans-Serif" font-weight="bold" font-size="12.00" fill="#000000">Substitutable elements</text>
<g id="a_node3_0"><a xlink:href="../../hs/ProblemTreatmentHistoryCode/#diagram" xlink:title="An enumeration of the kinds of recommended treatment for the presented problem in a prior intervention" target="_top">
<polygon fill="#ebebeb" stroke="transparent" points="257.5,-15.5 257.5,-30.5 656.5,-30.5 656.5,-15.5 257.5,-15.5"/>
<text text-anchor="start" x="258.5" y="-19.9" font-family="Helvetica,sans-Serif" font-size="12.00" fill="#000000">hs:ProblemTreatmentHistoryCode: hs:ProblemTreatmentHistoryCodeType</text>
</a>
</g>
<g id="a_node3_1"><a xlink:href="../../hs/ProblemTreatmentHistoryText/#diagram" xlink:title="A narrative description of the kind of recommended treatment for the presented problem in a prior intervention." target="_top">
<text text-anchor="start" x="258.5" y="-4.9" font-family="Helvetica,sans-Serif" font-size="12.00" fill="#000000">hs:ProblemTreatmentHistoryText: nc:TextType</text>
</a>
</g>
<polygon fill="#000000" stroke="#000000" points="256.5,-30.5 256.5,-30.5 657.5,-30.5 657.5,-30.5 256.5,-30.5"/>
<polygon fill="none" stroke="#000000" points="256,0 256,-47 657,-47 657,0 256,0"/>
</g>
<!-- hs:ProblemTreatmentHistoryAbstract&#45;&gt;SubstitutableElements -->
<g id="edge2" class="edge">
<title>hs:ProblemTreatmentHistoryAbstract&#45;&gt;SubstitutableElements</title>
<path fill="none" stroke="#000000" d="M456.5,-72.9771C456.5,-64.7398 456.5,-55.4022 456.5,-47.0755"/>
<polygon fill="#000000" stroke="#000000" points="453.0001,-72.9945 456.5,-82.9945 460.0001,-72.9946 453.0001,-72.9945"/>
<text text-anchor="middle" x="447" y="-61.9" font-family="Helvetica,sans-Serif" font-size="12.00" fill="#000000">substitutable for</text>
</g>
<!-- Types -->
<g id="node2" class="node">
<title>Types</title>
<text text-anchor="start" x="2.5" y="-92.9" font-family="Helvetica,sans-Serif" font-weight="bold" font-size="12.00" fill="#000000">Types</text>
<g id="a_node2_2"><a xlink:href="../../hs/JuvenileIntakeAssessmentType/#diagram" xlink:title="A data type for a juvenile intake assessment." target="_top">
<polygon fill="#ebebeb" stroke="transparent" points="1.5,-72.5 1.5,-87.5 188.5,-87.5 188.5,-72.5 1.5,-72.5"/>
<text text-anchor="start" x="2.5" y="-76.9" font-family="Helvetica,sans-Serif" font-size="12.00" fill="#000000">hs:JuvenileIntakeAssessmentType</text>
</a>
</g>
<polygon fill="#000000" stroke="#000000" points=".5,-87.5 .5,-87.5 189.5,-87.5 189.5,-87.5 .5,-87.5"/>
<polygon fill="none" stroke="#000000" points="0,-71.5 0,-103.5 189,-103.5 189,-71.5 0,-71.5"/>
</g>
<!-- Types&#45;&gt;hs:ProblemTreatmentHistoryAbstract -->
<g id="edge1" class="edge">
<title>Types:top&#45;&gt;hs:ProblemTreatmentHistoryAbstract</title>
<path fill="none" stroke="#000000" d="M188.5,-95.5C235.5412,-95.5 287.227,-95.5 332.5515,-95.5"/>
<polygon fill="#000000" stroke="#000000" points="332.7214,-99.0001 342.7213,-95.5 332.7213,-92.0001 332.7214,-99.0001"/>
<text text-anchor="middle" x="222.5" y="-98.9" font-family="Helvetica,sans-Serif" font-size="12.00" fill="#000000">has&#45;a</text>
</g>
</g>
</svg>
