<?xml version="1.0" encoding="UTF-8" standalone="no"?>
<!DOCTYPE svg PUBLIC "-//W3C//DTD SVG 1.1//EN"
 "http://www.w3.org/Graphics/SVG/1.1/DTD/svg11.dtd">
<!-- Generated by graphviz version 2.40.1 (20161225.0304)
 -->
<!-- Title: graphic Pages: 1 -->
<svg width="308pt" height="45pt"
 viewBox="0.00 0.00 308.00 45.00" xmlns="http://www.w3.org/2000/svg" xmlns:xlink="http://www.w3.org/1999/xlink">
<g id="graph0" class="graph" transform="scale(1 1) rotate(0) translate(4 41)">
<title>graphic</title>
<polygon fill="#ffffff" stroke="transparent" points="-4,4 -4,-41 304,-41 304,4 -4,4"/>
<!-- it:PartyAugmentationPoint -->
<g id="node1" class="node">
<title>it:PartyAugmentationPoint</title>
<text text-anchor="start" x="142" y="-21.4" font-family="Helvetica,sans-Serif" font-weight="bold" font-size="12.00" fill="#000000">it:PartyAugmentationPoint</text>
<polygon fill="none" stroke="#ff0000" stroke-width="5" points="138.5,-14 138.5,-34 297.5,-34 297.5,-14 138.5,-14"/>
</g>
<!-- Types -->
<g id="node2" class="node">
<title>Types</title>
<text text-anchor="start" x="2.5" y="-21.4" font-family="Helvetica,sans-Serif" font-weight="bold" font-size="12.00" fill="#000000">Types</text>
<g id="a_node2_0"><a xlink:href="../../it/PartyType/#diagram" xlink:title="A data type for a Organization, Person or Thing associated with processing a Cargo entry." target="_top">
<polygon fill="#ebebeb" stroke="transparent" points="1.5,-1 1.5,-16 68.5,-16 68.5,-1 1.5,-1"/>
<text text-anchor="start" x="2.5" y="-5.4" font-family="Helvetica,sans-Serif" font-size="12.00" fill="#000000">it:PartyType</text>
</a>
</g>
<polygon fill="#000000" stroke="#000000" points=".5,-16 .5,-16 69.5,-16 69.5,-16 .5,-16"/>
<polygon fill="none" stroke="#000000" points="0,0 0,-32 69,-32 69,0 0,0"/>
</g>
<!-- Types&#45;&gt;it:PartyAugmentationPoint -->
<g id="edge1" class="edge">
<title>Types:top&#45;&gt;it:PartyAugmentationPoint</title>
<path fill="none" stroke="#000000" d="M68.5,-24C86.9807,-24 106.7464,-24 125.6526,-24"/>
<polygon fill="#000000" stroke="#000000" points="125.7506,-27.5001 135.7506,-24 125.7506,-20.5001 125.7506,-27.5001"/>
<text text-anchor="middle" x="102.5" y="-27.4" font-family="Helvetica,sans-Serif" font-size="12.00" fill="#000000">has&#45;a</text>
</g>
</g>
</svg>
