<?xml version="1.0" encoding="UTF-8" standalone="no"?>
<!DOCTYPE svg PUBLIC "-//W3C//DTD SVG 1.1//EN"
 "http://www.w3.org/Graphics/SVG/1.1/DTD/svg11.dtd">
<!-- Generated by graphviz version 2.40.1 (20161225.0304)
 -->
<!-- Title: graphic Pages: 1 -->
<svg width="435pt" height="86pt"
 viewBox="0.00 0.00 435.00 86.00" xmlns="http://www.w3.org/2000/svg" xmlns:xlink="http://www.w3.org/1999/xlink">
<g id="graph0" class="graph" transform="scale(1 1) rotate(0) translate(4 82)">
<title>graphic</title>
<polygon fill="#ffffff" stroke="transparent" points="-4,4 -4,-82 431,-82 431,4 -4,4"/>
<!-- hs:JuvenileSpecialNeedCode -->
<g id="node1" class="node">
<title>hs:JuvenileSpecialNeedCode</title>
<text text-anchor="start" x="6" y="-9.9" font-family="Helvetica,sans-Serif" font-weight="bold" font-size="12.00" fill="#000000">hs:JuvenileSpecialNeedCode</text>
<polygon fill="none" stroke="#ff0000" stroke-width="5" points="2.5,-2.5 2.5,-22.5 177.5,-22.5 177.5,-2.5 2.5,-2.5"/>
</g>
<!-- hs:JuvenileSpecialNeedCodeType -->
<g id="node3" class="node">
<title>hs:JuvenileSpecialNeedCodeType</title>
<g id="a_node3_0"><a xlink:href="../../hs/JuvenileSpecialNeedCodeType/#diagram" xlink:title="A data type for an enumerated list from the Adoption and Foster Care Annual Reporting System, 45 CFR 1355, appendix B (Adoption Data Elements), section III (Special Needs Status)." target="_top">
<text text-anchor="start" x="241" y="-8.9" font-family="Helvetica,sans-Serif" font-size="12.00" fill="#000000">hs:JuvenileSpecialNeedCodeType</text>
</a>
</g>
<polygon fill="none" stroke="#000000" points="239,-4 239,-21 427,-21 427,-4 239,-4"/>
</g>
<!-- hs:JuvenileSpecialNeedCode&#45;&gt;hs:JuvenileSpecialNeedCodeType -->
<g id="edge2" class="edge">
<title>hs:JuvenileSpecialNeedCode&#45;&gt;hs:JuvenileSpecialNeedCodeType</title>
<path fill="none" stroke="#000000" d="M180.1389,-12.5C196.0222,-12.5 212.673,-12.5 228.9009,-12.5"/>
<polygon fill="#000000" stroke="#000000" points="228.9399,-16.0001 238.9398,-12.5 228.9398,-9.0001 228.9399,-16.0001"/>
<text text-anchor="middle" x="209.5" y="-15.9" font-family="Helvetica,sans-Serif" font-size="12.00" fill="#000000">type</text>
</g>
<!-- SubstitutionGroup -->
<g id="node2" class="node">
<title>SubstitutionGroup</title>
<g id="a_node2_1"><a xlink:href="../../hs/JuvenileSpecialNeedAbstract/#diagram" xlink:title="A data concept for describing the characteristics that states might define as special needs, which qualify a child or youth&#39;s adoption for a subsidy under Title IV&#45;E of the Social Security Act." target="_top">
<text text-anchor="start" x="4" y="-65.9" font-family="Helvetica,sans-Serif" font-size="12.00" fill="#000000">hs:JuvenileSpecialNeedAbstract</text>
</a>
</g>
<polygon fill="none" stroke="#000000" points="1.5,-61 1.5,-78 178.5,-78 178.5,-61 1.5,-61"/>
</g>
<!-- SubstitutionGroup&#45;&gt;hs:JuvenileSpecialNeedCode -->
<g id="edge1" class="edge">
<title>SubstitutionGroup&#45;&gt;hs:JuvenileSpecialNeedCode</title>
<path fill="none" stroke="#000000" d="M90,-50.9163C90,-42.4809 90,-32.7214 90,-25.1501"/>
<polygon fill="#000000" stroke="#000000" points="86.5001,-50.9472 90,-60.9473 93.5001,-50.9473 86.5001,-50.9472"/>
<text text-anchor="middle" x="80.5" y="-39.9" font-family="Helvetica,sans-Serif" font-size="12.00" fill="#000000">substitution group</text>
</g>
</g>
</svg>
