<?xml version="1.0" encoding="UTF-8" standalone="no"?>
<!DOCTYPE svg PUBLIC "-//W3C//DTD SVG 1.1//EN"
 "http://www.w3.org/Graphics/SVG/1.1/DTD/svg11.dtd">
<!-- Generated by graphviz version 2.40.1 (20161225.0304)
 -->
<!-- Title: graphic Pages: 1 -->
<svg width="522pt" height="45pt"
 viewBox="0.00 0.00 522.00 45.00" xmlns="http://www.w3.org/2000/svg" xmlns:xlink="http://www.w3.org/1999/xlink">
<g id="graph0" class="graph" transform="scale(1 1) rotate(0) translate(4 41)">
<title>graphic</title>
<polygon fill="#ffffff" stroke="transparent" points="-4,4 -4,-41 518,-41 518,4 -4,4"/>
<!-- scr:AcknowledgementDate -->
<g id="node1" class="node">
<title>scr:AcknowledgementDate</title>
<text text-anchor="start" x="221.5" y="-21.4" font-family="Helvetica,sans-Serif" font-weight="bold" font-size="12.00" fill="#000000">scr:AcknowledgementDate</text>
<polygon fill="none" stroke="#ff0000" stroke-width="5" points="217.5,-14 217.5,-34 379.5,-34 379.5,-14 217.5,-14"/>
</g>
<!-- nc:DateType -->
<g id="node3" class="node">
<title>nc:DateType</title>
<g id="a_node3_0"><a xlink:href="../../nc/DateType/#diagram" xlink:title="A data type for a calendar date." target="_top">
<text text-anchor="start" x="443.5" y="-20.4" font-family="Helvetica,sans-Serif" font-size="12.00" fill="#000000">nc:DateType</text>
</a>
</g>
<polygon fill="none" stroke="#000000" points="441,-15.5 441,-32.5 514,-32.5 514,-15.5 441,-15.5"/>
</g>
<!-- scr:AcknowledgementDate&#45;&gt;nc:DateType -->
<g id="edge2" class="edge">
<title>scr:AcknowledgementDate&#45;&gt;nc:DateType</title>
<path fill="none" stroke="#000000" d="M382.235,-24C398.7823,-24 415.5935,-24 430.3935,-24"/>
<polygon fill="#000000" stroke="#000000" points="430.7822,-27.5001 440.7822,-24 430.7821,-20.5001 430.7822,-27.5001"/>
<text text-anchor="middle" x="411.5" y="-27.4" font-family="Helvetica,sans-Serif" font-size="12.00" fill="#000000">type</text>
</g>
<!-- Types -->
<g id="node2" class="node">
<title>Types</title>
<text text-anchor="start" x="2" y="-21.4" font-family="Helvetica,sans-Serif" font-weight="bold" font-size="12.00" fill="#000000">Types</text>
<g id="a_node2_1"><a xlink:href="../../scr/ScreeningProcessType/#diagram" xlink:title="A data type that specifies the service requester transaction performance metrics information." target="_top">
<polygon fill="#ebebeb" stroke="transparent" points="1,-1 1,-16 147,-16 147,-1 1,-1"/>
<text text-anchor="start" x="2" y="-5.4" font-family="Helvetica,sans-Serif" font-size="12.00" fill="#000000">scr:ScreeningProcessType</text>
</a>
</g>
<polygon fill="#000000" stroke="#000000" points="0,-16 0,-16 148,-16 148,-16 0,-16"/>
<polygon fill="none" stroke="#000000" points="0,0 0,-32 148,-32 148,0 0,0"/>
</g>
<!-- Types&#45;&gt;scr:AcknowledgementDate -->
<g id="edge1" class="edge">
<title>Types:top&#45;&gt;scr:AcknowledgementDate</title>
<path fill="none" stroke="#000000" d="M147,-24C165.6164,-24 185.5196,-24 204.575,-24"/>
<polygon fill="#000000" stroke="#000000" points="204.7546,-27.5001 214.7545,-24 204.7545,-20.5001 204.7546,-27.5001"/>
<text text-anchor="middle" x="181.5" y="-27.4" font-family="Helvetica,sans-Serif" font-size="12.00" fill="#000000">has&#45;a</text>
</g>
</g>
</svg>
