<?xml version="1.0" encoding="UTF-8" standalone="no"?>
<!DOCTYPE svg PUBLIC "-//W3C//DTD SVG 1.1//EN"
 "http://www.w3.org/Graphics/SVG/1.1/DTD/svg11.dtd">
<!-- Generated by graphviz version 2.40.1 (20161225.0304)
 -->
<!-- Title: graphic Pages: 1 -->
<svg width="455pt" height="45pt"
 viewBox="0.00 0.00 455.00 45.00" xmlns="http://www.w3.org/2000/svg" xmlns:xlink="http://www.w3.org/1999/xlink">
<g id="graph0" class="graph" transform="scale(1 1) rotate(0) translate(4 41)">
<title>graphic</title>
<polygon fill="#ffffff" stroke="transparent" points="-4,4 -4,-41 451,-41 451,4 -4,4"/>
<!-- it:SealIssuerName -->
<g id="node1" class="node">
<title>it:SealIssuerName</title>
<text text-anchor="start" x="138.5" y="-21.4" font-family="Helvetica,sans-Serif" font-weight="bold" font-size="12.00" fill="#000000">it:SealIssuerName</text>
<polygon fill="none" stroke="#ff0000" stroke-width="5" points="134.5,-14 134.5,-34 246.5,-34 246.5,-14 134.5,-14"/>
</g>
<!-- nc:ProperNameTextType -->
<g id="node3" class="node">
<title>nc:ProperNameTextType</title>
<g id="a_node3_0"><a xlink:href="../../nc/ProperNameTextType/#diagram" xlink:title="A data type for a word or phrase by which a person or thing is known, referred, or addressed." target="_top">
<text text-anchor="start" x="310.5" y="-20.4" font-family="Helvetica,sans-Serif" font-size="12.00" fill="#000000">nc:ProperNameTextType</text>
</a>
</g>
<polygon fill="none" stroke="#000000" points="308,-15.5 308,-32.5 447,-32.5 447,-15.5 308,-15.5"/>
</g>
<!-- it:SealIssuerName&#45;&gt;nc:ProperNameTextType -->
<g id="edge2" class="edge">
<title>it:SealIssuerName&#45;&gt;nc:ProperNameTextType</title>
<path fill="none" stroke="#000000" d="M249.1549,-24C264.589,-24 281.5012,-24 297.8372,-24"/>
<polygon fill="#000000" stroke="#000000" points="297.9159,-27.5001 307.9159,-24 297.9158,-20.5001 297.9159,-27.5001"/>
<text text-anchor="middle" x="278.5" y="-27.4" font-family="Helvetica,sans-Serif" font-size="12.00" fill="#000000">type</text>
</g>
<!-- Types -->
<g id="node2" class="node">
<title>Types</title>
<text text-anchor="start" x="2.5" y="-21.4" font-family="Helvetica,sans-Serif" font-weight="bold" font-size="12.00" fill="#000000">Types</text>
<g id="a_node2_1"><a xlink:href="../../it/SealType/#diagram" xlink:title="A data type for information regarding a seal." target="_top">
<polygon fill="#ebebeb" stroke="transparent" points="1.5,-1 1.5,-16 64.5,-16 64.5,-1 1.5,-1"/>
<text text-anchor="start" x="2.5" y="-5.4" font-family="Helvetica,sans-Serif" font-size="12.00" fill="#000000">it:SealType</text>
</a>
</g>
<polygon fill="#000000" stroke="#000000" points=".5,-16 .5,-16 65.5,-16 65.5,-16 .5,-16"/>
<polygon fill="none" stroke="#000000" points="0,0 0,-32 65,-32 65,0 0,0"/>
</g>
<!-- Types&#45;&gt;it:SealIssuerName -->
<g id="edge1" class="edge">
<title>Types:top&#45;&gt;it:SealIssuerName</title>
<path fill="none" stroke="#000000" d="M64.5,-24C83.0493,-24 103.1347,-24 121.7033,-24"/>
<polygon fill="#000000" stroke="#000000" points="121.8438,-27.5001 131.8438,-24 121.8438,-20.5001 121.8438,-27.5001"/>
<text text-anchor="middle" x="98.5" y="-27.4" font-family="Helvetica,sans-Serif" font-size="12.00" fill="#000000">has&#45;a</text>
</g>
</g>
</svg>
