<?xml version="1.0" encoding="UTF-8" standalone="no"?>
<!DOCTYPE svg PUBLIC "-//W3C//DTD SVG 1.1//EN"
 "http://www.w3.org/Graphics/SVG/1.1/DTD/svg11.dtd">
<!-- Generated by graphviz version 2.40.1 (20161225.0304)
 -->
<!-- Title: graphic Pages: 1 -->
<svg width="624pt" height="45pt"
 viewBox="0.00 0.00 624.00 45.00" xmlns="http://www.w3.org/2000/svg" xmlns:xlink="http://www.w3.org/1999/xlink">
<g id="graph0" class="graph" transform="scale(1 1) rotate(0) translate(4 41)">
<title>graphic</title>
<polygon fill="#ffffff" stroke="transparent" points="-4,4 -4,-41 620,-41 620,4 -4,4"/>
<!-- im:MultipleBeneficiaryIndicator -->
<g id="node1" class="node">
<title>im:MultipleBeneficiaryIndicator</title>
<text text-anchor="start" x="279.5" y="-21.4" font-family="Helvetica,sans-Serif" font-weight="bold" font-size="12.00" fill="#000000">im:MultipleBeneficiaryIndicator</text>
<polygon fill="none" stroke="#ff0000" stroke-width="5" points="275.5,-14 275.5,-34 461.5,-34 461.5,-14 275.5,-14"/>
</g>
<!-- niem&#45;xs:boolean -->
<g id="node3" class="node">
<title>niem&#45;xs:boolean</title>
<g id="a_node3_0"><a xlink:href="../../niem-xs/boolean/#diagram" xlink:title="A data type for binary&#45;valued logic (true/false)." target="_top">
<text text-anchor="start" x="525.5" y="-20.4" font-family="Helvetica,sans-Serif" font-size="12.00" fill="#000000">niem&#45;xs:boolean</text>
</a>
</g>
<polygon fill="none" stroke="#000000" points="523,-15.5 523,-32.5 616,-32.5 616,-15.5 523,-15.5"/>
</g>
<!-- im:MultipleBeneficiaryIndicator&#45;&gt;niem&#45;xs:boolean -->
<g id="edge2" class="edge">
<title>im:MultipleBeneficiaryIndicator&#45;&gt;niem&#45;xs:boolean</title>
<path fill="none" stroke="#000000" d="M464.2906,-24C480.8857,-24 497.6524,-24 512.7755,-24"/>
<polygon fill="#000000" stroke="#000000" points="512.9604,-27.5001 522.9604,-24 512.9604,-20.5001 512.9604,-27.5001"/>
<text text-anchor="middle" x="493.5" y="-27.4" font-family="Helvetica,sans-Serif" font-size="12.00" fill="#000000">type</text>
</g>
<!-- Types -->
<g id="node2" class="node">
<title>Types</title>
<text text-anchor="start" x="2" y="-21.4" font-family="Helvetica,sans-Serif" font-weight="bold" font-size="12.00" fill="#000000">Types</text>
<g id="a_node2_1"><a xlink:href="../../im/ImmigrationBenefitApplicationType/#diagram" xlink:title="A data type for the type of immigration benefit being requested" target="_top">
<polygon fill="#ebebeb" stroke="transparent" points="1,-1 1,-16 205,-16 205,-1 1,-1"/>
<text text-anchor="start" x="2" y="-5.4" font-family="Helvetica,sans-Serif" font-size="12.00" fill="#000000">im:ImmigrationBenefitApplicationType</text>
</a>
</g>
<polygon fill="#000000" stroke="#000000" points="0,-16 0,-16 206,-16 206,-16 0,-16"/>
<polygon fill="none" stroke="#000000" points="0,0 0,-32 206,-32 206,0 0,0"/>
</g>
<!-- Types&#45;&gt;im:MultipleBeneficiaryIndicator -->
<g id="edge1" class="edge">
<title>Types:top&#45;&gt;im:MultipleBeneficiaryIndicator</title>
<path fill="none" stroke="#000000" d="M205,-24C223.7333,-24 243.6739,-24 262.9543,-24"/>
<polygon fill="#000000" stroke="#000000" points="262.9667,-27.5001 272.9667,-24 262.9667,-20.5001 262.9667,-27.5001"/>
<text text-anchor="middle" x="239.5" y="-27.4" font-family="Helvetica,sans-Serif" font-size="12.00" fill="#000000">has&#45;a</text>
</g>
</g>
</svg>
