<?xml version="1.0" encoding="UTF-8" standalone="no"?>
<!DOCTYPE svg PUBLIC "-//W3C//DTD SVG 1.1//EN"
 "http://www.w3.org/Graphics/SVG/1.1/DTD/svg11.dtd">
<!-- Generated by graphviz version 2.40.1 (20161225.0304)
 -->
<!-- Title: graphic Pages: 1 -->
<svg width="797pt" height="101pt"
 viewBox="0.00 0.00 797.00 101.00" xmlns="http://www.w3.org/2000/svg" xmlns:xlink="http://www.w3.org/1999/xlink">
<g id="graph0" class="graph" transform="scale(1 1) rotate(0) translate(4 97)">
<title>graphic</title>
<polygon fill="#ffffff" stroke="transparent" points="-4,4 -4,-97 793,-97 793,4 -4,4"/>
<!-- j:ParoleViolationCaseConferenceRecommendationCategoryAbstract -->
<g id="node1" class="node">
<title>j:ParoleViolationCaseConferenceRecommendationCategoryAbstract</title>
<text text-anchor="start" x="384" y="-77.4" font-family="Helvetica,sans-Serif" font-weight="bold" font-size="12.00" fill="#000000">j:ParoleViolationCaseConferenceRecommendationCategoryAbstract</text>
<polygon fill="none" stroke="#ff0000" stroke-width="5" points="380,-70 380,-90 778,-90 778,-70 380,-70"/>
</g>
<!-- SubstitutableElements -->
<g id="node3" class="node">
<title>SubstitutableElements</title>
<text text-anchor="start" x="371" y="-21.4" font-family="Helvetica,sans-Serif" font-weight="bold" font-size="12.00" fill="#000000">Substitutable elements</text>
<g id="a_node3_0"><a xlink:href="../../j/ParoleViolationCaseConferenceRecommendationCategoryText/#diagram" xlink:title="A kind of Case Conference recommendation." target="_top">
<polygon fill="#ebebeb" stroke="transparent" points="370,-1 370,-16 788,-16 788,-1 370,-1"/>
<text text-anchor="start" x="371" y="-5.4" font-family="Helvetica,sans-Serif" font-size="12.00" fill="#000000">j:ParoleViolationCaseConferenceRecommendationCategoryText: nc:TextType</text>
</a>
</g>
<polygon fill="#000000" stroke="#000000" points="369,-16 369,-16 789,-16 789,-16 369,-16"/>
<polygon fill="none" stroke="#000000" points="369,0 369,-32 789,-32 789,0 369,0"/>
</g>
<!-- j:ParoleViolationCaseConferenceRecommendationCategoryAbstract&#45;&gt;SubstitutableElements -->
<g id="edge2" class="edge">
<title>j:ParoleViolationCaseConferenceRecommendationCategoryAbstract&#45;&gt;SubstitutableElements</title>
<path fill="none" stroke="#000000" d="M579,-57.3063C579,-48.9972 579,-39.7712 579,-32.1499"/>
<polygon fill="#000000" stroke="#000000" points="575.5001,-57.4892 579,-67.4892 582.5001,-57.4892 575.5001,-57.4892"/>
<text text-anchor="middle" x="569.5" y="-46.65" font-family="Helvetica,sans-Serif" font-size="12.00" fill="#000000">substitutable for</text>
</g>
<!-- Types -->
<g id="node2" class="node">
<title>Types</title>
<text text-anchor="start" x="2" y="-77.4" font-family="Helvetica,sans-Serif" font-weight="bold" font-size="12.00" fill="#000000">Types</text>
<g id="a_node2_1"><a xlink:href="../../j/ParoleViolationCaseConferenceRecommendationType/#diagram" xlink:title="A data type for a recommended response level for the parole violation based on the Parole Agent" target="_top">
<polygon fill="#ebebeb" stroke="transparent" points="1,-57 1,-72 301,-72 301,-57 1,-57"/>
<text text-anchor="start" x="2" y="-61.4" font-family="Helvetica,sans-Serif" font-size="12.00" fill="#000000">j:ParoleViolationCaseConferenceRecommendationType</text>
</a>
</g>
<polygon fill="#000000" stroke="#000000" points="0,-72 0,-72 302,-72 302,-72 0,-72"/>
<polygon fill="none" stroke="#000000" points="0,-56 0,-88 302,-88 302,-56 0,-56"/>
</g>
<!-- Types&#45;&gt;j:ParoleViolationCaseConferenceRecommendationCategoryAbstract -->
<g id="edge1" class="edge">
<title>Types:top&#45;&gt;j:ParoleViolationCaseConferenceRecommendationCategoryAbstract</title>
<path fill="none" stroke="#000000" d="M301,-80C322.4501,-80 344.8312,-80 367.1735,-80"/>
<polygon fill="#000000" stroke="#000000" points="367.4327,-83.5001 377.4326,-80 367.4326,-76.5001 367.4327,-83.5001"/>
<text text-anchor="middle" x="335.5" y="-83.4" font-family="Helvetica,sans-Serif" font-size="12.00" fill="#000000">has&#45;a</text>
</g>
</g>
</svg>
