<?xml version="1.0" encoding="UTF-8" standalone="no"?>
<!DOCTYPE svg PUBLIC "-//W3C//DTD SVG 1.1//EN"
 "http://www.w3.org/Graphics/SVG/1.1/DTD/svg11.dtd">
<!-- Generated by graphviz version 2.40.1 (20161225.0304)
 -->
<!-- Title: graphic Pages: 1 -->
<svg width="496pt" height="154pt"
 viewBox="0.00 0.00 496.00 153.50" xmlns="http://www.w3.org/2000/svg" xmlns:xlink="http://www.w3.org/1999/xlink">
<g id="graph0" class="graph" transform="scale(1 1) rotate(0) translate(4 149.5)">
<title>graphic</title>
<polygon fill="#ffffff" stroke="transparent" points="-4,4 -4,-149.5 492,-149.5 492,4 -4,4"/>
<!-- scr:ChargeCategoryCodeType -->
<g id="node1" class="node">
<title>scr:ChargeCategoryCodeType</title>
<text text-anchor="start" x="276" y="-25.4" font-family="Helvetica,sans-Serif" font-weight="bold" font-size="12.00" fill="#000000">scr:ChargeCategoryCodeType</text>
<g id="a_node1_0"><a xlink:href="../../structures/SimpleObjectAttributeGroup/#diagram" xlink:title="A group of attributes that are applicable to objects, to be used when defining a complex type that is an extension of a simple type." target="_top">
<polygon fill="#ebebeb" stroke="transparent" points="275,-5 275,-20 483,-20 483,-5 275,-5"/>
<text text-anchor="start" x="276" y="-9.4" font-family="Helvetica,sans-Serif" font-size="12.00" fill="#000000">structures:SimpleObjectAttributeGroup</text>
</a>
</g>
<polygon fill="#ff0000" stroke="#ff0000" points="270,-20 270,-20 488,-20 488,-20 270,-20"/>
<polygon fill="none" stroke="#ff0000" stroke-width="5" points="272.5,-2.5 272.5,-37.5 485.5,-37.5 485.5,-2.5 272.5,-2.5"/>
</g>
<!-- Properties -->
<g id="node2" class="node">
<title>Properties</title>
<text text-anchor="start" x="2.5" y="-25.4" font-family="Helvetica,sans-Serif" font-weight="bold" font-size="12.00" fill="#000000">Properties</text>
<g id="a_node2_1"><a xlink:href="../../scr/ChargeCategoryClassificationCode/#diagram" xlink:title="A kind of charge." target="_top">
<polygon fill="#ebebeb" stroke="transparent" points="1.5,-5 1.5,-20 210.5,-20 210.5,-5 1.5,-5"/>
<text text-anchor="start" x="2.5" y="-9.4" font-family="Helvetica,sans-Serif" font-size="12.00" fill="#000000">scr:ChargeCategoryClassificationCode</text>
</a>
</g>
<polygon fill="#000000" stroke="#000000" points=".5,-20 .5,-20 211.5,-20 211.5,-20 .5,-20"/>
<polygon fill="none" stroke="#000000" points="0,-4 0,-36 211,-36 211,-4 0,-4"/>
</g>
<!-- Properties&#45;&gt;scr:ChargeCategoryCodeType -->
<g id="edge1" class="edge">
<title>Properties:top&#45;&gt;scr:ChargeCategoryCodeType:top</title>
<path fill="none" stroke="#000000" d="M210.5,-28C235.4714,-28 244.1284,-28 264.8937,-28"/>
<polygon fill="#000000" stroke="#000000" points="265,-31.5001 275,-28 265,-24.5001 265,-31.5001"/>
<text text-anchor="middle" x="240.5" y="-31.4" font-family="Helvetica,sans-Serif" font-size="12.00" fill="#000000">type</text>
</g>
<!-- scr:ChargeCategoryCodeSimpleType -->
<g id="node3" class="node">
<title>scr:ChargeCategoryCodeSimpleType</title>
<g id="a_node3_2"><a xlink:href="../../scr/ChargeCategoryCodeSimpleType/#diagram" xlink:title="A data type describing the kinds of apprehension charges" target="_top">
<text text-anchor="start" x="279" y="-80.4" font-family="Helvetica,sans-Serif" font-size="12.00" fill="#000000">scr:ChargeCategoryCodeSimpleType</text>
</a>
</g>
<polygon fill="none" stroke="#000000" points="277,-75.5 277,-92.5 481,-92.5 481,-75.5 277,-75.5"/>
</g>
<!-- scr:ChargeCategoryCodeSimpleType&#45;&gt;scr:ChargeCategoryCodeType -->
<g id="edge2" class="edge">
<title>scr:ChargeCategoryCodeSimpleType&#45;&gt;scr:ChargeCategoryCodeType</title>
<path fill="none" stroke="#000000" d="M379,-75.4351C379,-68.931 379,-59.5678 379,-50.3827"/>
<polygon fill="#000000" stroke="#000000" points="382.5001,-50.25 379,-40.25 375.5001,-50.25 382.5001,-50.25"/>
<text text-anchor="middle" x="369.5" y="-54.65" font-family="Helvetica,sans-Serif" font-size="12.00" fill="#000000">extension</text>
</g>
<!-- xs:token -->
<g id="node4" class="node">
<title>xs:token</title>
<g id="a_node4_3"><a xlink:href="../../xs/token/#diagram" xlink:title="&lt;TABLE&gt;" target="_top">
<text text-anchor="start" x="357" y="-133.4" font-family="Helvetica,sans-Serif" font-size="12.00" fill="#000000">xs:token</text>
</a>
</g>
<polygon fill="none" stroke="#000000" points="354.5,-128.5 354.5,-145.5 403.5,-145.5 403.5,-128.5 354.5,-128.5"/>
</g>
<!-- xs:token&#45;&gt;scr:ChargeCategoryCodeSimpleType -->
<g id="edge3" class="edge">
<title>xs:token&#45;&gt;scr:ChargeCategoryCodeSimpleType</title>
<path fill="none" stroke="#000000" d="M379,-128.411C379,-121.5124 379,-111.5696 379,-102.84"/>
<polygon fill="#000000" stroke="#000000" points="382.5001,-102.7518 379,-92.7519 375.5001,-102.7519 382.5001,-102.7518"/>
<text text-anchor="middle" x="369.5" y="-107.4" font-family="Helvetica,sans-Serif" font-size="12.00" fill="#000000">restriction</text>
</g>
</g>
</svg>
