<?xml version="1.0" encoding="UTF-8" standalone="no"?>
<!DOCTYPE svg PUBLIC "-//W3C//DTD SVG 1.1//EN"
 "http://www.w3.org/Graphics/SVG/1.1/DTD/svg11.dtd">
<!-- Generated by graphviz version 2.40.1 (20161225.0304)
 -->
<!-- Title: graphic Pages: 1 -->
<svg width="577pt" height="45pt"
 viewBox="0.00 0.00 577.00 45.00" xmlns="http://www.w3.org/2000/svg" xmlns:xlink="http://www.w3.org/1999/xlink">
<g id="graph0" class="graph" transform="scale(1 1) rotate(0) translate(4 41)">
<title>graphic</title>
<polygon fill="#ffffff" stroke="transparent" points="-4,4 -4,-41 573,-41 573,4 -4,4"/>
<!-- biom:FaceImageAttribute -->
<g id="node1" class="node">
<title>biom:FaceImageAttribute</title>
<text text-anchor="start" x="194.5" y="-21.4" font-family="Helvetica,sans-Serif" font-weight="bold" font-size="12.00" fill="#000000">biom:FaceImageAttribute</text>
<polygon fill="none" stroke="#ff0000" stroke-width="5" points="190.5,-14 190.5,-34 342.5,-34 342.5,-14 190.5,-14"/>
</g>
<!-- biom:FaceImageAttributeType -->
<g id="node3" class="node">
<title>biom:FaceImageAttributeType</title>
<g id="a_node3_0"><a xlink:href="../../biom/FaceImageAttributeType/#diagram" xlink:title="A data type for an attribute of a face image" target="_top">
<text text-anchor="start" x="406.5" y="-20.4" font-family="Helvetica,sans-Serif" font-size="12.00" fill="#000000">biom:FaceImageAttributeType</text>
</a>
</g>
<polygon fill="none" stroke="#000000" points="404,-15.5 404,-32.5 569,-32.5 569,-15.5 404,-15.5"/>
</g>
<!-- biom:FaceImageAttribute&#45;&gt;biom:FaceImageAttributeType -->
<g id="edge2" class="edge">
<title>biom:FaceImageAttribute&#45;&gt;biom:FaceImageAttributeType</title>
<path fill="none" stroke="#000000" d="M345.3037,-24C360.8792,-24 377.3644,-24 393.3622,-24"/>
<polygon fill="#000000" stroke="#000000" points="393.7903,-27.5001 403.7902,-24 393.7902,-20.5001 393.7903,-27.5001"/>
<text text-anchor="middle" x="374.5" y="-27.4" font-family="Helvetica,sans-Serif" font-size="12.00" fill="#000000">type</text>
</g>
<!-- Types -->
<g id="node2" class="node">
<title>Types</title>
<text text-anchor="start" x="2.5" y="-21.4" font-family="Helvetica,sans-Serif" font-weight="bold" font-size="12.00" fill="#000000">Types</text>
<g id="a_node2_1"><a xlink:href="../../biom/FaceImageType/#diagram" xlink:title="A data type for an image of a human face" target="_top">
<polygon fill="#ebebeb" stroke="transparent" points="1.5,-1 1.5,-16 120.5,-16 120.5,-1 1.5,-1"/>
<text text-anchor="start" x="2.5" y="-5.4" font-family="Helvetica,sans-Serif" font-size="12.00" fill="#000000">biom:FaceImageType</text>
</a>
</g>
<polygon fill="#000000" stroke="#000000" points=".5,-16 .5,-16 121.5,-16 121.5,-16 .5,-16"/>
<polygon fill="none" stroke="#000000" points="0,0 0,-32 121,-32 121,0 0,0"/>
</g>
<!-- Types&#45;&gt;biom:FaceImageAttribute -->
<g id="edge1" class="edge">
<title>Types:top&#45;&gt;biom:FaceImageAttribute</title>
<path fill="none" stroke="#000000" d="M120.5,-24C138.9777,-24 158.7709,-24 177.632,-24"/>
<polygon fill="#000000" stroke="#000000" points="177.698,-27.5001 187.698,-24 177.6979,-20.5001 177.698,-27.5001"/>
<text text-anchor="middle" x="154.5" y="-27.4" font-family="Helvetica,sans-Serif" font-size="12.00" fill="#000000">has&#45;a</text>
</g>
</g>
</svg>
