<?xml version="1.0" encoding="UTF-8" standalone="no"?>
<!DOCTYPE svg PUBLIC "-//W3C//DTD SVG 1.1//EN"
 "http://www.w3.org/Graphics/SVG/1.1/DTD/svg11.dtd">
<!-- Generated by graphviz version 2.40.1 (20161225.0304)
 -->
<!-- Title: graphic Pages: 1 -->
<svg width="470pt" height="116pt"
 viewBox="0.00 0.00 470.00 116.00" xmlns="http://www.w3.org/2000/svg" xmlns:xlink="http://www.w3.org/1999/xlink">
<g id="graph0" class="graph" transform="scale(1 1) rotate(0) translate(4 112)">
<title>graphic</title>
<polygon fill="#ffffff" stroke="transparent" points="-4,4 -4,-112 466,-112 466,4 -4,4"/>
<!-- cbrn:CoefficientsType -->
<g id="node1" class="node">
<title>cbrn:CoefficientsType</title>
<text text-anchor="start" x="250" y="-39.9" font-family="Helvetica,sans-Serif" font-weight="bold" font-size="12.00" fill="#000000">cbrn:CoefficientsType</text>
<g id="a_node1_0"><a xlink:href="../../structures/SimpleObjectAttributeGroup/#diagram" xlink:title="A group of attributes that are applicable to objects, to be used when defining a complex type that is an extension of a simple type." target="_top">
<polygon fill="#ebebeb" stroke="transparent" points="249,-19.5 249,-34.5 457,-34.5 457,-19.5 249,-19.5"/>
<text text-anchor="start" x="250" y="-23.9" font-family="Helvetica,sans-Serif" font-size="12.00" fill="#000000">structures:SimpleObjectAttributeGroup</text>
</a>
</g>
<g id="a_node1_1"><a xlink:href="../../cbrn/subEquationNumeric/#diagram" xlink:title="An index of the sub&#45;equation to which a set of coefficients apply." target="_top">
<text text-anchor="start" x="250" y="-8.9" font-family="Helvetica,sans-Serif" font-size="12.00" fill="#000000">@cbrn:subEquationNumeric</text>
</a>
</g>
<polygon fill="#ff0000" stroke="#ff0000" points="244,-34.5 244,-34.5 462,-34.5 462,-34.5 244,-34.5"/>
<polygon fill="none" stroke="#ff0000" stroke-width="5" points="246.5,-2.5 246.5,-52.5 459.5,-52.5 459.5,-2.5 246.5,-2.5"/>
</g>
<!-- Properties -->
<g id="node2" class="node">
<title>Properties</title>
<text text-anchor="start" x="2.5" y="-39.9" font-family="Helvetica,sans-Serif" font-weight="bold" font-size="12.00" fill="#000000">Properties</text>
<g id="a_node2_2"><a xlink:href="../../cbrn/EquationCoefficientValueList/#diagram" xlink:title="A list of values of the coefficients of an equation." target="_top">
<polygon fill="#ebebeb" stroke="transparent" points="1.5,-19.5 1.5,-34.5 184.5,-34.5 184.5,-19.5 1.5,-19.5"/>
<text text-anchor="start" x="2.5" y="-23.9" font-family="Helvetica,sans-Serif" font-size="12.00" fill="#000000">cbrn:EquationCoefficientValueList</text>
</a>
</g>
<polygon fill="#000000" stroke="#000000" points=".5,-34.5 .5,-34.5 185.5,-34.5 185.5,-34.5 .5,-34.5"/>
<polygon fill="none" stroke="#000000" points="0,-18.5 0,-50.5 185,-50.5 185,-18.5 0,-18.5"/>
</g>
<!-- Properties&#45;&gt;cbrn:CoefficientsType -->
<g id="edge1" class="edge">
<title>Properties:top&#45;&gt;cbrn:CoefficientsType:top</title>
<path fill="none" stroke="#000000" d="M184.5,-42.5C209.4714,-42.5 218.1284,-42.5 238.8937,-42.5"/>
<polygon fill="#000000" stroke="#000000" points="239,-46.0001 249,-42.5 239,-39.0001 239,-46.0001"/>
<text text-anchor="middle" x="214.5" y="-45.9" font-family="Helvetica,sans-Serif" font-size="12.00" fill="#000000">type</text>
</g>
<!-- nc:DecimalListSimpleType -->
<g id="node3" class="node">
<title>nc:DecimalListSimpleType</title>
<g id="a_node3_3"><a xlink:href="../../nc/DecimalListSimpleType/#diagram" xlink:title="A data type for a white space&#45;delimited list of decimal." target="_top">
<text text-anchor="start" x="282" y="-95.9" font-family="Helvetica,sans-Serif" font-size="12.00" fill="#000000">nc:DecimalListSimpleType</text>
</a>
</g>
<polygon fill="none" stroke="#000000" points="280,-91 280,-108 426,-108 426,-91 280,-91"/>
</g>
<!-- nc:DecimalListSimpleType&#45;&gt;cbrn:CoefficientsType -->
<g id="edge2" class="edge">
<title>nc:DecimalListSimpleType&#45;&gt;cbrn:CoefficientsType</title>
<path fill="none" stroke="#000000" d="M353,-90.8151C353,-84.3271 353,-74.9677 353,-65.4273"/>
<polygon fill="#000000" stroke="#000000" points="356.5001,-65.1311 353,-55.1312 349.5001,-65.1312 356.5001,-65.1311"/>
<text text-anchor="middle" x="343.5" y="-69.9" font-family="Helvetica,sans-Serif" font-size="12.00" fill="#000000">extension</text>
</g>
</g>
</svg>
