<?xml version="1.0" encoding="UTF-8" standalone="no"?>
<!DOCTYPE svg PUBLIC "-//W3C//DTD SVG 1.1//EN"
 "http://www.w3.org/Graphics/SVG/1.1/DTD/svg11.dtd">
<!-- Generated by graphviz version 2.40.1 (20161225.0304)
 -->
<!-- Title: graphic Pages: 1 -->
<svg width="608pt" height="45pt"
 viewBox="0.00 0.00 608.00 45.00" xmlns="http://www.w3.org/2000/svg" xmlns:xlink="http://www.w3.org/1999/xlink">
<g id="graph0" class="graph" transform="scale(1 1) rotate(0) translate(4 41)">
<title>graphic</title>
<polygon fill="#ffffff" stroke="transparent" points="-4,4 -4,-41 604,-41 604,4 -4,4"/>
<!-- biom:TransmittedToothEncodingText -->
<g id="node1" class="node">
<title>biom:TransmittedToothEncodingText</title>
<text text-anchor="start" x="250" y="-21.4" font-family="Helvetica,sans-Serif" font-weight="bold" font-size="12.00" fill="#000000">biom:TransmittedToothEncodingText</text>
<polygon fill="none" stroke="#ff0000" stroke-width="5" points="246.5,-14 246.5,-34 467.5,-34 467.5,-14 246.5,-14"/>
</g>
<!-- nc:TextType -->
<g id="node3" class="node">
<title>nc:TextType</title>
<g id="a_node3_0"><a xlink:href="../../nc/TextType/#diagram" xlink:title="A data type for a character string." target="_top">
<text text-anchor="start" x="531.5" y="-20.4" font-family="Helvetica,sans-Serif" font-size="12.00" fill="#000000">nc:TextType</text>
</a>
</g>
<polygon fill="none" stroke="#000000" points="529,-15.5 529,-32.5 600,-32.5 600,-15.5 529,-15.5"/>
</g>
<!-- biom:TransmittedToothEncodingText&#45;&gt;nc:TextType -->
<g id="edge2" class="edge">
<title>biom:TransmittedToothEncodingText&#45;&gt;nc:TextType</title>
<path fill="none" stroke="#000000" d="M470.1611,-24C487.2551,-24 504.0055,-24 518.5357,-24"/>
<polygon fill="#000000" stroke="#000000" points="518.6966,-27.5001 528.6966,-24 518.6966,-20.5001 518.6966,-27.5001"/>
<text text-anchor="middle" x="499.5" y="-27.4" font-family="Helvetica,sans-Serif" font-size="12.00" fill="#000000">type</text>
</g>
<!-- Types -->
<g id="node2" class="node">
<title>Types</title>
<text text-anchor="start" x="2.5" y="-21.4" font-family="Helvetica,sans-Serif" font-weight="bold" font-size="12.00" fill="#000000">Types</text>
<g id="a_node2_1"><a xlink:href="../../biom/ToothDataInformationType/#diagram" xlink:title="A data type for a description of the teeth of a subject." target="_top">
<polygon fill="#ebebeb" stroke="transparent" points="1.5,-1 1.5,-16 176.5,-16 176.5,-1 1.5,-1"/>
<text text-anchor="start" x="2.5" y="-5.4" font-family="Helvetica,sans-Serif" font-size="12.00" fill="#000000">biom:ToothDataInformationType</text>
</a>
</g>
<polygon fill="#000000" stroke="#000000" points=".5,-16 .5,-16 177.5,-16 177.5,-16 .5,-16"/>
<polygon fill="none" stroke="#000000" points="0,0 0,-32 177,-32 177,0 0,0"/>
</g>
<!-- Types&#45;&gt;biom:TransmittedToothEncodingText -->
<g id="edge1" class="edge">
<title>Types:top&#45;&gt;biom:TransmittedToothEncodingText</title>
<path fill="none" stroke="#000000" d="M176.5,-24C194.9612,-24 214.4844,-24 233.6033,-24"/>
<polygon fill="#000000" stroke="#000000" points="233.864,-27.5001 243.8639,-24 233.8639,-20.5001 233.864,-27.5001"/>
<text text-anchor="middle" x="210.5" y="-27.4" font-family="Helvetica,sans-Serif" font-size="12.00" fill="#000000">has&#45;a</text>
</g>
</g>
</svg>
