<?xml version="1.0" encoding="UTF-8" standalone="no"?>
<!DOCTYPE svg PUBLIC "-//W3C//DTD SVG 1.1//EN"
 "http://www.w3.org/Graphics/SVG/1.1/DTD/svg11.dtd">
<!-- Generated by graphviz version 2.40.1 (20161225.0304)
 -->
<!-- Title: graphic Pages: 1 -->
<svg width="579pt" height="75pt"
 viewBox="0.00 0.00 579.00 75.00" xmlns="http://www.w3.org/2000/svg" xmlns:xlink="http://www.w3.org/1999/xlink">
<g id="graph0" class="graph" transform="scale(1 1) rotate(0) translate(4 71)">
<title>graphic</title>
<polygon fill="#ffffff" stroke="transparent" points="-4,4 -4,-71 575,-71 575,4 -4,4"/>
<!-- j:InstantMessengerID -->
<g id="node1" class="node">
<title>j:InstantMessengerID</title>
<text text-anchor="start" x="305" y="-51.4" font-family="Helvetica,sans-Serif" font-weight="bold" font-size="12.00" fill="#000000">j:InstantMessengerID</text>
<polygon fill="none" stroke="#ff0000" stroke-width="5" points="301.5,-44 301.5,-64 430.5,-64 430.5,-44 301.5,-44"/>
</g>
<!-- niem&#45;xs:string -->
<g id="node3" class="node">
<title>niem&#45;xs:string</title>
<g id="a_node3_0"><a xlink:href="../../niem-xs/string/#diagram" xlink:title="A data type for character strings in XML." target="_top">
<text text-anchor="start" x="494.5" y="-50.4" font-family="Helvetica,sans-Serif" font-size="12.00" fill="#000000">niem&#45;xs:string</text>
</a>
</g>
<polygon fill="none" stroke="#000000" points="492,-45.5 492,-62.5 571,-62.5 571,-45.5 492,-45.5"/>
</g>
<!-- j:InstantMessengerID&#45;&gt;niem&#45;xs:string -->
<g id="edge2" class="edge">
<title>j:InstantMessengerID&#45;&gt;niem&#45;xs:string</title>
<path fill="none" stroke="#000000" d="M433.3152,-54C449.4572,-54 466.4116,-54 481.6026,-54"/>
<polygon fill="#000000" stroke="#000000" points="481.806,-57.5001 491.806,-54 481.806,-50.5001 481.806,-57.5001"/>
<text text-anchor="middle" x="462.5" y="-57.4" font-family="Helvetica,sans-Serif" font-size="12.00" fill="#000000">type</text>
</g>
<!-- Types -->
<g id="node2" class="node">
<title>Types</title>
<text text-anchor="start" x="2" y="-51.4" font-family="Helvetica,sans-Serif" font-weight="bold" font-size="12.00" fill="#000000">Types</text>
<g id="a_node2_1"><a xlink:href="../../j/ActivityInstantMessengerAssociationType/#diagram" xlink:title="A data type for a relationship between an activity and an other contact address." target="_top">
<polygon fill="#ebebeb" stroke="transparent" points="1,-31 1,-46 231,-46 231,-31 1,-31"/>
<text text-anchor="start" x="2" y="-35.4" font-family="Helvetica,sans-Serif" font-size="12.00" fill="#000000">j:ActivityInstantMessengerAssociationType</text>
</a>
</g>
<g id="a_node2_2"><a xlink:href="../../j/EntityInstantMessengerAssociationType/#diagram" xlink:title="A data type for a relationship between an entity (person or organization) and an other contact address." target="_top">
<text text-anchor="start" x="2" y="-20.4" font-family="Helvetica,sans-Serif" font-size="12.00" fill="#000000">j:EntityInstantMessengerAssociationType</text>
</a>
</g>
<g id="a_node2_3"><a xlink:href="../../j/ItemInstantMessengerAssociationType/#diagram" xlink:title="A data type for a relationship between a tangible item and an instant messenger account." target="_top">
<polygon fill="#ebebeb" stroke="transparent" points="1,-1 1,-16 231,-16 231,-1 1,-1"/>
<text text-anchor="start" x="2" y="-5.4" font-family="Helvetica,sans-Serif" font-size="12.00" fill="#000000">j:ItemInstantMessengerAssociationType</text>
</a>
</g>
<polygon fill="#000000" stroke="#000000" points="0,-46 0,-46 232,-46 232,-46 0,-46"/>
<polygon fill="none" stroke="#000000" points="0,0 0,-62 232,-62 232,0 0,0"/>
</g>
<!-- Types&#45;&gt;j:InstantMessengerID -->
<g id="edge1" class="edge">
<title>Types:top&#45;&gt;j:InstantMessengerID</title>
<path fill="none" stroke="#000000" d="M231,-54C249.6749,-54 269.803,-54 288.6705,-54"/>
<polygon fill="#000000" stroke="#000000" points="288.7054,-57.5001 298.7053,-54 288.7053,-50.5001 288.7054,-57.5001"/>
<text text-anchor="middle" x="265.5" y="-57.4" font-family="Helvetica,sans-Serif" font-size="12.00" fill="#000000">has&#45;a</text>
</g>
</g>
</svg>
