<?xml version="1.0" encoding="UTF-8" standalone="no"?>
<!DOCTYPE svg PUBLIC "-//W3C//DTD SVG 1.1//EN"
 "http://www.w3.org/Graphics/SVG/1.1/DTD/svg11.dtd">
<!-- Generated by graphviz version 2.40.1 (20161225.0304)
 -->
<!-- Title: graphic Pages: 1 -->
<svg width="667pt" height="45pt"
 viewBox="0.00 0.00 667.00 45.00" xmlns="http://www.w3.org/2000/svg" xmlns:xlink="http://www.w3.org/1999/xlink">
<g id="graph0" class="graph" transform="scale(1 1) rotate(0) translate(4 41)">
<title>graphic</title>
<polygon fill="#ffffff" stroke="transparent" points="-4,4 -4,-41 663,-41 663,4 -4,4"/>
<!-- it:ShippingContainerLoadedWeightMeasure -->
<g id="node1" class="node">
<title>it:ShippingContainerLoadedWeightMeasure</title>
<text text-anchor="start" x="212.5" y="-21.4" font-family="Helvetica,sans-Serif" font-weight="bold" font-size="12.00" fill="#000000">it:ShippingContainerLoadedWeightMeasure</text>
<polygon fill="none" stroke="#ff0000" stroke-width="5" points="208.5,-14 208.5,-34 466.5,-34 466.5,-14 208.5,-14"/>
</g>
<!-- nc:WeightMeasureType -->
<g id="node3" class="node">
<title>nc:WeightMeasureType</title>
<g id="a_node3_0"><a xlink:href="../../nc/WeightMeasureType/#diagram" xlink:title="A data type for a measure of a weight." target="_top">
<text text-anchor="start" x="530.5" y="-20.4" font-family="Helvetica,sans-Serif" font-size="12.00" fill="#000000">nc:WeightMeasureType</text>
</a>
</g>
<polygon fill="none" stroke="#000000" points="528,-15.5 528,-32.5 659,-32.5 659,-15.5 528,-15.5"/>
</g>
<!-- it:ShippingContainerLoadedWeightMeasure&#45;&gt;nc:WeightMeasureType -->
<g id="edge2" class="edge">
<title>it:ShippingContainerLoadedWeightMeasure&#45;&gt;nc:WeightMeasureType</title>
<path fill="none" stroke="#000000" d="M469.2495,-24C485.7733,-24 502.2137,-24 517.468,-24"/>
<polygon fill="#000000" stroke="#000000" points="517.8256,-27.5001 527.8256,-24 517.8256,-20.5001 517.8256,-27.5001"/>
<text text-anchor="middle" x="498.5" y="-27.4" font-family="Helvetica,sans-Serif" font-size="12.00" fill="#000000">type</text>
</g>
<!-- Types -->
<g id="node2" class="node">
<title>Types</title>
<text text-anchor="start" x="2.5" y="-21.4" font-family="Helvetica,sans-Serif" font-weight="bold" font-size="12.00" fill="#000000">Types</text>
<g id="a_node2_1"><a xlink:href="../../it/ShippingContainerType/#diagram" xlink:title="A data type for a reusable container for transporting goods and materials." target="_top">
<polygon fill="#ebebeb" stroke="transparent" points="1.5,-1 1.5,-16 138.5,-16 138.5,-1 1.5,-1"/>
<text text-anchor="start" x="2.5" y="-5.4" font-family="Helvetica,sans-Serif" font-size="12.00" fill="#000000">it:ShippingContainerType</text>
</a>
</g>
<polygon fill="#000000" stroke="#000000" points=".5,-16 .5,-16 139.5,-16 139.5,-16 .5,-16"/>
<polygon fill="none" stroke="#000000" points="0,0 0,-32 139,-32 139,0 0,0"/>
</g>
<!-- Types&#45;&gt;it:ShippingContainerLoadedWeightMeasure -->
<g id="edge1" class="edge">
<title>Types:top&#45;&gt;it:ShippingContainerLoadedWeightMeasure</title>
<path fill="none" stroke="#000000" d="M138.5,-24C157.0348,-24 176.5406,-24 195.7965,-24"/>
<polygon fill="#000000" stroke="#000000" points="195.8369,-27.5001 205.8369,-24 195.8369,-20.5001 195.8369,-27.5001"/>
<text text-anchor="middle" x="172.5" y="-27.4" font-family="Helvetica,sans-Serif" font-size="12.00" fill="#000000">has&#45;a</text>
</g>
</g>
</svg>
