<?xml version="1.0" encoding="UTF-8" standalone="no"?>
<!DOCTYPE svg PUBLIC "-//W3C//DTD SVG 1.1//EN"
 "http://www.w3.org/Graphics/SVG/1.1/DTD/svg11.dtd">
<!-- Generated by graphviz version 2.40.1 (20161225.0304)
 -->
<!-- Title: graphic Pages: 1 -->
<svg width="579pt" height="45pt"
 viewBox="0.00 0.00 579.00 45.00" xmlns="http://www.w3.org/2000/svg" xmlns:xlink="http://www.w3.org/1999/xlink">
<g id="graph0" class="graph" transform="scale(1 1) rotate(0) translate(4 41)">
<title>graphic</title>
<polygon fill="#ffffff" stroke="transparent" points="-4,4 -4,-41 575,-41 575,4 -4,4"/>
<!-- j:CommercialVehiclePRISMTargetDate -->
<g id="node1" class="node">
<title>j:CommercialVehiclePRISMTargetDate</title>
<text text-anchor="start" x="214.5" y="-21.4" font-family="Helvetica,sans-Serif" font-weight="bold" font-size="12.00" fill="#000000">j:CommercialVehiclePRISMTargetDate</text>
<polygon fill="none" stroke="#ff0000" stroke-width="5" points="210.5,-14 210.5,-34 436.5,-34 436.5,-14 210.5,-14"/>
</g>
<!-- nc:DateType -->
<g id="node3" class="node">
<title>nc:DateType</title>
<g id="a_node3_0"><a xlink:href="../../nc/DateType/#diagram" xlink:title="A data type for a calendar date." target="_top">
<text text-anchor="start" x="500.5" y="-20.4" font-family="Helvetica,sans-Serif" font-size="12.00" fill="#000000">nc:DateType</text>
</a>
</g>
<polygon fill="none" stroke="#000000" points="498,-15.5 498,-32.5 571,-32.5 571,-15.5 498,-15.5"/>
</g>
<!-- j:CommercialVehiclePRISMTargetDate&#45;&gt;nc:DateType -->
<g id="edge2" class="edge">
<title>j:CommercialVehiclePRISMTargetDate&#45;&gt;nc:DateType</title>
<path fill="none" stroke="#000000" d="M439.1856,-24C456.3327,-24 473.1175,-24 487.7054,-24"/>
<polygon fill="#000000" stroke="#000000" points="487.9132,-27.5001 497.9132,-24 487.9132,-20.5001 487.9132,-27.5001"/>
<text text-anchor="middle" x="468.5" y="-27.4" font-family="Helvetica,sans-Serif" font-size="12.00" fill="#000000">type</text>
</g>
<!-- Types -->
<g id="node2" class="node">
<title>Types</title>
<text text-anchor="start" x="2.5" y="-21.4" font-family="Helvetica,sans-Serif" font-weight="bold" font-size="12.00" fill="#000000">Types</text>
<g id="a_node2_1"><a xlink:href="../../j/CommercialVehicleType/#diagram" xlink:title="A data type for a class of vehicle that includes motor vehicles with a gross vehicle weight rating of 26,001 pounds or more." target="_top">
<polygon fill="#ebebeb" stroke="transparent" points="1.5,-1 1.5,-16 140.5,-16 140.5,-1 1.5,-1"/>
<text text-anchor="start" x="2.5" y="-5.4" font-family="Helvetica,sans-Serif" font-size="12.00" fill="#000000">j:CommercialVehicleType</text>
</a>
</g>
<polygon fill="#000000" stroke="#000000" points=".5,-16 .5,-16 141.5,-16 141.5,-16 .5,-16"/>
<polygon fill="none" stroke="#000000" points="0,0 0,-32 141,-32 141,0 0,0"/>
</g>
<!-- Types&#45;&gt;j:CommercialVehiclePRISMTargetDate -->
<g id="edge1" class="edge">
<title>Types:top&#45;&gt;j:CommercialVehiclePRISMTargetDate</title>
<path fill="none" stroke="#000000" d="M140.5,-24C158.9476,-24 178.4412,-24 197.5573,-24"/>
<polygon fill="#000000" stroke="#000000" points="197.8193,-27.5001 207.8193,-24 197.8192,-20.5001 197.8193,-27.5001"/>
<text text-anchor="middle" x="174.5" y="-27.4" font-family="Helvetica,sans-Serif" font-size="12.00" fill="#000000">has&#45;a</text>
</g>
</g>
</svg>
