<?xml version="1.0" encoding="UTF-8" standalone="no"?>
<!DOCTYPE svg PUBLIC "-//W3C//DTD SVG 1.1//EN"
 "http://www.w3.org/Graphics/SVG/1.1/DTD/svg11.dtd">
<!-- Generated by graphviz version 2.40.1 (20161225.0304)
 -->
<!-- Title: graphic Pages: 1 -->
<svg width="553pt" height="45pt"
 viewBox="0.00 0.00 553.00 45.00" xmlns="http://www.w3.org/2000/svg" xmlns:xlink="http://www.w3.org/1999/xlink">
<g id="graph0" class="graph" transform="scale(1 1) rotate(0) translate(4 41)">
<title>graphic</title>
<polygon fill="#ffffff" stroke="transparent" points="-4,4 -4,-41 549,-41 549,4 -4,4"/>
<!-- j:ImageNCICIdentification -->
<g id="node1" class="node">
<title>j:ImageNCICIdentification</title>
<text text-anchor="start" x="218.5" y="-21.4" font-family="Helvetica,sans-Serif" font-weight="bold" font-size="12.00" fill="#000000">j:ImageNCICIdentification</text>
<polygon fill="none" stroke="#ff0000" stroke-width="5" points="214.5,-14 214.5,-34 368.5,-34 368.5,-14 214.5,-14"/>
</g>
<!-- nc:IdentificationType -->
<g id="node3" class="node">
<title>nc:IdentificationType</title>
<g id="a_node3_0"><a xlink:href="../../nc/IdentificationType/#diagram" xlink:title="A data type for a representation of an identity." target="_top">
<text text-anchor="start" x="432.5" y="-20.4" font-family="Helvetica,sans-Serif" font-size="12.00" fill="#000000">nc:IdentificationType</text>
</a>
</g>
<polygon fill="none" stroke="#000000" points="430,-15.5 430,-32.5 545,-32.5 545,-15.5 430,-15.5"/>
</g>
<!-- j:ImageNCICIdentification&#45;&gt;nc:IdentificationType -->
<g id="edge2" class="edge">
<title>j:ImageNCICIdentification&#45;&gt;nc:IdentificationType</title>
<path fill="none" stroke="#000000" d="M371.2207,-24C387.3046,-24 404.0695,-24 419.6986,-24"/>
<polygon fill="#000000" stroke="#000000" points="419.7867,-27.5001 429.7867,-24 419.7866,-20.5001 419.7867,-27.5001"/>
<text text-anchor="middle" x="400.5" y="-27.4" font-family="Helvetica,sans-Serif" font-size="12.00" fill="#000000">type</text>
</g>
<!-- Types -->
<g id="node2" class="node">
<title>Types</title>
<text text-anchor="start" x="2.5" y="-21.4" font-family="Helvetica,sans-Serif" font-weight="bold" font-size="12.00" fill="#000000">Types</text>
<g id="a_node2_1"><a xlink:href="../../j/ImageAugmentationType/#diagram" xlink:title="A data type for additional information about an image." target="_top">
<polygon fill="#ebebeb" stroke="transparent" points="1.5,-1 1.5,-16 144.5,-16 144.5,-1 1.5,-1"/>
<text text-anchor="start" x="2.5" y="-5.4" font-family="Helvetica,sans-Serif" font-size="12.00" fill="#000000">j:ImageAugmentationType</text>
</a>
</g>
<polygon fill="#000000" stroke="#000000" points=".5,-16 .5,-16 145.5,-16 145.5,-16 .5,-16"/>
<polygon fill="none" stroke="#000000" points="0,0 0,-32 145,-32 145,0 0,0"/>
</g>
<!-- Types&#45;&gt;j:ImageNCICIdentification -->
<g id="edge1" class="edge">
<title>Types:top&#45;&gt;j:ImageNCICIdentification</title>
<path fill="none" stroke="#000000" d="M144.5,-24C162.9961,-24 182.8013,-24 201.692,-24"/>
<polygon fill="#000000" stroke="#000000" points="201.7758,-27.5001 211.7757,-24 201.7757,-20.5001 201.7758,-27.5001"/>
<text text-anchor="middle" x="178.5" y="-27.4" font-family="Helvetica,sans-Serif" font-size="12.00" fill="#000000">has&#45;a</text>
</g>
</g>
</svg>
