<?xml version="1.0" encoding="UTF-8" standalone="no"?>
<!DOCTYPE svg PUBLIC "-//W3C//DTD SVG 1.1//EN"
 "http://www.w3.org/Graphics/SVG/1.1/DTD/svg11.dtd">
<!-- Generated by graphviz version 2.40.1 (20161225.0304)
 -->
<!-- Title: graphic Pages: 1 -->
<svg width="445pt" height="86pt"
 viewBox="0.00 0.00 445.00 86.00" xmlns="http://www.w3.org/2000/svg" xmlns:xlink="http://www.w3.org/1999/xlink">
<g id="graph0" class="graph" transform="scale(1 1) rotate(0) translate(4 82)">
<title>graphic</title>
<polygon fill="#ffffff" stroke="transparent" points="-4,4 -4,-82 441,-82 441,4 -4,4"/>
<!-- scr:LeadSourceCategoryCode -->
<g id="node1" class="node">
<title>scr:LeadSourceCategoryCode</title>
<text text-anchor="start" x="6.5" y="-9.9" font-family="Helvetica,sans-Serif" font-weight="bold" font-size="12.00" fill="#000000">scr:LeadSourceCategoryCode</text>
<polygon fill="none" stroke="#ff0000" stroke-width="5" points="2.5,-2.5 2.5,-22.5 182.5,-22.5 182.5,-2.5 2.5,-2.5"/>
</g>
<!-- scr:LeadSourceCategoryCodeType -->
<g id="node3" class="node">
<title>scr:LeadSourceCategoryCodeType</title>
<g id="a_node3_0"><a xlink:href="../../scr/LeadSourceCategoryCodeType/#diagram" xlink:title="A data type for a LEAD SOURCE TYPE" target="_top">
<text text-anchor="start" x="246.5" y="-8.9" font-family="Helvetica,sans-Serif" font-size="12.00" fill="#000000">scr:LeadSourceCategoryCodeType</text>
</a>
</g>
<polygon fill="none" stroke="#000000" points="244,-4 244,-21 437,-21 437,-4 244,-4"/>
</g>
<!-- scr:LeadSourceCategoryCode&#45;&gt;scr:LeadSourceCategoryCodeType -->
<g id="edge2" class="edge">
<title>scr:LeadSourceCategoryCode&#45;&gt;scr:LeadSourceCategoryCodeType</title>
<path fill="none" stroke="#000000" d="M185.1987,-12.5C201.0354,-12.5 217.601,-12.5 233.7672,-12.5"/>
<polygon fill="#000000" stroke="#000000" points="233.7713,-16.0001 243.7713,-12.5 233.7712,-9.0001 233.7713,-16.0001"/>
<text text-anchor="middle" x="214.5" y="-15.9" font-family="Helvetica,sans-Serif" font-size="12.00" fill="#000000">type</text>
</g>
<!-- SubstitutionGroup -->
<g id="node2" class="node">
<title>SubstitutionGroup</title>
<g id="a_node2_1"><a xlink:href="../../scr/LeadSourceCategoryAbstract/#diagram" xlink:title="A data concept for a LEAD SOURCE TYPE" target="_top">
<text text-anchor="start" x="4.5" y="-65.9" font-family="Helvetica,sans-Serif" font-size="12.00" fill="#000000">scr:LeadSourceCategoryAbstract</text>
</a>
</g>
<polygon fill="none" stroke="#000000" points="2,-61 2,-78 183,-78 183,-61 2,-61"/>
</g>
<!-- SubstitutionGroup&#45;&gt;scr:LeadSourceCategoryCode -->
<g id="edge1" class="edge">
<title>SubstitutionGroup&#45;&gt;scr:LeadSourceCategoryCode</title>
<path fill="none" stroke="#000000" d="M92.5,-50.9163C92.5,-42.4809 92.5,-32.7214 92.5,-25.1501"/>
<polygon fill="#000000" stroke="#000000" points="89.0001,-50.9472 92.5,-60.9473 96.0001,-50.9473 89.0001,-50.9472"/>
<text text-anchor="middle" x="83" y="-39.9" font-family="Helvetica,sans-Serif" font-size="12.00" fill="#000000">substitution group</text>
</g>
</g>
</svg>
