<?xml version="1.0" encoding="UTF-8" standalone="no"?>
<!DOCTYPE svg PUBLIC "-//W3C//DTD SVG 1.1//EN"
 "http://www.w3.org/Graphics/SVG/1.1/DTD/svg11.dtd">
<!-- Generated by graphviz version 2.40.1 (20161225.0304)
 -->
<!-- Title: graphic Pages: 1 -->
<svg width="557pt" height="131pt"
 viewBox="0.00 0.00 557.00 131.00" xmlns="http://www.w3.org/2000/svg" xmlns:xlink="http://www.w3.org/1999/xlink">
<g id="graph0" class="graph" transform="scale(1 1) rotate(0) translate(4 127)">
<title>graphic</title>
<polygon fill="#ffffff" stroke="transparent" points="-4,4 -4,-127 553,-127 553,4 -4,4"/>
<!-- nc:PersonNameAugmentationPoint -->
<g id="node1" class="node">
<title>nc:PersonNameAugmentationPoint</title>
<text text-anchor="start" x="265.5" y="-107.4" font-family="Helvetica,sans-Serif" font-weight="bold" font-size="12.00" fill="#000000">nc:PersonNameAugmentationPoint</text>
<polygon fill="none" stroke="#ff0000" stroke-width="5" points="261.5,-100 261.5,-120 471.5,-120 471.5,-100 261.5,-100"/>
</g>
<!-- SubstitutableElements -->
<g id="node3" class="node">
<title>SubstitutableElements</title>
<text text-anchor="start" x="186.5" y="-51.4" font-family="Helvetica,sans-Serif" font-weight="bold" font-size="12.00" fill="#000000">Substitutable elements</text>
<g id="a_node3_0"><a xlink:href="../../im/PersonNameAugmentation/#diagram" xlink:title="Additional information about a person name." target="_top">
<polygon fill="#ebebeb" stroke="transparent" points="185.5,-31 185.5,-46 548.5,-46 548.5,-31 185.5,-31"/>
<text text-anchor="start" x="186.5" y="-35.4" font-family="Helvetica,sans-Serif" font-size="12.00" fill="#000000">im:PersonNameAugmentation: im:PersonNameAugmentationType</text>
</a>
</g>
<g id="a_node3_1"><a xlink:href="../../j/PersonNameAugmentation/#diagram" xlink:title="Additional information about a person name." target="_top">
<text text-anchor="start" x="186.5" y="-20.4" font-family="Helvetica,sans-Serif" font-size="12.00" fill="#000000">j:PersonNameAugmentation: j:PersonNameAugmentationType</text>
</a>
</g>
<g id="a_node3_2"><a xlink:href="../../scr/PersonNameAugmentation/#diagram" xlink:title="Additional information about a person name." target="_top">
<polygon fill="#ebebeb" stroke="transparent" points="185.5,-1 185.5,-16 548.5,-16 548.5,-1 185.5,-1"/>
<text text-anchor="start" x="186.5" y="-5.4" font-family="Helvetica,sans-Serif" font-size="12.00" fill="#000000">scr:PersonNameAugmentation: scr:PersonNameAugmentationType</text>
</a>
</g>
<polygon fill="#000000" stroke="#000000" points="184.5,-46 184.5,-46 549.5,-46 549.5,-46 184.5,-46"/>
<polygon fill="none" stroke="#000000" points="184,0 184,-62 549,-62 549,0 184,0"/>
</g>
<!-- nc:PersonNameAugmentationPoint&#45;&gt;SubstitutableElements -->
<g id="edge2" class="edge">
<title>nc:PersonNameAugmentationPoint&#45;&gt;SubstitutableElements</title>
<path fill="none" stroke="#000000" d="M366.5,-87.1686C366.5,-79.3868 366.5,-70.5481 366.5,-62.2229"/>
<polygon fill="#000000" stroke="#000000" points="363.0001,-87.3018 366.5,-97.3018 370.0001,-87.3018 363.0001,-87.3018"/>
<text text-anchor="middle" x="357" y="-76.65" font-family="Helvetica,sans-Serif" font-size="12.00" fill="#000000">substitutable for</text>
</g>
<!-- Types -->
<g id="node2" class="node">
<title>Types</title>
<text text-anchor="start" x="2.5" y="-107.4" font-family="Helvetica,sans-Serif" font-weight="bold" font-size="12.00" fill="#000000">Types</text>
<g id="a_node2_3"><a xlink:href="../../nc/PersonNameType/#diagram" xlink:title="A data type for a combination of names and/or titles by which a person is known." target="_top">
<polygon fill="#ebebeb" stroke="transparent" points="1.5,-87 1.5,-102 116.5,-102 116.5,-87 1.5,-87"/>
<text text-anchor="start" x="2.5" y="-91.4" font-family="Helvetica,sans-Serif" font-size="12.00" fill="#000000">nc:PersonNameType</text>
</a>
</g>
<polygon fill="#000000" stroke="#000000" points=".5,-102 .5,-102 117.5,-102 117.5,-102 .5,-102"/>
<polygon fill="none" stroke="#000000" points="0,-86 0,-118 117,-118 117,-86 0,-86"/>
</g>
<!-- Types&#45;&gt;nc:PersonNameAugmentationPoint -->
<g id="edge1" class="edge">
<title>Types:top&#45;&gt;nc:PersonNameAugmentationPoint</title>
<path fill="none" stroke="#000000" d="M116.5,-110C159.604,-110 206.8883,-110 248.6227,-110"/>
<polygon fill="#000000" stroke="#000000" points="248.8274,-113.5001 258.8274,-110 248.8273,-106.5001 248.8274,-113.5001"/>
<text text-anchor="middle" x="150.5" y="-113.4" font-family="Helvetica,sans-Serif" font-size="12.00" fill="#000000">has&#45;a</text>
</g>
</g>
</svg>
