<?xml version="1.0" encoding="UTF-8" standalone="no"?>
<!DOCTYPE svg PUBLIC "-//W3C//DTD SVG 1.1//EN"
 "http://www.w3.org/Graphics/SVG/1.1/DTD/svg11.dtd">
<!-- Generated by graphviz version 2.40.1 (20161225.0304)
 -->
<!-- Title: graphic Pages: 1 -->
<svg width="356pt" height="45pt"
 viewBox="0.00 0.00 356.00 45.00" xmlns="http://www.w3.org/2000/svg" xmlns:xlink="http://www.w3.org/1999/xlink">
<g id="graph0" class="graph" transform="scale(1 1) rotate(0) translate(4 41)">
<title>graphic</title>
<polygon fill="#ffffff" stroke="transparent" points="-4,4 -4,-41 352,-41 352,4 -4,4"/>
<!-- nc:TaskID -->
<g id="node1" class="node">
<title>nc:TaskID</title>
<text text-anchor="start" x="146" y="-21.4" font-family="Helvetica,sans-Serif" font-weight="bold" font-size="12.00" fill="#000000">nc:TaskID</text>
<polygon fill="none" stroke="#ff0000" stroke-width="5" points="142.5,-14 142.5,-34 207.5,-34 207.5,-14 142.5,-14"/>
</g>
<!-- niem&#45;xs:string -->
<g id="node3" class="node">
<title>niem&#45;xs:string</title>
<g id="a_node3_0"><a xlink:href="../../niem-xs/string/#diagram" xlink:title="A data type for character strings in XML." target="_top">
<text text-anchor="start" x="271.5" y="-20.4" font-family="Helvetica,sans-Serif" font-size="12.00" fill="#000000">niem&#45;xs:string</text>
</a>
</g>
<polygon fill="none" stroke="#000000" points="269,-15.5 269,-32.5 348,-32.5 348,-15.5 269,-15.5"/>
</g>
<!-- nc:TaskID&#45;&gt;niem&#45;xs:string -->
<g id="edge2" class="edge">
<title>nc:TaskID&#45;&gt;niem&#45;xs:string</title>
<path fill="none" stroke="#000000" d="M210.0756,-24C224.9046,-24 242.4487,-24 258.5879,-24"/>
<polygon fill="#000000" stroke="#000000" points="258.948,-27.5001 268.948,-24 258.948,-20.5001 258.948,-27.5001"/>
<text text-anchor="middle" x="239.5" y="-27.4" font-family="Helvetica,sans-Serif" font-size="12.00" fill="#000000">type</text>
</g>
<!-- Types -->
<g id="node2" class="node">
<title>Types</title>
<text text-anchor="start" x="2.5" y="-21.4" font-family="Helvetica,sans-Serif" font-weight="bold" font-size="12.00" fill="#000000">Types</text>
<g id="a_node2_1"><a xlink:href="../../nc/TaskType/#diagram" xlink:title="A data type for a clearly defined action or activity specifically assigned to an individual or organization that must be done as it is imposed by an appropriate authority." target="_top">
<polygon fill="#ebebeb" stroke="transparent" points="1.5,-1 1.5,-16 72.5,-16 72.5,-1 1.5,-1"/>
<text text-anchor="start" x="2.5" y="-5.4" font-family="Helvetica,sans-Serif" font-size="12.00" fill="#000000">nc:TaskType</text>
</a>
</g>
<polygon fill="#000000" stroke="#000000" points=".5,-16 .5,-16 73.5,-16 73.5,-16 .5,-16"/>
<polygon fill="none" stroke="#000000" points="0,0 0,-32 73,-32 73,0 0,0"/>
</g>
<!-- Types&#45;&gt;nc:TaskID -->
<g id="edge1" class="edge">
<title>Types:top&#45;&gt;nc:TaskID</title>
<path fill="none" stroke="#000000" d="M72.5,-24C91.2433,-24 111.9145,-24 129.7543,-24"/>
<polygon fill="#000000" stroke="#000000" points="129.895,-27.5001 139.895,-24 129.8949,-20.5001 129.895,-27.5001"/>
<text text-anchor="middle" x="106.5" y="-27.4" font-family="Helvetica,sans-Serif" font-size="12.00" fill="#000000">has&#45;a</text>
</g>
</g>
</svg>
