<?xml version="1.0" encoding="UTF-8" standalone="no"?>
<!DOCTYPE svg PUBLIC "-//W3C//DTD SVG 1.1//EN"
 "http://www.w3.org/Graphics/SVG/1.1/DTD/svg11.dtd">
<!-- Generated by graphviz version 2.40.1 (20161225.0304)
 -->
<!-- Title: graphic Pages: 1 -->
<svg width="529pt" height="45pt"
 viewBox="0.00 0.00 529.00 45.00" xmlns="http://www.w3.org/2000/svg" xmlns:xlink="http://www.w3.org/1999/xlink">
<g id="graph0" class="graph" transform="scale(1 1) rotate(0) translate(4 41)">
<title>graphic</title>
<polygon fill="#ffffff" stroke="transparent" points="-4,4 -4,-41 525,-41 525,4 -4,4"/>
<!-- j:CourtActivityScheduleDay -->
<g id="node1" class="node">
<title>j:CourtActivityScheduleDay</title>
<text text-anchor="start" x="178.5" y="-21.4" font-family="Helvetica,sans-Serif" font-weight="bold" font-size="12.00" fill="#000000">j:CourtActivityScheduleDay</text>
<polygon fill="none" stroke="#ff0000" stroke-width="5" points="174.5,-14 174.5,-34 340.5,-34 340.5,-14 174.5,-14"/>
</g>
<!-- nc:ScheduleDayType -->
<g id="node3" class="node">
<title>nc:ScheduleDayType</title>
<g id="a_node3_0"><a xlink:href="../../nc/ScheduleDayType/#diagram" xlink:title="A data type for a plan or agenda for the activities of a day." target="_top">
<text text-anchor="start" x="404.5" y="-20.4" font-family="Helvetica,sans-Serif" font-size="12.00" fill="#000000">nc:ScheduleDayType</text>
</a>
</g>
<polygon fill="none" stroke="#000000" points="402,-15.5 402,-32.5 521,-32.5 521,-15.5 402,-15.5"/>
</g>
<!-- j:CourtActivityScheduleDay&#45;&gt;nc:ScheduleDayType -->
<g id="edge2" class="edge">
<title>j:CourtActivityScheduleDay&#45;&gt;nc:ScheduleDayType</title>
<path fill="none" stroke="#000000" d="M343.1277,-24C359.3171,-24 376.0715,-24 391.7017,-24"/>
<polygon fill="#000000" stroke="#000000" points="391.7935,-27.5001 401.7935,-24 391.7935,-20.5001 391.7935,-27.5001"/>
<text text-anchor="middle" x="372.5" y="-27.4" font-family="Helvetica,sans-Serif" font-size="12.00" fill="#000000">type</text>
</g>
<!-- Types -->
<g id="node2" class="node">
<title>Types</title>
<text text-anchor="start" x="2.5" y="-21.4" font-family="Helvetica,sans-Serif" font-weight="bold" font-size="12.00" fill="#000000">Types</text>
<g id="a_node2_1"><a xlink:href="../../j/CourtActivityType/#diagram" xlink:title="A data type for a court&#45;related action associated with a court case event." target="_top">
<polygon fill="#ebebeb" stroke="transparent" points="1.5,-1 1.5,-16 104.5,-16 104.5,-1 1.5,-1"/>
<text text-anchor="start" x="2.5" y="-5.4" font-family="Helvetica,sans-Serif" font-size="12.00" fill="#000000">j:CourtActivityType</text>
</a>
</g>
<polygon fill="#000000" stroke="#000000" points=".5,-16 .5,-16 105.5,-16 105.5,-16 .5,-16"/>
<polygon fill="none" stroke="#000000" points="0,0 0,-32 105,-32 105,0 0,0"/>
</g>
<!-- Types&#45;&gt;j:CourtActivityScheduleDay -->
<g id="edge1" class="edge">
<title>Types:top&#45;&gt;j:CourtActivityScheduleDay</title>
<path fill="none" stroke="#000000" d="M104.5,-24C122.963,-24 142.6793,-24 161.6071,-24"/>
<polygon fill="#000000" stroke="#000000" points="161.7243,-27.5001 171.7242,-24 161.7242,-20.5001 161.7243,-27.5001"/>
<text text-anchor="middle" x="138.5" y="-27.4" font-family="Helvetica,sans-Serif" font-size="12.00" fill="#000000">has&#45;a</text>
</g>
</g>
</svg>
