<?xml version="1.0" encoding="UTF-8" standalone="no"?>
<!DOCTYPE svg PUBLIC "-//W3C//DTD SVG 1.1//EN"
 "http://www.w3.org/Graphics/SVG/1.1/DTD/svg11.dtd">
<!-- Generated by graphviz version 2.40.1 (20161225.0304)
 -->
<!-- Title: graphic Pages: 1 -->
<svg width="363pt" height="45pt"
 viewBox="0.00 0.00 363.00 45.00" xmlns="http://www.w3.org/2000/svg" xmlns:xlink="http://www.w3.org/1999/xlink">
<g id="graph0" class="graph" transform="scale(1 1) rotate(0) translate(4 41)">
<title>graphic</title>
<polygon fill="#ffffff" stroke="transparent" points="-4,4 -4,-41 359,-41 359,4 -4,4"/>
<!-- hs:EligibilityAugmentationPoint -->
<g id="node1" class="node">
<title>hs:EligibilityAugmentationPoint</title>
<text text-anchor="start" x="167" y="-21.4" font-family="Helvetica,sans-Serif" font-weight="bold" font-size="12.00" fill="#000000">hs:EligibilityAugmentationPoint</text>
<polygon fill="none" stroke="#ff0000" stroke-width="5" points="163.5,-14 163.5,-34 352.5,-34 352.5,-14 163.5,-14"/>
</g>
<!-- Types -->
<g id="node2" class="node">
<title>Types</title>
<text text-anchor="start" x="2" y="-21.4" font-family="Helvetica,sans-Serif" font-weight="bold" font-size="12.00" fill="#000000">Types</text>
<g id="a_node2_0"><a xlink:href="../../hs/EligibilityType/#diagram" xlink:title="A data type for a set of programs for which a person may be considered for eligibility." target="_top">
<polygon fill="#ebebeb" stroke="transparent" points="1,-1 1,-16 93,-16 93,-1 1,-1"/>
<text text-anchor="start" x="2" y="-5.4" font-family="Helvetica,sans-Serif" font-size="12.00" fill="#000000">hs:EligibilityType</text>
</a>
</g>
<polygon fill="#000000" stroke="#000000" points="0,-16 0,-16 94,-16 94,-16 0,-16"/>
<polygon fill="none" stroke="#000000" points="0,0 0,-32 94,-32 94,0 0,0"/>
</g>
<!-- Types&#45;&gt;hs:EligibilityAugmentationPoint -->
<g id="edge1" class="edge">
<title>Types:top&#45;&gt;hs:EligibilityAugmentationPoint</title>
<path fill="none" stroke="#000000" d="M93,-24C111.5756,-24 131.3275,-24 150.4679,-24"/>
<polygon fill="#000000" stroke="#000000" points="150.7183,-27.5001 160.7183,-24 150.7182,-20.5001 150.7183,-27.5001"/>
<text text-anchor="middle" x="127.5" y="-27.4" font-family="Helvetica,sans-Serif" font-size="12.00" fill="#000000">has&#45;a</text>
</g>
</g>
</svg>
