<?xml version="1.0" encoding="UTF-8" standalone="no"?>
<!DOCTYPE svg PUBLIC "-//W3C//DTD SVG 1.1//EN"
 "http://www.w3.org/Graphics/SVG/1.1/DTD/svg11.dtd">
<!-- Generated by graphviz version 2.40.1 (20161225.0304)
 -->
<!-- Title: graphic Pages: 1 -->
<svg width="510pt" height="45pt"
 viewBox="0.00 0.00 510.00 45.00" xmlns="http://www.w3.org/2000/svg" xmlns:xlink="http://www.w3.org/1999/xlink">
<g id="graph0" class="graph" transform="scale(1 1) rotate(0) translate(4 41)">
<title>graphic</title>
<polygon fill="#ffffff" stroke="transparent" points="-4,4 -4,-41 506,-41 506,4 -4,4"/>
<!-- em:PrintedText -->
<g id="node1" class="node">
<title>em:PrintedText</title>
<text text-anchor="start" x="278" y="-21.4" font-family="Helvetica,sans-Serif" font-weight="bold" font-size="12.00" fill="#000000">em:PrintedText</text>
<polygon fill="none" stroke="#ff0000" stroke-width="5" points="274.5,-14 274.5,-34 369.5,-34 369.5,-14 274.5,-14"/>
</g>
<!-- nc:TextType -->
<g id="node3" class="node">
<title>nc:TextType</title>
<g id="a_node3_0"><a xlink:href="../../nc/TextType/#diagram" xlink:title="A data type for a character string." target="_top">
<text text-anchor="start" x="433.5" y="-20.4" font-family="Helvetica,sans-Serif" font-size="12.00" fill="#000000">nc:TextType</text>
</a>
</g>
<polygon fill="none" stroke="#000000" points="431,-15.5 431,-32.5 502,-32.5 502,-15.5 431,-15.5"/>
</g>
<!-- em:PrintedText&#45;&gt;nc:TextType -->
<g id="edge2" class="edge">
<title>em:PrintedText&#45;&gt;nc:TextType</title>
<path fill="none" stroke="#000000" d="M372.1336,-24C387.7638,-24 404.9224,-24 420.2723,-24"/>
<polygon fill="#000000" stroke="#000000" points="420.5691,-27.5001 430.5691,-24 420.5691,-20.5001 420.5691,-27.5001"/>
<text text-anchor="middle" x="401.5" y="-27.4" font-family="Helvetica,sans-Serif" font-size="12.00" fill="#000000">type</text>
</g>
<!-- Types -->
<g id="node2" class="node">
<title>Types</title>
<text text-anchor="start" x="2.5" y="-21.4" font-family="Helvetica,sans-Serif" font-weight="bold" font-size="12.00" fill="#000000">Types</text>
<g id="a_node2_1"><a xlink:href="../../em/NISTSP800733PIVCardDataType/#diagram" xlink:title="A data type for fields contained on a PIV card" target="_top">
<polygon fill="#ebebeb" stroke="transparent" points="1.5,-1 1.5,-16 204.5,-16 204.5,-1 1.5,-1"/>
<text text-anchor="start" x="2.5" y="-5.4" font-family="Helvetica,sans-Serif" font-size="12.00" fill="#000000">em:NISTSP800733PIVCardDataType</text>
</a>
</g>
<polygon fill="#000000" stroke="#000000" points=".5,-16 .5,-16 205.5,-16 205.5,-16 .5,-16"/>
<polygon fill="none" stroke="#000000" points="0,0 0,-32 205,-32 205,0 0,0"/>
</g>
<!-- Types&#45;&gt;em:PrintedText -->
<g id="edge1" class="edge">
<title>Types:top&#45;&gt;em:PrintedText</title>
<path fill="none" stroke="#000000" d="M204.5,-24C223.1749,-24 243.5194,-24 261.9512,-24"/>
<polygon fill="#000000" stroke="#000000" points="261.9716,-27.5001 271.9716,-24 261.9715,-20.5001 261.9716,-27.5001"/>
<text text-anchor="middle" x="238.5" y="-27.4" font-family="Helvetica,sans-Serif" font-size="12.00" fill="#000000">has&#45;a</text>
</g>
</g>
</svg>
