<?xml version="1.0" encoding="UTF-8" standalone="no"?>
<!DOCTYPE svg PUBLIC "-//W3C//DTD SVG 1.1//EN"
 "http://www.w3.org/Graphics/SVG/1.1/DTD/svg11.dtd">
<!-- Generated by graphviz version 2.40.1 (20161225.0304)
 -->
<!-- Title: graphic Pages: 1 -->
<svg width="629pt" height="45pt"
 viewBox="0.00 0.00 629.00 45.00" xmlns="http://www.w3.org/2000/svg" xmlns:xlink="http://www.w3.org/1999/xlink">
<g id="graph0" class="graph" transform="scale(1 1) rotate(0) translate(4 41)">
<title>graphic</title>
<polygon fill="#ffffff" stroke="transparent" points="-4,4 -4,-41 625,-41 625,4 -4,4"/>
<!-- em:ResourceRequestedArrivalDateTime -->
<g id="node1" class="node">
<title>em:ResourceRequestedArrivalDateTime</title>
<text text-anchor="start" x="226" y="-21.4" font-family="Helvetica,sans-Serif" font-weight="bold" font-size="12.00" fill="#000000">em:ResourceRequestedArrivalDateTime</text>
<polygon fill="none" stroke="#ff0000" stroke-width="5" points="222.5,-14 222.5,-34 459.5,-34 459.5,-14 222.5,-14"/>
</g>
<!-- niem&#45;xs:dateTime -->
<g id="node3" class="node">
<title>niem&#45;xs:dateTime</title>
<g id="a_node3_0"><a xlink:href="../../niem-xs/dateTime/#diagram" xlink:title="A data type for objects with integer&#45;valued year, month, day, hour and minute properties, a decimal&#45;valued second property, and a boolean timezoned property." target="_top">
<text text-anchor="start" x="523" y="-20.4" font-family="Helvetica,sans-Serif" font-size="12.00" fill="#000000">niem&#45;xs:dateTime</text>
</a>
</g>
<polygon fill="none" stroke="#000000" points="521,-15.5 521,-32.5 621,-32.5 621,-15.5 521,-15.5"/>
</g>
<!-- em:ResourceRequestedArrivalDateTime&#45;&gt;niem&#45;xs:dateTime -->
<g id="edge2" class="edge">
<title>em:ResourceRequestedArrivalDateTime&#45;&gt;niem&#45;xs:dateTime</title>
<path fill="none" stroke="#000000" d="M462.062,-24C478.9447,-24 495.6527,-24 510.7252,-24"/>
<polygon fill="#000000" stroke="#000000" points="510.8807,-27.5001 520.8807,-24 510.8807,-20.5001 510.8807,-27.5001"/>
<text text-anchor="middle" x="491.5" y="-27.4" font-family="Helvetica,sans-Serif" font-size="12.00" fill="#000000">type</text>
</g>
<!-- Types -->
<g id="node2" class="node">
<title>Types</title>
<text text-anchor="start" x="2.5" y="-21.4" font-family="Helvetica,sans-Serif" font-weight="bold" font-size="12.00" fill="#000000">Types</text>
<g id="a_node2_1"><a xlink:href="../../em/ResourceScheduleType/#diagram" xlink:title="A data type that has elements related to the Resource schedule as a date or date/time" target="_top">
<polygon fill="#ebebeb" stroke="transparent" points="1.5,-1 1.5,-16 152.5,-16 152.5,-1 1.5,-1"/>
<text text-anchor="start" x="2.5" y="-5.4" font-family="Helvetica,sans-Serif" font-size="12.00" fill="#000000">em:ResourceScheduleType</text>
</a>
</g>
<polygon fill="#000000" stroke="#000000" points=".5,-16 .5,-16 153.5,-16 153.5,-16 .5,-16"/>
<polygon fill="none" stroke="#000000" points="0,0 0,-32 153,-32 153,0 0,0"/>
</g>
<!-- Types&#45;&gt;em:ResourceRequestedArrivalDateTime -->
<g id="edge1" class="edge">
<title>Types:top&#45;&gt;em:ResourceRequestedArrivalDateTime</title>
<path fill="none" stroke="#000000" d="M152.5,-24C171.0322,-24 190.5893,-24 209.811,-24"/>
<polygon fill="#000000" stroke="#000000" points="209.8249,-27.5001 219.8249,-24 209.8249,-20.5001 209.8249,-27.5001"/>
<text text-anchor="middle" x="186.5" y="-27.4" font-family="Helvetica,sans-Serif" font-size="12.00" fill="#000000">has&#45;a</text>
</g>
</g>
</svg>
