<?xml version="1.0" encoding="UTF-8" standalone="no"?>
<!DOCTYPE svg PUBLIC "-//W3C//DTD SVG 1.1//EN"
 "http://www.w3.org/Graphics/SVG/1.1/DTD/svg11.dtd">
<!-- Generated by graphviz version 2.40.1 (20161225.0304)
 -->
<!-- Title: graphic Pages: 1 -->
<svg width="329pt" height="45pt"
 viewBox="0.00 0.00 329.00 45.00" xmlns="http://www.w3.org/2000/svg" xmlns:xlink="http://www.w3.org/1999/xlink">
<g id="graph0" class="graph" transform="scale(1 1) rotate(0) translate(4 41)">
<title>graphic</title>
<polygon fill="#ffffff" stroke="transparent" points="-4,4 -4,-41 325,-41 325,4 -4,4"/>
<!-- j:FirearmAugmentationPoint -->
<g id="node1" class="node">
<title>j:FirearmAugmentationPoint</title>
<text text-anchor="start" x="152.5" y="-21.4" font-family="Helvetica,sans-Serif" font-weight="bold" font-size="12.00" fill="#000000">j:FirearmAugmentationPoint</text>
<polygon fill="none" stroke="#ff0000" stroke-width="5" points="148.5,-14 148.5,-34 318.5,-34 318.5,-14 148.5,-14"/>
</g>
<!-- Types -->
<g id="node2" class="node">
<title>Types</title>
<text text-anchor="start" x="2.5" y="-21.4" font-family="Helvetica,sans-Serif" font-weight="bold" font-size="12.00" fill="#000000">Types</text>
<g id="a_node2_0"><a xlink:href="../../j/FirearmType/#diagram" xlink:title="A data type for a weapon that will, or is designed to, or may readily be converted to expel a projectile by air, carbon dioxide, or the action of an explosive." target="_top">
<polygon fill="#ebebeb" stroke="transparent" points="1.5,-1 1.5,-16 78.5,-16 78.5,-1 1.5,-1"/>
<text text-anchor="start" x="2.5" y="-5.4" font-family="Helvetica,sans-Serif" font-size="12.00" fill="#000000">j:FirearmType</text>
</a>
</g>
<polygon fill="#000000" stroke="#000000" points=".5,-16 .5,-16 79.5,-16 79.5,-16 .5,-16"/>
<polygon fill="none" stroke="#000000" points="0,0 0,-32 79,-32 79,0 0,0"/>
</g>
<!-- Types&#45;&gt;j:FirearmAugmentationPoint -->
<g id="edge1" class="edge">
<title>Types:top&#45;&gt;j:FirearmAugmentationPoint</title>
<path fill="none" stroke="#000000" d="M78.5,-24C96.9763,-24 116.6914,-24 135.6517,-24"/>
<polygon fill="#000000" stroke="#000000" points="135.7899,-27.5001 145.7899,-24 135.7899,-20.5001 135.7899,-27.5001"/>
<text text-anchor="middle" x="112.5" y="-27.4" font-family="Helvetica,sans-Serif" font-size="12.00" fill="#000000">has&#45;a</text>
</g>
</g>
</svg>
