<?xml version="1.0" encoding="UTF-8" standalone="no"?>
<!DOCTYPE svg PUBLIC "-//W3C//DTD SVG 1.1//EN"
 "http://www.w3.org/Graphics/SVG/1.1/DTD/svg11.dtd">
<!-- Generated by graphviz version 2.40.1 (20161225.0304)
 -->
<!-- Title: graphic Pages: 1 -->
<svg width="529pt" height="154pt"
 viewBox="0.00 0.00 529.00 153.50" xmlns="http://www.w3.org/2000/svg" xmlns:xlink="http://www.w3.org/1999/xlink">
<g id="graph0" class="graph" transform="scale(1 1) rotate(0) translate(4 149.5)">
<title>graphic</title>
<polygon fill="#ffffff" stroke="transparent" points="-4,4 -4,-149.5 525,-149.5 525,4 -4,4"/>
<!-- hs:SchoolAttendanceIssueCategoryCodeType -->
<g id="node1" class="node">
<title>hs:SchoolAttendanceIssueCategoryCodeType</title>
<text text-anchor="start" x="245.5" y="-25.4" font-family="Helvetica,sans-Serif" font-weight="bold" font-size="12.00" fill="#000000">hs:SchoolAttendanceIssueCategoryCodeType</text>
<g id="a_node1_0"><a xlink:href="../../structures/SimpleObjectAttributeGroup/#diagram" xlink:title="A group of attributes that are applicable to objects, to be used when defining a complex type that is an extension of a simple type." target="_top">
<polygon fill="#ebebeb" stroke="transparent" points="244.5,-5 244.5,-20 511.5,-20 511.5,-5 244.5,-5"/>
<text text-anchor="start" x="245.5" y="-9.4" font-family="Helvetica,sans-Serif" font-size="12.00" fill="#000000">structures:SimpleObjectAttributeGroup</text>
</a>
</g>
<polygon fill="#ff0000" stroke="#ff0000" points="239.5,-20 239.5,-20 516.5,-20 516.5,-20 239.5,-20"/>
<polygon fill="none" stroke="#ff0000" stroke-width="5" points="241.5,-2.5 241.5,-37.5 513.5,-37.5 513.5,-2.5 241.5,-2.5"/>
</g>
<!-- Properties -->
<g id="node2" class="node">
<title>Properties</title>
<text text-anchor="start" x="2.5" y="-25.4" font-family="Helvetica,sans-Serif" font-weight="bold" font-size="12.00" fill="#000000">Properties</text>
<g id="a_node2_1"><a xlink:href="../../hs/SchoolAttendanceIssueCode/#diagram" xlink:title="A type of school attendance issue that the student has." target="_top">
<polygon fill="#ebebeb" stroke="transparent" points="1.5,-5 1.5,-20 174.5,-20 174.5,-5 1.5,-5"/>
<text text-anchor="start" x="2.5" y="-9.4" font-family="Helvetica,sans-Serif" font-size="12.00" fill="#000000">hs:SchoolAttendanceIssueCode</text>
</a>
</g>
<polygon fill="#000000" stroke="#000000" points=".5,-20 .5,-20 175.5,-20 175.5,-20 .5,-20"/>
<polygon fill="none" stroke="#000000" points="0,-4 0,-36 175,-36 175,-4 0,-4"/>
</g>
<!-- Properties&#45;&gt;hs:SchoolAttendanceIssueCategoryCodeType -->
<g id="edge1" class="edge">
<title>Properties:top&#45;&gt;hs:SchoolAttendanceIssueCategoryCodeType:top</title>
<path fill="none" stroke="#000000" d="M174.5,-28C201.9653,-28 211.2455,-28 234.4487,-28"/>
<polygon fill="#000000" stroke="#000000" points="234.5,-31.5001 244.5,-28 234.5,-24.5001 234.5,-31.5001"/>
<text text-anchor="middle" x="204.5" y="-31.4" font-family="Helvetica,sans-Serif" font-size="12.00" fill="#000000">type</text>
</g>
<!-- hs:SchoolAttendanceIssueCategoryCodeSimpleType -->
<g id="node3" class="node">
<title>hs:SchoolAttendanceIssueCategoryCodeSimpleType</title>
<g id="a_node3_2"><a xlink:href="../../hs/SchoolAttendanceIssueCategoryCodeSimpleType/#diagram" xlink:title="A data type for describing types of school attendance issues." target="_top">
<text text-anchor="start" x="236.5" y="-80.4" font-family="Helvetica,sans-Serif" font-size="12.00" fill="#000000">hs:SchoolAttendanceIssueCategoryCodeSimpleType</text>
</a>
</g>
<polygon fill="none" stroke="#000000" points="234,-75.5 234,-92.5 521,-92.5 521,-75.5 234,-75.5"/>
</g>
<!-- hs:SchoolAttendanceIssueCategoryCodeSimpleType&#45;&gt;hs:SchoolAttendanceIssueCategoryCodeType -->
<g id="edge2" class="edge">
<title>hs:SchoolAttendanceIssueCategoryCodeSimpleType&#45;&gt;hs:SchoolAttendanceIssueCategoryCodeType</title>
<path fill="none" stroke="#000000" d="M377.5,-75.4351C377.5,-68.931 377.5,-59.5678 377.5,-50.3827"/>
<polygon fill="#000000" stroke="#000000" points="381.0001,-50.25 377.5,-40.25 374.0001,-50.25 381.0001,-50.25"/>
<text text-anchor="middle" x="368" y="-54.65" font-family="Helvetica,sans-Serif" font-size="12.00" fill="#000000">extension</text>
</g>
<!-- xs:token -->
<g id="node4" class="node">
<title>xs:token</title>
<g id="a_node4_3"><a xlink:href="../../xs/token/#diagram" xlink:title="&lt;TABLE&gt;" target="_top">
<text text-anchor="start" x="355.5" y="-133.4" font-family="Helvetica,sans-Serif" font-size="12.00" fill="#000000">xs:token</text>
</a>
</g>
<polygon fill="none" stroke="#000000" points="353,-128.5 353,-145.5 402,-145.5 402,-128.5 353,-128.5"/>
</g>
<!-- xs:token&#45;&gt;hs:SchoolAttendanceIssueCategoryCodeSimpleType -->
<g id="edge3" class="edge">
<title>xs:token&#45;&gt;hs:SchoolAttendanceIssueCategoryCodeSimpleType</title>
<path fill="none" stroke="#000000" d="M377.5,-128.411C377.5,-121.5124 377.5,-111.5696 377.5,-102.84"/>
<polygon fill="#000000" stroke="#000000" points="381.0001,-102.7518 377.5,-92.7519 374.0001,-102.7519 381.0001,-102.7518"/>
<text text-anchor="middle" x="368" y="-107.4" font-family="Helvetica,sans-Serif" font-size="12.00" fill="#000000">restriction</text>
</g>
</g>
</svg>
