<?xml version="1.0" encoding="UTF-8" standalone="no"?>
<!DOCTYPE svg PUBLIC "-//W3C//DTD SVG 1.1//EN"
 "http://www.w3.org/Graphics/SVG/1.1/DTD/svg11.dtd">
<!-- Generated by graphviz version 2.40.1 (20161225.0304)
 -->
<!-- Title: graphic Pages: 1 -->
<svg width="732pt" height="45pt"
 viewBox="0.00 0.00 732.00 45.00" xmlns="http://www.w3.org/2000/svg" xmlns:xlink="http://www.w3.org/1999/xlink">
<g id="graph0" class="graph" transform="scale(1 1) rotate(0) translate(4 41)">
<title>graphic</title>
<polygon fill="#ffffff" stroke="transparent" points="-4,4 -4,-41 728,-41 728,4 -4,4"/>
<!-- biom:LipPrintSurfaceCodeList -->
<g id="node1" class="node">
<title>biom:LipPrintSurfaceCodeList</title>
<text text-anchor="start" x="295" y="-21.4" font-family="Helvetica,sans-Serif" font-weight="bold" font-size="12.00" fill="#000000">biom:LipPrintSurfaceCodeList</text>
<polygon fill="none" stroke="#ff0000" stroke-width="5" points="291.5,-14 291.5,-34 472.5,-34 472.5,-14 291.5,-14"/>
</g>
<!-- biom:LipPrintSurfaceCodeListType -->
<g id="node3" class="node">
<title>biom:LipPrintSurfaceCodeListType</title>
<g id="a_node3_0"><a xlink:href="../../biom/LipPrintSurfaceCodeListType/#diagram" xlink:title="A data type for a list of lip print surface code" target="_top">
<text text-anchor="start" x="536" y="-20.4" font-family="Helvetica,sans-Serif" font-size="12.00" fill="#000000">biom:LipPrintSurfaceCodeListType</text>
</a>
</g>
<polygon fill="none" stroke="#000000" points="534,-15.5 534,-32.5 724,-32.5 724,-15.5 534,-15.5"/>
</g>
<!-- biom:LipPrintSurfaceCodeList&#45;&gt;biom:LipPrintSurfaceCodeListType -->
<g id="edge2" class="edge">
<title>biom:LipPrintSurfaceCodeList&#45;&gt;biom:LipPrintSurfaceCodeListType</title>
<path fill="none" stroke="#000000" d="M475.0281,-24C490.7333,-24 507.1396,-24 523.1425,-24"/>
<polygon fill="#000000" stroke="#000000" points="523.589,-27.5001 533.5889,-24 523.5889,-20.5001 523.589,-27.5001"/>
<text text-anchor="middle" x="504.5" y="-27.4" font-family="Helvetica,sans-Serif" font-size="12.00" fill="#000000">type</text>
</g>
<!-- Types -->
<g id="node2" class="node">
<title>Types</title>
<text text-anchor="start" x="2" y="-21.4" font-family="Helvetica,sans-Serif" font-weight="bold" font-size="12.00" fill="#000000">Types</text>
<g id="a_node2_1"><a xlink:href="../../biom/CheiloscopicImageInformationType/#diagram" xlink:title="A data type that is particularly useful if the image contained in this record is of an injury or latent image on a person. However, its use is not limited to such circumstances." target="_top">
<polygon fill="#ebebeb" stroke="transparent" points="1,-1 1,-16 221,-16 221,-1 1,-1"/>
<text text-anchor="start" x="2" y="-5.4" font-family="Helvetica,sans-Serif" font-size="12.00" fill="#000000">biom:CheiloscopicImageInformationType</text>
</a>
</g>
<polygon fill="#000000" stroke="#000000" points="0,-16 0,-16 222,-16 222,-16 0,-16"/>
<polygon fill="none" stroke="#000000" points="0,0 0,-32 222,-32 222,0 0,0"/>
</g>
<!-- Types&#45;&gt;biom:LipPrintSurfaceCodeList -->
<g id="edge1" class="edge">
<title>Types:top&#45;&gt;biom:LipPrintSurfaceCodeList</title>
<path fill="none" stroke="#000000" d="M221,-24C239.5991,-24 259.4069,-24 278.5383,-24"/>
<polygon fill="#000000" stroke="#000000" points="278.777,-27.5001 288.777,-24 278.7769,-20.5001 278.777,-27.5001"/>
<text text-anchor="middle" x="255.5" y="-27.4" font-family="Helvetica,sans-Serif" font-size="12.00" fill="#000000">has&#45;a</text>
</g>
</g>
</svg>
