<?xml version="1.0" encoding="UTF-8" standalone="no"?>
<!DOCTYPE svg PUBLIC "-//W3C//DTD SVG 1.1//EN"
 "http://www.w3.org/Graphics/SVG/1.1/DTD/svg11.dtd">
<!-- Generated by graphviz version 2.40.1 (20161225.0304)
 -->
<!-- Title: graphic Pages: 1 -->
<svg width="699pt" height="45pt"
 viewBox="0.00 0.00 699.00 45.00" xmlns="http://www.w3.org/2000/svg" xmlns:xlink="http://www.w3.org/1999/xlink">
<g id="graph0" class="graph" transform="scale(1 1) rotate(0) translate(4 41)">
<title>graphic</title>
<polygon fill="#ffffff" stroke="transparent" points="-4,4 -4,-41 695,-41 695,4 -4,4"/>
<!-- stat:RecordRelationshipLogicalSourceRecord -->
<g id="node1" class="node">
<title>stat:RecordRelationshipLogicalSourceRecord</title>
<text text-anchor="start" x="232.5" y="-21.4" font-family="Helvetica,sans-Serif" font-weight="bold" font-size="12.00" fill="#000000">stat:RecordRelationshipLogicalSourceRecord</text>
<polygon fill="none" stroke="#ff0000" stroke-width="5" points="228.5,-14 228.5,-34 498.5,-34 498.5,-14 228.5,-14"/>
</g>
<!-- stat:LogicalRecordType -->
<g id="node3" class="node">
<title>stat:LogicalRecordType</title>
<g id="a_node3_0"><a xlink:href="../../stat/LogicalRecordType/#diagram" xlink:title="A data type for a type of unit data record for one unit type within a unit data set." target="_top">
<text text-anchor="start" x="562.5" y="-20.4" font-family="Helvetica,sans-Serif" font-size="12.00" fill="#000000">stat:LogicalRecordType</text>
</a>
</g>
<polygon fill="none" stroke="#000000" points="560,-15.5 560,-32.5 691,-32.5 691,-15.5 560,-15.5"/>
</g>
<!-- stat:RecordRelationshipLogicalSourceRecord&#45;&gt;stat:LogicalRecordType -->
<g id="edge2" class="edge">
<title>stat:RecordRelationshipLogicalSourceRecord&#45;&gt;stat:LogicalRecordType</title>
<path fill="none" stroke="#000000" d="M501.022,-24C517.6852,-24 534.2074,-24 549.5065,-24"/>
<polygon fill="#000000" stroke="#000000" points="549.8895,-27.5001 559.8895,-24 549.8894,-20.5001 549.8895,-27.5001"/>
<text text-anchor="middle" x="530.5" y="-27.4" font-family="Helvetica,sans-Serif" font-size="12.00" fill="#000000">type</text>
</g>
<!-- Types -->
<g id="node2" class="node">
<title>Types</title>
<text text-anchor="start" x="2.5" y="-21.4" font-family="Helvetica,sans-Serif" font-weight="bold" font-size="12.00" fill="#000000">Types</text>
<g id="a_node2_1"><a xlink:href="../../stat/RecordRelationshipType/#diagram" xlink:title="A data type for a set of relationships between logical records within a unit data structure. It must have both a source logical record and a target logical record in order to define the relationship." target="_top">
<polygon fill="#ebebeb" stroke="transparent" points="1.5,-1 1.5,-16 158.5,-16 158.5,-1 1.5,-1"/>
<text text-anchor="start" x="2.5" y="-5.4" font-family="Helvetica,sans-Serif" font-size="12.00" fill="#000000">stat:RecordRelationshipType</text>
</a>
</g>
<polygon fill="#000000" stroke="#000000" points=".5,-16 .5,-16 159.5,-16 159.5,-16 .5,-16"/>
<polygon fill="none" stroke="#000000" points="0,0 0,-32 159,-32 159,0 0,0"/>
</g>
<!-- Types&#45;&gt;stat:RecordRelationshipLogicalSourceRecord -->
<g id="edge1" class="edge">
<title>Types:top&#45;&gt;stat:RecordRelationshipLogicalSourceRecord</title>
<path fill="none" stroke="#000000" d="M158.5,-24C177.0632,-24 196.572,-24 215.8705,-24"/>
<polygon fill="#000000" stroke="#000000" points="215.9371,-27.5001 225.937,-24 215.937,-20.5001 215.9371,-27.5001"/>
<text text-anchor="middle" x="192.5" y="-27.4" font-family="Helvetica,sans-Serif" font-size="12.00" fill="#000000">has&#45;a</text>
</g>
</g>
</svg>
