<?xml version="1.0" encoding="UTF-8" standalone="no"?>
<!DOCTYPE svg PUBLIC "-//W3C//DTD SVG 1.1//EN"
 "http://www.w3.org/Graphics/SVG/1.1/DTD/svg11.dtd">
<!-- Generated by graphviz version 2.40.1 (20161225.0304)
 -->
<!-- Title: graphic Pages: 1 -->
<svg width="957pt" height="45pt"
 viewBox="0.00 0.00 957.00 45.00" xmlns="http://www.w3.org/2000/svg" xmlns:xlink="http://www.w3.org/1999/xlink">
<g id="graph0" class="graph" transform="scale(1 1) rotate(0) translate(4 41)">
<title>graphic</title>
<polygon fill="#ffffff" stroke="transparent" points="-4,4 -4,-41 953,-41 953,4 -4,4"/>
<!-- im:PermanentResidentAdjustmentCaseReceiptNumberIdentification -->
<g id="node1" class="node">
<title>im:PermanentResidentAdjustmentCaseReceiptNumberIdentification</title>
<text text-anchor="start" x="380.5" y="-21.4" font-family="Helvetica,sans-Serif" font-weight="bold" font-size="12.00" fill="#000000">im:PermanentResidentAdjustmentCaseReceiptNumberIdentification</text>
<polygon fill="none" stroke="#ff0000" stroke-width="5" points="376.5,-14 376.5,-34 772.5,-34 772.5,-14 376.5,-14"/>
</g>
<!-- nc:IdentificationType -->
<g id="node3" class="node">
<title>nc:IdentificationType</title>
<g id="a_node3_0"><a xlink:href="../../nc/IdentificationType/#diagram" xlink:title="A data type for a representation of an identity." target="_top">
<text text-anchor="start" x="836.5" y="-20.4" font-family="Helvetica,sans-Serif" font-size="12.00" fill="#000000">nc:IdentificationType</text>
</a>
</g>
<polygon fill="none" stroke="#000000" points="834,-15.5 834,-32.5 949,-32.5 949,-15.5 834,-15.5"/>
</g>
<!-- im:PermanentResidentAdjustmentCaseReceiptNumberIdentification&#45;&gt;nc:IdentificationType -->
<g id="edge2" class="edge">
<title>im:PermanentResidentAdjustmentCaseReceiptNumberIdentification&#45;&gt;nc:IdentificationType</title>
<path fill="none" stroke="#000000" d="M775.2609,-24C792.4324,-24 808.8899,-24 823.744,-24"/>
<polygon fill="#000000" stroke="#000000" points="823.7605,-27.5001 833.7604,-24 823.7604,-20.5001 823.7605,-27.5001"/>
<text text-anchor="middle" x="804.5" y="-27.4" font-family="Helvetica,sans-Serif" font-size="12.00" fill="#000000">type</text>
</g>
<!-- Types -->
<g id="node2" class="node">
<title>Types</title>
<text text-anchor="start" x="2.5" y="-21.4" font-family="Helvetica,sans-Serif" font-weight="bold" font-size="12.00" fill="#000000">Types</text>
<g id="a_node2_1"><a xlink:href="../../im/ImmigrationBenefitExtendChangeStatusEligibilityType/#diagram" xlink:title="A data type for the eligibility of an applicant attempting to extend or change status or reinstate student status." target="_top">
<polygon fill="#ebebeb" stroke="transparent" points="1.5,-1 1.5,-16 306.5,-16 306.5,-1 1.5,-1"/>
<text text-anchor="start" x="2.5" y="-5.4" font-family="Helvetica,sans-Serif" font-size="12.00" fill="#000000">im:ImmigrationBenefitExtendChangeStatusEligibilityType</text>
</a>
</g>
<polygon fill="#000000" stroke="#000000" points=".5,-16 .5,-16 307.5,-16 307.5,-16 .5,-16"/>
<polygon fill="none" stroke="#000000" points="0,0 0,-32 307,-32 307,0 0,0"/>
</g>
<!-- Types&#45;&gt;im:PermanentResidentAdjustmentCaseReceiptNumberIdentification -->
<g id="edge1" class="edge">
<title>Types:top&#45;&gt;im:PermanentResidentAdjustmentCaseReceiptNumberIdentification</title>
<path fill="none" stroke="#000000" d="M306.5,-24C325.023,-24 344.2661,-24 363.5573,-24"/>
<polygon fill="#000000" stroke="#000000" points="363.6463,-27.5001 373.6463,-24 363.6463,-20.5001 363.6463,-27.5001"/>
<text text-anchor="middle" x="340.5" y="-27.4" font-family="Helvetica,sans-Serif" font-size="12.00" fill="#000000">has&#45;a</text>
</g>
</g>
</svg>
