<?xml version="1.0" encoding="UTF-8" standalone="no"?>
<!DOCTYPE svg PUBLIC "-//W3C//DTD SVG 1.1//EN"
 "http://www.w3.org/Graphics/SVG/1.1/DTD/svg11.dtd">
<!-- Generated by graphviz version 2.40.1 (20161225.0304)
 -->
<!-- Title: graphic Pages: 1 -->
<svg width="462pt" height="117pt"
 viewBox="0.00 0.00 462.00 116.50" xmlns="http://www.w3.org/2000/svg" xmlns:xlink="http://www.w3.org/1999/xlink">
<g id="graph0" class="graph" transform="scale(1 1) rotate(0) translate(4 112.5)">
<title>graphic</title>
<polygon fill="#ffffff" stroke="transparent" points="-4,4 -4,-112.5 458,-112.5 458,4 -4,4"/>
<!-- nc:ActivityAugmentationPoint -->
<g id="node1" class="node">
<title>nc:ActivityAugmentationPoint</title>
<text text-anchor="start" x="217" y="-92.9" font-family="Helvetica,sans-Serif" font-weight="bold" font-size="12.00" fill="#000000">nc:ActivityAugmentationPoint</text>
<polygon fill="none" stroke="#ff0000" stroke-width="5" points="213,-85.5 213,-105.5 393,-105.5 393,-85.5 213,-85.5"/>
</g>
<!-- SubstitutableElements -->
<g id="node3" class="node">
<title>SubstitutableElements</title>
<text text-anchor="start" x="154" y="-35.9" font-family="Helvetica,sans-Serif" font-weight="bold" font-size="12.00" fill="#000000">Substitutable elements</text>
<g id="a_node3_0"><a xlink:href="../../em/ActivityAugmentation/#diagram" xlink:title="Additional information about an activity." target="_top">
<polygon fill="#ebebeb" stroke="transparent" points="153,-15.5 153,-30.5 453,-30.5 453,-15.5 153,-15.5"/>
<text text-anchor="start" x="154" y="-19.9" font-family="Helvetica,sans-Serif" font-size="12.00" fill="#000000">em:ActivityAugmentation: em:ActivityAugmentationType</text>
</a>
</g>
<g id="a_node3_1"><a xlink:href="../../j/ActivityAugmentation/#diagram" xlink:title="Additional information about an activity." target="_top">
<text text-anchor="start" x="154" y="-4.9" font-family="Helvetica,sans-Serif" font-size="12.00" fill="#000000">j:ActivityAugmentation: j:ActivityAugmentationType</text>
</a>
</g>
<polygon fill="#000000" stroke="#000000" points="152,-30.5 152,-30.5 454,-30.5 454,-30.5 152,-30.5"/>
<polygon fill="none" stroke="#000000" points="152,0 152,-47 454,-47 454,0 152,0"/>
</g>
<!-- nc:ActivityAugmentationPoint&#45;&gt;SubstitutableElements -->
<g id="edge2" class="edge">
<title>nc:ActivityAugmentationPoint&#45;&gt;SubstitutableElements</title>
<path fill="none" stroke="#000000" d="M303,-72.9771C303,-64.7398 303,-55.4022 303,-47.0755"/>
<polygon fill="#000000" stroke="#000000" points="299.5001,-72.9945 303,-82.9945 306.5001,-72.9946 299.5001,-72.9945"/>
<text text-anchor="middle" x="293.5" y="-61.9" font-family="Helvetica,sans-Serif" font-size="12.00" fill="#000000">substitutable for</text>
</g>
<!-- Types -->
<g id="node2" class="node">
<title>Types</title>
<text text-anchor="start" x="2.5" y="-92.9" font-family="Helvetica,sans-Serif" font-weight="bold" font-size="12.00" fill="#000000">Types</text>
<g id="a_node2_2"><a xlink:href="../../nc/ActivityType/#diagram" xlink:title="A data type for a single or set of related actions, events, or process steps." target="_top">
<polygon fill="#ebebeb" stroke="transparent" points="1.5,-72.5 1.5,-87.5 84.5,-87.5 84.5,-72.5 1.5,-72.5"/>
<text text-anchor="start" x="2.5" y="-76.9" font-family="Helvetica,sans-Serif" font-size="12.00" fill="#000000">nc:ActivityType</text>
</a>
</g>
<polygon fill="#000000" stroke="#000000" points=".5,-87.5 .5,-87.5 85.5,-87.5 85.5,-87.5 .5,-87.5"/>
<polygon fill="none" stroke="#000000" points="0,-71.5 0,-103.5 85,-103.5 85,-71.5 0,-71.5"/>
</g>
<!-- Types&#45;&gt;nc:ActivityAugmentationPoint -->
<g id="edge1" class="edge">
<title>Types:top&#45;&gt;nc:ActivityAugmentationPoint</title>
<path fill="none" stroke="#000000" d="M84.5,-95.5C122.2081,-95.5 163.5766,-95.5 200.0775,-95.5"/>
<polygon fill="#000000" stroke="#000000" points="200.2364,-99.0001 210.2364,-95.5 200.2364,-92.0001 200.2364,-99.0001"/>
<text text-anchor="middle" x="118.5" y="-98.9" font-family="Helvetica,sans-Serif" font-size="12.00" fill="#000000">has&#45;a</text>
</g>
</g>
</svg>
