<?xml version="1.0" encoding="UTF-8" standalone="no"?>
<!DOCTYPE svg PUBLIC "-//W3C//DTD SVG 1.1//EN"
 "http://www.w3.org/Graphics/SVG/1.1/DTD/svg11.dtd">
<!-- Generated by graphviz version 2.40.1 (20161225.0304)
 -->
<!-- Title: graphic Pages: 1 -->
<svg width="1268pt" height="184pt"
 viewBox="0.00 0.00 1268.00 183.50" xmlns="http://www.w3.org/2000/svg" xmlns:xlink="http://www.w3.org/1999/xlink">
<g id="graph0" class="graph" transform="scale(1 1) rotate(0) translate(4 179.5)">
<title>graphic</title>
<polygon fill="#ffffff" stroke="transparent" points="-4,4 -4,-179.5 1264,-179.5 1264,4 -4,4"/>
<!-- j:SubjectAssessmentSupervisionHistoryType -->
<g id="node1" class="node">
<title>j:SubjectAssessmentSupervisionHistoryType</title>
<text text-anchor="start" x="281.5" y="-55.4" font-family="Helvetica,sans-Serif" font-weight="bold" font-size="12.00" fill="#000000">j:SubjectAssessmentSupervisionHistoryType</text>
<g id="a_node1_0"><a xlink:href="../../j/SubjectAssessmentSupervisionHistoryCategoryAbstract/#diagram" xlink:title="A data concept for a kind of a categorization of a subject supervision history." target="_top">
<polygon fill="#ebebeb" stroke="transparent" points="280.5,-35 280.5,-50 771.5,-50 771.5,-35 280.5,-35"/>
<text text-anchor="start" x="281.5" y="-39.4" font-family="Helvetica,sans-Serif" font-size="12.00" fill="#000000">j:SubjectAssessmentSupervisionHistoryCategoryAbstract [0&#45;n]</text>
</a>
</g>
<g id="a_node1_1"><a xlink:href="../../j/SubjectAssessmentSupervisionHistoryCategoryOccurrenceQuantity/#diagram" xlink:title="A count indicating a subject&#39;s previous occurrences in supervision." target="_top">
<text text-anchor="start" x="281.5" y="-24.4" font-family="Helvetica,sans-Serif" font-size="12.00" fill="#000000">j:SubjectAssessmentSupervisionHistoryCategoryOccurrenceQuantity: nc:QuantityType [0&#45;n]</text>
</a>
</g>
<g id="a_node1_2"><a xlink:href="../../j/SubjectAssessmentSupervisionHistoryAugmentationPoint/#diagram" xlink:title="An augmentation point for type j:SubjectAssessmentSupervisionHistoryType" target="_top">
<polygon fill="#ebebeb" stroke="transparent" points="280.5,-5 280.5,-20 771.5,-20 771.5,-5 280.5,-5"/>
<text text-anchor="start" x="281.5" y="-9.4" font-family="Helvetica,sans-Serif" font-size="12.00" fill="#000000">j:SubjectAssessmentSupervisionHistoryAugmentationPoint [0&#45;n]</text>
</a>
</g>
<polygon fill="#ff0000" stroke="#ff0000" points="275.5,-50 275.5,-50 776.5,-50 776.5,-50 275.5,-50"/>
<polygon fill="none" stroke="#ff0000" stroke-width="5" points="277.5,-2.5 277.5,-67.5 773.5,-67.5 773.5,-2.5 277.5,-2.5"/>
</g>
<!-- subst_d9e45866 -->
<g id="node2" class="node">
<title>subst_d9e45866</title>
<g id="a_node2_3"><a xlink:href="../../j/SubjectAssessmentSupervisionHistoryCategoryAbstract/#diagram" xlink:title="&lt;TABLE&gt;" target="_top">
<text text-anchor="start" x="815.5" y="-40.4" font-family="Helvetica,sans-Serif" font-weight="bold" font-size="12.00" fill="#000000">Substitution group j:SubjectAssessmentSupervisionHistoryCategoryAbstract</text>
</a>
</g>
<g id="a_node2_4"><a xlink:href="../../j/SubjectAssessmentSupervisionHistoryCategoryText/#diagram" xlink:title="A kind of a categorization of a subject supervision history." target="_top">
<polygon fill="#ebebeb" stroke="transparent" points="814.5,-20 814.5,-35 1259.5,-35 1259.5,-20 814.5,-20"/>
<text text-anchor="start" x="815.5" y="-24.4" font-family="Helvetica,sans-Serif" font-size="12.00" fill="#000000">j:SubjectAssessmentSupervisionHistoryCategoryText: nc:TextType</text>
</a>
</g>
<polygon fill="#000000" stroke="#000000" points="813.5,-35 813.5,-35 1260.5,-35 1260.5,-35 813.5,-35"/>
<polygon fill="none" stroke="#000000" points="813,-19 813,-51 1260,-51 1260,-19 813,-19"/>
</g>
<!-- j:SubjectAssessmentSupervisionHistoryType&#45;&gt;subst_d9e45866 -->
<g id="edge1" class="edge">
<title>j:SubjectAssessmentSupervisionHistoryType:e&#45;&gt;subst_d9e45866:w</title>
<path fill="none" stroke="#000000" d="M781.6119,-43C793.1435,-43 799.2708,-43 814.5,-43"/>
<polygon fill="#000000" stroke="#000000" points="781.5,-39.5001 771.5,-43 781.5,-46.5001 781.5,-39.5001"/>
</g>
<!-- Properties -->
<g id="node3" class="node">
<title>Properties</title>
<text text-anchor="start" x="2" y="-55.4" font-family="Helvetica,sans-Serif" font-weight="bold" font-size="12.00" fill="#000000">Properties</text>
<g id="a_node3_5"><a xlink:href="../../j/SubjectAssessmentSupervisionHistory/#diagram" xlink:title="A description of a subject&#39;s supervision history as part of their assessment." target="_top">
<polygon fill="#ebebeb" stroke="transparent" points="1,-35 1,-50 215,-50 215,-35 1,-35"/>
<text text-anchor="start" x="2" y="-39.4" font-family="Helvetica,sans-Serif" font-size="12.00" fill="#000000">j:SubjectAssessmentSupervisionHistory</text>
</a>
</g>
<polygon fill="#000000" stroke="#000000" points="0,-50 0,-50 216,-50 216,-50 0,-50"/>
<polygon fill="none" stroke="#000000" points="0,-34 0,-66 216,-66 216,-34 0,-34"/>
</g>
<!-- Properties&#45;&gt;j:SubjectAssessmentSupervisionHistoryType -->
<g id="edge2" class="edge">
<title>Properties:top&#45;&gt;j:SubjectAssessmentSupervisionHistoryType:top</title>
<path fill="none" stroke="#000000" d="M215,-58C240.3585,-58 249.1498,-58 270.2371,-58"/>
<polygon fill="#000000" stroke="#000000" points="270.5,-61.5001 280.5,-58 270.5,-54.5001 270.5,-61.5001"/>
<text text-anchor="middle" x="245.5" y="-61.4" font-family="Helvetica,sans-Serif" font-size="12.00" fill="#000000">type</text>
</g>
<!-- j:SupervisionHistoryType -->
<g id="node4" class="node">
<title>j:SupervisionHistoryType</title>
<g id="a_node4_6"><a xlink:href="../../j/SupervisionHistoryType/#diagram" xlink:title="A data type for a set of details about a subject&#39;s supervision history." target="_top">
<text text-anchor="start" x="459.5" y="-110.4" font-family="Helvetica,sans-Serif" font-size="12.00" fill="#000000">j:SupervisionHistoryType</text>
</a>
</g>
<polygon fill="none" stroke="#000000" points="457,-105.5 457,-122.5 594,-122.5 594,-105.5 457,-105.5"/>
</g>
<!-- j:SupervisionHistoryType&#45;&gt;j:SubjectAssessmentSupervisionHistoryType -->
<g id="edge3" class="edge">
<title>j:SupervisionHistoryType&#45;&gt;j:SubjectAssessmentSupervisionHistoryType</title>
<path fill="none" stroke="#000000" d="M525.5,-105.4117C525.5,-99.1025 525.5,-89.9911 525.5,-80.4049"/>
<polygon fill="#000000" stroke="#000000" points="529.0001,-80.3408 525.5,-70.3408 522.0001,-80.3409 529.0001,-80.3408"/>
<text text-anchor="middle" x="516" y="-84.65" font-family="Helvetica,sans-Serif" font-size="12.00" fill="#000000">extension</text>
</g>
<!-- structures:ObjectType -->
<g id="node5" class="node">
<title>structures:ObjectType</title>
<g id="a_node5_7"><a xlink:href="../../structures/ObjectType/#diagram" xlink:title="A data type for a thing with its own lifespan that has some existence." target="_top">
<text text-anchor="start" x="466.5" y="-163.4" font-family="Helvetica,sans-Serif" font-size="12.00" fill="#000000">structures:ObjectType</text>
</a>
</g>
<polygon fill="none" stroke="#000000" points="464.5,-158.5 464.5,-175.5 586.5,-175.5 586.5,-158.5 464.5,-158.5"/>
</g>
<!-- structures:ObjectType&#45;&gt;j:SupervisionHistoryType -->
<g id="edge4" class="edge">
<title>structures:ObjectType&#45;&gt;j:SupervisionHistoryType</title>
<path fill="none" stroke="#000000" d="M525.5,-158.411C525.5,-151.5124 525.5,-141.5696 525.5,-132.84"/>
<polygon fill="#000000" stroke="#000000" points="529.0001,-132.7518 525.5,-122.7519 522.0001,-132.7519 529.0001,-132.7518"/>
<text text-anchor="middle" x="516" y="-137.4" font-family="Helvetica,sans-Serif" font-size="12.00" fill="#000000">extension</text>
</g>
</g>
</svg>
