<?xml version="1.0" encoding="UTF-8" standalone="no"?>
<!DOCTYPE svg PUBLIC "-//W3C//DTD SVG 1.1//EN"
 "http://www.w3.org/Graphics/SVG/1.1/DTD/svg11.dtd">
<!-- Generated by graphviz version 2.40.1 (20161225.0304)
 -->
<!-- Title: graphic Pages: 1 -->
<svg width="453pt" height="45pt"
 viewBox="0.00 0.00 453.00 45.00" xmlns="http://www.w3.org/2000/svg" xmlns:xlink="http://www.w3.org/1999/xlink">
<g id="graph0" class="graph" transform="scale(1 1) rotate(0) translate(4 41)">
<title>graphic</title>
<polygon fill="#ffffff" stroke="transparent" points="-4,4 -4,-41 449,-41 449,4 -4,4"/>
<!-- nc:RequestDecisionDate -->
<g id="node1" class="node">
<title>nc:RequestDecisionDate</title>
<text text-anchor="start" x="165" y="-21.4" font-family="Helvetica,sans-Serif" font-weight="bold" font-size="12.00" fill="#000000">nc:RequestDecisionDate</text>
<polygon fill="none" stroke="#ff0000" stroke-width="5" points="161.5,-14 161.5,-34 310.5,-34 310.5,-14 161.5,-14"/>
</g>
<!-- nc:DateType -->
<g id="node3" class="node">
<title>nc:DateType</title>
<g id="a_node3_0"><a xlink:href="../../nc/DateType/#diagram" xlink:title="A data type for a calendar date." target="_top">
<text text-anchor="start" x="374.5" y="-20.4" font-family="Helvetica,sans-Serif" font-size="12.00" fill="#000000">nc:DateType</text>
</a>
</g>
<polygon fill="none" stroke="#000000" points="372,-15.5 372,-32.5 445,-32.5 445,-15.5 372,-15.5"/>
</g>
<!-- nc:RequestDecisionDate&#45;&gt;nc:DateType -->
<g id="edge2" class="edge">
<title>nc:RequestDecisionDate&#45;&gt;nc:DateType</title>
<path fill="none" stroke="#000000" d="M313.1683,-24C329.7862,-24 346.8588,-24 361.8816,-24"/>
<polygon fill="#000000" stroke="#000000" points="361.9238,-27.5001 371.9238,-24 361.9237,-20.5001 361.9238,-27.5001"/>
<text text-anchor="middle" x="342.5" y="-27.4" font-family="Helvetica,sans-Serif" font-size="12.00" fill="#000000">type</text>
</g>
<!-- Types -->
<g id="node2" class="node">
<title>Types</title>
<text text-anchor="start" x="2" y="-21.4" font-family="Helvetica,sans-Serif" font-weight="bold" font-size="12.00" fill="#000000">Types</text>
<g id="a_node2_1"><a xlink:href="../../nc/RequestType/#diagram" xlink:title="A data type for a formal message requesting something that is submitted to an authority." target="_top">
<polygon fill="#ebebeb" stroke="transparent" points="1,-1 1,-16 91,-16 91,-1 1,-1"/>
<text text-anchor="start" x="2" y="-5.4" font-family="Helvetica,sans-Serif" font-size="12.00" fill="#000000">nc:RequestType</text>
</a>
</g>
<polygon fill="#000000" stroke="#000000" points="0,-16 0,-16 92,-16 92,-16 0,-16"/>
<polygon fill="none" stroke="#000000" points="0,0 0,-32 92,-32 92,0 0,0"/>
</g>
<!-- Types&#45;&gt;nc:RequestDecisionDate -->
<g id="edge1" class="edge">
<title>Types:top&#45;&gt;nc:RequestDecisionDate</title>
<path fill="none" stroke="#000000" d="M91,-24C109.6712,-24 129.6949,-24 148.72,-24"/>
<polygon fill="#000000" stroke="#000000" points="148.8674,-27.5001 158.8673,-24 148.8673,-20.5001 148.8674,-27.5001"/>
<text text-anchor="middle" x="125.5" y="-27.4" font-family="Helvetica,sans-Serif" font-size="12.00" fill="#000000">has&#45;a</text>
</g>
</g>
</svg>
