<?xml version="1.0" encoding="UTF-8" standalone="no"?>
<!DOCTYPE svg PUBLIC "-//W3C//DTD SVG 1.1//EN"
 "http://www.w3.org/Graphics/SVG/1.1/DTD/svg11.dtd">
<!-- Generated by graphviz version 2.40.1 (20161225.0304)
 -->
<!-- Title: graphic Pages: 1 -->
<svg width="466pt" height="154pt"
 viewBox="0.00 0.00 466.00 153.50" xmlns="http://www.w3.org/2000/svg" xmlns:xlink="http://www.w3.org/1999/xlink">
<g id="graph0" class="graph" transform="scale(1 1) rotate(0) translate(4 149.5)">
<title>graphic</title>
<polygon fill="#ffffff" stroke="transparent" points="-4,4 -4,-149.5 462,-149.5 462,4 -4,4"/>
<!-- biom:ProcessingIndicatorCodeType -->
<g id="node1" class="node">
<title>biom:ProcessingIndicatorCodeType</title>
<text text-anchor="start" x="239.5" y="-25.4" font-family="Helvetica,sans-Serif" font-weight="bold" font-size="12.00" fill="#000000">biom:ProcessingIndicatorCodeType</text>
<g id="a_node1_0"><a xlink:href="../../structures/SimpleObjectAttributeGroup/#diagram" xlink:title="A group of attributes that are applicable to objects, to be used when defining a complex type that is an extension of a simple type." target="_top">
<polygon fill="#ebebeb" stroke="transparent" points="238.5,-5 238.5,-20 447.5,-20 447.5,-5 238.5,-5"/>
<text text-anchor="start" x="239.5" y="-9.4" font-family="Helvetica,sans-Serif" font-size="12.00" fill="#000000">structures:SimpleObjectAttributeGroup</text>
</a>
</g>
<polygon fill="#ff0000" stroke="#ff0000" points="233.5,-20 233.5,-20 452.5,-20 452.5,-20 233.5,-20"/>
<polygon fill="none" stroke="#ff0000" stroke-width="5" points="235.5,-2.5 235.5,-37.5 449.5,-37.5 449.5,-2.5 235.5,-2.5"/>
</g>
<!-- Properties -->
<g id="node2" class="node">
<title>Properties</title>
<text text-anchor="start" x="2" y="-25.4" font-family="Helvetica,sans-Serif" font-weight="bold" font-size="12.00" fill="#000000">Properties</text>
<g id="a_node2_1"><a xlink:href="../../biom/ProcessingIndicatorCode/#diagram" xlink:title="A Redaction/Discontinuity Indicator Code." target="_top">
<polygon fill="#ebebeb" stroke="transparent" points="1,-5 1,-20 167,-20 167,-5 1,-5"/>
<text text-anchor="start" x="2" y="-9.4" font-family="Helvetica,sans-Serif" font-size="12.00" fill="#000000">biom:ProcessingIndicatorCode</text>
</a>
</g>
<polygon fill="#000000" stroke="#000000" points="0,-20 0,-20 168,-20 168,-20 0,-20"/>
<polygon fill="none" stroke="#000000" points="0,-4 0,-36 168,-36 168,-4 0,-4"/>
</g>
<!-- Properties&#45;&gt;biom:ProcessingIndicatorCodeType -->
<g id="edge1" class="edge">
<title>Properties:top&#45;&gt;biom:ProcessingIndicatorCodeType:top</title>
<path fill="none" stroke="#000000" d="M167,-28C195.0538,-28 204.5329,-28 228.2333,-28"/>
<polygon fill="#000000" stroke="#000000" points="228.5,-31.5001 238.5,-28 228.5,-24.5001 228.5,-31.5001"/>
<text text-anchor="middle" x="197.5" y="-31.4" font-family="Helvetica,sans-Serif" font-size="12.00" fill="#000000">type</text>
</g>
<!-- biom:ProcessingIndicatorCodeSimpleType -->
<g id="node3" class="node">
<title>biom:ProcessingIndicatorCodeSimpleType</title>
<g id="a_node3_2"><a xlink:href="../../biom/ProcessingIndicatorCodeSimpleType/#diagram" xlink:title="A data type for a Redaction/Discontinuity Indicator Code." target="_top">
<text text-anchor="start" x="229.5" y="-80.4" font-family="Helvetica,sans-Serif" font-size="12.00" fill="#000000">biom:ProcessingIndicatorCodeSimpleType</text>
</a>
</g>
<polygon fill="none" stroke="#000000" points="227,-75.5 227,-92.5 458,-92.5 458,-75.5 227,-75.5"/>
</g>
<!-- biom:ProcessingIndicatorCodeSimpleType&#45;&gt;biom:ProcessingIndicatorCodeType -->
<g id="edge2" class="edge">
<title>biom:ProcessingIndicatorCodeSimpleType&#45;&gt;biom:ProcessingIndicatorCodeType</title>
<path fill="none" stroke="#000000" d="M342.5,-75.4351C342.5,-68.931 342.5,-59.5678 342.5,-50.3827"/>
<polygon fill="#000000" stroke="#000000" points="346.0001,-50.25 342.5,-40.25 339.0001,-50.25 346.0001,-50.25"/>
<text text-anchor="middle" x="333" y="-54.65" font-family="Helvetica,sans-Serif" font-size="12.00" fill="#000000">extension</text>
</g>
<!-- xs:integer -->
<g id="node4" class="node">
<title>xs:integer</title>
<g id="a_node4_3"><a xlink:href="../../xs/integer/#diagram" xlink:title="&lt;TABLE&gt;" target="_top">
<text text-anchor="start" x="316.5" y="-133.4" font-family="Helvetica,sans-Serif" font-size="12.00" fill="#000000">xs:integer</text>
</a>
</g>
<polygon fill="none" stroke="#000000" points="314,-128.5 314,-145.5 371,-145.5 371,-128.5 314,-128.5"/>
</g>
<!-- xs:integer&#45;&gt;biom:ProcessingIndicatorCodeSimpleType -->
<g id="edge3" class="edge">
<title>xs:integer&#45;&gt;biom:ProcessingIndicatorCodeSimpleType</title>
<path fill="none" stroke="#000000" d="M342.5,-128.411C342.5,-121.5124 342.5,-111.5696 342.5,-102.84"/>
<polygon fill="#000000" stroke="#000000" points="346.0001,-102.7518 342.5,-92.7519 339.0001,-102.7519 346.0001,-102.7518"/>
<text text-anchor="middle" x="333" y="-107.4" font-family="Helvetica,sans-Serif" font-size="12.00" fill="#000000">restriction</text>
</g>
</g>
</svg>
