<?xml version="1.0" encoding="UTF-8" standalone="no"?>
<!DOCTYPE svg PUBLIC "-//W3C//DTD SVG 1.1//EN"
 "http://www.w3.org/Graphics/SVG/1.1/DTD/svg11.dtd">
<!-- Generated by graphviz version 2.40.1 (20161225.0304)
 -->
<!-- Title: graphic Pages: 1 -->
<svg width="425pt" height="86pt"
 viewBox="0.00 0.00 425.00 86.00" xmlns="http://www.w3.org/2000/svg" xmlns:xlink="http://www.w3.org/1999/xlink">
<g id="graph0" class="graph" transform="scale(1 1) rotate(0) translate(4 82)">
<title>graphic</title>
<polygon fill="#ffffff" stroke="transparent" points="-4,4 -4,-82 421,-82 421,4 -4,4"/>
<!-- j:OccupantSeatRowCode -->
<g id="node1" class="node">
<title>j:OccupantSeatRowCode</title>
<text text-anchor="start" x="6" y="-9.9" font-family="Helvetica,sans-Serif" font-weight="bold" font-size="12.00" fill="#000000">j:OccupantSeatRowCode</text>
<polygon fill="none" stroke="#ff0000" stroke-width="5" points="2.5,-2.5 2.5,-22.5 153.5,-22.5 153.5,-2.5 2.5,-2.5"/>
</g>
<!-- mmucc:OccupantSeatRowCodeType -->
<g id="node3" class="node">
<title>mmucc:OccupantSeatRowCodeType</title>
<g id="a_node3_0"><a xlink:href="../../mmucc/OccupantSeatRowCodeType/#diagram" xlink:title="A data type for the occupants seat row in the motor vehicle prior to the first event in the sequence of events." target="_top">
<text text-anchor="start" x="217" y="-8.9" font-family="Helvetica,sans-Serif" font-size="12.00" fill="#000000">mmucc:OccupantSeatRowCodeType</text>
</a>
</g>
<polygon fill="none" stroke="#000000" points="215,-4 215,-21 417,-21 417,-4 215,-4"/>
</g>
<!-- j:OccupantSeatRowCode&#45;&gt;mmucc:OccupantSeatRowCodeType -->
<g id="edge2" class="edge">
<title>j:OccupantSeatRowCode&#45;&gt;mmucc:OccupantSeatRowCodeType</title>
<path fill="none" stroke="#000000" d="M156.2597,-12.5C171.743,-12.5 188.2728,-12.5 204.6105,-12.5"/>
<polygon fill="#000000" stroke="#000000" points="204.7471,-16.0001 214.7471,-12.5 204.7471,-9.0001 204.7471,-16.0001"/>
<text text-anchor="middle" x="185.5" y="-15.9" font-family="Helvetica,sans-Serif" font-size="12.00" fill="#000000">type</text>
</g>
<!-- SubstitutionGroup -->
<g id="node2" class="node">
<title>SubstitutionGroup</title>
<g id="a_node2_1"><a xlink:href="../../j/OccupantSeatRowAbstract/#diagram" xlink:title="A data concept for an occupant&#39;s seat row in the motor vehicle prior to the first event in the sequence of events." target="_top">
<text text-anchor="start" x="3" y="-65.9" font-family="Helvetica,sans-Serif" font-size="12.00" fill="#000000">j:OccupantSeatRowAbstract</text>
</a>
</g>
<polygon fill="none" stroke="#000000" points=".5,-61 .5,-78 155.5,-78 155.5,-61 .5,-61"/>
</g>
<!-- SubstitutionGroup&#45;&gt;j:OccupantSeatRowCode -->
<g id="edge1" class="edge">
<title>SubstitutionGroup&#45;&gt;j:OccupantSeatRowCode</title>
<path fill="none" stroke="#000000" d="M78,-50.9163C78,-42.4809 78,-32.7214 78,-25.1501"/>
<polygon fill="#000000" stroke="#000000" points="74.5001,-50.9472 78,-60.9473 81.5001,-50.9473 74.5001,-50.9472"/>
<text text-anchor="middle" x="68.5" y="-39.9" font-family="Helvetica,sans-Serif" font-size="12.00" fill="#000000">substitution group</text>
</g>
</g>
</svg>
