<?xml version="1.0" encoding="UTF-8" standalone="no"?>
<!DOCTYPE svg PUBLIC "-//W3C//DTD SVG 1.1//EN"
 "http://www.w3.org/Graphics/SVG/1.1/DTD/svg11.dtd">
<!-- Generated by graphviz version 2.40.1 (20161225.0304)
 -->
<!-- Title: graphic Pages: 1 -->
<svg width="488pt" height="117pt"
 viewBox="0.00 0.00 488.00 116.50" xmlns="http://www.w3.org/2000/svg" xmlns:xlink="http://www.w3.org/1999/xlink">
<g id="graph0" class="graph" transform="scale(1 1) rotate(0) translate(4 112.5)">
<title>graphic</title>
<polygon fill="#ffffff" stroke="transparent" points="-4,4 -4,-112.5 484,-112.5 484,4 -4,4"/>
<!-- em:AlarmDispatchAgencyAbstract -->
<g id="node1" class="node">
<title>em:AlarmDispatchAgencyAbstract</title>
<text text-anchor="start" x="245.5" y="-92.9" font-family="Helvetica,sans-Serif" font-weight="bold" font-size="12.00" fill="#000000">em:AlarmDispatchAgencyAbstract</text>
<polygon fill="none" stroke="#ff0000" stroke-width="5" points="241.5,-85.5 241.5,-105.5 447.5,-105.5 447.5,-85.5 241.5,-85.5"/>
</g>
<!-- SubstitutableElements -->
<g id="node3" class="node">
<title>SubstitutableElements</title>
<text text-anchor="start" x="211.5" y="-35.9" font-family="Helvetica,sans-Serif" font-weight="bold" font-size="12.00" fill="#000000">Substitutable elements</text>
<g id="a_node3_0"><a xlink:href="../../em/AlarmDispatchAgencyID/#diagram" xlink:title="An identifier for the agency (PSAP) being requested to respond to an alarm (typically a police or fire department or central dispatch point) or responder" target="_top">
<polygon fill="#ebebeb" stroke="transparent" points="210.5,-15.5 210.5,-30.5 479.5,-30.5 479.5,-15.5 210.5,-15.5"/>
<text text-anchor="start" x="211.5" y="-19.9" font-family="Helvetica,sans-Serif" font-size="12.00" fill="#000000">em:AlarmDispatchAgencyID: nc:IdentificationType</text>
</a>
</g>
<g id="a_node3_1"><a xlink:href="../../em/AlarmDispatchAgencyNameText/#diagram" xlink:title="A name of the agency (PSAP) being requested to respond to an alarm (typically a police or fire department or central dispatch point) or responder" target="_top">
<text text-anchor="start" x="211.5" y="-4.9" font-family="Helvetica,sans-Serif" font-size="12.00" fill="#000000">em:AlarmDispatchAgencyNameText: nc:TextType</text>
</a>
</g>
<polygon fill="#000000" stroke="#000000" points="209.5,-30.5 209.5,-30.5 480.5,-30.5 480.5,-30.5 209.5,-30.5"/>
<polygon fill="none" stroke="#000000" points="209,0 209,-47 480,-47 480,0 209,0"/>
</g>
<!-- em:AlarmDispatchAgencyAbstract&#45;&gt;SubstitutableElements -->
<g id="edge2" class="edge">
<title>em:AlarmDispatchAgencyAbstract&#45;&gt;SubstitutableElements</title>
<path fill="none" stroke="#000000" d="M344.5,-72.9771C344.5,-64.7398 344.5,-55.4022 344.5,-47.0755"/>
<polygon fill="#000000" stroke="#000000" points="341.0001,-72.9945 344.5,-82.9945 348.0001,-72.9946 341.0001,-72.9945"/>
<text text-anchor="middle" x="335" y="-61.9" font-family="Helvetica,sans-Serif" font-size="12.00" fill="#000000">substitutable for</text>
</g>
<!-- Types -->
<g id="node2" class="node">
<title>Types</title>
<text text-anchor="start" x="2" y="-92.9" font-family="Helvetica,sans-Serif" font-weight="bold" font-size="12.00" fill="#000000">Types</text>
<g id="a_node2_2"><a xlink:href="../../em/AlarmNotificationType/#diagram" xlink:title="A data type for an alarm" target="_top">
<polygon fill="#ebebeb" stroke="transparent" points="1,-72.5 1,-87.5 141,-87.5 141,-72.5 1,-72.5"/>
<text text-anchor="start" x="2" y="-76.9" font-family="Helvetica,sans-Serif" font-size="12.00" fill="#000000">em:AlarmNotificationType</text>
</a>
</g>
<polygon fill="#000000" stroke="#000000" points="0,-87.5 0,-87.5 142,-87.5 142,-87.5 0,-87.5"/>
<polygon fill="none" stroke="#000000" points="0,-71.5 0,-103.5 142,-103.5 142,-71.5 0,-71.5"/>
</g>
<!-- Types&#45;&gt;em:AlarmDispatchAgencyAbstract -->
<g id="edge1" class="edge">
<title>Types:top&#45;&gt;em:AlarmDispatchAgencyAbstract</title>
<path fill="none" stroke="#000000" d="M141,-95.5C169.4433,-95.5 200.1228,-95.5 228.819,-95.5"/>
<polygon fill="#000000" stroke="#000000" points="228.8796,-99.0001 238.8796,-95.5 228.8796,-92.0001 228.8796,-99.0001"/>
<text text-anchor="middle" x="175.5" y="-98.9" font-family="Helvetica,sans-Serif" font-size="12.00" fill="#000000">has&#45;a</text>
</g>
</g>
</svg>
