<?xml version="1.0" encoding="UTF-8" standalone="no"?>
<!DOCTYPE svg PUBLIC "-//W3C//DTD SVG 1.1//EN"
 "http://www.w3.org/Graphics/SVG/1.1/DTD/svg11.dtd">
<!-- Generated by graphviz version 2.40.1 (20161225.0304)
 -->
<!-- Title: graphic Pages: 1 -->
<svg width="481pt" height="45pt"
 viewBox="0.00 0.00 481.00 45.00" xmlns="http://www.w3.org/2000/svg" xmlns:xlink="http://www.w3.org/1999/xlink">
<g id="graph0" class="graph" transform="scale(1 1) rotate(0) translate(4 41)">
<title>graphic</title>
<polygon fill="#ffffff" stroke="transparent" points="-4,4 -4,-41 477,-41 477,4 -4,4"/>
<!-- m:VesselMMSIText -->
<g id="node1" class="node">
<title>m:VesselMMSIText</title>
<text text-anchor="start" x="228.5" y="-21.4" font-family="Helvetica,sans-Serif" font-weight="bold" font-size="12.00" fill="#000000">m:VesselMMSIText</text>
<polygon fill="none" stroke="#ff0000" stroke-width="5" points="224.5,-14 224.5,-34 340.5,-34 340.5,-14 224.5,-14"/>
</g>
<!-- nc:TextType -->
<g id="node3" class="node">
<title>nc:TextType</title>
<g id="a_node3_0"><a xlink:href="../../nc/TextType/#diagram" xlink:title="A data type for a character string." target="_top">
<text text-anchor="start" x="404.5" y="-20.4" font-family="Helvetica,sans-Serif" font-size="12.00" fill="#000000">nc:TextType</text>
</a>
</g>
<polygon fill="none" stroke="#000000" points="402,-15.5 402,-32.5 473,-32.5 473,-15.5 402,-15.5"/>
</g>
<!-- m:VesselMMSIText&#45;&gt;nc:TextType -->
<g id="edge2" class="edge">
<title>m:VesselMMSIText&#45;&gt;nc:TextType</title>
<path fill="none" stroke="#000000" d="M343.3152,-24C359.4403,-24 376.5769,-24 391.7504,-24"/>
<polygon fill="#000000" stroke="#000000" points="391.905,-27.5001 401.9049,-24 391.9049,-20.5001 391.905,-27.5001"/>
<text text-anchor="middle" x="372.5" y="-27.4" font-family="Helvetica,sans-Serif" font-size="12.00" fill="#000000">type</text>
</g>
<!-- Types -->
<g id="node2" class="node">
<title>Types</title>
<text text-anchor="start" x="2.5" y="-21.4" font-family="Helvetica,sans-Serif" font-weight="bold" font-size="12.00" fill="#000000">Types</text>
<g id="a_node2_1"><a xlink:href="../../m/VesselAugmentationType/#diagram" xlink:title="A data type for additional information about a vessel." target="_top">
<polygon fill="#ebebeb" stroke="transparent" points="1.5,-1 1.5,-16 154.5,-16 154.5,-1 1.5,-1"/>
<text text-anchor="start" x="2.5" y="-5.4" font-family="Helvetica,sans-Serif" font-size="12.00" fill="#000000">m:VesselAugmentationType</text>
</a>
</g>
<polygon fill="#000000" stroke="#000000" points=".5,-16 .5,-16 155.5,-16 155.5,-16 .5,-16"/>
<polygon fill="none" stroke="#000000" points="0,0 0,-32 155,-32 155,0 0,0"/>
</g>
<!-- Types&#45;&gt;m:VesselMMSIText -->
<g id="edge1" class="edge">
<title>Types:top&#45;&gt;m:VesselMMSIText</title>
<path fill="none" stroke="#000000" d="M154.5,-24C173.0625,-24 193.1392,-24 211.7657,-24"/>
<polygon fill="#000000" stroke="#000000" points="211.9457,-27.5001 221.9457,-24 211.9456,-20.5001 211.9457,-27.5001"/>
<text text-anchor="middle" x="188.5" y="-27.4" font-family="Helvetica,sans-Serif" font-size="12.00" fill="#000000">has&#45;a</text>
</g>
</g>
</svg>
