<?xml version="1.0" encoding="UTF-8" standalone="no"?>
<!DOCTYPE svg PUBLIC "-//W3C//DTD SVG 1.1//EN"
 "http://www.w3.org/Graphics/SVG/1.1/DTD/svg11.dtd">
<!-- Generated by graphviz version 2.40.1 (20161225.0304)
 -->
<!-- Title: graphic Pages: 1 -->
<svg width="467pt" height="45pt"
 viewBox="0.00 0.00 467.00 45.00" xmlns="http://www.w3.org/2000/svg" xmlns:xlink="http://www.w3.org/1999/xlink">
<g id="graph0" class="graph" transform="scale(1 1) rotate(0) translate(4 41)">
<title>graphic</title>
<polygon fill="#ffffff" stroke="transparent" points="-4,4 -4,-41 463,-41 463,4 -4,4"/>
<!-- j:JewelryStoneColorText -->
<g id="node1" class="node">
<title>j:JewelryStoneColorText</title>
<text text-anchor="start" x="182.5" y="-21.4" font-family="Helvetica,sans-Serif" font-weight="bold" font-size="12.00" fill="#000000">j:JewelryStoneColorText</text>
<polygon fill="none" stroke="#ff0000" stroke-width="5" points="178.5,-14 178.5,-34 326.5,-34 326.5,-14 178.5,-14"/>
</g>
<!-- nc:TextType -->
<g id="node3" class="node">
<title>nc:TextType</title>
<g id="a_node3_0"><a xlink:href="../../nc/TextType/#diagram" xlink:title="A data type for a character string." target="_top">
<text text-anchor="start" x="390.5" y="-20.4" font-family="Helvetica,sans-Serif" font-size="12.00" fill="#000000">nc:TextType</text>
</a>
</g>
<polygon fill="none" stroke="#000000" points="388,-15.5 388,-32.5 459,-32.5 459,-15.5 388,-15.5"/>
</g>
<!-- j:JewelryStoneColorText&#45;&gt;nc:TextType -->
<g id="edge2" class="edge">
<title>j:JewelryStoneColorText&#45;&gt;nc:TextType</title>
<path fill="none" stroke="#000000" d="M329.4959,-24C345.9027,-24 362.7314,-24 377.5331,-24"/>
<polygon fill="#000000" stroke="#000000" points="377.9178,-27.5001 387.9178,-24 377.9178,-20.5001 377.9178,-27.5001"/>
<text text-anchor="middle" x="358.5" y="-27.4" font-family="Helvetica,sans-Serif" font-size="12.00" fill="#000000">type</text>
</g>
<!-- Types -->
<g id="node2" class="node">
<title>Types</title>
<text text-anchor="start" x="2.5" y="-21.4" font-family="Helvetica,sans-Serif" font-weight="bold" font-size="12.00" fill="#000000">Types</text>
<g id="a_node2_1"><a xlink:href="../../j/JewelryStoneType/#diagram" xlink:title="A data type for a stone or gem from or for a piece of jewelry." target="_top">
<polygon fill="#ebebeb" stroke="transparent" points="1.5,-1 1.5,-16 108.5,-16 108.5,-1 1.5,-1"/>
<text text-anchor="start" x="2.5" y="-5.4" font-family="Helvetica,sans-Serif" font-size="12.00" fill="#000000">j:JewelryStoneType</text>
</a>
</g>
<polygon fill="#000000" stroke="#000000" points=".5,-16 .5,-16 109.5,-16 109.5,-16 .5,-16"/>
<polygon fill="none" stroke="#000000" points="0,0 0,-32 109,-32 109,0 0,0"/>
</g>
<!-- Types&#45;&gt;j:JewelryStoneColorText -->
<g id="edge1" class="edge">
<title>Types:top&#45;&gt;j:JewelryStoneColorText</title>
<path fill="none" stroke="#000000" d="M108.5,-24C127.0425,-24 146.928,-24 165.8219,-24"/>
<polygon fill="#000000" stroke="#000000" points="165.8993,-27.5001 175.8993,-24 165.8992,-20.5001 165.8993,-27.5001"/>
<text text-anchor="middle" x="142.5" y="-27.4" font-family="Helvetica,sans-Serif" font-size="12.00" fill="#000000">has&#45;a</text>
</g>
</g>
</svg>
