<?xml version="1.0" encoding="UTF-8" standalone="no"?>
<!DOCTYPE svg PUBLIC "-//W3C//DTD SVG 1.1//EN"
 "http://www.w3.org/Graphics/SVG/1.1/DTD/svg11.dtd">
<!-- Generated by graphviz version 2.40.1 (20161225.0304)
 -->
<!-- Title: graphic Pages: 1 -->
<svg width="526pt" height="154pt"
 viewBox="0.00 0.00 526.00 153.50" xmlns="http://www.w3.org/2000/svg" xmlns:xlink="http://www.w3.org/1999/xlink">
<g id="graph0" class="graph" transform="scale(1 1) rotate(0) translate(4 149.5)">
<title>graphic</title>
<polygon fill="#ffffff" stroke="transparent" points="-4,4 -4,-149.5 522,-149.5 522,4 -4,4"/>
<!-- scr:PersonAlertStatusCategoryCodeType -->
<g id="node1" class="node">
<title>scr:PersonAlertStatusCategoryCodeType</title>
<text text-anchor="start" x="269.5" y="-25.4" font-family="Helvetica,sans-Serif" font-weight="bold" font-size="12.00" fill="#000000">scr:PersonAlertStatusCategoryCodeType</text>
<g id="a_node1_0"><a xlink:href="../../structures/SimpleObjectAttributeGroup/#diagram" xlink:title="A group of attributes that are applicable to objects, to be used when defining a complex type that is an extension of a simple type." target="_top">
<polygon fill="#ebebeb" stroke="transparent" points="268.5,-5 268.5,-20 507.5,-20 507.5,-5 268.5,-5"/>
<text text-anchor="start" x="269.5" y="-9.4" font-family="Helvetica,sans-Serif" font-size="12.00" fill="#000000">structures:SimpleObjectAttributeGroup</text>
</a>
</g>
<polygon fill="#ff0000" stroke="#ff0000" points="263.5,-20 263.5,-20 512.5,-20 512.5,-20 263.5,-20"/>
<polygon fill="none" stroke="#ff0000" stroke-width="5" points="265.5,-2.5 265.5,-37.5 509.5,-37.5 509.5,-2.5 265.5,-2.5"/>
</g>
<!-- Properties -->
<g id="node2" class="node">
<title>Properties</title>
<text text-anchor="start" x="2" y="-25.4" font-family="Helvetica,sans-Serif" font-weight="bold" font-size="12.00" fill="#000000">Properties</text>
<g id="a_node2_1"><a xlink:href="../../scr/PersonAlertStatusCategoryCode/#diagram" xlink:title="A person alert status." target="_top">
<polygon fill="#ebebeb" stroke="transparent" points="1,-5 1,-20 197,-20 197,-5 1,-5"/>
<text text-anchor="start" x="2" y="-9.4" font-family="Helvetica,sans-Serif" font-size="12.00" fill="#000000">scr:PersonAlertStatusCategoryCode</text>
</a>
</g>
<polygon fill="#000000" stroke="#000000" points="0,-20 0,-20 198,-20 198,-20 0,-20"/>
<polygon fill="none" stroke="#000000" points="0,-4 0,-36 198,-36 198,-4 0,-4"/>
</g>
<!-- Properties&#45;&gt;scr:PersonAlertStatusCategoryCodeType -->
<g id="edge1" class="edge">
<title>Properties:top&#45;&gt;scr:PersonAlertStatusCategoryCodeType:top</title>
<path fill="none" stroke="#000000" d="M197,-28C225.0538,-28 234.5329,-28 258.2333,-28"/>
<polygon fill="#000000" stroke="#000000" points="258.5,-31.5001 268.5,-28 258.5,-24.5001 258.5,-31.5001"/>
<text text-anchor="middle" x="227.5" y="-31.4" font-family="Helvetica,sans-Serif" font-size="12.00" fill="#000000">type</text>
</g>
<!-- scr:PersonAlertStatusCategoryCodeSimpleType -->
<g id="node3" class="node">
<title>scr:PersonAlertStatusCategoryCodeSimpleType</title>
<g id="a_node3_2"><a xlink:href="../../scr/PersonAlertStatusCategoryCodeSimpleType/#diagram" xlink:title="A data type for a person alert status." target="_top">
<text text-anchor="start" x="259.5" y="-80.4" font-family="Helvetica,sans-Serif" font-size="12.00" fill="#000000">scr:PersonAlertStatusCategoryCodeSimpleType</text>
</a>
</g>
<polygon fill="none" stroke="#000000" points="257,-75.5 257,-92.5 518,-92.5 518,-75.5 257,-75.5"/>
</g>
<!-- scr:PersonAlertStatusCategoryCodeSimpleType&#45;&gt;scr:PersonAlertStatusCategoryCodeType -->
<g id="edge2" class="edge">
<title>scr:PersonAlertStatusCategoryCodeSimpleType&#45;&gt;scr:PersonAlertStatusCategoryCodeType</title>
<path fill="none" stroke="#000000" d="M387.5,-75.4351C387.5,-68.931 387.5,-59.5678 387.5,-50.3827"/>
<polygon fill="#000000" stroke="#000000" points="391.0001,-50.25 387.5,-40.25 384.0001,-50.25 391.0001,-50.25"/>
<text text-anchor="middle" x="378" y="-54.65" font-family="Helvetica,sans-Serif" font-size="12.00" fill="#000000">extension</text>
</g>
<!-- xs:token -->
<g id="node4" class="node">
<title>xs:token</title>
<g id="a_node4_3"><a xlink:href="../../xs/token/#diagram" xlink:title="&lt;TABLE&gt;" target="_top">
<text text-anchor="start" x="365.5" y="-133.4" font-family="Helvetica,sans-Serif" font-size="12.00" fill="#000000">xs:token</text>
</a>
</g>
<polygon fill="none" stroke="#000000" points="363,-128.5 363,-145.5 412,-145.5 412,-128.5 363,-128.5"/>
</g>
<!-- xs:token&#45;&gt;scr:PersonAlertStatusCategoryCodeSimpleType -->
<g id="edge3" class="edge">
<title>xs:token&#45;&gt;scr:PersonAlertStatusCategoryCodeSimpleType</title>
<path fill="none" stroke="#000000" d="M387.5,-128.411C387.5,-121.5124 387.5,-111.5696 387.5,-102.84"/>
<polygon fill="#000000" stroke="#000000" points="391.0001,-102.7518 387.5,-92.7519 384.0001,-102.7519 391.0001,-102.7518"/>
<text text-anchor="middle" x="378" y="-107.4" font-family="Helvetica,sans-Serif" font-size="12.00" fill="#000000">restriction</text>
</g>
</g>
</svg>
