<?xml version="1.0" encoding="UTF-8" standalone="no"?>
<!DOCTYPE svg PUBLIC "-//W3C//DTD SVG 1.1//EN"
 "http://www.w3.org/Graphics/SVG/1.1/DTD/svg11.dtd">
<!-- Generated by graphviz version 2.40.1 (20161225.0304)
 -->
<!-- Title: graphic Pages: 1 -->
<svg width="414pt" height="45pt"
 viewBox="0.00 0.00 414.00 45.00" xmlns="http://www.w3.org/2000/svg" xmlns:xlink="http://www.w3.org/1999/xlink">
<g id="graph0" class="graph" transform="scale(1 1) rotate(0) translate(4 41)">
<title>graphic</title>
<polygon fill="#ffffff" stroke="transparent" points="-4,4 -4,-41 410,-41 410,4 -4,4"/>
<!-- j:ChargeSentence -->
<g id="node1" class="node">
<title>j:ChargeSentence</title>
<text text-anchor="start" x="150.5" y="-21.4" font-family="Helvetica,sans-Serif" font-weight="bold" font-size="12.00" fill="#000000">j:ChargeSentence</text>
<polygon fill="none" stroke="#ff0000" stroke-width="5" points="146.5,-14 146.5,-34 256.5,-34 256.5,-14 146.5,-14"/>
</g>
<!-- j:SentenceType -->
<g id="node3" class="node">
<title>j:SentenceType</title>
<g id="a_node3_0"><a xlink:href="../../j/SentenceType/#diagram" xlink:title="A data type for a punishment resulting from conviction of charges in a court case." target="_top">
<text text-anchor="start" x="320" y="-20.4" font-family="Helvetica,sans-Serif" font-size="12.00" fill="#000000">j:SentenceType</text>
</a>
</g>
<polygon fill="none" stroke="#000000" points="318,-15.5 318,-32.5 406,-32.5 406,-15.5 318,-15.5"/>
</g>
<!-- j:ChargeSentence&#45;&gt;j:SentenceType -->
<g id="edge2" class="edge">
<title>j:ChargeSentence&#45;&gt;j:SentenceType</title>
<path fill="none" stroke="#000000" d="M259.4442,-24C275.2805,-24 292.3756,-24 307.9833,-24"/>
<polygon fill="#000000" stroke="#000000" points="307.9968,-27.5001 317.9968,-24 307.9967,-20.5001 307.9968,-27.5001"/>
<text text-anchor="middle" x="288.5" y="-27.4" font-family="Helvetica,sans-Serif" font-size="12.00" fill="#000000">type</text>
</g>
<!-- Types -->
<g id="node2" class="node">
<title>Types</title>
<text text-anchor="start" x="2.5" y="-21.4" font-family="Helvetica,sans-Serif" font-weight="bold" font-size="12.00" fill="#000000">Types</text>
<g id="a_node2_1"><a xlink:href="../../j/ChargeType/#diagram" xlink:title="A data type for a formal allegation that a specific person has committed a specific offense." target="_top">
<polygon fill="#ebebeb" stroke="transparent" points="1.5,-1 1.5,-16 76.5,-16 76.5,-1 1.5,-1"/>
<text text-anchor="start" x="2.5" y="-5.4" font-family="Helvetica,sans-Serif" font-size="12.00" fill="#000000">j:ChargeType</text>
</a>
</g>
<polygon fill="#000000" stroke="#000000" points=".5,-16 .5,-16 77.5,-16 77.5,-16 .5,-16"/>
<polygon fill="none" stroke="#000000" points="0,0 0,-32 77,-32 77,0 0,0"/>
</g>
<!-- Types&#45;&gt;j:ChargeSentence -->
<g id="edge1" class="edge">
<title>Types:top&#45;&gt;j:ChargeSentence</title>
<path fill="none" stroke="#000000" d="M76.5,-24C95.0852,-24 115.2248,-24 133.7988,-24"/>
<polygon fill="#000000" stroke="#000000" points="133.9368,-27.5001 143.9368,-24 133.9367,-20.5001 133.9368,-27.5001"/>
<text text-anchor="middle" x="110.5" y="-27.4" font-family="Helvetica,sans-Serif" font-size="12.00" fill="#000000">has&#45;a</text>
</g>
</g>
</svg>
