<?xml version="1.0" encoding="UTF-8" standalone="no"?>
<!DOCTYPE svg PUBLIC "-//W3C//DTD SVG 1.1//EN"
 "http://www.w3.org/Graphics/SVG/1.1/DTD/svg11.dtd">
<!-- Generated by graphviz version 2.40.1 (20161225.0304)
 -->
<!-- Title: graphic Pages: 1 -->
<svg width="795pt" height="45pt"
 viewBox="0.00 0.00 795.00 45.00" xmlns="http://www.w3.org/2000/svg" xmlns:xlink="http://www.w3.org/1999/xlink">
<g id="graph0" class="graph" transform="scale(1 1) rotate(0) translate(4 41)">
<title>graphic</title>
<polygon fill="#ffffff" stroke="transparent" points="-4,4 -4,-41 791,-41 791,4 -4,4"/>
<!-- im:ChangeOfNonImmigrantStatusIndicator -->
<g id="node1" class="node">
<title>im:ChangeOfNonImmigrantStatusIndicator</title>
<text text-anchor="start" x="384.5" y="-21.4" font-family="Helvetica,sans-Serif" font-weight="bold" font-size="12.00" fill="#000000">im:ChangeOfNonImmigrantStatusIndicator</text>
<polygon fill="none" stroke="#ff0000" stroke-width="5" points="380.5,-14 380.5,-34 632.5,-34 632.5,-14 380.5,-14"/>
</g>
<!-- niem&#45;xs:boolean -->
<g id="node3" class="node">
<title>niem&#45;xs:boolean</title>
<g id="a_node3_0"><a xlink:href="../../niem-xs/boolean/#diagram" xlink:title="A data type for binary&#45;valued logic (true/false)." target="_top">
<text text-anchor="start" x="696.5" y="-20.4" font-family="Helvetica,sans-Serif" font-size="12.00" fill="#000000">niem&#45;xs:boolean</text>
</a>
</g>
<polygon fill="none" stroke="#000000" points="694,-15.5 694,-32.5 787,-32.5 787,-15.5 694,-15.5"/>
</g>
<!-- im:ChangeOfNonImmigrantStatusIndicator&#45;&gt;niem&#45;xs:boolean -->
<g id="edge2" class="edge">
<title>im:ChangeOfNonImmigrantStatusIndicator&#45;&gt;niem&#45;xs:boolean</title>
<path fill="none" stroke="#000000" d="M635.1372,-24C652.2221,-24 668.9727,-24 683.9124,-24"/>
<polygon fill="#000000" stroke="#000000" points="683.9478,-27.5001 693.9478,-24 683.9477,-20.5001 683.9478,-27.5001"/>
<text text-anchor="middle" x="664.5" y="-27.4" font-family="Helvetica,sans-Serif" font-size="12.00" fill="#000000">type</text>
</g>
<!-- Types -->
<g id="node2" class="node">
<title>Types</title>
<text text-anchor="start" x="2.5" y="-21.4" font-family="Helvetica,sans-Serif" font-weight="bold" font-size="12.00" fill="#000000">Types</text>
<g id="a_node2_1"><a xlink:href="../../im/ImmigrationBenefitChangeOfNonImmigrantStatusType/#diagram" xlink:title="A data type for the immigration application data requesting change of non&#45;immigrant status." target="_top">
<polygon fill="#ebebeb" stroke="transparent" points="1.5,-1 1.5,-16 310.5,-16 310.5,-1 1.5,-1"/>
<text text-anchor="start" x="2.5" y="-5.4" font-family="Helvetica,sans-Serif" font-size="12.00" fill="#000000">im:ImmigrationBenefitChangeOfNonImmigrantStatusType</text>
</a>
</g>
<polygon fill="#000000" stroke="#000000" points=".5,-16 .5,-16 311.5,-16 311.5,-16 .5,-16"/>
<polygon fill="none" stroke="#000000" points="0,0 0,-32 311,-32 311,0 0,0"/>
</g>
<!-- Types&#45;&gt;im:ChangeOfNonImmigrantStatusIndicator -->
<g id="edge1" class="edge">
<title>Types:top&#45;&gt;im:ChangeOfNonImmigrantStatusIndicator</title>
<path fill="none" stroke="#000000" d="M310.5,-24C329.0451,-24 348.5773,-24 367.8357,-24"/>
<polygon fill="#000000" stroke="#000000" points="367.875,-27.5001 377.875,-24 367.875,-20.5001 367.875,-27.5001"/>
<text text-anchor="middle" x="344.5" y="-27.4" font-family="Helvetica,sans-Serif" font-size="12.00" fill="#000000">has&#45;a</text>
</g>
</g>
</svg>
