<?xml version="1.0" encoding="UTF-8" standalone="no"?>
<!DOCTYPE svg PUBLIC "-//W3C//DTD SVG 1.1//EN"
 "http://www.w3.org/Graphics/SVG/1.1/DTD/svg11.dtd">
<!-- Generated by graphviz version 2.40.1 (20161225.0304)
 -->
<!-- Title: graphic Pages: 1 -->
<svg width="468pt" height="45pt"
 viewBox="0.00 0.00 468.00 45.00" xmlns="http://www.w3.org/2000/svg" xmlns:xlink="http://www.w3.org/1999/xlink">
<g id="graph0" class="graph" transform="scale(1 1) rotate(0) translate(4 41)">
<title>graphic</title>
<polygon fill="#ffffff" stroke="transparent" points="-4,4 -4,-41 464,-41 464,4 -4,4"/>
<!-- em:UpdateBy -->
<g id="node1" class="node">
<title>em:UpdateBy</title>
<text text-anchor="start" x="202" y="-21.4" font-family="Helvetica,sans-Serif" font-weight="bold" font-size="12.00" fill="#000000">em:UpdateBy</text>
<polygon fill="none" stroke="#ff0000" stroke-width="5" points="198.5,-14 198.5,-34 283.5,-34 283.5,-14 198.5,-14"/>
</g>
<!-- nc:IdentificationType -->
<g id="node3" class="node">
<title>nc:IdentificationType</title>
<g id="a_node3_0"><a xlink:href="../../nc/IdentificationType/#diagram" xlink:title="A data type for a representation of an identity." target="_top">
<text text-anchor="start" x="347.5" y="-20.4" font-family="Helvetica,sans-Serif" font-size="12.00" fill="#000000">nc:IdentificationType</text>
</a>
</g>
<polygon fill="none" stroke="#000000" points="345,-15.5 345,-32.5 460,-32.5 460,-15.5 345,-15.5"/>
</g>
<!-- em:UpdateBy&#45;&gt;nc:IdentificationType -->
<g id="edge2" class="edge">
<title>em:UpdateBy&#45;&gt;nc:IdentificationType</title>
<path fill="none" stroke="#000000" d="M286.4165,-24C301.4052,-24 318.4169,-24 334.7064,-24"/>
<polygon fill="#000000" stroke="#000000" points="334.7311,-27.5001 344.7311,-24 334.731,-20.5001 334.7311,-27.5001"/>
<text text-anchor="middle" x="315.5" y="-27.4" font-family="Helvetica,sans-Serif" font-size="12.00" fill="#000000">type</text>
</g>
<!-- Types -->
<g id="node2" class="node">
<title>Types</title>
<text text-anchor="start" x="2.5" y="-21.4" font-family="Helvetica,sans-Serif" font-weight="bold" font-size="12.00" fill="#000000">Types</text>
<g id="a_node2_1"><a xlink:href="../../em/UpdateRecordType/#diagram" xlink:title="A data type for data update information" target="_top">
<polygon fill="#ebebeb" stroke="transparent" points="1.5,-1 1.5,-16 128.5,-16 128.5,-1 1.5,-1"/>
<text text-anchor="start" x="2.5" y="-5.4" font-family="Helvetica,sans-Serif" font-size="12.00" fill="#000000">em:UpdateRecordType</text>
</a>
</g>
<polygon fill="#000000" stroke="#000000" points=".5,-16 .5,-16 129.5,-16 129.5,-16 .5,-16"/>
<polygon fill="none" stroke="#000000" points="0,0 0,-32 129,-32 129,0 0,0"/>
</g>
<!-- Types&#45;&gt;em:UpdateBy -->
<g id="edge1" class="edge">
<title>Types:top&#45;&gt;em:UpdateBy</title>
<path fill="none" stroke="#000000" d="M128.5,-24C147.1176,-24 167.4683,-24 185.6802,-24"/>
<polygon fill="#000000" stroke="#000000" points="185.839,-27.5001 195.8389,-24 185.8389,-20.5001 185.839,-27.5001"/>
<text text-anchor="middle" x="162.5" y="-27.4" font-family="Helvetica,sans-Serif" font-size="12.00" fill="#000000">has&#45;a</text>
</g>
</g>
</svg>
