<?xml version="1.0" encoding="UTF-8" standalone="no"?>
<!DOCTYPE svg PUBLIC "-//W3C//DTD SVG 1.1//EN"
 "http://www.w3.org/Graphics/SVG/1.1/DTD/svg11.dtd">
<!-- Generated by graphviz version 2.40.1 (20161225.0304)
 -->
<!-- Title: graphic Pages: 1 -->
<svg width="586pt" height="45pt"
 viewBox="0.00 0.00 586.00 45.00" xmlns="http://www.w3.org/2000/svg" xmlns:xlink="http://www.w3.org/1999/xlink">
<g id="graph0" class="graph" transform="scale(1 1) rotate(0) translate(4 41)">
<title>graphic</title>
<polygon fill="#ffffff" stroke="transparent" points="-4,4 -4,-41 582,-41 582,4 -4,4"/>
<!-- j:AftercareServicesScreening -->
<g id="node1" class="node">
<title>j:AftercareServicesScreening</title>
<text text-anchor="start" x="159" y="-21.4" font-family="Helvetica,sans-Serif" font-weight="bold" font-size="12.00" fill="#000000">j:AftercareServicesScreening</text>
<polygon fill="none" stroke="#ff0000" stroke-width="5" points="155.5,-14 155.5,-34 330.5,-34 330.5,-14 155.5,-14"/>
</g>
<!-- j:AftercareServicesScreeningType -->
<g id="node3" class="node">
<title>j:AftercareServicesScreeningType</title>
<g id="a_node3_0"><a xlink:href="../../j/AftercareServicesScreeningType/#diagram" xlink:title="A data type for an evaluation of a parolee to determine the appropriate mental health services to be provided." target="_top">
<text text-anchor="start" x="394" y="-20.4" font-family="Helvetica,sans-Serif" font-size="12.00" fill="#000000">j:AftercareServicesScreeningType</text>
</a>
</g>
<polygon fill="none" stroke="#000000" points="392,-15.5 392,-32.5 578,-32.5 578,-15.5 392,-15.5"/>
</g>
<!-- j:AftercareServicesScreening&#45;&gt;j:AftercareServicesScreeningType -->
<g id="edge2" class="edge">
<title>j:AftercareServicesScreening&#45;&gt;j:AftercareServicesScreeningType</title>
<path fill="none" stroke="#000000" d="M333.1119,-24C349.0257,-24 365.7035,-24 381.9406,-24"/>
<polygon fill="#000000" stroke="#000000" points="381.9827,-27.5001 391.9827,-24 381.9826,-20.5001 381.9827,-27.5001"/>
<text text-anchor="middle" x="362.5" y="-27.4" font-family="Helvetica,sans-Serif" font-size="12.00" fill="#000000">type</text>
</g>
<!-- Types -->
<g id="node2" class="node">
<title>Types</title>
<text text-anchor="start" x="2" y="-21.4" font-family="Helvetica,sans-Serif" font-weight="bold" font-size="12.00" fill="#000000">Types</text>
<g id="a_node2_1"><a xlink:href="../../j/AftercareType/#diagram" xlink:title="A data type for a type of service(s) specific to subjects after incarceration." target="_top">
<polygon fill="#ebebeb" stroke="transparent" points="1,-1 1,-16 85,-16 85,-1 1,-1"/>
<text text-anchor="start" x="2" y="-5.4" font-family="Helvetica,sans-Serif" font-size="12.00" fill="#000000">j:AftercareType</text>
</a>
</g>
<polygon fill="#000000" stroke="#000000" points="0,-16 0,-16 86,-16 86,-16 0,-16"/>
<polygon fill="none" stroke="#000000" points="0,0 0,-32 86,-32 86,0 0,0"/>
</g>
<!-- Types&#45;&gt;j:AftercareServicesScreening -->
<g id="edge1" class="edge">
<title>Types:top&#45;&gt;j:AftercareServicesScreening</title>
<path fill="none" stroke="#000000" d="M85,-24C103.6013,-24 123.4345,-24 142.5417,-24"/>
<polygon fill="#000000" stroke="#000000" points="142.7621,-27.5001 152.762,-24 142.762,-20.5001 142.7621,-27.5001"/>
<text text-anchor="middle" x="119.5" y="-27.4" font-family="Helvetica,sans-Serif" font-size="12.00" fill="#000000">has&#45;a</text>
</g>
</g>
</svg>
