<?xml version="1.0" encoding="UTF-8" standalone="no"?>
<!DOCTYPE svg PUBLIC "-//W3C//DTD SVG 1.1//EN"
 "http://www.w3.org/Graphics/SVG/1.1/DTD/svg11.dtd">
<!-- Generated by graphviz version 2.40.1 (20161225.0304)
 -->
<!-- Title: graphic Pages: 1 -->
<svg width="790pt" height="45pt"
 viewBox="0.00 0.00 790.00 45.00" xmlns="http://www.w3.org/2000/svg" xmlns:xlink="http://www.w3.org/1999/xlink">
<g id="graph0" class="graph" transform="scale(1 1) rotate(0) translate(4 41)">
<title>graphic</title>
<polygon fill="#ffffff" stroke="transparent" points="-4,4 -4,-41 786,-41 786,4 -4,4"/>
<!-- im:PermanentResidentAdjustmentApplicant -->
<g id="node1" class="node">
<title>im:PermanentResidentAdjustmentApplicant</title>
<text text-anchor="start" x="380" y="-21.4" font-family="Helvetica,sans-Serif" font-weight="bold" font-size="12.00" fill="#000000">im:PermanentResidentAdjustmentApplicant</text>
<polygon fill="none" stroke="#ff0000" stroke-width="5" points="376.5,-14 376.5,-34 635.5,-34 635.5,-14 376.5,-14"/>
</g>
<!-- nc:PersonType -->
<g id="node3" class="node">
<title>nc:PersonType</title>
<g id="a_node3_0"><a xlink:href="../../nc/PersonType/#diagram" xlink:title="A data type for a human being." target="_top">
<text text-anchor="start" x="699.5" y="-20.4" font-family="Helvetica,sans-Serif" font-size="12.00" fill="#000000">nc:PersonType</text>
</a>
</g>
<polygon fill="none" stroke="#000000" points="697,-15.5 697,-32.5 782,-32.5 782,-15.5 697,-15.5"/>
</g>
<!-- im:PermanentResidentAdjustmentApplicant&#45;&gt;nc:PersonType -->
<g id="edge2" class="edge">
<title>im:PermanentResidentAdjustmentApplicant&#45;&gt;nc:PersonType</title>
<path fill="none" stroke="#000000" d="M638.1022,-24C655.2075,-24 671.8654,-24 686.5726,-24"/>
<polygon fill="#000000" stroke="#000000" points="686.9154,-27.5001 696.9154,-24 686.9154,-20.5001 686.9154,-27.5001"/>
<text text-anchor="middle" x="667.5" y="-27.4" font-family="Helvetica,sans-Serif" font-size="12.00" fill="#000000">type</text>
</g>
<!-- Types -->
<g id="node2" class="node">
<title>Types</title>
<text text-anchor="start" x="2.5" y="-21.4" font-family="Helvetica,sans-Serif" font-weight="bold" font-size="12.00" fill="#000000">Types</text>
<g id="a_node2_1"><a xlink:href="../../im/ImmigrationBenefitExtendChangeStatusEligibilityType/#diagram" xlink:title="A data type for the eligibility of an applicant attempting to extend or change status or reinstate student status." target="_top">
<polygon fill="#ebebeb" stroke="transparent" points="1.5,-1 1.5,-16 306.5,-16 306.5,-1 1.5,-1"/>
<text text-anchor="start" x="2.5" y="-5.4" font-family="Helvetica,sans-Serif" font-size="12.00" fill="#000000">im:ImmigrationBenefitExtendChangeStatusEligibilityType</text>
</a>
</g>
<polygon fill="#000000" stroke="#000000" points=".5,-16 .5,-16 307.5,-16 307.5,-16 .5,-16"/>
<polygon fill="none" stroke="#000000" points="0,0 0,-32 307,-32 307,0 0,0"/>
</g>
<!-- Types&#45;&gt;im:PermanentResidentAdjustmentApplicant -->
<g id="edge1" class="edge">
<title>Types:top&#45;&gt;im:PermanentResidentAdjustmentApplicant</title>
<path fill="none" stroke="#000000" d="M306.5,-24C325.0076,-24 344.481,-24 363.7107,-24"/>
<polygon fill="#000000" stroke="#000000" points="363.738,-27.5001 373.7379,-24 363.7379,-20.5001 363.738,-27.5001"/>
<text text-anchor="middle" x="340.5" y="-27.4" font-family="Helvetica,sans-Serif" font-size="12.00" fill="#000000">has&#45;a</text>
</g>
</g>
</svg>
