<?xml version="1.0" encoding="UTF-8" standalone="no"?>
<!DOCTYPE svg PUBLIC "-//W3C//DTD SVG 1.1//EN"
 "http://www.w3.org/Graphics/SVG/1.1/DTD/svg11.dtd">
<!-- Generated by graphviz version 2.40.1 (20161225.0304)
 -->
<!-- Title: graphic Pages: 1 -->
<svg width="571pt" height="154pt"
 viewBox="0.00 0.00 571.00 153.50" xmlns="http://www.w3.org/2000/svg" xmlns:xlink="http://www.w3.org/1999/xlink">
<g id="graph0" class="graph" transform="scale(1 1) rotate(0) translate(4 149.5)">
<title>graphic</title>
<polygon fill="#ffffff" stroke="transparent" points="-4,4 -4,-149.5 567,-149.5 567,4 -4,4"/>
<!-- hs:PersonOtherKinAssociationCodeType -->
<g id="node1" class="node">
<title>hs:PersonOtherKinAssociationCodeType</title>
<text text-anchor="start" x="315.5" y="-25.4" font-family="Helvetica,sans-Serif" font-weight="bold" font-size="12.00" fill="#000000">hs:PersonOtherKinAssociationCodeType</text>
<g id="a_node1_0"><a xlink:href="../../structures/SimpleObjectAttributeGroup/#diagram" xlink:title="A group of attributes that are applicable to objects, to be used when defining a complex type that is an extension of a simple type." target="_top">
<polygon fill="#ebebeb" stroke="transparent" points="314.5,-5 314.5,-20 553.5,-20 553.5,-5 314.5,-5"/>
<text text-anchor="start" x="315.5" y="-9.4" font-family="Helvetica,sans-Serif" font-size="12.00" fill="#000000">structures:SimpleObjectAttributeGroup</text>
</a>
</g>
<polygon fill="#ff0000" stroke="#ff0000" points="309.5,-20 309.5,-20 558.5,-20 558.5,-20 309.5,-20"/>
<polygon fill="none" stroke="#ff0000" stroke-width="5" points="311.5,-2.5 311.5,-37.5 555.5,-37.5 555.5,-2.5 311.5,-2.5"/>
</g>
<!-- Properties -->
<g id="node2" class="node">
<title>Properties</title>
<text text-anchor="start" x="2.5" y="-25.4" font-family="Helvetica,sans-Serif" font-weight="bold" font-size="12.00" fill="#000000">Properties</text>
<g id="a_node2_1"><a xlink:href="../../hs/PersonOtherKinAssociationCategoryCode/#diagram" xlink:title="A code list that describes the nature of the kinship or other close personal relationship from a source person to a target person." target="_top">
<polygon fill="#ebebeb" stroke="transparent" points="1.5,-5 1.5,-20 244.5,-20 244.5,-5 1.5,-5"/>
<text text-anchor="start" x="2.5" y="-9.4" font-family="Helvetica,sans-Serif" font-size="12.00" fill="#000000">hs:PersonOtherKinAssociationCategoryCode</text>
</a>
</g>
<polygon fill="#000000" stroke="#000000" points=".5,-20 .5,-20 245.5,-20 245.5,-20 .5,-20"/>
<polygon fill="none" stroke="#000000" points="0,-4 0,-36 245,-36 245,-4 0,-4"/>
</g>
<!-- Properties&#45;&gt;hs:PersonOtherKinAssociationCodeType -->
<g id="edge1" class="edge">
<title>Properties:top&#45;&gt;hs:PersonOtherKinAssociationCodeType:top</title>
<path fill="none" stroke="#000000" d="M244.5,-28C271.9653,-28 281.2455,-28 304.4487,-28"/>
<polygon fill="#000000" stroke="#000000" points="304.5,-31.5001 314.5,-28 304.5,-24.5001 304.5,-31.5001"/>
<text text-anchor="middle" x="274.5" y="-31.4" font-family="Helvetica,sans-Serif" font-size="12.00" fill="#000000">type</text>
</g>
<!-- hs:PersonOtherKinAssociationCodeSimpleType -->
<g id="node3" class="node">
<title>hs:PersonOtherKinAssociationCodeSimpleType</title>
<g id="a_node3_2"><a xlink:href="../../hs/PersonOtherKinAssociationCodeSimpleType/#diagram" xlink:title="A data type for describing the nature of the kinship or other close personal relationship from a source person to a target person" target="_top">
<text text-anchor="start" x="306.5" y="-80.4" font-family="Helvetica,sans-Serif" font-size="12.00" fill="#000000">hs:PersonOtherKinAssociationCodeSimpleType</text>
</a>
</g>
<polygon fill="none" stroke="#000000" points="304,-75.5 304,-92.5 563,-92.5 563,-75.5 304,-75.5"/>
</g>
<!-- hs:PersonOtherKinAssociationCodeSimpleType&#45;&gt;hs:PersonOtherKinAssociationCodeType -->
<g id="edge2" class="edge">
<title>hs:PersonOtherKinAssociationCodeSimpleType&#45;&gt;hs:PersonOtherKinAssociationCodeType</title>
<path fill="none" stroke="#000000" d="M433.5,-75.4351C433.5,-68.931 433.5,-59.5678 433.5,-50.3827"/>
<polygon fill="#000000" stroke="#000000" points="437.0001,-50.25 433.5,-40.25 430.0001,-50.25 437.0001,-50.25"/>
<text text-anchor="middle" x="424" y="-54.65" font-family="Helvetica,sans-Serif" font-size="12.00" fill="#000000">extension</text>
</g>
<!-- xs:token -->
<g id="node4" class="node">
<title>xs:token</title>
<g id="a_node4_3"><a xlink:href="../../xs/token/#diagram" xlink:title="&lt;TABLE&gt;" target="_top">
<text text-anchor="start" x="411.5" y="-133.4" font-family="Helvetica,sans-Serif" font-size="12.00" fill="#000000">xs:token</text>
</a>
</g>
<polygon fill="none" stroke="#000000" points="409,-128.5 409,-145.5 458,-145.5 458,-128.5 409,-128.5"/>
</g>
<!-- xs:token&#45;&gt;hs:PersonOtherKinAssociationCodeSimpleType -->
<g id="edge3" class="edge">
<title>xs:token&#45;&gt;hs:PersonOtherKinAssociationCodeSimpleType</title>
<path fill="none" stroke="#000000" d="M433.5,-128.411C433.5,-121.5124 433.5,-111.5696 433.5,-102.84"/>
<polygon fill="#000000" stroke="#000000" points="437.0001,-102.7518 433.5,-92.7519 430.0001,-102.7519 437.0001,-102.7518"/>
<text text-anchor="middle" x="424" y="-107.4" font-family="Helvetica,sans-Serif" font-size="12.00" fill="#000000">restriction</text>
</g>
</g>
</svg>
