<?xml version="1.0" encoding="UTF-8" standalone="no"?>
<!DOCTYPE svg PUBLIC "-//W3C//DTD SVG 1.1//EN"
 "http://www.w3.org/Graphics/SVG/1.1/DTD/svg11.dtd">
<!-- Generated by graphviz version 2.40.1 (20161225.0304)
 -->
<!-- Title: graphic Pages: 1 -->
<svg width="528pt" height="45pt"
 viewBox="0.00 0.00 528.00 45.00" xmlns="http://www.w3.org/2000/svg" xmlns:xlink="http://www.w3.org/1999/xlink">
<g id="graph0" class="graph" transform="scale(1 1) rotate(0) translate(4 41)">
<title>graphic</title>
<polygon fill="#ffffff" stroke="transparent" points="-4,4 -4,-41 524,-41 524,4 -4,4"/>
<!-- stat:QuestionValueDomain -->
<g id="node1" class="node">
<title>stat:QuestionValueDomain</title>
<text text-anchor="start" x="175" y="-21.4" font-family="Helvetica,sans-Serif" font-weight="bold" font-size="12.00" fill="#000000">stat:QuestionValueDomain</text>
<polygon fill="none" stroke="#ff0000" stroke-width="5" points="171.5,-14 171.5,-34 332.5,-34 332.5,-14 171.5,-14"/>
</g>
<!-- stat:ValueDomainType -->
<g id="node3" class="node">
<title>stat:ValueDomainType</title>
<g id="a_node3_0"><a xlink:href="../../stat/ValueDomainType/#diagram" xlink:title="A data type for a set of permissible values for a variable." target="_top">
<text text-anchor="start" x="396" y="-20.4" font-family="Helvetica,sans-Serif" font-size="12.00" fill="#000000">stat:ValueDomainType</text>
</a>
</g>
<polygon fill="none" stroke="#000000" points="394,-15.5 394,-32.5 520,-32.5 520,-15.5 394,-15.5"/>
</g>
<!-- stat:QuestionValueDomain&#45;&gt;stat:ValueDomainType -->
<g id="edge2" class="edge">
<title>stat:QuestionValueDomain&#45;&gt;stat:ValueDomainType</title>
<path fill="none" stroke="#000000" d="M335.0858,-24C351.2007,-24 367.98,-24 383.751,-24"/>
<polygon fill="#000000" stroke="#000000" points="383.9522,-27.5001 393.9521,-24 383.9521,-20.5001 383.9522,-27.5001"/>
<text text-anchor="middle" x="364.5" y="-27.4" font-family="Helvetica,sans-Serif" font-size="12.00" fill="#000000">type</text>
</g>
<!-- Types -->
<g id="node2" class="node">
<title>Types</title>
<text text-anchor="start" x="2" y="-21.4" font-family="Helvetica,sans-Serif" font-weight="bold" font-size="12.00" fill="#000000">Types</text>
<g id="a_node2_1"><a xlink:href="../../stat/QuestionType/#diagram" xlink:title="A data type for a set of details about the text used to elicit a response for the concept to be measured." target="_top">
<polygon fill="#ebebeb" stroke="transparent" points="1,-1 1,-16 101,-16 101,-1 1,-1"/>
<text text-anchor="start" x="2" y="-5.4" font-family="Helvetica,sans-Serif" font-size="12.00" fill="#000000">stat:QuestionType</text>
</a>
</g>
<polygon fill="#000000" stroke="#000000" points="0,-16 0,-16 102,-16 102,-16 0,-16"/>
<polygon fill="none" stroke="#000000" points="0,0 0,-32 102,-32 102,0 0,0"/>
</g>
<!-- Types&#45;&gt;stat:QuestionValueDomain -->
<g id="edge1" class="edge">
<title>Types:top&#45;&gt;stat:QuestionValueDomain</title>
<path fill="none" stroke="#000000" d="M101,-24C119.6661,-24 139.6301,-24 158.7261,-24"/>
<polygon fill="#000000" stroke="#000000" points="158.9254,-27.5001 168.9253,-24 158.9253,-20.5001 158.9254,-27.5001"/>
<text text-anchor="middle" x="135.5" y="-27.4" font-family="Helvetica,sans-Serif" font-size="12.00" fill="#000000">has&#45;a</text>
</g>
</g>
</svg>
