<?xml version="1.0" encoding="UTF-8" standalone="no"?>
<!DOCTYPE svg PUBLIC "-//W3C//DTD SVG 1.1//EN"
 "http://www.w3.org/Graphics/SVG/1.1/DTD/svg11.dtd">
<!-- Generated by graphviz version 2.40.1 (20161225.0304)
 -->
<!-- Title: graphic Pages: 1 -->
<svg width="579pt" height="45pt"
 viewBox="0.00 0.00 579.00 45.00" xmlns="http://www.w3.org/2000/svg" xmlns:xlink="http://www.w3.org/1999/xlink">
<g id="graph0" class="graph" transform="scale(1 1) rotate(0) translate(4 41)">
<title>graphic</title>
<polygon fill="#ffffff" stroke="transparent" points="-4,4 -4,-41 575,-41 575,4 -4,4"/>
<!-- hs:SchoolSchedule -->
<g id="node1" class="node">
<title>hs:SchoolSchedule</title>
<text text-anchor="start" x="260" y="-21.4" font-family="Helvetica,sans-Serif" font-weight="bold" font-size="12.00" fill="#000000">hs:SchoolSchedule</text>
<polygon fill="none" stroke="#ff0000" stroke-width="5" points="256.5,-14 256.5,-34 375.5,-34 375.5,-14 256.5,-14"/>
</g>
<!-- hs:SchoolScheduleType -->
<g id="node3" class="node">
<title>hs:SchoolScheduleType</title>
<g id="a_node3_0"><a xlink:href="../../hs/SchoolScheduleType/#diagram" xlink:title="A data type for information about school classes, rather than details about a single class." target="_top">
<text text-anchor="start" x="439" y="-20.4" font-family="Helvetica,sans-Serif" font-size="12.00" fill="#000000">hs:SchoolScheduleType</text>
</a>
</g>
<polygon fill="none" stroke="#000000" points="437,-15.5 437,-32.5 571,-32.5 571,-15.5 437,-15.5"/>
</g>
<!-- hs:SchoolSchedule&#45;&gt;hs:SchoolScheduleType -->
<g id="edge2" class="edge">
<title>hs:SchoolSchedule&#45;&gt;hs:SchoolScheduleType</title>
<path fill="none" stroke="#000000" d="M378.0793,-24C393.5207,-24 410.2662,-24 426.3524,-24"/>
<polygon fill="#000000" stroke="#000000" points="426.8079,-27.5001 436.8079,-24 426.8079,-20.5001 426.8079,-27.5001"/>
<text text-anchor="middle" x="407.5" y="-27.4" font-family="Helvetica,sans-Serif" font-size="12.00" fill="#000000">type</text>
</g>
<!-- Types -->
<g id="node2" class="node">
<title>Types</title>
<text text-anchor="start" x="2.5" y="-21.4" font-family="Helvetica,sans-Serif" font-weight="bold" font-size="12.00" fill="#000000">Types</text>
<g id="a_node2_1"><a xlink:href="../../hs/SchoolStudentAssociationType/#diagram" xlink:title="A data type for an association between a student and a school attended." target="_top">
<polygon fill="#ebebeb" stroke="transparent" points="1.5,-1 1.5,-16 186.5,-16 186.5,-1 1.5,-1"/>
<text text-anchor="start" x="2.5" y="-5.4" font-family="Helvetica,sans-Serif" font-size="12.00" fill="#000000">hs:SchoolStudentAssociationType</text>
</a>
</g>
<polygon fill="#000000" stroke="#000000" points=".5,-16 .5,-16 187.5,-16 187.5,-16 .5,-16"/>
<polygon fill="none" stroke="#000000" points="0,0 0,-32 187,-32 187,0 0,0"/>
</g>
<!-- Types&#45;&gt;hs:SchoolSchedule -->
<g id="edge1" class="edge">
<title>Types:top&#45;&gt;hs:SchoolSchedule</title>
<path fill="none" stroke="#000000" d="M186.5,-24C204.9955,-24 224.9768,-24 243.5792,-24"/>
<polygon fill="#000000" stroke="#000000" points="243.7537,-27.5001 253.7537,-24 243.7537,-20.5001 243.7537,-27.5001"/>
<text text-anchor="middle" x="220.5" y="-27.4" font-family="Helvetica,sans-Serif" font-size="12.00" fill="#000000">has&#45;a</text>
</g>
</g>
</svg>
