<?xml version="1.0" encoding="UTF-8" standalone="no"?>
<!DOCTYPE svg PUBLIC "-//W3C//DTD SVG 1.1//EN"
 "http://www.w3.org/Graphics/SVG/1.1/DTD/svg11.dtd">
<!-- Generated by graphviz version 2.40.1 (20161225.0304)
 -->
<!-- Title: graphic Pages: 1 -->
<svg width="436pt" height="154pt"
 viewBox="0.00 0.00 436.00 153.50" xmlns="http://www.w3.org/2000/svg" xmlns:xlink="http://www.w3.org/1999/xlink">
<g id="graph0" class="graph" transform="scale(1 1) rotate(0) translate(4 149.5)">
<title>graphic</title>
<polygon fill="#ffffff" stroke="transparent" points="-4,4 -4,-149.5 432,-149.5 432,4 -4,4"/>
<!-- biom:CBEFFCategoryCodeType -->
<g id="node1" class="node">
<title>biom:CBEFFCategoryCodeType</title>
<text text-anchor="start" x="216" y="-25.4" font-family="Helvetica,sans-Serif" font-weight="bold" font-size="12.00" fill="#000000">biom:CBEFFCategoryCodeType</text>
<g id="a_node1_0"><a xlink:href="../../structures/SimpleObjectAttributeGroup/#diagram" xlink:title="A group of attributes that are applicable to objects, to be used when defining a complex type that is an extension of a simple type." target="_top">
<polygon fill="#ebebeb" stroke="transparent" points="215,-5 215,-20 423,-20 423,-5 215,-5"/>
<text text-anchor="start" x="216" y="-9.4" font-family="Helvetica,sans-Serif" font-size="12.00" fill="#000000">structures:SimpleObjectAttributeGroup</text>
</a>
</g>
<polygon fill="#ff0000" stroke="#ff0000" points="210,-20 210,-20 428,-20 428,-20 210,-20"/>
<polygon fill="none" stroke="#ff0000" stroke-width="5" points="212.5,-2.5 212.5,-37.5 425.5,-37.5 425.5,-2.5 212.5,-2.5"/>
</g>
<!-- Properties -->
<g id="node2" class="node">
<title>Properties</title>
<text text-anchor="start" x="2.5" y="-25.4" font-family="Helvetica,sans-Serif" font-weight="bold" font-size="12.00" fill="#000000">Properties</text>
<g id="a_node2_1"><a xlink:href="../../biom/CBEFFCategoryCode/#diagram" xlink:title="A kind of biometric modality as described by CBEFF" target="_top">
<polygon fill="#ebebeb" stroke="transparent" points="1.5,-5 1.5,-20 150.5,-20 150.5,-5 1.5,-5"/>
<text text-anchor="start" x="2.5" y="-9.4" font-family="Helvetica,sans-Serif" font-size="12.00" fill="#000000">biom:CBEFFCategoryCode</text>
</a>
</g>
<polygon fill="#000000" stroke="#000000" points=".5,-20 .5,-20 151.5,-20 151.5,-20 .5,-20"/>
<polygon fill="none" stroke="#000000" points="0,-4 0,-36 151,-36 151,-4 0,-4"/>
</g>
<!-- Properties&#45;&gt;biom:CBEFFCategoryCodeType -->
<g id="edge1" class="edge">
<title>Properties:top&#45;&gt;biom:CBEFFCategoryCodeType:top</title>
<path fill="none" stroke="#000000" d="M150.5,-28C175.4714,-28 184.1284,-28 204.8937,-28"/>
<polygon fill="#000000" stroke="#000000" points="205,-31.5001 215,-28 205,-24.5001 205,-31.5001"/>
<text text-anchor="middle" x="180.5" y="-31.4" font-family="Helvetica,sans-Serif" font-size="12.00" fill="#000000">type</text>
</g>
<!-- biom:CBEFFCategoryCodeSimpleType -->
<g id="node3" class="node">
<title>biom:CBEFFCategoryCodeSimpleType</title>
<g id="a_node3_2"><a xlink:href="../../biom/CBEFFCategoryCodeSimpleType/#diagram" xlink:title="A data type for a code for describing a biometric modality defined by CBEFF" target="_top">
<text text-anchor="start" x="214" y="-80.4" font-family="Helvetica,sans-Serif" font-size="12.00" fill="#000000">biom:CBEFFCategoryCodeSimpleType</text>
</a>
</g>
<polygon fill="none" stroke="#000000" points="212,-75.5 212,-92.5 426,-92.5 426,-75.5 212,-75.5"/>
</g>
<!-- biom:CBEFFCategoryCodeSimpleType&#45;&gt;biom:CBEFFCategoryCodeType -->
<g id="edge2" class="edge">
<title>biom:CBEFFCategoryCodeSimpleType&#45;&gt;biom:CBEFFCategoryCodeType</title>
<path fill="none" stroke="#000000" d="M319,-75.4351C319,-68.931 319,-59.5678 319,-50.3827"/>
<polygon fill="#000000" stroke="#000000" points="322.5001,-50.25 319,-40.25 315.5001,-50.25 322.5001,-50.25"/>
<text text-anchor="middle" x="309.5" y="-54.65" font-family="Helvetica,sans-Serif" font-size="12.00" fill="#000000">extension</text>
</g>
<!-- xs:hexBinary -->
<g id="node4" class="node">
<title>xs:hexBinary</title>
<g id="a_node4_3"><a xlink:href="../../xs/hexBinary/#diagram" xlink:title="&lt;TABLE&gt;" target="_top">
<text text-anchor="start" x="285" y="-133.4" font-family="Helvetica,sans-Serif" font-size="12.00" fill="#000000">xs:hexBinary</text>
</a>
</g>
<polygon fill="none" stroke="#000000" points="282.5,-128.5 282.5,-145.5 355.5,-145.5 355.5,-128.5 282.5,-128.5"/>
</g>
<!-- xs:hexBinary&#45;&gt;biom:CBEFFCategoryCodeSimpleType -->
<g id="edge3" class="edge">
<title>xs:hexBinary&#45;&gt;biom:CBEFFCategoryCodeSimpleType</title>
<path fill="none" stroke="#000000" d="M319,-128.411C319,-121.5124 319,-111.5696 319,-102.84"/>
<polygon fill="#000000" stroke="#000000" points="322.5001,-102.7518 319,-92.7519 315.5001,-102.7519 322.5001,-102.7518"/>
<text text-anchor="middle" x="309.5" y="-107.4" font-family="Helvetica,sans-Serif" font-size="12.00" fill="#000000">restriction</text>
</g>
</g>
</svg>
