<?xml version="1.0" encoding="UTF-8" standalone="no"?>
<!DOCTYPE svg PUBLIC "-//W3C//DTD SVG 1.1//EN"
 "http://www.w3.org/Graphics/SVG/1.1/DTD/svg11.dtd">
<!-- Generated by graphviz version 2.40.1 (20161225.0304)
 -->
<!-- Title: graphic Pages: 1 -->
<svg width="596pt" height="45pt"
 viewBox="0.00 0.00 596.00 45.00" xmlns="http://www.w3.org/2000/svg" xmlns:xlink="http://www.w3.org/1999/xlink">
<g id="graph0" class="graph" transform="scale(1 1) rotate(0) translate(4 41)">
<title>graphic</title>
<polygon fill="#ffffff" stroke="transparent" points="-4,4 -4,-41 592,-41 592,4 -4,4"/>
<!-- em:IsStateLCRIndicator -->
<g id="node1" class="node">
<title>em:IsStateLCRIndicator</title>
<text text-anchor="start" x="293.5" y="-21.4" font-family="Helvetica,sans-Serif" font-weight="bold" font-size="12.00" fill="#000000">em:IsStateLCRIndicator</text>
<polygon fill="none" stroke="#ff0000" stroke-width="5" points="289.5,-14 289.5,-34 433.5,-34 433.5,-14 289.5,-14"/>
</g>
<!-- niem&#45;xs:boolean -->
<g id="node3" class="node">
<title>niem&#45;xs:boolean</title>
<g id="a_node3_0"><a xlink:href="../../niem-xs/boolean/#diagram" xlink:title="A data type for binary&#45;valued logic (true/false)." target="_top">
<text text-anchor="start" x="497.5" y="-20.4" font-family="Helvetica,sans-Serif" font-size="12.00" fill="#000000">niem&#45;xs:boolean</text>
</a>
</g>
<polygon fill="none" stroke="#000000" points="495,-15.5 495,-32.5 588,-32.5 588,-15.5 495,-15.5"/>
</g>
<!-- em:IsStateLCRIndicator&#45;&gt;niem&#45;xs:boolean -->
<g id="edge2" class="edge">
<title>em:IsStateLCRIndicator&#45;&gt;niem&#45;xs:boolean</title>
<path fill="none" stroke="#000000" d="M436.0122,-24C452.2002,-24 469.0775,-24 484.4634,-24"/>
<polygon fill="#000000" stroke="#000000" points="484.8502,-27.5001 494.8501,-24 484.8501,-20.5001 484.8502,-27.5001"/>
<text text-anchor="middle" x="465.5" y="-27.4" font-family="Helvetica,sans-Serif" font-size="12.00" fill="#000000">type</text>
</g>
<!-- Types -->
<g id="node2" class="node">
<title>Types</title>
<text text-anchor="start" x="2" y="-21.4" font-family="Helvetica,sans-Serif" font-weight="bold" font-size="12.00" fill="#000000">Types</text>
<g id="a_node2_1"><a xlink:href="../../em/LicenseCertificationRegistrationType/#diagram" xlink:title="A data type for a credential class that represents Licensing" target="_top">
<polygon fill="#ebebeb" stroke="transparent" points="1,-1 1,-16 219,-16 219,-1 1,-1"/>
<text text-anchor="start" x="2" y="-5.4" font-family="Helvetica,sans-Serif" font-size="12.00" fill="#000000">em:LicenseCertificationRegistrationType</text>
</a>
</g>
<polygon fill="#000000" stroke="#000000" points="0,-16 0,-16 220,-16 220,-16 0,-16"/>
<polygon fill="none" stroke="#000000" points="0,0 0,-32 220,-32 220,0 0,0"/>
</g>
<!-- Types&#45;&gt;em:IsStateLCRIndicator -->
<g id="edge1" class="edge">
<title>Types:top&#45;&gt;em:IsStateLCRIndicator</title>
<path fill="none" stroke="#000000" d="M219,-24C237.6639,-24 257.7028,-24 276.6855,-24"/>
<polygon fill="#000000" stroke="#000000" points="276.804,-27.5001 286.8039,-24 276.8039,-20.5001 276.804,-27.5001"/>
<text text-anchor="middle" x="253.5" y="-27.4" font-family="Helvetica,sans-Serif" font-size="12.00" fill="#000000">has&#45;a</text>
</g>
</g>
</svg>
