<?xml version="1.0" encoding="UTF-8" standalone="no"?>
<!DOCTYPE svg PUBLIC "-//W3C//DTD SVG 1.1//EN"
 "http://www.w3.org/Graphics/SVG/1.1/DTD/svg11.dtd">
<!-- Generated by graphviz version 2.40.1 (20161225.0304)
 -->
<!-- Title: graphic Pages: 1 -->
<svg width="593pt" height="45pt"
 viewBox="0.00 0.00 593.00 45.00" xmlns="http://www.w3.org/2000/svg" xmlns:xlink="http://www.w3.org/1999/xlink">
<g id="graph0" class="graph" transform="scale(1 1) rotate(0) translate(4 41)">
<title>graphic</title>
<polygon fill="#ffffff" stroke="transparent" points="-4,4 -4,-41 589,-41 589,4 -4,4"/>
<!-- em:ItemBudgetedAmount -->
<g id="node1" class="node">
<title>em:ItemBudgetedAmount</title>
<text text-anchor="start" x="284.5" y="-21.4" font-family="Helvetica,sans-Serif" font-weight="bold" font-size="12.00" fill="#000000">em:ItemBudgetedAmount</text>
<polygon fill="none" stroke="#ff0000" stroke-width="5" points="280.5,-14 280.5,-34 434.5,-34 434.5,-14 280.5,-14"/>
</g>
<!-- nc:AmountType -->
<g id="node3" class="node">
<title>nc:AmountType</title>
<g id="a_node3_0"><a xlink:href="../../nc/AmountType/#diagram" xlink:title="A data type for an amount of money." target="_top">
<text text-anchor="start" x="498.5" y="-20.4" font-family="Helvetica,sans-Serif" font-size="12.00" fill="#000000">nc:AmountType</text>
</a>
</g>
<polygon fill="none" stroke="#000000" points="496,-15.5 496,-32.5 585,-32.5 585,-15.5 496,-15.5"/>
</g>
<!-- em:ItemBudgetedAmount&#45;&gt;nc:AmountType -->
<g id="edge2" class="edge">
<title>em:ItemBudgetedAmount&#45;&gt;nc:AmountType</title>
<path fill="none" stroke="#000000" d="M437.2341,-24C453.5901,-24 470.4561,-24 485.6946,-24"/>
<polygon fill="#000000" stroke="#000000" points="485.9581,-27.5001 495.958,-24 485.958,-20.5001 485.9581,-27.5001"/>
<text text-anchor="middle" x="466.5" y="-27.4" font-family="Helvetica,sans-Serif" font-size="12.00" fill="#000000">type</text>
</g>
<!-- Types -->
<g id="node2" class="node">
<title>Types</title>
<text text-anchor="start" x="2.5" y="-21.4" font-family="Helvetica,sans-Serif" font-weight="bold" font-size="12.00" fill="#000000">Types</text>
<g id="a_node2_1"><a xlink:href="../../em/ItemTransactionAugmentationType/#diagram" xlink:title="A data type for additional information about an item transaction." target="_top">
<polygon fill="#ebebeb" stroke="transparent" points="1.5,-1 1.5,-16 210.5,-16 210.5,-1 1.5,-1"/>
<text text-anchor="start" x="2.5" y="-5.4" font-family="Helvetica,sans-Serif" font-size="12.00" fill="#000000">em:ItemTransactionAugmentationType</text>
</a>
</g>
<polygon fill="#000000" stroke="#000000" points=".5,-16 .5,-16 211.5,-16 211.5,-16 .5,-16"/>
<polygon fill="none" stroke="#000000" points="0,0 0,-32 211,-32 211,0 0,0"/>
</g>
<!-- Types&#45;&gt;em:ItemBudgetedAmount -->
<g id="edge1" class="edge">
<title>Types:top&#45;&gt;em:ItemBudgetedAmount</title>
<path fill="none" stroke="#000000" d="M210.5,-24C228.9961,-24 248.8013,-24 267.692,-24"/>
<polygon fill="#000000" stroke="#000000" points="267.7758,-27.5001 277.7757,-24 267.7757,-20.5001 267.7758,-27.5001"/>
<text text-anchor="middle" x="244.5" y="-27.4" font-family="Helvetica,sans-Serif" font-size="12.00" fill="#000000">has&#45;a</text>
</g>
</g>
</svg>
