<?xml version="1.0" encoding="UTF-8" standalone="no"?>
<!DOCTYPE svg PUBLIC "-//W3C//DTD SVG 1.1//EN"
 "http://www.w3.org/Graphics/SVG/1.1/DTD/svg11.dtd">
<!-- Generated by graphviz version 2.40.1 (20161225.0304)
 -->
<!-- Title: graphic Pages: 1 -->
<svg width="983pt" height="179pt"
 viewBox="0.00 0.00 983.00 178.50" xmlns="http://www.w3.org/2000/svg" xmlns:xlink="http://www.w3.org/1999/xlink">
<g id="graph0" class="graph" transform="scale(1 1) rotate(0) translate(4 174.5)">
<title>graphic</title>
<polygon fill="#ffffff" stroke="transparent" points="-4,4 -4,-174.5 979,-174.5 979,4 -4,4"/>
<!-- j:ToothAugmentationType -->
<g id="node1" class="node">
<title>j:ToothAugmentationType</title>
<text text-anchor="start" x="180" y="-102.4" font-family="Helvetica,sans-Serif" font-weight="bold" font-size="12.00" fill="#000000">j:ToothAugmentationType</text>
<g id="a_node1_0"><a xlink:href="../../j/PersonDentalCharacteristicOtherAbstract/#diagram" xlink:title="A data concept for a person&#39;s other dental characteristics." target="_top">
<polygon fill="#ebebeb" stroke="transparent" points="179,-82 179,-97 501,-97 501,-82 179,-82"/>
<text text-anchor="start" x="180" y="-86.4" font-family="Helvetica,sans-Serif" font-size="12.00" fill="#000000">j:PersonDentalCharacteristicOtherAbstract [0&#45;n]</text>
</a>
</g>
<g id="a_node1_1"><a xlink:href="../../j/PersonDentalCharacteristicRestorationCariesAbstract/#diagram" xlink:title="A data concept for a person&#39;s dental restoration or caries." target="_top">
<text text-anchor="start" x="180" y="-71.4" font-family="Helvetica,sans-Serif" font-size="12.00" fill="#000000">j:PersonDentalCharacteristicRestorationCariesAbstract [0&#45;n]</text>
</a>
</g>
<g id="a_node1_2"><a xlink:href="../../j/PersonDentalCharacteristicStatusAbstract/#diagram" xlink:title="A data concept for a status of a person&#39;s dental characteristics." target="_top">
<polygon fill="#ebebeb" stroke="transparent" points="179,-52 179,-67 501,-67 501,-52 179,-52"/>
<text text-anchor="start" x="180" y="-56.4" font-family="Helvetica,sans-Serif" font-size="12.00" fill="#000000">j:PersonDentalCharacteristicStatusAbstract [0&#45;n]</text>
</a>
</g>
<g id="a_node1_3"><a xlink:href="../../j/PersonDentalCharacteristicText/#diagram" xlink:title="A visible problem or characteristic of a person&#39;s teeth." target="_top">
<text text-anchor="start" x="180" y="-41.4" font-family="Helvetica,sans-Serif" font-size="12.00" fill="#000000">j:PersonDentalCharacteristicText: nc:TextType [0&#45;n]</text>
</a>
</g>
<polygon fill="#ff0000" stroke="#ff0000" points="174,-97 174,-97 506,-97 506,-97 174,-97"/>
<polygon fill="none" stroke="#ff0000" stroke-width="5" points="176.5,-35 176.5,-115 503.5,-115 503.5,-35 176.5,-35"/>
</g>
<!-- subst_d9e40386 -->
<g id="node2" class="node">
<title>subst_d9e40386</title>
<g id="a_node2_4"><a xlink:href="../../j/PersonDentalCharacteristicOtherAbstract/#diagram" xlink:title="&lt;TABLE&gt;" target="_top">
<text text-anchor="start" x="581" y="-121.4" font-family="Helvetica,sans-Serif" font-weight="bold" font-size="12.00" fill="#000000">Substitution group j:PersonDentalCharacteristicOtherAbstract</text>
</a>
</g>
<g id="a_node2_5"><a xlink:href="../../j/PersonDentalCharacteristicOtherText/#diagram" xlink:title="A person&#39;s other dental characteristics." target="_top">
<polygon fill="#ebebeb" stroke="transparent" points="580,-101 580,-116 939,-116 939,-101 580,-101"/>
<text text-anchor="start" x="581" y="-105.4" font-family="Helvetica,sans-Serif" font-size="12.00" fill="#000000">j:PersonDentalCharacteristicOtherText: nc:TextType</text>
</a>
</g>
<polygon fill="#000000" stroke="#000000" points="579,-116 579,-116 940,-116 940,-116 579,-116"/>
<polygon fill="none" stroke="#000000" points="578.5,-100 578.5,-132 939.5,-132 939.5,-100 578.5,-100"/>
</g>
<!-- j:ToothAugmentationType&#45;&gt;subst_d9e40386 -->
<g id="edge1" class="edge">
<title>j:ToothAugmentationType:e&#45;&gt;subst_d9e40386:w</title>
<path fill="none" stroke="#000000" d="M511.2445,-90.9094C540.0631,-96.3164 545.5081,-124 580,-124"/>
<polygon fill="#000000" stroke="#000000" points="511.2703,-87.398 501,-90 510.6513,-94.3706 511.2703,-87.398"/>
</g>
<!-- subst_d9e40419 -->
<g id="node3" class="node">
<title>subst_d9e40419</title>
<g id="a_node3_6"><a xlink:href="../../j/PersonDentalCharacteristicRestorationCariesAbstract/#diagram" xlink:title="&lt;TABLE&gt;" target="_top">
<text text-anchor="start" x="545" y="-71.4" font-family="Helvetica,sans-Serif" font-weight="bold" font-size="12.00" fill="#000000">Substitution group j:PersonDentalCharacteristicRestorationCariesAbstract</text>
</a>
</g>
<g id="a_node3_7"><a xlink:href="../../j/PersonDentalCharacteristicRestorationCariesText/#diagram" xlink:title="A person&#39;s dental restoration or caries." target="_top">
<polygon fill="#ebebeb" stroke="transparent" points="544,-51 544,-66 974,-66 974,-51 544,-51"/>
<text text-anchor="start" x="545" y="-55.4" font-family="Helvetica,sans-Serif" font-size="12.00" fill="#000000">j:PersonDentalCharacteristicRestorationCariesText: nc:TextType</text>
</a>
</g>
<polygon fill="#000000" stroke="#000000" points="543,-66 543,-66 975,-66 975,-66 543,-66"/>
<polygon fill="none" stroke="#000000" points="543,-50 543,-82 975,-82 975,-50 543,-50"/>
</g>
<!-- j:ToothAugmentationType&#45;&gt;subst_d9e40419 -->
<g id="edge2" class="edge">
<title>j:ToothAugmentationType:e&#45;&gt;subst_d9e40419:w</title>
<path fill="none" stroke="#000000" d="M511.1119,-74C522.6435,-74 528.7708,-74 544,-74"/>
<polygon fill="#000000" stroke="#000000" points="511,-70.5001 501,-74 511,-77.5001 511,-70.5001"/>
</g>
<!-- subst_d9e40435 -->
<g id="node4" class="node">
<title>subst_d9e40435</title>
<g id="a_node4_8"><a xlink:href="../../j/PersonDentalCharacteristicStatusAbstract/#diagram" xlink:title="&lt;TABLE&gt;" target="_top">
<text text-anchor="start" x="579" y="-21.4" font-family="Helvetica,sans-Serif" font-weight="bold" font-size="12.00" fill="#000000">Substitution group j:PersonDentalCharacteristicStatusAbstract</text>
</a>
</g>
<g id="a_node4_9"><a xlink:href="../../j/PersonDentalCharacteristicStatusText/#diagram" xlink:title="A status of a person&#39;s dental characteristics." target="_top">
<polygon fill="#ebebeb" stroke="transparent" points="578,-1 578,-16 941,-16 941,-1 578,-1"/>
<text text-anchor="start" x="579" y="-5.4" font-family="Helvetica,sans-Serif" font-size="12.00" fill="#000000">j:PersonDentalCharacteristicStatusText: nc:TextType</text>
</a>
</g>
<polygon fill="#000000" stroke="#000000" points="577,-16 577,-16 942,-16 942,-16 577,-16"/>
<polygon fill="none" stroke="#000000" points="576.5,0 576.5,-32 941.5,-32 941.5,0 576.5,0"/>
</g>
<!-- j:ToothAugmentationType&#45;&gt;subst_d9e40435 -->
<g id="edge3" class="edge">
<title>j:ToothAugmentationType:e&#45;&gt;subst_d9e40435:w</title>
<path fill="none" stroke="#000000" d="M511.0563,-58.0638C539.2877,-52.4978 544.0794,-24 578,-24"/>
<polygon fill="#000000" stroke="#000000" points="510.6325,-54.5881 501,-59 511.2814,-61.5579 510.6325,-54.5881"/>
</g>
<!-- Properties -->
<g id="node5" class="node">
<title>Properties</title>
<text text-anchor="start" x="2.5" y="-102.4" font-family="Helvetica,sans-Serif" font-weight="bold" font-size="12.00" fill="#000000">Properties</text>
<g id="a_node5_10"><a xlink:href="../../j/ToothAugmentation/#diagram" xlink:title="Additional information about a tooth." target="_top">
<polygon fill="#ebebeb" stroke="transparent" points="1.5,-82 1.5,-97 114.5,-97 114.5,-82 1.5,-82"/>
<text text-anchor="start" x="2.5" y="-86.4" font-family="Helvetica,sans-Serif" font-size="12.00" fill="#000000">j:ToothAugmentation</text>
</a>
</g>
<polygon fill="#000000" stroke="#000000" points=".5,-97 .5,-97 115.5,-97 115.5,-97 .5,-97"/>
<polygon fill="none" stroke="#000000" points="0,-81 0,-113 115,-113 115,-81 0,-81"/>
</g>
<!-- Properties&#45;&gt;j:ToothAugmentationType -->
<g id="edge4" class="edge">
<title>Properties:top&#45;&gt;j:ToothAugmentationType:top</title>
<path fill="none" stroke="#000000" d="M114.5,-105C139.4714,-105 148.1284,-105 168.8937,-105"/>
<polygon fill="#000000" stroke="#000000" points="169,-108.5001 179,-105 169,-101.5001 169,-108.5001"/>
<text text-anchor="middle" x="144.5" y="-108.4" font-family="Helvetica,sans-Serif" font-size="12.00" fill="#000000">type</text>
</g>
<!-- structures:AugmentationType -->
<g id="node6" class="node">
<title>structures:AugmentationType</title>
<g id="a_node6_11"><a xlink:href="../../structures/AugmentationType/#diagram" xlink:title="A data type for a set of properties to be applied to a base type." target="_top">
<text text-anchor="start" x="262" y="-158.4" font-family="Helvetica,sans-Serif" font-size="12.00" fill="#000000">structures:AugmentationType</text>
</a>
</g>
<polygon fill="none" stroke="#000000" points="259.5,-153.5 259.5,-170.5 420.5,-170.5 420.5,-153.5 259.5,-153.5"/>
</g>
<!-- structures:AugmentationType&#45;&gt;j:ToothAugmentationType -->
<g id="edge5" class="edge">
<title>structures:AugmentationType&#45;&gt;j:ToothAugmentationType</title>
<path fill="none" stroke="#000000" d="M340,-153.4761C340,-147.114 340,-137.8292 340,-127.8557"/>
<polygon fill="#000000" stroke="#000000" points="343.5001,-127.7354 340,-117.7354 336.5001,-127.7354 343.5001,-127.7354"/>
<text text-anchor="middle" x="330.5" y="-132.4" font-family="Helvetica,sans-Serif" font-size="12.00" fill="#000000">extension</text>
</g>
</g>
</svg>
