<?xml version="1.0" encoding="UTF-8" standalone="no"?>
<!DOCTYPE svg PUBLIC "-//W3C//DTD SVG 1.1//EN"
 "http://www.w3.org/Graphics/SVG/1.1/DTD/svg11.dtd">
<!-- Generated by graphviz version 2.40.1 (20161225.0304)
 -->
<!-- Title: graphic Pages: 1 -->
<svg width="545pt" height="45pt"
 viewBox="0.00 0.00 545.00 45.00" xmlns="http://www.w3.org/2000/svg" xmlns:xlink="http://www.w3.org/1999/xlink">
<g id="graph0" class="graph" transform="scale(1 1) rotate(0) translate(4 41)">
<title>graphic</title>
<polygon fill="#ffffff" stroke="transparent" points="-4,4 -4,-41 541,-41 541,4 -4,4"/>
<!-- hs:ProgramEligibleEndDate -->
<g id="node1" class="node">
<title>hs:ProgramEligibleEndDate</title>
<text text-anchor="start" x="240.5" y="-21.4" font-family="Helvetica,sans-Serif" font-weight="bold" font-size="12.00" fill="#000000">hs:ProgramEligibleEndDate</text>
<polygon fill="none" stroke="#ff0000" stroke-width="5" points="236.5,-14 236.5,-34 402.5,-34 402.5,-14 236.5,-14"/>
</g>
<!-- nc:DateType -->
<g id="node3" class="node">
<title>nc:DateType</title>
<g id="a_node3_0"><a xlink:href="../../nc/DateType/#diagram" xlink:title="A data type for a calendar date." target="_top">
<text text-anchor="start" x="466.5" y="-20.4" font-family="Helvetica,sans-Serif" font-size="12.00" fill="#000000">nc:DateType</text>
</a>
</g>
<polygon fill="none" stroke="#000000" points="464,-15.5 464,-32.5 537,-32.5 537,-15.5 464,-15.5"/>
</g>
<!-- hs:ProgramEligibleEndDate&#45;&gt;nc:DateType -->
<g id="edge2" class="edge">
<title>hs:ProgramEligibleEndDate&#45;&gt;nc:DateType</title>
<path fill="none" stroke="#000000" d="M405.2295,-24C421.8465,-24 438.6786,-24 453.4765,-24"/>
<polygon fill="#000000" stroke="#000000" points="453.8601,-27.5001 463.86,-24 453.86,-20.5001 453.8601,-27.5001"/>
<text text-anchor="middle" x="434.5" y="-27.4" font-family="Helvetica,sans-Serif" font-size="12.00" fill="#000000">type</text>
</g>
<!-- Types -->
<g id="node2" class="node">
<title>Types</title>
<text text-anchor="start" x="2.5" y="-21.4" font-family="Helvetica,sans-Serif" font-weight="bold" font-size="12.00" fill="#000000">Types</text>
<g id="a_node2_1"><a xlink:href="../../hs/ProgramAugmentationType/#diagram" xlink:title="A data type for additional information about a program." target="_top">
<polygon fill="#ebebeb" stroke="transparent" points="1.5,-1 1.5,-16 166.5,-16 166.5,-1 1.5,-1"/>
<text text-anchor="start" x="2.5" y="-5.4" font-family="Helvetica,sans-Serif" font-size="12.00" fill="#000000">hs:ProgramAugmentationType</text>
</a>
</g>
<polygon fill="#000000" stroke="#000000" points=".5,-16 .5,-16 167.5,-16 167.5,-16 .5,-16"/>
<polygon fill="none" stroke="#000000" points="0,0 0,-32 167,-32 167,0 0,0"/>
</g>
<!-- Types&#45;&gt;hs:ProgramEligibleEndDate -->
<g id="edge1" class="edge">
<title>Types:top&#45;&gt;hs:ProgramEligibleEndDate</title>
<path fill="none" stroke="#000000" d="M166.5,-24C184.963,-24 204.6793,-24 223.6071,-24"/>
<polygon fill="#000000" stroke="#000000" points="223.7243,-27.5001 233.7242,-24 223.7242,-20.5001 223.7243,-27.5001"/>
<text text-anchor="middle" x="200.5" y="-27.4" font-family="Helvetica,sans-Serif" font-size="12.00" fill="#000000">has&#45;a</text>
</g>
</g>
</svg>
