<?xml version="1.0" encoding="UTF-8" standalone="no"?>
<!DOCTYPE svg PUBLIC "-//W3C//DTD SVG 1.1//EN"
 "http://www.w3.org/Graphics/SVG/1.1/DTD/svg11.dtd">
<!-- Generated by graphviz version 2.40.1 (20161225.0304)
 -->
<!-- Title: graphic Pages: 1 -->
<svg width="403pt" height="45pt"
 viewBox="0.00 0.00 403.00 45.00" xmlns="http://www.w3.org/2000/svg" xmlns:xlink="http://www.w3.org/1999/xlink">
<g id="graph0" class="graph" transform="scale(1 1) rotate(0) translate(4 41)">
<title>graphic</title>
<polygon fill="#ffffff" stroke="transparent" points="-4,4 -4,-41 399,-41 399,4 -4,4"/>
<!-- j:SubjectBooking -->
<g id="node1" class="node">
<title>j:SubjectBooking</title>
<text text-anchor="start" x="150.5" y="-21.4" font-family="Helvetica,sans-Serif" font-weight="bold" font-size="12.00" fill="#000000">j:SubjectBooking</text>
<polygon fill="none" stroke="#ff0000" stroke-width="5" points="146.5,-14 146.5,-34 252.5,-34 252.5,-14 146.5,-14"/>
</g>
<!-- j:BookingType -->
<g id="node3" class="node">
<title>j:BookingType</title>
<g id="a_node3_0"><a xlink:href="../../j/BookingType/#diagram" xlink:title="A data type for an administrative step taken after an arrest subject is brought to a police station or detention facility." target="_top">
<text text-anchor="start" x="316.5" y="-20.4" font-family="Helvetica,sans-Serif" font-size="12.00" fill="#000000">j:BookingType</text>
</a>
</g>
<polygon fill="none" stroke="#000000" points="314,-15.5 314,-32.5 395,-32.5 395,-15.5 314,-15.5"/>
</g>
<!-- j:SubjectBooking&#45;&gt;j:BookingType -->
<g id="edge2" class="edge">
<title>j:SubjectBooking&#45;&gt;j:BookingType</title>
<path fill="none" stroke="#000000" d="M255.0208,-24C270.9825,-24 288.3002,-24 303.9447,-24"/>
<polygon fill="#000000" stroke="#000000" points="303.9528,-27.5001 313.9527,-24 303.9527,-20.5001 303.9528,-27.5001"/>
<text text-anchor="middle" x="284.5" y="-27.4" font-family="Helvetica,sans-Serif" font-size="12.00" fill="#000000">type</text>
</g>
<!-- Types -->
<g id="node2" class="node">
<title>Types</title>
<text text-anchor="start" x="2.5" y="-21.4" font-family="Helvetica,sans-Serif" font-weight="bold" font-size="12.00" fill="#000000">Types</text>
<g id="a_node2_1"><a xlink:href="../../j/SubjectType/#diagram" xlink:title="A data type for a person or organization that is involved or suspected of being involved in a violation of a criminal statute, ordinance or rule." target="_top">
<polygon fill="#ebebeb" stroke="transparent" points="1.5,-1 1.5,-16 76.5,-16 76.5,-1 1.5,-1"/>
<text text-anchor="start" x="2.5" y="-5.4" font-family="Helvetica,sans-Serif" font-size="12.00" fill="#000000">j:SubjectType</text>
</a>
</g>
<polygon fill="#000000" stroke="#000000" points=".5,-16 .5,-16 77.5,-16 77.5,-16 .5,-16"/>
<polygon fill="none" stroke="#000000" points="0,0 0,-32 77,-32 77,0 0,0"/>
</g>
<!-- Types&#45;&gt;j:SubjectBooking -->
<g id="edge1" class="edge">
<title>Types:top&#45;&gt;j:SubjectBooking</title>
<path fill="none" stroke="#000000" d="M76.5,-24C95.0581,-24 115.1912,-24 133.6913,-24"/>
<polygon fill="#000000" stroke="#000000" points="133.7807,-27.5001 143.7807,-24 133.7806,-20.5001 133.7807,-27.5001"/>
<text text-anchor="middle" x="110.5" y="-27.4" font-family="Helvetica,sans-Serif" font-size="12.00" fill="#000000">has&#45;a</text>
</g>
</g>
</svg>
