<?xml version="1.0" encoding="UTF-8" standalone="no"?>
<!DOCTYPE svg PUBLIC "-//W3C//DTD SVG 1.1//EN"
 "http://www.w3.org/Graphics/SVG/1.1/DTD/svg11.dtd">
<!-- Generated by graphviz version 2.40.1 (20161225.0304)
 -->
<!-- Title: graphic Pages: 1 -->
<svg width="664pt" height="45pt"
 viewBox="0.00 0.00 664.00 45.00" xmlns="http://www.w3.org/2000/svg" xmlns:xlink="http://www.w3.org/1999/xlink">
<g id="graph0" class="graph" transform="scale(1 1) rotate(0) translate(4 41)">
<title>graphic</title>
<polygon fill="#ffffff" stroke="transparent" points="-4,4 -4,-41 660,-41 660,4 -4,4"/>
<!-- cbrn:AverageCountRateValue -->
<g id="node1" class="node">
<title>cbrn:AverageCountRateValue</title>
<text text-anchor="start" x="280.5" y="-21.4" font-family="Helvetica,sans-Serif" font-weight="bold" font-size="12.00" fill="#000000">cbrn:AverageCountRateValue</text>
<polygon fill="none" stroke="#ff0000" stroke-width="5" points="276.5,-14 276.5,-34 454.5,-34 454.5,-14 276.5,-14"/>
</g>
<!-- cbrn:CountRateCPSType -->
<g id="node3" class="node">
<title>cbrn:CountRateCPSType</title>
<g id="a_node3_0"><a xlink:href="../../cbrn/CountRateCPSType/#diagram" xlink:title="A data type for a radiation count rate measure whose value is positive and expressed in counts per second (cps) units." target="_top">
<text text-anchor="start" x="518" y="-20.4" font-family="Helvetica,sans-Serif" font-size="12.00" fill="#000000">cbrn:CountRateCPSType</text>
</a>
</g>
<polygon fill="none" stroke="#000000" points="516,-15.5 516,-32.5 656,-32.5 656,-15.5 516,-15.5"/>
</g>
<!-- cbrn:AverageCountRateValue&#45;&gt;cbrn:CountRateCPSType -->
<g id="edge2" class="edge">
<title>cbrn:AverageCountRateValue&#45;&gt;cbrn:CountRateCPSType</title>
<path fill="none" stroke="#000000" d="M457.0962,-24C473.2087,-24 489.8686,-24 505.6451,-24"/>
<polygon fill="#000000" stroke="#000000" points="505.8703,-27.5001 515.8702,-24 505.8702,-20.5001 505.8703,-27.5001"/>
<text text-anchor="middle" x="486.5" y="-27.4" font-family="Helvetica,sans-Serif" font-size="12.00" fill="#000000">type</text>
</g>
<!-- Types -->
<g id="node2" class="node">
<title>Types</title>
<text text-anchor="start" x="2.5" y="-21.4" font-family="Helvetica,sans-Serif" font-weight="bold" font-size="12.00" fill="#000000">Types</text>
<g id="a_node2_1"><a xlink:href="../../cbrn/GrossCountAnalysisResultsType/#diagram" xlink:title="A data type to provide information on the results of analysis of radiation gross count data." target="_top">
<polygon fill="#ebebeb" stroke="transparent" points="1.5,-1 1.5,-16 206.5,-16 206.5,-1 1.5,-1"/>
<text text-anchor="start" x="2.5" y="-5.4" font-family="Helvetica,sans-Serif" font-size="12.00" fill="#000000">cbrn:GrossCountAnalysisResultsType</text>
</a>
</g>
<polygon fill="#000000" stroke="#000000" points=".5,-16 .5,-16 207.5,-16 207.5,-16 .5,-16"/>
<polygon fill="none" stroke="#000000" points="0,0 0,-32 207,-32 207,0 0,0"/>
</g>
<!-- Types&#45;&gt;cbrn:AverageCountRateValue -->
<g id="edge1" class="edge">
<title>Types:top&#45;&gt;cbrn:AverageCountRateValue</title>
<path fill="none" stroke="#000000" d="M206.5,-24C224.9851,-24 244.679,-24 263.6845,-24"/>
<polygon fill="#000000" stroke="#000000" points="263.854,-27.5001 273.854,-24 263.854,-20.5001 263.854,-27.5001"/>
<text text-anchor="middle" x="240.5" y="-27.4" font-family="Helvetica,sans-Serif" font-size="12.00" fill="#000000">has&#45;a</text>
</g>
</g>
</svg>
