<?xml version="1.0" encoding="UTF-8" standalone="no"?>
<!DOCTYPE svg PUBLIC "-//W3C//DTD SVG 1.1//EN"
 "http://www.w3.org/Graphics/SVG/1.1/DTD/svg11.dtd">
<!-- Generated by graphviz version 2.40.1 (20161225.0304)
 -->
<!-- Title: graphic Pages: 1 -->
<svg width="546pt" height="45pt"
 viewBox="0.00 0.00 546.00 45.00" xmlns="http://www.w3.org/2000/svg" xmlns:xlink="http://www.w3.org/1999/xlink">
<g id="graph0" class="graph" transform="scale(1 1) rotate(0) translate(4 41)">
<title>graphic</title>
<polygon fill="#ffffff" stroke="transparent" points="-4,4 -4,-41 542,-41 542,4 -4,4"/>
<!-- em:CellSectorIDText -->
<g id="node1" class="node">
<title>em:CellSectorIDText</title>
<text text-anchor="start" x="284" y="-21.4" font-family="Helvetica,sans-Serif" font-weight="bold" font-size="12.00" fill="#000000">em:CellSectorIDText</text>
<polygon fill="none" stroke="#ff0000" stroke-width="5" points="280.5,-14 280.5,-34 405.5,-34 405.5,-14 280.5,-14"/>
</g>
<!-- nc:TextType -->
<g id="node3" class="node">
<title>nc:TextType</title>
<g id="a_node3_0"><a xlink:href="../../nc/TextType/#diagram" xlink:title="A data type for a character string." target="_top">
<text text-anchor="start" x="469.5" y="-20.4" font-family="Helvetica,sans-Serif" font-size="12.00" fill="#000000">nc:TextType</text>
</a>
</g>
<polygon fill="none" stroke="#000000" points="467,-15.5 467,-32.5 538,-32.5 538,-15.5 467,-15.5"/>
</g>
<!-- em:CellSectorIDText&#45;&gt;nc:TextType -->
<g id="edge2" class="edge">
<title>em:CellSectorIDText&#45;&gt;nc:TextType</title>
<path fill="none" stroke="#000000" d="M408.335,-24C424.5519,-24 441.5914,-24 456.6497,-24"/>
<polygon fill="#000000" stroke="#000000" points="456.7237,-27.5001 466.7237,-24 456.7237,-20.5001 456.7237,-27.5001"/>
<text text-anchor="middle" x="437.5" y="-27.4" font-family="Helvetica,sans-Serif" font-size="12.00" fill="#000000">type</text>
</g>
<!-- Types -->
<g id="node2" class="node">
<title>Types</title>
<text text-anchor="start" x="2.5" y="-21.4" font-family="Helvetica,sans-Serif" font-weight="bold" font-size="12.00" fill="#000000">Types</text>
<g id="a_node2_1"><a xlink:href="../../em/ServiceCallResponseLocationType/#diagram" xlink:title="A data type for a structure that extends nc:LocationType" target="_top">
<polygon fill="#ebebeb" stroke="transparent" points="1.5,-1 1.5,-16 210.5,-16 210.5,-1 1.5,-1"/>
<text text-anchor="start" x="2.5" y="-5.4" font-family="Helvetica,sans-Serif" font-size="12.00" fill="#000000">em:ServiceCallResponseLocationType</text>
</a>
</g>
<polygon fill="#000000" stroke="#000000" points=".5,-16 .5,-16 211.5,-16 211.5,-16 .5,-16"/>
<polygon fill="none" stroke="#000000" points="0,0 0,-32 211,-32 211,0 0,0"/>
</g>
<!-- Types&#45;&gt;em:CellSectorIDText -->
<g id="edge1" class="edge">
<title>Types:top&#45;&gt;em:CellSectorIDText</title>
<path fill="none" stroke="#000000" d="M210.5,-24C229.0358,-24 249.0301,-24 267.7284,-24"/>
<polygon fill="#000000" stroke="#000000" points="267.9656,-27.5001 277.9656,-24 267.9655,-20.5001 267.9656,-27.5001"/>
<text text-anchor="middle" x="244.5" y="-27.4" font-family="Helvetica,sans-Serif" font-size="12.00" fill="#000000">has&#45;a</text>
</g>
</g>
</svg>
