<?xml version="1.0" encoding="UTF-8" standalone="no"?>
<!DOCTYPE svg PUBLIC "-//W3C//DTD SVG 1.1//EN"
 "http://www.w3.org/Graphics/SVG/1.1/DTD/svg11.dtd">
<!-- Generated by graphviz version 2.40.1 (20161225.0304)
 -->
<!-- Title: graphic Pages: 1 -->
<svg width="489pt" height="45pt"
 viewBox="0.00 0.00 489.00 45.00" xmlns="http://www.w3.org/2000/svg" xmlns:xlink="http://www.w3.org/1999/xlink">
<g id="graph0" class="graph" transform="scale(1 1) rotate(0) translate(4 41)">
<title>graphic</title>
<polygon fill="#ffffff" stroke="transparent" points="-4,4 -4,-41 485,-41 485,4 -4,4"/>
<!-- nc:DocumentPublicationDate -->
<g id="node1" class="node">
<title>nc:DocumentPublicationDate</title>
<text text-anchor="start" x="175" y="-21.4" font-family="Helvetica,sans-Serif" font-weight="bold" font-size="12.00" fill="#000000">nc:DocumentPublicationDate</text>
<polygon fill="none" stroke="#ff0000" stroke-width="5" points="171.5,-14 171.5,-34 346.5,-34 346.5,-14 171.5,-14"/>
</g>
<!-- nc:DateType -->
<g id="node3" class="node">
<title>nc:DateType</title>
<g id="a_node3_0"><a xlink:href="../../nc/DateType/#diagram" xlink:title="A data type for a calendar date." target="_top">
<text text-anchor="start" x="410.5" y="-20.4" font-family="Helvetica,sans-Serif" font-size="12.00" fill="#000000">nc:DateType</text>
</a>
</g>
<polygon fill="none" stroke="#000000" points="408,-15.5 408,-32.5 481,-32.5 481,-15.5 408,-15.5"/>
</g>
<!-- nc:DocumentPublicationDate&#45;&gt;nc:DateType -->
<g id="edge2" class="edge">
<title>nc:DocumentPublicationDate&#45;&gt;nc:DateType</title>
<path fill="none" stroke="#000000" d="M349.0331,-24C365.8205,-24 382.7267,-24 397.5494,-24"/>
<polygon fill="#000000" stroke="#000000" points="397.9429,-27.5001 407.9429,-24 397.9428,-20.5001 397.9429,-27.5001"/>
<text text-anchor="middle" x="378.5" y="-27.4" font-family="Helvetica,sans-Serif" font-size="12.00" fill="#000000">type</text>
</g>
<!-- Types -->
<g id="node2" class="node">
<title>Types</title>
<text text-anchor="start" x="2" y="-21.4" font-family="Helvetica,sans-Serif" font-weight="bold" font-size="12.00" fill="#000000">Types</text>
<g id="a_node2_1"><a xlink:href="../../nc/DocumentType/#diagram" xlink:title="A data type for a paper or electronic document." target="_top">
<polygon fill="#ebebeb" stroke="transparent" points="1,-1 1,-16 101,-16 101,-1 1,-1"/>
<text text-anchor="start" x="2" y="-5.4" font-family="Helvetica,sans-Serif" font-size="12.00" fill="#000000">nc:DocumentType</text>
</a>
</g>
<polygon fill="#000000" stroke="#000000" points="0,-16 0,-16 102,-16 102,-16 0,-16"/>
<polygon fill="none" stroke="#000000" points="0,0 0,-32 102,-32 102,0 0,0"/>
</g>
<!-- Types&#45;&gt;nc:DocumentPublicationDate -->
<g id="edge1" class="edge">
<title>Types:top&#45;&gt;nc:DocumentPublicationDate</title>
<path fill="none" stroke="#000000" d="M101,-24C119.6013,-24 139.4345,-24 158.5417,-24"/>
<polygon fill="#000000" stroke="#000000" points="158.7621,-27.5001 168.762,-24 158.762,-20.5001 158.7621,-27.5001"/>
<text text-anchor="middle" x="135.5" y="-27.4" font-family="Helvetica,sans-Serif" font-size="12.00" fill="#000000">has&#45;a</text>
</g>
</g>
</svg>
