<?xml version="1.0" encoding="UTF-8" standalone="no"?>
<!DOCTYPE svg PUBLIC "-//W3C//DTD SVG 1.1//EN"
 "http://www.w3.org/Graphics/SVG/1.1/DTD/svg11.dtd">
<!-- Generated by graphviz version 2.40.1 (20161225.0304)
 -->
<!-- Title: graphic Pages: 1 -->
<svg width="635pt" height="45pt"
 viewBox="0.00 0.00 635.00 45.00" xmlns="http://www.w3.org/2000/svg" xmlns:xlink="http://www.w3.org/1999/xlink">
<g id="graph0" class="graph" transform="scale(1 1) rotate(0) translate(4 41)">
<title>graphic</title>
<polygon fill="#ffffff" stroke="transparent" points="-4,4 -4,-41 631,-41 631,4 -4,4"/>
<!-- scr:BenefitApplicationCategoryDescriptionText -->
<g id="node1" class="node">
<title>scr:BenefitApplicationCategoryDescriptionText</title>
<text text-anchor="start" x="220.5" y="-21.4" font-family="Helvetica,sans-Serif" font-weight="bold" font-size="12.00" fill="#000000">scr:BenefitApplicationCategoryDescriptionText</text>
<polygon fill="none" stroke="#ff0000" stroke-width="5" points="216.5,-14 216.5,-34 494.5,-34 494.5,-14 216.5,-14"/>
</g>
<!-- nc:TextType -->
<g id="node3" class="node">
<title>nc:TextType</title>
<g id="a_node3_0"><a xlink:href="../../nc/TextType/#diagram" xlink:title="A data type for a character string." target="_top">
<text text-anchor="start" x="558.5" y="-20.4" font-family="Helvetica,sans-Serif" font-size="12.00" fill="#000000">nc:TextType</text>
</a>
</g>
<polygon fill="none" stroke="#000000" points="556,-15.5 556,-32.5 627,-32.5 627,-15.5 556,-15.5"/>
</g>
<!-- scr:BenefitApplicationCategoryDescriptionText&#45;&gt;nc:TextType -->
<g id="edge2" class="edge">
<title>scr:BenefitApplicationCategoryDescriptionText&#45;&gt;nc:TextType</title>
<path fill="none" stroke="#000000" d="M497.2091,-24C514.6969,-24 531.4601,-24 545.8755,-24"/>
<polygon fill="#000000" stroke="#000000" points="545.9339,-27.5001 555.9339,-24 545.9338,-20.5001 545.9339,-27.5001"/>
<text text-anchor="middle" x="526.5" y="-27.4" font-family="Helvetica,sans-Serif" font-size="12.00" fill="#000000">type</text>
</g>
<!-- Types -->
<g id="node2" class="node">
<title>Types</title>
<text text-anchor="start" x="2.5" y="-21.4" font-family="Helvetica,sans-Serif" font-weight="bold" font-size="12.00" fill="#000000">Types</text>
<g id="a_node2_1"><a xlink:href="../../scr/BenefitApplicationType/#diagram" xlink:title="A data type for additional document information supporting a BENEFIT APPLICATION ENCOUNTER." target="_top">
<polygon fill="#ebebeb" stroke="transparent" points="1.5,-1 1.5,-16 146.5,-16 146.5,-1 1.5,-1"/>
<text text-anchor="start" x="2.5" y="-5.4" font-family="Helvetica,sans-Serif" font-size="12.00" fill="#000000">scr:BenefitApplicationType</text>
</a>
</g>
<polygon fill="#000000" stroke="#000000" points=".5,-16 .5,-16 147.5,-16 147.5,-16 .5,-16"/>
<polygon fill="none" stroke="#000000" points="0,0 0,-32 147,-32 147,0 0,0"/>
</g>
<!-- Types&#45;&gt;scr:BenefitApplicationCategoryDescriptionText -->
<g id="edge1" class="edge">
<title>Types:top&#45;&gt;scr:BenefitApplicationCategoryDescriptionText</title>
<path fill="none" stroke="#000000" d="M146.5,-24C165.0392,-24 184.5035,-24 203.785,-24"/>
<polygon fill="#000000" stroke="#000000" points="203.8456,-27.5001 213.8455,-24 203.8455,-20.5001 203.8456,-27.5001"/>
<text text-anchor="middle" x="180.5" y="-27.4" font-family="Helvetica,sans-Serif" font-size="12.00" fill="#000000">has&#45;a</text>
</g>
</g>
</svg>
