<?xml version="1.0" encoding="UTF-8" standalone="no"?>
<!DOCTYPE svg PUBLIC "-//W3C//DTD SVG 1.1//EN"
 "http://www.w3.org/Graphics/SVG/1.1/DTD/svg11.dtd">
<!-- Generated by graphviz version 2.40.1 (20161225.0304)
 -->
<!-- Title: graphic Pages: 1 -->
<svg width="475pt" height="45pt"
 viewBox="0.00 0.00 475.00 45.00" xmlns="http://www.w3.org/2000/svg" xmlns:xlink="http://www.w3.org/1999/xlink">
<g id="graph0" class="graph" transform="scale(1 1) rotate(0) translate(4 41)">
<title>graphic</title>
<polygon fill="#ffffff" stroke="transparent" points="-4,4 -4,-41 471,-41 471,4 -4,4"/>
<!-- nc:PersonAgeDescriptionText -->
<g id="node1" class="node">
<title>nc:PersonAgeDescriptionText</title>
<text text-anchor="start" x="158.5" y="-21.4" font-family="Helvetica,sans-Serif" font-weight="bold" font-size="12.00" fill="#000000">nc:PersonAgeDescriptionText</text>
<polygon fill="none" stroke="#ff0000" stroke-width="5" points="154.5,-14 154.5,-34 334.5,-34 334.5,-14 154.5,-14"/>
</g>
<!-- nc:TextType -->
<g id="node3" class="node">
<title>nc:TextType</title>
<g id="a_node3_0"><a xlink:href="../../nc/TextType/#diagram" xlink:title="A data type for a character string." target="_top">
<text text-anchor="start" x="398.5" y="-20.4" font-family="Helvetica,sans-Serif" font-size="12.00" fill="#000000">nc:TextType</text>
</a>
</g>
<polygon fill="none" stroke="#000000" points="396,-15.5 396,-32.5 467,-32.5 467,-15.5 396,-15.5"/>
</g>
<!-- nc:PersonAgeDescriptionText&#45;&gt;nc:TextType -->
<g id="edge2" class="edge">
<title>nc:PersonAgeDescriptionText&#45;&gt;nc:TextType</title>
<path fill="none" stroke="#000000" d="M337.1782,-24C354.0281,-24 370.9135,-24 385.6454,-24"/>
<polygon fill="#000000" stroke="#000000" points="385.9607,-27.5001 395.9606,-24 385.9606,-20.5001 385.9607,-27.5001"/>
<text text-anchor="middle" x="366.5" y="-27.4" font-family="Helvetica,sans-Serif" font-size="12.00" fill="#000000">type</text>
</g>
<!-- Types -->
<g id="node2" class="node">
<title>Types</title>
<text text-anchor="start" x="2.5" y="-21.4" font-family="Helvetica,sans-Serif" font-weight="bold" font-size="12.00" fill="#000000">Types</text>
<g id="a_node2_1"><a xlink:href="../../nc/PersonType/#diagram" xlink:title="A data type for a human being." target="_top">
<polygon fill="#ebebeb" stroke="transparent" points="1.5,-1 1.5,-16 84.5,-16 84.5,-1 1.5,-1"/>
<text text-anchor="start" x="2.5" y="-5.4" font-family="Helvetica,sans-Serif" font-size="12.00" fill="#000000">nc:PersonType</text>
</a>
</g>
<polygon fill="#000000" stroke="#000000" points=".5,-16 .5,-16 85.5,-16 85.5,-16 .5,-16"/>
<polygon fill="none" stroke="#000000" points="0,0 0,-32 85,-32 85,0 0,0"/>
</g>
<!-- Types&#45;&gt;nc:PersonAgeDescriptionText -->
<g id="edge1" class="edge">
<title>Types:top&#45;&gt;nc:PersonAgeDescriptionText</title>
<path fill="none" stroke="#000000" d="M84.5,-24C102.9836,-24 122.6683,-24 141.681,-24"/>
<polygon fill="#000000" stroke="#000000" points="141.856,-27.5001 151.856,-24 141.856,-20.5001 141.856,-27.5001"/>
<text text-anchor="middle" x="118.5" y="-27.4" font-family="Helvetica,sans-Serif" font-size="12.00" fill="#000000">has&#45;a</text>
</g>
</g>
</svg>
