<?xml version="1.0" encoding="UTF-8" standalone="no"?>
<!DOCTYPE svg PUBLIC "-//W3C//DTD SVG 1.1//EN"
 "http://www.w3.org/Graphics/SVG/1.1/DTD/svg11.dtd">
<!-- Generated by graphviz version 2.40.1 (20161225.0304)
 -->
<!-- Title: graphic Pages: 1 -->
<svg width="510pt" height="45pt"
 viewBox="0.00 0.00 510.00 45.00" xmlns="http://www.w3.org/2000/svg" xmlns:xlink="http://www.w3.org/1999/xlink">
<g id="graph0" class="graph" transform="scale(1 1) rotate(0) translate(4 41)">
<title>graphic</title>
<polygon fill="#ffffff" stroke="transparent" points="-4,4 -4,-41 506,-41 506,4 -4,4"/>
<!-- j:CourtOrderServiceReceivedDate -->
<g id="node1" class="node">
<title>j:CourtOrderServiceReceivedDate</title>
<text text-anchor="start" x="170" y="-21.4" font-family="Helvetica,sans-Serif" font-weight="bold" font-size="12.00" fill="#000000">j:CourtOrderServiceReceivedDate</text>
<polygon fill="none" stroke="#ff0000" stroke-width="5" points="166.5,-14 166.5,-34 367.5,-34 367.5,-14 166.5,-14"/>
</g>
<!-- nc:DateType -->
<g id="node3" class="node">
<title>nc:DateType</title>
<g id="a_node3_0"><a xlink:href="../../nc/DateType/#diagram" xlink:title="A data type for a calendar date." target="_top">
<text text-anchor="start" x="431.5" y="-20.4" font-family="Helvetica,sans-Serif" font-size="12.00" fill="#000000">nc:DateType</text>
</a>
</g>
<polygon fill="none" stroke="#000000" points="429,-15.5 429,-32.5 502,-32.5 502,-15.5 429,-15.5"/>
</g>
<!-- j:CourtOrderServiceReceivedDate&#45;&gt;nc:DateType -->
<g id="edge2" class="edge">
<title>j:CourtOrderServiceReceivedDate&#45;&gt;nc:DateType</title>
<path fill="none" stroke="#000000" d="M370.0292,-24C387.0452,-24 403.9128,-24 418.6276,-24"/>
<polygon fill="#000000" stroke="#000000" points="418.9331,-27.5001 428.9331,-24 418.933,-20.5001 418.9331,-27.5001"/>
<text text-anchor="middle" x="399.5" y="-27.4" font-family="Helvetica,sans-Serif" font-size="12.00" fill="#000000">type</text>
</g>
<!-- Types -->
<g id="node2" class="node">
<title>Types</title>
<text text-anchor="start" x="2.5" y="-21.4" font-family="Helvetica,sans-Serif" font-weight="bold" font-size="12.00" fill="#000000">Types</text>
<g id="a_node2_1"><a xlink:href="../../j/CourtOrderType/#diagram" xlink:title="A data type for a direction of a judge not including a judgment, which determines some point or directs some steps in proceedings." target="_top">
<polygon fill="#ebebeb" stroke="transparent" points="1.5,-1 1.5,-16 96.5,-16 96.5,-1 1.5,-1"/>
<text text-anchor="start" x="2.5" y="-5.4" font-family="Helvetica,sans-Serif" font-size="12.00" fill="#000000">j:CourtOrderType</text>
</a>
</g>
<polygon fill="#000000" stroke="#000000" points=".5,-16 .5,-16 97.5,-16 97.5,-16 .5,-16"/>
<polygon fill="none" stroke="#000000" points="0,0 0,-32 97,-32 97,0 0,0"/>
</g>
<!-- Types&#45;&gt;j:CourtOrderServiceReceivedDate -->
<g id="edge1" class="edge">
<title>Types:top&#45;&gt;j:CourtOrderServiceReceivedDate</title>
<path fill="none" stroke="#000000" d="M96.5,-24C114.942,-24 134.5061,-24 153.5539,-24"/>
<polygon fill="#000000" stroke="#000000" points="153.7643,-27.5001 163.7643,-24 153.7642,-20.5001 153.7643,-27.5001"/>
<text text-anchor="middle" x="130.5" y="-27.4" font-family="Helvetica,sans-Serif" font-size="12.00" fill="#000000">has&#45;a</text>
</g>
</g>
</svg>
