<?xml version="1.0" encoding="UTF-8" standalone="no"?>
<!DOCTYPE svg PUBLIC "-//W3C//DTD SVG 1.1//EN"
 "http://www.w3.org/Graphics/SVG/1.1/DTD/svg11.dtd">
<!-- Generated by graphviz version 2.40.1 (20161225.0304)
 -->
<!-- Title: graphic Pages: 1 -->
<svg width="430pt" height="161pt"
 viewBox="0.00 0.00 430.00 160.50" xmlns="http://www.w3.org/2000/svg" xmlns:xlink="http://www.w3.org/1999/xlink">
<g id="graph0" class="graph" transform="scale(1 1) rotate(0) translate(4 156.5)">
<title>graphic</title>
<polygon fill="#ffffff" stroke="transparent" points="-4,4 -4,-156.5 426,-156.5 426,4 -4,4"/>
<!-- ip:SectorType -->
<g id="node1" class="node">
<title>ip:SectorType</title>
<text text-anchor="start" x="129.5" y="-85.4" font-family="Helvetica,sans-Serif" font-weight="bold" font-size="12.00" fill="#000000">ip:SectorType</text>
<g id="a_node1_0"><a xlink:href="../../ip/SectorName/#diagram" xlink:title="A major grouping name of critical infrastructure to which the facility belongs." target="_top">
<polygon fill="#ebebeb" stroke="transparent" points="128.5,-65 128.5,-80 417.5,-80 417.5,-65 128.5,-65"/>
<text text-anchor="start" x="129.5" y="-69.4" font-family="Helvetica,sans-Serif" font-size="12.00" fill="#000000">ip:SectorName: nc:TextType [0&#45;n]</text>
</a>
</g>
<g id="a_node1_1"><a xlink:href="../../ip/SubSector/#diagram" xlink:title="A major grouping within the sector to which the asset belongs &#45;see Infrastructure Taxonomy Version 3." target="_top">
<text text-anchor="start" x="129.5" y="-54.4" font-family="Helvetica,sans-Serif" font-size="12.00" fill="#000000">ip:SubSector: ip:SubsectorType [0&#45;n]</text>
</a>
</g>
<g id="a_node1_2"><a xlink:href="../../ip/SectorTaxonomyID/#diagram" xlink:title="An identifier of each sector as used in the Taxonomy &#45;see Infrastructure Taxonomy Version 3." target="_top">
<polygon fill="#ebebeb" stroke="transparent" points="128.5,-35 128.5,-50 417.5,-50 417.5,-35 128.5,-35"/>
<text text-anchor="start" x="129.5" y="-39.4" font-family="Helvetica,sans-Serif" font-size="12.00" fill="#000000">ip:SectorTaxonomyID: niem&#45;xs:string [0&#45;n]</text>
</a>
</g>
<g id="a_node1_3"><a xlink:href="../../ip/SectorTaxonomyDescriptionText/#diagram" xlink:title="A description of the Sector based on the description provided in the Infrastructure Data Taxonomy (IDT)." target="_top">
<text text-anchor="start" x="129.5" y="-24.4" font-family="Helvetica,sans-Serif" font-size="12.00" fill="#000000">ip:SectorTaxonomyDescriptionText: nc:TextType [0&#45;n]</text>
</a>
</g>
<g id="a_node1_4"><a xlink:href="../../ip/SectorAugmentationPoint/#diagram" xlink:title="An augmentation point for SectorType." target="_top">
<polygon fill="#ebebeb" stroke="transparent" points="128.5,-5 128.5,-20 417.5,-20 417.5,-5 128.5,-5"/>
<text text-anchor="start" x="129.5" y="-9.4" font-family="Helvetica,sans-Serif" font-size="12.00" fill="#000000">ip:SectorAugmentationPoint [0&#45;n]</text>
</a>
</g>
<polygon fill="#ff0000" stroke="#ff0000" points="123.5,-80 123.5,-80 422.5,-80 422.5,-80 123.5,-80"/>
<polygon fill="none" stroke="#ff0000" stroke-width="5" points="125.5,-2.5 125.5,-97.5 419.5,-97.5 419.5,-2.5 125.5,-2.5"/>
</g>
<!-- Properties -->
<g id="node2" class="node">
<title>Properties</title>
<text text-anchor="start" x="2" y="-85.4" font-family="Helvetica,sans-Serif" font-weight="bold" font-size="12.00" fill="#000000">Properties</text>
<g id="a_node2_5"><a xlink:href="../../ip/Sector/#diagram" xlink:title="A sector (i.e., major grouping for infrastructure) to which the asset belongs. There are 18 such Sectors as outlined in the National Infrastructure Protection Plan." target="_top">
<polygon fill="#ebebeb" stroke="transparent" points="1,-65 1,-80 63,-80 63,-65 1,-65"/>
<text text-anchor="start" x="2" y="-69.4" font-family="Helvetica,sans-Serif" font-size="12.00" fill="#000000">ip:Sector</text>
</a>
</g>
<polygon fill="#000000" stroke="#000000" points="0,-80 0,-80 64,-80 64,-80 0,-80"/>
<polygon fill="none" stroke="#000000" points="0,-64 0,-96 64,-96 64,-64 0,-64"/>
</g>
<!-- Properties&#45;&gt;ip:SectorType -->
<g id="edge1" class="edge">
<title>Properties:top&#45;&gt;ip:SectorType:top</title>
<path fill="none" stroke="#000000" d="M63,-88C88.3585,-88 97.1498,-88 118.2371,-88"/>
<polygon fill="#000000" stroke="#000000" points="118.5,-91.5001 128.5,-88 118.5,-84.5001 118.5,-91.5001"/>
<text text-anchor="middle" x="93.5" y="-91.4" font-family="Helvetica,sans-Serif" font-size="12.00" fill="#000000">type</text>
</g>
<!-- structures:ObjectType -->
<g id="node3" class="node">
<title>structures:ObjectType</title>
<g id="a_node3_6"><a xlink:href="../../structures/ObjectType/#diagram" xlink:title="A data type for a thing with its own lifespan that has some existence." target="_top">
<text text-anchor="start" x="213.5" y="-140.4" font-family="Helvetica,sans-Serif" font-size="12.00" fill="#000000">structures:ObjectType</text>
</a>
</g>
<polygon fill="none" stroke="#000000" points="211.5,-135.5 211.5,-152.5 333.5,-152.5 333.5,-135.5 211.5,-135.5"/>
</g>
<!-- structures:ObjectType&#45;&gt;ip:SectorType -->
<g id="edge2" class="edge">
<title>structures:ObjectType&#45;&gt;ip:SectorType</title>
<path fill="none" stroke="#000000" d="M272.5,-135.375C272.5,-129.1263 272.5,-120.0624 272.5,-110.15"/>
<polygon fill="#000000" stroke="#000000" points="276.0001,-110.0274 272.5,-100.0274 269.0001,-110.0275 276.0001,-110.0274"/>
<text text-anchor="middle" x="263" y="-114.65" font-family="Helvetica,sans-Serif" font-size="12.00" fill="#000000">extension</text>
</g>
</g>
</svg>
