<?xml version="1.0" encoding="UTF-8" standalone="no"?>
<!DOCTYPE svg PUBLIC "-//W3C//DTD SVG 1.1//EN"
 "http://www.w3.org/Graphics/SVG/1.1/DTD/svg11.dtd">
<!-- Generated by graphviz version 2.40.1 (20161225.0304)
 -->
<!-- Title: graphic Pages: 1 -->
<svg width="474pt" height="154pt"
 viewBox="0.00 0.00 474.00 153.50" xmlns="http://www.w3.org/2000/svg" xmlns:xlink="http://www.w3.org/1999/xlink">
<g id="graph0" class="graph" transform="scale(1 1) rotate(0) translate(4 149.5)">
<title>graphic</title>
<polygon fill="#ffffff" stroke="transparent" points="-4,4 -4,-149.5 470,-149.5 470,4 -4,4"/>
<!-- im:SovereigntyStatusCodeType -->
<g id="node1" class="node">
<title>im:SovereigntyStatusCodeType</title>
<text text-anchor="start" x="254" y="-25.4" font-family="Helvetica,sans-Serif" font-weight="bold" font-size="12.00" fill="#000000">im:SovereigntyStatusCodeType</text>
<g id="a_node1_0"><a xlink:href="../../structures/SimpleObjectAttributeGroup/#diagram" xlink:title="A group of attributes that are applicable to objects, to be used when defining a complex type that is an extension of a simple type." target="_top">
<polygon fill="#ebebeb" stroke="transparent" points="253,-5 253,-20 461,-20 461,-5 253,-5"/>
<text text-anchor="start" x="254" y="-9.4" font-family="Helvetica,sans-Serif" font-size="12.00" fill="#000000">structures:SimpleObjectAttributeGroup</text>
</a>
</g>
<polygon fill="#ff0000" stroke="#ff0000" points="248,-20 248,-20 466,-20 466,-20 248,-20"/>
<polygon fill="none" stroke="#ff0000" stroke-width="5" points="250.5,-2.5 250.5,-37.5 463.5,-37.5 463.5,-2.5 250.5,-2.5"/>
</g>
<!-- Properties -->
<g id="node2" class="node">
<title>Properties</title>
<text text-anchor="start" x="2.5" y="-25.4" font-family="Helvetica,sans-Serif" font-weight="bold" font-size="12.00" fill="#000000">Properties</text>
<g id="a_node2_1"><a xlink:href="../../im/CountrySovereigntyStatusCode/#diagram" xlink:title="A status of the authority over a geographic area by a nation with its own government." target="_top">
<polygon fill="#ebebeb" stroke="transparent" points="1.5,-5 1.5,-20 188.5,-20 188.5,-5 1.5,-5"/>
<text text-anchor="start" x="2.5" y="-9.4" font-family="Helvetica,sans-Serif" font-size="12.00" fill="#000000">im:CountrySovereigntyStatusCode</text>
</a>
</g>
<polygon fill="#000000" stroke="#000000" points=".5,-20 .5,-20 189.5,-20 189.5,-20 .5,-20"/>
<polygon fill="none" stroke="#000000" points="0,-4 0,-36 189,-36 189,-4 0,-4"/>
</g>
<!-- Properties&#45;&gt;im:SovereigntyStatusCodeType -->
<g id="edge1" class="edge">
<title>Properties:top&#45;&gt;im:SovereigntyStatusCodeType:top</title>
<path fill="none" stroke="#000000" d="M188.5,-28C213.4714,-28 222.1284,-28 242.8937,-28"/>
<polygon fill="#000000" stroke="#000000" points="243,-31.5001 253,-28 243,-24.5001 243,-31.5001"/>
<text text-anchor="middle" x="218.5" y="-31.4" font-family="Helvetica,sans-Serif" font-size="12.00" fill="#000000">type</text>
</g>
<!-- im:SovereigntyStatusCodeSimpleType -->
<g id="node3" class="node">
<title>im:SovereigntyStatusCodeSimpleType</title>
<g id="a_node3_2"><a xlink:href="../../im/SovereigntyStatusCodeSimpleType/#diagram" xlink:title="A data type for the status of the authority over a geographic area by a nation with its own government." target="_top">
<text text-anchor="start" x="254" y="-80.4" font-family="Helvetica,sans-Serif" font-size="12.00" fill="#000000">im:SovereigntyStatusCodeSimpleType</text>
</a>
</g>
<polygon fill="none" stroke="#000000" points="252,-75.5 252,-92.5 462,-92.5 462,-75.5 252,-75.5"/>
</g>
<!-- im:SovereigntyStatusCodeSimpleType&#45;&gt;im:SovereigntyStatusCodeType -->
<g id="edge2" class="edge">
<title>im:SovereigntyStatusCodeSimpleType&#45;&gt;im:SovereigntyStatusCodeType</title>
<path fill="none" stroke="#000000" d="M357,-75.4351C357,-68.931 357,-59.5678 357,-50.3827"/>
<polygon fill="#000000" stroke="#000000" points="360.5001,-50.25 357,-40.25 353.5001,-50.25 360.5001,-50.25"/>
<text text-anchor="middle" x="347.5" y="-54.65" font-family="Helvetica,sans-Serif" font-size="12.00" fill="#000000">extension</text>
</g>
<!-- xs:token -->
<g id="node4" class="node">
<title>xs:token</title>
<g id="a_node4_3"><a xlink:href="../../xs/token/#diagram" xlink:title="&lt;TABLE&gt;" target="_top">
<text text-anchor="start" x="335" y="-133.4" font-family="Helvetica,sans-Serif" font-size="12.00" fill="#000000">xs:token</text>
</a>
</g>
<polygon fill="none" stroke="#000000" points="332.5,-128.5 332.5,-145.5 381.5,-145.5 381.5,-128.5 332.5,-128.5"/>
</g>
<!-- xs:token&#45;&gt;im:SovereigntyStatusCodeSimpleType -->
<g id="edge3" class="edge">
<title>xs:token&#45;&gt;im:SovereigntyStatusCodeSimpleType</title>
<path fill="none" stroke="#000000" d="M357,-128.411C357,-121.5124 357,-111.5696 357,-102.84"/>
<polygon fill="#000000" stroke="#000000" points="360.5001,-102.7518 357,-92.7519 353.5001,-102.7519 360.5001,-102.7518"/>
<text text-anchor="middle" x="347.5" y="-107.4" font-family="Helvetica,sans-Serif" font-size="12.00" fill="#000000">restriction</text>
</g>
</g>
</svg>
