<?xml version="1.0" encoding="UTF-8" standalone="no"?>
<!DOCTYPE svg PUBLIC "-//W3C//DTD SVG 1.1//EN"
 "http://www.w3.org/Graphics/SVG/1.1/DTD/svg11.dtd">
<!-- Generated by graphviz version 2.40.1 (20161225.0304)
 -->
<!-- Title: graphic Pages: 1 -->
<svg width="496pt" height="206pt"
 viewBox="0.00 0.00 496.00 206.00" xmlns="http://www.w3.org/2000/svg" xmlns:xlink="http://www.w3.org/1999/xlink">
<g id="graph0" class="graph" transform="scale(1 1) rotate(0) translate(4 202)">
<title>graphic</title>
<polygon fill="#ffffff" stroke="transparent" points="-4,4 -4,-202 492,-202 492,4 -4,4"/>
<!-- biom:PhysicalMediaObjectType -->
<g id="node1" class="node">
<title>biom:PhysicalMediaObjectType</title>
<text text-anchor="start" x="211.5" y="-129.9" font-family="Helvetica,sans-Serif" font-weight="bold" font-size="12.00" fill="#000000">biom:PhysicalMediaObjectType</text>
<g id="a_node1_0"><a xlink:href="../../biom/MediaCategoryText/#diagram" xlink:title="A kind of media upon which a recording is stored." target="_top">
<polygon fill="#ebebeb" stroke="transparent" points="210.5,-109.5 210.5,-124.5 483.5,-124.5 483.5,-109.5 210.5,-109.5"/>
<text text-anchor="start" x="211.5" y="-113.9" font-family="Helvetica,sans-Serif" font-size="12.00" fill="#000000">biom:MediaCategoryText: nc:TextType [0&#45;n]</text>
</a>
</g>
<g id="a_node1_1"><a xlink:href="../../biom/RecordingSpeedRate/#diagram" xlink:title="A rate of speed at which the physical media object must be played to reproduce the signal content." target="_top">
<text text-anchor="start" x="211.5" y="-98.9" font-family="Helvetica,sans-Serif" font-size="12.00" fill="#000000">biom:RecordingSpeedRate: niem&#45;xs:decimal [0&#45;n]</text>
</a>
</g>
<g id="a_node1_2"><a xlink:href="../../biom/RecordingSpeedUnitText/#diagram" xlink:title="A unit of measure of the rate of speed at which the physical media object must be played to reproduce the signal content." target="_top">
<polygon fill="#ebebeb" stroke="transparent" points="210.5,-79.5 210.5,-94.5 483.5,-94.5 483.5,-79.5 210.5,-79.5"/>
<text text-anchor="start" x="211.5" y="-83.9" font-family="Helvetica,sans-Serif" font-size="12.00" fill="#000000">biom:RecordingSpeedUnitText: nc:TextType [0&#45;n]</text>
</a>
</g>
<g id="a_node1_3"><a xlink:href="../../biom/AudioEqualizationText/#diagram" xlink:title="An equalization that should be applied for faithful rendering of a recording on a physical media object." target="_top">
<text text-anchor="start" x="211.5" y="-68.9" font-family="Helvetica,sans-Serif" font-size="12.00" fill="#000000">biom:AudioEqualizationText: nc:TextType [0&#45;n]</text>
</a>
</g>
<g id="a_node1_4"><a xlink:href="../../biom/AudioTrackQuantity/#diagram" xlink:title="A total number of recorded tracks on a physical media object." target="_top">
<polygon fill="#ebebeb" stroke="transparent" points="210.5,-49.5 210.5,-64.5 483.5,-64.5 483.5,-49.5 210.5,-49.5"/>
<text text-anchor="start" x="211.5" y="-53.9" font-family="Helvetica,sans-Serif" font-size="12.00" fill="#000000">biom:AudioTrackQuantity: nc:QuantityType [0&#45;n]</text>
</a>
</g>
<g id="a_node1_5"><a xlink:href="../../biom/SpeakerTrackList/#diagram" xlink:title="A list of track IDs which carry speaker voices." target="_top">
<text text-anchor="start" x="211.5" y="-38.9" font-family="Helvetica,sans-Serif" font-size="12.00" fill="#000000">biom:SpeakerTrackList: biom:TrackListType [0&#45;n]</text>
</a>
</g>
<g id="a_node1_6"><a xlink:href="../../biom/MediaCommentText/#diagram" xlink:title="A comment used to describe a physical media object." target="_top">
<polygon fill="#ebebeb" stroke="transparent" points="210.5,-19.5 210.5,-34.5 483.5,-34.5 483.5,-19.5 210.5,-19.5"/>
<text text-anchor="start" x="211.5" y="-23.9" font-family="Helvetica,sans-Serif" font-size="12.00" fill="#000000">biom:MediaCommentText: nc:TextType [0&#45;n]</text>
</a>
</g>
<g id="a_node1_7"><a xlink:href="../../biom/PhysicalMediaObjectAugmentationPoint/#diagram" xlink:title="An augmentation point for PhysicalMediaObjectType." target="_top">
<text text-anchor="start" x="211.5" y="-8.9" font-family="Helvetica,sans-Serif" font-size="12.00" fill="#000000">biom:PhysicalMediaObjectAugmentationPoint [0&#45;n]</text>
</a>
</g>
<polygon fill="#ff0000" stroke="#ff0000" points="205.5,-124.5 205.5,-124.5 488.5,-124.5 488.5,-124.5 205.5,-124.5"/>
<polygon fill="none" stroke="#ff0000" stroke-width="5" points="207.5,-2.5 207.5,-142.5 485.5,-142.5 485.5,-2.5 207.5,-2.5"/>
</g>
<!-- Properties -->
<g id="node2" class="node">
<title>Properties</title>
<text text-anchor="start" x="2" y="-129.9" font-family="Helvetica,sans-Serif" font-weight="bold" font-size="12.00" fill="#000000">Properties</text>
<g id="a_node2_8"><a xlink:href="../../biom/PhysicalMediaObject/#diagram" xlink:title="A physical media containing a recording." target="_top">
<polygon fill="#ebebeb" stroke="transparent" points="1,-109.5 1,-124.5 145,-124.5 145,-109.5 1,-109.5"/>
<text text-anchor="start" x="2" y="-113.9" font-family="Helvetica,sans-Serif" font-size="12.00" fill="#000000">biom:PhysicalMediaObject</text>
</a>
</g>
<polygon fill="#000000" stroke="#000000" points="0,-124.5 0,-124.5 146,-124.5 146,-124.5 0,-124.5"/>
<polygon fill="none" stroke="#000000" points="0,-108.5 0,-140.5 146,-140.5 146,-108.5 0,-108.5"/>
</g>
<!-- Properties&#45;&gt;biom:PhysicalMediaObjectType -->
<g id="edge1" class="edge">
<title>Properties:top&#45;&gt;biom:PhysicalMediaObjectType:top</title>
<path fill="none" stroke="#000000" d="M145,-132.5C170.3585,-132.5 179.1498,-132.5 200.2371,-132.5"/>
<polygon fill="#000000" stroke="#000000" points="200.5,-136.0001 210.5,-132.5 200.5,-129.0001 200.5,-136.0001"/>
<text text-anchor="middle" x="175.5" y="-135.9" font-family="Helvetica,sans-Serif" font-size="12.00" fill="#000000">type</text>
</g>
<!-- structures:ObjectType -->
<g id="node3" class="node">
<title>structures:ObjectType</title>
<g id="a_node3_9"><a xlink:href="../../structures/ObjectType/#diagram" xlink:title="A data type for a thing with its own lifespan that has some existence." target="_top">
<text text-anchor="start" x="287.5" y="-185.9" font-family="Helvetica,sans-Serif" font-size="12.00" fill="#000000">structures:ObjectType</text>
</a>
</g>
<polygon fill="none" stroke="#000000" points="285.5,-181 285.5,-198 407.5,-198 407.5,-181 285.5,-181"/>
</g>
<!-- structures:ObjectType&#45;&gt;biom:PhysicalMediaObjectType -->
<g id="edge2" class="edge">
<title>structures:ObjectType&#45;&gt;biom:PhysicalMediaObjectType</title>
<path fill="none" stroke="#000000" d="M346.5,-180.8462C346.5,-174.6576 346.5,-165.636 346.5,-155.4002"/>
<polygon fill="#000000" stroke="#000000" points="350.0001,-155.2673 346.5,-145.2673 343.0001,-155.2674 350.0001,-155.2673"/>
<text text-anchor="middle" x="337" y="-159.9" font-family="Helvetica,sans-Serif" font-size="12.00" fill="#000000">extension</text>
</g>
</g>
</svg>
