<?xml version="1.0" encoding="UTF-8" standalone="no"?>
<!DOCTYPE svg PUBLIC "-//W3C//DTD SVG 1.1//EN"
 "http://www.w3.org/Graphics/SVG/1.1/DTD/svg11.dtd">
<!-- Generated by graphviz version 2.40.1 (20161225.0304)
 -->
<!-- Title: graphic Pages: 1 -->
<svg width="998pt" height="45pt"
 viewBox="0.00 0.00 998.00 45.00" xmlns="http://www.w3.org/2000/svg" xmlns:xlink="http://www.w3.org/1999/xlink">
<g id="graph0" class="graph" transform="scale(1 1) rotate(0) translate(4 41)">
<title>graphic</title>
<polygon fill="#ffffff" stroke="transparent" points="-4,4 -4,-41 994,-41 994,4 -4,4"/>
<!-- biom:MinutiaeFeatureCorrespondenceCategoryCode -->
<g id="node1" class="node">
<title>biom:MinutiaeFeatureCorrespondenceCategoryCode</title>
<text text-anchor="start" x="309.5" y="-21.4" font-family="Helvetica,sans-Serif" font-weight="bold" font-size="12.00" fill="#000000">biom:MinutiaeFeatureCorrespondenceCategoryCode</text>
<polygon fill="none" stroke="#ff0000" stroke-width="5" points="305.5,-14 305.5,-34 615.5,-34 615.5,-14 305.5,-14"/>
</g>
<!-- biom:MinutiaeFeatureCorrespondenceCategoryCodeType -->
<g id="node3" class="node">
<title>biom:MinutiaeFeatureCorrespondenceCategoryCodeType</title>
<g id="a_node3_0"><a xlink:href="../../biom/MinutiaeFeatureCorrespondenceCategoryCodeType/#diagram" xlink:title="A data type for a kind of correspondence between features in different friction ridge image" target="_top">
<text text-anchor="start" x="679.5" y="-20.4" font-family="Helvetica,sans-Serif" font-size="12.00" fill="#000000">biom:MinutiaeFeatureCorrespondenceCategoryCodeType</text>
</a>
</g>
<polygon fill="none" stroke="#000000" points="677,-15.5 677,-32.5 990,-32.5 990,-15.5 677,-15.5"/>
</g>
<!-- biom:MinutiaeFeatureCorrespondenceCategoryCode&#45;&gt;biom:MinutiaeFeatureCorrespondenceCategoryCodeType -->
<g id="edge2" class="edge">
<title>biom:MinutiaeFeatureCorrespondenceCategoryCode&#45;&gt;biom:MinutiaeFeatureCorrespondenceCategoryCodeType</title>
<path fill="none" stroke="#000000" d="M618.1449,-24C634.1988,-24 650.545,-24 666.692,-24"/>
<polygon fill="#000000" stroke="#000000" points="666.7158,-27.5001 676.7157,-24 666.7157,-20.5001 666.7158,-27.5001"/>
<text text-anchor="middle" x="647.5" y="-27.4" font-family="Helvetica,sans-Serif" font-size="12.00" fill="#000000">type</text>
</g>
<!-- Types -->
<g id="node2" class="node">
<title>Types</title>
<text text-anchor="start" x="2" y="-21.4" font-family="Helvetica,sans-Serif" font-weight="bold" font-size="12.00" fill="#000000">Types</text>
<g id="a_node2_1"><a xlink:href="../../biom/MinutiaeFeatureCorrespondenceType/#diagram" xlink:title="A data type for a correspondence between features in different friction ridge images" target="_top">
<polygon fill="#ebebeb" stroke="transparent" points="1,-1 1,-16 235,-16 235,-1 1,-1"/>
<text text-anchor="start" x="2" y="-5.4" font-family="Helvetica,sans-Serif" font-size="12.00" fill="#000000">biom:MinutiaeFeatureCorrespondenceType</text>
</a>
</g>
<polygon fill="#000000" stroke="#000000" points="0,-16 0,-16 236,-16 236,-16 0,-16"/>
<polygon fill="none" stroke="#000000" points="0,0 0,-32 236,-32 236,0 0,0"/>
</g>
<!-- Types&#45;&gt;biom:MinutiaeFeatureCorrespondenceCategoryCode -->
<g id="edge1" class="edge">
<title>Types:top&#45;&gt;biom:MinutiaeFeatureCorrespondenceCategoryCode</title>
<path fill="none" stroke="#000000" d="M235,-24C253.6693,-24 273.2081,-24 292.6445,-24"/>
<polygon fill="#000000" stroke="#000000" points="292.7941,-27.5001 302.7941,-24 292.794,-20.5001 292.7941,-27.5001"/>
<text text-anchor="middle" x="269.5" y="-27.4" font-family="Helvetica,sans-Serif" font-size="12.00" fill="#000000">has&#45;a</text>
</g>
</g>
</svg>
