<?xml version="1.0" encoding="UTF-8" standalone="no"?>
<!DOCTYPE svg PUBLIC "-//W3C//DTD SVG 1.1//EN"
 "http://www.w3.org/Graphics/SVG/1.1/DTD/svg11.dtd">
<!-- Generated by graphviz version 2.40.1 (20161225.0304)
 -->
<!-- Title: graphic Pages: 1 -->
<svg width="320pt" height="86pt"
 viewBox="0.00 0.00 320.00 86.00" xmlns="http://www.w3.org/2000/svg" xmlns:xlink="http://www.w3.org/1999/xlink">
<g id="graph0" class="graph" transform="scale(1 1) rotate(0) translate(4 82)">
<title>graphic</title>
<polygon fill="#ffffff" stroke="transparent" points="-4,4 -4,-82 316,-82 316,4 -4,4"/>
<!-- j:FirearmBoreSizeCode -->
<g id="node1" class="node">
<title>j:FirearmBoreSizeCode</title>
<text text-anchor="start" x="6.5" y="-9.9" font-family="Helvetica,sans-Serif" font-weight="bold" font-size="12.00" fill="#000000">j:FirearmBoreSizeCode</text>
<polygon fill="none" stroke="#ff0000" stroke-width="5" points="2.5,-2.5 2.5,-22.5 142.5,-22.5 142.5,-2.5 2.5,-2.5"/>
</g>
<!-- ncic:CALCodeType -->
<g id="node3" class="node">
<title>ncic:CALCodeType</title>
<g id="a_node3_0"><a xlink:href="../../ncic/CALCodeType/#diagram" xlink:title="A data type for 3 &#45; Gun Caliber (CAL) Field Codes" target="_top">
<text text-anchor="start" x="206" y="-8.9" font-family="Helvetica,sans-Serif" font-size="12.00" fill="#000000">ncic:CALCodeType</text>
</a>
</g>
<polygon fill="none" stroke="#000000" points="204,-4 204,-21 312,-21 312,-4 204,-4"/>
</g>
<!-- j:FirearmBoreSizeCode&#45;&gt;ncic:CALCodeType -->
<g id="edge2" class="edge">
<title>j:FirearmBoreSizeCode&#45;&gt;ncic:CALCodeType</title>
<path fill="none" stroke="#000000" d="M145.0161,-12.5C161.104,-12.5 178.0456,-12.5 193.7748,-12.5"/>
<polygon fill="#000000" stroke="#000000" points="193.9149,-16.0001 203.9148,-12.5 193.9148,-9.0001 193.9149,-16.0001"/>
<text text-anchor="middle" x="174.5" y="-15.9" font-family="Helvetica,sans-Serif" font-size="12.00" fill="#000000">type</text>
</g>
<!-- SubstitutionGroup -->
<g id="node2" class="node">
<title>SubstitutionGroup</title>
<g id="a_node2_1"><a xlink:href="../../j/FirearmBoreSizeAbstract/#diagram" xlink:title="A data concept for a size of the inside diameter of a firearm barrel or bore." target="_top">
<text text-anchor="start" x="2.5" y="-65.9" font-family="Helvetica,sans-Serif" font-size="12.00" fill="#000000">j:FirearmBoreSizeAbstract</text>
</a>
</g>
<polygon fill="none" stroke="#000000" points="0,-61 0,-78 145,-78 145,-61 0,-61"/>
</g>
<!-- SubstitutionGroup&#45;&gt;j:FirearmBoreSizeCode -->
<g id="edge1" class="edge">
<title>SubstitutionGroup&#45;&gt;j:FirearmBoreSizeCode</title>
<path fill="none" stroke="#000000" d="M72.5,-50.9163C72.5,-42.4809 72.5,-32.7214 72.5,-25.1501"/>
<polygon fill="#000000" stroke="#000000" points="69.0001,-50.9472 72.5,-60.9473 76.0001,-50.9473 69.0001,-50.9472"/>
<text text-anchor="middle" x="63" y="-39.9" font-family="Helvetica,sans-Serif" font-size="12.00" fill="#000000">substitution group</text>
</g>
</g>
</svg>
