<?xml version="1.0" encoding="UTF-8" standalone="no"?>
<!DOCTYPE svg PUBLIC "-//W3C//DTD SVG 1.1//EN"
 "http://www.w3.org/Graphics/SVG/1.1/DTD/svg11.dtd">
<!-- Generated by graphviz version 2.40.1 (20161225.0304)
 -->
<!-- Title: graphic Pages: 1 -->
<svg width="438pt" height="45pt"
 viewBox="0.00 0.00 438.00 45.00" xmlns="http://www.w3.org/2000/svg" xmlns:xlink="http://www.w3.org/1999/xlink">
<g id="graph0" class="graph" transform="scale(1 1) rotate(0) translate(4 41)">
<title>graphic</title>
<polygon fill="#ffffff" stroke="transparent" points="-4,4 -4,-41 434,-41 434,4 -4,4"/>
<!-- cbrn:DataFileURIID -->
<g id="node1" class="node">
<title>cbrn:DataFileURIID</title>
<text text-anchor="start" x="176" y="-21.4" font-family="Helvetica,sans-Serif" font-weight="bold" font-size="12.00" fill="#000000">cbrn:DataFileURIID</text>
<polygon fill="none" stroke="#ff0000" stroke-width="5" points="172.5,-14 172.5,-34 289.5,-34 289.5,-14 172.5,-14"/>
</g>
<!-- niem&#45;xs:string -->
<g id="node3" class="node">
<title>niem&#45;xs:string</title>
<g id="a_node3_0"><a xlink:href="../../niem-xs/string/#diagram" xlink:title="A data type for character strings in XML." target="_top">
<text text-anchor="start" x="353.5" y="-20.4" font-family="Helvetica,sans-Serif" font-size="12.00" fill="#000000">niem&#45;xs:string</text>
</a>
</g>
<polygon fill="none" stroke="#000000" points="351,-15.5 351,-32.5 430,-32.5 430,-15.5 351,-15.5"/>
</g>
<!-- cbrn:DataFileURIID&#45;&gt;niem&#45;xs:string -->
<g id="edge2" class="edge">
<title>cbrn:DataFileURIID&#45;&gt;niem&#45;xs:string</title>
<path fill="none" stroke="#000000" d="M292.2107,-24C308.1996,-24 325.2411,-24 340.5664,-24"/>
<polygon fill="#000000" stroke="#000000" points="340.8681,-27.5001 350.8681,-24 340.8681,-20.5001 340.8681,-27.5001"/>
<text text-anchor="middle" x="321.5" y="-27.4" font-family="Helvetica,sans-Serif" font-size="12.00" fill="#000000">type</text>
</g>
<!-- Types -->
<g id="node2" class="node">
<title>Types</title>
<text text-anchor="start" x="2.5" y="-21.4" font-family="Helvetica,sans-Serif" font-weight="bold" font-size="12.00" fill="#000000">Types</text>
<g id="a_node2_1"><a xlink:href="../../cbrn/DataFileType/#diagram" xlink:title="A data type that defines a data file and its properties." target="_top">
<polygon fill="#ebebeb" stroke="transparent" points="1.5,-1 1.5,-16 102.5,-16 102.5,-1 1.5,-1"/>
<text text-anchor="start" x="2.5" y="-5.4" font-family="Helvetica,sans-Serif" font-size="12.00" fill="#000000">cbrn:DataFileType</text>
</a>
</g>
<polygon fill="#000000" stroke="#000000" points=".5,-16 .5,-16 103.5,-16 103.5,-16 .5,-16"/>
<polygon fill="none" stroke="#000000" points="0,0 0,-32 103,-32 103,0 0,0"/>
</g>
<!-- Types&#45;&gt;cbrn:DataFileURIID -->
<g id="edge1" class="edge">
<title>Types:top&#45;&gt;cbrn:DataFileURIID</title>
<path fill="none" stroke="#000000" d="M102.5,-24C121.0409,-24 141.0866,-24 159.7059,-24"/>
<polygon fill="#000000" stroke="#000000" points="159.8847,-27.5001 169.8846,-24 159.8846,-20.5001 159.8847,-27.5001"/>
<text text-anchor="middle" x="136.5" y="-27.4" font-family="Helvetica,sans-Serif" font-size="12.00" fill="#000000">has&#45;a</text>
</g>
</g>
</svg>
