<?xml version="1.0" encoding="UTF-8" standalone="no"?>
<!DOCTYPE svg PUBLIC "-//W3C//DTD SVG 1.1//EN"
 "http://www.w3.org/Graphics/SVG/1.1/DTD/svg11.dtd">
<!-- Generated by graphviz version 2.40.1 (20161225.0304)
 -->
<!-- Title: graphic Pages: 1 -->
<svg width="726pt" height="45pt"
 viewBox="0.00 0.00 726.00 45.00" xmlns="http://www.w3.org/2000/svg" xmlns:xlink="http://www.w3.org/1999/xlink">
<g id="graph0" class="graph" transform="scale(1 1) rotate(0) translate(4 41)">
<title>graphic</title>
<polygon fill="#ffffff" stroke="transparent" points="-4,4 -4,-41 722,-41 722,4 -4,4"/>
<!-- biom:MinutiaeLatentSubstrate -->
<g id="node1" class="node">
<title>biom:MinutiaeLatentSubstrate</title>
<text text-anchor="start" x="289.5" y="-21.4" font-family="Helvetica,sans-Serif" font-weight="bold" font-size="12.00" fill="#000000">biom:MinutiaeLatentSubstrate</text>
<polygon fill="none" stroke="#ff0000" stroke-width="5" points="285.5,-14 285.5,-34 465.5,-34 465.5,-14 285.5,-14"/>
</g>
<!-- biom:MinutiaeLatentSubstrateType -->
<g id="node3" class="node">
<title>biom:MinutiaeLatentSubstrateType</title>
<g id="a_node3_0"><a xlink:href="../../biom/MinutiaeLatentSubstrateType/#diagram" xlink:title="A data type for a surface on which a friction ridge impression was deposited" target="_top">
<text text-anchor="start" x="529.5" y="-20.4" font-family="Helvetica,sans-Serif" font-size="12.00" fill="#000000">biom:MinutiaeLatentSubstrateType</text>
</a>
</g>
<polygon fill="none" stroke="#000000" points="527,-15.5 527,-32.5 718,-32.5 718,-15.5 527,-15.5"/>
</g>
<!-- biom:MinutiaeLatentSubstrate&#45;&gt;biom:MinutiaeLatentSubstrateType -->
<g id="edge2" class="edge">
<title>biom:MinutiaeLatentSubstrate&#45;&gt;biom:MinutiaeLatentSubstrateType</title>
<path fill="none" stroke="#000000" d="M468.1764,-24C484.047,-24 500.6431,-24 516.8223,-24"/>
<polygon fill="#000000" stroke="#000000" points="516.8322,-27.5001 526.8321,-24 516.8321,-20.5001 516.8322,-27.5001"/>
<text text-anchor="middle" x="497.5" y="-27.4" font-family="Helvetica,sans-Serif" font-size="12.00" fill="#000000">type</text>
</g>
<!-- Types -->
<g id="node2" class="node">
<title>Types</title>
<text text-anchor="start" x="2" y="-21.4" font-family="Helvetica,sans-Serif" font-weight="bold" font-size="12.00" fill="#000000">Types</text>
<g id="a_node2_1"><a xlink:href="../../biom/ExtendedFeatureSetMinutiaeType/#diagram" xlink:title="A data type for a set of elements for the measure and definition of friction ridge detail within a particular region of interest in a fingerprint or palm print image" target="_top">
<polygon fill="#ebebeb" stroke="transparent" points="1,-1 1,-16 215,-16 215,-1 1,-1"/>
<text text-anchor="start" x="2" y="-5.4" font-family="Helvetica,sans-Serif" font-size="12.00" fill="#000000">biom:ExtendedFeatureSetMinutiaeType</text>
</a>
</g>
<polygon fill="#000000" stroke="#000000" points="0,-16 0,-16 216,-16 216,-16 0,-16"/>
<polygon fill="none" stroke="#000000" points="0,0 0,-32 216,-32 216,0 0,0"/>
</g>
<!-- Types&#45;&gt;biom:MinutiaeLatentSubstrate -->
<g id="edge1" class="edge">
<title>Types:top&#45;&gt;biom:MinutiaeLatentSubstrate</title>
<path fill="none" stroke="#000000" d="M215,-24C233.7455,-24 253.7224,-24 272.9892,-24"/>
<polygon fill="#000000" stroke="#000000" points="272.9895,-27.5001 282.9894,-24 272.9894,-20.5001 272.9895,-27.5001"/>
<text text-anchor="middle" x="249.5" y="-27.4" font-family="Helvetica,sans-Serif" font-size="12.00" fill="#000000">has&#45;a</text>
</g>
</g>
</svg>
