<?xml version="1.0" encoding="UTF-8" standalone="no"?>
<!DOCTYPE svg PUBLIC "-//W3C//DTD SVG 1.1//EN"
 "http://www.w3.org/Graphics/SVG/1.1/DTD/svg11.dtd">
<!-- Generated by graphviz version 2.40.1 (20161225.0304)
 -->
<!-- Title: graphic Pages: 1 -->
<svg width="606pt" height="45pt"
 viewBox="0.00 0.00 606.00 45.00" xmlns="http://www.w3.org/2000/svg" xmlns:xlink="http://www.w3.org/1999/xlink">
<g id="graph0" class="graph" transform="scale(1 1) rotate(0) translate(4 41)">
<title>graphic</title>
<polygon fill="#ffffff" stroke="transparent" points="-4,4 -4,-41 602,-41 602,4 -4,4"/>
<!-- m:LocationCOTPZone -->
<g id="node1" class="node">
<title>m:LocationCOTPZone</title>
<text text-anchor="start" x="237.5" y="-21.4" font-family="Helvetica,sans-Serif" font-weight="bold" font-size="12.00" fill="#000000">m:LocationCOTPZone</text>
<polygon fill="none" stroke="#ff0000" stroke-width="5" points="233.5,-14 233.5,-34 367.5,-34 367.5,-14 233.5,-14"/>
</g>
<!-- m:CaptainOfThePortZoneType -->
<g id="node3" class="node">
<title>m:CaptainOfThePortZoneType</title>
<g id="a_node3_0"><a xlink:href="../../m/CaptainOfThePortZoneType/#diagram" xlink:title="A data type for a geographical area or zone where a Coast Guard Captain of the Port (COTP) enforces port safety and security." target="_top">
<text text-anchor="start" x="431.5" y="-20.4" font-family="Helvetica,sans-Serif" font-size="12.00" fill="#000000">m:CaptainOfThePortZoneType</text>
</a>
</g>
<polygon fill="none" stroke="#000000" points="429,-15.5 429,-32.5 598,-32.5 598,-15.5 429,-15.5"/>
</g>
<!-- m:LocationCOTPZone&#45;&gt;m:CaptainOfThePortZoneType -->
<g id="edge2" class="edge">
<title>m:LocationCOTPZone&#45;&gt;m:CaptainOfThePortZoneType</title>
<path fill="none" stroke="#000000" d="M370.2442,-24C385.7172,-24 402.3701,-24 418.6551,-24"/>
<polygon fill="#000000" stroke="#000000" points="418.7335,-27.5001 428.7334,-24 418.7334,-20.5001 418.7335,-27.5001"/>
<text text-anchor="middle" x="399.5" y="-27.4" font-family="Helvetica,sans-Serif" font-size="12.00" fill="#000000">type</text>
</g>
<!-- Types -->
<g id="node2" class="node">
<title>Types</title>
<text text-anchor="start" x="2" y="-21.4" font-family="Helvetica,sans-Serif" font-weight="bold" font-size="12.00" fill="#000000">Types</text>
<g id="a_node2_1"><a xlink:href="../../m/LocationAugmentationType/#diagram" xlink:title="A data type for additional information about a location." target="_top">
<polygon fill="#ebebeb" stroke="transparent" points="1,-1 1,-16 163,-16 163,-1 1,-1"/>
<text text-anchor="start" x="2" y="-5.4" font-family="Helvetica,sans-Serif" font-size="12.00" fill="#000000">m:LocationAugmentationType</text>
</a>
</g>
<polygon fill="#000000" stroke="#000000" points="0,-16 0,-16 164,-16 164,-16 0,-16"/>
<polygon fill="none" stroke="#000000" points="0,0 0,-32 164,-32 164,0 0,0"/>
</g>
<!-- Types&#45;&gt;m:LocationCOTPZone -->
<g id="edge1" class="edge">
<title>Types:top&#45;&gt;m:LocationCOTPZone</title>
<path fill="none" stroke="#000000" d="M163,-24C181.7172,-24 201.8677,-24 220.8175,-24"/>
<polygon fill="#000000" stroke="#000000" points="220.9031,-27.5001 230.9031,-24 220.9031,-20.5001 220.9031,-27.5001"/>
<text text-anchor="middle" x="197.5" y="-27.4" font-family="Helvetica,sans-Serif" font-size="12.00" fill="#000000">has&#45;a</text>
</g>
</g>
</svg>
