<?xml version="1.0" encoding="UTF-8" standalone="no"?>
<!DOCTYPE svg PUBLIC "-//W3C//DTD SVG 1.1//EN"
 "http://www.w3.org/Graphics/SVG/1.1/DTD/svg11.dtd">
<!-- Generated by graphviz version 2.40.1 (20161225.0304)
 -->
<!-- Title: graphic Pages: 1 -->
<svg width="547pt" height="45pt"
 viewBox="0.00 0.00 547.00 45.00" xmlns="http://www.w3.org/2000/svg" xmlns:xlink="http://www.w3.org/1999/xlink">
<g id="graph0" class="graph" transform="scale(1 1) rotate(0) translate(4 41)">
<title>graphic</title>
<polygon fill="#ffffff" stroke="transparent" points="-4,4 -4,-41 543,-41 543,4 -4,4"/>
<!-- hs:AdoptionFosterCareHomeStudyText -->
<g id="node1" class="node">
<title>hs:AdoptionFosterCareHomeStudyText</title>
<text text-anchor="start" x="177" y="-21.4" font-family="Helvetica,sans-Serif" font-weight="bold" font-size="12.00" fill="#000000">hs:AdoptionFosterCareHomeStudyText</text>
<polygon fill="none" stroke="#ff0000" stroke-width="5" points="173.5,-14 173.5,-34 406.5,-34 406.5,-14 173.5,-14"/>
</g>
<!-- nc:TextType -->
<g id="node3" class="node">
<title>nc:TextType</title>
<g id="a_node3_0"><a xlink:href="../../nc/TextType/#diagram" xlink:title="A data type for a character string." target="_top">
<text text-anchor="start" x="470.5" y="-20.4" font-family="Helvetica,sans-Serif" font-size="12.00" fill="#000000">nc:TextType</text>
</a>
</g>
<polygon fill="none" stroke="#000000" points="468,-15.5 468,-32.5 539,-32.5 539,-15.5 468,-15.5"/>
</g>
<!-- hs:AdoptionFosterCareHomeStudyText&#45;&gt;nc:TextType -->
<g id="edge2" class="edge">
<title>hs:AdoptionFosterCareHomeStudyText&#45;&gt;nc:TextType</title>
<path fill="none" stroke="#000000" d="M409.2343,-24C426.4513,-24 443.229,-24 457.7429,-24"/>
<polygon fill="#000000" stroke="#000000" points="457.8851,-27.5001 467.8851,-24 457.8851,-20.5001 457.8851,-27.5001"/>
<text text-anchor="middle" x="438.5" y="-27.4" font-family="Helvetica,sans-Serif" font-size="12.00" fill="#000000">type</text>
</g>
<!-- Types -->
<g id="node2" class="node">
<title>Types</title>
<text text-anchor="start" x="2" y="-21.4" font-family="Helvetica,sans-Serif" font-weight="bold" font-size="12.00" fill="#000000">Types</text>
<g id="a_node2_1"><a xlink:href="../../hs/PlacementType/#diagram" xlink:title="A data type for the placement history of a child or youth." target="_top">
<polygon fill="#ebebeb" stroke="transparent" points="1,-1 1,-16 103,-16 103,-1 1,-1"/>
<text text-anchor="start" x="2" y="-5.4" font-family="Helvetica,sans-Serif" font-size="12.00" fill="#000000">hs:PlacementType</text>
</a>
</g>
<polygon fill="#000000" stroke="#000000" points="0,-16 0,-16 104,-16 104,-16 0,-16"/>
<polygon fill="none" stroke="#000000" points="0,0 0,-32 104,-32 104,0 0,0"/>
</g>
<!-- Types&#45;&gt;hs:AdoptionFosterCareHomeStudyText -->
<g id="edge1" class="edge">
<title>Types:top&#45;&gt;hs:AdoptionFosterCareHomeStudyText</title>
<path fill="none" stroke="#000000" d="M103,-24C121.6612,-24 141.3699,-24 160.7149,-24"/>
<polygon fill="#000000" stroke="#000000" points="160.7905,-27.5001 170.7905,-24 160.7905,-20.5001 160.7905,-27.5001"/>
<text text-anchor="middle" x="137.5" y="-27.4" font-family="Helvetica,sans-Serif" font-size="12.00" fill="#000000">has&#45;a</text>
</g>
</g>
</svg>
