<?xml version="1.0" encoding="UTF-8" standalone="no"?>
<!DOCTYPE svg PUBLIC "-//W3C//DTD SVG 1.1//EN"
 "http://www.w3.org/Graphics/SVG/1.1/DTD/svg11.dtd">
<!-- Generated by graphviz version 2.40.1 (20161225.0304)
 -->
<!-- Title: graphic Pages: 1 -->
<svg width="489pt" height="45pt"
 viewBox="0.00 0.00 489.00 45.00" xmlns="http://www.w3.org/2000/svg" xmlns:xlink="http://www.w3.org/1999/xlink">
<g id="graph0" class="graph" transform="scale(1 1) rotate(0) translate(4 41)">
<title>graphic</title>
<polygon fill="#ffffff" stroke="transparent" points="-4,4 -4,-41 485,-41 485,4 -4,4"/>
<!-- em:JobTitleOrRoleName -->
<g id="node1" class="node">
<title>em:JobTitleOrRoleName</title>
<text text-anchor="start" x="204.5" y="-21.4" font-family="Helvetica,sans-Serif" font-weight="bold" font-size="12.00" fill="#000000">em:JobTitleOrRoleName</text>
<polygon fill="none" stroke="#ff0000" stroke-width="5" points="200.5,-14 200.5,-34 348.5,-34 348.5,-14 200.5,-14"/>
</g>
<!-- nc:TextType -->
<g id="node3" class="node">
<title>nc:TextType</title>
<g id="a_node3_0"><a xlink:href="../../nc/TextType/#diagram" xlink:title="A data type for a character string." target="_top">
<text text-anchor="start" x="412.5" y="-20.4" font-family="Helvetica,sans-Serif" font-size="12.00" fill="#000000">nc:TextType</text>
</a>
</g>
<polygon fill="none" stroke="#000000" points="410,-15.5 410,-32.5 481,-32.5 481,-15.5 410,-15.5"/>
</g>
<!-- em:JobTitleOrRoleName&#45;&gt;nc:TextType -->
<g id="edge2" class="edge">
<title>em:JobTitleOrRoleName&#45;&gt;nc:TextType</title>
<path fill="none" stroke="#000000" d="M351.4959,-24C367.9027,-24 384.7314,-24 399.5331,-24"/>
<polygon fill="#000000" stroke="#000000" points="399.9178,-27.5001 409.9178,-24 399.9178,-20.5001 399.9178,-27.5001"/>
<text text-anchor="middle" x="380.5" y="-27.4" font-family="Helvetica,sans-Serif" font-size="12.00" fill="#000000">type</text>
</g>
<!-- Types -->
<g id="node2" class="node">
<title>Types</title>
<text text-anchor="start" x="2.5" y="-21.4" font-family="Helvetica,sans-Serif" font-weight="bold" font-size="12.00" fill="#000000">Types</text>
<g id="a_node2_1"><a xlink:href="../../em/JobTitleOrRoleType/#diagram" xlink:title="A data type for a credential class that represents the job title or role of a person" target="_top">
<polygon fill="#ebebeb" stroke="transparent" points="1.5,-1 1.5,-16 130.5,-16 130.5,-1 1.5,-1"/>
<text text-anchor="start" x="2.5" y="-5.4" font-family="Helvetica,sans-Serif" font-size="12.00" fill="#000000">em:JobTitleOrRoleType</text>
</a>
</g>
<polygon fill="#000000" stroke="#000000" points=".5,-16 .5,-16 131.5,-16 131.5,-16 .5,-16"/>
<polygon fill="none" stroke="#000000" points="0,0 0,-32 131,-32 131,0 0,0"/>
</g>
<!-- Types&#45;&gt;em:JobTitleOrRoleName -->
<g id="edge1" class="edge">
<title>Types:top&#45;&gt;em:JobTitleOrRoleName</title>
<path fill="none" stroke="#000000" d="M130.5,-24C149.0425,-24 168.928,-24 187.8219,-24"/>
<polygon fill="#000000" stroke="#000000" points="187.8993,-27.5001 197.8993,-24 187.8992,-20.5001 187.8993,-27.5001"/>
<text text-anchor="middle" x="164.5" y="-27.4" font-family="Helvetica,sans-Serif" font-size="12.00" fill="#000000">has&#45;a</text>
</g>
</g>
</svg>
