<?xml version="1.0" encoding="UTF-8" standalone="no"?>
<!DOCTYPE svg PUBLIC "-//W3C//DTD SVG 1.1//EN"
 "http://www.w3.org/Graphics/SVG/1.1/DTD/svg11.dtd">
<!-- Generated by graphviz version 2.40.1 (20161225.0304)
 -->
<!-- Title: graphic Pages: 1 -->
<svg width="445pt" height="45pt"
 viewBox="0.00 0.00 445.00 45.00" xmlns="http://www.w3.org/2000/svg" xmlns:xlink="http://www.w3.org/1999/xlink">
<g id="graph0" class="graph" transform="scale(1 1) rotate(0) translate(4 41)">
<title>graphic</title>
<polygon fill="#ffffff" stroke="transparent" points="-4,4 -4,-41 441,-41 441,4 -4,4"/>
<!-- j:SanctionFrequencyText -->
<g id="node1" class="node">
<title>j:SanctionFrequencyText</title>
<text text-anchor="start" x="157" y="-21.4" font-family="Helvetica,sans-Serif" font-weight="bold" font-size="12.00" fill="#000000">j:SanctionFrequencyText</text>
<polygon fill="none" stroke="#ff0000" stroke-width="5" points="153.5,-14 153.5,-34 304.5,-34 304.5,-14 153.5,-14"/>
</g>
<!-- nc:TextType -->
<g id="node3" class="node">
<title>nc:TextType</title>
<g id="a_node3_0"><a xlink:href="../../nc/TextType/#diagram" xlink:title="A data type for a character string." target="_top">
<text text-anchor="start" x="368.5" y="-20.4" font-family="Helvetica,sans-Serif" font-size="12.00" fill="#000000">nc:TextType</text>
</a>
</g>
<polygon fill="none" stroke="#000000" points="366,-15.5 366,-32.5 437,-32.5 437,-15.5 366,-15.5"/>
</g>
<!-- j:SanctionFrequencyText&#45;&gt;nc:TextType -->
<g id="edge2" class="edge">
<title>j:SanctionFrequencyText&#45;&gt;nc:TextType</title>
<path fill="none" stroke="#000000" d="M307.1746,-24C323.6731,-24 340.5691,-24 355.4195,-24"/>
<polygon fill="#000000" stroke="#000000" points="355.8364,-27.5001 365.8364,-24 355.8363,-20.5001 355.8364,-27.5001"/>
<text text-anchor="middle" x="336.5" y="-27.4" font-family="Helvetica,sans-Serif" font-size="12.00" fill="#000000">type</text>
</g>
<!-- Types -->
<g id="node2" class="node">
<title>Types</title>
<text text-anchor="start" x="2" y="-21.4" font-family="Helvetica,sans-Serif" font-weight="bold" font-size="12.00" fill="#000000">Types</text>
<g id="a_node2_1"><a xlink:href="../../j/SanctionType/#diagram" xlink:title="A data type for a sanction or penalty ordered for a subject as a result of a disposition of a charge." target="_top">
<polygon fill="#ebebeb" stroke="transparent" points="1,-1 1,-16 83,-16 83,-1 1,-1"/>
<text text-anchor="start" x="2" y="-5.4" font-family="Helvetica,sans-Serif" font-size="12.00" fill="#000000">j:SanctionType</text>
</a>
</g>
<polygon fill="#000000" stroke="#000000" points="0,-16 0,-16 84,-16 84,-16 0,-16"/>
<polygon fill="none" stroke="#000000" points="0,0 0,-32 84,-32 84,0 0,0"/>
</g>
<!-- Types&#45;&gt;j:SanctionFrequencyText -->
<g id="edge1" class="edge">
<title>Types:top&#45;&gt;j:SanctionFrequencyText</title>
<path fill="none" stroke="#000000" d="M83,-24C101.6926,-24 121.7314,-24 140.7895,-24"/>
<polygon fill="#000000" stroke="#000000" points="140.9567,-27.5001 150.9566,-24 140.9566,-20.5001 140.9567,-27.5001"/>
<text text-anchor="middle" x="117.5" y="-27.4" font-family="Helvetica,sans-Serif" font-size="12.00" fill="#000000">has&#45;a</text>
</g>
</g>
</svg>
