<?xml version="1.0" encoding="UTF-8" standalone="no"?>
<!DOCTYPE svg PUBLIC "-//W3C//DTD SVG 1.1//EN"
 "http://www.w3.org/Graphics/SVG/1.1/DTD/svg11.dtd">
<!-- Generated by graphviz version 2.40.1 (20161225.0304)
 -->
<!-- Title: graphic Pages: 1 -->
<svg width="419pt" height="161pt"
 viewBox="0.00 0.00 419.00 160.50" xmlns="http://www.w3.org/2000/svg" xmlns:xlink="http://www.w3.org/1999/xlink">
<g id="graph0" class="graph" transform="scale(1 1) rotate(0) translate(4 156.5)">
<title>graphic</title>
<polygon fill="#ffffff" stroke="transparent" points="-4,4 -4,-156.5 415,-156.5 415,4 -4,4"/>
<!-- nc:HighwayType -->
<g id="node1" class="node">
<title>nc:HighwayType</title>
<text text-anchor="start" x="176.5" y="-85.4" font-family="Helvetica,sans-Serif" font-weight="bold" font-size="12.00" fill="#000000">nc:HighwayType</text>
<g id="a_node1_0"><a xlink:href="../../nc/HighwayFullText/#diagram" xlink:title="A complete reference to a highway." target="_top">
<polygon fill="#ebebeb" stroke="transparent" points="175.5,-65 175.5,-80 406.5,-80 406.5,-65 175.5,-65"/>
<text text-anchor="start" x="176.5" y="-69.4" font-family="Helvetica,sans-Serif" font-size="12.00" fill="#000000">nc:HighwayFullText: nc:TextType [0&#45;n]</text>
</a>
</g>
<g id="a_node1_1"><a xlink:href="../../nc/HighwayName/#diagram" xlink:title="A name of a highway." target="_top">
<text text-anchor="start" x="176.5" y="-54.4" font-family="Helvetica,sans-Serif" font-size="12.00" fill="#000000">nc:HighwayName: nc:TextType [0&#45;n]</text>
</a>
</g>
<g id="a_node1_2"><a xlink:href="../../nc/HighwayID/#diagram" xlink:title="An identifier of a highway." target="_top">
<polygon fill="#ebebeb" stroke="transparent" points="175.5,-35 175.5,-50 406.5,-50 406.5,-35 175.5,-35"/>
<text text-anchor="start" x="176.5" y="-39.4" font-family="Helvetica,sans-Serif" font-size="12.00" fill="#000000">nc:HighwayID: niem&#45;xs:string [0&#45;n]</text>
</a>
</g>
<g id="a_node1_3"><a xlink:href="../../nc/HighwayPositionText/#diagram" xlink:title="A designation of a specific place on a highway." target="_top">
<text text-anchor="start" x="176.5" y="-24.4" font-family="Helvetica,sans-Serif" font-size="12.00" fill="#000000">nc:HighwayPositionText: nc:TextType [0&#45;n]</text>
</a>
</g>
<g id="a_node1_4"><a xlink:href="../../nc/HighwayAugmentationPoint/#diagram" xlink:title="An augmentation point for HighwayType." target="_top">
<polygon fill="#ebebeb" stroke="transparent" points="175.5,-5 175.5,-20 406.5,-20 406.5,-5 175.5,-5"/>
<text text-anchor="start" x="176.5" y="-9.4" font-family="Helvetica,sans-Serif" font-size="12.00" fill="#000000">nc:HighwayAugmentationPoint [0&#45;n]</text>
</a>
</g>
<polygon fill="#ff0000" stroke="#ff0000" points="170.5,-80 170.5,-80 411.5,-80 411.5,-80 170.5,-80"/>
<polygon fill="none" stroke="#ff0000" stroke-width="5" points="172.5,-2.5 172.5,-97.5 408.5,-97.5 408.5,-2.5 172.5,-2.5"/>
</g>
<!-- Properties -->
<g id="node2" class="node">
<title>Properties</title>
<text text-anchor="start" x="2.5" y="-85.4" font-family="Helvetica,sans-Serif" font-weight="bold" font-size="12.00" fill="#000000">Properties</text>
<g id="a_node2_5"><a xlink:href="../../nc/AddressHighway/#diagram" xlink:title="A major public road." target="_top">
<polygon fill="#ebebeb" stroke="transparent" points="1.5,-65 1.5,-80 110.5,-80 110.5,-65 1.5,-65"/>
<text text-anchor="start" x="2.5" y="-69.4" font-family="Helvetica,sans-Serif" font-size="12.00" fill="#000000">nc:AddressHighway</text>
</a>
</g>
<g id="a_node2_6"><a xlink:href="../../nc/Highway/#diagram" xlink:title="A major public road." target="_top">
<text text-anchor="start" x="2.5" y="-54.4" font-family="Helvetica,sans-Serif" font-size="12.00" fill="#000000">nc:Highway</text>
</a>
</g>
<polygon fill="#000000" stroke="#000000" points=".5,-80 .5,-80 111.5,-80 111.5,-80 .5,-80"/>
<polygon fill="none" stroke="#000000" points="0,-49.5 0,-96.5 111,-96.5 111,-49.5 0,-49.5"/>
</g>
<!-- Properties&#45;&gt;nc:HighwayType -->
<g id="edge1" class="edge">
<title>Properties:top&#45;&gt;nc:HighwayType:top</title>
<path fill="none" stroke="#000000" d="M110.5,-88C135.6649,-88 144.3891,-88 165.3154,-88"/>
<polygon fill="#000000" stroke="#000000" points="165.5,-91.5001 175.5,-88 165.5,-84.5001 165.5,-91.5001"/>
<text text-anchor="middle" x="140.5" y="-91.4" font-family="Helvetica,sans-Serif" font-size="12.00" fill="#000000">type</text>
</g>
<!-- structures:ObjectType -->
<g id="node3" class="node">
<title>structures:ObjectType</title>
<g id="a_node3_7"><a xlink:href="../../structures/ObjectType/#diagram" xlink:title="A data type for a thing with its own lifespan that has some existence." target="_top">
<text text-anchor="start" x="231.5" y="-140.4" font-family="Helvetica,sans-Serif" font-size="12.00" fill="#000000">structures:ObjectType</text>
</a>
</g>
<polygon fill="none" stroke="#000000" points="229.5,-135.5 229.5,-152.5 351.5,-152.5 351.5,-135.5 229.5,-135.5"/>
</g>
<!-- structures:ObjectType&#45;&gt;nc:HighwayType -->
<g id="edge2" class="edge">
<title>structures:ObjectType&#45;&gt;nc:HighwayType</title>
<path fill="none" stroke="#000000" d="M290.5,-135.375C290.5,-129.1263 290.5,-120.0624 290.5,-110.15"/>
<polygon fill="#000000" stroke="#000000" points="294.0001,-110.0274 290.5,-100.0274 287.0001,-110.0275 294.0001,-110.0274"/>
<text text-anchor="middle" x="281" y="-114.65" font-family="Helvetica,sans-Serif" font-size="12.00" fill="#000000">extension</text>
</g>
</g>
</svg>
