<?xml version="1.0" encoding="UTF-8" standalone="no"?>
<!DOCTYPE svg PUBLIC "-//W3C//DTD SVG 1.1//EN"
 "http://www.w3.org/Graphics/SVG/1.1/DTD/svg11.dtd">
<!-- Generated by graphviz version 2.40.1 (20161225.0304)
 -->
<!-- Title: graphic Pages: 1 -->
<svg width="285pt" height="86pt"
 viewBox="0.00 0.00 285.00 86.00" xmlns="http://www.w3.org/2000/svg" xmlns:xlink="http://www.w3.org/1999/xlink">
<g id="graph0" class="graph" transform="scale(1 1) rotate(0) translate(4 82)">
<title>graphic</title>
<polygon fill="#ffffff" stroke="transparent" points="-4,4 -4,-82 281,-82 281,4 -4,4"/>
<!-- geo:Ellipse -->
<g id="node1" class="node">
<title>geo:Ellipse</title>
<text text-anchor="start" x="32" y="-9.9" font-family="Helvetica,sans-Serif" font-weight="bold" font-size="12.00" fill="#000000">geo:Ellipse</text>
<polygon fill="none" stroke="#ff0000" stroke-width="5" points="28,-2.5 28,-22.5 100,-22.5 100,-2.5 28,-2.5"/>
</g>
<!-- geo:EllipseType -->
<g id="node3" class="node">
<title>geo:EllipseType</title>
<g id="a_node3_0"><a xlink:href="../../geo/EllipseType/#diagram" xlink:title="A data type for an ellipse specified by a point, major axis, minor axis and rotation." target="_top">
<text text-anchor="start" x="189" y="-8.9" font-family="Helvetica,sans-Serif" font-size="12.00" fill="#000000">geo:EllipseType</text>
</a>
</g>
<polygon fill="none" stroke="#000000" points="187,-4 187,-21 277,-21 277,-4 187,-4"/>
</g>
<!-- geo:Ellipse&#45;&gt;geo:EllipseType -->
<g id="edge2" class="edge">
<title>geo:Ellipse&#45;&gt;geo:EllipseType</title>
<path fill="none" stroke="#000000" d="M102.5426,-12.5C124.4966,-12.5 152.3789,-12.5 176.6402,-12.5"/>
<polygon fill="#000000" stroke="#000000" points="176.7884,-16.0001 186.7883,-12.5 176.7883,-9.0001 176.7884,-16.0001"/>
<text text-anchor="middle" x="157.5" y="-15.9" font-family="Helvetica,sans-Serif" font-size="12.00" fill="#000000">type</text>
</g>
<!-- SubstitutionGroup -->
<g id="node2" class="node">
<title>SubstitutionGroup</title>
<g id="a_node2_1"><a xlink:href="../../nc/AreaRegionAbstract/#diagram" xlink:title="A data concept for a location identified by geographic boundaries." target="_top">
<text text-anchor="start" x="2" y="-65.9" font-family="Helvetica,sans-Serif" font-size="12.00" fill="#000000">nc:AreaRegionAbstract</text>
</a>
</g>
<polygon fill="none" stroke="#000000" points="0,-61 0,-78 128,-78 128,-61 0,-61"/>
</g>
<!-- SubstitutionGroup&#45;&gt;geo:Ellipse -->
<g id="edge1" class="edge">
<title>SubstitutionGroup&#45;&gt;geo:Ellipse</title>
<path fill="none" stroke="#000000" d="M64,-50.9163C64,-42.4809 64,-32.7214 64,-25.1501"/>
<polygon fill="#000000" stroke="#000000" points="60.5001,-50.9472 64,-60.9473 67.5001,-50.9473 60.5001,-50.9472"/>
<text text-anchor="middle" x="54.5" y="-39.9" font-family="Helvetica,sans-Serif" font-size="12.00" fill="#000000">substitution group</text>
</g>
</g>
</svg>
