<?xml version="1.0" encoding="UTF-8" standalone="no"?>
<!DOCTYPE svg PUBLIC "-//W3C//DTD SVG 1.1//EN"
 "http://www.w3.org/Graphics/SVG/1.1/DTD/svg11.dtd">
<!-- Generated by graphviz version 2.40.1 (20161225.0304)
 -->
<!-- Title: graphic Pages: 1 -->
<svg width="527pt" height="45pt"
 viewBox="0.00 0.00 527.00 45.00" xmlns="http://www.w3.org/2000/svg" xmlns:xlink="http://www.w3.org/1999/xlink">
<g id="graph0" class="graph" transform="scale(1 1) rotate(0) translate(4 41)">
<title>graphic</title>
<polygon fill="#ffffff" stroke="transparent" points="-4,4 -4,-41 523,-41 523,4 -4,4"/>
<!-- hs:TANFMonthsEligibilityQuantity -->
<g id="node1" class="node">
<title>hs:TANFMonthsEligibilityQuantity</title>
<text text-anchor="start" x="167.5" y="-21.4" font-family="Helvetica,sans-Serif" font-weight="bold" font-size="12.00" fill="#000000">hs:TANFMonthsEligibilityQuantity</text>
<polygon fill="none" stroke="#ff0000" stroke-width="5" points="163.5,-14 163.5,-34 365.5,-34 365.5,-14 163.5,-14"/>
</g>
<!-- nc:QuantityType -->
<g id="node3" class="node">
<title>nc:QuantityType</title>
<g id="a_node3_0"><a xlink:href="../../nc/QuantityType/#diagram" xlink:title="A data type for a count or tally." target="_top">
<text text-anchor="start" x="429" y="-20.4" font-family="Helvetica,sans-Serif" font-size="12.00" fill="#000000">nc:QuantityType</text>
</a>
</g>
<polygon fill="none" stroke="#000000" points="427,-15.5 427,-32.5 519,-32.5 519,-15.5 427,-15.5"/>
</g>
<!-- hs:TANFMonthsEligibilityQuantity&#45;&gt;nc:QuantityType -->
<g id="edge2" class="edge">
<title>hs:TANFMonthsEligibilityQuantity&#45;&gt;nc:QuantityType</title>
<path fill="none" stroke="#000000" d="M368.1392,-24C384.9132,-24 401.7083,-24 416.7873,-24"/>
<polygon fill="#000000" stroke="#000000" points="416.9312,-27.5001 426.9312,-24 416.9311,-20.5001 416.9312,-27.5001"/>
<text text-anchor="middle" x="397.5" y="-27.4" font-family="Helvetica,sans-Serif" font-size="12.00" fill="#000000">type</text>
</g>
<!-- Types -->
<g id="node2" class="node">
<title>Types</title>
<text text-anchor="start" x="2" y="-21.4" font-family="Helvetica,sans-Serif" font-weight="bold" font-size="12.00" fill="#000000">Types</text>
<g id="a_node2_1"><a xlink:href="../../hs/EligibilityType/#diagram" xlink:title="A data type for a set of programs for which a person may be considered for eligibility." target="_top">
<polygon fill="#ebebeb" stroke="transparent" points="1,-1 1,-16 93,-16 93,-1 1,-1"/>
<text text-anchor="start" x="2" y="-5.4" font-family="Helvetica,sans-Serif" font-size="12.00" fill="#000000">hs:EligibilityType</text>
</a>
</g>
<polygon fill="#000000" stroke="#000000" points="0,-16 0,-16 94,-16 94,-16 0,-16"/>
<polygon fill="none" stroke="#000000" points="0,0 0,-32 94,-32 94,0 0,0"/>
</g>
<!-- Types&#45;&gt;hs:TANFMonthsEligibilityQuantity -->
<g id="edge1" class="edge">
<title>Types:top&#45;&gt;hs:TANFMonthsEligibilityQuantity</title>
<path fill="none" stroke="#000000" d="M93,-24C111.6357,-24 131.4105,-24 150.6533,-24"/>
<polygon fill="#000000" stroke="#000000" points="150.6588,-27.5001 160.6588,-24 150.6587,-20.5001 150.6588,-27.5001"/>
<text text-anchor="middle" x="127.5" y="-27.4" font-family="Helvetica,sans-Serif" font-size="12.00" fill="#000000">has&#45;a</text>
</g>
</g>
</svg>
