<?xml version="1.0" encoding="UTF-8" standalone="no"?>
<!DOCTYPE svg PUBLIC "-//W3C//DTD SVG 1.1//EN"
 "http://www.w3.org/Graphics/SVG/1.1/DTD/svg11.dtd">
<!-- Generated by graphviz version 2.40.1 (20161225.0304)
 -->
<!-- Title: graphic Pages: 1 -->
<svg width="501pt" height="45pt"
 viewBox="0.00 0.00 501.00 45.00" xmlns="http://www.w3.org/2000/svg" xmlns:xlink="http://www.w3.org/1999/xlink">
<g id="graph0" class="graph" transform="scale(1 1) rotate(0) translate(4 41)">
<title>graphic</title>
<polygon fill="#ffffff" stroke="transparent" points="-4,4 -4,-41 497,-41 497,4 -4,4"/>
<!-- j:HearingNotification -->
<g id="node1" class="node">
<title>j:HearingNotification</title>
<text text-anchor="start" x="198.5" y="-21.4" font-family="Helvetica,sans-Serif" font-weight="bold" font-size="12.00" fill="#000000">j:HearingNotification</text>
<polygon fill="none" stroke="#ff0000" stroke-width="5" points="194.5,-14 194.5,-34 320.5,-34 320.5,-14 194.5,-14"/>
</g>
<!-- em:NotificationType -->
<g id="node3" class="node">
<title>em:NotificationType</title>
<g id="a_node3_0"><a xlink:href="../../em/NotificationType/#diagram" xlink:title="A data type for the function of the message" target="_top">
<text text-anchor="start" x="384.5" y="-20.4" font-family="Helvetica,sans-Serif" font-size="12.00" fill="#000000">em:NotificationType</text>
</a>
</g>
<polygon fill="none" stroke="#000000" points="382,-15.5 382,-32.5 493,-32.5 493,-15.5 382,-15.5"/>
</g>
<!-- j:HearingNotification&#45;&gt;em:NotificationType -->
<g id="edge2" class="edge">
<title>j:HearingNotification&#45;&gt;em:NotificationType</title>
<path fill="none" stroke="#000000" d="M323.2482,-24C339.0657,-24 355.9632,-24 371.7794,-24"/>
<polygon fill="#000000" stroke="#000000" points="371.9947,-27.5001 381.9946,-24 371.9946,-20.5001 371.9947,-27.5001"/>
<text text-anchor="middle" x="352.5" y="-27.4" font-family="Helvetica,sans-Serif" font-size="12.00" fill="#000000">type</text>
</g>
<!-- Types -->
<g id="node2" class="node">
<title>Types</title>
<text text-anchor="start" x="2.5" y="-21.4" font-family="Helvetica,sans-Serif" font-weight="bold" font-size="12.00" fill="#000000">Types</text>
<g id="a_node2_1"><a xlink:href="../../j/HearingDecisionType/#diagram" xlink:title="A data type for an outcome decision or disposition of a hearing." target="_top">
<polygon fill="#ebebeb" stroke="transparent" points="1.5,-1 1.5,-16 124.5,-16 124.5,-1 1.5,-1"/>
<text text-anchor="start" x="2.5" y="-5.4" font-family="Helvetica,sans-Serif" font-size="12.00" fill="#000000">j:HearingDecisionType</text>
</a>
</g>
<polygon fill="#000000" stroke="#000000" points=".5,-16 .5,-16 125.5,-16 125.5,-16 .5,-16"/>
<polygon fill="none" stroke="#000000" points="0,0 0,-32 125,-32 125,0 0,0"/>
</g>
<!-- Types&#45;&gt;j:HearingNotification -->
<g id="edge1" class="edge">
<title>Types:top&#45;&gt;j:HearingNotification</title>
<path fill="none" stroke="#000000" d="M124.5,-24C143.0083,-24 162.9654,-24 181.6495,-24"/>
<polygon fill="#000000" stroke="#000000" points="181.8813,-27.5001 191.8813,-24 181.8812,-20.5001 181.8813,-27.5001"/>
<text text-anchor="middle" x="158.5" y="-27.4" font-family="Helvetica,sans-Serif" font-size="12.00" fill="#000000">has&#45;a</text>
</g>
</g>
</svg>
