<?xml version="1.0" encoding="UTF-8" standalone="no"?>
<!DOCTYPE svg PUBLIC "-//W3C//DTD SVG 1.1//EN"
 "http://www.w3.org/Graphics/SVG/1.1/DTD/svg11.dtd">
<!-- Generated by graphviz version 2.40.1 (20161225.0304)
 -->
<!-- Title: graphic Pages: 1 -->
<svg width="465pt" height="45pt"
 viewBox="0.00 0.00 465.00 45.00" xmlns="http://www.w3.org/2000/svg" xmlns:xlink="http://www.w3.org/1999/xlink">
<g id="graph0" class="graph" transform="scale(1 1) rotate(0) translate(4 41)">
<title>graphic</title>
<polygon fill="#ffffff" stroke="transparent" points="-4,4 -4,-41 461,-41 461,4 -4,4"/>
<!-- cbrn:ErrorCodeText -->
<g id="node1" class="node">
<title>cbrn:ErrorCodeText</title>
<text text-anchor="start" x="206.5" y="-21.4" font-family="Helvetica,sans-Serif" font-weight="bold" font-size="12.00" fill="#000000">cbrn:ErrorCodeText</text>
<polygon fill="none" stroke="#ff0000" stroke-width="5" points="202.5,-14 202.5,-34 324.5,-34 324.5,-14 202.5,-14"/>
</g>
<!-- nc:TextType -->
<g id="node3" class="node">
<title>nc:TextType</title>
<g id="a_node3_0"><a xlink:href="../../nc/TextType/#diagram" xlink:title="A data type for a character string." target="_top">
<text text-anchor="start" x="388.5" y="-20.4" font-family="Helvetica,sans-Serif" font-size="12.00" fill="#000000">nc:TextType</text>
</a>
</g>
<polygon fill="none" stroke="#000000" points="386,-15.5 386,-32.5 457,-32.5 457,-15.5 386,-15.5"/>
</g>
<!-- cbrn:ErrorCodeText&#45;&gt;nc:TextType -->
<g id="edge2" class="edge">
<title>cbrn:ErrorCodeText&#45;&gt;nc:TextType</title>
<path fill="none" stroke="#000000" d="M327.3092,-24C343.4535,-24 360.4774,-24 375.5449,-24"/>
<polygon fill="#000000" stroke="#000000" points="375.6289,-27.5001 385.6288,-24 375.6288,-20.5001 375.6289,-27.5001"/>
<text text-anchor="middle" x="356.5" y="-27.4" font-family="Helvetica,sans-Serif" font-size="12.00" fill="#000000">type</text>
</g>
<!-- Types -->
<g id="node2" class="node">
<title>Types</title>
<text text-anchor="start" x="2.5" y="-21.4" font-family="Helvetica,sans-Serif" font-weight="bold" font-size="12.00" fill="#000000">Types</text>
<g id="a_node2_1"><a xlink:href="../../cbrn/MessageErrorType/#diagram" xlink:title="A data type that describes a message error." target="_top">
<polygon fill="#ebebeb" stroke="transparent" points="1.5,-1 1.5,-16 132.5,-16 132.5,-1 1.5,-1"/>
<text text-anchor="start" x="2.5" y="-5.4" font-family="Helvetica,sans-Serif" font-size="12.00" fill="#000000">cbrn:MessageErrorType</text>
</a>
</g>
<polygon fill="#000000" stroke="#000000" points=".5,-16 .5,-16 133.5,-16 133.5,-16 .5,-16"/>
<polygon fill="none" stroke="#000000" points="0,0 0,-32 133,-32 133,0 0,0"/>
</g>
<!-- Types&#45;&gt;cbrn:ErrorCodeText -->
<g id="edge1" class="edge">
<title>Types:top&#45;&gt;cbrn:ErrorCodeText</title>
<path fill="none" stroke="#000000" d="M132.5,-24C151.0178,-24 171.0081,-24 189.6609,-24"/>
<polygon fill="#000000" stroke="#000000" points="189.8681,-27.5001 199.8681,-24 189.8681,-20.5001 189.8681,-27.5001"/>
<text text-anchor="middle" x="166.5" y="-27.4" font-family="Helvetica,sans-Serif" font-size="12.00" fill="#000000">has&#45;a</text>
</g>
</g>
</svg>
