<?xml version="1.0" encoding="UTF-8" standalone="no"?>
<!DOCTYPE svg PUBLIC "-//W3C//DTD SVG 1.1//EN"
 "http://www.w3.org/Graphics/SVG/1.1/DTD/svg11.dtd">
<!-- Generated by graphviz version 2.40.1 (20161225.0304)
 -->
<!-- Title: graphic Pages: 1 -->
<svg width="486pt" height="45pt"
 viewBox="0.00 0.00 486.00 45.00" xmlns="http://www.w3.org/2000/svg" xmlns:xlink="http://www.w3.org/1999/xlink">
<g id="graph0" class="graph" transform="scale(1 1) rotate(0) translate(4 41)">
<title>graphic</title>
<polygon fill="#ffffff" stroke="transparent" points="-4,4 -4,-41 482,-41 482,4 -4,4"/>
<!-- it:CommodityInfo -->
<g id="node1" class="node">
<title>it:CommodityInfo</title>
<text text-anchor="start" x="212" y="-21.4" font-family="Helvetica,sans-Serif" font-weight="bold" font-size="12.00" fill="#000000">it:CommodityInfo</text>
<polygon fill="none" stroke="#ff0000" stroke-width="5" points="208.5,-14 208.5,-34 315.5,-34 315.5,-14 208.5,-14"/>
</g>
<!-- it:CommodityType -->
<g id="node3" class="node">
<title>it:CommodityType</title>
<g id="a_node3_0"><a xlink:href="../../it/CommodityType/#diagram" xlink:title="A data type for a description of the nature of a goods item sufficient to identify it for customs, statistical or transport purposes." target="_top">
<text text-anchor="start" x="379.5" y="-20.4" font-family="Helvetica,sans-Serif" font-size="12.00" fill="#000000">it:CommodityType</text>
</a>
</g>
<polygon fill="none" stroke="#000000" points="377,-15.5 377,-32.5 478,-32.5 478,-15.5 377,-15.5"/>
</g>
<!-- it:CommodityInfo&#45;&gt;it:CommodityType -->
<g id="edge2" class="edge">
<title>it:CommodityInfo&#45;&gt;it:CommodityType</title>
<path fill="none" stroke="#000000" d="M318.0308,-24C333.6465,-24 350.6843,-24 366.5673,-24"/>
<polygon fill="#000000" stroke="#000000" points="366.8115,-27.5001 376.8114,-24 366.8114,-20.5001 366.8115,-27.5001"/>
<text text-anchor="middle" x="347.5" y="-27.4" font-family="Helvetica,sans-Serif" font-size="12.00" fill="#000000">type</text>
</g>
<!-- Types -->
<g id="node2" class="node">
<title>Types</title>
<text text-anchor="start" x="2.5" y="-21.4" font-family="Helvetica,sans-Serif" font-weight="bold" font-size="12.00" fill="#000000">Types</text>
<g id="a_node2_1"><a xlink:href="../../it/ShippingContainerType/#diagram" xlink:title="A data type for a reusable container for transporting goods and materials." target="_top">
<polygon fill="#ebebeb" stroke="transparent" points="1.5,-1 1.5,-16 138.5,-16 138.5,-1 1.5,-1"/>
<text text-anchor="start" x="2.5" y="-5.4" font-family="Helvetica,sans-Serif" font-size="12.00" fill="#000000">it:ShippingContainerType</text>
</a>
</g>
<polygon fill="#000000" stroke="#000000" points=".5,-16 .5,-16 139.5,-16 139.5,-16 .5,-16"/>
<polygon fill="none" stroke="#000000" points="0,0 0,-32 139,-32 139,0 0,0"/>
</g>
<!-- Types&#45;&gt;it:CommodityInfo -->
<g id="edge1" class="edge">
<title>Types:top&#45;&gt;it:CommodityInfo</title>
<path fill="none" stroke="#000000" d="M138.5,-24C157.0431,-24 177.1523,-24 195.6531,-24"/>
<polygon fill="#000000" stroke="#000000" points="195.7458,-27.5001 205.7457,-24 195.7457,-20.5001 195.7458,-27.5001"/>
<text text-anchor="middle" x="172.5" y="-27.4" font-family="Helvetica,sans-Serif" font-size="12.00" fill="#000000">has&#45;a</text>
</g>
</g>
</svg>
