<?xml version="1.0" encoding="UTF-8" standalone="no"?>
<!DOCTYPE svg PUBLIC "-//W3C//DTD SVG 1.1//EN"
 "http://www.w3.org/Graphics/SVG/1.1/DTD/svg11.dtd">
<!-- Generated by graphviz version 2.40.1 (20161225.0304)
 -->
<!-- Title: graphic Pages: 1 -->
<svg width="437pt" height="154pt"
 viewBox="0.00 0.00 437.00 153.50" xmlns="http://www.w3.org/2000/svg" xmlns:xlink="http://www.w3.org/1999/xlink">
<g id="graph0" class="graph" transform="scale(1 1) rotate(0) translate(4 149.5)">
<title>graphic</title>
<polygon fill="#ffffff" stroke="transparent" points="-4,4 -4,-149.5 433,-149.5 433,4 -4,4"/>
<!-- ndex:IndianNationCodeType -->
<g id="node1" class="node">
<title>ndex:IndianNationCodeType</title>
<text text-anchor="start" x="217" y="-25.4" font-family="Helvetica,sans-Serif" font-weight="bold" font-size="12.00" fill="#000000">ndex:IndianNationCodeType</text>
<g id="a_node1_0"><a xlink:href="../../structures/SimpleObjectAttributeGroup/#diagram" xlink:title="A group of attributes that are applicable to objects, to be used when defining a complex type that is an extension of a simple type." target="_top">
<polygon fill="#ebebeb" stroke="transparent" points="216,-5 216,-20 424,-20 424,-5 216,-5"/>
<text text-anchor="start" x="217" y="-9.4" font-family="Helvetica,sans-Serif" font-size="12.00" fill="#000000">structures:SimpleObjectAttributeGroup</text>
</a>
</g>
<polygon fill="#ff0000" stroke="#ff0000" points="211,-20 211,-20 429,-20 429,-20 211,-20"/>
<polygon fill="none" stroke="#ff0000" stroke-width="5" points="213.5,-2.5 213.5,-37.5 426.5,-37.5 426.5,-2.5 213.5,-2.5"/>
</g>
<!-- Properties -->
<g id="node2" class="node">
<title>Properties</title>
<text text-anchor="start" x="2" y="-25.4" font-family="Helvetica,sans-Serif" font-weight="bold" font-size="12.00" fill="#000000">Properties</text>
<g id="a_node2_1"><a xlink:href="../../j/LocationIndianNationCode/#diagram" xlink:title="An American Indian nation." target="_top">
<polygon fill="#ebebeb" stroke="transparent" points="1,-5 1,-20 151,-20 151,-5 1,-5"/>
<text text-anchor="start" x="2" y="-9.4" font-family="Helvetica,sans-Serif" font-size="12.00" fill="#000000">j:LocationIndianNationCode</text>
</a>
</g>
<polygon fill="#000000" stroke="#000000" points="0,-20 0,-20 152,-20 152,-20 0,-20"/>
<polygon fill="none" stroke="#000000" points="0,-4 0,-36 152,-36 152,-4 0,-4"/>
</g>
<!-- Properties&#45;&gt;ndex:IndianNationCodeType -->
<g id="edge1" class="edge">
<title>Properties:top&#45;&gt;ndex:IndianNationCodeType:top</title>
<path fill="none" stroke="#000000" d="M151,-28C176.1649,-28 184.8891,-28 205.8154,-28"/>
<polygon fill="#000000" stroke="#000000" points="206,-31.5001 216,-28 206,-24.5001 206,-31.5001"/>
<text text-anchor="middle" x="181.5" y="-31.4" font-family="Helvetica,sans-Serif" font-size="12.00" fill="#000000">type</text>
</g>
<!-- ndex:IndianNationCodeSimpleType -->
<g id="node3" class="node">
<title>ndex:IndianNationCodeSimpleType</title>
<g id="a_node3_2"><a xlink:href="../../ndex/IndianNationCodeSimpleType/#diagram" xlink:title="A data type for a code that identifies an American Indian nation." target="_top">
<text text-anchor="start" x="226" y="-80.4" font-family="Helvetica,sans-Serif" font-size="12.00" fill="#000000">ndex:IndianNationCodeSimpleType</text>
</a>
</g>
<polygon fill="none" stroke="#000000" points="223.5,-75.5 223.5,-92.5 416.5,-92.5 416.5,-75.5 223.5,-75.5"/>
</g>
<!-- ndex:IndianNationCodeSimpleType&#45;&gt;ndex:IndianNationCodeType -->
<g id="edge2" class="edge">
<title>ndex:IndianNationCodeSimpleType&#45;&gt;ndex:IndianNationCodeType</title>
<path fill="none" stroke="#000000" d="M320,-75.4351C320,-68.931 320,-59.5678 320,-50.3827"/>
<polygon fill="#000000" stroke="#000000" points="323.5001,-50.25 320,-40.25 316.5001,-50.25 323.5001,-50.25"/>
<text text-anchor="middle" x="310.5" y="-54.65" font-family="Helvetica,sans-Serif" font-size="12.00" fill="#000000">extension</text>
</g>
<!-- xs:token -->
<g id="node4" class="node">
<title>xs:token</title>
<g id="a_node4_3"><a xlink:href="../../xs/token/#diagram" xlink:title="&lt;TABLE&gt;" target="_top">
<text text-anchor="start" x="298" y="-133.4" font-family="Helvetica,sans-Serif" font-size="12.00" fill="#000000">xs:token</text>
</a>
</g>
<polygon fill="none" stroke="#000000" points="295.5,-128.5 295.5,-145.5 344.5,-145.5 344.5,-128.5 295.5,-128.5"/>
</g>
<!-- xs:token&#45;&gt;ndex:IndianNationCodeSimpleType -->
<g id="edge3" class="edge">
<title>xs:token&#45;&gt;ndex:IndianNationCodeSimpleType</title>
<path fill="none" stroke="#000000" d="M320,-128.411C320,-121.5124 320,-111.5696 320,-102.84"/>
<polygon fill="#000000" stroke="#000000" points="323.5001,-102.7518 320,-92.7519 316.5001,-102.7519 323.5001,-102.7518"/>
<text text-anchor="middle" x="310.5" y="-107.4" font-family="Helvetica,sans-Serif" font-size="12.00" fill="#000000">restriction</text>
</g>
</g>
</svg>
