<?xml version="1.0" encoding="UTF-8" standalone="no"?>
<!DOCTYPE svg PUBLIC "-//W3C//DTD SVG 1.1//EN"
 "http://www.w3.org/Graphics/SVG/1.1/DTD/svg11.dtd">
<!-- Generated by graphviz version 2.40.1 (20161225.0304)
 -->
<!-- Title: graphic Pages: 1 -->
<svg width="564pt" height="236pt"
 viewBox="0.00 0.00 564.00 236.00" xmlns="http://www.w3.org/2000/svg" xmlns:xlink="http://www.w3.org/1999/xlink">
<g id="graph0" class="graph" transform="scale(1 1) rotate(0) translate(4 232)">
<title>graphic</title>
<polygon fill="#ffffff" stroke="transparent" points="-4,4 -4,-232 560,-232 560,4 -4,4"/>
<!-- mo:SettingType -->
<g id="node1" class="node">
<title>mo:SettingType</title>
<text text-anchor="start" x="235.5" y="-159.9" font-family="Helvetica,sans-Serif" font-weight="bold" font-size="12.00" fill="#000000">mo:SettingType</text>
<g id="a_node1_0"><a xlink:href="../../mo/SettingID/#diagram" xlink:title="An identifier of a setting." target="_top">
<polygon fill="#ebebeb" stroke="transparent" points="234.5,-139.5 234.5,-154.5 551.5,-154.5 551.5,-139.5 234.5,-139.5"/>
<text text-anchor="start" x="235.5" y="-143.9" font-family="Helvetica,sans-Serif" font-size="12.00" fill="#000000">mo:SettingID: niem&#45;xs:string [0&#45;n]</text>
</a>
</g>
<g id="a_node1_1"><a xlink:href="../../mo/SettingName/#diagram" xlink:title="A name of a setting." target="_top">
<text text-anchor="start" x="235.5" y="-128.9" font-family="Helvetica,sans-Serif" font-size="12.00" fill="#000000">mo:SettingName: nc:TextType [0&#45;n]</text>
</a>
</g>
<g id="a_node1_2"><a xlink:href="../../mo/SettingDescriptionText/#diagram" xlink:title="A description of a setting." target="_top">
<polygon fill="#ebebeb" stroke="transparent" points="234.5,-109.5 234.5,-124.5 551.5,-124.5 551.5,-109.5 234.5,-109.5"/>
<text text-anchor="start" x="235.5" y="-113.9" font-family="Helvetica,sans-Serif" font-size="12.00" fill="#000000">mo:SettingDescriptionText: nc:TextType [0&#45;n]</text>
</a>
</g>
<g id="a_node1_3"><a xlink:href="../../mo/SettingData/#diagram" xlink:title="A value or set of data for a setting." target="_top">
<text text-anchor="start" x="235.5" y="-98.9" font-family="Helvetica,sans-Serif" font-size="12.00" fill="#000000">mo:SettingData: mo:SettingDataType [0&#45;n]</text>
</a>
</g>
<g id="a_node1_4"><a xlink:href="../../mo/SettingPresetData/#diagram" xlink:title="An original value or set of data given for a setting." target="_top">
<polygon fill="#ebebeb" stroke="transparent" points="234.5,-79.5 234.5,-94.5 551.5,-94.5 551.5,-79.5 234.5,-79.5"/>
<text text-anchor="start" x="235.5" y="-83.9" font-family="Helvetica,sans-Serif" font-size="12.00" fill="#000000">mo:SettingPresetData: mo:SettingDataType [0&#45;n]</text>
</a>
</g>
<g id="a_node1_5"><a xlink:href="../../mo/SettingEnabledIndicator/#diagram" xlink:title="True if a setting is enabled; false otherwise." target="_top">
<text text-anchor="start" x="235.5" y="-68.9" font-family="Helvetica,sans-Serif" font-size="12.00" fill="#000000">mo:SettingEnabledIndicator: niem&#45;xs:boolean [0&#45;n]</text>
</a>
</g>
<g id="a_node1_6"><a xlink:href="../../mo/SettingReadOnlyIndicator/#diagram" xlink:title="True if a setting is read only; false otherwise." target="_top">
<polygon fill="#ebebeb" stroke="transparent" points="234.5,-49.5 234.5,-64.5 551.5,-64.5 551.5,-49.5 234.5,-49.5"/>
<text text-anchor="start" x="235.5" y="-53.9" font-family="Helvetica,sans-Serif" font-size="12.00" fill="#000000">mo:SettingReadOnlyIndicator: niem&#45;xs:boolean [0&#45;n]</text>
</a>
</g>
<g id="a_node1_7"><a xlink:href="../../mo/SettingExclusiveControlIndicator/#diagram" xlink:title="True if a setting requires exclusive control; false otherwise." target="_top">
<text text-anchor="start" x="235.5" y="-38.9" font-family="Helvetica,sans-Serif" font-size="12.00" fill="#000000">mo:SettingExclusiveControlIndicator: niem&#45;xs:boolean [0&#45;n]</text>
</a>
</g>
<g id="a_node1_8"><a xlink:href="../../mo/SettingDisplayElementAbstract/#diagram" xlink:title="A data concept for a kind of element that may be used to represent the setting in a user display." target="_top">
<polygon fill="#ebebeb" stroke="transparent" points="234.5,-19.5 234.5,-34.5 551.5,-34.5 551.5,-19.5 234.5,-19.5"/>
<text text-anchor="start" x="235.5" y="-23.9" font-family="Helvetica,sans-Serif" font-size="12.00" fill="#000000">mo:SettingDisplayElementAbstract [0&#45;n]</text>
</a>
</g>
<g id="a_node1_9"><a xlink:href="../../mo/SettingAugmentationPoint/#diagram" xlink:title="An augmentation point for type mo:SettingType" target="_top">
<text text-anchor="start" x="235.5" y="-8.9" font-family="Helvetica,sans-Serif" font-size="12.00" fill="#000000">mo:SettingAugmentationPoint [0&#45;n]</text>
</a>
</g>
<polygon fill="#ff0000" stroke="#ff0000" points="229.5,-154.5 229.5,-154.5 556.5,-154.5 556.5,-154.5 229.5,-154.5"/>
<polygon fill="none" stroke="#ff0000" stroke-width="5" points="231.5,-2.5 231.5,-172.5 553.5,-172.5 553.5,-2.5 231.5,-2.5"/>
</g>
<!-- Properties -->
<g id="node2" class="node">
<title>Properties</title>
<text text-anchor="start" x="2" y="-159.9" font-family="Helvetica,sans-Serif" font-weight="bold" font-size="12.00" fill="#000000">Properties</text>
<g id="a_node2_10"><a xlink:href="../../mo/DeviceConfigurationSetting/#diagram" xlink:title="A set of information about a configuration setting." target="_top">
<polygon fill="#ebebeb" stroke="transparent" points="1,-139.5 1,-154.5 169,-154.5 169,-139.5 1,-139.5"/>
<text text-anchor="start" x="2" y="-143.9" font-family="Helvetica,sans-Serif" font-size="12.00" fill="#000000">mo:DeviceConfigurationSetting</text>
</a>
</g>
<g id="a_node2_11"><a xlink:href="../../mo/Setting/#diagram" xlink:title="A set of information about a configuration setting." target="_top">
<text text-anchor="start" x="2" y="-128.9" font-family="Helvetica,sans-Serif" font-size="12.00" fill="#000000">mo:Setting</text>
</a>
</g>
<polygon fill="#000000" stroke="#000000" points="0,-154.5 0,-154.5 170,-154.5 170,-154.5 0,-154.5"/>
<polygon fill="none" stroke="#000000" points="0,-124 0,-171 170,-171 170,-124 0,-124"/>
</g>
<!-- Properties&#45;&gt;mo:SettingType -->
<g id="edge1" class="edge">
<title>Properties:top&#45;&gt;mo:SettingType:top</title>
<path fill="none" stroke="#000000" d="M169,-162.5C194.3585,-162.5 203.1498,-162.5 224.2371,-162.5"/>
<polygon fill="#000000" stroke="#000000" points="224.5,-166.0001 234.5,-162.5 224.5,-159.0001 224.5,-166.0001"/>
<text text-anchor="middle" x="199.5" y="-165.9" font-family="Helvetica,sans-Serif" font-size="12.00" fill="#000000">type</text>
</g>
<!-- structures:ObjectType -->
<g id="node3" class="node">
<title>structures:ObjectType</title>
<g id="a_node3_12"><a xlink:href="../../structures/ObjectType/#diagram" xlink:title="A data type for a thing with its own lifespan that has some existence." target="_top">
<text text-anchor="start" x="333.5" y="-215.9" font-family="Helvetica,sans-Serif" font-size="12.00" fill="#000000">structures:ObjectType</text>
</a>
</g>
<polygon fill="none" stroke="#000000" points="331.5,-211 331.5,-228 453.5,-228 453.5,-211 331.5,-211"/>
</g>
<!-- structures:ObjectType&#45;&gt;mo:SettingType -->
<g id="edge2" class="edge">
<title>structures:ObjectType&#45;&gt;mo:SettingType</title>
<path fill="none" stroke="#000000" d="M392.5,-210.9836C392.5,-204.7984 392.5,-195.6933 392.5,-185.1828"/>
<polygon fill="#000000" stroke="#000000" points="396.0001,-185.1787 392.5,-175.1787 389.0001,-185.1787 396.0001,-185.1787"/>
<text text-anchor="middle" x="383" y="-189.9" font-family="Helvetica,sans-Serif" font-size="12.00" fill="#000000">extension</text>
</g>
</g>
</svg>
