<?xml version="1.0" encoding="UTF-8" standalone="no"?>
<!DOCTYPE svg PUBLIC "-//W3C//DTD SVG 1.1//EN"
 "http://www.w3.org/Graphics/SVG/1.1/DTD/svg11.dtd">
<!-- Generated by graphviz version 2.40.1 (20161225.0304)
 -->
<!-- Title: graphic Pages: 1 -->
<svg width="1059pt" height="266pt"
 viewBox="0.00 0.00 1059.00 266.00" xmlns="http://www.w3.org/2000/svg" xmlns:xlink="http://www.w3.org/1999/xlink">
<g id="graph0" class="graph" transform="scale(1 1) rotate(0) translate(4 262)">
<title>graphic</title>
<polygon fill="#ffffff" stroke="transparent" points="-4,4 -4,-262 1055,-262 1055,4 -4,4"/>
<!-- m:HazmatDeclarationType -->
<g id="node1" class="node">
<title>m:HazmatDeclarationType</title>
<text text-anchor="start" x="236.5" y="-189.9" font-family="Helvetica,sans-Serif" font-weight="bold" font-size="12.00" fill="#000000">m:HazmatDeclarationType</text>
<g id="a_node1_0"><a xlink:href="../../m/HazmatDeclarationChemicalCommonName/#diagram" xlink:title="A name of a chemical that is commonly used." target="_top">
<polygon fill="#ebebeb" stroke="transparent" points="235.5,-169.5 235.5,-184.5 648.5,-184.5 648.5,-169.5 235.5,-169.5"/>
<text text-anchor="start" x="236.5" y="-173.9" font-family="Helvetica,sans-Serif" font-size="12.00" fill="#000000">m:HazmatDeclarationChemicalCommonName: nc:TextType [0&#45;n]</text>
</a>
</g>
<g id="a_node1_1"><a xlink:href="../../m/HazmatDeclarationContactInformation/#diagram" xlink:title="A point of contact (POC) for a hazmat declaration." target="_top">
<text text-anchor="start" x="236.5" y="-158.9" font-family="Helvetica,sans-Serif" font-size="12.00" fill="#000000">m:HazmatDeclarationContactInformation: nc:ContactInformationType [0&#45;n]</text>
</a>
</g>
<g id="a_node1_2"><a xlink:href="../../m/HazmatDeclarationDescriptionText/#diagram" xlink:title="A description of a hazardous material listed on a hazmat declaration." target="_top">
<polygon fill="#ebebeb" stroke="transparent" points="235.5,-139.5 235.5,-154.5 648.5,-154.5 648.5,-139.5 235.5,-139.5"/>
<text text-anchor="start" x="236.5" y="-143.9" font-family="Helvetica,sans-Serif" font-size="12.00" fill="#000000">m:HazmatDeclarationDescriptionText: nc:TextType [0&#45;n]</text>
</a>
</g>
<g id="a_node1_3"><a xlink:href="../../m/HazmatDeclarationDestinationLocation/#diagram" xlink:title="An intended destination for a hazardous material listed on a hazmat declaration." target="_top">
<text text-anchor="start" x="236.5" y="-128.9" font-family="Helvetica,sans-Serif" font-size="12.00" fill="#000000">m:HazmatDeclarationDestinationLocation: nc:LocationType [0&#45;n]</text>
</a>
</g>
<g id="a_node1_4"><a xlink:href="../../m/HazmatDeclarationFlashPointMeasure/#diagram" xlink:title="A measure of the lowest temperature at which a hazardous material can form an ignitable mixture in air." target="_top">
<polygon fill="#ebebeb" stroke="transparent" points="235.5,-109.5 235.5,-124.5 648.5,-124.5 648.5,-109.5 235.5,-109.5"/>
<text text-anchor="start" x="236.5" y="-113.9" font-family="Helvetica,sans-Serif" font-size="12.00" fill="#000000">m:HazmatDeclarationFlashPointMeasure: nc:TemperatureMeasureType [0&#45;n]</text>
</a>
</g>
<g id="a_node1_5"><a xlink:href="../../m/HazmatDeclarationHazardLevelAbstract/#diagram" xlink:title="A data concept for an assessment of the degree of hazard pertaining to a hazardous material." target="_top">
<text text-anchor="start" x="236.5" y="-98.9" font-family="Helvetica,sans-Serif" font-size="12.00" fill="#000000">m:HazmatDeclarationHazardLevelAbstract [0&#45;n]</text>
</a>
</g>
<g id="a_node1_6"><a xlink:href="../../m/HazmatDeclarationHazmatClassAbstract/#diagram" xlink:title="A data concept for a US DOT (U.S. Department of Transportation) hazmat class pertaining to a hazardous material." target="_top">
<polygon fill="#ebebeb" stroke="transparent" points="235.5,-79.5 235.5,-94.5 648.5,-94.5 648.5,-79.5 235.5,-79.5"/>
<text text-anchor="start" x="236.5" y="-83.9" font-family="Helvetica,sans-Serif" font-size="12.00" fill="#000000">m:HazmatDeclarationHazmatClassAbstract [0&#45;n]</text>
</a>
</g>
<g id="a_node1_7"><a xlink:href="../../m/HazmatDeclarationMaterialAmountMeasure/#diagram" xlink:title="A measure of the amount, weight, volume, or mass of a hazardous material." target="_top">
<text text-anchor="start" x="236.5" y="-68.9" font-family="Helvetica,sans-Serif" font-size="12.00" fill="#000000">m:HazmatDeclarationMaterialAmountMeasure: nc:MeasureType [0&#45;n]</text>
</a>
</g>
<g id="a_node1_8"><a xlink:href="../../m/HazmatDeclarationOriginLocation/#diagram" xlink:title="An origin of a hazardous material." target="_top">
<polygon fill="#ebebeb" stroke="transparent" points="235.5,-49.5 235.5,-64.5 648.5,-64.5 648.5,-49.5 235.5,-49.5"/>
<text text-anchor="start" x="236.5" y="-53.9" font-family="Helvetica,sans-Serif" font-size="12.00" fill="#000000">m:HazmatDeclarationOriginLocation: nc:LocationType [0&#45;n]</text>
</a>
</g>
<g id="a_node1_9"><a xlink:href="../../m/HazmatDeclarationUNHazmatCode/#diagram" xlink:title="A United Nations/North American (UN/NA) Hazardous Materials Code pertaining to a hazardous material." target="_top">
<text text-anchor="start" x="236.5" y="-38.9" font-family="Helvetica,sans-Serif" font-size="12.00" fill="#000000">m:HazmatDeclarationUNHazmatCode: hazmat:HazmatCodeType [0&#45;n]</text>
</a>
</g>
<g id="a_node1_10"><a xlink:href="../../m/HazmatDeclarationUNHazmatPageText/#diagram" xlink:title="A set of textual content of a hazmat declaration page." target="_top">
<polygon fill="#ebebeb" stroke="transparent" points="235.5,-19.5 235.5,-34.5 648.5,-34.5 648.5,-19.5 235.5,-19.5"/>
<text text-anchor="start" x="236.5" y="-23.9" font-family="Helvetica,sans-Serif" font-size="12.00" fill="#000000">m:HazmatDeclarationUNHazmatPageText: nc:TextType [0&#45;n]</text>
</a>
</g>
<g id="a_node1_11"><a xlink:href="../../m/HazmatDeclarationAugmentationPoint/#diagram" xlink:title="An augmentation point for HazmatDeclarationType." target="_top">
<text text-anchor="start" x="236.5" y="-8.9" font-family="Helvetica,sans-Serif" font-size="12.00" fill="#000000">m:HazmatDeclarationAugmentationPoint [0&#45;n]</text>
</a>
</g>
<polygon fill="#ff0000" stroke="#ff0000" points="230.5,-184.5 230.5,-184.5 653.5,-184.5 653.5,-184.5 230.5,-184.5"/>
<polygon fill="none" stroke="#ff0000" stroke-width="5" points="232.5,-2.5 232.5,-202.5 650.5,-202.5 650.5,-2.5 232.5,-2.5"/>
</g>
<!-- subst_d9e3460 -->
<g id="node2" class="node">
<title>subst_d9e3460</title>
<g id="a_node2_12"><a xlink:href="../../m/HazmatDeclarationHazardLevelAbstract/#diagram" xlink:title="&lt;TABLE&gt;" target="_top">
<text text-anchor="start" x="694.5" y="-116.9" font-family="Helvetica,sans-Serif" font-weight="bold" font-size="12.00" fill="#000000">Substitution group m:HazmatDeclarationHazardLevelAbstract</text>
</a>
</g>
<g id="a_node2_13"><a xlink:href="../../m/HazmatDeclarationHazardLevelMeasure/#diagram" xlink:title="An assessment of the degree of hazard pertaining to a hazardous material." target="_top">
<polygon fill="#ebebeb" stroke="transparent" points="693.5,-96.5 693.5,-111.5 1048.5,-111.5 1048.5,-96.5 693.5,-96.5"/>
<text text-anchor="start" x="694.5" y="-100.9" font-family="Helvetica,sans-Serif" font-size="12.00" fill="#000000">m:HazmatDeclarationHazardLevelMeasure: nc:MeasureType</text>
</a>
</g>
<polygon fill="#000000" stroke="#000000" points="692.5,-111.5 692.5,-111.5 1049.5,-111.5 1049.5,-111.5 692.5,-111.5"/>
<polygon fill="none" stroke="#000000" points="692,-95.5 692,-127.5 1049,-127.5 1049,-95.5 692,-95.5"/>
</g>
<!-- m:HazmatDeclarationType&#45;&gt;subst_d9e3460 -->
<g id="edge1" class="edge">
<title>m:HazmatDeclarationType:e&#45;&gt;subst_d9e3460:w</title>
<path fill="none" stroke="#000000" d="M658.4388,-103.0347C671.3637,-107.3876 675.8299,-119.5 693.5,-119.5"/>
<polygon fill="#000000" stroke="#000000" points="658.917,-99.5671 648.5,-101.5 657.8487,-106.4851 658.917,-99.5671"/>
</g>
<!-- subst_d9e3476 -->
<g id="node3" class="node">
<title>subst_d9e3476</title>
<g id="a_node3_14"><a xlink:href="../../m/HazmatDeclarationHazmatClassAbstract/#diagram" xlink:title="&lt;TABLE&gt;" target="_top">
<text text-anchor="start" x="692.5" y="-66.9" font-family="Helvetica,sans-Serif" font-weight="bold" font-size="12.00" fill="#000000">Substitution group m:HazmatDeclarationHazmatClassAbstract</text>
</a>
</g>
<g id="a_node3_15"><a xlink:href="../../m/HazmatDeclarationHazmatClassText/#diagram" xlink:title="A US DOT (U.S. Department of Transportation) hazmat class pertaining to a hazardous material." target="_top">
<polygon fill="#ebebeb" stroke="transparent" points="691.5,-46.5 691.5,-61.5 1050.5,-61.5 1050.5,-46.5 691.5,-46.5"/>
<text text-anchor="start" x="692.5" y="-50.9" font-family="Helvetica,sans-Serif" font-size="12.00" fill="#000000">m:HazmatDeclarationHazmatClassText: nc:TextType</text>
</a>
</g>
<polygon fill="#000000" stroke="#000000" points="690.5,-61.5 690.5,-61.5 1051.5,-61.5 1051.5,-61.5 690.5,-61.5"/>
<polygon fill="none" stroke="#000000" points="690,-45.5 690,-77.5 1051,-77.5 1051,-45.5 690,-45.5"/>
</g>
<!-- m:HazmatDeclarationType&#45;&gt;subst_d9e3476 -->
<g id="edge2" class="edge">
<title>m:HazmatDeclarationType:e&#45;&gt;subst_d9e3476:w</title>
<path fill="none" stroke="#000000" d="M658.6847,-84.8078C670.5038,-80.5079 674.9633,-69.5 691.5,-69.5"/>
<polygon fill="#000000" stroke="#000000" points="657.7911,-81.4082 648.5,-86.5 658.9385,-88.3136 657.7911,-81.4082"/>
</g>
<!-- Properties -->
<g id="node4" class="node">
<title>Properties</title>
<text text-anchor="start" x="2.5" y="-189.9" font-family="Helvetica,sans-Serif" font-weight="bold" font-size="12.00" fill="#000000">Properties</text>
<g id="a_node4_16"><a xlink:href="../../m/CargoHazmatDeclaration/#diagram" xlink:title="A declaration for hazardous materials in cargo." target="_top">
<polygon fill="#ebebeb" stroke="transparent" points="1.5,-169.5 1.5,-184.5 170.5,-184.5 170.5,-169.5 1.5,-169.5"/>
<text text-anchor="start" x="2.5" y="-173.9" font-family="Helvetica,sans-Serif" font-size="12.00" fill="#000000">m:CargoHazmatDeclaration</text>
</a>
</g>
<g id="a_node4_17"><a xlink:href="../../m/HazmatDeclaration/#diagram" xlink:title="A declaration of hazardous materials within transported goods." target="_top">
<text text-anchor="start" x="2.5" y="-158.9" font-family="Helvetica,sans-Serif" font-size="12.00" fill="#000000">m:HazmatDeclaration</text>
</a>
</g>
<g id="a_node4_18"><a xlink:href="../../m/ShipmentHazmatDeclaration/#diagram" xlink:title="A hazmat declaration for hazardous materials in a shipment." target="_top">
<polygon fill="#ebebeb" stroke="transparent" points="1.5,-139.5 1.5,-154.5 170.5,-154.5 170.5,-139.5 1.5,-139.5"/>
<text text-anchor="start" x="2.5" y="-143.9" font-family="Helvetica,sans-Serif" font-size="12.00" fill="#000000">m:ShipmentHazmatDeclaration</text>
</a>
</g>
<polygon fill="#000000" stroke="#000000" points=".5,-184.5 .5,-184.5 171.5,-184.5 171.5,-184.5 .5,-184.5"/>
<polygon fill="none" stroke="#000000" points="0,-138.5 0,-200.5 171,-200.5 171,-138.5 0,-138.5"/>
</g>
<!-- Properties&#45;&gt;m:HazmatDeclarationType -->
<g id="edge3" class="edge">
<title>Properties:top&#45;&gt;m:HazmatDeclarationType:top</title>
<path fill="none" stroke="#000000" d="M170.5,-192.5C195.6649,-192.5 204.3891,-192.5 225.3154,-192.5"/>
<polygon fill="#000000" stroke="#000000" points="225.5,-196.0001 235.5,-192.5 225.5,-189.0001 225.5,-196.0001"/>
<text text-anchor="middle" x="200.5" y="-195.9" font-family="Helvetica,sans-Serif" font-size="12.00" fill="#000000">type</text>
</g>
<!-- structures:ObjectType -->
<g id="node5" class="node">
<title>structures:ObjectType</title>
<g id="a_node5_19"><a xlink:href="../../structures/ObjectType/#diagram" xlink:title="A data type for a thing with its own lifespan that has some existence." target="_top">
<text text-anchor="start" x="382.5" y="-245.9" font-family="Helvetica,sans-Serif" font-size="12.00" fill="#000000">structures:ObjectType</text>
</a>
</g>
<polygon fill="none" stroke="#000000" points="380.5,-241 380.5,-258 502.5,-258 502.5,-241 380.5,-241"/>
</g>
<!-- structures:ObjectType&#45;&gt;m:HazmatDeclarationType -->
<g id="edge4" class="edge">
<title>structures:ObjectType&#45;&gt;m:HazmatDeclarationType</title>
<path fill="none" stroke="#000000" d="M441.5,-240.8397C441.5,-234.7941 441.5,-225.9801 441.5,-215.6817"/>
<polygon fill="#000000" stroke="#000000" points="445.0001,-215.3951 441.5,-205.3952 438.0001,-215.3952 445.0001,-215.3951"/>
<text text-anchor="middle" x="432" y="-219.9" font-family="Helvetica,sans-Serif" font-size="12.00" fill="#000000">extension</text>
</g>
</g>
</svg>
