<?xml version="1.0" encoding="UTF-8" standalone="no"?>
<!DOCTYPE svg PUBLIC "-//W3C//DTD SVG 1.1//EN"
 "http://www.w3.org/Graphics/SVG/1.1/DTD/svg11.dtd">
<!-- Generated by graphviz version 2.40.1 (20161225.0304)
 -->
<!-- Title: graphic Pages: 1 -->
<svg width="264pt" height="86pt"
 viewBox="0.00 0.00 264.00 86.00" xmlns="http://www.w3.org/2000/svg" xmlns:xlink="http://www.w3.org/1999/xlink">
<g id="graph0" class="graph" transform="scale(1 1) rotate(0) translate(4 82)">
<title>graphic</title>
<polygon fill="#ffffff" stroke="transparent" points="-4,4 -4,-82 260,-82 260,4 -4,4"/>
<!-- j:ItemSeizingEntity -->
<g id="node1" class="node">
<title>j:ItemSeizingEntity</title>
<text text-anchor="start" x="6" y="-9.9" font-family="Helvetica,sans-Serif" font-weight="bold" font-size="12.00" fill="#000000">j:ItemSeizingEntity</text>
<polygon fill="none" stroke="#ff0000" stroke-width="5" points="2.5,-2.5 2.5,-22.5 117.5,-22.5 117.5,-2.5 2.5,-2.5"/>
</g>
<!-- nc:EntityType -->
<g id="node3" class="node">
<title>nc:EntityType</title>
<g id="a_node3_0"><a xlink:href="../../nc/EntityType/#diagram" xlink:title="A data type for a person, organization, or item." target="_top">
<text text-anchor="start" x="181.5" y="-8.9" font-family="Helvetica,sans-Serif" font-size="12.00" fill="#000000">nc:EntityType</text>
</a>
</g>
<polygon fill="none" stroke="#000000" points="179,-4 179,-21 256,-21 256,-4 179,-4"/>
</g>
<!-- j:ItemSeizingEntity&#45;&gt;nc:EntityType -->
<g id="edge2" class="edge">
<title>j:ItemSeizingEntity&#45;&gt;nc:EntityType</title>
<path fill="none" stroke="#000000" d="M120.4432,-12.5C136.3726,-12.5 153.3599,-12.5 168.5975,-12.5"/>
<polygon fill="#000000" stroke="#000000" points="168.8326,-16.0001 178.8325,-12.5 168.8325,-9.0001 168.8326,-16.0001"/>
<text text-anchor="middle" x="149.5" y="-15.9" font-family="Helvetica,sans-Serif" font-size="12.00" fill="#000000">type</text>
</g>
<!-- SubstitutionGroup -->
<g id="node2" class="node">
<title>SubstitutionGroup</title>
<g id="a_node2_1"><a xlink:href="../../j/ItemSeizerAbstract/#diagram" xlink:title="A data concept for an entity which removes an item from the possession of the owner for official purposes." target="_top">
<text text-anchor="start" x="6" y="-65.9" font-family="Helvetica,sans-Serif" font-size="12.00" fill="#000000">j:ItemSeizerAbstract</text>
</a>
</g>
<polygon fill="none" stroke="#000000" points="4,-61 4,-78 116,-78 116,-61 4,-61"/>
</g>
<!-- SubstitutionGroup&#45;&gt;j:ItemSeizingEntity -->
<g id="edge1" class="edge">
<title>SubstitutionGroup&#45;&gt;j:ItemSeizingEntity</title>
<path fill="none" stroke="#000000" d="M60,-50.9163C60,-42.4809 60,-32.7214 60,-25.1501"/>
<polygon fill="#000000" stroke="#000000" points="56.5001,-50.9472 60,-60.9473 63.5001,-50.9473 56.5001,-50.9472"/>
<text text-anchor="middle" x="50.5" y="-39.9" font-family="Helvetica,sans-Serif" font-size="12.00" fill="#000000">substitution group</text>
</g>
</g>
</svg>
