<?xml version="1.0" encoding="UTF-8" standalone="no"?>
<!DOCTYPE svg PUBLIC "-//W3C//DTD SVG 1.1//EN"
 "http://www.w3.org/Graphics/SVG/1.1/DTD/svg11.dtd">
<!-- Generated by graphviz version 2.40.1 (20161225.0304)
 -->
<!-- Title: graphic Pages: 1 -->
<svg width="941pt" height="243pt"
 viewBox="0.00 0.00 941.00 242.50" xmlns="http://www.w3.org/2000/svg" xmlns:xlink="http://www.w3.org/1999/xlink">
<g id="graph0" class="graph" transform="scale(1 1) rotate(0) translate(4 238.5)">
<title>graphic</title>
<polygon fill="#ffffff" stroke="transparent" points="-4,4 -4,-238.5 937,-238.5 937,4 -4,4"/>
<!-- it:AdditionalDocumentType -->
<g id="node1" class="node">
<title>it:AdditionalDocumentType</title>
<text text-anchor="start" x="186.5" y="-114.4" font-family="Helvetica,sans-Serif" font-weight="bold" font-size="12.00" fill="#000000">it:AdditionalDocumentType</text>
<g id="a_node1_0"><a xlink:href="../../it/AdditionalDocumentName/#diagram" xlink:title="A name for the Additional Document" target="_top">
<polygon fill="#ebebeb" stroke="transparent" points="185.5,-94 185.5,-109 486.5,-109 486.5,-94 185.5,-94"/>
<text text-anchor="start" x="186.5" y="-98.4" font-family="Helvetica,sans-Serif" font-size="12.00" fill="#000000">it:AdditionalDocumentName: nc:TextType [0&#45;n]</text>
</a>
</g>
<g id="a_node1_1"><a xlink:href="../../it/AdditionalDocumentRefNumberID/#diagram" xlink:title="An identifier for the Additional Document." target="_top">
<text text-anchor="start" x="186.5" y="-83.4" font-family="Helvetica,sans-Serif" font-size="12.00" fill="#000000">it:AdditionalDocumentRefNumberID: niem&#45;xs:string [0&#45;n]</text>
</a>
</g>
<g id="a_node1_2"><a xlink:href="../../nc/Address/#diagram" xlink:title="A set of location information, often described by postal information." target="_top">
<polygon fill="#ebebeb" stroke="transparent" points="185.5,-64 185.5,-79 486.5,-79 486.5,-64 185.5,-64"/>
<text text-anchor="start" x="186.5" y="-68.4" font-family="Helvetica,sans-Serif" font-size="12.00" fill="#000000">nc:Address: nc:AddressType [0&#45;n]</text>
</a>
</g>
<g id="a_node1_3"><a xlink:href="../../it/AdditionalDocumentCategoryAbstract/#diagram" xlink:title="A data concept for a code specifying the category of AdditionalDocument" target="_top">
<text text-anchor="start" x="186.5" y="-53.4" font-family="Helvetica,sans-Serif" font-size="12.00" fill="#000000">it:AdditionalDocumentCategoryAbstract [0&#45;n]</text>
</a>
</g>
<g id="a_node1_4"><a xlink:href="../../it/AdditionalDocumentAugmentationPoint/#diagram" xlink:title="An augmentation point for AdditionalDocumentType." target="_top">
<polygon fill="#ebebeb" stroke="transparent" points="185.5,-34 185.5,-49 486.5,-49 486.5,-34 185.5,-34"/>
<text text-anchor="start" x="186.5" y="-38.4" font-family="Helvetica,sans-Serif" font-size="12.00" fill="#000000">it:AdditionalDocumentAugmentationPoint [0&#45;n]</text>
</a>
</g>
<polygon fill="#ff0000" stroke="#ff0000" points="180.5,-109 180.5,-109 491.5,-109 491.5,-109 180.5,-109"/>
<polygon fill="none" stroke="#ff0000" stroke-width="5" points="182.5,-31.5 182.5,-126.5 488.5,-126.5 488.5,-31.5 182.5,-31.5"/>
</g>
<!-- subst_d13e9122 -->
<g id="node2" class="node">
<title>subst_d13e9122</title>
<g id="a_node2_5"><a xlink:href="../../nc/Address/#diagram" xlink:title="&lt;TABLE&gt;" target="_top">
<text text-anchor="start" x="617.5" y="-101.4" font-family="Helvetica,sans-Serif" font-weight="bold" font-size="12.00" fill="#000000">Substitution group nc:Address</text>
</a>
</g>
<g id="a_node2_6"><a xlink:href="../../im/NaturalizationAddress/#diagram" xlink:title="A location address where the alien was naturalized as a U.S. Citizen" target="_top">
<polygon fill="#ebebeb" stroke="transparent" points="616.5,-81 616.5,-96 845.5,-96 845.5,-81 616.5,-81"/>
<text text-anchor="start" x="617.5" y="-85.4" font-family="Helvetica,sans-Serif" font-size="12.00" fill="#000000">im:NaturalizationAddress: nc:AddressType</text>
</a>
</g>
<g id="a_node2_7"><a xlink:href="../../nc/MailingAddress/#diagram" xlink:title="A mailing address for a location. This may or may not be the same as the location&#39;s physical address." target="_top">
<text text-anchor="start" x="617.5" y="-70.4" font-family="Helvetica,sans-Serif" font-size="12.00" fill="#000000">nc:MailingAddress: nc:AddressType</text>
</a>
</g>
<g id="a_node2_8"><a xlink:href="../../nc/PhysicalAddress/#diagram" xlink:title="A physical address for a location. This may or may not be the same as the location&#39;s mailing address." target="_top">
<polygon fill="#ebebeb" stroke="transparent" points="616.5,-51 616.5,-66 845.5,-66 845.5,-51 616.5,-51"/>
<text text-anchor="start" x="617.5" y="-55.4" font-family="Helvetica,sans-Serif" font-size="12.00" fill="#000000">nc:PhysicalAddress: nc:AddressType</text>
</a>
</g>
<polygon fill="#000000" stroke="#000000" points="615.5,-96 615.5,-96 846.5,-96 846.5,-96 615.5,-96"/>
<polygon fill="none" stroke="#000000" points="615,-50 615,-112 846,-112 846,-50 615,-50"/>
</g>
<!-- it:AdditionalDocumentType&#45;&gt;subst_d13e9122 -->
<g id="edge1" class="edge">
<title>it:AdditionalDocumentType:e&#45;&gt;subst_d13e9122:w</title>
<path fill="none" stroke="#000000" d="M496.4951,-71.3266C547.5411,-74.7539 560.3825,-104 616.5,-104"/>
<polygon fill="#000000" stroke="#000000" points="496.609,-67.8286 486.5,-71 496.3803,-74.8248 496.609,-67.8286"/>
</g>
<!-- subst_d9e2792 -->
<g id="node3" class="node">
<title>subst_d9e2792</title>
<g id="a_node3_9"><a xlink:href="../../it/AdditionalDocumentCategoryAbstract/#diagram" xlink:title="&lt;TABLE&gt;" target="_top">
<text text-anchor="start" x="530.5" y="-21.4" font-family="Helvetica,sans-Serif" font-weight="bold" font-size="12.00" fill="#000000">Substitution group it:AdditionalDocumentCategoryAbstract</text>
</a>
</g>
<g id="a_node3_10"><a xlink:href="../../it/AdditionalDocumentCategoryCode/#diagram" xlink:title="A Code specifying the category of AdditionalDocument" target="_top">
<polygon fill="#ebebeb" stroke="transparent" points="529.5,-1 529.5,-16 932.5,-16 932.5,-1 529.5,-1"/>
<text text-anchor="start" x="530.5" y="-5.4" font-family="Helvetica,sans-Serif" font-size="12.00" fill="#000000">it:AdditionalDocumentCategoryCode: itcodes:DocumentCategoryCodeType</text>
</a>
</g>
<polygon fill="#000000" stroke="#000000" points="528.5,-16 528.5,-16 933.5,-16 933.5,-16 528.5,-16"/>
<polygon fill="none" stroke="#000000" points="528,0 528,-32 933,-32 933,0 528,0"/>
</g>
<!-- it:AdditionalDocumentType&#45;&gt;subst_d9e2792 -->
<g id="edge2" class="edge">
<title>it:AdditionalDocumentType:e&#45;&gt;subst_d9e2792:w</title>
<path fill="none" stroke="#000000" d="M496.5496,-53.489C509.5667,-45.9453 509.7721,-24 529.5,-24"/>
<polygon fill="#000000" stroke="#000000" points="495.3533,-50.1803 486.5,-56 497.0502,-56.9715 495.3533,-50.1803"/>
</g>
<!-- Properties -->
<g id="node4" class="node">
<title>Properties</title>
<text text-anchor="start" x="2.5" y="-114.4" font-family="Helvetica,sans-Serif" font-weight="bold" font-size="12.00" fill="#000000">Properties</text>
<g id="a_node4_11"><a xlink:href="../../it/AdditionalDocument/#diagram" xlink:title="An applied augmentation for type nc:DocumentType." target="_top">
<polygon fill="#ebebeb" stroke="transparent" points="1.5,-94 1.5,-109 120.5,-109 120.5,-94 1.5,-94"/>
<text text-anchor="start" x="2.5" y="-98.4" font-family="Helvetica,sans-Serif" font-size="12.00" fill="#000000">it:AdditionalDocument</text>
</a>
</g>
<polygon fill="#000000" stroke="#000000" points=".5,-109 .5,-109 121.5,-109 121.5,-109 .5,-109"/>
<polygon fill="none" stroke="#000000" points="0,-93 0,-125 121,-125 121,-93 0,-93"/>
</g>
<!-- Properties&#45;&gt;it:AdditionalDocumentType -->
<g id="edge3" class="edge">
<title>Properties:top&#45;&gt;it:AdditionalDocumentType:top</title>
<path fill="none" stroke="#000000" d="M120.5,-117C145.6649,-117 154.3891,-117 175.3154,-117"/>
<polygon fill="#000000" stroke="#000000" points="175.5,-120.5001 185.5,-117 175.5,-113.5001 175.5,-120.5001"/>
<text text-anchor="middle" x="150.5" y="-120.4" font-family="Helvetica,sans-Serif" font-size="12.00" fill="#000000">type</text>
</g>
<!-- nc:DocumentType -->
<g id="node5" class="node">
<title>nc:DocumentType</title>
<g id="a_node5_12"><a xlink:href="../../nc/DocumentType/#diagram" xlink:title="A data type for a paper or electronic document." target="_top">
<text text-anchor="start" x="286.5" y="-169.4" font-family="Helvetica,sans-Serif" font-size="12.00" fill="#000000">nc:DocumentType</text>
</a>
</g>
<polygon fill="none" stroke="#000000" points="284.5,-164.5 284.5,-181.5 386.5,-181.5 386.5,-164.5 284.5,-164.5"/>
</g>
<!-- nc:DocumentType&#45;&gt;it:AdditionalDocumentType -->
<g id="edge4" class="edge">
<title>nc:DocumentType&#45;&gt;it:AdditionalDocumentType</title>
<path fill="none" stroke="#000000" d="M335.5,-164.375C335.5,-158.1263 335.5,-149.0624 335.5,-139.15"/>
<polygon fill="#000000" stroke="#000000" points="339.0001,-139.0274 335.5,-129.0274 332.0001,-139.0275 339.0001,-139.0274"/>
<text text-anchor="middle" x="326" y="-143.65" font-family="Helvetica,sans-Serif" font-size="12.00" fill="#000000">extension</text>
</g>
<!-- structures:ObjectType -->
<g id="node6" class="node">
<title>structures:ObjectType</title>
<g id="a_node6_13"><a xlink:href="../../structures/ObjectType/#diagram" xlink:title="A data type for a thing with its own lifespan that has some existence." target="_top">
<text text-anchor="start" x="276.5" y="-222.4" font-family="Helvetica,sans-Serif" font-size="12.00" fill="#000000">structures:ObjectType</text>
</a>
</g>
<polygon fill="none" stroke="#000000" points="274.5,-217.5 274.5,-234.5 396.5,-234.5 396.5,-217.5 274.5,-217.5"/>
</g>
<!-- structures:ObjectType&#45;&gt;nc:DocumentType -->
<g id="edge5" class="edge">
<title>structures:ObjectType&#45;&gt;nc:DocumentType</title>
<path fill="none" stroke="#000000" d="M335.5,-217.411C335.5,-210.5124 335.5,-200.5696 335.5,-191.84"/>
<polygon fill="#000000" stroke="#000000" points="339.0001,-191.7518 335.5,-181.7519 332.0001,-191.7519 339.0001,-191.7518"/>
<text text-anchor="middle" x="326" y="-196.4" font-family="Helvetica,sans-Serif" font-size="12.00" fill="#000000">extension</text>
</g>
</g>
</svg>
