<?xml version="1.0" encoding="UTF-8" standalone="no"?>
<!DOCTYPE svg PUBLIC "-//W3C//DTD SVG 1.1//EN"
 "http://www.w3.org/Graphics/SVG/1.1/DTD/svg11.dtd">
<!-- Generated by graphviz version 2.40.1 (20161225.0304)
 -->
<!-- Title: graphic Pages: 1 -->
<svg width="605pt" height="45pt"
 viewBox="0.00 0.00 605.00 45.00" xmlns="http://www.w3.org/2000/svg" xmlns:xlink="http://www.w3.org/1999/xlink">
<g id="graph0" class="graph" transform="scale(1 1) rotate(0) translate(4 41)">
<title>graphic</title>
<polygon fill="#ffffff" stroke="transparent" points="-4,4 -4,-41 601,-41 601,4 -4,4"/>
<!-- biom:MinutiaeFingerLocation -->
<g id="node1" class="node">
<title>biom:MinutiaeFingerLocation</title>
<text text-anchor="start" x="179" y="-21.4" font-family="Helvetica,sans-Serif" font-weight="bold" font-size="12.00" fill="#000000">biom:MinutiaeFingerLocation</text>
<polygon fill="none" stroke="#ff0000" stroke-width="5" points="175.5,-14 175.5,-34 350.5,-34 350.5,-14 175.5,-14"/>
</g>
<!-- biom:MinutiaeFingerLocationType -->
<g id="node3" class="node">
<title>biom:MinutiaeFingerLocationType</title>
<g id="a_node3_0"><a xlink:href="../../biom/MinutiaeFingerLocationType/#diagram" xlink:title="A data type for a finger position, segment, off&#45;center code, and polygon location within an image" target="_top">
<text text-anchor="start" x="414.5" y="-20.4" font-family="Helvetica,sans-Serif" font-size="12.00" fill="#000000">biom:MinutiaeFingerLocationType</text>
</a>
</g>
<polygon fill="none" stroke="#000000" points="412,-15.5 412,-32.5 597,-32.5 597,-15.5 412,-15.5"/>
</g>
<!-- biom:MinutiaeFingerLocation&#45;&gt;biom:MinutiaeFingerLocationType -->
<g id="edge2" class="edge">
<title>biom:MinutiaeFingerLocation&#45;&gt;biom:MinutiaeFingerLocationType</title>
<path fill="none" stroke="#000000" d="M353.2691,-24C369.1345,-24 385.7512,-24 401.9227,-24"/>
<polygon fill="#000000" stroke="#000000" points="401.9236,-27.5001 411.9236,-24 401.9236,-20.5001 401.9236,-27.5001"/>
<text text-anchor="middle" x="382.5" y="-27.4" font-family="Helvetica,sans-Serif" font-size="12.00" fill="#000000">type</text>
</g>
<!-- Types -->
<g id="node2" class="node">
<title>Types</title>
<text text-anchor="start" x="2" y="-21.4" font-family="Helvetica,sans-Serif" font-weight="bold" font-size="12.00" fill="#000000">Types</text>
<g id="a_node2_1"><a xlink:href="../../biom/MinutiaeType/#diagram" xlink:title="A data type for a set of minutiae definitions" target="_top">
<polygon fill="#ebebeb" stroke="transparent" points="1,-1 1,-16 105,-16 105,-1 1,-1"/>
<text text-anchor="start" x="2" y="-5.4" font-family="Helvetica,sans-Serif" font-size="12.00" fill="#000000">biom:MinutiaeType</text>
</a>
</g>
<polygon fill="#000000" stroke="#000000" points="0,-16 0,-16 106,-16 106,-16 0,-16"/>
<polygon fill="none" stroke="#000000" points="0,0 0,-32 106,-32 106,0 0,0"/>
</g>
<!-- Types&#45;&gt;biom:MinutiaeFingerLocation -->
<g id="edge1" class="edge">
<title>Types:top&#45;&gt;biom:MinutiaeFingerLocation</title>
<path fill="none" stroke="#000000" d="M105,-24C123.6013,-24 143.4345,-24 162.5417,-24"/>
<polygon fill="#000000" stroke="#000000" points="162.7621,-27.5001 172.762,-24 162.762,-20.5001 162.7621,-27.5001"/>
<text text-anchor="middle" x="139.5" y="-27.4" font-family="Helvetica,sans-Serif" font-size="12.00" fill="#000000">has&#45;a</text>
</g>
</g>
</svg>
