<?xml version="1.0" encoding="UTF-8" standalone="no"?>
<!DOCTYPE svg PUBLIC "-//W3C//DTD SVG 1.1//EN"
 "http://www.w3.org/Graphics/SVG/1.1/DTD/svg11.dtd">
<!-- Generated by graphviz version 2.40.1 (20161225.0304)
 -->
<!-- Title: graphic Pages: 1 -->
<svg width="475pt" height="154pt"
 viewBox="0.00 0.00 475.00 153.50" xmlns="http://www.w3.org/2000/svg" xmlns:xlink="http://www.w3.org/1999/xlink">
<g id="graph0" class="graph" transform="scale(1 1) rotate(0) translate(4 149.5)">
<title>graphic</title>
<polygon fill="#ffffff" stroke="transparent" points="-4,4 -4,-149.5 471,-149.5 471,4 -4,4"/>
<!-- ag_codes:OriginatorIdentificationIDType -->
<g id="node1" class="node">
<title>ag_codes:OriginatorIdentificationIDType</title>
<text text-anchor="start" x="223.5" y="-25.4" font-family="Helvetica,sans-Serif" font-weight="bold" font-size="12.00" fill="#000000">ag_codes:OriginatorIdentificationIDType</text>
<g id="a_node1_0"><a xlink:href="../../structures/SimpleObjectAttributeGroup/#diagram" xlink:title="A group of attributes that are applicable to objects, to be used when defining a complex type that is an extension of a simple type." target="_top">
<polygon fill="#ebebeb" stroke="transparent" points="222.5,-5 222.5,-20 457.5,-20 457.5,-5 222.5,-5"/>
<text text-anchor="start" x="223.5" y="-9.4" font-family="Helvetica,sans-Serif" font-size="12.00" fill="#000000">structures:SimpleObjectAttributeGroup</text>
</a>
</g>
<polygon fill="#ff0000" stroke="#ff0000" points="217.5,-20 217.5,-20 462.5,-20 462.5,-20 217.5,-20"/>
<polygon fill="none" stroke="#ff0000" stroke-width="5" points="219.5,-2.5 219.5,-37.5 459.5,-37.5 459.5,-2.5 219.5,-2.5"/>
</g>
<!-- Properties -->
<g id="node2" class="node">
<title>Properties</title>
<text text-anchor="start" x="2.5" y="-25.4" font-family="Helvetica,sans-Serif" font-weight="bold" font-size="12.00" fill="#000000">Properties</text>
<g id="a_node2_1"><a xlink:href="../../ag/OriginatorIdentificationID/#diagram" xlink:title="An identifier of the entity responsible for originating/publishing data." target="_top">
<polygon fill="#ebebeb" stroke="transparent" points="1.5,-5 1.5,-20 152.5,-20 152.5,-5 1.5,-5"/>
<text text-anchor="start" x="2.5" y="-9.4" font-family="Helvetica,sans-Serif" font-size="12.00" fill="#000000">ag:OriginatorIdentificationID</text>
</a>
</g>
<polygon fill="#000000" stroke="#000000" points=".5,-20 .5,-20 153.5,-20 153.5,-20 .5,-20"/>
<polygon fill="none" stroke="#000000" points="0,-4 0,-36 153,-36 153,-4 0,-4"/>
</g>
<!-- Properties&#45;&gt;ag_codes:OriginatorIdentificationIDType -->
<g id="edge1" class="edge">
<title>Properties:top&#45;&gt;ag_codes:OriginatorIdentificationIDType:top</title>
<path fill="none" stroke="#000000" d="M152.5,-28C179.9653,-28 189.2455,-28 212.4487,-28"/>
<polygon fill="#000000" stroke="#000000" points="212.5,-31.5001 222.5,-28 212.5,-24.5001 212.5,-31.5001"/>
<text text-anchor="middle" x="182.5" y="-31.4" font-family="Helvetica,sans-Serif" font-size="12.00" fill="#000000">type</text>
</g>
<!-- ag_codes:OriginatorIdentificationIDSimpleType -->
<g id="node3" class="node">
<title>ag_codes:OriginatorIdentificationIDSimpleType</title>
<g id="a_node3_2"><a xlink:href="../../ag_codes/OriginatorIdentificationIDSimpleType/#diagram" xlink:title="A data type for identifying the entity responsible for originating/publishing data." target="_top">
<text text-anchor="start" x="214.5" y="-80.4" font-family="Helvetica,sans-Serif" font-size="12.00" fill="#000000">ag_codes:OriginatorIdentificationIDSimpleType</text>
</a>
</g>
<polygon fill="none" stroke="#000000" points="212,-75.5 212,-92.5 467,-92.5 467,-75.5 212,-75.5"/>
</g>
<!-- ag_codes:OriginatorIdentificationIDSimpleType&#45;&gt;ag_codes:OriginatorIdentificationIDType -->
<g id="edge2" class="edge">
<title>ag_codes:OriginatorIdentificationIDSimpleType&#45;&gt;ag_codes:OriginatorIdentificationIDType</title>
<path fill="none" stroke="#000000" d="M339.5,-75.4351C339.5,-68.931 339.5,-59.5678 339.5,-50.3827"/>
<polygon fill="#000000" stroke="#000000" points="343.0001,-50.25 339.5,-40.25 336.0001,-50.25 343.0001,-50.25"/>
<text text-anchor="middle" x="330" y="-54.65" font-family="Helvetica,sans-Serif" font-size="12.00" fill="#000000">extension</text>
</g>
<!-- xs:string -->
<g id="node4" class="node">
<title>xs:string</title>
<g id="a_node4_3"><a xlink:href="../../xs/string/#diagram" xlink:title="&lt;TABLE&gt;" target="_top">
<text text-anchor="start" x="317.5" y="-133.4" font-family="Helvetica,sans-Serif" font-size="12.00" fill="#000000">xs:string</text>
</a>
</g>
<polygon fill="none" stroke="#000000" points="315,-128.5 315,-145.5 364,-145.5 364,-128.5 315,-128.5"/>
</g>
<!-- xs:string&#45;&gt;ag_codes:OriginatorIdentificationIDSimpleType -->
<g id="edge3" class="edge">
<title>xs:string&#45;&gt;ag_codes:OriginatorIdentificationIDSimpleType</title>
<path fill="none" stroke="#000000" d="M339.5,-128.411C339.5,-121.5124 339.5,-111.5696 339.5,-102.84"/>
<polygon fill="#000000" stroke="#000000" points="343.0001,-102.7518 339.5,-92.7519 336.0001,-102.7519 343.0001,-102.7518"/>
<text text-anchor="middle" x="330" y="-107.4" font-family="Helvetica,sans-Serif" font-size="12.00" fill="#000000">restriction</text>
</g>
</g>
</svg>
