<?xml version="1.0" encoding="UTF-8" standalone="no"?>
<!DOCTYPE svg PUBLIC "-//W3C//DTD SVG 1.1//EN"
 "http://www.w3.org/Graphics/SVG/1.1/DTD/svg11.dtd">
<!-- Generated by graphviz version 2.40.1 (20161225.0304)
 -->
<!-- Title: graphic Pages: 1 -->
<svg width="669pt" height="45pt"
 viewBox="0.00 0.00 669.00 45.00" xmlns="http://www.w3.org/2000/svg" xmlns:xlink="http://www.w3.org/1999/xlink">
<g id="graph0" class="graph" transform="scale(1 1) rotate(0) translate(4 41)">
<title>graphic</title>
<polygon fill="#ffffff" stroke="transparent" points="-4,4 -4,-41 665,-41 665,4 -4,4"/>
<!-- biom:MinutiaeFeatureDetectionFieldListText -->
<g id="node1" class="node">
<title>biom:MinutiaeFeatureDetectionFieldListText</title>
<text text-anchor="start" x="271" y="-21.4" font-family="Helvetica,sans-Serif" font-weight="bold" font-size="12.00" fill="#000000">biom:MinutiaeFeatureDetectionFieldListText</text>
<polygon fill="none" stroke="#ff0000" stroke-width="5" points="267.5,-14 267.5,-34 528.5,-34 528.5,-14 267.5,-14"/>
</g>
<!-- nc:TextType -->
<g id="node3" class="node">
<title>nc:TextType</title>
<g id="a_node3_0"><a xlink:href="../../nc/TextType/#diagram" xlink:title="A data type for a character string." target="_top">
<text text-anchor="start" x="592.5" y="-20.4" font-family="Helvetica,sans-Serif" font-size="12.00" fill="#000000">nc:TextType</text>
</a>
</g>
<polygon fill="none" stroke="#000000" points="590,-15.5 590,-32.5 661,-32.5 661,-15.5 590,-15.5"/>
</g>
<!-- biom:MinutiaeFeatureDetectionFieldListText&#45;&gt;nc:TextType -->
<g id="edge2" class="edge">
<title>biom:MinutiaeFeatureDetectionFieldListText&#45;&gt;nc:TextType</title>
<path fill="none" stroke="#000000" d="M531.3248,-24C548.6491,-24 565.3488,-24 579.7507,-24"/>
<polygon fill="#000000" stroke="#000000" points="579.8076,-27.5001 589.8075,-24 579.8075,-20.5001 579.8076,-27.5001"/>
<text text-anchor="middle" x="560.5" y="-27.4" font-family="Helvetica,sans-Serif" font-size="12.00" fill="#000000">type</text>
</g>
<!-- Types -->
<g id="node2" class="node">
<title>Types</title>
<text text-anchor="start" x="2" y="-21.4" font-family="Helvetica,sans-Serif" font-weight="bold" font-size="12.00" fill="#000000">Types</text>
<g id="a_node2_1"><a xlink:href="../../biom/MinutiaeFeatureDetectionType/#diagram" xlink:title="A data type for a detection and encoding of minutiae" target="_top">
<polygon fill="#ebebeb" stroke="transparent" points="1,-1 1,-16 197,-16 197,-1 1,-1"/>
<text text-anchor="start" x="2" y="-5.4" font-family="Helvetica,sans-Serif" font-size="12.00" fill="#000000">biom:MinutiaeFeatureDetectionType</text>
</a>
</g>
<polygon fill="#000000" stroke="#000000" points="0,-16 0,-16 198,-16 198,-16 0,-16"/>
<polygon fill="none" stroke="#000000" points="0,0 0,-32 198,-32 198,0 0,0"/>
</g>
<!-- Types&#45;&gt;biom:MinutiaeFeatureDetectionFieldListText -->
<g id="edge1" class="edge">
<title>Types:top&#45;&gt;biom:MinutiaeFeatureDetectionFieldListText</title>
<path fill="none" stroke="#000000" d="M197,-24C215.6468,-24 235.2666,-24 254.6408,-24"/>
<polygon fill="#000000" stroke="#000000" points="254.7435,-27.5001 264.7435,-24 254.7434,-20.5001 254.7435,-27.5001"/>
<text text-anchor="middle" x="231.5" y="-27.4" font-family="Helvetica,sans-Serif" font-size="12.00" fill="#000000">has&#45;a</text>
</g>
</g>
</svg>
