<?xml version="1.0" encoding="UTF-8" standalone="no"?>
<!DOCTYPE svg PUBLIC "-//W3C//DTD SVG 1.1//EN"
 "http://www.w3.org/Graphics/SVG/1.1/DTD/svg11.dtd">
<!-- Generated by graphviz version 2.40.1 (20161225.0304)
 -->
<!-- Title: graphic Pages: 1 -->
<svg width="476pt" height="86pt"
 viewBox="0.00 0.00 476.00 86.00" xmlns="http://www.w3.org/2000/svg" xmlns:xlink="http://www.w3.org/1999/xlink">
<g id="graph0" class="graph" transform="scale(1 1) rotate(0) translate(4 82)">
<title>graphic</title>
<polygon fill="#ffffff" stroke="transparent" points="-4,4 -4,-82 472,-82 472,4 -4,4"/>
<!-- j:InformationSourceCategoryCode -->
<g id="node1" class="node">
<title>j:InformationSourceCategoryCode</title>
<text text-anchor="start" x="6.5" y="-9.9" font-family="Helvetica,sans-Serif" font-weight="bold" font-size="12.00" fill="#000000">j:InformationSourceCategoryCode</text>
<polygon fill="none" stroke="#ff0000" stroke-width="5" points="2.5,-2.5 2.5,-22.5 206.5,-22.5 206.5,-2.5 2.5,-2.5"/>
</g>
<!-- mmucc:InformationSourceCodeType -->
<g id="node3" class="node">
<title>mmucc:InformationSourceCodeType</title>
<g id="a_node3_0"><a xlink:href="../../mmucc/InformationSourceCodeType/#diagram" xlink:title="A data type for an affiliation of the person completing the crash report such as Source of Information" target="_top">
<text text-anchor="start" x="270" y="-8.9" font-family="Helvetica,sans-Serif" font-size="12.00" fill="#000000">mmucc:InformationSourceCodeType</text>
</a>
</g>
<polygon fill="none" stroke="#000000" points="268,-4 268,-21 468,-21 468,-4 268,-4"/>
</g>
<!-- j:InformationSourceCategoryCode&#45;&gt;mmucc:InformationSourceCodeType -->
<g id="edge2" class="edge">
<title>j:InformationSourceCategoryCode&#45;&gt;mmucc:InformationSourceCodeType</title>
<path fill="none" stroke="#000000" d="M209.0206,-12.5C225.0844,-12.5 241.7128,-12.5 257.8934,-12.5"/>
<polygon fill="#000000" stroke="#000000" points="257.9013,-16.0001 267.9012,-12.5 257.9012,-9.0001 257.9013,-16.0001"/>
<text text-anchor="middle" x="238.5" y="-15.9" font-family="Helvetica,sans-Serif" font-size="12.00" fill="#000000">type</text>
</g>
<!-- SubstitutionGroup -->
<g id="node2" class="node">
<title>SubstitutionGroup</title>
<g id="a_node2_1"><a xlink:href="../../j/InformationSourceCategoryAbstract/#diagram" xlink:title="A data concept for a source of information for the crash report." target="_top">
<text text-anchor="start" x="6.5" y="-65.9" font-family="Helvetica,sans-Serif" font-size="12.00" fill="#000000">j:InformationSourceCategoryAbstract</text>
</a>
</g>
<polygon fill="none" stroke="#000000" points="4,-61 4,-78 205,-78 205,-61 4,-61"/>
</g>
<!-- SubstitutionGroup&#45;&gt;j:InformationSourceCategoryCode -->
<g id="edge1" class="edge">
<title>SubstitutionGroup&#45;&gt;j:InformationSourceCategoryCode</title>
<path fill="none" stroke="#000000" d="M104.5,-50.9163C104.5,-42.4809 104.5,-32.7214 104.5,-25.1501"/>
<polygon fill="#000000" stroke="#000000" points="101.0001,-50.9472 104.5,-60.9473 108.0001,-50.9473 101.0001,-50.9472"/>
<text text-anchor="middle" x="95" y="-39.9" font-family="Helvetica,sans-Serif" font-size="12.00" fill="#000000">substitution group</text>
</g>
</g>
</svg>
