<?xml version="1.0" encoding="UTF-8" standalone="no"?>
<!DOCTYPE svg PUBLIC "-//W3C//DTD SVG 1.1//EN"
 "http://www.w3.org/Graphics/SVG/1.1/DTD/svg11.dtd">
<!-- Generated by graphviz version 2.40.1 (20161225.0304)
 -->
<!-- Title: graphic Pages: 1 -->
<svg width="520pt" height="154pt"
 viewBox="0.00 0.00 520.00 153.50" xmlns="http://www.w3.org/2000/svg" xmlns:xlink="http://www.w3.org/1999/xlink">
<g id="graph0" class="graph" transform="scale(1 1) rotate(0) translate(4 149.5)">
<title>graphic</title>
<polygon fill="#ffffff" stroke="transparent" points="-4,4 -4,-149.5 516,-149.5 516,4 -4,4"/>
<!-- cbrncl:CaseRelationshipKindCodeType -->
<g id="node1" class="node">
<title>cbrncl:CaseRelationshipKindCodeType</title>
<text text-anchor="start" x="274" y="-25.4" font-family="Helvetica,sans-Serif" font-weight="bold" font-size="12.00" fill="#000000">cbrncl:CaseRelationshipKindCodeType</text>
<g id="a_node1_0"><a xlink:href="../../structures/SimpleObjectAttributeGroup/#diagram" xlink:title="A group of attributes that are applicable to objects, to be used when defining a complex type that is an extension of a simple type." target="_top">
<polygon fill="#ebebeb" stroke="transparent" points="273,-5 273,-20 501,-20 501,-5 273,-5"/>
<text text-anchor="start" x="274" y="-9.4" font-family="Helvetica,sans-Serif" font-size="12.00" fill="#000000">structures:SimpleObjectAttributeGroup</text>
</a>
</g>
<polygon fill="#ff0000" stroke="#ff0000" points="268,-20 268,-20 506,-20 506,-20 268,-20"/>
<polygon fill="none" stroke="#ff0000" stroke-width="5" points="270.5,-2.5 270.5,-37.5 503.5,-37.5 503.5,-2.5 270.5,-2.5"/>
</g>
<!-- Properties -->
<g id="node2" class="node">
<title>Properties</title>
<text text-anchor="start" x="2.5" y="-25.4" font-family="Helvetica,sans-Serif" font-weight="bold" font-size="12.00" fill="#000000">Properties</text>
<g id="a_node2_1"><a xlink:href="../../cbrn/CaseRelationshipRoleKindCode/#diagram" xlink:title="A kind of relationship role played between two cases." target="_top">
<polygon fill="#ebebeb" stroke="transparent" points="1.5,-5 1.5,-20 202.5,-20 202.5,-5 1.5,-5"/>
<text text-anchor="start" x="2.5" y="-9.4" font-family="Helvetica,sans-Serif" font-size="12.00" fill="#000000">cbrn:CaseRelationshipRoleKindCode</text>
</a>
</g>
<polygon fill="#000000" stroke="#000000" points=".5,-20 .5,-20 203.5,-20 203.5,-20 .5,-20"/>
<polygon fill="none" stroke="#000000" points="0,-4 0,-36 203,-36 203,-4 0,-4"/>
</g>
<!-- Properties&#45;&gt;cbrncl:CaseRelationshipKindCodeType -->
<g id="edge1" class="edge">
<title>Properties:top&#45;&gt;cbrncl:CaseRelationshipKindCodeType:top</title>
<path fill="none" stroke="#000000" d="M202.5,-28C230.1615,-28 239.508,-28 262.8769,-28"/>
<polygon fill="#000000" stroke="#000000" points="263,-31.5001 273,-28 263,-24.5001 263,-31.5001"/>
<text text-anchor="middle" x="232.5" y="-31.4" font-family="Helvetica,sans-Serif" font-size="12.00" fill="#000000">type</text>
</g>
<!-- cbrncl:CaseRelationshipKindCodeSimpleType -->
<g id="node3" class="node">
<title>cbrncl:CaseRelationshipKindCodeSimpleType</title>
<g id="a_node3_2"><a xlink:href="../../cbrncl/CaseRelationshipKindCodeSimpleType/#diagram" xlink:title="A data type for the kinds of relationships a Case may have with other entities." target="_top">
<text text-anchor="start" x="264" y="-80.4" font-family="Helvetica,sans-Serif" font-size="12.00" fill="#000000">cbrncl:CaseRelationshipKindCodeSimpleType</text>
</a>
</g>
<polygon fill="none" stroke="#000000" points="262,-75.5 262,-92.5 512,-92.5 512,-75.5 262,-75.5"/>
</g>
<!-- cbrncl:CaseRelationshipKindCodeSimpleType&#45;&gt;cbrncl:CaseRelationshipKindCodeType -->
<g id="edge2" class="edge">
<title>cbrncl:CaseRelationshipKindCodeSimpleType&#45;&gt;cbrncl:CaseRelationshipKindCodeType</title>
<path fill="none" stroke="#000000" d="M387,-75.4351C387,-68.931 387,-59.5678 387,-50.3827"/>
<polygon fill="#000000" stroke="#000000" points="390.5001,-50.25 387,-40.25 383.5001,-50.25 390.5001,-50.25"/>
<text text-anchor="middle" x="377.5" y="-54.65" font-family="Helvetica,sans-Serif" font-size="12.00" fill="#000000">extension</text>
</g>
<!-- xs:token -->
<g id="node4" class="node">
<title>xs:token</title>
<g id="a_node4_3"><a xlink:href="../../xs/token/#diagram" xlink:title="&lt;TABLE&gt;" target="_top">
<text text-anchor="start" x="365" y="-133.4" font-family="Helvetica,sans-Serif" font-size="12.00" fill="#000000">xs:token</text>
</a>
</g>
<polygon fill="none" stroke="#000000" points="362.5,-128.5 362.5,-145.5 411.5,-145.5 411.5,-128.5 362.5,-128.5"/>
</g>
<!-- xs:token&#45;&gt;cbrncl:CaseRelationshipKindCodeSimpleType -->
<g id="edge3" class="edge">
<title>xs:token&#45;&gt;cbrncl:CaseRelationshipKindCodeSimpleType</title>
<path fill="none" stroke="#000000" d="M387,-128.411C387,-121.5124 387,-111.5696 387,-102.84"/>
<polygon fill="#000000" stroke="#000000" points="390.5001,-102.7518 387,-92.7519 383.5001,-102.7519 390.5001,-102.7518"/>
<text text-anchor="middle" x="377.5" y="-107.4" font-family="Helvetica,sans-Serif" font-size="12.00" fill="#000000">restriction</text>
</g>
</g>
</svg>
