<?xml version="1.0" encoding="UTF-8" standalone="no"?>
<!DOCTYPE svg PUBLIC "-//W3C//DTD SVG 1.1//EN"
 "http://www.w3.org/Graphics/SVG/1.1/DTD/svg11.dtd">
<!-- Generated by graphviz version 2.40.1 (20161225.0304)
 -->
<!-- Title: graphic Pages: 1 -->
<svg width="429pt" height="45pt"
 viewBox="0.00 0.00 429.00 45.00" xmlns="http://www.w3.org/2000/svg" xmlns:xlink="http://www.w3.org/1999/xlink">
<g id="graph0" class="graph" transform="scale(1 1) rotate(0) translate(4 41)">
<title>graphic</title>
<polygon fill="#ffffff" stroke="transparent" points="-4,4 -4,-41 425,-41 425,4 -4,4"/>
<!-- em:Waiver -->
<g id="node1" class="node">
<title>em:Waiver</title>
<text text-anchor="start" x="206.5" y="-21.4" font-family="Helvetica,sans-Serif" font-weight="bold" font-size="12.00" fill="#000000">em:Waiver</text>
<polygon fill="none" stroke="#ff0000" stroke-width="5" points="202.5,-14 202.5,-34 270.5,-34 270.5,-14 202.5,-14"/>
</g>
<!-- em:WaiverType -->
<g id="node3" class="node">
<title>em:WaiverType</title>
<g id="a_node3_0"><a xlink:href="../../em/WaiverType/#diagram" xlink:title="A data type for the credential class of a waiver" target="_top">
<text text-anchor="start" x="334.5" y="-20.4" font-family="Helvetica,sans-Serif" font-size="12.00" fill="#000000">em:WaiverType</text>
</a>
</g>
<polygon fill="none" stroke="#000000" points="332,-15.5 332,-32.5 421,-32.5 421,-15.5 332,-15.5"/>
</g>
<!-- em:Waiver&#45;&gt;em:WaiverType -->
<g id="edge2" class="edge">
<title>em:Waiver&#45;&gt;em:WaiverType</title>
<path fill="none" stroke="#000000" d="M273.2834,-24C288.0369,-24 305.3532,-24 321.5428,-24"/>
<polygon fill="#000000" stroke="#000000" points="321.9807,-27.5001 331.9807,-24 321.9807,-20.5001 321.9807,-27.5001"/>
<text text-anchor="middle" x="302.5" y="-27.4" font-family="Helvetica,sans-Serif" font-size="12.00" fill="#000000">type</text>
</g>
<!-- Types -->
<g id="node2" class="node">
<title>Types</title>
<text text-anchor="start" x="2.5" y="-21.4" font-family="Helvetica,sans-Serif" font-weight="bold" font-size="12.00" fill="#000000">Types</text>
<g id="a_node2_1"><a xlink:href="../../em/FirstResponderType/#diagram" xlink:title="A data type for a person who is a first responder" target="_top">
<polygon fill="#ebebeb" stroke="transparent" points="1.5,-1 1.5,-16 132.5,-16 132.5,-1 1.5,-1"/>
<text text-anchor="start" x="2.5" y="-5.4" font-family="Helvetica,sans-Serif" font-size="12.00" fill="#000000">em:FirstResponderType</text>
</a>
</g>
<polygon fill="#000000" stroke="#000000" points=".5,-16 .5,-16 133.5,-16 133.5,-16 .5,-16"/>
<polygon fill="none" stroke="#000000" points="0,0 0,-32 133,-32 133,0 0,0"/>
</g>
<!-- Types&#45;&gt;em:Waiver -->
<g id="edge1" class="edge">
<title>Types:top&#45;&gt;em:Waiver</title>
<path fill="none" stroke="#000000" d="M132.5,-24C151.2157,-24 171.826,-24 189.7281,-24"/>
<polygon fill="#000000" stroke="#000000" points="189.9209,-27.5001 199.9208,-24 189.9208,-20.5001 189.9209,-27.5001"/>
<text text-anchor="middle" x="166.5" y="-27.4" font-family="Helvetica,sans-Serif" font-size="12.00" fill="#000000">has&#45;a</text>
</g>
</g>
</svg>
