<?xml version="1.0" encoding="UTF-8" standalone="no"?>
<!DOCTYPE svg PUBLIC "-//W3C//DTD SVG 1.1//EN"
 "http://www.w3.org/Graphics/SVG/1.1/DTD/svg11.dtd">
<!-- Generated by graphviz version 2.40.1 (20161225.0304)
 -->
<!-- Title: graphic Pages: 1 -->
<svg width="513pt" height="75pt"
 viewBox="0.00 0.00 513.00 75.00" xmlns="http://www.w3.org/2000/svg" xmlns:xlink="http://www.w3.org/1999/xlink">
<g id="graph0" class="graph" transform="scale(1 1) rotate(0) translate(4 71)">
<title>graphic</title>
<polygon fill="#ffffff" stroke="transparent" points="-4,4 -4,-71 509,-71 509,4 -4,4"/>
<!-- nc:Entity -->
<g id="node1" class="node">
<title>nc:Entity</title>
<text text-anchor="start" x="311" y="-51.4" font-family="Helvetica,sans-Serif" font-weight="bold" font-size="12.00" fill="#000000">nc:Entity</text>
<polygon fill="none" stroke="#ff0000" stroke-width="5" points="307.5,-44 307.5,-64 366.5,-64 366.5,-44 307.5,-44"/>
</g>
<!-- nc:EntityType -->
<g id="node3" class="node">
<title>nc:EntityType</title>
<g id="a_node3_0"><a xlink:href="../../nc/EntityType/#diagram" xlink:title="A data type for a person, organization, or item." target="_top">
<text text-anchor="start" x="430.5" y="-50.4" font-family="Helvetica,sans-Serif" font-size="12.00" fill="#000000">nc:EntityType</text>
</a>
</g>
<polygon fill="none" stroke="#000000" points="428,-45.5 428,-62.5 505,-62.5 505,-45.5 428,-45.5"/>
</g>
<!-- nc:Entity&#45;&gt;nc:EntityType -->
<g id="edge2" class="edge">
<title>nc:Entity&#45;&gt;nc:EntityType</title>
<path fill="none" stroke="#000000" d="M369.0112,-54C383.6342,-54 401.2804,-54 417.5179,-54"/>
<polygon fill="#000000" stroke="#000000" points="417.9389,-57.5001 427.9389,-54 417.9388,-50.5001 417.9389,-57.5001"/>
<text text-anchor="middle" x="398.5" y="-57.4" font-family="Helvetica,sans-Serif" font-size="12.00" fill="#000000">type</text>
</g>
<!-- Types -->
<g id="node2" class="node">
<title>Types</title>
<text text-anchor="start" x="2" y="-51.4" font-family="Helvetica,sans-Serif" font-weight="bold" font-size="12.00" fill="#000000">Types</text>
<g id="a_node2_1"><a xlink:href="../../hs/EntityFindingAssociationType/#diagram" xlink:title="A data type for an association between a finding and a person or organization." target="_top">
<polygon fill="#ebebeb" stroke="transparent" points="1,-31 1,-46 237,-46 237,-31 1,-31"/>
<text text-anchor="start" x="2" y="-35.4" font-family="Helvetica,sans-Serif" font-size="12.00" fill="#000000">hs:EntityFindingAssociationType</text>
</a>
</g>
<g id="a_node2_2"><a xlink:href="../../im/PartyContactInformationAssociationType/#diagram" xlink:title="A data type for an association between a party and contact information." target="_top">
<text text-anchor="start" x="2" y="-20.4" font-family="Helvetica,sans-Serif" font-size="12.00" fill="#000000">im:PartyContactInformationAssociationType</text>
</a>
</g>
<g id="a_node2_3"><a xlink:href="../../nc/ItemEntityAssociationType/#diagram" xlink:title="A data type for an association between an item and an entity." target="_top">
<polygon fill="#ebebeb" stroke="transparent" points="1,-1 1,-16 237,-16 237,-1 1,-1"/>
<text text-anchor="start" x="2" y="-5.4" font-family="Helvetica,sans-Serif" font-size="12.00" fill="#000000">nc:ItemEntityAssociationType</text>
</a>
</g>
<polygon fill="#000000" stroke="#000000" points="0,-46 0,-46 238,-46 238,-46 0,-46"/>
<polygon fill="none" stroke="#000000" points="0,0 0,-62 238,-62 238,0 0,0"/>
</g>
<!-- Types&#45;&gt;nc:Entity -->
<g id="edge1" class="edge">
<title>Types:top&#45;&gt;nc:Entity</title>
<path fill="none" stroke="#000000" d="M237,-54C255.8666,-54 276.7355,-54 294.5069,-54"/>
<polygon fill="#000000" stroke="#000000" points="294.5741,-57.5001 304.574,-54 294.574,-50.5001 294.5741,-57.5001"/>
<text text-anchor="middle" x="271.5" y="-57.4" font-family="Helvetica,sans-Serif" font-size="12.00" fill="#000000">has&#45;a</text>
</g>
</g>
</svg>
