<?xml version="1.0" encoding="UTF-8" standalone="no"?>
<!DOCTYPE svg PUBLIC "-//W3C//DTD SVG 1.1//EN"
 "http://www.w3.org/Graphics/SVG/1.1/DTD/svg11.dtd">
<!-- Generated by graphviz version 2.40.1 (20161225.0304)
 -->
<!-- Title: graphic Pages: 1 -->
<svg width="530pt" height="45pt"
 viewBox="0.00 0.00 530.00 45.00" xmlns="http://www.w3.org/2000/svg" xmlns:xlink="http://www.w3.org/1999/xlink">
<g id="graph0" class="graph" transform="scale(1 1) rotate(0) translate(4 41)">
<title>graphic</title>
<polygon fill="#ffffff" stroke="transparent" points="-4,4 -4,-41 526,-41 526,4 -4,4"/>
<!-- nc:PassportTransmissionTrackingID -->
<g id="node1" class="node">
<title>nc:PassportTransmissionTrackingID</title>
<text text-anchor="start" x="168" y="-21.4" font-family="Helvetica,sans-Serif" font-weight="bold" font-size="12.00" fill="#000000">nc:PassportTransmissionTrackingID</text>
<polygon fill="none" stroke="#ff0000" stroke-width="5" points="164.5,-14 164.5,-34 381.5,-34 381.5,-14 164.5,-14"/>
</g>
<!-- niem&#45;xs:string -->
<g id="node3" class="node">
<title>niem&#45;xs:string</title>
<g id="a_node3_0"><a xlink:href="../../niem-xs/string/#diagram" xlink:title="A data type for character strings in XML." target="_top">
<text text-anchor="start" x="445.5" y="-20.4" font-family="Helvetica,sans-Serif" font-size="12.00" fill="#000000">niem&#45;xs:string</text>
</a>
</g>
<polygon fill="none" stroke="#000000" points="443,-15.5 443,-32.5 522,-32.5 522,-15.5 443,-15.5"/>
</g>
<!-- nc:PassportTransmissionTrackingID&#45;&gt;niem&#45;xs:string -->
<g id="edge2" class="edge">
<title>nc:PassportTransmissionTrackingID&#45;&gt;niem&#45;xs:string</title>
<path fill="none" stroke="#000000" d="M384.191,-24C401.0555,-24 417.6966,-24 432.3568,-24"/>
<polygon fill="#000000" stroke="#000000" points="432.6566,-27.5001 442.6565,-24 432.6565,-20.5001 432.6566,-27.5001"/>
<text text-anchor="middle" x="413.5" y="-27.4" font-family="Helvetica,sans-Serif" font-size="12.00" fill="#000000">type</text>
</g>
<!-- Types -->
<g id="node2" class="node">
<title>Types</title>
<text text-anchor="start" x="2.5" y="-21.4" font-family="Helvetica,sans-Serif" font-weight="bold" font-size="12.00" fill="#000000">Types</text>
<g id="a_node2_1"><a xlink:href="../../nc/PassportType/#diagram" xlink:title="A data type for a government&#45;issued document that authenticates the identity and citizenship of a person." target="_top">
<polygon fill="#ebebeb" stroke="transparent" points="1.5,-1 1.5,-16 94.5,-16 94.5,-1 1.5,-1"/>
<text text-anchor="start" x="2.5" y="-5.4" font-family="Helvetica,sans-Serif" font-size="12.00" fill="#000000">nc:PassportType</text>
</a>
</g>
<polygon fill="#000000" stroke="#000000" points=".5,-16 .5,-16 95.5,-16 95.5,-16 .5,-16"/>
<polygon fill="none" stroke="#000000" points="0,0 0,-32 95,-32 95,0 0,0"/>
</g>
<!-- Types&#45;&gt;nc:PassportTransmissionTrackingID -->
<g id="edge1" class="edge">
<title>Types:top&#45;&gt;nc:PassportTransmissionTrackingID</title>
<path fill="none" stroke="#000000" d="M94.5,-24C112.888,-24 132.3414,-24 151.3786,-24"/>
<polygon fill="#000000" stroke="#000000" points="151.594,-27.5001 161.5939,-24 151.5939,-20.5001 151.594,-27.5001"/>
<text text-anchor="middle" x="128.5" y="-27.4" font-family="Helvetica,sans-Serif" font-size="12.00" fill="#000000">has&#45;a</text>
</g>
</g>
</svg>
