<?xml version="1.0" encoding="UTF-8" standalone="no"?>
<!DOCTYPE svg PUBLIC "-//W3C//DTD SVG 1.1//EN"
 "http://www.w3.org/Graphics/SVG/1.1/DTD/svg11.dtd">
<!-- Generated by graphviz version 2.40.1 (20161225.0304)
 -->
<!-- Title: graphic Pages: 1 -->
<svg width="434pt" height="86pt"
 viewBox="0.00 0.00 434.00 86.00" xmlns="http://www.w3.org/2000/svg" xmlns:xlink="http://www.w3.org/1999/xlink">
<g id="graph0" class="graph" transform="scale(1 1) rotate(0) translate(4 82)">
<title>graphic</title>
<polygon fill="#ffffff" stroke="transparent" points="-4,4 -4,-82 430,-82 430,4 -4,4"/>
<!-- j:WorkZoneCategoryCode -->
<g id="node1" class="node">
<title>j:WorkZoneCategoryCode</title>
<text text-anchor="start" x="6.5" y="-9.9" font-family="Helvetica,sans-Serif" font-weight="bold" font-size="12.00" fill="#000000">j:WorkZoneCategoryCode</text>
<polygon fill="none" stroke="#ff0000" stroke-width="5" points="2.5,-2.5 2.5,-22.5 158.5,-22.5 158.5,-2.5 2.5,-2.5"/>
</g>
<!-- mmucc:WorkZoneCategoryCodeType -->
<g id="node3" class="node">
<title>mmucc:WorkZoneCategoryCodeType</title>
<g id="a_node3_0"><a xlink:href="../../mmucc/WorkZoneCategoryCodeType/#diagram" xlink:title="A data type for a crash that occurs in or related to a construction, maintenance, or utility work zone and indicates kind of the work zone" target="_top">
<text text-anchor="start" x="222" y="-8.9" font-family="Helvetica,sans-Serif" font-size="12.00" fill="#000000">mmucc:WorkZoneCategoryCodeType</text>
</a>
</g>
<polygon fill="none" stroke="#000000" points="220,-4 220,-21 426,-21 426,-4 220,-4"/>
</g>
<!-- j:WorkZoneCategoryCode&#45;&gt;mmucc:WorkZoneCategoryCodeType -->
<g id="edge2" class="edge">
<title>j:WorkZoneCategoryCode&#45;&gt;mmucc:WorkZoneCategoryCodeType</title>
<path fill="none" stroke="#000000" d="M161.249,-12.5C176.7665,-12.5 193.2838,-12.5 209.6103,-12.5"/>
<polygon fill="#000000" stroke="#000000" points="209.7406,-16.0001 219.7406,-12.5 209.7406,-9.0001 209.7406,-16.0001"/>
<text text-anchor="middle" x="190.5" y="-15.9" font-family="Helvetica,sans-Serif" font-size="12.00" fill="#000000">type</text>
</g>
<!-- SubstitutionGroup -->
<g id="node2" class="node">
<title>SubstitutionGroup</title>
<g id="a_node2_1"><a xlink:href="../../j/WorkZoneCategoryAbstract/#diagram" xlink:title="A data concept for a kind of Work Zone." target="_top">
<text text-anchor="start" x="3.5" y="-65.9" font-family="Helvetica,sans-Serif" font-size="12.00" fill="#000000">j:WorkZoneCategoryAbstract</text>
</a>
</g>
<polygon fill="none" stroke="#000000" points="1,-61 1,-78 160,-78 160,-61 1,-61"/>
</g>
<!-- SubstitutionGroup&#45;&gt;j:WorkZoneCategoryCode -->
<g id="edge1" class="edge">
<title>SubstitutionGroup&#45;&gt;j:WorkZoneCategoryCode</title>
<path fill="none" stroke="#000000" d="M80.5,-50.9163C80.5,-42.4809 80.5,-32.7214 80.5,-25.1501"/>
<polygon fill="#000000" stroke="#000000" points="77.0001,-50.9472 80.5,-60.9473 84.0001,-50.9473 77.0001,-50.9472"/>
<text text-anchor="middle" x="71" y="-39.9" font-family="Helvetica,sans-Serif" font-size="12.00" fill="#000000">substitution group</text>
</g>
</g>
</svg>
