<?xml version="1.0" encoding="UTF-8" standalone="no"?>
<!DOCTYPE svg PUBLIC "-//W3C//DTD SVG 1.1//EN"
 "http://www.w3.org/Graphics/SVG/1.1/DTD/svg11.dtd">
<!-- Generated by graphviz version 2.40.1 (20161225.0304)
 -->
<!-- Title: graphic Pages: 1 -->
<svg width="775pt" height="45pt"
 viewBox="0.00 0.00 775.00 45.00" xmlns="http://www.w3.org/2000/svg" xmlns:xlink="http://www.w3.org/1999/xlink">
<g id="graph0" class="graph" transform="scale(1 1) rotate(0) translate(4 41)">
<title>graphic</title>
<polygon fill="#ffffff" stroke="transparent" points="-4,4 -4,-41 771,-41 771,4 -4,4"/>
<!-- stat:MeasurementClassificationMeasurementUnit -->
<g id="node1" class="node">
<title>stat:MeasurementClassificationMeasurementUnit</title>
<text text-anchor="start" x="271" y="-21.4" font-family="Helvetica,sans-Serif" font-weight="bold" font-size="12.00" fill="#000000">stat:MeasurementClassificationMeasurementUnit</text>
<polygon fill="none" stroke="#ff0000" stroke-width="5" points="267.5,-14 267.5,-34 556.5,-34 556.5,-14 267.5,-14"/>
</g>
<!-- stat:MeasurementUnitType -->
<g id="node3" class="node">
<title>stat:MeasurementUnitType</title>
<g id="a_node3_0"><a xlink:href="../../stat/MeasurementUnitType/#diagram" xlink:title="A data type for a metric for a measurement in terms of an official unit of measurement." target="_top">
<text text-anchor="start" x="620.5" y="-20.4" font-family="Helvetica,sans-Serif" font-size="12.00" fill="#000000">stat:MeasurementUnitType</text>
</a>
</g>
<polygon fill="none" stroke="#000000" points="618,-15.5 618,-32.5 767,-32.5 767,-15.5 618,-15.5"/>
</g>
<!-- stat:MeasurementClassificationMeasurementUnit&#45;&gt;stat:MeasurementUnitType -->
<g id="edge2" class="edge">
<title>stat:MeasurementClassificationMeasurementUnit&#45;&gt;stat:MeasurementUnitType</title>
<path fill="none" stroke="#000000" d="M559.2325,-24C575.6753,-24 591.9897,-24 607.2688,-24"/>
<polygon fill="#000000" stroke="#000000" points="607.6702,-27.5001 617.6701,-24 607.6701,-20.5001 607.6702,-27.5001"/>
<text text-anchor="middle" x="588.5" y="-27.4" font-family="Helvetica,sans-Serif" font-size="12.00" fill="#000000">type</text>
</g>
<!-- Types -->
<g id="node2" class="node">
<title>Types</title>
<text text-anchor="start" x="2" y="-21.4" font-family="Helvetica,sans-Serif" font-weight="bold" font-size="12.00" fill="#000000">Types</text>
<g id="a_node2_1"><a xlink:href="../../stat/MeasurementClassificationType/#diagram" xlink:title="A data type for a type of a measure e.g. mass or currency. The measurement type groups all measurement units, which can be converted into each other. A measurement type can have a standard measurement unit, which can be used for conversion between different measurement units." target="_top">
<polygon fill="#ebebeb" stroke="transparent" points="1,-1 1,-16 197,-16 197,-1 1,-1"/>
<text text-anchor="start" x="2" y="-5.4" font-family="Helvetica,sans-Serif" font-size="12.00" fill="#000000">stat:MeasurementClassificationType</text>
</a>
</g>
<polygon fill="#000000" stroke="#000000" points="0,-16 0,-16 198,-16 198,-16 0,-16"/>
<polygon fill="none" stroke="#000000" points="0,0 0,-32 198,-32 198,0 0,0"/>
</g>
<!-- Types&#45;&gt;stat:MeasurementClassificationMeasurementUnit -->
<g id="edge1" class="edge">
<title>Types:top&#45;&gt;stat:MeasurementClassificationMeasurementUnit</title>
<path fill="none" stroke="#000000" d="M197,-24C215.6741,-24 235.2606,-24 254.6897,-24"/>
<polygon fill="#000000" stroke="#000000" points="254.8298,-27.5001 264.8298,-24 254.8298,-20.5001 254.8298,-27.5001"/>
<text text-anchor="middle" x="231.5" y="-27.4" font-family="Helvetica,sans-Serif" font-size="12.00" fill="#000000">has&#45;a</text>
</g>
</g>
</svg>
