<?xml version="1.0" encoding="UTF-8" standalone="no"?>
<!DOCTYPE svg PUBLIC "-//W3C//DTD SVG 1.1//EN"
 "http://www.w3.org/Graphics/SVG/1.1/DTD/svg11.dtd">
<!-- Generated by graphviz version 2.40.1 (20161225.0304)
 -->
<!-- Title: graphic Pages: 1 -->
<svg width="717pt" height="236pt"
 viewBox="0.00 0.00 717.00 236.00" xmlns="http://www.w3.org/2000/svg" xmlns:xlink="http://www.w3.org/1999/xlink">
<g id="graph0" class="graph" transform="scale(1 1) rotate(0) translate(4 232)">
<title>graphic</title>
<polygon fill="#ffffff" stroke="transparent" points="-4,4 -4,-232 713,-232 713,4 -4,4"/>
<!-- j:TargetType -->
<g id="node1" class="node">
<title>j:TargetType</title>
<text text-anchor="start" x="152" y="-159.9" font-family="Helvetica,sans-Serif" font-weight="bold" font-size="12.00" fill="#000000">j:TargetType</text>
<g id="a_node1_0"><a xlink:href="../../j/TargetDescriptionText/#diagram" xlink:title="A description of a target or object for which an action taken." target="_top">
<polygon fill="#ebebeb" stroke="transparent" points="151,-139.5 151,-154.5 407,-154.5 407,-139.5 151,-139.5"/>
<text text-anchor="start" x="152" y="-143.9" font-family="Helvetica,sans-Serif" font-size="12.00" fill="#000000">j:TargetDescriptionText: nc:TextType [0&#45;n]</text>
</a>
</g>
<g id="a_node1_1"><a xlink:href="../../j/TargetLocation/#diagram" xlink:title="A location that is a target of an action." target="_top">
<text text-anchor="start" x="152" y="-128.9" font-family="Helvetica,sans-Serif" font-size="12.00" fill="#000000">j:TargetLocation: nc:LocationType [0&#45;n]</text>
</a>
</g>
<g id="a_node1_2"><a xlink:href="../../j/TargetName/#diagram" xlink:title="A name or a target or object for which an action is taken." target="_top">
<polygon fill="#ebebeb" stroke="transparent" points="151,-109.5 151,-124.5 407,-124.5 407,-109.5 151,-109.5"/>
<text text-anchor="start" x="152" y="-113.9" font-family="Helvetica,sans-Serif" font-size="12.00" fill="#000000">j:TargetName: nc:TextType [0&#45;n]</text>
</a>
</g>
<g id="a_node1_3"><a xlink:href="../../j/TargetOrganization/#diagram" xlink:title="An organization that is a target of an action." target="_top">
<text text-anchor="start" x="152" y="-98.9" font-family="Helvetica,sans-Serif" font-size="12.00" fill="#000000">j:TargetOrganization: nc:OrganizationType [0&#45;n]</text>
</a>
</g>
<g id="a_node1_4"><a xlink:href="../../j/TargetPerson/#diagram" xlink:title="A person that is a target of an action." target="_top">
<polygon fill="#ebebeb" stroke="transparent" points="151,-79.5 151,-94.5 407,-94.5 407,-79.5 151,-79.5"/>
<text text-anchor="start" x="152" y="-83.9" font-family="Helvetica,sans-Serif" font-size="12.00" fill="#000000">j:TargetPerson: nc:PersonType [0&#45;n]</text>
</a>
</g>
<g id="a_node1_5"><a xlink:href="../../j/TargetItem/#diagram" xlink:title="A property item that is a target of an action." target="_top">
<text text-anchor="start" x="152" y="-68.9" font-family="Helvetica,sans-Serif" font-size="12.00" fill="#000000">j:TargetItem: nc:ItemType [0&#45;n]</text>
</a>
</g>
<g id="a_node1_6"><a xlink:href="../../j/TargetReasonText/#diagram" xlink:title="An explanation of why a target was chosen for action." target="_top">
<polygon fill="#ebebeb" stroke="transparent" points="151,-49.5 151,-64.5 407,-64.5 407,-49.5 151,-49.5"/>
<text text-anchor="start" x="152" y="-53.9" font-family="Helvetica,sans-Serif" font-size="12.00" fill="#000000">j:TargetReasonText: nc:TextType [0&#45;n]</text>
</a>
</g>
<g id="a_node1_7"><a xlink:href="../../j/TargetCategoryText/#diagram" xlink:title="A kind of target or object for which an action is taken." target="_top">
<text text-anchor="start" x="152" y="-38.9" font-family="Helvetica,sans-Serif" font-size="12.00" fill="#000000">j:TargetCategoryText: nc:TextType [0&#45;n]</text>
</a>
</g>
<g id="a_node1_8"><a xlink:href="../../j/TargetSectorAbstract/#diagram" xlink:title="A data concept for a broad categorization of the infrastructure type." target="_top">
<polygon fill="#ebebeb" stroke="transparent" points="151,-19.5 151,-34.5 407,-34.5 407,-19.5 151,-19.5"/>
<text text-anchor="start" x="152" y="-23.9" font-family="Helvetica,sans-Serif" font-size="12.00" fill="#000000">j:TargetSectorAbstract [0&#45;n]</text>
</a>
</g>
<g id="a_node1_9"><a xlink:href="../../j/TargetAugmentationPoint/#diagram" xlink:title="An augmentation point for TargetType." target="_top">
<text text-anchor="start" x="152" y="-8.9" font-family="Helvetica,sans-Serif" font-size="12.00" fill="#000000">j:TargetAugmentationPoint [0&#45;n]</text>
</a>
</g>
<polygon fill="#ff0000" stroke="#ff0000" points="146,-154.5 146,-154.5 412,-154.5 412,-154.5 146,-154.5"/>
<polygon fill="none" stroke="#ff0000" stroke-width="5" points="148.5,-2.5 148.5,-172.5 409.5,-172.5 409.5,-2.5 148.5,-2.5"/>
</g>
<!-- subst_d9e48373 -->
<g id="node2" class="node">
<title>subst_d9e48373</title>
<g id="a_node2_10"><a xlink:href="../../j/TargetSectorAbstract/#diagram" xlink:title="&lt;TABLE&gt;" target="_top">
<text text-anchor="start" x="451" y="-23.9" font-family="Helvetica,sans-Serif" font-weight="bold" font-size="12.00" fill="#000000">Substitution group j:TargetSectorAbstract</text>
</a>
</g>
<g id="a_node2_11"><a xlink:href="../../j/TargetSectorCode/#diagram" xlink:title="A broad categorization of the infrastructure type." target="_top">
<polygon fill="#ebebeb" stroke="transparent" points="450,-3.5 450,-18.5 708,-18.5 708,-3.5 450,-3.5"/>
<text text-anchor="start" x="451" y="-7.9" font-family="Helvetica,sans-Serif" font-size="12.00" fill="#000000">j:TargetSectorCode: sar:TargetSectorCodeType</text>
</a>
</g>
<polygon fill="#000000" stroke="#000000" points="449,-18.5 449,-18.5 709,-18.5 709,-18.5 449,-18.5"/>
<polygon fill="none" stroke="#000000" points="449,-2.5 449,-34.5 709,-34.5 709,-2.5 449,-2.5"/>
</g>
<!-- j:TargetType&#45;&gt;subst_d9e48373 -->
<g id="edge1" class="edge">
<title>j:TargetType:e&#45;&gt;subst_d9e48373:w</title>
<path fill="none" stroke="#000000" d="M417.1119,-26.5C428.6435,-26.5 434.7708,-26.5 450,-26.5"/>
<polygon fill="#000000" stroke="#000000" points="417,-23.0001 407,-26.5 417,-30.0001 417,-23.0001"/>
</g>
<!-- Properties -->
<g id="node3" class="node">
<title>Properties</title>
<text text-anchor="start" x="2.5" y="-159.9" font-family="Helvetica,sans-Serif" font-weight="bold" font-size="12.00" fill="#000000">Properties</text>
<g id="a_node3_12"><a xlink:href="../../j/IncidentTarget/#diagram" xlink:title="An entity that was an intended recipient of a subject&#39;s actions involved in an incident." target="_top">
<polygon fill="#ebebeb" stroke="transparent" points="1.5,-139.5 1.5,-154.5 86.5,-154.5 86.5,-139.5 1.5,-139.5"/>
<text text-anchor="start" x="2.5" y="-143.9" font-family="Helvetica,sans-Serif" font-size="12.00" fill="#000000">j:IncidentTarget</text>
</a>
</g>
<g id="a_node3_13"><a xlink:href="../../j/Target/#diagram" xlink:title="A target or object against which an action is taken." target="_top">
<text text-anchor="start" x="2.5" y="-128.9" font-family="Helvetica,sans-Serif" font-size="12.00" fill="#000000">j:Target</text>
</a>
</g>
<polygon fill="#000000" stroke="#000000" points=".5,-154.5 .5,-154.5 87.5,-154.5 87.5,-154.5 .5,-154.5"/>
<polygon fill="none" stroke="#000000" points="0,-124 0,-171 87,-171 87,-124 0,-124"/>
</g>
<!-- Properties&#45;&gt;j:TargetType -->
<g id="edge2" class="edge">
<title>Properties:top&#45;&gt;j:TargetType:top</title>
<path fill="none" stroke="#000000" d="M86.5,-162.5C111.4714,-162.5 120.1284,-162.5 140.8937,-162.5"/>
<polygon fill="#000000" stroke="#000000" points="141,-166.0001 151,-162.5 141,-159.0001 141,-166.0001"/>
<text text-anchor="middle" x="116.5" y="-165.9" font-family="Helvetica,sans-Serif" font-size="12.00" fill="#000000">type</text>
</g>
<!-- structures:ObjectType -->
<g id="node4" class="node">
<title>structures:ObjectType</title>
<g id="a_node4_14"><a xlink:href="../../structures/ObjectType/#diagram" xlink:title="A data type for a thing with its own lifespan that has some existence." target="_top">
<text text-anchor="start" x="220" y="-215.9" font-family="Helvetica,sans-Serif" font-size="12.00" fill="#000000">structures:ObjectType</text>
</a>
</g>
<polygon fill="none" stroke="#000000" points="218,-211 218,-228 340,-228 340,-211 218,-211"/>
</g>
<!-- structures:ObjectType&#45;&gt;j:TargetType -->
<g id="edge3" class="edge">
<title>structures:ObjectType&#45;&gt;j:TargetType</title>
<path fill="none" stroke="#000000" d="M279,-210.9836C279,-204.7984 279,-195.6933 279,-185.1828"/>
<polygon fill="#000000" stroke="#000000" points="282.5001,-185.1787 279,-175.1787 275.5001,-185.1787 282.5001,-185.1787"/>
<text text-anchor="middle" x="269.5" y="-189.9" font-family="Helvetica,sans-Serif" font-size="12.00" fill="#000000">extension</text>
</g>
</g>
</svg>
