<?xml version="1.0" encoding="UTF-8" standalone="no"?>
<!DOCTYPE svg PUBLIC "-//W3C//DTD SVG 1.1//EN"
 "http://www.w3.org/Graphics/SVG/1.1/DTD/svg11.dtd">
<!-- Generated by graphviz version 2.40.1 (20161225.0304)
 -->
<!-- Title: graphic Pages: 1 -->
<svg width="492pt" height="117pt"
 viewBox="0.00 0.00 492.00 116.50" xmlns="http://www.w3.org/2000/svg" xmlns:xlink="http://www.w3.org/1999/xlink">
<g id="graph0" class="graph" transform="scale(1 1) rotate(0) translate(4 112.5)">
<title>graphic</title>
<polygon fill="#ffffff" stroke="transparent" points="-4,4 -4,-112.5 488,-112.5 488,4 -4,4"/>
<!-- j:DrivingIncidentCMVAbstract -->
<g id="node1" class="node">
<title>j:DrivingIncidentCMVAbstract</title>
<text text-anchor="start" x="249" y="-92.9" font-family="Helvetica,sans-Serif" font-weight="bold" font-size="12.00" fill="#000000">j:DrivingIncidentCMVAbstract</text>
<polygon fill="none" stroke="#ff0000" stroke-width="5" points="245,-85.5 245,-105.5 423,-105.5 423,-85.5 245,-85.5"/>
</g>
<!-- SubstitutableElements -->
<g id="node3" class="node">
<title>SubstitutableElements</title>
<text text-anchor="start" x="186" y="-35.9" font-family="Helvetica,sans-Serif" font-weight="bold" font-size="12.00" fill="#000000">Substitutable elements</text>
<g id="a_node3_0"><a xlink:href="../../j/DrivingIncidentCMVCode/#diagram" xlink:title="A determination of whether the incident occurred while the driver was operating a commercial vehicle." target="_top">
<polygon fill="#ebebeb" stroke="transparent" points="185,-15.5 185,-30.5 483,-30.5 483,-15.5 185,-15.5"/>
<text text-anchor="start" x="186" y="-19.9" font-family="Helvetica,sans-Serif" font-size="12.00" fill="#000000">j:DrivingIncidentCMVCode: aamva_d20:CMVCodeType</text>
</a>
</g>
<g id="a_node3_1"><a xlink:href="../../j/DrivingIncidentCMVText/#diagram" xlink:title="A determination of whether the incident occurred while the driver was operating a commercial vehicle." target="_top">
<text text-anchor="start" x="186" y="-4.9" font-family="Helvetica,sans-Serif" font-size="12.00" fill="#000000">j:DrivingIncidentCMVText: nc:TextType</text>
</a>
</g>
<polygon fill="#000000" stroke="#000000" points="184,-30.5 184,-30.5 484,-30.5 484,-30.5 184,-30.5"/>
<polygon fill="none" stroke="#000000" points="184,0 184,-47 484,-47 484,0 184,0"/>
</g>
<!-- j:DrivingIncidentCMVAbstract&#45;&gt;SubstitutableElements -->
<g id="edge2" class="edge">
<title>j:DrivingIncidentCMVAbstract&#45;&gt;SubstitutableElements</title>
<path fill="none" stroke="#000000" d="M334,-72.9771C334,-64.7398 334,-55.4022 334,-47.0755"/>
<polygon fill="#000000" stroke="#000000" points="330.5001,-72.9945 334,-82.9945 337.5001,-72.9946 330.5001,-72.9945"/>
<text text-anchor="middle" x="324.5" y="-61.9" font-family="Helvetica,sans-Serif" font-size="12.00" fill="#000000">substitutable for</text>
</g>
<!-- Types -->
<g id="node2" class="node">
<title>Types</title>
<text text-anchor="start" x="2.5" y="-92.9" font-family="Helvetica,sans-Serif" font-weight="bold" font-size="12.00" fill="#000000">Types</text>
<g id="a_node2_2"><a xlink:href="../../j/DrivingIncidentType/#diagram" xlink:title="A data type for details of an incident involving a vehicle." target="_top">
<polygon fill="#ebebeb" stroke="transparent" points="1.5,-72.5 1.5,-87.5 116.5,-87.5 116.5,-72.5 1.5,-72.5"/>
<text text-anchor="start" x="2.5" y="-76.9" font-family="Helvetica,sans-Serif" font-size="12.00" fill="#000000">j:DrivingIncidentType</text>
</a>
</g>
<polygon fill="#000000" stroke="#000000" points=".5,-87.5 .5,-87.5 117.5,-87.5 117.5,-87.5 .5,-87.5"/>
<polygon fill="none" stroke="#000000" points="0,-71.5 0,-103.5 117,-103.5 117,-71.5 0,-71.5"/>
</g>
<!-- Types&#45;&gt;j:DrivingIncidentCMVAbstract -->
<g id="edge1" class="edge">
<title>Types:top&#45;&gt;j:DrivingIncidentCMVAbstract</title>
<path fill="none" stroke="#000000" d="M116.5,-95.5C154.2943,-95.5 195.7829,-95.5 232.2995,-95.5"/>
<polygon fill="#000000" stroke="#000000" points="232.4601,-99.0001 242.4601,-95.5 232.46,-92.0001 232.4601,-99.0001"/>
<text text-anchor="middle" x="150.5" y="-98.9" font-family="Helvetica,sans-Serif" font-size="12.00" fill="#000000">has&#45;a</text>
</g>
</g>
</svg>
