<?xml version="1.0" encoding="UTF-8" standalone="no"?>
<!DOCTYPE svg PUBLIC "-//W3C//DTD SVG 1.1//EN"
 "http://www.w3.org/Graphics/SVG/1.1/DTD/svg11.dtd">
<!-- Generated by graphviz version 2.40.1 (20161225.0304)
 -->
<!-- Title: graphic Pages: 1 -->
<svg width="582pt" height="131pt"
 viewBox="0.00 0.00 582.00 130.50" xmlns="http://www.w3.org/2000/svg" xmlns:xlink="http://www.w3.org/1999/xlink">
<g id="graph0" class="graph" transform="scale(1 1) rotate(0) translate(4 126.5)">
<title>graphic</title>
<polygon fill="#ffffff" stroke="transparent" points="-4,4 -4,-126.5 578,-126.5 578,4 -4,4"/>
<!-- em:UnitLogonNotificationType -->
<g id="node1" class="node">
<title>em:UnitLogonNotificationType</title>
<text text-anchor="start" x="204" y="-55.4" font-family="Helvetica,sans-Serif" font-weight="bold" font-size="12.00" fill="#000000">em:UnitLogonNotificationType</text>
<g id="a_node1_0"><a xlink:href="../../em/ServiceCallAssignedUnit/#diagram" xlink:title="An element for for service call assigned unit detail" target="_top">
<polygon fill="#ebebeb" stroke="transparent" points="203,-35 203,-50 569,-50 569,-35 203,-35"/>
<text text-anchor="start" x="204" y="-39.4" font-family="Helvetica,sans-Serif" font-size="12.00" fill="#000000">em:ServiceCallAssignedUnit: em:ServiceCallAssignedUnitType [0&#45;n]</text>
</a>
</g>
<g id="a_node1_1"><a xlink:href="../../em/NotificationMessageText/#diagram" xlink:title="An element for notification message text" target="_top">
<text text-anchor="start" x="204" y="-24.4" font-family="Helvetica,sans-Serif" font-size="12.00" fill="#000000">em:NotificationMessageText: nc:TextType [0&#45;n]</text>
</a>
</g>
<g id="a_node1_2"><a xlink:href="../../em/UnitLogonNotificationAugmentationPoint/#diagram" xlink:title="An augmentation point for UnitLogonNotificationType" target="_top">
<polygon fill="#ebebeb" stroke="transparent" points="203,-5 203,-20 569,-20 569,-5 203,-5"/>
<text text-anchor="start" x="204" y="-9.4" font-family="Helvetica,sans-Serif" font-size="12.00" fill="#000000">em:UnitLogonNotificationAugmentationPoint [0&#45;n]</text>
</a>
</g>
<polygon fill="#ff0000" stroke="#ff0000" points="198,-50 198,-50 574,-50 574,-50 198,-50"/>
<polygon fill="none" stroke="#ff0000" stroke-width="5" points="200.5,-2.5 200.5,-67.5 571.5,-67.5 571.5,-2.5 200.5,-2.5"/>
</g>
<!-- Properties -->
<g id="node2" class="node">
<title>Properties</title>
<text text-anchor="start" x="2.5" y="-55.4" font-family="Helvetica,sans-Serif" font-weight="bold" font-size="12.00" fill="#000000">Properties</text>
<g id="a_node2_3"><a xlink:href="../../em/UnitLogonNotification/#diagram" xlink:title="An element to represent that the specified units are being logged on" target="_top">
<polygon fill="#ebebeb" stroke="transparent" points="1.5,-35 1.5,-50 138.5,-50 138.5,-35 1.5,-35"/>
<text text-anchor="start" x="2.5" y="-39.4" font-family="Helvetica,sans-Serif" font-size="12.00" fill="#000000">em:UnitLogonNotification</text>
</a>
</g>
<polygon fill="#000000" stroke="#000000" points=".5,-50 .5,-50 139.5,-50 139.5,-50 .5,-50"/>
<polygon fill="none" stroke="#000000" points="0,-34 0,-66 139,-66 139,-34 0,-34"/>
</g>
<!-- Properties&#45;&gt;em:UnitLogonNotificationType -->
<g id="edge1" class="edge">
<title>Properties:top&#45;&gt;em:UnitLogonNotificationType:top</title>
<path fill="none" stroke="#000000" d="M138.5,-58C163.4714,-58 172.1284,-58 192.8937,-58"/>
<polygon fill="#000000" stroke="#000000" points="193,-61.5001 203,-58 193,-54.5001 193,-61.5001"/>
<text text-anchor="middle" x="168.5" y="-61.4" font-family="Helvetica,sans-Serif" font-size="12.00" fill="#000000">type</text>
</g>
<!-- structures:ObjectType -->
<g id="node3" class="node">
<title>structures:ObjectType</title>
<g id="a_node3_4"><a xlink:href="../../structures/ObjectType/#diagram" xlink:title="A data type for a thing with its own lifespan that has some existence." target="_top">
<text text-anchor="start" x="327" y="-110.4" font-family="Helvetica,sans-Serif" font-size="12.00" fill="#000000">structures:ObjectType</text>
</a>
</g>
<polygon fill="none" stroke="#000000" points="325,-105.5 325,-122.5 447,-122.5 447,-105.5 325,-105.5"/>
</g>
<!-- structures:ObjectType&#45;&gt;em:UnitLogonNotificationType -->
<g id="edge2" class="edge">
<title>structures:ObjectType&#45;&gt;em:UnitLogonNotificationType</title>
<path fill="none" stroke="#000000" d="M386,-105.4117C386,-99.1025 386,-89.9911 386,-80.4049"/>
<polygon fill="#000000" stroke="#000000" points="389.5001,-80.3408 386,-70.3408 382.5001,-80.3409 389.5001,-80.3408"/>
<text text-anchor="middle" x="376.5" y="-84.65" font-family="Helvetica,sans-Serif" font-size="12.00" fill="#000000">extension</text>
</g>
</g>
</svg>
