<?xml version="1.0" encoding="UTF-8" standalone="no"?>
<!DOCTYPE svg PUBLIC "-//W3C//DTD SVG 1.1//EN"
 "http://www.w3.org/Graphics/SVG/1.1/DTD/svg11.dtd">
<!-- Generated by graphviz version 2.40.1 (20161225.0304)
 -->
<!-- Title: graphic Pages: 1 -->
<svg width="506pt" height="86pt"
 viewBox="0.00 0.00 506.00 86.00" xmlns="http://www.w3.org/2000/svg" xmlns:xlink="http://www.w3.org/1999/xlink">
<g id="graph0" class="graph" transform="scale(1 1) rotate(0) translate(4 82)">
<title>graphic</title>
<polygon fill="#ffffff" stroke="transparent" points="-4,4 -4,-82 502,-82 502,4 -4,4"/>
<!-- j:IntellectualPropertyAugmentation -->
<g id="node1" class="node">
<title>j:IntellectualPropertyAugmentation</title>
<text text-anchor="start" x="12.5" y="-9.9" font-family="Helvetica,sans-Serif" font-weight="bold" font-size="12.00" fill="#000000">j:IntellectualPropertyAugmentation</text>
<polygon fill="none" stroke="#ff0000" stroke-width="5" points="8.5,-2.5 8.5,-22.5 216.5,-22.5 216.5,-2.5 8.5,-2.5"/>
</g>
<!-- j:IntellectualPropertyAugmentationType -->
<g id="node3" class="node">
<title>j:IntellectualPropertyAugmentationType</title>
<g id="a_node3_0"><a xlink:href="../../j/IntellectualPropertyAugmentationType/#diagram" xlink:title="A data type for additional information about intellectual property." target="_top">
<text text-anchor="start" x="286" y="-8.9" font-family="Helvetica,sans-Serif" font-size="12.00" fill="#000000">j:IntellectualPropertyAugmentationType</text>
</a>
</g>
<polygon fill="none" stroke="#000000" points="284,-4 284,-21 498,-21 498,-4 284,-4"/>
</g>
<!-- j:IntellectualPropertyAugmentation&#45;&gt;j:IntellectualPropertyAugmentationType -->
<g id="edge2" class="edge">
<title>j:IntellectualPropertyAugmentation&#45;&gt;j:IntellectualPropertyAugmentationType</title>
<path fill="none" stroke="#000000" d="M219.3789,-12.5C237.1572,-12.5 255.6807,-12.5 273.7012,-12.5"/>
<polygon fill="#000000" stroke="#000000" points="273.947,-16.0001 283.947,-12.5 273.9469,-9.0001 273.947,-16.0001"/>
<text text-anchor="middle" x="254.5" y="-15.9" font-family="Helvetica,sans-Serif" font-size="12.00" fill="#000000">type</text>
</g>
<!-- SubstitutionGroup -->
<g id="node2" class="node">
<title>SubstitutionGroup</title>
<g id="a_node2_1"><a xlink:href="../../nc/IntellectualPropertyAugmentationPoint/#diagram" xlink:title="An augmentation point for IntellectualPropertyType." target="_top">
<text text-anchor="start" x="2.5" y="-65.9" font-family="Helvetica,sans-Serif" font-size="12.00" fill="#000000">nc:IntellectualPropertyAugmentationPoint</text>
</a>
</g>
<polygon fill="none" stroke="#000000" points="0,-61 0,-78 225,-78 225,-61 0,-61"/>
</g>
<!-- SubstitutionGroup&#45;&gt;j:IntellectualPropertyAugmentation -->
<g id="edge1" class="edge">
<title>SubstitutionGroup&#45;&gt;j:IntellectualPropertyAugmentation</title>
<path fill="none" stroke="#000000" d="M112.5,-50.9163C112.5,-42.4809 112.5,-32.7214 112.5,-25.1501"/>
<polygon fill="#000000" stroke="#000000" points="109.0001,-50.9472 112.5,-60.9473 116.0001,-50.9473 109.0001,-50.9472"/>
<text text-anchor="middle" x="103" y="-39.9" font-family="Helvetica,sans-Serif" font-size="12.00" fill="#000000">substitution group</text>
</g>
</g>
</svg>
