<?xml version="1.0" encoding="UTF-8" standalone="no"?>
<!DOCTYPE svg PUBLIC "-//W3C//DTD SVG 1.1//EN"
 "http://www.w3.org/Graphics/SVG/1.1/DTD/svg11.dtd">
<!-- Generated by graphviz version 2.40.1 (20161225.0304)
 -->
<!-- Title: graphic Pages: 1 -->
<svg width="513pt" height="154pt"
 viewBox="0.00 0.00 513.00 153.50" xmlns="http://www.w3.org/2000/svg" xmlns:xlink="http://www.w3.org/1999/xlink">
<g id="graph0" class="graph" transform="scale(1 1) rotate(0) translate(4 149.5)">
<title>graphic</title>
<polygon fill="#ffffff" stroke="transparent" points="-4,4 -4,-149.5 509,-149.5 509,4 -4,4"/>
<!-- ag_codes:OriginalReportedAcreageType -->
<g id="node1" class="node">
<title>ag_codes:OriginalReportedAcreageType</title>
<text text-anchor="start" x="259.5" y="-25.4" font-family="Helvetica,sans-Serif" font-weight="bold" font-size="12.00" fill="#000000">ag_codes:OriginalReportedAcreageType</text>
<g id="a_node1_0"><a xlink:href="../../structures/SimpleObjectAttributeGroup/#diagram" xlink:title="A group of attributes that are applicable to objects, to be used when defining a complex type that is an extension of a simple type." target="_top">
<polygon fill="#ebebeb" stroke="transparent" points="258.5,-5 258.5,-20 493.5,-20 493.5,-5 258.5,-5"/>
<text text-anchor="start" x="259.5" y="-9.4" font-family="Helvetica,sans-Serif" font-size="12.00" fill="#000000">structures:SimpleObjectAttributeGroup</text>
</a>
</g>
<polygon fill="#ff0000" stroke="#ff0000" points="253.5,-20 253.5,-20 498.5,-20 498.5,-20 253.5,-20"/>
<polygon fill="none" stroke="#ff0000" stroke-width="5" points="255.5,-2.5 255.5,-37.5 495.5,-37.5 495.5,-2.5 255.5,-2.5"/>
</g>
<!-- Properties -->
<g id="node2" class="node">
<title>Properties</title>
<text text-anchor="start" x="2.5" y="-25.4" font-family="Helvetica,sans-Serif" font-weight="bold" font-size="12.00" fill="#000000">Properties</text>
<g id="a_node2_1"><a xlink:href="../../ag/OriginalReportedAcreageValue/#diagram" xlink:title="An original, unmodified, number of acres that were reported." target="_top">
<polygon fill="#ebebeb" stroke="transparent" points="1.5,-5 1.5,-20 186.5,-20 186.5,-5 1.5,-5"/>
<text text-anchor="start" x="2.5" y="-9.4" font-family="Helvetica,sans-Serif" font-size="12.00" fill="#000000">ag:OriginalReportedAcreageValue</text>
</a>
</g>
<polygon fill="#000000" stroke="#000000" points=".5,-20 .5,-20 187.5,-20 187.5,-20 .5,-20"/>
<polygon fill="none" stroke="#000000" points="0,-4 0,-36 187,-36 187,-4 0,-4"/>
</g>
<!-- Properties&#45;&gt;ag_codes:OriginalReportedAcreageType -->
<g id="edge1" class="edge">
<title>Properties:top&#45;&gt;ag_codes:OriginalReportedAcreageType:top</title>
<path fill="none" stroke="#000000" d="M186.5,-28C214.875,-28 224.3795,-28 248.4792,-28"/>
<polygon fill="#000000" stroke="#000000" points="248.5,-31.5001 258.5,-28 248.5,-24.5001 248.5,-31.5001"/>
<text text-anchor="middle" x="216.5" y="-31.4" font-family="Helvetica,sans-Serif" font-size="12.00" fill="#000000">type</text>
</g>
<!-- ag_codes:OriginalReportedAcreageSimpleType -->
<g id="node3" class="node">
<title>ag_codes:OriginalReportedAcreageSimpleType</title>
<g id="a_node3_2"><a xlink:href="../../ag_codes/OriginalReportedAcreageSimpleType/#diagram" xlink:title="A data type for original, unmodified, number of acres that were reported." target="_top">
<text text-anchor="start" x="248.5" y="-80.4" font-family="Helvetica,sans-Serif" font-size="12.00" fill="#000000">ag_codes:OriginalReportedAcreageSimpleType</text>
</a>
</g>
<polygon fill="none" stroke="#000000" points="246,-75.5 246,-92.5 505,-92.5 505,-75.5 246,-75.5"/>
</g>
<!-- ag_codes:OriginalReportedAcreageSimpleType&#45;&gt;ag_codes:OriginalReportedAcreageType -->
<g id="edge2" class="edge">
<title>ag_codes:OriginalReportedAcreageSimpleType&#45;&gt;ag_codes:OriginalReportedAcreageType</title>
<path fill="none" stroke="#000000" d="M375.5,-75.4351C375.5,-68.931 375.5,-59.5678 375.5,-50.3827"/>
<polygon fill="#000000" stroke="#000000" points="379.0001,-50.25 375.5,-40.25 372.0001,-50.25 379.0001,-50.25"/>
<text text-anchor="middle" x="366" y="-54.65" font-family="Helvetica,sans-Serif" font-size="12.00" fill="#000000">extension</text>
</g>
<!-- xs:decimal -->
<g id="node4" class="node">
<title>xs:decimal</title>
<g id="a_node4_3"><a xlink:href="../../xs/decimal/#diagram" xlink:title="&lt;TABLE&gt;" target="_top">
<text text-anchor="start" x="347.5" y="-133.4" font-family="Helvetica,sans-Serif" font-size="12.00" fill="#000000">xs:decimal</text>
</a>
</g>
<polygon fill="none" stroke="#000000" points="345,-128.5 345,-145.5 406,-145.5 406,-128.5 345,-128.5"/>
</g>
<!-- xs:decimal&#45;&gt;ag_codes:OriginalReportedAcreageSimpleType -->
<g id="edge3" class="edge">
<title>xs:decimal&#45;&gt;ag_codes:OriginalReportedAcreageSimpleType</title>
<path fill="none" stroke="#000000" d="M375.5,-128.411C375.5,-121.5124 375.5,-111.5696 375.5,-102.84"/>
<polygon fill="#000000" stroke="#000000" points="379.0001,-102.7518 375.5,-92.7519 372.0001,-102.7519 379.0001,-102.7518"/>
<text text-anchor="middle" x="366" y="-107.4" font-family="Helvetica,sans-Serif" font-size="12.00" fill="#000000">restriction</text>
</g>
</g>
</svg>
