<?xml version="1.0" encoding="UTF-8" standalone="no"?>
<!DOCTYPE svg PUBLIC "-//W3C//DTD SVG 1.1//EN"
 "http://www.w3.org/Graphics/SVG/1.1/DTD/svg11.dtd">
<!-- Generated by graphviz version 2.40.1 (20161225.0304)
 -->
<!-- Title: graphic Pages: 1 -->
<svg width="451pt" height="45pt"
 viewBox="0.00 0.00 451.00 45.00" xmlns="http://www.w3.org/2000/svg" xmlns:xlink="http://www.w3.org/1999/xlink">
<g id="graph0" class="graph" transform="scale(1 1) rotate(0) translate(4 41)">
<title>graphic</title>
<polygon fill="#ffffff" stroke="transparent" points="-4,4 -4,-41 447,-41 447,4 -4,4"/>
<!-- nc:ItemValueAssigner -->
<g id="node1" class="node">
<title>nc:ItemValueAssigner</title>
<text text-anchor="start" x="174.5" y="-21.4" font-family="Helvetica,sans-Serif" font-weight="bold" font-size="12.00" fill="#000000">nc:ItemValueAssigner</text>
<polygon fill="none" stroke="#ff0000" stroke-width="5" points="170.5,-14 170.5,-34 304.5,-34 304.5,-14 170.5,-14"/>
</g>
<!-- nc:EntityType -->
<g id="node3" class="node">
<title>nc:EntityType</title>
<g id="a_node3_0"><a xlink:href="../../nc/EntityType/#diagram" xlink:title="A data type for a person, organization, or item." target="_top">
<text text-anchor="start" x="368.5" y="-20.4" font-family="Helvetica,sans-Serif" font-size="12.00" fill="#000000">nc:EntityType</text>
</a>
</g>
<polygon fill="none" stroke="#000000" points="366,-15.5 366,-32.5 443,-32.5 443,-15.5 366,-15.5"/>
</g>
<!-- nc:ItemValueAssigner&#45;&gt;nc:EntityType -->
<g id="edge2" class="edge">
<title>nc:ItemValueAssigner&#45;&gt;nc:EntityType</title>
<path fill="none" stroke="#000000" d="M307.3554,-24C323.6225,-24 340.5997,-24 355.7267,-24"/>
<polygon fill="#000000" stroke="#000000" points="355.8722,-27.5001 365.8722,-24 355.8721,-20.5001 355.8722,-27.5001"/>
<text text-anchor="middle" x="336.5" y="-27.4" font-family="Helvetica,sans-Serif" font-size="12.00" fill="#000000">type</text>
</g>
<!-- Types -->
<g id="node2" class="node">
<title>Types</title>
<text text-anchor="start" x="2.5" y="-21.4" font-family="Helvetica,sans-Serif" font-weight="bold" font-size="12.00" fill="#000000">Types</text>
<g id="a_node2_1"><a xlink:href="../../nc/ItemValueType/#diagram" xlink:title="A data type for an evaluation of the monetary worth of an item." target="_top">
<polygon fill="#ebebeb" stroke="transparent" points="1.5,-1 1.5,-16 100.5,-16 100.5,-1 1.5,-1"/>
<text text-anchor="start" x="2.5" y="-5.4" font-family="Helvetica,sans-Serif" font-size="12.00" fill="#000000">nc:ItemValueType</text>
</a>
</g>
<polygon fill="#000000" stroke="#000000" points=".5,-16 .5,-16 101.5,-16 101.5,-16 .5,-16"/>
<polygon fill="none" stroke="#000000" points="0,0 0,-32 101,-32 101,0 0,0"/>
</g>
<!-- Types&#45;&gt;nc:ItemValueAssigner -->
<g id="edge1" class="edge">
<title>Types:top&#45;&gt;nc:ItemValueAssigner</title>
<path fill="none" stroke="#000000" d="M100.5,-24C119.0484,-24 139.0093,-24 157.801,-24"/>
<polygon fill="#000000" stroke="#000000" points="157.8046,-27.5001 167.8046,-24 157.8046,-20.5001 157.8046,-27.5001"/>
<text text-anchor="middle" x="134.5" y="-27.4" font-family="Helvetica,sans-Serif" font-size="12.00" fill="#000000">has&#45;a</text>
</g>
</g>
</svg>
