<?xml version="1.0" encoding="UTF-8" standalone="no"?>
<!DOCTYPE svg PUBLIC "-//W3C//DTD SVG 1.1//EN"
 "http://www.w3.org/Graphics/SVG/1.1/DTD/svg11.dtd">
<!-- Generated by graphviz version 2.40.1 (20161225.0304)
 -->
<!-- Title: graphic Pages: 1 -->
<svg width="527pt" height="45pt"
 viewBox="0.00 0.00 527.00 45.00" xmlns="http://www.w3.org/2000/svg" xmlns:xlink="http://www.w3.org/1999/xlink">
<g id="graph0" class="graph" transform="scale(1 1) rotate(0) translate(4 41)">
<title>graphic</title>
<polygon fill="#ffffff" stroke="transparent" points="-4,4 -4,-41 523,-41 523,4 -4,4"/>
<!-- scr:ArrestMethod -->
<g id="node1" class="node">
<title>scr:ArrestMethod</title>
<text text-anchor="start" x="230.5" y="-21.4" font-family="Helvetica,sans-Serif" font-weight="bold" font-size="12.00" fill="#000000">scr:ArrestMethod</text>
<polygon fill="none" stroke="#ff0000" stroke-width="5" points="226.5,-14 226.5,-34 334.5,-34 334.5,-14 226.5,-14"/>
</g>
<!-- scr:ArrestMethodType -->
<g id="node3" class="node">
<title>scr:ArrestMethodType</title>
<g id="a_node3_0"><a xlink:href="../../scr/ArrestMethodType/#diagram" xlink:title="A data type for a information on the manner of ARREST" target="_top">
<text text-anchor="start" x="398.5" y="-20.4" font-family="Helvetica,sans-Serif" font-size="12.00" fill="#000000">scr:ArrestMethodType</text>
</a>
</g>
<polygon fill="none" stroke="#000000" points="396,-15.5 396,-32.5 519,-32.5 519,-15.5 396,-15.5"/>
</g>
<!-- scr:ArrestMethod&#45;&gt;scr:ArrestMethodType -->
<g id="edge2" class="edge">
<title>scr:ArrestMethod&#45;&gt;scr:ArrestMethodType</title>
<path fill="none" stroke="#000000" d="M337.4782,-24C352.7319,-24 369.4228,-24 385.3778,-24"/>
<polygon fill="#000000" stroke="#000000" points="385.7338,-27.5001 395.7338,-24 385.7337,-20.5001 385.7338,-27.5001"/>
<text text-anchor="middle" x="366.5" y="-27.4" font-family="Helvetica,sans-Serif" font-size="12.00" fill="#000000">type</text>
</g>
<!-- Types -->
<g id="node2" class="node">
<title>Types</title>
<text text-anchor="start" x="2.5" y="-21.4" font-family="Helvetica,sans-Serif" font-weight="bold" font-size="12.00" fill="#000000">Types</text>
<g id="a_node2_1"><a xlink:href="../../scr/ArrestAugmentationType/#diagram" xlink:title="A data type for additional information about an arrest." target="_top">
<polygon fill="#ebebeb" stroke="transparent" points="1.5,-1 1.5,-16 156.5,-16 156.5,-1 1.5,-1"/>
<text text-anchor="start" x="2.5" y="-5.4" font-family="Helvetica,sans-Serif" font-size="12.00" fill="#000000">scr:ArrestAugmentationType</text>
</a>
</g>
<polygon fill="#000000" stroke="#000000" points=".5,-16 .5,-16 157.5,-16 157.5,-16 .5,-16"/>
<polygon fill="none" stroke="#000000" points="0,0 0,-32 157,-32 157,0 0,0"/>
</g>
<!-- Types&#45;&gt;scr:ArrestMethod -->
<g id="edge1" class="edge">
<title>Types:top&#45;&gt;scr:ArrestMethod</title>
<path fill="none" stroke="#000000" d="M156.5,-24C175.0273,-24 195.1118,-24 213.6126,-24"/>
<polygon fill="#000000" stroke="#000000" points="213.7079,-27.5001 223.7079,-24 213.7078,-20.5001 213.7079,-27.5001"/>
<text text-anchor="middle" x="190.5" y="-27.4" font-family="Helvetica,sans-Serif" font-size="12.00" fill="#000000">has&#45;a</text>
</g>
</g>
</svg>
