<?xml version="1.0" encoding="UTF-8" standalone="no"?>
<!DOCTYPE svg PUBLIC "-//W3C//DTD SVG 1.1//EN"
 "http://www.w3.org/Graphics/SVG/1.1/DTD/svg11.dtd">
<!-- Generated by graphviz version 2.40.1 (20161225.0304)
 -->
<!-- Title: graphic Pages: 1 -->
<svg width="633pt" height="45pt"
 viewBox="0.00 0.00 633.00 45.00" xmlns="http://www.w3.org/2000/svg" xmlns:xlink="http://www.w3.org/1999/xlink">
<g id="graph0" class="graph" transform="scale(1 1) rotate(0) translate(4 41)">
<title>graphic</title>
<polygon fill="#ffffff" stroke="transparent" points="-4,4 -4,-41 629,-41 629,4 -4,4"/>
<!-- j:EntityInstantMessengerAssociationAugmentationPoint -->
<g id="node1" class="node">
<title>j:EntityInstantMessengerAssociationAugmentationPoint</title>
<text text-anchor="start" x="297" y="-21.4" font-family="Helvetica,sans-Serif" font-weight="bold" font-size="12.00" fill="#000000">j:EntityInstantMessengerAssociationAugmentationPoint</text>
<polygon fill="none" stroke="#ff0000" stroke-width="5" points="293.5,-14 293.5,-34 622.5,-34 622.5,-14 293.5,-14"/>
</g>
<!-- Types -->
<g id="node2" class="node">
<title>Types</title>
<text text-anchor="start" x="2" y="-21.4" font-family="Helvetica,sans-Serif" font-weight="bold" font-size="12.00" fill="#000000">Types</text>
<g id="a_node2_0"><a xlink:href="../../j/EntityInstantMessengerAssociationType/#diagram" xlink:title="A data type for a relationship between an entity (person or organization) and an other contact address." target="_top">
<polygon fill="#ebebeb" stroke="transparent" points="1,-1 1,-16 223,-16 223,-1 1,-1"/>
<text text-anchor="start" x="2" y="-5.4" font-family="Helvetica,sans-Serif" font-size="12.00" fill="#000000">j:EntityInstantMessengerAssociationType</text>
</a>
</g>
<polygon fill="#000000" stroke="#000000" points="0,-16 0,-16 224,-16 224,-16 0,-16"/>
<polygon fill="none" stroke="#000000" points="0,0 0,-32 224,-32 224,0 0,0"/>
</g>
<!-- Types&#45;&gt;j:EntityInstantMessengerAssociationAugmentationPoint -->
<g id="edge1" class="edge">
<title>Types:top&#45;&gt;j:EntityInstantMessengerAssociationAugmentationPoint</title>
<path fill="none" stroke="#000000" d="M223,-24C241.6741,-24 261.183,-24 280.6311,-24"/>
<polygon fill="#000000" stroke="#000000" points="280.7909,-27.5001 290.7909,-24 280.7909,-20.5001 280.7909,-27.5001"/>
<text text-anchor="middle" x="257.5" y="-27.4" font-family="Helvetica,sans-Serif" font-size="12.00" fill="#000000">has&#45;a</text>
</g>
</g>
</svg>
