<?xml version="1.0" encoding="UTF-8" standalone="no"?>
<!DOCTYPE svg PUBLIC "-//W3C//DTD SVG 1.1//EN"
 "http://www.w3.org/Graphics/SVG/1.1/DTD/svg11.dtd">
<!-- Generated by graphviz version 2.40.1 (20161225.0304)
 -->
<!-- Title: graphic Pages: 1 -->
<svg width="429pt" height="154pt"
 viewBox="0.00 0.00 429.00 153.50" xmlns="http://www.w3.org/2000/svg" xmlns:xlink="http://www.w3.org/1999/xlink">
<g id="graph0" class="graph" transform="scale(1 1) rotate(0) translate(4 149.5)">
<title>graphic</title>
<polygon fill="#ffffff" stroke="transparent" points="-4,4 -4,-149.5 425,-149.5 425,4 -4,4"/>
<!-- scr:ArrestMethodCategoryCodeType -->
<g id="node1" class="node">
<title>scr:ArrestMethodCategoryCodeType</title>
<text text-anchor="start" x="197.5" y="-25.4" font-family="Helvetica,sans-Serif" font-weight="bold" font-size="12.00" fill="#000000">scr:ArrestMethodCategoryCodeType</text>
<g id="a_node1_0"><a xlink:href="../../structures/SimpleObjectAttributeGroup/#diagram" xlink:title="A group of attributes that are applicable to objects, to be used when defining a complex type that is an extension of a simple type." target="_top">
<polygon fill="#ebebeb" stroke="transparent" points="196.5,-5 196.5,-20 409.5,-20 409.5,-5 196.5,-5"/>
<text text-anchor="start" x="197.5" y="-9.4" font-family="Helvetica,sans-Serif" font-size="12.00" fill="#000000">structures:SimpleObjectAttributeGroup</text>
</a>
</g>
<polygon fill="#ff0000" stroke="#ff0000" points="191.5,-20 191.5,-20 414.5,-20 414.5,-20 191.5,-20"/>
<polygon fill="none" stroke="#ff0000" stroke-width="5" points="193.5,-2.5 193.5,-37.5 411.5,-37.5 411.5,-2.5 193.5,-2.5"/>
</g>
<!-- Properties -->
<g id="node2" class="node">
<title>Properties</title>
<text text-anchor="start" x="2.5" y="-25.4" font-family="Helvetica,sans-Serif" font-weight="bold" font-size="12.00" fill="#000000">Properties</text>
<g id="a_node2_1"><a xlink:href="../../scr/ArrestMethodCode/#diagram" xlink:title="An ARREST METHOD TYPE" target="_top">
<polygon fill="#ebebeb" stroke="transparent" points="1.5,-5 1.5,-20 124.5,-20 124.5,-5 1.5,-5"/>
<text text-anchor="start" x="2.5" y="-9.4" font-family="Helvetica,sans-Serif" font-size="12.00" fill="#000000">scr:ArrestMethodCode</text>
</a>
</g>
<polygon fill="#000000" stroke="#000000" points=".5,-20 .5,-20 125.5,-20 125.5,-20 .5,-20"/>
<polygon fill="none" stroke="#000000" points="0,-4 0,-36 125,-36 125,-4 0,-4"/>
</g>
<!-- Properties&#45;&gt;scr:ArrestMethodCategoryCodeType -->
<g id="edge1" class="edge">
<title>Properties:top&#45;&gt;scr:ArrestMethodCategoryCodeType:top</title>
<path fill="none" stroke="#000000" d="M124.5,-28C152.875,-28 162.3795,-28 186.4792,-28"/>
<polygon fill="#000000" stroke="#000000" points="186.5,-31.5001 196.5,-28 186.5,-24.5001 186.5,-31.5001"/>
<text text-anchor="middle" x="154.5" y="-31.4" font-family="Helvetica,sans-Serif" font-size="12.00" fill="#000000">type</text>
</g>
<!-- scr:ArrestMethodCategoryCodeSimpleType -->
<g id="node3" class="node">
<title>scr:ArrestMethodCategoryCodeSimpleType</title>
<g id="a_node3_2"><a xlink:href="../../scr/ArrestMethodCategoryCodeSimpleType/#diagram" xlink:title="A data type describing the kinds of Apprehension methods" target="_top">
<text text-anchor="start" x="186.5" y="-80.4" font-family="Helvetica,sans-Serif" font-size="12.00" fill="#000000">scr:ArrestMethodCategoryCodeSimpleType</text>
</a>
</g>
<polygon fill="none" stroke="#000000" points="184,-75.5 184,-92.5 421,-92.5 421,-75.5 184,-75.5"/>
</g>
<!-- scr:ArrestMethodCategoryCodeSimpleType&#45;&gt;scr:ArrestMethodCategoryCodeType -->
<g id="edge2" class="edge">
<title>scr:ArrestMethodCategoryCodeSimpleType&#45;&gt;scr:ArrestMethodCategoryCodeType</title>
<path fill="none" stroke="#000000" d="M302.5,-75.4351C302.5,-68.931 302.5,-59.5678 302.5,-50.3827"/>
<polygon fill="#000000" stroke="#000000" points="306.0001,-50.25 302.5,-40.25 299.0001,-50.25 306.0001,-50.25"/>
<text text-anchor="middle" x="293" y="-54.65" font-family="Helvetica,sans-Serif" font-size="12.00" fill="#000000">extension</text>
</g>
<!-- xs:token -->
<g id="node4" class="node">
<title>xs:token</title>
<g id="a_node4_3"><a xlink:href="../../xs/token/#diagram" xlink:title="&lt;TABLE&gt;" target="_top">
<text text-anchor="start" x="280.5" y="-133.4" font-family="Helvetica,sans-Serif" font-size="12.00" fill="#000000">xs:token</text>
</a>
</g>
<polygon fill="none" stroke="#000000" points="278,-128.5 278,-145.5 327,-145.5 327,-128.5 278,-128.5"/>
</g>
<!-- xs:token&#45;&gt;scr:ArrestMethodCategoryCodeSimpleType -->
<g id="edge3" class="edge">
<title>xs:token&#45;&gt;scr:ArrestMethodCategoryCodeSimpleType</title>
<path fill="none" stroke="#000000" d="M302.5,-128.411C302.5,-121.5124 302.5,-111.5696 302.5,-102.84"/>
<polygon fill="#000000" stroke="#000000" points="306.0001,-102.7518 302.5,-92.7519 299.0001,-102.7519 306.0001,-102.7518"/>
<text text-anchor="middle" x="293" y="-107.4" font-family="Helvetica,sans-Serif" font-size="12.00" fill="#000000">restriction</text>
</g>
</g>
</svg>
