<?xml version="1.0" encoding="UTF-8" standalone="no"?>
<!DOCTYPE svg PUBLIC "-//W3C//DTD SVG 1.1//EN"
 "http://www.w3.org/Graphics/SVG/1.1/DTD/svg11.dtd">
<!-- Generated by graphviz version 2.40.1 (20161225.0304)
 -->
<!-- Title: graphic Pages: 1 -->
<svg width="671pt" height="45pt"
 viewBox="0.00 0.00 671.00 45.00" xmlns="http://www.w3.org/2000/svg" xmlns:xlink="http://www.w3.org/1999/xlink">
<g id="graph0" class="graph" transform="scale(1 1) rotate(0) translate(4 41)">
<title>graphic</title>
<polygon fill="#ffffff" stroke="transparent" points="-4,4 -4,-41 667,-41 667,4 -4,4"/>
<!-- j:MonthlyLivingExpenseRentOrMortgageAmount -->
<g id="node1" class="node">
<title>j:MonthlyLivingExpenseRentOrMortgageAmount</title>
<text text-anchor="start" x="230.5" y="-21.4" font-family="Helvetica,sans-Serif" font-weight="bold" font-size="12.00" fill="#000000">j:MonthlyLivingExpenseRentOrMortgageAmount</text>
<polygon fill="none" stroke="#ff0000" stroke-width="5" points="226.5,-14 226.5,-34 512.5,-34 512.5,-14 226.5,-14"/>
</g>
<!-- nc:AmountType -->
<g id="node3" class="node">
<title>nc:AmountType</title>
<g id="a_node3_0"><a xlink:href="../../nc/AmountType/#diagram" xlink:title="A data type for an amount of money." target="_top">
<text text-anchor="start" x="576.5" y="-20.4" font-family="Helvetica,sans-Serif" font-size="12.00" fill="#000000">nc:AmountType</text>
</a>
</g>
<polygon fill="none" stroke="#000000" points="574,-15.5 574,-32.5 663,-32.5 663,-15.5 574,-15.5"/>
</g>
<!-- j:MonthlyLivingExpenseRentOrMortgageAmount&#45;&gt;nc:AmountType -->
<g id="edge2" class="edge">
<title>j:MonthlyLivingExpenseRentOrMortgageAmount&#45;&gt;nc:AmountType</title>
<path fill="none" stroke="#000000" d="M515.0648,-24C532.1926,-24 548.7727,-24 563.457,-24"/>
<polygon fill="#000000" stroke="#000000" points="563.7952,-27.5001 573.7951,-24 563.7951,-20.5001 563.7952,-27.5001"/>
<text text-anchor="middle" x="544.5" y="-27.4" font-family="Helvetica,sans-Serif" font-size="12.00" fill="#000000">type</text>
</g>
<!-- Types -->
<g id="node2" class="node">
<title>Types</title>
<text text-anchor="start" x="2.5" y="-21.4" font-family="Helvetica,sans-Serif" font-weight="bold" font-size="12.00" fill="#000000">Types</text>
<g id="a_node2_1"><a xlink:href="../../j/MonthlyLivingExpenseType/#diagram" xlink:title="A data type for a set of details describing the allocation of money for one month of living expenses." target="_top">
<polygon fill="#ebebeb" stroke="transparent" points="1.5,-1 1.5,-16 156.5,-16 156.5,-1 1.5,-1"/>
<text text-anchor="start" x="2.5" y="-5.4" font-family="Helvetica,sans-Serif" font-size="12.00" fill="#000000">j:MonthlyLivingExpenseType</text>
</a>
</g>
<polygon fill="#000000" stroke="#000000" points=".5,-16 .5,-16 157.5,-16 157.5,-16 .5,-16"/>
<polygon fill="none" stroke="#000000" points="0,0 0,-32 157,-32 157,0 0,0"/>
</g>
<!-- Types&#45;&gt;j:MonthlyLivingExpenseRentOrMortgageAmount -->
<g id="edge1" class="edge">
<title>Types:top&#45;&gt;j:MonthlyLivingExpenseRentOrMortgageAmount</title>
<path fill="none" stroke="#000000" d="M156.5,-24C175.0791,-24 194.5699,-24 213.8987,-24"/>
<polygon fill="#000000" stroke="#000000" points="213.9861,-27.5001 223.9861,-24 213.986,-20.5001 213.9861,-27.5001"/>
<text text-anchor="middle" x="190.5" y="-27.4" font-family="Helvetica,sans-Serif" font-size="12.00" fill="#000000">has&#45;a</text>
</g>
</g>
</svg>
