<?xml version="1.0" encoding="UTF-8" standalone="no"?>
<!DOCTYPE svg PUBLIC "-//W3C//DTD SVG 1.1//EN"
 "http://www.w3.org/Graphics/SVG/1.1/DTD/svg11.dtd">
<!-- Generated by graphviz version 2.40.1 (20161225.0304)
 -->
<!-- Title: graphic Pages: 1 -->
<svg width="506pt" height="45pt"
 viewBox="0.00 0.00 506.00 45.00" xmlns="http://www.w3.org/2000/svg" xmlns:xlink="http://www.w3.org/1999/xlink">
<g id="graph0" class="graph" transform="scale(1 1) rotate(0) translate(4 41)">
<title>graphic</title>
<polygon fill="#ffffff" stroke="transparent" points="-4,4 -4,-41 502,-41 502,4 -4,4"/>
<!-- biom:MetricValue -->
<g id="node1" class="node">
<title>biom:MetricValue</title>
<text text-anchor="start" x="259.5" y="-21.4" font-family="Helvetica,sans-Serif" font-weight="bold" font-size="12.00" fill="#000000">biom:MetricValue</text>
<polygon fill="none" stroke="#ff0000" stroke-width="5" points="255.5,-14 255.5,-34 363.5,-34 363.5,-14 255.5,-14"/>
</g>
<!-- niem&#45;xs:float -->
<g id="node3" class="node">
<title>niem&#45;xs:float</title>
<g id="a_node3_0"><a xlink:href="../../niem-xs/float/#diagram" xlink:title="A data type that is patterned after the IEEE single&#45;precision 32&#45;bit floating point type [IEEE 754&#45;1985]. The basic value space of float consists of the values m x 2^e, where m is an integer whose absolute value is less than 2^24, and e is an integer between &#45;149 and 104, inclusive. In addition to the basic value space described above, the value space of float also contains the following three special values: positive and negative infinity and not&#45;a&#45;number (NaN)." target="_top">
<text text-anchor="start" x="427.5" y="-20.4" font-family="Helvetica,sans-Serif" font-size="12.00" fill="#000000">niem&#45;xs:float</text>
</a>
</g>
<polygon fill="none" stroke="#000000" points="425,-15.5 425,-32.5 498,-32.5 498,-15.5 425,-15.5"/>
</g>
<!-- biom:MetricValue&#45;&gt;niem&#45;xs:float -->
<g id="edge2" class="edge">
<title>biom:MetricValue&#45;&gt;niem&#45;xs:float</title>
<path fill="none" stroke="#000000" d="M366.0992,-24C382.0097,-24 399.1359,-24 414.4261,-24"/>
<polygon fill="#000000" stroke="#000000" points="414.6808,-27.5001 424.6808,-24 414.6808,-20.5001 414.6808,-27.5001"/>
<text text-anchor="middle" x="395.5" y="-27.4" font-family="Helvetica,sans-Serif" font-size="12.00" fill="#000000">type</text>
</g>
<!-- Types -->
<g id="node2" class="node">
<title>Types</title>
<text text-anchor="start" x="2" y="-21.4" font-family="Helvetica,sans-Serif" font-weight="bold" font-size="12.00" fill="#000000">Types</text>
<g id="a_node2_1"><a xlink:href="../../biom/BiometricCaptureMetricType/#diagram" xlink:title="A data type for representing Biometric Quality Metrics for the captured biometric image" target="_top">
<polygon fill="#ebebeb" stroke="transparent" points="1,-1 1,-16 185,-16 185,-1 1,-1"/>
<text text-anchor="start" x="2" y="-5.4" font-family="Helvetica,sans-Serif" font-size="12.00" fill="#000000">biom:BiometricCaptureMetricType</text>
</a>
</g>
<polygon fill="#000000" stroke="#000000" points="0,-16 0,-16 186,-16 186,-16 0,-16"/>
<polygon fill="none" stroke="#000000" points="0,0 0,-32 186,-32 186,0 0,0"/>
</g>
<!-- Types&#45;&gt;biom:MetricValue -->
<g id="edge1" class="edge">
<title>Types:top&#45;&gt;biom:MetricValue</title>
<path fill="none" stroke="#000000" d="M185,-24C203.6932,-24 223.9653,-24 242.6159,-24"/>
<polygon fill="#000000" stroke="#000000" points="242.7903,-27.5001 252.7902,-24 242.7902,-20.5001 242.7903,-27.5001"/>
<text text-anchor="middle" x="219.5" y="-27.4" font-family="Helvetica,sans-Serif" font-size="12.00" fill="#000000">has&#45;a</text>
</g>
</g>
</svg>
