<?xml version="1.0" encoding="UTF-8" standalone="no"?>
<!DOCTYPE svg PUBLIC "-//W3C//DTD SVG 1.1//EN"
 "http://www.w3.org/Graphics/SVG/1.1/DTD/svg11.dtd">
<!-- Generated by graphviz version 2.40.1 (20161225.0304)
 -->
<!-- Title: graphic Pages: 1 -->
<svg width="776pt" height="191pt"
 viewBox="0.00 0.00 776.00 190.50" xmlns="http://www.w3.org/2000/svg" xmlns:xlink="http://www.w3.org/1999/xlink">
<g id="graph0" class="graph" transform="scale(1 1) rotate(0) translate(4 186.5)">
<title>graphic</title>
<polygon fill="#ffffff" stroke="transparent" points="-4,4 -4,-186.5 772,-186.5 772,4 -4,4"/>
<!-- biom:OtherMinutiaeType -->
<g id="node1" class="node">
<title>biom:OtherMinutiaeType</title>
<text text-anchor="start" x="174" y="-115.4" font-family="Helvetica,sans-Serif" font-weight="bold" font-size="12.00" fill="#000000">biom:OtherMinutiaeType</text>
<g id="a_node1_0"><a xlink:href="../../biom/ImageCaptureDetail/#diagram" xlink:title="A set of information regarding the captured (e.g., scanned) image" target="_top">
<polygon fill="#ebebeb" stroke="transparent" points="173,-95 173,-110 487,-110 487,-95 173,-95"/>
<text text-anchor="start" x="174" y="-99.4" font-family="Helvetica,sans-Serif" font-size="12.00" fill="#000000">biom:ImageCaptureDetail: biom:ImageCaptureType [0&#45;n]</text>
</a>
</g>
<g id="a_node1_1"><a xlink:href="../../biom/MinutiaeAlgorithmOwnerText/#diagram" xlink:title="A name of an editing station or owner or developer of a minutiae processing algorithm" target="_top">
<text text-anchor="start" x="174" y="-84.4" font-family="Helvetica,sans-Serif" font-size="12.00" fill="#000000">biom:MinutiaeAlgorithmOwnerText: nc:TextType [0&#45;n]</text>
</a>
</g>
<g id="a_node1_2"><a xlink:href="../../biom/MinutiaeAlgorithm/#diagram" xlink:title="An algorithm used to capture minutiae" target="_top">
<polygon fill="#ebebeb" stroke="transparent" points="173,-65 173,-80 487,-80 487,-65 173,-65"/>
<text text-anchor="start" x="174" y="-69.4" font-family="Helvetica,sans-Serif" font-size="12.00" fill="#000000">biom:MinutiaeAlgorithm: biom:MinutiaeAlgorithmType [0&#45;n]</text>
</a>
</g>
<g id="a_node1_3"><a xlink:href="../../biom/CaptureDevice/#diagram" xlink:title="A data type for a set of information regarding the captured device information" target="_top">
<text text-anchor="start" x="174" y="-54.4" font-family="Helvetica,sans-Serif" font-size="12.00" fill="#000000">biom:CaptureDevice: biom:DeviceType [0&#45;n]</text>
</a>
</g>
<g id="a_node1_4"><a xlink:href="../../nc/ContactInformationDescriptionText/#diagram" xlink:title="A description of the contact information." target="_top">
<polygon fill="#ebebeb" stroke="transparent" points="173,-35 173,-50 487,-50 487,-35 173,-35"/>
<text text-anchor="start" x="174" y="-39.4" font-family="Helvetica,sans-Serif" font-size="12.00" fill="#000000">nc:ContactInformationDescriptionText: nc:TextType [0&#45;n]</text>
</a>
</g>
<g id="a_node1_5"><a xlink:href="../../biom/MinutiaAbstract/#diagram" xlink:title="A data concept for a single minutia" target="_top">
<text text-anchor="start" x="174" y="-24.4" font-family="Helvetica,sans-Serif" font-size="12.00" fill="#000000">biom:MinutiaAbstract [0&#45;n]</text>
</a>
</g>
<g id="a_node1_6"><a xlink:href="../../biom/OtherMinutiaeAugmentationPoint/#diagram" xlink:title="An augmentation point for OtherMinutiaeType." target="_top">
<polygon fill="#ebebeb" stroke="transparent" points="173,-5 173,-20 487,-20 487,-5 173,-5"/>
<text text-anchor="start" x="174" y="-9.4" font-family="Helvetica,sans-Serif" font-size="12.00" fill="#000000">biom:OtherMinutiaeAugmentationPoint [0&#45;n]</text>
</a>
</g>
<polygon fill="#ff0000" stroke="#ff0000" points="168,-110 168,-110 492,-110 492,-110 168,-110"/>
<polygon fill="none" stroke="#ff0000" stroke-width="5" points="170.5,-2.5 170.5,-127.5 489.5,-127.5 489.5,-2.5 170.5,-2.5"/>
</g>
<!-- subst_d9e26605 -->
<g id="node2" class="node">
<title>subst_d9e26605</title>
<g id="a_node2_7"><a xlink:href="../../biom/MinutiaAbstract/#diagram" xlink:title="&lt;TABLE&gt;" target="_top">
<text text-anchor="start" x="531.5" y="-24.4" font-family="Helvetica,sans-Serif" font-weight="bold" font-size="12.00" fill="#000000">Substitution group biom:MinutiaAbstract</text>
</a>
</g>
<g id="a_node2_8"><a xlink:href="../../biom/FingerRidgeMinutia/#diagram" xlink:title="A minutia in a friction ridge image (Obsolete)." target="_top">
<polygon fill="#ebebeb" stroke="transparent" points="530.5,-4 530.5,-19 767.5,-19 767.5,-4 530.5,-4"/>
<text text-anchor="start" x="531.5" y="-8.4" font-family="Helvetica,sans-Serif" font-size="12.00" fill="#000000">biom:FingerRidgeMinutia: biom:MinutiaType</text>
</a>
</g>
<polygon fill="#000000" stroke="#000000" points="529.5,-19 529.5,-19 768.5,-19 768.5,-19 529.5,-19"/>
<polygon fill="none" stroke="#000000" points="529,-3 529,-35 768,-35 768,-3 529,-3"/>
</g>
<!-- biom:OtherMinutiaeType&#45;&gt;subst_d9e26605 -->
<g id="edge1" class="edge">
<title>biom:OtherMinutiaeType:e&#45;&gt;subst_d9e26605:w</title>
<path fill="none" stroke="#000000" d="M497.2295,-27C508.8951,-27 515.0938,-27 530.5,-27"/>
<polygon fill="#000000" stroke="#000000" points="497,-23.5001 487,-27 497,-30.5001 497,-23.5001"/>
</g>
<!-- Properties -->
<g id="node3" class="node">
<title>Properties</title>
<text text-anchor="start" x="2.5" y="-115.4" font-family="Helvetica,sans-Serif" font-weight="bold" font-size="12.00" fill="#000000">Properties</text>
<g id="a_node3_9"><a xlink:href="../../biom/OtherMinutiae/#diagram" xlink:title="A set of minutiae definitions to be used for a feature set owner or developer other than the ones specifically defined in this standard" target="_top">
<polygon fill="#ebebeb" stroke="transparent" points="1.5,-95 1.5,-110 108.5,-110 108.5,-95 1.5,-95"/>
<text text-anchor="start" x="2.5" y="-99.4" font-family="Helvetica,sans-Serif" font-size="12.00" fill="#000000">biom:OtherMinutiae</text>
</a>
</g>
<polygon fill="#000000" stroke="#000000" points=".5,-110 .5,-110 109.5,-110 109.5,-110 .5,-110"/>
<polygon fill="none" stroke="#000000" points="0,-94 0,-126 109,-126 109,-94 0,-94"/>
</g>
<!-- Properties&#45;&gt;biom:OtherMinutiaeType -->
<g id="edge2" class="edge">
<title>Properties:top&#45;&gt;biom:OtherMinutiaeType:top</title>
<path fill="none" stroke="#000000" d="M108.5,-118C133.4714,-118 142.1284,-118 162.8937,-118"/>
<polygon fill="#000000" stroke="#000000" points="163,-121.5001 173,-118 163,-114.5001 163,-121.5001"/>
<text text-anchor="middle" x="138.5" y="-121.4" font-family="Helvetica,sans-Serif" font-size="12.00" fill="#000000">type</text>
</g>
<!-- structures:ObjectType -->
<g id="node4" class="node">
<title>structures:ObjectType</title>
<g id="a_node4_10"><a xlink:href="../../structures/ObjectType/#diagram" xlink:title="A data type for a thing with its own lifespan that has some existence." target="_top">
<text text-anchor="start" x="271" y="-170.4" font-family="Helvetica,sans-Serif" font-size="12.00" fill="#000000">structures:ObjectType</text>
</a>
</g>
<polygon fill="none" stroke="#000000" points="269,-165.5 269,-182.5 391,-182.5 391,-165.5 269,-165.5"/>
</g>
<!-- structures:ObjectType&#45;&gt;biom:OtherMinutiaeType -->
<g id="edge3" class="edge">
<title>structures:ObjectType&#45;&gt;biom:OtherMinutiaeType</title>
<path fill="none" stroke="#000000" d="M330,-165.3644C330,-159.2696 330,-150.4448 330,-140.522"/>
<polygon fill="#000000" stroke="#000000" points="333.5001,-140.2935 330,-130.2936 326.5001,-140.2936 333.5001,-140.2935"/>
<text text-anchor="middle" x="320.5" y="-144.65" font-family="Helvetica,sans-Serif" font-size="12.00" fill="#000000">extension</text>
</g>
</g>
</svg>
