<?xml version="1.0" encoding="UTF-8" standalone="no"?>
<!DOCTYPE svg PUBLIC "-//W3C//DTD SVG 1.1//EN"
 "http://www.w3.org/Graphics/SVG/1.1/DTD/svg11.dtd">
<!-- Generated by graphviz version 2.40.1 (20161225.0304)
 -->
<!-- Title: graphic Pages: 1 -->
<svg width="529pt" height="116pt"
 viewBox="0.00 0.00 529.00 116.00" xmlns="http://www.w3.org/2000/svg" xmlns:xlink="http://www.w3.org/1999/xlink">
<g id="graph0" class="graph" transform="scale(1 1) rotate(0) translate(4 112)">
<title>graphic</title>
<polygon fill="#ffffff" stroke="transparent" points="-4,4 -4,-112 525,-112 525,4 -4,4"/>
<!-- im:PersonNameAugmentationType -->
<g id="node1" class="node">
<title>im:PersonNameAugmentationType</title>
<text text-anchor="start" x="230.5" y="-39.9" font-family="Helvetica,sans-Serif" font-weight="bold" font-size="12.00" fill="#000000">im:PersonNameAugmentationType</text>
<g id="a_node1_0"><a xlink:href="../../im/PersonNickName/#diagram" xlink:title="A nickname or street name of a person." target="_top">
<polygon fill="#ebebeb" stroke="transparent" points="229.5,-19.5 229.5,-34.5 516.5,-34.5 516.5,-19.5 229.5,-19.5"/>
<text text-anchor="start" x="230.5" y="-23.9" font-family="Helvetica,sans-Serif" font-size="12.00" fill="#000000">im:PersonNickName: nc:PersonNameTextType [0&#45;n]</text>
</a>
</g>
<g id="a_node1_1"><a xlink:href="../../im/PersonNameDateRange/#diagram" xlink:title="A beginning and ending date range for the use of a name" target="_top">
<text text-anchor="start" x="230.5" y="-8.9" font-family="Helvetica,sans-Serif" font-size="12.00" fill="#000000">im:PersonNameDateRange: nc:DateRangeType [0&#45;n]</text>
</a>
</g>
<polygon fill="#ff0000" stroke="#ff0000" points="224.5,-34.5 224.5,-34.5 521.5,-34.5 521.5,-34.5 224.5,-34.5"/>
<polygon fill="none" stroke="#ff0000" stroke-width="5" points="226.5,-2.5 226.5,-52.5 518.5,-52.5 518.5,-2.5 226.5,-2.5"/>
</g>
<!-- Properties -->
<g id="node2" class="node">
<title>Properties</title>
<text text-anchor="start" x="2.5" y="-39.9" font-family="Helvetica,sans-Serif" font-weight="bold" font-size="12.00" fill="#000000">Properties</text>
<g id="a_node2_2"><a xlink:href="../../im/PersonNameAugmentation/#diagram" xlink:title="Additional information about a person name." target="_top">
<polygon fill="#ebebeb" stroke="transparent" points="1.5,-19.5 1.5,-34.5 164.5,-34.5 164.5,-19.5 1.5,-19.5"/>
<text text-anchor="start" x="2.5" y="-23.9" font-family="Helvetica,sans-Serif" font-size="12.00" fill="#000000">im:PersonNameAugmentation</text>
</a>
</g>
<polygon fill="#000000" stroke="#000000" points=".5,-34.5 .5,-34.5 165.5,-34.5 165.5,-34.5 .5,-34.5"/>
<polygon fill="none" stroke="#000000" points="0,-18.5 0,-50.5 165,-50.5 165,-18.5 0,-18.5"/>
</g>
<!-- Properties&#45;&gt;im:PersonNameAugmentationType -->
<g id="edge1" class="edge">
<title>Properties:top&#45;&gt;im:PersonNameAugmentationType:top</title>
<path fill="none" stroke="#000000" d="M164.5,-42.5C189.6649,-42.5 198.3891,-42.5 219.3154,-42.5"/>
<polygon fill="#000000" stroke="#000000" points="219.5,-46.0001 229.5,-42.5 219.5,-39.0001 219.5,-46.0001"/>
<text text-anchor="middle" x="194.5" y="-45.9" font-family="Helvetica,sans-Serif" font-size="12.00" fill="#000000">type</text>
</g>
<!-- structures:AugmentationType -->
<g id="node3" class="node">
<title>structures:AugmentationType</title>
<g id="a_node3_3"><a xlink:href="../../structures/AugmentationType/#diagram" xlink:title="A data type for a set of properties to be applied to a base type." target="_top">
<text text-anchor="start" x="294.5" y="-95.9" font-family="Helvetica,sans-Serif" font-size="12.00" fill="#000000">structures:AugmentationType</text>
</a>
</g>
<polygon fill="none" stroke="#000000" points="292,-91 292,-108 453,-108 453,-91 292,-91"/>
</g>
<!-- structures:AugmentationType&#45;&gt;im:PersonNameAugmentationType -->
<g id="edge2" class="edge">
<title>structures:AugmentationType&#45;&gt;im:PersonNameAugmentationType</title>
<path fill="none" stroke="#000000" d="M372.5,-90.8151C372.5,-84.3271 372.5,-74.9677 372.5,-65.4273"/>
<polygon fill="#000000" stroke="#000000" points="376.0001,-65.1311 372.5,-55.1312 369.0001,-65.1312 376.0001,-65.1311"/>
<text text-anchor="middle" x="363" y="-69.9" font-family="Helvetica,sans-Serif" font-size="12.00" fill="#000000">extension</text>
</g>
</g>
</svg>
