<?xml version="1.0" encoding="UTF-8" standalone="no"?>
<!DOCTYPE svg PUBLIC "-//W3C//DTD SVG 1.1//EN"
 "http://www.w3.org/Graphics/SVG/1.1/DTD/svg11.dtd">
<!-- Generated by graphviz version 2.40.1 (20161225.0304)
 -->
<!-- Title: graphic Pages: 1 -->
<svg width="426pt" height="45pt"
 viewBox="0.00 0.00 426.00 45.00" xmlns="http://www.w3.org/2000/svg" xmlns:xlink="http://www.w3.org/1999/xlink">
<g id="graph0" class="graph" transform="scale(1 1) rotate(0) translate(4 41)">
<title>graphic</title>
<polygon fill="#ffffff" stroke="transparent" points="-4,4 -4,-41 422,-41 422,4 -4,4"/>
<!-- mo:EventLocation -->
<g id="node1" class="node">
<title>mo:EventLocation</title>
<text text-anchor="start" x="155.5" y="-21.4" font-family="Helvetica,sans-Serif" font-weight="bold" font-size="12.00" fill="#000000">mo:EventLocation</text>
<polygon fill="none" stroke="#ff0000" stroke-width="5" points="151.5,-14 151.5,-34 263.5,-34 263.5,-14 151.5,-14"/>
</g>
<!-- nc:LocationType -->
<g id="node3" class="node">
<title>nc:LocationType</title>
<g id="a_node3_0"><a xlink:href="../../nc/LocationType/#diagram" xlink:title="A data type for geospatial location." target="_top">
<text text-anchor="start" x="327.5" y="-20.4" font-family="Helvetica,sans-Serif" font-size="12.00" fill="#000000">nc:LocationType</text>
</a>
</g>
<polygon fill="none" stroke="#000000" points="325,-15.5 325,-32.5 418,-32.5 418,-15.5 325,-15.5"/>
</g>
<!-- mo:EventLocation&#45;&gt;nc:LocationType -->
<g id="edge2" class="edge">
<title>mo:EventLocation&#45;&gt;nc:LocationType</title>
<path fill="none" stroke="#000000" d="M266.2445,-24C282.0775,-24 299.1715,-24 314.8856,-24"/>
<polygon fill="#000000" stroke="#000000" points="314.9857,-27.5001 324.9856,-24 314.9856,-20.5001 314.9857,-27.5001"/>
<text text-anchor="middle" x="295.5" y="-27.4" font-family="Helvetica,sans-Serif" font-size="12.00" fill="#000000">type</text>
</g>
<!-- Types -->
<g id="node2" class="node">
<title>Types</title>
<text text-anchor="start" x="2" y="-21.4" font-family="Helvetica,sans-Serif" font-weight="bold" font-size="12.00" fill="#000000">Types</text>
<g id="a_node2_1"><a xlink:href="../../mo/EventType/#diagram" xlink:title="A data type for the existence of a process or object at a location during a time interval." target="_top">
<polygon fill="#ebebeb" stroke="transparent" points="1,-1 1,-16 81,-16 81,-1 1,-1"/>
<text text-anchor="start" x="2" y="-5.4" font-family="Helvetica,sans-Serif" font-size="12.00" fill="#000000">mo:EventType</text>
</a>
</g>
<polygon fill="#000000" stroke="#000000" points="0,-16 0,-16 82,-16 82,-16 0,-16"/>
<polygon fill="none" stroke="#000000" points="0,0 0,-32 82,-32 82,0 0,0"/>
</g>
<!-- Types&#45;&gt;mo:EventLocation -->
<g id="edge1" class="edge">
<title>Types:top&#45;&gt;mo:EventLocation</title>
<path fill="none" stroke="#000000" d="M81,-24C99.7156,-24 119.9887,-24 138.7084,-24"/>
<polygon fill="#000000" stroke="#000000" points="138.9288,-27.5001 148.9287,-24 138.9287,-20.5001 138.9288,-27.5001"/>
<text text-anchor="middle" x="115.5" y="-27.4" font-family="Helvetica,sans-Serif" font-size="12.00" fill="#000000">has&#45;a</text>
</g>
</g>
</svg>
