<?xml version="1.0" encoding="UTF-8" standalone="no"?>
<!DOCTYPE svg PUBLIC "-//W3C//DTD SVG 1.1//EN"
 "http://www.w3.org/Graphics/SVG/1.1/DTD/svg11.dtd">
<!-- Generated by graphviz version 2.40.1 (20161225.0304)
 -->
<!-- Title: graphic Pages: 1 -->
<svg width="470pt" height="45pt"
 viewBox="0.00 0.00 470.00 45.00" xmlns="http://www.w3.org/2000/svg" xmlns:xlink="http://www.w3.org/1999/xlink">
<g id="graph0" class="graph" transform="scale(1 1) rotate(0) translate(4 41)">
<title>graphic</title>
<polygon fill="#ffffff" stroke="transparent" points="-4,4 -4,-41 466,-41 466,4 -4,4"/>
<!-- scr:PersonRoleEndDate -->
<g id="node1" class="node">
<title>scr:PersonRoleEndDate</title>
<text text-anchor="start" x="186" y="-21.4" font-family="Helvetica,sans-Serif" font-weight="bold" font-size="12.00" fill="#000000">scr:PersonRoleEndDate</text>
<polygon fill="none" stroke="#ff0000" stroke-width="5" points="182.5,-14 182.5,-34 327.5,-34 327.5,-14 182.5,-14"/>
</g>
<!-- nc:DateType -->
<g id="node3" class="node">
<title>nc:DateType</title>
<g id="a_node3_0"><a xlink:href="../../nc/DateType/#diagram" xlink:title="A data type for a calendar date." target="_top">
<text text-anchor="start" x="391.5" y="-20.4" font-family="Helvetica,sans-Serif" font-size="12.00" fill="#000000">nc:DateType</text>
</a>
</g>
<polygon fill="none" stroke="#000000" points="389,-15.5 389,-32.5 462,-32.5 462,-15.5 389,-15.5"/>
</g>
<!-- scr:PersonRoleEndDate&#45;&gt;nc:DateType -->
<g id="edge2" class="edge">
<title>scr:PersonRoleEndDate&#45;&gt;nc:DateType</title>
<path fill="none" stroke="#000000" d="M330.2801,-24C346.8059,-24 363.8384,-24 378.8476,-24"/>
<polygon fill="#000000" stroke="#000000" points="378.8843,-27.5001 388.8842,-24 378.8842,-20.5001 378.8843,-27.5001"/>
<text text-anchor="middle" x="359.5" y="-27.4" font-family="Helvetica,sans-Serif" font-size="12.00" fill="#000000">type</text>
</g>
<!-- Types -->
<g id="node2" class="node">
<title>Types</title>
<text text-anchor="start" x="2.5" y="-21.4" font-family="Helvetica,sans-Serif" font-weight="bold" font-size="12.00" fill="#000000">Types</text>
<g id="a_node2_1"><a xlink:href="../../scr/PersonRoleType/#diagram" xlink:title="A data type for a part played by a Person in an Encounter." target="_top">
<polygon fill="#ebebeb" stroke="transparent" points="1.5,-1 1.5,-16 112.5,-16 112.5,-1 1.5,-1"/>
<text text-anchor="start" x="2.5" y="-5.4" font-family="Helvetica,sans-Serif" font-size="12.00" fill="#000000">scr:PersonRoleType</text>
</a>
</g>
<polygon fill="#000000" stroke="#000000" points=".5,-16 .5,-16 113.5,-16 113.5,-16 .5,-16"/>
<polygon fill="none" stroke="#000000" points="0,0 0,-32 113,-32 113,0 0,0"/>
</g>
<!-- Types&#45;&gt;scr:PersonRoleEndDate -->
<g id="edge1" class="edge">
<title>Types:top&#45;&gt;scr:PersonRoleEndDate</title>
<path fill="none" stroke="#000000" d="M112.5,-24C131.059,-24 150.9777,-24 169.8655,-24"/>
<polygon fill="#000000" stroke="#000000" points="169.9354,-27.5001 179.9354,-24 169.9354,-20.5001 169.9354,-27.5001"/>
<text text-anchor="middle" x="146.5" y="-27.4" font-family="Helvetica,sans-Serif" font-size="12.00" fill="#000000">has&#45;a</text>
</g>
</g>
</svg>
