<?xml version="1.0" encoding="UTF-8" standalone="no"?>
<!DOCTYPE svg PUBLIC "-//W3C//DTD SVG 1.1//EN"
 "http://www.w3.org/Graphics/SVG/1.1/DTD/svg11.dtd">
<!-- Generated by graphviz version 2.40.1 (20161225.0304)
 -->
<!-- Title: graphic Pages: 1 -->
<svg width="638pt" height="131pt"
 viewBox="0.00 0.00 638.00 130.50" xmlns="http://www.w3.org/2000/svg" xmlns:xlink="http://www.w3.org/1999/xlink">
<g id="graph0" class="graph" transform="scale(1 1) rotate(0) translate(4 126.5)">
<title>graphic</title>
<polygon fill="#ffffff" stroke="transparent" points="-4,4 -4,-126.5 634,-126.5 634,4 -4,4"/>
<!-- scr:VoluntaryDepartureDecisionType -->
<g id="node1" class="node">
<title>scr:VoluntaryDepartureDecisionType</title>
<text text-anchor="start" x="239.5" y="-55.4" font-family="Helvetica,sans-Serif" font-weight="bold" font-size="12.00" fill="#000000">scr:VoluntaryDepartureDecisionType</text>
<g id="a_node1_0"><a xlink:href="../../scr/VoluntaryDepartDecisionCategoryText/#diagram" xlink:title="A kind of decision regarding the aliens voluntary departure request." target="_top">
<polygon fill="#ebebeb" stroke="transparent" points="238.5,-35 238.5,-50 625.5,-50 625.5,-35 238.5,-35"/>
<text text-anchor="start" x="239.5" y="-39.4" font-family="Helvetica,sans-Serif" font-size="12.00" fill="#000000">scr:VoluntaryDepartDecisionCategoryText: nc:TextType [0&#45;n]</text>
</a>
</g>
<g id="a_node1_1"><a xlink:href="../../scr/VoluntaryDepartDecisionCategoryDescriptionText/#diagram" xlink:title="A description of a decision regarding the aliens voluntary departure request." target="_top">
<text text-anchor="start" x="239.5" y="-24.4" font-family="Helvetica,sans-Serif" font-size="12.00" fill="#000000">scr:VoluntaryDepartDecisionCategoryDescriptionText: nc:TextType [0&#45;n]</text>
</a>
</g>
<g id="a_node1_2"><a xlink:href="../../scr/VoluntaryDepartureDecisionAugmentationPoint/#diagram" xlink:title="An augmentation point for VoluntaryDepartureDecisionType." target="_top">
<polygon fill="#ebebeb" stroke="transparent" points="238.5,-5 238.5,-20 625.5,-20 625.5,-5 238.5,-5"/>
<text text-anchor="start" x="239.5" y="-9.4" font-family="Helvetica,sans-Serif" font-size="12.00" fill="#000000">scr:VoluntaryDepartureDecisionAugmentationPoint [0&#45;n]</text>
</a>
</g>
<polygon fill="#ff0000" stroke="#ff0000" points="233.5,-50 233.5,-50 630.5,-50 630.5,-50 233.5,-50"/>
<polygon fill="none" stroke="#ff0000" stroke-width="5" points="235.5,-2.5 235.5,-67.5 627.5,-67.5 627.5,-2.5 235.5,-2.5"/>
</g>
<!-- Properties -->
<g id="node2" class="node">
<title>Properties</title>
<text text-anchor="start" x="2" y="-55.4" font-family="Helvetica,sans-Serif" font-weight="bold" font-size="12.00" fill="#000000">Properties</text>
<g id="a_node2_3"><a xlink:href="../../scr/VoluntaryDepartureDecision/#diagram" xlink:title="A classification of the VOLUNTARY DECISION." target="_top">
<polygon fill="#ebebeb" stroke="transparent" points="1,-35 1,-50 173,-50 173,-35 1,-35"/>
<text text-anchor="start" x="2" y="-39.4" font-family="Helvetica,sans-Serif" font-size="12.00" fill="#000000">scr:VoluntaryDepartureDecision</text>
</a>
</g>
<polygon fill="#000000" stroke="#000000" points="0,-50 0,-50 174,-50 174,-50 0,-50"/>
<polygon fill="none" stroke="#000000" points="0,-34 0,-66 174,-66 174,-34 0,-34"/>
</g>
<!-- Properties&#45;&gt;scr:VoluntaryDepartureDecisionType -->
<g id="edge1" class="edge">
<title>Properties:top&#45;&gt;scr:VoluntaryDepartureDecisionType:top</title>
<path fill="none" stroke="#000000" d="M173,-58C198.3585,-58 207.1498,-58 228.2371,-58"/>
<polygon fill="#000000" stroke="#000000" points="228.5,-61.5001 238.5,-58 228.5,-54.5001 228.5,-61.5001"/>
<text text-anchor="middle" x="203.5" y="-61.4" font-family="Helvetica,sans-Serif" font-size="12.00" fill="#000000">type</text>
</g>
<!-- structures:ObjectType -->
<g id="node3" class="node">
<title>structures:ObjectType</title>
<g id="a_node3_4"><a xlink:href="../../structures/ObjectType/#diagram" xlink:title="A data type for a thing with its own lifespan that has some existence." target="_top">
<text text-anchor="start" x="372.5" y="-110.4" font-family="Helvetica,sans-Serif" font-size="12.00" fill="#000000">structures:ObjectType</text>
</a>
</g>
<polygon fill="none" stroke="#000000" points="370.5,-105.5 370.5,-122.5 492.5,-122.5 492.5,-105.5 370.5,-105.5"/>
</g>
<!-- structures:ObjectType&#45;&gt;scr:VoluntaryDepartureDecisionType -->
<g id="edge2" class="edge">
<title>structures:ObjectType&#45;&gt;scr:VoluntaryDepartureDecisionType</title>
<path fill="none" stroke="#000000" d="M431.5,-105.4117C431.5,-99.1025 431.5,-89.9911 431.5,-80.4049"/>
<polygon fill="#000000" stroke="#000000" points="435.0001,-80.3408 431.5,-70.3408 428.0001,-80.3409 435.0001,-80.3408"/>
<text text-anchor="middle" x="422" y="-84.65" font-family="Helvetica,sans-Serif" font-size="12.00" fill="#000000">extension</text>
</g>
</g>
</svg>
