<?xml version="1.0" encoding="UTF-8" standalone="no"?>
<!DOCTYPE svg PUBLIC "-//W3C//DTD SVG 1.1//EN"
 "http://www.w3.org/Graphics/SVG/1.1/DTD/svg11.dtd">
<!-- Generated by graphviz version 2.40.1 (20161225.0304)
 -->
<!-- Title: graphic Pages: 1 -->
<svg width="329pt" height="86pt"
 viewBox="0.00 0.00 329.00 86.00" xmlns="http://www.w3.org/2000/svg" xmlns:xlink="http://www.w3.org/1999/xlink">
<g id="graph0" class="graph" transform="scale(1 1) rotate(0) translate(4 82)">
<title>graphic</title>
<polygon fill="#ffffff" stroke="transparent" points="-4,4 -4,-82 325,-82 325,4 -4,4"/>
<!-- nc:StreetDirectionalText -->
<g id="node1" class="node">
<title>nc:StreetDirectionalText</title>
<text text-anchor="start" x="26.5" y="-9.9" font-family="Helvetica,sans-Serif" font-weight="bold" font-size="12.00" fill="#000000">nc:StreetDirectionalText</text>
<polygon fill="none" stroke="#ff0000" stroke-width="5" points="22.5,-2.5 22.5,-22.5 168.5,-22.5 168.5,-2.5 22.5,-2.5"/>
</g>
<!-- nc:TextType -->
<g id="node3" class="node">
<title>nc:TextType</title>
<g id="a_node3_0"><a xlink:href="../../nc/TextType/#diagram" xlink:title="A data type for a character string." target="_top">
<text text-anchor="start" x="252.5" y="-8.9" font-family="Helvetica,sans-Serif" font-size="12.00" fill="#000000">nc:TextType</text>
</a>
</g>
<polygon fill="none" stroke="#000000" points="250,-4 250,-21 321,-21 321,-4 250,-4"/>
</g>
<!-- nc:StreetDirectionalText&#45;&gt;nc:TextType -->
<g id="edge2" class="edge">
<title>nc:StreetDirectionalText&#45;&gt;nc:TextType</title>
<path fill="none" stroke="#000000" d="M171.139,-12.5C194.4221,-12.5 219.3256,-12.5 239.9295,-12.5"/>
<polygon fill="#000000" stroke="#000000" points="239.9758,-16.0001 249.9758,-12.5 239.9757,-9.0001 239.9758,-16.0001"/>
<text text-anchor="middle" x="220.5" y="-15.9" font-family="Helvetica,sans-Serif" font-size="12.00" fill="#000000">type</text>
</g>
<!-- SubstitutionGroup -->
<g id="node2" class="node">
<title>SubstitutionGroup</title>
<g id="a_node2_1"><a xlink:href="../../nc/StreetDirectionalRepresentation/#diagram" xlink:title="A data concept for a representation of a direction that appears in a street name." target="_top">
<text text-anchor="start" x="2.5" y="-65.9" font-family="Helvetica,sans-Serif" font-size="12.00" fill="#000000">nc:StreetDirectionalRepresentation</text>
</a>
</g>
<polygon fill="none" stroke="#000000" points="0,-61 0,-78 191,-78 191,-61 0,-61"/>
</g>
<!-- SubstitutionGroup&#45;&gt;nc:StreetDirectionalText -->
<g id="edge1" class="edge">
<title>SubstitutionGroup&#45;&gt;nc:StreetDirectionalText</title>
<path fill="none" stroke="#000000" d="M95.5,-50.9163C95.5,-42.4809 95.5,-32.7214 95.5,-25.1501"/>
<polygon fill="#000000" stroke="#000000" points="92.0001,-50.9472 95.5,-60.9473 99.0001,-50.9473 92.0001,-50.9472"/>
<text text-anchor="middle" x="86" y="-39.9" font-family="Helvetica,sans-Serif" font-size="12.00" fill="#000000">substitution group</text>
</g>
</g>
</svg>
