<?xml version="1.0" encoding="UTF-8" standalone="no"?>
<!DOCTYPE svg PUBLIC "-//W3C//DTD SVG 1.1//EN"
 "http://www.w3.org/Graphics/SVG/1.1/DTD/svg11.dtd">
<!-- Generated by graphviz version 2.40.1 (20161225.0304)
 -->
<!-- Title: graphic Pages: 1 -->
<svg width="618pt" height="45pt"
 viewBox="0.00 0.00 618.00 45.00" xmlns="http://www.w3.org/2000/svg" xmlns:xlink="http://www.w3.org/1999/xlink">
<g id="graph0" class="graph" transform="scale(1 1) rotate(0) translate(4 41)">
<title>graphic</title>
<polygon fill="#ffffff" stroke="transparent" points="-4,4 -4,-41 614,-41 614,4 -4,4"/>
<!-- cbrn:CaseThreatLevelCode -->
<g id="node1" class="node">
<title>cbrn:CaseThreatLevelCode</title>
<text text-anchor="start" x="201.5" y="-21.4" font-family="Helvetica,sans-Serif" font-weight="bold" font-size="12.00" fill="#000000">cbrn:CaseThreatLevelCode</text>
<polygon fill="none" stroke="#ff0000" stroke-width="5" points="197.5,-14 197.5,-34 361.5,-34 361.5,-14 197.5,-14"/>
</g>
<!-- cbrncl:CaseThreatLevelCodeType -->
<g id="node3" class="node">
<title>cbrncl:CaseThreatLevelCodeType</title>
<g id="a_node3_0"><a xlink:href="../../cbrncl/CaseThreatLevelCodeType/#diagram" xlink:title="A data type for a kind of case threat level" target="_top">
<text text-anchor="start" x="425.5" y="-20.4" font-family="Helvetica,sans-Serif" font-size="12.00" fill="#000000">cbrncl:CaseThreatLevelCodeType</text>
</a>
</g>
<polygon fill="none" stroke="#000000" points="423,-15.5 423,-32.5 610,-32.5 610,-15.5 423,-15.5"/>
</g>
<!-- cbrn:CaseThreatLevelCode&#45;&gt;cbrncl:CaseThreatLevelCodeType -->
<g id="edge2" class="edge">
<title>cbrn:CaseThreatLevelCode&#45;&gt;cbrncl:CaseThreatLevelCodeType</title>
<path fill="none" stroke="#000000" d="M364.0587,-24C379.8012,-24 396.4165,-24 412.6586,-24"/>
<polygon fill="#000000" stroke="#000000" points="412.7124,-27.5001 422.7123,-24 412.7123,-20.5001 412.7124,-27.5001"/>
<text text-anchor="middle" x="393.5" y="-27.4" font-family="Helvetica,sans-Serif" font-size="12.00" fill="#000000">type</text>
</g>
<!-- Types -->
<g id="node2" class="node">
<title>Types</title>
<text text-anchor="start" x="2" y="-21.4" font-family="Helvetica,sans-Serif" font-weight="bold" font-size="12.00" fill="#000000">Types</text>
<g id="a_node2_1"><a xlink:href="../../cbrn/CBRNECaseType/#diagram" xlink:title="A data type for an aggregation of information about activities and events associated with detection and interdiction of CBRNE threats." target="_top">
<polygon fill="#ebebeb" stroke="transparent" points="1,-1 1,-16 127,-16 127,-1 1,-1"/>
<text text-anchor="start" x="2" y="-5.4" font-family="Helvetica,sans-Serif" font-size="12.00" fill="#000000">cbrn:CBRNECaseType</text>
</a>
</g>
<polygon fill="#000000" stroke="#000000" points="0,-16 0,-16 128,-16 128,-16 0,-16"/>
<polygon fill="none" stroke="#000000" points="0,0 0,-32 128,-32 128,0 0,0"/>
</g>
<!-- Types&#45;&gt;cbrn:CaseThreatLevelCode -->
<g id="edge1" class="edge">
<title>Types:top&#45;&gt;cbrn:CaseThreatLevelCode</title>
<path fill="none" stroke="#000000" d="M127,-24C145.6271,-24 165.534,-24 184.6104,-24"/>
<polygon fill="#000000" stroke="#000000" points="184.8031,-27.5001 194.803,-24 184.803,-20.5001 184.8031,-27.5001"/>
<text text-anchor="middle" x="161.5" y="-27.4" font-family="Helvetica,sans-Serif" font-size="12.00" fill="#000000">has&#45;a</text>
</g>
</g>
</svg>
