<?xml version="1.0" encoding="UTF-8" standalone="no"?>
<!DOCTYPE svg PUBLIC "-//W3C//DTD SVG 1.1//EN"
 "http://www.w3.org/Graphics/SVG/1.1/DTD/svg11.dtd">
<!-- Generated by graphviz version 2.40.1 (20161225.0304)
 -->
<!-- Title: graphic Pages: 1 -->
<svg width="862pt" height="161pt"
 viewBox="0.00 0.00 862.00 160.50" xmlns="http://www.w3.org/2000/svg" xmlns:xlink="http://www.w3.org/1999/xlink">
<g id="graph0" class="graph" transform="scale(1 1) rotate(0) translate(4 156.5)">
<title>graphic</title>
<polygon fill="#ffffff" stroke="transparent" points="-4,4 -4,-156.5 858,-156.5 858,4 -4,4"/>
<!-- j:SubjectSupervisedEmploymentRecommendationType -->
<g id="node1" class="node">
<title>j:SubjectSupervisedEmploymentRecommendationType</title>
<text text-anchor="start" x="336" y="-85.4" font-family="Helvetica,sans-Serif" font-weight="bold" font-size="12.00" fill="#000000">j:SubjectSupervisedEmploymentRecommendationType</text>
<g id="a_node1_0"><a xlink:href="../../j/SubjectSupervisedEmploymentRecommendationComment/#diagram" xlink:title="A comment related to a employment recommendation." target="_top">
<polygon fill="#ebebeb" stroke="transparent" points="335,-65 335,-80 849,-80 849,-65 335,-65"/>
<text text-anchor="start" x="336" y="-69.4" font-family="Helvetica,sans-Serif" font-size="12.00" fill="#000000">j:SubjectSupervisedEmploymentRecommendationComment: nc:CommentType [0&#45;n]</text>
</a>
</g>
<g id="a_node1_1"><a xlink:href="../../j/SubjectSupervisedEmploymentRecommendationPayDecreaseIndicator/#diagram" xlink:title="True if a recommendation the subject receives a pay decrease; false otherwise." target="_top">
<text text-anchor="start" x="336" y="-54.4" font-family="Helvetica,sans-Serif" font-size="12.00" fill="#000000">j:SubjectSupervisedEmploymentRecommendationPayDecreaseIndicator: niem&#45;xs:boolean [0&#45;n]</text>
</a>
</g>
<g id="a_node1_2"><a xlink:href="../../j/SubjectSupervisedEmploymentRecommendationPayIncreaseIndicator/#diagram" xlink:title="True if a recommendation the subject receives a pay increase; false otherwise." target="_top">
<polygon fill="#ebebeb" stroke="transparent" points="335,-35 335,-50 849,-50 849,-35 335,-35"/>
<text text-anchor="start" x="336" y="-39.4" font-family="Helvetica,sans-Serif" font-size="12.00" fill="#000000">j:SubjectSupervisedEmploymentRecommendationPayIncreaseIndicator: niem&#45;xs:boolean [0&#45;n]</text>
</a>
</g>
<g id="a_node1_3"><a xlink:href="../../j/SubjectSupervisedEmploymentRecommendationReassignmentIndicator/#diagram" xlink:title="True if a recommendation the subject be reassigned; false otherwise." target="_top">
<text text-anchor="start" x="336" y="-24.4" font-family="Helvetica,sans-Serif" font-size="12.00" fill="#000000">j:SubjectSupervisedEmploymentRecommendationReassignmentIndicator: niem&#45;xs:boolean [0&#45;n]</text>
</a>
</g>
<g id="a_node1_4"><a xlink:href="../../j/SubjectSupervisedEmploymentRecommendationAugmentationPoint/#diagram" xlink:title="An augmentation point for type j:SubjectSupervisedEmploymentRecommendationType" target="_top">
<polygon fill="#ebebeb" stroke="transparent" points="335,-5 335,-20 849,-20 849,-5 335,-5"/>
<text text-anchor="start" x="336" y="-9.4" font-family="Helvetica,sans-Serif" font-size="12.00" fill="#000000">j:SubjectSupervisedEmploymentRecommendationAugmentationPoint [0&#45;n]</text>
</a>
</g>
<polygon fill="#ff0000" stroke="#ff0000" points="330,-80 330,-80 854,-80 854,-80 330,-80"/>
<polygon fill="none" stroke="#ff0000" stroke-width="5" points="332.5,-2.5 332.5,-97.5 851.5,-97.5 851.5,-2.5 332.5,-2.5"/>
</g>
<!-- Properties -->
<g id="node2" class="node">
<title>Properties</title>
<text text-anchor="start" x="2.5" y="-85.4" font-family="Helvetica,sans-Serif" font-weight="bold" font-size="12.00" fill="#000000">Properties</text>
<g id="a_node2_5"><a xlink:href="../../j/SubjectSupervisedEmploymentRecommendation/#diagram" xlink:title="A set of details in recommendation of a subject&#39;s supervised employment." target="_top">
<polygon fill="#ebebeb" stroke="transparent" points="1.5,-65 1.5,-80 270.5,-80 270.5,-65 1.5,-65"/>
<text text-anchor="start" x="2.5" y="-69.4" font-family="Helvetica,sans-Serif" font-size="12.00" fill="#000000">j:SubjectSupervisedEmploymentRecommendation</text>
</a>
</g>
<polygon fill="#000000" stroke="#000000" points=".5,-80 .5,-80 271.5,-80 271.5,-80 .5,-80"/>
<polygon fill="none" stroke="#000000" points="0,-64 0,-96 271,-96 271,-64 0,-64"/>
</g>
<!-- Properties&#45;&gt;j:SubjectSupervisedEmploymentRecommendationType -->
<g id="edge1" class="edge">
<title>Properties:top&#45;&gt;j:SubjectSupervisedEmploymentRecommendationType:top</title>
<path fill="none" stroke="#000000" d="M270.5,-88C295.4714,-88 304.1284,-88 324.8937,-88"/>
<polygon fill="#000000" stroke="#000000" points="325,-91.5001 335,-88 325,-84.5001 325,-91.5001"/>
<text text-anchor="middle" x="300.5" y="-91.4" font-family="Helvetica,sans-Serif" font-size="12.00" fill="#000000">type</text>
</g>
<!-- structures:ObjectType -->
<g id="node3" class="node">
<title>structures:ObjectType</title>
<g id="a_node3_6"><a xlink:href="../../structures/ObjectType/#diagram" xlink:title="A data type for a thing with its own lifespan that has some existence." target="_top">
<text text-anchor="start" x="533" y="-140.4" font-family="Helvetica,sans-Serif" font-size="12.00" fill="#000000">structures:ObjectType</text>
</a>
</g>
<polygon fill="none" stroke="#000000" points="531,-135.5 531,-152.5 653,-152.5 653,-135.5 531,-135.5"/>
</g>
<!-- structures:ObjectType&#45;&gt;j:SubjectSupervisedEmploymentRecommendationType -->
<g id="edge2" class="edge">
<title>structures:ObjectType&#45;&gt;j:SubjectSupervisedEmploymentRecommendationType</title>
<path fill="none" stroke="#000000" d="M592,-135.375C592,-129.1263 592,-120.0624 592,-110.15"/>
<polygon fill="#000000" stroke="#000000" points="595.5001,-110.0274 592,-100.0274 588.5001,-110.0275 595.5001,-110.0274"/>
<text text-anchor="middle" x="582.5" y="-114.65" font-family="Helvetica,sans-Serif" font-size="12.00" fill="#000000">extension</text>
</g>
</g>
</svg>
