<?xml version="1.0" encoding="UTF-8" standalone="no"?>
<!DOCTYPE svg PUBLIC "-//W3C//DTD SVG 1.1//EN"
 "http://www.w3.org/Graphics/SVG/1.1/DTD/svg11.dtd">
<!-- Generated by graphviz version 2.40.1 (20161225.0304)
 -->
<!-- Title: graphic Pages: 1 -->
<svg width="653pt" height="45pt"
 viewBox="0.00 0.00 653.00 45.00" xmlns="http://www.w3.org/2000/svg" xmlns:xlink="http://www.w3.org/1999/xlink">
<g id="graph0" class="graph" transform="scale(1 1) rotate(0) translate(4 41)">
<title>graphic</title>
<polygon fill="#ffffff" stroke="transparent" points="-4,4 -4,-41 649,-41 649,4 -4,4"/>
<!-- hs:SupportingGroundsDescriptionText -->
<g id="node1" class="node">
<title>hs:SupportingGroundsDescriptionText</title>
<text text-anchor="start" x="286.5" y="-21.4" font-family="Helvetica,sans-Serif" font-weight="bold" font-size="12.00" fill="#000000">hs:SupportingGroundsDescriptionText</text>
<polygon fill="none" stroke="#ff0000" stroke-width="5" points="282.5,-14 282.5,-34 512.5,-34 512.5,-14 282.5,-14"/>
</g>
<!-- nc:TextType -->
<g id="node3" class="node">
<title>nc:TextType</title>
<g id="a_node3_0"><a xlink:href="../../nc/TextType/#diagram" xlink:title="A data type for a character string." target="_top">
<text text-anchor="start" x="576.5" y="-20.4" font-family="Helvetica,sans-Serif" font-size="12.00" fill="#000000">nc:TextType</text>
</a>
</g>
<polygon fill="none" stroke="#000000" points="574,-15.5 574,-32.5 645,-32.5 645,-15.5 574,-15.5"/>
</g>
<!-- hs:SupportingGroundsDescriptionText&#45;&gt;nc:TextType -->
<g id="edge2" class="edge">
<title>hs:SupportingGroundsDescriptionText&#45;&gt;nc:TextType</title>
<path fill="none" stroke="#000000" d="M515.2791,-24C532.4578,-24 549.2187,-24 563.7268,-24"/>
<polygon fill="#000000" stroke="#000000" points="563.8666,-27.5001 573.8666,-24 563.8665,-20.5001 563.8666,-27.5001"/>
<text text-anchor="middle" x="544.5" y="-27.4" font-family="Helvetica,sans-Serif" font-size="12.00" fill="#000000">type</text>
</g>
<!-- Types -->
<g id="node2" class="node">
<title>Types</title>
<text text-anchor="start" x="2.5" y="-21.4" font-family="Helvetica,sans-Serif" font-weight="bold" font-size="12.00" fill="#000000">Types</text>
<g id="a_node2_1"><a xlink:href="../../hs/ChildSupportEnforcementCaseType/#diagram" xlink:title="A data type for a child support enforcement case." target="_top">
<polygon fill="#ebebeb" stroke="transparent" points="1.5,-1 1.5,-16 212.5,-16 212.5,-1 1.5,-1"/>
<text text-anchor="start" x="2.5" y="-5.4" font-family="Helvetica,sans-Serif" font-size="12.00" fill="#000000">hs:ChildSupportEnforcementCaseType</text>
</a>
</g>
<polygon fill="#000000" stroke="#000000" points=".5,-16 .5,-16 213.5,-16 213.5,-16 .5,-16"/>
<polygon fill="none" stroke="#000000" points="0,0 0,-32 213,-32 213,0 0,0"/>
</g>
<!-- Types&#45;&gt;hs:SupportingGroundsDescriptionText -->
<g id="edge1" class="edge">
<title>Types:top&#45;&gt;hs:SupportingGroundsDescriptionText</title>
<path fill="none" stroke="#000000" d="M212.5,-24C230.8769,-24 250.2807,-24 269.3343,-24"/>
<polygon fill="#000000" stroke="#000000" points="269.5655,-27.5001 279.5655,-24 269.5654,-20.5001 269.5655,-27.5001"/>
<text text-anchor="middle" x="246.5" y="-27.4" font-family="Helvetica,sans-Serif" font-size="12.00" fill="#000000">has&#45;a</text>
</g>
</g>
</svg>
