<?xml version="1.0" encoding="UTF-8" standalone="no"?>
<!DOCTYPE svg PUBLIC "-//W3C//DTD SVG 1.1//EN"
 "http://www.w3.org/Graphics/SVG/1.1/DTD/svg11.dtd">
<!-- Generated by graphviz version 2.40.1 (20161225.0304)
 -->
<!-- Title: graphic Pages: 1 -->
<svg width="885pt" height="303pt"
 viewBox="0.00 0.00 885.00 303.00" xmlns="http://www.w3.org/2000/svg" xmlns:xlink="http://www.w3.org/1999/xlink">
<g id="graph0" class="graph" transform="scale(1 1) rotate(0) translate(4 299)">
<title>graphic</title>
<polygon fill="#ffffff" stroke="transparent" points="-4,4 -4,-299 881,-299 881,4 -4,4"/>
<!-- m:PersonOnVesselType -->
<g id="node1" class="node">
<title>m:PersonOnVesselType</title>
<text text-anchor="start" x="6" y="-227.9" font-family="Helvetica,sans-Serif" font-weight="bold" font-size="12.00" fill="#000000">m:PersonOnVesselType</text>
<g id="a_node1_0"><a xlink:href="../../m/PersonCabinNumberText/#diagram" xlink:title="A cabin number on a vessel." target="_top">
<polygon fill="#ebebeb" stroke="transparent" points="5,-207.5 5,-222.5 361,-222.5 361,-207.5 5,-207.5"/>
<text text-anchor="start" x="6" y="-211.9" font-family="Helvetica,sans-Serif" font-size="12.00" fill="#000000">m:PersonCabinNumberText: nc:TextType [0&#45;n]</text>
</a>
</g>
<g id="a_node1_1"><a xlink:href="../../m/PersonCountryOfResidenceAbstract/#diagram" xlink:title="A data concept for a country of residence." target="_top">
<text text-anchor="start" x="6" y="-196.9" font-family="Helvetica,sans-Serif" font-size="12.00" fill="#000000">m:PersonCountryOfResidenceAbstract [0&#45;n]</text>
</a>
</g>
<g id="a_node1_2"><a xlink:href="../../m/PersonDebarkationDate/#diagram" xlink:title="A date and time a person debarked from a vessel." target="_top">
<polygon fill="#ebebeb" stroke="transparent" points="5,-177.5 5,-192.5 361,-192.5 361,-177.5 5,-177.5"/>
<text text-anchor="start" x="6" y="-181.9" font-family="Helvetica,sans-Serif" font-size="12.00" fill="#000000">m:PersonDebarkationDate: nc:DateType [0&#45;n]</text>
</a>
</g>
<g id="a_node1_3"><a xlink:href="../../m/PersonDebarkationLocation/#diagram" xlink:title="A location where a person debarked from a vessel." target="_top">
<text text-anchor="start" x="6" y="-166.9" font-family="Helvetica,sans-Serif" font-size="12.00" fill="#000000">m:PersonDebarkationLocation: nc:LocationType [0&#45;n]</text>
</a>
</g>
<g id="a_node1_4"><a xlink:href="../../m/PersonEmbarkationDate/#diagram" xlink:title="A date and time a person embarked on (boarded) a vessel." target="_top">
<polygon fill="#ebebeb" stroke="transparent" points="5,-147.5 5,-162.5 361,-162.5 361,-147.5 5,-147.5"/>
<text text-anchor="start" x="6" y="-151.9" font-family="Helvetica,sans-Serif" font-size="12.00" fill="#000000">m:PersonEmbarkationDate: nc:DateType [0&#45;n]</text>
</a>
</g>
<g id="a_node1_5"><a xlink:href="../../m/PersonEmbarkationLocation/#diagram" xlink:title="A location where a person embarked on (boarded) a vessel." target="_top">
<text text-anchor="start" x="6" y="-136.9" font-family="Helvetica,sans-Serif" font-size="12.00" fill="#000000">m:PersonEmbarkationLocation: nc:LocationType [0&#45;n]</text>
</a>
</g>
<g id="a_node1_6"><a xlink:href="../../m/PersonVisa/#diagram" xlink:title="A travel document allowing international travelers to enter a country for a designated purpose within a designated period of time." target="_top">
<polygon fill="#ebebeb" stroke="transparent" points="5,-117.5 5,-132.5 361,-132.5 361,-117.5 5,-117.5"/>
<text text-anchor="start" x="6" y="-121.9" font-family="Helvetica,sans-Serif" font-size="12.00" fill="#000000">m:PersonVisa: scr:VisaType [0&#45;n]</text>
</a>
</g>
<g id="a_node1_7"><a xlink:href="../../m/PersonVisitContactInformation/#diagram" xlink:title="A primary contact telephone number." target="_top">
<text text-anchor="start" x="6" y="-106.9" font-family="Helvetica,sans-Serif" font-size="12.00" fill="#000000">m:PersonVisitContactInformation: nc:ContactInformationType [0&#45;n]</text>
</a>
</g>
<g id="a_node1_8"><a xlink:href="../../m/PersonOnVesselAugmentationPoint/#diagram" xlink:title="An augmentation point for PersonOnVesselType." target="_top">
<polygon fill="#ebebeb" stroke="transparent" points="5,-87.5 5,-102.5 361,-102.5 361,-87.5 5,-87.5"/>
<text text-anchor="start" x="6" y="-91.9" font-family="Helvetica,sans-Serif" font-size="12.00" fill="#000000">m:PersonOnVesselAugmentationPoint [0&#45;n]</text>
</a>
</g>
<polygon fill="#ff0000" stroke="#ff0000" points="0,-222.5 0,-222.5 366,-222.5 366,-222.5 0,-222.5"/>
<polygon fill="none" stroke="#ff0000" stroke-width="5" points="2.5,-85 2.5,-240 363.5,-240 363.5,-85 2.5,-85"/>
</g>
<!-- subst_d9e4007 -->
<g id="node2" class="node">
<title>subst_d9e4007</title>
<g id="a_node2_9"><a xlink:href="../../m/PersonCountryOfResidenceAbstract/#diagram" xlink:title="&lt;TABLE&gt;" target="_top">
<text text-anchor="start" x="405" y="-197.9" font-family="Helvetica,sans-Serif" font-weight="bold" font-size="12.00" fill="#000000">Substitution group m:PersonCountryOfResidenceAbstract</text>
</a>
</g>
<g id="a_node2_10"><a xlink:href="../../m/PersonCountryOfResidenceISO3166Alpha2Code/#diagram" xlink:title="A country of residence." target="_top">
<polygon fill="#ebebeb" stroke="transparent" points="404,-177.5 404,-192.5 876,-192.5 876,-177.5 404,-177.5"/>
<text text-anchor="start" x="405" y="-181.9" font-family="Helvetica,sans-Serif" font-size="12.00" fill="#000000">m:PersonCountryOfResidenceISO3166Alpha2Code: iso_3166:CountryAlpha2CodeType</text>
</a>
</g>
<polygon fill="#000000" stroke="#000000" points="403,-192.5 403,-192.5 877,-192.5 877,-192.5 403,-192.5"/>
<polygon fill="none" stroke="#000000" points="403,-176.5 403,-208.5 877,-208.5 877,-176.5 403,-176.5"/>
</g>
<!-- m:PersonOnVesselType&#45;&gt;subst_d9e4007 -->
<g id="edge1" class="edge">
<title>m:PersonOnVesselType:e&#45;&gt;subst_d9e4007:w</title>
<path fill="none" stroke="#000000" d="M371.1119,-200.5C382.6435,-200.5 388.7708,-200.5 404,-200.5"/>
<polygon fill="#000000" stroke="#000000" points="371,-197.0001 361,-200.5 371,-204.0001 371,-197.0001"/>
</g>
<!-- DerivedTypes -->
<g id="node3" class="node">
<title>DerivedTypes</title>
<text text-anchor="start" x="138" y="-35.9" font-family="Helvetica,sans-Serif" font-weight="bold" font-size="12.00" fill="#000000">Derived types</text>
<g id="a_node3_11"><a xlink:href="../../m/CrewType/#diagram" xlink:title="A data type for a crew member with associated embark/debark information." target="_top">
<polygon fill="#ebebeb" stroke="transparent" points="137,-15.5 137,-30.5 230,-30.5 230,-15.5 137,-15.5"/>
<text text-anchor="start" x="138" y="-19.9" font-family="Helvetica,sans-Serif" font-size="12.00" fill="#000000">m:CrewType</text>
</a>
</g>
<g id="a_node3_12"><a xlink:href="../../m/NonCrewType/#diagram" xlink:title="A data type for a non&#45;crew member with associated embark/debark information." target="_top">
<text text-anchor="start" x="138" y="-4.9" font-family="Helvetica,sans-Serif" font-size="12.00" fill="#000000">m:NonCrewType</text>
</a>
</g>
<polygon fill="#000000" stroke="#000000" points="136,-30.5 136,-30.5 231,-30.5 231,-30.5 136,-30.5"/>
<polygon fill="none" stroke="#000000" points="135.5,0 135.5,-47 230.5,-47 230.5,0 135.5,0"/>
</g>
<!-- m:PersonOnVesselType&#45;&gt;DerivedTypes -->
<g id="edge2" class="edge">
<title>m:PersonOnVesselType&#45;&gt;DerivedTypes</title>
<path fill="none" stroke="#000000" d="M183,-82.4391C183,-73.5748 183,-64.9453 183,-57.1454"/>
<polygon fill="#000000" stroke="#000000" points="186.5001,-57.0794 183,-47.0795 179.5001,-57.0795 186.5001,-57.0794"/>
<text text-anchor="middle" x="173.5" y="-61.65" font-family="Helvetica,sans-Serif" font-size="12.00" fill="#000000">derived</text>
</g>
<!-- structures:ObjectType -->
<g id="node4" class="node">
<title>structures:ObjectType</title>
<g id="a_node4_13"><a xlink:href="../../structures/ObjectType/#diagram" xlink:title="A data type for a thing with its own lifespan that has some existence." target="_top">
<text text-anchor="start" x="124" y="-282.9" font-family="Helvetica,sans-Serif" font-size="12.00" fill="#000000">structures:ObjectType</text>
</a>
</g>
<polygon fill="none" stroke="#000000" points="122,-278 122,-295 244,-295 244,-278 122,-278"/>
</g>
<!-- structures:ObjectType&#45;&gt;m:PersonOnVesselType -->
<g id="edge3" class="edge">
<title>structures:ObjectType&#45;&gt;m:PersonOnVesselType</title>
<path fill="none" stroke="#000000" d="M183,-277.725C183,-271.7024 183,-263.0203 183,-253.0842"/>
<polygon fill="#000000" stroke="#000000" points="186.5001,-252.7822 183,-242.7822 179.5001,-252.7823 186.5001,-252.7822"/>
<text text-anchor="middle" x="173.5" y="-257.15" font-family="Helvetica,sans-Serif" font-size="12.00" fill="#000000">extension</text>
</g>
</g>
</svg>
