<?xml version="1.0" encoding="UTF-8" standalone="no"?>
<!DOCTYPE svg PUBLIC "-//W3C//DTD SVG 1.1//EN"
 "http://www.w3.org/Graphics/SVG/1.1/DTD/svg11.dtd">
<!-- Generated by graphviz version 2.40.1 (20161225.0304)
 -->
<!-- Title: graphic Pages: 1 -->
<svg width="635pt" height="45pt"
 viewBox="0.00 0.00 635.00 45.00" xmlns="http://www.w3.org/2000/svg" xmlns:xlink="http://www.w3.org/1999/xlink">
<g id="graph0" class="graph" transform="scale(1 1) rotate(0) translate(4 41)">
<title>graphic</title>
<polygon fill="#ffffff" stroke="transparent" points="-4,4 -4,-41 631,-41 631,4 -4,4"/>
<!-- nc:EducationQualificationInstitution -->
<g id="node1" class="node">
<title>nc:EducationQualificationInstitution</title>
<text text-anchor="start" x="240.5" y="-21.4" font-family="Helvetica,sans-Serif" font-weight="bold" font-size="12.00" fill="#000000">nc:EducationQualificationInstitution</text>
<polygon fill="none" stroke="#ff0000" stroke-width="5" points="236.5,-14 236.5,-34 450.5,-34 450.5,-14 236.5,-14"/>
</g>
<!-- nc:OrganizationType -->
<g id="node3" class="node">
<title>nc:OrganizationType</title>
<g id="a_node3_0"><a xlink:href="../../nc/OrganizationType/#diagram" xlink:title="A data type for a body of people organized for a particular purpose." target="_top">
<text text-anchor="start" x="514.5" y="-20.4" font-family="Helvetica,sans-Serif" font-size="12.00" fill="#000000">nc:OrganizationType</text>
</a>
</g>
<polygon fill="none" stroke="#000000" points="512,-15.5 512,-32.5 627,-32.5 627,-15.5 512,-15.5"/>
</g>
<!-- nc:EducationQualificationInstitution&#45;&gt;nc:OrganizationType -->
<g id="edge2" class="edge">
<title>nc:EducationQualificationInstitution&#45;&gt;nc:OrganizationType</title>
<path fill="none" stroke="#000000" d="M453.1899,-24C469.6377,-24 486.1792,-24 501.4187,-24"/>
<polygon fill="#000000" stroke="#000000" points="501.744,-27.5001 511.744,-24 501.744,-20.5001 501.744,-27.5001"/>
<text text-anchor="middle" x="482.5" y="-27.4" font-family="Helvetica,sans-Serif" font-size="12.00" fill="#000000">type</text>
</g>
<!-- Types -->
<g id="node2" class="node">
<title>Types</title>
<text text-anchor="start" x="2.5" y="-21.4" font-family="Helvetica,sans-Serif" font-weight="bold" font-size="12.00" fill="#000000">Types</text>
<g id="a_node2_1"><a xlink:href="../../nc/EducationQualificationType/#diagram" xlink:title="A data type for a degree, certificate, credit, or other educational qualification obtained by a person." target="_top">
<polygon fill="#ebebeb" stroke="transparent" points="1.5,-1 1.5,-16 166.5,-16 166.5,-1 1.5,-1"/>
<text text-anchor="start" x="2.5" y="-5.4" font-family="Helvetica,sans-Serif" font-size="12.00" fill="#000000">nc:EducationQualificationType</text>
</a>
</g>
<polygon fill="#000000" stroke="#000000" points=".5,-16 .5,-16 167.5,-16 167.5,-16 .5,-16"/>
<polygon fill="none" stroke="#000000" points="0,0 0,-32 167,-32 167,0 0,0"/>
</g>
<!-- Types&#45;&gt;nc:EducationQualificationInstitution -->
<g id="edge1" class="edge">
<title>Types:top&#45;&gt;nc:EducationQualificationInstitution</title>
<path fill="none" stroke="#000000" d="M166.5,-24C185.0791,-24 204.7553,-24 223.9739,-24"/>
<polygon fill="#000000" stroke="#000000" points="223.9741,-27.5001 233.9741,-24 223.974,-20.5001 223.9741,-27.5001"/>
<text text-anchor="middle" x="200.5" y="-27.4" font-family="Helvetica,sans-Serif" font-size="12.00" fill="#000000">has&#45;a</text>
</g>
</g>
</svg>
