<?xml version="1.0" encoding="UTF-8" standalone="no"?>
<!DOCTYPE svg PUBLIC "-//W3C//DTD SVG 1.1//EN"
 "http://www.w3.org/Graphics/SVG/1.1/DTD/svg11.dtd">
<!-- Generated by graphviz version 2.40.1 (20161225.0304)
 -->
<!-- Title: graphic Pages: 1 -->
<svg width="364pt" height="45pt"
 viewBox="0.00 0.00 364.00 45.00" xmlns="http://www.w3.org/2000/svg" xmlns:xlink="http://www.w3.org/1999/xlink">
<g id="graph0" class="graph" transform="scale(1 1) rotate(0) translate(4 41)">
<title>graphic</title>
<polygon fill="#ffffff" stroke="transparent" points="-4,4 -4,-41 360,-41 360,4 -4,4"/>
<!-- em:BarcodeAugmentationPoint -->
<g id="node1" class="node">
<title>em:BarcodeAugmentationPoint</title>
<text text-anchor="start" x="169.5" y="-21.4" font-family="Helvetica,sans-Serif" font-weight="bold" font-size="12.00" fill="#000000">em:BarcodeAugmentationPoint</text>
<polygon fill="none" stroke="#ff0000" stroke-width="5" points="165.5,-14 165.5,-34 353.5,-34 353.5,-14 165.5,-14"/>
</g>
<!-- Types -->
<g id="node2" class="node">
<title>Types</title>
<text text-anchor="start" x="2" y="-21.4" font-family="Helvetica,sans-Serif" font-weight="bold" font-size="12.00" fill="#000000">Types</text>
<g id="a_node2_0"><a xlink:href="../../em/BarcodeType/#diagram" xlink:title="A data type for Barcode" target="_top">
<polygon fill="#ebebeb" stroke="transparent" points="1,-1 1,-16 95,-16 95,-1 1,-1"/>
<text text-anchor="start" x="2" y="-5.4" font-family="Helvetica,sans-Serif" font-size="12.00" fill="#000000">em:BarcodeType</text>
</a>
</g>
<polygon fill="#000000" stroke="#000000" points="0,-16 0,-16 96,-16 96,-16 0,-16"/>
<polygon fill="none" stroke="#000000" points="0,0 0,-32 96,-32 96,0 0,0"/>
</g>
<!-- Types&#45;&gt;em:BarcodeAugmentationPoint -->
<g id="edge1" class="edge">
<title>Types:top&#45;&gt;em:BarcodeAugmentationPoint</title>
<path fill="none" stroke="#000000" d="M95,-24C113.7262,-24 133.6516,-24 152.9333,-24"/>
<polygon fill="#000000" stroke="#000000" points="152.9479,-27.5001 162.9479,-24 152.9479,-20.5001 152.9479,-27.5001"/>
<text text-anchor="middle" x="129.5" y="-27.4" font-family="Helvetica,sans-Serif" font-size="12.00" fill="#000000">has&#45;a</text>
</g>
</g>
</svg>
