<?xml version="1.0" encoding="UTF-8" standalone="no"?>
<!DOCTYPE svg PUBLIC "-//W3C//DTD SVG 1.1//EN"
 "http://www.w3.org/Graphics/SVG/1.1/DTD/svg11.dtd">
<!-- Generated by graphviz version 2.40.1 (20161225.0304)
 -->
<!-- Title: graphic Pages: 1 -->
<svg width="386pt" height="45pt"
 viewBox="0.00 0.00 386.00 45.00" xmlns="http://www.w3.org/2000/svg" xmlns:xlink="http://www.w3.org/1999/xlink">
<g id="graph0" class="graph" transform="scale(1 1) rotate(0) translate(4 41)">
<title>graphic</title>
<polygon fill="#ffffff" stroke="transparent" points="-4,4 -4,-41 382,-41 382,4 -4,4"/>
<!-- j:ParoleOfficer -->
<g id="node1" class="node">
<title>j:ParoleOfficer</title>
<text text-anchor="start" x="145.5" y="-21.4" font-family="Helvetica,sans-Serif" font-weight="bold" font-size="12.00" fill="#000000">j:ParoleOfficer</text>
<polygon fill="none" stroke="#ff0000" stroke-width="5" points="141.5,-14 141.5,-34 231.5,-34 231.5,-14 141.5,-14"/>
</g>
<!-- nc:PersonType -->
<g id="node3" class="node">
<title>nc:PersonType</title>
<g id="a_node3_0"><a xlink:href="../../nc/PersonType/#diagram" xlink:title="A data type for a human being." target="_top">
<text text-anchor="start" x="295.5" y="-20.4" font-family="Helvetica,sans-Serif" font-size="12.00" fill="#000000">nc:PersonType</text>
</a>
</g>
<polygon fill="none" stroke="#000000" points="293,-15.5 293,-32.5 378,-32.5 378,-15.5 293,-15.5"/>
</g>
<!-- j:ParoleOfficer&#45;&gt;nc:PersonType -->
<g id="edge2" class="edge">
<title>j:ParoleOfficer&#45;&gt;nc:PersonType</title>
<path fill="none" stroke="#000000" d="M234.0542,-24C249.564,-24 266.8746,-24 282.7428,-24"/>
<polygon fill="#000000" stroke="#000000" points="282.9288,-27.5001 292.9288,-24 282.9288,-20.5001 282.9288,-27.5001"/>
<text text-anchor="middle" x="263.5" y="-27.4" font-family="Helvetica,sans-Serif" font-size="12.00" fill="#000000">type</text>
</g>
<!-- Types -->
<g id="node2" class="node">
<title>Types</title>
<text text-anchor="start" x="2" y="-21.4" font-family="Helvetica,sans-Serif" font-weight="bold" font-size="12.00" fill="#000000">Types</text>
<g id="a_node2_1"><a xlink:href="../../j/ParoleType/#diagram" xlink:title="A data type for a set of details about a subject&#39;s conditions and circumstance of parole." target="_top">
<polygon fill="#ebebeb" stroke="transparent" points="1,-1 1,-16 71,-16 71,-1 1,-1"/>
<text text-anchor="start" x="2" y="-5.4" font-family="Helvetica,sans-Serif" font-size="12.00" fill="#000000">j:ParoleType</text>
</a>
</g>
<polygon fill="#000000" stroke="#000000" points="0,-16 0,-16 72,-16 72,-16 0,-16"/>
<polygon fill="none" stroke="#000000" points="0,0 0,-32 72,-32 72,0 0,0"/>
</g>
<!-- Types&#45;&gt;j:ParoleOfficer -->
<g id="edge1" class="edge">
<title>Types:top&#45;&gt;j:ParoleOfficer</title>
<path fill="none" stroke="#000000" d="M71,-24C89.78,-24 110.2777,-24 128.7227,-24"/>
<polygon fill="#000000" stroke="#000000" points="128.7348,-27.5001 138.7348,-24 128.7347,-20.5001 128.7348,-27.5001"/>
<text text-anchor="middle" x="105.5" y="-27.4" font-family="Helvetica,sans-Serif" font-size="12.00" fill="#000000">has&#45;a</text>
</g>
</g>
</svg>
