<?xml version="1.0" encoding="UTF-8" standalone="no"?>
<!DOCTYPE svg PUBLIC "-//W3C//DTD SVG 1.1//EN"
 "http://www.w3.org/Graphics/SVG/1.1/DTD/svg11.dtd">
<!-- Generated by graphviz version 2.40.1 (20161225.0304)
 -->
<!-- Title: graphic Pages: 1 -->
<svg width="573pt" height="169pt"
 viewBox="0.00 0.00 573.00 169.00" xmlns="http://www.w3.org/2000/svg" xmlns:xlink="http://www.w3.org/1999/xlink">
<g id="graph0" class="graph" transform="scale(1 1) rotate(0) translate(4 165)">
<title>graphic</title>
<polygon fill="#ffffff" stroke="transparent" points="-4,4 -4,-165 569,-165 569,4 -4,4"/>
<!-- em:InfectiousDiseaseSurveillanceType -->
<g id="node1" class="node">
<title>em:InfectiousDiseaseSurveillanceType</title>
<text text-anchor="start" x="250.5" y="-39.9" font-family="Helvetica,sans-Serif" font-weight="bold" font-size="12.00" fill="#000000">em:InfectiousDiseaseSurveillanceType</text>
<g id="a_node1_0"><a xlink:href="../../em/Patient/#diagram" xlink:title="A person receiving or registered to receive medical treatment." target="_top">
<polygon fill="#ebebeb" stroke="transparent" points="249.5,-19.5 249.5,-34.5 560.5,-34.5 560.5,-19.5 249.5,-19.5"/>
<text text-anchor="start" x="250.5" y="-23.9" font-family="Helvetica,sans-Serif" font-size="12.00" fill="#000000">em:Patient: em:PatientType [0&#45;n]</text>
</a>
</g>
<g id="a_node1_1"><a xlink:href="../../em/InfectiousDiseaseSurveillanceAugmentationPoint/#diagram" xlink:title="An augmentation point for type em:InfectiousDiseaseSurveillanceType" target="_top">
<text text-anchor="start" x="250.5" y="-8.9" font-family="Helvetica,sans-Serif" font-size="12.00" fill="#000000">em:InfectiousDiseaseSurveillanceAugmentationPoint [0&#45;n]</text>
</a>
</g>
<polygon fill="#ff0000" stroke="#ff0000" points="244.5,-34.5 244.5,-34.5 565.5,-34.5 565.5,-34.5 244.5,-34.5"/>
<polygon fill="none" stroke="#ff0000" stroke-width="5" points="246.5,-2.5 246.5,-52.5 562.5,-52.5 562.5,-2.5 246.5,-2.5"/>
</g>
<!-- Properties -->
<g id="node2" class="node">
<title>Properties</title>
<text text-anchor="start" x="2.5" y="-39.9" font-family="Helvetica,sans-Serif" font-weight="bold" font-size="12.00" fill="#000000">Properties</text>
<g id="a_node2_2"><a xlink:href="../../em/InfectiousDiseaseSurveillance/#diagram" xlink:title="A situational analysis that pertains to infectious disease reporting and surveillance." target="_top">
<polygon fill="#ebebeb" stroke="transparent" points="1.5,-19.5 1.5,-34.5 184.5,-34.5 184.5,-19.5 1.5,-19.5"/>
<text text-anchor="start" x="2.5" y="-23.9" font-family="Helvetica,sans-Serif" font-size="12.00" fill="#000000">em:InfectiousDiseaseSurveillance</text>
</a>
</g>
<polygon fill="#000000" stroke="#000000" points=".5,-34.5 .5,-34.5 185.5,-34.5 185.5,-34.5 .5,-34.5"/>
<polygon fill="none" stroke="#000000" points="0,-18.5 0,-50.5 185,-50.5 185,-18.5 0,-18.5"/>
</g>
<!-- Properties&#45;&gt;em:InfectiousDiseaseSurveillanceType -->
<g id="edge1" class="edge">
<title>Properties:top&#45;&gt;em:InfectiousDiseaseSurveillanceType:top</title>
<path fill="none" stroke="#000000" d="M184.5,-42.5C209.6649,-42.5 218.3891,-42.5 239.3154,-42.5"/>
<polygon fill="#000000" stroke="#000000" points="239.5,-46.0001 249.5,-42.5 239.5,-39.0001 239.5,-46.0001"/>
<text text-anchor="middle" x="214.5" y="-45.9" font-family="Helvetica,sans-Serif" font-size="12.00" fill="#000000">type</text>
</g>
<!-- nc:ActivityType -->
<g id="node3" class="node">
<title>nc:ActivityType</title>
<g id="a_node3_3"><a xlink:href="../../nc/ActivityType/#diagram" xlink:title="A data type for a single or set of related actions, events, or process steps." target="_top">
<text text-anchor="start" x="364.5" y="-95.9" font-family="Helvetica,sans-Serif" font-size="12.00" fill="#000000">nc:ActivityType</text>
</a>
</g>
<polygon fill="none" stroke="#000000" points="362,-91 362,-108 447,-108 447,-91 362,-91"/>
</g>
<!-- nc:ActivityType&#45;&gt;em:InfectiousDiseaseSurveillanceType -->
<g id="edge2" class="edge">
<title>nc:ActivityType&#45;&gt;em:InfectiousDiseaseSurveillanceType</title>
<path fill="none" stroke="#000000" d="M404.5,-90.8151C404.5,-84.3271 404.5,-74.9677 404.5,-65.4273"/>
<polygon fill="#000000" stroke="#000000" points="408.0001,-65.1311 404.5,-55.1312 401.0001,-65.1312 408.0001,-65.1311"/>
<text text-anchor="middle" x="395" y="-69.9" font-family="Helvetica,sans-Serif" font-size="12.00" fill="#000000">extension</text>
</g>
<!-- structures:ObjectType -->
<g id="node4" class="node">
<title>structures:ObjectType</title>
<g id="a_node4_4"><a xlink:href="../../structures/ObjectType/#diagram" xlink:title="A data type for a thing with its own lifespan that has some existence." target="_top">
<text text-anchor="start" x="345.5" y="-148.9" font-family="Helvetica,sans-Serif" font-size="12.00" fill="#000000">structures:ObjectType</text>
</a>
</g>
<polygon fill="none" stroke="#000000" points="343.5,-144 343.5,-161 465.5,-161 465.5,-144 343.5,-144"/>
</g>
<!-- structures:ObjectType&#45;&gt;nc:ActivityType -->
<g id="edge3" class="edge">
<title>structures:ObjectType&#45;&gt;nc:ActivityType</title>
<path fill="none" stroke="#000000" d="M404.5,-143.911C404.5,-137.0124 404.5,-127.0696 404.5,-118.34"/>
<polygon fill="#000000" stroke="#000000" points="408.0001,-118.2518 404.5,-108.2519 401.0001,-118.2519 408.0001,-118.2518"/>
<text text-anchor="middle" x="395" y="-122.9" font-family="Helvetica,sans-Serif" font-size="12.00" fill="#000000">extension</text>
</g>
</g>
</svg>
