<?xml version="1.0" encoding="UTF-8" standalone="no"?>
<!DOCTYPE svg PUBLIC "-//W3C//DTD SVG 1.1//EN"
 "http://www.w3.org/Graphics/SVG/1.1/DTD/svg11.dtd">
<!-- Generated by graphviz version 2.40.1 (20161225.0304)
 -->
<!-- Title: graphic Pages: 1 -->
<svg width="577pt" height="45pt"
 viewBox="0.00 0.00 577.00 45.00" xmlns="http://www.w3.org/2000/svg" xmlns:xlink="http://www.w3.org/1999/xlink">
<g id="graph0" class="graph" transform="scale(1 1) rotate(0) translate(4 41)">
<title>graphic</title>
<polygon fill="#ffffff" stroke="transparent" points="-4,4 -4,-41 573,-41 573,4 -4,4"/>
<!-- hs:PriorDetentionScheduledReleaseDate -->
<g id="node1" class="node">
<title>hs:PriorDetentionScheduledReleaseDate</title>
<text text-anchor="start" x="197" y="-21.4" font-family="Helvetica,sans-Serif" font-weight="bold" font-size="12.00" fill="#000000">hs:PriorDetentionScheduledReleaseDate</text>
<polygon fill="none" stroke="#ff0000" stroke-width="5" points="193.5,-14 193.5,-34 434.5,-34 434.5,-14 193.5,-14"/>
</g>
<!-- nc:DateType -->
<g id="node3" class="node">
<title>nc:DateType</title>
<g id="a_node3_0"><a xlink:href="../../nc/DateType/#diagram" xlink:title="A data type for a calendar date." target="_top">
<text text-anchor="start" x="498.5" y="-20.4" font-family="Helvetica,sans-Serif" font-size="12.00" fill="#000000">nc:DateType</text>
</a>
</g>
<polygon fill="none" stroke="#000000" points="496,-15.5 496,-32.5 569,-32.5 569,-15.5 496,-15.5"/>
</g>
<!-- hs:PriorDetentionScheduledReleaseDate&#45;&gt;nc:DateType -->
<g id="edge2" class="edge">
<title>hs:PriorDetentionScheduledReleaseDate&#45;&gt;nc:DateType</title>
<path fill="none" stroke="#000000" d="M437.2983,-24C454.4351,-24 471.1029,-24 485.5773,-24"/>
<polygon fill="#000000" stroke="#000000" points="485.7047,-27.5001 495.7047,-24 485.7046,-20.5001 485.7047,-27.5001"/>
<text text-anchor="middle" x="466.5" y="-27.4" font-family="Helvetica,sans-Serif" font-size="12.00" fill="#000000">type</text>
</g>
<!-- Types -->
<g id="node2" class="node">
<title>Types</title>
<text text-anchor="start" x="2" y="-21.4" font-family="Helvetica,sans-Serif" font-weight="bold" font-size="12.00" fill="#000000">Types</text>
<g id="a_node2_1"><a xlink:href="../../hs/PriorDetentionType/#diagram" xlink:title="A data type for describing a prior detention." target="_top">
<polygon fill="#ebebeb" stroke="transparent" points="1,-1 1,-16 123,-16 123,-1 1,-1"/>
<text text-anchor="start" x="2" y="-5.4" font-family="Helvetica,sans-Serif" font-size="12.00" fill="#000000">hs:PriorDetentionType</text>
</a>
</g>
<polygon fill="#000000" stroke="#000000" points="0,-16 0,-16 124,-16 124,-16 0,-16"/>
<polygon fill="none" stroke="#000000" points="0,0 0,-32 124,-32 124,0 0,0"/>
</g>
<!-- Types&#45;&gt;hs:PriorDetentionScheduledReleaseDate -->
<g id="edge1" class="edge">
<title>Types:top&#45;&gt;hs:PriorDetentionScheduledReleaseDate</title>
<path fill="none" stroke="#000000" d="M123,-24C141.7074,-24 161.4454,-24 180.8514,-24"/>
<polygon fill="#000000" stroke="#000000" points="180.962,-27.5001 190.9619,-24 180.9619,-20.5001 180.962,-27.5001"/>
<text text-anchor="middle" x="157.5" y="-27.4" font-family="Helvetica,sans-Serif" font-size="12.00" fill="#000000">has&#45;a</text>
</g>
</g>
</svg>
