<?xml version="1.0" encoding="UTF-8" standalone="no"?>
<!DOCTYPE svg PUBLIC "-//W3C//DTD SVG 1.1//EN"
 "http://www.w3.org/Graphics/SVG/1.1/DTD/svg11.dtd">
<!-- Generated by graphviz version 2.40.1 (20161225.0304)
 -->
<!-- Title: graphic Pages: 1 -->
<svg width="652pt" height="86pt"
 viewBox="0.00 0.00 652.00 86.00" xmlns="http://www.w3.org/2000/svg" xmlns:xlink="http://www.w3.org/1999/xlink">
<g id="graph0" class="graph" transform="scale(1 1) rotate(0) translate(4 82)">
<title>graphic</title>
<polygon fill="#ffffff" stroke="transparent" points="-4,4 -4,-82 648,-82 648,4 -4,4"/>
<!-- m:VesselOperationalConditionOfEquipmentCode -->
<g id="node1" class="node">
<title>m:VesselOperationalConditionOfEquipmentCode</title>
<text text-anchor="start" x="6.5" y="-9.9" font-family="Helvetica,sans-Serif" font-weight="bold" font-size="12.00" fill="#000000">m:VesselOperationalConditionOfEquipmentCode</text>
<polygon fill="none" stroke="#ff0000" stroke-width="5" points="2.5,-2.5 2.5,-22.5 290.5,-22.5 290.5,-2.5 2.5,-2.5"/>
</g>
<!-- m:VesselOperationalConditionOfEquipmentCodeType -->
<g id="node3" class="node">
<title>m:VesselOperationalConditionOfEquipmentCodeType</title>
<g id="a_node3_0"><a xlink:href="../../m/VesselOperationalConditionOfEquipmentCodeType/#diagram" xlink:title="A data type for an Operational Condition of Equipment (OCE) of a vessel." target="_top">
<text text-anchor="start" x="354" y="-8.9" font-family="Helvetica,sans-Serif" font-size="12.00" fill="#000000">m:VesselOperationalConditionOfEquipmentCodeType</text>
</a>
</g>
<polygon fill="none" stroke="#000000" points="352,-4 352,-21 644,-21 644,-4 352,-4"/>
</g>
<!-- m:VesselOperationalConditionOfEquipmentCode&#45;&gt;m:VesselOperationalConditionOfEquipmentCodeType -->
<g id="edge2" class="edge">
<title>m:VesselOperationalConditionOfEquipmentCode&#45;&gt;m:VesselOperationalConditionOfEquipmentCodeType</title>
<path fill="none" stroke="#000000" d="M293.0224,-12.5C309.1681,-12.5 325.6524,-12.5 341.9095,-12.5"/>
<polygon fill="#000000" stroke="#000000" points="341.9975,-16.0001 351.9974,-12.5 341.9974,-9.0001 341.9975,-16.0001"/>
<text text-anchor="middle" x="322.5" y="-15.9" font-family="Helvetica,sans-Serif" font-size="12.00" fill="#000000">type</text>
</g>
<!-- SubstitutionGroup -->
<g id="node2" class="node">
<title>SubstitutionGroup</title>
<g id="a_node2_1"><a xlink:href="../../m/VesselOperationalConditionOfEquipmentAbstract/#diagram" xlink:title="A data concept for a description of the Operational Condition of Equipment (OCE) of a vessel." target="_top">
<text text-anchor="start" x="8.5" y="-65.9" font-family="Helvetica,sans-Serif" font-size="12.00" fill="#000000">m:VesselOperationalConditionOfEquipmentAbstract</text>
</a>
</g>
<polygon fill="none" stroke="#000000" points="6,-61 6,-78 287,-78 287,-61 6,-61"/>
</g>
<!-- SubstitutionGroup&#45;&gt;m:VesselOperationalConditionOfEquipmentCode -->
<g id="edge1" class="edge">
<title>SubstitutionGroup&#45;&gt;m:VesselOperationalConditionOfEquipmentCode</title>
<path fill="none" stroke="#000000" d="M146.5,-50.9163C146.5,-42.4809 146.5,-32.7214 146.5,-25.1501"/>
<polygon fill="#000000" stroke="#000000" points="143.0001,-50.9472 146.5,-60.9473 150.0001,-50.9473 143.0001,-50.9472"/>
<text text-anchor="middle" x="137" y="-39.9" font-family="Helvetica,sans-Serif" font-size="12.00" fill="#000000">substitution group</text>
</g>
</g>
</svg>
