<?xml version="1.0" encoding="UTF-8" standalone="no"?>
<!DOCTYPE svg PUBLIC "-//W3C//DTD SVG 1.1//EN"
 "http://www.w3.org/Graphics/SVG/1.1/DTD/svg11.dtd">
<!-- Generated by graphviz version 2.40.1 (20161225.0304)
 -->
<!-- Title: graphic Pages: 1 -->
<svg width="556pt" height="86pt"
 viewBox="0.00 0.00 556.00 86.00" xmlns="http://www.w3.org/2000/svg" xmlns:xlink="http://www.w3.org/1999/xlink">
<g id="graph0" class="graph" transform="scale(1 1) rotate(0) translate(4 82)">
<title>graphic</title>
<polygon fill="#ffffff" stroke="transparent" points="-4,4 -4,-82 552,-82 552,4 -4,4"/>
<!-- j:EmploymentAssociationAugmentation -->
<g id="node1" class="node">
<title>j:EmploymentAssociationAugmentation</title>
<text text-anchor="start" x="11" y="-9.9" font-family="Helvetica,sans-Serif" font-weight="bold" font-size="12.00" fill="#000000">j:EmploymentAssociationAugmentation</text>
<polygon fill="none" stroke="#ff0000" stroke-width="5" points="7,-2.5 7,-22.5 243,-22.5 243,-2.5 7,-2.5"/>
</g>
<!-- j:EmploymentAssociationAugmentationType -->
<g id="node3" class="node">
<title>j:EmploymentAssociationAugmentationType</title>
<g id="a_node3_0"><a xlink:href="../../j/EmploymentAssociationAugmentationType/#diagram" xlink:title="A data type for additional information about an employment association." target="_top">
<text text-anchor="start" x="311.5" y="-8.9" font-family="Helvetica,sans-Serif" font-size="12.00" fill="#000000">j:EmploymentAssociationAugmentationType</text>
</a>
</g>
<polygon fill="none" stroke="#000000" points="309,-4 309,-21 548,-21 548,-4 309,-4"/>
</g>
<!-- j:EmploymentAssociationAugmentation&#45;&gt;j:EmploymentAssociationAugmentationType -->
<g id="edge2" class="edge">
<title>j:EmploymentAssociationAugmentation&#45;&gt;j:EmploymentAssociationAugmentationType</title>
<path fill="none" stroke="#000000" d="M245.8233,-12.5C263.0964,-12.5 280.9278,-12.5 298.3702,-12.5"/>
<polygon fill="#000000" stroke="#000000" points="298.5879,-16.0001 308.5879,-12.5 298.5879,-9.0001 298.5879,-16.0001"/>
<text text-anchor="middle" x="279.5" y="-15.9" font-family="Helvetica,sans-Serif" font-size="12.00" fill="#000000">type</text>
</g>
<!-- SubstitutionGroup -->
<g id="node2" class="node">
<title>SubstitutionGroup</title>
<g id="a_node2_1"><a xlink:href="../../nc/EmploymentAssociationAugmentationPoint/#diagram" xlink:title="An augmentation point for EmploymentAssociationType." target="_top">
<text text-anchor="start" x="2" y="-65.9" font-family="Helvetica,sans-Serif" font-size="12.00" fill="#000000">nc:EmploymentAssociationAugmentationPoint</text>
</a>
</g>
<polygon fill="none" stroke="#000000" points="0,-61 0,-78 250,-78 250,-61 0,-61"/>
</g>
<!-- SubstitutionGroup&#45;&gt;j:EmploymentAssociationAugmentation -->
<g id="edge1" class="edge">
<title>SubstitutionGroup&#45;&gt;j:EmploymentAssociationAugmentation</title>
<path fill="none" stroke="#000000" d="M125,-50.9163C125,-42.4809 125,-32.7214 125,-25.1501"/>
<polygon fill="#000000" stroke="#000000" points="121.5001,-50.9472 125,-60.9473 128.5001,-50.9473 121.5001,-50.9472"/>
<text text-anchor="middle" x="115.5" y="-39.9" font-family="Helvetica,sans-Serif" font-size="12.00" fill="#000000">substitution group</text>
</g>
</g>
</svg>
