<?xml version="1.0" encoding="UTF-8" standalone="no"?>
<!DOCTYPE svg PUBLIC "-//W3C//DTD SVG 1.1//EN"
 "http://www.w3.org/Graphics/SVG/1.1/DTD/svg11.dtd">
<!-- Generated by graphviz version 2.40.1 (20161225.0304)
 -->
<!-- Title: graphic Pages: 1 -->
<svg width="524pt" height="116pt"
 viewBox="0.00 0.00 524.00 116.00" xmlns="http://www.w3.org/2000/svg" xmlns:xlink="http://www.w3.org/1999/xlink">
<g id="graph0" class="graph" transform="scale(1 1) rotate(0) translate(4 112)">
<title>graphic</title>
<polygon fill="#ffffff" stroke="transparent" points="-4,4 -4,-112 520,-112 520,4 -4,4"/>
<!-- intel:LocationAugmentationType -->
<g id="node1" class="node">
<title>intel:LocationAugmentationType</title>
<text text-anchor="start" x="214" y="-39.9" font-family="Helvetica,sans-Serif" font-weight="bold" font-size="12.00" fill="#000000">intel:LocationAugmentationType</text>
<g id="a_node1_0"><a xlink:href="../../intel/LocationGlobalRegionCodeText/#diagram" xlink:title="A National Intelligence Priorities Framework area." target="_top">
<polygon fill="#ebebeb" stroke="transparent" points="213,-19.5 213,-34.5 511,-34.5 511,-19.5 213,-19.5"/>
<text text-anchor="start" x="214" y="-23.9" font-family="Helvetica,sans-Serif" font-size="12.00" fill="#000000">intel:LocationGlobalRegionCodeText: nc:TextType [0&#45;n]</text>
</a>
</g>
<g id="a_node1_1"><a xlink:href="../../intel/LocationUsageText/#diagram" xlink:title="A context within which a location is used." target="_top">
<text text-anchor="start" x="214" y="-8.9" font-family="Helvetica,sans-Serif" font-size="12.00" fill="#000000">intel:LocationUsageText: nc:TextType [0&#45;n]</text>
</a>
</g>
<polygon fill="#ff0000" stroke="#ff0000" points="208,-34.5 208,-34.5 516,-34.5 516,-34.5 208,-34.5"/>
<polygon fill="none" stroke="#ff0000" stroke-width="5" points="210.5,-2.5 210.5,-52.5 513.5,-52.5 513.5,-2.5 210.5,-2.5"/>
</g>
<!-- Properties -->
<g id="node2" class="node">
<title>Properties</title>
<text text-anchor="start" x="2.5" y="-39.9" font-family="Helvetica,sans-Serif" font-weight="bold" font-size="12.00" fill="#000000">Properties</text>
<g id="a_node2_2"><a xlink:href="../../intel/LocationAugmentation/#diagram" xlink:title="Additional information about a location." target="_top">
<polygon fill="#ebebeb" stroke="transparent" points="1.5,-19.5 1.5,-34.5 148.5,-34.5 148.5,-19.5 1.5,-19.5"/>
<text text-anchor="start" x="2.5" y="-23.9" font-family="Helvetica,sans-Serif" font-size="12.00" fill="#000000">intel:LocationAugmentation</text>
</a>
</g>
<polygon fill="#000000" stroke="#000000" points=".5,-34.5 .5,-34.5 149.5,-34.5 149.5,-34.5 .5,-34.5"/>
<polygon fill="none" stroke="#000000" points="0,-18.5 0,-50.5 149,-50.5 149,-18.5 0,-18.5"/>
</g>
<!-- Properties&#45;&gt;intel:LocationAugmentationType -->
<g id="edge1" class="edge">
<title>Properties:top&#45;&gt;intel:LocationAugmentationType:top</title>
<path fill="none" stroke="#000000" d="M148.5,-42.5C173.4714,-42.5 182.1284,-42.5 202.8937,-42.5"/>
<polygon fill="#000000" stroke="#000000" points="203,-46.0001 213,-42.5 203,-39.0001 203,-46.0001"/>
<text text-anchor="middle" x="178.5" y="-45.9" font-family="Helvetica,sans-Serif" font-size="12.00" fill="#000000">type</text>
</g>
<!-- structures:AugmentationType -->
<g id="node3" class="node">
<title>structures:AugmentationType</title>
<g id="a_node3_3"><a xlink:href="../../structures/AugmentationType/#diagram" xlink:title="A data type for a set of properties to be applied to a base type." target="_top">
<text text-anchor="start" x="284" y="-95.9" font-family="Helvetica,sans-Serif" font-size="12.00" fill="#000000">structures:AugmentationType</text>
</a>
</g>
<polygon fill="none" stroke="#000000" points="281.5,-91 281.5,-108 442.5,-108 442.5,-91 281.5,-91"/>
</g>
<!-- structures:AugmentationType&#45;&gt;intel:LocationAugmentationType -->
<g id="edge2" class="edge">
<title>structures:AugmentationType&#45;&gt;intel:LocationAugmentationType</title>
<path fill="none" stroke="#000000" d="M362,-90.8151C362,-84.3271 362,-74.9677 362,-65.4273"/>
<polygon fill="#000000" stroke="#000000" points="365.5001,-65.1311 362,-55.1312 358.5001,-65.1312 365.5001,-65.1311"/>
<text text-anchor="middle" x="352.5" y="-69.9" font-family="Helvetica,sans-Serif" font-size="12.00" fill="#000000">extension</text>
</g>
</g>
</svg>
