<?xml version="1.0" encoding="UTF-8" standalone="no"?>
<!DOCTYPE svg PUBLIC "-//W3C//DTD SVG 1.1//EN"
 "http://www.w3.org/Graphics/SVG/1.1/DTD/svg11.dtd">
<!-- Generated by graphviz version 2.40.1 (20161225.0304)
 -->
<!-- Title: graphic Pages: 1 -->
<svg width="530pt" height="101pt"
 viewBox="0.00 0.00 530.00 101.00" xmlns="http://www.w3.org/2000/svg" xmlns:xlink="http://www.w3.org/1999/xlink">
<g id="graph0" class="graph" transform="scale(1 1) rotate(0) translate(4 97)">
<title>graphic</title>
<polygon fill="#ffffff" stroke="transparent" points="-4,4 -4,-97 526,-97 526,4 -4,4"/>
<!-- j:HearingDeferredDecisionReasonAbstract -->
<g id="node1" class="node">
<title>j:HearingDeferredDecisionReasonAbstract</title>
<text text-anchor="start" x="258.5" y="-77.4" font-family="Helvetica,sans-Serif" font-weight="bold" font-size="12.00" fill="#000000">j:HearingDeferredDecisionReasonAbstract</text>
<polygon fill="none" stroke="#ff0000" stroke-width="5" points="255,-70 255,-90 506,-90 506,-70 255,-70"/>
</g>
<!-- SubstitutableElements -->
<g id="node3" class="node">
<title>SubstitutableElements</title>
<text text-anchor="start" x="241.5" y="-21.4" font-family="Helvetica,sans-Serif" font-weight="bold" font-size="12.00" fill="#000000">Substitutable elements</text>
<g id="a_node3_0"><a xlink:href="../../j/HearingDeferredDecisionReasonText/#diagram" xlink:title="A kind of reason a hearing was deferred." target="_top">
<polygon fill="#ebebeb" stroke="transparent" points="240.5,-1 240.5,-16 521.5,-16 521.5,-1 240.5,-1"/>
<text text-anchor="start" x="241.5" y="-5.4" font-family="Helvetica,sans-Serif" font-size="12.00" fill="#000000">j:HearingDeferredDecisionReasonText: nc:TextType</text>
</a>
</g>
<polygon fill="#000000" stroke="#000000" points="239.5,-16 239.5,-16 522.5,-16 522.5,-16 239.5,-16"/>
<polygon fill="none" stroke="#000000" points="239,0 239,-32 522,-32 522,0 239,0"/>
</g>
<!-- j:HearingDeferredDecisionReasonAbstract&#45;&gt;SubstitutableElements -->
<g id="edge2" class="edge">
<title>j:HearingDeferredDecisionReasonAbstract&#45;&gt;SubstitutableElements</title>
<path fill="none" stroke="#000000" d="M380.5,-57.3063C380.5,-48.9972 380.5,-39.7712 380.5,-32.1499"/>
<polygon fill="#000000" stroke="#000000" points="377.0001,-57.4892 380.5,-67.4892 384.0001,-57.4892 377.0001,-57.4892"/>
<text text-anchor="middle" x="371" y="-46.65" font-family="Helvetica,sans-Serif" font-size="12.00" fill="#000000">substitutable for</text>
</g>
<!-- Types -->
<g id="node2" class="node">
<title>Types</title>
<text text-anchor="start" x="2" y="-77.4" font-family="Helvetica,sans-Serif" font-weight="bold" font-size="12.00" fill="#000000">Types</text>
<g id="a_node2_1"><a xlink:href="../../j/HearingDeferredDecisionType/#diagram" xlink:title="A data type for a hearing decision which has been postponed to a later time." target="_top">
<polygon fill="#ebebeb" stroke="transparent" points="1,-57 1,-72 171,-72 171,-57 1,-57"/>
<text text-anchor="start" x="2" y="-61.4" font-family="Helvetica,sans-Serif" font-size="12.00" fill="#000000">j:HearingDeferredDecisionType</text>
</a>
</g>
<polygon fill="#000000" stroke="#000000" points="0,-72 0,-72 172,-72 172,-72 0,-72"/>
<polygon fill="none" stroke="#000000" points="0,-56 0,-88 172,-88 172,-56 0,-56"/>
</g>
<!-- Types&#45;&gt;j:HearingDeferredDecisionReasonAbstract -->
<g id="edge1" class="edge">
<title>Types:top&#45;&gt;j:HearingDeferredDecisionReasonAbstract</title>
<path fill="none" stroke="#000000" d="M171,-80C193.9936,-80 218.4068,-80 242.1362,-80"/>
<polygon fill="#000000" stroke="#000000" points="242.258,-83.5001 252.258,-80 242.2579,-76.5001 242.258,-83.5001"/>
<text text-anchor="middle" x="205.5" y="-83.4" font-family="Helvetica,sans-Serif" font-size="12.00" fill="#000000">has&#45;a</text>
</g>
</g>
</svg>
