<?xml version="1.0" encoding="UTF-8" standalone="no"?>
<!DOCTYPE svg PUBLIC "-//W3C//DTD SVG 1.1//EN"
 "http://www.w3.org/Graphics/SVG/1.1/DTD/svg11.dtd">
<!-- Generated by graphviz version 2.40.1 (20161225.0304)
 -->
<!-- Title: graphic Pages: 1 -->
<svg width="645pt" height="45pt"
 viewBox="0.00 0.00 645.00 45.00" xmlns="http://www.w3.org/2000/svg" xmlns:xlink="http://www.w3.org/1999/xlink">
<g id="graph0" class="graph" transform="scale(1 1) rotate(0) translate(4 41)">
<title>graphic</title>
<polygon fill="#ffffff" stroke="transparent" points="-4,4 -4,-41 641,-41 641,4 -4,4"/>
<!-- stat:StatisticalProgramDesignStatusCode -->
<g id="node1" class="node">
<title>stat:StatisticalProgramDesignStatusCode</title>
<text text-anchor="start" x="262.5" y="-21.4" font-family="Helvetica,sans-Serif" font-weight="bold" font-size="12.00" fill="#000000">stat:StatisticalProgramDesignStatusCode</text>
<polygon fill="none" stroke="#ff0000" stroke-width="5" points="258.5,-14 258.5,-34 504.5,-34 504.5,-14 258.5,-14"/>
</g>
<!-- nc:TextType -->
<g id="node3" class="node">
<title>nc:TextType</title>
<g id="a_node3_0"><a xlink:href="../../nc/TextType/#diagram" xlink:title="A data type for a character string." target="_top">
<text text-anchor="start" x="568.5" y="-20.4" font-family="Helvetica,sans-Serif" font-size="12.00" fill="#000000">nc:TextType</text>
</a>
</g>
<polygon fill="none" stroke="#000000" points="566,-15.5 566,-32.5 637,-32.5 637,-15.5 566,-15.5"/>
</g>
<!-- stat:StatisticalProgramDesignStatusCode&#45;&gt;nc:TextType -->
<g id="edge2" class="edge">
<title>stat:StatisticalProgramDesignStatusCode&#45;&gt;nc:TextType</title>
<path fill="none" stroke="#000000" d="M507.2428,-24C524.4372,-24 541.1077,-24 555.5266,-24"/>
<polygon fill="#000000" stroke="#000000" points="555.6032,-27.5001 565.6031,-24 555.6031,-20.5001 555.6032,-27.5001"/>
<text text-anchor="middle" x="536.5" y="-27.4" font-family="Helvetica,sans-Serif" font-size="12.00" fill="#000000">type</text>
</g>
<!-- Types -->
<g id="node2" class="node">
<title>Types</title>
<text text-anchor="start" x="2.5" y="-21.4" font-family="Helvetica,sans-Serif" font-weight="bold" font-size="12.00" fill="#000000">Types</text>
<g id="a_node2_1"><a xlink:href="../../stat/StatisticalProgramDesignType/#diagram" xlink:title="A data type for a specification of the resources required, processes used and description of relevant methodological information about the set of activities undertaken to investigate characteristics of a given population." target="_top">
<polygon fill="#ebebeb" stroke="transparent" points="1.5,-1 1.5,-16 188.5,-16 188.5,-1 1.5,-1"/>
<text text-anchor="start" x="2.5" y="-5.4" font-family="Helvetica,sans-Serif" font-size="12.00" fill="#000000">stat:StatisticalProgramDesignType</text>
</a>
</g>
<polygon fill="#000000" stroke="#000000" points=".5,-16 .5,-16 189.5,-16 189.5,-16 .5,-16"/>
<polygon fill="none" stroke="#000000" points="0,0 0,-32 189,-32 189,0 0,0"/>
</g>
<!-- Types&#45;&gt;stat:StatisticalProgramDesignStatusCode -->
<g id="edge1" class="edge">
<title>Types:top&#45;&gt;stat:StatisticalProgramDesignStatusCode</title>
<path fill="none" stroke="#000000" d="M188.5,-24C207.0466,-24 226.5958,-24 245.8468,-24"/>
<polygon fill="#000000" stroke="#000000" points="245.8799,-27.5001 255.8799,-24 245.8798,-20.5001 245.8799,-27.5001"/>
<text text-anchor="middle" x="222.5" y="-27.4" font-family="Helvetica,sans-Serif" font-size="12.00" fill="#000000">has&#45;a</text>
</g>
</g>
</svg>
