<?xml version="1.0" encoding="UTF-8" standalone="no"?>
<!DOCTYPE svg PUBLIC "-//W3C//DTD SVG 1.1//EN"
 "http://www.w3.org/Graphics/SVG/1.1/DTD/svg11.dtd">
<!-- Generated by graphviz version 2.40.1 (20161225.0304)
 -->
<!-- Title: graphic Pages: 1 -->
<svg width="1046pt" height="212pt"
 viewBox="0.00 0.00 1046.00 212.00" xmlns="http://www.w3.org/2000/svg" xmlns:xlink="http://www.w3.org/1999/xlink">
<g id="graph0" class="graph" transform="scale(1 1) rotate(0) translate(4 208)">
<title>graphic</title>
<polygon fill="#ffffff" stroke="transparent" points="-4,4 -4,-208 1042,-208 1042,4 -4,4"/>
<!-- j:InsuranceInsurerAssociationType -->
<g id="node1" class="node">
<title>j:InsuranceInsurerAssociationType</title>
<text text-anchor="start" x="227.5" y="-83.9" font-family="Helvetica,sans-Serif" font-weight="bold" font-size="12.00" fill="#000000">j:InsuranceInsurerAssociationType</text>
<g id="a_node1_0"><a xlink:href="../../nc/Insurance/#diagram" xlink:title="A coverage by a contract whereby one party agrees to indemnify or guarantee another against loss by a specified contingent event or peril." target="_top">
<polygon fill="#ebebeb" stroke="transparent" points="226.5,-63.5 226.5,-78.5 515.5,-78.5 515.5,-63.5 226.5,-63.5"/>
<text text-anchor="start" x="227.5" y="-67.9" font-family="Helvetica,sans-Serif" font-size="12.00" fill="#000000">nc:Insurance: nc:InsuranceType [0&#45;n]</text>
</a>
</g>
<g id="a_node1_1"><a xlink:href="../../nc/Organization/#diagram" xlink:title="A unit which conducts some sort of business or operations." target="_top">
<text text-anchor="start" x="227.5" y="-52.9" font-family="Helvetica,sans-Serif" font-size="12.00" fill="#000000">nc:Organization: nc:OrganizationType [0&#45;n]</text>
</a>
</g>
<g id="a_node1_2"><a xlink:href="../../j/InsuranceInsurerAssociationAugmentationPoint/#diagram" xlink:title="An augmentation point for InsuranceInsurerAssociationType." target="_top">
<polygon fill="#ebebeb" stroke="transparent" points="226.5,-33.5 226.5,-48.5 515.5,-48.5 515.5,-33.5 226.5,-33.5"/>
<text text-anchor="start" x="227.5" y="-37.9" font-family="Helvetica,sans-Serif" font-size="12.00" fill="#000000">j:InsuranceInsurerAssociationAugmentationPoint [0&#45;n]</text>
</a>
</g>
<polygon fill="#ff0000" stroke="#ff0000" points="221.5,-78.5 221.5,-78.5 520.5,-78.5 520.5,-78.5 221.5,-78.5"/>
<polygon fill="none" stroke="#ff0000" stroke-width="5" points="223.5,-31 223.5,-96 517.5,-96 517.5,-31 223.5,-31"/>
</g>
<!-- subst_d11e14618 -->
<g id="node2" class="node">
<title>subst_d11e14618</title>
<g id="a_node2_3"><a xlink:href="../../nc/Insurance/#diagram" xlink:title="&lt;TABLE&gt;" target="_top">
<text text-anchor="start" x="560.5" y="-86.9" font-family="Helvetica,sans-Serif" font-weight="bold" font-size="12.00" fill="#000000">Substitution group nc:Insurance</text>
</a>
</g>
<g id="a_node2_4"><a xlink:href="../../hs/ChildSupportInsuranceCoverageOrder/#diagram" xlink:title="An order specifying the insurance coverage awarded in a child&#45;support&#45;enforcement case." target="_top">
<polygon fill="#ebebeb" stroke="transparent" points="559.5,-66.5 559.5,-81.5 1036.5,-81.5 1036.5,-66.5 559.5,-66.5"/>
<text text-anchor="start" x="560.5" y="-70.9" font-family="Helvetica,sans-Serif" font-size="12.00" fill="#000000">hs:ChildSupportInsuranceCoverageOrder: hs:ChildSupportInsuranceCoverageOrderType</text>
</a>
</g>
<polygon fill="#000000" stroke="#000000" points="558.5,-81.5 558.5,-81.5 1037.5,-81.5 1037.5,-81.5 558.5,-81.5"/>
<polygon fill="none" stroke="#000000" points="558,-65.5 558,-97.5 1037,-97.5 1037,-65.5 558,-65.5"/>
</g>
<!-- j:InsuranceInsurerAssociationType&#45;&gt;subst_d11e14618 -->
<g id="edge1" class="edge">
<title>j:InsuranceInsurerAssociationType:e&#45;&gt;subst_d11e14618:w</title>
<path fill="none" stroke="#000000" d="M525.5958,-73.1611C537.9637,-77.6172 542.333,-89.5 559.5,-89.5"/>
<polygon fill="#000000" stroke="#000000" points="525.9356,-69.6701 515.5,-71.5 524.7991,-76.5772 525.9356,-69.6701"/>
</g>
<!-- subst_d11e17574 -->
<g id="node3" class="node">
<title>subst_d11e17574</title>
<g id="a_node3_5"><a xlink:href="../../nc/Organization/#diagram" xlink:title="&lt;TABLE&gt;" target="_top">
<text text-anchor="start" x="559.5" y="-35.9" font-family="Helvetica,sans-Serif" font-weight="bold" font-size="12.00" fill="#000000">Substitution group nc:Organization</text>
</a>
</g>
<g id="a_node3_6"><a xlink:href="../../hs/ChildSupportEnforcementOrganization/#diagram" xlink:title="An organization charged with enforcing child support." target="_top">
<polygon fill="#ebebeb" stroke="transparent" points="558.5,-15.5 558.5,-30.5 1037.5,-30.5 1037.5,-15.5 558.5,-15.5"/>
<text text-anchor="start" x="559.5" y="-19.9" font-family="Helvetica,sans-Serif" font-size="12.00" fill="#000000">hs:ChildSupportEnforcementOrganization: hs:ChildSupportEnforcementOrganizationType</text>
</a>
</g>
<g id="a_node3_7"><a xlink:href="../../hs/ChildWelfareOrganization/#diagram" xlink:title="An organization charged with protecting the welfare of children." target="_top">
<text text-anchor="start" x="559.5" y="-4.9" font-family="Helvetica,sans-Serif" font-size="12.00" fill="#000000">hs:ChildWelfareOrganization: nc:OrganizationType</text>
</a>
</g>
<polygon fill="#000000" stroke="#000000" points="557.5,-30.5 557.5,-30.5 1038.5,-30.5 1038.5,-30.5 557.5,-30.5"/>
<polygon fill="none" stroke="#000000" points="557,0 557,-47 1038,-47 1038,0 557,0"/>
</g>
<!-- j:InsuranceInsurerAssociationType&#45;&gt;subst_d11e17574 -->
<g id="edge2" class="edge">
<title>j:InsuranceInsurerAssociationType:e&#45;&gt;subst_d11e17574:w</title>
<path fill="none" stroke="#000000" d="M525.6847,-53.8078C537.5038,-49.5079 541.9633,-38.5 558.5,-38.5"/>
<polygon fill="#000000" stroke="#000000" points="524.7911,-50.4082 515.5,-55.5 525.9385,-57.3136 524.7911,-50.4082"/>
</g>
<!-- Properties -->
<g id="node4" class="node">
<title>Properties</title>
<text text-anchor="start" x="2" y="-83.9" font-family="Helvetica,sans-Serif" font-weight="bold" font-size="12.00" fill="#000000">Properties</text>
<g id="a_node4_8"><a xlink:href="../../j/InsuranceInsurerAssociation/#diagram" xlink:title="A relationship between an insurance policy and the insurer that backs it." target="_top">
<polygon fill="#ebebeb" stroke="transparent" points="1,-63.5 1,-78.5 161,-78.5 161,-63.5 1,-63.5"/>
<text text-anchor="start" x="2" y="-67.9" font-family="Helvetica,sans-Serif" font-size="12.00" fill="#000000">j:InsuranceInsurerAssociation</text>
</a>
</g>
<polygon fill="#000000" stroke="#000000" points="0,-78.5 0,-78.5 162,-78.5 162,-78.5 0,-78.5"/>
<polygon fill="none" stroke="#000000" points="0,-62.5 0,-94.5 162,-94.5 162,-62.5 0,-62.5"/>
</g>
<!-- Properties&#45;&gt;j:InsuranceInsurerAssociationType -->
<g id="edge3" class="edge">
<title>Properties:top&#45;&gt;j:InsuranceInsurerAssociationType:top</title>
<path fill="none" stroke="#000000" d="M161,-86.5C186.3585,-86.5 195.1498,-86.5 216.2371,-86.5"/>
<polygon fill="#000000" stroke="#000000" points="216.5,-90.0001 226.5,-86.5 216.5,-83.0001 216.5,-90.0001"/>
<text text-anchor="middle" x="191.5" y="-89.9" font-family="Helvetica,sans-Serif" font-size="12.00" fill="#000000">type</text>
</g>
<!-- nc:AssociationType -->
<g id="node5" class="node">
<title>nc:AssociationType</title>
<g id="a_node5_9"><a xlink:href="../../nc/AssociationType/#diagram" xlink:title="A data type for an association, connection, relationship, or involvement somehow linking people, things, and/or activities together." target="_top">
<text text-anchor="start" x="318.5" y="-138.9" font-family="Helvetica,sans-Serif" font-size="12.00" fill="#000000">nc:AssociationType</text>
</a>
</g>
<polygon fill="none" stroke="#000000" points="316,-134 316,-151 425,-151 425,-134 316,-134"/>
</g>
<!-- nc:AssociationType&#45;&gt;j:InsuranceInsurerAssociationType -->
<g id="edge4" class="edge">
<title>nc:AssociationType&#45;&gt;j:InsuranceInsurerAssociationType</title>
<path fill="none" stroke="#000000" d="M370.5,-133.9117C370.5,-127.6025 370.5,-118.4911 370.5,-108.9049"/>
<polygon fill="#000000" stroke="#000000" points="374.0001,-108.8408 370.5,-98.8408 367.0001,-108.8409 374.0001,-108.8408"/>
<text text-anchor="middle" x="361" y="-113.15" font-family="Helvetica,sans-Serif" font-size="12.00" fill="#000000">extension</text>
</g>
<!-- structures:AssociationType -->
<g id="node6" class="node">
<title>structures:AssociationType</title>
<g id="a_node6_10"><a xlink:href="../../structures/AssociationType/#diagram" xlink:title="A data type for a relationship between two or more objects, including any properties of that relationship." target="_top">
<text text-anchor="start" x="298.5" y="-191.9" font-family="Helvetica,sans-Serif" font-size="12.00" fill="#000000">structures:AssociationType</text>
</a>
</g>
<polygon fill="none" stroke="#000000" points="296,-187 296,-204 445,-204 445,-187 296,-187"/>
</g>
<!-- structures:AssociationType&#45;&gt;nc:AssociationType -->
<g id="edge5" class="edge">
<title>structures:AssociationType&#45;&gt;nc:AssociationType</title>
<path fill="none" stroke="#000000" d="M370.5,-186.911C370.5,-180.0124 370.5,-170.0696 370.5,-161.34"/>
<polygon fill="#000000" stroke="#000000" points="374.0001,-161.2518 370.5,-151.2519 367.0001,-161.2519 374.0001,-161.2518"/>
<text text-anchor="middle" x="361" y="-165.9" font-family="Helvetica,sans-Serif" font-size="12.00" fill="#000000">extension</text>
</g>
</g>
</svg>
