<?xml version="1.0" encoding="UTF-8" standalone="no"?>
<!DOCTYPE svg PUBLIC "-//W3C//DTD SVG 1.1//EN"
 "http://www.w3.org/Graphics/SVG/1.1/DTD/svg11.dtd">
<!-- Generated by graphviz version 2.40.1 (20161225.0304)
 -->
<!-- Title: graphic Pages: 1 -->
<svg width="530pt" height="45pt"
 viewBox="0.00 0.00 530.00 45.00" xmlns="http://www.w3.org/2000/svg" xmlns:xlink="http://www.w3.org/1999/xlink">
<g id="graph0" class="graph" transform="scale(1 1) rotate(0) translate(4 41)">
<title>graphic</title>
<polygon fill="#ffffff" stroke="transparent" points="-4,4 -4,-41 526,-41 526,4 -4,4"/>
<!-- j:ChargeDispositionSanction -->
<g id="node1" class="node">
<title>j:ChargeDispositionSanction</title>
<text text-anchor="start" x="208.5" y="-21.4" font-family="Helvetica,sans-Serif" font-weight="bold" font-size="12.00" fill="#000000">j:ChargeDispositionSanction</text>
<polygon fill="none" stroke="#ff0000" stroke-width="5" points="204.5,-14 204.5,-34 376.5,-34 376.5,-14 204.5,-14"/>
</g>
<!-- j:SanctionType -->
<g id="node3" class="node">
<title>j:SanctionType</title>
<g id="a_node3_0"><a xlink:href="../../j/SanctionType/#diagram" xlink:title="A data type for a sanction or penalty ordered for a subject as a result of a disposition of a charge." target="_top">
<text text-anchor="start" x="440" y="-20.4" font-family="Helvetica,sans-Serif" font-size="12.00" fill="#000000">j:SanctionType</text>
</a>
</g>
<polygon fill="none" stroke="#000000" points="438,-15.5 438,-32.5 522,-32.5 522,-15.5 438,-15.5"/>
</g>
<!-- j:ChargeDispositionSanction&#45;&gt;j:SanctionType -->
<g id="edge2" class="edge">
<title>j:ChargeDispositionSanction&#45;&gt;j:SanctionType</title>
<path fill="none" stroke="#000000" d="M379.1468,-24C395.7391,-24 412.5821,-24 427.6291,-24"/>
<polygon fill="#000000" stroke="#000000" points="427.7342,-27.5001 437.7341,-24 427.7341,-20.5001 427.7342,-27.5001"/>
<text text-anchor="middle" x="408.5" y="-27.4" font-family="Helvetica,sans-Serif" font-size="12.00" fill="#000000">type</text>
</g>
<!-- Types -->
<g id="node2" class="node">
<title>Types</title>
<text text-anchor="start" x="2.5" y="-21.4" font-family="Helvetica,sans-Serif" font-weight="bold" font-size="12.00" fill="#000000">Types</text>
<g id="a_node2_1"><a xlink:href="../../j/ChargeDispositionType/#diagram" xlink:title="A data type for the results or processing of a charge." target="_top">
<polygon fill="#ebebeb" stroke="transparent" points="1.5,-1 1.5,-16 134.5,-16 134.5,-1 1.5,-1"/>
<text text-anchor="start" x="2.5" y="-5.4" font-family="Helvetica,sans-Serif" font-size="12.00" fill="#000000">j:ChargeDispositionType</text>
</a>
</g>
<polygon fill="#000000" stroke="#000000" points=".5,-16 .5,-16 135.5,-16 135.5,-16 .5,-16"/>
<polygon fill="none" stroke="#000000" points="0,0 0,-32 135,-32 135,0 0,0"/>
</g>
<!-- Types&#45;&gt;j:ChargeDispositionSanction -->
<g id="edge1" class="edge">
<title>Types:top&#45;&gt;j:ChargeDispositionSanction</title>
<path fill="none" stroke="#000000" d="M134.5,-24C152.9807,-24 172.6928,-24 191.667,-24"/>
<polygon fill="#000000" stroke="#000000" points="191.8144,-27.5001 201.8143,-24 191.8143,-20.5001 191.8144,-27.5001"/>
<text text-anchor="middle" x="168.5" y="-27.4" font-family="Helvetica,sans-Serif" font-size="12.00" fill="#000000">has&#45;a</text>
</g>
</g>
</svg>
