<?xml version="1.0" encoding="UTF-8" standalone="no"?>
<!DOCTYPE svg PUBLIC "-//W3C//DTD SVG 1.1//EN"
 "http://www.w3.org/Graphics/SVG/1.1/DTD/svg11.dtd">
<!-- Generated by graphviz version 2.40.1 (20161225.0304)
 -->
<!-- Title: graphic Pages: 1 -->
<svg width="561pt" height="45pt"
 viewBox="0.00 0.00 561.00 45.00" xmlns="http://www.w3.org/2000/svg" xmlns:xlink="http://www.w3.org/1999/xlink">
<g id="graph0" class="graph" transform="scale(1 1) rotate(0) translate(4 41)">
<title>graphic</title>
<polygon fill="#ffffff" stroke="transparent" points="-4,4 -4,-41 557,-41 557,4 -4,4"/>
<!-- im:ConsulateRightsIndicator -->
<g id="node1" class="node">
<title>im:ConsulateRightsIndicator</title>
<text text-anchor="start" x="230.5" y="-21.4" font-family="Helvetica,sans-Serif" font-weight="bold" font-size="12.00" fill="#000000">im:ConsulateRightsIndicator</text>
<polygon fill="none" stroke="#ff0000" stroke-width="5" points="226.5,-14 226.5,-34 398.5,-34 398.5,-14 226.5,-14"/>
</g>
<!-- niem&#45;xs:boolean -->
<g id="node3" class="node">
<title>niem&#45;xs:boolean</title>
<g id="a_node3_0"><a xlink:href="../../niem-xs/boolean/#diagram" xlink:title="A data type for binary&#45;valued logic (true/false)." target="_top">
<text text-anchor="start" x="462.5" y="-20.4" font-family="Helvetica,sans-Serif" font-size="12.00" fill="#000000">niem&#45;xs:boolean</text>
</a>
</g>
<polygon fill="none" stroke="#000000" points="460,-15.5 460,-32.5 553,-32.5 553,-15.5 460,-15.5"/>
</g>
<!-- im:ConsulateRightsIndicator&#45;&gt;niem&#45;xs:boolean -->
<g id="edge2" class="edge">
<title>im:ConsulateRightsIndicator&#45;&gt;niem&#45;xs:boolean</title>
<path fill="none" stroke="#000000" d="M401.2676,-24C417.7236,-24 434.4978,-24 449.6775,-24"/>
<polygon fill="#000000" stroke="#000000" points="449.9083,-27.5001 459.9083,-24 449.9083,-20.5001 449.9083,-27.5001"/>
<text text-anchor="middle" x="430.5" y="-27.4" font-family="Helvetica,sans-Serif" font-size="12.00" fill="#000000">type</text>
</g>
<!-- Types -->
<g id="node2" class="node">
<title>Types</title>
<text text-anchor="start" x="2.5" y="-21.4" font-family="Helvetica,sans-Serif" font-weight="bold" font-size="12.00" fill="#000000">Types</text>
<g id="a_node2_1"><a xlink:href="../../scr/ArrestAugmentationType/#diagram" xlink:title="A data type for additional information about an arrest." target="_top">
<polygon fill="#ebebeb" stroke="transparent" points="1.5,-1 1.5,-16 156.5,-16 156.5,-1 1.5,-1"/>
<text text-anchor="start" x="2.5" y="-5.4" font-family="Helvetica,sans-Serif" font-size="12.00" fill="#000000">scr:ArrestAugmentationType</text>
</a>
</g>
<polygon fill="#000000" stroke="#000000" points=".5,-16 .5,-16 157.5,-16 157.5,-16 .5,-16"/>
<polygon fill="none" stroke="#000000" points="0,0 0,-32 157,-32 157,0 0,0"/>
</g>
<!-- Types&#45;&gt;im:ConsulateRightsIndicator -->
<g id="edge1" class="edge">
<title>Types:top&#45;&gt;im:ConsulateRightsIndicator</title>
<path fill="none" stroke="#000000" d="M156.5,-24C174.9807,-24 194.6928,-24 213.667,-24"/>
<polygon fill="#000000" stroke="#000000" points="213.8144,-27.5001 223.8143,-24 213.8143,-20.5001 213.8144,-27.5001"/>
<text text-anchor="middle" x="190.5" y="-27.4" font-family="Helvetica,sans-Serif" font-size="12.00" fill="#000000">has&#45;a</text>
</g>
</g>
</svg>
