<?xml version="1.0" encoding="UTF-8" standalone="no"?>
<!DOCTYPE svg PUBLIC "-//W3C//DTD SVG 1.1//EN"
 "http://www.w3.org/Graphics/SVG/1.1/DTD/svg11.dtd">
<!-- Generated by graphviz version 2.40.1 (20161225.0304)
 -->
<!-- Title: graphic Pages: 1 -->
<svg width="553pt" height="45pt"
 viewBox="0.00 0.00 553.00 45.00" xmlns="http://www.w3.org/2000/svg" xmlns:xlink="http://www.w3.org/1999/xlink">
<g id="graph0" class="graph" transform="scale(1 1) rotate(0) translate(4 41)">
<title>graphic</title>
<polygon fill="#ffffff" stroke="transparent" points="-4,4 -4,-41 549,-41 549,4 -4,4"/>
<!-- em:RumorSourceReliabilityText -->
<g id="node1" class="node">
<title>em:RumorSourceReliabilityText</title>
<text text-anchor="start" x="226.5" y="-21.4" font-family="Helvetica,sans-Serif" font-weight="bold" font-size="12.00" fill="#000000">em:RumorSourceReliabilityText</text>
<polygon fill="none" stroke="#ff0000" stroke-width="5" points="222.5,-14 222.5,-34 412.5,-34 412.5,-14 222.5,-14"/>
</g>
<!-- nc:TextType -->
<g id="node3" class="node">
<title>nc:TextType</title>
<g id="a_node3_0"><a xlink:href="../../nc/TextType/#diagram" xlink:title="A data type for a character string." target="_top">
<text text-anchor="start" x="476.5" y="-20.4" font-family="Helvetica,sans-Serif" font-size="12.00" fill="#000000">nc:TextType</text>
</a>
</g>
<polygon fill="none" stroke="#000000" points="474,-15.5 474,-32.5 545,-32.5 545,-15.5 474,-15.5"/>
</g>
<!-- em:RumorSourceReliabilityText&#45;&gt;nc:TextType -->
<g id="edge2" class="edge">
<title>em:RumorSourceReliabilityText&#45;&gt;nc:TextType</title>
<path fill="none" stroke="#000000" d="M415.1874,-24C432.0346,-24 448.8125,-24 463.4448,-24"/>
<polygon fill="#000000" stroke="#000000" points="463.6906,-27.5001 473.6906,-24 463.6905,-20.5001 463.6906,-27.5001"/>
<text text-anchor="middle" x="444.5" y="-27.4" font-family="Helvetica,sans-Serif" font-size="12.00" fill="#000000">type</text>
</g>
<!-- Types -->
<g id="node2" class="node">
<title>Types</title>
<text text-anchor="start" x="2.5" y="-21.4" font-family="Helvetica,sans-Serif" font-weight="bold" font-size="12.00" fill="#000000">Types</text>
<g id="a_node2_1"><a xlink:href="../../em/RumorSurveillanceType/#diagram" xlink:title="A data type for a rumor surveillance analysis." target="_top">
<polygon fill="#ebebeb" stroke="transparent" points="1.5,-1 1.5,-16 152.5,-16 152.5,-1 1.5,-1"/>
<text text-anchor="start" x="2.5" y="-5.4" font-family="Helvetica,sans-Serif" font-size="12.00" fill="#000000">em:RumorSurveillanceType</text>
</a>
</g>
<polygon fill="#000000" stroke="#000000" points=".5,-16 .5,-16 153.5,-16 153.5,-16 .5,-16"/>
<polygon fill="none" stroke="#000000" points="0,0 0,-32 153,-32 153,0 0,0"/>
</g>
<!-- Types&#45;&gt;em:RumorSourceReliabilityText -->
<g id="edge1" class="edge">
<title>Types:top&#45;&gt;em:RumorSourceReliabilityText</title>
<path fill="none" stroke="#000000" d="M152.5,-24C170.9542,-24 190.5694,-24 209.5926,-24"/>
<polygon fill="#000000" stroke="#000000" points="209.7818,-27.5001 219.7818,-24 209.7817,-20.5001 209.7818,-27.5001"/>
<text text-anchor="middle" x="186.5" y="-27.4" font-family="Helvetica,sans-Serif" font-size="12.00" fill="#000000">has&#45;a</text>
</g>
</g>
</svg>
