<?xml version="1.0" encoding="UTF-8" standalone="no"?>
<!DOCTYPE svg PUBLIC "-//W3C//DTD SVG 1.1//EN"
 "http://www.w3.org/Graphics/SVG/1.1/DTD/svg11.dtd">
<!-- Generated by graphviz version 2.40.1 (20161225.0304)
 -->
<!-- Title: graphic Pages: 1 -->
<svg width="683pt" height="45pt"
 viewBox="0.00 0.00 683.00 45.00" xmlns="http://www.w3.org/2000/svg" xmlns:xlink="http://www.w3.org/1999/xlink">
<g id="graph0" class="graph" transform="scale(1 1) rotate(0) translate(4 41)">
<title>graphic</title>
<polygon fill="#ffffff" stroke="transparent" points="-4,4 -4,-41 679,-41 679,4 -4,4"/>
<!-- cui:LimitedDisseminationControlDLONLYText -->
<g id="node1" class="node">
<title>cui:LimitedDisseminationControlDLONLYText</title>
<text text-anchor="start" x="276.5" y="-21.4" font-family="Helvetica,sans-Serif" font-weight="bold" font-size="12.00" fill="#000000">cui:LimitedDisseminationControlDLONLYText</text>
<polygon fill="none" stroke="#ff0000" stroke-width="5" points="272.5,-14 272.5,-34 542.5,-34 542.5,-14 272.5,-14"/>
</g>
<!-- nc:TextType -->
<g id="node3" class="node">
<title>nc:TextType</title>
<g id="a_node3_0"><a xlink:href="../../nc/TextType/#diagram" xlink:title="A data type for a character string." target="_top">
<text text-anchor="start" x="606.5" y="-20.4" font-family="Helvetica,sans-Serif" font-size="12.00" fill="#000000">nc:TextType</text>
</a>
</g>
<polygon fill="none" stroke="#000000" points="604,-15.5 604,-32.5 675,-32.5 675,-15.5 604,-15.5"/>
</g>
<!-- cui:LimitedDisseminationControlDLONLYText&#45;&gt;nc:TextType -->
<g id="edge2" class="edge">
<title>cui:LimitedDisseminationControlDLONLYText&#45;&gt;nc:TextType</title>
<path fill="none" stroke="#000000" d="M545.1367,-24C562.5671,-24 579.3217,-24 593.7503,-24"/>
<polygon fill="#000000" stroke="#000000" points="593.8218,-27.5001 603.8218,-24 593.8218,-20.5001 593.8218,-27.5001"/>
<text text-anchor="middle" x="574.5" y="-27.4" font-family="Helvetica,sans-Serif" font-size="12.00" fill="#000000">type</text>
</g>
<!-- Types -->
<g id="node2" class="node">
<title>Types</title>
<text text-anchor="start" x="2.5" y="-21.4" font-family="Helvetica,sans-Serif" font-weight="bold" font-size="12.00" fill="#000000">Types</text>
<g id="a_node2_1"><a xlink:href="../../cui/LimitedDisseminationControlType/#diagram" xlink:title="A data type for any CUI Executive Agent&#45;approved control that agencies may use to limit or specify CUI dissemination." target="_top">
<polygon fill="#ebebeb" stroke="transparent" points="1.5,-1 1.5,-16 202.5,-16 202.5,-1 1.5,-1"/>
<text text-anchor="start" x="2.5" y="-5.4" font-family="Helvetica,sans-Serif" font-size="12.00" fill="#000000">cui:LimitedDisseminationControlType</text>
</a>
</g>
<polygon fill="#000000" stroke="#000000" points=".5,-16 .5,-16 203.5,-16 203.5,-16 .5,-16"/>
<polygon fill="none" stroke="#000000" points="0,0 0,-32 203,-32 203,0 0,0"/>
</g>
<!-- Types&#45;&gt;cui:LimitedDisseminationControlDLONLYText -->
<g id="edge1" class="edge">
<title>Types:top&#45;&gt;cui:LimitedDisseminationControlDLONLYText</title>
<path fill="none" stroke="#000000" d="M202.5,-24C221.0632,-24 240.572,-24 259.8705,-24"/>
<polygon fill="#000000" stroke="#000000" points="259.9371,-27.5001 269.937,-24 259.937,-20.5001 259.9371,-27.5001"/>
<text text-anchor="middle" x="236.5" y="-27.4" font-family="Helvetica,sans-Serif" font-size="12.00" fill="#000000">has&#45;a</text>
</g>
</g>
</svg>
