<?xml version="1.0" encoding="UTF-8" standalone="no"?>
<!DOCTYPE svg PUBLIC "-//W3C//DTD SVG 1.1//EN"
 "http://www.w3.org/Graphics/SVG/1.1/DTD/svg11.dtd">
<!-- Generated by graphviz version 2.40.1 (20161225.0304)
 -->
<!-- Title: graphic Pages: 1 -->
<svg width="404pt" height="86pt"
 viewBox="0.00 0.00 404.00 86.00" xmlns="http://www.w3.org/2000/svg" xmlns:xlink="http://www.w3.org/1999/xlink">
<g id="graph0" class="graph" transform="scale(1 1) rotate(0) translate(4 82)">
<title>graphic</title>
<polygon fill="#ffffff" stroke="transparent" points="-4,4 -4,-82 400,-82 400,4 -4,4"/>
<!-- mo:ListOptionSettingData -->
<g id="node1" class="node">
<title>mo:ListOptionSettingData</title>
<text text-anchor="start" x="10.5" y="-9.9" font-family="Helvetica,sans-Serif" font-weight="bold" font-size="12.00" fill="#000000">mo:ListOptionSettingData</text>
<polygon fill="none" stroke="#ff0000" stroke-width="5" points="6.5,-2.5 6.5,-22.5 162.5,-22.5 162.5,-2.5 6.5,-2.5"/>
</g>
<!-- mo:ListOptionSettingDataType -->
<g id="node3" class="node">
<title>mo:ListOptionSettingDataType</title>
<g id="a_node3_0"><a xlink:href="../../mo/ListOptionSettingDataType/#diagram" xlink:title="A data type for a setting that is specific by a value within a given list of options." target="_top">
<text text-anchor="start" x="230" y="-8.9" font-family="Helvetica,sans-Serif" font-size="12.00" fill="#000000">mo:ListOptionSettingDataType</text>
</a>
</g>
<polygon fill="none" stroke="#000000" points="228,-4 228,-21 396,-21 396,-4 228,-4"/>
</g>
<!-- mo:ListOptionSettingData&#45;&gt;mo:ListOptionSettingDataType -->
<g id="edge2" class="edge">
<title>mo:ListOptionSettingData&#45;&gt;mo:ListOptionSettingDataType</title>
<path fill="none" stroke="#000000" d="M165.0281,-12.5C182.0174,-12.5 200.0905,-12.5 217.5398,-12.5"/>
<polygon fill="#000000" stroke="#000000" points="217.7287,-16.0001 227.7287,-12.5 217.7287,-9.0001 217.7287,-16.0001"/>
<text text-anchor="middle" x="198.5" y="-15.9" font-family="Helvetica,sans-Serif" font-size="12.00" fill="#000000">type</text>
</g>
<!-- SubstitutionGroup -->
<g id="node2" class="node">
<title>SubstitutionGroup</title>
<g id="a_node2_1"><a xlink:href="../../mo/SettingDataRepresentation/#diagram" xlink:title="A data concept for a representation of a setting." target="_top">
<text text-anchor="start" x="2.5" y="-65.9" font-family="Helvetica,sans-Serif" font-size="12.00" fill="#000000">mo:SettingDataRepresentation</text>
</a>
</g>
<polygon fill="none" stroke="#000000" points="0,-61 0,-78 169,-78 169,-61 0,-61"/>
</g>
<!-- SubstitutionGroup&#45;&gt;mo:ListOptionSettingData -->
<g id="edge1" class="edge">
<title>SubstitutionGroup&#45;&gt;mo:ListOptionSettingData</title>
<path fill="none" stroke="#000000" d="M84.5,-50.9163C84.5,-42.4809 84.5,-32.7214 84.5,-25.1501"/>
<polygon fill="#000000" stroke="#000000" points="81.0001,-50.9472 84.5,-60.9473 88.0001,-50.9473 81.0001,-50.9472"/>
<text text-anchor="middle" x="75" y="-39.9" font-family="Helvetica,sans-Serif" font-size="12.00" fill="#000000">substitution group</text>
</g>
</g>
</svg>
