<?xml version="1.0" encoding="UTF-8" standalone="no"?>
<!DOCTYPE svg PUBLIC "-//W3C//DTD SVG 1.1//EN"
 "http://www.w3.org/Graphics/SVG/1.1/DTD/svg11.dtd">
<!-- Generated by graphviz version 2.40.1 (20161225.0304)
 -->
<!-- Title: graphic Pages: 1 -->
<svg width="468pt" height="86pt"
 viewBox="0.00 0.00 468.00 86.00" xmlns="http://www.w3.org/2000/svg" xmlns:xlink="http://www.w3.org/1999/xlink">
<g id="graph0" class="graph" transform="scale(1 1) rotate(0) translate(4 82)">
<title>graphic</title>
<polygon fill="#ffffff" stroke="transparent" points="-4,4 -4,-82 464,-82 464,4 -4,4"/>
<!-- cbrn:RadInstrumentData -->
<g id="node1" class="node">
<title>cbrn:RadInstrumentData</title>
<text text-anchor="start" x="49.5" y="-9.9" font-family="Helvetica,sans-Serif" font-weight="bold" font-size="12.00" fill="#000000">cbrn:RadInstrumentData</text>
<polygon fill="none" stroke="#ff0000" stroke-width="5" points="45.5,-2.5 45.5,-22.5 193.5,-22.5 193.5,-2.5 45.5,-2.5"/>
</g>
<!-- cbrn:RadInstrumentDataType -->
<g id="node3" class="node">
<title>cbrn:RadInstrumentDataType</title>
<g id="a_node3_0"><a xlink:href="../../cbrn/RadInstrumentDataType/#diagram" xlink:title="A data type for the output of a radiation detection instrument from a detection event." target="_top">
<text text-anchor="start" x="300" y="-8.9" font-family="Helvetica,sans-Serif" font-size="12.00" fill="#000000">cbrn:RadInstrumentDataType</text>
</a>
</g>
<polygon fill="none" stroke="#000000" points="298,-4 298,-21 460,-21 460,-4 298,-4"/>
</g>
<!-- cbrn:RadInstrumentData&#45;&gt;cbrn:RadInstrumentDataType -->
<g id="edge2" class="edge">
<title>cbrn:RadInstrumentData&#45;&gt;cbrn:RadInstrumentDataType</title>
<path fill="none" stroke="#000000" d="M196.3053,-12.5C225.0401,-12.5 257.9565,-12.5 287.8621,-12.5"/>
<polygon fill="#000000" stroke="#000000" points="287.8782,-16.0001 297.8781,-12.5 287.8781,-9.0001 287.8782,-16.0001"/>
<text text-anchor="middle" x="268.5" y="-15.9" font-family="Helvetica,sans-Serif" font-size="12.00" fill="#000000">type</text>
</g>
<!-- SubstitutionGroup -->
<g id="node2" class="node">
<title>SubstitutionGroup</title>
<g id="a_node2_1"><a xlink:href="../../cbrn/DetectionEventInstrumentDataAbstract/#diagram" xlink:title="A data concept for the set of data output by an instrument for a detection event. This includes the reported measurement and analysis data, information about the instrument, and information about the item(s) which it is measuring/inspecting." target="_top">
<text text-anchor="start" x="2.5" y="-65.9" font-family="Helvetica,sans-Serif" font-size="12.00" fill="#000000">cbrn:DetectionEventInstrumentDataAbstract</text>
</a>
</g>
<polygon fill="none" stroke="#000000" points="0,-61 0,-78 239,-78 239,-61 0,-61"/>
</g>
<!-- SubstitutionGroup&#45;&gt;cbrn:RadInstrumentData -->
<g id="edge1" class="edge">
<title>SubstitutionGroup&#45;&gt;cbrn:RadInstrumentData</title>
<path fill="none" stroke="#000000" d="M119.5,-50.9163C119.5,-42.4809 119.5,-32.7214 119.5,-25.1501"/>
<polygon fill="#000000" stroke="#000000" points="116.0001,-50.9472 119.5,-60.9473 123.0001,-50.9473 116.0001,-50.9472"/>
<text text-anchor="middle" x="110" y="-39.9" font-family="Helvetica,sans-Serif" font-size="12.00" fill="#000000">substitution group</text>
</g>
</g>
</svg>
