<?xml version="1.0" encoding="UTF-8" standalone="no"?>
<!DOCTYPE svg PUBLIC "-//W3C//DTD SVG 1.1//EN"
 "http://www.w3.org/Graphics/SVG/1.1/DTD/svg11.dtd">
<!-- Generated by graphviz version 2.40.1 (20161225.0304)
 -->
<!-- Title: graphic Pages: 1 -->
<svg width="484pt" height="214pt"
 viewBox="0.00 0.00 484.00 213.50" xmlns="http://www.w3.org/2000/svg" xmlns:xlink="http://www.w3.org/1999/xlink">
<g id="graph0" class="graph" transform="scale(1 1) rotate(0) translate(4 209.5)">
<title>graphic</title>
<polygon fill="#ffffff" stroke="transparent" points="-4,4 -4,-209.5 480,-209.5 480,4 -4,4"/>
<!-- im:TransferType -->
<g id="node1" class="node">
<title>im:TransferType</title>
<text text-anchor="start" x="130" y="-85.4" font-family="Helvetica,sans-Serif" font-weight="bold" font-size="12.00" fill="#000000">im:TransferType</text>
<g id="a_node1_0"><a xlink:href="../../im/TransferCompletionDate/#diagram" xlink:title="A date on which the transfer of the alien student was completed." target="_top">
<polygon fill="#ebebeb" stroke="transparent" points="129,-65 129,-80 471,-80 471,-65 129,-65"/>
<text text-anchor="start" x="130" y="-69.4" font-family="Helvetica,sans-Serif" font-size="12.00" fill="#000000">im:TransferCompletionDate: nc:DateType [0&#45;n]</text>
</a>
</g>
<g id="a_node1_1"><a xlink:href="../../im/TransferEffectiveDate/#diagram" xlink:title="A date on which the transfer of the alien student is intended to become effective." target="_top">
<text text-anchor="start" x="130" y="-54.4" font-family="Helvetica,sans-Serif" font-size="12.00" fill="#000000">im:TransferEffectiveDate: nc:DateType [0&#45;n]</text>
</a>
</g>
<g id="a_node1_2"><a xlink:href="../../im/TransferCompletedIndicator/#diagram" xlink:title="True if the transfer of an alien student has been completed; false otherwise." target="_top">
<polygon fill="#ebebeb" stroke="transparent" points="129,-35 129,-50 471,-50 471,-35 129,-35"/>
<text text-anchor="start" x="130" y="-39.4" font-family="Helvetica,sans-Serif" font-size="12.00" fill="#000000">im:TransferCompletedIndicator: niem&#45;xs:boolean [0&#45;n]</text>
</a>
</g>
<g id="a_node1_3"><a xlink:href="../../im/TransferRequestStatus/#diagram" xlink:title="A status of the Transfer Request submitted by the alien student." target="_top">
<text text-anchor="start" x="130" y="-24.4" font-family="Helvetica,sans-Serif" font-size="12.00" fill="#000000">im:TransferRequestStatus: im:TransferRequestStatusType [0&#45;n]</text>
</a>
</g>
<g id="a_node1_4"><a xlink:href="../../im/TransferAugmentationPoint/#diagram" xlink:title="An augmentation point for TransferType." target="_top">
<polygon fill="#ebebeb" stroke="transparent" points="129,-5 129,-20 471,-20 471,-5 129,-5"/>
<text text-anchor="start" x="130" y="-9.4" font-family="Helvetica,sans-Serif" font-size="12.00" fill="#000000">im:TransferAugmentationPoint [0&#45;n]</text>
</a>
</g>
<polygon fill="#ff0000" stroke="#ff0000" points="124,-80 124,-80 476,-80 476,-80 124,-80"/>
<polygon fill="none" stroke="#ff0000" stroke-width="5" points="126.5,-2.5 126.5,-97.5 473.5,-97.5 473.5,-2.5 126.5,-2.5"/>
</g>
<!-- Properties -->
<g id="node2" class="node">
<title>Properties</title>
<text text-anchor="start" x="2.5" y="-85.4" font-family="Helvetica,sans-Serif" font-weight="bold" font-size="12.00" fill="#000000">Properties</text>
<g id="a_node2_5"><a xlink:href="../../im/Transfer/#diagram" xlink:title="A transfer of an alien student from one school to another." target="_top">
<polygon fill="#ebebeb" stroke="transparent" points="1.5,-65 1.5,-80 64.5,-80 64.5,-65 1.5,-65"/>
<text text-anchor="start" x="2.5" y="-69.4" font-family="Helvetica,sans-Serif" font-size="12.00" fill="#000000">im:Transfer</text>
</a>
</g>
<polygon fill="#000000" stroke="#000000" points=".5,-80 .5,-80 65.5,-80 65.5,-80 .5,-80"/>
<polygon fill="none" stroke="#000000" points="0,-64 0,-96 65,-96 65,-64 0,-64"/>
</g>
<!-- Properties&#45;&gt;im:TransferType -->
<g id="edge1" class="edge">
<title>Properties:top&#45;&gt;im:TransferType:top</title>
<path fill="none" stroke="#000000" d="M64.5,-88C89.4714,-88 98.1284,-88 118.8937,-88"/>
<polygon fill="#000000" stroke="#000000" points="119,-91.5001 129,-88 119,-84.5001 119,-91.5001"/>
<text text-anchor="middle" x="94.5" y="-91.4" font-family="Helvetica,sans-Serif" font-size="12.00" fill="#000000">type</text>
</g>
<!-- nc:ActivityType -->
<g id="node3" class="node">
<title>nc:ActivityType</title>
<g id="a_node3_6"><a xlink:href="../../nc/ActivityType/#diagram" xlink:title="A data type for a single or set of related actions, events, or process steps." target="_top">
<text text-anchor="start" x="260" y="-140.4" font-family="Helvetica,sans-Serif" font-size="12.00" fill="#000000">nc:ActivityType</text>
</a>
</g>
<polygon fill="none" stroke="#000000" points="257.5,-135.5 257.5,-152.5 342.5,-152.5 342.5,-135.5 257.5,-135.5"/>
</g>
<!-- nc:ActivityType&#45;&gt;im:TransferType -->
<g id="edge2" class="edge">
<title>nc:ActivityType&#45;&gt;im:TransferType</title>
<path fill="none" stroke="#000000" d="M300,-135.375C300,-129.1263 300,-120.0624 300,-110.15"/>
<polygon fill="#000000" stroke="#000000" points="303.5001,-110.0274 300,-100.0274 296.5001,-110.0275 303.5001,-110.0274"/>
<text text-anchor="middle" x="290.5" y="-114.65" font-family="Helvetica,sans-Serif" font-size="12.00" fill="#000000">extension</text>
</g>
<!-- structures:ObjectType -->
<g id="node4" class="node">
<title>structures:ObjectType</title>
<g id="a_node4_7"><a xlink:href="../../structures/ObjectType/#diagram" xlink:title="A data type for a thing with its own lifespan that has some existence." target="_top">
<text text-anchor="start" x="241" y="-193.4" font-family="Helvetica,sans-Serif" font-size="12.00" fill="#000000">structures:ObjectType</text>
</a>
</g>
<polygon fill="none" stroke="#000000" points="239,-188.5 239,-205.5 361,-205.5 361,-188.5 239,-188.5"/>
</g>
<!-- structures:ObjectType&#45;&gt;nc:ActivityType -->
<g id="edge3" class="edge">
<title>structures:ObjectType&#45;&gt;nc:ActivityType</title>
<path fill="none" stroke="#000000" d="M300,-188.411C300,-181.5124 300,-171.5696 300,-162.84"/>
<polygon fill="#000000" stroke="#000000" points="303.5001,-162.7518 300,-152.7519 296.5001,-162.7519 303.5001,-162.7518"/>
<text text-anchor="middle" x="290.5" y="-167.4" font-family="Helvetica,sans-Serif" font-size="12.00" fill="#000000">extension</text>
</g>
</g>
</svg>
