<?xml version="1.0" encoding="UTF-8" standalone="no"?>
<!DOCTYPE svg PUBLIC "-//W3C//DTD SVG 1.1//EN"
 "http://www.w3.org/Graphics/SVG/1.1/DTD/svg11.dtd">
<!-- Generated by graphviz version 2.40.1 (20161225.0304)
 -->
<!-- Title: graphic Pages: 1 -->
<svg width="618pt" height="45pt"
 viewBox="0.00 0.00 618.00 45.00" xmlns="http://www.w3.org/2000/svg" xmlns:xlink="http://www.w3.org/1999/xlink">
<g id="graph0" class="graph" transform="scale(1 1) rotate(0) translate(4 41)">
<title>graphic</title>
<polygon fill="#ffffff" stroke="transparent" points="-4,4 -4,-41 614,-41 614,4 -4,4"/>
<!-- nc:PublicServiceOutputResourceDocument -->
<g id="node1" class="node">
<title>nc:PublicServiceOutputResourceDocument</title>
<text text-anchor="start" x="193" y="-21.4" font-family="Helvetica,sans-Serif" font-weight="bold" font-size="12.00" fill="#000000">nc:PublicServiceOutputResourceDocument</text>
<polygon fill="none" stroke="#ff0000" stroke-width="5" points="189.5,-14 189.5,-34 446.5,-34 446.5,-14 189.5,-14"/>
</g>
<!-- nc:DocumentType -->
<g id="node3" class="node">
<title>nc:DocumentType</title>
<g id="a_node3_0"><a xlink:href="../../nc/DocumentType/#diagram" xlink:title="A data type for a paper or electronic document." target="_top">
<text text-anchor="start" x="510" y="-20.4" font-family="Helvetica,sans-Serif" font-size="12.00" fill="#000000">nc:DocumentType</text>
</a>
</g>
<polygon fill="none" stroke="#000000" points="508,-15.5 508,-32.5 610,-32.5 610,-15.5 508,-15.5"/>
</g>
<!-- nc:PublicServiceOutputResourceDocument&#45;&gt;nc:DocumentType -->
<g id="edge2" class="edge">
<title>nc:PublicServiceOutputResourceDocument&#45;&gt;nc:DocumentType</title>
<path fill="none" stroke="#000000" d="M449.0787,-24C466.0321,-24 482.704,-24 497.7382,-24"/>
<polygon fill="#000000" stroke="#000000" points="497.8683,-27.5001 507.8682,-24 497.8682,-20.5001 497.8683,-27.5001"/>
<text text-anchor="middle" x="478.5" y="-27.4" font-family="Helvetica,sans-Serif" font-size="12.00" fill="#000000">type</text>
</g>
<!-- Types -->
<g id="node2" class="node">
<title>Types</title>
<text text-anchor="start" x="2" y="-21.4" font-family="Helvetica,sans-Serif" font-weight="bold" font-size="12.00" fill="#000000">Types</text>
<g id="a_node2_1"><a xlink:href="../../nc/PublicServiceType/#diagram" xlink:title="A data type for a set of deeds and acts performed by or on behalf of a public agency for the benefit of a citizen, a business or another public agency." target="_top">
<polygon fill="#ebebeb" stroke="transparent" points="1,-1 1,-16 119,-16 119,-1 1,-1"/>
<text text-anchor="start" x="2" y="-5.4" font-family="Helvetica,sans-Serif" font-size="12.00" fill="#000000">nc:PublicServiceType</text>
</a>
</g>
<polygon fill="#000000" stroke="#000000" points="0,-16 0,-16 120,-16 120,-16 0,-16"/>
<polygon fill="none" stroke="#000000" points="0,0 0,-32 120,-32 120,0 0,0"/>
</g>
<!-- Types&#45;&gt;nc:PublicServiceOutputResourceDocument -->
<g id="edge1" class="edge">
<title>Types:top&#45;&gt;nc:PublicServiceOutputResourceDocument</title>
<path fill="none" stroke="#000000" d="M119,-24C137.6819,-24 157.3503,-24 176.755,-24"/>
<polygon fill="#000000" stroke="#000000" points="176.8717,-27.5001 186.8717,-24 176.8717,-20.5001 176.8717,-27.5001"/>
<text text-anchor="middle" x="153.5" y="-27.4" font-family="Helvetica,sans-Serif" font-size="12.00" fill="#000000">has&#45;a</text>
</g>
</g>
</svg>
