<?xml version="1.0" encoding="UTF-8" standalone="no"?>
<!DOCTYPE svg PUBLIC "-//W3C//DTD SVG 1.1//EN"
 "http://www.w3.org/Graphics/SVG/1.1/DTD/svg11.dtd">
<!-- Generated by graphviz version 2.40.1 (20161225.0304)
 -->
<!-- Title: graphic Pages: 1 -->
<svg width="856pt" height="146pt"
 viewBox="0.00 0.00 856.00 146.00" xmlns="http://www.w3.org/2000/svg" xmlns:xlink="http://www.w3.org/1999/xlink">
<g id="graph0" class="graph" transform="scale(1 1) rotate(0) translate(4 142)">
<title>graphic</title>
<polygon fill="#ffffff" stroke="transparent" points="-4,4 -4,-142 852,-142 852,4 -4,4"/>
<!-- cbrn:ReportType -->
<g id="node1" class="node">
<title>cbrn:ReportType</title>
<text text-anchor="start" x="132.5" y="-69.9" font-family="Helvetica,sans-Serif" font-weight="bold" font-size="12.00" fill="#000000">cbrn:ReportType</text>
<g id="a_node1_0"><a xlink:href="../../cbrn/ReportDateTime/#diagram" xlink:title="A DateTime when a report was created." target="_top">
<polygon fill="#ebebeb" stroke="transparent" points="131.5,-49.5 131.5,-64.5 378.5,-64.5 378.5,-49.5 131.5,-49.5"/>
<text text-anchor="start" x="132.5" y="-53.9" font-family="Helvetica,sans-Serif" font-size="12.00" fill="#000000">cbrn:ReportDateTime: niem&#45;xs:dateTime [0&#45;n]</text>
</a>
</g>
<g id="a_node1_1"><a xlink:href="../../cbrn/CredentialsAuthenticationAbstract/#diagram" xlink:title="A data concept for the state of user credentials authentication." target="_top">
<text text-anchor="start" x="132.5" y="-38.9" font-family="Helvetica,sans-Serif" font-size="12.00" fill="#000000">cbrn:CredentialsAuthenticationAbstract [0&#45;n]</text>
</a>
</g>
<g id="a_node1_2"><a xlink:href="../../nc/ActivityName/#diagram" xlink:title="A name of an activity." target="_top">
<polygon fill="#ebebeb" stroke="transparent" points="131.5,-19.5 131.5,-34.5 378.5,-34.5 378.5,-19.5 131.5,-19.5"/>
<text text-anchor="start" x="132.5" y="-23.9" font-family="Helvetica,sans-Serif" font-size="12.00" fill="#000000">nc:ActivityName: nc:TextType [0&#45;n]</text>
</a>
</g>
<g id="a_node1_3"><a xlink:href="../../cbrn/ReportAugmentationPoint/#diagram" xlink:title="An augmentation point for cbrn:ReportType." target="_top">
<text text-anchor="start" x="132.5" y="-8.9" font-family="Helvetica,sans-Serif" font-size="12.00" fill="#000000">cbrn:ReportAugmentationPoint [0&#45;n]</text>
</a>
</g>
<polygon fill="#ff0000" stroke="#ff0000" points="126.5,-64.5 126.5,-64.5 383.5,-64.5 383.5,-64.5 126.5,-64.5"/>
<polygon fill="none" stroke="#ff0000" stroke-width="5" points="128.5,-2.5 128.5,-82.5 380.5,-82.5 380.5,-2.5 128.5,-2.5"/>
</g>
<!-- subst_d9e4616 -->
<g id="node2" class="node">
<title>subst_d9e4616</title>
<g id="a_node2_4"><a xlink:href="../../cbrn/CredentialsAuthenticationAbstract/#diagram" xlink:title="&lt;TABLE&gt;" target="_top">
<text text-anchor="start" x="422" y="-38.9" font-family="Helvetica,sans-Serif" font-weight="bold" font-size="12.00" fill="#000000">Substitution group cbrn:CredentialsAuthenticationAbstract</text>
</a>
</g>
<g id="a_node2_5"><a xlink:href="../../cbrn/CredentialsAuthenticationCode/#diagram" xlink:title="A state of user credential&#39;s authentication." target="_top">
<polygon fill="#ebebeb" stroke="transparent" points="421,-18.5 421,-33.5 847,-33.5 847,-18.5 421,-18.5"/>
<text text-anchor="start" x="422" y="-22.9" font-family="Helvetica,sans-Serif" font-size="12.00" fill="#000000">cbrn:CredentialsAuthenticationCode: cbrncl:CredentialsAuthenticatedCodeType</text>
</a>
</g>
<g id="a_node2_6"><a xlink:href="../../cbrn/CredentialsAuthenticationText/#diagram" xlink:title="A description of a state of user credential&#39;s authentication." target="_top">
<text text-anchor="start" x="422" y="-7.9" font-family="Helvetica,sans-Serif" font-size="12.00" fill="#000000">cbrn:CredentialsAuthenticationText: niem&#45;xs:string</text>
</a>
</g>
<polygon fill="#000000" stroke="#000000" points="420,-33.5 420,-33.5 848,-33.5 848,-33.5 420,-33.5"/>
<polygon fill="none" stroke="#000000" points="420,-3 420,-50 848,-50 848,-3 420,-3"/>
</g>
<!-- cbrn:ReportType&#45;&gt;subst_d9e4616 -->
<g id="edge1" class="edge">
<title>cbrn:ReportType:e&#45;&gt;subst_d9e4616:w</title>
<path fill="none" stroke="#000000" d="M388.828,-41.5C400.0114,-41.5 406.0955,-41.5 421,-41.5"/>
<polygon fill="#000000" stroke="#000000" points="388.5,-38.0001 378.5,-41.5 388.5,-45.0001 388.5,-38.0001"/>
</g>
<!-- Properties -->
<g id="node3" class="node">
<title>Properties</title>
<text text-anchor="start" x="2.5" y="-69.9" font-family="Helvetica,sans-Serif" font-weight="bold" font-size="12.00" fill="#000000">Properties</text>
<g id="a_node3_7"><a xlink:href="../../cbrn/Report/#diagram" xlink:title="A report provided on an unsolicited basis; i.e., not in response to a request message (Pull), but by Push from the entity providing the report." target="_top">
<polygon fill="#ebebeb" stroke="transparent" points="1.5,-49.5 1.5,-64.5 66.5,-64.5 66.5,-49.5 1.5,-49.5"/>
<text text-anchor="start" x="2.5" y="-53.9" font-family="Helvetica,sans-Serif" font-size="12.00" fill="#000000">cbrn:Report</text>
</a>
</g>
<polygon fill="#000000" stroke="#000000" points=".5,-64.5 .5,-64.5 67.5,-64.5 67.5,-64.5 .5,-64.5"/>
<polygon fill="none" stroke="#000000" points="0,-48.5 0,-80.5 67,-80.5 67,-48.5 0,-48.5"/>
</g>
<!-- Properties&#45;&gt;cbrn:ReportType -->
<g id="edge2" class="edge">
<title>Properties:top&#45;&gt;cbrn:ReportType:top</title>
<path fill="none" stroke="#000000" d="M66.5,-72.5C91.6649,-72.5 100.3891,-72.5 121.3154,-72.5"/>
<polygon fill="#000000" stroke="#000000" points="121.5,-76.0001 131.5,-72.5 121.5,-69.0001 121.5,-76.0001"/>
<text text-anchor="middle" x="96.5" y="-75.9" font-family="Helvetica,sans-Serif" font-size="12.00" fill="#000000">type</text>
</g>
<!-- structures:ObjectType -->
<g id="node4" class="node">
<title>structures:ObjectType</title>
<g id="a_node4_8"><a xlink:href="../../structures/ObjectType/#diagram" xlink:title="A data type for a thing with its own lifespan that has some existence." target="_top">
<text text-anchor="start" x="195.5" y="-125.9" font-family="Helvetica,sans-Serif" font-size="12.00" fill="#000000">structures:ObjectType</text>
</a>
</g>
<polygon fill="none" stroke="#000000" points="193.5,-121 193.5,-138 315.5,-138 315.5,-121 193.5,-121"/>
</g>
<!-- structures:ObjectType&#45;&gt;cbrn:ReportType -->
<g id="edge3" class="edge">
<title>structures:ObjectType&#45;&gt;cbrn:ReportType</title>
<path fill="none" stroke="#000000" d="M254.5,-120.9761C254.5,-114.614 254.5,-105.3292 254.5,-95.3557"/>
<polygon fill="#000000" stroke="#000000" points="258.0001,-95.2354 254.5,-85.2354 251.0001,-95.2354 258.0001,-95.2354"/>
<text text-anchor="middle" x="245" y="-99.9" font-family="Helvetica,sans-Serif" font-size="12.00" fill="#000000">extension</text>
</g>
</g>
</svg>
