<?xml version="1.0" encoding="UTF-8" standalone="no"?>
<!DOCTYPE svg PUBLIC "-//W3C//DTD SVG 1.1//EN"
 "http://www.w3.org/Graphics/SVG/1.1/DTD/svg11.dtd">
<!-- Generated by graphviz version 2.40.1 (20161225.0304)
 -->
<!-- Title: graphic Pages: 1 -->
<svg width="476pt" height="45pt"
 viewBox="0.00 0.00 476.00 45.00" xmlns="http://www.w3.org/2000/svg" xmlns:xlink="http://www.w3.org/1999/xlink">
<g id="graph0" class="graph" transform="scale(1 1) rotate(0) translate(4 41)">
<title>graphic</title>
<polygon fill="#ffffff" stroke="transparent" points="-4,4 -4,-41 472,-41 472,4 -4,4"/>
<!-- j:CourtOrderDesignatedItem -->
<g id="node1" class="node">
<title>j:CourtOrderDesignatedItem</title>
<text text-anchor="start" x="170" y="-21.4" font-family="Helvetica,sans-Serif" font-weight="bold" font-size="12.00" fill="#000000">j:CourtOrderDesignatedItem</text>
<polygon fill="none" stroke="#ff0000" stroke-width="5" points="166.5,-14 166.5,-34 335.5,-34 335.5,-14 166.5,-14"/>
</g>
<!-- nc:ItemType -->
<g id="node3" class="node">
<title>nc:ItemType</title>
<g id="a_node3_0"><a xlink:href="../../nc/ItemType/#diagram" xlink:title="A data type for an article or thing." target="_top">
<text text-anchor="start" x="399.5" y="-20.4" font-family="Helvetica,sans-Serif" font-size="12.00" fill="#000000">nc:ItemType</text>
</a>
</g>
<polygon fill="none" stroke="#000000" points="397,-15.5 397,-32.5 468,-32.5 468,-15.5 397,-15.5"/>
</g>
<!-- j:CourtOrderDesignatedItem&#45;&gt;nc:ItemType -->
<g id="edge2" class="edge">
<title>j:CourtOrderDesignatedItem&#45;&gt;nc:ItemType</title>
<path fill="none" stroke="#000000" d="M338.0288,-24C354.7204,-24 371.5802,-24 386.3444,-24"/>
<polygon fill="#000000" stroke="#000000" points="386.6923,-27.5001 396.6922,-24 386.6922,-20.5001 386.6923,-27.5001"/>
<text text-anchor="middle" x="367.5" y="-27.4" font-family="Helvetica,sans-Serif" font-size="12.00" fill="#000000">type</text>
</g>
<!-- Types -->
<g id="node2" class="node">
<title>Types</title>
<text text-anchor="start" x="2.5" y="-21.4" font-family="Helvetica,sans-Serif" font-weight="bold" font-size="12.00" fill="#000000">Types</text>
<g id="a_node2_1"><a xlink:href="../../j/CourtOrderType/#diagram" xlink:title="A data type for a direction of a judge not including a judgment, which determines some point or directs some steps in proceedings." target="_top">
<polygon fill="#ebebeb" stroke="transparent" points="1.5,-1 1.5,-16 96.5,-16 96.5,-1 1.5,-1"/>
<text text-anchor="start" x="2.5" y="-5.4" font-family="Helvetica,sans-Serif" font-size="12.00" fill="#000000">j:CourtOrderType</text>
</a>
</g>
<polygon fill="#000000" stroke="#000000" points=".5,-16 .5,-16 97.5,-16 97.5,-16 .5,-16"/>
<polygon fill="none" stroke="#000000" points="0,0 0,-32 97,-32 97,0 0,0"/>
</g>
<!-- Types&#45;&gt;j:CourtOrderDesignatedItem -->
<g id="edge1" class="edge">
<title>Types:top&#45;&gt;j:CourtOrderDesignatedItem</title>
<path fill="none" stroke="#000000" d="M96.5,-24C115.0303,-24 134.8108,-24 153.8173,-24"/>
<polygon fill="#000000" stroke="#000000" points="153.9783,-27.5001 163.9782,-24 153.9782,-20.5001 153.9783,-27.5001"/>
<text text-anchor="middle" x="130.5" y="-27.4" font-family="Helvetica,sans-Serif" font-size="12.00" fill="#000000">has&#45;a</text>
</g>
</g>
</svg>
