<?xml version="1.0" encoding="UTF-8" standalone="no"?>
<!DOCTYPE svg PUBLIC "-//W3C//DTD SVG 1.1//EN"
 "http://www.w3.org/Graphics/SVG/1.1/DTD/svg11.dtd">
<!-- Generated by graphviz version 2.40.1 (20161225.0304)
 -->
<!-- Title: graphic Pages: 1 -->
<svg width="586pt" height="45pt"
 viewBox="0.00 0.00 586.00 45.00" xmlns="http://www.w3.org/2000/svg" xmlns:xlink="http://www.w3.org/1999/xlink">
<g id="graph0" class="graph" transform="scale(1 1) rotate(0) translate(4 41)">
<title>graphic</title>
<polygon fill="#ffffff" stroke="transparent" points="-4,4 -4,-41 582,-41 582,4 -4,4"/>
<!-- hs:FamilyIdentification -->
<g id="node1" class="node">
<title>hs:FamilyIdentification</title>
<text text-anchor="start" x="267.5" y="-21.4" font-family="Helvetica,sans-Serif" font-weight="bold" font-size="12.00" fill="#000000">hs:FamilyIdentification</text>
<polygon fill="none" stroke="#ff0000" stroke-width="5" points="263.5,-14 263.5,-34 401.5,-34 401.5,-14 263.5,-14"/>
</g>
<!-- nc:IdentificationType -->
<g id="node3" class="node">
<title>nc:IdentificationType</title>
<g id="a_node3_0"><a xlink:href="../../nc/IdentificationType/#diagram" xlink:title="A data type for a representation of an identity." target="_top">
<text text-anchor="start" x="465.5" y="-20.4" font-family="Helvetica,sans-Serif" font-size="12.00" fill="#000000">nc:IdentificationType</text>
</a>
</g>
<polygon fill="none" stroke="#000000" points="463,-15.5 463,-32.5 578,-32.5 578,-15.5 463,-15.5"/>
</g>
<!-- hs:FamilyIdentification&#45;&gt;nc:IdentificationType -->
<g id="edge2" class="edge">
<title>hs:FamilyIdentification&#45;&gt;nc:IdentificationType</title>
<path fill="none" stroke="#000000" d="M404.111,-24C420.0287,-24 436.8559,-24 452.6187,-24"/>
<polygon fill="#000000" stroke="#000000" points="452.8032,-27.5001 462.8032,-24 452.8031,-20.5001 452.8032,-27.5001"/>
<text text-anchor="middle" x="433.5" y="-27.4" font-family="Helvetica,sans-Serif" font-size="12.00" fill="#000000">type</text>
</g>
<!-- Types -->
<g id="node2" class="node">
<title>Types</title>
<text text-anchor="start" x="2" y="-21.4" font-family="Helvetica,sans-Serif" font-weight="bold" font-size="12.00" fill="#000000">Types</text>
<g id="a_node2_1"><a xlink:href="../../hs/PersonOtherKinAssociationType/#diagram" xlink:title="A data type for a relationship that is a kinship or other close personal association between the source object and the target object. The relationship between a parent and a child should be captured using the ParentChildAssociation" target="_top">
<polygon fill="#ebebeb" stroke="transparent" points="1,-1 1,-16 193,-16 193,-1 1,-1"/>
<text text-anchor="start" x="2" y="-5.4" font-family="Helvetica,sans-Serif" font-size="12.00" fill="#000000">hs:PersonOtherKinAssociationType</text>
</a>
</g>
<polygon fill="#000000" stroke="#000000" points="0,-16 0,-16 194,-16 194,-16 0,-16"/>
<polygon fill="none" stroke="#000000" points="0,0 0,-32 194,-32 194,0 0,0"/>
</g>
<!-- Types&#45;&gt;hs:FamilyIdentification -->
<g id="edge1" class="edge">
<title>Types:top&#45;&gt;hs:FamilyIdentification</title>
<path fill="none" stroke="#000000" d="M193,-24C211.6815,-24 231.7704,-24 250.7223,-24"/>
<polygon fill="#000000" stroke="#000000" points="250.8157,-27.5001 260.8156,-24 250.8156,-20.5001 250.8157,-27.5001"/>
<text text-anchor="middle" x="227.5" y="-27.4" font-family="Helvetica,sans-Serif" font-size="12.00" fill="#000000">has&#45;a</text>
</g>
</g>
</svg>
