<?xml version="1.0" encoding="UTF-8" standalone="no"?>
<!DOCTYPE svg PUBLIC "-//W3C//DTD SVG 1.1//EN"
 "http://www.w3.org/Graphics/SVG/1.1/DTD/svg11.dtd">
<!-- Generated by graphviz version 2.40.1 (20161225.0304)
 -->
<!-- Title: graphic Pages: 1 -->
<svg width="375pt" height="86pt"
 viewBox="0.00 0.00 375.00 86.00" xmlns="http://www.w3.org/2000/svg" xmlns:xlink="http://www.w3.org/1999/xlink">
<g id="graph0" class="graph" transform="scale(1 1) rotate(0) translate(4 82)">
<title>graphic</title>
<polygon fill="#ffffff" stroke="transparent" points="-4,4 -4,-82 371,-82 371,4 -4,4"/>
<!-- j:ConveyanceColorPrimaryCode -->
<g id="node1" class="node">
<title>j:ConveyanceColorPrimaryCode</title>
<text text-anchor="start" x="6.5" y="-9.9" font-family="Helvetica,sans-Serif" font-weight="bold" font-size="12.00" fill="#000000">j:ConveyanceColorPrimaryCode</text>
<polygon fill="none" stroke="#ff0000" stroke-width="5" points="2.5,-2.5 2.5,-22.5 194.5,-22.5 194.5,-2.5 2.5,-2.5"/>
</g>
<!-- ncic:VCOCodeType -->
<g id="node3" class="node">
<title>ncic:VCOCodeType</title>
<g id="a_node3_0"><a xlink:href="../../ncic/VCOCodeType/#diagram" xlink:title="A data type for 5 &#45; Vehicle Color (VCO) Field Codes" target="_top">
<text text-anchor="start" x="258.5" y="-8.9" font-family="Helvetica,sans-Serif" font-size="12.00" fill="#000000">ncic:VCOCodeType</text>
</a>
</g>
<polygon fill="none" stroke="#000000" points="256,-4 256,-21 367,-21 367,-4 256,-4"/>
</g>
<!-- j:ConveyanceColorPrimaryCode&#45;&gt;ncic:VCOCodeType -->
<g id="edge2" class="edge">
<title>j:ConveyanceColorPrimaryCode&#45;&gt;ncic:VCOCodeType</title>
<path fill="none" stroke="#000000" d="M197.2059,-12.5C213.5632,-12.5 230.1671,-12.5 245.4629,-12.5"/>
<polygon fill="#000000" stroke="#000000" points="245.8242,-16.0001 255.8242,-12.5 245.8242,-9.0001 245.8242,-16.0001"/>
<text text-anchor="middle" x="226.5" y="-15.9" font-family="Helvetica,sans-Serif" font-size="12.00" fill="#000000">type</text>
</g>
<!-- SubstitutionGroup -->
<g id="node2" class="node">
<title>SubstitutionGroup</title>
<g id="a_node2_1"><a xlink:href="../../nc/ItemColorPrimaryAbstract/#diagram" xlink:title="A data concept for a primary color of an item." target="_top">
<text text-anchor="start" x="21.5" y="-65.9" font-family="Helvetica,sans-Serif" font-size="12.00" fill="#000000">nc:ItemColorPrimaryAbstract</text>
</a>
</g>
<polygon fill="none" stroke="#000000" points="19.5,-61 19.5,-78 177.5,-78 177.5,-61 19.5,-61"/>
</g>
<!-- SubstitutionGroup&#45;&gt;j:ConveyanceColorPrimaryCode -->
<g id="edge1" class="edge">
<title>SubstitutionGroup&#45;&gt;j:ConveyanceColorPrimaryCode</title>
<path fill="none" stroke="#000000" d="M98.5,-50.9163C98.5,-42.4809 98.5,-32.7214 98.5,-25.1501"/>
<polygon fill="#000000" stroke="#000000" points="95.0001,-50.9472 98.5,-60.9473 102.0001,-50.9473 95.0001,-50.9472"/>
<text text-anchor="middle" x="89" y="-39.9" font-family="Helvetica,sans-Serif" font-size="12.00" fill="#000000">substitution group</text>
</g>
</g>
</svg>
