<?xml version="1.0" encoding="UTF-8" standalone="no"?>
<!DOCTYPE svg PUBLIC "-//W3C//DTD SVG 1.1//EN"
 "http://www.w3.org/Graphics/SVG/1.1/DTD/svg11.dtd">
<!-- Generated by graphviz version 2.40.1 (20161225.0304)
 -->
<!-- Title: graphic Pages: 1 -->
<svg width="594pt" height="75pt"
 viewBox="0.00 0.00 594.00 75.00" xmlns="http://www.w3.org/2000/svg" xmlns:xlink="http://www.w3.org/1999/xlink">
<g id="graph0" class="graph" transform="scale(1 1) rotate(0) translate(4 71)">
<title>graphic</title>
<polygon fill="#ffffff" stroke="transparent" points="-4,4 -4,-71 590,-71 590,4 -4,4"/>
<!-- nc:PersonHeightDescriptionText -->
<g id="node1" class="node">
<title>nc:PersonHeightDescriptionText</title>
<text text-anchor="start" x="263.5" y="-51.4" font-family="Helvetica,sans-Serif" font-weight="bold" font-size="12.00" fill="#000000">nc:PersonHeightDescriptionText</text>
<polygon fill="none" stroke="#ff0000" stroke-width="5" points="259.5,-44 259.5,-64 453.5,-64 453.5,-44 259.5,-44"/>
</g>
<!-- nc:TextType -->
<g id="node3" class="node">
<title>nc:TextType</title>
<g id="a_node3_0"><a xlink:href="../../nc/TextType/#diagram" xlink:title="A data type for a character string." target="_top">
<text text-anchor="start" x="517.5" y="-50.4" font-family="Helvetica,sans-Serif" font-size="12.00" fill="#000000">nc:TextType</text>
</a>
</g>
<polygon fill="none" stroke="#000000" points="515,-45.5 515,-62.5 586,-62.5 586,-45.5 515,-45.5"/>
</g>
<!-- nc:PersonHeightDescriptionText&#45;&gt;nc:TextType -->
<g id="edge2" class="edge">
<title>nc:PersonHeightDescriptionText&#45;&gt;nc:TextType</title>
<path fill="none" stroke="#000000" d="M456.0574,-54C472.9762,-54 489.7913,-54 504.4417,-54"/>
<polygon fill="#000000" stroke="#000000" points="504.6976,-57.5001 514.6975,-54 504.6975,-50.5001 504.6976,-57.5001"/>
<text text-anchor="middle" x="485.5" y="-57.4" font-family="Helvetica,sans-Serif" font-size="12.00" fill="#000000">type</text>
</g>
<!-- Types -->
<g id="node2" class="node">
<title>Types</title>
<text text-anchor="start" x="2" y="-51.4" font-family="Helvetica,sans-Serif" font-weight="bold" font-size="12.00" fill="#000000">Types</text>
<g id="a_node2_1"><a xlink:href="../../m/MerchantMarinerDocumentType/#diagram" xlink:title="A data type for a Merchant Mariner Document (MMD)." target="_top">
<polygon fill="#ebebeb" stroke="transparent" points="1,-31 1,-46 189,-46 189,-31 1,-31"/>
<text text-anchor="start" x="2" y="-35.4" font-family="Helvetica,sans-Serif" font-size="12.00" fill="#000000">m:MerchantMarinerDocumentType</text>
</a>
</g>
<g id="a_node2_2"><a xlink:href="../../m/SeamanLicenseType/#diagram" xlink:title="A data type for an able&#45;bodied seaman license." target="_top">
<text text-anchor="start" x="2" y="-20.4" font-family="Helvetica,sans-Serif" font-size="12.00" fill="#000000">m:SeamanLicenseType</text>
</a>
</g>
<g id="a_node2_3"><a xlink:href="../../nc/PersonType/#diagram" xlink:title="A data type for a human being." target="_top">
<polygon fill="#ebebeb" stroke="transparent" points="1,-1 1,-16 189,-16 189,-1 1,-1"/>
<text text-anchor="start" x="2" y="-5.4" font-family="Helvetica,sans-Serif" font-size="12.00" fill="#000000">nc:PersonType</text>
</a>
</g>
<polygon fill="#000000" stroke="#000000" points="0,-46 0,-46 190,-46 190,-46 0,-46"/>
<polygon fill="none" stroke="#000000" points="0,0 0,-62 190,-62 190,0 0,0"/>
</g>
<!-- Types&#45;&gt;nc:PersonHeightDescriptionText -->
<g id="edge1" class="edge">
<title>Types:top&#45;&gt;nc:PersonHeightDescriptionText</title>
<path fill="none" stroke="#000000" d="M189,-54C207.6963,-54 227.5665,-54 246.8417,-54"/>
<polygon fill="#000000" stroke="#000000" points="246.8578,-57.5001 256.8577,-54 246.8577,-50.5001 246.8578,-57.5001"/>
<text text-anchor="middle" x="223.5" y="-57.4" font-family="Helvetica,sans-Serif" font-size="12.00" fill="#000000">has&#45;a</text>
</g>
</g>
</svg>
