<?xml version="1.0" encoding="UTF-8" standalone="no"?>
<!DOCTYPE svg PUBLIC "-//W3C//DTD SVG 1.1//EN"
 "http://www.w3.org/Graphics/SVG/1.1/DTD/svg11.dtd">
<!-- Generated by graphviz version 2.40.1 (20161225.0304)
 -->
<!-- Title: graphic Pages: 1 -->
<svg width="412pt" height="86pt"
 viewBox="0.00 0.00 412.00 86.00" xmlns="http://www.w3.org/2000/svg" xmlns:xlink="http://www.w3.org/1999/xlink">
<g id="graph0" class="graph" transform="scale(1 1) rotate(0) translate(4 82)">
<title>graphic</title>
<polygon fill="#ffffff" stroke="transparent" points="-4,4 -4,-82 408,-82 408,4 -4,4"/>
<!-- j:ArtObjectCategoryCode -->
<g id="node1" class="node">
<title>j:ArtObjectCategoryCode</title>
<text text-anchor="start" x="6.5" y="-9.9" font-family="Helvetica,sans-Serif" font-weight="bold" font-size="12.00" fill="#000000">j:ArtObjectCategoryCode</text>
<polygon fill="none" stroke="#ff0000" stroke-width="5" points="2.5,-2.5 2.5,-22.5 154.5,-22.5 154.5,-2.5 2.5,-2.5"/>
</g>
<!-- ndex:ArtObjectCategoryCodeType -->
<g id="node3" class="node">
<title>ndex:ArtObjectCategoryCodeType</title>
<g id="a_node3_0"><a xlink:href="../../ndex/ArtObjectCategoryCodeType/#diagram" xlink:title="A data type for a code that identifies the type of art object." target="_top">
<text text-anchor="start" x="218" y="-8.9" font-family="Helvetica,sans-Serif" font-size="12.00" fill="#000000">ndex:ArtObjectCategoryCodeType</text>
</a>
</g>
<polygon fill="none" stroke="#000000" points="216,-4 216,-21 404,-21 404,-4 216,-4"/>
</g>
<!-- j:ArtObjectCategoryCode&#45;&gt;ndex:ArtObjectCategoryCodeType -->
<g id="edge2" class="edge">
<title>j:ArtObjectCategoryCode&#45;&gt;ndex:ArtObjectCategoryCodeType</title>
<path fill="none" stroke="#000000" d="M157.1984,-12.5C172.8295,-12.5 189.4684,-12.5 205.7976,-12.5"/>
<polygon fill="#000000" stroke="#000000" points="205.9131,-16.0001 215.9131,-12.5 205.9131,-9.0001 205.9131,-16.0001"/>
<text text-anchor="middle" x="186.5" y="-15.9" font-family="Helvetica,sans-Serif" font-size="12.00" fill="#000000">type</text>
</g>
<!-- SubstitutionGroup -->
<g id="node2" class="node">
<title>SubstitutionGroup</title>
<g id="a_node2_1"><a xlink:href="../../nc/ItemCategoryAbstract/#diagram" xlink:title="A data concept for a kind of item." target="_top">
<text text-anchor="start" x="12.5" y="-65.9" font-family="Helvetica,sans-Serif" font-size="12.00" fill="#000000">nc:ItemCategoryAbstract</text>
</a>
</g>
<polygon fill="none" stroke="#000000" points="10,-61 10,-78 147,-78 147,-61 10,-61"/>
</g>
<!-- SubstitutionGroup&#45;&gt;j:ArtObjectCategoryCode -->
<g id="edge1" class="edge">
<title>SubstitutionGroup&#45;&gt;j:ArtObjectCategoryCode</title>
<path fill="none" stroke="#000000" d="M78.5,-50.9163C78.5,-42.4809 78.5,-32.7214 78.5,-25.1501"/>
<polygon fill="#000000" stroke="#000000" points="75.0001,-50.9472 78.5,-60.9473 82.0001,-50.9473 75.0001,-50.9472"/>
<text text-anchor="middle" x="69" y="-39.9" font-family="Helvetica,sans-Serif" font-size="12.00" fill="#000000">substitution group</text>
</g>
</g>
</svg>
