<?xml version="1.0" encoding="UTF-8" standalone="no"?>
<!DOCTYPE svg PUBLIC "-//W3C//DTD SVG 1.1//EN"
 "http://www.w3.org/Graphics/SVG/1.1/DTD/svg11.dtd">
<!-- Generated by graphviz version 2.40.1 (20161225.0304)
 -->
<!-- Title: graphic Pages: 1 -->
<svg width="564pt" height="146pt"
 viewBox="0.00 0.00 564.00 146.00" xmlns="http://www.w3.org/2000/svg" xmlns:xlink="http://www.w3.org/1999/xlink">
<g id="graph0" class="graph" transform="scale(1 1) rotate(0) translate(4 142)">
<title>graphic</title>
<polygon fill="#ffffff" stroke="transparent" points="-4,4 -4,-142 560,-142 560,4 -4,4"/>
<!-- mo:EllipseType -->
<g id="node1" class="node">
<title>mo:EllipseType</title>
<text text-anchor="start" x="129.5" y="-69.9" font-family="Helvetica,sans-Serif" font-weight="bold" font-size="12.00" fill="#000000">mo:EllipseType</text>
<g id="a_node1_0"><a xlink:href="../../mo/EllipseMajorAxisLengthMeasure/#diagram" xlink:title="A major axis length (XY) of an ellipse." target="_top">
<polygon fill="#ebebeb" stroke="transparent" points="128.5,-49.5 128.5,-64.5 551.5,-64.5 551.5,-49.5 128.5,-49.5"/>
<text text-anchor="start" x="129.5" y="-53.9" font-family="Helvetica,sans-Serif" font-size="12.00" fill="#000000">mo:EllipseMajorAxisLengthMeasure: nc:LengthMeasureType [0&#45;n]</text>
</a>
</g>
<g id="a_node1_1"><a xlink:href="../../mo/EllipseMinorAxisLengthMeasure/#diagram" xlink:title="A minor axis length (XY) of an ellipse." target="_top">
<text text-anchor="start" x="129.5" y="-38.9" font-family="Helvetica,sans-Serif" font-size="12.00" fill="#000000">mo:EllipseMinorAxisLengthMeasure: nc:LengthMeasureType [0&#45;n]</text>
</a>
</g>
<g id="a_node1_2"><a xlink:href="../../mo/EllipseMajorAxisAzimuthMeasure/#diagram" xlink:title="A major axis azimuth (XY) of an ellipse." target="_top">
<polygon fill="#ebebeb" stroke="transparent" points="128.5,-19.5 128.5,-34.5 551.5,-34.5 551.5,-19.5 128.5,-19.5"/>
<text text-anchor="start" x="129.5" y="-23.9" font-family="Helvetica,sans-Serif" font-size="12.00" fill="#000000">mo:EllipseMajorAxisAzimuthMeasure: mo:HorizontalAngularMeasureType [0&#45;n]</text>
</a>
</g>
<g id="a_node1_3"><a xlink:href="../../mo/EllipseAugmentationPoint/#diagram" xlink:title="An augmentation point for type mo:EllipseType" target="_top">
<text text-anchor="start" x="129.5" y="-8.9" font-family="Helvetica,sans-Serif" font-size="12.00" fill="#000000">mo:EllipseAugmentationPoint [0&#45;n]</text>
</a>
</g>
<polygon fill="#ff0000" stroke="#ff0000" points="123.5,-64.5 123.5,-64.5 556.5,-64.5 556.5,-64.5 123.5,-64.5"/>
<polygon fill="none" stroke="#ff0000" stroke-width="5" points="125.5,-2.5 125.5,-82.5 553.5,-82.5 553.5,-2.5 125.5,-2.5"/>
</g>
<!-- Properties -->
<g id="node2" class="node">
<title>Properties</title>
<text text-anchor="start" x="2" y="-69.9" font-family="Helvetica,sans-Serif" font-weight="bold" font-size="12.00" fill="#000000">Properties</text>
<g id="a_node2_4"><a xlink:href="../../mo/Ellipse/#diagram" xlink:title="An ellipse, expressed as an XY plane (projected onto earth&#39;s surface) ellipse. The major axis is oriented along reported azimuth, with zero being due North." target="_top">
<polygon fill="#ebebeb" stroke="transparent" points="1,-49.5 1,-64.5 63,-64.5 63,-49.5 1,-49.5"/>
<text text-anchor="start" x="2" y="-53.9" font-family="Helvetica,sans-Serif" font-size="12.00" fill="#000000">mo:Ellipse</text>
</a>
</g>
<polygon fill="#000000" stroke="#000000" points="0,-64.5 0,-64.5 64,-64.5 64,-64.5 0,-64.5"/>
<polygon fill="none" stroke="#000000" points="0,-48.5 0,-80.5 64,-80.5 64,-48.5 0,-48.5"/>
</g>
<!-- Properties&#45;&gt;mo:EllipseType -->
<g id="edge1" class="edge">
<title>Properties:top&#45;&gt;mo:EllipseType:top</title>
<path fill="none" stroke="#000000" d="M63,-72.5C88.3585,-72.5 97.1498,-72.5 118.2371,-72.5"/>
<polygon fill="#000000" stroke="#000000" points="118.5,-76.0001 128.5,-72.5 118.5,-69.0001 118.5,-76.0001"/>
<text text-anchor="middle" x="93.5" y="-75.9" font-family="Helvetica,sans-Serif" font-size="12.00" fill="#000000">type</text>
</g>
<!-- structures:ObjectType -->
<g id="node3" class="node">
<title>structures:ObjectType</title>
<g id="a_node3_5"><a xlink:href="../../structures/ObjectType/#diagram" xlink:title="A data type for a thing with its own lifespan that has some existence." target="_top">
<text text-anchor="start" x="280.5" y="-125.9" font-family="Helvetica,sans-Serif" font-size="12.00" fill="#000000">structures:ObjectType</text>
</a>
</g>
<polygon fill="none" stroke="#000000" points="278.5,-121 278.5,-138 400.5,-138 400.5,-121 278.5,-121"/>
</g>
<!-- structures:ObjectType&#45;&gt;mo:EllipseType -->
<g id="edge2" class="edge">
<title>structures:ObjectType&#45;&gt;mo:EllipseType</title>
<path fill="none" stroke="#000000" d="M339.5,-120.9761C339.5,-114.614 339.5,-105.3292 339.5,-95.3557"/>
<polygon fill="#000000" stroke="#000000" points="343.0001,-95.2354 339.5,-85.2354 336.0001,-95.2354 343.0001,-95.2354"/>
<text text-anchor="middle" x="330" y="-99.9" font-family="Helvetica,sans-Serif" font-size="12.00" fill="#000000">extension</text>
</g>
</g>
</svg>
