<?xml version="1.0" encoding="UTF-8" standalone="no"?>
<!DOCTYPE svg PUBLIC "-//W3C//DTD SVG 1.1//EN"
 "http://www.w3.org/Graphics/SVG/1.1/DTD/svg11.dtd">
<!-- Generated by graphviz version 2.40.1 (20161225.0304)
 -->
<!-- Title: graphic Pages: 1 -->
<svg width="998pt" height="176pt"
 viewBox="0.00 0.00 998.00 176.00" xmlns="http://www.w3.org/2000/svg" xmlns:xlink="http://www.w3.org/1999/xlink">
<g id="graph0" class="graph" transform="scale(1 1) rotate(0) translate(4 172)">
<title>graphic</title>
<polygon fill="#ffffff" stroke="transparent" points="-4,4 -4,-172 994,-172 994,4 -4,4"/>
<!-- intel:AgencySubjectInterestType -->
<g id="node1" class="node">
<title>intel:AgencySubjectInterestType</title>
<text text-anchor="start" x="253.5" y="-99.9" font-family="Helvetica,sans-Serif" font-weight="bold" font-size="12.00" fill="#000000">intel:AgencySubjectInterestType</text>
<g id="a_node1_0"><a xlink:href="../../j/SubjectCautionInformationAbstract/#diagram" xlink:title="A data concept for a piece of cautionary information about a subject." target="_top">
<polygon fill="#ebebeb" stroke="transparent" points="252.5,-79.5 252.5,-94.5 623.5,-94.5 623.5,-79.5 252.5,-79.5"/>
<text text-anchor="start" x="253.5" y="-83.9" font-family="Helvetica,sans-Serif" font-size="12.00" fill="#000000">j:SubjectCautionInformationAbstract [0&#45;n]</text>
</a>
</g>
<g id="a_node1_1"><a xlink:href="../../intel/AgencyName/#diagram" xlink:title="A name of a government organization that has specified an interest in this person, or has issued a warning or handling instructions regarding this person." target="_top">
<text text-anchor="start" x="253.5" y="-68.9" font-family="Helvetica,sans-Serif" font-size="12.00" fill="#000000">intel:AgencyName: nc:TextType [0&#45;n]</text>
</a>
</g>
<g id="a_node1_2"><a xlink:href="../../intel/AgencyInterestCategory/#diagram" xlink:title="A grouping of persons by the reason they are of interest to intelligence." target="_top">
<polygon fill="#ebebeb" stroke="transparent" points="252.5,-49.5 252.5,-64.5 623.5,-64.5 623.5,-49.5 252.5,-49.5"/>
<text text-anchor="start" x="253.5" y="-53.9" font-family="Helvetica,sans-Serif" font-size="12.00" fill="#000000">intel:AgencyInterestCategory: intel:AgencyInterestCategoryType [0&#45;n]</text>
</a>
</g>
<g id="a_node1_3"><a xlink:href="../../intel/AgencySubjectHandling/#diagram" xlink:title="An action to take on contact with the person." target="_top">
<text text-anchor="start" x="253.5" y="-38.9" font-family="Helvetica,sans-Serif" font-size="12.00" fill="#000000">intel:AgencySubjectHandling: intel:AgencySubjectHandlingType [0&#45;n]</text>
</a>
</g>
<g id="a_node1_4"><a xlink:href="../../intel/SubjectReasonOnListText/#diagram" xlink:title="A reason why the person has been added to a terrorist watch list by a government organization." target="_top">
<polygon fill="#ebebeb" stroke="transparent" points="252.5,-19.5 252.5,-34.5 623.5,-34.5 623.5,-19.5 252.5,-19.5"/>
<text text-anchor="start" x="253.5" y="-23.9" font-family="Helvetica,sans-Serif" font-size="12.00" fill="#000000">intel:SubjectReasonOnListText: nc:TextType [0&#45;n]</text>
</a>
</g>
<g id="a_node1_5"><a xlink:href="../../intel/AgencySubjectInterestAugmentationPoint/#diagram" xlink:title="An augmentation point for AgencySubjectInterestType." target="_top">
<text text-anchor="start" x="253.5" y="-8.9" font-family="Helvetica,sans-Serif" font-size="12.00" fill="#000000">intel:AgencySubjectInterestAugmentationPoint [0&#45;n]</text>
</a>
</g>
<polygon fill="#ff0000" stroke="#ff0000" points="247.5,-94.5 247.5,-94.5 628.5,-94.5 628.5,-94.5 247.5,-94.5"/>
<polygon fill="none" stroke="#ff0000" stroke-width="5" points="249.5,-2.5 249.5,-112.5 625.5,-112.5 625.5,-2.5 249.5,-2.5"/>
</g>
<!-- subst_d11e46144 -->
<g id="node2" class="node">
<title>subst_d11e46144</title>
<g id="a_node2_6"><a xlink:href="../../j/SubjectCautionInformationAbstract/#diagram" xlink:title="&lt;TABLE&gt;" target="_top">
<text text-anchor="start" x="667.5" y="-84.9" font-family="Helvetica,sans-Serif" font-weight="bold" font-size="12.00" fill="#000000">Substitution group j:SubjectCautionInformationAbstract</text>
</a>
</g>
<g id="a_node2_7"><a xlink:href="../../j/SubjectCautionInformationCode/#diagram" xlink:title="A piece of cautionary information about a subject." target="_top">
<polygon fill="#ebebeb" stroke="transparent" points="666.5,-64.5 666.5,-79.5 989.5,-79.5 989.5,-64.5 666.5,-64.5"/>
<text text-anchor="start" x="667.5" y="-68.9" font-family="Helvetica,sans-Serif" font-size="12.00" fill="#000000">j:SubjectCautionInformationCode: ncic:CMCCodeType</text>
</a>
</g>
<g id="a_node2_8"><a xlink:href="../../j/SubjectCautionInformationText/#diagram" xlink:title="A piece of cautionary information about a subject." target="_top">
<text text-anchor="start" x="667.5" y="-53.9" font-family="Helvetica,sans-Serif" font-size="12.00" fill="#000000">j:SubjectCautionInformationText: nc:TextType</text>
</a>
</g>
<polygon fill="#000000" stroke="#000000" points="665.5,-79.5 665.5,-79.5 990.5,-79.5 990.5,-79.5 665.5,-79.5"/>
<polygon fill="none" stroke="#000000" points="665,-49 665,-96 990,-96 990,-49 665,-49"/>
</g>
<!-- intel:AgencySubjectInterestType&#45;&gt;subst_d11e46144 -->
<g id="edge1" class="edge">
<title>intel:AgencySubjectInterestType:e&#45;&gt;subst_d11e46144:w</title>
<path fill="none" stroke="#000000" d="M633.6119,-87.5C645.1435,-87.5 651.2708,-87.5 666.5,-87.5"/>
<polygon fill="#000000" stroke="#000000" points="633.5,-84.0001 623.5,-87.5 633.5,-91.0001 633.5,-84.0001"/>
</g>
<!-- Properties -->
<g id="node3" class="node">
<title>Properties</title>
<text text-anchor="start" x="2" y="-99.9" font-family="Helvetica,sans-Serif" font-weight="bold" font-size="12.00" fill="#000000">Properties</text>
<g id="a_node3_9"><a xlink:href="../../intel/PersonAgencySubjectInterest/#diagram" xlink:title="A description of why an agency placed the person in its repository or why the data on the person is being exchanged." target="_top">
<polygon fill="#ebebeb" stroke="transparent" points="1,-79.5 1,-94.5 187,-94.5 187,-79.5 1,-79.5"/>
<text text-anchor="start" x="2" y="-83.9" font-family="Helvetica,sans-Serif" font-size="12.00" fill="#000000">intel:PersonAgencySubjectInterest</text>
</a>
</g>
<polygon fill="#000000" stroke="#000000" points="0,-94.5 0,-94.5 188,-94.5 188,-94.5 0,-94.5"/>
<polygon fill="none" stroke="#000000" points="0,-78.5 0,-110.5 188,-110.5 188,-78.5 0,-78.5"/>
</g>
<!-- Properties&#45;&gt;intel:AgencySubjectInterestType -->
<g id="edge2" class="edge">
<title>Properties:top&#45;&gt;intel:AgencySubjectInterestType:top</title>
<path fill="none" stroke="#000000" d="M187,-102.5C212.3585,-102.5 221.1498,-102.5 242.2371,-102.5"/>
<polygon fill="#000000" stroke="#000000" points="242.5,-106.0001 252.5,-102.5 242.5,-99.0001 242.5,-106.0001"/>
<text text-anchor="middle" x="217.5" y="-105.9" font-family="Helvetica,sans-Serif" font-size="12.00" fill="#000000">type</text>
</g>
<!-- structures:ObjectType -->
<g id="node4" class="node">
<title>structures:ObjectType</title>
<g id="a_node4_10"><a xlink:href="../../structures/ObjectType/#diagram" xlink:title="A data type for a thing with its own lifespan that has some existence." target="_top">
<text text-anchor="start" x="378.5" y="-155.9" font-family="Helvetica,sans-Serif" font-size="12.00" fill="#000000">structures:ObjectType</text>
</a>
</g>
<polygon fill="none" stroke="#000000" points="376.5,-151 376.5,-168 498.5,-168 498.5,-151 376.5,-151"/>
</g>
<!-- structures:ObjectType&#45;&gt;intel:AgencySubjectInterestType -->
<g id="edge3" class="edge">
<title>structures:ObjectType&#45;&gt;intel:AgencySubjectInterestType</title>
<path fill="none" stroke="#000000" d="M437.5,-150.9079C437.5,-144.5936 437.5,-135.3582 437.5,-125.1194"/>
<polygon fill="#000000" stroke="#000000" points="441.0001,-125.058 437.5,-115.058 434.0001,-125.0581 441.0001,-125.058"/>
<text text-anchor="middle" x="428" y="-129.9" font-family="Helvetica,sans-Serif" font-size="12.00" fill="#000000">extension</text>
</g>
</g>
</svg>
