<?xml version="1.0" encoding="UTF-8" standalone="no"?>
<!DOCTYPE svg PUBLIC "-//W3C//DTD SVG 1.1//EN"
 "http://www.w3.org/Graphics/SVG/1.1/DTD/svg11.dtd">
<!-- Generated by graphviz version 2.40.1 (20161225.0304)
 -->
<!-- Title: graphic Pages: 1 -->
<svg width="522pt" height="45pt"
 viewBox="0.00 0.00 522.00 45.00" xmlns="http://www.w3.org/2000/svg" xmlns:xlink="http://www.w3.org/1999/xlink">
<g id="graph0" class="graph" transform="scale(1 1) rotate(0) translate(4 41)">
<title>graphic</title>
<polygon fill="#ffffff" stroke="transparent" points="-4,4 -4,-41 518,-41 518,4 -4,4"/>
<!-- em:AfterActionReview -->
<g id="node1" class="node">
<title>em:AfterActionReview</title>
<text text-anchor="start" x="171.5" y="-21.4" font-family="Helvetica,sans-Serif" font-weight="bold" font-size="12.00" fill="#000000">em:AfterActionReview</text>
<polygon fill="none" stroke="#ff0000" stroke-width="5" points="167.5,-14 167.5,-34 303.5,-34 303.5,-14 167.5,-14"/>
</g>
<!-- em:AfterActionReviewType -->
<g id="node3" class="node">
<title>em:AfterActionReviewType</title>
<g id="a_node3_0"><a xlink:href="../../em/AfterActionReviewType/#diagram" xlink:title="A data type for a review activity after an action occurs." target="_top">
<text text-anchor="start" x="367.5" y="-20.4" font-family="Helvetica,sans-Serif" font-size="12.00" fill="#000000">em:AfterActionReviewType</text>
</a>
</g>
<polygon fill="none" stroke="#000000" points="365,-15.5 365,-32.5 514,-32.5 514,-15.5 365,-15.5"/>
</g>
<!-- em:AfterActionReview&#45;&gt;em:AfterActionReviewType -->
<g id="edge2" class="edge">
<title>em:AfterActionReview&#45;&gt;em:AfterActionReviewType</title>
<path fill="none" stroke="#000000" d="M306.2768,-24C321.7584,-24 338.3021,-24 354.2808,-24"/>
<polygon fill="#000000" stroke="#000000" points="354.6828,-27.5001 364.6827,-24 354.6827,-20.5001 354.6828,-27.5001"/>
<text text-anchor="middle" x="335.5" y="-27.4" font-family="Helvetica,sans-Serif" font-size="12.00" fill="#000000">type</text>
</g>
<!-- Types -->
<g id="node2" class="node">
<title>Types</title>
<text text-anchor="start" x="2" y="-21.4" font-family="Helvetica,sans-Serif" font-weight="bold" font-size="12.00" fill="#000000">Types</text>
<g id="a_node2_1"><a xlink:href="../../em/PlanningType/#diagram" xlink:title="A data type for planning and intelligence, such as a situational analysis, planning, after action review and information management." target="_top">
<polygon fill="#ebebeb" stroke="transparent" points="1,-1 1,-16 97,-16 97,-1 1,-1"/>
<text text-anchor="start" x="2" y="-5.4" font-family="Helvetica,sans-Serif" font-size="12.00" fill="#000000">em:PlanningType</text>
</a>
</g>
<polygon fill="#000000" stroke="#000000" points="0,-16 0,-16 98,-16 98,-16 0,-16"/>
<polygon fill="none" stroke="#000000" points="0,0 0,-32 98,-32 98,0 0,0"/>
</g>
<!-- Types&#45;&gt;em:AfterActionReview -->
<g id="edge1" class="edge">
<title>Types:top&#45;&gt;em:AfterActionReview</title>
<path fill="none" stroke="#000000" d="M97,-24C115.6495,-24 135.7116,-24 154.6185,-24"/>
<polygon fill="#000000" stroke="#000000" points="154.6857,-27.5001 164.6857,-24 154.6857,-20.5001 154.6857,-27.5001"/>
<text text-anchor="middle" x="131.5" y="-27.4" font-family="Helvetica,sans-Serif" font-size="12.00" fill="#000000">has&#45;a</text>
</g>
</g>
</svg>
