<?xml version="1.0" encoding="UTF-8" standalone="no"?>
<!DOCTYPE svg PUBLIC "-//W3C//DTD SVG 1.1//EN"
 "http://www.w3.org/Graphics/SVG/1.1/DTD/svg11.dtd">
<!-- Generated by graphviz version 2.40.1 (20161225.0304)
 -->
<!-- Title: graphic Pages: 1 -->
<svg width="648pt" height="45pt"
 viewBox="0.00 0.00 648.00 45.00" xmlns="http://www.w3.org/2000/svg" xmlns:xlink="http://www.w3.org/1999/xlink">
<g id="graph0" class="graph" transform="scale(1 1) rotate(0) translate(4 41)">
<title>graphic</title>
<polygon fill="#ffffff" stroke="transparent" points="-4,4 -4,-41 644,-41 644,4 -4,4"/>
<!-- im:PartyContactDateRange -->
<g id="node1" class="node">
<title>im:PartyContactDateRange</title>
<text text-anchor="start" x="311" y="-21.4" font-family="Helvetica,sans-Serif" font-weight="bold" font-size="12.00" fill="#000000">im:PartyContactDateRange</text>
<polygon fill="none" stroke="#ff0000" stroke-width="5" points="307.5,-14 307.5,-34 470.5,-34 470.5,-14 307.5,-14"/>
</g>
<!-- nc:DateRangeType -->
<g id="node3" class="node">
<title>nc:DateRangeType</title>
<g id="a_node3_0"><a xlink:href="../../nc/DateRangeType/#diagram" xlink:title="A data type for a range of dates." target="_top">
<text text-anchor="start" x="534" y="-20.4" font-family="Helvetica,sans-Serif" font-size="12.00" fill="#000000">nc:DateRangeType</text>
</a>
</g>
<polygon fill="none" stroke="#000000" points="532,-15.5 532,-32.5 640,-32.5 640,-15.5 532,-15.5"/>
</g>
<!-- im:PartyContactDateRange&#45;&gt;nc:DateRangeType -->
<g id="edge2" class="edge">
<title>im:PartyContactDateRange&#45;&gt;nc:DateRangeType</title>
<path fill="none" stroke="#000000" d="M473.1172,-24C489.4166,-24 506.2531,-24 521.7892,-24"/>
<polygon fill="#000000" stroke="#000000" points="521.7922,-27.5001 531.7922,-24 521.7921,-20.5001 521.7922,-27.5001"/>
<text text-anchor="middle" x="502.5" y="-27.4" font-family="Helvetica,sans-Serif" font-size="12.00" fill="#000000">type</text>
</g>
<!-- Types -->
<g id="node2" class="node">
<title>Types</title>
<text text-anchor="start" x="2" y="-21.4" font-family="Helvetica,sans-Serif" font-weight="bold" font-size="12.00" fill="#000000">Types</text>
<g id="a_node2_1"><a xlink:href="../../im/PartyContactInformationAssociationType/#diagram" xlink:title="A data type for an association between a party and contact information." target="_top">
<polygon fill="#ebebeb" stroke="transparent" points="1,-1 1,-16 237,-16 237,-1 1,-1"/>
<text text-anchor="start" x="2" y="-5.4" font-family="Helvetica,sans-Serif" font-size="12.00" fill="#000000">im:PartyContactInformationAssociationType</text>
</a>
</g>
<polygon fill="#000000" stroke="#000000" points="0,-16 0,-16 238,-16 238,-16 0,-16"/>
<polygon fill="none" stroke="#000000" points="0,0 0,-32 238,-32 238,0 0,0"/>
</g>
<!-- Types&#45;&gt;im:PartyContactDateRange -->
<g id="edge1" class="edge">
<title>Types:top&#45;&gt;im:PartyContactDateRange</title>
<path fill="none" stroke="#000000" d="M237,-24C255.6779,-24 275.6468,-24 294.765,-24"/>
<polygon fill="#000000" stroke="#000000" points="294.9782,-27.5001 304.9781,-24 294.9781,-20.5001 294.9782,-27.5001"/>
<text text-anchor="middle" x="271.5" y="-27.4" font-family="Helvetica,sans-Serif" font-size="12.00" fill="#000000">has&#45;a</text>
</g>
</g>
</svg>
