<?xml version="1.0" encoding="UTF-8" standalone="no"?>
<!DOCTYPE svg PUBLIC "-//W3C//DTD SVG 1.1//EN"
 "http://www.w3.org/Graphics/SVG/1.1/DTD/svg11.dtd">
<!-- Generated by graphviz version 2.40.1 (20161225.0304)
 -->
<!-- Title: graphic Pages: 1 -->
<svg width="572pt" height="60pt"
 viewBox="0.00 0.00 572.00 59.50" xmlns="http://www.w3.org/2000/svg" xmlns:xlink="http://www.w3.org/1999/xlink">
<g id="graph0" class="graph" transform="scale(1 1) rotate(0) translate(4 55.5)">
<title>graphic</title>
<polygon fill="#ffffff" stroke="transparent" points="-4,4 -4,-55.5 568,-55.5 568,4 -4,4"/>
<!-- nc:DocumentFileControlID -->
<g id="node1" class="node">
<title>nc:DocumentFileControlID</title>
<text text-anchor="start" x="268" y="-35.9" font-family="Helvetica,sans-Serif" font-weight="bold" font-size="12.00" fill="#000000">nc:DocumentFileControlID</text>
<polygon fill="none" stroke="#ff0000" stroke-width="5" points="264.5,-28.5 264.5,-48.5 423.5,-48.5 423.5,-28.5 264.5,-28.5"/>
</g>
<!-- niem&#45;xs:string -->
<g id="node3" class="node">
<title>niem&#45;xs:string</title>
<g id="a_node3_0"><a xlink:href="../../niem-xs/string/#diagram" xlink:title="A data type for character strings in XML." target="_top">
<text text-anchor="start" x="487.5" y="-34.9" font-family="Helvetica,sans-Serif" font-size="12.00" fill="#000000">niem&#45;xs:string</text>
</a>
</g>
<polygon fill="none" stroke="#000000" points="485,-30 485,-47 564,-47 564,-30 485,-30"/>
</g>
<!-- nc:DocumentFileControlID&#45;&gt;niem&#45;xs:string -->
<g id="edge2" class="edge">
<title>nc:DocumentFileControlID&#45;&gt;niem&#45;xs:string</title>
<path fill="none" stroke="#000000" d="M426.0635,-38.5C442.7102,-38.5 459.7314,-38.5 474.8367,-38.5"/>
<polygon fill="#000000" stroke="#000000" points="474.96,-42.0001 484.96,-38.5 474.96,-35.0001 474.96,-42.0001"/>
<text text-anchor="middle" x="455.5" y="-41.9" font-family="Helvetica,sans-Serif" font-size="12.00" fill="#000000">type</text>
</g>
<!-- Types -->
<g id="node2" class="node">
<title>Types</title>
<text text-anchor="start" x="2.5" y="-35.9" font-family="Helvetica,sans-Serif" font-weight="bold" font-size="12.00" fill="#000000">Types</text>
<g id="a_node2_1"><a xlink:href="../../scr/ScreeningTECSRecordInfoType/#diagram" xlink:title="A data type for the Screening record information received from the CBP Traveler Encounter Compliance System (TECS)." target="_top">
<polygon fill="#ebebeb" stroke="transparent" points="1.5,-15.5 1.5,-30.5 194.5,-30.5 194.5,-15.5 1.5,-15.5"/>
<text text-anchor="start" x="2.5" y="-19.9" font-family="Helvetica,sans-Serif" font-size="12.00" fill="#000000">scr:ScreeningTECSRecordInfoType</text>
</a>
</g>
<g id="a_node2_2"><a xlink:href="../../nc/DocumentType/#diagram" xlink:title="A data type for a paper or electronic document." target="_top">
<text text-anchor="start" x="2.5" y="-4.9" font-family="Helvetica,sans-Serif" font-size="12.00" fill="#000000">nc:DocumentType</text>
</a>
</g>
<polygon fill="#000000" stroke="#000000" points=".5,-30.5 .5,-30.5 195.5,-30.5 195.5,-30.5 .5,-30.5"/>
<polygon fill="none" stroke="#000000" points="0,0 0,-47 195,-47 195,0 0,0"/>
</g>
<!-- Types&#45;&gt;nc:DocumentFileControlID -->
<g id="edge1" class="edge">
<title>Types:top&#45;&gt;nc:DocumentFileControlID</title>
<path fill="none" stroke="#000000" d="M194.5,-38.5C212.9807,-38.5 232.7464,-38.5 251.6526,-38.5"/>
<polygon fill="#000000" stroke="#000000" points="251.7506,-42.0001 261.7506,-38.5 251.7506,-35.0001 251.7506,-42.0001"/>
<text text-anchor="middle" x="228.5" y="-41.9" font-family="Helvetica,sans-Serif" font-size="12.00" fill="#000000">has&#45;a</text>
</g>
</g>
</svg>
