<?xml version="1.0" encoding="UTF-8" standalone="no"?>
<!DOCTYPE svg PUBLIC "-//W3C//DTD SVG 1.1//EN"
 "http://www.w3.org/Graphics/SVG/1.1/DTD/svg11.dtd">
<!-- Generated by graphviz version 2.40.1 (20161225.0304)
 -->
<!-- Title: graphic Pages: 1 -->
<svg width="509pt" height="45pt"
 viewBox="0.00 0.00 509.00 45.00" xmlns="http://www.w3.org/2000/svg" xmlns:xlink="http://www.w3.org/1999/xlink">
<g id="graph0" class="graph" transform="scale(1 1) rotate(0) translate(4 41)">
<title>graphic</title>
<polygon fill="#ffffff" stroke="transparent" points="-4,4 -4,-41 505,-41 505,4 -4,4"/>
<!-- it:TransitCustomsOffice -->
<g id="node1" class="node">
<title>it:TransitCustomsOffice</title>
<text text-anchor="start" x="184.5" y="-21.4" font-family="Helvetica,sans-Serif" font-weight="bold" font-size="12.00" fill="#000000">it:TransitCustomsOffice</text>
<polygon fill="none" stroke="#ff0000" stroke-width="5" points="180.5,-14 180.5,-34 324.5,-34 324.5,-14 180.5,-14"/>
</g>
<!-- nc:OrganizationType -->
<g id="node3" class="node">
<title>nc:OrganizationType</title>
<g id="a_node3_0"><a xlink:href="../../nc/OrganizationType/#diagram" xlink:title="A data type for a body of people organized for a particular purpose." target="_top">
<text text-anchor="start" x="388.5" y="-20.4" font-family="Helvetica,sans-Serif" font-size="12.00" fill="#000000">nc:OrganizationType</text>
</a>
</g>
<polygon fill="none" stroke="#000000" points="386,-15.5 386,-32.5 501,-32.5 501,-15.5 386,-15.5"/>
</g>
<!-- it:TransitCustomsOffice&#45;&gt;nc:OrganizationType -->
<g id="edge2" class="edge">
<title>it:TransitCustomsOffice&#45;&gt;nc:OrganizationType</title>
<path fill="none" stroke="#000000" d="M327.1662,-24C343.1303,-24 359.9108,-24 375.6035,-24"/>
<polygon fill="#000000" stroke="#000000" points="375.7393,-27.5001 385.7392,-24 375.7392,-20.5001 375.7393,-27.5001"/>
<text text-anchor="middle" x="356.5" y="-27.4" font-family="Helvetica,sans-Serif" font-size="12.00" fill="#000000">type</text>
</g>
<!-- Types -->
<g id="node2" class="node">
<title>Types</title>
<text text-anchor="start" x="2.5" y="-21.4" font-family="Helvetica,sans-Serif" font-weight="bold" font-size="12.00" fill="#000000">Types</text>
<g id="a_node2_1"><a xlink:href="../../it/ConsignmentType/#diagram" xlink:title="A data type for the specific shipment sent by a consignor to a named consignee." target="_top">
<polygon fill="#ebebeb" stroke="transparent" points="1.5,-1 1.5,-16 110.5,-16 110.5,-1 1.5,-1"/>
<text text-anchor="start" x="2.5" y="-5.4" font-family="Helvetica,sans-Serif" font-size="12.00" fill="#000000">it:ConsignmentType</text>
</a>
</g>
<polygon fill="#000000" stroke="#000000" points=".5,-16 .5,-16 111.5,-16 111.5,-16 .5,-16"/>
<polygon fill="none" stroke="#000000" points="0,0 0,-32 111,-32 111,0 0,0"/>
</g>
<!-- Types&#45;&gt;it:TransitCustomsOffice -->
<g id="edge1" class="edge">
<title>Types:top&#45;&gt;it:TransitCustomsOffice</title>
<path fill="none" stroke="#000000" d="M110.5,-24C128.9939,-24 148.8427,-24 167.6642,-24"/>
<polygon fill="#000000" stroke="#000000" points="167.6988,-27.5001 177.6988,-24 167.6988,-20.5001 167.6988,-27.5001"/>
<text text-anchor="middle" x="144.5" y="-27.4" font-family="Helvetica,sans-Serif" font-size="12.00" fill="#000000">has&#45;a</text>
</g>
</g>
</svg>
