<?xml version="1.0" encoding="UTF-8" standalone="no"?>
<!DOCTYPE svg PUBLIC "-//W3C//DTD SVG 1.1//EN"
 "http://www.w3.org/Graphics/SVG/1.1/DTD/svg11.dtd">
<!-- Generated by graphviz version 2.40.1 (20161225.0304)
 -->
<!-- Title: graphic Pages: 1 -->
<svg width="597pt" height="101pt"
 viewBox="0.00 0.00 597.00 101.00" xmlns="http://www.w3.org/2000/svg" xmlns:xlink="http://www.w3.org/1999/xlink">
<g id="graph0" class="graph" transform="scale(1 1) rotate(0) translate(4 97)">
<title>graphic</title>
<polygon fill="#ffffff" stroke="transparent" points="-4,4 -4,-97 593,-97 593,4 -4,4"/>
<!-- j:StaffMemberQualificationExperienceCategoryAbstract -->
<g id="node1" class="node">
<title>j:StaffMemberQualificationExperienceCategoryAbstract</title>
<text text-anchor="start" x="255" y="-77.4" font-family="Helvetica,sans-Serif" font-weight="bold" font-size="12.00" fill="#000000">j:StaffMemberQualificationExperienceCategoryAbstract</text>
<polygon fill="none" stroke="#ff0000" stroke-width="5" points="251.5,-70 251.5,-90 576.5,-90 576.5,-70 251.5,-70"/>
</g>
<!-- SubstitutableElements -->
<g id="node3" class="node">
<title>SubstitutableElements</title>
<text text-anchor="start" x="241" y="-21.4" font-family="Helvetica,sans-Serif" font-weight="bold" font-size="12.00" fill="#000000">Substitutable elements</text>
<g id="a_node3_0"><a xlink:href="../../j/StaffMemberQualificationExperienceCategoryText/#diagram" xlink:title="A kind of staff member experience as it relates to their qualifications." target="_top">
<polygon fill="#ebebeb" stroke="transparent" points="240,-1 240,-16 588,-16 588,-1 240,-1"/>
<text text-anchor="start" x="241" y="-5.4" font-family="Helvetica,sans-Serif" font-size="12.00" fill="#000000">j:StaffMemberQualificationExperienceCategoryText: nc:TextType</text>
</a>
</g>
<polygon fill="#000000" stroke="#000000" points="239,-16 239,-16 589,-16 589,-16 239,-16"/>
<polygon fill="none" stroke="#000000" points="239,0 239,-32 589,-32 589,0 239,0"/>
</g>
<!-- j:StaffMemberQualificationExperienceCategoryAbstract&#45;&gt;SubstitutableElements -->
<g id="edge2" class="edge">
<title>j:StaffMemberQualificationExperienceCategoryAbstract&#45;&gt;SubstitutableElements</title>
<path fill="none" stroke="#000000" d="M414,-57.3063C414,-48.9972 414,-39.7712 414,-32.1499"/>
<polygon fill="#000000" stroke="#000000" points="410.5001,-57.4892 414,-67.4892 417.5001,-57.4892 410.5001,-57.4892"/>
<text text-anchor="middle" x="404.5" y="-46.65" font-family="Helvetica,sans-Serif" font-size="12.00" fill="#000000">substitutable for</text>
</g>
<!-- Types -->
<g id="node2" class="node">
<title>Types</title>
<text text-anchor="start" x="2" y="-77.4" font-family="Helvetica,sans-Serif" font-weight="bold" font-size="12.00" fill="#000000">Types</text>
<g id="a_node2_1"><a xlink:href="../../j/StaffMemberQualificationType/#diagram" xlink:title="A data type for a description of specific training, education or experience of a staff member." target="_top">
<polygon fill="#ebebeb" stroke="transparent" points="1,-57 1,-72 171,-72 171,-57 1,-57"/>
<text text-anchor="start" x="2" y="-61.4" font-family="Helvetica,sans-Serif" font-size="12.00" fill="#000000">j:StaffMemberQualificationType</text>
</a>
</g>
<polygon fill="#000000" stroke="#000000" points="0,-72 0,-72 172,-72 172,-72 0,-72"/>
<polygon fill="none" stroke="#000000" points="0,-56 0,-88 172,-88 172,-56 0,-56"/>
</g>
<!-- Types&#45;&gt;j:StaffMemberQualificationExperienceCategoryAbstract -->
<g id="edge1" class="edge">
<title>Types:top&#45;&gt;j:StaffMemberQualificationExperienceCategoryAbstract</title>
<path fill="none" stroke="#000000" d="M171,-80C192.9577,-80 216.0314,-80 238.8598,-80"/>
<polygon fill="#000000" stroke="#000000" points="238.9739,-83.5001 248.9738,-80 238.9738,-76.5001 238.9739,-83.5001"/>
<text text-anchor="middle" x="205.5" y="-83.4" font-family="Helvetica,sans-Serif" font-size="12.00" fill="#000000">has&#45;a</text>
</g>
</g>
</svg>
