<?xml version="1.0" encoding="UTF-8" standalone="no"?>
<!DOCTYPE svg PUBLIC "-//W3C//DTD SVG 1.1//EN"
 "http://www.w3.org/Graphics/SVG/1.1/DTD/svg11.dtd">
<!-- Generated by graphviz version 2.40.1 (20161225.0304)
 -->
<!-- Title: graphic Pages: 1 -->
<svg width="728pt" height="131pt"
 viewBox="0.00 0.00 728.00 130.50" xmlns="http://www.w3.org/2000/svg" xmlns:xlink="http://www.w3.org/1999/xlink">
<g id="graph0" class="graph" transform="scale(1 1) rotate(0) translate(4 126.5)">
<title>graphic</title>
<polygon fill="#ffffff" stroke="transparent" points="-4,4 -4,-126.5 724,-126.5 724,4 -4,4"/>
<!-- it:WCODocumentFunctionCategoryType -->
<g id="node1" class="node">
<title>it:WCODocumentFunctionCategoryType</title>
<text text-anchor="start" x="277.5" y="-55.4" font-family="Helvetica,sans-Serif" font-weight="bold" font-size="12.00" fill="#000000">it:WCODocumentFunctionCategoryType</text>
<g id="a_node1_0"><a xlink:href="../../it/DocumentFunctionCategoryDescriptionText/#diagram" xlink:title="A textual description of the function of the document that is presented to the Customs." target="_top">
<polygon fill="#ebebeb" stroke="transparent" points="276.5,-35 276.5,-50 715.5,-50 715.5,-35 276.5,-35"/>
<text text-anchor="start" x="277.5" y="-39.4" font-family="Helvetica,sans-Serif" font-size="12.00" fill="#000000">it:DocumentFunctionCategoryDescriptionText: nc:TextType [0&#45;n]</text>
</a>
</g>
<g id="a_node1_1"><a xlink:href="../../it/WCODocumentFunctionCategory/#diagram" xlink:title="A category of the document(ex. Whether it is a invoice, bill of lading..)" target="_top">
<text text-anchor="start" x="277.5" y="-24.4" font-family="Helvetica,sans-Serif" font-size="12.00" fill="#000000">it:WCODocumentFunctionCategory: it:WCODocumentFunctionCategoryType [0&#45;n]</text>
</a>
</g>
<g id="a_node1_2"><a xlink:href="../../it/WCODocumentFunctionCategoryAugmentationPoint/#diagram" xlink:title="An augmentation point for WCODocumentFunctionCategoryType." target="_top">
<polygon fill="#ebebeb" stroke="transparent" points="276.5,-5 276.5,-20 715.5,-20 715.5,-5 276.5,-5"/>
<text text-anchor="start" x="277.5" y="-9.4" font-family="Helvetica,sans-Serif" font-size="12.00" fill="#000000">it:WCODocumentFunctionCategoryAugmentationPoint [0&#45;n]</text>
</a>
</g>
<polygon fill="#ff0000" stroke="#ff0000" points="271.5,-50 271.5,-50 720.5,-50 720.5,-50 271.5,-50"/>
<polygon fill="none" stroke="#ff0000" stroke-width="5" points="273.5,-2.5 273.5,-67.5 717.5,-67.5 717.5,-2.5 273.5,-2.5"/>
</g>
<!-- Properties -->
<g id="node2" class="node">
<title>Properties</title>
<text text-anchor="start" x="2" y="-55.4" font-family="Helvetica,sans-Serif" font-weight="bold" font-size="12.00" fill="#000000">Properties</text>
<g id="a_node2_3"><a xlink:href="../../it/DocumentMessageFunctionCategory/#diagram" xlink:title="A code indicating the function of a document." target="_top">
<polygon fill="#ebebeb" stroke="transparent" points="1,-35 1,-50 211,-50 211,-35 1,-35"/>
<text text-anchor="start" x="2" y="-39.4" font-family="Helvetica,sans-Serif" font-size="12.00" fill="#000000">it:DocumentMessageFunctionCategory</text>
</a>
</g>
<g id="a_node2_4"><a xlink:href="../../it/WCODocumentFunctionCategory/#diagram" xlink:title="A category of the document(ex. Whether it is a invoice, bill of lading..)" target="_top">
<text text-anchor="start" x="2" y="-24.4" font-family="Helvetica,sans-Serif" font-size="12.00" fill="#000000">it:WCODocumentFunctionCategory</text>
</a>
</g>
<polygon fill="#000000" stroke="#000000" points="0,-50 0,-50 212,-50 212,-50 0,-50"/>
<polygon fill="none" stroke="#000000" points="0,-19.5 0,-66.5 212,-66.5 212,-19.5 0,-19.5"/>
</g>
<!-- Properties&#45;&gt;it:WCODocumentFunctionCategoryType -->
<g id="edge1" class="edge">
<title>Properties:top&#45;&gt;it:WCODocumentFunctionCategoryType:top</title>
<path fill="none" stroke="#000000" d="M211,-58C236.3585,-58 245.1498,-58 266.2371,-58"/>
<polygon fill="#000000" stroke="#000000" points="266.5,-61.5001 276.5,-58 266.5,-54.5001 266.5,-61.5001"/>
<text text-anchor="middle" x="241.5" y="-61.4" font-family="Helvetica,sans-Serif" font-size="12.00" fill="#000000">type</text>
</g>
<!-- structures:ObjectType -->
<g id="node3" class="node">
<title>structures:ObjectType</title>
<g id="a_node3_5"><a xlink:href="../../structures/ObjectType/#diagram" xlink:title="A data type for a thing with its own lifespan that has some existence." target="_top">
<text text-anchor="start" x="436.5" y="-110.4" font-family="Helvetica,sans-Serif" font-size="12.00" fill="#000000">structures:ObjectType</text>
</a>
</g>
<polygon fill="none" stroke="#000000" points="434.5,-105.5 434.5,-122.5 556.5,-122.5 556.5,-105.5 434.5,-105.5"/>
</g>
<!-- structures:ObjectType&#45;&gt;it:WCODocumentFunctionCategoryType -->
<g id="edge2" class="edge">
<title>structures:ObjectType&#45;&gt;it:WCODocumentFunctionCategoryType</title>
<path fill="none" stroke="#000000" d="M495.5,-105.4117C495.5,-99.1025 495.5,-89.9911 495.5,-80.4049"/>
<polygon fill="#000000" stroke="#000000" points="499.0001,-80.3408 495.5,-70.3408 492.0001,-80.3409 499.0001,-80.3408"/>
<text text-anchor="middle" x="486" y="-84.65" font-family="Helvetica,sans-Serif" font-size="12.00" fill="#000000">extension</text>
</g>
</g>
</svg>
