<?xml version="1.0" encoding="UTF-8" standalone="no"?>
<!DOCTYPE svg PUBLIC "-//W3C//DTD SVG 1.1//EN"
 "http://www.w3.org/Graphics/SVG/1.1/DTD/svg11.dtd">
<!-- Generated by graphviz version 2.40.1 (20161225.0304)
 -->
<!-- Title: graphic Pages: 1 -->
<svg width="469pt" height="131pt"
 viewBox="0.00 0.00 469.00 130.50" xmlns="http://www.w3.org/2000/svg" xmlns:xlink="http://www.w3.org/1999/xlink">
<g id="graph0" class="graph" transform="scale(1 1) rotate(0) translate(4 126.5)">
<title>graphic</title>
<polygon fill="#ffffff" stroke="transparent" points="-4,4 -4,-126.5 465,-126.5 465,4 -4,4"/>
<!-- it:LocationFunctionType -->
<g id="node1" class="node">
<title>it:LocationFunctionType</title>
<text text-anchor="start" x="170.5" y="-55.4" font-family="Helvetica,sans-Serif" font-weight="bold" font-size="12.00" fill="#000000">it:LocationFunctionType</text>
<g id="a_node1_0"><a xlink:href="../../it/LocationFunctionDescriptionText/#diagram" xlink:title="A description of the function (as per WCO definition) that is conducted at the location." target="_top">
<polygon fill="#ebebeb" stroke="transparent" points="169.5,-35 169.5,-50 456.5,-50 456.5,-35 169.5,-35"/>
<text text-anchor="start" x="170.5" y="-39.4" font-family="Helvetica,sans-Serif" font-size="12.00" fill="#000000">it:LocationFunctionDescriptionText: nc:TextType [0&#45;n]</text>
</a>
</g>
<g id="a_node1_1"><a xlink:href="../../it/LocationFunction/#diagram" xlink:title="A category of location in the context of the activity under consideration(ex. Export port, import port..)" target="_top">
<text text-anchor="start" x="170.5" y="-24.4" font-family="Helvetica,sans-Serif" font-size="12.00" fill="#000000">it:LocationFunction: it:LocationFunctionType [0&#45;n]</text>
</a>
</g>
<g id="a_node1_2"><a xlink:href="../../it/LocationFunctionAugmentationPoint/#diagram" xlink:title="An augmentation point for LocationFunctionType." target="_top">
<polygon fill="#ebebeb" stroke="transparent" points="169.5,-5 169.5,-20 456.5,-20 456.5,-5 169.5,-5"/>
<text text-anchor="start" x="170.5" y="-9.4" font-family="Helvetica,sans-Serif" font-size="12.00" fill="#000000">it:LocationFunctionAugmentationPoint [0&#45;n]</text>
</a>
</g>
<polygon fill="#ff0000" stroke="#ff0000" points="164.5,-50 164.5,-50 461.5,-50 461.5,-50 164.5,-50"/>
<polygon fill="none" stroke="#ff0000" stroke-width="5" points="166.5,-2.5 166.5,-67.5 458.5,-67.5 458.5,-2.5 166.5,-2.5"/>
</g>
<!-- Properties -->
<g id="node2" class="node">
<title>Properties</title>
<text text-anchor="start" x="2.5" y="-55.4" font-family="Helvetica,sans-Serif" font-weight="bold" font-size="12.00" fill="#000000">Properties</text>
<g id="a_node2_3"><a xlink:href="../../it/LocationFunction/#diagram" xlink:title="A category of location in the context of the activity under consideration(ex. Export port, import port..)" target="_top">
<polygon fill="#ebebeb" stroke="transparent" points="1.5,-35 1.5,-50 104.5,-50 104.5,-35 1.5,-35"/>
<text text-anchor="start" x="2.5" y="-39.4" font-family="Helvetica,sans-Serif" font-size="12.00" fill="#000000">it:LocationFunction</text>
</a>
</g>
<polygon fill="#000000" stroke="#000000" points=".5,-50 .5,-50 105.5,-50 105.5,-50 .5,-50"/>
<polygon fill="none" stroke="#000000" points="0,-34 0,-66 105,-66 105,-34 0,-34"/>
</g>
<!-- Properties&#45;&gt;it:LocationFunctionType -->
<g id="edge1" class="edge">
<title>Properties:top&#45;&gt;it:LocationFunctionType:top</title>
<path fill="none" stroke="#000000" d="M104.5,-58C129.6649,-58 138.3891,-58 159.3154,-58"/>
<polygon fill="#000000" stroke="#000000" points="159.5,-61.5001 169.5,-58 159.5,-54.5001 159.5,-61.5001"/>
<text text-anchor="middle" x="134.5" y="-61.4" font-family="Helvetica,sans-Serif" font-size="12.00" fill="#000000">type</text>
</g>
<!-- structures:ObjectType -->
<g id="node3" class="node">
<title>structures:ObjectType</title>
<g id="a_node3_4"><a xlink:href="../../structures/ObjectType/#diagram" xlink:title="A data type for a thing with its own lifespan that has some existence." target="_top">
<text text-anchor="start" x="253.5" y="-110.4" font-family="Helvetica,sans-Serif" font-size="12.00" fill="#000000">structures:ObjectType</text>
</a>
</g>
<polygon fill="none" stroke="#000000" points="251.5,-105.5 251.5,-122.5 373.5,-122.5 373.5,-105.5 251.5,-105.5"/>
</g>
<!-- structures:ObjectType&#45;&gt;it:LocationFunctionType -->
<g id="edge2" class="edge">
<title>structures:ObjectType&#45;&gt;it:LocationFunctionType</title>
<path fill="none" stroke="#000000" d="M312.5,-105.4117C312.5,-99.1025 312.5,-89.9911 312.5,-80.4049"/>
<polygon fill="#000000" stroke="#000000" points="316.0001,-80.3408 312.5,-70.3408 309.0001,-80.3409 316.0001,-80.3408"/>
<text text-anchor="middle" x="303" y="-84.65" font-family="Helvetica,sans-Serif" font-size="12.00" fill="#000000">extension</text>
</g>
</g>
</svg>
