<?xml version="1.0" encoding="UTF-8" standalone="no"?>
<!DOCTYPE svg PUBLIC "-//W3C//DTD SVG 1.1//EN"
 "http://www.w3.org/Graphics/SVG/1.1/DTD/svg11.dtd">
<!-- Generated by graphviz version 2.40.1 (20161225.0304)
 -->
<!-- Title: graphic Pages: 1 -->
<svg width="435pt" height="45pt"
 viewBox="0.00 0.00 435.00 45.00" xmlns="http://www.w3.org/2000/svg" xmlns:xlink="http://www.w3.org/1999/xlink">
<g id="graph0" class="graph" transform="scale(1 1) rotate(0) translate(4 41)">
<title>graphic</title>
<polygon fill="#ffffff" stroke="transparent" points="-4,4 -4,-41 431,-41 431,4 -4,4"/>
<!-- stat:NodeSetLevel -->
<g id="node1" class="node">
<title>stat:NodeSetLevel</title>
<text text-anchor="start" x="174.5" y="-21.4" font-family="Helvetica,sans-Serif" font-weight="bold" font-size="12.00" fill="#000000">stat:NodeSetLevel</text>
<polygon fill="none" stroke="#ff0000" stroke-width="5" points="170.5,-14 170.5,-34 282.5,-34 282.5,-14 170.5,-14"/>
</g>
<!-- stat:LevelType -->
<g id="node3" class="node">
<title>stat:LevelType</title>
<g id="a_node3_0"><a xlink:href="../../stat/LevelType/#diagram" xlink:title="A data type for a level. &#160;A statistical classification has a structure which is composed of one or several levels. A level often is associated with a concept, which defines it. In a hierarchical classification the classification items of each level but the highest are aggregated to the nearest higher level. A linear classification has only one level." target="_top">
<text text-anchor="start" x="346.5" y="-20.4" font-family="Helvetica,sans-Serif" font-size="12.00" fill="#000000">stat:LevelType</text>
</a>
</g>
<polygon fill="none" stroke="#000000" points="344,-15.5 344,-32.5 427,-32.5 427,-15.5 344,-15.5"/>
</g>
<!-- stat:NodeSetLevel&#45;&gt;stat:LevelType -->
<g id="edge2" class="edge">
<title>stat:NodeSetLevel&#45;&gt;stat:LevelType</title>
<path fill="none" stroke="#000000" d="M285.254,-24C301.0668,-24 318.057,-24 333.4751,-24"/>
<polygon fill="#000000" stroke="#000000" points="333.8642,-27.5001 343.8642,-24 333.8642,-20.5001 333.8642,-27.5001"/>
<text text-anchor="middle" x="314.5" y="-27.4" font-family="Helvetica,sans-Serif" font-size="12.00" fill="#000000">type</text>
</g>
<!-- Types -->
<g id="node2" class="node">
<title>Types</title>
<text text-anchor="start" x="2.5" y="-21.4" font-family="Helvetica,sans-Serif" font-weight="bold" font-size="12.00" fill="#000000">Types</text>
<g id="a_node2_1"><a xlink:href="../../stat/NodeSetType/#diagram" xlink:title="A data type for a set of nodes." target="_top">
<polygon fill="#ebebeb" stroke="transparent" points="1.5,-1 1.5,-16 100.5,-16 100.5,-1 1.5,-1"/>
<text text-anchor="start" x="2.5" y="-5.4" font-family="Helvetica,sans-Serif" font-size="12.00" fill="#000000">stat:NodeSetType</text>
</a>
</g>
<polygon fill="#000000" stroke="#000000" points=".5,-16 .5,-16 101.5,-16 101.5,-16 .5,-16"/>
<polygon fill="none" stroke="#000000" points="0,0 0,-32 101,-32 101,0 0,0"/>
</g>
<!-- Types&#45;&gt;stat:NodeSetLevel -->
<g id="edge1" class="edge">
<title>Types:top&#45;&gt;stat:NodeSetLevel</title>
<path fill="none" stroke="#000000" d="M100.5,-24C119.0493,-24 139.1347,-24 157.7033,-24"/>
<polygon fill="#000000" stroke="#000000" points="157.8438,-27.5001 167.8438,-24 157.8438,-20.5001 157.8438,-27.5001"/>
<text text-anchor="middle" x="134.5" y="-27.4" font-family="Helvetica,sans-Serif" font-size="12.00" fill="#000000">has&#45;a</text>
</g>
</g>
</svg>
