<?xml version="1.0" encoding="UTF-8" standalone="no"?>
<!DOCTYPE svg PUBLIC "-//W3C//DTD SVG 1.1//EN"
 "http://www.w3.org/Graphics/SVG/1.1/DTD/svg11.dtd">
<!-- Generated by graphviz version 2.40.1 (20161225.0304)
 -->
<!-- Title: graphic Pages: 1 -->
<svg width="411pt" height="45pt"
 viewBox="0.00 0.00 411.00 45.00" xmlns="http://www.w3.org/2000/svg" xmlns:xlink="http://www.w3.org/1999/xlink">
<g id="graph0" class="graph" transform="scale(1 1) rotate(0) translate(4 41)">
<title>graphic</title>
<polygon fill="#ffffff" stroke="transparent" points="-4,4 -4,-41 407,-41 407,4 -4,4"/>
<!-- nc:ActivityStatus -->
<g id="node1" class="node">
<title>nc:ActivityStatus</title>
<text text-anchor="start" x="158.5" y="-21.4" font-family="Helvetica,sans-Serif" font-weight="bold" font-size="12.00" fill="#000000">nc:ActivityStatus</text>
<polygon fill="none" stroke="#ff0000" stroke-width="5" points="154.5,-14 154.5,-34 260.5,-34 260.5,-14 154.5,-14"/>
</g>
<!-- nc:StatusType -->
<g id="node3" class="node">
<title>nc:StatusType</title>
<g id="a_node3_0"><a xlink:href="../../nc/StatusType/#diagram" xlink:title="A data type for a state of something or someone." target="_top">
<text text-anchor="start" x="324.5" y="-20.4" font-family="Helvetica,sans-Serif" font-size="12.00" fill="#000000">nc:StatusType</text>
</a>
</g>
<polygon fill="none" stroke="#000000" points="322,-15.5 322,-32.5 403,-32.5 403,-15.5 322,-15.5"/>
</g>
<!-- nc:ActivityStatus&#45;&gt;nc:StatusType -->
<g id="edge2" class="edge">
<title>nc:ActivityStatus&#45;&gt;nc:StatusType</title>
<path fill="none" stroke="#000000" d="M263.0208,-24C278.9825,-24 296.3002,-24 311.9447,-24"/>
<polygon fill="#000000" stroke="#000000" points="311.9528,-27.5001 321.9527,-24 311.9527,-20.5001 311.9528,-27.5001"/>
<text text-anchor="middle" x="292.5" y="-27.4" font-family="Helvetica,sans-Serif" font-size="12.00" fill="#000000">type</text>
</g>
<!-- Types -->
<g id="node2" class="node">
<title>Types</title>
<text text-anchor="start" x="2.5" y="-21.4" font-family="Helvetica,sans-Serif" font-weight="bold" font-size="12.00" fill="#000000">Types</text>
<g id="a_node2_1"><a xlink:href="../../nc/ActivityType/#diagram" xlink:title="A data type for a single or set of related actions, events, or process steps." target="_top">
<polygon fill="#ebebeb" stroke="transparent" points="1.5,-1 1.5,-16 84.5,-16 84.5,-1 1.5,-1"/>
<text text-anchor="start" x="2.5" y="-5.4" font-family="Helvetica,sans-Serif" font-size="12.00" fill="#000000">nc:ActivityType</text>
</a>
</g>
<polygon fill="#000000" stroke="#000000" points=".5,-16 .5,-16 85.5,-16 85.5,-16 .5,-16"/>
<polygon fill="none" stroke="#000000" points="0,0 0,-32 85,-32 85,0 0,0"/>
</g>
<!-- Types&#45;&gt;nc:ActivityStatus -->
<g id="edge1" class="edge">
<title>Types:top&#45;&gt;nc:ActivityStatus</title>
<path fill="none" stroke="#000000" d="M84.5,-24C103.0581,-24 123.1912,-24 141.6913,-24"/>
<polygon fill="#000000" stroke="#000000" points="141.7807,-27.5001 151.7807,-24 141.7806,-20.5001 141.7807,-27.5001"/>
<text text-anchor="middle" x="118.5" y="-27.4" font-family="Helvetica,sans-Serif" font-size="12.00" fill="#000000">has&#45;a</text>
</g>
</g>
</svg>
