<?xml version="1.0" encoding="UTF-8" standalone="no"?>
<!DOCTYPE svg PUBLIC "-//W3C//DTD SVG 1.1//EN"
 "http://www.w3.org/Graphics/SVG/1.1/DTD/svg11.dtd">
<!-- Generated by graphviz version 2.40.1 (20161225.0304)
 -->
<!-- Title: graphic Pages: 1 -->
<svg width="479pt" height="45pt"
 viewBox="0.00 0.00 479.00 45.00" xmlns="http://www.w3.org/2000/svg" xmlns:xlink="http://www.w3.org/1999/xlink">
<g id="graph0" class="graph" transform="scale(1 1) rotate(0) translate(4 41)">
<title>graphic</title>
<polygon fill="#ffffff" stroke="transparent" points="-4,4 -4,-41 475,-41 475,4 -4,4"/>
<!-- nc:DepartureEstimatedDate -->
<g id="node1" class="node">
<title>nc:DepartureEstimatedDate</title>
<text text-anchor="start" x="174.5" y="-21.4" font-family="Helvetica,sans-Serif" font-weight="bold" font-size="12.00" fill="#000000">nc:DepartureEstimatedDate</text>
<polygon fill="none" stroke="#ff0000" stroke-width="5" points="170.5,-14 170.5,-34 336.5,-34 336.5,-14 170.5,-14"/>
</g>
<!-- nc:DateType -->
<g id="node3" class="node">
<title>nc:DateType</title>
<g id="a_node3_0"><a xlink:href="../../nc/DateType/#diagram" xlink:title="A data type for a calendar date." target="_top">
<text text-anchor="start" x="400.5" y="-20.4" font-family="Helvetica,sans-Serif" font-size="12.00" fill="#000000">nc:DateType</text>
</a>
</g>
<polygon fill="none" stroke="#000000" points="398,-15.5 398,-32.5 471,-32.5 471,-15.5 398,-15.5"/>
</g>
<!-- nc:DepartureEstimatedDate&#45;&gt;nc:DateType -->
<g id="edge2" class="edge">
<title>nc:DepartureEstimatedDate&#45;&gt;nc:DateType</title>
<path fill="none" stroke="#000000" d="M339.2295,-24C355.8465,-24 372.6786,-24 387.4765,-24"/>
<polygon fill="#000000" stroke="#000000" points="387.8601,-27.5001 397.86,-24 387.86,-20.5001 387.8601,-27.5001"/>
<text text-anchor="middle" x="368.5" y="-27.4" font-family="Helvetica,sans-Serif" font-size="12.00" fill="#000000">type</text>
</g>
<!-- Types -->
<g id="node2" class="node">
<title>Types</title>
<text text-anchor="start" x="2.5" y="-21.4" font-family="Helvetica,sans-Serif" font-weight="bold" font-size="12.00" fill="#000000">Types</text>
<g id="a_node2_1"><a xlink:href="../../nc/DepartureType/#diagram" xlink:title="A data type for a leaving from one location to another." target="_top">
<polygon fill="#ebebeb" stroke="transparent" points="1.5,-1 1.5,-16 100.5,-16 100.5,-1 1.5,-1"/>
<text text-anchor="start" x="2.5" y="-5.4" font-family="Helvetica,sans-Serif" font-size="12.00" fill="#000000">nc:DepartureType</text>
</a>
</g>
<polygon fill="#000000" stroke="#000000" points=".5,-16 .5,-16 101.5,-16 101.5,-16 .5,-16"/>
<polygon fill="none" stroke="#000000" points="0,0 0,-32 101,-32 101,0 0,0"/>
</g>
<!-- Types&#45;&gt;nc:DepartureEstimatedDate -->
<g id="edge1" class="edge">
<title>Types:top&#45;&gt;nc:DepartureEstimatedDate</title>
<path fill="none" stroke="#000000" d="M100.5,-24C118.963,-24 138.6793,-24 157.6071,-24"/>
<polygon fill="#000000" stroke="#000000" points="157.7243,-27.5001 167.7242,-24 157.7242,-20.5001 157.7243,-27.5001"/>
<text text-anchor="middle" x="134.5" y="-27.4" font-family="Helvetica,sans-Serif" font-size="12.00" fill="#000000">has&#45;a</text>
</g>
</g>
</svg>
