<?xml version="1.0" encoding="UTF-8" standalone="no"?>
<!DOCTYPE svg PUBLIC "-//W3C//DTD SVG 1.1//EN"
 "http://www.w3.org/Graphics/SVG/1.1/DTD/svg11.dtd">
<!-- Generated by graphviz version 2.40.1 (20161225.0304)
 -->
<!-- Title: graphic Pages: 1 -->
<svg width="513pt" height="45pt"
 viewBox="0.00 0.00 513.00 45.00" xmlns="http://www.w3.org/2000/svg" xmlns:xlink="http://www.w3.org/1999/xlink">
<g id="graph0" class="graph" transform="scale(1 1) rotate(0) translate(4 41)">
<title>graphic</title>
<polygon fill="#ffffff" stroke="transparent" points="-4,4 -4,-41 509,-41 509,4 -4,4"/>
<!-- nc:PassportElectronicIndicator -->
<g id="node1" class="node">
<title>nc:PassportElectronicIndicator</title>
<text text-anchor="start" x="168.5" y="-21.4" font-family="Helvetica,sans-Serif" font-weight="bold" font-size="12.00" fill="#000000">nc:PassportElectronicIndicator</text>
<polygon fill="none" stroke="#ff0000" stroke-width="5" points="164.5,-14 164.5,-34 350.5,-34 350.5,-14 164.5,-14"/>
</g>
<!-- niem&#45;xs:boolean -->
<g id="node3" class="node">
<title>niem&#45;xs:boolean</title>
<g id="a_node3_0"><a xlink:href="../../niem-xs/boolean/#diagram" xlink:title="A data type for binary&#45;valued logic (true/false)." target="_top">
<text text-anchor="start" x="414.5" y="-20.4" font-family="Helvetica,sans-Serif" font-size="12.00" fill="#000000">niem&#45;xs:boolean</text>
</a>
</g>
<polygon fill="none" stroke="#000000" points="412,-15.5 412,-32.5 505,-32.5 505,-15.5 412,-15.5"/>
</g>
<!-- nc:PassportElectronicIndicator&#45;&gt;niem&#45;xs:boolean -->
<g id="edge2" class="edge">
<title>nc:PassportElectronicIndicator&#45;&gt;niem&#45;xs:boolean</title>
<path fill="none" stroke="#000000" d="M353.2906,-24C369.8857,-24 386.6524,-24 401.7755,-24"/>
<polygon fill="#000000" stroke="#000000" points="401.9604,-27.5001 411.9604,-24 401.9604,-20.5001 401.9604,-27.5001"/>
<text text-anchor="middle" x="382.5" y="-27.4" font-family="Helvetica,sans-Serif" font-size="12.00" fill="#000000">type</text>
</g>
<!-- Types -->
<g id="node2" class="node">
<title>Types</title>
<text text-anchor="start" x="2.5" y="-21.4" font-family="Helvetica,sans-Serif" font-weight="bold" font-size="12.00" fill="#000000">Types</text>
<g id="a_node2_1"><a xlink:href="../../nc/PassportType/#diagram" xlink:title="A data type for a government&#45;issued document that authenticates the identity and citizenship of a person." target="_top">
<polygon fill="#ebebeb" stroke="transparent" points="1.5,-1 1.5,-16 94.5,-16 94.5,-1 1.5,-1"/>
<text text-anchor="start" x="2.5" y="-5.4" font-family="Helvetica,sans-Serif" font-size="12.00" fill="#000000">nc:PassportType</text>
</a>
</g>
<polygon fill="#000000" stroke="#000000" points=".5,-16 .5,-16 95.5,-16 95.5,-16 .5,-16"/>
<polygon fill="none" stroke="#000000" points="0,0 0,-32 95,-32 95,0 0,0"/>
</g>
<!-- Types&#45;&gt;nc:PassportElectronicIndicator -->
<g id="edge1" class="edge">
<title>Types:top&#45;&gt;nc:PassportElectronicIndicator</title>
<path fill="none" stroke="#000000" d="M94.5,-24C112.9704,-24 132.618,-24 151.642,-24"/>
<polygon fill="#000000" stroke="#000000" points="151.8283,-27.5001 161.8283,-24 151.8283,-20.5001 151.8283,-27.5001"/>
<text text-anchor="middle" x="128.5" y="-27.4" font-family="Helvetica,sans-Serif" font-size="12.00" fill="#000000">has&#45;a</text>
</g>
</g>
</svg>
