<?xml version="1.0" encoding="UTF-8" standalone="no"?>
<!DOCTYPE svg PUBLIC "-//W3C//DTD SVG 1.1//EN"
 "http://www.w3.org/Graphics/SVG/1.1/DTD/svg11.dtd">
<!-- Generated by graphviz version 2.40.1 (20161225.0304)
 -->
<!-- Title: graphic Pages: 1 -->
<svg width="382pt" height="154pt"
 viewBox="0.00 0.00 382.00 153.50" xmlns="http://www.w3.org/2000/svg" xmlns:xlink="http://www.w3.org/1999/xlink">
<g id="graph0" class="graph" transform="scale(1 1) rotate(0) translate(4 149.5)">
<title>graphic</title>
<polygon fill="#ffffff" stroke="transparent" points="-4,4 -4,-149.5 378,-149.5 378,4 -4,4"/>
<!-- aamva_d20:TitleStatusCodeType -->
<g id="node1" class="node">
<title>aamva_d20:TitleStatusCodeType</title>
<text text-anchor="start" x="161.5" y="-25.4" font-family="Helvetica,sans-Serif" font-weight="bold" font-size="12.00" fill="#000000">aamva_d20:TitleStatusCodeType</text>
<g id="a_node1_0"><a xlink:href="../../structures/SimpleObjectAttributeGroup/#diagram" xlink:title="A group of attributes that are applicable to objects, to be used when defining a complex type that is an extension of a simple type." target="_top">
<polygon fill="#ebebeb" stroke="transparent" points="160.5,-5 160.5,-20 368.5,-20 368.5,-5 160.5,-5"/>
<text text-anchor="start" x="161.5" y="-9.4" font-family="Helvetica,sans-Serif" font-size="12.00" fill="#000000">structures:SimpleObjectAttributeGroup</text>
</a>
</g>
<polygon fill="#ff0000" stroke="#ff0000" points="155.5,-20 155.5,-20 373.5,-20 373.5,-20 155.5,-20"/>
<polygon fill="none" stroke="#ff0000" stroke-width="5" points="158,-2.5 158,-37.5 371,-37.5 371,-2.5 158,-2.5"/>
</g>
<!-- Properties -->
<g id="node2" class="node">
<title>Properties</title>
<text text-anchor="start" x="2" y="-25.4" font-family="Helvetica,sans-Serif" font-weight="bold" font-size="12.00" fill="#000000">Properties</text>
<g id="a_node2_1"><a xlink:href="../../j/TitleStatusCode/#diagram" xlink:title="A status of a title." target="_top">
<polygon fill="#ebebeb" stroke="transparent" points="1,-5 1,-20 95,-20 95,-5 1,-5"/>
<text text-anchor="start" x="2" y="-9.4" font-family="Helvetica,sans-Serif" font-size="12.00" fill="#000000">j:TitleStatusCode</text>
</a>
</g>
<polygon fill="#000000" stroke="#000000" points="0,-20 0,-20 96,-20 96,-20 0,-20"/>
<polygon fill="none" stroke="#000000" points="0,-4 0,-36 96,-36 96,-4 0,-4"/>
</g>
<!-- Properties&#45;&gt;aamva_d20:TitleStatusCodeType -->
<g id="edge1" class="edge">
<title>Properties:top&#45;&gt;aamva_d20:TitleStatusCodeType:top</title>
<path fill="none" stroke="#000000" d="M95,-28C120.3585,-28 129.1498,-28 150.2371,-28"/>
<polygon fill="#000000" stroke="#000000" points="150.5,-31.5001 160.5,-28 150.5,-24.5001 150.5,-31.5001"/>
<text text-anchor="middle" x="125.5" y="-31.4" font-family="Helvetica,sans-Serif" font-size="12.00" fill="#000000">type</text>
</g>
<!-- aamva_d20:TitleStatusCodeSimpleType -->
<g id="node3" class="node">
<title>aamva_d20:TitleStatusCodeSimpleType</title>
<g id="a_node3_2"><a xlink:href="../../aamva_d20/TitleStatusCodeSimpleType/#diagram" xlink:title="A data type for statuses for a title." target="_top">
<text text-anchor="start" x="157.5" y="-80.4" font-family="Helvetica,sans-Serif" font-size="12.00" fill="#000000">aamva_d20:TitleStatusCodeSimpleType</text>
</a>
</g>
<polygon fill="none" stroke="#000000" points="155,-75.5 155,-92.5 374,-92.5 374,-75.5 155,-75.5"/>
</g>
<!-- aamva_d20:TitleStatusCodeSimpleType&#45;&gt;aamva_d20:TitleStatusCodeType -->
<g id="edge2" class="edge">
<title>aamva_d20:TitleStatusCodeSimpleType&#45;&gt;aamva_d20:TitleStatusCodeType</title>
<path fill="none" stroke="#000000" d="M264.5,-75.4351C264.5,-68.931 264.5,-59.5678 264.5,-50.3827"/>
<polygon fill="#000000" stroke="#000000" points="268.0001,-50.25 264.5,-40.25 261.0001,-50.25 268.0001,-50.25"/>
<text text-anchor="middle" x="255" y="-54.65" font-family="Helvetica,sans-Serif" font-size="12.00" fill="#000000">extension</text>
</g>
<!-- xs:token -->
<g id="node4" class="node">
<title>xs:token</title>
<g id="a_node4_3"><a xlink:href="../../xs/token/#diagram" xlink:title="&lt;TABLE&gt;" target="_top">
<text text-anchor="start" x="242.5" y="-133.4" font-family="Helvetica,sans-Serif" font-size="12.00" fill="#000000">xs:token</text>
</a>
</g>
<polygon fill="none" stroke="#000000" points="240,-128.5 240,-145.5 289,-145.5 289,-128.5 240,-128.5"/>
</g>
<!-- xs:token&#45;&gt;aamva_d20:TitleStatusCodeSimpleType -->
<g id="edge3" class="edge">
<title>xs:token&#45;&gt;aamva_d20:TitleStatusCodeSimpleType</title>
<path fill="none" stroke="#000000" d="M264.5,-128.411C264.5,-121.5124 264.5,-111.5696 264.5,-102.84"/>
<polygon fill="#000000" stroke="#000000" points="268.0001,-102.7518 264.5,-92.7519 261.0001,-102.7519 268.0001,-102.7518"/>
<text text-anchor="middle" x="255" y="-107.4" font-family="Helvetica,sans-Serif" font-size="12.00" fill="#000000">restriction</text>
</g>
</g>
</svg>
