<?xml version="1.0" encoding="UTF-8" standalone="no"?>
<!DOCTYPE svg PUBLIC "-//W3C//DTD SVG 1.1//EN"
 "http://www.w3.org/Graphics/SVG/1.1/DTD/svg11.dtd">
<!-- Generated by graphviz version 2.40.1 (20161225.0304)
 -->
<!-- Title: graphic Pages: 1 -->
<svg width="656pt" height="45pt"
 viewBox="0.00 0.00 656.00 45.00" xmlns="http://www.w3.org/2000/svg" xmlns:xlink="http://www.w3.org/1999/xlink">
<g id="graph0" class="graph" transform="scale(1 1) rotate(0) translate(4 41)">
<title>graphic</title>
<polygon fill="#ffffff" stroke="transparent" points="-4,4 -4,-41 652,-41 652,4 -4,4"/>
<!-- em:NISTSP800733PIVCardData -->
<g id="node1" class="node">
<title>em:NISTSP800733PIVCardData</title>
<text text-anchor="start" x="200" y="-21.4" font-family="Helvetica,sans-Serif" font-weight="bold" font-size="12.00" fill="#000000">em:NISTSP800733PIVCardData</text>
<polygon fill="none" stroke="#ff0000" stroke-width="5" points="196.5,-14 196.5,-34 381.5,-34 381.5,-14 196.5,-14"/>
</g>
<!-- em:NISTSP800733PIVCardDataType -->
<g id="node3" class="node">
<title>em:NISTSP800733PIVCardDataType</title>
<g id="a_node3_0"><a xlink:href="../../em/NISTSP800733PIVCardDataType/#diagram" xlink:title="A data type for fields contained on a PIV card" target="_top">
<text text-anchor="start" x="445.5" y="-20.4" font-family="Helvetica,sans-Serif" font-size="12.00" fill="#000000">em:NISTSP800733PIVCardDataType</text>
</a>
</g>
<polygon fill="none" stroke="#000000" points="443,-15.5 443,-32.5 648,-32.5 648,-15.5 443,-15.5"/>
</g>
<!-- em:NISTSP800733PIVCardData&#45;&gt;em:NISTSP800733PIVCardDataType -->
<g id="edge2" class="edge">
<title>em:NISTSP800733PIVCardData&#45;&gt;em:NISTSP800733PIVCardDataType</title>
<path fill="none" stroke="#000000" d="M384.1466,-24C399.9678,-24 416.5104,-24 432.7185,-24"/>
<polygon fill="#000000" stroke="#000000" points="432.7577,-27.5001 442.7577,-24 432.7577,-20.5001 432.7577,-27.5001"/>
<text text-anchor="middle" x="413.5" y="-27.4" font-family="Helvetica,sans-Serif" font-size="12.00" fill="#000000">type</text>
</g>
<!-- Types -->
<g id="node2" class="node">
<title>Types</title>
<text text-anchor="start" x="2.5" y="-21.4" font-family="Helvetica,sans-Serif" font-weight="bold" font-size="12.00" fill="#000000">Types</text>
<g id="a_node2_1"><a xlink:href="../../em/PersonIDCardType/#diagram" xlink:title="A data type for a credential class that represents the identification of a human resource" target="_top">
<polygon fill="#ebebeb" stroke="transparent" points="1.5,-1 1.5,-16 126.5,-16 126.5,-1 1.5,-1"/>
<text text-anchor="start" x="2.5" y="-5.4" font-family="Helvetica,sans-Serif" font-size="12.00" fill="#000000">em:PersonIDCardType</text>
</a>
</g>
<polygon fill="#000000" stroke="#000000" points=".5,-16 .5,-16 127.5,-16 127.5,-16 .5,-16"/>
<polygon fill="none" stroke="#000000" points="0,0 0,-32 127,-32 127,0 0,0"/>
</g>
<!-- Types&#45;&gt;em:NISTSP800733PIVCardData -->
<g id="edge1" class="edge">
<title>Types:top&#45;&gt;em:NISTSP800733PIVCardData</title>
<path fill="none" stroke="#000000" d="M126.5,-24C144.9137,-24 164.5011,-24 183.4667,-24"/>
<polygon fill="#000000" stroke="#000000" points="183.6218,-27.5001 193.6218,-24 183.6217,-20.5001 183.6218,-27.5001"/>
<text text-anchor="middle" x="160.5" y="-27.4" font-family="Helvetica,sans-Serif" font-size="12.00" fill="#000000">has&#45;a</text>
</g>
</g>
</svg>
