<?xml version="1.0" encoding="UTF-8" standalone="no"?>
<!DOCTYPE svg PUBLIC "-//W3C//DTD SVG 1.1//EN"
 "http://www.w3.org/Graphics/SVG/1.1/DTD/svg11.dtd">
<!-- Generated by graphviz version 2.40.1 (20161225.0304)
 -->
<!-- Title: graphic Pages: 1 -->
<svg width="541pt" height="146pt"
 viewBox="0.00 0.00 541.00 146.00" xmlns="http://www.w3.org/2000/svg" xmlns:xlink="http://www.w3.org/1999/xlink">
<g id="graph0" class="graph" transform="scale(1 1) rotate(0) translate(4 142)">
<title>graphic</title>
<polygon fill="#ffffff" stroke="transparent" points="-4,4 -4,-142 537,-142 537,4 -4,4"/>
<!-- j:TaskAugmentationType -->
<g id="node1" class="node">
<title>j:TaskAugmentationType</title>
<text text-anchor="start" x="176.5" y="-69.9" font-family="Helvetica,sans-Serif" font-weight="bold" font-size="12.00" fill="#000000">j:TaskAugmentationType</text>
<g id="a_node1_0"><a xlink:href="../../j/TaskAssistanceProvider/#diagram" xlink:title="A name of a person or entity providing assistance to an assigned task." target="_top">
<polygon fill="#ebebeb" stroke="transparent" points="175.5,-49.5 175.5,-64.5 528.5,-64.5 528.5,-49.5 175.5,-49.5"/>
<text text-anchor="start" x="176.5" y="-53.9" font-family="Helvetica,sans-Serif" font-size="12.00" fill="#000000">j:TaskAssistanceProvider: nc:EntityType [0&#45;n]</text>
</a>
</g>
<g id="a_node1_1"><a xlink:href="../../j/TaskEstimatedDaysToCompletedQuantity/#diagram" xlink:title="A count reflecting the estimated number of days prior to the completion of a task." target="_top">
<text text-anchor="start" x="176.5" y="-38.9" font-family="Helvetica,sans-Serif" font-size="12.00" fill="#000000">j:TaskEstimatedDaysToCompletedQuantity: nc:QuantityType [0&#45;n]</text>
</a>
</g>
<g id="a_node1_2"><a xlink:href="../../j/TaskHoursPerDayQuantity/#diagram" xlink:title="A count reflecting the estimated number of hours dedicated each day to an assigned task." target="_top">
<polygon fill="#ebebeb" stroke="transparent" points="175.5,-19.5 175.5,-34.5 528.5,-34.5 528.5,-19.5 175.5,-19.5"/>
<text text-anchor="start" x="176.5" y="-23.9" font-family="Helvetica,sans-Serif" font-size="12.00" fill="#000000">j:TaskHoursPerDayQuantity: nc:QuantityType [0&#45;n]</text>
</a>
</g>
<g id="a_node1_3"><a xlink:href="../../j/TaskReferralDate/#diagram" xlink:title="A date that the subject was referred to a provider to receive help in completing the Task." target="_top">
<text text-anchor="start" x="176.5" y="-8.9" font-family="Helvetica,sans-Serif" font-size="12.00" fill="#000000">j:TaskReferralDate: nc:DateType [0&#45;n]</text>
</a>
</g>
<polygon fill="#ff0000" stroke="#ff0000" points="170.5,-64.5 170.5,-64.5 533.5,-64.5 533.5,-64.5 170.5,-64.5"/>
<polygon fill="none" stroke="#ff0000" stroke-width="5" points="172.5,-2.5 172.5,-82.5 530.5,-82.5 530.5,-2.5 172.5,-2.5"/>
</g>
<!-- Properties -->
<g id="node2" class="node">
<title>Properties</title>
<text text-anchor="start" x="2.5" y="-69.9" font-family="Helvetica,sans-Serif" font-weight="bold" font-size="12.00" fill="#000000">Properties</text>
<g id="a_node2_4"><a xlink:href="../../j/TaskAugmentation/#diagram" xlink:title="Additional information about a task." target="_top">
<polygon fill="#ebebeb" stroke="transparent" points="1.5,-49.5 1.5,-64.5 110.5,-64.5 110.5,-49.5 1.5,-49.5"/>
<text text-anchor="start" x="2.5" y="-53.9" font-family="Helvetica,sans-Serif" font-size="12.00" fill="#000000">j:TaskAugmentation</text>
</a>
</g>
<polygon fill="#000000" stroke="#000000" points=".5,-64.5 .5,-64.5 111.5,-64.5 111.5,-64.5 .5,-64.5"/>
<polygon fill="none" stroke="#000000" points="0,-48.5 0,-80.5 111,-80.5 111,-48.5 0,-48.5"/>
</g>
<!-- Properties&#45;&gt;j:TaskAugmentationType -->
<g id="edge1" class="edge">
<title>Properties:top&#45;&gt;j:TaskAugmentationType:top</title>
<path fill="none" stroke="#000000" d="M110.5,-72.5C135.6649,-72.5 144.3891,-72.5 165.3154,-72.5"/>
<polygon fill="#000000" stroke="#000000" points="165.5,-76.0001 175.5,-72.5 165.5,-69.0001 165.5,-76.0001"/>
<text text-anchor="middle" x="140.5" y="-75.9" font-family="Helvetica,sans-Serif" font-size="12.00" fill="#000000">type</text>
</g>
<!-- structures:AugmentationType -->
<g id="node3" class="node">
<title>structures:AugmentationType</title>
<g id="a_node3_5"><a xlink:href="../../structures/AugmentationType/#diagram" xlink:title="A data type for a set of properties to be applied to a base type." target="_top">
<text text-anchor="start" x="273.5" y="-125.9" font-family="Helvetica,sans-Serif" font-size="12.00" fill="#000000">structures:AugmentationType</text>
</a>
</g>
<polygon fill="none" stroke="#000000" points="271,-121 271,-138 432,-138 432,-121 271,-121"/>
</g>
<!-- structures:AugmentationType&#45;&gt;j:TaskAugmentationType -->
<g id="edge2" class="edge">
<title>structures:AugmentationType&#45;&gt;j:TaskAugmentationType</title>
<path fill="none" stroke="#000000" d="M351.5,-120.9761C351.5,-114.614 351.5,-105.3292 351.5,-95.3557"/>
<polygon fill="#000000" stroke="#000000" points="355.0001,-95.2354 351.5,-85.2354 348.0001,-95.2354 355.0001,-95.2354"/>
<text text-anchor="middle" x="342" y="-99.9" font-family="Helvetica,sans-Serif" font-size="12.00" fill="#000000">extension</text>
</g>
</g>
</svg>
