<?xml version="1.0" encoding="UTF-8" standalone="no"?>
<!DOCTYPE svg PUBLIC "-//W3C//DTD SVG 1.1//EN"
 "http://www.w3.org/Graphics/SVG/1.1/DTD/svg11.dtd">
<!-- Generated by graphviz version 2.40.1 (20161225.0304)
 -->
<!-- Title: graphic Pages: 1 -->
<svg width="466pt" height="45pt"
 viewBox="0.00 0.00 466.00 45.00" xmlns="http://www.w3.org/2000/svg" xmlns:xlink="http://www.w3.org/1999/xlink">
<g id="graph0" class="graph" transform="scale(1 1) rotate(0) translate(4 41)">
<title>graphic</title>
<polygon fill="#ffffff" stroke="transparent" points="-4,4 -4,-41 462,-41 462,4 -4,4"/>
<!-- scr:StayActionText -->
<g id="node1" class="node">
<title>scr:StayActionText</title>
<text text-anchor="start" x="212" y="-21.4" font-family="Helvetica,sans-Serif" font-weight="bold" font-size="12.00" fill="#000000">scr:StayActionText</text>
<polygon fill="none" stroke="#ff0000" stroke-width="5" points="208.5,-14 208.5,-34 325.5,-34 325.5,-14 208.5,-14"/>
</g>
<!-- nc:TextType -->
<g id="node3" class="node">
<title>nc:TextType</title>
<g id="a_node3_0"><a xlink:href="../../nc/TextType/#diagram" xlink:title="A data type for a character string." target="_top">
<text text-anchor="start" x="389.5" y="-20.4" font-family="Helvetica,sans-Serif" font-size="12.00" fill="#000000">nc:TextType</text>
</a>
</g>
<polygon fill="none" stroke="#000000" points="387,-15.5 387,-32.5 458,-32.5 458,-15.5 387,-15.5"/>
</g>
<!-- scr:StayActionText&#45;&gt;nc:TextType -->
<g id="edge2" class="edge">
<title>scr:StayActionText&#45;&gt;nc:TextType</title>
<path fill="none" stroke="#000000" d="M328.0114,-24C344.1885,-24 361.3804,-24 376.6028,-24"/>
<polygon fill="#000000" stroke="#000000" points="376.7901,-27.5001 386.7901,-24 376.7901,-20.5001 376.7901,-27.5001"/>
<text text-anchor="middle" x="357.5" y="-27.4" font-family="Helvetica,sans-Serif" font-size="12.00" fill="#000000">type</text>
</g>
<!-- Types -->
<g id="node2" class="node">
<title>Types</title>
<text text-anchor="start" x="2.5" y="-21.4" font-family="Helvetica,sans-Serif" font-weight="bold" font-size="12.00" fill="#000000">Types</text>
<g id="a_node2_1"><a xlink:href="../../scr/AlienDeportationType/#diagram" xlink:title="A data type for an involuntary DEPARTURE of a PERSON based on a judicial decision or inspectors discretion." target="_top">
<polygon fill="#ebebeb" stroke="transparent" points="1.5,-1 1.5,-16 138.5,-16 138.5,-1 1.5,-1"/>
<text text-anchor="start" x="2.5" y="-5.4" font-family="Helvetica,sans-Serif" font-size="12.00" fill="#000000">scr:AlienDeportationType</text>
</a>
</g>
<polygon fill="#000000" stroke="#000000" points=".5,-16 .5,-16 139.5,-16 139.5,-16 .5,-16"/>
<polygon fill="none" stroke="#000000" points="0,0 0,-32 139,-32 139,0 0,0"/>
</g>
<!-- Types&#45;&gt;scr:StayActionText -->
<g id="edge1" class="edge">
<title>Types:top&#45;&gt;scr:StayActionText</title>
<path fill="none" stroke="#000000" d="M138.5,-24C157.0409,-24 177.0866,-24 195.7059,-24"/>
<polygon fill="#000000" stroke="#000000" points="195.8847,-27.5001 205.8846,-24 195.8846,-20.5001 195.8847,-27.5001"/>
<text text-anchor="middle" x="172.5" y="-27.4" font-family="Helvetica,sans-Serif" font-size="12.00" fill="#000000">has&#45;a</text>
</g>
</g>
</svg>
