<?xml version="1.0" encoding="UTF-8" standalone="no"?>
<!DOCTYPE svg PUBLIC "-//W3C//DTD SVG 1.1//EN"
 "http://www.w3.org/Graphics/SVG/1.1/DTD/svg11.dtd">
<!-- Generated by graphviz version 2.40.1 (20161225.0304)
 -->
<!-- Title: graphic Pages: 1 -->
<svg width="508pt" height="86pt"
 viewBox="0.00 0.00 508.00 86.00" xmlns="http://www.w3.org/2000/svg" xmlns:xlink="http://www.w3.org/1999/xlink">
<g id="graph0" class="graph" transform="scale(1 1) rotate(0) translate(4 82)">
<title>graphic</title>
<polygon fill="#ffffff" stroke="transparent" points="-4,4 -4,-82 504,-82 504,4 -4,4"/>
<!-- j:SubjectMOGeneralLifestyleCode -->
<g id="node1" class="node">
<title>j:SubjectMOGeneralLifestyleCode</title>
<text text-anchor="start" x="6" y="-9.9" font-family="Helvetica,sans-Serif" font-weight="bold" font-size="12.00" fill="#000000">j:SubjectMOGeneralLifestyleCode</text>
<polygon fill="none" stroke="#ff0000" stroke-width="5" points="2.5,-2.5 2.5,-22.5 203.5,-22.5 203.5,-2.5 2.5,-2.5"/>
</g>
<!-- ndex:SubjectMOGeneralLifestyleCodeType -->
<g id="node3" class="node">
<title>ndex:SubjectMOGeneralLifestyleCodeType</title>
<g id="a_node3_0"><a xlink:href="../../ndex/SubjectMOGeneralLifestyleCodeType/#diagram" xlink:title="A data type for a code that identifies lifestyle characteristics for the subject person based on investigator experience." target="_top">
<text text-anchor="start" x="267.5" y="-8.9" font-family="Helvetica,sans-Serif" font-size="12.00" fill="#000000">ndex:SubjectMOGeneralLifestyleCodeType</text>
</a>
</g>
<polygon fill="none" stroke="#000000" points="265,-4 265,-21 500,-21 500,-4 265,-4"/>
</g>
<!-- j:SubjectMOGeneralLifestyleCode&#45;&gt;ndex:SubjectMOGeneralLifestyleCodeType -->
<g id="edge2" class="edge">
<title>j:SubjectMOGeneralLifestyleCode&#45;&gt;ndex:SubjectMOGeneralLifestyleCodeType</title>
<path fill="none" stroke="#000000" d="M206.2814,-12.5C221.9924,-12.5 238.3645,-12.5 254.5252,-12.5"/>
<polygon fill="#000000" stroke="#000000" points="254.5523,-16.0001 264.5523,-12.5 254.5523,-9.0001 254.5523,-16.0001"/>
<text text-anchor="middle" x="235.5" y="-15.9" font-family="Helvetica,sans-Serif" font-size="12.00" fill="#000000">type</text>
</g>
<!-- SubstitutionGroup -->
<g id="node2" class="node">
<title>SubstitutionGroup</title>
<g id="a_node2_1"><a xlink:href="../../j/SubjectMOGeneralLifestyleAbstract/#diagram" xlink:title="A data concept for a lifestyle characteristic for a subject." target="_top">
<text text-anchor="start" x="5" y="-65.9" font-family="Helvetica,sans-Serif" font-size="12.00" fill="#000000">j:SubjectMOGeneralLifestyleAbstract</text>
</a>
</g>
<polygon fill="none" stroke="#000000" points="2.5,-61 2.5,-78 203.5,-78 203.5,-61 2.5,-61"/>
</g>
<!-- SubstitutionGroup&#45;&gt;j:SubjectMOGeneralLifestyleCode -->
<g id="edge1" class="edge">
<title>SubstitutionGroup&#45;&gt;j:SubjectMOGeneralLifestyleCode</title>
<path fill="none" stroke="#000000" d="M103,-50.9163C103,-42.4809 103,-32.7214 103,-25.1501"/>
<polygon fill="#000000" stroke="#000000" points="99.5001,-50.9472 103,-60.9473 106.5001,-50.9473 99.5001,-50.9472"/>
<text text-anchor="middle" x="93.5" y="-39.9" font-family="Helvetica,sans-Serif" font-size="12.00" fill="#000000">substitution group</text>
</g>
</g>
</svg>
