<?xml version="1.0" encoding="UTF-8" standalone="no"?>
<!DOCTYPE svg PUBLIC "-//W3C//DTD SVG 1.1//EN"
 "http://www.w3.org/Graphics/SVG/1.1/DTD/svg11.dtd">
<!-- Generated by graphviz version 2.40.1 (20161225.0304)
 -->
<!-- Title: graphic Pages: 1 -->
<svg width="490pt" height="45pt"
 viewBox="0.00 0.00 490.00 45.00" xmlns="http://www.w3.org/2000/svg" xmlns:xlink="http://www.w3.org/1999/xlink">
<g id="graph0" class="graph" transform="scale(1 1) rotate(0) translate(4 41)">
<title>graphic</title>
<polygon fill="#ffffff" stroke="transparent" points="-4,4 -4,-41 486,-41 486,4 -4,4"/>
<!-- cbrn:DataFileCreatedByText -->
<g id="node1" class="node">
<title>cbrn:DataFileCreatedByText</title>
<text text-anchor="start" x="176" y="-21.4" font-family="Helvetica,sans-Serif" font-weight="bold" font-size="12.00" fill="#000000">cbrn:DataFileCreatedByText</text>
<polygon fill="none" stroke="#ff0000" stroke-width="5" points="172.5,-14 172.5,-34 341.5,-34 341.5,-14 172.5,-14"/>
</g>
<!-- niem&#45;xs:string -->
<g id="node3" class="node">
<title>niem&#45;xs:string</title>
<g id="a_node3_0"><a xlink:href="../../niem-xs/string/#diagram" xlink:title="A data type for character strings in XML." target="_top">
<text text-anchor="start" x="405.5" y="-20.4" font-family="Helvetica,sans-Serif" font-size="12.00" fill="#000000">niem&#45;xs:string</text>
</a>
</g>
<polygon fill="none" stroke="#000000" points="403,-15.5 403,-32.5 482,-32.5 482,-15.5 403,-15.5"/>
</g>
<!-- cbrn:DataFileCreatedByText&#45;&gt;niem&#45;xs:string -->
<g id="edge2" class="edge">
<title>cbrn:DataFileCreatedByText&#45;&gt;niem&#45;xs:string</title>
<path fill="none" stroke="#000000" d="M344.0469,-24C360.7201,-24 377.6401,-24 392.6406,-24"/>
<polygon fill="#000000" stroke="#000000" points="392.6923,-27.5001 402.6923,-24 392.6922,-20.5001 392.6923,-27.5001"/>
<text text-anchor="middle" x="373.5" y="-27.4" font-family="Helvetica,sans-Serif" font-size="12.00" fill="#000000">type</text>
</g>
<!-- Types -->
<g id="node2" class="node">
<title>Types</title>
<text text-anchor="start" x="2.5" y="-21.4" font-family="Helvetica,sans-Serif" font-weight="bold" font-size="12.00" fill="#000000">Types</text>
<g id="a_node2_1"><a xlink:href="../../cbrn/DataFileType/#diagram" xlink:title="A data type that defines a data file and its properties." target="_top">
<polygon fill="#ebebeb" stroke="transparent" points="1.5,-1 1.5,-16 102.5,-16 102.5,-1 1.5,-1"/>
<text text-anchor="start" x="2.5" y="-5.4" font-family="Helvetica,sans-Serif" font-size="12.00" fill="#000000">cbrn:DataFileType</text>
</a>
</g>
<polygon fill="#000000" stroke="#000000" points=".5,-16 .5,-16 103.5,-16 103.5,-16 .5,-16"/>
<polygon fill="none" stroke="#000000" points="0,0 0,-32 103,-32 103,0 0,0"/>
</g>
<!-- Types&#45;&gt;cbrn:DataFileCreatedByText -->
<g id="edge1" class="edge">
<title>Types:top&#45;&gt;cbrn:DataFileCreatedByText</title>
<path fill="none" stroke="#000000" d="M102.5,-24C121.0303,-24 140.8108,-24 159.8173,-24"/>
<polygon fill="#000000" stroke="#000000" points="159.9783,-27.5001 169.9782,-24 159.9782,-20.5001 159.9783,-27.5001"/>
<text text-anchor="middle" x="136.5" y="-27.4" font-family="Helvetica,sans-Serif" font-size="12.00" fill="#000000">has&#45;a</text>
</g>
</g>
</svg>
