<?xml version="1.0" encoding="UTF-8" standalone="no"?>
<!DOCTYPE svg PUBLIC "-//W3C//DTD SVG 1.1//EN"
 "http://www.w3.org/Graphics/SVG/1.1/DTD/svg11.dtd">
<!-- Generated by graphviz version 2.40.1 (20161225.0304)
 -->
<!-- Title: graphic Pages: 1 -->
<svg width="482pt" height="45pt"
 viewBox="0.00 0.00 482.00 45.00" xmlns="http://www.w3.org/2000/svg" xmlns:xlink="http://www.w3.org/1999/xlink">
<g id="graph0" class="graph" transform="scale(1 1) rotate(0) translate(4 41)">
<title>graphic</title>
<polygon fill="#ffffff" stroke="transparent" points="-4,4 -4,-41 478,-41 478,4 -4,4"/>
<!-- stat:SubjectField -->
<g id="node1" class="node">
<title>stat:SubjectField</title>
<text text-anchor="start" x="192.5" y="-21.4" font-family="Helvetica,sans-Serif" font-weight="bold" font-size="12.00" fill="#000000">stat:SubjectField</text>
<polygon fill="none" stroke="#ff0000" stroke-width="5" points="188.5,-14 188.5,-34 292.5,-34 292.5,-14 188.5,-14"/>
</g>
<!-- stat:SubjectFieldType -->
<g id="node3" class="node">
<title>stat:SubjectFieldType</title>
<g id="a_node3_0"><a xlink:href="../../stat/SubjectFieldType/#diagram" xlink:title="A data type for a concept system(s) used for the grouping of concepts and categories for the production of statistics." target="_top">
<text text-anchor="start" x="356" y="-20.4" font-family="Helvetica,sans-Serif" font-size="12.00" fill="#000000">stat:SubjectFieldType</text>
</a>
</g>
<polygon fill="none" stroke="#000000" points="354,-15.5 354,-32.5 474,-32.5 474,-15.5 354,-15.5"/>
</g>
<!-- stat:SubjectField&#45;&gt;stat:SubjectFieldType -->
<g id="edge2" class="edge">
<title>stat:SubjectField&#45;&gt;stat:SubjectFieldType</title>
<path fill="none" stroke="#000000" d="M295.3965,-24C310.6255,-24 327.3754,-24 343.3679,-24"/>
<polygon fill="#000000" stroke="#000000" points="343.7443,-27.5001 353.7442,-24 343.7442,-20.5001 343.7443,-27.5001"/>
<text text-anchor="middle" x="324.5" y="-27.4" font-family="Helvetica,sans-Serif" font-size="12.00" fill="#000000">type</text>
</g>
<!-- Types -->
<g id="node2" class="node">
<title>Types</title>
<text text-anchor="start" x="2.5" y="-21.4" font-family="Helvetica,sans-Serif" font-weight="bold" font-size="12.00" fill="#000000">Types</text>
<g id="a_node2_1"><a xlink:href="../../stat/AssessmentType/#diagram" xlink:title="A data type for a result of the analysis of the quality and effectiveness of any activity undertaken by a statistical organization and recommendations on how these can be improved." target="_top">
<polygon fill="#ebebeb" stroke="transparent" points="1.5,-1 1.5,-16 118.5,-16 118.5,-1 1.5,-1"/>
<text text-anchor="start" x="2.5" y="-5.4" font-family="Helvetica,sans-Serif" font-size="12.00" fill="#000000">stat:AssessmentType</text>
</a>
</g>
<polygon fill="#000000" stroke="#000000" points=".5,-16 .5,-16 119.5,-16 119.5,-16 .5,-16"/>
<polygon fill="none" stroke="#000000" points="0,0 0,-32 119,-32 119,0 0,0"/>
</g>
<!-- Types&#45;&gt;stat:SubjectField -->
<g id="edge1" class="edge">
<title>Types:top&#45;&gt;stat:SubjectField</title>
<path fill="none" stroke="#000000" d="M118.5,-24C137.0859,-24 157.2646,-24 175.7603,-24"/>
<polygon fill="#000000" stroke="#000000" points="175.8418,-27.5001 185.8418,-24 175.8417,-20.5001 175.8418,-27.5001"/>
<text text-anchor="middle" x="152.5" y="-27.4" font-family="Helvetica,sans-Serif" font-size="12.00" fill="#000000">has&#45;a</text>
</g>
</g>
</svg>
