<?xml version="1.0" encoding="UTF-8" standalone="no"?>
<!DOCTYPE svg PUBLIC "-//W3C//DTD SVG 1.1//EN"
 "http://www.w3.org/Graphics/SVG/1.1/DTD/svg11.dtd">
<!-- Generated by graphviz version 2.40.1 (20161225.0304)
 -->
<!-- Title: graphic Pages: 1 -->
<svg width="765pt" height="45pt"
 viewBox="0.00 0.00 765.00 45.00" xmlns="http://www.w3.org/2000/svg" xmlns:xlink="http://www.w3.org/1999/xlink">
<g id="graph0" class="graph" transform="scale(1 1) rotate(0) translate(4 41)">
<title>graphic</title>
<polygon fill="#ffffff" stroke="transparent" points="-4,4 -4,-41 761,-41 761,4 -4,4"/>
<!-- hs:JuvenileSupervisionConditionFrequencyDescriptionText -->
<g id="node1" class="node">
<title>hs:JuvenileSupervisionConditionFrequencyDescriptionText</title>
<text text-anchor="start" x="278.5" y="-21.4" font-family="Helvetica,sans-Serif" font-weight="bold" font-size="12.00" fill="#000000">hs:JuvenileSupervisionConditionFrequencyDescriptionText</text>
<polygon fill="none" stroke="#ff0000" stroke-width="5" points="274.5,-14 274.5,-34 624.5,-34 624.5,-14 274.5,-14"/>
</g>
<!-- nc:TextType -->
<g id="node3" class="node">
<title>nc:TextType</title>
<g id="a_node3_0"><a xlink:href="../../nc/TextType/#diagram" xlink:title="A data type for a character string." target="_top">
<text text-anchor="start" x="688.5" y="-20.4" font-family="Helvetica,sans-Serif" font-size="12.00" fill="#000000">nc:TextType</text>
</a>
</g>
<polygon fill="none" stroke="#000000" points="686,-15.5 686,-32.5 757,-32.5 757,-15.5 686,-15.5"/>
</g>
<!-- hs:JuvenileSupervisionConditionFrequencyDescriptionText&#45;&gt;nc:TextType -->
<g id="edge2" class="edge">
<title>hs:JuvenileSupervisionConditionFrequencyDescriptionText&#45;&gt;nc:TextType</title>
<path fill="none" stroke="#000000" d="M627.131,-24C644.6422,-24 661.1343,-24 675.283,-24"/>
<polygon fill="#000000" stroke="#000000" points="675.6239,-27.5001 685.6238,-24 675.6238,-20.5001 675.6239,-27.5001"/>
<text text-anchor="middle" x="656.5" y="-27.4" font-family="Helvetica,sans-Serif" font-size="12.00" fill="#000000">type</text>
</g>
<!-- Types -->
<g id="node2" class="node">
<title>Types</title>
<text text-anchor="start" x="2.5" y="-21.4" font-family="Helvetica,sans-Serif" font-weight="bold" font-size="12.00" fill="#000000">Types</text>
<g id="a_node2_1"><a xlink:href="../../hs/JuvenileSupervisionConditionType/#diagram" xlink:title="A data type for recording juvenile supervision condition information for an individual." target="_top">
<polygon fill="#ebebeb" stroke="transparent" points="1.5,-1 1.5,-16 204.5,-16 204.5,-1 1.5,-1"/>
<text text-anchor="start" x="2.5" y="-5.4" font-family="Helvetica,sans-Serif" font-size="12.00" fill="#000000">hs:JuvenileSupervisionConditionType</text>
</a>
</g>
<polygon fill="#000000" stroke="#000000" points=".5,-16 .5,-16 205.5,-16 205.5,-16 .5,-16"/>
<polygon fill="none" stroke="#000000" points="0,0 0,-32 205,-32 205,0 0,0"/>
</g>
<!-- Types&#45;&gt;hs:JuvenileSupervisionConditionFrequencyDescriptionText -->
<g id="edge1" class="edge">
<title>Types:top&#45;&gt;hs:JuvenileSupervisionConditionFrequencyDescriptionText</title>
<path fill="none" stroke="#000000" d="M204.5,-24C223.0632,-24 242.4177,-24 261.754,-24"/>
<polygon fill="#000000" stroke="#000000" points="261.8597,-27.5001 271.8597,-24 261.8597,-20.5001 261.8597,-27.5001"/>
<text text-anchor="middle" x="238.5" y="-27.4" font-family="Helvetica,sans-Serif" font-size="12.00" fill="#000000">has&#45;a</text>
</g>
</g>
</svg>
