<?xml version="1.0" encoding="UTF-8" standalone="no"?>
<!DOCTYPE svg PUBLIC "-//W3C//DTD SVG 1.1//EN"
 "http://www.w3.org/Graphics/SVG/1.1/DTD/svg11.dtd">
<!-- Generated by graphviz version 2.40.1 (20161225.0304)
 -->
<!-- Title: graphic Pages: 1 -->
<svg width="413pt" height="101pt"
 viewBox="0.00 0.00 413.00 101.00" xmlns="http://www.w3.org/2000/svg" xmlns:xlink="http://www.w3.org/1999/xlink">
<g id="graph0" class="graph" transform="scale(1 1) rotate(0) translate(4 97)">
<title>graphic</title>
<polygon fill="#ffffff" stroke="transparent" points="-4,4 -4,-97 409,-97 409,4 -4,4"/>
<!-- nc:OrganizationActivityAbstract -->
<g id="node1" class="node">
<title>nc:OrganizationActivityAbstract</title>
<text text-anchor="start" x="201.5" y="-77.4" font-family="Helvetica,sans-Serif" font-weight="bold" font-size="12.00" fill="#000000">nc:OrganizationActivityAbstract</text>
<polygon fill="none" stroke="#ff0000" stroke-width="5" points="198,-70 198,-90 389,-90 389,-70 198,-70"/>
</g>
<!-- SubstitutableElements -->
<g id="node3" class="node">
<title>SubstitutableElements</title>
<text text-anchor="start" x="184.5" y="-21.4" font-family="Helvetica,sans-Serif" font-weight="bold" font-size="12.00" fill="#000000">Substitutable elements</text>
<g id="a_node3_0"><a xlink:href="../../nc/OrganizationActivityText/#diagram" xlink:title="An activity that an organization is known or thought to be involved with." target="_top">
<polygon fill="#ebebeb" stroke="transparent" points="183.5,-1 183.5,-16 404.5,-16 404.5,-1 183.5,-1"/>
<text text-anchor="start" x="184.5" y="-5.4" font-family="Helvetica,sans-Serif" font-size="12.00" fill="#000000">nc:OrganizationActivityText: nc:TextType</text>
</a>
</g>
<polygon fill="#000000" stroke="#000000" points="182.5,-16 182.5,-16 405.5,-16 405.5,-16 182.5,-16"/>
<polygon fill="none" stroke="#000000" points="182,0 182,-32 405,-32 405,0 182,0"/>
</g>
<!-- nc:OrganizationActivityAbstract&#45;&gt;SubstitutableElements -->
<g id="edge2" class="edge">
<title>nc:OrganizationActivityAbstract&#45;&gt;SubstitutableElements</title>
<path fill="none" stroke="#000000" d="M293.5,-57.3063C293.5,-48.9972 293.5,-39.7712 293.5,-32.1499"/>
<polygon fill="#000000" stroke="#000000" points="290.0001,-57.4892 293.5,-67.4892 297.0001,-57.4892 290.0001,-57.4892"/>
<text text-anchor="middle" x="284" y="-46.65" font-family="Helvetica,sans-Serif" font-size="12.00" fill="#000000">substitutable for</text>
</g>
<!-- Types -->
<g id="node2" class="node">
<title>Types</title>
<text text-anchor="start" x="2.5" y="-77.4" font-family="Helvetica,sans-Serif" font-weight="bold" font-size="12.00" fill="#000000">Types</text>
<g id="a_node2_1"><a xlink:href="../../nc/OrganizationType/#diagram" xlink:title="A data type for a body of people organized for a particular purpose." target="_top">
<polygon fill="#ebebeb" stroke="transparent" points="1.5,-57 1.5,-72 114.5,-72 114.5,-57 1.5,-57"/>
<text text-anchor="start" x="2.5" y="-61.4" font-family="Helvetica,sans-Serif" font-size="12.00" fill="#000000">nc:OrganizationType</text>
</a>
</g>
<polygon fill="#000000" stroke="#000000" points=".5,-72 .5,-72 115.5,-72 115.5,-72 .5,-72"/>
<polygon fill="none" stroke="#000000" points="0,-56 0,-88 115,-88 115,-56 0,-56"/>
</g>
<!-- Types&#45;&gt;nc:OrganizationActivityAbstract -->
<g id="edge1" class="edge">
<title>Types:top&#45;&gt;nc:OrganizationActivityAbstract</title>
<path fill="none" stroke="#000000" d="M114.5,-80C137.3745,-80 161.8933,-80 185.2197,-80"/>
<polygon fill="#000000" stroke="#000000" points="185.4879,-83.5001 195.4879,-80 185.4879,-76.5001 185.4879,-83.5001"/>
<text text-anchor="middle" x="148.5" y="-83.4" font-family="Helvetica,sans-Serif" font-size="12.00" fill="#000000">has&#45;a</text>
</g>
</g>
</svg>
