<?xml version="1.0" encoding="UTF-8" standalone="no"?>
<!DOCTYPE svg PUBLIC "-//W3C//DTD SVG 1.1//EN"
 "http://www.w3.org/Graphics/SVG/1.1/DTD/svg11.dtd">
<!-- Generated by graphviz version 2.40.1 (20161225.0304)
 -->
<!-- Title: graphic Pages: 1 -->
<svg width="438pt" height="116pt"
 viewBox="0.00 0.00 438.00 116.00" xmlns="http://www.w3.org/2000/svg" xmlns:xlink="http://www.w3.org/1999/xlink">
<g id="graph0" class="graph" transform="scale(1 1) rotate(0) translate(4 112)">
<title>graphic</title>
<polygon fill="#ffffff" stroke="transparent" points="-4,4 -4,-112 434,-112 434,4 -4,4"/>
<!-- j:MetadataType -->
<g id="node1" class="node">
<title>j:MetadataType</title>
<text text-anchor="start" x="129.5" y="-39.9" font-family="Helvetica,sans-Serif" font-weight="bold" font-size="12.00" fill="#000000">j:MetadataType</text>
<g id="a_node1_0"><a xlink:href="../../j/CriminalInformationIndicator/#diagram" xlink:title="True if the information specified is classified as criminal information; false if it is not classified as criminal information." target="_top">
<polygon fill="#ebebeb" stroke="transparent" points="128.5,-19.5 128.5,-34.5 425.5,-34.5 425.5,-19.5 128.5,-19.5"/>
<text text-anchor="start" x="129.5" y="-23.9" font-family="Helvetica,sans-Serif" font-size="12.00" fill="#000000">j:CriminalInformationIndicator: niem&#45;xs:boolean [0&#45;n]</text>
</a>
</g>
<g id="a_node1_1"><a xlink:href="../../j/IntelligenceInformationIndicator/#diagram" xlink:title="True if the information specified is intelligence information; false otherwise." target="_top">
<text text-anchor="start" x="129.5" y="-8.9" font-family="Helvetica,sans-Serif" font-size="12.00" fill="#000000">j:IntelligenceInformationIndicator: niem&#45;xs:boolean [0&#45;n]</text>
</a>
</g>
<polygon fill="#ff0000" stroke="#ff0000" points="123.5,-34.5 123.5,-34.5 430.5,-34.5 430.5,-34.5 123.5,-34.5"/>
<polygon fill="none" stroke="#ff0000" stroke-width="5" points="125.5,-2.5 125.5,-52.5 427.5,-52.5 427.5,-2.5 125.5,-2.5"/>
</g>
<!-- Properties -->
<g id="node2" class="node">
<title>Properties</title>
<text text-anchor="start" x="2" y="-39.9" font-family="Helvetica,sans-Serif" font-weight="bold" font-size="12.00" fill="#000000">Properties</text>
<g id="a_node2_2"><a xlink:href="../../j/Metadata/#diagram" xlink:title="Information that further qualifies the kind of data represented." target="_top">
<polygon fill="#ebebeb" stroke="transparent" points="1,-19.5 1,-34.5 63,-34.5 63,-19.5 1,-19.5"/>
<text text-anchor="start" x="2" y="-23.9" font-family="Helvetica,sans-Serif" font-size="12.00" fill="#000000">j:Metadata</text>
</a>
</g>
<polygon fill="#000000" stroke="#000000" points="0,-34.5 0,-34.5 64,-34.5 64,-34.5 0,-34.5"/>
<polygon fill="none" stroke="#000000" points="0,-18.5 0,-50.5 64,-50.5 64,-18.5 0,-18.5"/>
</g>
<!-- Properties&#45;&gt;j:MetadataType -->
<g id="edge1" class="edge">
<title>Properties:top&#45;&gt;j:MetadataType:top</title>
<path fill="none" stroke="#000000" d="M63,-42.5C88.3585,-42.5 97.1498,-42.5 118.2371,-42.5"/>
<polygon fill="#000000" stroke="#000000" points="118.5,-46.0001 128.5,-42.5 118.5,-39.0001 118.5,-46.0001"/>
<text text-anchor="middle" x="93.5" y="-45.9" font-family="Helvetica,sans-Serif" font-size="12.00" fill="#000000">type</text>
</g>
<!-- structures:MetadataType -->
<g id="node3" class="node">
<title>structures:MetadataType</title>
<g id="a_node3_3"><a xlink:href="../../structures/MetadataType/#diagram" xlink:title="A data type for data about data." target="_top">
<text text-anchor="start" x="210.5" y="-95.9" font-family="Helvetica,sans-Serif" font-size="12.00" fill="#000000">structures:MetadataType</text>
</a>
</g>
<polygon fill="none" stroke="#000000" points="208,-91 208,-108 345,-108 345,-91 208,-91"/>
</g>
<!-- structures:MetadataType&#45;&gt;j:MetadataType -->
<g id="edge2" class="edge">
<title>structures:MetadataType&#45;&gt;j:MetadataType</title>
<path fill="none" stroke="#000000" d="M276.5,-90.8151C276.5,-84.3271 276.5,-74.9677 276.5,-65.4273"/>
<polygon fill="#000000" stroke="#000000" points="280.0001,-65.1311 276.5,-55.1312 273.0001,-65.1312 280.0001,-65.1311"/>
<text text-anchor="middle" x="267" y="-69.9" font-family="Helvetica,sans-Serif" font-size="12.00" fill="#000000">extension</text>
</g>
</g>
</svg>
