<?xml version="1.0" encoding="UTF-8" standalone="no"?>
<!DOCTYPE svg PUBLIC "-//W3C//DTD SVG 1.1//EN"
 "http://www.w3.org/Graphics/SVG/1.1/DTD/svg11.dtd">
<!-- Generated by graphviz version 2.40.1 (20161225.0304)
 -->
<!-- Title: graphic Pages: 1 -->
<svg width="437pt" height="45pt"
 viewBox="0.00 0.00 437.00 45.00" xmlns="http://www.w3.org/2000/svg" xmlns:xlink="http://www.w3.org/1999/xlink">
<g id="graph0" class="graph" transform="scale(1 1) rotate(0) translate(4 41)">
<title>graphic</title>
<polygon fill="#ffffff" stroke="transparent" points="-4,4 -4,-41 433,-41 433,4 -4,4"/>
<!-- biom:ImageQualityAugmentationPoint -->
<g id="node1" class="node">
<title>biom:ImageQualityAugmentationPoint</title>
<text text-anchor="start" x="204.5" y="-21.4" font-family="Helvetica,sans-Serif" font-weight="bold" font-size="12.00" fill="#000000">biom:ImageQualityAugmentationPoint</text>
<polygon fill="none" stroke="#ff0000" stroke-width="5" points="200.5,-14 200.5,-34 426.5,-34 426.5,-14 200.5,-14"/>
</g>
<!-- Types -->
<g id="node2" class="node">
<title>Types</title>
<text text-anchor="start" x="2.5" y="-21.4" font-family="Helvetica,sans-Serif" font-weight="bold" font-size="12.00" fill="#000000">Types</text>
<g id="a_node2_0"><a xlink:href="../../biom/ImageQualityType/#diagram" xlink:title="A data type for a set of properties relating to image quality" target="_top">
<polygon fill="#ebebeb" stroke="transparent" points="1.5,-1 1.5,-16 130.5,-16 130.5,-1 1.5,-1"/>
<text text-anchor="start" x="2.5" y="-5.4" font-family="Helvetica,sans-Serif" font-size="12.00" fill="#000000">biom:ImageQualityType</text>
</a>
</g>
<polygon fill="#000000" stroke="#000000" points=".5,-16 .5,-16 131.5,-16 131.5,-16 .5,-16"/>
<polygon fill="none" stroke="#000000" points="0,0 0,-32 131,-32 131,0 0,0"/>
</g>
<!-- Types&#45;&gt;biom:ImageQualityAugmentationPoint -->
<g id="edge1" class="edge">
<title>Types:top&#45;&gt;biom:ImageQualityAugmentationPoint</title>
<path fill="none" stroke="#000000" d="M130.5,-24C148.9476,-24 168.4412,-24 187.5573,-24"/>
<polygon fill="#000000" stroke="#000000" points="187.8193,-27.5001 197.8193,-24 187.8192,-20.5001 187.8193,-27.5001"/>
<text text-anchor="middle" x="164.5" y="-27.4" font-family="Helvetica,sans-Serif" font-size="12.00" fill="#000000">has&#45;a</text>
</g>
</g>
</svg>
