<?xml version="1.0" encoding="UTF-8" standalone="no"?>
<!DOCTYPE svg PUBLIC "-//W3C//DTD SVG 1.1//EN"
 "http://www.w3.org/Graphics/SVG/1.1/DTD/svg11.dtd">
<!-- Generated by graphviz version 2.40.1 (20161225.0304)
 -->
<!-- Title: graphic Pages: 1 -->
<svg width="563pt" height="45pt"
 viewBox="0.00 0.00 563.00 45.00" xmlns="http://www.w3.org/2000/svg" xmlns:xlink="http://www.w3.org/1999/xlink">
<g id="graph0" class="graph" transform="scale(1 1) rotate(0) translate(4 41)">
<title>graphic</title>
<polygon fill="#ffffff" stroke="transparent" points="-4,4 -4,-41 559,-41 559,4 -4,4"/>
<!-- scr:TravelModeCategoryDescriptionText -->
<g id="node1" class="node">
<title>scr:TravelModeCategoryDescriptionText</title>
<text text-anchor="start" x="187" y="-21.4" font-family="Helvetica,sans-Serif" font-weight="bold" font-size="12.00" fill="#000000">scr:TravelModeCategoryDescriptionText</text>
<polygon fill="none" stroke="#ff0000" stroke-width="5" points="183.5,-14 183.5,-34 422.5,-34 422.5,-14 183.5,-14"/>
</g>
<!-- nc:TextType -->
<g id="node3" class="node">
<title>nc:TextType</title>
<g id="a_node3_0"><a xlink:href="../../nc/TextType/#diagram" xlink:title="A data type for a character string." target="_top">
<text text-anchor="start" x="486.5" y="-20.4" font-family="Helvetica,sans-Serif" font-size="12.00" fill="#000000">nc:TextType</text>
</a>
</g>
<polygon fill="none" stroke="#000000" points="484,-15.5 484,-32.5 555,-32.5 555,-15.5 484,-15.5"/>
</g>
<!-- scr:TravelModeCategoryDescriptionText&#45;&gt;nc:TextType -->
<g id="edge2" class="edge">
<title>scr:TravelModeCategoryDescriptionText&#45;&gt;nc:TextType</title>
<path fill="none" stroke="#000000" d="M425.1698,-24C442.4584,-24 459.2653,-24 473.787,-24"/>
<polygon fill="#000000" stroke="#000000" points="473.9313,-27.5001 483.9313,-24 473.9313,-20.5001 473.9313,-27.5001"/>
<text text-anchor="middle" x="454.5" y="-27.4" font-family="Helvetica,sans-Serif" font-size="12.00" fill="#000000">type</text>
</g>
<!-- Types -->
<g id="node2" class="node">
<title>Types</title>
<text text-anchor="start" x="2" y="-21.4" font-family="Helvetica,sans-Serif" font-weight="bold" font-size="12.00" fill="#000000">Types</text>
<g id="a_node2_1"><a xlink:href="../../scr/TravelModeType/#diagram" xlink:title="A data type for the manner of transport used by a person during a person crossing the US Borders." target="_top">
<polygon fill="#ebebeb" stroke="transparent" points="1,-1 1,-16 113,-16 113,-1 1,-1"/>
<text text-anchor="start" x="2" y="-5.4" font-family="Helvetica,sans-Serif" font-size="12.00" fill="#000000">scr:TravelModeType</text>
</a>
</g>
<polygon fill="#000000" stroke="#000000" points="0,-16 0,-16 114,-16 114,-16 0,-16"/>
<polygon fill="none" stroke="#000000" points="0,0 0,-32 114,-32 114,0 0,0"/>
</g>
<!-- Types&#45;&gt;scr:TravelModeCategoryDescriptionText -->
<g id="edge1" class="edge">
<title>Types:top&#45;&gt;scr:TravelModeCategoryDescriptionText</title>
<path fill="none" stroke="#000000" d="M113,-24C131.6797,-24 151.3924,-24 170.767,-24"/>
<polygon fill="#000000" stroke="#000000" points="170.8607,-27.5001 180.8606,-24 170.8606,-20.5001 170.8607,-27.5001"/>
<text text-anchor="middle" x="147.5" y="-27.4" font-family="Helvetica,sans-Serif" font-size="12.00" fill="#000000">has&#45;a</text>
</g>
</g>
</svg>
