<?xml version="1.0" encoding="UTF-8" standalone="no"?>
<!DOCTYPE svg PUBLIC "-//W3C//DTD SVG 1.1//EN"
 "http://www.w3.org/Graphics/SVG/1.1/DTD/svg11.dtd">
<!-- Generated by graphviz version 2.40.1 (20161225.0304)
 -->
<!-- Title: graphic Pages: 1 -->
<svg width="807pt" height="45pt"
 viewBox="0.00 0.00 807.00 45.00" xmlns="http://www.w3.org/2000/svg" xmlns:xlink="http://www.w3.org/1999/xlink">
<g id="graph0" class="graph" transform="scale(1 1) rotate(0) translate(4 41)">
<title>graphic</title>
<polygon fill="#ffffff" stroke="transparent" points="-4,4 -4,-41 803,-41 803,4 -4,4"/>
<!-- im:ImmigrationBenefitExtendChangeStatusEligibilityAugmentationPoint -->
<g id="node1" class="node">
<title>im:ImmigrationBenefitExtendChangeStatusEligibilityAugmentationPoint</title>
<text text-anchor="start" x="380.5" y="-21.4" font-family="Helvetica,sans-Serif" font-weight="bold" font-size="12.00" fill="#000000">im:ImmigrationBenefitExtendChangeStatusEligibilityAugmentationPoint</text>
<polygon fill="none" stroke="#ff0000" stroke-width="5" points="376.5,-14 376.5,-34 796.5,-34 796.5,-14 376.5,-14"/>
</g>
<!-- Types -->
<g id="node2" class="node">
<title>Types</title>
<text text-anchor="start" x="2.5" y="-21.4" font-family="Helvetica,sans-Serif" font-weight="bold" font-size="12.00" fill="#000000">Types</text>
<g id="a_node2_0"><a xlink:href="../../im/ImmigrationBenefitExtendChangeStatusEligibilityType/#diagram" xlink:title="A data type for the eligibility of an applicant attempting to extend or change status or reinstate student status." target="_top">
<polygon fill="#ebebeb" stroke="transparent" points="1.5,-1 1.5,-16 306.5,-16 306.5,-1 1.5,-1"/>
<text text-anchor="start" x="2.5" y="-5.4" font-family="Helvetica,sans-Serif" font-size="12.00" fill="#000000">im:ImmigrationBenefitExtendChangeStatusEligibilityType</text>
</a>
</g>
<polygon fill="#000000" stroke="#000000" points=".5,-16 .5,-16 307.5,-16 307.5,-16 .5,-16"/>
<polygon fill="none" stroke="#000000" points="0,0 0,-32 307,-32 307,0 0,0"/>
</g>
<!-- Types&#45;&gt;im:ImmigrationBenefitExtendChangeStatusEligibilityAugmentationPoint -->
<g id="edge1" class="edge">
<title>Types:top&#45;&gt;im:ImmigrationBenefitExtendChangeStatusEligibilityAugmentationPoint</title>
<path fill="none" stroke="#000000" d="M306.5,-24C325.1279,-24 344.453,-24 363.849,-24"/>
<polygon fill="#000000" stroke="#000000" points="363.9951,-27.5001 373.995,-24 363.995,-20.5001 363.9951,-27.5001"/>
<text text-anchor="middle" x="340.5" y="-27.4" font-family="Helvetica,sans-Serif" font-size="12.00" fill="#000000">has&#45;a</text>
</g>
</g>
</svg>
