<?xml version="1.0" encoding="UTF-8" standalone="no"?>
<!DOCTYPE svg PUBLIC "-//W3C//DTD SVG 1.1//EN"
 "http://www.w3.org/Graphics/SVG/1.1/DTD/svg11.dtd">
<!-- Generated by graphviz version 2.40.1 (20161225.0304)
 -->
<!-- Title: graphic Pages: 1 -->
<svg width="482pt" height="101pt"
 viewBox="0.00 0.00 482.00 101.00" xmlns="http://www.w3.org/2000/svg" xmlns:xlink="http://www.w3.org/1999/xlink">
<g id="graph0" class="graph" transform="scale(1 1) rotate(0) translate(4 97)">
<title>graphic</title>
<polygon fill="#ffffff" stroke="transparent" points="-4,4 -4,-97 478,-97 478,4 -4,4"/>
<!-- mo:UnitReinforcementAbstract -->
<g id="node1" class="node">
<title>mo:UnitReinforcementAbstract</title>
<text text-anchor="start" x="218" y="-77.4" font-family="Helvetica,sans-Serif" font-weight="bold" font-size="12.00" fill="#000000">mo:UnitReinforcementAbstract</text>
<polygon fill="none" stroke="#ff0000" stroke-width="5" points="214,-70 214,-90 400,-90 400,-70 214,-70"/>
</g>
<!-- SubstitutableElements -->
<g id="node3" class="node">
<title>SubstitutableElements</title>
<text text-anchor="start" x="142" y="-21.4" font-family="Helvetica,sans-Serif" font-weight="bold" font-size="12.00" fill="#000000">Substitutable elements</text>
<g id="a_node3_0"><a xlink:href="../../mo/UnitReinforcementCode/#diagram" xlink:title="A designator that gives the reinforcement for a unit that has additional or detached strength." target="_top">
<polygon fill="#ebebeb" stroke="transparent" points="141,-1 141,-16 473,-16 473,-1 141,-1"/>
<text text-anchor="start" x="142" y="-5.4" font-family="Helvetica,sans-Serif" font-size="12.00" fill="#000000">mo:UnitReinforcementCode: mo:UnitReinforcementCodeType</text>
</a>
</g>
<polygon fill="#000000" stroke="#000000" points="140,-16 140,-16 474,-16 474,-16 140,-16"/>
<polygon fill="none" stroke="#000000" points="140,0 140,-32 474,-32 474,0 140,0"/>
</g>
<!-- mo:UnitReinforcementAbstract&#45;&gt;SubstitutableElements -->
<g id="edge2" class="edge">
<title>mo:UnitReinforcementAbstract&#45;&gt;SubstitutableElements</title>
<path fill="none" stroke="#000000" d="M307,-57.3063C307,-48.9972 307,-39.7712 307,-32.1499"/>
<polygon fill="#000000" stroke="#000000" points="303.5001,-57.4892 307,-67.4892 310.5001,-57.4892 303.5001,-57.4892"/>
<text text-anchor="middle" x="297.5" y="-46.65" font-family="Helvetica,sans-Serif" font-size="12.00" fill="#000000">substitutable for</text>
</g>
<!-- Types -->
<g id="node2" class="node">
<title>Types</title>
<text text-anchor="start" x="2.5" y="-77.4" font-family="Helvetica,sans-Serif" font-weight="bold" font-size="12.00" fill="#000000">Types</text>
<g id="a_node2_1"><a xlink:href="../../mo/UnitType/#diagram" xlink:title="A data type for a military element whose structure is prescribed by competent authority." target="_top">
<polygon fill="#ebebeb" stroke="transparent" points="1.5,-57 1.5,-72 72.5,-72 72.5,-57 1.5,-57"/>
<text text-anchor="start" x="2.5" y="-61.4" font-family="Helvetica,sans-Serif" font-size="12.00" fill="#000000">mo:UnitType</text>
</a>
</g>
<polygon fill="#000000" stroke="#000000" points=".5,-72 .5,-72 73.5,-72 73.5,-72 .5,-72"/>
<polygon fill="none" stroke="#000000" points="0,-56 0,-88 73,-88 73,-56 0,-56"/>
</g>
<!-- Types&#45;&gt;mo:UnitReinforcementAbstract -->
<g id="edge1" class="edge">
<title>Types:top&#45;&gt;mo:UnitReinforcementAbstract</title>
<path fill="none" stroke="#000000" d="M72.5,-80C114.6288,-80 161.0149,-80 201.3329,-80"/>
<polygon fill="#000000" stroke="#000000" points="201.4462,-83.5001 211.4462,-80 201.4462,-76.5001 201.4462,-83.5001"/>
<text text-anchor="middle" x="106.5" y="-83.4" font-family="Helvetica,sans-Serif" font-size="12.00" fill="#000000">has&#45;a</text>
</g>
</g>
</svg>
