<?xml version="1.0" encoding="UTF-8" standalone="no"?>
<!DOCTYPE svg PUBLIC "-//W3C//DTD SVG 1.1//EN"
 "http://www.w3.org/Graphics/SVG/1.1/DTD/svg11.dtd">
<!-- Generated by graphviz version 2.40.1 (20161225.0304)
 -->
<!-- Title: graphic Pages: 1 -->
<svg width="327pt" height="86pt"
 viewBox="0.00 0.00 327.00 86.00" xmlns="http://www.w3.org/2000/svg" xmlns:xlink="http://www.w3.org/1999/xlink">
<g id="graph0" class="graph" transform="scale(1 1) rotate(0) translate(4 82)">
<title>graphic</title>
<polygon fill="#ffffff" stroke="transparent" points="-4,4 -4,-82 323,-82 323,4 -4,4"/>
<!-- j:ProgramActivityOutcomeText -->
<g id="node1" class="node">
<title>j:ProgramActivityOutcomeText</title>
<text text-anchor="start" x="6.5" y="-9.9" font-family="Helvetica,sans-Serif" font-weight="bold" font-size="12.00" fill="#000000">j:ProgramActivityOutcomeText</text>
<polygon fill="none" stroke="#ff0000" stroke-width="5" points="2.5,-2.5 2.5,-22.5 186.5,-22.5 186.5,-2.5 2.5,-2.5"/>
</g>
<!-- nc:TextType -->
<g id="node3" class="node">
<title>nc:TextType</title>
<g id="a_node3_0"><a xlink:href="../../nc/TextType/#diagram" xlink:title="A data type for a character string." target="_top">
<text text-anchor="start" x="250.5" y="-8.9" font-family="Helvetica,sans-Serif" font-size="12.00" fill="#000000">nc:TextType</text>
</a>
</g>
<polygon fill="none" stroke="#000000" points="248,-4 248,-21 319,-21 319,-4 248,-4"/>
</g>
<!-- j:ProgramActivityOutcomeText&#45;&gt;nc:TextType -->
<g id="edge2" class="edge">
<title>j:ProgramActivityOutcomeText&#45;&gt;nc:TextType</title>
<path fill="none" stroke="#000000" d="M189.2769,-12.5C206.0269,-12.5 222.7654,-12.5 237.3873,-12.5"/>
<polygon fill="#000000" stroke="#000000" points="237.6302,-16.0001 247.6301,-12.5 237.6301,-9.0001 237.6302,-16.0001"/>
<text text-anchor="middle" x="218.5" y="-15.9" font-family="Helvetica,sans-Serif" font-size="12.00" fill="#000000">type</text>
</g>
<!-- SubstitutionGroup -->
<g id="node2" class="node">
<title>SubstitutionGroup</title>
<g id="a_node2_1"><a xlink:href="../../j/ProgramActivityOutcomeAbstract/#diagram" xlink:title="A data concept for a kind of outcome of the program activity." target="_top">
<text text-anchor="start" x="3.5" y="-65.9" font-family="Helvetica,sans-Serif" font-size="12.00" fill="#000000">j:ProgramActivityOutcomeAbstract</text>
</a>
</g>
<polygon fill="none" stroke="#000000" points="1,-61 1,-78 188,-78 188,-61 1,-61"/>
</g>
<!-- SubstitutionGroup&#45;&gt;j:ProgramActivityOutcomeText -->
<g id="edge1" class="edge">
<title>SubstitutionGroup&#45;&gt;j:ProgramActivityOutcomeText</title>
<path fill="none" stroke="#000000" d="M94.5,-50.9163C94.5,-42.4809 94.5,-32.7214 94.5,-25.1501"/>
<polygon fill="#000000" stroke="#000000" points="91.0001,-50.9472 94.5,-60.9473 98.0001,-50.9473 91.0001,-50.9472"/>
<text text-anchor="middle" x="85" y="-39.9" font-family="Helvetica,sans-Serif" font-size="12.00" fill="#000000">substitution group</text>
</g>
</g>
</svg>
