<?xml version="1.0" encoding="UTF-8" standalone="no"?>
<!DOCTYPE svg PUBLIC "-//W3C//DTD SVG 1.1//EN"
 "http://www.w3.org/Graphics/SVG/1.1/DTD/svg11.dtd">
<!-- Generated by graphviz version 2.40.1 (20161225.0304)
 -->
<!-- Title: graphic Pages: 1 -->
<svg width="602pt" height="45pt"
 viewBox="0.00 0.00 602.00 45.00" xmlns="http://www.w3.org/2000/svg" xmlns:xlink="http://www.w3.org/1999/xlink">
<g id="graph0" class="graph" transform="scale(1 1) rotate(0) translate(4 41)">
<title>graphic</title>
<polygon fill="#ffffff" stroke="transparent" points="-4,4 -4,-41 598,-41 598,4 -4,4"/>
<!-- it:IntermediateCarrierIdentification -->
<g id="node1" class="node">
<title>it:IntermediateCarrierIdentification</title>
<text text-anchor="start" x="217.5" y="-21.4" font-family="Helvetica,sans-Serif" font-weight="bold" font-size="12.00" fill="#000000">it:IntermediateCarrierIdentification</text>
<polygon fill="none" stroke="#ff0000" stroke-width="5" points="213.5,-14 213.5,-34 417.5,-34 417.5,-14 213.5,-14"/>
</g>
<!-- nc:IdentificationType -->
<g id="node3" class="node">
<title>nc:IdentificationType</title>
<g id="a_node3_0"><a xlink:href="../../nc/IdentificationType/#diagram" xlink:title="A data type for a representation of an identity." target="_top">
<text text-anchor="start" x="481.5" y="-20.4" font-family="Helvetica,sans-Serif" font-size="12.00" fill="#000000">nc:IdentificationType</text>
</a>
</g>
<polygon fill="none" stroke="#000000" points="479,-15.5 479,-32.5 594,-32.5 594,-15.5 479,-15.5"/>
</g>
<!-- it:IntermediateCarrierIdentification&#45;&gt;nc:IdentificationType -->
<g id="edge2" class="edge">
<title>it:IntermediateCarrierIdentification&#45;&gt;nc:IdentificationType</title>
<path fill="none" stroke="#000000" d="M420.1753,-24C436.5824,-24 453.1613,-24 468.4596,-24"/>
<polygon fill="#000000" stroke="#000000" points="468.8283,-27.5001 478.8283,-24 468.8283,-20.5001 468.8283,-27.5001"/>
<text text-anchor="middle" x="449.5" y="-27.4" font-family="Helvetica,sans-Serif" font-size="12.00" fill="#000000">type</text>
</g>
<!-- Types -->
<g id="node2" class="node">
<title>Types</title>
<text text-anchor="start" x="2" y="-21.4" font-family="Helvetica,sans-Serif" font-weight="bold" font-size="12.00" fill="#000000">Types</text>
<g id="a_node2_1"><a xlink:href="../../it/IntermediateCarrierType/#diagram" xlink:title="A data type representing a transit (in&#45;bond) movement, the identity of the carrier&#39;s which transport the goods from consignor to exporting carrier and from importing carrier to consignee. A party providing the transport of goods between named points." target="_top">
<polygon fill="#ebebeb" stroke="transparent" points="1,-1 1,-16 143,-16 143,-1 1,-1"/>
<text text-anchor="start" x="2" y="-5.4" font-family="Helvetica,sans-Serif" font-size="12.00" fill="#000000">it:IntermediateCarrierType</text>
</a>
</g>
<polygon fill="#000000" stroke="#000000" points="0,-16 0,-16 144,-16 144,-16 0,-16"/>
<polygon fill="none" stroke="#000000" points="0,0 0,-32 144,-32 144,0 0,0"/>
</g>
<!-- Types&#45;&gt;it:IntermediateCarrierIdentification -->
<g id="edge1" class="edge">
<title>Types:top&#45;&gt;it:IntermediateCarrierIdentification</title>
<path fill="none" stroke="#000000" d="M143,-24C161.6168,-24 181.3639,-24 200.5944,-24"/>
<polygon fill="#000000" stroke="#000000" points="200.595,-27.5001 210.595,-24 200.5949,-20.5001 200.595,-27.5001"/>
<text text-anchor="middle" x="177.5" y="-27.4" font-family="Helvetica,sans-Serif" font-size="12.00" fill="#000000">has&#45;a</text>
</g>
</g>
</svg>
