<?xml version="1.0" encoding="UTF-8" standalone="no"?>
<!DOCTYPE svg PUBLIC "-//W3C//DTD SVG 1.1//EN"
 "http://www.w3.org/Graphics/SVG/1.1/DTD/svg11.dtd">
<!-- Generated by graphviz version 2.40.1 (20161225.0304)
 -->
<!-- Title: graphic Pages: 1 -->
<svg width="519pt" height="45pt"
 viewBox="0.00 0.00 519.00 45.00" xmlns="http://www.w3.org/2000/svg" xmlns:xlink="http://www.w3.org/1999/xlink">
<g id="graph0" class="graph" transform="scale(1 1) rotate(0) translate(4 41)">
<title>graphic</title>
<polygon fill="#ffffff" stroke="transparent" points="-4,4 -4,-41 515,-41 515,4 -4,4"/>
<!-- scr:StatementSignedDate -->
<g id="node1" class="node">
<title>scr:StatementSignedDate</title>
<text text-anchor="start" x="226.5" y="-21.4" font-family="Helvetica,sans-Serif" font-weight="bold" font-size="12.00" fill="#000000">scr:StatementSignedDate</text>
<polygon fill="none" stroke="#ff0000" stroke-width="5" points="222.5,-14 222.5,-34 376.5,-34 376.5,-14 222.5,-14"/>
</g>
<!-- nc:DateType -->
<g id="node3" class="node">
<title>nc:DateType</title>
<g id="a_node3_0"><a xlink:href="../../nc/DateType/#diagram" xlink:title="A data type for a calendar date." target="_top">
<text text-anchor="start" x="440.5" y="-20.4" font-family="Helvetica,sans-Serif" font-size="12.00" fill="#000000">nc:DateType</text>
</a>
</g>
<polygon fill="none" stroke="#000000" points="438,-15.5 438,-32.5 511,-32.5 511,-15.5 438,-15.5"/>
</g>
<!-- scr:StatementSignedDate&#45;&gt;nc:DateType -->
<g id="edge2" class="edge">
<title>scr:StatementSignedDate&#45;&gt;nc:DateType</title>
<path fill="none" stroke="#000000" d="M379.0629,-24C395.7893,-24 412.9057,-24 427.9402,-24"/>
<polygon fill="#000000" stroke="#000000" points="427.9857,-27.5001 437.9857,-24 427.9857,-20.5001 427.9857,-27.5001"/>
<text text-anchor="middle" x="408.5" y="-27.4" font-family="Helvetica,sans-Serif" font-size="12.00" fill="#000000">type</text>
</g>
<!-- Types -->
<g id="node2" class="node">
<title>Types</title>
<text text-anchor="start" x="2.5" y="-21.4" font-family="Helvetica,sans-Serif" font-weight="bold" font-size="12.00" fill="#000000">Types</text>
<g id="a_node2_1"><a xlink:href="../../scr/InterviewStatementType/#diagram" xlink:title="A data type for a DOCUMENT resulting from a meeting between a representative of an agency of the Department of Homeland Security (DHS) and an individual." target="_top">
<polygon fill="#ebebeb" stroke="transparent" points="1.5,-1 1.5,-16 152.5,-16 152.5,-1 1.5,-1"/>
<text text-anchor="start" x="2.5" y="-5.4" font-family="Helvetica,sans-Serif" font-size="12.00" fill="#000000">scr:InterviewStatementType</text>
</a>
</g>
<polygon fill="#000000" stroke="#000000" points=".5,-16 .5,-16 153.5,-16 153.5,-16 .5,-16"/>
<polygon fill="none" stroke="#000000" points="0,0 0,-32 153,-32 153,0 0,0"/>
</g>
<!-- Types&#45;&gt;scr:StatementSignedDate -->
<g id="edge1" class="edge">
<title>Types:top&#45;&gt;scr:StatementSignedDate</title>
<path fill="none" stroke="#000000" d="M152.5,-24C170.9961,-24 190.8013,-24 209.692,-24"/>
<polygon fill="#000000" stroke="#000000" points="209.7758,-27.5001 219.7757,-24 209.7757,-20.5001 209.7758,-27.5001"/>
<text text-anchor="middle" x="186.5" y="-27.4" font-family="Helvetica,sans-Serif" font-size="12.00" fill="#000000">has&#45;a</text>
</g>
</g>
</svg>
