<?xml version="1.0" encoding="UTF-8" standalone="no"?>
<!DOCTYPE svg PUBLIC "-//W3C//DTD SVG 1.1//EN"
 "http://www.w3.org/Graphics/SVG/1.1/DTD/svg11.dtd">
<!-- Generated by graphviz version 2.40.1 (20161225.0304)
 -->
<!-- Title: graphic Pages: 1 -->
<svg width="637pt" height="45pt"
 viewBox="0.00 0.00 637.00 45.00" xmlns="http://www.w3.org/2000/svg" xmlns:xlink="http://www.w3.org/1999/xlink">
<g id="graph0" class="graph" transform="scale(1 1) rotate(0) translate(4 41)">
<title>graphic</title>
<polygon fill="#ffffff" stroke="transparent" points="-4,4 -4,-41 633,-41 633,4 -4,4"/>
<!-- j:ActivityNetworkAddressAssociationAugmentationPoint -->
<g id="node1" class="node">
<title>j:ActivityNetworkAddressAssociationAugmentationPoint</title>
<text text-anchor="start" x="298.5" y="-21.4" font-family="Helvetica,sans-Serif" font-weight="bold" font-size="12.00" fill="#000000">j:ActivityNetworkAddressAssociationAugmentationPoint</text>
<polygon fill="none" stroke="#ff0000" stroke-width="5" points="294.5,-14 294.5,-34 626.5,-34 626.5,-14 294.5,-14"/>
</g>
<!-- Types -->
<g id="node2" class="node">
<title>Types</title>
<text text-anchor="start" x="2.5" y="-21.4" font-family="Helvetica,sans-Serif" font-weight="bold" font-size="12.00" fill="#000000">Types</text>
<g id="a_node2_0"><a xlink:href="../../j/ActivityNetworkAddressAssociationType/#diagram" xlink:title="A data type for a relationship between an activity and a network address." target="_top">
<polygon fill="#ebebeb" stroke="transparent" points="1.5,-1 1.5,-16 224.5,-16 224.5,-1 1.5,-1"/>
<text text-anchor="start" x="2.5" y="-5.4" font-family="Helvetica,sans-Serif" font-size="12.00" fill="#000000">j:ActivityNetworkAddressAssociationType</text>
</a>
</g>
<polygon fill="#000000" stroke="#000000" points=".5,-16 .5,-16 225.5,-16 225.5,-16 .5,-16"/>
<polygon fill="none" stroke="#000000" points="0,0 0,-32 225,-32 225,0 0,0"/>
</g>
<!-- Types&#45;&gt;j:ActivityNetworkAddressAssociationAugmentationPoint -->
<g id="edge1" class="edge">
<title>Types:top&#45;&gt;j:ActivityNetworkAddressAssociationAugmentationPoint</title>
<path fill="none" stroke="#000000" d="M224.5,-24C243.0791,-24 262.481,-24 281.8312,-24"/>
<polygon fill="#000000" stroke="#000000" points="281.9409,-27.5001 291.9408,-24 281.9408,-20.5001 281.9409,-27.5001"/>
<text text-anchor="middle" x="258.5" y="-27.4" font-family="Helvetica,sans-Serif" font-size="12.00" fill="#000000">has&#45;a</text>
</g>
</g>
</svg>
