<?xml version="1.0" encoding="UTF-8" standalone="no"?>
<!DOCTYPE svg PUBLIC "-//W3C//DTD SVG 1.1//EN"
 "http://www.w3.org/Graphics/SVG/1.1/DTD/svg11.dtd">
<!-- Generated by graphviz version 2.40.1 (20161225.0304)
 -->
<!-- Title: graphic Pages: 1 -->
<svg width="702pt" height="177pt"
 viewBox="0.00 0.00 702.00 176.50" xmlns="http://www.w3.org/2000/svg" xmlns:xlink="http://www.w3.org/1999/xlink">
<g id="graph0" class="graph" transform="scale(1 1) rotate(0) translate(4 172.5)">
<title>graphic</title>
<polygon fill="#ffffff" stroke="transparent" points="-4,4 -4,-172.5 698,-172.5 698,4 -4,4"/>
<!-- nc:DocumentCategoryAbstract -->
<g id="node1" class="node">
<title>nc:DocumentCategoryAbstract</title>
<text text-anchor="start" x="342.5" y="-152.9" font-family="Helvetica,sans-Serif" font-weight="bold" font-size="12.00" fill="#000000">nc:DocumentCategoryAbstract</text>
<polygon fill="none" stroke="#ff0000" stroke-width="5" points="339,-145.5 339,-165.5 524,-165.5 524,-145.5 339,-145.5"/>
</g>
<!-- SubstitutableElements -->
<g id="node3" class="node">
<title>SubstitutableElements</title>
<text text-anchor="start" x="171.5" y="-95.9" font-family="Helvetica,sans-Serif" font-weight="bold" font-size="12.00" fill="#000000">Substitutable elements</text>
<g id="a_node3_0"><a xlink:href="../../em/InteragencyCommunicationCategoryCode/#diagram" xlink:title="A kind of interagency communication document." target="_top">
<polygon fill="#ebebeb" stroke="transparent" points="170.5,-75.5 170.5,-90.5 693.5,-90.5 693.5,-75.5 170.5,-75.5"/>
<text text-anchor="start" x="171.5" y="-79.9" font-family="Helvetica,sans-Serif" font-size="12.00" fill="#000000">em:InteragencyCommunicationCategoryCode: em:InteragencyCommunicationCategoryCodeType</text>
</a>
</g>
<g id="a_node3_1"><a xlink:href="../../em/PublicCommunicationCategoryCode/#diagram" xlink:title="A kind of public communication document." target="_top">
<text text-anchor="start" x="171.5" y="-64.9" font-family="Helvetica,sans-Serif" font-size="12.00" fill="#000000">em:PublicCommunicationCategoryCode: em:PublicCommunicationCategoryCodeType</text>
</a>
</g>
<g id="a_node3_2"><a xlink:href="../../scr/DocumentCategoryCode/#diagram" xlink:title="A kind of document." target="_top">
<polygon fill="#ebebeb" stroke="transparent" points="170.5,-45.5 170.5,-60.5 693.5,-60.5 693.5,-45.5 170.5,-45.5"/>
<text text-anchor="start" x="171.5" y="-49.9" font-family="Helvetica,sans-Serif" font-size="12.00" fill="#000000">scr:DocumentCategoryCode: scr:DocumentCategoryCodeType</text>
</a>
</g>
<g id="a_node3_3"><a xlink:href="../../nc/DocumentCategoryID/#diagram" xlink:title="An identifier of a kind of information in a document." target="_top">
<text text-anchor="start" x="171.5" y="-34.9" font-family="Helvetica,sans-Serif" font-size="12.00" fill="#000000">nc:DocumentCategoryID: niem&#45;xs:string</text>
</a>
</g>
<g id="a_node3_4"><a xlink:href="../../nc/DocumentCategoryName/#diagram" xlink:title="A name of a category of information in a document." target="_top">
<polygon fill="#ebebeb" stroke="transparent" points="170.5,-15.5 170.5,-30.5 693.5,-30.5 693.5,-15.5 170.5,-15.5"/>
<text text-anchor="start" x="171.5" y="-19.9" font-family="Helvetica,sans-Serif" font-size="12.00" fill="#000000">nc:DocumentCategoryName: nc:TextType</text>
</a>
</g>
<g id="a_node3_5"><a xlink:href="../../nc/DocumentCategoryText/#diagram" xlink:title="A kind of document; a nature or genre of the content." target="_top">
<text text-anchor="start" x="171.5" y="-4.9" font-family="Helvetica,sans-Serif" font-size="12.00" fill="#000000">nc:DocumentCategoryText: nc:TextType</text>
</a>
</g>
<polygon fill="#000000" stroke="#000000" points="169.5,-90.5 169.5,-90.5 694.5,-90.5 694.5,-90.5 169.5,-90.5"/>
<polygon fill="none" stroke="#000000" points="169,0 169,-107 694,-107 694,0 169,0"/>
</g>
<!-- nc:DocumentCategoryAbstract&#45;&gt;SubstitutableElements -->
<g id="edge2" class="edge">
<title>nc:DocumentCategoryAbstract&#45;&gt;SubstitutableElements</title>
<path fill="none" stroke="#000000" d="M431.5,-132.4716C431.5,-124.8788 431.5,-116.0883 431.5,-107.1883"/>
<polygon fill="#000000" stroke="#000000" points="428.0001,-132.6123 431.5,-142.6123 435.0001,-132.6124 428.0001,-132.6123"/>
<text text-anchor="middle" x="422" y="-121.9" font-family="Helvetica,sans-Serif" font-size="12.00" fill="#000000">substitutable for</text>
</g>
<!-- Types -->
<g id="node2" class="node">
<title>Types</title>
<text text-anchor="start" x="2" y="-152.9" font-family="Helvetica,sans-Serif" font-weight="bold" font-size="12.00" fill="#000000">Types</text>
<g id="a_node2_6"><a xlink:href="../../nc/DocumentType/#diagram" xlink:title="A data type for a paper or electronic document." target="_top">
<polygon fill="#ebebeb" stroke="transparent" points="1,-132.5 1,-147.5 101,-147.5 101,-132.5 1,-132.5"/>
<text text-anchor="start" x="2" y="-136.9" font-family="Helvetica,sans-Serif" font-size="12.00" fill="#000000">nc:DocumentType</text>
</a>
</g>
<polygon fill="#000000" stroke="#000000" points="0,-147.5 0,-147.5 102,-147.5 102,-147.5 0,-147.5"/>
<polygon fill="none" stroke="#000000" points="0,-131.5 0,-163.5 102,-163.5 102,-131.5 0,-131.5"/>
</g>
<!-- Types&#45;&gt;nc:DocumentCategoryAbstract -->
<g id="edge1" class="edge">
<title>Types:top&#45;&gt;nc:DocumentCategoryAbstract</title>
<path fill="none" stroke="#000000" d="M101,-155.5C176.2975,-155.5 261.2446,-155.5 326.162,-155.5"/>
<polygon fill="#000000" stroke="#000000" points="326.4044,-159.0001 336.4044,-155.5 326.4043,-152.0001 326.4044,-159.0001"/>
<text text-anchor="middle" x="135.5" y="-158.9" font-family="Helvetica,sans-Serif" font-size="12.00" fill="#000000">has&#45;a</text>
</g>
</g>
</svg>
