<?xml version="1.0" encoding="UTF-8" standalone="no"?>
<!DOCTYPE svg PUBLIC "-//W3C//DTD SVG 1.1//EN"
 "http://www.w3.org/Graphics/SVG/1.1/DTD/svg11.dtd">
<!-- Generated by graphviz version 2.40.1 (20161225.0304)
 -->
<!-- Title: graphic Pages: 1 -->
<svg width="582pt" height="45pt"
 viewBox="0.00 0.00 582.00 45.00" xmlns="http://www.w3.org/2000/svg" xmlns:xlink="http://www.w3.org/1999/xlink">
<g id="graph0" class="graph" transform="scale(1 1) rotate(0) translate(4 41)">
<title>graphic</title>
<polygon fill="#ffffff" stroke="transparent" points="-4,4 -4,-41 578,-41 578,4 -4,4"/>
<!-- stat:ClassificationItemLinkedItemText -->
<g id="node1" class="node">
<title>stat:ClassificationItemLinkedItemText</title>
<text text-anchor="start" x="221.5" y="-21.4" font-family="Helvetica,sans-Serif" font-weight="bold" font-size="12.00" fill="#000000">stat:ClassificationItemLinkedItemText</text>
<polygon fill="none" stroke="#ff0000" stroke-width="5" points="217.5,-14 217.5,-34 441.5,-34 441.5,-14 217.5,-14"/>
</g>
<!-- nc:TextType -->
<g id="node3" class="node">
<title>nc:TextType</title>
<g id="a_node3_0"><a xlink:href="../../nc/TextType/#diagram" xlink:title="A data type for a character string." target="_top">
<text text-anchor="start" x="505.5" y="-20.4" font-family="Helvetica,sans-Serif" font-size="12.00" fill="#000000">nc:TextType</text>
</a>
</g>
<polygon fill="none" stroke="#000000" points="503,-15.5 503,-32.5 574,-32.5 574,-15.5 503,-15.5"/>
</g>
<!-- stat:ClassificationItemLinkedItemText&#45;&gt;nc:TextType -->
<g id="edge2" class="edge">
<title>stat:ClassificationItemLinkedItemText&#45;&gt;nc:TextType</title>
<path fill="none" stroke="#000000" d="M444.089,-24C461.2266,-24 477.9989,-24 492.539,-24"/>
<polygon fill="#000000" stroke="#000000" points="492.7053,-27.5001 502.7053,-24 492.7052,-20.5001 492.7053,-27.5001"/>
<text text-anchor="middle" x="473.5" y="-27.4" font-family="Helvetica,sans-Serif" font-size="12.00" fill="#000000">type</text>
</g>
<!-- Types -->
<g id="node2" class="node">
<title>Types</title>
<text text-anchor="start" x="2" y="-21.4" font-family="Helvetica,sans-Serif" font-weight="bold" font-size="12.00" fill="#000000">Types</text>
<g id="a_node2_1"><a xlink:href="../../stat/ClassificationItemType/#diagram" xlink:title="A data type for a classification item represents a category at a certain level within a statistical classification. It defines the content and the borders of the category. A unit can be classified to one and only one item at each level of a statistical classification." target="_top">
<polygon fill="#ebebeb" stroke="transparent" points="1,-1 1,-16 147,-16 147,-1 1,-1"/>
<text text-anchor="start" x="2" y="-5.4" font-family="Helvetica,sans-Serif" font-size="12.00" fill="#000000">stat:ClassificationItemType</text>
</a>
</g>
<polygon fill="#000000" stroke="#000000" points="0,-16 0,-16 148,-16 148,-16 0,-16"/>
<polygon fill="none" stroke="#000000" points="0,0 0,-32 148,-32 148,0 0,0"/>
</g>
<!-- Types&#45;&gt;stat:ClassificationItemLinkedItemText -->
<g id="edge1" class="edge">
<title>Types:top&#45;&gt;stat:ClassificationItemLinkedItemText</title>
<path fill="none" stroke="#000000" d="M147,-24C165.6168,-24 185.3019,-24 204.5841,-24"/>
<polygon fill="#000000" stroke="#000000" points="204.623,-27.5001 214.623,-24 204.623,-20.5001 204.623,-27.5001"/>
<text text-anchor="middle" x="181.5" y="-27.4" font-family="Helvetica,sans-Serif" font-size="12.00" fill="#000000">has&#45;a</text>
</g>
</g>
</svg>
