<?xml version="1.0" encoding="UTF-8" standalone="no"?>
<!DOCTYPE svg PUBLIC "-//W3C//DTD SVG 1.1//EN"
 "http://www.w3.org/Graphics/SVG/1.1/DTD/svg11.dtd">
<!-- Generated by graphviz version 2.40.1 (20161225.0304)
 -->
<!-- Title: graphic Pages: 1 -->
<svg width="482pt" height="45pt"
 viewBox="0.00 0.00 482.00 45.00" xmlns="http://www.w3.org/2000/svg" xmlns:xlink="http://www.w3.org/1999/xlink">
<g id="graph0" class="graph" transform="scale(1 1) rotate(0) translate(4 41)">
<title>graphic</title>
<polygon fill="#ffffff" stroke="transparent" points="-4,4 -4,-41 478,-41 478,4 -4,4"/>
<!-- j:RapSheetPersonDNAAugmentationPoint -->
<g id="node1" class="node">
<title>j:RapSheetPersonDNAAugmentationPoint</title>
<text text-anchor="start" x="227.5" y="-21.4" font-family="Helvetica,sans-Serif" font-weight="bold" font-size="12.00" fill="#000000">j:RapSheetPersonDNAAugmentationPoint</text>
<polygon fill="none" stroke="#ff0000" stroke-width="5" points="223.5,-14 223.5,-34 471.5,-34 471.5,-14 223.5,-14"/>
</g>
<!-- Types -->
<g id="node2" class="node">
<title>Types</title>
<text text-anchor="start" x="2" y="-21.4" font-family="Helvetica,sans-Serif" font-weight="bold" font-size="12.00" fill="#000000">Types</text>
<g id="a_node2_0"><a xlink:href="../../j/RapSheetPersonDNAType/#diagram" xlink:title="A data type for an element in the rap sheet used solely to report that a DNA sample has been taken from the subject and is available from a specific agency." target="_top">
<polygon fill="#ebebeb" stroke="transparent" points="1,-1 1,-16 153,-16 153,-1 1,-1"/>
<text text-anchor="start" x="2" y="-5.4" font-family="Helvetica,sans-Serif" font-size="12.00" fill="#000000">j:RapSheetPersonDNAType</text>
</a>
</g>
<polygon fill="#000000" stroke="#000000" points="0,-16 0,-16 154,-16 154,-16 0,-16"/>
<polygon fill="none" stroke="#000000" points="0,0 0,-32 154,-32 154,0 0,0"/>
</g>
<!-- Types&#45;&gt;j:RapSheetPersonDNAAugmentationPoint -->
<g id="edge1" class="edge">
<title>Types:top&#45;&gt;j:RapSheetPersonDNAAugmentationPoint</title>
<path fill="none" stroke="#000000" d="M153,-24C171.6908,-24 191.3918,-24 210.7925,-24"/>
<polygon fill="#000000" stroke="#000000" points="210.9036,-27.5001 220.9036,-24 210.9035,-20.5001 210.9036,-27.5001"/>
<text text-anchor="middle" x="187.5" y="-27.4" font-family="Helvetica,sans-Serif" font-size="12.00" fill="#000000">has&#45;a</text>
</g>
</g>
</svg>
