<?xml version="1.0" encoding="UTF-8" standalone="no"?>
<!DOCTYPE svg PUBLIC "-//W3C//DTD SVG 1.1//EN"
 "http://www.w3.org/Graphics/SVG/1.1/DTD/svg11.dtd">
<!-- Generated by graphviz version 2.40.1 (20161225.0304)
 -->
<!-- Title: graphic Pages: 1 -->
<svg width="503pt" height="45pt"
 viewBox="0.00 0.00 503.00 45.00" xmlns="http://www.w3.org/2000/svg" xmlns:xlink="http://www.w3.org/1999/xlink">
<g id="graph0" class="graph" transform="scale(1 1) rotate(0) translate(4 41)">
<title>graphic</title>
<polygon fill="#ffffff" stroke="transparent" points="-4,4 -4,-41 499,-41 499,4 -4,4"/>
<!-- j:IncidentDamagedItem -->
<g id="node1" class="node">
<title>j:IncidentDamagedItem</title>
<text text-anchor="start" x="226.5" y="-21.4" font-family="Helvetica,sans-Serif" font-weight="bold" font-size="12.00" fill="#000000">j:IncidentDamagedItem</text>
<polygon fill="none" stroke="#ff0000" stroke-width="5" points="222.5,-14 222.5,-34 362.5,-34 362.5,-14 222.5,-14"/>
</g>
<!-- nc:ItemType -->
<g id="node3" class="node">
<title>nc:ItemType</title>
<g id="a_node3_0"><a xlink:href="../../nc/ItemType/#diagram" xlink:title="A data type for an article or thing." target="_top">
<text text-anchor="start" x="426.5" y="-20.4" font-family="Helvetica,sans-Serif" font-size="12.00" fill="#000000">nc:ItemType</text>
</a>
</g>
<polygon fill="none" stroke="#000000" points="424,-15.5 424,-32.5 495,-32.5 495,-15.5 424,-15.5"/>
</g>
<!-- j:IncidentDamagedItem&#45;&gt;nc:ItemType -->
<g id="edge2" class="edge">
<title>j:IncidentDamagedItem&#45;&gt;nc:ItemType</title>
<path fill="none" stroke="#000000" d="M365.2628,-24C381.5306,-24 398.3512,-24 413.1993,-24"/>
<polygon fill="#000000" stroke="#000000" points="413.6263,-27.5001 423.6262,-24 413.6262,-20.5001 413.6263,-27.5001"/>
<text text-anchor="middle" x="394.5" y="-27.4" font-family="Helvetica,sans-Serif" font-size="12.00" fill="#000000">type</text>
</g>
<!-- Types -->
<g id="node2" class="node">
<title>Types</title>
<text text-anchor="start" x="2.5" y="-21.4" font-family="Helvetica,sans-Serif" font-weight="bold" font-size="12.00" fill="#000000">Types</text>
<g id="a_node2_1"><a xlink:href="../../j/IncidentAugmentationType/#diagram" xlink:title="A data type for additional information about an incident." target="_top">
<polygon fill="#ebebeb" stroke="transparent" points="1.5,-1 1.5,-16 152.5,-16 152.5,-1 1.5,-1"/>
<text text-anchor="start" x="2.5" y="-5.4" font-family="Helvetica,sans-Serif" font-size="12.00" fill="#000000">j:IncidentAugmentationType</text>
</a>
</g>
<polygon fill="#000000" stroke="#000000" points=".5,-16 .5,-16 153.5,-16 153.5,-16 .5,-16"/>
<polygon fill="none" stroke="#000000" points="0,0 0,-32 153,-32 153,0 0,0"/>
</g>
<!-- Types&#45;&gt;j:IncidentDamagedItem -->
<g id="edge1" class="edge">
<title>Types:top&#45;&gt;j:IncidentDamagedItem</title>
<path fill="none" stroke="#000000" d="M152.5,-24C171.0425,-24 190.9664,-24 209.8017,-24"/>
<polygon fill="#000000" stroke="#000000" points="209.8374,-27.5001 219.8373,-24 209.8373,-20.5001 209.8374,-27.5001"/>
<text text-anchor="middle" x="186.5" y="-27.4" font-family="Helvetica,sans-Serif" font-size="12.00" fill="#000000">has&#45;a</text>
</g>
</g>
</svg>
