<?xml version="1.0" encoding="UTF-8" standalone="no"?>
<!DOCTYPE svg PUBLIC "-//W3C//DTD SVG 1.1//EN"
 "http://www.w3.org/Graphics/SVG/1.1/DTD/svg11.dtd">
<!-- Generated by graphviz version 2.40.1 (20161225.0304)
 -->
<!-- Title: graphic Pages: 1 -->
<svg width="528pt" height="45pt"
 viewBox="0.00 0.00 528.00 45.00" xmlns="http://www.w3.org/2000/svg" xmlns:xlink="http://www.w3.org/1999/xlink">
<g id="graph0" class="graph" transform="scale(1 1) rotate(0) translate(4 41)">
<title>graphic</title>
<polygon fill="#ffffff" stroke="transparent" points="-4,4 -4,-41 524,-41 524,4 -4,4"/>
<!-- nc:DocumentSubmissionAmount -->
<g id="node1" class="node">
<title>nc:DocumentSubmissionAmount</title>
<text text-anchor="start" x="175.5" y="-21.4" font-family="Helvetica,sans-Serif" font-weight="bold" font-size="12.00" fill="#000000">nc:DocumentSubmissionAmount</text>
<polygon fill="none" stroke="#ff0000" stroke-width="5" points="171.5,-14 171.5,-34 369.5,-34 369.5,-14 171.5,-14"/>
</g>
<!-- nc:AmountType -->
<g id="node3" class="node">
<title>nc:AmountType</title>
<g id="a_node3_0"><a xlink:href="../../nc/AmountType/#diagram" xlink:title="A data type for an amount of money." target="_top">
<text text-anchor="start" x="433.5" y="-20.4" font-family="Helvetica,sans-Serif" font-size="12.00" fill="#000000">nc:AmountType</text>
</a>
</g>
<polygon fill="none" stroke="#000000" points="431,-15.5 431,-32.5 520,-32.5 520,-15.5 431,-15.5"/>
</g>
<!-- nc:DocumentSubmissionAmount&#45;&gt;nc:AmountType -->
<g id="edge2" class="edge">
<title>nc:DocumentSubmissionAmount&#45;&gt;nc:AmountType</title>
<path fill="none" stroke="#000000" d="M372.0991,-24C388.8688,-24 405.6705,-24 420.7088,-24"/>
<polygon fill="#000000" stroke="#000000" points="420.8161,-27.5001 430.8161,-24 420.8161,-20.5001 420.8161,-27.5001"/>
<text text-anchor="middle" x="401.5" y="-27.4" font-family="Helvetica,sans-Serif" font-size="12.00" fill="#000000">type</text>
</g>
<!-- Types -->
<g id="node2" class="node">
<title>Types</title>
<text text-anchor="start" x="2" y="-21.4" font-family="Helvetica,sans-Serif" font-weight="bold" font-size="12.00" fill="#000000">Types</text>
<g id="a_node2_1"><a xlink:href="../../nc/DocumentType/#diagram" xlink:title="A data type for a paper or electronic document." target="_top">
<polygon fill="#ebebeb" stroke="transparent" points="1,-1 1,-16 101,-16 101,-1 1,-1"/>
<text text-anchor="start" x="2" y="-5.4" font-family="Helvetica,sans-Serif" font-size="12.00" fill="#000000">nc:DocumentType</text>
</a>
</g>
<polygon fill="#000000" stroke="#000000" points="0,-16 0,-16 102,-16 102,-16 0,-16"/>
<polygon fill="none" stroke="#000000" points="0,0 0,-32 102,-32 102,0 0,0"/>
</g>
<!-- Types&#45;&gt;nc:DocumentSubmissionAmount -->
<g id="edge1" class="edge">
<title>Types:top&#45;&gt;nc:DocumentSubmissionAmount</title>
<path fill="none" stroke="#000000" d="M101,-24C119.669,-24 139.4945,-24 158.7569,-24"/>
<polygon fill="#000000" stroke="#000000" points="158.7695,-27.5001 168.7695,-24 158.7695,-20.5001 158.7695,-27.5001"/>
<text text-anchor="middle" x="135.5" y="-27.4" font-family="Helvetica,sans-Serif" font-size="12.00" fill="#000000">has&#45;a</text>
</g>
</g>
</svg>
