<?xml version="1.0" encoding="UTF-8" standalone="no"?>
<!DOCTYPE svg PUBLIC "-//W3C//DTD SVG 1.1//EN"
 "http://www.w3.org/Graphics/SVG/1.1/DTD/svg11.dtd">
<!-- Generated by graphviz version 2.40.1 (20161225.0304)
 -->
<!-- Title: graphic Pages: 1 -->
<svg width="934pt" height="282pt"
 viewBox="0.00 0.00 934.00 282.00" xmlns="http://www.w3.org/2000/svg" xmlns:xlink="http://www.w3.org/1999/xlink">
<g id="graph0" class="graph" transform="scale(1 1) rotate(0) translate(4 278)">
<title>graphic</title>
<polygon fill="#ffffff" stroke="transparent" points="-4,4 -4,-278 930,-278 930,4 -4,4"/>
<!-- m:InternationalShipSecurityCertificateType -->
<g id="node1" class="node">
<title>m:InternationalShipSecurityCertificateType</title>
<text text-anchor="start" x="147" y="-99.9" font-family="Helvetica,sans-Serif" font-weight="bold" font-size="12.00" fill="#000000">m:InternationalShipSecurityCertificateType</text>
<g id="a_node1_0"><a xlink:href="../../m/ReasonInterimISSCIssuedAbstract/#diagram" xlink:title="A data concept for a reason why an interim International Ship Security Certificate (ISSC) was issued." target="_top">
<polygon fill="#ebebeb" stroke="transparent" points="146,-79.5 146,-94.5 556,-94.5 556,-79.5 146,-79.5"/>
<text text-anchor="start" x="147" y="-83.9" font-family="Helvetica,sans-Serif" font-size="12.00" fill="#000000">m:ReasonInterimISSCIssuedAbstract [0&#45;n]</text>
</a>
</g>
<g id="a_node1_1"><a xlink:href="../../m/RecognizedISSCSecurityEntity/#diagram" xlink:title="A Recognized Security Organization/Flag Administration for an International Ship Security Certificate (ISSC)." target="_top">
<text text-anchor="start" x="147" y="-68.9" font-family="Helvetica,sans-Serif" font-size="12.00" fill="#000000">m:RecognizedISSCSecurityEntity: nc:EntityType [0&#45;n]</text>
</a>
</g>
<g id="a_node1_2"><a xlink:href="../../m/ISSCCategoryAbstract/#diagram" xlink:title="A data concept for a kind or category of International Ship Security Certificate (ISSC)." target="_top">
<polygon fill="#ebebeb" stroke="transparent" points="146,-49.5 146,-64.5 556,-64.5 556,-49.5 146,-49.5"/>
<text text-anchor="start" x="147" y="-53.9" font-family="Helvetica,sans-Serif" font-size="12.00" fill="#000000">m:ISSCCategoryAbstract [0&#45;n]</text>
</a>
</g>
<g id="a_node1_3"><a xlink:href="../../m/VesselSecurityOfficerContactInformation/#diagram" xlink:title="A set of contact information for the appointed Company Security Officer (CSO) of a vessel." target="_top">
<text text-anchor="start" x="147" y="-38.9" font-family="Helvetica,sans-Serif" font-size="12.00" fill="#000000">m:VesselSecurityOfficerContactInformation: nc:ContactInformationType [0&#45;n]</text>
</a>
</g>
<g id="a_node1_4"><a xlink:href="../../m/VesselSecurityPlanImplementedIndicator/#diagram" xlink:title="True if a vessel has implemented a Vessel Security Plan (VSP); false otherwise." target="_top">
<polygon fill="#ebebeb" stroke="transparent" points="146,-19.5 146,-34.5 556,-34.5 556,-19.5 146,-19.5"/>
<text text-anchor="start" x="147" y="-23.9" font-family="Helvetica,sans-Serif" font-size="12.00" fill="#000000">m:VesselSecurityPlanImplementedIndicator: niem&#45;xs:boolean [0&#45;n]</text>
</a>
</g>
<g id="a_node1_5"><a xlink:href="../../m/InternationalShipSecurityCertificateAugmentationPoint/#diagram" xlink:title="An augmentation point for InternationalShipSecurityCertificateType." target="_top">
<text text-anchor="start" x="147" y="-8.9" font-family="Helvetica,sans-Serif" font-size="12.00" fill="#000000">m:InternationalShipSecurityCertificateAugmentationPoint [0&#45;n]</text>
</a>
</g>
<polygon fill="#ff0000" stroke="#ff0000" points="141,-94.5 141,-94.5 561,-94.5 561,-94.5 141,-94.5"/>
<polygon fill="none" stroke="#ff0000" stroke-width="5" points="143.5,-2.5 143.5,-112.5 558.5,-112.5 558.5,-2.5 143.5,-2.5"/>
</g>
<!-- subst_d9e4407 -->
<g id="node2" class="node">
<title>subst_d9e4407</title>
<g id="a_node2_6"><a xlink:href="../../m/ReasonInterimISSCIssuedAbstract/#diagram" xlink:title="&lt;TABLE&gt;" target="_top">
<text text-anchor="start" x="600" y="-93.9" font-family="Helvetica,sans-Serif" font-weight="bold" font-size="12.00" fill="#000000">Substitution group m:ReasonInterimISSCIssuedAbstract</text>
</a>
</g>
<g id="a_node2_7"><a xlink:href="../../m/ReasonInterimISSCIssuedText/#diagram" xlink:title="A reason why an interim International Ship Security Certificate (ISSC) was issued." target="_top">
<polygon fill="#ebebeb" stroke="transparent" points="599,-73.5 599,-88.5 925,-88.5 925,-73.5 599,-73.5"/>
<text text-anchor="start" x="600" y="-77.9" font-family="Helvetica,sans-Serif" font-size="12.00" fill="#000000">m:ReasonInterimISSCIssuedText: nc:TextType</text>
</a>
</g>
<polygon fill="#000000" stroke="#000000" points="598,-88.5 598,-88.5 926,-88.5 926,-88.5 598,-88.5"/>
<polygon fill="none" stroke="#000000" points="598,-72.5 598,-104.5 926,-104.5 926,-72.5 598,-72.5"/>
</g>
<!-- m:InternationalShipSecurityCertificateType&#45;&gt;subst_d9e4407 -->
<g id="edge1" class="edge">
<title>m:InternationalShipSecurityCertificateType:e&#45;&gt;subst_d9e4407:w</title>
<path fill="none" stroke="#000000" d="M566.2313,-88.4632C577.7724,-90.7849 583.4408,-96.5 599,-96.5"/>
<polygon fill="#000000" stroke="#000000" points="566.284,-84.9527 556,-87.5 565.6279,-91.9219 566.284,-84.9527"/>
</g>
<!-- subst_d9e3631 -->
<g id="node3" class="node">
<title>subst_d9e3631</title>
<g id="a_node3_8"><a xlink:href="../../m/ISSCCategoryAbstract/#diagram" xlink:title="&lt;TABLE&gt;" target="_top">
<text text-anchor="start" x="635" y="-43.9" font-family="Helvetica,sans-Serif" font-weight="bold" font-size="12.00" fill="#000000">Substitution group m:ISSCCategoryAbstract</text>
</a>
</g>
<g id="a_node3_9"><a xlink:href="../../m/ISSCCategoryText/#diagram" xlink:title="A kind of International Ship Security Certificate (ISSC)." target="_top">
<polygon fill="#ebebeb" stroke="transparent" points="634,-23.5 634,-38.5 891,-38.5 891,-23.5 634,-23.5"/>
<text text-anchor="start" x="635" y="-27.9" font-family="Helvetica,sans-Serif" font-size="12.00" fill="#000000">m:ISSCCategoryText: nc:TextType</text>
</a>
</g>
<polygon fill="#000000" stroke="#000000" points="633,-38.5 633,-38.5 892,-38.5 892,-38.5 633,-38.5"/>
<polygon fill="none" stroke="#000000" points="632.5,-22.5 632.5,-54.5 891.5,-54.5 891.5,-22.5 632.5,-22.5"/>
</g>
<!-- m:InternationalShipSecurityCertificateType&#45;&gt;subst_d9e3631 -->
<g id="edge2" class="edge">
<title>m:InternationalShipSecurityCertificateType:e&#45;&gt;subst_d9e3631:w</title>
<path fill="none" stroke="#000000" d="M566.2255,-56.1898C592.9575,-54.5019 602.7358,-46.5 634,-46.5"/>
<polygon fill="#000000" stroke="#000000" points="565.8892,-52.6982 556,-56.5 566.1016,-59.695 565.8892,-52.6982"/>
</g>
<!-- Properties -->
<g id="node4" class="node">
<title>Properties</title>
<text text-anchor="start" x="2" y="-99.9" font-family="Helvetica,sans-Serif" font-weight="bold" font-size="12.00" fill="#000000">Properties</text>
<g id="a_node4_10"><a xlink:href="../../m/VesselISSC/#diagram" xlink:title="An International Ship Security Certificate (ISSC) for a vessel." target="_top">
<polygon fill="#ebebeb" stroke="transparent" points="1,-79.5 1,-94.5 81,-94.5 81,-79.5 1,-79.5"/>
<text text-anchor="start" x="2" y="-83.9" font-family="Helvetica,sans-Serif" font-size="12.00" fill="#000000">m:VesselISSC</text>
</a>
</g>
<polygon fill="#000000" stroke="#000000" points="0,-94.5 0,-94.5 82,-94.5 82,-94.5 0,-94.5"/>
<polygon fill="none" stroke="#000000" points="0,-78.5 0,-110.5 82,-110.5 82,-78.5 0,-78.5"/>
</g>
<!-- Properties&#45;&gt;m:InternationalShipSecurityCertificateType -->
<g id="edge3" class="edge">
<title>Properties:top&#45;&gt;m:InternationalShipSecurityCertificateType:top</title>
<path fill="none" stroke="#000000" d="M81,-102.5C106.1649,-102.5 114.8891,-102.5 135.8154,-102.5"/>
<polygon fill="#000000" stroke="#000000" points="136,-106.0001 146,-102.5 136,-99.0001 136,-106.0001"/>
<text text-anchor="middle" x="111.5" y="-105.9" font-family="Helvetica,sans-Serif" font-size="12.00" fill="#000000">type</text>
</g>
<!-- m:CertificateType -->
<g id="node5" class="node">
<title>m:CertificateType</title>
<g id="a_node5_11"><a xlink:href="../../m/CertificateType/#diagram" xlink:title="A data type for an official or government&#45;issued certificate or license." target="_top">
<text text-anchor="start" x="304" y="-155.9" font-family="Helvetica,sans-Serif" font-size="12.00" fill="#000000">m:CertificateType</text>
</a>
</g>
<polygon fill="none" stroke="#000000" points="301.5,-151 301.5,-168 400.5,-168 400.5,-151 301.5,-151"/>
</g>
<!-- m:CertificateType&#45;&gt;m:InternationalShipSecurityCertificateType -->
<g id="edge4" class="edge">
<title>m:CertificateType&#45;&gt;m:InternationalShipSecurityCertificateType</title>
<path fill="none" stroke="#000000" d="M351,-150.9079C351,-144.5936 351,-135.3582 351,-125.1194"/>
<polygon fill="#000000" stroke="#000000" points="354.5001,-125.058 351,-115.058 347.5001,-125.0581 354.5001,-125.058"/>
<text text-anchor="middle" x="341.5" y="-129.9" font-family="Helvetica,sans-Serif" font-size="12.00" fill="#000000">extension</text>
</g>
<!-- nc:DocumentType -->
<g id="node6" class="node">
<title>nc:DocumentType</title>
<g id="a_node6_12"><a xlink:href="../../nc/DocumentType/#diagram" xlink:title="A data type for a paper or electronic document." target="_top">
<text text-anchor="start" x="302" y="-208.9" font-family="Helvetica,sans-Serif" font-size="12.00" fill="#000000">nc:DocumentType</text>
</a>
</g>
<polygon fill="none" stroke="#000000" points="300,-204 300,-221 402,-221 402,-204 300,-204"/>
</g>
<!-- nc:DocumentType&#45;&gt;m:CertificateType -->
<g id="edge5" class="edge">
<title>nc:DocumentType&#45;&gt;m:CertificateType</title>
<path fill="none" stroke="#000000" d="M351,-203.911C351,-197.0124 351,-187.0696 351,-178.34"/>
<polygon fill="#000000" stroke="#000000" points="354.5001,-178.2518 351,-168.2519 347.5001,-178.2519 354.5001,-178.2518"/>
<text text-anchor="middle" x="341.5" y="-182.9" font-family="Helvetica,sans-Serif" font-size="12.00" fill="#000000">extension</text>
</g>
<!-- structures:ObjectType -->
<g id="node7" class="node">
<title>structures:ObjectType</title>
<g id="a_node7_13"><a xlink:href="../../structures/ObjectType/#diagram" xlink:title="A data type for a thing with its own lifespan that has some existence." target="_top">
<text text-anchor="start" x="292" y="-261.9" font-family="Helvetica,sans-Serif" font-size="12.00" fill="#000000">structures:ObjectType</text>
</a>
</g>
<polygon fill="none" stroke="#000000" points="290,-257 290,-274 412,-274 412,-257 290,-257"/>
</g>
<!-- structures:ObjectType&#45;&gt;nc:DocumentType -->
<g id="edge6" class="edge">
<title>structures:ObjectType&#45;&gt;nc:DocumentType</title>
<path fill="none" stroke="#000000" d="M351,-256.911C351,-250.0124 351,-240.0696 351,-231.34"/>
<polygon fill="#000000" stroke="#000000" points="354.5001,-231.2518 351,-221.2519 347.5001,-231.2519 354.5001,-231.2518"/>
<text text-anchor="middle" x="341.5" y="-235.9" font-family="Helvetica,sans-Serif" font-size="12.00" fill="#000000">extension</text>
</g>
</g>
</svg>
