<?xml version="1.0" encoding="UTF-8" standalone="no"?>
<!DOCTYPE svg PUBLIC "-//W3C//DTD SVG 1.1//EN"
 "http://www.w3.org/Graphics/SVG/1.1/DTD/svg11.dtd">
<!-- Generated by graphviz version 2.40.1 (20161225.0304)
 -->
<!-- Title: graphic Pages: 1 -->
<svg width="634pt" height="131pt"
 viewBox="0.00 0.00 634.00 130.50" xmlns="http://www.w3.org/2000/svg" xmlns:xlink="http://www.w3.org/1999/xlink">
<g id="graph0" class="graph" transform="scale(1 1) rotate(0) translate(4 126.5)">
<title>graphic</title>
<polygon fill="#ffffff" stroke="transparent" points="-4,4 -4,-126.5 630,-126.5 630,4 -4,4"/>
<!-- nc:UnsignedIntegerRangeType -->
<g id="node1" class="node">
<title>nc:UnsignedIntegerRangeType</title>
<text text-anchor="start" x="256" y="-55.4" font-family="Helvetica,sans-Serif" font-weight="bold" font-size="12.00" fill="#000000">nc:UnsignedIntegerRangeType</text>
<g id="a_node1_0"><a xlink:href="../../nc/RangeMaximumUnsignedIntegerValue/#diagram" xlink:title="A maximum value of a range." target="_top">
<polygon fill="#ebebeb" stroke="transparent" points="255,-35 255,-50 621,-50 621,-35 255,-35"/>
<text text-anchor="start" x="256" y="-39.4" font-family="Helvetica,sans-Serif" font-size="12.00" fill="#000000">nc:RangeMaximumUnsignedIntegerValue: niem&#45;xs:unsignedInt [0&#45;n]</text>
</a>
</g>
<g id="a_node1_1"><a xlink:href="../../nc/RangeMinimumUnsignedIntegerValue/#diagram" xlink:title="A minimum value of a range." target="_top">
<text text-anchor="start" x="256" y="-24.4" font-family="Helvetica,sans-Serif" font-size="12.00" fill="#000000">nc:RangeMinimumUnsignedIntegerValue: niem&#45;xs:unsignedInt [0&#45;n]</text>
</a>
</g>
<g id="a_node1_2"><a xlink:href="../../nc/UnsignedIntegerRangeAugmentationPoint/#diagram" xlink:title="An augmentation point for UnsignedIntegerRangeType." target="_top">
<polygon fill="#ebebeb" stroke="transparent" points="255,-5 255,-20 621,-20 621,-5 255,-5"/>
<text text-anchor="start" x="256" y="-9.4" font-family="Helvetica,sans-Serif" font-size="12.00" fill="#000000">nc:UnsignedIntegerRangeAugmentationPoint [0&#45;n]</text>
</a>
</g>
<polygon fill="#ff0000" stroke="#ff0000" points="250,-50 250,-50 626,-50 626,-50 250,-50"/>
<polygon fill="none" stroke="#ff0000" stroke-width="5" points="252.5,-2.5 252.5,-67.5 623.5,-67.5 623.5,-2.5 252.5,-2.5"/>
</g>
<!-- Properties -->
<g id="node2" class="node">
<title>Properties</title>
<text text-anchor="start" x="2.5" y="-55.4" font-family="Helvetica,sans-Serif" font-weight="bold" font-size="12.00" fill="#000000">Properties</text>
<g id="a_node2_3"><a xlink:href="../../nc/MeasureUnsignedIntegerRange/#diagram" xlink:title="An unsigned integer measurement range." target="_top">
<polygon fill="#ebebeb" stroke="transparent" points="1.5,-35 1.5,-50 190.5,-50 190.5,-35 1.5,-35"/>
<text text-anchor="start" x="2.5" y="-39.4" font-family="Helvetica,sans-Serif" font-size="12.00" fill="#000000">nc:MeasureUnsignedIntegerRange</text>
</a>
</g>
<polygon fill="#000000" stroke="#000000" points=".5,-50 .5,-50 191.5,-50 191.5,-50 .5,-50"/>
<polygon fill="none" stroke="#000000" points="0,-34 0,-66 191,-66 191,-34 0,-34"/>
</g>
<!-- Properties&#45;&gt;nc:UnsignedIntegerRangeType -->
<g id="edge1" class="edge">
<title>Properties:top&#45;&gt;nc:UnsignedIntegerRangeType:top</title>
<path fill="none" stroke="#000000" d="M190.5,-58C215.4714,-58 224.1284,-58 244.8937,-58"/>
<polygon fill="#000000" stroke="#000000" points="245,-61.5001 255,-58 245,-54.5001 245,-61.5001"/>
<text text-anchor="middle" x="220.5" y="-61.4" font-family="Helvetica,sans-Serif" font-size="12.00" fill="#000000">type</text>
</g>
<!-- structures:ObjectType -->
<g id="node3" class="node">
<title>structures:ObjectType</title>
<g id="a_node3_4"><a xlink:href="../../structures/ObjectType/#diagram" xlink:title="A data type for a thing with its own lifespan that has some existence." target="_top">
<text text-anchor="start" x="379" y="-110.4" font-family="Helvetica,sans-Serif" font-size="12.00" fill="#000000">structures:ObjectType</text>
</a>
</g>
<polygon fill="none" stroke="#000000" points="377,-105.5 377,-122.5 499,-122.5 499,-105.5 377,-105.5"/>
</g>
<!-- structures:ObjectType&#45;&gt;nc:UnsignedIntegerRangeType -->
<g id="edge2" class="edge">
<title>structures:ObjectType&#45;&gt;nc:UnsignedIntegerRangeType</title>
<path fill="none" stroke="#000000" d="M438,-105.4117C438,-99.1025 438,-89.9911 438,-80.4049"/>
<polygon fill="#000000" stroke="#000000" points="441.5001,-80.3408 438,-70.3408 434.5001,-80.3409 441.5001,-80.3408"/>
<text text-anchor="middle" x="428.5" y="-84.65" font-family="Helvetica,sans-Serif" font-size="12.00" fill="#000000">extension</text>
</g>
</g>
</svg>
