<?xml version="1.0" encoding="UTF-8" standalone="no"?>
<!DOCTYPE svg PUBLIC "-//W3C//DTD SVG 1.1//EN"
 "http://www.w3.org/Graphics/SVG/1.1/DTD/svg11.dtd">
<!-- Generated by graphviz version 2.40.1 (20161225.0304)
 -->
<!-- Title: graphic Pages: 1 -->
<svg width="703pt" height="176pt"
 viewBox="0.00 0.00 703.00 176.00" xmlns="http://www.w3.org/2000/svg" xmlns:xlink="http://www.w3.org/1999/xlink">
<g id="graph0" class="graph" transform="scale(1 1) rotate(0) translate(4 172)">
<title>graphic</title>
<polygon fill="#ffffff" stroke="transparent" points="-4,4 -4,-172 699,-172 699,4 -4,4"/>
<!-- j:TestResultType -->
<g id="node1" class="node">
<title>j:TestResultType</title>
<text text-anchor="start" x="133" y="-99.9" font-family="Helvetica,sans-Serif" font-weight="bold" font-size="12.00" fill="#000000">j:TestResultType</text>
<g id="a_node1_0"><a xlink:href="../../j/TestMonitorEntity/#diagram" xlink:title="An individual who monitored the test." target="_top">
<polygon fill="#ebebeb" stroke="transparent" points="132,-79.5 132,-94.5 368,-94.5 368,-79.5 132,-79.5"/>
<text text-anchor="start" x="133" y="-83.9" font-family="Helvetica,sans-Serif" font-size="12.00" fill="#000000">j:TestMonitorEntity: nc:EntityType [0&#45;n]</text>
</a>
</g>
<g id="a_node1_1"><a xlink:href="../../j/TestResultCategoryAbstract/#diagram" xlink:title="A data concept for a kind of test outcome." target="_top">
<text text-anchor="start" x="133" y="-68.9" font-family="Helvetica,sans-Serif" font-size="12.00" fill="#000000">j:TestResultCategoryAbstract [0&#45;n]</text>
</a>
</g>
<g id="a_node1_2"><a xlink:href="../../j/TestResultMeasure/#diagram" xlink:title="A measurement for a calculation or score of a test." target="_top">
<polygon fill="#ebebeb" stroke="transparent" points="132,-49.5 132,-64.5 368,-64.5 368,-49.5 132,-49.5"/>
<text text-anchor="start" x="133" y="-53.9" font-family="Helvetica,sans-Serif" font-size="12.00" fill="#000000">j:TestResultMeasure: nc:MeasureType [0&#45;n]</text>
</a>
</g>
<g id="a_node1_3"><a xlink:href="../../j/TestResultText/#diagram" xlink:title="A test results." target="_top">
<text text-anchor="start" x="133" y="-38.9" font-family="Helvetica,sans-Serif" font-size="12.00" fill="#000000">j:TestResultText: nc:TextType [0&#45;n]</text>
</a>
</g>
<g id="a_node1_4"><a xlink:href="../../j/TestSpecimenID/#diagram" xlink:title="A unique identifier of a test specimen." target="_top">
<polygon fill="#ebebeb" stroke="transparent" points="132,-19.5 132,-34.5 368,-34.5 368,-19.5 132,-19.5"/>
<text text-anchor="start" x="133" y="-23.9" font-family="Helvetica,sans-Serif" font-size="12.00" fill="#000000">j:TestSpecimenID: niem&#45;xs:string [0&#45;n]</text>
</a>
</g>
<g id="a_node1_5"><a xlink:href="../../j/TestResultAugmentationPoint/#diagram" xlink:title="An augmentation point for type j:TestResultType" target="_top">
<text text-anchor="start" x="133" y="-8.9" font-family="Helvetica,sans-Serif" font-size="12.00" fill="#000000">j:TestResultAugmentationPoint [0&#45;n]</text>
</a>
</g>
<polygon fill="#ff0000" stroke="#ff0000" points="127,-94.5 127,-94.5 373,-94.5 373,-94.5 127,-94.5"/>
<polygon fill="none" stroke="#ff0000" stroke-width="5" points="129.5,-2.5 129.5,-112.5 370.5,-112.5 370.5,-2.5 129.5,-2.5"/>
</g>
<!-- subst_d9e48708 -->
<g id="node2" class="node">
<title>subst_d9e48708</title>
<g id="a_node2_6"><a xlink:href="../../j/TestResultCategoryAbstract/#diagram" xlink:title="&lt;TABLE&gt;" target="_top">
<text text-anchor="start" x="412.5" y="-69.9" font-family="Helvetica,sans-Serif" font-weight="bold" font-size="12.00" fill="#000000">Substitution group j:TestResultCategoryAbstract</text>
</a>
</g>
<g id="a_node2_7"><a xlink:href="../../j/TestResultCategoryText/#diagram" xlink:title="A kind of test outcome." target="_top">
<polygon fill="#ebebeb" stroke="transparent" points="411.5,-49.5 411.5,-64.5 694.5,-64.5 694.5,-49.5 411.5,-49.5"/>
<text text-anchor="start" x="412.5" y="-53.9" font-family="Helvetica,sans-Serif" font-size="12.00" fill="#000000">j:TestResultCategoryText: nc:TextType</text>
</a>
</g>
<polygon fill="#000000" stroke="#000000" points="410.5,-64.5 410.5,-64.5 695.5,-64.5 695.5,-64.5 410.5,-64.5"/>
<polygon fill="none" stroke="#000000" points="410,-48.5 410,-80.5 695,-80.5 695,-48.5 410,-48.5"/>
</g>
<!-- j:TestResultType&#45;&gt;subst_d9e48708 -->
<g id="edge1" class="edge">
<title>j:TestResultType:e&#45;&gt;subst_d9e48708:w</title>
<path fill="none" stroke="#000000" d="M378.2295,-72.5C389.8951,-72.5 396.0938,-72.5 411.5,-72.5"/>
<polygon fill="#000000" stroke="#000000" points="378,-69.0001 368,-72.5 378,-76.0001 378,-69.0001"/>
</g>
<!-- Properties -->
<g id="node3" class="node">
<title>Properties</title>
<text text-anchor="start" x="2" y="-99.9" font-family="Helvetica,sans-Serif" font-weight="bold" font-size="12.00" fill="#000000">Properties</text>
<g id="a_node3_8"><a xlink:href="../../j/TestResult/#diagram" xlink:title="A data type for a calculation or score of a test." target="_top">
<polygon fill="#ebebeb" stroke="transparent" points="1,-79.5 1,-94.5 67,-94.5 67,-79.5 1,-79.5"/>
<text text-anchor="start" x="2" y="-83.9" font-family="Helvetica,sans-Serif" font-size="12.00" fill="#000000">j:TestResult</text>
</a>
</g>
<polygon fill="#000000" stroke="#000000" points="0,-94.5 0,-94.5 68,-94.5 68,-94.5 0,-94.5"/>
<polygon fill="none" stroke="#000000" points="0,-78.5 0,-110.5 68,-110.5 68,-78.5 0,-78.5"/>
</g>
<!-- Properties&#45;&gt;j:TestResultType -->
<g id="edge2" class="edge">
<title>Properties:top&#45;&gt;j:TestResultType:top</title>
<path fill="none" stroke="#000000" d="M67,-102.5C92.1649,-102.5 100.8891,-102.5 121.8154,-102.5"/>
<polygon fill="#000000" stroke="#000000" points="122,-106.0001 132,-102.5 122,-99.0001 122,-106.0001"/>
<text text-anchor="middle" x="97.5" y="-105.9" font-family="Helvetica,sans-Serif" font-size="12.00" fill="#000000">type</text>
</g>
<!-- structures:ObjectType -->
<g id="node4" class="node">
<title>structures:ObjectType</title>
<g id="a_node4_9"><a xlink:href="../../structures/ObjectType/#diagram" xlink:title="A data type for a thing with its own lifespan that has some existence." target="_top">
<text text-anchor="start" x="191" y="-155.9" font-family="Helvetica,sans-Serif" font-size="12.00" fill="#000000">structures:ObjectType</text>
</a>
</g>
<polygon fill="none" stroke="#000000" points="189,-151 189,-168 311,-168 311,-151 189,-151"/>
</g>
<!-- structures:ObjectType&#45;&gt;j:TestResultType -->
<g id="edge3" class="edge">
<title>structures:ObjectType&#45;&gt;j:TestResultType</title>
<path fill="none" stroke="#000000" d="M250,-150.9079C250,-144.5936 250,-135.3582 250,-125.1194"/>
<polygon fill="#000000" stroke="#000000" points="253.5001,-125.058 250,-115.058 246.5001,-125.0581 253.5001,-125.058"/>
<text text-anchor="middle" x="240.5" y="-129.9" font-family="Helvetica,sans-Serif" font-size="12.00" fill="#000000">extension</text>
</g>
</g>
</svg>
