<?xml version="1.0" encoding="UTF-8" standalone="no"?>
<!DOCTYPE svg PUBLIC "-//W3C//DTD SVG 1.1//EN"
 "http://www.w3.org/Graphics/SVG/1.1/DTD/svg11.dtd">
<!-- Generated by graphviz version 2.40.1 (20161225.0304)
 -->
<!-- Title: graphic Pages: 1 -->
<svg width="881pt" height="244pt"
 viewBox="0.00 0.00 881.00 243.50" xmlns="http://www.w3.org/2000/svg" xmlns:xlink="http://www.w3.org/1999/xlink">
<g id="graph0" class="graph" transform="scale(1 1) rotate(0) translate(4 239.5)">
<title>graphic</title>
<polygon fill="#ffffff" stroke="transparent" points="-4,4 -4,-239.5 877,-239.5 877,4 -4,4"/>
<!-- j:CorrectiveActionType -->
<g id="node1" class="node">
<title>j:CorrectiveActionType</title>
<text text-anchor="start" x="164.5" y="-115.4" font-family="Helvetica,sans-Serif" font-weight="bold" font-size="12.00" fill="#000000">j:CorrectiveActionType</text>
<g id="a_node1_0"><a xlink:href="../../j/CorrectiveActionPlan/#diagram" xlink:title="A set of details comprising a strategy for addressing a deficiency." target="_top">
<polygon fill="#ebebeb" stroke="transparent" points="163.5,-95 163.5,-110 446.5,-110 446.5,-95 163.5,-95"/>
<text text-anchor="start" x="164.5" y="-99.4" font-family="Helvetica,sans-Serif" font-size="12.00" fill="#000000">j:CorrectiveActionPlan: nc:PlanType [0&#45;n]</text>
</a>
</g>
<g id="a_node1_1"><a xlink:href="../../j/CorrectiveActionResolutionAbstract/#diagram" xlink:title="A data concept for a resolution status for corrective action set by the inspector." target="_top">
<text text-anchor="start" x="164.5" y="-84.4" font-family="Helvetica,sans-Serif" font-size="12.00" fill="#000000">j:CorrectiveActionResolutionAbstract [0&#45;n]</text>
</a>
</g>
<g id="a_node1_2"><a xlink:href="../../j/CorrectiveActionResponseText/#diagram" xlink:title="A text response describing what was done to correct the defect." target="_top">
<polygon fill="#ebebeb" stroke="transparent" points="163.5,-65 163.5,-80 446.5,-80 446.5,-65 163.5,-65"/>
<text text-anchor="start" x="164.5" y="-69.4" font-family="Helvetica,sans-Serif" font-size="12.00" fill="#000000">j:CorrectiveActionResponseText: nc:TextType [0&#45;n]</text>
</a>
</g>
<g id="a_node1_3"><a xlink:href="../../j/CorrectiveActionStatement/#diagram" xlink:title="A statement of what has to be corrected to return the program to meeting the standard." target="_top">
<text text-anchor="start" x="164.5" y="-54.4" font-family="Helvetica,sans-Serif" font-size="12.00" fill="#000000">j:CorrectiveActionStatement: nc:DocumentType [0&#45;n]</text>
</a>
</g>
<g id="a_node1_4"><a xlink:href="../../j/CorrectiveActionStatus/#diagram" xlink:title="A status set by the point of contact when corrective action is complete, then by the inspector following verification." target="_top">
<polygon fill="#ebebeb" stroke="transparent" points="163.5,-35 163.5,-50 446.5,-50 446.5,-35 163.5,-35"/>
<text text-anchor="start" x="164.5" y="-39.4" font-family="Helvetica,sans-Serif" font-size="12.00" fill="#000000">j:CorrectiveActionStatus: nc:StatusType [0&#45;n]</text>
</a>
</g>
<g id="a_node1_5"><a xlink:href="../../j/CorrectiveActionVerificationCategoryAbstract/#diagram" xlink:title="A data concept for a kind of values set by the inspector following corrective action." target="_top">
<text text-anchor="start" x="164.5" y="-24.4" font-family="Helvetica,sans-Serif" font-size="12.00" fill="#000000">j:CorrectiveActionVerificationCategoryAbstract [0&#45;n]</text>
</a>
</g>
<g id="a_node1_6"><a xlink:href="../../j/CorrectiveActionAugmentationPoint/#diagram" xlink:title="An augmentation point for type j:CorrectiveActionType" target="_top">
<polygon fill="#ebebeb" stroke="transparent" points="163.5,-5 163.5,-20 446.5,-20 446.5,-5 163.5,-5"/>
<text text-anchor="start" x="164.5" y="-9.4" font-family="Helvetica,sans-Serif" font-size="12.00" fill="#000000">j:CorrectiveActionAugmentationPoint [0&#45;n]</text>
</a>
</g>
<polygon fill="#ff0000" stroke="#ff0000" points="158.5,-110 158.5,-110 451.5,-110 451.5,-110 158.5,-110"/>
<polygon fill="none" stroke="#ff0000" stroke-width="5" points="160.5,-2.5 160.5,-127.5 448.5,-127.5 448.5,-2.5 160.5,-2.5"/>
</g>
<!-- subst_d9e24249 -->
<g id="node2" class="node">
<title>subst_d9e24249</title>
<g id="a_node2_7"><a xlink:href="../../j/CorrectiveActionResolutionAbstract/#diagram" xlink:title="&lt;TABLE&gt;" target="_top">
<text text-anchor="start" x="517.5" y="-85.4" font-family="Helvetica,sans-Serif" font-weight="bold" font-size="12.00" fill="#000000">Substitution group j:CorrectiveActionResolutionAbstract</text>
</a>
</g>
<g id="a_node2_8"><a xlink:href="../../j/CorrectiveActionResolutionText/#diagram" xlink:title="A resolution status for corrective action set by the inspector." target="_top">
<polygon fill="#ebebeb" stroke="transparent" points="516.5,-65 516.5,-80 844.5,-80 844.5,-65 516.5,-65"/>
<text text-anchor="start" x="517.5" y="-69.4" font-family="Helvetica,sans-Serif" font-size="12.00" fill="#000000">j:CorrectiveActionResolutionText: nc:TextType</text>
</a>
</g>
<polygon fill="#000000" stroke="#000000" points="515.5,-80 515.5,-80 845.5,-80 845.5,-80 515.5,-80"/>
<polygon fill="none" stroke="#000000" points="515.5,-64 515.5,-96 845.5,-96 845.5,-64 515.5,-64"/>
</g>
<!-- j:CorrectiveActionType&#45;&gt;subst_d9e24249 -->
<g id="edge1" class="edge">
<title>j:CorrectiveActionType:e&#45;&gt;subst_d9e24249:w</title>
<path fill="none" stroke="#000000" d="M456.5513,-88C479.7545,-88 489.0347,-88 516.5,-88"/>
<polygon fill="#000000" stroke="#000000" points="456.5,-84.5001 446.5,-88 456.5,-91.5001 456.5,-84.5001"/>
</g>
<!-- subst_d9e24290 -->
<g id="node3" class="node">
<title>subst_d9e24290</title>
<g id="a_node3_9"><a xlink:href="../../j/CorrectiveActionVerificationCategoryAbstract/#diagram" xlink:title="&lt;TABLE&gt;" target="_top">
<text text-anchor="start" x="490.5" y="-24.4" font-family="Helvetica,sans-Serif" font-weight="bold" font-size="12.00" fill="#000000">Substitution group j:CorrectiveActionVerificationCategoryAbstract</text>
</a>
</g>
<g id="a_node3_10"><a xlink:href="../../j/CorrectiveActionVerificationCategoryText/#diagram" xlink:title="A kind of values set by the inspector following corrective action." target="_top">
<polygon fill="#ebebeb" stroke="transparent" points="489.5,-4 489.5,-19 872.5,-19 872.5,-4 489.5,-4"/>
<text text-anchor="start" x="490.5" y="-8.4" font-family="Helvetica,sans-Serif" font-size="12.00" fill="#000000">j:CorrectiveActionVerificationCategoryText: nc:TextType</text>
</a>
</g>
<polygon fill="#000000" stroke="#000000" points="488.5,-19 488.5,-19 873.5,-19 873.5,-19 488.5,-19"/>
<polygon fill="none" stroke="#000000" points="488,-3 488,-35 873,-35 873,-3 488,-3"/>
</g>
<!-- j:CorrectiveActionType&#45;&gt;subst_d9e24290 -->
<g id="edge2" class="edge">
<title>j:CorrectiveActionType:e&#45;&gt;subst_d9e24290:w</title>
<path fill="none" stroke="#000000" d="M456.6119,-27C468.1435,-27 474.2708,-27 489.5,-27"/>
<polygon fill="#000000" stroke="#000000" points="456.5,-23.5001 446.5,-27 456.5,-30.5001 456.5,-23.5001"/>
</g>
<!-- Properties -->
<g id="node4" class="node">
<title>Properties</title>
<text text-anchor="start" x="2.5" y="-115.4" font-family="Helvetica,sans-Serif" font-weight="bold" font-size="12.00" fill="#000000">Properties</text>
<g id="a_node4_11"><a xlink:href="../../j/CorrectiveAction/#diagram" xlink:title="A set of details about an event or activity which is part of a corrective action plan." target="_top">
<polygon fill="#ebebeb" stroke="transparent" points="1.5,-95 1.5,-110 98.5,-110 98.5,-95 1.5,-95"/>
<text text-anchor="start" x="2.5" y="-99.4" font-family="Helvetica,sans-Serif" font-size="12.00" fill="#000000">j:CorrectiveAction</text>
</a>
</g>
<polygon fill="#000000" stroke="#000000" points=".5,-110 .5,-110 99.5,-110 99.5,-110 .5,-110"/>
<polygon fill="none" stroke="#000000" points="0,-94 0,-126 99,-126 99,-94 0,-94"/>
</g>
<!-- Properties&#45;&gt;j:CorrectiveActionType -->
<g id="edge3" class="edge">
<title>Properties:top&#45;&gt;j:CorrectiveActionType:top</title>
<path fill="none" stroke="#000000" d="M98.5,-118C123.6649,-118 132.3891,-118 153.3154,-118"/>
<polygon fill="#000000" stroke="#000000" points="153.5,-121.5001 163.5,-118 153.5,-114.5001 153.5,-121.5001"/>
<text text-anchor="middle" x="128.5" y="-121.4" font-family="Helvetica,sans-Serif" font-size="12.00" fill="#000000">type</text>
</g>
<!-- nc:ActivityType -->
<g id="node5" class="node">
<title>nc:ActivityType</title>
<g id="a_node5_12"><a xlink:href="../../nc/ActivityType/#diagram" xlink:title="A data type for a single or set of related actions, events, or process steps." target="_top">
<text text-anchor="start" x="264.5" y="-170.4" font-family="Helvetica,sans-Serif" font-size="12.00" fill="#000000">nc:ActivityType</text>
</a>
</g>
<polygon fill="none" stroke="#000000" points="262,-165.5 262,-182.5 347,-182.5 347,-165.5 262,-165.5"/>
</g>
<!-- nc:ActivityType&#45;&gt;j:CorrectiveActionType -->
<g id="edge4" class="edge">
<title>nc:ActivityType&#45;&gt;j:CorrectiveActionType</title>
<path fill="none" stroke="#000000" d="M304.5,-165.3644C304.5,-159.2696 304.5,-150.4448 304.5,-140.522"/>
<polygon fill="#000000" stroke="#000000" points="308.0001,-140.2935 304.5,-130.2936 301.0001,-140.2936 308.0001,-140.2935"/>
<text text-anchor="middle" x="295" y="-144.65" font-family="Helvetica,sans-Serif" font-size="12.00" fill="#000000">extension</text>
</g>
<!-- structures:ObjectType -->
<g id="node6" class="node">
<title>structures:ObjectType</title>
<g id="a_node6_13"><a xlink:href="../../structures/ObjectType/#diagram" xlink:title="A data type for a thing with its own lifespan that has some existence." target="_top">
<text text-anchor="start" x="245.5" y="-223.4" font-family="Helvetica,sans-Serif" font-size="12.00" fill="#000000">structures:ObjectType</text>
</a>
</g>
<polygon fill="none" stroke="#000000" points="243.5,-218.5 243.5,-235.5 365.5,-235.5 365.5,-218.5 243.5,-218.5"/>
</g>
<!-- structures:ObjectType&#45;&gt;nc:ActivityType -->
<g id="edge5" class="edge">
<title>structures:ObjectType&#45;&gt;nc:ActivityType</title>
<path fill="none" stroke="#000000" d="M304.5,-218.411C304.5,-211.5124 304.5,-201.5696 304.5,-192.84"/>
<polygon fill="#000000" stroke="#000000" points="308.0001,-192.7518 304.5,-182.7519 301.0001,-192.7519 308.0001,-192.7518"/>
<text text-anchor="middle" x="295" y="-197.4" font-family="Helvetica,sans-Serif" font-size="12.00" fill="#000000">extension</text>
</g>
</g>
</svg>
