<?xml version="1.0" encoding="UTF-8" standalone="no"?>
<!DOCTYPE svg PUBLIC "-//W3C//DTD SVG 1.1//EN"
 "http://www.w3.org/Graphics/SVG/1.1/DTD/svg11.dtd">
<!-- Generated by graphviz version 2.40.1 (20161225.0304)
 -->
<!-- Title: graphic Pages: 1 -->
<svg width="423pt" height="45pt"
 viewBox="0.00 0.00 423.00 45.00" xmlns="http://www.w3.org/2000/svg" xmlns:xlink="http://www.w3.org/1999/xlink">
<g id="graph0" class="graph" transform="scale(1 1) rotate(0) translate(4 41)">
<title>graphic</title>
<polygon fill="#ffffff" stroke="transparent" points="-4,4 -4,-41 419,-41 419,4 -4,4"/>
<!-- stat:MapTargetNode -->
<g id="node1" class="node">
<title>stat:MapTargetNode</title>
<text text-anchor="start" x="150.5" y="-21.4" font-family="Helvetica,sans-Serif" font-weight="bold" font-size="12.00" fill="#000000">stat:MapTargetNode</text>
<polygon fill="none" stroke="#ff0000" stroke-width="5" points="146.5,-14 146.5,-34 270.5,-34 270.5,-14 146.5,-14"/>
</g>
<!-- stat:NodeType -->
<g id="node3" class="node">
<title>stat:NodeType</title>
<g id="a_node3_0"><a xlink:href="../../stat/NodeType/#diagram" xlink:title="A data type for a combination of a category and related attributes." target="_top">
<text text-anchor="start" x="334.5" y="-20.4" font-family="Helvetica,sans-Serif" font-size="12.00" fill="#000000">stat:NodeType</text>
</a>
</g>
<polygon fill="none" stroke="#000000" points="332,-15.5 332,-32.5 415,-32.5 415,-15.5 332,-15.5"/>
</g>
<!-- stat:MapTargetNode&#45;&gt;stat:NodeType -->
<g id="edge2" class="edge">
<title>stat:MapTargetNode&#45;&gt;stat:NodeType</title>
<path fill="none" stroke="#000000" d="M273.2388,-24C289.2304,-24 306.1568,-24 321.4572,-24"/>
<polygon fill="#000000" stroke="#000000" points="321.7586,-27.5001 331.7586,-24 321.7586,-20.5001 321.7586,-27.5001"/>
<text text-anchor="middle" x="302.5" y="-27.4" font-family="Helvetica,sans-Serif" font-size="12.00" fill="#000000">type</text>
</g>
<!-- Types -->
<g id="node2" class="node">
<title>Types</title>
<text text-anchor="start" x="2.5" y="-21.4" font-family="Helvetica,sans-Serif" font-weight="bold" font-size="12.00" fill="#000000">Types</text>
<g id="a_node2_1"><a xlink:href="../../stat/MapType/#diagram" xlink:title="A data type for an expression of the relation between a classification item in a source statistical classification and a corresponding classification item in the target statistical classification. The map should specify whether the relationship between the two classification items is partial or complete. Depending on the relationship type of the correspondence table, there may be several maps for a single source or target item." target="_top">
<polygon fill="#ebebeb" stroke="transparent" points="1.5,-1 1.5,-16 76.5,-16 76.5,-1 1.5,-1"/>
<text text-anchor="start" x="2.5" y="-5.4" font-family="Helvetica,sans-Serif" font-size="12.00" fill="#000000">stat:MapType</text>
</a>
</g>
<polygon fill="#000000" stroke="#000000" points=".5,-16 .5,-16 77.5,-16 77.5,-16 .5,-16"/>
<polygon fill="none" stroke="#000000" points="0,0 0,-32 77,-32 77,0 0,0"/>
</g>
<!-- Types&#45;&gt;stat:MapTargetNode -->
<g id="edge1" class="edge">
<title>Types:top&#45;&gt;stat:MapTargetNode</title>
<path fill="none" stroke="#000000" d="M76.5,-24C94.9658,-24 114.8847,-24 133.5125,-24"/>
<polygon fill="#000000" stroke="#000000" points="133.711,-27.5001 143.711,-24 133.7109,-20.5001 133.711,-27.5001"/>
<text text-anchor="middle" x="110.5" y="-27.4" font-family="Helvetica,sans-Serif" font-size="12.00" fill="#000000">has&#45;a</text>
</g>
</g>
</svg>
