<?xml version="1.0" encoding="UTF-8" standalone="no"?>
<!DOCTYPE svg PUBLIC "-//W3C//DTD SVG 1.1//EN"
 "http://www.w3.org/Graphics/SVG/1.1/DTD/svg11.dtd">
<!-- Generated by graphviz version 2.40.1 (20161225.0304)
 -->
<!-- Title: graphic Pages: 1 -->
<svg width="478pt" height="45pt"
 viewBox="0.00 0.00 478.00 45.00" xmlns="http://www.w3.org/2000/svg" xmlns:xlink="http://www.w3.org/1999/xlink">
<g id="graph0" class="graph" transform="scale(1 1) rotate(0) translate(4 41)">
<title>graphic</title>
<polygon fill="#ffffff" stroke="transparent" points="-4,4 -4,-41 474,-41 474,4 -4,4"/>
<!-- it:GoodsShipment -->
<g id="node1" class="node">
<title>it:GoodsShipment</title>
<text text-anchor="start" x="174" y="-21.4" font-family="Helvetica,sans-Serif" font-weight="bold" font-size="12.00" fill="#000000">it:GoodsShipment</text>
<polygon fill="none" stroke="#ff0000" stroke-width="5" points="170.5,-14 170.5,-34 281.5,-34 281.5,-14 170.5,-14"/>
</g>
<!-- it:GoodsShipmentType -->
<g id="node3" class="node">
<title>it:GoodsShipmentType</title>
<g id="a_node3_0"><a xlink:href="../../it/GoodsShipmentType/#diagram" xlink:title="A data type for a shipment of goods" target="_top">
<text text-anchor="start" x="345.5" y="-20.4" font-family="Helvetica,sans-Serif" font-size="12.00" fill="#000000">it:GoodsShipmentType</text>
</a>
</g>
<polygon fill="none" stroke="#000000" points="343,-15.5 343,-32.5 470,-32.5 470,-15.5 343,-15.5"/>
</g>
<!-- it:GoodsShipment&#45;&gt;it:GoodsShipmentType -->
<g id="edge2" class="edge">
<title>it:GoodsShipment&#45;&gt;it:GoodsShipmentType</title>
<path fill="none" stroke="#000000" d="M284.1049,-24C299.6377,-24 316.6318,-24 332.8809,-24"/>
<polygon fill="#000000" stroke="#000000" points="332.8823,-27.5001 342.8823,-24 332.8823,-20.5001 332.8823,-27.5001"/>
<text text-anchor="middle" x="313.5" y="-27.4" font-family="Helvetica,sans-Serif" font-size="12.00" fill="#000000">type</text>
</g>
<!-- Types -->
<g id="node2" class="node">
<title>Types</title>
<text text-anchor="start" x="2.5" y="-21.4" font-family="Helvetica,sans-Serif" font-weight="bold" font-size="12.00" fill="#000000">Types</text>
<g id="a_node2_1"><a xlink:href="../../it/DeclarationType/#diagram" xlink:title="A data type that describes a formal statement made for use in International Trade office mostly for customs purpose." target="_top">
<polygon fill="#ebebeb" stroke="transparent" points="1.5,-1 1.5,-16 100.5,-16 100.5,-1 1.5,-1"/>
<text text-anchor="start" x="2.5" y="-5.4" font-family="Helvetica,sans-Serif" font-size="12.00" fill="#000000">it:DeclarationType</text>
</a>
</g>
<polygon fill="#000000" stroke="#000000" points=".5,-16 .5,-16 101.5,-16 101.5,-16 .5,-16"/>
<polygon fill="none" stroke="#000000" points="0,0 0,-32 101,-32 101,0 0,0"/>
</g>
<!-- Types&#45;&gt;it:GoodsShipment -->
<g id="edge1" class="edge">
<title>Types:top&#45;&gt;it:GoodsShipment</title>
<path fill="none" stroke="#000000" d="M100.5,-24C119.0676,-24 139.1805,-24 157.7523,-24"/>
<polygon fill="#000000" stroke="#000000" points="157.8918,-27.5001 167.8918,-24 157.8917,-20.5001 157.8918,-27.5001"/>
<text text-anchor="middle" x="134.5" y="-27.4" font-family="Helvetica,sans-Serif" font-size="12.00" fill="#000000">has&#45;a</text>
</g>
</g>
</svg>
