<?xml version="1.0" encoding="UTF-8" standalone="no"?>
<!DOCTYPE svg PUBLIC "-//W3C//DTD SVG 1.1//EN"
 "http://www.w3.org/Graphics/SVG/1.1/DTD/svg11.dtd">
<!-- Generated by graphviz version 2.40.1 (20161225.0304)
 -->
<!-- Title: graphic Pages: 1 -->
<svg width="424pt" height="154pt"
 viewBox="0.00 0.00 424.00 153.50" xmlns="http://www.w3.org/2000/svg" xmlns:xlink="http://www.w3.org/1999/xlink">
<g id="graph0" class="graph" transform="scale(1 1) rotate(0) translate(4 149.5)">
<title>graphic</title>
<polygon fill="#ffffff" stroke="transparent" points="-4,4 -4,-149.5 420,-149.5 420,4 -4,4"/>
<!-- em:TransitCategoryCodeType -->
<g id="node1" class="node">
<title>em:TransitCategoryCodeType</title>
<text text-anchor="start" x="204" y="-25.4" font-family="Helvetica,sans-Serif" font-weight="bold" font-size="12.00" fill="#000000">em:TransitCategoryCodeType</text>
<g id="a_node1_0"><a xlink:href="../../structures/SimpleObjectAttributeGroup/#diagram" xlink:title="A group of attributes that are applicable to objects, to be used when defining a complex type that is an extension of a simple type." target="_top">
<polygon fill="#ebebeb" stroke="transparent" points="203,-5 203,-20 411,-20 411,-5 203,-5"/>
<text text-anchor="start" x="204" y="-9.4" font-family="Helvetica,sans-Serif" font-size="12.00" fill="#000000">structures:SimpleObjectAttributeGroup</text>
</a>
</g>
<polygon fill="#ff0000" stroke="#ff0000" points="198,-20 198,-20 416,-20 416,-20 198,-20"/>
<polygon fill="none" stroke="#ff0000" stroke-width="5" points="200.5,-2.5 200.5,-37.5 413.5,-37.5 413.5,-2.5 200.5,-2.5"/>
</g>
<!-- Properties -->
<g id="node2" class="node">
<title>Properties</title>
<text text-anchor="start" x="2.5" y="-25.4" font-family="Helvetica,sans-Serif" font-weight="bold" font-size="12.00" fill="#000000">Properties</text>
<g id="a_node2_1"><a xlink:href="../../em/TransitCategoryCode/#diagram" xlink:title="An element for the Transit Type" target="_top">
<polygon fill="#ebebeb" stroke="transparent" points="1.5,-5 1.5,-20 138.5,-20 138.5,-5 1.5,-5"/>
<text text-anchor="start" x="2.5" y="-9.4" font-family="Helvetica,sans-Serif" font-size="12.00" fill="#000000">em:TransitCategoryCode</text>
</a>
</g>
<polygon fill="#000000" stroke="#000000" points=".5,-20 .5,-20 139.5,-20 139.5,-20 .5,-20"/>
<polygon fill="none" stroke="#000000" points="0,-4 0,-36 139,-36 139,-4 0,-4"/>
</g>
<!-- Properties&#45;&gt;em:TransitCategoryCodeType -->
<g id="edge1" class="edge">
<title>Properties:top&#45;&gt;em:TransitCategoryCodeType:top</title>
<path fill="none" stroke="#000000" d="M138.5,-28C163.4714,-28 172.1284,-28 192.8937,-28"/>
<polygon fill="#000000" stroke="#000000" points="193,-31.5001 203,-28 193,-24.5001 193,-31.5001"/>
<text text-anchor="middle" x="168.5" y="-31.4" font-family="Helvetica,sans-Serif" font-size="12.00" fill="#000000">type</text>
</g>
<!-- em:TransitCategoryCodeSimpleType -->
<g id="node3" class="node">
<title>em:TransitCategoryCodeSimpleType</title>
<g id="a_node3_2"><a xlink:href="../../em/TransitCategoryCodeSimpleType/#diagram" xlink:title="A data type for the Transit Type." target="_top">
<text text-anchor="start" x="208" y="-80.4" font-family="Helvetica,sans-Serif" font-size="12.00" fill="#000000">em:TransitCategoryCodeSimpleType</text>
</a>
</g>
<polygon fill="none" stroke="#000000" points="206,-75.5 206,-92.5 408,-92.5 408,-75.5 206,-75.5"/>
</g>
<!-- em:TransitCategoryCodeSimpleType&#45;&gt;em:TransitCategoryCodeType -->
<g id="edge2" class="edge">
<title>em:TransitCategoryCodeSimpleType&#45;&gt;em:TransitCategoryCodeType</title>
<path fill="none" stroke="#000000" d="M307,-75.4351C307,-68.931 307,-59.5678 307,-50.3827"/>
<polygon fill="#000000" stroke="#000000" points="310.5001,-50.25 307,-40.25 303.5001,-50.25 310.5001,-50.25"/>
<text text-anchor="middle" x="297.5" y="-54.65" font-family="Helvetica,sans-Serif" font-size="12.00" fill="#000000">extension</text>
</g>
<!-- xs:token -->
<g id="node4" class="node">
<title>xs:token</title>
<g id="a_node4_3"><a xlink:href="../../xs/token/#diagram" xlink:title="&lt;TABLE&gt;" target="_top">
<text text-anchor="start" x="285" y="-133.4" font-family="Helvetica,sans-Serif" font-size="12.00" fill="#000000">xs:token</text>
</a>
</g>
<polygon fill="none" stroke="#000000" points="282.5,-128.5 282.5,-145.5 331.5,-145.5 331.5,-128.5 282.5,-128.5"/>
</g>
<!-- xs:token&#45;&gt;em:TransitCategoryCodeSimpleType -->
<g id="edge3" class="edge">
<title>xs:token&#45;&gt;em:TransitCategoryCodeSimpleType</title>
<path fill="none" stroke="#000000" d="M307,-128.411C307,-121.5124 307,-111.5696 307,-102.84"/>
<polygon fill="#000000" stroke="#000000" points="310.5001,-102.7518 307,-92.7519 303.5001,-102.7519 310.5001,-102.7518"/>
<text text-anchor="middle" x="297.5" y="-107.4" font-family="Helvetica,sans-Serif" font-size="12.00" fill="#000000">restriction</text>
</g>
</g>
</svg>
