<?xml version="1.0" encoding="UTF-8" standalone="no"?>
<!DOCTYPE svg PUBLIC "-//W3C//DTD SVG 1.1//EN"
 "http://www.w3.org/Graphics/SVG/1.1/DTD/svg11.dtd">
<!-- Generated by graphviz version 2.40.1 (20161225.0304)
 -->
<!-- Title: graphic Pages: 1 -->
<svg width="320pt" height="282pt"
 viewBox="0.00 0.00 320.00 281.50" xmlns="http://www.w3.org/2000/svg" xmlns:xlink="http://www.w3.org/1999/xlink">
<g id="graph0" class="graph" transform="scale(1 1) rotate(0) translate(4 277.5)">
<title>graphic</title>
<polygon fill="#ffffff" stroke="transparent" points="-4,4 -4,-277.5 316,-277.5 316,4 -4,4"/>
<!-- stat:RoleType -->
<g id="node1" class="node">
<title>stat:RoleType</title>
<text text-anchor="start" x="129.5" y="-153.4" font-family="Helvetica,sans-Serif" font-weight="bold" font-size="12.00" fill="#000000">stat:RoleType</text>
<g id="a_node1_0"><a xlink:href="../../stat/RoleAugmentationPoint/#diagram" xlink:title="An augmentation point for type stat:RoleType" target="_top">
<polygon fill="#ebebeb" stroke="transparent" points="128.5,-133 128.5,-148 307.5,-148 307.5,-133 128.5,-133"/>
<text text-anchor="start" x="129.5" y="-137.4" font-family="Helvetica,sans-Serif" font-size="12.00" fill="#000000">stat:RoleAugmentationPoint [0&#45;n]</text>
</a>
</g>
<polygon fill="#ff0000" stroke="#ff0000" points="123.5,-148 123.5,-148 312.5,-148 312.5,-148 123.5,-148"/>
<polygon fill="none" stroke="#ff0000" stroke-width="5" points="125.5,-130.5 125.5,-165.5 309.5,-165.5 309.5,-130.5 125.5,-130.5"/>
</g>
<!-- DerivedTypes -->
<g id="node3" class="node">
<title>DerivedTypes</title>
<text text-anchor="start" x="135.5" y="-81.4" font-family="Helvetica,sans-Serif" font-weight="bold" font-size="12.00" fill="#000000">Derived types</text>
<g id="a_node3_1"><a xlink:href="../../stat/ContactType/#diagram" xlink:title="A data type for a person responsible for providing additional information about an information object and/or its metadata, either directly or indirectly by linking to its source." target="_top">
<polygon fill="#ebebeb" stroke="transparent" points="134.5,-61 134.5,-76 301.5,-76 301.5,-61 134.5,-61"/>
<text text-anchor="start" x="135.5" y="-65.4" font-family="Helvetica,sans-Serif" font-size="12.00" fill="#000000">stat:ContactType</text>
</a>
</g>
<g id="a_node3_2"><a xlink:href="../../stat/InformationConsumerType/#diagram" xlink:title="A data type for an individual or organization that consumes disseminated data." target="_top">
<text text-anchor="start" x="135.5" y="-50.4" font-family="Helvetica,sans-Serif" font-size="12.00" fill="#000000">stat:InformationConsumerType</text>
</a>
</g>
<g id="a_node3_3"><a xlink:href="../../stat/InformationProviderType/#diagram" xlink:title="A data type for an individual or organization that provides collected information." target="_top">
<polygon fill="#ebebeb" stroke="transparent" points="134.5,-31 134.5,-46 301.5,-46 301.5,-31 134.5,-31"/>
<text text-anchor="start" x="135.5" y="-35.4" font-family="Helvetica,sans-Serif" font-size="12.00" fill="#000000">stat:InformationProviderType</text>
</a>
</g>
<g id="a_node3_4"><a xlink:href="../../stat/MaintainerType/#diagram" xlink:title="A data type for a unit or a group of persons within the organization responsible for managing an information object and its metadata e.g. adding, modifying or deleting metadata about an information object." target="_top">
<text text-anchor="start" x="135.5" y="-20.4" font-family="Helvetica,sans-Serif" font-size="12.00" fill="#000000">stat:MaintainerType</text>
</a>
</g>
<g id="a_node3_5"><a xlink:href="../../stat/OwnerType/#diagram" xlink:title="A data type for a statistical office or other authority responsible for defining, specifying, creating and making decisions about the maintenance of an information object and/or its metadata. Some information objects may have several Owners." target="_top">
<polygon fill="#ebebeb" stroke="transparent" points="134.5,-1 134.5,-16 301.5,-16 301.5,-1 134.5,-1"/>
<text text-anchor="start" x="135.5" y="-5.4" font-family="Helvetica,sans-Serif" font-size="12.00" fill="#000000">stat:OwnerType</text>
</a>
</g>
<polygon fill="#000000" stroke="#000000" points="133.5,-76 133.5,-76 302.5,-76 302.5,-76 133.5,-76"/>
<polygon fill="none" stroke="#000000" points="133,0 133,-92 302,-92 302,0 133,0"/>
</g>
<!-- stat:RoleType&#45;&gt;DerivedTypes -->
<g id="edge2" class="edge">
<title>stat:RoleType&#45;&gt;DerivedTypes</title>
<path fill="none" stroke="#000000" d="M217.5,-127.9546C217.5,-120.4269 217.5,-111.452 217.5,-102.2466"/>
<polygon fill="#000000" stroke="#000000" points="221.0001,-102.2249 217.5,-92.225 214.0001,-102.225 221.0001,-102.2249"/>
<text text-anchor="middle" x="208" y="-106.9" font-family="Helvetica,sans-Serif" font-size="12.00" fill="#000000">derived</text>
</g>
<!-- Properties -->
<g id="node2" class="node">
<title>Properties</title>
<text text-anchor="start" x="2" y="-153.4" font-family="Helvetica,sans-Serif" font-weight="bold" font-size="12.00" fill="#000000">Properties</text>
<g id="a_node2_6"><a xlink:href="../../stat/Role/#diagram" xlink:title="A responsible function involved in the statistical business process." target="_top">
<polygon fill="#ebebeb" stroke="transparent" points="1,-133 1,-148 63,-148 63,-133 1,-133"/>
<text text-anchor="start" x="2" y="-137.4" font-family="Helvetica,sans-Serif" font-size="12.00" fill="#000000">stat:Role</text>
</a>
</g>
<polygon fill="#000000" stroke="#000000" points="0,-148 0,-148 64,-148 64,-148 0,-148"/>
<polygon fill="none" stroke="#000000" points="0,-132 0,-164 64,-164 64,-132 0,-132"/>
</g>
<!-- Properties&#45;&gt;stat:RoleType -->
<g id="edge1" class="edge">
<title>Properties:top&#45;&gt;stat:RoleType:top</title>
<path fill="none" stroke="#000000" d="M63,-156C88.3585,-156 97.1498,-156 118.2371,-156"/>
<polygon fill="#000000" stroke="#000000" points="118.5,-159.5001 128.5,-156 118.5,-152.5001 118.5,-159.5001"/>
<text text-anchor="middle" x="93.5" y="-159.4" font-family="Helvetica,sans-Serif" font-size="12.00" fill="#000000">type</text>
</g>
<!-- stat:IdentifiableArtifactType -->
<g id="node4" class="node">
<title>stat:IdentifiableArtifactType</title>
<g id="a_node4_7"><a xlink:href="../../stat/IdentifiableArtifactType/#diagram" xlink:title="A data type for an abstract class that comprises the basic attributes and associations needed for identification, naming and other documentation." target="_top">
<text text-anchor="start" x="145.5" y="-208.4" font-family="Helvetica,sans-Serif" font-size="12.00" fill="#000000">stat:IdentifiableArtifactType</text>
</a>
</g>
<polygon fill="none" stroke="#000000" points="143,-203.5 143,-220.5 292,-220.5 292,-203.5 143,-203.5"/>
</g>
<!-- stat:IdentifiableArtifactType&#45;&gt;stat:RoleType -->
<g id="edge3" class="edge">
<title>stat:IdentifiableArtifactType&#45;&gt;stat:RoleType</title>
<path fill="none" stroke="#000000" d="M217.5,-203.4351C217.5,-196.931 217.5,-187.5678 217.5,-178.3827"/>
<polygon fill="#000000" stroke="#000000" points="221.0001,-178.25 217.5,-168.25 214.0001,-178.25 221.0001,-178.25"/>
<text text-anchor="middle" x="208" y="-182.65" font-family="Helvetica,sans-Serif" font-size="12.00" fill="#000000">extension</text>
</g>
<!-- structures:ObjectType -->
<g id="node5" class="node">
<title>structures:ObjectType</title>
<g id="a_node5_8"><a xlink:href="../../structures/ObjectType/#diagram" xlink:title="A data type for a thing with its own lifespan that has some existence." target="_top">
<text text-anchor="start" x="158.5" y="-261.4" font-family="Helvetica,sans-Serif" font-size="12.00" fill="#000000">structures:ObjectType</text>
</a>
</g>
<polygon fill="none" stroke="#000000" points="156.5,-256.5 156.5,-273.5 278.5,-273.5 278.5,-256.5 156.5,-256.5"/>
</g>
<!-- structures:ObjectType&#45;&gt;stat:IdentifiableArtifactType -->
<g id="edge4" class="edge">
<title>structures:ObjectType&#45;&gt;stat:IdentifiableArtifactType</title>
<path fill="none" stroke="#000000" d="M217.5,-256.411C217.5,-249.5124 217.5,-239.5696 217.5,-230.84"/>
<polygon fill="#000000" stroke="#000000" points="221.0001,-230.7518 217.5,-220.7519 214.0001,-230.7519 221.0001,-230.7518"/>
<text text-anchor="middle" x="208" y="-235.4" font-family="Helvetica,sans-Serif" font-size="12.00" fill="#000000">extension</text>
</g>
</g>
</svg>
