<?xml version="1.0" encoding="UTF-8" standalone="no"?>
<!DOCTYPE svg PUBLIC "-//W3C//DTD SVG 1.1//EN"
 "http://www.w3.org/Graphics/SVG/1.1/DTD/svg11.dtd">
<!-- Generated by graphviz version 2.40.1 (20161225.0304)
 -->
<!-- Title: graphic Pages: 1 -->
<svg width="284pt" height="45pt"
 viewBox="0.00 0.00 284.00 45.00" xmlns="http://www.w3.org/2000/svg" xmlns:xlink="http://www.w3.org/1999/xlink">
<g id="graph0" class="graph" transform="scale(1 1) rotate(0) translate(4 41)">
<title>graphic</title>
<polygon fill="#ffffff" stroke="transparent" points="-4,4 -4,-41 280,-41 280,4 -4,4"/>
<!-- j:BailAugmentationPoint -->
<g id="node1" class="node">
<title>j:BailAugmentationPoint</title>
<text text-anchor="start" x="130" y="-21.4" font-family="Helvetica,sans-Serif" font-weight="bold" font-size="12.00" fill="#000000">j:BailAugmentationPoint</text>
<polygon fill="none" stroke="#ff0000" stroke-width="5" points="126.5,-14 126.5,-34 273.5,-34 273.5,-14 126.5,-14"/>
</g>
<!-- Types -->
<g id="node2" class="node">
<title>Types</title>
<text text-anchor="start" x="2.5" y="-21.4" font-family="Helvetica,sans-Serif" font-weight="bold" font-size="12.00" fill="#000000">Types</text>
<g id="a_node2_0"><a xlink:href="../../j/BailType/#diagram" xlink:title="A data type for details of a commitment made to secure the release of a subject being held in custody and suspected of a crime." target="_top">
<polygon fill="#ebebeb" stroke="transparent" points="1.5,-1 1.5,-16 56.5,-16 56.5,-1 1.5,-1"/>
<text text-anchor="start" x="2.5" y="-5.4" font-family="Helvetica,sans-Serif" font-size="12.00" fill="#000000">j:BailType</text>
</a>
</g>
<polygon fill="#000000" stroke="#000000" points=".5,-16 .5,-16 57.5,-16 57.5,-16 .5,-16"/>
<polygon fill="none" stroke="#000000" points="0,0 0,-32 57,-32 57,0 0,0"/>
</g>
<!-- Types&#45;&gt;j:BailAugmentationPoint -->
<g id="edge1" class="edge">
<title>Types:top&#45;&gt;j:BailAugmentationPoint</title>
<path fill="none" stroke="#000000" d="M56.5,-24C74.9781,-24 94.7946,-24 113.6229,-24"/>
<polygon fill="#000000" stroke="#000000" points="113.6653,-27.5001 123.6653,-24 113.6652,-20.5001 113.6653,-27.5001"/>
<text text-anchor="middle" x="90.5" y="-27.4" font-family="Helvetica,sans-Serif" font-size="12.00" fill="#000000">has&#45;a</text>
</g>
</g>
</svg>
