<?xml version="1.0" encoding="UTF-8" standalone="no"?>
<!DOCTYPE svg PUBLIC "-//W3C//DTD SVG 1.1//EN"
 "http://www.w3.org/Graphics/SVG/1.1/DTD/svg11.dtd">
<!-- Generated by graphviz version 2.40.1 (20161225.0304)
 -->
<!-- Title: graphic Pages: 1 -->
<svg width="551pt" height="45pt"
 viewBox="0.00 0.00 551.00 45.00" xmlns="http://www.w3.org/2000/svg" xmlns:xlink="http://www.w3.org/1999/xlink">
<g id="graph0" class="graph" transform="scale(1 1) rotate(0) translate(4 41)">
<title>graphic</title>
<polygon fill="#ffffff" stroke="transparent" points="-4,4 -4,-41 547,-41 547,4 -4,4"/>
<!-- j:SupervisionSegregation -->
<g id="node1" class="node">
<title>j:SupervisionSegregation</title>
<text text-anchor="start" x="247" y="-21.4" font-family="Helvetica,sans-Serif" font-weight="bold" font-size="12.00" fill="#000000">j:SupervisionSegregation</text>
<polygon fill="none" stroke="#ff0000" stroke-width="5" points="243.5,-14 243.5,-34 396.5,-34 396.5,-14 243.5,-14"/>
</g>
<!-- nc:ActivityType -->
<g id="node3" class="node">
<title>nc:ActivityType</title>
<g id="a_node3_0"><a xlink:href="../../nc/ActivityType/#diagram" xlink:title="A data type for a single or set of related actions, events, or process steps." target="_top">
<text text-anchor="start" x="460.5" y="-20.4" font-family="Helvetica,sans-Serif" font-size="12.00" fill="#000000">nc:ActivityType</text>
</a>
</g>
<polygon fill="none" stroke="#000000" points="458,-15.5 458,-32.5 543,-32.5 543,-15.5 458,-15.5"/>
</g>
<!-- j:SupervisionSegregation&#45;&gt;nc:ActivityType -->
<g id="edge2" class="edge">
<title>j:SupervisionSegregation&#45;&gt;nc:ActivityType</title>
<path fill="none" stroke="#000000" d="M399.1699,-24C415.4859,-24 432.2925,-24 447.4128,-24"/>
<polygon fill="#000000" stroke="#000000" points="447.5846,-27.5001 457.5846,-24 447.5845,-20.5001 447.5846,-27.5001"/>
<text text-anchor="middle" x="428.5" y="-27.4" font-family="Helvetica,sans-Serif" font-size="12.00" fill="#000000">type</text>
</g>
<!-- Types -->
<g id="node2" class="node">
<title>Types</title>
<text text-anchor="start" x="2" y="-21.4" font-family="Helvetica,sans-Serif" font-weight="bold" font-size="12.00" fill="#000000">Types</text>
<g id="a_node2_1"><a xlink:href="../../j/SupervisionAugmentationType/#diagram" xlink:title="A data type for additional information about a supervision." target="_top">
<polygon fill="#ebebeb" stroke="transparent" points="1,-1 1,-16 173,-16 173,-1 1,-1"/>
<text text-anchor="start" x="2" y="-5.4" font-family="Helvetica,sans-Serif" font-size="12.00" fill="#000000">j:SupervisionAugmentationType</text>
</a>
</g>
<polygon fill="#000000" stroke="#000000" points="0,-16 0,-16 174,-16 174,-16 0,-16"/>
<polygon fill="none" stroke="#000000" points="0,0 0,-32 174,-32 174,0 0,0"/>
</g>
<!-- Types&#45;&gt;j:SupervisionSegregation -->
<g id="edge1" class="edge">
<title>Types:top&#45;&gt;j:SupervisionSegregation</title>
<path fill="none" stroke="#000000" d="M173,-24C191.6043,-24 211.533,-24 230.5233,-24"/>
<polygon fill="#000000" stroke="#000000" points="230.6583,-27.5001 240.6582,-24 230.6582,-20.5001 230.6583,-27.5001"/>
<text text-anchor="middle" x="207.5" y="-27.4" font-family="Helvetica,sans-Serif" font-size="12.00" fill="#000000">has&#45;a</text>
</g>
</g>
</svg>
