<?xml version="1.0" encoding="UTF-8" standalone="no"?>
<!DOCTYPE svg PUBLIC "-//W3C//DTD SVG 1.1//EN"
 "http://www.w3.org/Graphics/SVG/1.1/DTD/svg11.dtd">
<!-- Generated by graphviz version 2.40.1 (20161225.0304)
 -->
<!-- Title: graphic Pages: 1 -->
<svg width="529pt" height="45pt"
 viewBox="0.00 0.00 529.00 45.00" xmlns="http://www.w3.org/2000/svg" xmlns:xlink="http://www.w3.org/1999/xlink">
<g id="graph0" class="graph" transform="scale(1 1) rotate(0) translate(4 41)">
<title>graphic</title>
<polygon fill="#ffffff" stroke="transparent" points="-4,4 -4,-41 525,-41 525,4 -4,4"/>
<!-- stat:AdministrativeRegisterAugmentationPoint -->
<g id="node1" class="node">
<title>stat:AdministrativeRegisterAugmentationPoint</title>
<text text-anchor="start" x="247" y="-21.4" font-family="Helvetica,sans-Serif" font-weight="bold" font-size="12.00" fill="#000000">stat:AdministrativeRegisterAugmentationPoint</text>
<polygon fill="none" stroke="#ff0000" stroke-width="5" points="243.5,-14 243.5,-34 518.5,-34 518.5,-14 243.5,-14"/>
</g>
<!-- Types -->
<g id="node2" class="node">
<title>Types</title>
<text text-anchor="start" x="2" y="-21.4" font-family="Helvetica,sans-Serif" font-weight="bold" font-size="12.00" fill="#000000">Types</text>
<g id="a_node2_0"><a xlink:href="../../stat/AdministrativeRegisterType/#diagram" xlink:title="A data type for a source of administrative information which is obtained from an external organization (or sometimes from another department of the same organization)." target="_top">
<polygon fill="#ebebeb" stroke="transparent" points="1,-1 1,-16 173,-16 173,-1 1,-1"/>
<text text-anchor="start" x="2" y="-5.4" font-family="Helvetica,sans-Serif" font-size="12.00" fill="#000000">stat:AdministrativeRegisterType</text>
</a>
</g>
<polygon fill="#000000" stroke="#000000" points="0,-16 0,-16 174,-16 174,-16 0,-16"/>
<polygon fill="none" stroke="#000000" points="0,0 0,-32 174,-32 174,0 0,0"/>
</g>
<!-- Types&#45;&gt;stat:AdministrativeRegisterAugmentationPoint -->
<g id="edge1" class="edge">
<title>Types:top&#45;&gt;stat:AdministrativeRegisterAugmentationPoint</title>
<path fill="none" stroke="#000000" d="M173,-24C191.6812,-24 211.3061,-24 230.7305,-24"/>
<polygon fill="#000000" stroke="#000000" points="230.8639,-27.5001 240.8638,-24 230.8638,-20.5001 230.8639,-27.5001"/>
<text text-anchor="middle" x="207.5" y="-27.4" font-family="Helvetica,sans-Serif" font-size="12.00" fill="#000000">has&#45;a</text>
</g>
</g>
</svg>
