<?xml version="1.0" encoding="UTF-8" standalone="no"?>
<!DOCTYPE svg PUBLIC "-//W3C//DTD SVG 1.1//EN"
 "http://www.w3.org/Graphics/SVG/1.1/DTD/svg11.dtd">
<!-- Generated by graphviz version 2.40.1 (20161225.0304)
 -->
<!-- Title: graphic Pages: 1 -->
<svg width="468pt" height="45pt"
 viewBox="0.00 0.00 468.00 45.00" xmlns="http://www.w3.org/2000/svg" xmlns:xlink="http://www.w3.org/1999/xlink">
<g id="graph0" class="graph" transform="scale(1 1) rotate(0) translate(4 41)">
<title>graphic</title>
<polygon fill="#ffffff" stroke="transparent" points="-4,4 -4,-41 464,-41 464,4 -4,4"/>
<!-- cbrn:LayerDensityValue -->
<g id="node1" class="node">
<title>cbrn:LayerDensityValue</title>
<text text-anchor="start" x="161" y="-21.4" font-family="Helvetica,sans-Serif" font-weight="bold" font-size="12.00" fill="#000000">cbrn:LayerDensityValue</text>
<polygon fill="none" stroke="#ff0000" stroke-width="5" points="157.5,-14 157.5,-34 302.5,-34 302.5,-14 157.5,-14"/>
</g>
<!-- cbrn:DoubleType -->
<g id="node3" class="node">
<title>cbrn:DoubleType</title>
<g id="a_node3_0"><a xlink:href="../../cbrn/DoubleType/#diagram" xlink:title="A data type for a double precision real value." target="_top">
<text text-anchor="start" x="366" y="-20.4" font-family="Helvetica,sans-Serif" font-size="12.00" fill="#000000">cbrn:DoubleType</text>
</a>
</g>
<polygon fill="none" stroke="#000000" points="364,-15.5 364,-32.5 460,-32.5 460,-15.5 364,-15.5"/>
</g>
<!-- cbrn:LayerDensityValue&#45;&gt;cbrn:DoubleType -->
<g id="edge2" class="edge">
<title>cbrn:LayerDensityValue&#45;&gt;cbrn:DoubleType</title>
<path fill="none" stroke="#000000" d="M305.0771,-24C321.2275,-24 338.0684,-24 353.479,-24"/>
<polygon fill="#000000" stroke="#000000" points="353.8933,-27.5001 363.8933,-24 353.8933,-20.5001 353.8933,-27.5001"/>
<text text-anchor="middle" x="334.5" y="-27.4" font-family="Helvetica,sans-Serif" font-size="12.00" fill="#000000">type</text>
</g>
<!-- Types -->
<g id="node2" class="node">
<title>Types</title>
<text text-anchor="start" x="2" y="-21.4" font-family="Helvetica,sans-Serif" font-weight="bold" font-size="12.00" fill="#000000">Types</text>
<g id="a_node2_1"><a xlink:href="../../cbrn/LayerType/#diagram" xlink:title="A data type for a shielding layer." target="_top">
<polygon fill="#ebebeb" stroke="transparent" points="1,-1 1,-16 87,-16 87,-1 1,-1"/>
<text text-anchor="start" x="2" y="-5.4" font-family="Helvetica,sans-Serif" font-size="12.00" fill="#000000">cbrn:LayerType</text>
</a>
</g>
<polygon fill="#000000" stroke="#000000" points="0,-16 0,-16 88,-16 88,-16 0,-16"/>
<polygon fill="none" stroke="#000000" points="0,0 0,-32 88,-32 88,0 0,0"/>
</g>
<!-- Types&#45;&gt;cbrn:LayerDensityValue -->
<g id="edge1" class="edge">
<title>Types:top&#45;&gt;cbrn:LayerDensityValue</title>
<path fill="none" stroke="#000000" d="M87,-24C105.6242,-24 125.6127,-24 144.5667,-24"/>
<polygon fill="#000000" stroke="#000000" points="144.6721,-27.5001 154.672,-24 144.672,-20.5001 144.6721,-27.5001"/>
<text text-anchor="middle" x="121.5" y="-27.4" font-family="Helvetica,sans-Serif" font-size="12.00" fill="#000000">has&#45;a</text>
</g>
</g>
</svg>
