<?xml version="1.0" encoding="UTF-8" standalone="no"?>
<!DOCTYPE svg PUBLIC "-//W3C//DTD SVG 1.1//EN"
 "http://www.w3.org/Graphics/SVG/1.1/DTD/svg11.dtd">
<!-- Generated by graphviz version 2.40.1 (20161225.0304)
 -->
<!-- Title: graphic Pages: 1 -->
<svg width="855pt" height="101pt"
 viewBox="0.00 0.00 855.00 101.00" xmlns="http://www.w3.org/2000/svg" xmlns:xlink="http://www.w3.org/1999/xlink">
<g id="graph0" class="graph" transform="scale(1 1) rotate(0) translate(4 97)">
<title>graphic</title>
<polygon fill="#ffffff" stroke="transparent" points="-4,4 -4,-97 851,-97 851,4 -4,4"/>
<!-- j:DriverLicenseMedicalSelfCertificationAbstract -->
<g id="node1" class="node">
<title>j:DriverLicenseMedicalSelfCertificationAbstract</title>
<text text-anchor="start" x="428.5" y="-77.4" font-family="Helvetica,sans-Serif" font-weight="bold" font-size="12.00" fill="#000000">j:DriverLicenseMedicalSelfCertificationAbstract</text>
<polygon fill="none" stroke="#ff0000" stroke-width="5" points="425,-70 425,-90 704,-90 704,-70 425,-70"/>
</g>
<!-- SubstitutableElements -->
<g id="node3" class="node">
<title>SubstitutableElements</title>
<text text-anchor="start" x="284.5" y="-21.4" font-family="Helvetica,sans-Serif" font-weight="bold" font-size="12.00" fill="#000000">Substitutable elements</text>
<g id="a_node3_0"><a xlink:href="../../j/DriverLicenseMedicalSelfCertificationCode/#diagram" xlink:title="A driver&#39;s self certification of the commercial driver&#39;s status regarding 49 CFR 390.3 and the type of driving." target="_top">
<polygon fill="#ebebeb" stroke="transparent" points="283.5,-1 283.5,-16 846.5,-16 846.5,-1 283.5,-1"/>
<text text-anchor="start" x="284.5" y="-5.4" font-family="Helvetica,sans-Serif" font-size="12.00" fill="#000000">j:DriverLicenseMedicalSelfCertificationCode: aamva_d20:DriverLicenseMedicalSelfCertificationCodeType</text>
</a>
</g>
<polygon fill="#000000" stroke="#000000" points="282.5,-16 282.5,-16 847.5,-16 847.5,-16 282.5,-16"/>
<polygon fill="none" stroke="#000000" points="282,0 282,-32 847,-32 847,0 282,0"/>
</g>
<!-- j:DriverLicenseMedicalSelfCertificationAbstract&#45;&gt;SubstitutableElements -->
<g id="edge2" class="edge">
<title>j:DriverLicenseMedicalSelfCertificationAbstract&#45;&gt;SubstitutableElements</title>
<path fill="none" stroke="#000000" d="M564.5,-57.3063C564.5,-48.9972 564.5,-39.7712 564.5,-32.1499"/>
<polygon fill="#000000" stroke="#000000" points="561.0001,-57.4892 564.5,-67.4892 568.0001,-57.4892 561.0001,-57.4892"/>
<text text-anchor="middle" x="555" y="-46.65" font-family="Helvetica,sans-Serif" font-size="12.00" fill="#000000">substitutable for</text>
</g>
<!-- Types -->
<g id="node2" class="node">
<title>Types</title>
<text text-anchor="start" x="2.5" y="-77.4" font-family="Helvetica,sans-Serif" font-weight="bold" font-size="12.00" fill="#000000">Types</text>
<g id="a_node2_1"><a xlink:href="../../j/DriverLicenseMedicalCertificationType/#diagram" xlink:title="A data type for a medical certification associated with a driver license." target="_top">
<polygon fill="#ebebeb" stroke="transparent" points="1.5,-57 1.5,-72 214.5,-72 214.5,-57 1.5,-57"/>
<text text-anchor="start" x="2.5" y="-61.4" font-family="Helvetica,sans-Serif" font-size="12.00" fill="#000000">j:DriverLicenseMedicalCertificationType</text>
</a>
</g>
<polygon fill="#000000" stroke="#000000" points=".5,-72 .5,-72 215.5,-72 215.5,-72 .5,-72"/>
<polygon fill="none" stroke="#000000" points="0,-56 0,-88 215,-88 215,-56 0,-56"/>
</g>
<!-- Types&#45;&gt;j:DriverLicenseMedicalSelfCertificationAbstract -->
<g id="edge1" class="edge">
<title>Types:top&#45;&gt;j:DriverLicenseMedicalSelfCertificationAbstract</title>
<path fill="none" stroke="#000000" d="M214.5,-80C279.2545,-80 350.748,-80 412.1486,-80"/>
<polygon fill="#000000" stroke="#000000" points="412.3065,-83.5001 422.3064,-80 412.3064,-76.5001 412.3065,-83.5001"/>
<text text-anchor="middle" x="248.5" y="-83.4" font-family="Helvetica,sans-Serif" font-size="12.00" fill="#000000">has&#45;a</text>
</g>
</g>
</svg>
