<?xml version="1.0" encoding="UTF-8" standalone="no"?>
<!DOCTYPE svg PUBLIC "-//W3C//DTD SVG 1.1//EN"
 "http://www.w3.org/Graphics/SVG/1.1/DTD/svg11.dtd">
<!-- Generated by graphviz version 2.40.1 (20161225.0304)
 -->
<!-- Title: graphic Pages: 1 -->
<svg width="1118pt" height="481pt"
 viewBox="0.00 0.00 1118.00 480.50" xmlns="http://www.w3.org/2000/svg" xmlns:xlink="http://www.w3.org/1999/xlink">
<g id="graph0" class="graph" transform="scale(1 1) rotate(0) translate(4 476.5)">
<title>graphic</title>
<polygon fill="#ffffff" stroke="transparent" points="-4,4 -4,-476.5 1114,-476.5 1114,4 -4,4"/>
<!-- nc:ImageType -->
<g id="node1" class="node">
<title>nc:ImageType</title>
<text text-anchor="start" x="457.5" y="-351.4" font-family="Helvetica,sans-Serif" font-weight="bold" font-size="12.00" fill="#000000">nc:ImageType</text>
<g id="a_node1_0"><a xlink:href="../../nc/ImageHeightValue/#diagram" xlink:title="A height of an image in pixels." target="_top">
<polygon fill="#ebebeb" stroke="transparent" points="456.5,-331 456.5,-346 757.5,-346 757.5,-331 456.5,-331"/>
<text text-anchor="start" x="457.5" y="-335.4" font-family="Helvetica,sans-Serif" font-size="12.00" fill="#000000">nc:ImageHeightValue: niem&#45;xs:nonNegativeInteger [0&#45;n]</text>
</a>
</g>
<g id="a_node1_1"><a xlink:href="../../nc/ImageLocation/#diagram" xlink:title="A physical location where an image is stored." target="_top">
<text text-anchor="start" x="457.5" y="-320.4" font-family="Helvetica,sans-Serif" font-size="12.00" fill="#000000">nc:ImageLocation: nc:LocationType [0&#45;n]</text>
</a>
</g>
<g id="a_node1_2"><a xlink:href="../../nc/ImageWidthValue/#diagram" xlink:title="A width of an image in pixels." target="_top">
<polygon fill="#ebebeb" stroke="transparent" points="456.5,-301 456.5,-316 757.5,-316 757.5,-301 456.5,-301"/>
<text text-anchor="start" x="457.5" y="-305.4" font-family="Helvetica,sans-Serif" font-size="12.00" fill="#000000">nc:ImageWidthValue: niem&#45;xs:nonNegativeInteger [0&#45;n]</text>
</a>
</g>
<g id="a_node1_3"><a xlink:href="../../nc/ImageAugmentationPoint/#diagram" xlink:title="An augmentation point for ImageType." target="_top">
<text text-anchor="start" x="457.5" y="-290.4" font-family="Helvetica,sans-Serif" font-size="12.00" fill="#000000">nc:ImageAugmentationPoint [0&#45;n]</text>
</a>
</g>
<polygon fill="#ff0000" stroke="#ff0000" points="451.5,-346 451.5,-346 762.5,-346 762.5,-346 451.5,-346"/>
<polygon fill="none" stroke="#ff0000" stroke-width="5" points="453.5,-284 453.5,-364 759.5,-364 759.5,-284 453.5,-284"/>
</g>
<!-- subst_d9e14348 -->
<g id="node2" class="node">
<title>subst_d9e14348</title>
<g id="a_node2_4"><a xlink:href="../../nc/ImageAugmentationPoint/#diagram" xlink:title="&lt;TABLE&gt;" target="_top">
<text text-anchor="start" x="801.5" y="-290.4" font-family="Helvetica,sans-Serif" font-weight="bold" font-size="12.00" fill="#000000">Substitution group nc:ImageAugmentationPoint</text>
</a>
</g>
<g id="a_node2_5"><a xlink:href="../../biom/ImageAugmentation/#diagram" xlink:title="Additional information about an image." target="_top">
<polygon fill="#ebebeb" stroke="transparent" points="800.5,-270 800.5,-285 1109.5,-285 1109.5,-270 800.5,-270"/>
<text text-anchor="start" x="801.5" y="-274.4" font-family="Helvetica,sans-Serif" font-size="12.00" fill="#000000">biom:ImageAugmentation: biom:ImageAugmentationType</text>
</a>
</g>
<g id="a_node2_6"><a xlink:href="../../j/ImageAugmentation/#diagram" xlink:title="Additional information about an image." target="_top">
<text text-anchor="start" x="801.5" y="-259.4" font-family="Helvetica,sans-Serif" font-size="12.00" fill="#000000">j:ImageAugmentation: j:ImageAugmentationType</text>
</a>
</g>
<g id="a_node2_7"><a xlink:href="../../mo/ImageAugmentation/#diagram" xlink:title="Additional information about an image" target="_top">
<polygon fill="#ebebeb" stroke="transparent" points="800.5,-240 800.5,-255 1109.5,-255 1109.5,-240 800.5,-240"/>
<text text-anchor="start" x="801.5" y="-244.4" font-family="Helvetica,sans-Serif" font-size="12.00" fill="#000000">mo:ImageAugmentation: mo:ImageAugmentationType</text>
</a>
</g>
<polygon fill="#000000" stroke="#000000" points="799.5,-285 799.5,-285 1110.5,-285 1110.5,-285 799.5,-285"/>
<polygon fill="none" stroke="#000000" points="799,-239 799,-301 1110,-301 1110,-239 799,-239"/>
</g>
<!-- nc:ImageType&#45;&gt;subst_d9e14348 -->
<g id="edge1" class="edge">
<title>nc:ImageType:e&#45;&gt;subst_d9e14348:w</title>
<path fill="none" stroke="#000000" d="M767.6119,-293C779.1435,-293 785.2708,-293 800.5,-293"/>
<polygon fill="#000000" stroke="#000000" points="767.5,-289.5001 757.5,-293 767.5,-296.5001 767.5,-289.5001"/>
</g>
<!-- DerivedTypes -->
<g id="node4" class="node">
<title>DerivedTypes</title>
<text text-anchor="start" x="500.5" y="-235.4" font-family="Helvetica,sans-Serif" font-weight="bold" font-size="12.00" fill="#000000">Derived types</text>
<g id="a_node4_8"><a xlink:href="../../biom/CBEFFImageType/#diagram" xlink:title="A data type for a CBEFF record" target="_top">
<polygon fill="#ebebeb" stroke="transparent" points="499.5,-215 499.5,-230 714.5,-230 714.5,-215 499.5,-215"/>
<text text-anchor="start" x="500.5" y="-219.4" font-family="Helvetica,sans-Serif" font-size="12.00" fill="#000000">biom:CBEFFImageType</text>
</a>
</g>
<g id="a_node4_9"><a xlink:href="../../biom/FaceImageType/#diagram" xlink:title="A data type for an image of a human face" target="_top">
<text text-anchor="start" x="500.5" y="-204.4" font-family="Helvetica,sans-Serif" font-size="12.00" fill="#000000">biom:FaceImageType</text>
</a>
</g>
<g id="a_node4_10"><a xlink:href="../../biom/FingerImpressionImageDetailType/#diagram" xlink:title="A data type for the details about a fingerprint image" target="_top">
<polygon fill="#ebebeb" stroke="transparent" points="499.5,-185 499.5,-200 714.5,-200 714.5,-185 499.5,-185"/>
<text text-anchor="start" x="500.5" y="-189.4" font-family="Helvetica,sans-Serif" font-size="12.00" fill="#000000">biom:FingerImpressionImageDetailType</text>
</a>
</g>
<g id="a_node4_11"><a xlink:href="../../biom/FingerprintImageType/#diagram" xlink:title="A data type for a fingerprint image" target="_top">
<text text-anchor="start" x="500.5" y="-174.4" font-family="Helvetica,sans-Serif" font-size="12.00" fill="#000000">biom:FingerprintImageType</text>
</a>
</g>
<g id="a_node4_12"><a xlink:href="../../biom/FrictionRidgeDetailType/#diagram" xlink:title="A data type for the details about a friction ridge image" target="_top">
<polygon fill="#ebebeb" stroke="transparent" points="499.5,-155 499.5,-170 714.5,-170 714.5,-155 499.5,-155"/>
<text text-anchor="start" x="500.5" y="-159.4" font-family="Helvetica,sans-Serif" font-size="12.00" fill="#000000">biom:FrictionRidgeDetailType</text>
</a>
</g>
<g id="a_node4_13"><a xlink:href="../../biom/IrisImageDetailType/#diagram" xlink:title="A data type for details about a Type&#45;17 iris image record" target="_top">
<text text-anchor="start" x="500.5" y="-144.4" font-family="Helvetica,sans-Serif" font-size="12.00" fill="#000000">biom:IrisImageDetailType</text>
</a>
</g>
<g id="a_node4_14"><a xlink:href="../../biom/PalmPrintImageDetailType/#diagram" xlink:title="A data type for the details about an image of a palm print" target="_top">
<polygon fill="#ebebeb" stroke="transparent" points="499.5,-125 499.5,-140 714.5,-140 714.5,-125 499.5,-125"/>
<text text-anchor="start" x="500.5" y="-129.4" font-family="Helvetica,sans-Serif" font-size="12.00" fill="#000000">biom:PalmPrintImageDetailType</text>
</a>
</g>
<g id="a_node4_15"><a xlink:href="../../biom/PhysicalFeatureImageType/#diagram" xlink:title="A data type for an image of a physical feature" target="_top">
<text text-anchor="start" x="500.5" y="-114.4" font-family="Helvetica,sans-Serif" font-size="12.00" fill="#000000">biom:PhysicalFeatureImageType</text>
</a>
</g>
<g id="a_node4_16"><a xlink:href="../../biom/PlantarImageDetailType/#diagram" xlink:title="A data type for a set of details about an image of a plantar (footprint)" target="_top">
<polygon fill="#ebebeb" stroke="transparent" points="499.5,-95 499.5,-110 714.5,-110 714.5,-95 499.5,-95"/>
<text text-anchor="start" x="500.5" y="-99.4" font-family="Helvetica,sans-Serif" font-size="12.00" fill="#000000">biom:PlantarImageDetailType</text>
</a>
</g>
<g id="a_node4_17"><a xlink:href="../../biom/SegmentedImageType/#diagram" xlink:title="A data type for an image representation that contains image segments" target="_top">
<text text-anchor="start" x="500.5" y="-84.4" font-family="Helvetica,sans-Serif" font-size="12.00" fill="#000000">biom:SegmentedImageType</text>
</a>
</g>
<g id="a_node4_18"><a xlink:href="../../biom/SourceMediaDetailType/#diagram" xlink:title="A data type for the details of a biometric source media file" target="_top">
<polygon fill="#ebebeb" stroke="transparent" points="499.5,-65 499.5,-80 714.5,-80 714.5,-65 499.5,-65"/>
<text text-anchor="start" x="500.5" y="-69.4" font-family="Helvetica,sans-Serif" font-size="12.00" fill="#000000">biom:SourceMediaDetailType</text>
</a>
</g>
<polygon fill="#000000" stroke="#000000" points="498.5,-230 498.5,-230 715.5,-230 715.5,-230 498.5,-230"/>
<polygon fill="none" stroke="#000000" points="498,-64 498,-246 715,-246 715,-64 498,-64"/>
</g>
<!-- nc:ImageType&#45;&gt;DerivedTypes -->
<g id="edge3" class="edge">
<title>nc:ImageType&#45;&gt;DerivedTypes</title>
<path fill="none" stroke="#000000" d="M606.5,-281.2381C606.5,-273.5189 606.5,-265.1792 606.5,-256.5937"/>
<polygon fill="#000000" stroke="#000000" points="610.0001,-256.4247 606.5,-246.4247 603.0001,-256.4248 610.0001,-256.4247"/>
<text text-anchor="middle" x="597" y="-260.65" font-family="Helvetica,sans-Serif" font-size="12.00" fill="#000000">derived</text>
</g>
<!-- Properties -->
<g id="node3" class="node">
<title>Properties</title>
<text text-anchor="start" x="2" y="-351.4" font-family="Helvetica,sans-Serif" font-weight="bold" font-size="12.00" fill="#000000">Properties</text>
<g id="a_node3_19"><a xlink:href="../../biom/DNAElectropherogramScreenshotImage/#diagram" xlink:title="An image of screenshot of a DNA electropherogram" target="_top">
<polygon fill="#ebebeb" stroke="transparent" points="1,-331 1,-346 391,-346 391,-331 1,-331"/>
<text text-anchor="start" x="2" y="-335.4" font-family="Helvetica,sans-Serif" font-size="12.00" fill="#000000">biom:DNAElectropherogramScreenshotImage</text>
</a>
</g>
<g id="a_node3_20"><a xlink:href="../../biom/TestImageDetail/#diagram" xlink:title="A set of details about an image of a biometric subject used for testing" target="_top">
<text text-anchor="start" x="2" y="-320.4" font-family="Helvetica,sans-Serif" font-size="12.00" fill="#000000">biom:TestImageDetail</text>
</a>
</g>
<g id="a_node3_21"><a xlink:href="../../em/CardPicture/#diagram" xlink:title="A binary (i.e. digitized) presentation of an identification card picture" target="_top">
<polygon fill="#ebebeb" stroke="transparent" points="1,-301 1,-316 391,-316 391,-301 1,-301"/>
<text text-anchor="start" x="2" y="-305.4" font-family="Helvetica,sans-Serif" font-size="12.00" fill="#000000">em:CardPicture</text>
</a>
</g>
<g id="a_node3_22"><a xlink:href="../../em/ResourcePicture/#diagram" xlink:title="An element for a resource image" target="_top">
<text text-anchor="start" x="2" y="-290.4" font-family="Helvetica,sans-Serif" font-size="12.00" fill="#000000">em:ResourcePicture</text>
</a>
</g>
<g id="a_node3_23"><a xlink:href="../../hs/StudentPhotoImage/#diagram" xlink:title="A photograph of a student enrolled in a school." target="_top">
<polygon fill="#ebebeb" stroke="transparent" points="1,-271 1,-286 391,-286 391,-271 1,-271"/>
<text text-anchor="start" x="2" y="-275.4" font-family="Helvetica,sans-Serif" font-size="12.00" fill="#000000">hs:StudentPhotoImage</text>
</a>
</g>
<g id="a_node3_24"><a xlink:href="../../j/CriminalTraitGraffitiImage/#diagram" xlink:title="An image of criminal artwork." target="_top">
<text text-anchor="start" x="2" y="-260.4" font-family="Helvetica,sans-Serif" font-size="12.00" fill="#000000">j:CriminalTraitGraffitiImage</text>
</a>
</g>
<g id="a_node3_25"><a xlink:href="../../j/CriminalTraitTattooImage/#diagram" xlink:title="An image of a tattoo associated with a criminal organization or person." target="_top">
<polygon fill="#ebebeb" stroke="transparent" points="1,-241 1,-256 391,-256 391,-241 1,-241"/>
<text text-anchor="start" x="2" y="-245.4" font-family="Helvetica,sans-Serif" font-size="12.00" fill="#000000">j:CriminalTraitTattooImage</text>
</a>
</g>
<g id="a_node3_26"><a xlink:href="../../j/ParoleHearingNoticeAppearanceWaiverParoleeSignatureWitnessImage/#diagram" xlink:title="An image of a signature of a parolee associated with an appearance waiver." target="_top">
<text text-anchor="start" x="2" y="-230.4" font-family="Helvetica,sans-Serif" font-size="12.00" fill="#000000">j:ParoleHearingNoticeAppearanceWaiverParoleeSignatureWitnessImage</text>
</a>
</g>
<g id="a_node3_27"><a xlink:href="../../j/SignatureImage/#diagram" xlink:title="An image of a signature." target="_top">
<polygon fill="#ebebeb" stroke="transparent" points="1,-211 1,-226 391,-226 391,-211 1,-211"/>
<text text-anchor="start" x="2" y="-215.4" font-family="Helvetica,sans-Serif" font-size="12.00" fill="#000000">j:SignatureImage</text>
</a>
</g>
<g id="a_node3_28"><a xlink:href="../../m/PortImage/#diagram" xlink:title="An image of a port." target="_top">
<text text-anchor="start" x="2" y="-200.4" font-family="Helvetica,sans-Serif" font-size="12.00" fill="#000000">m:PortImage</text>
</a>
</g>
<g id="a_node3_29"><a xlink:href="../../m/VesselImage/#diagram" xlink:title="An image of a vessel." target="_top">
<polygon fill="#ebebeb" stroke="transparent" points="1,-181 1,-196 391,-196 391,-181 1,-181"/>
<text text-anchor="start" x="2" y="-185.4" font-family="Helvetica,sans-Serif" font-size="12.00" fill="#000000">m:VesselImage</text>
</a>
</g>
<g id="a_node3_30"><a xlink:href="../../m/VesselNationalFlagImage/#diagram" xlink:title="An image of a national flag under which a vessel sails." target="_top">
<text text-anchor="start" x="2" y="-170.4" font-family="Helvetica,sans-Serif" font-size="12.00" fill="#000000">m:VesselNationalFlagImage</text>
</a>
</g>
<g id="a_node3_31"><a xlink:href="../../nc/AssessmentImage/#diagram" xlink:title="A picture of the assessment" target="_top">
<polygon fill="#ebebeb" stroke="transparent" points="1,-151 1,-166 391,-166 391,-151 1,-151"/>
<text text-anchor="start" x="2" y="-155.4" font-family="Helvetica,sans-Serif" font-size="12.00" fill="#000000">nc:AssessmentImage</text>
</a>
</g>
<g id="a_node3_32"><a xlink:href="../../nc/CrisisImage/#diagram" xlink:title="An image of a crisis." target="_top">
<text text-anchor="start" x="2" y="-140.4" font-family="Helvetica,sans-Serif" font-size="12.00" fill="#000000">nc:CrisisImage</text>
</a>
</g>
<g id="a_node3_33"><a xlink:href="../../nc/DeviceStoredImage/#diagram" xlink:title="An image stored on a device." target="_top">
<polygon fill="#ebebeb" stroke="transparent" points="1,-121 1,-136 391,-136 391,-121 1,-121"/>
<text text-anchor="start" x="2" y="-125.4" font-family="Helvetica,sans-Serif" font-size="12.00" fill="#000000">nc:DeviceStoredImage</text>
</a>
</g>
<g id="a_node3_34"><a xlink:href="../../nc/FacilitySiteDiagram/#diagram" xlink:title="A diagram of the layout of a facility." target="_top">
<text text-anchor="start" x="2" y="-110.4" font-family="Helvetica,sans-Serif" font-size="12.00" fill="#000000">nc:FacilitySiteDiagram</text>
</a>
</g>
<g id="a_node3_35"><a xlink:href="../../nc/Image/#diagram" xlink:title="A picture or visual representation of something." target="_top">
<polygon fill="#ebebeb" stroke="transparent" points="1,-91 1,-106 391,-106 391,-91 1,-91"/>
<text text-anchor="start" x="2" y="-95.4" font-family="Helvetica,sans-Serif" font-size="12.00" fill="#000000">nc:Image</text>
</a>
</g>
<g id="a_node3_36"><a xlink:href="../../nc/ItemImage/#diagram" xlink:title="A binary representation of an image of an item." target="_top">
<text text-anchor="start" x="2" y="-80.4" font-family="Helvetica,sans-Serif" font-size="12.00" fill="#000000">nc:ItemImage</text>
</a>
</g>
<g id="a_node3_37"><a xlink:href="../../nc/MessageAttachmentImage/#diagram" xlink:title="An image file which is attached to a message." target="_top">
<polygon fill="#ebebeb" stroke="transparent" points="1,-61 1,-76 391,-76 391,-61 1,-61"/>
<text text-anchor="start" x="2" y="-65.4" font-family="Helvetica,sans-Serif" font-size="12.00" fill="#000000">nc:MessageAttachmentImage</text>
</a>
</g>
<g id="a_node3_38"><a xlink:href="../../nc/PersonDigitalImage/#diagram" xlink:title="A photograph or image of a person in a digital format." target="_top">
<text text-anchor="start" x="2" y="-50.4" font-family="Helvetica,sans-Serif" font-size="12.00" fill="#000000">nc:PersonDigitalImage</text>
</a>
</g>
<g id="a_node3_39"><a xlink:href="../../nc/PersonDigitizedSignatureImage/#diagram" xlink:title="An image of a handwritten signature of a person." target="_top">
<polygon fill="#ebebeb" stroke="transparent" points="1,-31 1,-46 391,-46 391,-31 1,-31"/>
<text text-anchor="start" x="2" y="-35.4" font-family="Helvetica,sans-Serif" font-size="12.00" fill="#000000">nc:PersonDigitizedSignatureImage</text>
</a>
</g>
<g id="a_node3_40"><a xlink:href="../../nc/PersonXRayImage/#diagram" xlink:title="An X&#45;Ray image of a person or part of a person." target="_top">
<text text-anchor="start" x="2" y="-20.4" font-family="Helvetica,sans-Serif" font-size="12.00" fill="#000000">nc:PersonXRayImage</text>
</a>
</g>
<g id="a_node3_41"><a xlink:href="../../nc/PhysicalFeatureImage/#diagram" xlink:title="A digital image of a physical feature." target="_top">
<polygon fill="#ebebeb" stroke="transparent" points="1,-1 1,-16 391,-16 391,-1 1,-1"/>
<text text-anchor="start" x="2" y="-5.4" font-family="Helvetica,sans-Serif" font-size="12.00" fill="#000000">nc:PhysicalFeatureImage</text>
</a>
</g>
<polygon fill="#000000" stroke="#000000" points="0,-346 0,-346 392,-346 392,-346 0,-346"/>
<polygon fill="none" stroke="#000000" points="0,0 0,-362 392,-362 392,0 0,0"/>
</g>
<!-- Properties&#45;&gt;nc:ImageType -->
<g id="edge2" class="edge">
<title>Properties:top&#45;&gt;nc:ImageType:top</title>
<path fill="none" stroke="#000000" d="M391,-354C416.3585,-354 425.1498,-354 446.2371,-354"/>
<polygon fill="#000000" stroke="#000000" points="446.5,-357.5001 456.5,-354 446.5,-350.5001 446.5,-357.5001"/>
<text text-anchor="middle" x="421.5" y="-357.4" font-family="Helvetica,sans-Serif" font-size="12.00" fill="#000000">type</text>
</g>
<!-- nc:BinaryType -->
<g id="node5" class="node">
<title>nc:BinaryType</title>
<g id="a_node5_42"><a xlink:href="../../nc/BinaryType/#diagram" xlink:title="A data type for a digital representation of an object encoded in a binary format." target="_top">
<text text-anchor="start" x="568.5" y="-407.4" font-family="Helvetica,sans-Serif" font-size="12.00" fill="#000000">nc:BinaryType</text>
</a>
</g>
<polygon fill="none" stroke="#000000" points="566,-402.5 566,-419.5 647,-419.5 647,-402.5 566,-402.5"/>
</g>
<!-- nc:BinaryType&#45;&gt;nc:ImageType -->
<g id="edge4" class="edge">
<title>nc:BinaryType&#45;&gt;nc:ImageType</title>
<path fill="none" stroke="#000000" d="M606.5,-402.4761C606.5,-396.114 606.5,-386.8292 606.5,-376.8557"/>
<polygon fill="#000000" stroke="#000000" points="610.0001,-376.7354 606.5,-366.7354 603.0001,-376.7354 610.0001,-376.7354"/>
<text text-anchor="middle" x="597" y="-381.4" font-family="Helvetica,sans-Serif" font-size="12.00" fill="#000000">extension</text>
</g>
<!-- structures:ObjectType -->
<g id="node6" class="node">
<title>structures:ObjectType</title>
<g id="a_node6_43"><a xlink:href="../../structures/ObjectType/#diagram" xlink:title="A data type for a thing with its own lifespan that has some existence." target="_top">
<text text-anchor="start" x="547.5" y="-460.4" font-family="Helvetica,sans-Serif" font-size="12.00" fill="#000000">structures:ObjectType</text>
</a>
</g>
<polygon fill="none" stroke="#000000" points="545.5,-455.5 545.5,-472.5 667.5,-472.5 667.5,-455.5 545.5,-455.5"/>
</g>
<!-- structures:ObjectType&#45;&gt;nc:BinaryType -->
<g id="edge5" class="edge">
<title>structures:ObjectType&#45;&gt;nc:BinaryType</title>
<path fill="none" stroke="#000000" d="M606.5,-455.411C606.5,-448.5124 606.5,-438.5696 606.5,-429.84"/>
<polygon fill="#000000" stroke="#000000" points="610.0001,-429.7518 606.5,-419.7519 603.0001,-429.7519 610.0001,-429.7518"/>
<text text-anchor="middle" x="597" y="-434.4" font-family="Helvetica,sans-Serif" font-size="12.00" fill="#000000">extension</text>
</g>
</g>
</svg>
