<?xml version="1.0" encoding="UTF-8" standalone="no"?>
<!DOCTYPE svg PUBLIC "-//W3C//DTD SVG 1.1//EN"
 "http://www.w3.org/Graphics/SVG/1.1/DTD/svg11.dtd">
<!-- Generated by graphviz version 2.40.1 (20161225.0304)
 -->
<!-- Title: graphic Pages: 1 -->
<svg width="535pt" height="45pt"
 viewBox="0.00 0.00 535.00 45.00" xmlns="http://www.w3.org/2000/svg" xmlns:xlink="http://www.w3.org/1999/xlink">
<g id="graph0" class="graph" transform="scale(1 1) rotate(0) translate(4 41)">
<title>graphic</title>
<polygon fill="#ffffff" stroke="transparent" points="-4,4 -4,-41 531,-41 531,4 -4,4"/>
<!-- j:AcademicRecordRecordedDate -->
<g id="node1" class="node">
<title>j:AcademicRecordRecordedDate</title>
<text text-anchor="start" x="202.5" y="-21.4" font-family="Helvetica,sans-Serif" font-weight="bold" font-size="12.00" fill="#000000">j:AcademicRecordRecordedDate</text>
<polygon fill="none" stroke="#ff0000" stroke-width="5" points="198.5,-14 198.5,-34 392.5,-34 392.5,-14 198.5,-14"/>
</g>
<!-- nc:DateType -->
<g id="node3" class="node">
<title>nc:DateType</title>
<g id="a_node3_0"><a xlink:href="../../nc/DateType/#diagram" xlink:title="A data type for a calendar date." target="_top">
<text text-anchor="start" x="456.5" y="-20.4" font-family="Helvetica,sans-Serif" font-size="12.00" fill="#000000">nc:DateType</text>
</a>
</g>
<polygon fill="none" stroke="#000000" points="454,-15.5 454,-32.5 527,-32.5 527,-15.5 454,-15.5"/>
</g>
<!-- j:AcademicRecordRecordedDate&#45;&gt;nc:DateType -->
<g id="edge2" class="edge">
<title>j:AcademicRecordRecordedDate&#45;&gt;nc:DateType</title>
<path fill="none" stroke="#000000" d="M395.285,-24C412.1752,-24 428.9739,-24 443.6521,-24"/>
<polygon fill="#000000" stroke="#000000" points="443.9365,-27.5001 453.9364,-24 443.9364,-20.5001 443.9365,-27.5001"/>
<text text-anchor="middle" x="424.5" y="-27.4" font-family="Helvetica,sans-Serif" font-size="12.00" fill="#000000">type</text>
</g>
<!-- Types -->
<g id="node2" class="node">
<title>Types</title>
<text text-anchor="start" x="2.5" y="-21.4" font-family="Helvetica,sans-Serif" font-weight="bold" font-size="12.00" fill="#000000">Types</text>
<g id="a_node2_1"><a xlink:href="../../j/AcademicRecordType/#diagram" xlink:title="A data type for a record of academic achievement for a subject." target="_top">
<polygon fill="#ebebeb" stroke="transparent" points="1.5,-1 1.5,-16 128.5,-16 128.5,-1 1.5,-1"/>
<text text-anchor="start" x="2.5" y="-5.4" font-family="Helvetica,sans-Serif" font-size="12.00" fill="#000000">j:AcademicRecordType</text>
</a>
</g>
<polygon fill="#000000" stroke="#000000" points=".5,-16 .5,-16 129.5,-16 129.5,-16 .5,-16"/>
<polygon fill="none" stroke="#000000" points="0,0 0,-32 129,-32 129,0 0,0"/>
</g>
<!-- Types&#45;&gt;j:AcademicRecordRecordedDate -->
<g id="edge1" class="edge">
<title>Types:top&#45;&gt;j:AcademicRecordRecordedDate</title>
<path fill="none" stroke="#000000" d="M128.5,-24C146.9321,-24 166.5086,-24 185.5243,-24"/>
<polygon fill="#000000" stroke="#000000" points="185.7128,-27.5001 195.7127,-24 185.7127,-20.5001 185.7128,-27.5001"/>
<text text-anchor="middle" x="162.5" y="-27.4" font-family="Helvetica,sans-Serif" font-size="12.00" fill="#000000">has&#45;a</text>
</g>
</g>
</svg>
