<?xml version="1.0" encoding="UTF-8" standalone="no"?>
<!DOCTYPE svg PUBLIC "-//W3C//DTD SVG 1.1//EN"
 "http://www.w3.org/Graphics/SVG/1.1/DTD/svg11.dtd">
<!-- Generated by graphviz version 2.40.1 (20161225.0304)
 -->
<!-- Title: graphic Pages: 1 -->
<svg width="431pt" height="154pt"
 viewBox="0.00 0.00 431.00 153.50" xmlns="http://www.w3.org/2000/svg" xmlns:xlink="http://www.w3.org/1999/xlink">
<g id="graph0" class="graph" transform="scale(1 1) rotate(0) translate(4 149.5)">
<title>graphic</title>
<polygon fill="#ffffff" stroke="transparent" points="-4,4 -4,-149.5 427,-149.5 427,4 -4,4"/>
<!-- biom:LipPrintMediumCodeType -->
<g id="node1" class="node">
<title>biom:LipPrintMediumCodeType</title>
<text text-anchor="start" x="211" y="-25.4" font-family="Helvetica,sans-Serif" font-weight="bold" font-size="12.00" fill="#000000">biom:LipPrintMediumCodeType</text>
<g id="a_node1_0"><a xlink:href="../../structures/SimpleObjectAttributeGroup/#diagram" xlink:title="A group of attributes that are applicable to objects, to be used when defining a complex type that is an extension of a simple type." target="_top">
<polygon fill="#ebebeb" stroke="transparent" points="210,-5 210,-20 418,-20 418,-5 210,-5"/>
<text text-anchor="start" x="211" y="-9.4" font-family="Helvetica,sans-Serif" font-size="12.00" fill="#000000">structures:SimpleObjectAttributeGroup</text>
</a>
</g>
<polygon fill="#ff0000" stroke="#ff0000" points="205,-20 205,-20 423,-20 423,-20 205,-20"/>
<polygon fill="none" stroke="#ff0000" stroke-width="5" points="207.5,-2.5 207.5,-37.5 420.5,-37.5 420.5,-2.5 207.5,-2.5"/>
</g>
<!-- Properties -->
<g id="node2" class="node">
<title>Properties</title>
<text text-anchor="start" x="2" y="-25.4" font-family="Helvetica,sans-Serif" font-weight="bold" font-size="12.00" fill="#000000">Properties</text>
<g id="a_node2_1"><a xlink:href="../../biom/LipPrintMediumCode/#diagram" xlink:title="A lip print medium code list" target="_top">
<polygon fill="#ebebeb" stroke="transparent" points="1,-5 1,-20 145,-20 145,-5 1,-5"/>
<text text-anchor="start" x="2" y="-9.4" font-family="Helvetica,sans-Serif" font-size="12.00" fill="#000000">biom:LipPrintMediumCode</text>
</a>
</g>
<polygon fill="#000000" stroke="#000000" points="0,-20 0,-20 146,-20 146,-20 0,-20"/>
<polygon fill="none" stroke="#000000" points="0,-4 0,-36 146,-36 146,-4 0,-4"/>
</g>
<!-- Properties&#45;&gt;biom:LipPrintMediumCodeType -->
<g id="edge1" class="edge">
<title>Properties:top&#45;&gt;biom:LipPrintMediumCodeType:top</title>
<path fill="none" stroke="#000000" d="M145,-28C170.1649,-28 178.8891,-28 199.8154,-28"/>
<polygon fill="#000000" stroke="#000000" points="200,-31.5001 210,-28 200,-24.5001 200,-31.5001"/>
<text text-anchor="middle" x="175.5" y="-31.4" font-family="Helvetica,sans-Serif" font-size="12.00" fill="#000000">type</text>
</g>
<!-- biom:LipPrintMediumCodeSimpleType -->
<g id="node3" class="node">
<title>biom:LipPrintMediumCodeSimpleType</title>
<g id="a_node3_2"><a xlink:href="../../biom/LipPrintMediumCodeSimpleType/#diagram" xlink:title="A data type for a lip print medium code list" target="_top">
<text text-anchor="start" x="212" y="-80.4" font-family="Helvetica,sans-Serif" font-size="12.00" fill="#000000">biom:LipPrintMediumCodeSimpleType</text>
</a>
</g>
<polygon fill="none" stroke="#000000" points="209.5,-75.5 209.5,-92.5 418.5,-92.5 418.5,-75.5 209.5,-75.5"/>
</g>
<!-- biom:LipPrintMediumCodeSimpleType&#45;&gt;biom:LipPrintMediumCodeType -->
<g id="edge2" class="edge">
<title>biom:LipPrintMediumCodeSimpleType&#45;&gt;biom:LipPrintMediumCodeType</title>
<path fill="none" stroke="#000000" d="M314,-75.4351C314,-68.931 314,-59.5678 314,-50.3827"/>
<polygon fill="#000000" stroke="#000000" points="317.5001,-50.25 314,-40.25 310.5001,-50.25 317.5001,-50.25"/>
<text text-anchor="middle" x="304.5" y="-54.65" font-family="Helvetica,sans-Serif" font-size="12.00" fill="#000000">extension</text>
</g>
<!-- xs:token -->
<g id="node4" class="node">
<title>xs:token</title>
<g id="a_node4_3"><a xlink:href="../../xs/token/#diagram" xlink:title="&lt;TABLE&gt;" target="_top">
<text text-anchor="start" x="292" y="-133.4" font-family="Helvetica,sans-Serif" font-size="12.00" fill="#000000">xs:token</text>
</a>
</g>
<polygon fill="none" stroke="#000000" points="289.5,-128.5 289.5,-145.5 338.5,-145.5 338.5,-128.5 289.5,-128.5"/>
</g>
<!-- xs:token&#45;&gt;biom:LipPrintMediumCodeSimpleType -->
<g id="edge3" class="edge">
<title>xs:token&#45;&gt;biom:LipPrintMediumCodeSimpleType</title>
<path fill="none" stroke="#000000" d="M314,-128.411C314,-121.5124 314,-111.5696 314,-102.84"/>
<polygon fill="#000000" stroke="#000000" points="317.5001,-102.7518 314,-92.7519 310.5001,-102.7519 317.5001,-102.7518"/>
<text text-anchor="middle" x="304.5" y="-107.4" font-family="Helvetica,sans-Serif" font-size="12.00" fill="#000000">restriction</text>
</g>
</g>
</svg>
