<?xml version="1.0" encoding="UTF-8" standalone="no"?>
<!DOCTYPE svg PUBLIC "-//W3C//DTD SVG 1.1//EN"
 "http://www.w3.org/Graphics/SVG/1.1/DTD/svg11.dtd">
<!-- Generated by graphviz version 2.40.1 (20161225.0304)
 -->
<!-- Title: graphic Pages: 1 -->
<svg width="375pt" height="45pt"
 viewBox="0.00 0.00 375.00 45.00" xmlns="http://www.w3.org/2000/svg" xmlns:xlink="http://www.w3.org/1999/xlink">
<g id="graph0" class="graph" transform="scale(1 1) rotate(0) translate(4 41)">
<title>graphic</title>
<polygon fill="#ffffff" stroke="transparent" points="-4,4 -4,-41 371,-41 371,4 -4,4"/>
<!-- mo:AffiliationAugmentationPoint -->
<g id="node1" class="node">
<title>mo:AffiliationAugmentationPoint</title>
<text text-anchor="start" x="173" y="-21.4" font-family="Helvetica,sans-Serif" font-weight="bold" font-size="12.00" fill="#000000">mo:AffiliationAugmentationPoint</text>
<polygon fill="none" stroke="#ff0000" stroke-width="5" points="169.5,-14 169.5,-34 364.5,-34 364.5,-14 169.5,-14"/>
</g>
<!-- Types -->
<g id="node2" class="node">
<title>Types</title>
<text text-anchor="start" x="2" y="-21.4" font-family="Helvetica,sans-Serif" font-weight="bold" font-size="12.00" fill="#000000">Types</text>
<g id="a_node2_0"><a xlink:href="../../mo/AffiliationType/#diagram" xlink:title="A data type for an affiliation." target="_top">
<polygon fill="#ebebeb" stroke="transparent" points="1,-1 1,-16 99,-16 99,-1 1,-1"/>
<text text-anchor="start" x="2" y="-5.4" font-family="Helvetica,sans-Serif" font-size="12.00" fill="#000000">mo:AffiliationType</text>
</a>
</g>
<polygon fill="#000000" stroke="#000000" points="0,-16 0,-16 100,-16 100,-16 0,-16"/>
<polygon fill="none" stroke="#000000" points="0,0 0,-32 100,-32 100,0 0,0"/>
</g>
<!-- Types&#45;&gt;mo:AffiliationAugmentationPoint -->
<g id="edge1" class="edge">
<title>Types:top&#45;&gt;mo:AffiliationAugmentationPoint</title>
<path fill="none" stroke="#000000" d="M99,-24C117.5425,-24 137.2362,-24 156.3657,-24"/>
<polygon fill="#000000" stroke="#000000" points="156.6152,-27.5001 166.6152,-24 156.6152,-20.5001 156.6152,-27.5001"/>
<text text-anchor="middle" x="133.5" y="-27.4" font-family="Helvetica,sans-Serif" font-size="12.00" fill="#000000">has&#45;a</text>
</g>
</g>
</svg>
