<?xml version="1.0" encoding="UTF-8" standalone="no"?>
<!DOCTYPE svg PUBLIC "-//W3C//DTD SVG 1.1//EN"
 "http://www.w3.org/Graphics/SVG/1.1/DTD/svg11.dtd">
<!-- Generated by graphviz version 2.40.1 (20161225.0304)
 -->
<!-- Title: graphic Pages: 1 -->
<svg width="448pt" height="45pt"
 viewBox="0.00 0.00 448.00 45.00" xmlns="http://www.w3.org/2000/svg" xmlns:xlink="http://www.w3.org/1999/xlink">
<g id="graph0" class="graph" transform="scale(1 1) rotate(0) translate(4 41)">
<title>graphic</title>
<polygon fill="#ffffff" stroke="transparent" points="-4,4 -4,-41 444,-41 444,4 -4,4"/>
<!-- nc:PersonCapability -->
<g id="node1" class="node">
<title>nc:PersonCapability</title>
<text text-anchor="start" x="158.5" y="-21.4" font-family="Helvetica,sans-Serif" font-weight="bold" font-size="12.00" fill="#000000">nc:PersonCapability</text>
<polygon fill="none" stroke="#ff0000" stroke-width="5" points="154.5,-14 154.5,-34 278.5,-34 278.5,-14 154.5,-14"/>
</g>
<!-- nc:CapabilityType -->
<g id="node3" class="node">
<title>nc:CapabilityType</title>
<g id="a_node3_0"><a xlink:href="../../nc/CapabilityType/#diagram" xlink:title="A data type for an ability to complete a task or execute a course of action under specified condition and level of performance." target="_top">
<text text-anchor="start" x="342" y="-20.4" font-family="Helvetica,sans-Serif" font-size="12.00" fill="#000000">nc:CapabilityType</text>
</a>
</g>
<polygon fill="none" stroke="#000000" points="340,-15.5 340,-32.5 440,-32.5 440,-15.5 340,-15.5"/>
</g>
<!-- nc:PersonCapability&#45;&gt;nc:CapabilityType -->
<g id="edge2" class="edge">
<title>nc:PersonCapability&#45;&gt;nc:CapabilityType</title>
<path fill="none" stroke="#000000" d="M281.105,-24C297.0696,-24 314.1066,-24 329.8496,-24"/>
<polygon fill="#000000" stroke="#000000" points="329.984,-27.5001 339.9839,-24 329.9839,-20.5001 329.984,-27.5001"/>
<text text-anchor="middle" x="310.5" y="-27.4" font-family="Helvetica,sans-Serif" font-size="12.00" fill="#000000">type</text>
</g>
<!-- Types -->
<g id="node2" class="node">
<title>Types</title>
<text text-anchor="start" x="2.5" y="-21.4" font-family="Helvetica,sans-Serif" font-weight="bold" font-size="12.00" fill="#000000">Types</text>
<g id="a_node2_1"><a xlink:href="../../nc/PersonType/#diagram" xlink:title="A data type for a human being." target="_top">
<polygon fill="#ebebeb" stroke="transparent" points="1.5,-1 1.5,-16 84.5,-16 84.5,-1 1.5,-1"/>
<text text-anchor="start" x="2.5" y="-5.4" font-family="Helvetica,sans-Serif" font-size="12.00" fill="#000000">nc:PersonType</text>
</a>
</g>
<polygon fill="#000000" stroke="#000000" points=".5,-16 .5,-16 85.5,-16 85.5,-16 .5,-16"/>
<polygon fill="none" stroke="#000000" points="0,0 0,-32 85,-32 85,0 0,0"/>
</g>
<!-- Types&#45;&gt;nc:PersonCapability -->
<g id="edge1" class="edge">
<title>Types:top&#45;&gt;nc:PersonCapability</title>
<path fill="none" stroke="#000000" d="M84.5,-24C102.9658,-24 122.8847,-24 141.5125,-24"/>
<polygon fill="#000000" stroke="#000000" points="141.711,-27.5001 151.711,-24 141.7109,-20.5001 141.711,-27.5001"/>
<text text-anchor="middle" x="118.5" y="-27.4" font-family="Helvetica,sans-Serif" font-size="12.00" fill="#000000">has&#45;a</text>
</g>
</g>
</svg>
