<?xml version="1.0" encoding="UTF-8" standalone="no"?>
<!DOCTYPE svg PUBLIC "-//W3C//DTD SVG 1.1//EN"
 "http://www.w3.org/Graphics/SVG/1.1/DTD/svg11.dtd">
<!-- Generated by graphviz version 2.40.1 (20161225.0304)
 -->
<!-- Title: graphic Pages: 1 -->
<svg width="539pt" height="45pt"
 viewBox="0.00 0.00 539.00 45.00" xmlns="http://www.w3.org/2000/svg" xmlns:xlink="http://www.w3.org/1999/xlink">
<g id="graph0" class="graph" transform="scale(1 1) rotate(0) translate(4 41)">
<title>graphic</title>
<polygon fill="#ffffff" stroke="transparent" points="-4,4 -4,-41 535,-41 535,4 -4,4"/>
<!-- j:CaseVerdictGivenIndicator -->
<g id="node1" class="node">
<title>j:CaseVerdictGivenIndicator</title>
<text text-anchor="start" x="212.5" y="-21.4" font-family="Helvetica,sans-Serif" font-weight="bold" font-size="12.00" fill="#000000">j:CaseVerdictGivenIndicator</text>
<polygon fill="none" stroke="#ff0000" stroke-width="5" points="208.5,-14 208.5,-34 376.5,-34 376.5,-14 208.5,-14"/>
</g>
<!-- niem&#45;xs:boolean -->
<g id="node3" class="node">
<title>niem&#45;xs:boolean</title>
<g id="a_node3_0"><a xlink:href="../../niem-xs/boolean/#diagram" xlink:title="A data type for binary&#45;valued logic (true/false)." target="_top">
<text text-anchor="start" x="440.5" y="-20.4" font-family="Helvetica,sans-Serif" font-size="12.00" fill="#000000">niem&#45;xs:boolean</text>
</a>
</g>
<polygon fill="none" stroke="#000000" points="438,-15.5 438,-32.5 531,-32.5 531,-15.5 438,-15.5"/>
</g>
<!-- j:CaseVerdictGivenIndicator&#45;&gt;niem&#45;xs:boolean -->
<g id="edge2" class="edge">
<title>j:CaseVerdictGivenIndicator&#45;&gt;niem&#45;xs:boolean</title>
<path fill="none" stroke="#000000" d="M379.2316,-24C395.6227,-24 412.3777,-24 427.561,-24"/>
<polygon fill="#000000" stroke="#000000" points="427.7977,-27.5001 437.7976,-24 427.7976,-20.5001 427.7977,-27.5001"/>
<text text-anchor="middle" x="408.5" y="-27.4" font-family="Helvetica,sans-Serif" font-size="12.00" fill="#000000">type</text>
</g>
<!-- Types -->
<g id="node2" class="node">
<title>Types</title>
<text text-anchor="start" x="2.5" y="-21.4" font-family="Helvetica,sans-Serif" font-weight="bold" font-size="12.00" fill="#000000">Types</text>
<g id="a_node2_1"><a xlink:href="../../j/CaseAugmentationType/#diagram" xlink:title="A data type for additional information about a case." target="_top">
<polygon fill="#ebebeb" stroke="transparent" points="1.5,-1 1.5,-16 138.5,-16 138.5,-1 1.5,-1"/>
<text text-anchor="start" x="2.5" y="-5.4" font-family="Helvetica,sans-Serif" font-size="12.00" fill="#000000">j:CaseAugmentationType</text>
</a>
</g>
<polygon fill="#000000" stroke="#000000" points=".5,-16 .5,-16 139.5,-16 139.5,-16 .5,-16"/>
<polygon fill="none" stroke="#000000" points="0,0 0,-32 139,-32 139,0 0,0"/>
</g>
<!-- Types&#45;&gt;j:CaseVerdictGivenIndicator -->
<g id="edge1" class="edge">
<title>Types:top&#45;&gt;j:CaseVerdictGivenIndicator</title>
<path fill="none" stroke="#000000" d="M138.5,-24C156.9704,-24 176.6868,-24 195.6318,-24"/>
<polygon fill="#000000" stroke="#000000" points="195.7599,-27.5001 205.7599,-24 195.7598,-20.5001 195.7599,-27.5001"/>
<text text-anchor="middle" x="172.5" y="-27.4" font-family="Helvetica,sans-Serif" font-size="12.00" fill="#000000">has&#45;a</text>
</g>
</g>
</svg>
