<?xml version="1.0" encoding="UTF-8" standalone="no"?>
<!DOCTYPE svg PUBLIC "-//W3C//DTD SVG 1.1//EN"
 "http://www.w3.org/Graphics/SVG/1.1/DTD/svg11.dtd">
<!-- Generated by graphviz version 2.40.1 (20161225.0304)
 -->
<!-- Title: graphic Pages: 1 -->
<svg width="929pt" height="229pt"
 viewBox="0.00 0.00 929.00 229.00" xmlns="http://www.w3.org/2000/svg" xmlns:xlink="http://www.w3.org/1999/xlink">
<g id="graph0" class="graph" transform="scale(1 1) rotate(0) translate(4 225)">
<title>graphic</title>
<polygon fill="#ffffff" stroke="transparent" points="-4,4 -4,-225 925,-225 925,4 -4,4"/>
<!-- it:UnloadingLocationType -->
<g id="node1" class="node">
<title>it:UnloadingLocationType</title>
<text text-anchor="start" x="178.5" y="-99.9" font-family="Helvetica,sans-Serif" font-weight="bold" font-size="12.00" fill="#000000">it:UnloadingLocationType</text>
<g id="a_node1_0"><a xlink:href="../../it/UnloadingLocationDate/#diagram" xlink:title="A date of arrival at port or airport with intent to unload." target="_top">
<polygon fill="#ebebeb" stroke="transparent" points="177.5,-79.5 177.5,-94.5 494.5,-94.5 494.5,-79.5 177.5,-79.5"/>
<text text-anchor="start" x="178.5" y="-83.9" font-family="Helvetica,sans-Serif" font-size="12.00" fill="#000000">it:UnloadingLocationDate: nc:DateType [0&#45;n]</text>
</a>
</g>
<g id="a_node1_1"><a xlink:href="../../it/CargoWarehouseDate/#diagram" xlink:title="A date of arrival of the cargo at the unloading Cargo Warehouse." target="_top">
<text text-anchor="start" x="178.5" y="-68.9" font-family="Helvetica,sans-Serif" font-size="12.00" fill="#000000">it:CargoWarehouseDate: nc:DateType [0&#45;n]</text>
</a>
</g>
<g id="a_node1_2"><a xlink:href="../../it/CargoWarehouseIdentification/#diagram" xlink:title="A unique identification for a Cargo Warehouse." target="_top">
<polygon fill="#ebebeb" stroke="transparent" points="177.5,-49.5 177.5,-64.5 494.5,-64.5 494.5,-49.5 177.5,-49.5"/>
<text text-anchor="start" x="178.5" y="-53.9" font-family="Helvetica,sans-Serif" font-size="12.00" fill="#000000">it:CargoWarehouseIdentification: nc:IdentificationType [0&#45;n]</text>
</a>
</g>
<g id="a_node1_3"><a xlink:href="../../it/NotifyParty/#diagram" xlink:title="A party to be notified." target="_top">
<text text-anchor="start" x="178.5" y="-38.9" font-family="Helvetica,sans-Serif" font-size="12.00" fill="#000000">it:NotifyParty: it:NotifyPartyType [0&#45;n]</text>
</a>
</g>
<g id="a_node1_4"><a xlink:href="../../it/UnloadingLocationCategoryAbstract/#diagram" xlink:title="A data concept for a code to identify a seaport, airport, freight terminal, rail station or other place at which goods are unloaded from the transport means used for their carriage." target="_top">
<polygon fill="#ebebeb" stroke="transparent" points="177.5,-19.5 177.5,-34.5 494.5,-34.5 494.5,-19.5 177.5,-19.5"/>
<text text-anchor="start" x="178.5" y="-23.9" font-family="Helvetica,sans-Serif" font-size="12.00" fill="#000000">it:UnloadingLocationCategoryAbstract [0&#45;n]</text>
</a>
</g>
<g id="a_node1_5"><a xlink:href="../../it/UnloadingLocationAugmentationPoint/#diagram" xlink:title="An augmentation point for UnloadingLocationType." target="_top">
<text text-anchor="start" x="178.5" y="-8.9" font-family="Helvetica,sans-Serif" font-size="12.00" fill="#000000">it:UnloadingLocationAugmentationPoint [0&#45;n]</text>
</a>
</g>
<polygon fill="#ff0000" stroke="#ff0000" points="172.5,-94.5 172.5,-94.5 499.5,-94.5 499.5,-94.5 172.5,-94.5"/>
<polygon fill="none" stroke="#ff0000" stroke-width="5" points="174.5,-2.5 174.5,-112.5 496.5,-112.5 496.5,-2.5 174.5,-2.5"/>
</g>
<!-- subst_d9e6884 -->
<g id="node2" class="node">
<title>subst_d9e6884</title>
<g id="a_node2_6"><a xlink:href="../../it/UnloadingLocationCategoryAbstract/#diagram" xlink:title="&lt;TABLE&gt;" target="_top">
<text text-anchor="start" x="538.5" y="-23.9" font-family="Helvetica,sans-Serif" font-weight="bold" font-size="12.00" fill="#000000">Substitution group it:UnloadingLocationCategoryAbstract</text>
</a>
</g>
<g id="a_node2_7"><a xlink:href="../../it/UnloadingLocationCategoryCode/#diagram" xlink:title="A code to identify a seaport, airport, freight terminal, rail station or other place at which goods are unloaded from the transport means used for their carriage." target="_top">
<polygon fill="#ebebeb" stroke="transparent" points="537.5,-3.5 537.5,-18.5 920.5,-18.5 920.5,-3.5 537.5,-3.5"/>
<text text-anchor="start" x="538.5" y="-7.9" font-family="Helvetica,sans-Serif" font-size="12.00" fill="#000000">it:UnloadingLocationCategoryCode: itcodes:LocationFunctionCodeType</text>
</a>
</g>
<polygon fill="#000000" stroke="#000000" points="536.5,-18.5 536.5,-18.5 921.5,-18.5 921.5,-18.5 536.5,-18.5"/>
<polygon fill="none" stroke="#000000" points="536,-2.5 536,-34.5 921,-34.5 921,-2.5 536,-2.5"/>
</g>
<!-- it:UnloadingLocationType&#45;&gt;subst_d9e6884 -->
<g id="edge1" class="edge">
<title>it:UnloadingLocationType:e&#45;&gt;subst_d9e6884:w</title>
<path fill="none" stroke="#000000" d="M504.6119,-26.5C516.1435,-26.5 522.2708,-26.5 537.5,-26.5"/>
<polygon fill="#000000" stroke="#000000" points="504.5,-23.0001 494.5,-26.5 504.5,-30.0001 504.5,-23.0001"/>
</g>
<!-- Properties -->
<g id="node3" class="node">
<title>Properties</title>
<text text-anchor="start" x="2.5" y="-99.9" font-family="Helvetica,sans-Serif" font-weight="bold" font-size="12.00" fill="#000000">Properties</text>
<g id="a_node3_8"><a xlink:href="../../it/UnloadingLocation/#diagram" xlink:title="An identification of a seaport, airport, freight terminal, rail station or other place at which goods are unloaded from the means of transport having been used for their carriage." target="_top">
<polygon fill="#ebebeb" stroke="transparent" points="1.5,-79.5 1.5,-94.5 112.5,-94.5 112.5,-79.5 1.5,-79.5"/>
<text text-anchor="start" x="2.5" y="-83.9" font-family="Helvetica,sans-Serif" font-size="12.00" fill="#000000">it:UnloadingLocation</text>
</a>
</g>
<polygon fill="#000000" stroke="#000000" points=".5,-94.5 .5,-94.5 113.5,-94.5 113.5,-94.5 .5,-94.5"/>
<polygon fill="none" stroke="#000000" points="0,-78.5 0,-110.5 113,-110.5 113,-78.5 0,-78.5"/>
</g>
<!-- Properties&#45;&gt;it:UnloadingLocationType -->
<g id="edge2" class="edge">
<title>Properties:top&#45;&gt;it:UnloadingLocationType:top</title>
<path fill="none" stroke="#000000" d="M112.5,-102.5C137.6649,-102.5 146.3891,-102.5 167.3154,-102.5"/>
<polygon fill="#000000" stroke="#000000" points="167.5,-106.0001 177.5,-102.5 167.5,-99.0001 167.5,-106.0001"/>
<text text-anchor="middle" x="142.5" y="-105.9" font-family="Helvetica,sans-Serif" font-size="12.00" fill="#000000">type</text>
</g>
<!-- nc:LocationType -->
<g id="node4" class="node">
<title>nc:LocationType</title>
<g id="a_node4_9"><a xlink:href="../../nc/LocationType/#diagram" xlink:title="A data type for geospatial location." target="_top">
<text text-anchor="start" x="291.5" y="-155.9" font-family="Helvetica,sans-Serif" font-size="12.00" fill="#000000">nc:LocationType</text>
</a>
</g>
<polygon fill="none" stroke="#000000" points="289,-151 289,-168 382,-168 382,-151 289,-151"/>
</g>
<!-- nc:LocationType&#45;&gt;it:UnloadingLocationType -->
<g id="edge3" class="edge">
<title>nc:LocationType&#45;&gt;it:UnloadingLocationType</title>
<path fill="none" stroke="#000000" d="M335.5,-150.9079C335.5,-144.5936 335.5,-135.3582 335.5,-125.1194"/>
<polygon fill="#000000" stroke="#000000" points="339.0001,-125.058 335.5,-115.058 332.0001,-125.0581 339.0001,-125.058"/>
<text text-anchor="middle" x="326" y="-129.9" font-family="Helvetica,sans-Serif" font-size="12.00" fill="#000000">extension</text>
</g>
<!-- structures:ObjectType -->
<g id="node5" class="node">
<title>structures:ObjectType</title>
<g id="a_node5_10"><a xlink:href="../../structures/ObjectType/#diagram" xlink:title="A data type for a thing with its own lifespan that has some existence." target="_top">
<text text-anchor="start" x="276.5" y="-208.9" font-family="Helvetica,sans-Serif" font-size="12.00" fill="#000000">structures:ObjectType</text>
</a>
</g>
<polygon fill="none" stroke="#000000" points="274.5,-204 274.5,-221 396.5,-221 396.5,-204 274.5,-204"/>
</g>
<!-- structures:ObjectType&#45;&gt;nc:LocationType -->
<g id="edge4" class="edge">
<title>structures:ObjectType&#45;&gt;nc:LocationType</title>
<path fill="none" stroke="#000000" d="M335.5,-203.911C335.5,-197.0124 335.5,-187.0696 335.5,-178.34"/>
<polygon fill="#000000" stroke="#000000" points="339.0001,-178.2518 335.5,-168.2519 332.0001,-178.2519 339.0001,-178.2518"/>
<text text-anchor="middle" x="326" y="-182.9" font-family="Helvetica,sans-Serif" font-size="12.00" fill="#000000">extension</text>
</g>
</g>
</svg>
