<?xml version="1.0" encoding="UTF-8" standalone="no"?>
<!DOCTYPE svg PUBLIC "-//W3C//DTD SVG 1.1//EN"
 "http://www.w3.org/Graphics/SVG/1.1/DTD/svg11.dtd">
<!-- Generated by graphviz version 2.40.1 (20161225.0304)
 -->
<!-- Title: graphic Pages: 1 -->
<svg width="876pt" height="131pt"
 viewBox="0.00 0.00 876.00 130.50" xmlns="http://www.w3.org/2000/svg" xmlns:xlink="http://www.w3.org/1999/xlink">
<g id="graph0" class="graph" transform="scale(1 1) rotate(0) translate(4 126.5)">
<title>graphic</title>
<polygon fill="#ffffff" stroke="transparent" points="-4,4 -4,-126.5 872,-126.5 872,4 -4,4"/>
<!-- scr:TravelModeType -->
<g id="node1" class="node">
<title>scr:TravelModeType</title>
<text text-anchor="start" x="152.5" y="-55.4" font-family="Helvetica,sans-Serif" font-weight="bold" font-size="12.00" fill="#000000">scr:TravelModeType</text>
<g id="a_node1_0"><a xlink:href="../../scr/TravelModeCategoryDescriptionText/#diagram" xlink:title="A description of a means of transport used by the alien." target="_top">
<polygon fill="#ebebeb" stroke="transparent" points="151.5,-35 151.5,-50 468.5,-50 468.5,-35 151.5,-35"/>
<text text-anchor="start" x="152.5" y="-39.4" font-family="Helvetica,sans-Serif" font-size="12.00" fill="#000000">scr:TravelModeCategoryDescriptionText: nc:TextType [0&#45;n]</text>
</a>
</g>
<g id="a_node1_1"><a xlink:href="../../scr/TravelModeCategoryAbstract/#diagram" xlink:title="A data concept for a means of transport used by the alien." target="_top">
<text text-anchor="start" x="152.5" y="-24.4" font-family="Helvetica,sans-Serif" font-size="12.00" fill="#000000">scr:TravelModeCategoryAbstract [0&#45;n]</text>
</a>
</g>
<g id="a_node1_2"><a xlink:href="../../scr/TravelModeAugmentationPoint/#diagram" xlink:title="An augmentation point for TravelModeType." target="_top">
<polygon fill="#ebebeb" stroke="transparent" points="151.5,-5 151.5,-20 468.5,-20 468.5,-5 151.5,-5"/>
<text text-anchor="start" x="152.5" y="-9.4" font-family="Helvetica,sans-Serif" font-size="12.00" fill="#000000">scr:TravelModeAugmentationPoint [0&#45;n]</text>
</a>
</g>
<polygon fill="#ff0000" stroke="#ff0000" points="146.5,-50 146.5,-50 473.5,-50 473.5,-50 146.5,-50"/>
<polygon fill="none" stroke="#ff0000" stroke-width="5" points="148.5,-2.5 148.5,-67.5 470.5,-67.5 470.5,-2.5 148.5,-2.5"/>
</g>
<!-- subst_d9e39808 -->
<g id="node2" class="node">
<title>subst_d9e39808</title>
<g id="a_node2_3"><a xlink:href="../../scr/TravelModeCategoryAbstract/#diagram" xlink:title="&lt;TABLE&gt;" target="_top">
<text text-anchor="start" x="512" y="-24.4" font-family="Helvetica,sans-Serif" font-weight="bold" font-size="12.00" fill="#000000">Substitution group scr:TravelModeCategoryAbstract</text>
</a>
</g>
<g id="a_node2_4"><a xlink:href="../../scr/TravelModeCategoryCode/#diagram" xlink:title="A means of transport used by the alien." target="_top">
<polygon fill="#ebebeb" stroke="transparent" points="511,-4 511,-19 867,-19 867,-4 511,-4"/>
<text text-anchor="start" x="512" y="-8.4" font-family="Helvetica,sans-Serif" font-size="12.00" fill="#000000">scr:TravelModeCategoryCode: scr:TravelModeCategoryCodeType</text>
</a>
</g>
<polygon fill="#000000" stroke="#000000" points="510,-19 510,-19 868,-19 868,-19 510,-19"/>
<polygon fill="none" stroke="#000000" points="510,-3 510,-35 868,-35 868,-3 510,-3"/>
</g>
<!-- scr:TravelModeType&#45;&gt;subst_d9e39808 -->
<g id="edge1" class="edge">
<title>scr:TravelModeType:e&#45;&gt;subst_d9e39808:w</title>
<path fill="none" stroke="#000000" d="M478.828,-27C490.0114,-27 496.0955,-27 511,-27"/>
<polygon fill="#000000" stroke="#000000" points="478.5,-23.5001 468.5,-27 478.5,-30.5001 478.5,-23.5001"/>
</g>
<!-- Properties -->
<g id="node3" class="node">
<title>Properties</title>
<text text-anchor="start" x="2.5" y="-55.4" font-family="Helvetica,sans-Serif" font-weight="bold" font-size="12.00" fill="#000000">Properties</text>
<g id="a_node3_5"><a xlink:href="../../scr/TravelMode/#diagram" xlink:title="A type of transportation used by a person during a person crossing." target="_top">
<polygon fill="#ebebeb" stroke="transparent" points="1.5,-35 1.5,-50 86.5,-50 86.5,-35 1.5,-35"/>
<text text-anchor="start" x="2.5" y="-39.4" font-family="Helvetica,sans-Serif" font-size="12.00" fill="#000000">scr:TravelMode</text>
</a>
</g>
<polygon fill="#000000" stroke="#000000" points=".5,-50 .5,-50 87.5,-50 87.5,-50 .5,-50"/>
<polygon fill="none" stroke="#000000" points="0,-34 0,-66 87,-66 87,-34 0,-34"/>
</g>
<!-- Properties&#45;&gt;scr:TravelModeType -->
<g id="edge2" class="edge">
<title>Properties:top&#45;&gt;scr:TravelModeType:top</title>
<path fill="none" stroke="#000000" d="M86.5,-58C111.6649,-58 120.3891,-58 141.3154,-58"/>
<polygon fill="#000000" stroke="#000000" points="141.5,-61.5001 151.5,-58 141.5,-54.5001 141.5,-61.5001"/>
<text text-anchor="middle" x="116.5" y="-61.4" font-family="Helvetica,sans-Serif" font-size="12.00" fill="#000000">type</text>
</g>
<!-- structures:ObjectType -->
<g id="node4" class="node">
<title>structures:ObjectType</title>
<g id="a_node4_6"><a xlink:href="../../structures/ObjectType/#diagram" xlink:title="A data type for a thing with its own lifespan that has some existence." target="_top">
<text text-anchor="start" x="250.5" y="-110.4" font-family="Helvetica,sans-Serif" font-size="12.00" fill="#000000">structures:ObjectType</text>
</a>
</g>
<polygon fill="none" stroke="#000000" points="248.5,-105.5 248.5,-122.5 370.5,-122.5 370.5,-105.5 248.5,-105.5"/>
</g>
<!-- structures:ObjectType&#45;&gt;scr:TravelModeType -->
<g id="edge3" class="edge">
<title>structures:ObjectType&#45;&gt;scr:TravelModeType</title>
<path fill="none" stroke="#000000" d="M309.5,-105.4117C309.5,-99.1025 309.5,-89.9911 309.5,-80.4049"/>
<polygon fill="#000000" stroke="#000000" points="313.0001,-80.3408 309.5,-70.3408 306.0001,-80.3409 313.0001,-80.3408"/>
<text text-anchor="middle" x="300" y="-84.65" font-family="Helvetica,sans-Serif" font-size="12.00" fill="#000000">extension</text>
</g>
</g>
</svg>
