<?xml version="1.0" encoding="UTF-8" standalone="no"?>
<!DOCTYPE svg PUBLIC "-//W3C//DTD SVG 1.1//EN"
 "http://www.w3.org/Graphics/SVG/1.1/DTD/svg11.dtd">
<!-- Generated by graphviz version 2.40.1 (20161225.0304)
 -->
<!-- Title: graphic Pages: 1 -->
<svg width="1182pt" height="212pt"
 viewBox="0.00 0.00 1182.00 212.00" xmlns="http://www.w3.org/2000/svg" xmlns:xlink="http://www.w3.org/1999/xlink">
<g id="graph0" class="graph" transform="scale(1 1) rotate(0) translate(4 208)">
<title>graphic</title>
<polygon fill="#ffffff" stroke="transparent" points="-4,4 -4,-208 1178,-208 1178,4 -4,4"/>
<!-- j:ObligationDueToOrganizationAssociationType -->
<g id="node1" class="node">
<title>j:ObligationDueToOrganizationAssociationType</title>
<text text-anchor="start" x="295.5" y="-83.9" font-family="Helvetica,sans-Serif" font-weight="bold" font-size="12.00" fill="#000000">j:ObligationDueToOrganizationAssociationType</text>
<g id="a_node1_0"><a xlink:href="../../nc/Obligation/#diagram" xlink:title="A thing that is owed to an entity." target="_top">
<polygon fill="#ebebeb" stroke="transparent" points="294.5,-63.5 294.5,-78.5 651.5,-78.5 651.5,-63.5 294.5,-63.5"/>
<text text-anchor="start" x="295.5" y="-67.9" font-family="Helvetica,sans-Serif" font-size="12.00" fill="#000000">nc:Obligation: nc:ObligationType [0&#45;n]</text>
</a>
</g>
<g id="a_node1_1"><a xlink:href="../../nc/Organization/#diagram" xlink:title="A unit which conducts some sort of business or operations." target="_top">
<text text-anchor="start" x="295.5" y="-52.9" font-family="Helvetica,sans-Serif" font-size="12.00" fill="#000000">nc:Organization: nc:OrganizationType [0&#45;n]</text>
</a>
</g>
<g id="a_node1_2"><a xlink:href="../../j/ObligationDueToOrganizationAssociationAugmentationPoint/#diagram" xlink:title="An augmentation point for ObligationDueToOrganizationAssociationType." target="_top">
<polygon fill="#ebebeb" stroke="transparent" points="294.5,-33.5 294.5,-48.5 651.5,-48.5 651.5,-33.5 294.5,-33.5"/>
<text text-anchor="start" x="295.5" y="-37.9" font-family="Helvetica,sans-Serif" font-size="12.00" fill="#000000">j:ObligationDueToOrganizationAssociationAugmentationPoint [0&#45;n]</text>
</a>
</g>
<polygon fill="#ff0000" stroke="#ff0000" points="289.5,-78.5 289.5,-78.5 656.5,-78.5 656.5,-78.5 289.5,-78.5"/>
<polygon fill="none" stroke="#ff0000" stroke-width="5" points="291.5,-31 291.5,-96 653.5,-96 653.5,-31 291.5,-31"/>
</g>
<!-- subst_d11e17305 -->
<g id="node2" class="node">
<title>subst_d11e17305</title>
<g id="a_node2_3"><a xlink:href="../../nc/Obligation/#diagram" xlink:title="&lt;TABLE&gt;" target="_top">
<text text-anchor="start" x="777.5" y="-86.9" font-family="Helvetica,sans-Serif" font-weight="bold" font-size="12.00" fill="#000000">Substitution group nc:Obligation</text>
</a>
</g>
<g id="a_node2_4"><a xlink:href="../../hs/ChildSupportObligation/#diagram" xlink:title="An obligation to provide support for a child." target="_top">
<polygon fill="#ebebeb" stroke="transparent" points="776.5,-66.5 776.5,-81.5 1091.5,-81.5 1091.5,-66.5 776.5,-66.5"/>
<text text-anchor="start" x="777.5" y="-70.9" font-family="Helvetica,sans-Serif" font-size="12.00" fill="#000000">hs:ChildSupportObligation: hs:ChildSupportObligationType</text>
</a>
</g>
<polygon fill="#000000" stroke="#000000" points="775.5,-81.5 775.5,-81.5 1092.5,-81.5 1092.5,-81.5 775.5,-81.5"/>
<polygon fill="none" stroke="#000000" points="775,-65.5 775,-97.5 1092,-97.5 1092,-65.5 775,-65.5"/>
</g>
<!-- j:ObligationDueToOrganizationAssociationType&#45;&gt;subst_d11e17305 -->
<g id="edge1" class="edge">
<title>j:ObligationDueToOrganizationAssociationType:e&#45;&gt;subst_d11e17305:w</title>
<path fill="none" stroke="#000000" d="M661.5369,-71.7021C709.3909,-73.6797 723.8794,-89.5 776.5,-89.5"/>
<polygon fill="#000000" stroke="#000000" points="661.5685,-68.2022 651.5,-71.5 661.4275,-75.2008 661.5685,-68.2022"/>
</g>
<!-- subst_d11e17574 -->
<g id="node3" class="node">
<title>subst_d11e17574</title>
<g id="a_node3_5"><a xlink:href="../../nc/Organization/#diagram" xlink:title="&lt;TABLE&gt;" target="_top">
<text text-anchor="start" x="695.5" y="-35.9" font-family="Helvetica,sans-Serif" font-weight="bold" font-size="12.00" fill="#000000">Substitution group nc:Organization</text>
</a>
</g>
<g id="a_node3_6"><a xlink:href="../../hs/ChildSupportEnforcementOrganization/#diagram" xlink:title="An organization charged with enforcing child support." target="_top">
<polygon fill="#ebebeb" stroke="transparent" points="694.5,-15.5 694.5,-30.5 1173.5,-30.5 1173.5,-15.5 694.5,-15.5"/>
<text text-anchor="start" x="695.5" y="-19.9" font-family="Helvetica,sans-Serif" font-size="12.00" fill="#000000">hs:ChildSupportEnforcementOrganization: hs:ChildSupportEnforcementOrganizationType</text>
</a>
</g>
<g id="a_node3_7"><a xlink:href="../../hs/ChildWelfareOrganization/#diagram" xlink:title="An organization charged with protecting the welfare of children." target="_top">
<text text-anchor="start" x="695.5" y="-4.9" font-family="Helvetica,sans-Serif" font-size="12.00" fill="#000000">hs:ChildWelfareOrganization: nc:OrganizationType</text>
</a>
</g>
<polygon fill="#000000" stroke="#000000" points="693.5,-30.5 693.5,-30.5 1174.5,-30.5 1174.5,-30.5 693.5,-30.5"/>
<polygon fill="none" stroke="#000000" points="693,0 693,-47 1174,-47 1174,0 693,0"/>
</g>
<!-- j:ObligationDueToOrganizationAssociationType&#45;&gt;subst_d11e17574 -->
<g id="edge2" class="edge">
<title>j:ObligationDueToOrganizationAssociationType:e&#45;&gt;subst_d11e17574:w</title>
<path fill="none" stroke="#000000" d="M661.6847,-53.8078C673.5038,-49.5079 677.9633,-38.5 694.5,-38.5"/>
<polygon fill="#000000" stroke="#000000" points="660.7911,-50.4082 651.5,-55.5 661.9385,-57.3136 660.7911,-50.4082"/>
</g>
<!-- Properties -->
<g id="node4" class="node">
<title>Properties</title>
<text text-anchor="start" x="2" y="-83.9" font-family="Helvetica,sans-Serif" font-weight="bold" font-size="12.00" fill="#000000">Properties</text>
<g id="a_node4_8"><a xlink:href="../../j/ObligationDueToOrganizationAssociation/#diagram" xlink:title="A relationship between an organization and an obligation." target="_top">
<polygon fill="#ebebeb" stroke="transparent" points="1,-63.5 1,-78.5 229,-78.5 229,-63.5 1,-63.5"/>
<text text-anchor="start" x="2" y="-67.9" font-family="Helvetica,sans-Serif" font-size="12.00" fill="#000000">j:ObligationDueToOrganizationAssociation</text>
</a>
</g>
<polygon fill="#000000" stroke="#000000" points="0,-78.5 0,-78.5 230,-78.5 230,-78.5 0,-78.5"/>
<polygon fill="none" stroke="#000000" points="0,-62.5 0,-94.5 230,-94.5 230,-62.5 0,-62.5"/>
</g>
<!-- Properties&#45;&gt;j:ObligationDueToOrganizationAssociationType -->
<g id="edge3" class="edge">
<title>Properties:top&#45;&gt;j:ObligationDueToOrganizationAssociationType:top</title>
<path fill="none" stroke="#000000" d="M229,-86.5C254.3585,-86.5 263.1498,-86.5 284.2371,-86.5"/>
<polygon fill="#000000" stroke="#000000" points="284.5,-90.0001 294.5,-86.5 284.5,-83.0001 284.5,-90.0001"/>
<text text-anchor="middle" x="259.5" y="-89.9" font-family="Helvetica,sans-Serif" font-size="12.00" fill="#000000">type</text>
</g>
<!-- nc:AssociationType -->
<g id="node5" class="node">
<title>nc:AssociationType</title>
<g id="a_node5_9"><a xlink:href="../../nc/AssociationType/#diagram" xlink:title="A data type for an association, connection, relationship, or involvement somehow linking people, things, and/or activities together." target="_top">
<text text-anchor="start" x="420.5" y="-138.9" font-family="Helvetica,sans-Serif" font-size="12.00" fill="#000000">nc:AssociationType</text>
</a>
</g>
<polygon fill="none" stroke="#000000" points="418,-134 418,-151 527,-151 527,-134 418,-134"/>
</g>
<!-- nc:AssociationType&#45;&gt;j:ObligationDueToOrganizationAssociationType -->
<g id="edge4" class="edge">
<title>nc:AssociationType&#45;&gt;j:ObligationDueToOrganizationAssociationType</title>
<path fill="none" stroke="#000000" d="M472.5,-133.9117C472.5,-127.6025 472.5,-118.4911 472.5,-108.9049"/>
<polygon fill="#000000" stroke="#000000" points="476.0001,-108.8408 472.5,-98.8408 469.0001,-108.8409 476.0001,-108.8408"/>
<text text-anchor="middle" x="463" y="-113.15" font-family="Helvetica,sans-Serif" font-size="12.00" fill="#000000">extension</text>
</g>
<!-- structures:AssociationType -->
<g id="node6" class="node">
<title>structures:AssociationType</title>
<g id="a_node6_10"><a xlink:href="../../structures/AssociationType/#diagram" xlink:title="A data type for a relationship between two or more objects, including any properties of that relationship." target="_top">
<text text-anchor="start" x="400.5" y="-191.9" font-family="Helvetica,sans-Serif" font-size="12.00" fill="#000000">structures:AssociationType</text>
</a>
</g>
<polygon fill="none" stroke="#000000" points="398,-187 398,-204 547,-204 547,-187 398,-187"/>
</g>
<!-- structures:AssociationType&#45;&gt;nc:AssociationType -->
<g id="edge5" class="edge">
<title>structures:AssociationType&#45;&gt;nc:AssociationType</title>
<path fill="none" stroke="#000000" d="M472.5,-186.911C472.5,-180.0124 472.5,-170.0696 472.5,-161.34"/>
<polygon fill="#000000" stroke="#000000" points="476.0001,-161.2518 472.5,-151.2519 469.0001,-161.2519 476.0001,-161.2518"/>
<text text-anchor="middle" x="463" y="-165.9" font-family="Helvetica,sans-Serif" font-size="12.00" fill="#000000">extension</text>
</g>
</g>
</svg>
