<?xml version="1.0" encoding="UTF-8" standalone="no"?>
<!DOCTYPE svg PUBLIC "-//W3C//DTD SVG 1.1//EN"
 "http://www.w3.org/Graphics/SVG/1.1/DTD/svg11.dtd">
<!-- Generated by graphviz version 2.40.1 (20161225.0304)
 -->
<!-- Title: graphic Pages: 1 -->
<svg width="464pt" height="45pt"
 viewBox="0.00 0.00 464.00 45.00" xmlns="http://www.w3.org/2000/svg" xmlns:xlink="http://www.w3.org/1999/xlink">
<g id="graph0" class="graph" transform="scale(1 1) rotate(0) translate(4 41)">
<title>graphic</title>
<polygon fill="#ffffff" stroke="transparent" points="-4,4 -4,-41 460,-41 460,4 -4,4"/>
<!-- j:ServiceCallCategoryText -->
<g id="node1" class="node">
<title>j:ServiceCallCategoryText</title>
<text text-anchor="start" x="171.5" y="-21.4" font-family="Helvetica,sans-Serif" font-weight="bold" font-size="12.00" fill="#000000">j:ServiceCallCategoryText</text>
<polygon fill="none" stroke="#ff0000" stroke-width="5" points="167.5,-14 167.5,-34 323.5,-34 323.5,-14 167.5,-14"/>
</g>
<!-- nc:TextType -->
<g id="node3" class="node">
<title>nc:TextType</title>
<g id="a_node3_0"><a xlink:href="../../nc/TextType/#diagram" xlink:title="A data type for a character string." target="_top">
<text text-anchor="start" x="387.5" y="-20.4" font-family="Helvetica,sans-Serif" font-size="12.00" fill="#000000">nc:TextType</text>
</a>
</g>
<polygon fill="none" stroke="#000000" points="385,-15.5 385,-32.5 456,-32.5 456,-15.5 385,-15.5"/>
</g>
<!-- j:ServiceCallCategoryText&#45;&gt;nc:TextType -->
<g id="edge2" class="edge">
<title>j:ServiceCallCategoryText&#45;&gt;nc:TextType</title>
<path fill="none" stroke="#000000" d="M326.085,-24C342.6875,-24 359.6241,-24 374.4838,-24"/>
<polygon fill="#000000" stroke="#000000" points="374.9025,-27.5001 384.9024,-24 374.9024,-20.5001 374.9025,-27.5001"/>
<text text-anchor="middle" x="355.5" y="-27.4" font-family="Helvetica,sans-Serif" font-size="12.00" fill="#000000">type</text>
</g>
<!-- Types -->
<g id="node2" class="node">
<title>Types</title>
<text text-anchor="start" x="2" y="-21.4" font-family="Helvetica,sans-Serif" font-weight="bold" font-size="12.00" fill="#000000">Types</text>
<g id="a_node2_1"><a xlink:href="../../j/ServiceCallType/#diagram" xlink:title="A data type for a call for service received from a person alerting an authority of a situation." target="_top">
<polygon fill="#ebebeb" stroke="transparent" points="1,-1 1,-16 97,-16 97,-1 1,-1"/>
<text text-anchor="start" x="2" y="-5.4" font-family="Helvetica,sans-Serif" font-size="12.00" fill="#000000">j:ServiceCallType</text>
</a>
</g>
<polygon fill="#000000" stroke="#000000" points="0,-16 0,-16 98,-16 98,-16 0,-16"/>
<polygon fill="none" stroke="#000000" points="0,0 0,-32 98,-32 98,0 0,0"/>
</g>
<!-- Types&#45;&gt;j:ServiceCallCategoryText -->
<g id="edge1" class="edge">
<title>Types:top&#45;&gt;j:ServiceCallCategoryText</title>
<path fill="none" stroke="#000000" d="M97,-24C115.6849,-24 135.6922,-24 154.7756,-24"/>
<polygon fill="#000000" stroke="#000000" points="154.9623,-27.5001 164.9622,-24 154.9622,-20.5001 154.9623,-27.5001"/>
<text text-anchor="middle" x="131.5" y="-27.4" font-family="Helvetica,sans-Serif" font-size="12.00" fill="#000000">has&#45;a</text>
</g>
</g>
</svg>
