<?xml version="1.0" encoding="UTF-8" standalone="no"?>
<!DOCTYPE svg PUBLIC "-//W3C//DTD SVG 1.1//EN"
 "http://www.w3.org/Graphics/SVG/1.1/DTD/svg11.dtd">
<!-- Generated by graphviz version 2.40.1 (20161225.0304)
 -->
<!-- Title: graphic Pages: 1 -->
<svg width="525pt" height="101pt"
 viewBox="0.00 0.00 525.00 101.00" xmlns="http://www.w3.org/2000/svg" xmlns:xlink="http://www.w3.org/1999/xlink">
<g id="graph0" class="graph" transform="scale(1 1) rotate(0) translate(4 97)">
<title>graphic</title>
<polygon fill="#ffffff" stroke="transparent" points="-4,4 -4,-97 521,-97 521,4 -4,4"/>
<!-- j:HearingCancellationReasonCategoryAbstract -->
<g id="node1" class="node">
<title>j:HearingCancellationReasonCategoryAbstract</title>
<text text-anchor="start" x="230.5" y="-77.4" font-family="Helvetica,sans-Serif" font-weight="bold" font-size="12.00" fill="#000000">j:HearingCancellationReasonCategoryAbstract</text>
<polygon fill="none" stroke="#ff0000" stroke-width="5" points="227,-70 227,-90 502,-90 502,-70 227,-70"/>
</g>
<!-- SubstitutableElements -->
<g id="node3" class="node">
<title>SubstitutableElements</title>
<text text-anchor="start" x="214.5" y="-21.4" font-family="Helvetica,sans-Serif" font-weight="bold" font-size="12.00" fill="#000000">Substitutable elements</text>
<g id="a_node3_0"><a xlink:href="../../j/HearingCancellationReasonCategoryText/#diagram" xlink:title="A kind of reason a hearing was cancelled." target="_top">
<polygon fill="#ebebeb" stroke="transparent" points="213.5,-1 213.5,-16 516.5,-16 516.5,-1 213.5,-1"/>
<text text-anchor="start" x="214.5" y="-5.4" font-family="Helvetica,sans-Serif" font-size="12.00" fill="#000000">j:HearingCancellationReasonCategoryText: nc:TextType</text>
</a>
</g>
<polygon fill="#000000" stroke="#000000" points="212.5,-16 212.5,-16 517.5,-16 517.5,-16 212.5,-16"/>
<polygon fill="none" stroke="#000000" points="212,0 212,-32 517,-32 517,0 212,0"/>
</g>
<!-- j:HearingCancellationReasonCategoryAbstract&#45;&gt;SubstitutableElements -->
<g id="edge2" class="edge">
<title>j:HearingCancellationReasonCategoryAbstract&#45;&gt;SubstitutableElements</title>
<path fill="none" stroke="#000000" d="M364.5,-57.3063C364.5,-48.9972 364.5,-39.7712 364.5,-32.1499"/>
<polygon fill="#000000" stroke="#000000" points="361.0001,-57.4892 364.5,-67.4892 368.0001,-57.4892 361.0001,-57.4892"/>
<text text-anchor="middle" x="355" y="-46.65" font-family="Helvetica,sans-Serif" font-size="12.00" fill="#000000">substitutable for</text>
</g>
<!-- Types -->
<g id="node2" class="node">
<title>Types</title>
<text text-anchor="start" x="2.5" y="-77.4" font-family="Helvetica,sans-Serif" font-weight="bold" font-size="12.00" fill="#000000">Types</text>
<g id="a_node2_1"><a xlink:href="../../j/HearingCancellationType/#diagram" xlink:title="A data type for a cancellation of a scheduled hearing." target="_top">
<polygon fill="#ebebeb" stroke="transparent" points="1.5,-57 1.5,-72 144.5,-72 144.5,-57 1.5,-57"/>
<text text-anchor="start" x="2.5" y="-61.4" font-family="Helvetica,sans-Serif" font-size="12.00" fill="#000000">j:HearingCancellationType</text>
</a>
</g>
<polygon fill="#000000" stroke="#000000" points=".5,-72 .5,-72 145.5,-72 145.5,-72 .5,-72"/>
<polygon fill="none" stroke="#000000" points="0,-56 0,-88 145,-88 145,-56 0,-56"/>
</g>
<!-- Types&#45;&gt;j:HearingCancellationReasonCategoryAbstract -->
<g id="edge1" class="edge">
<title>Types:top&#45;&gt;j:HearingCancellationReasonCategoryAbstract</title>
<path fill="none" stroke="#000000" d="M144.5,-80C166.9579,-80 190.7053,-80 213.9652,-80"/>
<polygon fill="#000000" stroke="#000000" points="214.2535,-83.5001 224.2535,-80 214.2535,-76.5001 214.2535,-83.5001"/>
<text text-anchor="middle" x="178.5" y="-83.4" font-family="Helvetica,sans-Serif" font-size="12.00" fill="#000000">has&#45;a</text>
</g>
</g>
</svg>
