<?xml version="1.0" encoding="UTF-8" standalone="no"?>
<!DOCTYPE svg PUBLIC "-//W3C//DTD SVG 1.1//EN"
 "http://www.w3.org/Graphics/SVG/1.1/DTD/svg11.dtd">
<!-- Generated by graphviz version 2.40.1 (20161225.0304)
 -->
<!-- Title: graphic Pages: 1 -->
<svg width="701pt" height="45pt"
 viewBox="0.00 0.00 701.00 45.00" xmlns="http://www.w3.org/2000/svg" xmlns:xlink="http://www.w3.org/1999/xlink">
<g id="graph0" class="graph" transform="scale(1 1) rotate(0) translate(4 41)">
<title>graphic</title>
<polygon fill="#ffffff" stroke="transparent" points="-4,4 -4,-41 697,-41 697,4 -4,4"/>
<!-- j:InformationPracticesActDisclosureReceiver -->
<g id="node1" class="node">
<title>j:InformationPracticesActDisclosureReceiver</title>
<text text-anchor="start" x="293" y="-21.4" font-family="Helvetica,sans-Serif" font-weight="bold" font-size="12.00" fill="#000000">j:InformationPracticesActDisclosureReceiver</text>
<polygon fill="none" stroke="#ff0000" stroke-width="5" points="289.5,-14 289.5,-34 554.5,-34 554.5,-14 289.5,-14"/>
</g>
<!-- nc:EntityType -->
<g id="node3" class="node">
<title>nc:EntityType</title>
<g id="a_node3_0"><a xlink:href="../../nc/EntityType/#diagram" xlink:title="A data type for a person, organization, or item." target="_top">
<text text-anchor="start" x="618.5" y="-20.4" font-family="Helvetica,sans-Serif" font-size="12.00" fill="#000000">nc:EntityType</text>
</a>
</g>
<polygon fill="none" stroke="#000000" points="616,-15.5 616,-32.5 693,-32.5 693,-15.5 616,-15.5"/>
</g>
<!-- j:InformationPracticesActDisclosureReceiver&#45;&gt;nc:EntityType -->
<g id="edge2" class="edge">
<title>j:InformationPracticesActDisclosureReceiver&#45;&gt;nc:EntityType</title>
<path fill="none" stroke="#000000" d="M557.2462,-24C574.4491,-24 591.0816,-24 605.5814,-24"/>
<polygon fill="#000000" stroke="#000000" points="605.7402,-27.5001 615.7401,-24 605.7401,-20.5001 605.7402,-27.5001"/>
<text text-anchor="middle" x="586.5" y="-27.4" font-family="Helvetica,sans-Serif" font-size="12.00" fill="#000000">type</text>
</g>
<!-- Types -->
<g id="node2" class="node">
<title>Types</title>
<text text-anchor="start" x="2" y="-21.4" font-family="Helvetica,sans-Serif" font-weight="bold" font-size="12.00" fill="#000000">Types</text>
<g id="a_node2_1"><a xlink:href="../../j/InformationPracticesActDisclosureType/#diagram" xlink:title="A data type for a document detailing the policy for the disclosure of information to the subject of the information, in accordance with the Information Practices Act" target="_top">
<polygon fill="#ebebeb" stroke="transparent" points="1,-1 1,-16 219,-16 219,-1 1,-1"/>
<text text-anchor="start" x="2" y="-5.4" font-family="Helvetica,sans-Serif" font-size="12.00" fill="#000000">j:InformationPracticesActDisclosureType</text>
</a>
</g>
<polygon fill="#000000" stroke="#000000" points="0,-16 0,-16 220,-16 220,-16 0,-16"/>
<polygon fill="none" stroke="#000000" points="0,0 0,-32 220,-32 220,0 0,0"/>
</g>
<!-- Types&#45;&gt;j:InformationPracticesActDisclosureReceiver -->
<g id="edge1" class="edge">
<title>Types:top&#45;&gt;j:InformationPracticesActDisclosureReceiver</title>
<path fill="none" stroke="#000000" d="M219,-24C237.6823,-24 257.3317,-24 276.7466,-24"/>
<polygon fill="#000000" stroke="#000000" points="276.8717,-27.5001 286.8716,-24 276.8716,-20.5001 276.8717,-27.5001"/>
<text text-anchor="middle" x="253.5" y="-27.4" font-family="Helvetica,sans-Serif" font-size="12.00" fill="#000000">has&#45;a</text>
</g>
</g>
</svg>
