<?xml version="1.0" encoding="UTF-8" standalone="no"?>
<!DOCTYPE svg PUBLIC "-//W3C//DTD SVG 1.1//EN"
 "http://www.w3.org/Graphics/SVG/1.1/DTD/svg11.dtd">
<!-- Generated by graphviz version 2.40.1 (20161225.0304)
 -->
<!-- Title: graphic Pages: 1 -->
<svg width="629pt" height="45pt"
 viewBox="0.00 0.00 629.00 45.00" xmlns="http://www.w3.org/2000/svg" xmlns:xlink="http://www.w3.org/1999/xlink">
<g id="graph0" class="graph" transform="scale(1 1) rotate(0) translate(4 41)">
<title>graphic</title>
<polygon fill="#ffffff" stroke="transparent" points="-4,4 -4,-41 625,-41 625,4 -4,4"/>
<!-- em:PublicCommunication -->
<g id="node1" class="node">
<title>em:PublicCommunication</title>
<text text-anchor="start" x="240.5" y="-21.4" font-family="Helvetica,sans-Serif" font-weight="bold" font-size="12.00" fill="#000000">em:PublicCommunication</text>
<polygon fill="none" stroke="#ff0000" stroke-width="5" points="236.5,-14 236.5,-34 392.5,-34 392.5,-14 236.5,-14"/>
</g>
<!-- em:PublicCommunicationType -->
<g id="node3" class="node">
<title>em:PublicCommunicationType</title>
<g id="a_node3_0"><a xlink:href="../../em/PublicCommunicationType/#diagram" xlink:title="A data type for a set of information about communication releasable to the public." target="_top">
<text text-anchor="start" x="456.5" y="-20.4" font-family="Helvetica,sans-Serif" font-size="12.00" fill="#000000">em:PublicCommunicationType</text>
</a>
</g>
<polygon fill="none" stroke="#000000" points="454,-15.5 454,-32.5 621,-32.5 621,-15.5 454,-15.5"/>
</g>
<!-- em:PublicCommunication&#45;&gt;em:PublicCommunicationType -->
<g id="edge2" class="edge">
<title>em:PublicCommunication&#45;&gt;em:PublicCommunicationType</title>
<path fill="none" stroke="#000000" d="M395.0081,-24C410.8152,-24 427.5251,-24 443.7228,-24"/>
<polygon fill="#000000" stroke="#000000" points="443.7294,-27.5001 453.7294,-24 443.7293,-20.5001 443.7294,-27.5001"/>
<text text-anchor="middle" x="424.5" y="-27.4" font-family="Helvetica,sans-Serif" font-size="12.00" fill="#000000">type</text>
</g>
<!-- Types -->
<g id="node2" class="node">
<title>Types</title>
<text text-anchor="start" x="2.5" y="-21.4" font-family="Helvetica,sans-Serif" font-weight="bold" font-size="12.00" fill="#000000">Types</text>
<g id="a_node2_1"><a xlink:href="../../em/ManagementFunctionType/#diagram" xlink:title="A data type for a set of information for the managing and commanding function in a Public Health Emergency Operations Center." target="_top">
<polygon fill="#ebebeb" stroke="transparent" points="1.5,-1 1.5,-16 166.5,-16 166.5,-1 1.5,-1"/>
<text text-anchor="start" x="2.5" y="-5.4" font-family="Helvetica,sans-Serif" font-size="12.00" fill="#000000">em:ManagementFunctionType</text>
</a>
</g>
<polygon fill="#000000" stroke="#000000" points=".5,-16 .5,-16 167.5,-16 167.5,-16 .5,-16"/>
<polygon fill="none" stroke="#000000" points="0,0 0,-32 167,-32 167,0 0,0"/>
</g>
<!-- Types&#45;&gt;em:PublicCommunication -->
<g id="edge1" class="edge">
<title>Types:top&#45;&gt;em:PublicCommunication</title>
<path fill="none" stroke="#000000" d="M166.5,-24C185.013,-24 204.8287,-24 223.7473,-24"/>
<polygon fill="#000000" stroke="#000000" points="223.8479,-27.5001 233.8479,-24 223.8479,-20.5001 223.8479,-27.5001"/>
<text text-anchor="middle" x="200.5" y="-27.4" font-family="Helvetica,sans-Serif" font-size="12.00" fill="#000000">has&#45;a</text>
</g>
</g>
</svg>
