<?xml version="1.0" encoding="UTF-8" standalone="no"?>
<!DOCTYPE svg PUBLIC "-//W3C//DTD SVG 1.1//EN"
 "http://www.w3.org/Graphics/SVG/1.1/DTD/svg11.dtd">
<!-- Generated by graphviz version 2.40.1 (20161225.0304)
 -->
<!-- Title: graphic Pages: 1 -->
<svg width="508pt" height="154pt"
 viewBox="0.00 0.00 508.00 153.50" xmlns="http://www.w3.org/2000/svg" xmlns:xlink="http://www.w3.org/1999/xlink">
<g id="graph0" class="graph" transform="scale(1 1) rotate(0) translate(4 149.5)">
<title>graphic</title>
<polygon fill="#ffffff" stroke="transparent" points="-4,4 -4,-149.5 504,-149.5 504,4 -4,4"/>
<!-- biom:OctantNumericType -->
<g id="node1" class="node">
<title>biom:OctantNumericType</title>
<text text-anchor="start" x="288" y="-25.4" font-family="Helvetica,sans-Serif" font-weight="bold" font-size="12.00" fill="#000000">biom:OctantNumericType</text>
<g id="a_node1_0"><a xlink:href="../../structures/SimpleObjectAttributeGroup/#diagram" xlink:title="A group of attributes that are applicable to objects, to be used when defining a complex type that is an extension of a simple type." target="_top">
<polygon fill="#ebebeb" stroke="transparent" points="287,-5 287,-20 495,-20 495,-5 287,-5"/>
<text text-anchor="start" x="288" y="-9.4" font-family="Helvetica,sans-Serif" font-size="12.00" fill="#000000">structures:SimpleObjectAttributeGroup</text>
</a>
</g>
<polygon fill="#ff0000" stroke="#ff0000" points="282,-20 282,-20 500,-20 500,-20 282,-20"/>
<polygon fill="none" stroke="#ff0000" stroke-width="5" points="284.5,-2.5 284.5,-37.5 497.5,-37.5 497.5,-2.5 284.5,-2.5"/>
</g>
<!-- Properties -->
<g id="node2" class="node">
<title>Properties</title>
<text text-anchor="start" x="2.5" y="-25.4" font-family="Helvetica,sans-Serif" font-weight="bold" font-size="12.00" fill="#000000">Properties</text>
<g id="a_node2_1"><a xlink:href="../../biom/MinutiaeRidgeCountOctantNumeric/#diagram" xlink:title="A number assigned to a specific octant for ridge count purposes" target="_top">
<polygon fill="#ebebeb" stroke="transparent" points="1.5,-5 1.5,-20 222.5,-20 222.5,-5 1.5,-5"/>
<text text-anchor="start" x="2.5" y="-9.4" font-family="Helvetica,sans-Serif" font-size="12.00" fill="#000000">biom:MinutiaeRidgeCountOctantNumeric</text>
</a>
</g>
<polygon fill="#000000" stroke="#000000" points=".5,-20 .5,-20 223.5,-20 223.5,-20 .5,-20"/>
<polygon fill="none" stroke="#000000" points="0,-4 0,-36 223,-36 223,-4 0,-4"/>
</g>
<!-- Properties&#45;&gt;biom:OctantNumericType -->
<g id="edge1" class="edge">
<title>Properties:top&#45;&gt;biom:OctantNumericType:top</title>
<path fill="none" stroke="#000000" d="M222.5,-28C247.4714,-28 256.1284,-28 276.8937,-28"/>
<polygon fill="#000000" stroke="#000000" points="277,-31.5001 287,-28 277,-24.5001 277,-31.5001"/>
<text text-anchor="middle" x="252.5" y="-31.4" font-family="Helvetica,sans-Serif" font-size="12.00" fill="#000000">type</text>
</g>
<!-- biom:OctantNumericSimpleType -->
<g id="node3" class="node">
<title>biom:OctantNumericSimpleType</title>
<g id="a_node3_2"><a xlink:href="../../biom/OctantNumericSimpleType/#diagram" xlink:title="A data type for a number identifying an octant" target="_top">
<text text-anchor="start" x="305" y="-80.4" font-family="Helvetica,sans-Serif" font-size="12.00" fill="#000000">biom:OctantNumericSimpleType</text>
</a>
</g>
<polygon fill="none" stroke="#000000" points="302.5,-75.5 302.5,-92.5 479.5,-92.5 479.5,-75.5 302.5,-75.5"/>
</g>
<!-- biom:OctantNumericSimpleType&#45;&gt;biom:OctantNumericType -->
<g id="edge2" class="edge">
<title>biom:OctantNumericSimpleType&#45;&gt;biom:OctantNumericType</title>
<path fill="none" stroke="#000000" d="M391,-75.4351C391,-68.931 391,-59.5678 391,-50.3827"/>
<polygon fill="#000000" stroke="#000000" points="394.5001,-50.25 391,-40.25 387.5001,-50.25 394.5001,-50.25"/>
<text text-anchor="middle" x="381.5" y="-54.65" font-family="Helvetica,sans-Serif" font-size="12.00" fill="#000000">extension</text>
</g>
<!-- xs:nonNegativeInteger -->
<g id="node4" class="node">
<title>xs:nonNegativeInteger</title>
<g id="a_node4_3"><a xlink:href="../../xs/nonNegativeInteger/#diagram" xlink:title="&lt;TABLE&gt;" target="_top">
<text text-anchor="start" x="331" y="-133.4" font-family="Helvetica,sans-Serif" font-size="12.00" fill="#000000">xs:nonNegativeInteger</text>
</a>
</g>
<polygon fill="none" stroke="#000000" points="328.5,-128.5 328.5,-145.5 453.5,-145.5 453.5,-128.5 328.5,-128.5"/>
</g>
<!-- xs:nonNegativeInteger&#45;&gt;biom:OctantNumericSimpleType -->
<g id="edge3" class="edge">
<title>xs:nonNegativeInteger&#45;&gt;biom:OctantNumericSimpleType</title>
<path fill="none" stroke="#000000" d="M391,-128.411C391,-121.5124 391,-111.5696 391,-102.84"/>
<polygon fill="#000000" stroke="#000000" points="394.5001,-102.7518 391,-92.7519 387.5001,-102.7519 394.5001,-102.7518"/>
<text text-anchor="middle" x="381.5" y="-107.4" font-family="Helvetica,sans-Serif" font-size="12.00" fill="#000000">restriction</text>
</g>
</g>
</svg>
