<?xml version="1.0" encoding="UTF-8" standalone="no"?>
<!DOCTYPE svg PUBLIC "-//W3C//DTD SVG 1.1//EN"
 "http://www.w3.org/Graphics/SVG/1.1/DTD/svg11.dtd">
<!-- Generated by graphviz version 2.40.1 (20161225.0304)
 -->
<!-- Title: graphic Pages: 1 -->
<svg width="829pt" height="45pt"
 viewBox="0.00 0.00 829.00 45.00" xmlns="http://www.w3.org/2000/svg" xmlns:xlink="http://www.w3.org/1999/xlink">
<g id="graph0" class="graph" transform="scale(1 1) rotate(0) translate(4 41)">
<title>graphic</title>
<polygon fill="#ffffff" stroke="transparent" points="-4,4 -4,-41 825,-41 825,4 -4,4"/>
<!-- biom:ImageRelativeOverallRotationValue -->
<g id="node1" class="node">
<title>biom:ImageRelativeOverallRotationValue</title>
<text text-anchor="start" x="326.5" y="-21.4" font-family="Helvetica,sans-Serif" font-weight="bold" font-size="12.00" fill="#000000">biom:ImageRelativeOverallRotationValue</text>
<polygon fill="none" stroke="#ff0000" stroke-width="5" points="322.5,-14 322.5,-34 564.5,-34 564.5,-14 322.5,-14"/>
</g>
<!-- biom:RelativeRotationMeasureType -->
<g id="node3" class="node">
<title>biom:RelativeRotationMeasureType</title>
<g id="a_node3_0"><a xlink:href="../../biom/RelativeRotationMeasureType/#diagram" xlink:title="A data type for an angle of direction between &#45;179 and 180, with 0 being upright" target="_top">
<text text-anchor="start" x="628.5" y="-20.4" font-family="Helvetica,sans-Serif" font-size="12.00" fill="#000000">biom:RelativeRotationMeasureType</text>
</a>
</g>
<polygon fill="none" stroke="#000000" points="626,-15.5 626,-32.5 821,-32.5 821,-15.5 626,-15.5"/>
</g>
<!-- biom:ImageRelativeOverallRotationValue&#45;&gt;biom:RelativeRotationMeasureType -->
<g id="edge2" class="edge">
<title>biom:ImageRelativeOverallRotationValue&#45;&gt;biom:RelativeRotationMeasureType</title>
<path fill="none" stroke="#000000" d="M567.1271,-24C583.2307,-24 599.6273,-24 615.4488,-24"/>
<polygon fill="#000000" stroke="#000000" points="615.7539,-27.5001 625.7539,-24 615.7538,-20.5001 615.7539,-27.5001"/>
<text text-anchor="middle" x="596.5" y="-27.4" font-family="Helvetica,sans-Serif" font-size="12.00" fill="#000000">type</text>
</g>
<!-- Types -->
<g id="node2" class="node">
<title>Types</title>
<text text-anchor="start" x="2.5" y="-21.4" font-family="Helvetica,sans-Serif" font-weight="bold" font-size="12.00" fill="#000000">Types</text>
<g id="a_node2_1"><a xlink:href="../../biom/FrictionRidgeImageRelativeRotationType/#diagram" xlink:title="A data type for a relative overall rotation necessary for two prints to be compared" target="_top">
<polygon fill="#ebebeb" stroke="transparent" points="1.5,-1 1.5,-16 252.5,-16 252.5,-1 1.5,-1"/>
<text text-anchor="start" x="2.5" y="-5.4" font-family="Helvetica,sans-Serif" font-size="12.00" fill="#000000">biom:FrictionRidgeImageRelativeRotationType</text>
</a>
</g>
<polygon fill="#000000" stroke="#000000" points=".5,-16 .5,-16 253.5,-16 253.5,-16 .5,-16"/>
<polygon fill="none" stroke="#000000" points="0,0 0,-32 253,-32 253,0 0,0"/>
</g>
<!-- Types&#45;&gt;biom:ImageRelativeOverallRotationValue -->
<g id="edge1" class="edge">
<title>Types:top&#45;&gt;biom:ImageRelativeOverallRotationValue</title>
<path fill="none" stroke="#000000" d="M252.5,-24C271.0662,-24 290.6476,-24 309.9119,-24"/>
<polygon fill="#000000" stroke="#000000" points="309.95,-27.5001 319.95,-24 309.95,-20.5001 309.95,-27.5001"/>
<text text-anchor="middle" x="286.5" y="-27.4" font-family="Helvetica,sans-Serif" font-size="12.00" fill="#000000">has&#45;a</text>
</g>
</g>
</svg>
