<?xml version="1.0" encoding="UTF-8" standalone="no"?>
<!DOCTYPE svg PUBLIC "-//W3C//DTD SVG 1.1//EN"
 "http://www.w3.org/Graphics/SVG/1.1/DTD/svg11.dtd">
<!-- Generated by graphviz version 2.40.1 (20161225.0304)
 -->
<!-- Title: graphic Pages: 1 -->
<svg width="724pt" height="45pt"
 viewBox="0.00 0.00 724.00 45.00" xmlns="http://www.w3.org/2000/svg" xmlns:xlink="http://www.w3.org/1999/xlink">
<g id="graph0" class="graph" transform="scale(1 1) rotate(0) translate(4 41)">
<title>graphic</title>
<polygon fill="#ffffff" stroke="transparent" points="-4,4 -4,-41 720,-41 720,4 -4,4"/>
<!-- stat:ProcessStepInstanceCreatedProcessOutput -->
<g id="node1" class="node">
<title>stat:ProcessStepInstanceCreatedProcessOutput</title>
<text text-anchor="start" x="240" y="-21.4" font-family="Helvetica,sans-Serif" font-weight="bold" font-size="12.00" fill="#000000">stat:ProcessStepInstanceCreatedProcessOutput</text>
<polygon fill="none" stroke="#ff0000" stroke-width="5" points="236.5,-14 236.5,-34 521.5,-34 521.5,-14 236.5,-14"/>
</g>
<!-- stat:ProcessOutputType -->
<g id="node3" class="node">
<title>stat:ProcessOutputType</title>
<g id="a_node3_0"><a xlink:href="../../stat/ProcessOutputType/#diagram" xlink:title="A data type for any instance of an information object which is produced by a process step as a result of its execution." target="_top">
<text text-anchor="start" x="585.5" y="-20.4" font-family="Helvetica,sans-Serif" font-size="12.00" fill="#000000">stat:ProcessOutputType</text>
</a>
</g>
<polygon fill="none" stroke="#000000" points="583,-15.5 583,-32.5 716,-32.5 716,-15.5 583,-15.5"/>
</g>
<!-- stat:ProcessStepInstanceCreatedProcessOutput&#45;&gt;stat:ProcessOutputType -->
<g id="edge2" class="edge">
<title>stat:ProcessStepInstanceCreatedProcessOutput&#45;&gt;stat:ProcessOutputType</title>
<path fill="none" stroke="#000000" d="M524.1481,-24C540.8485,-24 557.3466,-24 572.6165,-24"/>
<polygon fill="#000000" stroke="#000000" points="572.9791,-27.5001 582.9791,-24 572.9791,-20.5001 572.9791,-27.5001"/>
<text text-anchor="middle" x="553.5" y="-27.4" font-family="Helvetica,sans-Serif" font-size="12.00" fill="#000000">type</text>
</g>
<!-- Types -->
<g id="node2" class="node">
<title>Types</title>
<text text-anchor="start" x="2.5" y="-21.4" font-family="Helvetica,sans-Serif" font-weight="bold" font-size="12.00" fill="#000000">Types</text>
<g id="a_node2_1"><a xlink:href="../../stat/ProcessStepInstanceType/#diagram" xlink:title="A data type for an executed step in a business process. A process step instance specifies the actual inputs to and outputs from an occurrence of a process step." target="_top">
<polygon fill="#ebebeb" stroke="transparent" points="1.5,-1 1.5,-16 166.5,-16 166.5,-1 1.5,-1"/>
<text text-anchor="start" x="2.5" y="-5.4" font-family="Helvetica,sans-Serif" font-size="12.00" fill="#000000">stat:ProcessStepInstanceType</text>
</a>
</g>
<polygon fill="#000000" stroke="#000000" points=".5,-16 .5,-16 167.5,-16 167.5,-16 .5,-16"/>
<polygon fill="none" stroke="#000000" points="0,0 0,-32 167,-32 167,0 0,0"/>
</g>
<!-- Types&#45;&gt;stat:ProcessStepInstanceCreatedProcessOutput -->
<g id="edge1" class="edge">
<title>Types:top&#45;&gt;stat:ProcessStepInstanceCreatedProcessOutput</title>
<path fill="none" stroke="#000000" d="M166.5,-24C185.0355,-24 204.4805,-24 223.764,-24"/>
<polygon fill="#000000" stroke="#000000" points="223.8277,-27.5001 233.8276,-24 223.8276,-20.5001 223.8277,-27.5001"/>
<text text-anchor="middle" x="200.5" y="-27.4" font-family="Helvetica,sans-Serif" font-size="12.00" fill="#000000">has&#45;a</text>
</g>
</g>
</svg>
