<?xml version="1.0" encoding="UTF-8" standalone="no"?>
<!DOCTYPE svg PUBLIC "-//W3C//DTD SVG 1.1//EN"
 "http://www.w3.org/Graphics/SVG/1.1/DTD/svg11.dtd">
<!-- Generated by graphviz version 2.40.1 (20161225.0304)
 -->
<!-- Title: graphic Pages: 1 -->
<svg width="401pt" height="86pt"
 viewBox="0.00 0.00 401.00 86.00" xmlns="http://www.w3.org/2000/svg" xmlns:xlink="http://www.w3.org/1999/xlink">
<g id="graph0" class="graph" transform="scale(1 1) rotate(0) translate(4 82)">
<title>graphic</title>
<polygon fill="#ffffff" stroke="transparent" points="-4,4 -4,-82 397,-82 397,4 -4,4"/>
<!-- im:LocationAugmentation -->
<g id="node1" class="node">
<title>im:LocationAugmentation</title>
<text text-anchor="start" x="9.5" y="-9.9" font-family="Helvetica,sans-Serif" font-weight="bold" font-size="12.00" fill="#000000">im:LocationAugmentation</text>
<polygon fill="none" stroke="#ff0000" stroke-width="5" points="5.5,-2.5 5.5,-22.5 161.5,-22.5 161.5,-2.5 5.5,-2.5"/>
</g>
<!-- im:LocationAugmentationType -->
<g id="node3" class="node">
<title>im:LocationAugmentationType</title>
<g id="a_node3_0"><a xlink:href="../../im/LocationAugmentationType/#diagram" xlink:title="A data type for additional information about a location." target="_top">
<text text-anchor="start" x="228.5" y="-8.9" font-family="Helvetica,sans-Serif" font-size="12.00" fill="#000000">im:LocationAugmentationType</text>
</a>
</g>
<polygon fill="none" stroke="#000000" points="226,-4 226,-21 393,-21 393,-4 226,-4"/>
</g>
<!-- im:LocationAugmentation&#45;&gt;im:LocationAugmentationType -->
<g id="edge2" class="edge">
<title>im:LocationAugmentation&#45;&gt;im:LocationAugmentationType</title>
<path fill="none" stroke="#000000" d="M164.134,-12.5C180.877,-12.5 198.6553,-12.5 215.8205,-12.5"/>
<polygon fill="#000000" stroke="#000000" points="215.8439,-16.0001 225.8439,-12.5 215.8439,-9.0001 215.8439,-16.0001"/>
<text text-anchor="middle" x="196.5" y="-15.9" font-family="Helvetica,sans-Serif" font-size="12.00" fill="#000000">type</text>
</g>
<!-- SubstitutionGroup -->
<g id="node2" class="node">
<title>SubstitutionGroup</title>
<g id="a_node2_1"><a xlink:href="../../nc/LocationAugmentationPoint/#diagram" xlink:title="An augmentation point for LocationType." target="_top">
<text text-anchor="start" x="2.5" y="-65.9" font-family="Helvetica,sans-Serif" font-size="12.00" fill="#000000">nc:LocationAugmentationPoint</text>
</a>
</g>
<polygon fill="none" stroke="#000000" points="0,-61 0,-78 167,-78 167,-61 0,-61"/>
</g>
<!-- SubstitutionGroup&#45;&gt;im:LocationAugmentation -->
<g id="edge1" class="edge">
<title>SubstitutionGroup&#45;&gt;im:LocationAugmentation</title>
<path fill="none" stroke="#000000" d="M83.5,-50.9163C83.5,-42.4809 83.5,-32.7214 83.5,-25.1501"/>
<polygon fill="#000000" stroke="#000000" points="80.0001,-50.9472 83.5,-60.9473 87.0001,-50.9473 80.0001,-50.9472"/>
<text text-anchor="middle" x="74" y="-39.9" font-family="Helvetica,sans-Serif" font-size="12.00" fill="#000000">substitution group</text>
</g>
</g>
</svg>
