<?xml version="1.0" encoding="UTF-8" standalone="no"?>
<!DOCTYPE svg PUBLIC "-//W3C//DTD SVG 1.1//EN"
 "http://www.w3.org/Graphics/SVG/1.1/DTD/svg11.dtd">
<!-- Generated by graphviz version 2.40.1 (20161225.0304)
 -->
<!-- Title: graphic Pages: 1 -->
<svg width="462pt" height="45pt"
 viewBox="0.00 0.00 462.00 45.00" xmlns="http://www.w3.org/2000/svg" xmlns:xlink="http://www.w3.org/1999/xlink">
<g id="graph0" class="graph" transform="scale(1 1) rotate(0) translate(4 41)">
<title>graphic</title>
<polygon fill="#ffffff" stroke="transparent" points="-4,4 -4,-41 458,-41 458,4 -4,4"/>
<!-- j:BaileePerson -->
<g id="node1" class="node">
<title>j:BaileePerson</title>
<text text-anchor="start" x="220" y="-21.4" font-family="Helvetica,sans-Serif" font-weight="bold" font-size="12.00" fill="#000000">j:BaileePerson</text>
<polygon fill="none" stroke="#ff0000" stroke-width="5" points="216.5,-14 216.5,-34 307.5,-34 307.5,-14 216.5,-14"/>
</g>
<!-- nc:PersonType -->
<g id="node3" class="node">
<title>nc:PersonType</title>
<g id="a_node3_0"><a xlink:href="../../nc/PersonType/#diagram" xlink:title="A data type for a human being." target="_top">
<text text-anchor="start" x="371.5" y="-20.4" font-family="Helvetica,sans-Serif" font-size="12.00" fill="#000000">nc:PersonType</text>
</a>
</g>
<polygon fill="none" stroke="#000000" points="369,-15.5 369,-32.5 454,-32.5 454,-15.5 369,-15.5"/>
</g>
<!-- j:BaileePerson&#45;&gt;nc:PersonType -->
<g id="edge2" class="edge">
<title>j:BaileePerson&#45;&gt;nc:PersonType</title>
<path fill="none" stroke="#000000" d="M310.1257,-24C325.5302,-24 342.6701,-24 358.408,-24"/>
<polygon fill="#000000" stroke="#000000" points="358.5154,-27.5001 368.5153,-24 358.5153,-20.5001 358.5154,-27.5001"/>
<text text-anchor="middle" x="339.5" y="-27.4" font-family="Helvetica,sans-Serif" font-size="12.00" fill="#000000">type</text>
</g>
<!-- Types -->
<g id="node2" class="node">
<title>Types</title>
<text text-anchor="start" x="2.5" y="-21.4" font-family="Helvetica,sans-Serif" font-weight="bold" font-size="12.00" fill="#000000">Types</text>
<g id="a_node2_1"><a xlink:href="../../j/BailBondAssociationType/#diagram" xlink:title="A data type for a relationship between an entity (person or organization) providing bail for someone, the person being bailed out, and a bail bondsman entity." target="_top">
<polygon fill="#ebebeb" stroke="transparent" points="1.5,-1 1.5,-16 146.5,-16 146.5,-1 1.5,-1"/>
<text text-anchor="start" x="2.5" y="-5.4" font-family="Helvetica,sans-Serif" font-size="12.00" fill="#000000">j:BailBondAssociationType</text>
</a>
</g>
<polygon fill="#000000" stroke="#000000" points=".5,-16 .5,-16 147.5,-16 147.5,-16 .5,-16"/>
<polygon fill="none" stroke="#000000" points="0,0 0,-32 147,-32 147,0 0,0"/>
</g>
<!-- Types&#45;&gt;j:BaileePerson -->
<g id="edge1" class="edge">
<title>Types:top&#45;&gt;j:BaileePerson</title>
<path fill="none" stroke="#000000" d="M146.5,-24C165.1089,-24 185.4042,-24 203.7179,-24"/>
<polygon fill="#000000" stroke="#000000" points="203.9534,-27.5001 213.9534,-24 203.9533,-20.5001 203.9534,-27.5001"/>
<text text-anchor="middle" x="180.5" y="-27.4" font-family="Helvetica,sans-Serif" font-size="12.00" fill="#000000">has&#45;a</text>
</g>
</g>
</svg>
