<?xml version="1.0" encoding="UTF-8" standalone="no"?>
<!DOCTYPE svg PUBLIC "-//W3C//DTD SVG 1.1//EN"
 "http://www.w3.org/Graphics/SVG/1.1/DTD/svg11.dtd">
<!-- Generated by graphviz version 2.40.1 (20161225.0304)
 -->
<!-- Title: graphic Pages: 1 -->
<svg width="676pt" height="45pt"
 viewBox="0.00 0.00 676.00 45.00" xmlns="http://www.w3.org/2000/svg" xmlns:xlink="http://www.w3.org/1999/xlink">
<g id="graph0" class="graph" transform="scale(1 1) rotate(0) translate(4 41)">
<title>graphic</title>
<polygon fill="#ffffff" stroke="transparent" points="-4,4 -4,-41 672,-41 672,4 -4,4"/>
<!-- biom:DiarizationIndicatorCode -->
<g id="node1" class="node">
<title>biom:DiarizationIndicatorCode</title>
<text text-anchor="start" x="236.5" y="-21.4" font-family="Helvetica,sans-Serif" font-weight="bold" font-size="12.00" fill="#000000">biom:DiarizationIndicatorCode</text>
<polygon fill="none" stroke="#ff0000" stroke-width="5" points="232.5,-14 232.5,-34 414.5,-34 414.5,-14 232.5,-14"/>
</g>
<!-- biom:DiarizationIndicatorCodeType -->
<g id="node3" class="node">
<title>biom:DiarizationIndicatorCodeType</title>
<g id="a_node3_0"><a xlink:href="../../biom/DiarizationIndicatorCodeType/#diagram" xlink:title="A data type for a Diarization Indicator Code." target="_top">
<text text-anchor="start" x="478" y="-20.4" font-family="Helvetica,sans-Serif" font-size="12.00" fill="#000000">biom:DiarizationIndicatorCodeType</text>
</a>
</g>
<polygon fill="none" stroke="#000000" points="476,-15.5 476,-32.5 668,-32.5 668,-15.5 476,-15.5"/>
</g>
<!-- biom:DiarizationIndicatorCode&#45;&gt;biom:DiarizationIndicatorCodeType -->
<g id="edge2" class="edge">
<title>biom:DiarizationIndicatorCode&#45;&gt;biom:DiarizationIndicatorCodeType</title>
<path fill="none" stroke="#000000" d="M417.0931,-24C432.7807,-24 449.1638,-24 465.1545,-24"/>
<polygon fill="#000000" stroke="#000000" points="465.5949,-27.5001 475.5948,-24 465.5948,-20.5001 465.5949,-27.5001"/>
<text text-anchor="middle" x="446.5" y="-27.4" font-family="Helvetica,sans-Serif" font-size="12.00" fill="#000000">type</text>
</g>
<!-- Types -->
<g id="node2" class="node">
<title>Types</title>
<text text-anchor="start" x="2.5" y="-21.4" font-family="Helvetica,sans-Serif" font-weight="bold" font-size="12.00" fill="#000000">Types</text>
<g id="a_node2_1"><a xlink:href="../../biom/ContentInformationType/#diagram" xlink:title="A data type for indicating a recording&#39;s diarization status and the diarizing agency" target="_top">
<polygon fill="#ebebeb" stroke="transparent" points="1.5,-1 1.5,-16 162.5,-16 162.5,-1 1.5,-1"/>
<text text-anchor="start" x="2.5" y="-5.4" font-family="Helvetica,sans-Serif" font-size="12.00" fill="#000000">biom:ContentInformationType</text>
</a>
</g>
<polygon fill="#000000" stroke="#000000" points=".5,-16 .5,-16 163.5,-16 163.5,-16 .5,-16"/>
<polygon fill="none" stroke="#000000" points="0,0 0,-32 163,-32 163,0 0,0"/>
</g>
<!-- Types&#45;&gt;biom:DiarizationIndicatorCode -->
<g id="edge1" class="edge">
<title>Types:top&#45;&gt;biom:DiarizationIndicatorCode</title>
<path fill="none" stroke="#000000" d="M162.5,-24C180.9807,-24 200.6546,-24 219.6727,-24"/>
<polygon fill="#000000" stroke="#000000" points="219.8524,-27.5001 229.8524,-24 219.8524,-20.5001 219.8524,-27.5001"/>
<text text-anchor="middle" x="196.5" y="-27.4" font-family="Helvetica,sans-Serif" font-size="12.00" fill="#000000">has&#45;a</text>
</g>
</g>
</svg>
