<?xml version="1.0" encoding="UTF-8" standalone="no"?>
<!DOCTYPE svg PUBLIC "-//W3C//DTD SVG 1.1//EN"
 "http://www.w3.org/Graphics/SVG/1.1/DTD/svg11.dtd">
<!-- Generated by graphviz version 2.40.1 (20161225.0304)
 -->
<!-- Title: graphic Pages: 1 -->
<svg width="952pt" height="131pt"
 viewBox="0.00 0.00 952.00 130.50" xmlns="http://www.w3.org/2000/svg" xmlns:xlink="http://www.w3.org/1999/xlink">
<g id="graph0" class="graph" transform="scale(1 1) rotate(0) translate(4 126.5)">
<title>graphic</title>
<polygon fill="#ffffff" stroke="transparent" points="-4,4 -4,-126.5 948,-126.5 948,4 -4,4"/>
<!-- j:CrashInformationSourceType -->
<g id="node1" class="node">
<title>j:CrashInformationSourceType</title>
<text text-anchor="start" x="206.5" y="-55.4" font-family="Helvetica,sans-Serif" font-weight="bold" font-size="12.00" fill="#000000">j:CrashInformationSourceType</text>
<g id="a_node1_0"><a xlink:href="../../j/OrganizationORIIdentification/#diagram" xlink:title="A unique nine character NCIC identification (ORI) assigned to a justice&#45;related organization by the FBI CJIS Division." target="_top">
<polygon fill="#ebebeb" stroke="transparent" points="205.5,-35 205.5,-50 514.5,-50 514.5,-35 205.5,-35"/>
<text text-anchor="start" x="206.5" y="-39.4" font-family="Helvetica,sans-Serif" font-size="12.00" fill="#000000">j:OrganizationORIIdentification: nc:IdentificationType [0&#45;n]</text>
</a>
</g>
<g id="a_node1_1"><a xlink:href="../../j/InformationSourceCategoryAbstract/#diagram" xlink:title="A data concept for a source of information for the crash report." target="_top">
<text text-anchor="start" x="206.5" y="-24.4" font-family="Helvetica,sans-Serif" font-size="12.00" fill="#000000">j:InformationSourceCategoryAbstract [0&#45;n]</text>
</a>
</g>
<g id="a_node1_2"><a xlink:href="../../j/CrashInformationSourceAugmentationPoint/#diagram" xlink:title="An augmentation point for CrashInformationSourceType." target="_top">
<polygon fill="#ebebeb" stroke="transparent" points="205.5,-5 205.5,-20 514.5,-20 514.5,-5 205.5,-5"/>
<text text-anchor="start" x="206.5" y="-9.4" font-family="Helvetica,sans-Serif" font-size="12.00" fill="#000000">j:CrashInformationSourceAugmentationPoint [0&#45;n]</text>
</a>
</g>
<polygon fill="#ff0000" stroke="#ff0000" points="200.5,-50 200.5,-50 519.5,-50 519.5,-50 200.5,-50"/>
<polygon fill="none" stroke="#ff0000" stroke-width="5" points="202.5,-2.5 202.5,-67.5 516.5,-67.5 516.5,-2.5 202.5,-2.5"/>
</g>
<!-- subst_d9e32971 -->
<g id="node2" class="node">
<title>subst_d9e32971</title>
<g id="a_node2_3"><a xlink:href="../../j/InformationSourceCategoryAbstract/#diagram" xlink:title="&lt;TABLE&gt;" target="_top">
<text text-anchor="start" x="558" y="-24.4" font-family="Helvetica,sans-Serif" font-weight="bold" font-size="12.00" fill="#000000">Substitution group j:InformationSourceCategoryAbstract</text>
</a>
</g>
<g id="a_node2_4"><a xlink:href="../../j/InformationSourceCategoryCode/#diagram" xlink:title="A source of information for the crash report." target="_top">
<polygon fill="#ebebeb" stroke="transparent" points="557,-4 557,-19 943,-19 943,-4 557,-4"/>
<text text-anchor="start" x="558" y="-8.4" font-family="Helvetica,sans-Serif" font-size="12.00" fill="#000000">j:InformationSourceCategoryCode: mmucc:InformationSourceCodeType</text>
</a>
</g>
<polygon fill="#000000" stroke="#000000" points="556,-19 556,-19 944,-19 944,-19 556,-19"/>
<polygon fill="none" stroke="#000000" points="556,-3 556,-35 944,-35 944,-3 556,-3"/>
</g>
<!-- j:CrashInformationSourceType&#45;&gt;subst_d9e32971 -->
<g id="edge1" class="edge">
<title>j:CrashInformationSourceType:e&#45;&gt;subst_d9e32971:w</title>
<path fill="none" stroke="#000000" d="M524.828,-27C536.0114,-27 542.0955,-27 557,-27"/>
<polygon fill="#000000" stroke="#000000" points="524.5,-23.5001 514.5,-27 524.5,-30.5001 524.5,-23.5001"/>
</g>
<!-- Properties -->
<g id="node3" class="node">
<title>Properties</title>
<text text-anchor="start" x="2.5" y="-55.4" font-family="Helvetica,sans-Serif" font-weight="bold" font-size="12.00" fill="#000000">Properties</text>
<g id="a_node3_5"><a xlink:href="../../j/CrashInformationSource/#diagram" xlink:title="An affiliation of the person completing the crash report." target="_top">
<polygon fill="#ebebeb" stroke="transparent" points="1.5,-35 1.5,-50 140.5,-50 140.5,-35 1.5,-35"/>
<text text-anchor="start" x="2.5" y="-39.4" font-family="Helvetica,sans-Serif" font-size="12.00" fill="#000000">j:CrashInformationSource</text>
</a>
</g>
<polygon fill="#000000" stroke="#000000" points=".5,-50 .5,-50 141.5,-50 141.5,-50 .5,-50"/>
<polygon fill="none" stroke="#000000" points="0,-34 0,-66 141,-66 141,-34 0,-34"/>
</g>
<!-- Properties&#45;&gt;j:CrashInformationSourceType -->
<g id="edge2" class="edge">
<title>Properties:top&#45;&gt;j:CrashInformationSourceType:top</title>
<path fill="none" stroke="#000000" d="M140.5,-58C165.6649,-58 174.3891,-58 195.3154,-58"/>
<polygon fill="#000000" stroke="#000000" points="195.5,-61.5001 205.5,-58 195.5,-54.5001 195.5,-61.5001"/>
<text text-anchor="middle" x="170.5" y="-61.4" font-family="Helvetica,sans-Serif" font-size="12.00" fill="#000000">type</text>
</g>
<!-- structures:ObjectType -->
<g id="node4" class="node">
<title>structures:ObjectType</title>
<g id="a_node4_6"><a xlink:href="../../structures/ObjectType/#diagram" xlink:title="A data type for a thing with its own lifespan that has some existence." target="_top">
<text text-anchor="start" x="300.5" y="-110.4" font-family="Helvetica,sans-Serif" font-size="12.00" fill="#000000">structures:ObjectType</text>
</a>
</g>
<polygon fill="none" stroke="#000000" points="298.5,-105.5 298.5,-122.5 420.5,-122.5 420.5,-105.5 298.5,-105.5"/>
</g>
<!-- structures:ObjectType&#45;&gt;j:CrashInformationSourceType -->
<g id="edge3" class="edge">
<title>structures:ObjectType&#45;&gt;j:CrashInformationSourceType</title>
<path fill="none" stroke="#000000" d="M359.5,-105.4117C359.5,-99.1025 359.5,-89.9911 359.5,-80.4049"/>
<polygon fill="#000000" stroke="#000000" points="363.0001,-80.3408 359.5,-70.3408 356.0001,-80.3409 363.0001,-80.3408"/>
<text text-anchor="middle" x="350" y="-84.65" font-family="Helvetica,sans-Serif" font-size="12.00" fill="#000000">extension</text>
</g>
</g>
</svg>
