<?xml version="1.0" encoding="UTF-8" standalone="no"?>
<!DOCTYPE svg PUBLIC "-//W3C//DTD SVG 1.1//EN"
 "http://www.w3.org/Graphics/SVG/1.1/DTD/svg11.dtd">
<!-- Generated by graphviz version 2.40.1 (20161225.0304)
 -->
<!-- Title: graphic Pages: 1 -->
<svg width="580pt" height="45pt"
 viewBox="0.00 0.00 580.00 45.00" xmlns="http://www.w3.org/2000/svg" xmlns:xlink="http://www.w3.org/1999/xlink">
<g id="graph0" class="graph" transform="scale(1 1) rotate(0) translate(4 41)">
<title>graphic</title>
<polygon fill="#ffffff" stroke="transparent" points="-4,4 -4,-41 576,-41 576,4 -4,4"/>
<!-- it:TransportMeansOwner -->
<g id="node1" class="node">
<title>it:TransportMeansOwner</title>
<text text-anchor="start" x="201.5" y="-21.4" font-family="Helvetica,sans-Serif" font-weight="bold" font-size="12.00" fill="#000000">it:TransportMeansOwner</text>
<polygon fill="none" stroke="#ff0000" stroke-width="5" points="197.5,-14 197.5,-34 347.5,-34 347.5,-14 197.5,-14"/>
</g>
<!-- it:TransportMeansOwnerType -->
<g id="node3" class="node">
<title>it:TransportMeansOwnerType</title>
<g id="a_node3_0"><a xlink:href="../../it/TransportMeansOwnerType/#diagram" xlink:title="A data type representing the registered owner of means of transport." target="_top">
<text text-anchor="start" x="411.5" y="-20.4" font-family="Helvetica,sans-Serif" font-size="12.00" fill="#000000">it:TransportMeansOwnerType</text>
</a>
</g>
<polygon fill="none" stroke="#000000" points="409,-15.5 409,-32.5 572,-32.5 572,-15.5 409,-15.5"/>
</g>
<!-- it:TransportMeansOwner&#45;&gt;it:TransportMeansOwnerType -->
<g id="edge2" class="edge">
<title>it:TransportMeansOwner&#45;&gt;it:TransportMeansOwnerType</title>
<path fill="none" stroke="#000000" d="M350.2797,-24C365.8272,-24 382.3002,-24 398.2802,-24"/>
<polygon fill="#000000" stroke="#000000" points="398.6956,-27.5001 408.6955,-24 398.6955,-20.5001 398.6956,-27.5001"/>
<text text-anchor="middle" x="379.5" y="-27.4" font-family="Helvetica,sans-Serif" font-size="12.00" fill="#000000">type</text>
</g>
<!-- Types -->
<g id="node2" class="node">
<title>Types</title>
<text text-anchor="start" x="2" y="-21.4" font-family="Helvetica,sans-Serif" font-weight="bold" font-size="12.00" fill="#000000">Types</text>
<g id="a_node2_1"><a xlink:href="../../it/TransportMeansType/#diagram" xlink:title="A data type to identify the means of transport used." target="_top">
<polygon fill="#ebebeb" stroke="transparent" points="1,-1 1,-16 127,-16 127,-1 1,-1"/>
<text text-anchor="start" x="2" y="-5.4" font-family="Helvetica,sans-Serif" font-size="12.00" fill="#000000">it:TransportMeansType</text>
</a>
</g>
<polygon fill="#000000" stroke="#000000" points="0,-16 0,-16 128,-16 128,-16 0,-16"/>
<polygon fill="none" stroke="#000000" points="0,0 0,-32 128,-32 128,0 0,0"/>
</g>
<!-- Types&#45;&gt;it:TransportMeansOwner -->
<g id="edge1" class="edge">
<title>Types:top&#45;&gt;it:TransportMeansOwner</title>
<path fill="none" stroke="#000000" d="M127,-24C145.6286,-24 165.5987,-24 184.5916,-24"/>
<polygon fill="#000000" stroke="#000000" points="184.7239,-27.5001 194.7239,-24 184.7239,-20.5001 184.7239,-27.5001"/>
<text text-anchor="middle" x="161.5" y="-27.4" font-family="Helvetica,sans-Serif" font-size="12.00" fill="#000000">has&#45;a</text>
</g>
</g>
</svg>
