<?xml version="1.0" encoding="UTF-8" standalone="no"?>
<!DOCTYPE svg PUBLIC "-//W3C//DTD SVG 1.1//EN"
 "http://www.w3.org/Graphics/SVG/1.1/DTD/svg11.dtd">
<!-- Generated by graphviz version 2.40.1 (20161225.0304)
 -->
<!-- Title: graphic Pages: 1 -->
<svg width="653pt" height="117pt"
 viewBox="0.00 0.00 653.00 116.50" xmlns="http://www.w3.org/2000/svg" xmlns:xlink="http://www.w3.org/1999/xlink">
<g id="graph0" class="graph" transform="scale(1 1) rotate(0) translate(4 112.5)">
<title>graphic</title>
<polygon fill="#ffffff" stroke="transparent" points="-4,4 -4,-112.5 649,-112.5 649,4 -4,4"/>
<!-- hs:RecentLivingSituationCategoryAbstract -->
<g id="node1" class="node">
<title>hs:RecentLivingSituationCategoryAbstract</title>
<text text-anchor="start" x="312.5" y="-92.9" font-family="Helvetica,sans-Serif" font-weight="bold" font-size="12.00" fill="#000000">hs:RecentLivingSituationCategoryAbstract</text>
<polygon fill="none" stroke="#ff0000" stroke-width="5" points="309,-85.5 309,-105.5 562,-105.5 562,-85.5 309,-85.5"/>
</g>
<!-- SubstitutableElements -->
<g id="node3" class="node">
<title>SubstitutableElements</title>
<text text-anchor="start" x="228.5" y="-35.9" font-family="Helvetica,sans-Serif" font-weight="bold" font-size="12.00" fill="#000000">Substitutable elements</text>
<g id="a_node3_0"><a xlink:href="../../hs/RecentLivingSituationCategoryCode/#diagram" xlink:title="A kind of living situation experienced in the last year." target="_top">
<polygon fill="#ebebeb" stroke="transparent" points="227.5,-15.5 227.5,-30.5 644.5,-30.5 644.5,-15.5 227.5,-15.5"/>
<text text-anchor="start" x="228.5" y="-19.9" font-family="Helvetica,sans-Serif" font-size="12.00" fill="#000000">hs:RecentLivingSituationCategoryCode: hs:LivingSituationCategoryCodeType</text>
</a>
</g>
<g id="a_node3_1"><a xlink:href="../../hs/RecentLivingSituationCategoryText/#diagram" xlink:title="A kind of living situation experienced in the last year." target="_top">
<text text-anchor="start" x="228.5" y="-4.9" font-family="Helvetica,sans-Serif" font-size="12.00" fill="#000000">hs:RecentLivingSituationCategoryText: nc:TextType</text>
</a>
</g>
<polygon fill="#000000" stroke="#000000" points="226.5,-30.5 226.5,-30.5 645.5,-30.5 645.5,-30.5 226.5,-30.5"/>
<polygon fill="none" stroke="#000000" points="226,0 226,-47 645,-47 645,0 226,0"/>
</g>
<!-- hs:RecentLivingSituationCategoryAbstract&#45;&gt;SubstitutableElements -->
<g id="edge2" class="edge">
<title>hs:RecentLivingSituationCategoryAbstract&#45;&gt;SubstitutableElements</title>
<path fill="none" stroke="#000000" d="M435.5,-72.9771C435.5,-64.7398 435.5,-55.4022 435.5,-47.0755"/>
<polygon fill="#000000" stroke="#000000" points="432.0001,-72.9945 435.5,-82.9945 439.0001,-72.9946 432.0001,-72.9945"/>
<text text-anchor="middle" x="426" y="-61.9" font-family="Helvetica,sans-Serif" font-size="12.00" fill="#000000">substitutable for</text>
</g>
<!-- Types -->
<g id="node2" class="node">
<title>Types</title>
<text text-anchor="start" x="2.5" y="-92.9" font-family="Helvetica,sans-Serif" font-weight="bold" font-size="12.00" fill="#000000">Types</text>
<g id="a_node2_2"><a xlink:href="../../hs/PersonAugmentationType/#diagram" xlink:title="A data type for additional information about a person." target="_top">
<polygon fill="#ebebeb" stroke="transparent" points="1.5,-72.5 1.5,-87.5 158.5,-87.5 158.5,-72.5 1.5,-72.5"/>
<text text-anchor="start" x="2.5" y="-76.9" font-family="Helvetica,sans-Serif" font-size="12.00" fill="#000000">hs:PersonAugmentationType</text>
</a>
</g>
<polygon fill="#000000" stroke="#000000" points=".5,-87.5 .5,-87.5 159.5,-87.5 159.5,-87.5 .5,-87.5"/>
<polygon fill="none" stroke="#000000" points="0,-71.5 0,-103.5 159,-103.5 159,-71.5 0,-71.5"/>
</g>
<!-- Types&#45;&gt;hs:RecentLivingSituationCategoryAbstract -->
<g id="edge1" class="edge">
<title>Types:top&#45;&gt;hs:RecentLivingSituationCategoryAbstract</title>
<path fill="none" stroke="#000000" d="M158.5,-95.5C203.2265,-95.5 252.0154,-95.5 296.0115,-95.5"/>
<polygon fill="#000000" stroke="#000000" points="296.2013,-99.0001 306.2012,-95.5 296.2012,-92.0001 296.2013,-99.0001"/>
<text text-anchor="middle" x="192.5" y="-98.9" font-family="Helvetica,sans-Serif" font-size="12.00" fill="#000000">has&#45;a</text>
</g>
</g>
</svg>
