<?xml version="1.0" encoding="UTF-8" standalone="no"?>
<!DOCTYPE svg PUBLIC "-//W3C//DTD SVG 1.1//EN"
 "http://www.w3.org/Graphics/SVG/1.1/DTD/svg11.dtd">
<!-- Generated by graphviz version 2.40.1 (20161225.0304)
 -->
<!-- Title: graphic Pages: 1 -->
<svg width="519pt" height="45pt"
 viewBox="0.00 0.00 519.00 45.00" xmlns="http://www.w3.org/2000/svg" xmlns:xlink="http://www.w3.org/1999/xlink">
<g id="graph0" class="graph" transform="scale(1 1) rotate(0) translate(4 41)">
<title>graphic</title>
<polygon fill="#ffffff" stroke="transparent" points="-4,4 -4,-41 515,-41 515,4 -4,4"/>
<!-- j:DriverLicenseWithdrawalAugmentationPoint -->
<g id="node1" class="node">
<title>j:DriverLicenseWithdrawalAugmentationPoint</title>
<text text-anchor="start" x="243" y="-21.4" font-family="Helvetica,sans-Serif" font-weight="bold" font-size="12.00" fill="#000000">j:DriverLicenseWithdrawalAugmentationPoint</text>
<polygon fill="none" stroke="#ff0000" stroke-width="5" points="239.5,-14 239.5,-34 508.5,-34 508.5,-14 239.5,-14"/>
</g>
<!-- Types -->
<g id="node2" class="node">
<title>Types</title>
<text text-anchor="start" x="2" y="-21.4" font-family="Helvetica,sans-Serif" font-weight="bold" font-size="12.00" fill="#000000">Types</text>
<g id="a_node2_0"><a xlink:href="../../j/DriverLicenseWithdrawalType/#diagram" xlink:title="A data type for a driver license withdrawal." target="_top">
<polygon fill="#ebebeb" stroke="transparent" points="1,-1 1,-16 169,-16 169,-1 1,-1"/>
<text text-anchor="start" x="2" y="-5.4" font-family="Helvetica,sans-Serif" font-size="12.00" fill="#000000">j:DriverLicenseWithdrawalType</text>
</a>
</g>
<polygon fill="#000000" stroke="#000000" points="0,-16 0,-16 170,-16 170,-16 0,-16"/>
<polygon fill="none" stroke="#000000" points="0,0 0,-32 170,-32 170,0 0,0"/>
</g>
<!-- Types&#45;&gt;j:DriverLicenseWithdrawalAugmentationPoint -->
<g id="edge1" class="edge">
<title>Types:top&#45;&gt;j:DriverLicenseWithdrawalAugmentationPoint</title>
<path fill="none" stroke="#000000" d="M169,-24C187.7148,-24 207.3906,-24 226.843,-24"/>
<polygon fill="#000000" stroke="#000000" points="226.9888,-27.5001 236.9888,-24 226.9888,-20.5001 226.9888,-27.5001"/>
<text text-anchor="middle" x="203.5" y="-27.4" font-family="Helvetica,sans-Serif" font-size="12.00" fill="#000000">has&#45;a</text>
</g>
</g>
</svg>
