<?xml version="1.0" encoding="UTF-8" standalone="no"?>
<!DOCTYPE svg PUBLIC "-//W3C//DTD SVG 1.1//EN"
 "http://www.w3.org/Graphics/SVG/1.1/DTD/svg11.dtd">
<!-- Generated by graphviz version 2.40.1 (20161225.0304)
 -->
<!-- Title: graphic Pages: 1 -->
<svg width="417pt" height="86pt"
 viewBox="0.00 0.00 417.00 86.00" xmlns="http://www.w3.org/2000/svg" xmlns:xlink="http://www.w3.org/1999/xlink">
<g id="graph0" class="graph" transform="scale(1 1) rotate(0) translate(4 82)">
<title>graphic</title>
<polygon fill="#ffffff" stroke="transparent" points="-4,4 -4,-82 413,-82 413,4 -4,4"/>
<!-- j:StatuteOffenseAPCOCode -->
<g id="node1" class="node">
<title>j:StatuteOffenseAPCOCode</title>
<text text-anchor="start" x="6" y="-9.9" font-family="Helvetica,sans-Serif" font-weight="bold" font-size="12.00" fill="#000000">j:StatuteOffenseAPCOCode</text>
<polygon fill="none" stroke="#ff0000" stroke-width="5" points="2.5,-2.5 2.5,-22.5 167.5,-22.5 167.5,-2.5 2.5,-2.5"/>
</g>
<!-- apco:IncidentCategoryCodeType -->
<g id="node3" class="node">
<title>apco:IncidentCategoryCodeType</title>
<g id="a_node3_0"><a xlink:href="../../apco/IncidentCategoryCodeType/#diagram" xlink:title="A data type for incident codes." target="_top">
<text text-anchor="start" x="231" y="-8.9" font-family="Helvetica,sans-Serif" font-size="12.00" fill="#000000">apco:IncidentCategoryCodeType</text>
</a>
</g>
<polygon fill="none" stroke="#000000" points="229,-4 229,-21 409,-21 409,-4 229,-4"/>
</g>
<!-- j:StatuteOffenseAPCOCode&#45;&gt;apco:IncidentCategoryCodeType -->
<g id="edge2" class="edge">
<title>j:StatuteOffenseAPCOCode&#45;&gt;apco:IncidentCategoryCodeType</title>
<path fill="none" stroke="#000000" d="M170.1413,-12.5C185.9409,-12.5 202.5796,-12.5 218.7799,-12.5"/>
<polygon fill="#000000" stroke="#000000" points="218.7989,-16.0001 228.7988,-12.5 218.7988,-9.0001 218.7989,-16.0001"/>
<text text-anchor="middle" x="199.5" y="-15.9" font-family="Helvetica,sans-Serif" font-size="12.00" fill="#000000">type</text>
</g>
<!-- SubstitutionGroup -->
<g id="node2" class="node">
<title>SubstitutionGroup</title>
<g id="a_node2_1"><a xlink:href="../../j/StatuteOffenseCodeAbstract/#diagram" xlink:title="A data concept for a criminal offense within a code book." target="_top">
<text text-anchor="start" x="6" y="-65.9" font-family="Helvetica,sans-Serif" font-size="12.00" fill="#000000">j:StatuteOffenseCodeAbstract</text>
</a>
</g>
<polygon fill="none" stroke="#000000" points="3.5,-61 3.5,-78 166.5,-78 166.5,-61 3.5,-61"/>
</g>
<!-- SubstitutionGroup&#45;&gt;j:StatuteOffenseAPCOCode -->
<g id="edge1" class="edge">
<title>SubstitutionGroup&#45;&gt;j:StatuteOffenseAPCOCode</title>
<path fill="none" stroke="#000000" d="M85,-50.9163C85,-42.4809 85,-32.7214 85,-25.1501"/>
<polygon fill="#000000" stroke="#000000" points="81.5001,-50.9472 85,-60.9473 88.5001,-50.9473 81.5001,-50.9472"/>
<text text-anchor="middle" x="75.5" y="-39.9" font-family="Helvetica,sans-Serif" font-size="12.00" fill="#000000">substitution group</text>
</g>
</g>
</svg>
