<?xml version="1.0" encoding="UTF-8" standalone="no"?>
<!DOCTYPE svg PUBLIC "-//W3C//DTD SVG 1.1//EN"
 "http://www.w3.org/Graphics/SVG/1.1/DTD/svg11.dtd">
<!-- Generated by graphviz version 2.40.1 (20161225.0304)
 -->
<!-- Title: graphic Pages: 1 -->
<svg width="532pt" height="45pt"
 viewBox="0.00 0.00 532.00 45.00" xmlns="http://www.w3.org/2000/svg" xmlns:xlink="http://www.w3.org/1999/xlink">
<g id="graph0" class="graph" transform="scale(1 1) rotate(0) translate(4 41)">
<title>graphic</title>
<polygon fill="#ffffff" stroke="transparent" points="-4,4 -4,-41 528,-41 528,4 -4,4"/>
<!-- biom:BiometricDescriptionText -->
<g id="node1" class="node">
<title>biom:BiometricDescriptionText</title>
<text text-anchor="start" x="209.5" y="-21.4" font-family="Helvetica,sans-Serif" font-weight="bold" font-size="12.00" fill="#000000">biom:BiometricDescriptionText</text>
<polygon fill="none" stroke="#ff0000" stroke-width="5" points="205.5,-14 205.5,-34 391.5,-34 391.5,-14 205.5,-14"/>
</g>
<!-- nc:TextType -->
<g id="node3" class="node">
<title>nc:TextType</title>
<g id="a_node3_0"><a xlink:href="../../nc/TextType/#diagram" xlink:title="A data type for a character string." target="_top">
<text text-anchor="start" x="455.5" y="-20.4" font-family="Helvetica,sans-Serif" font-size="12.00" fill="#000000">nc:TextType</text>
</a>
</g>
<polygon fill="none" stroke="#000000" points="453,-15.5 453,-32.5 524,-32.5 524,-15.5 453,-15.5"/>
</g>
<!-- biom:BiometricDescriptionText&#45;&gt;nc:TextType -->
<g id="edge2" class="edge">
<title>biom:BiometricDescriptionText&#45;&gt;nc:TextType</title>
<path fill="none" stroke="#000000" d="M394.0566,-24C410.8622,-24 427.6445,-24 442.2999,-24"/>
<polygon fill="#000000" stroke="#000000" points="442.5653,-27.5001 452.5653,-24 442.5653,-20.5001 442.5653,-27.5001"/>
<text text-anchor="middle" x="423.5" y="-27.4" font-family="Helvetica,sans-Serif" font-size="12.00" fill="#000000">type</text>
</g>
<!-- Types -->
<g id="node2" class="node">
<title>Types</title>
<text text-anchor="start" x="2" y="-21.4" font-family="Helvetica,sans-Serif" font-weight="bold" font-size="12.00" fill="#000000">Types</text>
<g id="a_node2_1"><a xlink:href="../../biom/BiometricDataType/#diagram" xlink:title="A data type for a representation of the identifying Biometric in." target="_top">
<polygon fill="#ebebeb" stroke="transparent" points="1,-1 1,-16 135,-16 135,-1 1,-1"/>
<text text-anchor="start" x="2" y="-5.4" font-family="Helvetica,sans-Serif" font-size="12.00" fill="#000000">biom:BiometricDataType</text>
</a>
</g>
<polygon fill="#000000" stroke="#000000" points="0,-16 0,-16 136,-16 136,-16 0,-16"/>
<polygon fill="none" stroke="#000000" points="0,0 0,-32 136,-32 136,0 0,0"/>
</g>
<!-- Types&#45;&gt;biom:BiometricDescriptionText -->
<g id="edge1" class="edge">
<title>Types:top&#45;&gt;biom:BiometricDescriptionText</title>
<path fill="none" stroke="#000000" d="M135,-24C153.7333,-24 173.6739,-24 192.9543,-24"/>
<polygon fill="#000000" stroke="#000000" points="192.9667,-27.5001 202.9667,-24 192.9667,-20.5001 192.9667,-27.5001"/>
<text text-anchor="middle" x="169.5" y="-27.4" font-family="Helvetica,sans-Serif" font-size="12.00" fill="#000000">has&#45;a</text>
</g>
</g>
</svg>
