<?xml version="1.0" encoding="UTF-8" standalone="no"?>
<!DOCTYPE svg PUBLIC "-//W3C//DTD SVG 1.1//EN"
 "http://www.w3.org/Graphics/SVG/1.1/DTD/svg11.dtd">
<!-- Generated by graphviz version 2.40.1 (20161225.0304)
 -->
<!-- Title: graphic Pages: 1 -->
<svg width="1060pt" height="364pt"
 viewBox="0.00 0.00 1060.00 364.00" xmlns="http://www.w3.org/2000/svg" xmlns:xlink="http://www.w3.org/1999/xlink">
<g id="graph0" class="graph" transform="scale(1 1) rotate(0) translate(4 360)">
<title>graphic</title>
<polygon fill="#ffffff" stroke="transparent" points="-4,4 -4,-360 1056,-360 1056,4 -4,4"/>
<!-- m:MerchantMarinerDocumentType -->
<g id="node1" class="node">
<title>m:MerchantMarinerDocumentType</title>
<text text-anchor="start" x="228" y="-287.9" font-family="Helvetica,sans-Serif" font-weight="bold" font-size="12.00" fill="#000000">m:MerchantMarinerDocumentType</text>
<g id="a_node1_0"><a xlink:href="../../m/MerchantMarinerDocumentIdentification/#diagram" xlink:title="An identification of a merchant mariner document." target="_top">
<polygon fill="#ebebeb" stroke="transparent" points="227,-267.5 227,-282.5 639,-282.5 639,-267.5 227,-267.5"/>
<text text-anchor="start" x="228" y="-271.9" font-family="Helvetica,sans-Serif" font-size="12.00" fill="#000000">m:MerchantMarinerDocumentIdentification: nc:IdentificationType [0&#45;n]</text>
</a>
</g>
<g id="a_node1_1"><a xlink:href="../../m/MerchantMarinerDocumentIssueDate/#diagram" xlink:title="A date a merchant mariner document was issued." target="_top">
<text text-anchor="start" x="228" y="-256.9" font-family="Helvetica,sans-Serif" font-size="12.00" fill="#000000">m:MerchantMarinerDocumentIssueDate: nc:DateType [0&#45;n]</text>
</a>
</g>
<g id="a_node1_2"><a xlink:href="../../m/MerchantMarinerDocumentIssuerLocation/#diagram" xlink:title="A location of the issuer of a merchant mariner document." target="_top">
<polygon fill="#ebebeb" stroke="transparent" points="227,-237.5 227,-252.5 639,-252.5 639,-237.5 227,-237.5"/>
<text text-anchor="start" x="228" y="-241.9" font-family="Helvetica,sans-Serif" font-size="12.00" fill="#000000">m:MerchantMarinerDocumentIssuerLocation: nc:LocationType [0&#45;n]</text>
</a>
</g>
<g id="a_node1_3"><a xlink:href="../../m/MerchantMarinerDocumentIssuingOrganization/#diagram" xlink:title="An issuer of a merchant mariner document." target="_top">
<text text-anchor="start" x="228" y="-226.9" font-family="Helvetica,sans-Serif" font-size="12.00" fill="#000000">m:MerchantMarinerDocumentIssuingOrganization: nc:OrganizationType [0&#45;n]</text>
</a>
</g>
<g id="a_node1_4"><a xlink:href="../../m/MerchantMarinerDocumentRatingAbstract/#diagram" xlink:title="A data concept for a rating on a merchant mariner document which authorizes the performance of certain shipboard duties or actions." target="_top">
<polygon fill="#ebebeb" stroke="transparent" points="227,-207.5 227,-222.5 639,-222.5 639,-207.5 227,-207.5"/>
<text text-anchor="start" x="228" y="-211.9" font-family="Helvetica,sans-Serif" font-size="12.00" fill="#000000">m:MerchantMarinerDocumentRatingAbstract [0&#45;n]</text>
</a>
</g>
<g id="a_node1_5"><a xlink:href="../../m/PersonAddress/#diagram" xlink:title="An address for a person." target="_top">
<text text-anchor="start" x="228" y="-196.9" font-family="Helvetica,sans-Serif" font-size="12.00" fill="#000000">m:PersonAddress: nc:AddressType [0&#45;n]</text>
</a>
</g>
<g id="a_node1_6"><a xlink:href="../../nc/PersonBirthDate/#diagram" xlink:title="A date a person was born." target="_top">
<polygon fill="#ebebeb" stroke="transparent" points="227,-177.5 227,-192.5 639,-192.5 639,-177.5 227,-177.5"/>
<text text-anchor="start" x="228" y="-181.9" font-family="Helvetica,sans-Serif" font-size="12.00" fill="#000000">nc:PersonBirthDate: nc:DateType [0&#45;n]</text>
</a>
</g>
<g id="a_node1_7"><a xlink:href="../../nc/PersonCitizenshipCountry/#diagram" xlink:title="A country that assigns rights, duties, and privileges to a person because of the birth or naturalization of the person in that country." target="_top">
<text text-anchor="start" x="228" y="-166.9" font-family="Helvetica,sans-Serif" font-size="12.00" fill="#000000">nc:PersonCitizenshipCountry: nc:CountryType [0&#45;n]</text>
</a>
</g>
<g id="a_node1_8"><a xlink:href="../../nc/PersonEyeColorAbstract/#diagram" xlink:title="A data concept for a color of the eyes of a person." target="_top">
<polygon fill="#ebebeb" stroke="transparent" points="227,-147.5 227,-162.5 639,-162.5 639,-147.5 227,-147.5"/>
<text text-anchor="start" x="228" y="-151.9" font-family="Helvetica,sans-Serif" font-size="12.00" fill="#000000">nc:PersonEyeColorAbstract [0&#45;n]</text>
</a>
</g>
<g id="a_node1_9"><a xlink:href="../../nc/PersonHairColorAbstract/#diagram" xlink:title="A data concept for a color of the hair of a person." target="_top">
<text text-anchor="start" x="228" y="-136.9" font-family="Helvetica,sans-Serif" font-size="12.00" fill="#000000">nc:PersonHairColorAbstract [0&#45;n]</text>
</a>
</g>
<g id="a_node1_10"><a xlink:href="../../nc/PersonHeightDescriptionText/#diagram" xlink:title="A description of the height of a person." target="_top">
<polygon fill="#ebebeb" stroke="transparent" points="227,-117.5 227,-132.5 639,-132.5 639,-117.5 227,-117.5"/>
<text text-anchor="start" x="228" y="-121.9" font-family="Helvetica,sans-Serif" font-size="12.00" fill="#000000">nc:PersonHeightDescriptionText: nc:TextType [0&#45;n]</text>
</a>
</g>
<g id="a_node1_11"><a xlink:href="../../nc/PersonHeightMeasure/#diagram" xlink:title="A measurement of the height of a person." target="_top">
<text text-anchor="start" x="228" y="-106.9" font-family="Helvetica,sans-Serif" font-size="12.00" fill="#000000">nc:PersonHeightMeasure: nc:LengthMeasureType [0&#45;n]</text>
</a>
</g>
<g id="a_node1_12"><a xlink:href="../../nc/PersonName/#diagram" xlink:title="A combination of names and/or titles by which a person is known." target="_top">
<polygon fill="#ebebeb" stroke="transparent" points="227,-87.5 227,-102.5 639,-102.5 639,-87.5 227,-87.5"/>
<text text-anchor="start" x="228" y="-91.9" font-family="Helvetica,sans-Serif" font-size="12.00" fill="#000000">nc:PersonName: nc:PersonNameType [0&#45;n]</text>
</a>
</g>
<g id="a_node1_13"><a xlink:href="../../nc/PersonSexAbstract/#diagram" xlink:title="A data concept for a gender or sex of a person." target="_top">
<text text-anchor="start" x="228" y="-76.9" font-family="Helvetica,sans-Serif" font-size="12.00" fill="#000000">nc:PersonSexAbstract [0&#45;n]</text>
</a>
</g>
<g id="a_node1_14"><a xlink:href="../../nc/PersonSSNIdentification/#diagram" xlink:title="A unique identification reference to a living person; assigned by the United States Social Security Administration." target="_top">
<polygon fill="#ebebeb" stroke="transparent" points="227,-57.5 227,-72.5 639,-72.5 639,-57.5 227,-57.5"/>
<text text-anchor="start" x="228" y="-61.9" font-family="Helvetica,sans-Serif" font-size="12.00" fill="#000000">nc:PersonSSNIdentification: nc:IdentificationType [0&#45;n]</text>
</a>
</g>
<g id="a_node1_15"><a xlink:href="../../nc/PersonWeightDescriptionText/#diagram" xlink:title="A description of the weight of a person." target="_top">
<text text-anchor="start" x="228" y="-46.9" font-family="Helvetica,sans-Serif" font-size="12.00" fill="#000000">nc:PersonWeightDescriptionText: nc:TextType [0&#45;n]</text>
</a>
</g>
<g id="a_node1_16"><a xlink:href="../../nc/PersonWeightMeasure/#diagram" xlink:title="A measurement of the weight of a person." target="_top">
<polygon fill="#ebebeb" stroke="transparent" points="227,-27.5 227,-42.5 639,-42.5 639,-27.5 227,-27.5"/>
<text text-anchor="start" x="228" y="-31.9" font-family="Helvetica,sans-Serif" font-size="12.00" fill="#000000">nc:PersonWeightMeasure: nc:WeightMeasureType [0&#45;n]</text>
</a>
</g>
<g id="a_node1_17"><a xlink:href="../../m/MerchantMarinerDocumentAugmentationPoint/#diagram" xlink:title="An augmentation point for MerchantMarinerDocumentType." target="_top">
<text text-anchor="start" x="228" y="-16.9" font-family="Helvetica,sans-Serif" font-size="12.00" fill="#000000">m:MerchantMarinerDocumentAugmentationPoint [0&#45;n]</text>
</a>
</g>
<polygon fill="#ff0000" stroke="#ff0000" points="222,-282.5 222,-282.5 644,-282.5 644,-282.5 222,-282.5"/>
<polygon fill="none" stroke="#ff0000" stroke-width="5" points="224.5,-10.5 224.5,-300.5 641.5,-300.5 641.5,-10.5 224.5,-10.5"/>
</g>
<!-- subst_d9e3844 -->
<g id="node2" class="node">
<title>subst_d9e3844</title>
<g id="a_node2_18"><a xlink:href="../../m/MerchantMarinerDocumentRatingAbstract/#diagram" xlink:title="&lt;TABLE&gt;" target="_top">
<text text-anchor="start" x="683.5" y="-232.9" font-family="Helvetica,sans-Serif" font-weight="bold" font-size="12.00" fill="#000000">Substitution group m:MerchantMarinerDocumentRatingAbstract</text>
</a>
</g>
<g id="a_node2_19"><a xlink:href="../../m/MerchantMarinerDocumentRatingText/#diagram" xlink:title="A rating on a merchant mariner document which authorizes the performance of certain shipboard duties or actions." target="_top">
<polygon fill="#ebebeb" stroke="transparent" points="682.5,-212.5 682.5,-227.5 1051.5,-227.5 1051.5,-212.5 682.5,-212.5"/>
<text text-anchor="start" x="683.5" y="-216.9" font-family="Helvetica,sans-Serif" font-size="12.00" fill="#000000">m:MerchantMarinerDocumentRatingText: nc:TextType</text>
</a>
</g>
<polygon fill="#000000" stroke="#000000" points="681.5,-227.5 681.5,-227.5 1052.5,-227.5 1052.5,-227.5 681.5,-227.5"/>
<polygon fill="none" stroke="#000000" points="681,-211.5 681,-243.5 1052,-243.5 1052,-211.5 681,-211.5"/>
</g>
<!-- m:MerchantMarinerDocumentType&#45;&gt;subst_d9e3844 -->
<g id="edge1" class="edge">
<title>m:MerchantMarinerDocumentType:e&#45;&gt;subst_d9e3844:w</title>
<path fill="none" stroke="#000000" d="M649.0926,-217.3457C661.3472,-222.2969 665.2109,-235.5 682.5,-235.5"/>
<polygon fill="#000000" stroke="#000000" points="649.4665,-213.8561 639,-215.5 648.2072,-220.7419 649.4665,-213.8561"/>
</g>
<!-- subst_d17e18791 -->
<g id="node3" class="node">
<title>subst_d17e18791</title>
<g id="a_node3_20"><a xlink:href="../../nc/PersonEyeColorAbstract/#diagram" xlink:title="&lt;TABLE&gt;" target="_top">
<text text-anchor="start" x="727.5" y="-181.9" font-family="Helvetica,sans-Serif" font-weight="bold" font-size="12.00" fill="#000000">Substitution group nc:PersonEyeColorAbstract</text>
</a>
</g>
<g id="a_node3_21"><a xlink:href="../../j/PersonEyeColorCode/#diagram" xlink:title="A code set identifying an eye color of a person." target="_top">
<polygon fill="#ebebeb" stroke="transparent" points="726.5,-161.5 726.5,-176.5 1006.5,-176.5 1006.5,-161.5 726.5,-161.5"/>
<text text-anchor="start" x="727.5" y="-165.9" font-family="Helvetica,sans-Serif" font-size="12.00" fill="#000000">j:PersonEyeColorCode: j:PersonEyeColorCodeType</text>
</a>
</g>
<g id="a_node3_22"><a xlink:href="../../nc/PersonEyeColorText/#diagram" xlink:title="A color of the eyes of a person." target="_top">
<text text-anchor="start" x="727.5" y="-150.9" font-family="Helvetica,sans-Serif" font-size="12.00" fill="#000000">nc:PersonEyeColorText: nc:TextType</text>
</a>
</g>
<polygon fill="#000000" stroke="#000000" points="725.5,-176.5 725.5,-176.5 1007.5,-176.5 1007.5,-176.5 725.5,-176.5"/>
<polygon fill="none" stroke="#000000" points="725.5,-146 725.5,-193 1007.5,-193 1007.5,-146 725.5,-146"/>
</g>
<!-- m:MerchantMarinerDocumentType&#45;&gt;subst_d17e18791 -->
<g id="edge2" class="edge">
<title>m:MerchantMarinerDocumentType:e&#45;&gt;subst_d17e18791:w</title>
<path fill="none" stroke="#000000" d="M649.265,-155.183C681.3487,-159.6485 689.0825,-184.5 726.5,-184.5"/>
<polygon fill="#000000" stroke="#000000" points="649.2103,-151.6717 639,-154.5 648.7456,-158.6562 649.2103,-151.6717"/>
</g>
<!-- subst_d17e18905 -->
<g id="node4" class="node">
<title>subst_d17e18905</title>
<g id="a_node4_23"><a xlink:href="../../nc/PersonHairColorAbstract/#diagram" xlink:title="&lt;TABLE&gt;" target="_top">
<text text-anchor="start" x="726.5" y="-116.9" font-family="Helvetica,sans-Serif" font-weight="bold" font-size="12.00" fill="#000000">Substitution group nc:PersonHairColorAbstract</text>
</a>
</g>
<g id="a_node4_24"><a xlink:href="../../biom/HairColorCode/#diagram" xlink:title="A hair color shown in an image of a person&#39;s face" target="_top">
<polygon fill="#ebebeb" stroke="transparent" points="725.5,-96.5 725.5,-111.5 1008.5,-111.5 1008.5,-96.5 725.5,-96.5"/>
<text text-anchor="start" x="726.5" y="-100.9" font-family="Helvetica,sans-Serif" font-size="12.00" fill="#000000">biom:HairColorCode: biom:HairColorCodeType</text>
</a>
</g>
<g id="a_node4_25"><a xlink:href="../../j/PersonHairColorCode/#diagram" xlink:title="A code set identifying a hair color of a person." target="_top">
<text text-anchor="start" x="726.5" y="-85.9" font-family="Helvetica,sans-Serif" font-size="12.00" fill="#000000">j:PersonHairColorCode: j:PersonHairColorCodeType</text>
</a>
</g>
<g id="a_node4_26"><a xlink:href="../../nc/PersonHairColorText/#diagram" xlink:title="A color of the hair of a person." target="_top">
<polygon fill="#ebebeb" stroke="transparent" points="725.5,-66.5 725.5,-81.5 1008.5,-81.5 1008.5,-66.5 725.5,-66.5"/>
<text text-anchor="start" x="726.5" y="-70.9" font-family="Helvetica,sans-Serif" font-size="12.00" fill="#000000">nc:PersonHairColorText: nc:TextType</text>
</a>
</g>
<polygon fill="#000000" stroke="#000000" points="724.5,-111.5 724.5,-111.5 1009.5,-111.5 1009.5,-111.5 724.5,-111.5"/>
<polygon fill="none" stroke="#000000" points="724,-65.5 724,-127.5 1009,-127.5 1009,-65.5 724,-65.5"/>
</g>
<!-- m:MerchantMarinerDocumentType&#45;&gt;subst_d17e18905 -->
<g id="edge3" class="edge">
<title>m:MerchantMarinerDocumentType:e&#45;&gt;subst_d17e18905:w</title>
<path fill="none" stroke="#000000" d="M649.3098,-139.0056C680.1606,-135.9258 689.7406,-119.5 725.5,-119.5"/>
<polygon fill="#000000" stroke="#000000" points="648.8208,-135.5249 639,-139.5 649.1562,-142.5169 648.8208,-135.5249"/>
</g>
<!-- subst_d17e19599 -->
<g id="node5" class="node">
<title>subst_d17e19599</title>
<g id="a_node5_27"><a xlink:href="../../nc/PersonSexAbstract/#diagram" xlink:title="&lt;TABLE&gt;" target="_top">
<text text-anchor="start" x="746.5" y="-35.9" font-family="Helvetica,sans-Serif" font-weight="bold" font-size="12.00" fill="#000000">Substitution group nc:PersonSexAbstract</text>
</a>
</g>
<g id="a_node5_28"><a xlink:href="../../j/PersonSexCode/#diagram" xlink:title="A code set identifying a gender or sex of a person." target="_top">
<polygon fill="#ebebeb" stroke="transparent" points="745.5,-15.5 745.5,-30.5 987.5,-30.5 987.5,-15.5 745.5,-15.5"/>
<text text-anchor="start" x="746.5" y="-19.9" font-family="Helvetica,sans-Serif" font-size="12.00" fill="#000000">j:PersonSexCode: j:PersonSexCodeType</text>
</a>
</g>
<g id="a_node5_29"><a xlink:href="../../nc/PersonSexText/#diagram" xlink:title="A gender or sex of a person." target="_top">
<text text-anchor="start" x="746.5" y="-4.9" font-family="Helvetica,sans-Serif" font-size="12.00" fill="#000000">nc:PersonSexText: nc:TextType</text>
</a>
</g>
<polygon fill="#000000" stroke="#000000" points="744.5,-30.5 744.5,-30.5 988.5,-30.5 988.5,-30.5 744.5,-30.5"/>
<polygon fill="none" stroke="#000000" points="744.5,0 744.5,-47 988.5,-47 988.5,0 744.5,0"/>
</g>
<!-- m:MerchantMarinerDocumentType&#45;&gt;subst_d17e19599 -->
<g id="edge4" class="edge">
<title>m:MerchantMarinerDocumentType:e&#45;&gt;subst_d17e19599:w</title>
<path fill="none" stroke="#000000" d="M649.0897,-78.065C661.3172,-74.1284 664.9842,-63.0194 681,-56.5 708.5657,-45.279 715.738,-38.5 745.5,-38.5"/>
<polygon fill="#000000" stroke="#000000" points="648.4075,-74.6268 639,-79.5 649.3932,-81.557 648.4075,-74.6268"/>
</g>
<!-- Properties -->
<g id="node6" class="node">
<title>Properties</title>
<text text-anchor="start" x="2.5" y="-287.9" font-family="Helvetica,sans-Serif" font-weight="bold" font-size="12.00" fill="#000000">Properties</text>
<g id="a_node6_30"><a xlink:href="../../m/MerchantMarinerDocument/#diagram" xlink:title="A Merchant Mariner Document (MMD) issued to a merchant mariner." target="_top">
<polygon fill="#ebebeb" stroke="transparent" points="1.5,-267.5 1.5,-282.5 162.5,-282.5 162.5,-267.5 1.5,-267.5"/>
<text text-anchor="start" x="2.5" y="-271.9" font-family="Helvetica,sans-Serif" font-size="12.00" fill="#000000">m:MerchantMarinerDocument</text>
</a>
</g>
<polygon fill="#000000" stroke="#000000" points=".5,-282.5 .5,-282.5 163.5,-282.5 163.5,-282.5 .5,-282.5"/>
<polygon fill="none" stroke="#000000" points="0,-266.5 0,-298.5 163,-298.5 163,-266.5 0,-266.5"/>
</g>
<!-- Properties&#45;&gt;m:MerchantMarinerDocumentType -->
<g id="edge5" class="edge">
<title>Properties:top&#45;&gt;m:MerchantMarinerDocumentType:top</title>
<path fill="none" stroke="#000000" d="M162.5,-290.5C187.4714,-290.5 196.1284,-290.5 216.8937,-290.5"/>
<polygon fill="#000000" stroke="#000000" points="217,-294.0001 227,-290.5 217,-287.0001 217,-294.0001"/>
<text text-anchor="middle" x="192.5" y="-293.9" font-family="Helvetica,sans-Serif" font-size="12.00" fill="#000000">type</text>
</g>
<!-- structures:ObjectType -->
<g id="node7" class="node">
<title>structures:ObjectType</title>
<g id="a_node7_31"><a xlink:href="../../structures/ObjectType/#diagram" xlink:title="A data type for a thing with its own lifespan that has some existence." target="_top">
<text text-anchor="start" x="374" y="-343.9" font-family="Helvetica,sans-Serif" font-size="12.00" fill="#000000">structures:ObjectType</text>
</a>
</g>
<polygon fill="none" stroke="#000000" points="372,-339 372,-356 494,-356 494,-339 372,-339"/>
</g>
<!-- structures:ObjectType&#45;&gt;m:MerchantMarinerDocumentType -->
<g id="edge6" class="edge">
<title>structures:ObjectType&#45;&gt;m:MerchantMarinerDocumentType</title>
<path fill="none" stroke="#000000" d="M433,-338.7927C433,-332.7983 433,-324.0358 433,-313.5436"/>
<polygon fill="#000000" stroke="#000000" points="436.5001,-313.4513 433,-303.4513 429.5001,-313.4514 436.5001,-313.4513"/>
<text text-anchor="middle" x="423.5" y="-317.9" font-family="Helvetica,sans-Serif" font-size="12.00" fill="#000000">extension</text>
</g>
</g>
</svg>
