<?xml version="1.0" encoding="UTF-8" standalone="no"?>
<!DOCTYPE svg PUBLIC "-//W3C//DTD SVG 1.1//EN"
 "http://www.w3.org/Graphics/SVG/1.1/DTD/svg11.dtd">
<!-- Generated by graphviz version 2.40.1 (20161225.0304)
 -->
<!-- Title: graphic Pages: 1 -->
<svg width="665pt" height="45pt"
 viewBox="0.00 0.00 665.00 45.00" xmlns="http://www.w3.org/2000/svg" xmlns:xlink="http://www.w3.org/1999/xlink">
<g id="graph0" class="graph" transform="scale(1 1) rotate(0) translate(4 41)">
<title>graphic</title>
<polygon fill="#ffffff" stroke="transparent" points="-4,4 -4,-41 661,-41 661,4 -4,4"/>
<!-- j:SupervisionAssessmentExclusionaryFactorText -->
<g id="node1" class="node">
<title>j:SupervisionAssessmentExclusionaryFactorText</title>
<text text-anchor="start" x="238.5" y="-21.4" font-family="Helvetica,sans-Serif" font-weight="bold" font-size="12.00" fill="#000000">j:SupervisionAssessmentExclusionaryFactorText</text>
<polygon fill="none" stroke="#ff0000" stroke-width="5" points="234.5,-14 234.5,-34 524.5,-34 524.5,-14 234.5,-14"/>
</g>
<!-- nc:TextType -->
<g id="node3" class="node">
<title>nc:TextType</title>
<g id="a_node3_0"><a xlink:href="../../nc/TextType/#diagram" xlink:title="A data type for a character string." target="_top">
<text text-anchor="start" x="588.5" y="-20.4" font-family="Helvetica,sans-Serif" font-size="12.00" fill="#000000">nc:TextType</text>
</a>
</g>
<polygon fill="none" stroke="#000000" points="586,-15.5 586,-32.5 657,-32.5 657,-15.5 586,-15.5"/>
</g>
<!-- j:SupervisionAssessmentExclusionaryFactorText&#45;&gt;nc:TextType -->
<g id="edge2" class="edge">
<title>j:SupervisionAssessmentExclusionaryFactorText&#45;&gt;nc:TextType</title>
<path fill="none" stroke="#000000" d="M527.2435,-24C544.4955,-24 560.984,-24 575.2091,-24"/>
<polygon fill="#000000" stroke="#000000" points="575.6212,-27.5001 585.6211,-24 575.6211,-20.5001 575.6212,-27.5001"/>
<text text-anchor="middle" x="556.5" y="-27.4" font-family="Helvetica,sans-Serif" font-size="12.00" fill="#000000">type</text>
</g>
<!-- Types -->
<g id="node2" class="node">
<title>Types</title>
<text text-anchor="start" x="2.5" y="-21.4" font-family="Helvetica,sans-Serif" font-weight="bold" font-size="12.00" fill="#000000">Types</text>
<g id="a_node2_1"><a xlink:href="../../j/SupervisionAssessmentType/#diagram" xlink:title="A data type for a set of details about a subject&#39;s supervision assessment." target="_top">
<polygon fill="#ebebeb" stroke="transparent" points="1.5,-1 1.5,-16 164.5,-16 164.5,-1 1.5,-1"/>
<text text-anchor="start" x="2.5" y="-5.4" font-family="Helvetica,sans-Serif" font-size="12.00" fill="#000000">j:SupervisionAssessmentType</text>
</a>
</g>
<polygon fill="#000000" stroke="#000000" points=".5,-16 .5,-16 165.5,-16 165.5,-16 .5,-16"/>
<polygon fill="none" stroke="#000000" points="0,0 0,-32 165,-32 165,0 0,0"/>
</g>
<!-- Types&#45;&gt;j:SupervisionAssessmentExclusionaryFactorText -->
<g id="edge1" class="edge">
<title>Types:top&#45;&gt;j:SupervisionAssessmentExclusionaryFactorText</title>
<path fill="none" stroke="#000000" d="M164.5,-24C183.0152,-24 202.4273,-24 221.6936,-24"/>
<polygon fill="#000000" stroke="#000000" points="221.7498,-27.5001 231.7498,-24 221.7497,-20.5001 221.7498,-27.5001"/>
<text text-anchor="middle" x="198.5" y="-27.4" font-family="Helvetica,sans-Serif" font-size="12.00" fill="#000000">has&#45;a</text>
</g>
</g>
</svg>
