<?xml version="1.0" encoding="UTF-8" standalone="no"?>
<!DOCTYPE svg PUBLIC "-//W3C//DTD SVG 1.1//EN"
 "http://www.w3.org/Graphics/SVG/1.1/DTD/svg11.dtd">
<!-- Generated by graphviz version 2.40.1 (20161225.0304)
 -->
<!-- Title: graphic Pages: 1 -->
<svg width="866pt" height="45pt"
 viewBox="0.00 0.00 866.00 45.00" xmlns="http://www.w3.org/2000/svg" xmlns:xlink="http://www.w3.org/1999/xlink">
<g id="graph0" class="graph" transform="scale(1 1) rotate(0) translate(4 41)">
<title>graphic</title>
<polygon fill="#ffffff" stroke="transparent" points="-4,4 -4,-41 862,-41 862,4 -4,4"/>
<!-- mo:UnitCommandOrSupportRelationshipCommandingUnit -->
<g id="node1" class="node">
<title>mo:UnitCommandOrSupportRelationshipCommandingUnit</title>
<text text-anchor="start" x="384" y="-21.4" font-family="Helvetica,sans-Serif" font-weight="bold" font-size="12.00" fill="#000000">mo:UnitCommandOrSupportRelationshipCommandingUnit</text>
<polygon fill="none" stroke="#ff0000" stroke-width="5" points="380.5,-14 380.5,-34 723.5,-34 723.5,-14 380.5,-14"/>
</g>
<!-- mo:UnitType -->
<g id="node3" class="node">
<title>mo:UnitType</title>
<g id="a_node3_0"><a xlink:href="../../mo/UnitType/#diagram" xlink:title="A data type for a military element whose structure is prescribed by competent authority." target="_top">
<text text-anchor="start" x="787.5" y="-20.4" font-family="Helvetica,sans-Serif" font-size="12.00" fill="#000000">mo:UnitType</text>
</a>
</g>
<polygon fill="none" stroke="#000000" points="785,-15.5 785,-32.5 858,-32.5 858,-15.5 785,-15.5"/>
</g>
<!-- mo:UnitCommandOrSupportRelationshipCommandingUnit&#45;&gt;mo:UnitType -->
<g id="edge2" class="edge">
<title>mo:UnitCommandOrSupportRelationshipCommandingUnit&#45;&gt;mo:UnitType</title>
<path fill="none" stroke="#000000" d="M726.1051,-24C743.5797,-24 760.0864,-24 774.301,-24"/>
<polygon fill="#000000" stroke="#000000" points="774.7023,-27.5001 784.7022,-24 774.7022,-20.5001 774.7023,-27.5001"/>
<text text-anchor="middle" x="755.5" y="-27.4" font-family="Helvetica,sans-Serif" font-size="12.00" fill="#000000">type</text>
</g>
<!-- Types -->
<g id="node2" class="node">
<title>Types</title>
<text text-anchor="start" x="2.5" y="-21.4" font-family="Helvetica,sans-Serif" font-weight="bold" font-size="12.00" fill="#000000">Types</text>
<g id="a_node2_1"><a xlink:href="../../mo/UnitCommandOrSupportRelationshipAssociationType/#diagram" xlink:title="A data type for a relationship that describes a command or support relationship between two units." target="_top">
<polygon fill="#ebebeb" stroke="transparent" points="1.5,-1 1.5,-16 310.5,-16 310.5,-1 1.5,-1"/>
<text text-anchor="start" x="2.5" y="-5.4" font-family="Helvetica,sans-Serif" font-size="12.00" fill="#000000">mo:UnitCommandOrSupportRelationshipAssociationType</text>
</a>
</g>
<polygon fill="#000000" stroke="#000000" points=".5,-16 .5,-16 311.5,-16 311.5,-16 .5,-16"/>
<polygon fill="none" stroke="#000000" points="0,0 0,-32 311,-32 311,0 0,0"/>
</g>
<!-- Types&#45;&gt;mo:UnitCommandOrSupportRelationshipCommandingUnit -->
<g id="edge1" class="edge">
<title>Types:top&#45;&gt;mo:UnitCommandOrSupportRelationshipCommandingUnit</title>
<path fill="none" stroke="#000000" d="M310.5,-24C329.0658,-24 348.4345,-24 367.7728,-24"/>
<polygon fill="#000000" stroke="#000000" points="367.8784,-27.5001 377.8783,-24 367.8783,-20.5001 367.8784,-27.5001"/>
<text text-anchor="middle" x="344.5" y="-27.4" font-family="Helvetica,sans-Serif" font-size="12.00" fill="#000000">has&#45;a</text>
</g>
</g>
</svg>
