<?xml version="1.0" encoding="UTF-8" standalone="no"?>
<!DOCTYPE svg PUBLIC "-//W3C//DTD SVG 1.1//EN"
 "http://www.w3.org/Graphics/SVG/1.1/DTD/svg11.dtd">
<!-- Generated by graphviz version 2.40.1 (20161225.0304)
 -->
<!-- Title: graphic Pages: 1 -->
<svg width="680pt" height="45pt"
 viewBox="0.00 0.00 680.00 45.00" xmlns="http://www.w3.org/2000/svg" xmlns:xlink="http://www.w3.org/1999/xlink">
<g id="graph0" class="graph" transform="scale(1 1) rotate(0) translate(4 41)">
<title>graphic</title>
<polygon fill="#ffffff" stroke="transparent" points="-4,4 -4,-41 676,-41 676,4 -4,4"/>
<!-- j:DriverLicenseWaiverExemptEffectiveDate -->
<g id="node1" class="node">
<title>j:DriverLicenseWaiverExemptEffectiveDate</title>
<text text-anchor="start" x="288" y="-21.4" font-family="Helvetica,sans-Serif" font-weight="bold" font-size="12.00" fill="#000000">j:DriverLicenseWaiverExemptEffectiveDate</text>
<polygon fill="none" stroke="#ff0000" stroke-width="5" points="284.5,-14 284.5,-34 537.5,-34 537.5,-14 284.5,-14"/>
</g>
<!-- nc:DateType -->
<g id="node3" class="node">
<title>nc:DateType</title>
<g id="a_node3_0"><a xlink:href="../../nc/DateType/#diagram" xlink:title="A data type for a calendar date." target="_top">
<text text-anchor="start" x="601.5" y="-20.4" font-family="Helvetica,sans-Serif" font-size="12.00" fill="#000000">nc:DateType</text>
</a>
</g>
<polygon fill="none" stroke="#000000" points="599,-15.5 599,-32.5 672,-32.5 672,-15.5 599,-15.5"/>
</g>
<!-- j:DriverLicenseWaiverExemptEffectiveDate&#45;&gt;nc:DateType -->
<g id="edge2" class="edge">
<title>j:DriverLicenseWaiverExemptEffectiveDate&#45;&gt;nc:DateType</title>
<path fill="none" stroke="#000000" d="M540.2918,-24C557.547,-24 574.2522,-24 588.7248,-24"/>
<polygon fill="#000000" stroke="#000000" points="588.8445,-27.5001 598.8444,-24 588.8444,-20.5001 588.8445,-27.5001"/>
<text text-anchor="middle" x="569.5" y="-27.4" font-family="Helvetica,sans-Serif" font-size="12.00" fill="#000000">type</text>
</g>
<!-- Types -->
<g id="node2" class="node">
<title>Types</title>
<text text-anchor="start" x="2.5" y="-21.4" font-family="Helvetica,sans-Serif" font-weight="bold" font-size="12.00" fill="#000000">Types</text>
<g id="a_node2_1"><a xlink:href="../../j/DriverLicenseMedicalCertificationType/#diagram" xlink:title="A data type for a medical certification associated with a driver license." target="_top">
<polygon fill="#ebebeb" stroke="transparent" points="1.5,-1 1.5,-16 214.5,-16 214.5,-1 1.5,-1"/>
<text text-anchor="start" x="2.5" y="-5.4" font-family="Helvetica,sans-Serif" font-size="12.00" fill="#000000">j:DriverLicenseMedicalCertificationType</text>
</a>
</g>
<polygon fill="#000000" stroke="#000000" points=".5,-16 .5,-16 215.5,-16 215.5,-16 .5,-16"/>
<polygon fill="none" stroke="#000000" points="0,0 0,-32 215,-32 215,0 0,0"/>
</g>
<!-- Types&#45;&gt;j:DriverLicenseWaiverExemptEffectiveDate -->
<g id="edge1" class="edge">
<title>Types:top&#45;&gt;j:DriverLicenseWaiverExemptEffectiveDate</title>
<path fill="none" stroke="#000000" d="M214.5,-24C233.0198,-24 252.5215,-24 271.7557,-24"/>
<polygon fill="#000000" stroke="#000000" points="271.783,-27.5001 281.783,-24 271.783,-20.5001 271.783,-27.5001"/>
<text text-anchor="middle" x="248.5" y="-27.4" font-family="Helvetica,sans-Serif" font-size="12.00" fill="#000000">has&#45;a</text>
</g>
</g>
</svg>
