<?xml version="1.0" encoding="UTF-8" standalone="no"?>
<!DOCTYPE svg PUBLIC "-//W3C//DTD SVG 1.1//EN"
 "http://www.w3.org/Graphics/SVG/1.1/DTD/svg11.dtd">
<!-- Generated by graphviz version 2.40.1 (20161225.0304)
 -->
<!-- Title: graphic Pages: 1 -->
<svg width="833pt" height="299pt"
 viewBox="0.00 0.00 833.00 299.00" xmlns="http://www.w3.org/2000/svg" xmlns:xlink="http://www.w3.org/1999/xlink">
<g id="graph0" class="graph" transform="scale(1 1) rotate(0) translate(4 295)">
<title>graphic</title>
<polygon fill="#ffffff" stroke="transparent" points="-4,4 -4,-295 829,-295 829,4 -4,4"/>
<!-- hs:TraffickingEventType -->
<g id="node1" class="node">
<title>hs:TraffickingEventType</title>
<text text-anchor="start" x="172.5" y="-170.9" font-family="Helvetica,sans-Serif" font-weight="bold" font-size="12.00" fill="#000000">hs:TraffickingEventType</text>
<g id="a_node1_0"><a xlink:href="../../hs/CurrentExploitationIndustryAbstract/#diagram" xlink:title="A data concept for an industry in which a victim of human trafficking is currently being exploited." target="_top">
<polygon fill="#ebebeb" stroke="transparent" points="171.5,-150.5 171.5,-165.5 406.5,-165.5 406.5,-150.5 171.5,-150.5"/>
<text text-anchor="start" x="172.5" y="-154.9" font-family="Helvetica,sans-Serif" font-size="12.00" fill="#000000">hs:CurrentExploitationIndustryAbstract [0&#45;n]</text>
</a>
</g>
<g id="a_node1_1"><a xlink:href="../../hs/CurrentTraffickedVenueAbstract/#diagram" xlink:title="A data concept for a venue or kind of facility where a victim of human trafficking is currently being trafficked." target="_top">
<text text-anchor="start" x="172.5" y="-139.9" font-family="Helvetica,sans-Serif" font-size="12.00" fill="#000000">hs:CurrentTraffickedVenueAbstract [0&#45;n]</text>
</a>
</g>
<g id="a_node1_2"><a xlink:href="../../hs/PastExploitationIndustryAbstract/#diagram" xlink:title="A data concept for an industry in which a victim of human trafficking was being exploited in the past." target="_top">
<polygon fill="#ebebeb" stroke="transparent" points="171.5,-120.5 171.5,-135.5 406.5,-135.5 406.5,-120.5 171.5,-120.5"/>
<text text-anchor="start" x="172.5" y="-124.9" font-family="Helvetica,sans-Serif" font-size="12.00" fill="#000000">hs:PastExploitationIndustryAbstract [0&#45;n]</text>
</a>
</g>
<g id="a_node1_3"><a xlink:href="../../hs/PastTraffickedVenueAbstract/#diagram" xlink:title="A data concept for a venue or kind of facility where a victim of human trafficking was trafficked in the past." target="_top">
<text text-anchor="start" x="172.5" y="-109.9" font-family="Helvetica,sans-Serif" font-size="12.00" fill="#000000">hs:PastTraffickedVenueAbstract [0&#45;n]</text>
</a>
</g>
<g id="a_node1_4"><a xlink:href="../../hs/TraffickingEventAugmentationPoint/#diagram" xlink:title="An augmentation point for TraffickingEventType." target="_top">
<polygon fill="#ebebeb" stroke="transparent" points="171.5,-90.5 171.5,-105.5 406.5,-105.5 406.5,-90.5 171.5,-90.5"/>
<text text-anchor="start" x="172.5" y="-94.9" font-family="Helvetica,sans-Serif" font-size="12.00" fill="#000000">hs:TraffickingEventAugmentationPoint [0&#45;n]</text>
</a>
</g>
<polygon fill="#ff0000" stroke="#ff0000" points="166.5,-165.5 166.5,-165.5 411.5,-165.5 411.5,-165.5 166.5,-165.5"/>
<polygon fill="none" stroke="#ff0000" stroke-width="5" points="168.5,-88 168.5,-183 408.5,-183 408.5,-88 168.5,-88"/>
</g>
<!-- subst_d9e15546 -->
<g id="node2" class="node">
<title>subst_d9e15546</title>
<g id="a_node2_5"><a xlink:href="../../hs/CurrentExploitationIndustryAbstract/#diagram" xlink:title="&lt;TABLE&gt;" target="_top">
<text text-anchor="start" x="450.5" y="-230.9" font-family="Helvetica,sans-Serif" font-weight="bold" font-size="12.00" fill="#000000">Substitution group hs:CurrentExploitationIndustryAbstract</text>
</a>
</g>
<g id="a_node2_6"><a xlink:href="../../hs/CurrentExploitationIndustryCode/#diagram" xlink:title="An industry in which a victim of human trafficking is currently being exploited." target="_top">
<polygon fill="#ebebeb" stroke="transparent" points="449.5,-210.5 449.5,-225.5 824.5,-225.5 824.5,-210.5 449.5,-210.5"/>
<text text-anchor="start" x="450.5" y="-214.9" font-family="Helvetica,sans-Serif" font-size="12.00" fill="#000000">hs:CurrentExploitationIndustryCode: hs:ExploitationIndustryCodeType</text>
</a>
</g>
<g id="a_node2_7"><a xlink:href="../../hs/CurrentExploitationIndustryText/#diagram" xlink:title="An industry in which a victim of human trafficking is currently being exploited." target="_top">
<text text-anchor="start" x="450.5" y="-199.9" font-family="Helvetica,sans-Serif" font-size="12.00" fill="#000000">hs:CurrentExploitationIndustryText: nc:TextType</text>
</a>
</g>
<polygon fill="#000000" stroke="#000000" points="448.5,-225.5 448.5,-225.5 825.5,-225.5 825.5,-225.5 448.5,-225.5"/>
<polygon fill="none" stroke="#000000" points="448,-195 448,-242 825,-242 825,-195 448,-195"/>
</g>
<!-- hs:TraffickingEventType&#45;&gt;subst_d9e15546 -->
<g id="edge1" class="edge">
<title>hs:TraffickingEventType:e&#45;&gt;subst_d9e15546:w</title>
<path fill="none" stroke="#000000" d="M416.4152,-160.8268C438.5877,-173.486 415.1292,-233.5 449.5,-233.5"/>
<polygon fill="#000000" stroke="#000000" points="417.0352,-157.3773 406.5,-158.5 415.4359,-164.1922 417.0352,-157.3773"/>
</g>
<!-- subst_d9e15595 -->
<g id="node3" class="node">
<title>subst_d9e15595</title>
<g id="a_node3_8"><a xlink:href="../../hs/CurrentTraffickedVenueAbstract/#diagram" xlink:title="&lt;TABLE&gt;" target="_top">
<text text-anchor="start" x="467.5" y="-165.9" font-family="Helvetica,sans-Serif" font-weight="bold" font-size="12.00" fill="#000000">Substitution group hs:CurrentTraffickedVenueAbstract</text>
</a>
</g>
<g id="a_node3_9"><a xlink:href="../../hs/CurrentTraffickedVenueCode/#diagram" xlink:title="A venue or kind of facility where a victim of human trafficking is currently being trafficked." target="_top">
<polygon fill="#ebebeb" stroke="transparent" points="466.5,-145.5 466.5,-160.5 806.5,-160.5 806.5,-145.5 466.5,-145.5"/>
<text text-anchor="start" x="467.5" y="-149.9" font-family="Helvetica,sans-Serif" font-size="12.00" fill="#000000">hs:CurrentTraffickedVenueCode: hs:TraffickedVenueCodeType</text>
</a>
</g>
<g id="a_node3_10"><a xlink:href="../../hs/CurrentTraffickedVenueText/#diagram" xlink:title="A venue or kind of facility where a victim of human trafficking is currently being trafficked." target="_top">
<text text-anchor="start" x="467.5" y="-134.9" font-family="Helvetica,sans-Serif" font-size="12.00" fill="#000000">hs:CurrentTraffickedVenueText: nc:TextType</text>
</a>
</g>
<polygon fill="#000000" stroke="#000000" points="465.5,-160.5 465.5,-160.5 807.5,-160.5 807.5,-160.5 465.5,-160.5"/>
<polygon fill="none" stroke="#000000" points="465.5,-130 465.5,-177 807.5,-177 807.5,-130 465.5,-130"/>
</g>
<!-- hs:TraffickingEventType&#45;&gt;subst_d9e15595 -->
<g id="edge2" class="edge">
<title>hs:TraffickingEventType:e&#45;&gt;subst_d9e15595:w</title>
<path fill="none" stroke="#000000" d="M416.4568,-144.6392C436.4049,-149.5299 441.3351,-168.5 466.5,-168.5"/>
<polygon fill="#000000" stroke="#000000" points="416.8331,-141.1595 406.5,-143.5 416.0373,-148.1141 416.8331,-141.1595"/>
</g>
<!-- subst_d9e18013 -->
<g id="node4" class="node">
<title>subst_d9e18013</title>
<g id="a_node4_11"><a xlink:href="../../hs/PastExploitationIndustryAbstract/#diagram" xlink:title="&lt;TABLE&gt;" target="_top">
<text text-anchor="start" x="458.5" y="-100.9" font-family="Helvetica,sans-Serif" font-weight="bold" font-size="12.00" fill="#000000">Substitution group hs:PastExploitationIndustryAbstract</text>
</a>
</g>
<g id="a_node4_12"><a xlink:href="../../hs/PastExploitationIndustryCode/#diagram" xlink:title="An industry in which a victim of human trafficking was being exploited in the past." target="_top">
<polygon fill="#ebebeb" stroke="transparent" points="457.5,-80.5 457.5,-95.5 816.5,-95.5 816.5,-80.5 457.5,-80.5"/>
<text text-anchor="start" x="458.5" y="-84.9" font-family="Helvetica,sans-Serif" font-size="12.00" fill="#000000">hs:PastExploitationIndustryCode: hs:ExploitationIndustryCodeType</text>
</a>
</g>
<g id="a_node4_13"><a xlink:href="../../hs/PastExploitationIndustryText/#diagram" xlink:title="An industry in which a victim of human trafficking was being exploited in the past." target="_top">
<text text-anchor="start" x="458.5" y="-69.9" font-family="Helvetica,sans-Serif" font-size="12.00" fill="#000000">hs:PastExploitationIndustryText: nc:TextType</text>
</a>
</g>
<polygon fill="#000000" stroke="#000000" points="456.5,-95.5 456.5,-95.5 817.5,-95.5 817.5,-95.5 456.5,-95.5"/>
<polygon fill="none" stroke="#000000" points="456,-65 456,-112 817,-112 817,-65 456,-65"/>
</g>
<!-- hs:TraffickingEventType&#45;&gt;subst_d9e18013 -->
<g id="edge3" class="edge">
<title>hs:TraffickingEventType:e&#45;&gt;subst_d9e18013:w</title>
<path fill="none" stroke="#000000" d="M416.6579,-125.9253C432.4213,-120.5859 436.3632,-103.5 457.5,-103.5"/>
<polygon fill="#000000" stroke="#000000" points="415.8458,-122.5093 406.5,-127.5 416.9182,-129.4267 415.8458,-122.5093"/>
</g>
<!-- subst_d9e18037 -->
<g id="node5" class="node">
<title>subst_d9e18037</title>
<g id="a_node5_14"><a xlink:href="../../hs/PastTraffickedVenueAbstract/#diagram" xlink:title="&lt;TABLE&gt;" target="_top">
<text text-anchor="start" x="475.5" y="-35.9" font-family="Helvetica,sans-Serif" font-weight="bold" font-size="12.00" fill="#000000">Substitution group hs:PastTraffickedVenueAbstract</text>
</a>
</g>
<g id="a_node5_15"><a xlink:href="../../hs/PastTraffickedVenueCode/#diagram" xlink:title="A venue or kind of facility where a victim of human trafficking was trafficked in the past." target="_top">
<polygon fill="#ebebeb" stroke="transparent" points="474.5,-15.5 474.5,-30.5 798.5,-30.5 798.5,-15.5 474.5,-15.5"/>
<text text-anchor="start" x="475.5" y="-19.9" font-family="Helvetica,sans-Serif" font-size="12.00" fill="#000000">hs:PastTraffickedVenueCode: hs:TraffickedVenueCodeType</text>
</a>
</g>
<g id="a_node5_16"><a xlink:href="../../hs/PastTraffickedVenueText/#diagram" xlink:title="A venue or kind of facility where a victim of human trafficking was trafficked in the past." target="_top">
<text text-anchor="start" x="475.5" y="-4.9" font-family="Helvetica,sans-Serif" font-size="12.00" fill="#000000">hs:PastTraffickedVenueText: nc:TextType</text>
</a>
</g>
<polygon fill="#000000" stroke="#000000" points="473.5,-30.5 473.5,-30.5 799.5,-30.5 799.5,-30.5 473.5,-30.5"/>
<polygon fill="none" stroke="#000000" points="473.5,0 473.5,-47 799.5,-47 799.5,0 473.5,0"/>
</g>
<!-- hs:TraffickingEventType&#45;&gt;subst_d9e18037 -->
<g id="edge4" class="edge">
<title>hs:TraffickingEventType:e&#45;&gt;subst_d9e18037:w</title>
<path fill="none" stroke="#000000" d="M416.8447,-110.7372C435.1047,-103.3163 428.2269,-74.1409 448,-55.5 458.1817,-45.9013 460.5071,-38.5 474.5,-38.5"/>
<polygon fill="#000000" stroke="#000000" points="415.7699,-107.3698 406.5,-112.5 416.9459,-114.2703 415.7699,-107.3698"/>
</g>
<!-- Properties -->
<g id="node6" class="node">
<title>Properties</title>
<text text-anchor="start" x="2.5" y="-170.9" font-family="Helvetica,sans-Serif" font-weight="bold" font-size="12.00" fill="#000000">Properties</text>
<g id="a_node6_17"><a xlink:href="../../hs/TraffickingEvent/#diagram" xlink:title="A data concept for details of a human trafficking event." target="_top">
<polygon fill="#ebebeb" stroke="transparent" points="1.5,-150.5 1.5,-165.5 106.5,-165.5 106.5,-150.5 1.5,-150.5"/>
<text text-anchor="start" x="2.5" y="-154.9" font-family="Helvetica,sans-Serif" font-size="12.00" fill="#000000">hs:TraffickingEvent</text>
</a>
</g>
<polygon fill="#000000" stroke="#000000" points=".5,-165.5 .5,-165.5 107.5,-165.5 107.5,-165.5 .5,-165.5"/>
<polygon fill="none" stroke="#000000" points="0,-149.5 0,-181.5 107,-181.5 107,-149.5 0,-149.5"/>
</g>
<!-- Properties&#45;&gt;hs:TraffickingEventType -->
<g id="edge5" class="edge">
<title>Properties:top&#45;&gt;hs:TraffickingEventType:top</title>
<path fill="none" stroke="#000000" d="M106.5,-173.5C131.6649,-173.5 140.3891,-173.5 161.3154,-173.5"/>
<polygon fill="#000000" stroke="#000000" points="161.5,-177.0001 171.5,-173.5 161.5,-170.0001 161.5,-177.0001"/>
<text text-anchor="middle" x="136.5" y="-176.9" font-family="Helvetica,sans-Serif" font-size="12.00" fill="#000000">type</text>
</g>
<!-- nc:ActivityType -->
<g id="node7" class="node">
<title>nc:ActivityType</title>
<g id="a_node7_18"><a xlink:href="../../nc/ActivityType/#diagram" xlink:title="A data type for a single or set of related actions, events, or process steps." target="_top">
<text text-anchor="start" x="248.5" y="-225.9" font-family="Helvetica,sans-Serif" font-size="12.00" fill="#000000">nc:ActivityType</text>
</a>
</g>
<polygon fill="none" stroke="#000000" points="246,-221 246,-238 331,-238 331,-221 246,-221"/>
</g>
<!-- nc:ActivityType&#45;&gt;hs:TraffickingEventType -->
<g id="edge6" class="edge">
<title>nc:ActivityType&#45;&gt;hs:TraffickingEventType</title>
<path fill="none" stroke="#000000" d="M288.5,-220.875C288.5,-214.6263 288.5,-205.5624 288.5,-195.65"/>
<polygon fill="#000000" stroke="#000000" points="292.0001,-195.5274 288.5,-185.5274 285.0001,-195.5275 292.0001,-195.5274"/>
<text text-anchor="middle" x="279" y="-200.15" font-family="Helvetica,sans-Serif" font-size="12.00" fill="#000000">extension</text>
</g>
<!-- structures:ObjectType -->
<g id="node8" class="node">
<title>structures:ObjectType</title>
<g id="a_node8_19"><a xlink:href="../../structures/ObjectType/#diagram" xlink:title="A data type for a thing with its own lifespan that has some existence." target="_top">
<text text-anchor="start" x="229.5" y="-278.9" font-family="Helvetica,sans-Serif" font-size="12.00" fill="#000000">structures:ObjectType</text>
</a>
</g>
<polygon fill="none" stroke="#000000" points="227.5,-274 227.5,-291 349.5,-291 349.5,-274 227.5,-274"/>
</g>
<!-- structures:ObjectType&#45;&gt;nc:ActivityType -->
<g id="edge7" class="edge">
<title>structures:ObjectType&#45;&gt;nc:ActivityType</title>
<path fill="none" stroke="#000000" d="M288.5,-273.911C288.5,-267.0124 288.5,-257.0696 288.5,-248.34"/>
<polygon fill="#000000" stroke="#000000" points="292.0001,-248.2518 288.5,-238.2519 285.0001,-248.2519 292.0001,-248.2518"/>
<text text-anchor="middle" x="279" y="-252.9" font-family="Helvetica,sans-Serif" font-size="12.00" fill="#000000">extension</text>
</g>
</g>
</svg>
