<?xml version="1.0" encoding="UTF-8" standalone="no"?>
<!DOCTYPE svg PUBLIC "-//W3C//DTD SVG 1.1//EN"
 "http://www.w3.org/Graphics/SVG/1.1/DTD/svg11.dtd">
<!-- Generated by graphviz version 2.40.1 (20161225.0304)
 -->
<!-- Title: graphic Pages: 1 -->
<svg width="524pt" height="45pt"
 viewBox="0.00 0.00 524.00 45.00" xmlns="http://www.w3.org/2000/svg" xmlns:xlink="http://www.w3.org/1999/xlink">
<g id="graph0" class="graph" transform="scale(1 1) rotate(0) translate(4 41)">
<title>graphic</title>
<polygon fill="#ffffff" stroke="transparent" points="-4,4 -4,-41 520,-41 520,4 -4,4"/>
<!-- biom:MedicalDevice -->
<g id="node1" class="node">
<title>biom:MedicalDevice</title>
<text text-anchor="start" x="238" y="-21.4" font-family="Helvetica,sans-Serif" font-weight="bold" font-size="12.00" fill="#000000">biom:MedicalDevice</text>
<polygon fill="none" stroke="#ff0000" stroke-width="5" points="234.5,-14 234.5,-34 357.5,-34 357.5,-14 234.5,-14"/>
</g>
<!-- biom:DeviceType -->
<g id="node3" class="node">
<title>biom:DeviceType</title>
<g id="a_node3_0"><a xlink:href="../../biom/DeviceType/#diagram" xlink:title="A data type definition contains a set of information regarding the captured device information" target="_top">
<text text-anchor="start" x="421.5" y="-20.4" font-family="Helvetica,sans-Serif" font-size="12.00" fill="#000000">biom:DeviceType</text>
</a>
</g>
<polygon fill="none" stroke="#000000" points="419,-15.5 419,-32.5 516,-32.5 516,-15.5 419,-15.5"/>
</g>
<!-- biom:MedicalDevice&#45;&gt;biom:DeviceType -->
<g id="edge2" class="edge">
<title>biom:MedicalDevice&#45;&gt;biom:DeviceType</title>
<path fill="none" stroke="#000000" d="M360.3482,-24C376.2536,-24 393.2086,-24 408.8278,-24"/>
<polygon fill="#000000" stroke="#000000" points="408.8746,-27.5001 418.8746,-24 408.8745,-20.5001 408.8746,-27.5001"/>
<text text-anchor="middle" x="389.5" y="-27.4" font-family="Helvetica,sans-Serif" font-size="12.00" fill="#000000">type</text>
</g>
<!-- Types -->
<g id="node2" class="node">
<title>Types</title>
<text text-anchor="start" x="2.5" y="-21.4" font-family="Helvetica,sans-Serif" font-weight="bold" font-size="12.00" fill="#000000">Types</text>
<g id="a_node2_1"><a xlink:href="../../biom/ContextMediaDetailType/#diagram" xlink:title="A data type for the details of a biometric context media file" target="_top">
<polygon fill="#ebebeb" stroke="transparent" points="1.5,-1 1.5,-16 164.5,-16 164.5,-1 1.5,-1"/>
<text text-anchor="start" x="2.5" y="-5.4" font-family="Helvetica,sans-Serif" font-size="12.00" fill="#000000">biom:ContextMediaDetailType</text>
</a>
</g>
<polygon fill="#000000" stroke="#000000" points=".5,-16 .5,-16 165.5,-16 165.5,-16 .5,-16"/>
<polygon fill="none" stroke="#000000" points="0,0 0,-32 165,-32 165,0 0,0"/>
</g>
<!-- Types&#45;&gt;biom:MedicalDevice -->
<g id="edge1" class="edge">
<title>Types:top&#45;&gt;biom:MedicalDevice</title>
<path fill="none" stroke="#000000" d="M164.5,-24C182.9922,-24 202.9471,-24 221.5879,-24"/>
<polygon fill="#000000" stroke="#000000" points="221.791,-27.5001 231.791,-24 221.791,-20.5001 221.791,-27.5001"/>
<text text-anchor="middle" x="198.5" y="-27.4" font-family="Helvetica,sans-Serif" font-size="12.00" fill="#000000">has&#45;a</text>
</g>
</g>
</svg>
