<?xml version="1.0" encoding="UTF-8" standalone="no"?>
<!DOCTYPE svg PUBLIC "-//W3C//DTD SVG 1.1//EN"
 "http://www.w3.org/Graphics/SVG/1.1/DTD/svg11.dtd">
<!-- Generated by graphviz version 2.40.1 (20161225.0304)
 -->
<!-- Title: graphic Pages: 1 -->
<svg width="592pt" height="184pt"
 viewBox="0.00 0.00 592.00 183.50" xmlns="http://www.w3.org/2000/svg" xmlns:xlink="http://www.w3.org/1999/xlink">
<g id="graph0" class="graph" transform="scale(1 1) rotate(0) translate(4 179.5)">
<title>graphic</title>
<polygon fill="#ffffff" stroke="transparent" points="-4,4 -4,-179.5 588,-179.5 588,4 -4,4"/>
<!-- j:ApprenticeshipType -->
<g id="node1" class="node">
<title>j:ApprenticeshipType</title>
<text text-anchor="start" x="155.5" y="-55.4" font-family="Helvetica,sans-Serif" font-weight="bold" font-size="12.00" fill="#000000">j:ApprenticeshipType</text>
<g id="a_node1_0"><a xlink:href="../../j/ApprenticeshipTerm/#diagram" xlink:title="A period of scheduled skills training." target="_top">
<polygon fill="#ebebeb" stroke="transparent" points="154.5,-35 154.5,-50 579.5,-50 579.5,-35 154.5,-35"/>
<text text-anchor="start" x="155.5" y="-39.4" font-family="Helvetica,sans-Serif" font-size="12.00" fill="#000000">j:ApprenticeshipTerm: j:ApprenticeshipTermType [0&#45;n]</text>
</a>
</g>
<g id="a_node1_1"><a xlink:href="../../j/ApprenticeshipTrainingHoursCompletedInTermNumeric/#diagram" xlink:title="A number of hours of training completed in the term." target="_top">
<text text-anchor="start" x="155.5" y="-24.4" font-family="Helvetica,sans-Serif" font-size="12.00" fill="#000000">j:ApprenticeshipTrainingHoursCompletedInTermNumeric: nc:NumericType [0&#45;n]</text>
</a>
</g>
<g id="a_node1_2"><a xlink:href="../../j/ApprenticeshipAugmentationPoint/#diagram" xlink:title="An augmentation point for type j:ApprenticeshipType" target="_top">
<polygon fill="#ebebeb" stroke="transparent" points="154.5,-5 154.5,-20 579.5,-20 579.5,-5 154.5,-5"/>
<text text-anchor="start" x="155.5" y="-9.4" font-family="Helvetica,sans-Serif" font-size="12.00" fill="#000000">j:ApprenticeshipAugmentationPoint [0&#45;n]</text>
</a>
</g>
<polygon fill="#ff0000" stroke="#ff0000" points="149.5,-50 149.5,-50 584.5,-50 584.5,-50 149.5,-50"/>
<polygon fill="none" stroke="#ff0000" stroke-width="5" points="151.5,-2.5 151.5,-67.5 581.5,-67.5 581.5,-2.5 151.5,-2.5"/>
</g>
<!-- Properties -->
<g id="node2" class="node">
<title>Properties</title>
<text text-anchor="start" x="2" y="-55.4" font-family="Helvetica,sans-Serif" font-weight="bold" font-size="12.00" fill="#000000">Properties</text>
<g id="a_node2_3"><a xlink:href="../../j/Apprenticeship/#diagram" xlink:title="A program for skills on&#45;the&#45;job skills training." target="_top">
<polygon fill="#ebebeb" stroke="transparent" points="1,-35 1,-50 89,-50 89,-35 1,-35"/>
<text text-anchor="start" x="2" y="-39.4" font-family="Helvetica,sans-Serif" font-size="12.00" fill="#000000">j:Apprenticeship</text>
</a>
</g>
<polygon fill="#000000" stroke="#000000" points="0,-50 0,-50 90,-50 90,-50 0,-50"/>
<polygon fill="none" stroke="#000000" points="0,-34 0,-66 90,-66 90,-34 0,-34"/>
</g>
<!-- Properties&#45;&gt;j:ApprenticeshipType -->
<g id="edge1" class="edge">
<title>Properties:top&#45;&gt;j:ApprenticeshipType:top</title>
<path fill="none" stroke="#000000" d="M89,-58C114.3585,-58 123.1498,-58 144.2371,-58"/>
<polygon fill="#000000" stroke="#000000" points="144.5,-61.5001 154.5,-58 144.5,-54.5001 144.5,-61.5001"/>
<text text-anchor="middle" x="119.5" y="-61.4" font-family="Helvetica,sans-Serif" font-size="12.00" fill="#000000">type</text>
</g>
<!-- nc:ActivityType -->
<g id="node3" class="node">
<title>nc:ActivityType</title>
<g id="a_node3_4"><a xlink:href="../../nc/ActivityType/#diagram" xlink:title="A data type for a single or set of related actions, events, or process steps." target="_top">
<text text-anchor="start" x="326.5" y="-110.4" font-family="Helvetica,sans-Serif" font-size="12.00" fill="#000000">nc:ActivityType</text>
</a>
</g>
<polygon fill="none" stroke="#000000" points="324,-105.5 324,-122.5 409,-122.5 409,-105.5 324,-105.5"/>
</g>
<!-- nc:ActivityType&#45;&gt;j:ApprenticeshipType -->
<g id="edge2" class="edge">
<title>nc:ActivityType&#45;&gt;j:ApprenticeshipType</title>
<path fill="none" stroke="#000000" d="M366.5,-105.4117C366.5,-99.1025 366.5,-89.9911 366.5,-80.4049"/>
<polygon fill="#000000" stroke="#000000" points="370.0001,-80.3408 366.5,-70.3408 363.0001,-80.3409 370.0001,-80.3408"/>
<text text-anchor="middle" x="357" y="-84.65" font-family="Helvetica,sans-Serif" font-size="12.00" fill="#000000">extension</text>
</g>
<!-- structures:ObjectType -->
<g id="node4" class="node">
<title>structures:ObjectType</title>
<g id="a_node4_5"><a xlink:href="../../structures/ObjectType/#diagram" xlink:title="A data type for a thing with its own lifespan that has some existence." target="_top">
<text text-anchor="start" x="307.5" y="-163.4" font-family="Helvetica,sans-Serif" font-size="12.00" fill="#000000">structures:ObjectType</text>
</a>
</g>
<polygon fill="none" stroke="#000000" points="305.5,-158.5 305.5,-175.5 427.5,-175.5 427.5,-158.5 305.5,-158.5"/>
</g>
<!-- structures:ObjectType&#45;&gt;nc:ActivityType -->
<g id="edge3" class="edge">
<title>structures:ObjectType&#45;&gt;nc:ActivityType</title>
<path fill="none" stroke="#000000" d="M366.5,-158.411C366.5,-151.5124 366.5,-141.5696 366.5,-132.84"/>
<polygon fill="#000000" stroke="#000000" points="370.0001,-132.7518 366.5,-122.7519 363.0001,-132.7519 370.0001,-132.7518"/>
<text text-anchor="middle" x="357" y="-137.4" font-family="Helvetica,sans-Serif" font-size="12.00" fill="#000000">extension</text>
</g>
</g>
</svg>
