<?xml version="1.0" encoding="UTF-8" standalone="no"?>
<!DOCTYPE svg PUBLIC "-//W3C//DTD SVG 1.1//EN"
 "http://www.w3.org/Graphics/SVG/1.1/DTD/svg11.dtd">
<!-- Generated by graphviz version 2.40.1 (20161225.0304)
 -->
<!-- Title: graphic Pages: 1 -->
<svg width="458pt" height="154pt"
 viewBox="0.00 0.00 458.00 153.50" xmlns="http://www.w3.org/2000/svg" xmlns:xlink="http://www.w3.org/1999/xlink">
<g id="graph0" class="graph" transform="scale(1 1) rotate(0) translate(4 149.5)">
<title>graphic</title>
<polygon fill="#ffffff" stroke="transparent" points="-4,4 -4,-149.5 454,-149.5 454,4 -4,4"/>
<!-- biom:PersonImageCategoryCodeType -->
<g id="node1" class="node">
<title>biom:PersonImageCategoryCodeType</title>
<text text-anchor="start" x="218" y="-25.4" font-family="Helvetica,sans-Serif" font-weight="bold" font-size="12.00" fill="#000000">biom:PersonImageCategoryCodeType</text>
<g id="a_node1_0"><a xlink:href="../../structures/SimpleObjectAttributeGroup/#diagram" xlink:title="A group of attributes that are applicable to objects, to be used when defining a complex type that is an extension of a simple type." target="_top">
<polygon fill="#ebebeb" stroke="transparent" points="217,-5 217,-20 438,-20 438,-5 217,-5"/>
<text text-anchor="start" x="218" y="-9.4" font-family="Helvetica,sans-Serif" font-size="12.00" fill="#000000">structures:SimpleObjectAttributeGroup</text>
</a>
</g>
<polygon fill="#ff0000" stroke="#ff0000" points="212,-20 212,-20 443,-20 443,-20 212,-20"/>
<polygon fill="none" stroke="#ff0000" stroke-width="5" points="214,-2.5 214,-37.5 440,-37.5 440,-2.5 214,-2.5"/>
</g>
<!-- Properties -->
<g id="node2" class="node">
<title>Properties</title>
<text text-anchor="start" x="2.5" y="-25.4" font-family="Helvetica,sans-Serif" font-weight="bold" font-size="12.00" fill="#000000">Properties</text>
<g id="a_node2_1"><a xlink:href="../../biom/ImageCategoryCode/#diagram" xlink:title="A kind of image of a person" target="_top">
<polygon fill="#ebebeb" stroke="transparent" points="1.5,-5 1.5,-20 144.5,-20 144.5,-5 1.5,-5"/>
<text text-anchor="start" x="2.5" y="-9.4" font-family="Helvetica,sans-Serif" font-size="12.00" fill="#000000">biom:ImageCategoryCode</text>
</a>
</g>
<polygon fill="#000000" stroke="#000000" points=".5,-20 .5,-20 145.5,-20 145.5,-20 .5,-20"/>
<polygon fill="none" stroke="#000000" points="0,-4 0,-36 145,-36 145,-4 0,-4"/>
</g>
<!-- Properties&#45;&gt;biom:PersonImageCategoryCodeType -->
<g id="edge1" class="edge">
<title>Properties:top&#45;&gt;biom:PersonImageCategoryCodeType:top</title>
<path fill="none" stroke="#000000" d="M144.5,-28C173.072,-28 182.6426,-28 206.9096,-28"/>
<polygon fill="#000000" stroke="#000000" points="207,-31.5001 217,-28 207,-24.5001 207,-31.5001"/>
<text text-anchor="middle" x="174.5" y="-31.4" font-family="Helvetica,sans-Serif" font-size="12.00" fill="#000000">type</text>
</g>
<!-- biom:PersonImageCategoryCodeSimpleType -->
<g id="node3" class="node">
<title>biom:PersonImageCategoryCodeSimpleType</title>
<g id="a_node3_2"><a xlink:href="../../biom/PersonImageCategoryCodeSimpleType/#diagram" xlink:title="A data type for a kind of image of a person" target="_top">
<text text-anchor="start" x="206" y="-80.4" font-family="Helvetica,sans-Serif" font-size="12.00" fill="#000000">biom:PersonImageCategoryCodeSimpleType</text>
</a>
</g>
<polygon fill="none" stroke="#000000" points="204,-75.5 204,-92.5 450,-92.5 450,-75.5 204,-75.5"/>
</g>
<!-- biom:PersonImageCategoryCodeSimpleType&#45;&gt;biom:PersonImageCategoryCodeType -->
<g id="edge2" class="edge">
<title>biom:PersonImageCategoryCodeSimpleType&#45;&gt;biom:PersonImageCategoryCodeType</title>
<path fill="none" stroke="#000000" d="M327,-75.4351C327,-68.931 327,-59.5678 327,-50.3827"/>
<polygon fill="#000000" stroke="#000000" points="330.5001,-50.25 327,-40.25 323.5001,-50.25 330.5001,-50.25"/>
<text text-anchor="middle" x="317.5" y="-54.65" font-family="Helvetica,sans-Serif" font-size="12.00" fill="#000000">extension</text>
</g>
<!-- xs:token -->
<g id="node4" class="node">
<title>xs:token</title>
<g id="a_node4_3"><a xlink:href="../../xs/token/#diagram" xlink:title="&lt;TABLE&gt;" target="_top">
<text text-anchor="start" x="305" y="-133.4" font-family="Helvetica,sans-Serif" font-size="12.00" fill="#000000">xs:token</text>
</a>
</g>
<polygon fill="none" stroke="#000000" points="302.5,-128.5 302.5,-145.5 351.5,-145.5 351.5,-128.5 302.5,-128.5"/>
</g>
<!-- xs:token&#45;&gt;biom:PersonImageCategoryCodeSimpleType -->
<g id="edge3" class="edge">
<title>xs:token&#45;&gt;biom:PersonImageCategoryCodeSimpleType</title>
<path fill="none" stroke="#000000" d="M327,-128.411C327,-121.5124 327,-111.5696 327,-102.84"/>
<polygon fill="#000000" stroke="#000000" points="330.5001,-102.7518 327,-92.7519 323.5001,-102.7519 330.5001,-102.7518"/>
<text text-anchor="middle" x="317.5" y="-107.4" font-family="Helvetica,sans-Serif" font-size="12.00" fill="#000000">restriction</text>
</g>
</g>
</svg>
