<?xml version="1.0" encoding="UTF-8" standalone="no"?>
<!DOCTYPE svg PUBLIC "-//W3C//DTD SVG 1.1//EN"
 "http://www.w3.org/Graphics/SVG/1.1/DTD/svg11.dtd">
<!-- Generated by graphviz version 2.40.1 (20161225.0304)
 -->
<!-- Title: graphic Pages: 1 -->
<svg width="984pt" height="291pt"
 viewBox="0.00 0.00 984.00 290.50" xmlns="http://www.w3.org/2000/svg" xmlns:xlink="http://www.w3.org/1999/xlink">
<g id="graph0" class="graph" transform="scale(1 1) rotate(0) translate(4 286.5)">
<title>graphic</title>
<polygon fill="#ffffff" stroke="transparent" points="-4,4 -4,-286.5 980,-286.5 980,4 -4,4"/>
<!-- j:CrashVehicleOccupantType -->
<g id="node1" class="node">
<title>j:CrashVehicleOccupantType</title>
<text text-anchor="start" x="198" y="-214.4" font-family="Helvetica,sans-Serif" font-weight="bold" font-size="12.00" fill="#000000">j:CrashVehicleOccupantType</text>
<g id="a_node1_0"><a xlink:href="../../nc/RoleOfPerson/#diagram" xlink:title="A person of whom the role object is a function." target="_top">
<polygon fill="#ebebeb" stroke="transparent" points="197,-194 197,-209 457,-209 457,-194 197,-194"/>
<text text-anchor="start" x="198" y="-198.4" font-family="Helvetica,sans-Serif" font-size="12.00" fill="#000000">nc:RoleOfPerson: nc:PersonType [0&#45;n]</text>
</a>
</g>
<g id="a_node1_1"><a xlink:href="../../j/OccupantAirBagDeployedAbstract/#diagram" xlink:title="A data concept for a deployment status of an air bag relative to the position in the vehicle for this occupant." target="_top">
<text text-anchor="start" x="198" y="-183.4" font-family="Helvetica,sans-Serif" font-size="12.00" fill="#000000">j:OccupantAirBagDeployedAbstract [0&#45;n]</text>
</a>
</g>
<g id="a_node1_2"><a xlink:href="../../j/OccupantEjectionAbstract/#diagram" xlink:title="A data concept for an occupant completely or partially thrown from the interior of the motor vehicle, excluding motorcycles, as a result of a crash." target="_top">
<polygon fill="#ebebeb" stroke="transparent" points="197,-164 197,-179 457,-179 457,-164 197,-164"/>
<text text-anchor="start" x="198" y="-168.4" font-family="Helvetica,sans-Serif" font-size="12.00" fill="#000000">j:OccupantEjectionAbstract [0&#45;n]</text>
</a>
</g>
<g id="a_node1_3"><a xlink:href="../../j/OccupantProtectionSystemUseAbstract/#diagram" xlink:title="A data concept for a restraint equipment in use by the occupant, or the helmet use by a motorcyclist, at the time of the crash." target="_top">
<text text-anchor="start" x="198" y="-153.4" font-family="Helvetica,sans-Serif" font-size="12.00" fill="#000000">j:OccupantProtectionSystemUseAbstract [0&#45;n]</text>
</a>
</g>
<g id="a_node1_4"><a xlink:href="../../j/OccupantSeatAbstract/#diagram" xlink:title="A data concept for an occupant&#39;s seat in the motor vehicle prior to the first event in the sequence of events." target="_top">
<polygon fill="#ebebeb" stroke="transparent" points="197,-134 197,-149 457,-149 457,-134 197,-134"/>
<text text-anchor="start" x="198" y="-138.4" font-family="Helvetica,sans-Serif" font-size="12.00" fill="#000000">j:OccupantSeatAbstract [0&#45;n]</text>
</a>
</g>
<g id="a_node1_5"><a xlink:href="../../j/OccupantSeatOtherLocationAbstract/#diagram" xlink:title="A data concept for a location of the vehicle occupant prior to the first event in the sequence of events." target="_top">
<text text-anchor="start" x="198" y="-123.4" font-family="Helvetica,sans-Serif" font-size="12.00" fill="#000000">j:OccupantSeatOtherLocationAbstract [0&#45;n]</text>
</a>
</g>
<g id="a_node1_6"><a xlink:href="../../j/OccupantSeatRowAbstract/#diagram" xlink:title="A data concept for an occupant&#39;s seat row in the motor vehicle prior to the first event in the sequence of events." target="_top">
<polygon fill="#ebebeb" stroke="transparent" points="197,-104 197,-119 457,-119 457,-104 197,-104"/>
<text text-anchor="start" x="198" y="-108.4" font-family="Helvetica,sans-Serif" font-size="12.00" fill="#000000">j:OccupantSeatRowAbstract [0&#45;n]</text>
</a>
</g>
<g id="a_node1_7"><a xlink:href="../../j/CrashVehicleOccupantAugmentationPoint/#diagram" xlink:title="An augmentation point for CrashVehicleOccupantType." target="_top">
<text text-anchor="start" x="198" y="-93.4" font-family="Helvetica,sans-Serif" font-size="12.00" fill="#000000">j:CrashVehicleOccupantAugmentationPoint [0&#45;n]</text>
</a>
</g>
<polygon fill="#ff0000" stroke="#ff0000" points="192,-209 192,-209 462,-209 462,-209 192,-209"/>
<polygon fill="none" stroke="#ff0000" stroke-width="5" points="194.5,-87 194.5,-227 459.5,-227 459.5,-87 194.5,-87"/>
</g>
<!-- subst_d9e36972 -->
<g id="node2" class="node">
<title>subst_d9e36972</title>
<g id="a_node2_8"><a xlink:href="../../j/OccupantAirBagDeployedAbstract/#diagram" xlink:title="&lt;TABLE&gt;" target="_top">
<text text-anchor="start" x="530.5" y="-271.4" font-family="Helvetica,sans-Serif" font-weight="bold" font-size="12.00" fill="#000000">Substitution group j:OccupantAirBagDeployedAbstract</text>
</a>
</g>
<g id="a_node2_9"><a xlink:href="../../j/OccupantAirBagDeployedCode/#diagram" xlink:title="A deployment status of an air bag relative to the position in the vehicle for this occupant." target="_top">
<polygon fill="#ebebeb" stroke="transparent" points="529.5,-251 529.5,-266 946.5,-266 946.5,-251 529.5,-251"/>
<text text-anchor="start" x="530.5" y="-255.4" font-family="Helvetica,sans-Serif" font-size="12.00" fill="#000000">j:OccupantAirBagDeployedCode: mmucc:OccupantAirBagDeployedCodeType</text>
</a>
</g>
<polygon fill="#000000" stroke="#000000" points="528.5,-266 528.5,-266 947.5,-266 947.5,-266 528.5,-266"/>
<polygon fill="none" stroke="#000000" points="528,-250 528,-282 947,-282 947,-250 528,-250"/>
</g>
<!-- j:CrashVehicleOccupantType&#45;&gt;subst_d9e36972 -->
<g id="edge1" class="edge">
<title>j:CrashVehicleOccupantType:e&#45;&gt;subst_d9e36972:w</title>
<path fill="none" stroke="#000000" d="M466.9739,-188.3666C503.5843,-199.4348 482.9029,-274 529.5,-274"/>
<polygon fill="#000000" stroke="#000000" points="467.3826,-184.8899 457,-187 466.4323,-191.8251 467.3826,-184.8899"/>
</g>
<!-- subst_d9e36989 -->
<g id="node3" class="node">
<title>subst_d9e36989</title>
<g id="a_node3_10"><a xlink:href="../../j/OccupantEjectionAbstract/#diagram" xlink:title="&lt;TABLE&gt;" target="_top">
<text text-anchor="start" x="574.5" y="-221.4" font-family="Helvetica,sans-Serif" font-weight="bold" font-size="12.00" fill="#000000">Substitution group j:OccupantEjectionAbstract</text>
</a>
</g>
<g id="a_node3_11"><a xlink:href="../../j/OccupantEjectionCode/#diagram" xlink:title="An occupant completely or partially thrown from the interior of the motor vehicle, excluding motorcycles, as a result of a crash." target="_top">
<polygon fill="#ebebeb" stroke="transparent" points="573.5,-201 573.5,-216 902.5,-216 902.5,-201 573.5,-201"/>
<text text-anchor="start" x="574.5" y="-205.4" font-family="Helvetica,sans-Serif" font-size="12.00" fill="#000000">j:OccupantEjectionCode: mmucc:OccupantEjectionCodeType</text>
</a>
</g>
<polygon fill="#000000" stroke="#000000" points="572.5,-216 572.5,-216 903.5,-216 903.5,-216 572.5,-216"/>
<polygon fill="none" stroke="#000000" points="572,-200 572,-232 903,-232 903,-200 572,-200"/>
</g>
<!-- j:CrashVehicleOccupantType&#45;&gt;subst_d9e36989 -->
<g id="edge2" class="edge">
<title>j:CrashVehicleOccupantType:e&#45;&gt;subst_d9e36989:w</title>
<path fill="none" stroke="#000000" d="M466.9161,-174.518C477.9293,-178.9322 492.0607,-187.8935 499,-191 532.0533,-205.7966 537.286,-224 573.5,-224"/>
<polygon fill="#000000" stroke="#000000" points="467.5538,-171.069 457,-172 465.8309,-177.8536 467.5538,-171.069"/>
</g>
<!-- subst_d9e37005 -->
<g id="node4" class="node">
<title>subst_d9e37005</title>
<g id="a_node4_12"><a xlink:href="../../j/OccupantProtectionSystemUseAbstract/#diagram" xlink:title="&lt;TABLE&gt;" target="_top">
<text text-anchor="start" x="501.5" y="-171.4" font-family="Helvetica,sans-Serif" font-weight="bold" font-size="12.00" fill="#000000">Substitution group j:OccupantProtectionSystemUseAbstract</text>
</a>
</g>
<g id="a_node4_13"><a xlink:href="../../j/OccupantProtectionSystemUseCode/#diagram" xlink:title="A restraint equipment in use by the occupant, or the helmet use by a motorcyclist, at the time of the crash." target="_top">
<polygon fill="#ebebeb" stroke="transparent" points="500.5,-151 500.5,-166 975.5,-166 975.5,-151 500.5,-151"/>
<text text-anchor="start" x="501.5" y="-155.4" font-family="Helvetica,sans-Serif" font-size="12.00" fill="#000000">j:OccupantProtectionSystemUseCode: mmucc:OccupantProtectionSystemUseCodeType</text>
</a>
</g>
<polygon fill="#000000" stroke="#000000" points="499.5,-166 499.5,-166 976.5,-166 976.5,-166 499.5,-166"/>
<polygon fill="none" stroke="#000000" points="499,-150 499,-182 976,-182 976,-150 499,-150"/>
</g>
<!-- j:CrashVehicleOccupantType&#45;&gt;subst_d9e37005 -->
<g id="edge3" class="edge">
<title>j:CrashVehicleOccupantType:e&#45;&gt;subst_d9e37005:w</title>
<path fill="none" stroke="#000000" d="M466.991,-157.6611C479.2207,-162.1172 483.4999,-174 500.5,-174"/>
<polygon fill="#000000" stroke="#000000" points="467.4387,-154.1876 457,-156 466.2905,-161.0928 467.4387,-154.1876"/>
</g>
<!-- subst_d9e37021 -->
<g id="node5" class="node">
<title>subst_d9e37021</title>
<g id="a_node5_14"><a xlink:href="../../j/OccupantSeatAbstract/#diagram" xlink:title="&lt;TABLE&gt;" target="_top">
<text text-anchor="start" x="592.5" y="-121.4" font-family="Helvetica,sans-Serif" font-weight="bold" font-size="12.00" fill="#000000">Substitution group j:OccupantSeatAbstract</text>
</a>
</g>
<g id="a_node5_15"><a xlink:href="../../j/OccupantSeatCode/#diagram" xlink:title="An occupant&#39;s seat in the motor vehicle prior to the first event in the sequence of events." target="_top">
<polygon fill="#ebebeb" stroke="transparent" points="591.5,-101 591.5,-116 884.5,-116 884.5,-101 591.5,-101"/>
<text text-anchor="start" x="592.5" y="-105.4" font-family="Helvetica,sans-Serif" font-size="12.00" fill="#000000">j:OccupantSeatCode: mmucc:OccupantSeatCodeType</text>
</a>
</g>
<polygon fill="#000000" stroke="#000000" points="590.5,-116 590.5,-116 885.5,-116 885.5,-116 590.5,-116"/>
<polygon fill="none" stroke="#000000" points="590,-100 590,-132 885,-132 885,-100 590,-100"/>
</g>
<!-- j:CrashVehicleOccupantType&#45;&gt;subst_d9e37021 -->
<g id="edge4" class="edge">
<title>j:CrashVehicleOccupantType:e&#45;&gt;subst_d9e37021:w</title>
<path fill="none" stroke="#000000" d="M467.1336,-140.8317C519.052,-139.0662 534.7771,-124 591.5,-124"/>
<polygon fill="#000000" stroke="#000000" points="466.9405,-137.3344 457,-141 467.0568,-144.3334 466.9405,-137.3344"/>
</g>
<!-- subst_d9e37038 -->
<g id="node6" class="node">
<title>subst_d9e37038</title>
<g id="a_node6_16"><a xlink:href="../../j/OccupantSeatOtherLocationAbstract/#diagram" xlink:title="&lt;TABLE&gt;" target="_top">
<text text-anchor="start" x="516.5" y="-71.4" font-family="Helvetica,sans-Serif" font-weight="bold" font-size="12.00" fill="#000000">Substitution group j:OccupantSeatOtherLocationAbstract</text>
</a>
</g>
<g id="a_node6_17"><a xlink:href="../../j/OccupantSeatOtherLocationCode/#diagram" xlink:title="A location of the vehicle occupant prior to the first event in the sequence of events." target="_top">
<polygon fill="#ebebeb" stroke="transparent" points="515.5,-51 515.5,-66 959.5,-66 959.5,-51 515.5,-51"/>
<text text-anchor="start" x="516.5" y="-55.4" font-family="Helvetica,sans-Serif" font-size="12.00" fill="#000000">j:OccupantSeatOtherLocationCode: mmucc:OccupantSeatOtherLocationCodeType</text>
</a>
</g>
<polygon fill="#000000" stroke="#000000" points="514.5,-66 514.5,-66 960.5,-66 960.5,-66 514.5,-66"/>
<polygon fill="none" stroke="#000000" points="514.5,-50 514.5,-82 960.5,-82 960.5,-50 514.5,-50"/>
</g>
<!-- j:CrashVehicleOccupantType&#45;&gt;subst_d9e37038 -->
<g id="edge5" class="edge">
<title>j:CrashVehicleOccupantType:e&#45;&gt;subst_d9e37038:w</title>
<path fill="none" stroke="#000000" d="M466.8886,-124.2699C489.9131,-115.2471 484.518,-74 515.5,-74"/>
<polygon fill="#000000" stroke="#000000" points="466.2471,-120.8288 457,-126 467.4536,-127.7241 466.2471,-120.8288"/>
</g>
<!-- subst_d9e37054 -->
<g id="node7" class="node">
<title>subst_d9e37054</title>
<g id="a_node7_18"><a xlink:href="../../j/OccupantSeatRowAbstract/#diagram" xlink:title="&lt;TABLE&gt;" target="_top">
<text text-anchor="start" x="568.5" y="-21.4" font-family="Helvetica,sans-Serif" font-weight="bold" font-size="12.00" fill="#000000">Substitution group j:OccupantSeatRowAbstract</text>
</a>
</g>
<g id="a_node7_19"><a xlink:href="../../j/OccupantSeatRowCode/#diagram" xlink:title="An occupant&#39;s seat row in the motor vehicle prior to the first event in the sequence of events." target="_top">
<polygon fill="#ebebeb" stroke="transparent" points="567.5,-1 567.5,-16 908.5,-16 908.5,-1 567.5,-1"/>
<text text-anchor="start" x="568.5" y="-5.4" font-family="Helvetica,sans-Serif" font-size="12.00" fill="#000000">j:OccupantSeatRowCode: mmucc:OccupantSeatRowCodeType</text>
</a>
</g>
<polygon fill="#000000" stroke="#000000" points="566.5,-16 566.5,-16 909.5,-16 909.5,-16 566.5,-16"/>
<polygon fill="none" stroke="#000000" points="566,0 566,-32 909,-32 909,0 566,0"/>
</g>
<!-- j:CrashVehicleOccupantType&#45;&gt;subst_d9e37054 -->
<g id="edge6" class="edge">
<title>j:CrashVehicleOccupantType:e&#45;&gt;subst_d9e37054:w</title>
<path fill="none" stroke="#000000" d="M466.9081,-109.3606C488.781,-100.7281 473.0205,-60.2147 499,-41 524.2196,-22.3473 536.132,-24 567.5,-24"/>
<polygon fill="#000000" stroke="#000000" points="466.2945,-105.9144 457,-111 467.4372,-112.8205 466.2945,-105.9144"/>
</g>
<!-- Properties -->
<g id="node8" class="node">
<title>Properties</title>
<text text-anchor="start" x="2.5" y="-214.4" font-family="Helvetica,sans-Serif" font-weight="bold" font-size="12.00" fill="#000000">Properties</text>
<g id="a_node8_20"><a xlink:href="../../j/CrashVehicleOccupant/#diagram" xlink:title="A vehicle occupant involved in a traffic accident." target="_top">
<polygon fill="#ebebeb" stroke="transparent" points="1.5,-194 1.5,-209 132.5,-209 132.5,-194 1.5,-194"/>
<text text-anchor="start" x="2.5" y="-198.4" font-family="Helvetica,sans-Serif" font-size="12.00" fill="#000000">j:CrashVehicleOccupant</text>
</a>
</g>
<polygon fill="#000000" stroke="#000000" points=".5,-209 .5,-209 133.5,-209 133.5,-209 .5,-209"/>
<polygon fill="none" stroke="#000000" points="0,-193 0,-225 133,-225 133,-193 0,-193"/>
</g>
<!-- Properties&#45;&gt;j:CrashVehicleOccupantType -->
<g id="edge7" class="edge">
<title>Properties:top&#45;&gt;j:CrashVehicleOccupantType:top</title>
<path fill="none" stroke="#000000" d="M132.5,-217C157.4714,-217 166.1284,-217 186.8937,-217"/>
<polygon fill="#000000" stroke="#000000" points="187,-220.5001 197,-217 187,-213.5001 187,-220.5001"/>
<text text-anchor="middle" x="162.5" y="-220.4" font-family="Helvetica,sans-Serif" font-size="12.00" fill="#000000">type</text>
</g>
<!-- structures:ObjectType -->
<g id="node9" class="node">
<title>structures:ObjectType</title>
<g id="a_node9_21"><a xlink:href="../../structures/ObjectType/#diagram" xlink:title="A data type for a thing with its own lifespan that has some existence." target="_top">
<text text-anchor="start" x="268" y="-270.4" font-family="Helvetica,sans-Serif" font-size="12.00" fill="#000000">structures:ObjectType</text>
</a>
</g>
<polygon fill="none" stroke="#000000" points="266,-265.5 266,-282.5 388,-282.5 388,-265.5 266,-265.5"/>
</g>
<!-- structures:ObjectType&#45;&gt;j:CrashVehicleOccupantType -->
<g id="edge8" class="edge">
<title>structures:ObjectType&#45;&gt;j:CrashVehicleOccupantType</title>
<path fill="none" stroke="#000000" d="M327,-265.3462C327,-259.1576 327,-250.136 327,-239.9002"/>
<polygon fill="#000000" stroke="#000000" points="330.5001,-239.7673 327,-229.7673 323.5001,-239.7674 330.5001,-239.7673"/>
<text text-anchor="middle" x="317.5" y="-244.4" font-family="Helvetica,sans-Serif" font-size="12.00" fill="#000000">extension</text>
</g>
</g>
</svg>
