<?xml version="1.0" encoding="UTF-8" standalone="no"?>
<!DOCTYPE svg PUBLIC "-//W3C//DTD SVG 1.1//EN"
 "http://www.w3.org/Graphics/SVG/1.1/DTD/svg11.dtd">
<!-- Generated by graphviz version 2.40.1 (20161225.0304)
 -->
<!-- Title: graphic Pages: 1 -->
<svg width="708pt" height="86pt"
 viewBox="0.00 0.00 708.00 86.00" xmlns="http://www.w3.org/2000/svg" xmlns:xlink="http://www.w3.org/1999/xlink">
<g id="graph0" class="graph" transform="scale(1 1) rotate(0) translate(4 82)">
<title>graphic</title>
<polygon fill="#ffffff" stroke="transparent" points="-4,4 -4,-82 704,-82 704,4 -4,4"/>
<!-- em:AlertEventDetailsResponseRecommendationCode -->
<g id="node1" class="node">
<title>em:AlertEventDetailsResponseRecommendationCode</title>
<text text-anchor="start" x="6.5" y="-9.9" font-family="Helvetica,sans-Serif" font-weight="bold" font-size="12.00" fill="#000000">em:AlertEventDetailsResponseRecommendationCode</text>
<polygon fill="none" stroke="#ff0000" stroke-width="5" points="2.5,-2.5 2.5,-22.5 318.5,-22.5 318.5,-2.5 2.5,-2.5"/>
</g>
<!-- em:AlertEventDetailsResponseRecommendationCodeType -->
<g id="node3" class="node">
<title>em:AlertEventDetailsResponseRecommendationCodeType</title>
<g id="a_node3_0"><a xlink:href="../../em/AlertEventDetailsResponseRecommendationCodeType/#diagram" xlink:title="A data type for the response recommendation code designated to an alert event" target="_top">
<text text-anchor="start" x="382" y="-8.9" font-family="Helvetica,sans-Serif" font-size="12.00" fill="#000000">em:AlertEventDetailsResponseRecommendationCodeType</text>
</a>
</g>
<polygon fill="none" stroke="#000000" points="380,-4 380,-21 700,-21 700,-4 380,-4"/>
</g>
<!-- em:AlertEventDetailsResponseRecommendationCode&#45;&gt;em:AlertEventDetailsResponseRecommendationCodeType -->
<g id="edge2" class="edge">
<title>em:AlertEventDetailsResponseRecommendationCode&#45;&gt;em:AlertEventDetailsResponseRecommendationCodeType</title>
<path fill="none" stroke="#000000" d="M321.1671,-12.5C337.2385,-12.5 353.5949,-12.5 369.7605,-12.5"/>
<polygon fill="#000000" stroke="#000000" points="369.797,-16.0001 379.7969,-12.5 369.7969,-9.0001 369.797,-16.0001"/>
<text text-anchor="middle" x="350.5" y="-15.9" font-family="Helvetica,sans-Serif" font-size="12.00" fill="#000000">type</text>
</g>
<!-- SubstitutionGroup -->
<g id="node2" class="node">
<title>SubstitutionGroup</title>
<g id="a_node2_1"><a xlink:href="../../em/AlertEventDetailsResponseRecommendationAbstract/#diagram" xlink:title="A data concept for the type of action recommended for the target audience" target="_top">
<text text-anchor="start" x="8.5" y="-65.9" font-family="Helvetica,sans-Serif" font-size="12.00" fill="#000000">em:AlertEventDetailsResponseRecommendationAbstract</text>
</a>
</g>
<polygon fill="none" stroke="#000000" points="6,-61 6,-78 315,-78 315,-61 6,-61"/>
</g>
<!-- SubstitutionGroup&#45;&gt;em:AlertEventDetailsResponseRecommendationCode -->
<g id="edge1" class="edge">
<title>SubstitutionGroup&#45;&gt;em:AlertEventDetailsResponseRecommendationCode</title>
<path fill="none" stroke="#000000" d="M160.5,-50.9163C160.5,-42.4809 160.5,-32.7214 160.5,-25.1501"/>
<polygon fill="#000000" stroke="#000000" points="157.0001,-50.9472 160.5,-60.9473 164.0001,-50.9473 157.0001,-50.9472"/>
<text text-anchor="middle" x="151" y="-39.9" font-family="Helvetica,sans-Serif" font-size="12.00" fill="#000000">substitution group</text>
</g>
</g>
</svg>
