<?xml version="1.0" encoding="UTF-8" standalone="no"?>
<!DOCTYPE svg PUBLIC "-//W3C//DTD SVG 1.1//EN"
 "http://www.w3.org/Graphics/SVG/1.1/DTD/svg11.dtd">
<!-- Generated by graphviz version 2.40.1 (20161225.0304)
 -->
<!-- Title: graphic Pages: 1 -->
<svg width="833pt" height="117pt"
 viewBox="0.00 0.00 833.00 116.50" xmlns="http://www.w3.org/2000/svg" xmlns:xlink="http://www.w3.org/1999/xlink">
<g id="graph0" class="graph" transform="scale(1 1) rotate(0) translate(4 112.5)">
<title>graphic</title>
<polygon fill="#ffffff" stroke="transparent" points="-4,4 -4,-112.5 829,-112.5 829,4 -4,4"/>
<!-- hs:ChildSupportInsuranceCoverageOrderCategoryAbstract -->
<g id="node1" class="node">
<title>hs:ChildSupportInsuranceCoverageOrderCategoryAbstract</title>
<text text-anchor="start" x="403" y="-92.9" font-family="Helvetica,sans-Serif" font-weight="bold" font-size="12.00" fill="#000000">hs:ChildSupportInsuranceCoverageOrderCategoryAbstract</text>
<polygon fill="none" stroke="#ff0000" stroke-width="5" points="399,-85.5 399,-105.5 745,-105.5 745,-85.5 399,-85.5"/>
</g>
<!-- SubstitutableElements -->
<g id="node3" class="node">
<title>SubstitutableElements</title>
<text text-anchor="start" x="321" y="-35.9" font-family="Helvetica,sans-Serif" font-weight="bold" font-size="12.00" fill="#000000">Substitutable elements</text>
<g id="a_node3_0"><a xlink:href="../../hs/ChildSupportInsuranceCoverageOrderCode/#diagram" xlink:title="A list of the kind(s) of insurance coverage ordered in a child&#45;support&#45;enforcement case." target="_top">
<polygon fill="#ebebeb" stroke="transparent" points="320,-15.5 320,-30.5 824,-30.5 824,-15.5 320,-15.5"/>
<text text-anchor="start" x="321" y="-19.9" font-family="Helvetica,sans-Serif" font-size="12.00" fill="#000000">hs:ChildSupportInsuranceCoverageOrderCode: hs:ChildSupportInsuranceCoverageCodeType</text>
</a>
</g>
<g id="a_node3_1"><a xlink:href="../../hs/ChildSupportInsuranceCoverageOrderText/#diagram" xlink:title="A description of the kind(s) of insurance coverage ordered in a child&#45;support&#45;enforcement case." target="_top">
<text text-anchor="start" x="321" y="-4.9" font-family="Helvetica,sans-Serif" font-size="12.00" fill="#000000">hs:ChildSupportInsuranceCoverageOrderText: nc:TextType</text>
</a>
</g>
<polygon fill="#000000" stroke="#000000" points="319,-30.5 319,-30.5 825,-30.5 825,-30.5 319,-30.5"/>
<polygon fill="none" stroke="#000000" points="319,0 319,-47 825,-47 825,0 319,0"/>
</g>
<!-- hs:ChildSupportInsuranceCoverageOrderCategoryAbstract&#45;&gt;SubstitutableElements -->
<g id="edge2" class="edge">
<title>hs:ChildSupportInsuranceCoverageOrderCategoryAbstract&#45;&gt;SubstitutableElements</title>
<path fill="none" stroke="#000000" d="M572,-72.9771C572,-64.7398 572,-55.4022 572,-47.0755"/>
<polygon fill="#000000" stroke="#000000" points="568.5001,-72.9945 572,-82.9945 575.5001,-72.9946 568.5001,-72.9945"/>
<text text-anchor="middle" x="562.5" y="-61.9" font-family="Helvetica,sans-Serif" font-size="12.00" fill="#000000">substitutable for</text>
</g>
<!-- Types -->
<g id="node2" class="node">
<title>Types</title>
<text text-anchor="start" x="2" y="-92.9" font-family="Helvetica,sans-Serif" font-weight="bold" font-size="12.00" fill="#000000">Types</text>
<g id="a_node2_2"><a xlink:href="../../hs/ChildSupportInsuranceCoverageOrderType/#diagram" xlink:title="A data type for an applied augmentation for type nc:InsuranceType" target="_top">
<polygon fill="#ebebeb" stroke="transparent" points="1,-72.5 1,-87.5 251,-87.5 251,-72.5 1,-72.5"/>
<text text-anchor="start" x="2" y="-76.9" font-family="Helvetica,sans-Serif" font-size="12.00" fill="#000000">hs:ChildSupportInsuranceCoverageOrderType</text>
</a>
</g>
<polygon fill="#000000" stroke="#000000" points="0,-87.5 0,-87.5 252,-87.5 252,-87.5 0,-87.5"/>
<polygon fill="none" stroke="#000000" points="0,-71.5 0,-103.5 252,-103.5 252,-71.5 0,-71.5"/>
</g>
<!-- Types&#45;&gt;hs:ChildSupportInsuranceCoverageOrderCategoryAbstract -->
<g id="edge1" class="edge">
<title>Types:top&#45;&gt;hs:ChildSupportInsuranceCoverageOrderCategoryAbstract</title>
<path fill="none" stroke="#000000" d="M251,-95.5C294.78,-95.5 341.9188,-95.5 386.2321,-95.5"/>
<polygon fill="#000000" stroke="#000000" points="386.2353,-99.0001 396.2353,-95.5 386.2352,-92.0001 386.2353,-99.0001"/>
<text text-anchor="middle" x="285.5" y="-98.9" font-family="Helvetica,sans-Serif" font-size="12.00" fill="#000000">has&#45;a</text>
</g>
</g>
</svg>
