<?xml version="1.0" encoding="UTF-8" standalone="no"?>
<!DOCTYPE svg PUBLIC "-//W3C//DTD SVG 1.1//EN"
 "http://www.w3.org/Graphics/SVG/1.1/DTD/svg11.dtd">
<!-- Generated by graphviz version 2.40.1 (20161225.0304)
 -->
<!-- Title: graphic Pages: 1 -->
<svg width="540pt" height="154pt"
 viewBox="0.00 0.00 540.00 153.50" xmlns="http://www.w3.org/2000/svg" xmlns:xlink="http://www.w3.org/1999/xlink">
<g id="graph0" class="graph" transform="scale(1 1) rotate(0) translate(4 149.5)">
<title>graphic</title>
<polygon fill="#ffffff" stroke="transparent" points="-4,4 -4,-149.5 536,-149.5 536,4 -4,4"/>
<!-- ucr:IncidentExceptionalClearanceCodeType -->
<g id="node1" class="node">
<title>ucr:IncidentExceptionalClearanceCodeType</title>
<text text-anchor="start" x="268.5" y="-25.4" font-family="Helvetica,sans-Serif" font-weight="bold" font-size="12.00" fill="#000000">ucr:IncidentExceptionalClearanceCodeType</text>
<g id="a_node1_0"><a xlink:href="../../structures/SimpleObjectAttributeGroup/#diagram" xlink:title="A group of attributes that are applicable to objects, to be used when defining a complex type that is an extension of a simple type." target="_top">
<polygon fill="#ebebeb" stroke="transparent" points="267.5,-5 267.5,-20 521.5,-20 521.5,-5 267.5,-5"/>
<text text-anchor="start" x="268.5" y="-9.4" font-family="Helvetica,sans-Serif" font-size="12.00" fill="#000000">structures:SimpleObjectAttributeGroup</text>
</a>
</g>
<polygon fill="#ff0000" stroke="#ff0000" points="262.5,-20 262.5,-20 526.5,-20 526.5,-20 262.5,-20"/>
<polygon fill="none" stroke="#ff0000" stroke-width="5" points="265,-2.5 265,-37.5 524,-37.5 524,-2.5 265,-2.5"/>
</g>
<!-- Properties -->
<g id="node2" class="node">
<title>Properties</title>
<text text-anchor="start" x="2" y="-25.4" font-family="Helvetica,sans-Serif" font-weight="bold" font-size="12.00" fill="#000000">Properties</text>
<g id="a_node2_1"><a xlink:href="../../j/IncidentExceptionalClearanceCode/#diagram" xlink:title="A reason why an incident has been cleared exceptionally." target="_top">
<polygon fill="#ebebeb" stroke="transparent" points="1,-5 1,-20 197,-20 197,-5 1,-5"/>
<text text-anchor="start" x="2" y="-9.4" font-family="Helvetica,sans-Serif" font-size="12.00" fill="#000000">j:IncidentExceptionalClearanceCode</text>
</a>
</g>
<polygon fill="#000000" stroke="#000000" points="0,-20 0,-20 198,-20 198,-20 0,-20"/>
<polygon fill="none" stroke="#000000" points="0,-4 0,-36 198,-36 198,-4 0,-4"/>
</g>
<!-- Properties&#45;&gt;ucr:IncidentExceptionalClearanceCodeType -->
<g id="edge1" class="edge">
<title>Properties:top&#45;&gt;ucr:IncidentExceptionalClearanceCodeType:top</title>
<path fill="none" stroke="#000000" d="M197,-28C224.6615,-28 234.008,-28 257.3769,-28"/>
<polygon fill="#000000" stroke="#000000" points="257.5,-31.5001 267.5,-28 257.5,-24.5001 257.5,-31.5001"/>
<text text-anchor="middle" x="227.5" y="-31.4" font-family="Helvetica,sans-Serif" font-size="12.00" fill="#000000">type</text>
</g>
<!-- ucr:IncidentExceptionalClearanceCodeSimpleType -->
<g id="node3" class="node">
<title>ucr:IncidentExceptionalClearanceCodeSimpleType</title>
<g id="a_node3_2"><a xlink:href="../../ucr/IncidentExceptionalClearanceCodeSimpleType/#diagram" xlink:title="A data type for ways in which an incident may be cleared exceptionally." target="_top">
<text text-anchor="start" x="259.5" y="-80.4" font-family="Helvetica,sans-Serif" font-size="12.00" fill="#000000">ucr:IncidentExceptionalClearanceCodeSimpleType</text>
</a>
</g>
<polygon fill="none" stroke="#000000" points="257,-75.5 257,-92.5 532,-92.5 532,-75.5 257,-75.5"/>
</g>
<!-- ucr:IncidentExceptionalClearanceCodeSimpleType&#45;&gt;ucr:IncidentExceptionalClearanceCodeType -->
<g id="edge2" class="edge">
<title>ucr:IncidentExceptionalClearanceCodeSimpleType&#45;&gt;ucr:IncidentExceptionalClearanceCodeType</title>
<path fill="none" stroke="#000000" d="M394.5,-75.4351C394.5,-68.931 394.5,-59.5678 394.5,-50.3827"/>
<polygon fill="#000000" stroke="#000000" points="398.0001,-50.25 394.5,-40.25 391.0001,-50.25 398.0001,-50.25"/>
<text text-anchor="middle" x="385" y="-54.65" font-family="Helvetica,sans-Serif" font-size="12.00" fill="#000000">extension</text>
</g>
<!-- xs:token -->
<g id="node4" class="node">
<title>xs:token</title>
<g id="a_node4_3"><a xlink:href="../../xs/token/#diagram" xlink:title="&lt;TABLE&gt;" target="_top">
<text text-anchor="start" x="372.5" y="-133.4" font-family="Helvetica,sans-Serif" font-size="12.00" fill="#000000">xs:token</text>
</a>
</g>
<polygon fill="none" stroke="#000000" points="370,-128.5 370,-145.5 419,-145.5 419,-128.5 370,-128.5"/>
</g>
<!-- xs:token&#45;&gt;ucr:IncidentExceptionalClearanceCodeSimpleType -->
<g id="edge3" class="edge">
<title>xs:token&#45;&gt;ucr:IncidentExceptionalClearanceCodeSimpleType</title>
<path fill="none" stroke="#000000" d="M394.5,-128.411C394.5,-121.5124 394.5,-111.5696 394.5,-102.84"/>
<polygon fill="#000000" stroke="#000000" points="398.0001,-102.7518 394.5,-92.7519 391.0001,-102.7519 398.0001,-102.7518"/>
<text text-anchor="middle" x="385" y="-107.4" font-family="Helvetica,sans-Serif" font-size="12.00" fill="#000000">restriction</text>
</g>
</g>
</svg>
