<?xml version="1.0" encoding="UTF-8" standalone="no"?>
<!DOCTYPE svg PUBLIC "-//W3C//DTD SVG 1.1//EN"
 "http://www.w3.org/Graphics/SVG/1.1/DTD/svg11.dtd">
<!-- Generated by graphviz version 2.40.1 (20161225.0304)
 -->
<!-- Title: graphic Pages: 1 -->
<svg width="650pt" height="45pt"
 viewBox="0.00 0.00 650.00 45.00" xmlns="http://www.w3.org/2000/svg" xmlns:xlink="http://www.w3.org/1999/xlink">
<g id="graph0" class="graph" transform="scale(1 1) rotate(0) translate(4 41)">
<title>graphic</title>
<polygon fill="#ffffff" stroke="transparent" points="-4,4 -4,-41 646,-41 646,4 -4,4"/>
<!-- j:AppellateCaseNoticeProsecutingAgency -->
<g id="node1" class="node">
<title>j:AppellateCaseNoticeProsecutingAgency</title>
<text text-anchor="start" x="222" y="-21.4" font-family="Helvetica,sans-Serif" font-weight="bold" font-size="12.00" fill="#000000">j:AppellateCaseNoticeProsecutingAgency</text>
<polygon fill="none" stroke="#ff0000" stroke-width="5" points="218.5,-14 218.5,-34 465.5,-34 465.5,-14 218.5,-14"/>
</g>
<!-- nc:OrganizationType -->
<g id="node3" class="node">
<title>nc:OrganizationType</title>
<g id="a_node3_0"><a xlink:href="../../nc/OrganizationType/#diagram" xlink:title="A data type for a body of people organized for a particular purpose." target="_top">
<text text-anchor="start" x="529.5" y="-20.4" font-family="Helvetica,sans-Serif" font-size="12.00" fill="#000000">nc:OrganizationType</text>
</a>
</g>
<polygon fill="none" stroke="#000000" points="527,-15.5 527,-32.5 642,-32.5 642,-15.5 527,-15.5"/>
</g>
<!-- j:AppellateCaseNoticeProsecutingAgency&#45;&gt;nc:OrganizationType -->
<g id="edge2" class="edge">
<title>j:AppellateCaseNoticeProsecutingAgency&#45;&gt;nc:OrganizationType</title>
<path fill="none" stroke="#000000" d="M468.2219,-24C484.866,-24 501.3849,-24 516.5214,-24"/>
<polygon fill="#000000" stroke="#000000" points="516.7642,-27.5001 526.7642,-24 516.7641,-20.5001 516.7642,-27.5001"/>
<text text-anchor="middle" x="497.5" y="-27.4" font-family="Helvetica,sans-Serif" font-size="12.00" fill="#000000">type</text>
</g>
<!-- Types -->
<g id="node2" class="node">
<title>Types</title>
<text text-anchor="start" x="2.5" y="-21.4" font-family="Helvetica,sans-Serif" font-weight="bold" font-size="12.00" fill="#000000">Types</text>
<g id="a_node2_1"><a xlink:href="../../j/AppellateCaseNoticeType/#diagram" xlink:title="A data type for a request filed with an appellate court to start an appellate case." target="_top">
<polygon fill="#ebebeb" stroke="transparent" points="1.5,-1 1.5,-16 148.5,-16 148.5,-1 1.5,-1"/>
<text text-anchor="start" x="2.5" y="-5.4" font-family="Helvetica,sans-Serif" font-size="12.00" fill="#000000">j:AppellateCaseNoticeType</text>
</a>
</g>
<polygon fill="#000000" stroke="#000000" points=".5,-16 .5,-16 149.5,-16 149.5,-16 .5,-16"/>
<polygon fill="none" stroke="#000000" points="0,0 0,-32 149,-32 149,0 0,0"/>
</g>
<!-- Types&#45;&gt;j:AppellateCaseNoticeProsecutingAgency -->
<g id="edge1" class="edge">
<title>Types:top&#45;&gt;j:AppellateCaseNoticeProsecutingAgency</title>
<path fill="none" stroke="#000000" d="M148.5,-24C167.0231,-24 186.5437,-24 205.7727,-24"/>
<polygon fill="#000000" stroke="#000000" points="205.7949,-27.5001 215.7948,-24 205.7948,-20.5001 205.7949,-27.5001"/>
<text text-anchor="middle" x="182.5" y="-27.4" font-family="Helvetica,sans-Serif" font-size="12.00" fill="#000000">has&#45;a</text>
</g>
</g>
</svg>
