<?xml version="1.0" encoding="UTF-8" standalone="no"?>
<!DOCTYPE svg PUBLIC "-//W3C//DTD SVG 1.1//EN"
 "http://www.w3.org/Graphics/SVG/1.1/DTD/svg11.dtd">
<!-- Generated by graphviz version 2.40.1 (20161225.0304)
 -->
<!-- Title: graphic Pages: 1 -->
<svg width="436pt" height="45pt"
 viewBox="0.00 0.00 436.00 45.00" xmlns="http://www.w3.org/2000/svg" xmlns:xlink="http://www.w3.org/1999/xlink">
<g id="graph0" class="graph" transform="scale(1 1) rotate(0) translate(4 41)">
<title>graphic</title>
<polygon fill="#ffffff" stroke="transparent" points="-4,4 -4,-41 432,-41 432,4 -4,4"/>
<!-- nc:ActivityVerifiedDate -->
<g id="node1" class="node">
<title>nc:ActivityVerifiedDate</title>
<text text-anchor="start" x="158" y="-21.4" font-family="Helvetica,sans-Serif" font-weight="bold" font-size="12.00" fill="#000000">nc:ActivityVerifiedDate</text>
<polygon fill="none" stroke="#ff0000" stroke-width="5" points="154.5,-14 154.5,-34 293.5,-34 293.5,-14 154.5,-14"/>
</g>
<!-- nc:DateType -->
<g id="node3" class="node">
<title>nc:DateType</title>
<g id="a_node3_0"><a xlink:href="../../nc/DateType/#diagram" xlink:title="A data type for a calendar date." target="_top">
<text text-anchor="start" x="357.5" y="-20.4" font-family="Helvetica,sans-Serif" font-size="12.00" fill="#000000">nc:DateType</text>
</a>
</g>
<polygon fill="none" stroke="#000000" points="355,-15.5 355,-32.5 428,-32.5 428,-15.5 355,-15.5"/>
</g>
<!-- nc:ActivityVerifiedDate&#45;&gt;nc:DateType -->
<g id="edge2" class="edge">
<title>nc:ActivityVerifiedDate&#45;&gt;nc:DateType</title>
<path fill="none" stroke="#000000" d="M296.0072,-24C312.433,-24 329.4736,-24 344.5338,-24"/>
<polygon fill="#000000" stroke="#000000" points="344.6119,-27.5001 354.6119,-24 344.6118,-20.5001 344.6119,-27.5001"/>
<text text-anchor="middle" x="325.5" y="-27.4" font-family="Helvetica,sans-Serif" font-size="12.00" fill="#000000">type</text>
</g>
<!-- Types -->
<g id="node2" class="node">
<title>Types</title>
<text text-anchor="start" x="2.5" y="-21.4" font-family="Helvetica,sans-Serif" font-weight="bold" font-size="12.00" fill="#000000">Types</text>
<g id="a_node2_1"><a xlink:href="../../nc/ActivityType/#diagram" xlink:title="A data type for a single or set of related actions, events, or process steps." target="_top">
<polygon fill="#ebebeb" stroke="transparent" points="1.5,-1 1.5,-16 84.5,-16 84.5,-1 1.5,-1"/>
<text text-anchor="start" x="2.5" y="-5.4" font-family="Helvetica,sans-Serif" font-size="12.00" fill="#000000">nc:ActivityType</text>
</a>
</g>
<polygon fill="#000000" stroke="#000000" points=".5,-16 .5,-16 85.5,-16 85.5,-16 .5,-16"/>
<polygon fill="none" stroke="#000000" points="0,0 0,-32 85,-32 85,0 0,0"/>
</g>
<!-- Types&#45;&gt;nc:ActivityVerifiedDate -->
<g id="edge1" class="edge">
<title>Types:top&#45;&gt;nc:ActivityVerifiedDate</title>
<path fill="none" stroke="#000000" d="M84.5,-24C103.0789,-24 123.0496,-24 141.9098,-24"/>
<polygon fill="#000000" stroke="#000000" points="141.9565,-27.5001 151.9564,-24 141.9564,-20.5001 141.9565,-27.5001"/>
<text text-anchor="middle" x="118.5" y="-27.4" font-family="Helvetica,sans-Serif" font-size="12.00" fill="#000000">has&#45;a</text>
</g>
</g>
</svg>
