<?xml version="1.0" encoding="UTF-8" standalone="no"?>
<!DOCTYPE svg PUBLIC "-//W3C//DTD SVG 1.1//EN"
 "http://www.w3.org/Graphics/SVG/1.1/DTD/svg11.dtd">
<!-- Generated by graphviz version 2.40.1 (20161225.0304)
 -->
<!-- Title: graphic Pages: 1 -->
<svg width="484pt" height="45pt"
 viewBox="0.00 0.00 484.00 45.00" xmlns="http://www.w3.org/2000/svg" xmlns:xlink="http://www.w3.org/1999/xlink">
<g id="graph0" class="graph" transform="scale(1 1) rotate(0) translate(4 41)">
<title>graphic</title>
<polygon fill="#ffffff" stroke="transparent" points="-4,4 -4,-41 480,-41 480,4 -4,4"/>
<!-- nc:ActivityCapacityQuantity -->
<g id="node1" class="node">
<title>nc:ActivityCapacityQuantity</title>
<text text-anchor="start" x="158.5" y="-21.4" font-family="Helvetica,sans-Serif" font-weight="bold" font-size="12.00" fill="#000000">nc:ActivityCapacityQuantity</text>
<polygon fill="none" stroke="#ff0000" stroke-width="5" points="154.5,-14 154.5,-34 322.5,-34 322.5,-14 154.5,-14"/>
</g>
<!-- nc:QuantityType -->
<g id="node3" class="node">
<title>nc:QuantityType</title>
<g id="a_node3_0"><a xlink:href="../../nc/QuantityType/#diagram" xlink:title="A data type for a count or tally." target="_top">
<text text-anchor="start" x="386" y="-20.4" font-family="Helvetica,sans-Serif" font-size="12.00" fill="#000000">nc:QuantityType</text>
</a>
</g>
<polygon fill="none" stroke="#000000" points="384,-15.5 384,-32.5 476,-32.5 476,-15.5 384,-15.5"/>
</g>
<!-- nc:ActivityCapacityQuantity&#45;&gt;nc:QuantityType -->
<g id="edge2" class="edge">
<title>nc:ActivityCapacityQuantity&#45;&gt;nc:QuantityType</title>
<path fill="none" stroke="#000000" d="M325.0057,-24C341.5153,-24 358.3948,-24 373.6564,-24"/>
<polygon fill="#000000" stroke="#000000" points="373.9392,-27.5001 383.9392,-24 373.9392,-20.5001 373.9392,-27.5001"/>
<text text-anchor="middle" x="354.5" y="-27.4" font-family="Helvetica,sans-Serif" font-size="12.00" fill="#000000">type</text>
</g>
<!-- Types -->
<g id="node2" class="node">
<title>Types</title>
<text text-anchor="start" x="2.5" y="-21.4" font-family="Helvetica,sans-Serif" font-weight="bold" font-size="12.00" fill="#000000">Types</text>
<g id="a_node2_1"><a xlink:href="../../nc/ActivityType/#diagram" xlink:title="A data type for a single or set of related actions, events, or process steps." target="_top">
<polygon fill="#ebebeb" stroke="transparent" points="1.5,-1 1.5,-16 84.5,-16 84.5,-1 1.5,-1"/>
<text text-anchor="start" x="2.5" y="-5.4" font-family="Helvetica,sans-Serif" font-size="12.00" fill="#000000">nc:ActivityType</text>
</a>
</g>
<polygon fill="#000000" stroke="#000000" points=".5,-16 .5,-16 85.5,-16 85.5,-16 .5,-16"/>
<polygon fill="none" stroke="#000000" points="0,0 0,-32 85,-32 85,0 0,0"/>
</g>
<!-- Types&#45;&gt;nc:ActivityCapacityQuantity -->
<g id="edge1" class="edge">
<title>Types:top&#45;&gt;nc:ActivityCapacityQuantity</title>
<path fill="none" stroke="#000000" d="M84.5,-24C102.9704,-24 122.6868,-24 141.6318,-24"/>
<polygon fill="#000000" stroke="#000000" points="141.7599,-27.5001 151.7599,-24 141.7598,-20.5001 141.7599,-27.5001"/>
<text text-anchor="middle" x="118.5" y="-27.4" font-family="Helvetica,sans-Serif" font-size="12.00" fill="#000000">has&#45;a</text>
</g>
</g>
</svg>
