<?xml version="1.0" encoding="UTF-8" standalone="no"?>
<!DOCTYPE svg PUBLIC "-//W3C//DTD SVG 1.1//EN"
 "http://www.w3.org/Graphics/SVG/1.1/DTD/svg11.dtd">
<!-- Generated by graphviz version 2.40.1 (20161225.0304)
 -->
<!-- Title: graphic Pages: 1 -->
<svg width="592pt" height="154pt"
 viewBox="0.00 0.00 592.00 153.50" xmlns="http://www.w3.org/2000/svg" xmlns:xlink="http://www.w3.org/1999/xlink">
<g id="graph0" class="graph" transform="scale(1 1) rotate(0) translate(4 149.5)">
<title>graphic</title>
<polygon fill="#ffffff" stroke="transparent" points="-4,4 -4,-149.5 588,-149.5 588,4 -4,4"/>
<!-- st:CategoryOfGovernmentOwnershipCodeType -->
<g id="node1" class="node">
<title>st:CategoryOfGovernmentOwnershipCodeType</title>
<text text-anchor="start" x="302" y="-25.4" font-family="Helvetica,sans-Serif" font-weight="bold" font-size="12.00" fill="#000000">st:CategoryOfGovernmentOwnershipCodeType</text>
<g id="a_node1_0"><a xlink:href="../../structures/SimpleObjectAttributeGroup/#diagram" xlink:title="A group of attributes that are applicable to objects, to be used when defining a complex type that is an extension of a simple type." target="_top">
<polygon fill="#ebebeb" stroke="transparent" points="301,-5 301,-20 574,-20 574,-5 301,-5"/>
<text text-anchor="start" x="302" y="-9.4" font-family="Helvetica,sans-Serif" font-size="12.00" fill="#000000">structures:SimpleObjectAttributeGroup</text>
</a>
</g>
<polygon fill="#ff0000" stroke="#ff0000" points="296,-20 296,-20 579,-20 579,-20 296,-20"/>
<polygon fill="none" stroke="#ff0000" stroke-width="5" points="298,-2.5 298,-37.5 576,-37.5 576,-2.5 298,-2.5"/>
</g>
<!-- Properties -->
<g id="node2" class="node">
<title>Properties</title>
<text text-anchor="start" x="2.5" y="-25.4" font-family="Helvetica,sans-Serif" font-weight="bold" font-size="12.00" fill="#000000">Properties</text>
<g id="a_node2_1"><a xlink:href="../../st/CategoryOfGovernmentOwnershipCode/#diagram" xlink:title="A type of governmental ownership" target="_top">
<polygon fill="#ebebeb" stroke="transparent" points="1.5,-5 1.5,-20 230.5,-20 230.5,-5 1.5,-5"/>
<text text-anchor="start" x="2.5" y="-9.4" font-family="Helvetica,sans-Serif" font-size="12.00" fill="#000000">st:CategoryOfGovernmentOwnershipCode</text>
</a>
</g>
<polygon fill="#000000" stroke="#000000" points=".5,-20 .5,-20 231.5,-20 231.5,-20 .5,-20"/>
<polygon fill="none" stroke="#000000" points="0,-4 0,-36 231,-36 231,-4 0,-4"/>
</g>
<!-- Properties&#45;&gt;st:CategoryOfGovernmentOwnershipCodeType -->
<g id="edge1" class="edge">
<title>Properties:top&#45;&gt;st:CategoryOfGovernmentOwnershipCodeType:top</title>
<path fill="none" stroke="#000000" d="M230.5,-28C258.1615,-28 267.508,-28 290.8769,-28"/>
<polygon fill="#000000" stroke="#000000" points="291,-31.5001 301,-28 291,-24.5001 291,-31.5001"/>
<text text-anchor="middle" x="260.5" y="-31.4" font-family="Helvetica,sans-Serif" font-size="12.00" fill="#000000">type</text>
</g>
<!-- st:CategoryOfGovernmentOwnershipCodeSimpleType -->
<g id="node3" class="node">
<title>st:CategoryOfGovernmentOwnershipCodeSimpleType</title>
<g id="a_node3_2"><a xlink:href="../../st/CategoryOfGovernmentOwnershipCodeSimpleType/#diagram" xlink:title="A data type describing governmental ownership" target="_top">
<text text-anchor="start" x="292" y="-80.4" font-family="Helvetica,sans-Serif" font-size="12.00" fill="#000000">st:CategoryOfGovernmentOwnershipCodeSimpleType</text>
</a>
</g>
<polygon fill="none" stroke="#000000" points="290,-75.5 290,-92.5 584,-92.5 584,-75.5 290,-75.5"/>
</g>
<!-- st:CategoryOfGovernmentOwnershipCodeSimpleType&#45;&gt;st:CategoryOfGovernmentOwnershipCodeType -->
<g id="edge2" class="edge">
<title>st:CategoryOfGovernmentOwnershipCodeSimpleType&#45;&gt;st:CategoryOfGovernmentOwnershipCodeType</title>
<path fill="none" stroke="#000000" d="M437,-75.4351C437,-68.931 437,-59.5678 437,-50.3827"/>
<polygon fill="#000000" stroke="#000000" points="440.5001,-50.25 437,-40.25 433.5001,-50.25 440.5001,-50.25"/>
<text text-anchor="middle" x="427.5" y="-54.65" font-family="Helvetica,sans-Serif" font-size="12.00" fill="#000000">extension</text>
</g>
<!-- xs:token -->
<g id="node4" class="node">
<title>xs:token</title>
<g id="a_node4_3"><a xlink:href="../../xs/token/#diagram" xlink:title="&lt;TABLE&gt;" target="_top">
<text text-anchor="start" x="415" y="-133.4" font-family="Helvetica,sans-Serif" font-size="12.00" fill="#000000">xs:token</text>
</a>
</g>
<polygon fill="none" stroke="#000000" points="412.5,-128.5 412.5,-145.5 461.5,-145.5 461.5,-128.5 412.5,-128.5"/>
</g>
<!-- xs:token&#45;&gt;st:CategoryOfGovernmentOwnershipCodeSimpleType -->
<g id="edge3" class="edge">
<title>xs:token&#45;&gt;st:CategoryOfGovernmentOwnershipCodeSimpleType</title>
<path fill="none" stroke="#000000" d="M437,-128.411C437,-121.5124 437,-111.5696 437,-102.84"/>
<polygon fill="#000000" stroke="#000000" points="440.5001,-102.7518 437,-92.7519 433.5001,-102.7519 440.5001,-102.7518"/>
<text text-anchor="middle" x="427.5" y="-107.4" font-family="Helvetica,sans-Serif" font-size="12.00" fill="#000000">restriction</text>
</g>
</g>
</svg>
