<?xml version="1.0" encoding="UTF-8" standalone="no"?>
<!DOCTYPE svg PUBLIC "-//W3C//DTD SVG 1.1//EN"
 "http://www.w3.org/Graphics/SVG/1.1/DTD/svg11.dtd">
<!-- Generated by graphviz version 2.40.1 (20161225.0304)
 -->
<!-- Title: graphic Pages: 1 -->
<svg width="519pt" height="60pt"
 viewBox="0.00 0.00 519.00 59.50" xmlns="http://www.w3.org/2000/svg" xmlns:xlink="http://www.w3.org/1999/xlink">
<g id="graph0" class="graph" transform="scale(1 1) rotate(0) translate(4 55.5)">
<title>graphic</title>
<polygon fill="#ffffff" stroke="transparent" points="-4,4 -4,-55.5 515,-55.5 515,4 -4,4"/>
<!-- nc:PersonSurName -->
<g id="node1" class="node">
<title>nc:PersonSurName</title>
<text text-anchor="start" x="193" y="-35.9" font-family="Helvetica,sans-Serif" font-weight="bold" font-size="12.00" fill="#000000">nc:PersonSurName</text>
<polygon fill="none" stroke="#ff0000" stroke-width="5" points="189.5,-28.5 189.5,-48.5 308.5,-48.5 308.5,-28.5 189.5,-28.5"/>
</g>
<!-- nc:PersonNameTextType -->
<g id="node3" class="node">
<title>nc:PersonNameTextType</title>
<g id="a_node3_0"><a xlink:href="../../nc/PersonNameTextType/#diagram" xlink:title="A data type for a name by which a person is known, referred, or addressed." target="_top">
<text text-anchor="start" x="372.5" y="-34.9" font-family="Helvetica,sans-Serif" font-size="12.00" fill="#000000">nc:PersonNameTextType</text>
</a>
</g>
<polygon fill="none" stroke="#000000" points="370,-30 370,-47 511,-47 511,-30 370,-30"/>
</g>
<!-- nc:PersonSurName&#45;&gt;nc:PersonNameTextType -->
<g id="edge2" class="edge">
<title>nc:PersonSurName&#45;&gt;nc:PersonNameTextType</title>
<path fill="none" stroke="#000000" d="M311.1746,-38.5C326.6401,-38.5 343.4436,-38.5 359.6621,-38.5"/>
<polygon fill="#000000" stroke="#000000" points="359.6676,-42.0001 369.6675,-38.5 359.6675,-35.0001 359.6676,-42.0001"/>
<text text-anchor="middle" x="340.5" y="-41.9" font-family="Helvetica,sans-Serif" font-size="12.00" fill="#000000">type</text>
</g>
<!-- Types -->
<g id="node2" class="node">
<title>Types</title>
<text text-anchor="start" x="2" y="-35.9" font-family="Helvetica,sans-Serif" font-weight="bold" font-size="12.00" fill="#000000">Types</text>
<g id="a_node2_1"><a xlink:href="../../ag/CustomerInfoType/#diagram" xlink:title="A data type containing customer information including identification and name." target="_top">
<polygon fill="#ebebeb" stroke="transparent" points="1,-15.5 1,-30.5 119,-30.5 119,-15.5 1,-15.5"/>
<text text-anchor="start" x="2" y="-19.9" font-family="Helvetica,sans-Serif" font-size="12.00" fill="#000000">ag:CustomerInfoType</text>
</a>
</g>
<g id="a_node2_2"><a xlink:href="../../nc/PersonNameType/#diagram" xlink:title="A data type for a combination of names and/or titles by which a person is known." target="_top">
<text text-anchor="start" x="2" y="-4.9" font-family="Helvetica,sans-Serif" font-size="12.00" fill="#000000">nc:PersonNameType</text>
</a>
</g>
<polygon fill="#000000" stroke="#000000" points="0,-30.5 0,-30.5 120,-30.5 120,-30.5 0,-30.5"/>
<polygon fill="none" stroke="#000000" points="0,0 0,-47 120,-47 120,0 0,0"/>
</g>
<!-- Types&#45;&gt;nc:PersonSurName -->
<g id="edge1" class="edge">
<title>Types:top&#45;&gt;nc:PersonSurName</title>
<path fill="none" stroke="#000000" d="M119,-38.5C137.6621,-38.5 157.8312,-38.5 176.5867,-38.5"/>
<polygon fill="#000000" stroke="#000000" points="176.8426,-42.0001 186.8425,-38.5 176.8425,-35.0001 176.8426,-42.0001"/>
<text text-anchor="middle" x="153.5" y="-41.9" font-family="Helvetica,sans-Serif" font-size="12.00" fill="#000000">has&#45;a</text>
</g>
</g>
</svg>
