<?xml version="1.0" encoding="UTF-8" standalone="no"?>
<!DOCTYPE svg PUBLIC "-//W3C//DTD SVG 1.1//EN"
 "http://www.w3.org/Graphics/SVG/1.1/DTD/svg11.dtd">
<!-- Generated by graphviz version 2.40.1 (20161225.0304)
 -->
<!-- Title: graphic Pages: 1 -->
<svg width="261pt" height="86pt"
 viewBox="0.00 0.00 261.00 86.00" xmlns="http://www.w3.org/2000/svg" xmlns:xlink="http://www.w3.org/1999/xlink">
<g id="graph0" class="graph" transform="scale(1 1) rotate(0) translate(4 82)">
<title>graphic</title>
<polygon fill="#ffffff" stroke="transparent" points="-4,4 -4,-82 257,-82 257,4 -4,4"/>
<!-- it:CarrierCodeText -->
<g id="node1" class="node">
<title>it:CarrierCodeText</title>
<text text-anchor="start" x="8.5" y="-9.9" font-family="Helvetica,sans-Serif" font-weight="bold" font-size="12.00" fill="#000000">it:CarrierCodeText</text>
<polygon fill="none" stroke="#ff0000" stroke-width="5" points="5,-2.5 5,-22.5 118,-22.5 118,-2.5 5,-2.5"/>
</g>
<!-- nc:TextType -->
<g id="node3" class="node">
<title>nc:TextType</title>
<g id="a_node3_0"><a xlink:href="../../nc/TextType/#diagram" xlink:title="A data type for a character string." target="_top">
<text text-anchor="start" x="184.5" y="-8.9" font-family="Helvetica,sans-Serif" font-size="12.00" fill="#000000">nc:TextType</text>
</a>
</g>
<polygon fill="none" stroke="#000000" points="182,-4 182,-21 253,-21 253,-4 182,-4"/>
</g>
<!-- it:CarrierCodeText&#45;&gt;nc:TextType -->
<g id="edge2" class="edge">
<title>it:CarrierCodeText&#45;&gt;nc:TextType</title>
<path fill="none" stroke="#000000" d="M120.9219,-12.5C137.7325,-12.5 155.7655,-12.5 171.6443,-12.5"/>
<polygon fill="#000000" stroke="#000000" points="171.7334,-16.0001 181.7334,-12.5 171.7333,-9.0001 171.7334,-16.0001"/>
<text text-anchor="middle" x="152.5" y="-15.9" font-family="Helvetica,sans-Serif" font-size="12.00" fill="#000000">type</text>
</g>
<!-- SubstitutionGroup -->
<g id="node2" class="node">
<title>SubstitutionGroup</title>
<g id="a_node2_1"><a xlink:href="../../it/CarrierCodeAbstract/#diagram" xlink:title="A data concept for containing the code assigned to an organization recognized as an authorized conveyance owner" target="_top">
<text text-anchor="start" x="2.5" y="-65.9" font-family="Helvetica,sans-Serif" font-size="12.00" fill="#000000">it:CarrierCodeAbstract</text>
</a>
</g>
<polygon fill="none" stroke="#000000" points="0,-61 0,-78 123,-78 123,-61 0,-61"/>
</g>
<!-- SubstitutionGroup&#45;&gt;it:CarrierCodeText -->
<g id="edge1" class="edge">
<title>SubstitutionGroup&#45;&gt;it:CarrierCodeText</title>
<path fill="none" stroke="#000000" d="M61.5,-50.9163C61.5,-42.4809 61.5,-32.7214 61.5,-25.1501"/>
<polygon fill="#000000" stroke="#000000" points="58.0001,-50.9472 61.5,-60.9473 65.0001,-50.9473 58.0001,-50.9472"/>
<text text-anchor="middle" x="52" y="-39.9" font-family="Helvetica,sans-Serif" font-size="12.00" fill="#000000">substitution group</text>
</g>
</g>
</svg>
