<?xml version="1.0" encoding="UTF-8" standalone="no"?>
<!DOCTYPE svg PUBLIC "-//W3C//DTD SVG 1.1//EN"
 "http://www.w3.org/Graphics/SVG/1.1/DTD/svg11.dtd">
<!-- Generated by graphviz version 2.40.1 (20161225.0304)
 -->
<!-- Title: graphic Pages: 1 -->
<svg width="393pt" height="101pt"
 viewBox="0.00 0.00 393.00 101.00" xmlns="http://www.w3.org/2000/svg" xmlns:xlink="http://www.w3.org/1999/xlink">
<g id="graph0" class="graph" transform="scale(1 1) rotate(0) translate(4 97)">
<title>graphic</title>
<polygon fill="#ffffff" stroke="transparent" points="-4,4 -4,-97 389,-97 389,4 -4,4"/>
<!-- m:PortDepthAbstract -->
<g id="node1" class="node">
<title>m:PortDepthAbstract</title>
<text text-anchor="start" x="198.5" y="-77.4" font-family="Helvetica,sans-Serif" font-weight="bold" font-size="12.00" fill="#000000">m:PortDepthAbstract</text>
<polygon fill="none" stroke="#ff0000" stroke-width="5" points="195,-70 195,-90 324,-90 324,-70 195,-70"/>
</g>
<!-- SubstitutableElements -->
<g id="node3" class="node">
<title>SubstitutableElements</title>
<text text-anchor="start" x="136.5" y="-21.4" font-family="Helvetica,sans-Serif" font-weight="bold" font-size="12.00" fill="#000000">Substitutable elements</text>
<g id="a_node3_0"><a xlink:href="../../m/PortDepthMeasure/#diagram" xlink:title="A measure of the water depth of a port that limits which vessels can make use of the port." target="_top">
<polygon fill="#ebebeb" stroke="transparent" points="135.5,-1 135.5,-16 384.5,-16 384.5,-1 135.5,-1"/>
<text text-anchor="start" x="136.5" y="-5.4" font-family="Helvetica,sans-Serif" font-size="12.00" fill="#000000">m:PortDepthMeasure: nc:LengthMeasureType</text>
</a>
</g>
<polygon fill="#000000" stroke="#000000" points="134.5,-16 134.5,-16 385.5,-16 385.5,-16 134.5,-16"/>
<polygon fill="none" stroke="#000000" points="134,0 134,-32 385,-32 385,0 134,0"/>
</g>
<!-- m:PortDepthAbstract&#45;&gt;SubstitutableElements -->
<g id="edge2" class="edge">
<title>m:PortDepthAbstract&#45;&gt;SubstitutableElements</title>
<path fill="none" stroke="#000000" d="M259.5,-57.3063C259.5,-48.9972 259.5,-39.7712 259.5,-32.1499"/>
<polygon fill="#000000" stroke="#000000" points="256.0001,-57.4892 259.5,-67.4892 263.0001,-57.4892 256.0001,-57.4892"/>
<text text-anchor="middle" x="250" y="-46.65" font-family="Helvetica,sans-Serif" font-size="12.00" fill="#000000">substitutable for</text>
</g>
<!-- Types -->
<g id="node2" class="node">
<title>Types</title>
<text text-anchor="start" x="2.5" y="-77.4" font-family="Helvetica,sans-Serif" font-weight="bold" font-size="12.00" fill="#000000">Types</text>
<g id="a_node2_1"><a xlink:href="../../m/PortType/#diagram" xlink:title="A data type for a facility capable of receiving vessels and transferring cargo." target="_top">
<polygon fill="#ebebeb" stroke="transparent" points="1.5,-57 1.5,-72 66.5,-72 66.5,-57 1.5,-57"/>
<text text-anchor="start" x="2.5" y="-61.4" font-family="Helvetica,sans-Serif" font-size="12.00" fill="#000000">m:PortType</text>
</a>
</g>
<polygon fill="#000000" stroke="#000000" points=".5,-72 .5,-72 67.5,-72 67.5,-72 .5,-72"/>
<polygon fill="none" stroke="#000000" points="0,-56 0,-88 67,-88 67,-56 0,-56"/>
</g>
<!-- Types&#45;&gt;m:PortDepthAbstract -->
<g id="edge1" class="edge">
<title>Types:top&#45;&gt;m:PortDepthAbstract</title>
<path fill="none" stroke="#000000" d="M66.5,-80C104.4682,-80 146.6379,-80 181.8508,-80"/>
<polygon fill="#000000" stroke="#000000" points="182.0645,-83.5001 192.0645,-80 182.0645,-76.5001 182.0645,-83.5001"/>
<text text-anchor="middle" x="100.5" y="-83.4" font-family="Helvetica,sans-Serif" font-size="12.00" fill="#000000">has&#45;a</text>
</g>
</g>
</svg>
