<?xml version="1.0" encoding="UTF-8" standalone="no"?>
<!DOCTYPE svg PUBLIC "-//W3C//DTD SVG 1.1//EN"
 "http://www.w3.org/Graphics/SVG/1.1/DTD/svg11.dtd">
<!-- Generated by graphviz version 2.40.1 (20161225.0304)
 -->
<!-- Title: graphic Pages: 1 -->
<svg width="552pt" height="45pt"
 viewBox="0.00 0.00 552.00 45.00" xmlns="http://www.w3.org/2000/svg" xmlns:xlink="http://www.w3.org/1999/xlink">
<g id="graph0" class="graph" transform="scale(1 1) rotate(0) translate(4 41)">
<title>graphic</title>
<polygon fill="#ffffff" stroke="transparent" points="-4,4 -4,-41 548,-41 548,4 -4,4"/>
<!-- it:TransportMeansArrivalDate -->
<g id="node1" class="node">
<title>it:TransportMeansArrivalDate</title>
<text text-anchor="start" x="237.5" y="-21.4" font-family="Helvetica,sans-Serif" font-weight="bold" font-size="12.00" fill="#000000">it:TransportMeansArrivalDate</text>
<polygon fill="none" stroke="#ff0000" stroke-width="5" points="233.5,-14 233.5,-34 409.5,-34 409.5,-14 233.5,-14"/>
</g>
<!-- nc:DateType -->
<g id="node3" class="node">
<title>nc:DateType</title>
<g id="a_node3_0"><a xlink:href="../../nc/DateType/#diagram" xlink:title="A data type for a calendar date." target="_top">
<text text-anchor="start" x="473.5" y="-20.4" font-family="Helvetica,sans-Serif" font-size="12.00" fill="#000000">nc:DateType</text>
</a>
</g>
<polygon fill="none" stroke="#000000" points="471,-15.5 471,-32.5 544,-32.5 544,-15.5 471,-15.5"/>
</g>
<!-- it:TransportMeansArrivalDate&#45;&gt;nc:DateType -->
<g id="edge2" class="edge">
<title>it:TransportMeansArrivalDate&#45;&gt;nc:DateType</title>
<path fill="none" stroke="#000000" d="M412.0481,-24C428.8498,-24 445.7582,-24 460.5778,-24"/>
<polygon fill="#000000" stroke="#000000" points="460.9683,-27.5001 470.9683,-24 460.9682,-20.5001 460.9683,-27.5001"/>
<text text-anchor="middle" x="441.5" y="-27.4" font-family="Helvetica,sans-Serif" font-size="12.00" fill="#000000">type</text>
</g>
<!-- Types -->
<g id="node2" class="node">
<title>Types</title>
<text text-anchor="start" x="2" y="-21.4" font-family="Helvetica,sans-Serif" font-weight="bold" font-size="12.00" fill="#000000">Types</text>
<g id="a_node2_1"><a xlink:href="../../it/BorderTransportMeansType/#diagram" xlink:title="A data type for a means of transport used in crossing a border." target="_top">
<polygon fill="#ebebeb" stroke="transparent" points="1,-1 1,-16 163,-16 163,-1 1,-1"/>
<text text-anchor="start" x="2" y="-5.4" font-family="Helvetica,sans-Serif" font-size="12.00" fill="#000000">it:BorderTransportMeansType</text>
</a>
</g>
<polygon fill="#000000" stroke="#000000" points="0,-16 0,-16 164,-16 164,-16 0,-16"/>
<polygon fill="none" stroke="#000000" points="0,0 0,-32 164,-32 164,0 0,0"/>
</g>
<!-- Types&#45;&gt;it:TransportMeansArrivalDate -->
<g id="edge1" class="edge">
<title>Types:top&#45;&gt;it:TransportMeansArrivalDate</title>
<path fill="none" stroke="#000000" d="M163,-24C181.6602,-24 201.5562,-24 220.7238,-24"/>
<polygon fill="#000000" stroke="#000000" points="220.9765,-27.5001 230.9765,-24 220.9764,-20.5001 220.9765,-27.5001"/>
<text text-anchor="middle" x="197.5" y="-27.4" font-family="Helvetica,sans-Serif" font-size="12.00" fill="#000000">has&#45;a</text>
</g>
</g>
</svg>
