<?xml version="1.0" encoding="UTF-8" standalone="no"?>
<!DOCTYPE svg PUBLIC "-//W3C//DTD SVG 1.1//EN"
 "http://www.w3.org/Graphics/SVG/1.1/DTD/svg11.dtd">
<!-- Generated by graphviz version 2.40.1 (20161225.0304)
 -->
<!-- Title: graphic Pages: 1 -->
<svg width="494pt" height="45pt"
 viewBox="0.00 0.00 494.00 45.00" xmlns="http://www.w3.org/2000/svg" xmlns:xlink="http://www.w3.org/1999/xlink">
<g id="graph0" class="graph" transform="scale(1 1) rotate(0) translate(4 41)">
<title>graphic</title>
<polygon fill="#ffffff" stroke="transparent" points="-4,4 -4,-41 490,-41 490,4 -4,4"/>
<!-- nc:DocumentVitalIndicator -->
<g id="node1" class="node">
<title>nc:DocumentVitalIndicator</title>
<text text-anchor="start" x="175.5" y="-21.4" font-family="Helvetica,sans-Serif" font-weight="bold" font-size="12.00" fill="#000000">nc:DocumentVitalIndicator</text>
<polygon fill="none" stroke="#ff0000" stroke-width="5" points="171.5,-14 171.5,-34 331.5,-34 331.5,-14 171.5,-14"/>
</g>
<!-- niem&#45;xs:boolean -->
<g id="node3" class="node">
<title>niem&#45;xs:boolean</title>
<g id="a_node3_0"><a xlink:href="../../niem-xs/boolean/#diagram" xlink:title="A data type for binary&#45;valued logic (true/false)." target="_top">
<text text-anchor="start" x="395.5" y="-20.4" font-family="Helvetica,sans-Serif" font-size="12.00" fill="#000000">niem&#45;xs:boolean</text>
</a>
</g>
<polygon fill="none" stroke="#000000" points="393,-15.5 393,-32.5 486,-32.5 486,-15.5 393,-15.5"/>
</g>
<!-- nc:DocumentVitalIndicator&#45;&gt;niem&#45;xs:boolean -->
<g id="edge2" class="edge">
<title>nc:DocumentVitalIndicator&#45;&gt;niem&#45;xs:boolean</title>
<path fill="none" stroke="#000000" d="M334.2331,-24C350.5615,-24 367.35,-24 382.5895,-24"/>
<polygon fill="#000000" stroke="#000000" points="382.8678,-27.5001 392.8677,-24 382.8677,-20.5001 382.8678,-27.5001"/>
<text text-anchor="middle" x="363.5" y="-27.4" font-family="Helvetica,sans-Serif" font-size="12.00" fill="#000000">type</text>
</g>
<!-- Types -->
<g id="node2" class="node">
<title>Types</title>
<text text-anchor="start" x="2" y="-21.4" font-family="Helvetica,sans-Serif" font-weight="bold" font-size="12.00" fill="#000000">Types</text>
<g id="a_node2_1"><a xlink:href="../../nc/DocumentType/#diagram" xlink:title="A data type for a paper or electronic document." target="_top">
<polygon fill="#ebebeb" stroke="transparent" points="1,-1 1,-16 101,-16 101,-1 1,-1"/>
<text text-anchor="start" x="2" y="-5.4" font-family="Helvetica,sans-Serif" font-size="12.00" fill="#000000">nc:DocumentType</text>
</a>
</g>
<polygon fill="#000000" stroke="#000000" points="0,-16 0,-16 102,-16 102,-16 0,-16"/>
<polygon fill="none" stroke="#000000" points="0,0 0,-32 102,-32 102,0 0,0"/>
</g>
<!-- Types&#45;&gt;nc:DocumentVitalIndicator -->
<g id="edge1" class="edge">
<title>Types:top&#45;&gt;nc:DocumentVitalIndicator</title>
<path fill="none" stroke="#000000" d="M101,-24C119.6043,-24 139.5022,-24 158.5349,-24"/>
<polygon fill="#000000" stroke="#000000" points="158.7005,-27.5001 168.7004,-24 158.7004,-20.5001 158.7005,-27.5001"/>
<text text-anchor="middle" x="135.5" y="-27.4" font-family="Helvetica,sans-Serif" font-size="12.00" fill="#000000">has&#45;a</text>
</g>
</g>
</svg>
