<?xml version="1.0" encoding="UTF-8" standalone="no"?>
<!DOCTYPE svg PUBLIC "-//W3C//DTD SVG 1.1//EN"
 "http://www.w3.org/Graphics/SVG/1.1/DTD/svg11.dtd">
<!-- Generated by graphviz version 2.40.1 (20161225.0304)
 -->
<!-- Title: graphic Pages: 1 -->
<svg width="904pt" height="199pt"
 viewBox="0.00 0.00 904.00 199.00" xmlns="http://www.w3.org/2000/svg" xmlns:xlink="http://www.w3.org/1999/xlink">
<g id="graph0" class="graph" transform="scale(1 1) rotate(0) translate(4 195)">
<title>graphic</title>
<polygon fill="#ffffff" stroke="transparent" points="-4,4 -4,-195 900,-195 900,4 -4,4"/>
<!-- hs:PetitionerChildAssociationType -->
<g id="node1" class="node">
<title>hs:PetitionerChildAssociationType</title>
<text text-anchor="start" x="225.5" y="-69.9" font-family="Helvetica,sans-Serif" font-weight="bold" font-size="12.00" fill="#000000">hs:PetitionerChildAssociationType</text>
<g id="a_node1_0"><a xlink:href="../../hs/Child/#diagram" xlink:title="A person who was an unmarried minor at the time of his or her involvement in a judicial proceeding or non&#45;judicial program." target="_top">
<polygon fill="#ebebeb" stroke="transparent" points="224.5,-49.5 224.5,-64.5 511.5,-64.5 511.5,-49.5 224.5,-49.5"/>
<text text-anchor="start" x="225.5" y="-53.9" font-family="Helvetica,sans-Serif" font-size="12.00" fill="#000000">hs:Child: hs:ChildType [0&#45;n]</text>
</a>
</g>
<g id="a_node1_1"><a xlink:href="../../hs/Petitioner/#diagram" xlink:title="A person filing the petition." target="_top">
<text text-anchor="start" x="225.5" y="-38.9" font-family="Helvetica,sans-Serif" font-size="12.00" fill="#000000">hs:Petitioner: hs:PetitionerType [0&#45;n]</text>
</a>
</g>
<g id="a_node1_2"><a xlink:href="../../hs/PersonAssociationCategoryAbstract/#diagram" xlink:title="A data concept for a kind of association between persons." target="_top">
<polygon fill="#ebebeb" stroke="transparent" points="224.5,-19.5 224.5,-34.5 511.5,-34.5 511.5,-19.5 224.5,-19.5"/>
<text text-anchor="start" x="225.5" y="-23.9" font-family="Helvetica,sans-Serif" font-size="12.00" fill="#000000">hs:PersonAssociationCategoryAbstract [0&#45;n]</text>
</a>
</g>
<g id="a_node1_3"><a xlink:href="../../hs/PetitionerChildAssociationAugmentationPoint/#diagram" xlink:title="An augmentation point for PetitionerChildAssociationType." target="_top">
<text text-anchor="start" x="225.5" y="-8.9" font-family="Helvetica,sans-Serif" font-size="12.00" fill="#000000">hs:PetitionerChildAssociationAugmentationPoint [0&#45;n]</text>
</a>
</g>
<polygon fill="#ff0000" stroke="#ff0000" points="219.5,-64.5 219.5,-64.5 516.5,-64.5 516.5,-64.5 219.5,-64.5"/>
<polygon fill="none" stroke="#ff0000" stroke-width="5" points="221.5,-2.5 221.5,-82.5 513.5,-82.5 513.5,-2.5 221.5,-2.5"/>
</g>
<!-- subst_d9e18168 -->
<g id="node2" class="node">
<title>subst_d9e18168</title>
<g id="a_node2_4"><a xlink:href="../../hs/PersonAssociationCategoryAbstract/#diagram" xlink:title="&lt;TABLE&gt;" target="_top">
<text text-anchor="start" x="555.5" y="-23.9" font-family="Helvetica,sans-Serif" font-weight="bold" font-size="12.00" fill="#000000">Substitution group hs:PersonAssociationCategoryAbstract</text>
</a>
</g>
<g id="a_node2_5"><a xlink:href="../../hs/PersonAssociationCategoryDescriptionText/#diagram" xlink:title="A description of a kind of association between persons." target="_top">
<polygon fill="#ebebeb" stroke="transparent" points="554.5,-3.5 554.5,-18.5 895.5,-18.5 895.5,-3.5 554.5,-3.5"/>
<text text-anchor="start" x="555.5" y="-7.9" font-family="Helvetica,sans-Serif" font-size="12.00" fill="#000000">hs:PersonAssociationCategoryDescriptionText: nc:TextType</text>
</a>
</g>
<polygon fill="#000000" stroke="#000000" points="553.5,-18.5 553.5,-18.5 896.5,-18.5 896.5,-18.5 553.5,-18.5"/>
<polygon fill="none" stroke="#000000" points="553,-2.5 553,-34.5 896,-34.5 896,-2.5 553,-2.5"/>
</g>
<!-- hs:PetitionerChildAssociationType&#45;&gt;subst_d9e18168 -->
<g id="edge1" class="edge">
<title>hs:PetitionerChildAssociationType:e&#45;&gt;subst_d9e18168:w</title>
<path fill="none" stroke="#000000" d="M521.6119,-26.5C533.1435,-26.5 539.2708,-26.5 554.5,-26.5"/>
<polygon fill="#000000" stroke="#000000" points="521.5,-23.0001 511.5,-26.5 521.5,-30.0001 521.5,-23.0001"/>
</g>
<!-- Properties -->
<g id="node3" class="node">
<title>Properties</title>
<text text-anchor="start" x="2" y="-69.9" font-family="Helvetica,sans-Serif" font-weight="bold" font-size="12.00" fill="#000000">Properties</text>
<g id="a_node3_6"><a xlink:href="../../hs/PetitionerChildAssociation/#diagram" xlink:title="An association between a petitioner and a child." target="_top">
<polygon fill="#ebebeb" stroke="transparent" points="1,-49.5 1,-64.5 159,-64.5 159,-49.5 1,-49.5"/>
<text text-anchor="start" x="2" y="-53.9" font-family="Helvetica,sans-Serif" font-size="12.00" fill="#000000">hs:PetitionerChildAssociation</text>
</a>
</g>
<polygon fill="#000000" stroke="#000000" points="0,-64.5 0,-64.5 160,-64.5 160,-64.5 0,-64.5"/>
<polygon fill="none" stroke="#000000" points="0,-48.5 0,-80.5 160,-80.5 160,-48.5 0,-48.5"/>
</g>
<!-- Properties&#45;&gt;hs:PetitionerChildAssociationType -->
<g id="edge2" class="edge">
<title>Properties:top&#45;&gt;hs:PetitionerChildAssociationType:top</title>
<path fill="none" stroke="#000000" d="M159,-72.5C184.3585,-72.5 193.1498,-72.5 214.2371,-72.5"/>
<polygon fill="#000000" stroke="#000000" points="214.5,-76.0001 224.5,-72.5 214.5,-69.0001 214.5,-76.0001"/>
<text text-anchor="middle" x="189.5" y="-75.9" font-family="Helvetica,sans-Serif" font-size="12.00" fill="#000000">type</text>
</g>
<!-- nc:AssociationType -->
<g id="node4" class="node">
<title>nc:AssociationType</title>
<g id="a_node4_7"><a xlink:href="../../nc/AssociationType/#diagram" xlink:title="A data type for an association, connection, relationship, or involvement somehow linking people, things, and/or activities together." target="_top">
<text text-anchor="start" x="315.5" y="-125.9" font-family="Helvetica,sans-Serif" font-size="12.00" fill="#000000">nc:AssociationType</text>
</a>
</g>
<polygon fill="none" stroke="#000000" points="313,-121 313,-138 422,-138 422,-121 313,-121"/>
</g>
<!-- nc:AssociationType&#45;&gt;hs:PetitionerChildAssociationType -->
<g id="edge3" class="edge">
<title>nc:AssociationType&#45;&gt;hs:PetitionerChildAssociationType</title>
<path fill="none" stroke="#000000" d="M367.5,-120.9761C367.5,-114.614 367.5,-105.3292 367.5,-95.3557"/>
<polygon fill="#000000" stroke="#000000" points="371.0001,-95.2354 367.5,-85.2354 364.0001,-95.2354 371.0001,-95.2354"/>
<text text-anchor="middle" x="358" y="-99.9" font-family="Helvetica,sans-Serif" font-size="12.00" fill="#000000">extension</text>
</g>
<!-- structures:AssociationType -->
<g id="node5" class="node">
<title>structures:AssociationType</title>
<g id="a_node5_8"><a xlink:href="../../structures/AssociationType/#diagram" xlink:title="A data type for a relationship between two or more objects, including any properties of that relationship." target="_top">
<text text-anchor="start" x="295.5" y="-178.9" font-family="Helvetica,sans-Serif" font-size="12.00" fill="#000000">structures:AssociationType</text>
</a>
</g>
<polygon fill="none" stroke="#000000" points="293,-174 293,-191 442,-191 442,-174 293,-174"/>
</g>
<!-- structures:AssociationType&#45;&gt;nc:AssociationType -->
<g id="edge4" class="edge">
<title>structures:AssociationType&#45;&gt;nc:AssociationType</title>
<path fill="none" stroke="#000000" d="M367.5,-173.911C367.5,-167.0124 367.5,-157.0696 367.5,-148.34"/>
<polygon fill="#000000" stroke="#000000" points="371.0001,-148.2518 367.5,-138.2519 364.0001,-148.2519 371.0001,-148.2518"/>
<text text-anchor="middle" x="358" y="-152.9" font-family="Helvetica,sans-Serif" font-size="12.00" fill="#000000">extension</text>
</g>
</g>
</svg>
