<?xml version="1.0" encoding="UTF-8" standalone="no"?>
<!DOCTYPE svg PUBLIC "-//W3C//DTD SVG 1.1//EN"
 "http://www.w3.org/Graphics/SVG/1.1/DTD/svg11.dtd">
<!-- Generated by graphviz version 2.40.1 (20161225.0304)
 -->
<!-- Title: graphic Pages: 1 -->
<svg width="656pt" height="117pt"
 viewBox="0.00 0.00 656.00 116.50" xmlns="http://www.w3.org/2000/svg" xmlns:xlink="http://www.w3.org/1999/xlink">
<g id="graph0" class="graph" transform="scale(1 1) rotate(0) translate(4 112.5)">
<title>graphic</title>
<polygon fill="#ffffff" stroke="transparent" points="-4,4 -4,-112.5 652,-112.5 652,4 -4,4"/>
<!-- j:EnforcementOfficialActivityCategoryAbstract -->
<g id="node1" class="node">
<title>j:EnforcementOfficialActivityCategoryAbstract</title>
<text text-anchor="start" x="295.5" y="-92.9" font-family="Helvetica,sans-Serif" font-weight="bold" font-size="12.00" fill="#000000">j:EnforcementOfficialActivityCategoryAbstract</text>
<polygon fill="none" stroke="#ff0000" stroke-width="5" points="292,-85.5 292,-105.5 565,-105.5 565,-85.5 292,-85.5"/>
</g>
<!-- SubstitutableElements -->
<g id="node3" class="node">
<title>SubstitutableElements</title>
<text text-anchor="start" x="211.5" y="-35.9" font-family="Helvetica,sans-Serif" font-weight="bold" font-size="12.00" fill="#000000">Substitutable elements</text>
<g id="a_node3_0"><a xlink:href="../../j/EnforcementOfficialActivityCategoryCode/#diagram" xlink:title="A kind of activity or circumstance in which an enforcement official was engaged." target="_top">
<polygon fill="#ebebeb" stroke="transparent" points="210.5,-15.5 210.5,-30.5 647.5,-30.5 647.5,-15.5 210.5,-15.5"/>
<text text-anchor="start" x="211.5" y="-19.9" font-family="Helvetica,sans-Serif" font-size="12.00" fill="#000000">j:EnforcementOfficialActivityCategoryCode: ucr:LEOKAActivityCategoryCodeType</text>
</a>
</g>
<g id="a_node3_1"><a xlink:href="../../j/EnforcementOfficialActivityCategoryText/#diagram" xlink:title="A kind of activity or circumstance in which an enforcement official was engaged." target="_top">
<text text-anchor="start" x="211.5" y="-4.9" font-family="Helvetica,sans-Serif" font-size="12.00" fill="#000000">j:EnforcementOfficialActivityCategoryText: nc:TextType</text>
</a>
</g>
<polygon fill="#000000" stroke="#000000" points="209.5,-30.5 209.5,-30.5 648.5,-30.5 648.5,-30.5 209.5,-30.5"/>
<polygon fill="none" stroke="#000000" points="209,0 209,-47 648,-47 648,0 209,0"/>
</g>
<!-- j:EnforcementOfficialActivityCategoryAbstract&#45;&gt;SubstitutableElements -->
<g id="edge2" class="edge">
<title>j:EnforcementOfficialActivityCategoryAbstract&#45;&gt;SubstitutableElements</title>
<path fill="none" stroke="#000000" d="M428.5,-72.9771C428.5,-64.7398 428.5,-55.4022 428.5,-47.0755"/>
<polygon fill="#000000" stroke="#000000" points="425.0001,-72.9945 428.5,-82.9945 432.0001,-72.9946 425.0001,-72.9945"/>
<text text-anchor="middle" x="419" y="-61.9" font-family="Helvetica,sans-Serif" font-size="12.00" fill="#000000">substitutable for</text>
</g>
<!-- Types -->
<g id="node2" class="node">
<title>Types</title>
<text text-anchor="start" x="2" y="-92.9" font-family="Helvetica,sans-Serif" font-weight="bold" font-size="12.00" fill="#000000">Types</text>
<g id="a_node2_2"><a xlink:href="../../j/EnforcementOfficialType/#diagram" xlink:title="A data type for a person involved in the enforcement of law." target="_top">
<polygon fill="#ebebeb" stroke="transparent" points="1,-72.5 1,-87.5 141,-87.5 141,-72.5 1,-72.5"/>
<text text-anchor="start" x="2" y="-76.9" font-family="Helvetica,sans-Serif" font-size="12.00" fill="#000000">j:EnforcementOfficialType</text>
</a>
</g>
<polygon fill="#000000" stroke="#000000" points="0,-87.5 0,-87.5 142,-87.5 142,-87.5 0,-87.5"/>
<polygon fill="none" stroke="#000000" points="0,-71.5 0,-103.5 142,-103.5 142,-71.5 0,-71.5"/>
</g>
<!-- Types&#45;&gt;j:EnforcementOfficialActivityCategoryAbstract -->
<g id="edge1" class="edge">
<title>Types:top&#45;&gt;j:EnforcementOfficialActivityCategoryAbstract</title>
<path fill="none" stroke="#000000" d="M141,-95.5C185.8956,-95.5 234.7347,-95.5 279.2038,-95.5"/>
<polygon fill="#000000" stroke="#000000" points="279.2149,-99.0001 289.2148,-95.5 279.2148,-92.0001 279.2149,-99.0001"/>
<text text-anchor="middle" x="175.5" y="-98.9" font-family="Helvetica,sans-Serif" font-size="12.00" fill="#000000">has&#45;a</text>
</g>
</g>
</svg>
