<?xml version="1.0" encoding="UTF-8" standalone="no"?>
<!DOCTYPE svg PUBLIC "-//W3C//DTD SVG 1.1//EN"
 "http://www.w3.org/Graphics/SVG/1.1/DTD/svg11.dtd">
<!-- Generated by graphviz version 2.40.1 (20161225.0304)
 -->
<!-- Title: graphic Pages: 1 -->
<svg width="380pt" height="154pt"
 viewBox="0.00 0.00 380.00 153.50" xmlns="http://www.w3.org/2000/svg" xmlns:xlink="http://www.w3.org/1999/xlink">
<g id="graph0" class="graph" transform="scale(1 1) rotate(0) translate(4 149.5)">
<title>graphic</title>
<polygon fill="#ffffff" stroke="transparent" points="-4,4 -4,-149.5 376,-149.5 376,4 -4,4"/>
<!-- aamva_d20:DriverLicensePermitEndorsementCodeSimpleType -->
<g id="node1" class="node">
<title>aamva_d20:DriverLicensePermitEndorsementCodeSimpleType</title>
<text text-anchor="start" x="6" y="-77.4" font-family="Helvetica,sans-Serif" font-weight="bold" font-size="12.00" fill="#000000">aamva_d20:DriverLicensePermitEndorsementCodeSimpleType</text>
<polygon fill="none" stroke="#ff0000" stroke-width="5" points="2.5,-70 2.5,-90 369.5,-90 369.5,-70 2.5,-70"/>
</g>
<!-- DerivedTypes -->
<g id="node2" class="node">
<title>DerivedTypes</title>
<text text-anchor="start" x="36" y="-21.4" font-family="Helvetica,sans-Serif" font-weight="bold" font-size="12.00" fill="#000000">Derived types</text>
<g id="a_node2_0"><a xlink:href="../../aamva_d20/DriverLicensePermitEndorsementCodeType/#diagram" xlink:title="A data type for endorsements on a driver license permit which authorizes the operation of specified kinds of vehicles carrying specified loads." target="_top">
<polygon fill="#ebebeb" stroke="transparent" points="35,-1 35,-16 338,-16 338,-1 35,-1"/>
<text text-anchor="start" x="36" y="-5.4" font-family="Helvetica,sans-Serif" font-size="12.00" fill="#000000">aamva_d20:DriverLicensePermitEndorsementCodeType</text>
</a>
</g>
<polygon fill="#000000" stroke="#000000" points="34,-16 34,-16 339,-16 339,-16 34,-16"/>
<polygon fill="none" stroke="#000000" points="33.5,0 33.5,-32 338.5,-32 338.5,0 33.5,0"/>
</g>
<!-- aamva_d20:DriverLicensePermitEndorsementCodeSimpleType&#45;&gt;DerivedTypes -->
<g id="edge1" class="edge">
<title>aamva_d20:DriverLicensePermitEndorsementCodeSimpleType&#45;&gt;DerivedTypes</title>
<path fill="none" stroke="#000000" d="M186,-67.4892C186,-60.3101 186,-51.0172 186,-42.306"/>
<polygon fill="#000000" stroke="#000000" points="189.5001,-42.1499 186,-32.1499 182.5001,-42.1499 189.5001,-42.1499"/>
<text text-anchor="middle" x="176.5" y="-46.65" font-family="Helvetica,sans-Serif" font-size="12.00" fill="#000000">derived</text>
</g>
<!-- xs:token -->
<g id="node3" class="node">
<title>xs:token</title>
<g id="a_node3_1"><a xlink:href="../../xs/token/#diagram" xlink:title="&lt;TABLE&gt;" target="_top">
<text text-anchor="start" x="164" y="-133.4" font-family="Helvetica,sans-Serif" font-size="12.00" fill="#000000">xs:token</text>
</a>
</g>
<polygon fill="none" stroke="#000000" points="161.5,-128.5 161.5,-145.5 210.5,-145.5 210.5,-128.5 161.5,-128.5"/>
</g>
<!-- xs:token&#45;&gt;aamva_d20:DriverLicensePermitEndorsementCodeSimpleType -->
<g id="edge2" class="edge">
<title>xs:token&#45;&gt;aamva_d20:DriverLicensePermitEndorsementCodeSimpleType</title>
<path fill="none" stroke="#000000" d="M186,-128.4473C186,-121.6242 186,-111.7417 186,-102.6794"/>
<polygon fill="#000000" stroke="#000000" points="189.5001,-102.6501 186,-92.6501 182.5001,-102.6502 189.5001,-102.6501"/>
<text text-anchor="middle" x="176.5" y="-107.4" font-family="Helvetica,sans-Serif" font-size="12.00" fill="#000000">restriction</text>
</g>
</g>
</svg>
