<?xml version="1.0" encoding="UTF-8" standalone="no"?>
<!DOCTYPE svg PUBLIC "-//W3C//DTD SVG 1.1//EN"
 "http://www.w3.org/Graphics/SVG/1.1/DTD/svg11.dtd">
<!-- Generated by graphviz version 2.40.1 (20161225.0304)
 -->
<!-- Title: graphic Pages: 1 -->
<svg width="675pt" height="117pt"
 viewBox="0.00 0.00 675.00 116.50" xmlns="http://www.w3.org/2000/svg" xmlns:xlink="http://www.w3.org/1999/xlink">
<g id="graph0" class="graph" transform="scale(1 1) rotate(0) translate(4 112.5)">
<title>graphic</title>
<polygon fill="#ffffff" stroke="transparent" points="-4,4 -4,-112.5 671,-112.5 671,4 -4,4"/>
<!-- hs:ParentChildKinshipCategoryAbstract -->
<g id="node1" class="node">
<title>hs:ParentChildKinshipCategoryAbstract</title>
<text text-anchor="start" x="337.5" y="-92.9" font-family="Helvetica,sans-Serif" font-weight="bold" font-size="12.00" fill="#000000">hs:ParentChildKinshipCategoryAbstract</text>
<polygon fill="none" stroke="#ff0000" stroke-width="5" points="333.5,-85.5 333.5,-105.5 571.5,-105.5 571.5,-85.5 333.5,-85.5"/>
</g>
<!-- SubstitutableElements -->
<g id="node3" class="node">
<title>SubstitutableElements</title>
<text text-anchor="start" x="240.5" y="-35.9" font-family="Helvetica,sans-Serif" font-weight="bold" font-size="12.00" fill="#000000">Substitutable elements</text>
<g id="a_node3_0"><a xlink:href="../../hs/ParentChildKinshipCategoryCode/#diagram" xlink:title="A code list that describes the nature of the relationship from a parent to a child." target="_top">
<polygon fill="#ebebeb" stroke="transparent" points="239.5,-15.5 239.5,-30.5 666.5,-30.5 666.5,-15.5 239.5,-15.5"/>
<text text-anchor="start" x="240.5" y="-19.9" font-family="Helvetica,sans-Serif" font-size="12.00" fill="#000000">hs:ParentChildKinshipCategoryCode: hs:ParentChildKinshipCategoryCodeType</text>
</a>
</g>
<g id="a_node3_1"><a xlink:href="../../hs/ParentChildKinshipCategoryText/#diagram" xlink:title="A kind of relationship from a parent to a child." target="_top">
<text text-anchor="start" x="240.5" y="-4.9" font-family="Helvetica,sans-Serif" font-size="12.00" fill="#000000">hs:ParentChildKinshipCategoryText: nc:TextType</text>
</a>
</g>
<polygon fill="#000000" stroke="#000000" points="238.5,-30.5 238.5,-30.5 667.5,-30.5 667.5,-30.5 238.5,-30.5"/>
<polygon fill="none" stroke="#000000" points="238,0 238,-47 667,-47 667,0 238,0"/>
</g>
<!-- hs:ParentChildKinshipCategoryAbstract&#45;&gt;SubstitutableElements -->
<g id="edge2" class="edge">
<title>hs:ParentChildKinshipCategoryAbstract&#45;&gt;SubstitutableElements</title>
<path fill="none" stroke="#000000" d="M452.5,-72.9771C452.5,-64.7398 452.5,-55.4022 452.5,-47.0755"/>
<polygon fill="#000000" stroke="#000000" points="449.0001,-72.9945 452.5,-82.9945 456.0001,-72.9946 449.0001,-72.9945"/>
<text text-anchor="middle" x="443" y="-61.9" font-family="Helvetica,sans-Serif" font-size="12.00" fill="#000000">substitutable for</text>
</g>
<!-- Types -->
<g id="node2" class="node">
<title>Types</title>
<text text-anchor="start" x="2.5" y="-92.9" font-family="Helvetica,sans-Serif" font-weight="bold" font-size="12.00" fill="#000000">Types</text>
<g id="a_node2_2"><a xlink:href="../../hs/ParentChildAssociationType/#diagram" xlink:title="A data type for an association between a child and a person who is in a parent role toward that child." target="_top">
<polygon fill="#ebebeb" stroke="transparent" points="1.5,-72.5 1.5,-87.5 170.5,-87.5 170.5,-72.5 1.5,-72.5"/>
<text text-anchor="start" x="2.5" y="-76.9" font-family="Helvetica,sans-Serif" font-size="12.00" fill="#000000">hs:ParentChildAssociationType</text>
</a>
</g>
<polygon fill="#000000" stroke="#000000" points=".5,-87.5 .5,-87.5 171.5,-87.5 171.5,-87.5 .5,-87.5"/>
<polygon fill="none" stroke="#000000" points="0,-71.5 0,-103.5 171,-103.5 171,-71.5 0,-71.5"/>
</g>
<!-- Types&#45;&gt;hs:ParentChildKinshipCategoryAbstract -->
<g id="edge1" class="edge">
<title>Types:top&#45;&gt;hs:ParentChildKinshipCategoryAbstract</title>
<path fill="none" stroke="#000000" d="M170.5,-95.5C219.521,-95.5 273.3353,-95.5 320.6941,-95.5"/>
<polygon fill="#000000" stroke="#000000" points="320.698,-99.0001 330.698,-95.5 320.698,-92.0001 320.698,-99.0001"/>
<text text-anchor="middle" x="204.5" y="-98.9" font-family="Helvetica,sans-Serif" font-size="12.00" fill="#000000">has&#45;a</text>
</g>
</g>
</svg>
