<?xml version="1.0" encoding="UTF-8" standalone="no"?>
<!DOCTYPE svg PUBLIC "-//W3C//DTD SVG 1.1//EN"
 "http://www.w3.org/Graphics/SVG/1.1/DTD/svg11.dtd">
<!-- Generated by graphviz version 2.40.1 (20161225.0304)
 -->
<!-- Title: graphic Pages: 1 -->
<svg width="578pt" height="45pt"
 viewBox="0.00 0.00 578.00 45.00" xmlns="http://www.w3.org/2000/svg" xmlns:xlink="http://www.w3.org/1999/xlink">
<g id="graph0" class="graph" transform="scale(1 1) rotate(0) translate(4 41)">
<title>graphic</title>
<polygon fill="#ffffff" stroke="transparent" points="-4,4 -4,-41 574,-41 574,4 -4,4"/>
<!-- j:HearingDecisionRescindedIndicator -->
<g id="node1" class="node">
<title>j:HearingDecisionRescindedIndicator</title>
<text text-anchor="start" x="198" y="-21.4" font-family="Helvetica,sans-Serif" font-weight="bold" font-size="12.00" fill="#000000">j:HearingDecisionRescindedIndicator</text>
<polygon fill="none" stroke="#ff0000" stroke-width="5" points="194.5,-14 194.5,-34 415.5,-34 415.5,-14 194.5,-14"/>
</g>
<!-- niem&#45;xs:boolean -->
<g id="node3" class="node">
<title>niem&#45;xs:boolean</title>
<g id="a_node3_0"><a xlink:href="../../niem-xs/boolean/#diagram" xlink:title="A data type for binary&#45;valued logic (true/false)." target="_top">
<text text-anchor="start" x="479.5" y="-20.4" font-family="Helvetica,sans-Serif" font-size="12.00" fill="#000000">niem&#45;xs:boolean</text>
</a>
</g>
<polygon fill="none" stroke="#000000" points="477,-15.5 477,-32.5 570,-32.5 570,-15.5 477,-15.5"/>
</g>
<!-- j:HearingDecisionRescindedIndicator&#45;&gt;niem&#45;xs:boolean -->
<g id="edge2" class="edge">
<title>j:HearingDecisionRescindedIndicator&#45;&gt;niem&#45;xs:boolean</title>
<path fill="none" stroke="#000000" d="M418.0901,-24C435.0115,-24 451.8099,-24 466.8589,-24"/>
<polygon fill="#000000" stroke="#000000" points="466.978,-27.5001 476.9779,-24 466.9779,-20.5001 466.978,-27.5001"/>
<text text-anchor="middle" x="447.5" y="-27.4" font-family="Helvetica,sans-Serif" font-size="12.00" fill="#000000">type</text>
</g>
<!-- Types -->
<g id="node2" class="node">
<title>Types</title>
<text text-anchor="start" x="2.5" y="-21.4" font-family="Helvetica,sans-Serif" font-weight="bold" font-size="12.00" fill="#000000">Types</text>
<g id="a_node2_1"><a xlink:href="../../j/HearingDecisionType/#diagram" xlink:title="A data type for an outcome decision or disposition of a hearing." target="_top">
<polygon fill="#ebebeb" stroke="transparent" points="1.5,-1 1.5,-16 124.5,-16 124.5,-1 1.5,-1"/>
<text text-anchor="start" x="2.5" y="-5.4" font-family="Helvetica,sans-Serif" font-size="12.00" fill="#000000">j:HearingDecisionType</text>
</a>
</g>
<polygon fill="#000000" stroke="#000000" points=".5,-16 .5,-16 125.5,-16 125.5,-16 .5,-16"/>
<polygon fill="none" stroke="#000000" points="0,0 0,-32 125,-32 125,0 0,0"/>
</g>
<!-- Types&#45;&gt;j:HearingDecisionRescindedIndicator -->
<g id="edge1" class="edge">
<title>Types:top&#45;&gt;j:HearingDecisionRescindedIndicator</title>
<path fill="none" stroke="#000000" d="M124.5,-24C142.9612,-24 162.4844,-24 181.6033,-24"/>
<polygon fill="#000000" stroke="#000000" points="181.864,-27.5001 191.8639,-24 181.8639,-20.5001 181.864,-27.5001"/>
<text text-anchor="middle" x="158.5" y="-27.4" font-family="Helvetica,sans-Serif" font-size="12.00" fill="#000000">has&#45;a</text>
</g>
</g>
</svg>
