<?xml version="1.0" encoding="UTF-8" standalone="no"?>
<!DOCTYPE svg PUBLIC "-//W3C//DTD SVG 1.1//EN"
 "http://www.w3.org/Graphics/SVG/1.1/DTD/svg11.dtd">
<!-- Generated by graphviz version 2.40.1 (20161225.0304)
 -->
<!-- Title: graphic Pages: 1 -->
<svg width="697pt" height="45pt"
 viewBox="0.00 0.00 697.00 45.00" xmlns="http://www.w3.org/2000/svg" xmlns:xlink="http://www.w3.org/1999/xlink">
<g id="graph0" class="graph" transform="scale(1 1) rotate(0) translate(4 41)">
<title>graphic</title>
<polygon fill="#ffffff" stroke="transparent" points="-4,4 -4,-41 693,-41 693,4 -4,4"/>
<!-- em:RetiredX509CertificateForKeyManagement -->
<g id="node1" class="node">
<title>em:RetiredX509CertificateForKeyManagement</title>
<text text-anchor="start" x="278.5" y="-21.4" font-family="Helvetica,sans-Serif" font-weight="bold" font-size="12.00" fill="#000000">em:RetiredX509CertificateForKeyManagement</text>
<polygon fill="none" stroke="#ff0000" stroke-width="5" points="274.5,-14 274.5,-34 546.5,-34 546.5,-14 274.5,-14"/>
</g>
<!-- nc:BinaryType -->
<g id="node3" class="node">
<title>nc:BinaryType</title>
<g id="a_node3_0"><a xlink:href="../../nc/BinaryType/#diagram" xlink:title="A data type for a digital representation of an object encoded in a binary format." target="_top">
<text text-anchor="start" x="610.5" y="-20.4" font-family="Helvetica,sans-Serif" font-size="12.00" fill="#000000">nc:BinaryType</text>
</a>
</g>
<polygon fill="none" stroke="#000000" points="608,-15.5 608,-32.5 689,-32.5 689,-15.5 608,-15.5"/>
</g>
<!-- em:RetiredX509CertificateForKeyManagement&#45;&gt;nc:BinaryType -->
<g id="edge2" class="edge">
<title>em:RetiredX509CertificateForKeyManagement&#45;&gt;nc:BinaryType</title>
<path fill="none" stroke="#000000" d="M549.29,-24C566.3611,-24 582.8732,-24 597.3675,-24"/>
<polygon fill="#000000" stroke="#000000" points="597.5441,-27.5001 607.544,-24 597.544,-20.5001 597.5441,-27.5001"/>
<text text-anchor="middle" x="578.5" y="-27.4" font-family="Helvetica,sans-Serif" font-size="12.00" fill="#000000">type</text>
</g>
<!-- Types -->
<g id="node2" class="node">
<title>Types</title>
<text text-anchor="start" x="2.5" y="-21.4" font-family="Helvetica,sans-Serif" font-weight="bold" font-size="12.00" fill="#000000">Types</text>
<g id="a_node2_1"><a xlink:href="../../em/NISTSP800733PIVCardDataType/#diagram" xlink:title="A data type for fields contained on a PIV card" target="_top">
<polygon fill="#ebebeb" stroke="transparent" points="1.5,-1 1.5,-16 204.5,-16 204.5,-1 1.5,-1"/>
<text text-anchor="start" x="2.5" y="-5.4" font-family="Helvetica,sans-Serif" font-size="12.00" fill="#000000">em:NISTSP800733PIVCardDataType</text>
</a>
</g>
<polygon fill="#000000" stroke="#000000" points=".5,-16 .5,-16 205.5,-16 205.5,-16 .5,-16"/>
<polygon fill="none" stroke="#000000" points="0,0 0,-32 205,-32 205,0 0,0"/>
</g>
<!-- Types&#45;&gt;em:RetiredX509CertificateForKeyManagement -->
<g id="edge1" class="edge">
<title>Types:top&#45;&gt;em:RetiredX509CertificateForKeyManagement</title>
<path fill="none" stroke="#000000" d="M204.5,-24C223.0777,-24 242.5977,-24 261.9129,-24"/>
<polygon fill="#000000" stroke="#000000" points="261.9887,-27.5001 271.9887,-24 261.9886,-20.5001 261.9887,-27.5001"/>
<text text-anchor="middle" x="238.5" y="-27.4" font-family="Helvetica,sans-Serif" font-size="12.00" fill="#000000">has&#45;a</text>
</g>
</g>
</svg>
