<?xml version="1.0" encoding="UTF-8" standalone="no"?>
<!DOCTYPE svg PUBLIC "-//W3C//DTD SVG 1.1//EN"
 "http://www.w3.org/Graphics/SVG/1.1/DTD/svg11.dtd">
<!-- Generated by graphviz version 2.40.1 (20161225.0304)
 -->
<!-- Title: graphic Pages: 1 -->
<svg width="507pt" height="131pt"
 viewBox="0.00 0.00 507.00 130.50" xmlns="http://www.w3.org/2000/svg" xmlns:xlink="http://www.w3.org/1999/xlink">
<g id="graph0" class="graph" transform="scale(1 1) rotate(0) translate(4 126.5)">
<title>graphic</title>
<polygon fill="#ffffff" stroke="transparent" points="-4,4 -4,-126.5 503,-126.5 503,4 -4,4"/>
<!-- nc:IntegerRangeType -->
<g id="node1" class="node">
<title>nc:IntegerRangeType</title>
<text text-anchor="start" x="205" y="-55.4" font-family="Helvetica,sans-Serif" font-weight="bold" font-size="12.00" fill="#000000">nc:IntegerRangeType</text>
<g id="a_node1_0"><a xlink:href="../../nc/RangeMaximumIntegerValue/#diagram" xlink:title="A maximum value of a range." target="_top">
<polygon fill="#ebebeb" stroke="transparent" points="204,-35 204,-50 494,-50 494,-35 204,-35"/>
<text text-anchor="start" x="205" y="-39.4" font-family="Helvetica,sans-Serif" font-size="12.00" fill="#000000">nc:RangeMaximumIntegerValue: niem&#45;xs:integer [0&#45;n]</text>
</a>
</g>
<g id="a_node1_1"><a xlink:href="../../nc/RangeMinimumIntegerValue/#diagram" xlink:title="A minimum value of a range." target="_top">
<text text-anchor="start" x="205" y="-24.4" font-family="Helvetica,sans-Serif" font-size="12.00" fill="#000000">nc:RangeMinimumIntegerValue: niem&#45;xs:integer [0&#45;n]</text>
</a>
</g>
<g id="a_node1_2"><a xlink:href="../../nc/IntegerRangeAugmentationPoint/#diagram" xlink:title="An augmentation point for IntegerRangeType." target="_top">
<polygon fill="#ebebeb" stroke="transparent" points="204,-5 204,-20 494,-20 494,-5 204,-5"/>
<text text-anchor="start" x="205" y="-9.4" font-family="Helvetica,sans-Serif" font-size="12.00" fill="#000000">nc:IntegerRangeAugmentationPoint [0&#45;n]</text>
</a>
</g>
<polygon fill="#ff0000" stroke="#ff0000" points="199,-50 199,-50 499,-50 499,-50 199,-50"/>
<polygon fill="none" stroke="#ff0000" stroke-width="5" points="201.5,-2.5 201.5,-67.5 496.5,-67.5 496.5,-2.5 201.5,-2.5"/>
</g>
<!-- Properties -->
<g id="node2" class="node">
<title>Properties</title>
<text text-anchor="start" x="2" y="-55.4" font-family="Helvetica,sans-Serif" font-weight="bold" font-size="12.00" fill="#000000">Properties</text>
<g id="a_node2_3"><a xlink:href="../../nc/MeasureIntegerRange/#diagram" xlink:title="An integer measurement range." target="_top">
<polygon fill="#ebebeb" stroke="transparent" points="1,-35 1,-50 139,-50 139,-35 1,-35"/>
<text text-anchor="start" x="2" y="-39.4" font-family="Helvetica,sans-Serif" font-size="12.00" fill="#000000">nc:MeasureIntegerRange</text>
</a>
</g>
<polygon fill="#000000" stroke="#000000" points="0,-50 0,-50 140,-50 140,-50 0,-50"/>
<polygon fill="none" stroke="#000000" points="0,-34 0,-66 140,-66 140,-34 0,-34"/>
</g>
<!-- Properties&#45;&gt;nc:IntegerRangeType -->
<g id="edge1" class="edge">
<title>Properties:top&#45;&gt;nc:IntegerRangeType:top</title>
<path fill="none" stroke="#000000" d="M139,-58C164.1649,-58 172.8891,-58 193.8154,-58"/>
<polygon fill="#000000" stroke="#000000" points="194,-61.5001 204,-58 194,-54.5001 194,-61.5001"/>
<text text-anchor="middle" x="169.5" y="-61.4" font-family="Helvetica,sans-Serif" font-size="12.00" fill="#000000">type</text>
</g>
<!-- structures:ObjectType -->
<g id="node3" class="node">
<title>structures:ObjectType</title>
<g id="a_node3_4"><a xlink:href="../../structures/ObjectType/#diagram" xlink:title="A data type for a thing with its own lifespan that has some existence." target="_top">
<text text-anchor="start" x="290" y="-110.4" font-family="Helvetica,sans-Serif" font-size="12.00" fill="#000000">structures:ObjectType</text>
</a>
</g>
<polygon fill="none" stroke="#000000" points="288,-105.5 288,-122.5 410,-122.5 410,-105.5 288,-105.5"/>
</g>
<!-- structures:ObjectType&#45;&gt;nc:IntegerRangeType -->
<g id="edge2" class="edge">
<title>structures:ObjectType&#45;&gt;nc:IntegerRangeType</title>
<path fill="none" stroke="#000000" d="M349,-105.4117C349,-99.1025 349,-89.9911 349,-80.4049"/>
<polygon fill="#000000" stroke="#000000" points="352.5001,-80.3408 349,-70.3408 345.5001,-80.3409 352.5001,-80.3408"/>
<text text-anchor="middle" x="339.5" y="-84.65" font-family="Helvetica,sans-Serif" font-size="12.00" fill="#000000">extension</text>
</g>
</g>
</svg>
