<?xml version="1.0" encoding="UTF-8" standalone="no"?>
<!DOCTYPE svg PUBLIC "-//W3C//DTD SVG 1.1//EN"
 "http://www.w3.org/Graphics/SVG/1.1/DTD/svg11.dtd">
<!-- Generated by graphviz version 2.40.1 (20161225.0304)
 -->
<!-- Title: graphic Pages: 1 -->
<svg width="583pt" height="224pt"
 viewBox="0.00 0.00 583.00 224.00" xmlns="http://www.w3.org/2000/svg" xmlns:xlink="http://www.w3.org/1999/xlink">
<g id="graph0" class="graph" transform="scale(1 1) rotate(0) translate(4 220)">
<title>graphic</title>
<polygon fill="#ffffff" stroke="transparent" points="-4,4 -4,-220 579,-220 579,4 -4,4"/>
<!-- stat:BusinessFunctionType -->
<g id="node1" class="node">
<title>stat:BusinessFunctionType</title>
<text text-anchor="start" x="322.5" y="-95.9" font-family="Helvetica,sans-Serif" font-weight="bold" font-size="12.00" fill="#000000">stat:BusinessFunctionType</text>
<g id="a_node1_0"><a xlink:href="../../stat/BusinessFunctionAugmentationPoint/#diagram" xlink:title="An augmentation point for type stat:BusinessFunctionType" target="_top">
<polygon fill="#ebebeb" stroke="transparent" points="321.5,-75.5 321.5,-90.5 570.5,-90.5 570.5,-75.5 321.5,-75.5"/>
<text text-anchor="start" x="322.5" y="-79.9" font-family="Helvetica,sans-Serif" font-size="12.00" fill="#000000">stat:BusinessFunctionAugmentationPoint [0&#45;n]</text>
</a>
</g>
<polygon fill="#ff0000" stroke="#ff0000" points="316.5,-90.5 316.5,-90.5 575.5,-90.5 575.5,-90.5 316.5,-90.5"/>
<polygon fill="none" stroke="#ff0000" stroke-width="5" points="318.5,-73 318.5,-108 572.5,-108 572.5,-73 318.5,-73"/>
</g>
<!-- Properties -->
<g id="node2" class="node">
<title>Properties</title>
<text text-anchor="start" x="2.5" y="-95.9" font-family="Helvetica,sans-Serif" font-weight="bold" font-size="12.00" fill="#000000">Properties</text>
<g id="a_node2_1"><a xlink:href="../../stat/BusinessFunction/#diagram" xlink:title="A thing an enterprise does, or needs to do, in order to achieve its objectives." target="_top">
<polygon fill="#ebebeb" stroke="transparent" points="1.5,-75.5 1.5,-90.5 256.5,-90.5 256.5,-75.5 1.5,-75.5"/>
<text text-anchor="start" x="2.5" y="-79.9" font-family="Helvetica,sans-Serif" font-size="12.00" fill="#000000">stat:BusinessFunction</text>
</a>
</g>
<g id="a_node2_2"><a xlink:href="../../stat/BusinessProcessBusinessFunction/#diagram" xlink:title="A business function performed by a business process." target="_top">
<text text-anchor="start" x="2.5" y="-64.9" font-family="Helvetica,sans-Serif" font-size="12.00" fill="#000000">stat:BusinessProcessBusinessFunction</text>
</a>
</g>
<g id="a_node2_3"><a xlink:href="../../stat/BusinessServiceBusinessFunction/#diagram" xlink:title="A business function delivered by a business service." target="_top">
<polygon fill="#ebebeb" stroke="transparent" points="1.5,-45.5 1.5,-60.5 256.5,-60.5 256.5,-45.5 1.5,-45.5"/>
<text text-anchor="start" x="2.5" y="-49.9" font-family="Helvetica,sans-Serif" font-size="12.00" fill="#000000">stat:BusinessServiceBusinessFunction</text>
</a>
</g>
<g id="a_node2_4"><a xlink:href="../../stat/ProcessDesignSpecifiedBusinessFunction/#diagram" xlink:title="A business function of which a process design specifies delivery." target="_top">
<text text-anchor="start" x="2.5" y="-34.9" font-family="Helvetica,sans-Serif" font-size="12.00" fill="#000000">stat:ProcessDesignSpecifiedBusinessFunction</text>
</a>
</g>
<g id="a_node2_5"><a xlink:href="../../stat/ProcessPatternBusinessFunction/#diagram" xlink:title="A business function supported by a process pattern." target="_top">
<polygon fill="#ebebeb" stroke="transparent" points="1.5,-15.5 1.5,-30.5 256.5,-30.5 256.5,-15.5 1.5,-15.5"/>
<text text-anchor="start" x="2.5" y="-19.9" font-family="Helvetica,sans-Serif" font-size="12.00" fill="#000000">stat:ProcessPatternBusinessFunction</text>
</a>
</g>
<g id="a_node2_6"><a xlink:href="../../stat/StatisticalProgramDesignBusinessFunction/#diagram" xlink:title="A business function used by a statistical program design." target="_top">
<text text-anchor="start" x="2.5" y="-4.9" font-family="Helvetica,sans-Serif" font-size="12.00" fill="#000000">stat:StatisticalProgramDesignBusinessFunction</text>
</a>
</g>
<polygon fill="#000000" stroke="#000000" points=".5,-90.5 .5,-90.5 257.5,-90.5 257.5,-90.5 .5,-90.5"/>
<polygon fill="none" stroke="#000000" points="0,0 0,-107 257,-107 257,0 0,0"/>
</g>
<!-- Properties&#45;&gt;stat:BusinessFunctionType -->
<g id="edge1" class="edge">
<title>Properties:top&#45;&gt;stat:BusinessFunctionType:top</title>
<path fill="none" stroke="#000000" d="M256.5,-98.5C281.6649,-98.5 290.3891,-98.5 311.3154,-98.5"/>
<polygon fill="#000000" stroke="#000000" points="311.5,-102.0001 321.5,-98.5 311.5,-95.0001 311.5,-102.0001"/>
<text text-anchor="middle" x="286.5" y="-101.9" font-family="Helvetica,sans-Serif" font-size="12.00" fill="#000000">type</text>
</g>
<!-- stat:IdentifiableArtifactType -->
<g id="node3" class="node">
<title>stat:IdentifiableArtifactType</title>
<g id="a_node3_7"><a xlink:href="../../stat/IdentifiableArtifactType/#diagram" xlink:title="A data type for an abstract class that comprises the basic attributes and associations needed for identification, naming and other documentation." target="_top">
<text text-anchor="start" x="373.5" y="-150.9" font-family="Helvetica,sans-Serif" font-size="12.00" fill="#000000">stat:IdentifiableArtifactType</text>
</a>
</g>
<polygon fill="none" stroke="#000000" points="371,-146 371,-163 520,-163 520,-146 371,-146"/>
</g>
<!-- stat:IdentifiableArtifactType&#45;&gt;stat:BusinessFunctionType -->
<g id="edge2" class="edge">
<title>stat:IdentifiableArtifactType&#45;&gt;stat:BusinessFunctionType</title>
<path fill="none" stroke="#000000" d="M445.5,-145.9351C445.5,-139.431 445.5,-130.0678 445.5,-120.8827"/>
<polygon fill="#000000" stroke="#000000" points="449.0001,-120.75 445.5,-110.75 442.0001,-120.75 449.0001,-120.75"/>
<text text-anchor="middle" x="436" y="-125.15" font-family="Helvetica,sans-Serif" font-size="12.00" fill="#000000">extension</text>
</g>
<!-- structures:ObjectType -->
<g id="node4" class="node">
<title>structures:ObjectType</title>
<g id="a_node4_8"><a xlink:href="../../structures/ObjectType/#diagram" xlink:title="A data type for a thing with its own lifespan that has some existence." target="_top">
<text text-anchor="start" x="386.5" y="-203.9" font-family="Helvetica,sans-Serif" font-size="12.00" fill="#000000">structures:ObjectType</text>
</a>
</g>
<polygon fill="none" stroke="#000000" points="384.5,-199 384.5,-216 506.5,-216 506.5,-199 384.5,-199"/>
</g>
<!-- structures:ObjectType&#45;&gt;stat:IdentifiableArtifactType -->
<g id="edge3" class="edge">
<title>structures:ObjectType&#45;&gt;stat:IdentifiableArtifactType</title>
<path fill="none" stroke="#000000" d="M445.5,-198.911C445.5,-192.0124 445.5,-182.0696 445.5,-173.34"/>
<polygon fill="#000000" stroke="#000000" points="449.0001,-173.2518 445.5,-163.2519 442.0001,-173.2519 449.0001,-173.2518"/>
<text text-anchor="middle" x="436" y="-177.9" font-family="Helvetica,sans-Serif" font-size="12.00" fill="#000000">extension</text>
</g>
</g>
</svg>
