<?xml version="1.0" encoding="UTF-8" standalone="no"?>
<!DOCTYPE svg PUBLIC "-//W3C//DTD SVG 1.1//EN"
 "http://www.w3.org/Graphics/SVG/1.1/DTD/svg11.dtd">
<!-- Generated by graphviz version 2.40.1 (20161225.0304)
 -->
<!-- Title: graphic Pages: 1 -->
<svg width="452pt" height="45pt"
 viewBox="0.00 0.00 452.00 45.00" xmlns="http://www.w3.org/2000/svg" xmlns:xlink="http://www.w3.org/1999/xlink">
<g id="graph0" class="graph" transform="scale(1 1) rotate(0) translate(4 41)">
<title>graphic</title>
<polygon fill="#ffffff" stroke="transparent" points="-4,4 -4,-41 448,-41 448,4 -4,4"/>
<!-- it:Warehouse -->
<g id="node1" class="node">
<title>it:Warehouse</title>
<text text-anchor="start" x="200.5" y="-21.4" font-family="Helvetica,sans-Serif" font-weight="bold" font-size="12.00" fill="#000000">it:Warehouse</text>
<polygon fill="none" stroke="#ff0000" stroke-width="5" points="196.5,-14 196.5,-34 280.5,-34 280.5,-14 196.5,-14"/>
</g>
<!-- it:WarehouseType -->
<g id="node3" class="node">
<title>it:WarehouseType</title>
<g id="a_node3_0"><a xlink:href="../../it/WarehouseType/#diagram" xlink:title="A data type for a warehouse" target="_top">
<text text-anchor="start" x="344" y="-20.4" font-family="Helvetica,sans-Serif" font-size="12.00" fill="#000000">it:WarehouseType</text>
</a>
</g>
<polygon fill="none" stroke="#000000" points="342,-15.5 342,-32.5 444,-32.5 444,-15.5 342,-15.5"/>
</g>
<!-- it:Warehouse&#45;&gt;it:WarehouseType -->
<g id="edge2" class="edge">
<title>it:Warehouse&#45;&gt;it:WarehouseType</title>
<path fill="none" stroke="#000000" d="M283.1878,-24C298.2478,-24 315.3287,-24 331.4561,-24"/>
<polygon fill="#000000" stroke="#000000" points="331.8856,-27.5001 341.8856,-24 331.8856,-20.5001 331.8856,-27.5001"/>
<text text-anchor="middle" x="312.5" y="-27.4" font-family="Helvetica,sans-Serif" font-size="12.00" fill="#000000">type</text>
</g>
<!-- Types -->
<g id="node2" class="node">
<title>Types</title>
<text text-anchor="start" x="2.5" y="-21.4" font-family="Helvetica,sans-Serif" font-weight="bold" font-size="12.00" fill="#000000">Types</text>
<g id="a_node2_1"><a xlink:href="../../it/GoodsShipmentType/#diagram" xlink:title="A data type for a shipment of goods" target="_top">
<polygon fill="#ebebeb" stroke="transparent" points="1.5,-1 1.5,-16 126.5,-16 126.5,-1 1.5,-1"/>
<text text-anchor="start" x="2.5" y="-5.4" font-family="Helvetica,sans-Serif" font-size="12.00" fill="#000000">it:GoodsShipmentType</text>
</a>
</g>
<polygon fill="#000000" stroke="#000000" points=".5,-16 .5,-16 127.5,-16 127.5,-16 .5,-16"/>
<polygon fill="none" stroke="#000000" points="0,0 0,-32 127,-32 127,0 0,0"/>
</g>
<!-- Types&#45;&gt;it:Warehouse -->
<g id="edge1" class="edge">
<title>Types:top&#45;&gt;it:Warehouse</title>
<path fill="none" stroke="#000000" d="M126.5,-24C145.1165,-24 165.4737,-24 183.6656,-24"/>
<polygon fill="#000000" stroke="#000000" points="183.8098,-27.5001 193.8097,-24 183.8097,-20.5001 183.8098,-27.5001"/>
<text text-anchor="middle" x="160.5" y="-27.4" font-family="Helvetica,sans-Serif" font-size="12.00" fill="#000000">has&#45;a</text>
</g>
</g>
</svg>
