<?xml version="1.0" encoding="UTF-8" standalone="no"?>
<!DOCTYPE svg PUBLIC "-//W3C//DTD SVG 1.1//EN"
 "http://www.w3.org/Graphics/SVG/1.1/DTD/svg11.dtd">
<!-- Generated by graphviz version 2.40.1 (20161225.0304)
 -->
<!-- Title: graphic Pages: 1 -->
<svg width="556pt" height="60pt"
 viewBox="0.00 0.00 556.00 59.50" xmlns="http://www.w3.org/2000/svg" xmlns:xlink="http://www.w3.org/1999/xlink">
<g id="graph0" class="graph" transform="scale(1 1) rotate(0) translate(4 55.5)">
<title>graphic</title>
<polygon fill="#ffffff" stroke="transparent" points="-4,4 -4,-55.5 552,-55.5 552,4 -4,4"/>
<!-- scr:BirthplaceNearLargeCityName -->
<g id="node1" class="node">
<title>scr:BirthplaceNearLargeCityName</title>
<text text-anchor="start" x="216" y="-35.9" font-family="Helvetica,sans-Serif" font-weight="bold" font-size="12.00" fill="#000000">scr:BirthplaceNearLargeCityName</text>
<polygon fill="none" stroke="#ff0000" stroke-width="5" points="212.5,-28.5 212.5,-48.5 415.5,-48.5 415.5,-28.5 212.5,-28.5"/>
</g>
<!-- nc:TextType -->
<g id="node3" class="node">
<title>nc:TextType</title>
<g id="a_node3_0"><a xlink:href="../../nc/TextType/#diagram" xlink:title="A data type for a character string." target="_top">
<text text-anchor="start" x="479.5" y="-34.9" font-family="Helvetica,sans-Serif" font-size="12.00" fill="#000000">nc:TextType</text>
</a>
</g>
<polygon fill="none" stroke="#000000" points="477,-30 477,-47 548,-47 548,-30 477,-30"/>
</g>
<!-- scr:BirthplaceNearLargeCityName&#45;&gt;nc:TextType -->
<g id="edge2" class="edge">
<title>scr:BirthplaceNearLargeCityName&#45;&gt;nc:TextType</title>
<path fill="none" stroke="#000000" d="M418.1913,-38.5C435.2138,-38.5 452.0419,-38.5 466.6662,-38.5"/>
<polygon fill="#000000" stroke="#000000" points="466.8968,-42.0001 476.8967,-38.5 466.8967,-35.0001 466.8968,-42.0001"/>
<text text-anchor="middle" x="447.5" y="-41.9" font-family="Helvetica,sans-Serif" font-size="12.00" fill="#000000">type</text>
</g>
<!-- Types -->
<g id="node2" class="node">
<title>Types</title>
<text text-anchor="start" x="2.5" y="-35.9" font-family="Helvetica,sans-Serif" font-weight="bold" font-size="12.00" fill="#000000">Types</text>
<g id="a_node2_1"><a xlink:href="../../scr/BiographicType/#diagram" xlink:title="A data type for description of a PERSON at a specific point in time" target="_top">
<polygon fill="#ebebeb" stroke="transparent" points="1.5,-15.5 1.5,-30.5 142.5,-30.5 142.5,-15.5 1.5,-15.5"/>
<text text-anchor="start" x="2.5" y="-19.9" font-family="Helvetica,sans-Serif" font-size="12.00" fill="#000000">scr:BiographicType</text>
</a>
</g>
<g id="a_node2_2"><a xlink:href="../../scr/ScreeningPersonType/#diagram" xlink:title="A data type for additional information about Persons being Screened" target="_top">
<text text-anchor="start" x="2.5" y="-4.9" font-family="Helvetica,sans-Serif" font-size="12.00" fill="#000000">scr:ScreeningPersonType</text>
</a>
</g>
<polygon fill="#000000" stroke="#000000" points=".5,-30.5 .5,-30.5 143.5,-30.5 143.5,-30.5 .5,-30.5"/>
<polygon fill="none" stroke="#000000" points="0,0 0,-47 143,-47 143,0 0,0"/>
</g>
<!-- Types&#45;&gt;scr:BirthplaceNearLargeCityName -->
<g id="edge1" class="edge">
<title>Types:top&#45;&gt;scr:BirthplaceNearLargeCityName</title>
<path fill="none" stroke="#000000" d="M142.5,-38.5C160.924,-38.5 180.4614,-38.5 199.4974,-38.5"/>
<polygon fill="#000000" stroke="#000000" points="199.7031,-42.0001 209.7031,-38.5 199.7031,-35.0001 199.7031,-42.0001"/>
<text text-anchor="middle" x="176.5" y="-41.9" font-family="Helvetica,sans-Serif" font-size="12.00" fill="#000000">has&#45;a</text>
</g>
</g>
</svg>
