<?xml version="1.0" encoding="UTF-8" standalone="no"?>
<!DOCTYPE svg PUBLIC "-//W3C//DTD SVG 1.1//EN"
 "http://www.w3.org/Graphics/SVG/1.1/DTD/svg11.dtd">
<!-- Generated by graphviz version 2.40.1 (20161225.0304)
 -->
<!-- Title: graphic Pages: 1 -->
<svg width="580pt" height="45pt"
 viewBox="0.00 0.00 580.00 45.00" xmlns="http://www.w3.org/2000/svg" xmlns:xlink="http://www.w3.org/1999/xlink">
<g id="graph0" class="graph" transform="scale(1 1) rotate(0) translate(4 41)">
<title>graphic</title>
<polygon fill="#ffffff" stroke="transparent" points="-4,4 -4,-41 576,-41 576,4 -4,4"/>
<!-- im:FormUsageTotalQuantity -->
<g id="node1" class="node">
<title>im:FormUsageTotalQuantity</title>
<text text-anchor="start" x="253" y="-21.4" font-family="Helvetica,sans-Serif" font-weight="bold" font-size="12.00" fill="#000000">im:FormUsageTotalQuantity</text>
<polygon fill="none" stroke="#ff0000" stroke-width="5" points="249.5,-14 249.5,-34 418.5,-34 418.5,-14 249.5,-14"/>
</g>
<!-- nc:QuantityType -->
<g id="node3" class="node">
<title>nc:QuantityType</title>
<g id="a_node3_0"><a xlink:href="../../nc/QuantityType/#diagram" xlink:title="A data type for a count or tally." target="_top">
<text text-anchor="start" x="482" y="-20.4" font-family="Helvetica,sans-Serif" font-size="12.00" fill="#000000">nc:QuantityType</text>
</a>
</g>
<polygon fill="none" stroke="#000000" points="480,-15.5 480,-32.5 572,-32.5 572,-15.5 480,-15.5"/>
</g>
<!-- im:FormUsageTotalQuantity&#45;&gt;nc:QuantityType -->
<g id="edge2" class="edge">
<title>im:FormUsageTotalQuantity&#45;&gt;nc:QuantityType</title>
<path fill="none" stroke="#000000" d="M421.0117,-24C437.5381,-24 454.4229,-24 469.6839,-24"/>
<polygon fill="#000000" stroke="#000000" points="469.9655,-27.5001 479.9654,-24 469.9654,-20.5001 469.9655,-27.5001"/>
<text text-anchor="middle" x="450.5" y="-27.4" font-family="Helvetica,sans-Serif" font-size="12.00" fill="#000000">type</text>
</g>
<!-- Types -->
<g id="node2" class="node">
<title>Types</title>
<text text-anchor="start" x="2" y="-21.4" font-family="Helvetica,sans-Serif" font-weight="bold" font-size="12.00" fill="#000000">Types</text>
<g id="a_node2_1"><a xlink:href="../../im/ExchangeVisitorProgramType/#diagram" xlink:title="A data type for the educational or training program authorized for non&#45;immigrant alien exchange visitors." target="_top">
<polygon fill="#ebebeb" stroke="transparent" points="1,-1 1,-16 179,-16 179,-1 1,-1"/>
<text text-anchor="start" x="2" y="-5.4" font-family="Helvetica,sans-Serif" font-size="12.00" fill="#000000">im:ExchangeVisitorProgramType</text>
</a>
</g>
<polygon fill="#000000" stroke="#000000" points="0,-16 0,-16 180,-16 180,-16 0,-16"/>
<polygon fill="none" stroke="#000000" points="0,0 0,-32 180,-32 180,0 0,0"/>
</g>
<!-- Types&#45;&gt;im:FormUsageTotalQuantity -->
<g id="edge1" class="edge">
<title>Types:top&#45;&gt;im:FormUsageTotalQuantity</title>
<path fill="none" stroke="#000000" d="M179,-24C197.5903,-24 217.4348,-24 236.5028,-24"/>
<polygon fill="#000000" stroke="#000000" points="236.6966,-27.5001 246.6966,-24 236.6966,-20.5001 236.6966,-27.5001"/>
<text text-anchor="middle" x="213.5" y="-27.4" font-family="Helvetica,sans-Serif" font-size="12.00" fill="#000000">has&#45;a</text>
</g>
</g>
</svg>
