<?xml version="1.0" encoding="UTF-8" standalone="no"?>
<!DOCTYPE svg PUBLIC "-//W3C//DTD SVG 1.1//EN"
 "http://www.w3.org/Graphics/SVG/1.1/DTD/svg11.dtd">
<!-- Generated by graphviz version 2.40.1 (20161225.0304)
 -->
<!-- Title: graphic Pages: 1 -->
<svg width="328pt" height="154pt"
 viewBox="0.00 0.00 328.00 153.50" xmlns="http://www.w3.org/2000/svg" xmlns:xlink="http://www.w3.org/1999/xlink">
<g id="graph0" class="graph" transform="scale(1 1) rotate(0) translate(4 149.5)">
<title>graphic</title>
<polygon fill="#ffffff" stroke="transparent" points="-4,4 -4,-149.5 324,-149.5 324,4 -4,4"/>
<!-- biom:CaptureDeviceMonitoringModeCodeSimpleType -->
<g id="node1" class="node">
<title>biom:CaptureDeviceMonitoringModeCodeSimpleType</title>
<text text-anchor="start" x="6" y="-77.4" font-family="Helvetica,sans-Serif" font-weight="bold" font-size="12.00" fill="#000000">biom:CaptureDeviceMonitoringModeCodeSimpleType</text>
<polygon fill="none" stroke="#ff0000" stroke-width="5" points="2.5,-70 2.5,-90 317.5,-90 317.5,-70 2.5,-70"/>
</g>
<!-- DerivedTypes -->
<g id="node2" class="node">
<title>DerivedTypes</title>
<text text-anchor="start" x="35" y="-21.4" font-family="Helvetica,sans-Serif" font-weight="bold" font-size="12.00" fill="#000000">Derived types</text>
<g id="a_node2_0"><a xlink:href="../../biom/CaptureDeviceMonitoringModeCodeType/#diagram" xlink:title="A data type for a level of human monitoring for an image capture device" target="_top">
<polygon fill="#ebebeb" stroke="transparent" points="34,-1 34,-16 287,-16 287,-1 34,-1"/>
<text text-anchor="start" x="35" y="-5.4" font-family="Helvetica,sans-Serif" font-size="12.00" fill="#000000">biom:CaptureDeviceMonitoringModeCodeType</text>
</a>
</g>
<polygon fill="#000000" stroke="#000000" points="33,-16 33,-16 288,-16 288,-16 33,-16"/>
<polygon fill="none" stroke="#000000" points="32.5,0 32.5,-32 287.5,-32 287.5,0 32.5,0"/>
</g>
<!-- biom:CaptureDeviceMonitoringModeCodeSimpleType&#45;&gt;DerivedTypes -->
<g id="edge1" class="edge">
<title>biom:CaptureDeviceMonitoringModeCodeSimpleType&#45;&gt;DerivedTypes</title>
<path fill="none" stroke="#000000" d="M160,-67.4892C160,-60.3101 160,-51.0172 160,-42.306"/>
<polygon fill="#000000" stroke="#000000" points="163.5001,-42.1499 160,-32.1499 156.5001,-42.1499 163.5001,-42.1499"/>
<text text-anchor="middle" x="150.5" y="-46.65" font-family="Helvetica,sans-Serif" font-size="12.00" fill="#000000">derived</text>
</g>
<!-- xs:token -->
<g id="node3" class="node">
<title>xs:token</title>
<g id="a_node3_1"><a xlink:href="../../xs/token/#diagram" xlink:title="&lt;TABLE&gt;" target="_top">
<text text-anchor="start" x="138" y="-133.4" font-family="Helvetica,sans-Serif" font-size="12.00" fill="#000000">xs:token</text>
</a>
</g>
<polygon fill="none" stroke="#000000" points="135.5,-128.5 135.5,-145.5 184.5,-145.5 184.5,-128.5 135.5,-128.5"/>
</g>
<!-- xs:token&#45;&gt;biom:CaptureDeviceMonitoringModeCodeSimpleType -->
<g id="edge2" class="edge">
<title>xs:token&#45;&gt;biom:CaptureDeviceMonitoringModeCodeSimpleType</title>
<path fill="none" stroke="#000000" d="M160,-128.4473C160,-121.6242 160,-111.7417 160,-102.6794"/>
<polygon fill="#000000" stroke="#000000" points="163.5001,-102.6501 160,-92.6501 156.5001,-102.6502 163.5001,-102.6501"/>
<text text-anchor="middle" x="150.5" y="-107.4" font-family="Helvetica,sans-Serif" font-size="12.00" fill="#000000">restriction</text>
</g>
</g>
</svg>
