<?xml version="1.0" encoding="UTF-8" standalone="no"?>
<!DOCTYPE svg PUBLIC "-//W3C//DTD SVG 1.1//EN"
 "http://www.w3.org/Graphics/SVG/1.1/DTD/svg11.dtd">
<!-- Generated by graphviz version 2.40.1 (20161225.0304)
 -->
<!-- Title: graphic Pages: 1 -->
<svg width="768pt" height="117pt"
 viewBox="0.00 0.00 768.00 116.50" xmlns="http://www.w3.org/2000/svg" xmlns:xlink="http://www.w3.org/1999/xlink">
<g id="graph0" class="graph" transform="scale(1 1) rotate(0) translate(4 112.5)">
<title>graphic</title>
<polygon fill="#ffffff" stroke="transparent" points="-4,4 -4,-112.5 764,-112.5 764,4 -4,4"/>
<!-- j:ConveyanceRegistrationStatusDetailAbstract -->
<g id="node1" class="node">
<title>j:ConveyanceRegistrationStatusDetailAbstract</title>
<text text-anchor="start" x="381.5" y="-92.9" font-family="Helvetica,sans-Serif" font-weight="bold" font-size="12.00" fill="#000000">j:ConveyanceRegistrationStatusDetailAbstract</text>
<polygon fill="none" stroke="#ff0000" stroke-width="5" points="377.5,-85.5 377.5,-105.5 651.5,-105.5 651.5,-85.5 377.5,-85.5"/>
</g>
<!-- SubstitutableElements -->
<g id="node3" class="node">
<title>SubstitutableElements</title>
<text text-anchor="start" x="271.5" y="-35.9" font-family="Helvetica,sans-Serif" font-weight="bold" font-size="12.00" fill="#000000">Substitutable elements</text>
<g id="a_node3_0"><a xlink:href="../../j/ConveyanceRegistrationStatusDetailCode/#diagram" xlink:title="An additional detail about a registration status." target="_top">
<polygon fill="#ebebeb" stroke="transparent" points="270.5,-15.5 270.5,-30.5 759.5,-30.5 759.5,-15.5 270.5,-15.5"/>
<text text-anchor="start" x="271.5" y="-19.9" font-family="Helvetica,sans-Serif" font-size="12.00" fill="#000000">j:ConveyanceRegistrationStatusDetailCode: aamva_d20:RegistrationStatusDetailCodeType</text>
</a>
</g>
<g id="a_node3_1"><a xlink:href="../../j/ConveyanceRegistrationStatusDetailText/#diagram" xlink:title="An additional detail about a registration status." target="_top">
<text text-anchor="start" x="271.5" y="-4.9" font-family="Helvetica,sans-Serif" font-size="12.00" fill="#000000">j:ConveyanceRegistrationStatusDetailText: nc:TextType</text>
</a>
</g>
<polygon fill="#000000" stroke="#000000" points="269.5,-30.5 269.5,-30.5 760.5,-30.5 760.5,-30.5 269.5,-30.5"/>
<polygon fill="none" stroke="#000000" points="269,0 269,-47 760,-47 760,0 269,0"/>
</g>
<!-- j:ConveyanceRegistrationStatusDetailAbstract&#45;&gt;SubstitutableElements -->
<g id="edge2" class="edge">
<title>j:ConveyanceRegistrationStatusDetailAbstract&#45;&gt;SubstitutableElements</title>
<path fill="none" stroke="#000000" d="M514.5,-72.9771C514.5,-64.7398 514.5,-55.4022 514.5,-47.0755"/>
<polygon fill="#000000" stroke="#000000" points="511.0001,-72.9945 514.5,-82.9945 518.0001,-72.9946 511.0001,-72.9945"/>
<text text-anchor="middle" x="505" y="-61.9" font-family="Helvetica,sans-Serif" font-size="12.00" fill="#000000">substitutable for</text>
</g>
<!-- Types -->
<g id="node2" class="node">
<title>Types</title>
<text text-anchor="start" x="2" y="-92.9" font-family="Helvetica,sans-Serif" font-weight="bold" font-size="12.00" fill="#000000">Types</text>
<g id="a_node2_2"><a xlink:href="../../j/ConveyanceRegistrationStatusType/#diagram" xlink:title="A data type for a state of registration of a conveyance." target="_top">
<polygon fill="#ebebeb" stroke="transparent" points="1,-72.5 1,-87.5 201,-87.5 201,-72.5 1,-72.5"/>
<text text-anchor="start" x="2" y="-76.9" font-family="Helvetica,sans-Serif" font-size="12.00" fill="#000000">j:ConveyanceRegistrationStatusType</text>
</a>
</g>
<polygon fill="#000000" stroke="#000000" points="0,-87.5 0,-87.5 202,-87.5 202,-87.5 0,-87.5"/>
<polygon fill="none" stroke="#000000" points="0,-71.5 0,-103.5 202,-103.5 202,-71.5 0,-71.5"/>
</g>
<!-- Types&#45;&gt;j:ConveyanceRegistrationStatusDetailAbstract -->
<g id="edge1" class="edge">
<title>Types:top&#45;&gt;j:ConveyanceRegistrationStatusDetailAbstract</title>
<path fill="none" stroke="#000000" d="M201,-95.5C254.3215,-95.5 312.7445,-95.5 364.5553,-95.5"/>
<polygon fill="#000000" stroke="#000000" points="364.8258,-99.0001 374.8258,-95.5 364.8258,-92.0001 364.8258,-99.0001"/>
<text text-anchor="middle" x="235.5" y="-98.9" font-family="Helvetica,sans-Serif" font-size="12.00" fill="#000000">has&#45;a</text>
</g>
</g>
</svg>
