<?xml version="1.0" encoding="UTF-8" standalone="no"?>
<!DOCTYPE svg PUBLIC "-//W3C//DTD SVG 1.1//EN"
 "http://www.w3.org/Graphics/SVG/1.1/DTD/svg11.dtd">
<!-- Generated by graphviz version 2.40.1 (20161225.0304)
 -->
<!-- Title: graphic Pages: 1 -->
<svg width="513pt" height="45pt"
 viewBox="0.00 0.00 513.00 45.00" xmlns="http://www.w3.org/2000/svg" xmlns:xlink="http://www.w3.org/1999/xlink">
<g id="graph0" class="graph" transform="scale(1 1) rotate(0) translate(4 41)">
<title>graphic</title>
<polygon fill="#ffffff" stroke="transparent" points="-4,4 -4,-41 509,-41 509,4 -4,4"/>
<!-- j:CurriculumGenderRestrictionText -->
<g id="node1" class="node">
<title>j:CurriculumGenderRestrictionText</title>
<text text-anchor="start" x="168.5" y="-21.4" font-family="Helvetica,sans-Serif" font-weight="bold" font-size="12.00" fill="#000000">j:CurriculumGenderRestrictionText</text>
<polygon fill="none" stroke="#ff0000" stroke-width="5" points="164.5,-14 164.5,-34 372.5,-34 372.5,-14 164.5,-14"/>
</g>
<!-- nc:TextType -->
<g id="node3" class="node">
<title>nc:TextType</title>
<g id="a_node3_0"><a xlink:href="../../nc/TextType/#diagram" xlink:title="A data type for a character string." target="_top">
<text text-anchor="start" x="436.5" y="-20.4" font-family="Helvetica,sans-Serif" font-size="12.00" fill="#000000">nc:TextType</text>
</a>
</g>
<polygon fill="none" stroke="#000000" points="434,-15.5 434,-32.5 505,-32.5 505,-15.5 434,-15.5"/>
</g>
<!-- j:CurriculumGenderRestrictionText&#45;&gt;nc:TextType -->
<g id="edge2" class="edge">
<title>j:CurriculumGenderRestrictionText&#45;&gt;nc:TextType</title>
<path fill="none" stroke="#000000" d="M375.1796,-24C392.2673,-24 409.1158,-24 423.7392,-24"/>
<polygon fill="#000000" stroke="#000000" points="423.9657,-27.5001 433.9657,-24 423.9657,-20.5001 423.9657,-27.5001"/>
<text text-anchor="middle" x="404.5" y="-27.4" font-family="Helvetica,sans-Serif" font-size="12.00" fill="#000000">type</text>
</g>
<!-- Types -->
<g id="node2" class="node">
<title>Types</title>
<text text-anchor="start" x="2.5" y="-21.4" font-family="Helvetica,sans-Serif" font-weight="bold" font-size="12.00" fill="#000000">Types</text>
<g id="a_node2_1"><a xlink:href="../../j/CurriculumType/#diagram" xlink:title="A data type for a collection of subjects comprising a course of study offered by an educational system or program." target="_top">
<polygon fill="#ebebeb" stroke="transparent" points="1.5,-1 1.5,-16 94.5,-16 94.5,-1 1.5,-1"/>
<text text-anchor="start" x="2.5" y="-5.4" font-family="Helvetica,sans-Serif" font-size="12.00" fill="#000000">j:CurriculumType</text>
</a>
</g>
<polygon fill="#000000" stroke="#000000" points=".5,-16 .5,-16 95.5,-16 95.5,-16 .5,-16"/>
<polygon fill="none" stroke="#000000" points="0,0 0,-32 95,-32 95,0 0,0"/>
</g>
<!-- Types&#45;&gt;j:CurriculumGenderRestrictionText -->
<g id="edge1" class="edge">
<title>Types:top&#45;&gt;j:CurriculumGenderRestrictionText</title>
<path fill="none" stroke="#000000" d="M94.5,-24C112.9365,-24 132.4719,-24 151.5343,-24"/>
<polygon fill="#000000" stroke="#000000" points="151.7572,-27.5001 161.7572,-24 151.7572,-20.5001 151.7572,-27.5001"/>
<text text-anchor="middle" x="128.5" y="-27.4" font-family="Helvetica,sans-Serif" font-size="12.00" fill="#000000">has&#45;a</text>
</g>
</g>
</svg>
