<?xml version="1.0" encoding="UTF-8" standalone="no"?>
<!DOCTYPE svg PUBLIC "-//W3C//DTD SVG 1.1//EN"
 "http://www.w3.org/Graphics/SVG/1.1/DTD/svg11.dtd">
<!-- Generated by graphviz version 2.40.1 (20161225.0304)
 -->
<!-- Title: graphic Pages: 1 -->
<svg width="695pt" height="45pt"
 viewBox="0.00 0.00 695.00 45.00" xmlns="http://www.w3.org/2000/svg" xmlns:xlink="http://www.w3.org/1999/xlink">
<g id="graph0" class="graph" transform="scale(1 1) rotate(0) translate(4 41)">
<title>graphic</title>
<polygon fill="#ffffff" stroke="transparent" points="-4,4 -4,-41 691,-41 691,4 -4,4"/>
<!-- em:InfectiousDiseaseSurveillance -->
<g id="node1" class="node">
<title>em:InfectiousDiseaseSurveillance</title>
<text text-anchor="start" x="216.5" y="-21.4" font-family="Helvetica,sans-Serif" font-weight="bold" font-size="12.00" fill="#000000">em:InfectiousDiseaseSurveillance</text>
<polygon fill="none" stroke="#ff0000" stroke-width="5" points="212.5,-14 212.5,-34 414.5,-34 414.5,-14 212.5,-14"/>
</g>
<!-- em:InfectiousDiseaseSurveillanceType -->
<g id="node3" class="node">
<title>em:InfectiousDiseaseSurveillanceType</title>
<g id="a_node3_0"><a xlink:href="../../em/InfectiousDiseaseSurveillanceType/#diagram" xlink:title="A data type for a situational analysis that pertains to infectious disease reporting and surveillance." target="_top">
<text text-anchor="start" x="478.5" y="-20.4" font-family="Helvetica,sans-Serif" font-size="12.00" fill="#000000">em:InfectiousDiseaseSurveillanceType</text>
</a>
</g>
<polygon fill="none" stroke="#000000" points="476,-15.5 476,-32.5 687,-32.5 687,-15.5 476,-15.5"/>
</g>
<!-- em:InfectiousDiseaseSurveillance&#45;&gt;em:InfectiousDiseaseSurveillanceType -->
<g id="edge2" class="edge">
<title>em:InfectiousDiseaseSurveillance&#45;&gt;em:InfectiousDiseaseSurveillanceType</title>
<path fill="none" stroke="#000000" d="M417.1158,-24C433.095,-24 449.6828,-24 465.9037,-24"/>
<polygon fill="#000000" stroke="#000000" points="465.9475,-27.5001 475.9475,-24 465.9474,-20.5001 465.9475,-27.5001"/>
<text text-anchor="middle" x="446.5" y="-27.4" font-family="Helvetica,sans-Serif" font-size="12.00" fill="#000000">type</text>
</g>
<!-- Types -->
<g id="node2" class="node">
<title>Types</title>
<text text-anchor="start" x="2.5" y="-21.4" font-family="Helvetica,sans-Serif" font-weight="bold" font-size="12.00" fill="#000000">Types</text>
<g id="a_node2_1"><a xlink:href="../../em/SituationAnalysisType/#diagram" xlink:title="A data type for a situational analysis." target="_top">
<polygon fill="#ebebeb" stroke="transparent" points="1.5,-1 1.5,-16 142.5,-16 142.5,-1 1.5,-1"/>
<text text-anchor="start" x="2.5" y="-5.4" font-family="Helvetica,sans-Serif" font-size="12.00" fill="#000000">em:SituationAnalysisType</text>
</a>
</g>
<polygon fill="#000000" stroke="#000000" points=".5,-16 .5,-16 143.5,-16 143.5,-16 .5,-16"/>
<polygon fill="none" stroke="#000000" points="0,0 0,-32 143,-32 143,0 0,0"/>
</g>
<!-- Types&#45;&gt;em:InfectiousDiseaseSurveillance -->
<g id="edge1" class="edge">
<title>Types:top&#45;&gt;em:InfectiousDiseaseSurveillance</title>
<path fill="none" stroke="#000000" d="M142.5,-24C160.9961,-24 180.6176,-24 199.7212,-24"/>
<polygon fill="#000000" stroke="#000000" points="199.9616,-27.5001 209.9615,-24 199.9615,-20.5001 199.9616,-27.5001"/>
<text text-anchor="middle" x="176.5" y="-27.4" font-family="Helvetica,sans-Serif" font-size="12.00" fill="#000000">has&#45;a</text>
</g>
</g>
</svg>
