<?xml version="1.0" encoding="UTF-8" standalone="no"?>
<!DOCTYPE svg PUBLIC "-//W3C//DTD SVG 1.1//EN"
 "http://www.w3.org/Graphics/SVG/1.1/DTD/svg11.dtd">
<!-- Generated by graphviz version 2.40.1 (20161225.0304)
 -->
<!-- Title: graphic Pages: 1 -->
<svg width="590pt" height="86pt"
 viewBox="0.00 0.00 590.00 86.00" xmlns="http://www.w3.org/2000/svg" xmlns:xlink="http://www.w3.org/1999/xlink">
<g id="graph0" class="graph" transform="scale(1 1) rotate(0) translate(4 82)">
<title>graphic</title>
<polygon fill="#ffffff" stroke="transparent" points="-4,4 -4,-82 586,-82 586,4 -4,4"/>
<!-- biom:FrictionRidgeImpressionCaptureCode -->
<g id="node1" class="node">
<title>biom:FrictionRidgeImpressionCaptureCode</title>
<text text-anchor="start" x="41" y="-9.9" font-family="Helvetica,sans-Serif" font-weight="bold" font-size="12.00" fill="#000000">biom:FrictionRidgeImpressionCaptureCode</text>
<polygon fill="none" stroke="#ff0000" stroke-width="5" points="37.5,-2.5 37.5,-22.5 294.5,-22.5 294.5,-2.5 37.5,-2.5"/>
</g>
<!-- biom:ImpressionCaptureCodeType -->
<g id="node3" class="node">
<title>biom:ImpressionCaptureCodeType</title>
<g id="a_node3_0"><a xlink:href="../../biom/ImpressionCaptureCodeType/#diagram" xlink:title="A data type for a kind of impression capture by which an image was obtained" target="_top">
<text text-anchor="start" x="393.5" y="-8.9" font-family="Helvetica,sans-Serif" font-size="12.00" fill="#000000">biom:ImpressionCaptureCodeType</text>
</a>
</g>
<polygon fill="none" stroke="#000000" points="391,-4 391,-21 582,-21 582,-4 391,-4"/>
</g>
<!-- biom:FrictionRidgeImpressionCaptureCode&#45;&gt;biom:ImpressionCaptureCodeType -->
<g id="edge2" class="edge">
<title>biom:FrictionRidgeImpressionCaptureCode&#45;&gt;biom:ImpressionCaptureCodeType</title>
<path fill="none" stroke="#000000" d="M297.2844,-12.5C325.0296,-12.5 353.9732,-12.5 380.6375,-12.5"/>
<polygon fill="#000000" stroke="#000000" points="380.738,-16.0001 390.738,-12.5 380.7379,-9.0001 380.738,-16.0001"/>
<text text-anchor="middle" x="361.5" y="-15.9" font-family="Helvetica,sans-Serif" font-size="12.00" fill="#000000">type</text>
</g>
<!-- SubstitutionGroup -->
<g id="node2" class="node">
<title>SubstitutionGroup</title>
<g id="a_node2_1"><a xlink:href="../../biom/FrictionRidgeImageImpressionCaptureCategoryAbstract/#diagram" xlink:title="A data concept for a kind of impression capture by which a fingerprint image information was obtained" target="_top">
<text text-anchor="start" x="2" y="-65.9" font-family="Helvetica,sans-Serif" font-size="12.00" fill="#000000">biom:FrictionRidgeImageImpressionCaptureCategoryAbstract</text>
</a>
</g>
<polygon fill="none" stroke="#000000" points="0,-61 0,-78 332,-78 332,-61 0,-61"/>
</g>
<!-- SubstitutionGroup&#45;&gt;biom:FrictionRidgeImpressionCaptureCode -->
<g id="edge1" class="edge">
<title>SubstitutionGroup&#45;&gt;biom:FrictionRidgeImpressionCaptureCode</title>
<path fill="none" stroke="#000000" d="M166,-50.9163C166,-42.4809 166,-32.7214 166,-25.1501"/>
<polygon fill="#000000" stroke="#000000" points="162.5001,-50.9472 166,-60.9473 169.5001,-50.9473 162.5001,-50.9472"/>
<text text-anchor="middle" x="156.5" y="-39.9" font-family="Helvetica,sans-Serif" font-size="12.00" fill="#000000">substitution group</text>
</g>
</g>
</svg>
