<?xml version="1.0" encoding="UTF-8" standalone="no"?>
<!DOCTYPE svg PUBLIC "-//W3C//DTD SVG 1.1//EN"
 "http://www.w3.org/Graphics/SVG/1.1/DTD/svg11.dtd">
<!-- Generated by graphviz version 2.40.1 (20161225.0304)
 -->
<!-- Title: graphic Pages: 1 -->
<svg width="546pt" height="45pt"
 viewBox="0.00 0.00 546.00 45.00" xmlns="http://www.w3.org/2000/svg" xmlns:xlink="http://www.w3.org/1999/xlink">
<g id="graph0" class="graph" transform="scale(1 1) rotate(0) translate(4 41)">
<title>graphic</title>
<polygon fill="#ffffff" stroke="transparent" points="-4,4 -4,-41 542,-41 542,4 -4,4"/>
<!-- biom:SamplingRate -->
<g id="node1" class="node">
<title>biom:SamplingRate</title>
<text text-anchor="start" x="205.5" y="-21.4" font-family="Helvetica,sans-Serif" font-weight="bold" font-size="12.00" fill="#000000">biom:SamplingRate</text>
<polygon fill="none" stroke="#ff0000" stroke-width="5" points="201.5,-14 201.5,-34 321.5,-34 321.5,-14 201.5,-14"/>
</g>
<!-- niem&#45;xs:nonNegativeInteger -->
<g id="node3" class="node">
<title>niem&#45;xs:nonNegativeInteger</title>
<g id="a_node3_0"><a xlink:href="../../niem-xs/nonNegativeInteger/#diagram" xlink:title="A data type for an integer with a minimum value of 0." target="_top">
<text text-anchor="start" x="385.5" y="-20.4" font-family="Helvetica,sans-Serif" font-size="12.00" fill="#000000">niem&#45;xs:nonNegativeInteger</text>
</a>
</g>
<polygon fill="none" stroke="#000000" points="383,-15.5 383,-32.5 538,-32.5 538,-15.5 383,-15.5"/>
</g>
<!-- biom:SamplingRate&#45;&gt;niem&#45;xs:nonNegativeInteger -->
<g id="edge2" class="edge">
<title>biom:SamplingRate&#45;&gt;niem&#45;xs:nonNegativeInteger</title>
<path fill="none" stroke="#000000" d="M324.1917,-24C339.5701,-24 356.3141,-24 372.6347,-24"/>
<polygon fill="#000000" stroke="#000000" points="372.726,-27.5001 382.7259,-24 372.7259,-20.5001 372.726,-27.5001"/>
<text text-anchor="middle" x="353.5" y="-27.4" font-family="Helvetica,sans-Serif" font-size="12.00" fill="#000000">type</text>
</g>
<!-- Types -->
<g id="node2" class="node">
<title>Types</title>
<text text-anchor="start" x="2" y="-21.4" font-family="Helvetica,sans-Serif" font-weight="bold" font-size="12.00" fill="#000000">Types</text>
<g id="a_node2_1"><a xlink:href="../../biom/CodecDetailsType/#diagram" xlink:title="A data type for a container of descriptive information about the encoding of a digital media data file." target="_top">
<polygon fill="#ebebeb" stroke="transparent" points="1,-1 1,-16 131,-16 131,-1 1,-1"/>
<text text-anchor="start" x="2" y="-5.4" font-family="Helvetica,sans-Serif" font-size="12.00" fill="#000000">biom:CodecDetailsType</text>
</a>
</g>
<polygon fill="#000000" stroke="#000000" points="0,-16 0,-16 132,-16 132,-16 0,-16"/>
<polygon fill="none" stroke="#000000" points="0,0 0,-32 132,-32 132,0 0,0"/>
</g>
<!-- Types&#45;&gt;biom:SamplingRate -->
<g id="edge1" class="edge">
<title>Types:top&#45;&gt;biom:SamplingRate</title>
<path fill="none" stroke="#000000" d="M131,-24C149.6383,-24 169.774,-24 188.5199,-24"/>
<polygon fill="#000000" stroke="#000000" points="188.7731,-27.5001 198.773,-24 188.773,-20.5001 188.7731,-27.5001"/>
<text text-anchor="middle" x="165.5" y="-27.4" font-family="Helvetica,sans-Serif" font-size="12.00" fill="#000000">has&#45;a</text>
</g>
</g>
</svg>
