<?xml version="1.0" encoding="UTF-8" standalone="no"?>
<!DOCTYPE svg PUBLIC "-//W3C//DTD SVG 1.1//EN"
 "http://www.w3.org/Graphics/SVG/1.1/DTD/svg11.dtd">
<!-- Generated by graphviz version 2.40.1 (20161225.0304)
 -->
<!-- Title: graphic Pages: 1 -->
<svg width="1337pt" height="327pt"
 viewBox="0.00 0.00 1337.00 326.50" xmlns="http://www.w3.org/2000/svg" xmlns:xlink="http://www.w3.org/1999/xlink">
<g id="graph0" class="graph" transform="scale(1 1) rotate(0) translate(4 322.5)">
<title>graphic</title>
<polygon fill="#ffffff" stroke="transparent" points="-4,4 -4,-322.5 1333,-322.5 1333,4 -4,4"/>
<!-- biom:FrictionRidgeDetailType -->
<g id="node1" class="node">
<title>biom:FrictionRidgeDetailType</title>
<text text-anchor="start" x="200" y="-145.4" font-family="Helvetica,sans-Serif" font-weight="bold" font-size="12.00" fill="#000000">biom:FrictionRidgeDetailType</text>
<g id="a_node1_0"><a xlink:href="../../biom/FrictionRidgeImageImpressionCaptureCategoryAbstract/#diagram" xlink:title="A data concept for a kind of impression capture by which a fingerprint image information was obtained" target="_top">
<polygon fill="#ebebeb" stroke="transparent" points="199,-125 199,-140 729,-140 729,-125 199,-125"/>
<text text-anchor="start" x="200" y="-129.4" font-family="Helvetica,sans-Serif" font-size="12.00" fill="#000000">biom:FrictionRidgeImageImpressionCaptureCategoryAbstract [0&#45;n]</text>
</a>
</g>
<g id="a_node1_1"><a xlink:href="../../biom/FrictionRidgeCaptureTechnologyCode/#diagram" xlink:title="A technology used to capture friction ridge data" target="_top">
<text text-anchor="start" x="200" y="-114.4" font-family="Helvetica,sans-Serif" font-size="12.00" fill="#000000">biom:FrictionRidgeCaptureTechnologyCode: biom:FrictionRidgeCaptureTechnologyCodeType [0&#45;n]</text>
</a>
</g>
<g id="a_node1_2"><a xlink:href="../../biom/LatentFrictionRidgePositionCode/#diagram" xlink:title="A code for latent friction ridge positions" target="_top">
<polygon fill="#ebebeb" stroke="transparent" points="199,-95 199,-110 729,-110 729,-95 199,-95"/>
<text text-anchor="start" x="200" y="-99.4" font-family="Helvetica,sans-Serif" font-size="12.00" fill="#000000">biom:LatentFrictionRidgePositionCode: biom:LatentFrictionRidgePositionCodeType [0&#45;6]</text>
</a>
</g>
<g id="a_node1_3"><a xlink:href="../../biom/FingerprintImageMajorCasePrint/#diagram" xlink:title="A set of information required when finger position code is &quot;19&quot; complete friction ridge exemplars" target="_top">
<text text-anchor="start" x="200" y="-84.4" font-family="Helvetica,sans-Serif" font-size="12.00" fill="#000000">biom:FingerprintImageMajorCasePrint: biom:FingerprintImageMajorCasePrintType [0&#45;n]</text>
</a>
</g>
<g id="a_node1_4"><a xlink:href="../../biom/FrictionRidgeImageQuality/#diagram" xlink:title="A quality metric for a friction ridge image" target="_top">
<polygon fill="#ebebeb" stroke="transparent" points="199,-65 199,-80 729,-80 729,-65 199,-65"/>
<text text-anchor="start" x="200" y="-69.4" font-family="Helvetica,sans-Serif" font-size="12.00" fill="#000000">biom:FrictionRidgeImageQuality: biom:FrictionRidgeImageQualityType [0&#45;n]</text>
</a>
</g>
<g id="a_node1_5"><a xlink:href="../../biom/RulerScalePresenceInformationFormAbstract/#diagram" xlink:title="A data concept that allows the user to state whether a ruler or other known scale is present in the image including standard fingerprint form number(but not both)." target="_top">
<text text-anchor="start" x="200" y="-54.4" font-family="Helvetica,sans-Serif" font-size="12.00" fill="#000000">biom:RulerScalePresenceInformationFormAbstract [0&#45;n]</text>
</a>
</g>
<g id="a_node1_6"><a xlink:href="../../biom/ResolutionMethodInformation/#diagram" xlink:title="An optional field states the method used for determining the pixel density of the image." target="_top">
<polygon fill="#ebebeb" stroke="transparent" points="199,-35 199,-50 729,-50 729,-35 199,-35"/>
<text text-anchor="start" x="200" y="-39.4" font-family="Helvetica,sans-Serif" font-size="12.00" fill="#000000">biom:ResolutionMethodInformation: biom:ResolutionMethodInformationType [0&#45;n]</text>
</a>
</g>
<g id="a_node1_7"><a xlink:href="../../biom/SubjectExistentialDetails/#diagram" xlink:title="An optional field. This field is particularly useful if the image contained in this record is of an injury or latent image on a person. However, its use is not limited to such circumstances. Note that Field 10.041: SMT size or size of injury" target="_top">
<text text-anchor="start" x="200" y="-24.4" font-family="Helvetica,sans-Serif" font-size="12.00" fill="#000000">biom:SubjectExistentialDetails: biom:SubjectExistentialDetailsType [0&#45;n]</text>
</a>
</g>
<g id="a_node1_8"><a xlink:href="../../biom/FrictionRidgeDetailAugmentationPoint/#diagram" xlink:title="An augmentation point for FrictionRidgeDetailType." target="_top">
<polygon fill="#ebebeb" stroke="transparent" points="199,-5 199,-20 729,-20 729,-5 199,-5"/>
<text text-anchor="start" x="200" y="-9.4" font-family="Helvetica,sans-Serif" font-size="12.00" fill="#000000">biom:FrictionRidgeDetailAugmentationPoint [0&#45;n]</text>
</a>
</g>
<polygon fill="#ff0000" stroke="#ff0000" points="194,-140 194,-140 734,-140 734,-140 194,-140"/>
<polygon fill="none" stroke="#ff0000" stroke-width="5" points="196.5,-2.5 196.5,-157.5 731.5,-157.5 731.5,-2.5 196.5,-2.5"/>
</g>
<!-- subst_d9e25307 -->
<g id="node2" class="node">
<title>subst_d9e25307</title>
<g id="a_node2_9"><a xlink:href="../../biom/FrictionRidgeImageImpressionCaptureCategoryAbstract/#diagram" xlink:title="&lt;TABLE&gt;" target="_top">
<text text-anchor="start" x="773" y="-132.4" font-family="Helvetica,sans-Serif" font-weight="bold" font-size="12.00" fill="#000000">Substitution group biom:FrictionRidgeImageImpressionCaptureCategoryAbstract</text>
</a>
</g>
<g id="a_node2_10"><a xlink:href="../../biom/FingerprintImageImpressionCaptureCategoryCode/#diagram" xlink:title="A kind of impression capture by which a fingerprint image information was obtained" target="_top">
<polygon fill="#ebebeb" stroke="transparent" points="772,-112 772,-127 1328,-127 1328,-112 772,-112"/>
<text text-anchor="start" x="773" y="-116.4" font-family="Helvetica,sans-Serif" font-size="12.00" fill="#000000">biom:FingerprintImageImpressionCaptureCategoryCode: biom:ImpressionCaptureCategoryCodeType</text>
</a>
</g>
<g id="a_node2_11"><a xlink:href="../../biom/FrictionRidgeImageImpressionCaptureCategoryCode/#diagram" xlink:title="A kind of impression capture by which friction ridge image information was obtained" target="_top">
<text text-anchor="start" x="773" y="-101.4" font-family="Helvetica,sans-Serif" font-size="12.00" fill="#000000">biom:FrictionRidgeImageImpressionCaptureCategoryCode: biom:ImpressionCaptureCategoryCodeType</text>
</a>
</g>
<g id="a_node2_12"><a xlink:href="../../biom/FrictionRidgeImpressionCaptureCode/#diagram" xlink:title="A method used to capture a friction ridge impression. Conforms to ITL 2015." target="_top">
<polygon fill="#ebebeb" stroke="transparent" points="772,-82 772,-97 1328,-97 1328,-82 772,-82"/>
<text text-anchor="start" x="773" y="-86.4" font-family="Helvetica,sans-Serif" font-size="12.00" fill="#000000">biom:FrictionRidgeImpressionCaptureCode: biom:ImpressionCaptureCodeType</text>
</a>
</g>
<polygon fill="#000000" stroke="#000000" points="771,-127 771,-127 1329,-127 1329,-127 771,-127"/>
<polygon fill="none" stroke="#000000" points="771,-81 771,-143 1329,-143 1329,-81 771,-81"/>
</g>
<!-- biom:FrictionRidgeDetailType&#45;&gt;subst_d9e25307 -->
<g id="edge1" class="edge">
<title>biom:FrictionRidgeDetailType:e&#45;&gt;subst_d9e25307:w</title>
<path fill="none" stroke="#000000" d="M739.1179,-133.214C750.6499,-133.73 756.7544,-135 772,-135"/>
<polygon fill="#000000" stroke="#000000" points="739.0718,-129.7124 729,-133 738.9237,-136.7108 739.0718,-129.7124"/>
</g>
<!-- subst_d9e29243 -->
<g id="node3" class="node">
<title>subst_d9e29243</title>
<g id="a_node3_13"><a xlink:href="../../biom/RulerScalePresenceInformationFormAbstract/#diagram" xlink:title="&lt;TABLE&gt;" target="_top">
<text text-anchor="start" x="835" y="-51.4" font-family="Helvetica,sans-Serif" font-weight="bold" font-size="12.00" fill="#000000">Substitution group biom:RulerScalePresenceInformationFormAbstract</text>
</a>
</g>
<g id="a_node3_14"><a xlink:href="../../biom/RulerScalePresenceInformation/#diagram" xlink:title="An optional field allows the user to state whether a ruler or other known scale is present in the image." target="_top">
<polygon fill="#ebebeb" stroke="transparent" points="834,-31 834,-46 1267,-46 1267,-31 834,-31"/>
<text text-anchor="start" x="835" y="-35.4" font-family="Helvetica,sans-Serif" font-size="12.00" fill="#000000">biom:RulerScalePresenceInformation: biom:RulerScalePresenceInformationType</text>
</a>
</g>
<g id="a_node3_15"><a xlink:href="../../biom/StandardFingerprintFormNumberText/#diagram" xlink:title="A standard fingerprint form number" target="_top">
<text text-anchor="start" x="835" y="-20.4" font-family="Helvetica,sans-Serif" font-size="12.00" fill="#000000">biom:StandardFingerprintFormNumberText: nc:TextType</text>
</a>
</g>
<polygon fill="#000000" stroke="#000000" points="833,-46 833,-46 1268,-46 1268,-46 833,-46"/>
<polygon fill="none" stroke="#000000" points="832.5,-15.5 832.5,-62.5 1267.5,-62.5 1267.5,-15.5 832.5,-15.5"/>
</g>
<!-- biom:FrictionRidgeDetailType&#45;&gt;subst_d9e29243 -->
<g id="edge2" class="edge">
<title>biom:FrictionRidgeDetailType:e&#45;&gt;subst_d9e29243:w</title>
<path fill="none" stroke="#000000" d="M739.3335,-56.9479C777.7166,-56.5496 790.9616,-54 834,-54"/>
<polygon fill="#000000" stroke="#000000" points="738.9822,-53.4496 729,-57 739.0175,-60.4495 738.9822,-53.4496"/>
</g>
<!-- Properties -->
<g id="node4" class="node">
<title>Properties</title>
<text text-anchor="start" x="2.5" y="-145.4" font-family="Helvetica,sans-Serif" font-weight="bold" font-size="12.00" fill="#000000">Properties</text>
<g id="a_node4_16"><a xlink:href="../../biom/FrictionRidgeDetail/#diagram" xlink:title="A set of details about a friction ridge print, which may represent a fingerprint, palm print, or plantar print" target="_top">
<polygon fill="#ebebeb" stroke="transparent" points="1.5,-125 1.5,-140 134.5,-140 134.5,-125 1.5,-125"/>
<text text-anchor="start" x="2.5" y="-129.4" font-family="Helvetica,sans-Serif" font-size="12.00" fill="#000000">biom:FrictionRidgeDetail</text>
</a>
</g>
<polygon fill="#000000" stroke="#000000" points=".5,-140 .5,-140 135.5,-140 135.5,-140 .5,-140"/>
<polygon fill="none" stroke="#000000" points="0,-124 0,-156 135,-156 135,-124 0,-124"/>
</g>
<!-- Properties&#45;&gt;biom:FrictionRidgeDetailType -->
<g id="edge3" class="edge">
<title>Properties:top&#45;&gt;biom:FrictionRidgeDetailType:top</title>
<path fill="none" stroke="#000000" d="M134.5,-148C159.4714,-148 168.1284,-148 188.8937,-148"/>
<polygon fill="#000000" stroke="#000000" points="189,-151.5001 199,-148 189,-144.5001 189,-151.5001"/>
<text text-anchor="middle" x="164.5" y="-151.4" font-family="Helvetica,sans-Serif" font-size="12.00" fill="#000000">type</text>
</g>
<!-- nc:ImageType -->
<g id="node5" class="node">
<title>nc:ImageType</title>
<g id="a_node5_17"><a xlink:href="../../nc/ImageType/#diagram" xlink:title="A data type for a picture or visual representation of something." target="_top">
<text text-anchor="start" x="426" y="-200.4" font-family="Helvetica,sans-Serif" font-size="12.00" fill="#000000">nc:ImageType</text>
</a>
</g>
<polygon fill="none" stroke="#000000" points="423.5,-195.5 423.5,-212.5 504.5,-212.5 504.5,-195.5 423.5,-195.5"/>
</g>
<!-- nc:ImageType&#45;&gt;biom:FrictionRidgeDetailType -->
<g id="edge4" class="edge">
<title>nc:ImageType&#45;&gt;biom:FrictionRidgeDetailType</title>
<path fill="none" stroke="#000000" d="M464,-195.225C464,-189.2024 464,-180.5203 464,-170.5842"/>
<polygon fill="#000000" stroke="#000000" points="467.5001,-170.2822 464,-160.2822 460.5001,-170.2823 467.5001,-170.2822"/>
<text text-anchor="middle" x="454.5" y="-174.65" font-family="Helvetica,sans-Serif" font-size="12.00" fill="#000000">extension</text>
</g>
<!-- nc:BinaryType -->
<g id="node6" class="node">
<title>nc:BinaryType</title>
<g id="a_node6_18"><a xlink:href="../../nc/BinaryType/#diagram" xlink:title="A data type for a digital representation of an object encoded in a binary format." target="_top">
<text text-anchor="start" x="426" y="-253.4" font-family="Helvetica,sans-Serif" font-size="12.00" fill="#000000">nc:BinaryType</text>
</a>
</g>
<polygon fill="none" stroke="#000000" points="423.5,-248.5 423.5,-265.5 504.5,-265.5 504.5,-248.5 423.5,-248.5"/>
</g>
<!-- nc:BinaryType&#45;&gt;nc:ImageType -->
<g id="edge5" class="edge">
<title>nc:BinaryType&#45;&gt;nc:ImageType</title>
<path fill="none" stroke="#000000" d="M464,-248.411C464,-241.5124 464,-231.5696 464,-222.84"/>
<polygon fill="#000000" stroke="#000000" points="467.5001,-222.7518 464,-212.7519 460.5001,-222.7519 467.5001,-222.7518"/>
<text text-anchor="middle" x="454.5" y="-227.4" font-family="Helvetica,sans-Serif" font-size="12.00" fill="#000000">extension</text>
</g>
<!-- structures:ObjectType -->
<g id="node7" class="node">
<title>structures:ObjectType</title>
<g id="a_node7_19"><a xlink:href="../../structures/ObjectType/#diagram" xlink:title="A data type for a thing with its own lifespan that has some existence." target="_top">
<text text-anchor="start" x="405" y="-306.4" font-family="Helvetica,sans-Serif" font-size="12.00" fill="#000000">structures:ObjectType</text>
</a>
</g>
<polygon fill="none" stroke="#000000" points="403,-301.5 403,-318.5 525,-318.5 525,-301.5 403,-301.5"/>
</g>
<!-- structures:ObjectType&#45;&gt;nc:BinaryType -->
<g id="edge6" class="edge">
<title>structures:ObjectType&#45;&gt;nc:BinaryType</title>
<path fill="none" stroke="#000000" d="M464,-301.411C464,-294.5124 464,-284.5696 464,-275.84"/>
<polygon fill="#000000" stroke="#000000" points="467.5001,-275.7518 464,-265.7519 460.5001,-275.7519 467.5001,-275.7518"/>
<text text-anchor="middle" x="454.5" y="-280.4" font-family="Helvetica,sans-Serif" font-size="12.00" fill="#000000">extension</text>
</g>
</g>
</svg>
