<?xml version="1.0" encoding="UTF-8" standalone="no"?>
<!DOCTYPE svg PUBLIC "-//W3C//DTD SVG 1.1//EN"
 "http://www.w3.org/Graphics/SVG/1.1/DTD/svg11.dtd">
<!-- Generated by graphviz version 2.40.1 (20161225.0304)
 -->
<!-- Title: graphic Pages: 1 -->
<svg width="305pt" height="86pt"
 viewBox="0.00 0.00 305.00 86.00" xmlns="http://www.w3.org/2000/svg" xmlns:xlink="http://www.w3.org/1999/xlink">
<g id="graph0" class="graph" transform="scale(1 1) rotate(0) translate(4 82)">
<title>graphic</title>
<polygon fill="#ffffff" stroke="transparent" points="-4,4 -4,-82 301,-82 301,4 -4,4"/>
<!-- nc:MeasureDoubleValue -->
<g id="node1" class="node">
<title>nc:MeasureDoubleValue</title>
<text text-anchor="start" x="6" y="-9.9" font-family="Helvetica,sans-Serif" font-weight="bold" font-size="12.00" fill="#000000">nc:MeasureDoubleValue</text>
<polygon fill="none" stroke="#ff0000" stroke-width="5" points="2.5,-2.5 2.5,-22.5 149.5,-22.5 149.5,-2.5 2.5,-2.5"/>
</g>
<!-- niem&#45;xs:double -->
<g id="node3" class="node">
<title>niem&#45;xs:double</title>
<g id="a_node3_0"><a xlink:href="../../niem-xs/double/#diagram" xlink:title="A data type that is patterned after the IEEE double&#45;precision 64&#45;bit floating point type [IEEE 754&#45;1985]. The basic value space of double consists of the values m x 2^e, where m is an integer whose absolute value is less than 2^53, and e is an integer between &#45;1075 and 970, inclusive. In addition to the basic value space described above, the value space of double also contains the following three special values: positive and negative infinity and not&#45;a&#45;number (NaN)." target="_top">
<text text-anchor="start" x="213" y="-8.9" font-family="Helvetica,sans-Serif" font-size="12.00" fill="#000000">niem&#45;xs:double</text>
</a>
</g>
<polygon fill="none" stroke="#000000" points="211,-4 211,-21 297,-21 297,-4 211,-4"/>
</g>
<!-- nc:MeasureDoubleValue&#45;&gt;niem&#45;xs:double -->
<g id="edge2" class="edge">
<title>nc:MeasureDoubleValue&#45;&gt;niem&#45;xs:double</title>
<path fill="none" stroke="#000000" d="M152.0043,-12.5C168.2806,-12.5 185.1494,-12.5 200.37,-12.5"/>
<polygon fill="#000000" stroke="#000000" points="200.6164,-16.0001 210.6164,-12.5 200.6163,-9.0001 200.6164,-16.0001"/>
<text text-anchor="middle" x="181.5" y="-15.9" font-family="Helvetica,sans-Serif" font-size="12.00" fill="#000000">type</text>
</g>
<!-- SubstitutionGroup -->
<g id="node2" class="node">
<title>SubstitutionGroup</title>
<g id="a_node2_1"><a xlink:href="../../nc/MeasurePointAbstract/#diagram" xlink:title="A data concept for a measurement value." target="_top">
<text text-anchor="start" x="9" y="-65.9" font-family="Helvetica,sans-Serif" font-size="12.00" fill="#000000">nc:MeasurePointAbstract</text>
</a>
</g>
<polygon fill="none" stroke="#000000" points="6.5,-61 6.5,-78 145.5,-78 145.5,-61 6.5,-61"/>
</g>
<!-- SubstitutionGroup&#45;&gt;nc:MeasureDoubleValue -->
<g id="edge1" class="edge">
<title>SubstitutionGroup&#45;&gt;nc:MeasureDoubleValue</title>
<path fill="none" stroke="#000000" d="M76,-50.9163C76,-42.4809 76,-32.7214 76,-25.1501"/>
<polygon fill="#000000" stroke="#000000" points="72.5001,-50.9472 76,-60.9473 79.5001,-50.9473 72.5001,-50.9472"/>
<text text-anchor="middle" x="66.5" y="-39.9" font-family="Helvetica,sans-Serif" font-size="12.00" fill="#000000">substitution group</text>
</g>
</g>
</svg>
