<?xml version="1.0" encoding="UTF-8" standalone="no"?>
<!DOCTYPE svg PUBLIC "-//W3C//DTD SVG 1.1//EN"
 "http://www.w3.org/Graphics/SVG/1.1/DTD/svg11.dtd">
<!-- Generated by graphviz version 2.40.1 (20161225.0304)
 -->
<!-- Title: graphic Pages: 1 -->
<svg width="798pt" height="45pt"
 viewBox="0.00 0.00 798.00 45.00" xmlns="http://www.w3.org/2000/svg" xmlns:xlink="http://www.w3.org/1999/xlink">
<g id="graph0" class="graph" transform="scale(1 1) rotate(0) translate(4 41)">
<title>graphic</title>
<polygon fill="#ffffff" stroke="transparent" points="-4,4 -4,-41 794,-41 794,4 -4,4"/>
<!-- biom:AcquisitionLightingSpectrumUpperMeasure -->
<g id="node1" class="node">
<title>biom:AcquisitionLightingSpectrumUpperMeasure</title>
<text text-anchor="start" x="285.5" y="-21.4" font-family="Helvetica,sans-Serif" font-weight="bold" font-size="12.00" fill="#000000">biom:AcquisitionLightingSpectrumUpperMeasure</text>
<polygon fill="none" stroke="#ff0000" stroke-width="5" points="281.5,-14 281.5,-34 573.5,-34 573.5,-14 281.5,-14"/>
</g>
<!-- niem&#45;xs:nonNegativeInteger -->
<g id="node3" class="node">
<title>niem&#45;xs:nonNegativeInteger</title>
<g id="a_node3_0"><a xlink:href="../../niem-xs/nonNegativeInteger/#diagram" xlink:title="A data type for an integer with a minimum value of 0." target="_top">
<text text-anchor="start" x="637.5" y="-20.4" font-family="Helvetica,sans-Serif" font-size="12.00" fill="#000000">niem&#45;xs:nonNegativeInteger</text>
</a>
</g>
<polygon fill="none" stroke="#000000" points="635,-15.5 635,-32.5 790,-32.5 790,-15.5 635,-15.5"/>
</g>
<!-- biom:AcquisitionLightingSpectrumUpperMeasure&#45;&gt;niem&#45;xs:nonNegativeInteger -->
<g id="edge2" class="edge">
<title>biom:AcquisitionLightingSpectrumUpperMeasure&#45;&gt;niem&#45;xs:nonNegativeInteger</title>
<path fill="none" stroke="#000000" d="M576.2604,-24C592.8677,-24 609.3614,-24 624.8369,-24"/>
<polygon fill="#000000" stroke="#000000" points="624.8505,-27.5001 634.8505,-24 624.8505,-20.5001 624.8505,-27.5001"/>
<text text-anchor="middle" x="605.5" y="-27.4" font-family="Helvetica,sans-Serif" font-size="12.00" fill="#000000">type</text>
</g>
<!-- Types -->
<g id="node2" class="node">
<title>Types</title>
<text text-anchor="start" x="2" y="-21.4" font-family="Helvetica,sans-Serif" font-weight="bold" font-size="12.00" fill="#000000">Types</text>
<g id="a_node2_1"><a xlink:href="../../biom/AcquisitionLightingSpectrumType/#diagram" xlink:title="A data type for a lighting spectrum used in capturing an image" target="_top">
<polygon fill="#ebebeb" stroke="transparent" points="1,-1 1,-16 211,-16 211,-1 1,-1"/>
<text text-anchor="start" x="2" y="-5.4" font-family="Helvetica,sans-Serif" font-size="12.00" fill="#000000">biom:AcquisitionLightingSpectrumType</text>
</a>
</g>
<polygon fill="#000000" stroke="#000000" points="0,-16 0,-16 212,-16 212,-16 0,-16"/>
<polygon fill="none" stroke="#000000" points="0,0 0,-32 212,-32 212,0 0,0"/>
</g>
<!-- Types&#45;&gt;biom:AcquisitionLightingSpectrumUpperMeasure -->
<g id="edge1" class="edge">
<title>Types:top&#45;&gt;biom:AcquisitionLightingSpectrumUpperMeasure</title>
<path fill="none" stroke="#000000" d="M211,-24C229.6444,-24 249.1919,-24 268.5926,-24"/>
<polygon fill="#000000" stroke="#000000" points="268.719,-27.5001 278.719,-24 268.7189,-20.5001 268.719,-27.5001"/>
<text text-anchor="middle" x="245.5" y="-27.4" font-family="Helvetica,sans-Serif" font-size="12.00" fill="#000000">has&#45;a</text>
</g>
</g>
</svg>
