<?xml version="1.0" encoding="UTF-8" standalone="no"?>
<!DOCTYPE svg PUBLIC "-//W3C//DTD SVG 1.1//EN"
 "http://www.w3.org/Graphics/SVG/1.1/DTD/svg11.dtd">
<!-- Generated by graphviz version 2.40.1 (20161225.0304)
 -->
<!-- Title: graphic Pages: 1 -->
<svg width="675pt" height="45pt"
 viewBox="0.00 0.00 675.00 45.00" xmlns="http://www.w3.org/2000/svg" xmlns:xlink="http://www.w3.org/1999/xlink">
<g id="graph0" class="graph" transform="scale(1 1) rotate(0) translate(4 41)">
<title>graphic</title>
<polygon fill="#ffffff" stroke="transparent" points="-4,4 -4,-41 671,-41 671,4 -4,4"/>
<!-- j:MonthlyLivingExpenseVehicleInsuranceAmount -->
<g id="node1" class="node">
<title>j:MonthlyLivingExpenseVehicleInsuranceAmount</title>
<text text-anchor="start" x="230.5" y="-21.4" font-family="Helvetica,sans-Serif" font-weight="bold" font-size="12.00" fill="#000000">j:MonthlyLivingExpenseVehicleInsuranceAmount</text>
<polygon fill="none" stroke="#ff0000" stroke-width="5" points="226.5,-14 226.5,-34 516.5,-34 516.5,-14 226.5,-14"/>
</g>
<!-- nc:AmountType -->
<g id="node3" class="node">
<title>nc:AmountType</title>
<g id="a_node3_0"><a xlink:href="../../nc/AmountType/#diagram" xlink:title="A data type for an amount of money." target="_top">
<text text-anchor="start" x="580.5" y="-20.4" font-family="Helvetica,sans-Serif" font-size="12.00" fill="#000000">nc:AmountType</text>
</a>
</g>
<polygon fill="none" stroke="#000000" points="578,-15.5 578,-32.5 667,-32.5 667,-15.5 578,-15.5"/>
</g>
<!-- j:MonthlyLivingExpenseVehicleInsuranceAmount&#45;&gt;nc:AmountType -->
<g id="edge2" class="edge">
<title>j:MonthlyLivingExpenseVehicleInsuranceAmount&#45;&gt;nc:AmountType</title>
<path fill="none" stroke="#000000" d="M519.3221,-24C536.4498,-24 553.0043,-24 567.6538,-24"/>
<polygon fill="#000000" stroke="#000000" points="567.9651,-27.5001 577.9651,-24 567.9651,-20.5001 567.9651,-27.5001"/>
<text text-anchor="middle" x="548.5" y="-27.4" font-family="Helvetica,sans-Serif" font-size="12.00" fill="#000000">type</text>
</g>
<!-- Types -->
<g id="node2" class="node">
<title>Types</title>
<text text-anchor="start" x="2.5" y="-21.4" font-family="Helvetica,sans-Serif" font-weight="bold" font-size="12.00" fill="#000000">Types</text>
<g id="a_node2_1"><a xlink:href="../../j/MonthlyLivingExpenseType/#diagram" xlink:title="A data type for a set of details describing the allocation of money for one month of living expenses." target="_top">
<polygon fill="#ebebeb" stroke="transparent" points="1.5,-1 1.5,-16 156.5,-16 156.5,-1 1.5,-1"/>
<text text-anchor="start" x="2.5" y="-5.4" font-family="Helvetica,sans-Serif" font-size="12.00" fill="#000000">j:MonthlyLivingExpenseType</text>
</a>
</g>
<polygon fill="#000000" stroke="#000000" points=".5,-16 .5,-16 157.5,-16 157.5,-16 .5,-16"/>
<polygon fill="none" stroke="#000000" points="0,0 0,-32 157,-32 157,0 0,0"/>
</g>
<!-- Types&#45;&gt;j:MonthlyLivingExpenseVehicleInsuranceAmount -->
<g id="edge1" class="edge">
<title>Types:top&#45;&gt;j:MonthlyLivingExpenseVehicleInsuranceAmount</title>
<path fill="none" stroke="#000000" d="M156.5,-24C175.0152,-24 194.4273,-24 213.6936,-24"/>
<polygon fill="#000000" stroke="#000000" points="213.7498,-27.5001 223.7498,-24 213.7497,-20.5001 213.7498,-27.5001"/>
<text text-anchor="middle" x="190.5" y="-27.4" font-family="Helvetica,sans-Serif" font-size="12.00" fill="#000000">has&#45;a</text>
</g>
</g>
</svg>
