<?xml version="1.0" encoding="UTF-8" standalone="no"?>
<!DOCTYPE svg PUBLIC "-//W3C//DTD SVG 1.1//EN"
 "http://www.w3.org/Graphics/SVG/1.1/DTD/svg11.dtd">
<!-- Generated by graphviz version 2.40.1 (20161225.0304)
 -->
<!-- Title: graphic Pages: 1 -->
<svg width="503pt" height="60pt"
 viewBox="0.00 0.00 503.00 59.50" xmlns="http://www.w3.org/2000/svg" xmlns:xlink="http://www.w3.org/1999/xlink">
<g id="graph0" class="graph" transform="scale(1 1) rotate(0) translate(4 55.5)">
<title>graphic</title>
<polygon fill="#ffffff" stroke="transparent" points="-4,4 -4,-55.5 499,-55.5 499,4 -4,4"/>
<!-- j:Conviction -->
<g id="node1" class="node">
<title>j:Conviction</title>
<text text-anchor="start" x="267" y="-35.9" font-family="Helvetica,sans-Serif" font-weight="bold" font-size="12.00" fill="#000000">j:Conviction</text>
<polygon fill="none" stroke="#ff0000" stroke-width="5" points="263.5,-28.5 263.5,-48.5 340.5,-48.5 340.5,-28.5 263.5,-28.5"/>
</g>
<!-- j:ConvictionType -->
<g id="node3" class="node">
<title>j:ConvictionType</title>
<g id="a_node3_0"><a xlink:href="../../j/ConvictionType/#diagram" xlink:title="A data type for a judgment that a defendant is guilty." target="_top">
<text text-anchor="start" x="404.5" y="-34.9" font-family="Helvetica,sans-Serif" font-size="12.00" fill="#000000">j:ConvictionType</text>
</a>
</g>
<polygon fill="none" stroke="#000000" points="402,-30 402,-47 495,-47 495,-30 402,-30"/>
</g>
<!-- j:Conviction&#45;&gt;j:ConvictionType -->
<g id="edge2" class="edge">
<title>j:Conviction&#45;&gt;j:ConvictionType</title>
<path fill="none" stroke="#000000" d="M343.1983,-38.5C358.1938,-38.5 375.4217,-38.5 391.541,-38.5"/>
<polygon fill="#000000" stroke="#000000" points="391.9389,-42.0001 401.9389,-38.5 391.9389,-35.0001 391.9389,-42.0001"/>
<text text-anchor="middle" x="372.5" y="-41.9" font-family="Helvetica,sans-Serif" font-size="12.00" fill="#000000">type</text>
</g>
<!-- Types -->
<g id="node2" class="node">
<title>Types</title>
<text text-anchor="start" x="2" y="-35.9" font-family="Helvetica,sans-Serif" font-weight="bold" font-size="12.00" fill="#000000">Types</text>
<g id="a_node2_1"><a xlink:href="../../im/ImmigrationBenefitEligibilityType/#diagram" xlink:title="A data type for the information used to determine the eligibility for an immigration benefit" target="_top">
<polygon fill="#ebebeb" stroke="transparent" points="1,-15.5 1,-30.5 193,-30.5 193,-15.5 1,-15.5"/>
<text text-anchor="start" x="2" y="-19.9" font-family="Helvetica,sans-Serif" font-size="12.00" fill="#000000">im:ImmigrationBenefitEligibilityType</text>
</a>
</g>
<g id="a_node2_2"><a xlink:href="../../j/ChargeConvictionAssociationType/#diagram" xlink:title="A data type for an association between a charge and a conviction." target="_top">
<text text-anchor="start" x="2" y="-4.9" font-family="Helvetica,sans-Serif" font-size="12.00" fill="#000000">j:ChargeConvictionAssociationType</text>
</a>
</g>
<polygon fill="#000000" stroke="#000000" points="0,-30.5 0,-30.5 194,-30.5 194,-30.5 0,-30.5"/>
<polygon fill="none" stroke="#000000" points="0,0 0,-47 194,-47 194,0 0,0"/>
</g>
<!-- Types&#45;&gt;j:Conviction -->
<g id="edge1" class="edge">
<title>Types:top&#45;&gt;j:Conviction</title>
<path fill="none" stroke="#000000" d="M193,-38.5C211.8331,-38.5 232.4965,-38.5 250.7209,-38.5"/>
<polygon fill="#000000" stroke="#000000" points="250.8513,-42.0001 260.8512,-38.5 250.8512,-35.0001 250.8513,-42.0001"/>
<text text-anchor="middle" x="227.5" y="-41.9" font-family="Helvetica,sans-Serif" font-size="12.00" fill="#000000">has&#45;a</text>
</g>
</g>
</svg>
