<?xml version="1.0" encoding="UTF-8" standalone="no"?>
<!DOCTYPE svg PUBLIC "-//W3C//DTD SVG 1.1//EN"
 "http://www.w3.org/Graphics/SVG/1.1/DTD/svg11.dtd">
<!-- Generated by graphviz version 2.40.1 (20161225.0304)
 -->
<!-- Title: graphic Pages: 1 -->
<svg width="570pt" height="101pt"
 viewBox="0.00 0.00 570.00 101.00" xmlns="http://www.w3.org/2000/svg" xmlns:xlink="http://www.w3.org/1999/xlink">
<g id="graph0" class="graph" transform="scale(1 1) rotate(0) translate(4 97)">
<title>graphic</title>
<polygon fill="#ffffff" stroke="transparent" points="-4,4 -4,-97 566,-97 566,4 -4,4"/>
<!-- j:VehicleMostHarmfulEventAbstract -->
<g id="node1" class="node">
<title>j:VehicleMostHarmfulEventAbstract</title>
<text text-anchor="start" x="267" y="-77.4" font-family="Helvetica,sans-Serif" font-weight="bold" font-size="12.00" fill="#000000">j:VehicleMostHarmfulEventAbstract</text>
<polygon fill="none" stroke="#ff0000" stroke-width="5" points="263,-70 263,-90 475,-90 475,-70 263,-70"/>
</g>
<!-- SubstitutableElements -->
<g id="node3" class="node">
<title>SubstitutableElements</title>
<text text-anchor="start" x="178" y="-21.4" font-family="Helvetica,sans-Serif" font-weight="bold" font-size="12.00" fill="#000000">Substitutable elements</text>
<g id="a_node3_0"><a xlink:href="../../j/VehicleMostHarmfulEventCode/#diagram" xlink:title="An event that resulted in the most severe injury or, if no injury, the greatest property damage involving this motor vehicle." target="_top">
<polygon fill="#ebebeb" stroke="transparent" points="177,-1 177,-16 561,-16 561,-1 177,-1"/>
<text text-anchor="start" x="178" y="-5.4" font-family="Helvetica,sans-Serif" font-size="12.00" fill="#000000">j:VehicleMostHarmfulEventCode: mmucc:CrashHarmfulEventCodeType</text>
</a>
</g>
<polygon fill="#000000" stroke="#000000" points="176,-16 176,-16 562,-16 562,-16 176,-16"/>
<polygon fill="none" stroke="#000000" points="176,0 176,-32 562,-32 562,0 176,0"/>
</g>
<!-- j:VehicleMostHarmfulEventAbstract&#45;&gt;SubstitutableElements -->
<g id="edge2" class="edge">
<title>j:VehicleMostHarmfulEventAbstract&#45;&gt;SubstitutableElements</title>
<path fill="none" stroke="#000000" d="M369,-57.3063C369,-48.9972 369,-39.7712 369,-32.1499"/>
<polygon fill="#000000" stroke="#000000" points="365.5001,-57.4892 369,-67.4892 372.5001,-57.4892 365.5001,-57.4892"/>
<text text-anchor="middle" x="359.5" y="-46.65" font-family="Helvetica,sans-Serif" font-size="12.00" fill="#000000">substitutable for</text>
</g>
<!-- Types -->
<g id="node2" class="node">
<title>Types</title>
<text text-anchor="start" x="2.5" y="-77.4" font-family="Helvetica,sans-Serif" font-weight="bold" font-size="12.00" fill="#000000">Types</text>
<g id="a_node2_1"><a xlink:href="../../j/CrashVehicleType/#diagram" xlink:title="A data type for a motor vehicle involved in a traffic accident." target="_top">
<polygon fill="#ebebeb" stroke="transparent" points="1.5,-57 1.5,-72 108.5,-72 108.5,-57 1.5,-57"/>
<text text-anchor="start" x="2.5" y="-61.4" font-family="Helvetica,sans-Serif" font-size="12.00" fill="#000000">j:CrashVehicleType</text>
</a>
</g>
<polygon fill="#000000" stroke="#000000" points=".5,-72 .5,-72 109.5,-72 109.5,-72 .5,-72"/>
<polygon fill="none" stroke="#000000" points="0,-56 0,-88 109,-88 109,-56 0,-56"/>
</g>
<!-- Types&#45;&gt;j:VehicleMostHarmfulEventAbstract -->
<g id="edge1" class="edge">
<title>Types:top&#45;&gt;j:VehicleMostHarmfulEventAbstract</title>
<path fill="none" stroke="#000000" d="M108.5,-80C154.7581,-80 205.6366,-80 250.0592,-80"/>
<polygon fill="#000000" stroke="#000000" points="250.3173,-83.5001 260.3173,-80 250.3173,-76.5001 250.3173,-83.5001"/>
<text text-anchor="middle" x="142.5" y="-83.4" font-family="Helvetica,sans-Serif" font-size="12.00" fill="#000000">has&#45;a</text>
</g>
</g>
</svg>
