<?xml version="1.0" encoding="UTF-8" standalone="no"?>
<!DOCTYPE svg PUBLIC "-//W3C//DTD SVG 1.1//EN"
 "http://www.w3.org/Graphics/SVG/1.1/DTD/svg11.dtd">
<!-- Generated by graphviz version 2.40.1 (20161225.0304)
 -->
<!-- Title: graphic Pages: 1 -->
<svg width="496pt" height="184pt"
 viewBox="0.00 0.00 496.00 183.50" xmlns="http://www.w3.org/2000/svg" xmlns:xlink="http://www.w3.org/1999/xlink">
<g id="graph0" class="graph" transform="scale(1 1) rotate(0) translate(4 179.5)">
<title>graphic</title>
<polygon fill="#ffffff" stroke="transparent" points="-4,4 -4,-179.5 492,-179.5 492,4 -4,4"/>
<!-- j:IncidentArrestAssociationType -->
<g id="node1" class="node">
<title>j:IncidentArrestAssociationType</title>
<text text-anchor="start" x="211.5" y="-55.4" font-family="Helvetica,sans-Serif" font-weight="bold" font-size="12.00" fill="#000000">j:IncidentArrestAssociationType</text>
<g id="a_node1_0"><a xlink:href="../../j/Arrest/#diagram" xlink:title="An apprehension of a subject by a peace official based on an observed or a reported violation of a law or ordinance, an outstanding arrest warrant, or probable cause information." target="_top">
<polygon fill="#ebebeb" stroke="transparent" points="210.5,-35 210.5,-50 483.5,-50 483.5,-35 210.5,-35"/>
<text text-anchor="start" x="211.5" y="-39.4" font-family="Helvetica,sans-Serif" font-size="12.00" fill="#000000">j:Arrest: j:ArrestType [0&#45;n]</text>
</a>
</g>
<g id="a_node1_1"><a xlink:href="../../nc/Incident/#diagram" xlink:title="An occurrence or an event that may require a response." target="_top">
<text text-anchor="start" x="211.5" y="-24.4" font-family="Helvetica,sans-Serif" font-size="12.00" fill="#000000">nc:Incident: nc:IncidentType [0&#45;n]</text>
</a>
</g>
<g id="a_node1_2"><a xlink:href="../../j/IncidentArrestAssociationAugmentationPoint/#diagram" xlink:title="An augmentation point for IncidentArrestAssociationType." target="_top">
<polygon fill="#ebebeb" stroke="transparent" points="210.5,-5 210.5,-20 483.5,-20 483.5,-5 210.5,-5"/>
<text text-anchor="start" x="211.5" y="-9.4" font-family="Helvetica,sans-Serif" font-size="12.00" fill="#000000">j:IncidentArrestAssociationAugmentationPoint [0&#45;n]</text>
</a>
</g>
<polygon fill="#ff0000" stroke="#ff0000" points="205.5,-50 205.5,-50 488.5,-50 488.5,-50 205.5,-50"/>
<polygon fill="none" stroke="#ff0000" stroke-width="5" points="207.5,-2.5 207.5,-67.5 485.5,-67.5 485.5,-2.5 207.5,-2.5"/>
</g>
<!-- Properties -->
<g id="node2" class="node">
<title>Properties</title>
<text text-anchor="start" x="2" y="-55.4" font-family="Helvetica,sans-Serif" font-weight="bold" font-size="12.00" fill="#000000">Properties</text>
<g id="a_node2_3"><a xlink:href="../../j/IncidentArrestAssociation/#diagram" xlink:title="A relationship between an incident and an arrest." target="_top">
<polygon fill="#ebebeb" stroke="transparent" points="1,-35 1,-50 145,-50 145,-35 1,-35"/>
<text text-anchor="start" x="2" y="-39.4" font-family="Helvetica,sans-Serif" font-size="12.00" fill="#000000">j:IncidentArrestAssociation</text>
</a>
</g>
<polygon fill="#000000" stroke="#000000" points="0,-50 0,-50 146,-50 146,-50 0,-50"/>
<polygon fill="none" stroke="#000000" points="0,-34 0,-66 146,-66 146,-34 0,-34"/>
</g>
<!-- Properties&#45;&gt;j:IncidentArrestAssociationType -->
<g id="edge1" class="edge">
<title>Properties:top&#45;&gt;j:IncidentArrestAssociationType:top</title>
<path fill="none" stroke="#000000" d="M145,-58C170.3585,-58 179.1498,-58 200.2371,-58"/>
<polygon fill="#000000" stroke="#000000" points="200.5,-61.5001 210.5,-58 200.5,-54.5001 200.5,-61.5001"/>
<text text-anchor="middle" x="175.5" y="-61.4" font-family="Helvetica,sans-Serif" font-size="12.00" fill="#000000">type</text>
</g>
<!-- nc:AssociationType -->
<g id="node3" class="node">
<title>nc:AssociationType</title>
<g id="a_node3_4"><a xlink:href="../../nc/AssociationType/#diagram" xlink:title="A data type for an association, connection, relationship, or involvement somehow linking people, things, and/or activities together." target="_top">
<text text-anchor="start" x="294.5" y="-110.4" font-family="Helvetica,sans-Serif" font-size="12.00" fill="#000000">nc:AssociationType</text>
</a>
</g>
<polygon fill="none" stroke="#000000" points="292,-105.5 292,-122.5 401,-122.5 401,-105.5 292,-105.5"/>
</g>
<!-- nc:AssociationType&#45;&gt;j:IncidentArrestAssociationType -->
<g id="edge2" class="edge">
<title>nc:AssociationType&#45;&gt;j:IncidentArrestAssociationType</title>
<path fill="none" stroke="#000000" d="M346.5,-105.4117C346.5,-99.1025 346.5,-89.9911 346.5,-80.4049"/>
<polygon fill="#000000" stroke="#000000" points="350.0001,-80.3408 346.5,-70.3408 343.0001,-80.3409 350.0001,-80.3408"/>
<text text-anchor="middle" x="337" y="-84.65" font-family="Helvetica,sans-Serif" font-size="12.00" fill="#000000">extension</text>
</g>
<!-- structures:AssociationType -->
<g id="node4" class="node">
<title>structures:AssociationType</title>
<g id="a_node4_5"><a xlink:href="../../structures/AssociationType/#diagram" xlink:title="A data type for a relationship between two or more objects, including any properties of that relationship." target="_top">
<text text-anchor="start" x="274.5" y="-163.4" font-family="Helvetica,sans-Serif" font-size="12.00" fill="#000000">structures:AssociationType</text>
</a>
</g>
<polygon fill="none" stroke="#000000" points="272,-158.5 272,-175.5 421,-175.5 421,-158.5 272,-158.5"/>
</g>
<!-- structures:AssociationType&#45;&gt;nc:AssociationType -->
<g id="edge3" class="edge">
<title>structures:AssociationType&#45;&gt;nc:AssociationType</title>
<path fill="none" stroke="#000000" d="M346.5,-158.411C346.5,-151.5124 346.5,-141.5696 346.5,-132.84"/>
<polygon fill="#000000" stroke="#000000" points="350.0001,-132.7518 346.5,-122.7519 343.0001,-132.7519 350.0001,-132.7518"/>
<text text-anchor="middle" x="337" y="-137.4" font-family="Helvetica,sans-Serif" font-size="12.00" fill="#000000">extension</text>
</g>
</g>
</svg>
