<?xml version="1.0" encoding="UTF-8" standalone="no"?>
<!DOCTYPE svg PUBLIC "-//W3C//DTD SVG 1.1//EN"
 "http://www.w3.org/Graphics/SVG/1.1/DTD/svg11.dtd">
<!-- Generated by graphviz version 2.40.1 (20161225.0304)
 -->
<!-- Title: graphic Pages: 1 -->
<svg width="550pt" height="131pt"
 viewBox="0.00 0.00 550.00 131.00" xmlns="http://www.w3.org/2000/svg" xmlns:xlink="http://www.w3.org/1999/xlink">
<g id="graph0" class="graph" transform="scale(1 1) rotate(0) translate(4 127)">
<title>graphic</title>
<polygon fill="#ffffff" stroke="transparent" points="-4,4 -4,-127 546,-127 546,4 -4,4"/>
<!-- nc:PersonHairColorAbstract -->
<g id="node1" class="node">
<title>nc:PersonHairColorAbstract</title>
<text text-anchor="start" x="318.5" y="-107.4" font-family="Helvetica,sans-Serif" font-weight="bold" font-size="12.00" fill="#000000">nc:PersonHairColorAbstract</text>
<polygon fill="none" stroke="#ff0000" stroke-width="5" points="314.5,-100 314.5,-120 484.5,-120 484.5,-100 314.5,-100"/>
</g>
<!-- SubstitutableElements -->
<g id="node3" class="node">
<title>SubstitutableElements</title>
<text text-anchor="start" x="259.5" y="-51.4" font-family="Helvetica,sans-Serif" font-weight="bold" font-size="12.00" fill="#000000">Substitutable elements</text>
<g id="a_node3_0"><a xlink:href="../../biom/HairColorCode/#diagram" xlink:title="A hair color shown in an image of a person&#39;s face" target="_top">
<polygon fill="#ebebeb" stroke="transparent" points="258.5,-31 258.5,-46 541.5,-46 541.5,-31 258.5,-31"/>
<text text-anchor="start" x="259.5" y="-35.4" font-family="Helvetica,sans-Serif" font-size="12.00" fill="#000000">biom:HairColorCode: biom:HairColorCodeType</text>
</a>
</g>
<g id="a_node3_1"><a xlink:href="../../j/PersonHairColorCode/#diagram" xlink:title="A code set identifying a hair color of a person." target="_top">
<text text-anchor="start" x="259.5" y="-20.4" font-family="Helvetica,sans-Serif" font-size="12.00" fill="#000000">j:PersonHairColorCode: j:PersonHairColorCodeType</text>
</a>
</g>
<g id="a_node3_2"><a xlink:href="../../nc/PersonHairColorText/#diagram" xlink:title="A color of the hair of a person." target="_top">
<polygon fill="#ebebeb" stroke="transparent" points="258.5,-1 258.5,-16 541.5,-16 541.5,-1 258.5,-1"/>
<text text-anchor="start" x="259.5" y="-5.4" font-family="Helvetica,sans-Serif" font-size="12.00" fill="#000000">nc:PersonHairColorText: nc:TextType</text>
</a>
</g>
<polygon fill="#000000" stroke="#000000" points="257.5,-46 257.5,-46 542.5,-46 542.5,-46 257.5,-46"/>
<polygon fill="none" stroke="#000000" points="257,0 257,-62 542,-62 542,0 257,0"/>
</g>
<!-- nc:PersonHairColorAbstract&#45;&gt;SubstitutableElements -->
<g id="edge2" class="edge">
<title>nc:PersonHairColorAbstract&#45;&gt;SubstitutableElements</title>
<path fill="none" stroke="#000000" d="M399.5,-87.1686C399.5,-79.3868 399.5,-70.5481 399.5,-62.2229"/>
<polygon fill="#000000" stroke="#000000" points="396.0001,-87.3018 399.5,-97.3018 403.0001,-87.3018 396.0001,-87.3018"/>
<text text-anchor="middle" x="390" y="-76.65" font-family="Helvetica,sans-Serif" font-size="12.00" fill="#000000">substitutable for</text>
</g>
<!-- Types -->
<g id="node2" class="node">
<title>Types</title>
<text text-anchor="start" x="2" y="-107.4" font-family="Helvetica,sans-Serif" font-weight="bold" font-size="12.00" fill="#000000">Types</text>
<g id="a_node2_3"><a xlink:href="../../biom/FaceImageType/#diagram" xlink:title="A data type for an image of a human face" target="_top">
<polygon fill="#ebebeb" stroke="transparent" points="1,-87 1,-102 189,-102 189,-87 1,-87"/>
<text text-anchor="start" x="2" y="-91.4" font-family="Helvetica,sans-Serif" font-size="12.00" fill="#000000">biom:FaceImageType</text>
</a>
</g>
<g id="a_node2_4"><a xlink:href="../../m/MerchantMarinerDocumentType/#diagram" xlink:title="A data type for a Merchant Mariner Document (MMD)." target="_top">
<text text-anchor="start" x="2" y="-76.4" font-family="Helvetica,sans-Serif" font-size="12.00" fill="#000000">m:MerchantMarinerDocumentType</text>
</a>
</g>
<g id="a_node2_5"><a xlink:href="../../m/SeamanLicenseType/#diagram" xlink:title="A data type for an able&#45;bodied seaman license." target="_top">
<polygon fill="#ebebeb" stroke="transparent" points="1,-57 1,-72 189,-72 189,-57 1,-57"/>
<text text-anchor="start" x="2" y="-61.4" font-family="Helvetica,sans-Serif" font-size="12.00" fill="#000000">m:SeamanLicenseType</text>
</a>
</g>
<g id="a_node2_6"><a xlink:href="../../nc/PersonType/#diagram" xlink:title="A data type for a human being." target="_top">
<text text-anchor="start" x="2" y="-46.4" font-family="Helvetica,sans-Serif" font-size="12.00" fill="#000000">nc:PersonType</text>
</a>
</g>
<polygon fill="#000000" stroke="#000000" points="0,-102 0,-102 190,-102 190,-102 0,-102"/>
<polygon fill="none" stroke="#000000" points="0,-41.5 0,-118.5 190,-118.5 190,-41.5 0,-41.5"/>
</g>
<!-- Types&#45;&gt;nc:PersonHairColorAbstract -->
<g id="edge1" class="edge">
<title>Types:top&#45;&gt;nc:PersonHairColorAbstract</title>
<path fill="none" stroke="#000000" d="M189,-110C225.7543,-110 266.1184,-110 301.5834,-110"/>
<polygon fill="#000000" stroke="#000000" points="301.9345,-113.5001 311.9345,-110 301.9344,-106.5001 301.9345,-113.5001"/>
<text text-anchor="middle" x="223.5" y="-113.4" font-family="Helvetica,sans-Serif" font-size="12.00" fill="#000000">has&#45;a</text>
</g>
</g>
</svg>
