<?xml version="1.0" encoding="UTF-8" standalone="no"?>
<!DOCTYPE svg PUBLIC "-//W3C//DTD SVG 1.1//EN"
 "http://www.w3.org/Graphics/SVG/1.1/DTD/svg11.dtd">
<!-- Generated by graphviz version 2.40.1 (20161225.0304)
 -->
<!-- Title: graphic Pages: 1 -->
<svg width="706pt" height="45pt"
 viewBox="0.00 0.00 706.00 45.00" xmlns="http://www.w3.org/2000/svg" xmlns:xlink="http://www.w3.org/1999/xlink">
<g id="graph0" class="graph" transform="scale(1 1) rotate(0) translate(4 41)">
<title>graphic</title>
<polygon fill="#ffffff" stroke="transparent" points="-4,4 -4,-41 702,-41 702,4 -4,4"/>
<!-- cbrn:SpectrumPeakNetAreaUncertaintyValue -->
<g id="node1" class="node">
<title>cbrn:SpectrumPeakNetAreaUncertaintyValue</title>
<text text-anchor="start" x="210" y="-21.4" font-family="Helvetica,sans-Serif" font-weight="bold" font-size="12.00" fill="#000000">cbrn:SpectrumPeakNetAreaUncertaintyValue</text>
<polygon fill="none" stroke="#ff0000" stroke-width="5" points="206.5,-14 206.5,-34 471.5,-34 471.5,-14 206.5,-14"/>
</g>
<!-- cbrn:NonNegativeDoubleType -->
<g id="node3" class="node">
<title>cbrn:NonNegativeDoubleType</title>
<g id="a_node3_0"><a xlink:href="../../cbrn/NonNegativeDoubleType/#diagram" xlink:title="A data type for a double with value of zero or greater." target="_top">
<text text-anchor="start" x="535.5" y="-20.4" font-family="Helvetica,sans-Serif" font-size="12.00" fill="#000000">cbrn:NonNegativeDoubleType</text>
</a>
</g>
<polygon fill="none" stroke="#000000" points="533,-15.5 533,-32.5 698,-32.5 698,-15.5 533,-15.5"/>
</g>
<!-- cbrn:SpectrumPeakNetAreaUncertaintyValue&#45;&gt;cbrn:NonNegativeDoubleType -->
<g id="edge2" class="edge">
<title>cbrn:SpectrumPeakNetAreaUncertaintyValue&#45;&gt;cbrn:NonNegativeDoubleType</title>
<path fill="none" stroke="#000000" d="M474.01,-24C490.4282,-24 506.9073,-24 522.5205,-24"/>
<polygon fill="#000000" stroke="#000000" points="522.6463,-27.5001 532.6463,-24 522.6462,-20.5001 522.6463,-27.5001"/>
<text text-anchor="middle" x="503.5" y="-27.4" font-family="Helvetica,sans-Serif" font-size="12.00" fill="#000000">type</text>
</g>
<!-- Types -->
<g id="node2" class="node">
<title>Types</title>
<text text-anchor="start" x="2.5" y="-21.4" font-family="Helvetica,sans-Serif" font-weight="bold" font-size="12.00" fill="#000000">Types</text>
<g id="a_node2_1"><a xlink:href="../../cbrn/SpectrumPeakType/#diagram" xlink:title="A data type that provides spectrum peak analysis results information for a single peak." target="_top">
<polygon fill="#ebebeb" stroke="transparent" points="1.5,-1 1.5,-16 136.5,-16 136.5,-1 1.5,-1"/>
<text text-anchor="start" x="2.5" y="-5.4" font-family="Helvetica,sans-Serif" font-size="12.00" fill="#000000">cbrn:SpectrumPeakType</text>
</a>
</g>
<polygon fill="#000000" stroke="#000000" points=".5,-16 .5,-16 137.5,-16 137.5,-16 .5,-16"/>
<polygon fill="none" stroke="#000000" points="0,0 0,-32 137,-32 137,0 0,0"/>
</g>
<!-- Types&#45;&gt;cbrn:SpectrumPeakNetAreaUncertaintyValue -->
<g id="edge1" class="edge">
<title>Types:top&#45;&gt;cbrn:SpectrumPeakNetAreaUncertaintyValue</title>
<path fill="none" stroke="#000000" d="M136.5,-24C155.0614,-24 174.5798,-24 193.871,-24"/>
<polygon fill="#000000" stroke="#000000" points="193.9321,-27.5001 203.9321,-24 193.9321,-20.5001 193.9321,-27.5001"/>
<text text-anchor="middle" x="170.5" y="-27.4" font-family="Helvetica,sans-Serif" font-size="12.00" fill="#000000">has&#45;a</text>
</g>
</g>
</svg>
