<?xml version="1.0" encoding="UTF-8" standalone="no"?>
<!DOCTYPE svg PUBLIC "-//W3C//DTD SVG 1.1//EN"
 "http://www.w3.org/Graphics/SVG/1.1/DTD/svg11.dtd">
<!-- Generated by graphviz version 2.40.1 (20161225.0304)
 -->
<!-- Title: graphic Pages: 1 -->
<svg width="666pt" height="154pt"
 viewBox="0.00 0.00 666.00 153.50" xmlns="http://www.w3.org/2000/svg" xmlns:xlink="http://www.w3.org/1999/xlink">
<g id="graph0" class="graph" transform="scale(1 1) rotate(0) translate(4 149.5)">
<title>graphic</title>
<polygon fill="#ffffff" stroke="transparent" points="-4,4 -4,-149.5 662,-149.5 662,4 -4,4"/>
<!-- aamva_d20:DriverLicenseMedicalSelfCertificationCodeType -->
<g id="node1" class="node">
<title>aamva_d20:DriverLicenseMedicalSelfCertificationCodeType</title>
<text text-anchor="start" x="306.5" y="-25.4" font-family="Helvetica,sans-Serif" font-weight="bold" font-size="12.00" fill="#000000">aamva_d20:DriverLicenseMedicalSelfCertificationCodeType</text>
<g id="a_node1_0"><a xlink:href="../../structures/SimpleObjectAttributeGroup/#diagram" xlink:title="A group of attributes that are applicable to objects, to be used when defining a complex type that is an extension of a simple type." target="_top">
<polygon fill="#ebebeb" stroke="transparent" points="305.5,-5 305.5,-20 650.5,-20 650.5,-5 305.5,-5"/>
<text text-anchor="start" x="306.5" y="-9.4" font-family="Helvetica,sans-Serif" font-size="12.00" fill="#000000">structures:SimpleObjectAttributeGroup</text>
</a>
</g>
<polygon fill="#ff0000" stroke="#ff0000" points="300.5,-20 300.5,-20 655.5,-20 655.5,-20 300.5,-20"/>
<polygon fill="none" stroke="#ff0000" stroke-width="5" points="302.5,-2.5 302.5,-37.5 652.5,-37.5 652.5,-2.5 302.5,-2.5"/>
</g>
<!-- Properties -->
<g id="node2" class="node">
<title>Properties</title>
<text text-anchor="start" x="2" y="-25.4" font-family="Helvetica,sans-Serif" font-weight="bold" font-size="12.00" fill="#000000">Properties</text>
<g id="a_node2_1"><a xlink:href="../../j/DriverLicenseMedicalSelfCertificationCode/#diagram" xlink:title="A driver&#39;s self certification of the commercial driver&#39;s status regarding 49 CFR 390.3 and the type of driving." target="_top">
<polygon fill="#ebebeb" stroke="transparent" points="1,-5 1,-20 237,-20 237,-5 1,-5"/>
<text text-anchor="start" x="2" y="-9.4" font-family="Helvetica,sans-Serif" font-size="12.00" fill="#000000">j:DriverLicenseMedicalSelfCertificationCode</text>
</a>
</g>
<polygon fill="#000000" stroke="#000000" points="0,-20 0,-20 238,-20 238,-20 0,-20"/>
<polygon fill="none" stroke="#000000" points="0,-4 0,-36 238,-36 238,-4 0,-4"/>
</g>
<!-- Properties&#45;&gt;aamva_d20:DriverLicenseMedicalSelfCertificationCodeType -->
<g id="edge1" class="edge">
<title>Properties:top&#45;&gt;aamva_d20:DriverLicenseMedicalSelfCertificationCodeType:top</title>
<path fill="none" stroke="#000000" d="M237,-28C263.7578,-28 272.8774,-28 295.3635,-28"/>
<polygon fill="#000000" stroke="#000000" points="295.5,-31.5001 305.5,-28 295.5,-24.5001 295.5,-31.5001"/>
<text text-anchor="middle" x="267.5" y="-31.4" font-family="Helvetica,sans-Serif" font-size="12.00" fill="#000000">type</text>
</g>
<!-- aamva_d20:DriverLicenseMedicalSelfCertificationCodeSimpleType -->
<g id="node3" class="node">
<title>aamva_d20:DriverLicenseMedicalSelfCertificationCodeSimpleType</title>
<g id="a_node3_2"><a xlink:href="../../aamva_d20/DriverLicenseMedicalSelfCertificationCodeSimpleType/#diagram" xlink:title="A data type for a driver&#39;s self certification of the commercial driver&#39;s status regarding 49 CFR 390.3 and the type of driving." target="_top">
<text text-anchor="start" x="299.5" y="-80.4" font-family="Helvetica,sans-Serif" font-size="12.00" fill="#000000">aamva_d20:DriverLicenseMedicalSelfCertificationCodeSimpleType</text>
</a>
</g>
<polygon fill="none" stroke="#000000" points="297,-75.5 297,-92.5 658,-92.5 658,-75.5 297,-75.5"/>
</g>
<!-- aamva_d20:DriverLicenseMedicalSelfCertificationCodeSimpleType&#45;&gt;aamva_d20:DriverLicenseMedicalSelfCertificationCodeType -->
<g id="edge2" class="edge">
<title>aamva_d20:DriverLicenseMedicalSelfCertificationCodeSimpleType&#45;&gt;aamva_d20:DriverLicenseMedicalSelfCertificationCodeType</title>
<path fill="none" stroke="#000000" d="M477.5,-75.4351C477.5,-68.931 477.5,-59.5678 477.5,-50.3827"/>
<polygon fill="#000000" stroke="#000000" points="481.0001,-50.25 477.5,-40.25 474.0001,-50.25 481.0001,-50.25"/>
<text text-anchor="middle" x="468" y="-54.65" font-family="Helvetica,sans-Serif" font-size="12.00" fill="#000000">extension</text>
</g>
<!-- xs:token -->
<g id="node4" class="node">
<title>xs:token</title>
<g id="a_node4_3"><a xlink:href="../../xs/token/#diagram" xlink:title="&lt;TABLE&gt;" target="_top">
<text text-anchor="start" x="455.5" y="-133.4" font-family="Helvetica,sans-Serif" font-size="12.00" fill="#000000">xs:token</text>
</a>
</g>
<polygon fill="none" stroke="#000000" points="453,-128.5 453,-145.5 502,-145.5 502,-128.5 453,-128.5"/>
</g>
<!-- xs:token&#45;&gt;aamva_d20:DriverLicenseMedicalSelfCertificationCodeSimpleType -->
<g id="edge3" class="edge">
<title>xs:token&#45;&gt;aamva_d20:DriverLicenseMedicalSelfCertificationCodeSimpleType</title>
<path fill="none" stroke="#000000" d="M477.5,-128.411C477.5,-121.5124 477.5,-111.5696 477.5,-102.84"/>
<polygon fill="#000000" stroke="#000000" points="481.0001,-102.7518 477.5,-92.7519 474.0001,-102.7519 481.0001,-102.7518"/>
<text text-anchor="middle" x="468" y="-107.4" font-family="Helvetica,sans-Serif" font-size="12.00" fill="#000000">restriction</text>
</g>
</g>
</svg>
