<?xml version="1.0" encoding="UTF-8" standalone="no"?>
<!DOCTYPE svg PUBLIC "-//W3C//DTD SVG 1.1//EN"
 "http://www.w3.org/Graphics/SVG/1.1/DTD/svg11.dtd">
<!-- Generated by graphviz version 2.40.1 (20161225.0304)
 -->
<!-- Title: graphic Pages: 1 -->
<svg width="630pt" height="45pt"
 viewBox="0.00 0.00 630.00 45.00" xmlns="http://www.w3.org/2000/svg" xmlns:xlink="http://www.w3.org/1999/xlink">
<g id="graph0" class="graph" transform="scale(1 1) rotate(0) translate(4 41)">
<title>graphic</title>
<polygon fill="#ffffff" stroke="transparent" points="-4,4 -4,-41 626,-41 626,4 -4,4"/>
<!-- j:TransportAssessmentPregnantIndicator -->
<g id="node1" class="node">
<title>j:TransportAssessmentPregnantIndicator</title>
<text text-anchor="start" x="227.5" y="-21.4" font-family="Helvetica,sans-Serif" font-weight="bold" font-size="12.00" fill="#000000">j:TransportAssessmentPregnantIndicator</text>
<polygon fill="none" stroke="#ff0000" stroke-width="5" points="223.5,-14 223.5,-34 467.5,-34 467.5,-14 223.5,-14"/>
</g>
<!-- niem&#45;xs:boolean -->
<g id="node3" class="node">
<title>niem&#45;xs:boolean</title>
<g id="a_node3_0"><a xlink:href="../../niem-xs/boolean/#diagram" xlink:title="A data type for binary&#45;valued logic (true/false)." target="_top">
<text text-anchor="start" x="531.5" y="-20.4" font-family="Helvetica,sans-Serif" font-size="12.00" fill="#000000">niem&#45;xs:boolean</text>
</a>
</g>
<polygon fill="none" stroke="#000000" points="529,-15.5 529,-32.5 622,-32.5 622,-15.5 529,-15.5"/>
</g>
<!-- j:TransportAssessmentPregnantIndicator&#45;&gt;niem&#45;xs:boolean -->
<g id="edge2" class="edge">
<title>j:TransportAssessmentPregnantIndicator&#45;&gt;niem&#45;xs:boolean</title>
<path fill="none" stroke="#000000" d="M470.2601,-24C487.2491,-24 503.9519,-24 518.8712,-24"/>
<polygon fill="#000000" stroke="#000000" points="518.8966,-27.5001 528.8966,-24 518.8965,-20.5001 518.8966,-27.5001"/>
<text text-anchor="middle" x="499.5" y="-27.4" font-family="Helvetica,sans-Serif" font-size="12.00" fill="#000000">type</text>
</g>
<!-- Types -->
<g id="node2" class="node">
<title>Types</title>
<text text-anchor="start" x="2" y="-21.4" font-family="Helvetica,sans-Serif" font-weight="bold" font-size="12.00" fill="#000000">Types</text>
<g id="a_node2_1"><a xlink:href="../../j/TransportAssessmentType/#diagram" xlink:title="A data type for a set of details of the assessment of a subject&#39;s suitability for transport." target="_top">
<polygon fill="#ebebeb" stroke="transparent" points="1,-1 1,-16 153,-16 153,-1 1,-1"/>
<text text-anchor="start" x="2" y="-5.4" font-family="Helvetica,sans-Serif" font-size="12.00" fill="#000000">j:TransportAssessmentType</text>
</a>
</g>
<polygon fill="#000000" stroke="#000000" points="0,-16 0,-16 154,-16 154,-16 0,-16"/>
<polygon fill="none" stroke="#000000" points="0,0 0,-32 154,-32 154,0 0,0"/>
</g>
<!-- Types&#45;&gt;j:TransportAssessmentPregnantIndicator -->
<g id="edge1" class="edge">
<title>Types:top&#45;&gt;j:TransportAssessmentPregnantIndicator</title>
<path fill="none" stroke="#000000" d="M153,-24C171.712,-24 191.4472,-24 210.8628,-24"/>
<polygon fill="#000000" stroke="#000000" points="210.9798,-27.5001 220.9797,-24 210.9797,-20.5001 210.9798,-27.5001"/>
<text text-anchor="middle" x="187.5" y="-27.4" font-family="Helvetica,sans-Serif" font-size="12.00" fill="#000000">has&#45;a</text>
</g>
</g>
</svg>
