<?xml version="1.0" encoding="UTF-8" standalone="no"?>
<!DOCTYPE svg PUBLIC "-//W3C//DTD SVG 1.1//EN"
 "http://www.w3.org/Graphics/SVG/1.1/DTD/svg11.dtd">
<!-- Generated by graphviz version 2.40.1 (20161225.0304)
 -->
<!-- Title: graphic Pages: 1 -->
<svg width="393pt" height="86pt"
 viewBox="0.00 0.00 393.00 86.00" xmlns="http://www.w3.org/2000/svg" xmlns:xlink="http://www.w3.org/1999/xlink">
<g id="graph0" class="graph" transform="scale(1 1) rotate(0) translate(4 82)">
<title>graphic</title>
<polygon fill="#ffffff" stroke="transparent" points="-4,4 -4,-82 389,-82 389,4 -4,4"/>
<!-- j:MissingPersonCircumstanceCode -->
<g id="node1" class="node">
<title>j:MissingPersonCircumstanceCode</title>
<text text-anchor="start" x="6.5" y="-9.9" font-family="Helvetica,sans-Serif" font-weight="bold" font-size="12.00" fill="#000000">j:MissingPersonCircumstanceCode</text>
<polygon fill="none" stroke="#ff0000" stroke-width="5" points="2.5,-2.5 2.5,-22.5 212.5,-22.5 212.5,-2.5 2.5,-2.5"/>
</g>
<!-- ncic:MPCCodeType -->
<g id="node3" class="node">
<title>ncic:MPCCodeType</title>
<g id="a_node3_0"><a xlink:href="../../ncic/MPCCodeType/#diagram" xlink:title="A data type for 10 &#45; Missing Person Circumstances (MPC) Field Codes" target="_top">
<text text-anchor="start" x="276.5" y="-8.9" font-family="Helvetica,sans-Serif" font-size="12.00" fill="#000000">ncic:MPCCodeType</text>
</a>
</g>
<polygon fill="none" stroke="#000000" points="274,-4 274,-21 385,-21 385,-4 274,-4"/>
</g>
<!-- j:MissingPersonCircumstanceCode&#45;&gt;ncic:MPCCodeType -->
<g id="edge2" class="edge">
<title>j:MissingPersonCircumstanceCode&#45;&gt;ncic:MPCCodeType</title>
<path fill="none" stroke="#000000" d="M215.2485,-12.5C231.7642,-12.5 248.3761,-12.5 263.6198,-12.5"/>
<polygon fill="#000000" stroke="#000000" points="263.9365,-16.0001 273.9365,-12.5 263.9365,-9.0001 263.9365,-16.0001"/>
<text text-anchor="middle" x="244.5" y="-15.9" font-family="Helvetica,sans-Serif" font-size="12.00" fill="#000000">type</text>
</g>
<!-- SubstitutionGroup -->
<g id="node2" class="node">
<title>SubstitutionGroup</title>
<g id="a_node2_1"><a xlink:href="../../j/MissingPersonCircumstanceAbstract/#diagram" xlink:title="A data concept for a circumstance surrounding the disappearance of a person." target="_top">
<text text-anchor="start" x="6.5" y="-65.9" font-family="Helvetica,sans-Serif" font-size="12.00" fill="#000000">j:MissingPersonCircumstanceAbstract</text>
</a>
</g>
<polygon fill="none" stroke="#000000" points="4,-61 4,-78 211,-78 211,-61 4,-61"/>
</g>
<!-- SubstitutionGroup&#45;&gt;j:MissingPersonCircumstanceCode -->
<g id="edge1" class="edge">
<title>SubstitutionGroup&#45;&gt;j:MissingPersonCircumstanceCode</title>
<path fill="none" stroke="#000000" d="M107.5,-50.9163C107.5,-42.4809 107.5,-32.7214 107.5,-25.1501"/>
<polygon fill="#000000" stroke="#000000" points="104.0001,-50.9472 107.5,-60.9473 111.0001,-50.9473 104.0001,-50.9472"/>
<text text-anchor="middle" x="98" y="-39.9" font-family="Helvetica,sans-Serif" font-size="12.00" fill="#000000">substitution group</text>
</g>
</g>
</svg>
