<?xml version="1.0" encoding="UTF-8" standalone="no"?>
<!DOCTYPE svg PUBLIC "-//W3C//DTD SVG 1.1//EN"
 "http://www.w3.org/Graphics/SVG/1.1/DTD/svg11.dtd">
<!-- Generated by graphviz version 2.40.1 (20161225.0304)
 -->
<!-- Title: graphic Pages: 1 -->
<svg width="603pt" height="45pt"
 viewBox="0.00 0.00 603.00 45.00" xmlns="http://www.w3.org/2000/svg" xmlns:xlink="http://www.w3.org/1999/xlink">
<g id="graph0" class="graph" transform="scale(1 1) rotate(0) translate(4 41)">
<title>graphic</title>
<polygon fill="#ffffff" stroke="transparent" points="-4,4 -4,-41 599,-41 599,4 -4,4"/>
<!-- j:ApprenticeshipTrainingTermNumeric -->
<g id="node1" class="node">
<title>j:ApprenticeshipTrainingTermNumeric</title>
<text text-anchor="start" x="218" y="-21.4" font-family="Helvetica,sans-Serif" font-weight="bold" font-size="12.00" fill="#000000">j:ApprenticeshipTrainingTermNumeric</text>
<polygon fill="none" stroke="#ff0000" stroke-width="5" points="214.5,-14 214.5,-34 441.5,-34 441.5,-14 214.5,-14"/>
</g>
<!-- nc:NumericType -->
<g id="node3" class="node">
<title>nc:NumericType</title>
<g id="a_node3_0"><a xlink:href="../../nc/NumericType/#diagram" xlink:title="A data type for a number value." target="_top">
<text text-anchor="start" x="505" y="-20.4" font-family="Helvetica,sans-Serif" font-size="12.00" fill="#000000">nc:NumericType</text>
</a>
</g>
<polygon fill="none" stroke="#000000" points="503,-15.5 503,-32.5 595,-32.5 595,-15.5 503,-15.5"/>
</g>
<!-- j:ApprenticeshipTrainingTermNumeric&#45;&gt;nc:NumericType -->
<g id="edge2" class="edge">
<title>j:ApprenticeshipTrainingTermNumeric&#45;&gt;nc:NumericType</title>
<path fill="none" stroke="#000000" d="M444.0014,-24C460.9359,-24 477.6976,-24 492.6905,-24"/>
<polygon fill="#000000" stroke="#000000" points="492.7679,-27.5001 502.7679,-24 492.7679,-20.5001 492.7679,-27.5001"/>
<text text-anchor="middle" x="473.5" y="-27.4" font-family="Helvetica,sans-Serif" font-size="12.00" fill="#000000">type</text>
</g>
<!-- Types -->
<g id="node2" class="node">
<title>Types</title>
<text text-anchor="start" x="2.5" y="-21.4" font-family="Helvetica,sans-Serif" font-weight="bold" font-size="12.00" fill="#000000">Types</text>
<g id="a_node2_1"><a xlink:href="../../j/ApprenticeshipTermType/#diagram" xlink:title="A data type for a period of scheduled skills training." target="_top">
<polygon fill="#ebebeb" stroke="transparent" points="1.5,-1 1.5,-16 144.5,-16 144.5,-1 1.5,-1"/>
<text text-anchor="start" x="2.5" y="-5.4" font-family="Helvetica,sans-Serif" font-size="12.00" fill="#000000">j:ApprenticeshipTermType</text>
</a>
</g>
<polygon fill="#000000" stroke="#000000" points=".5,-16 .5,-16 145.5,-16 145.5,-16 .5,-16"/>
<polygon fill="none" stroke="#000000" points="0,0 0,-32 145,-32 145,0 0,0"/>
</g>
<!-- Types&#45;&gt;j:ApprenticeshipTrainingTermNumeric -->
<g id="edge1" class="edge">
<title>Types:top&#45;&gt;j:ApprenticeshipTrainingTermNumeric</title>
<path fill="none" stroke="#000000" d="M144.5,-24C162.8629,-24 182.2595,-24 201.2934,-24"/>
<polygon fill="#000000" stroke="#000000" points="201.5126,-27.5001 211.5126,-24 201.5125,-20.5001 201.5126,-27.5001"/>
<text text-anchor="middle" x="178.5" y="-27.4" font-family="Helvetica,sans-Serif" font-size="12.00" fill="#000000">has&#45;a</text>
</g>
</g>
</svg>
