<?xml version="1.0" encoding="UTF-8" standalone="no"?>
<!DOCTYPE svg PUBLIC "-//W3C//DTD SVG 1.1//EN"
 "http://www.w3.org/Graphics/SVG/1.1/DTD/svg11.dtd">
<!-- Generated by graphviz version 2.40.1 (20161225.0304)
 -->
<!-- Title: graphic Pages: 1 -->
<svg width="690pt" height="45pt"
 viewBox="0.00 0.00 690.00 45.00" xmlns="http://www.w3.org/2000/svg" xmlns:xlink="http://www.w3.org/1999/xlink">
<g id="graph0" class="graph" transform="scale(1 1) rotate(0) translate(4 41)">
<title>graphic</title>
<polygon fill="#ffffff" stroke="transparent" points="-4,4 -4,-41 686,-41 686,4 -4,4"/>
<!-- it:DocumentMessageFunctionCategory -->
<g id="node1" class="node">
<title>it:DocumentMessageFunctionCategory</title>
<text text-anchor="start" x="174" y="-21.4" font-family="Helvetica,sans-Serif" font-weight="bold" font-size="12.00" fill="#000000">it:DocumentMessageFunctionCategory</text>
<polygon fill="none" stroke="#ff0000" stroke-width="5" points="170.5,-14 170.5,-34 401.5,-34 401.5,-14 170.5,-14"/>
</g>
<!-- it:WCODocumentFunctionCategoryType -->
<g id="node3" class="node">
<title>it:WCODocumentFunctionCategoryType</title>
<g id="a_node3_0"><a xlink:href="../../it/WCODocumentFunctionCategoryType/#diagram" xlink:title="A data type for the codes that categorized the documents based on the functionality addressed by the document." target="_top">
<text text-anchor="start" x="465.5" y="-20.4" font-family="Helvetica,sans-Serif" font-size="12.00" fill="#000000">it:WCODocumentFunctionCategoryType</text>
</a>
</g>
<polygon fill="none" stroke="#000000" points="463,-15.5 463,-32.5 682,-32.5 682,-15.5 463,-15.5"/>
</g>
<!-- it:DocumentMessageFunctionCategory&#45;&gt;it:WCODocumentFunctionCategoryType -->
<g id="edge2" class="edge">
<title>it:DocumentMessageFunctionCategory&#45;&gt;it:WCODocumentFunctionCategoryType</title>
<path fill="none" stroke="#000000" d="M404.1846,-24C420.1164,-24 436.4752,-24 452.4392,-24"/>
<polygon fill="#000000" stroke="#000000" points="452.8644,-27.5001 462.8644,-24 452.8644,-20.5001 452.8644,-27.5001"/>
<text text-anchor="middle" x="433.5" y="-27.4" font-family="Helvetica,sans-Serif" font-size="12.00" fill="#000000">type</text>
</g>
<!-- Types -->
<g id="node2" class="node">
<title>Types</title>
<text text-anchor="start" x="2.5" y="-21.4" font-family="Helvetica,sans-Serif" font-weight="bold" font-size="12.00" fill="#000000">Types</text>
<g id="a_node2_1"><a xlink:href="../../it/DeclarationType/#diagram" xlink:title="A data type that describes a formal statement made for use in International Trade office mostly for customs purpose." target="_top">
<polygon fill="#ebebeb" stroke="transparent" points="1.5,-1 1.5,-16 100.5,-16 100.5,-1 1.5,-1"/>
<text text-anchor="start" x="2.5" y="-5.4" font-family="Helvetica,sans-Serif" font-size="12.00" fill="#000000">it:DeclarationType</text>
</a>
</g>
<polygon fill="#000000" stroke="#000000" points=".5,-16 .5,-16 101.5,-16 101.5,-16 .5,-16"/>
<polygon fill="none" stroke="#000000" points="0,0 0,-32 101,-32 101,0 0,0"/>
</g>
<!-- Types&#45;&gt;it:DocumentMessageFunctionCategory -->
<g id="edge1" class="edge">
<title>Types:top&#45;&gt;it:DocumentMessageFunctionCategory</title>
<path fill="none" stroke="#000000" d="M100.5,-24C118.9266,-24 138.3828,-24 157.4879,-24"/>
<polygon fill="#000000" stroke="#000000" points="157.7467,-27.5001 167.7467,-24 157.7467,-20.5001 157.7467,-27.5001"/>
<text text-anchor="middle" x="134.5" y="-27.4" font-family="Helvetica,sans-Serif" font-size="12.00" fill="#000000">has&#45;a</text>
</g>
</g>
</svg>
