<?xml version="1.0" encoding="UTF-8" standalone="no"?>
<!DOCTYPE svg PUBLIC "-//W3C//DTD SVG 1.1//EN"
 "http://www.w3.org/Graphics/SVG/1.1/DTD/svg11.dtd">
<!-- Generated by graphviz version 2.40.1 (20161225.0304)
 -->
<!-- Title: graphic Pages: 1 -->
<svg width="813pt" height="296pt"
 viewBox="0.00 0.00 813.00 296.00" xmlns="http://www.w3.org/2000/svg" xmlns:xlink="http://www.w3.org/1999/xlink">
<g id="graph0" class="graph" transform="scale(1 1) rotate(0) translate(4 292)">
<title>graphic</title>
<polygon fill="#ffffff" stroke="transparent" points="-4,4 -4,-292 809,-292 809,4 -4,4"/>
<!-- mo:EventType -->
<g id="node1" class="node">
<title>mo:EventType</title>
<text text-anchor="start" x="129" y="-219.9" font-family="Helvetica,sans-Serif" font-weight="bold" font-size="12.00" fill="#000000">mo:EventType</text>
<g id="a_node1_0"><a xlink:href="../../mo/EventName/#diagram" xlink:title="A name of some event." target="_top">
<polygon fill="#ebebeb" stroke="transparent" points="128,-199.5 128,-214.5 466,-214.5 466,-199.5 128,-199.5"/>
<text text-anchor="start" x="129" y="-203.9" font-family="Helvetica,sans-Serif" font-size="12.00" fill="#000000">mo:EventName: niem&#45;xs:string [0&#45;n]</text>
</a>
</g>
<g id="a_node1_1"><a xlink:href="../../mo/EventDescriptionText/#diagram" xlink:title="A description of some event." target="_top">
<text text-anchor="start" x="129" y="-188.9" font-family="Helvetica,sans-Serif" font-size="12.00" fill="#000000">mo:EventDescriptionText: niem&#45;xs:string [0&#45;n]</text>
</a>
</g>
<g id="a_node1_2"><a xlink:href="../../mo/EventStatusAbstract/#diagram" xlink:title="A data concept for a state or condition, with respect to circumstances, of some event." target="_top">
<polygon fill="#ebebeb" stroke="transparent" points="128,-169.5 128,-184.5 466,-184.5 466,-169.5 128,-169.5"/>
<text text-anchor="start" x="129" y="-173.9" font-family="Helvetica,sans-Serif" font-size="12.00" fill="#000000">mo:EventStatusAbstract [0&#45;n]</text>
</a>
</g>
<g id="a_node1_3"><a xlink:href="../../mo/EventCategoryAbstract/#diagram" xlink:title="A data concept for the type or kind of an event." target="_top">
<text text-anchor="start" x="129" y="-158.9" font-family="Helvetica,sans-Serif" font-size="12.00" fill="#000000">mo:EventCategoryAbstract [0&#45;n]</text>
</a>
</g>
<g id="a_node1_4"><a xlink:href="../../mo/EventSymbolAbstract/#diagram" xlink:title="A data concept for a graphic sign usually on a map, display, or diagram, which represents some event of military interest." target="_top">
<polygon fill="#ebebeb" stroke="transparent" points="128,-139.5 128,-154.5 466,-154.5 466,-139.5 128,-139.5"/>
<text text-anchor="start" x="129" y="-143.9" font-family="Helvetica,sans-Serif" font-size="12.00" fill="#000000">mo:EventSymbolAbstract [0&#45;n]</text>
</a>
</g>
<g id="a_node1_5"><a xlink:href="../../mo/EventLocation/#diagram" xlink:title="A location of a process or object." target="_top">
<text text-anchor="start" x="129" y="-128.9" font-family="Helvetica,sans-Serif" font-size="12.00" fill="#000000">mo:EventLocation: nc:LocationType [0&#45;n]</text>
</a>
</g>
<g id="a_node1_6"><a xlink:href="../../mo/EventIdentification/#diagram" xlink:title="An identification of an event." target="_top">
<polygon fill="#ebebeb" stroke="transparent" points="128,-109.5 128,-124.5 466,-124.5 466,-109.5 128,-109.5"/>
<text text-anchor="start" x="129" y="-113.9" font-family="Helvetica,sans-Serif" font-size="12.00" fill="#000000">mo:EventIdentification: nc:IdentificationType [0&#45;n]</text>
</a>
</g>
<g id="a_node1_7"><a xlink:href="../../mo/EventValidityDateTimeRange/#diagram" xlink:title="A start and stop time of the Event." target="_top">
<text text-anchor="start" x="129" y="-98.9" font-family="Helvetica,sans-Serif" font-size="12.00" fill="#000000">mo:EventValidityDateTimeRange: nc:DateRangeType [0&#45;n]</text>
</a>
</g>
<g id="a_node1_8"><a xlink:href="../../mo/EventMessageDateTime/#diagram" xlink:title="A point in time at which this message was created." target="_top">
<polygon fill="#ebebeb" stroke="transparent" points="128,-79.5 128,-94.5 466,-94.5 466,-79.5 128,-79.5"/>
<text text-anchor="start" x="129" y="-83.9" font-family="Helvetica,sans-Serif" font-size="12.00" fill="#000000">mo:EventMessageDateTime: nc:DateType [0&#45;n]</text>
</a>
</g>
<g id="a_node1_9"><a xlink:href="../../mo/EventMotion/#diagram" xlink:title="A 2D or 3D vector describing the motion of a process or object." target="_top">
<text text-anchor="start" x="129" y="-68.9" font-family="Helvetica,sans-Serif" font-size="12.00" fill="#000000">mo:EventMotion: mo:MotionType [0&#45;n]</text>
</a>
</g>
<g id="a_node1_10"><a xlink:href="../../mo/EventRelativeOrientation/#diagram" xlink:title="A set of angles of rotation about the principle axes (normal, lateral, longitudinal) of a process or object, relative to the Earth and direction of motion, measured in degrees." target="_top">
<polygon fill="#ebebeb" stroke="transparent" points="128,-49.5 128,-64.5 466,-64.5 466,-49.5 128,-49.5"/>
<text text-anchor="start" x="129" y="-53.9" font-family="Helvetica,sans-Serif" font-size="12.00" fill="#000000">mo:EventRelativeOrientation: mo:RelativeOrientationType [0&#45;n]</text>
</a>
</g>
<g id="a_node1_11"><a xlink:href="../../mo/EventContact/#diagram" xlink:title="A means of contacting the object or process described in this Event." target="_top">
<text text-anchor="start" x="129" y="-38.9" font-family="Helvetica,sans-Serif" font-size="12.00" fill="#000000">mo:EventContact: nc:ContactInformationType [0&#45;n]</text>
</a>
</g>
<g id="a_node1_12"><a xlink:href="../../mo/EventComment/#diagram" xlink:title="A comment about the process or object." target="_top">
<polygon fill="#ebebeb" stroke="transparent" points="128,-19.5 128,-34.5 466,-34.5 466,-19.5 128,-19.5"/>
<text text-anchor="start" x="129" y="-23.9" font-family="Helvetica,sans-Serif" font-size="12.00" fill="#000000">mo:EventComment: nc:CommentType [0&#45;n]</text>
</a>
</g>
<g id="a_node1_13"><a xlink:href="../../mo/EventAugmentationPoint/#diagram" xlink:title="An augmentation point for type mo:EventType." target="_top">
<text text-anchor="start" x="129" y="-8.9" font-family="Helvetica,sans-Serif" font-size="12.00" fill="#000000">mo:EventAugmentationPoint [0&#45;n]</text>
</a>
</g>
<polygon fill="#ff0000" stroke="#ff0000" points="123,-214.5 123,-214.5 471,-214.5 471,-214.5 123,-214.5"/>
<polygon fill="none" stroke="#ff0000" stroke-width="5" points="125.5,-2.5 125.5,-232.5 468.5,-232.5 468.5,-2.5 125.5,-2.5"/>
</g>
<!-- subst_d9e4489 -->
<g id="node2" class="node">
<title>subst_d9e4489</title>
<g id="a_node2_14"><a xlink:href="../../mo/EventCategoryAbstract/#diagram" xlink:title="&lt;TABLE&gt;" target="_top">
<text text-anchor="start" x="510.5" y="-159.9" font-family="Helvetica,sans-Serif" font-weight="bold" font-size="12.00" fill="#000000">Substitution group mo:EventCategoryAbstract</text>
</a>
</g>
<g id="a_node2_15"><a xlink:href="../../mo/EventCategoryCode/#diagram" xlink:title="A type or kind of an event." target="_top">
<polygon fill="#ebebeb" stroke="transparent" points="509.5,-139.5 509.5,-154.5 804.5,-154.5 804.5,-139.5 509.5,-139.5"/>
<text text-anchor="start" x="510.5" y="-143.9" font-family="Helvetica,sans-Serif" font-size="12.00" fill="#000000">mo:EventCategoryCode: mo:CodespaceCodePairType</text>
</a>
</g>
<polygon fill="#000000" stroke="#000000" points="508.5,-154.5 508.5,-154.5 805.5,-154.5 805.5,-154.5 508.5,-154.5"/>
<polygon fill="none" stroke="#000000" points="508,-138.5 508,-170.5 805,-170.5 805,-138.5 508,-138.5"/>
</g>
<!-- mo:EventType&#45;&gt;subst_d9e4489 -->
<g id="edge1" class="edge">
<title>mo:EventType:e&#45;&gt;subst_d9e4489:w</title>
<path fill="none" stroke="#000000" d="M476.2295,-162.5C487.8951,-162.5 494.0938,-162.5 509.5,-162.5"/>
<polygon fill="#000000" stroke="#000000" points="476,-159.0001 466,-162.5 476,-166.0001 476,-159.0001"/>
</g>
<!-- Properties -->
<g id="node3" class="node">
<title>Properties</title>
<text text-anchor="start" x="2" y="-219.9" font-family="Helvetica,sans-Serif" font-weight="bold" font-size="12.00" fill="#000000">Properties</text>
<g id="a_node3_16"><a xlink:href="../../mo/Event/#diagram" xlink:title="An existence of a process or object at a location during a time interval." target="_top">
<polygon fill="#ebebeb" stroke="transparent" points="1,-199.5 1,-214.5 63,-214.5 63,-199.5 1,-199.5"/>
<text text-anchor="start" x="2" y="-203.9" font-family="Helvetica,sans-Serif" font-size="12.00" fill="#000000">mo:Event</text>
</a>
</g>
<polygon fill="#000000" stroke="#000000" points="0,-214.5 0,-214.5 64,-214.5 64,-214.5 0,-214.5"/>
<polygon fill="none" stroke="#000000" points="0,-198.5 0,-230.5 64,-230.5 64,-198.5 0,-198.5"/>
</g>
<!-- Properties&#45;&gt;mo:EventType -->
<g id="edge2" class="edge">
<title>Properties:top&#45;&gt;mo:EventType:top</title>
<path fill="none" stroke="#000000" d="M63,-222.5C88.1649,-222.5 96.8891,-222.5 117.8154,-222.5"/>
<polygon fill="#000000" stroke="#000000" points="118,-226.0001 128,-222.5 118,-219.0001 118,-226.0001"/>
<text text-anchor="middle" x="93.5" y="-225.9" font-family="Helvetica,sans-Serif" font-size="12.00" fill="#000000">type</text>
</g>
<!-- structures:ObjectType -->
<g id="node4" class="node">
<title>structures:ObjectType</title>
<g id="a_node4_17"><a xlink:href="../../structures/ObjectType/#diagram" xlink:title="A data type for a thing with its own lifespan that has some existence." target="_top">
<text text-anchor="start" x="238" y="-275.9" font-family="Helvetica,sans-Serif" font-size="12.00" fill="#000000">structures:ObjectType</text>
</a>
</g>
<polygon fill="none" stroke="#000000" points="236,-271 236,-288 358,-288 358,-271 236,-271"/>
</g>
<!-- structures:ObjectType&#45;&gt;mo:EventType -->
<g id="edge3" class="edge">
<title>structures:ObjectType&#45;&gt;mo:EventType</title>
<path fill="none" stroke="#000000" d="M297,-270.9046C297,-264.8215 297,-255.8875 297,-245.3388"/>
<polygon fill="#000000" stroke="#000000" points="300.5001,-245.2328 297,-235.2328 293.5001,-245.2328 300.5001,-245.2328"/>
<text text-anchor="middle" x="287.5" y="-249.9" font-family="Helvetica,sans-Serif" font-size="12.00" fill="#000000">extension</text>
</g>
</g>
</svg>
