<?xml version="1.0" encoding="UTF-8" standalone="no"?>
<!DOCTYPE svg PUBLIC "-//W3C//DTD SVG 1.1//EN"
 "http://www.w3.org/Graphics/SVG/1.1/DTD/svg11.dtd">
<!-- Generated by graphviz version 2.40.1 (20161225.0304)
 -->
<!-- Title: graphic Pages: 1 -->
<svg width="922pt" height="45pt"
 viewBox="0.00 0.00 922.00 45.00" xmlns="http://www.w3.org/2000/svg" xmlns:xlink="http://www.w3.org/1999/xlink">
<g id="graph0" class="graph" transform="scale(1 1) rotate(0) translate(4 41)">
<title>graphic</title>
<polygon fill="#ffffff" stroke="transparent" points="-4,4 -4,-41 918,-41 918,4 -4,4"/>
<!-- ag:ReportedAcreageModifiedOtherReasonText -->
<g id="node1" class="node">
<title>ag:ReportedAcreageModifiedOtherReasonText</title>
<text text-anchor="start" x="260" y="-21.4" font-family="Helvetica,sans-Serif" font-weight="bold" font-size="12.00" fill="#000000">ag:ReportedAcreageModifiedOtherReasonText</text>
<polygon fill="none" stroke="#ff0000" stroke-width="5" points="256.5,-14 256.5,-34 531.5,-34 531.5,-14 256.5,-14"/>
</g>
<!-- ag_codes:ReportedAcreageModifiedOtherReasonTextType -->
<g id="node3" class="node">
<title>ag_codes:ReportedAcreageModifiedOtherReasonTextType</title>
<g id="a_node3_0"><a xlink:href="../../ag_codes/ReportedAcreageModifiedOtherReasonTextType/#diagram" xlink:title="A data type for reason code identifying the reason that the reported acreage was modified from its original value." target="_top">
<text text-anchor="start" x="595.5" y="-20.4" font-family="Helvetica,sans-Serif" font-size="12.00" fill="#000000">ag_codes:ReportedAcreageModifiedOtherReasonTextType</text>
</a>
</g>
<polygon fill="none" stroke="#000000" points="593,-15.5 593,-32.5 914,-32.5 914,-15.5 593,-15.5"/>
</g>
<!-- ag:ReportedAcreageModifiedOtherReasonText&#45;&gt;ag_codes:ReportedAcreageModifiedOtherReasonTextType -->
<g id="edge2" class="edge">
<title>ag:ReportedAcreageModifiedOtherReasonText&#45;&gt;ag_codes:ReportedAcreageModifiedOtherReasonTextType</title>
<path fill="none" stroke="#000000" d="M534.0215,-24C550.0216,-24 566.4637,-24 582.8058,-24"/>
<polygon fill="#000000" stroke="#000000" points="582.9633,-27.5001 592.9633,-24 582.9633,-20.5001 582.9633,-27.5001"/>
<text text-anchor="middle" x="563.5" y="-27.4" font-family="Helvetica,sans-Serif" font-size="12.00" fill="#000000">type</text>
</g>
<!-- Types -->
<g id="node2" class="node">
<title>Types</title>
<text text-anchor="start" x="2.5" y="-21.4" font-family="Helvetica,sans-Serif" font-weight="bold" font-size="12.00" fill="#000000">Types</text>
<g id="a_node2_1"><a xlink:href="../../ag/AgricultureProductionPlanType/#diagram" xlink:title="A data type that contains agriculture production plan related information including location, product, acreage, planting, practice and data modifications details." target="_top">
<polygon fill="#ebebeb" stroke="transparent" points="1.5,-1 1.5,-16 186.5,-16 186.5,-1 1.5,-1"/>
<text text-anchor="start" x="2.5" y="-5.4" font-family="Helvetica,sans-Serif" font-size="12.00" fill="#000000">ag:AgricultureProductionPlanType</text>
</a>
</g>
<polygon fill="#000000" stroke="#000000" points=".5,-16 .5,-16 187.5,-16 187.5,-16 .5,-16"/>
<polygon fill="none" stroke="#000000" points="0,0 0,-32 187,-32 187,0 0,0"/>
</g>
<!-- Types&#45;&gt;ag:ReportedAcreageModifiedOtherReasonText -->
<g id="edge1" class="edge">
<title>Types:top&#45;&gt;ag:ReportedAcreageModifiedOtherReasonText</title>
<path fill="none" stroke="#000000" d="M186.5,-24C205.0596,-24 224.5529,-24 243.8525,-24"/>
<polygon fill="#000000" stroke="#000000" points="243.9213,-27.5001 253.9213,-24 243.9212,-20.5001 243.9213,-27.5001"/>
<text text-anchor="middle" x="220.5" y="-27.4" font-family="Helvetica,sans-Serif" font-size="12.00" fill="#000000">has&#45;a</text>
</g>
</g>
</svg>
