<?xml version="1.0" encoding="UTF-8" standalone="no"?>
<!DOCTYPE svg PUBLIC "-//W3C//DTD SVG 1.1//EN"
 "http://www.w3.org/Graphics/SVG/1.1/DTD/svg11.dtd">
<!-- Generated by graphviz version 2.40.1 (20161225.0304)
 -->
<!-- Title: graphic Pages: 1 -->
<svg width="587pt" height="101pt"
 viewBox="0.00 0.00 587.00 101.00" xmlns="http://www.w3.org/2000/svg" xmlns:xlink="http://www.w3.org/1999/xlink">
<g id="graph0" class="graph" transform="scale(1 1) rotate(0) translate(4 97)">
<title>graphic</title>
<polygon fill="#ffffff" stroke="transparent" points="-4,4 -4,-97 583,-97 583,4 -4,4"/>
<!-- j:MentalHealthAssessmentServicesReceivedAbstract -->
<g id="node1" class="node">
<title>j:MentalHealthAssessmentServicesReceivedAbstract</title>
<text text-anchor="start" x="257.5" y="-77.4" font-family="Helvetica,sans-Serif" font-weight="bold" font-size="12.00" fill="#000000">j:MentalHealthAssessmentServicesReceivedAbstract</text>
<polygon fill="none" stroke="#ff0000" stroke-width="5" points="254,-70 254,-90 565,-90 565,-70 254,-70"/>
</g>
<!-- SubstitutableElements -->
<g id="node3" class="node">
<title>SubstitutableElements</title>
<text text-anchor="start" x="242.5" y="-21.4" font-family="Helvetica,sans-Serif" font-weight="bold" font-size="12.00" fill="#000000">Substitutable elements</text>
<g id="a_node3_0"><a xlink:href="../../j/MentalHealthAssessmentServicesReceivedText/#diagram" xlink:title="A kind of mental health assessment services received." target="_top">
<polygon fill="#ebebeb" stroke="transparent" points="241.5,-1 241.5,-16 578.5,-16 578.5,-1 241.5,-1"/>
<text text-anchor="start" x="242.5" y="-5.4" font-family="Helvetica,sans-Serif" font-size="12.00" fill="#000000">j:MentalHealthAssessmentServicesReceivedText: nc:TextType</text>
</a>
</g>
<polygon fill="#000000" stroke="#000000" points="240.5,-16 240.5,-16 579.5,-16 579.5,-16 240.5,-16"/>
<polygon fill="none" stroke="#000000" points="240,0 240,-32 579,-32 579,0 240,0"/>
</g>
<!-- j:MentalHealthAssessmentServicesReceivedAbstract&#45;&gt;SubstitutableElements -->
<g id="edge2" class="edge">
<title>j:MentalHealthAssessmentServicesReceivedAbstract&#45;&gt;SubstitutableElements</title>
<path fill="none" stroke="#000000" d="M409.5,-57.3063C409.5,-48.9972 409.5,-39.7712 409.5,-32.1499"/>
<polygon fill="#000000" stroke="#000000" points="406.0001,-57.4892 409.5,-67.4892 413.0001,-57.4892 406.0001,-57.4892"/>
<text text-anchor="middle" x="400" y="-46.65" font-family="Helvetica,sans-Serif" font-size="12.00" fill="#000000">substitutable for</text>
</g>
<!-- Types -->
<g id="node2" class="node">
<title>Types</title>
<text text-anchor="start" x="2.5" y="-77.4" font-family="Helvetica,sans-Serif" font-weight="bold" font-size="12.00" fill="#000000">Types</text>
<g id="a_node2_1"><a xlink:href="../../j/MentalHealthAssessmentType/#diagram" xlink:title="A data type for an activity of reviewing and assessing a subject&#39;s mental health condition." target="_top">
<polygon fill="#ebebeb" stroke="transparent" points="1.5,-57 1.5,-72 172.5,-72 172.5,-57 1.5,-57"/>
<text text-anchor="start" x="2.5" y="-61.4" font-family="Helvetica,sans-Serif" font-size="12.00" fill="#000000">j:MentalHealthAssessmentType</text>
</a>
</g>
<polygon fill="#000000" stroke="#000000" points=".5,-72 .5,-72 173.5,-72 173.5,-72 .5,-72"/>
<polygon fill="none" stroke="#000000" points="0,-56 0,-88 173,-88 173,-56 0,-56"/>
</g>
<!-- Types&#45;&gt;j:MentalHealthAssessmentServicesReceivedAbstract -->
<g id="edge1" class="edge">
<title>Types:top&#45;&gt;j:MentalHealthAssessmentServicesReceivedAbstract</title>
<path fill="none" stroke="#000000" d="M172.5,-80C194.722,-80 218.116,-80 241.1984,-80"/>
<polygon fill="#000000" stroke="#000000" points="241.4206,-83.5001 251.4205,-80 241.4205,-76.5001 241.4206,-83.5001"/>
<text text-anchor="middle" x="206.5" y="-83.4" font-family="Helvetica,sans-Serif" font-size="12.00" fill="#000000">has&#45;a</text>
</g>
</g>
</svg>
