<?xml version="1.0" encoding="UTF-8" standalone="no"?>
<!DOCTYPE svg PUBLIC "-//W3C//DTD SVG 1.1//EN"
 "http://www.w3.org/Graphics/SVG/1.1/DTD/svg11.dtd">
<!-- Generated by graphviz version 2.40.1 (20161225.0304)
 -->
<!-- Title: graphic Pages: 1 -->
<svg width="510pt" height="45pt"
 viewBox="0.00 0.00 510.00 45.00" xmlns="http://www.w3.org/2000/svg" xmlns:xlink="http://www.w3.org/1999/xlink">
<g id="graph0" class="graph" transform="scale(1 1) rotate(0) translate(4 41)">
<title>graphic</title>
<polygon fill="#ffffff" stroke="transparent" points="-4,4 -4,-41 506,-41 506,4 -4,4"/>
<!-- em:UnitLogonNotificationAugmentationPoint -->
<g id="node1" class="node">
<title>em:UnitLogonNotificationAugmentationPoint</title>
<text text-anchor="start" x="238" y="-21.4" font-family="Helvetica,sans-Serif" font-weight="bold" font-size="12.00" fill="#000000">em:UnitLogonNotificationAugmentationPoint</text>
<polygon fill="none" stroke="#ff0000" stroke-width="5" points="234.5,-14 234.5,-34 499.5,-34 499.5,-14 234.5,-14"/>
</g>
<!-- Types -->
<g id="node2" class="node">
<title>Types</title>
<text text-anchor="start" x="2.5" y="-21.4" font-family="Helvetica,sans-Serif" font-weight="bold" font-size="12.00" fill="#000000">Types</text>
<g id="a_node2_0"><a xlink:href="../../em/UnitLogonNotificationType/#diagram" xlink:title="A data type for a structure to represent that the specified units are being logged on" target="_top">
<polygon fill="#ebebeb" stroke="transparent" points="1.5,-1 1.5,-16 164.5,-16 164.5,-1 1.5,-1"/>
<text text-anchor="start" x="2.5" y="-5.4" font-family="Helvetica,sans-Serif" font-size="12.00" fill="#000000">em:UnitLogonNotificationType</text>
</a>
</g>
<polygon fill="#000000" stroke="#000000" points=".5,-16 .5,-16 165.5,-16 165.5,-16 .5,-16"/>
<polygon fill="none" stroke="#000000" points="0,0 0,-32 165,-32 165,0 0,0"/>
</g>
<!-- Types&#45;&gt;em:UnitLogonNotificationAugmentationPoint -->
<g id="edge1" class="edge">
<title>Types:top&#45;&gt;em:UnitLogonNotificationAugmentationPoint</title>
<path fill="none" stroke="#000000" d="M164.5,-24C183.0614,-24 202.5798,-24 221.871,-24"/>
<polygon fill="#000000" stroke="#000000" points="221.9321,-27.5001 231.9321,-24 221.9321,-20.5001 221.9321,-27.5001"/>
<text text-anchor="middle" x="198.5" y="-27.4" font-family="Helvetica,sans-Serif" font-size="12.00" fill="#000000">has&#45;a</text>
</g>
</g>
</svg>
