<?xml version="1.0" encoding="UTF-8" standalone="no"?>
<!DOCTYPE svg PUBLIC "-//W3C//DTD SVG 1.1//EN"
 "http://www.w3.org/Graphics/SVG/1.1/DTD/svg11.dtd">
<!-- Generated by graphviz version 2.40.1 (20161225.0304)
 -->
<!-- Title: graphic Pages: 1 -->
<svg width="670pt" height="45pt"
 viewBox="0.00 0.00 670.00 45.00" xmlns="http://www.w3.org/2000/svg" xmlns:xlink="http://www.w3.org/1999/xlink">
<g id="graph0" class="graph" transform="scale(1 1) rotate(0) translate(4 41)">
<title>graphic</title>
<polygon fill="#ffffff" stroke="transparent" points="-4,4 -4,-41 666,-41 666,4 -4,4"/>
<!-- it:TransportMeansGrossWeightMeasure -->
<g id="node1" class="node">
<title>it:TransportMeansGrossWeightMeasure</title>
<text text-anchor="start" x="237.5" y="-21.4" font-family="Helvetica,sans-Serif" font-weight="bold" font-size="12.00" fill="#000000">it:TransportMeansGrossWeightMeasure</text>
<polygon fill="none" stroke="#ff0000" stroke-width="5" points="233.5,-14 233.5,-34 469.5,-34 469.5,-14 233.5,-14"/>
</g>
<!-- nc:WeightMeasureType -->
<g id="node3" class="node">
<title>nc:WeightMeasureType</title>
<g id="a_node3_0"><a xlink:href="../../nc/WeightMeasureType/#diagram" xlink:title="A data type for a measure of a weight." target="_top">
<text text-anchor="start" x="533.5" y="-20.4" font-family="Helvetica,sans-Serif" font-size="12.00" fill="#000000">nc:WeightMeasureType</text>
</a>
</g>
<polygon fill="none" stroke="#000000" points="531,-15.5 531,-32.5 662,-32.5 662,-15.5 531,-15.5"/>
</g>
<!-- it:TransportMeansGrossWeightMeasure&#45;&gt;nc:WeightMeasureType -->
<g id="edge2" class="edge">
<title>it:TransportMeansGrossWeightMeasure&#45;&gt;nc:WeightMeasureType</title>
<path fill="none" stroke="#000000" d="M472.2056,-24C488.5947,-24 505.0267,-24 520.3277,-24"/>
<polygon fill="#000000" stroke="#000000" points="520.7256,-27.5001 530.7256,-24 520.7255,-20.5001 520.7256,-27.5001"/>
<text text-anchor="middle" x="501.5" y="-27.4" font-family="Helvetica,sans-Serif" font-size="12.00" fill="#000000">type</text>
</g>
<!-- Types -->
<g id="node2" class="node">
<title>Types</title>
<text text-anchor="start" x="2" y="-21.4" font-family="Helvetica,sans-Serif" font-weight="bold" font-size="12.00" fill="#000000">Types</text>
<g id="a_node2_1"><a xlink:href="../../it/BorderTransportMeansType/#diagram" xlink:title="A data type for a means of transport used in crossing a border." target="_top">
<polygon fill="#ebebeb" stroke="transparent" points="1,-1 1,-16 163,-16 163,-1 1,-1"/>
<text text-anchor="start" x="2" y="-5.4" font-family="Helvetica,sans-Serif" font-size="12.00" fill="#000000">it:BorderTransportMeansType</text>
</a>
</g>
<polygon fill="#000000" stroke="#000000" points="0,-16 0,-16 164,-16 164,-16 0,-16"/>
<polygon fill="none" stroke="#000000" points="0,0 0,-32 164,-32 164,0 0,0"/>
</g>
<!-- Types&#45;&gt;it:TransportMeansGrossWeightMeasure -->
<g id="edge1" class="edge">
<title>Types:top&#45;&gt;it:TransportMeansGrossWeightMeasure</title>
<path fill="none" stroke="#000000" d="M163,-24C181.6715,-24 201.3834,-24 220.7445,-24"/>
<polygon fill="#000000" stroke="#000000" points="220.8297,-27.5001 230.8297,-24 220.8297,-20.5001 220.8297,-27.5001"/>
<text text-anchor="middle" x="197.5" y="-27.4" font-family="Helvetica,sans-Serif" font-size="12.00" fill="#000000">has&#45;a</text>
</g>
</g>
</svg>
