<?xml version="1.0" encoding="UTF-8" standalone="no"?>
<!DOCTYPE svg PUBLIC "-//W3C//DTD SVG 1.1//EN"
 "http://www.w3.org/Graphics/SVG/1.1/DTD/svg11.dtd">
<!-- Generated by graphviz version 2.40.1 (20161225.0304)
 -->
<!-- Title: graphic Pages: 1 -->
<svg width="492pt" height="45pt"
 viewBox="0.00 0.00 492.00 45.00" xmlns="http://www.w3.org/2000/svg" xmlns:xlink="http://www.w3.org/1999/xlink">
<g id="graph0" class="graph" transform="scale(1 1) rotate(0) translate(4 41)">
<title>graphic</title>
<polygon fill="#ffffff" stroke="transparent" points="-4,4 -4,-41 488,-41 488,4 -4,4"/>
<!-- it:DeclarationPackagingAugmentationPoint -->
<g id="node1" class="node">
<title>it:DeclarationPackagingAugmentationPoint</title>
<text text-anchor="start" x="230" y="-21.4" font-family="Helvetica,sans-Serif" font-weight="bold" font-size="12.00" fill="#000000">it:DeclarationPackagingAugmentationPoint</text>
<polygon fill="none" stroke="#ff0000" stroke-width="5" points="226.5,-14 226.5,-34 481.5,-34 481.5,-14 226.5,-14"/>
</g>
<!-- Types -->
<g id="node2" class="node">
<title>Types</title>
<text text-anchor="start" x="2.5" y="-21.4" font-family="Helvetica,sans-Serif" font-weight="bold" font-size="12.00" fill="#000000">Types</text>
<g id="a_node2_0"><a xlink:href="../../it/DeclarationPackagingType/#diagram" xlink:title="A data type that provides the details description of the packaging." target="_top">
<polygon fill="#ebebeb" stroke="transparent" points="1.5,-1 1.5,-16 156.5,-16 156.5,-1 1.5,-1"/>
<text text-anchor="start" x="2.5" y="-5.4" font-family="Helvetica,sans-Serif" font-size="12.00" fill="#000000">it:DeclarationPackagingType</text>
</a>
</g>
<polygon fill="#000000" stroke="#000000" points=".5,-16 .5,-16 157.5,-16 157.5,-16 .5,-16"/>
<polygon fill="none" stroke="#000000" points="0,0 0,-32 157,-32 157,0 0,0"/>
</g>
<!-- Types&#45;&gt;it:DeclarationPackagingAugmentationPoint -->
<g id="edge1" class="edge">
<title>Types:top&#45;&gt;it:DeclarationPackagingAugmentationPoint</title>
<path fill="none" stroke="#000000" d="M156.5,-24C175.0411,-24 194.5612,-24 213.8196,-24"/>
<polygon fill="#000000" stroke="#000000" points="213.8601,-27.5001 223.8601,-24 213.8601,-20.5001 213.8601,-27.5001"/>
<text text-anchor="middle" x="190.5" y="-27.4" font-family="Helvetica,sans-Serif" font-size="12.00" fill="#000000">has&#45;a</text>
</g>
</g>
</svg>
