<?xml version="1.0" encoding="UTF-8" standalone="no"?>
<!DOCTYPE svg PUBLIC "-//W3C//DTD SVG 1.1//EN"
 "http://www.w3.org/Graphics/SVG/1.1/DTD/svg11.dtd">
<!-- Generated by graphviz version 2.40.1 (20161225.0304)
 -->
<!-- Title: graphic Pages: 1 -->
<svg width="451pt" height="60pt"
 viewBox="0.00 0.00 451.00 59.50" xmlns="http://www.w3.org/2000/svg" xmlns:xlink="http://www.w3.org/1999/xlink">
<g id="graph0" class="graph" transform="scale(1 1) rotate(0) translate(4 55.5)">
<title>graphic</title>
<polygon fill="#ffffff" stroke="transparent" points="-4,4 -4,-55.5 447,-55.5 447,4 -4,4"/>
<!-- hs:ChildRemovalDate -->
<g id="node1" class="node">
<title>hs:ChildRemovalDate</title>
<text text-anchor="start" x="180.5" y="-35.9" font-family="Helvetica,sans-Serif" font-weight="bold" font-size="12.00" fill="#000000">hs:ChildRemovalDate</text>
<polygon fill="none" stroke="#ff0000" stroke-width="5" points="176.5,-28.5 176.5,-48.5 308.5,-48.5 308.5,-28.5 176.5,-28.5"/>
</g>
<!-- nc:DateType -->
<g id="node3" class="node">
<title>nc:DateType</title>
<g id="a_node3_0"><a xlink:href="../../nc/DateType/#diagram" xlink:title="A data type for a calendar date." target="_top">
<text text-anchor="start" x="372.5" y="-34.9" font-family="Helvetica,sans-Serif" font-size="12.00" fill="#000000">nc:DateType</text>
</a>
</g>
<polygon fill="none" stroke="#000000" points="370,-30 370,-47 443,-47 443,-30 370,-30"/>
</g>
<!-- hs:ChildRemovalDate&#45;&gt;nc:DateType -->
<g id="edge2" class="edge">
<title>hs:ChildRemovalDate&#45;&gt;nc:DateType</title>
<path fill="none" stroke="#000000" d="M311.1005,-38.5C327.5033,-38.5 344.6413,-38.5 359.7926,-38.5"/>
<polygon fill="#000000" stroke="#000000" points="359.9312,-42.0001 369.9312,-38.5 359.9312,-35.0001 359.9312,-42.0001"/>
<text text-anchor="middle" x="340.5" y="-41.9" font-family="Helvetica,sans-Serif" font-size="12.00" fill="#000000">type</text>
</g>
<!-- Types -->
<g id="node2" class="node">
<title>Types</title>
<text text-anchor="start" x="2.5" y="-35.9" font-family="Helvetica,sans-Serif" font-weight="bold" font-size="12.00" fill="#000000">Types</text>
<g id="a_node2_1"><a xlink:href="../../hs/ChildType/#diagram" xlink:title="A data type for information about a person who has not yet reached the age of legal majority (i.e., adulthood)." target="_top">
<polygon fill="#ebebeb" stroke="transparent" points="1.5,-15.5 1.5,-30.5 106.5,-30.5 106.5,-15.5 1.5,-15.5"/>
<text text-anchor="start" x="2.5" y="-19.9" font-family="Helvetica,sans-Serif" font-size="12.00" fill="#000000">hs:ChildType</text>
</a>
</g>
<g id="a_node2_2"><a xlink:href="../../hs/ChildVictimType/#diagram" xlink:title="A data type for information about a person who has not yet reached the age of majority and in whose interest a child welfare case has been initiated." target="_top">
<text text-anchor="start" x="2.5" y="-4.9" font-family="Helvetica,sans-Serif" font-size="12.00" fill="#000000">hs:ChildVictimType</text>
</a>
</g>
<polygon fill="#000000" stroke="#000000" points=".5,-30.5 .5,-30.5 107.5,-30.5 107.5,-30.5 .5,-30.5"/>
<polygon fill="none" stroke="#000000" points="0,0 0,-47 107,-47 107,0 0,0"/>
</g>
<!-- Types&#45;&gt;hs:ChildRemovalDate -->
<g id="edge1" class="edge">
<title>Types:top&#45;&gt;hs:ChildRemovalDate</title>
<path fill="none" stroke="#000000" d="M106.5,-38.5C124.9277,-38.5 144.76,-38.5 163.4276,-38.5"/>
<polygon fill="#000000" stroke="#000000" points="163.6624,-42.0001 173.6623,-38.5 163.6623,-35.0001 163.6624,-42.0001"/>
<text text-anchor="middle" x="140.5" y="-41.9" font-family="Helvetica,sans-Serif" font-size="12.00" fill="#000000">has&#45;a</text>
</g>
</g>
</svg>
