<?xml version="1.0" encoding="UTF-8" standalone="no"?>
<!DOCTYPE svg PUBLIC "-//W3C//DTD SVG 1.1//EN"
 "http://www.w3.org/Graphics/SVG/1.1/DTD/svg11.dtd">
<!-- Generated by graphviz version 2.40.1 (20161225.0304)
 -->
<!-- Title: graphic Pages: 1 -->
<svg width="509pt" height="45pt"
 viewBox="0.00 0.00 509.00 45.00" xmlns="http://www.w3.org/2000/svg" xmlns:xlink="http://www.w3.org/1999/xlink">
<g id="graph0" class="graph" transform="scale(1 1) rotate(0) translate(4 41)">
<title>graphic</title>
<polygon fill="#ffffff" stroke="transparent" points="-4,4 -4,-41 505,-41 505,4 -4,4"/>
<!-- nc:PersonStateIdentification -->
<g id="node1" class="node">
<title>nc:PersonStateIdentification</title>
<text text-anchor="start" x="158.5" y="-21.4" font-family="Helvetica,sans-Serif" font-weight="bold" font-size="12.00" fill="#000000">nc:PersonStateIdentification</text>
<polygon fill="none" stroke="#ff0000" stroke-width="5" points="154.5,-14 154.5,-34 324.5,-34 324.5,-14 154.5,-14"/>
</g>
<!-- nc:IdentificationType -->
<g id="node3" class="node">
<title>nc:IdentificationType</title>
<g id="a_node3_0"><a xlink:href="../../nc/IdentificationType/#diagram" xlink:title="A data type for a representation of an identity." target="_top">
<text text-anchor="start" x="388.5" y="-20.4" font-family="Helvetica,sans-Serif" font-size="12.00" fill="#000000">nc:IdentificationType</text>
</a>
</g>
<polygon fill="none" stroke="#000000" points="386,-15.5 386,-32.5 501,-32.5 501,-15.5 386,-15.5"/>
</g>
<!-- nc:PersonStateIdentification&#45;&gt;nc:IdentificationType -->
<g id="edge2" class="edge">
<title>nc:PersonStateIdentification&#45;&gt;nc:IdentificationType</title>
<path fill="none" stroke="#000000" d="M327.1983,-24C343.498,-24 360.2949,-24 375.8792,-24"/>
<polygon fill="#000000" stroke="#000000" points="375.9278,-27.5001 385.9278,-24 375.9278,-20.5001 375.9278,-27.5001"/>
<text text-anchor="middle" x="356.5" y="-27.4" font-family="Helvetica,sans-Serif" font-size="12.00" fill="#000000">type</text>
</g>
<!-- Types -->
<g id="node2" class="node">
<title>Types</title>
<text text-anchor="start" x="2.5" y="-21.4" font-family="Helvetica,sans-Serif" font-weight="bold" font-size="12.00" fill="#000000">Types</text>
<g id="a_node2_1"><a xlink:href="../../nc/PersonType/#diagram" xlink:title="A data type for a human being." target="_top">
<polygon fill="#ebebeb" stroke="transparent" points="1.5,-1 1.5,-16 84.5,-16 84.5,-1 1.5,-1"/>
<text text-anchor="start" x="2.5" y="-5.4" font-family="Helvetica,sans-Serif" font-size="12.00" fill="#000000">nc:PersonType</text>
</a>
</g>
<polygon fill="#000000" stroke="#000000" points=".5,-16 .5,-16 85.5,-16 85.5,-16 .5,-16"/>
<polygon fill="none" stroke="#000000" points="0,0 0,-32 85,-32 85,0 0,0"/>
</g>
<!-- Types&#45;&gt;nc:PersonStateIdentification -->
<g id="edge1" class="edge">
<title>Types:top&#45;&gt;nc:PersonStateIdentification</title>
<path fill="none" stroke="#000000" d="M84.5,-24C102.9763,-24 122.6914,-24 141.6517,-24"/>
<polygon fill="#000000" stroke="#000000" points="141.7899,-27.5001 151.7899,-24 141.7899,-20.5001 141.7899,-27.5001"/>
<text text-anchor="middle" x="118.5" y="-27.4" font-family="Helvetica,sans-Serif" font-size="12.00" fill="#000000">has&#45;a</text>
</g>
</g>
</svg>
