<?xml version="1.0" encoding="UTF-8" standalone="no"?>
<!DOCTYPE svg PUBLIC "-//W3C//DTD SVG 1.1//EN"
 "http://www.w3.org/Graphics/SVG/1.1/DTD/svg11.dtd">
<!-- Generated by graphviz version 2.40.1 (20161225.0304)
 -->
<!-- Title: graphic Pages: 1 -->
<svg width="661pt" height="45pt"
 viewBox="0.00 0.00 661.00 45.00" xmlns="http://www.w3.org/2000/svg" xmlns:xlink="http://www.w3.org/1999/xlink">
<g id="graph0" class="graph" transform="scale(1 1) rotate(0) translate(4 41)">
<title>graphic</title>
<polygon fill="#ffffff" stroke="transparent" points="-4,4 -4,-41 657,-41 657,4 -4,4"/>
<!-- im:NaturalizationCertificateIdentification -->
<g id="node1" class="node">
<title>im:NaturalizationCertificateIdentification</title>
<text text-anchor="start" x="242.5" y="-21.4" font-family="Helvetica,sans-Serif" font-weight="bold" font-size="12.00" fill="#000000">im:NaturalizationCertificateIdentification</text>
<polygon fill="none" stroke="#ff0000" stroke-width="5" points="238.5,-14 238.5,-34 476.5,-34 476.5,-14 238.5,-14"/>
</g>
<!-- nc:IdentificationType -->
<g id="node3" class="node">
<title>nc:IdentificationType</title>
<g id="a_node3_0"><a xlink:href="../../nc/IdentificationType/#diagram" xlink:title="A data type for a representation of an identity." target="_top">
<text text-anchor="start" x="540.5" y="-20.4" font-family="Helvetica,sans-Serif" font-size="12.00" fill="#000000">nc:IdentificationType</text>
</a>
</g>
<polygon fill="none" stroke="#000000" points="538,-15.5 538,-32.5 653,-32.5 653,-15.5 538,-15.5"/>
</g>
<!-- im:NaturalizationCertificateIdentification&#45;&gt;nc:IdentificationType -->
<g id="edge2" class="edge">
<title>im:NaturalizationCertificateIdentification&#45;&gt;nc:IdentificationType</title>
<path fill="none" stroke="#000000" d="M479.2888,-24C495.9221,-24 512.4827,-24 527.6698,-24"/>
<polygon fill="#000000" stroke="#000000" points="527.9485,-27.5001 537.9485,-24 527.9485,-20.5001 527.9485,-27.5001"/>
<text text-anchor="middle" x="508.5" y="-27.4" font-family="Helvetica,sans-Serif" font-size="12.00" fill="#000000">type</text>
</g>
<!-- Types -->
<g id="node2" class="node">
<title>Types</title>
<text text-anchor="start" x="2.5" y="-21.4" font-family="Helvetica,sans-Serif" font-weight="bold" font-size="12.00" fill="#000000">Types</text>
<g id="a_node2_1"><a xlink:href="../../im/NaturalizedCitizenRoleType/#diagram" xlink:title="A data type for the role of Naturalized Citizen that is played by a Person with respect to a Country" target="_top">
<polygon fill="#ebebeb" stroke="transparent" points="1.5,-1 1.5,-16 168.5,-16 168.5,-1 1.5,-1"/>
<text text-anchor="start" x="2.5" y="-5.4" font-family="Helvetica,sans-Serif" font-size="12.00" fill="#000000">im:NaturalizedCitizenRoleType</text>
</a>
</g>
<polygon fill="#000000" stroke="#000000" points=".5,-16 .5,-16 169.5,-16 169.5,-16 .5,-16"/>
<polygon fill="none" stroke="#000000" points="0,0 0,-32 169,-32 169,0 0,0"/>
</g>
<!-- Types&#45;&gt;im:NaturalizationCertificateIdentification -->
<g id="edge1" class="edge">
<title>Types:top&#45;&gt;im:NaturalizationCertificateIdentification</title>
<path fill="none" stroke="#000000" d="M168.5,-24C187.0115,-24 206.5429,-24 225.7456,-24"/>
<polygon fill="#000000" stroke="#000000" points="225.7503,-27.5001 235.7503,-24 225.7503,-20.5001 225.7503,-27.5001"/>
<text text-anchor="middle" x="202.5" y="-27.4" font-family="Helvetica,sans-Serif" font-size="12.00" fill="#000000">has&#45;a</text>
</g>
</g>
</svg>
