<?xml version="1.0" encoding="UTF-8" standalone="no"?>
<!DOCTYPE svg PUBLIC "-//W3C//DTD SVG 1.1//EN"
 "http://www.w3.org/Graphics/SVG/1.1/DTD/svg11.dtd">
<!-- Generated by graphviz version 2.40.1 (20161225.0304)
 -->
<!-- Title: graphic Pages: 1 -->
<svg width="671pt" height="45pt"
 viewBox="0.00 0.00 671.00 45.00" xmlns="http://www.w3.org/2000/svg" xmlns:xlink="http://www.w3.org/1999/xlink">
<g id="graph0" class="graph" transform="scale(1 1) rotate(0) translate(4 41)">
<title>graphic</title>
<polygon fill="#ffffff" stroke="transparent" points="-4,4 -4,-41 667,-41 667,4 -4,4"/>
<!-- im:CountryDocumentIssuingAuthorityIndicator -->
<g id="node1" class="node">
<title>im:CountryDocumentIssuingAuthorityIndicator</title>
<text text-anchor="start" x="236.5" y="-21.4" font-family="Helvetica,sans-Serif" font-weight="bold" font-size="12.00" fill="#000000">im:CountryDocumentIssuingAuthorityIndicator</text>
<polygon fill="none" stroke="#ff0000" stroke-width="5" points="232.5,-14 232.5,-34 508.5,-34 508.5,-14 232.5,-14"/>
</g>
<!-- niem&#45;xs:boolean -->
<g id="node3" class="node">
<title>niem&#45;xs:boolean</title>
<g id="a_node3_0"><a xlink:href="../../niem-xs/boolean/#diagram" xlink:title="A data type for binary&#45;valued logic (true/false)." target="_top">
<text text-anchor="start" x="572.5" y="-20.4" font-family="Helvetica,sans-Serif" font-size="12.00" fill="#000000">niem&#45;xs:boolean</text>
</a>
</g>
<polygon fill="none" stroke="#000000" points="570,-15.5 570,-32.5 663,-32.5 663,-15.5 570,-15.5"/>
</g>
<!-- im:CountryDocumentIssuingAuthorityIndicator&#45;&gt;niem&#45;xs:boolean -->
<g id="edge2" class="edge">
<title>im:CountryDocumentIssuingAuthorityIndicator&#45;&gt;niem&#45;xs:boolean</title>
<path fill="none" stroke="#000000" d="M511.1033,-24C528.1647,-24 544.7646,-24 559.5534,-24"/>
<polygon fill="#000000" stroke="#000000" points="559.9825,-27.5001 569.9825,-24 559.9824,-20.5001 559.9825,-27.5001"/>
<text text-anchor="middle" x="540.5" y="-27.4" font-family="Helvetica,sans-Serif" font-size="12.00" fill="#000000">type</text>
</g>
<!-- Types -->
<g id="node2" class="node">
<title>Types</title>
<text text-anchor="start" x="2.5" y="-21.4" font-family="Helvetica,sans-Serif" font-weight="bold" font-size="12.00" fill="#000000">Types</text>
<g id="a_node2_1"><a xlink:href="../../im/CountryAugmentationType/#diagram" xlink:title="A data type for additional information about a country." target="_top">
<polygon fill="#ebebeb" stroke="transparent" points="1.5,-1 1.5,-16 162.5,-16 162.5,-1 1.5,-1"/>
<text text-anchor="start" x="2.5" y="-5.4" font-family="Helvetica,sans-Serif" font-size="12.00" fill="#000000">im:CountryAugmentationType</text>
</a>
</g>
<polygon fill="#000000" stroke="#000000" points=".5,-16 .5,-16 163.5,-16 163.5,-16 .5,-16"/>
<polygon fill="none" stroke="#000000" points="0,0 0,-32 163,-32 163,0 0,0"/>
</g>
<!-- Types&#45;&gt;im:CountryDocumentIssuingAuthorityIndicator -->
<g id="edge1" class="edge">
<title>Types:top&#45;&gt;im:CountryDocumentIssuingAuthorityIndicator</title>
<path fill="none" stroke="#000000" d="M162.5,-24C181.0274,-24 200.4831,-24 219.7508,-24"/>
<polygon fill="#000000" stroke="#000000" points="219.8036,-27.5001 229.8035,-24 219.8035,-20.5001 219.8036,-27.5001"/>
<text text-anchor="middle" x="196.5" y="-27.4" font-family="Helvetica,sans-Serif" font-size="12.00" fill="#000000">has&#45;a</text>
</g>
</g>
</svg>
