<?xml version="1.0" encoding="UTF-8" standalone="no"?>
<!DOCTYPE svg PUBLIC "-//W3C//DTD SVG 1.1//EN"
 "http://www.w3.org/Graphics/SVG/1.1/DTD/svg11.dtd">
<!-- Generated by graphviz version 2.40.1 (20161225.0304)
 -->
<!-- Title: graphic Pages: 1 -->
<svg width="202pt" height="154pt"
 viewBox="0.00 0.00 202.00 153.50" xmlns="http://www.w3.org/2000/svg" xmlns:xlink="http://www.w3.org/1999/xlink">
<g id="graph0" class="graph" transform="scale(1 1) rotate(0) translate(4 149.5)">
<title>graphic</title>
<polygon fill="#ffffff" stroke="transparent" points="-4,4 -4,-149.5 198,-149.5 198,4 -4,4"/>
<!-- biom:Integer1To999SimpleType -->
<g id="node1" class="node">
<title>biom:Integer1To999SimpleType</title>
<text text-anchor="start" x="6" y="-77.4" font-family="Helvetica,sans-Serif" font-weight="bold" font-size="12.00" fill="#000000">biom:Integer1To999SimpleType</text>
<polygon fill="none" stroke="#ff0000" stroke-width="5" points="2.5,-70 2.5,-90 191.5,-90 191.5,-70 2.5,-70"/>
</g>
<!-- DerivedTypes -->
<g id="node2" class="node">
<title>DerivedTypes</title>
<text text-anchor="start" x="30" y="-21.4" font-family="Helvetica,sans-Serif" font-weight="bold" font-size="12.00" fill="#000000">Derived types</text>
<g id="a_node2_0"><a xlink:href="../../biom/Integer1To999Type/#diagram" xlink:title="A data type of integer that has a value range of 1 to 999" target="_top">
<polygon fill="#ebebeb" stroke="transparent" points="29,-1 29,-16 166,-16 166,-1 29,-1"/>
<text text-anchor="start" x="30" y="-5.4" font-family="Helvetica,sans-Serif" font-size="12.00" fill="#000000">biom:Integer1To999Type</text>
</a>
</g>
<polygon fill="#000000" stroke="#000000" points="28,-16 28,-16 167,-16 167,-16 28,-16"/>
<polygon fill="none" stroke="#000000" points="27.5,0 27.5,-32 166.5,-32 166.5,0 27.5,0"/>
</g>
<!-- biom:Integer1To999SimpleType&#45;&gt;DerivedTypes -->
<g id="edge1" class="edge">
<title>biom:Integer1To999SimpleType&#45;&gt;DerivedTypes</title>
<path fill="none" stroke="#000000" d="M97,-67.4892C97,-60.3101 97,-51.0172 97,-42.306"/>
<polygon fill="#000000" stroke="#000000" points="100.5001,-42.1499 97,-32.1499 93.5001,-42.1499 100.5001,-42.1499"/>
<text text-anchor="middle" x="87.5" y="-46.65" font-family="Helvetica,sans-Serif" font-size="12.00" fill="#000000">derived</text>
</g>
<!-- xs:positiveInteger -->
<g id="node3" class="node">
<title>xs:positiveInteger</title>
<g id="a_node3_1"><a xlink:href="../../xs/positiveInteger/#diagram" xlink:title="&lt;TABLE&gt;" target="_top">
<text text-anchor="start" x="50" y="-133.4" font-family="Helvetica,sans-Serif" font-size="12.00" fill="#000000">xs:positiveInteger</text>
</a>
</g>
<polygon fill="none" stroke="#000000" points="48,-128.5 48,-145.5 146,-145.5 146,-128.5 48,-128.5"/>
</g>
<!-- xs:positiveInteger&#45;&gt;biom:Integer1To999SimpleType -->
<g id="edge2" class="edge">
<title>xs:positiveInteger&#45;&gt;biom:Integer1To999SimpleType</title>
<path fill="none" stroke="#000000" d="M97,-128.4473C97,-121.6242 97,-111.7417 97,-102.6794"/>
<polygon fill="#000000" stroke="#000000" points="100.5001,-102.6501 97,-92.6501 93.5001,-102.6502 100.5001,-102.6501"/>
<text text-anchor="middle" x="87.5" y="-107.4" font-family="Helvetica,sans-Serif" font-size="12.00" fill="#000000">restriction</text>
</g>
</g>
</svg>
