<?xml version="1.0" encoding="UTF-8" standalone="no"?>
<!DOCTYPE svg PUBLIC "-//W3C//DTD SVG 1.1//EN"
 "http://www.w3.org/Graphics/SVG/1.1/DTD/svg11.dtd">
<!-- Generated by graphviz version 2.40.1 (20161225.0304)
 -->
<!-- Title: graphic Pages: 1 -->
<svg width="597pt" height="101pt"
 viewBox="0.00 0.00 597.00 101.00" xmlns="http://www.w3.org/2000/svg" xmlns:xlink="http://www.w3.org/1999/xlink">
<g id="graph0" class="graph" transform="scale(1 1) rotate(0) translate(4 97)">
<title>graphic</title>
<polygon fill="#ffffff" stroke="transparent" points="-4,4 -4,-97 593,-97 593,4 -4,4"/>
<!-- it:ExaminationPlaceAbstract -->
<g id="node1" class="node">
<title>it:ExaminationPlaceAbstract</title>
<text text-anchor="start" x="314.5" y="-77.4" font-family="Helvetica,sans-Serif" font-weight="bold" font-size="12.00" fill="#000000">it:ExaminationPlaceAbstract</text>
<polygon fill="none" stroke="#ff0000" stroke-width="5" points="310.5,-70 310.5,-90 480.5,-90 480.5,-70 310.5,-70"/>
</g>
<!-- SubstitutableElements -->
<g id="node3" class="node">
<title>SubstitutableElements</title>
<text text-anchor="start" x="204.5" y="-21.4" font-family="Helvetica,sans-Serif" font-weight="bold" font-size="12.00" fill="#000000">Substitutable elements</text>
<g id="a_node3_0"><a xlink:href="../../it/ExaminationPlaceCode/#diagram" xlink:title="An identification of a place where goods are to be examined if this place is different from the place where the goods are located" target="_top">
<polygon fill="#ebebeb" stroke="transparent" points="203.5,-1 203.5,-16 588.5,-16 588.5,-1 203.5,-1"/>
<text text-anchor="start" x="204.5" y="-5.4" font-family="Helvetica,sans-Serif" font-size="12.00" fill="#000000">it:ExaminationPlaceCode: itcodes:ExaminationPlaceCategoryCodeType</text>
</a>
</g>
<polygon fill="#000000" stroke="#000000" points="202.5,-16 202.5,-16 589.5,-16 589.5,-16 202.5,-16"/>
<polygon fill="none" stroke="#000000" points="202,0 202,-32 589,-32 589,0 202,0"/>
</g>
<!-- it:ExaminationPlaceAbstract&#45;&gt;SubstitutableElements -->
<g id="edge2" class="edge">
<title>it:ExaminationPlaceAbstract&#45;&gt;SubstitutableElements</title>
<path fill="none" stroke="#000000" d="M395.5,-57.3063C395.5,-48.9972 395.5,-39.7712 395.5,-32.1499"/>
<polygon fill="#000000" stroke="#000000" points="392.0001,-57.4892 395.5,-67.4892 399.0001,-57.4892 392.0001,-57.4892"/>
<text text-anchor="middle" x="386" y="-46.65" font-family="Helvetica,sans-Serif" font-size="12.00" fill="#000000">substitutable for</text>
</g>
<!-- Types -->
<g id="node2" class="node">
<title>Types</title>
<text text-anchor="start" x="2.5" y="-77.4" font-family="Helvetica,sans-Serif" font-weight="bold" font-size="12.00" fill="#000000">Types</text>
<g id="a_node2_1"><a xlink:href="../../it/ConsignmentItemType/#diagram" xlink:title="A data type for a description of the nature of an item sufficient to identify it for customs, statistical or transport purposes." target="_top">
<polygon fill="#ebebeb" stroke="transparent" points="1.5,-57 1.5,-72 134.5,-72 134.5,-57 1.5,-57"/>
<text text-anchor="start" x="2.5" y="-61.4" font-family="Helvetica,sans-Serif" font-size="12.00" fill="#000000">it:ConsignmentItemType</text>
</a>
</g>
<g id="a_node2_2"><a xlink:href="../../it/GoodsItemType/#diagram" xlink:title="A data type for a specific Item sent for sale, storage, or shipment." target="_top">
<text text-anchor="start" x="2.5" y="-46.4" font-family="Helvetica,sans-Serif" font-size="12.00" fill="#000000">it:GoodsItemType</text>
</a>
</g>
<polygon fill="#000000" stroke="#000000" points=".5,-72 .5,-72 135.5,-72 135.5,-72 .5,-72"/>
<polygon fill="none" stroke="#000000" points="0,-41.5 0,-88.5 135,-88.5 135,-41.5 0,-41.5"/>
</g>
<!-- Types&#45;&gt;it:ExaminationPlaceAbstract -->
<g id="edge1" class="edge">
<title>Types:top&#45;&gt;it:ExaminationPlaceAbstract</title>
<path fill="none" stroke="#000000" d="M134.5,-80C188.4369,-80 248.6436,-80 297.6284,-80"/>
<polygon fill="#000000" stroke="#000000" points="297.9046,-83.5001 307.9046,-80 297.9046,-76.5001 297.9046,-83.5001"/>
<text text-anchor="middle" x="168.5" y="-83.4" font-family="Helvetica,sans-Serif" font-size="12.00" fill="#000000">has&#45;a</text>
</g>
</g>
</svg>
