<?xml version="1.0" encoding="UTF-8" standalone="no"?>
<!DOCTYPE svg PUBLIC "-//W3C//DTD SVG 1.1//EN"
 "http://www.w3.org/Graphics/SVG/1.1/DTD/svg11.dtd">
<!-- Generated by graphviz version 2.40.1 (20161225.0304)
 -->
<!-- Title: graphic Pages: 1 -->
<svg width="348pt" height="141pt"
 viewBox="0.00 0.00 348.00 141.00" xmlns="http://www.w3.org/2000/svg" xmlns:xlink="http://www.w3.org/1999/xlink">
<g id="graph0" class="graph" transform="scale(1 1) rotate(0) translate(4 137)">
<title>graphic</title>
<polygon fill="#ffffff" stroke="transparent" points="-4,4 -4,-137 344,-137 344,4 -4,4"/>
<!-- geo:PointType -->
<g id="node1" class="node">
<title>geo:PointType</title>
<text text-anchor="start" x="237" y="-65.9" font-family="Helvetica,sans-Serif" font-weight="bold" font-size="12.00" fill="#000000">geo:PointType</text>
<polygon fill="#ebebeb" stroke="transparent" points="236,-45.5 236,-60.5 322,-60.5 322,-45.5 236,-45.5"/>
<text text-anchor="start" x="237" y="-49.9" font-family="Helvetica,sans-Serif" font-size="12.00" fill="#000000">gml:Point</text>
<polygon fill="#ff0000" stroke="#ff0000" points="231,-60.5 231,-60.5 327,-60.5 327,-60.5 231,-60.5"/>
<polygon fill="none" stroke="#ff0000" stroke-width="5" points="233.5,-43 233.5,-78 324.5,-78 324.5,-43 233.5,-43"/>
</g>
<!-- Properties -->
<g id="node2" class="node">
<title>Properties</title>
<text text-anchor="start" x="2.5" y="-65.9" font-family="Helvetica,sans-Serif" font-weight="bold" font-size="12.00" fill="#000000">Properties</text>
<g id="a_node2_0"><a xlink:href="../../geo/AreaPoint/#diagram" xlink:title="A location specified by a 2D or 3D geometric point." target="_top">
<polygon fill="#ebebeb" stroke="transparent" points="1.5,-45.5 1.5,-60.5 158.5,-60.5 158.5,-45.5 1.5,-45.5"/>
<text text-anchor="start" x="2.5" y="-49.9" font-family="Helvetica,sans-Serif" font-size="12.00" fill="#000000">geo:AreaPoint</text>
</a>
</g>
<g id="a_node2_1"><a xlink:href="../../geo/LocationGeospatialPoint/#diagram" xlink:title="A 2D or 3D geometric point. A gml:Point is defined by a single coordinate tuple. The direct position of a point is specified by the gml:pos element which is of type gml:DirectPositionType." target="_top">
<text text-anchor="start" x="2.5" y="-34.9" font-family="Helvetica,sans-Serif" font-size="12.00" fill="#000000">geo:LocationGeospatialPoint</text>
</a>
</g>
<g id="a_node2_2"><a xlink:href="../../ag/LocationPointCoordinates/#diagram" xlink:title="A 2D or 3D geometric point is defined by a single coordinate tuple. The direct position of a point is specified by the gml:pos element which is of type gml:DirectPositionType." target="_top">
<polygon fill="#ebebeb" stroke="transparent" points="1.5,-15.5 1.5,-30.5 158.5,-30.5 158.5,-15.5 1.5,-15.5"/>
<text text-anchor="start" x="2.5" y="-19.9" font-family="Helvetica,sans-Serif" font-size="12.00" fill="#000000">ag:LocationPointCoordinates</text>
</a>
</g>
<g id="a_node2_3"><a xlink:href="../../mo/WaypointPoint/#diagram" xlink:title="A point to which a moving object may be vectored." target="_top">
<text text-anchor="start" x="2.5" y="-4.9" font-family="Helvetica,sans-Serif" font-size="12.00" fill="#000000">mo:WaypointPoint</text>
</a>
</g>
<polygon fill="#000000" stroke="#000000" points=".5,-60.5 .5,-60.5 159.5,-60.5 159.5,-60.5 .5,-60.5"/>
<polygon fill="none" stroke="#000000" points="0,0 0,-77 159,-77 159,0 0,0"/>
</g>
<!-- Properties&#45;&gt;geo:PointType -->
<g id="edge1" class="edge">
<title>Properties:top&#45;&gt;geo:PointType:top</title>
<path fill="none" stroke="#000000" d="M158.5,-68.5C189.3116,-68.5 199.4518,-68.5 225.903,-68.5"/>
<polygon fill="#000000" stroke="#000000" points="226,-72.0001 236,-68.5 226,-65.0001 226,-72.0001"/>
<text text-anchor="middle" x="188.5" y="-71.9" font-family="Helvetica,sans-Serif" font-size="12.00" fill="#000000">type</text>
</g>
<!-- structures:ObjectType -->
<g id="node3" class="node">
<title>structures:ObjectType</title>
<g id="a_node3_4"><a xlink:href="../../structures/ObjectType/#diagram" xlink:title="A data type for a thing with its own lifespan that has some existence." target="_top">
<text text-anchor="start" x="220" y="-120.9" font-family="Helvetica,sans-Serif" font-size="12.00" fill="#000000">structures:ObjectType</text>
</a>
</g>
<polygon fill="none" stroke="#000000" points="218,-116 218,-133 340,-133 340,-116 218,-116"/>
</g>
<!-- structures:ObjectType&#45;&gt;geo:PointType -->
<g id="edge2" class="edge">
<title>structures:ObjectType&#45;&gt;geo:PointType</title>
<path fill="none" stroke="#000000" d="M279,-115.9351C279,-109.431 279,-100.0678 279,-90.8827"/>
<polygon fill="#000000" stroke="#000000" points="282.5001,-90.75 279,-80.75 275.5001,-90.75 282.5001,-90.75"/>
<text text-anchor="middle" x="269.5" y="-95.15" font-family="Helvetica,sans-Serif" font-size="12.00" fill="#000000">extension</text>
</g>
</g>
</svg>
