<?xml version="1.0" encoding="UTF-8" standalone="no"?>
<!DOCTYPE svg PUBLIC "-//W3C//DTD SVG 1.1//EN"
 "http://www.w3.org/Graphics/SVG/1.1/DTD/svg11.dtd">
<!-- Generated by graphviz version 2.40.1 (20161225.0304)
 -->
<!-- Title: graphic Pages: 1 -->
<svg width="552pt" height="101pt"
 viewBox="0.00 0.00 552.00 101.00" xmlns="http://www.w3.org/2000/svg" xmlns:xlink="http://www.w3.org/1999/xlink">
<g id="graph0" class="graph" transform="scale(1 1) rotate(0) translate(4 97)">
<title>graphic</title>
<polygon fill="#ffffff" stroke="transparent" points="-4,4 -4,-97 548,-97 548,4 -4,4"/>
<!-- biom:PalmPositionAbstract -->
<g id="node1" class="node">
<title>biom:PalmPositionAbstract</title>
<text text-anchor="start" x="318" y="-77.4" font-family="Helvetica,sans-Serif" font-weight="bold" font-size="12.00" fill="#000000">biom:PalmPositionAbstract</text>
<polygon fill="none" stroke="#ff0000" stroke-width="5" points="314.5,-70 314.5,-90 479.5,-90 479.5,-70 314.5,-70"/>
</g>
<!-- SubstitutableElements -->
<g id="node3" class="node">
<title>SubstitutableElements</title>
<text text-anchor="start" x="252" y="-21.4" font-family="Helvetica,sans-Serif" font-weight="bold" font-size="12.00" fill="#000000">Substitutable elements</text>
<g id="a_node3_0"><a xlink:href="../../biom/PalmPositionCode/#diagram" xlink:title="A location on the palm that a print represents" target="_top">
<polygon fill="#ebebeb" stroke="transparent" points="251,-1 251,-16 543,-16 543,-1 251,-1"/>
<text text-anchor="start" x="252" y="-5.4" font-family="Helvetica,sans-Serif" font-size="12.00" fill="#000000">biom:PalmPositionCode: biom:PalmPositionCodeType</text>
</a>
</g>
<polygon fill="#000000" stroke="#000000" points="250,-16 250,-16 544,-16 544,-16 250,-16"/>
<polygon fill="none" stroke="#000000" points="250,0 250,-32 544,-32 544,0 250,0"/>
</g>
<!-- biom:PalmPositionAbstract&#45;&gt;SubstitutableElements -->
<g id="edge2" class="edge">
<title>biom:PalmPositionAbstract&#45;&gt;SubstitutableElements</title>
<path fill="none" stroke="#000000" d="M397,-57.3063C397,-48.9972 397,-39.7712 397,-32.1499"/>
<polygon fill="#000000" stroke="#000000" points="393.5001,-57.4892 397,-67.4892 400.5001,-57.4892 393.5001,-57.4892"/>
<text text-anchor="middle" x="387.5" y="-46.65" font-family="Helvetica,sans-Serif" font-size="12.00" fill="#000000">substitutable for</text>
</g>
<!-- Types -->
<g id="node2" class="node">
<title>Types</title>
<text text-anchor="start" x="2.5" y="-77.4" font-family="Helvetica,sans-Serif" font-weight="bold" font-size="12.00" fill="#000000">Types</text>
<g id="a_node2_1"><a xlink:href="../../biom/PalmPrintImageDetailType/#diagram" xlink:title="A data type for the details about an image of a palm print" target="_top">
<polygon fill="#ebebeb" stroke="transparent" points="1.5,-57 1.5,-72 182.5,-72 182.5,-57 1.5,-57"/>
<text text-anchor="start" x="2.5" y="-61.4" font-family="Helvetica,sans-Serif" font-size="12.00" fill="#000000">biom:PalmPrintImageDetailType</text>
</a>
</g>
<g id="a_node2_2"><a xlink:href="../../biom/PalmPrintImageQualityType/#diagram" xlink:title="A data type for a quality measure of a palm print" target="_top">
<text text-anchor="start" x="2.5" y="-46.4" font-family="Helvetica,sans-Serif" font-size="12.00" fill="#000000">biom:PalmPrintImageQualityType</text>
</a>
</g>
<polygon fill="#000000" stroke="#000000" points=".5,-72 .5,-72 183.5,-72 183.5,-72 .5,-72"/>
<polygon fill="none" stroke="#000000" points="0,-41.5 0,-88.5 183,-88.5 183,-41.5 0,-41.5"/>
</g>
<!-- Types&#45;&gt;biom:PalmPositionAbstract -->
<g id="edge1" class="edge">
<title>Types:top&#45;&gt;biom:PalmPositionAbstract</title>
<path fill="none" stroke="#000000" d="M182.5,-80C221.475,-80 264.4335,-80 301.6041,-80"/>
<polygon fill="#000000" stroke="#000000" points="301.9266,-83.5001 311.9265,-80 301.9265,-76.5001 301.9266,-83.5001"/>
<text text-anchor="middle" x="216.5" y="-83.4" font-family="Helvetica,sans-Serif" font-size="12.00" fill="#000000">has&#45;a</text>
</g>
</g>
</svg>
