<?xml version="1.0" encoding="UTF-8" standalone="no"?>
<!DOCTYPE svg PUBLIC "-//W3C//DTD SVG 1.1//EN"
 "http://www.w3.org/Graphics/SVG/1.1/DTD/svg11.dtd">
<!-- Generated by graphviz version 2.40.1 (20161225.0304)
 -->
<!-- Title: graphic Pages: 1 -->
<svg width="513pt" height="60pt"
 viewBox="0.00 0.00 513.00 59.50" xmlns="http://www.w3.org/2000/svg" xmlns:xlink="http://www.w3.org/1999/xlink">
<g id="graph0" class="graph" transform="scale(1 1) rotate(0) translate(4 55.5)">
<title>graphic</title>
<polygon fill="#ffffff" stroke="transparent" points="-4,4 -4,-55.5 509,-55.5 509,4 -4,4"/>
<!-- biom:CaptureDevice -->
<g id="node1" class="node">
<title>biom:CaptureDevice</title>
<text text-anchor="start" x="226.5" y="-35.9" font-family="Helvetica,sans-Serif" font-weight="bold" font-size="12.00" fill="#000000">biom:CaptureDevice</text>
<polygon fill="none" stroke="#ff0000" stroke-width="5" points="222.5,-28.5 222.5,-48.5 346.5,-48.5 346.5,-28.5 222.5,-28.5"/>
</g>
<!-- biom:DeviceType -->
<g id="node3" class="node">
<title>biom:DeviceType</title>
<g id="a_node3_0"><a xlink:href="../../biom/DeviceType/#diagram" xlink:title="A data type definition contains a set of information regarding the captured device information" target="_top">
<text text-anchor="start" x="410.5" y="-34.9" font-family="Helvetica,sans-Serif" font-size="12.00" fill="#000000">biom:DeviceType</text>
</a>
</g>
<polygon fill="none" stroke="#000000" points="408,-30 408,-47 505,-47 505,-30 408,-30"/>
</g>
<!-- biom:CaptureDevice&#45;&gt;biom:DeviceType -->
<g id="edge2" class="edge">
<title>biom:CaptureDevice&#45;&gt;biom:DeviceType</title>
<path fill="none" stroke="#000000" d="M349.0358,-38.5C364.9876,-38.5 381.992,-38.5 397.6568,-38.5"/>
<polygon fill="#000000" stroke="#000000" points="397.7328,-42.0001 407.7328,-38.5 397.7328,-35.0001 397.7328,-42.0001"/>
<text text-anchor="middle" x="378.5" y="-41.9" font-family="Helvetica,sans-Serif" font-size="12.00" fill="#000000">type</text>
</g>
<!-- Types -->
<g id="node2" class="node">
<title>Types</title>
<text text-anchor="start" x="2.5" y="-35.9" font-family="Helvetica,sans-Serif" font-weight="bold" font-size="12.00" fill="#000000">Types</text>
<g id="a_node2_1"><a xlink:href="../../biom/BiometricCaptureType/#diagram" xlink:title="A data type for a set of information regarding the captured biometric information" target="_top">
<polygon fill="#ebebeb" stroke="transparent" points="1.5,-15.5 1.5,-30.5 152.5,-30.5 152.5,-15.5 1.5,-15.5"/>
<text text-anchor="start" x="2.5" y="-19.9" font-family="Helvetica,sans-Serif" font-size="12.00" fill="#000000">biom:BiometricCaptureType</text>
</a>
</g>
<g id="a_node2_2"><a xlink:href="../../biom/OtherMinutiaeType/#diagram" xlink:title="A data type for a set of minutiae definitions to be used for a feature set owner or developer other than the ones specifically defined in this standard" target="_top">
<text text-anchor="start" x="2.5" y="-4.9" font-family="Helvetica,sans-Serif" font-size="12.00" fill="#000000">biom:OtherMinutiaeType</text>
</a>
</g>
<polygon fill="#000000" stroke="#000000" points=".5,-30.5 .5,-30.5 153.5,-30.5 153.5,-30.5 .5,-30.5"/>
<polygon fill="none" stroke="#000000" points="0,0 0,-47 153,-47 153,0 0,0"/>
</g>
<!-- Types&#45;&gt;biom:CaptureDevice -->
<g id="edge1" class="edge">
<title>Types:top&#45;&gt;biom:CaptureDevice</title>
<path fill="none" stroke="#000000" d="M152.5,-38.5C170.9658,-38.5 190.8847,-38.5 209.5125,-38.5"/>
<polygon fill="#000000" stroke="#000000" points="209.711,-42.0001 219.711,-38.5 209.7109,-35.0001 209.711,-42.0001"/>
<text text-anchor="middle" x="186.5" y="-41.9" font-family="Helvetica,sans-Serif" font-size="12.00" fill="#000000">has&#45;a</text>
</g>
</g>
</svg>
