<?xml version="1.0" encoding="UTF-8" standalone="no"?>
<!DOCTYPE svg PUBLIC "-//W3C//DTD SVG 1.1//EN"
 "http://www.w3.org/Graphics/SVG/1.1/DTD/svg11.dtd">
<!-- Generated by graphviz version 2.40.1 (20161225.0304)
 -->
<!-- Title: graphic Pages: 1 -->
<svg width="935pt" height="202pt"
 viewBox="0.00 0.00 935.00 202.00" xmlns="http://www.w3.org/2000/svg" xmlns:xlink="http://www.w3.org/1999/xlink">
<g id="graph0" class="graph" transform="scale(1 1) rotate(0) translate(4 198)">
<title>graphic</title>
<polygon fill="#ffffff" stroke="transparent" points="-4,4 -4,-198 931,-198 931,4 -4,4"/>
<!-- im:AlienStudentEmploymentType -->
<g id="node1" class="node">
<title>im:AlienStudentEmploymentType</title>
<text text-anchor="start" x="220" y="-126.9" font-family="Helvetica,sans-Serif" font-weight="bold" font-size="12.00" fill="#000000">im:AlienStudentEmploymentType</text>
<g id="a_node1_0"><a xlink:href="../../im/EmploymentOffCampusAuthorizationIndicator/#diagram" xlink:title="True if off&#45;campus employment is authorized for the alien student; false otherwise." target="_top">
<polygon fill="#ebebeb" stroke="transparent" points="219,-106.5 219,-121.5 603,-121.5 603,-106.5 219,-106.5"/>
<text text-anchor="start" x="220" y="-110.9" font-family="Helvetica,sans-Serif" font-size="12.00" fill="#000000">im:EmploymentOffCampusAuthorizationIndicator: niem&#45;xs:boolean [0&#45;n]</text>
</a>
</g>
<g id="a_node1_1"><a xlink:href="../../im/EmploymentRemarkText/#diagram" xlink:title="A field describing the alien student employment." target="_top">
<text text-anchor="start" x="220" y="-95.9" font-family="Helvetica,sans-Serif" font-size="12.00" fill="#000000">im:EmploymentRemarkText: nc:TextType [0&#45;n]</text>
</a>
</g>
<g id="a_node1_2"><a xlink:href="../../im/EmploymentTimeBasisText/#diagram" xlink:title="A field indicating if the alien student is Full&#45;time or Part&#45;time employed." target="_top">
<polygon fill="#ebebeb" stroke="transparent" points="219,-76.5 219,-91.5 603,-91.5 603,-76.5 219,-76.5"/>
<text text-anchor="start" x="220" y="-80.9" font-family="Helvetica,sans-Serif" font-size="12.00" fill="#000000">im:EmploymentTimeBasisText: nc:TextType [0&#45;n]</text>
</a>
</g>
<g id="a_node1_3"><a xlink:href="../../im/EmploymentCategoryText/#diagram" xlink:title="A kind of alien student employment." target="_top">
<text text-anchor="start" x="220" y="-65.9" font-family="Helvetica,sans-Serif" font-size="12.00" fill="#000000">im:EmploymentCategoryText: nc:TextType [0&#45;n]</text>
</a>
</g>
<g id="a_node1_4"><a xlink:href="../../im/EmploymentDescriptionText/#diagram" xlink:title="A description of the employment of an alien student." target="_top">
<polygon fill="#ebebeb" stroke="transparent" points="219,-46.5 219,-61.5 603,-61.5 603,-46.5 219,-46.5"/>
<text text-anchor="start" x="220" y="-50.9" font-family="Helvetica,sans-Serif" font-size="12.00" fill="#000000">im:EmploymentDescriptionText: nc:TextType [0&#45;n]</text>
</a>
</g>
<g id="a_node1_5"><a xlink:href="../../im/EmploymentTimeAbstract/#diagram" xlink:title="A data concept for the kind of alien student employment time code." target="_top">
<text text-anchor="start" x="220" y="-35.9" font-family="Helvetica,sans-Serif" font-size="12.00" fill="#000000">im:EmploymentTimeAbstract [0&#45;n]</text>
</a>
</g>
<g id="a_node1_6"><a xlink:href="../../im/AlienStudentEmploymentAugmentationPoint/#diagram" xlink:title="An augmentation point for AlienStudentEmploymentType." target="_top">
<polygon fill="#ebebeb" stroke="transparent" points="219,-16.5 219,-31.5 603,-31.5 603,-16.5 219,-16.5"/>
<text text-anchor="start" x="220" y="-20.9" font-family="Helvetica,sans-Serif" font-size="12.00" fill="#000000">im:AlienStudentEmploymentAugmentationPoint [0&#45;n]</text>
</a>
</g>
<polygon fill="#ff0000" stroke="#ff0000" points="214,-121.5 214,-121.5 608,-121.5 608,-121.5 214,-121.5"/>
<polygon fill="none" stroke="#ff0000" stroke-width="5" points="216.5,-14 216.5,-139 605.5,-139 605.5,-14 216.5,-14"/>
</g>
<!-- subst_d9e15271 -->
<g id="node2" class="node">
<title>subst_d9e15271</title>
<g id="a_node2_7"><a xlink:href="../../im/EmploymentTimeAbstract/#diagram" xlink:title="&lt;TABLE&gt;" target="_top">
<text text-anchor="start" x="647" y="-35.9" font-family="Helvetica,sans-Serif" font-weight="bold" font-size="12.00" fill="#000000">Substitution group im:EmploymentTimeAbstract</text>
</a>
</g>
<g id="a_node2_8"><a xlink:href="../../im/EmploymentTimeBasisCodeText/#diagram" xlink:title="A time basis of an alien students employment." target="_top">
<polygon fill="#ebebeb" stroke="transparent" points="646,-15.5 646,-30.5 926,-30.5 926,-15.5 646,-15.5"/>
<text text-anchor="start" x="647" y="-19.9" font-family="Helvetica,sans-Serif" font-size="12.00" fill="#000000">im:EmploymentTimeBasisCodeText: nc:TextType</text>
</a>
</g>
<g id="a_node2_9"><a xlink:href="../../im/EmploymentTimeText/#diagram" xlink:title="A field indicating the description for the associated kind of alien student employment time code." target="_top">
<text text-anchor="start" x="647" y="-4.9" font-family="Helvetica,sans-Serif" font-size="12.00" fill="#000000">im:EmploymentTimeText: nc:TextType</text>
</a>
</g>
<polygon fill="#000000" stroke="#000000" points="645,-30.5 645,-30.5 927,-30.5 927,-30.5 645,-30.5"/>
<polygon fill="none" stroke="#000000" points="645,0 645,-47 927,-47 927,0 645,0"/>
</g>
<!-- im:AlienStudentEmploymentType&#45;&gt;subst_d9e15271 -->
<g id="edge1" class="edge">
<title>im:AlienStudentEmploymentType:e&#45;&gt;subst_d9e15271:w</title>
<path fill="none" stroke="#000000" d="M613.1119,-38.5C624.6435,-38.5 630.7708,-38.5 646,-38.5"/>
<polygon fill="#000000" stroke="#000000" points="613,-35.0001 603,-38.5 613,-42.0001 613,-35.0001"/>
</g>
<!-- Properties -->
<g id="node3" class="node">
<title>Properties</title>
<text text-anchor="start" x="2.5" y="-126.9" font-family="Helvetica,sans-Serif" font-weight="bold" font-size="12.00" fill="#000000">Properties</text>
<g id="a_node3_10"><a xlink:href="../../im/AlienStudentEmployment/#diagram" xlink:title="An employment of a non&#45;immigrant alien participating in an authorized student or exchange visitor educational program." target="_top">
<polygon fill="#ebebeb" stroke="transparent" points="1.5,-106.5 1.5,-121.5 154.5,-121.5 154.5,-106.5 1.5,-106.5"/>
<text text-anchor="start" x="2.5" y="-110.9" font-family="Helvetica,sans-Serif" font-size="12.00" fill="#000000">im:AlienStudentEmployment</text>
</a>
</g>
<g id="a_node3_11"><a xlink:href="../../im/StudentEmployment/#diagram" xlink:title="A current authorized employment of an alien student." target="_top">
<text text-anchor="start" x="2.5" y="-95.9" font-family="Helvetica,sans-Serif" font-size="12.00" fill="#000000">im:StudentEmployment</text>
</a>
</g>
<polygon fill="#000000" stroke="#000000" points=".5,-121.5 .5,-121.5 155.5,-121.5 155.5,-121.5 .5,-121.5"/>
<polygon fill="none" stroke="#000000" points="0,-91 0,-138 155,-138 155,-91 0,-91"/>
</g>
<!-- Properties&#45;&gt;im:AlienStudentEmploymentType -->
<g id="edge2" class="edge">
<title>Properties:top&#45;&gt;im:AlienStudentEmploymentType:top</title>
<path fill="none" stroke="#000000" d="M154.5,-129.5C179.4714,-129.5 188.1284,-129.5 208.8937,-129.5"/>
<polygon fill="#000000" stroke="#000000" points="209,-133.0001 219,-129.5 209,-126.0001 209,-133.0001"/>
<text text-anchor="middle" x="184.5" y="-132.9" font-family="Helvetica,sans-Serif" font-size="12.00" fill="#000000">type</text>
</g>
<!-- structures:ObjectType -->
<g id="node4" class="node">
<title>structures:ObjectType</title>
<g id="a_node4_12"><a xlink:href="../../structures/ObjectType/#diagram" xlink:title="A data type for a thing with its own lifespan that has some existence." target="_top">
<text text-anchor="start" x="352" y="-181.9" font-family="Helvetica,sans-Serif" font-size="12.00" fill="#000000">structures:ObjectType</text>
</a>
</g>
<polygon fill="none" stroke="#000000" points="350,-177 350,-194 472,-194 472,-177 350,-177"/>
</g>
<!-- structures:ObjectType&#45;&gt;im:AlienStudentEmploymentType -->
<g id="edge3" class="edge">
<title>structures:ObjectType&#45;&gt;im:AlienStudentEmploymentType</title>
<path fill="none" stroke="#000000" d="M411,-176.8644C411,-170.7696 411,-161.9448 411,-152.022"/>
<polygon fill="#000000" stroke="#000000" points="414.5001,-151.7935 411,-141.7936 407.5001,-151.7936 414.5001,-151.7935"/>
<text text-anchor="middle" x="401.5" y="-156.15" font-family="Helvetica,sans-Serif" font-size="12.00" fill="#000000">extension</text>
</g>
</g>
</svg>
