<?xml version="1.0" encoding="UTF-8" standalone="no"?>
<!DOCTYPE svg PUBLIC "-//W3C//DTD SVG 1.1//EN"
 "http://www.w3.org/Graphics/SVG/1.1/DTD/svg11.dtd">
<!-- Generated by graphviz version 2.40.1 (20161225.0304)
 -->
<!-- Title: graphic Pages: 1 -->
<svg width="212pt" height="154pt"
 viewBox="0.00 0.00 212.00 153.50" xmlns="http://www.w3.org/2000/svg" xmlns:xlink="http://www.w3.org/1999/xlink">
<g id="graph0" class="graph" transform="scale(1 1) rotate(0) translate(4 149.5)">
<title>graphic</title>
<polygon fill="#ffffff" stroke="transparent" points="-4,4 -4,-149.5 208,-149.5 208,4 -4,4"/>
<!-- biom:ScaleUnitsCodeSimpleType -->
<g id="node1" class="node">
<title>biom:ScaleUnitsCodeSimpleType</title>
<text text-anchor="start" x="6" y="-77.4" font-family="Helvetica,sans-Serif" font-weight="bold" font-size="12.00" fill="#000000">biom:ScaleUnitsCodeSimpleType</text>
<polygon fill="none" stroke="#ff0000" stroke-width="5" points="2.5,-70 2.5,-90 201.5,-90 201.5,-70 2.5,-70"/>
</g>
<!-- DerivedTypes -->
<g id="node2" class="node">
<title>DerivedTypes</title>
<text text-anchor="start" x="31" y="-21.4" font-family="Helvetica,sans-Serif" font-weight="bold" font-size="12.00" fill="#000000">Derived types</text>
<g id="a_node2_0"><a xlink:href="../../biom/ScaleUnitsCodeType/#diagram" xlink:title="A data type for a sampling frequency unit designator, pixels per inch, or pixels per centimeter" target="_top">
<polygon fill="#ebebeb" stroke="transparent" points="30,-1 30,-16 175,-16 175,-1 30,-1"/>
<text text-anchor="start" x="31" y="-5.4" font-family="Helvetica,sans-Serif" font-size="12.00" fill="#000000">biom:ScaleUnitsCodeType</text>
</a>
</g>
<polygon fill="#000000" stroke="#000000" points="29,-16 29,-16 176,-16 176,-16 29,-16"/>
<polygon fill="none" stroke="#000000" points="28.5,0 28.5,-32 175.5,-32 175.5,0 28.5,0"/>
</g>
<!-- biom:ScaleUnitsCodeSimpleType&#45;&gt;DerivedTypes -->
<g id="edge1" class="edge">
<title>biom:ScaleUnitsCodeSimpleType&#45;&gt;DerivedTypes</title>
<path fill="none" stroke="#000000" d="M102,-67.4892C102,-60.3101 102,-51.0172 102,-42.306"/>
<polygon fill="#000000" stroke="#000000" points="105.5001,-42.1499 102,-32.1499 98.5001,-42.1499 105.5001,-42.1499"/>
<text text-anchor="middle" x="92.5" y="-46.65" font-family="Helvetica,sans-Serif" font-size="12.00" fill="#000000">derived</text>
</g>
<!-- xs:integer -->
<g id="node3" class="node">
<title>xs:integer</title>
<g id="a_node3_1"><a xlink:href="../../xs/integer/#diagram" xlink:title="&lt;TABLE&gt;" target="_top">
<text text-anchor="start" x="76" y="-133.4" font-family="Helvetica,sans-Serif" font-size="12.00" fill="#000000">xs:integer</text>
</a>
</g>
<polygon fill="none" stroke="#000000" points="73.5,-128.5 73.5,-145.5 130.5,-145.5 130.5,-128.5 73.5,-128.5"/>
</g>
<!-- xs:integer&#45;&gt;biom:ScaleUnitsCodeSimpleType -->
<g id="edge2" class="edge">
<title>xs:integer&#45;&gt;biom:ScaleUnitsCodeSimpleType</title>
<path fill="none" stroke="#000000" d="M102,-128.4473C102,-121.6242 102,-111.7417 102,-102.6794"/>
<polygon fill="#000000" stroke="#000000" points="105.5001,-102.6501 102,-92.6501 98.5001,-102.6502 105.5001,-102.6501"/>
<text text-anchor="middle" x="92.5" y="-107.4" font-family="Helvetica,sans-Serif" font-size="12.00" fill="#000000">restriction</text>
</g>
</g>
</svg>
