<?xml version="1.0" encoding="UTF-8" standalone="no"?>
<!DOCTYPE svg PUBLIC "-//W3C//DTD SVG 1.1//EN"
 "http://www.w3.org/Graphics/SVG/1.1/DTD/svg11.dtd">
<!-- Generated by graphviz version 2.40.1 (20161225.0304)
 -->
<!-- Title: graphic Pages: 1 -->
<svg width="611pt" height="45pt"
 viewBox="0.00 0.00 611.00 45.00" xmlns="http://www.w3.org/2000/svg" xmlns:xlink="http://www.w3.org/1999/xlink">
<g id="graph0" class="graph" transform="scale(1 1) rotate(0) translate(4 41)">
<title>graphic</title>
<polygon fill="#ffffff" stroke="transparent" points="-4,4 -4,-41 607,-41 607,4 -4,4"/>
<!-- biom:IrisDiameterPixelQuantity -->
<g id="node1" class="node">
<title>biom:IrisDiameterPixelQuantity</title>
<text text-anchor="start" x="214.5" y="-21.4" font-family="Helvetica,sans-Serif" font-weight="bold" font-size="12.00" fill="#000000">biom:IrisDiameterPixelQuantity</text>
<polygon fill="none" stroke="#ff0000" stroke-width="5" points="210.5,-14 210.5,-34 396.5,-34 396.5,-14 210.5,-14"/>
</g>
<!-- biom:Integer1To9999Type -->
<g id="node3" class="node">
<title>biom:Integer1To9999Type</title>
<g id="a_node3_0"><a xlink:href="../../biom/Integer1To9999Type/#diagram" xlink:title="A data type of integer that has a value range of 1 to 9999" target="_top">
<text text-anchor="start" x="460.5" y="-20.4" font-family="Helvetica,sans-Serif" font-size="12.00" fill="#000000">biom:Integer1To9999Type</text>
</a>
</g>
<polygon fill="none" stroke="#000000" points="458,-15.5 458,-32.5 603,-32.5 603,-15.5 458,-15.5"/>
</g>
<!-- biom:IrisDiameterPixelQuantity&#45;&gt;biom:Integer1To9999Type -->
<g id="edge2" class="edge">
<title>biom:IrisDiameterPixelQuantity&#45;&gt;biom:Integer1To9999Type</title>
<path fill="none" stroke="#000000" d="M399.1105,-24C415.2125,-24 431.8072,-24 447.5541,-24"/>
<polygon fill="#000000" stroke="#000000" points="447.766,-27.5001 457.766,-24 447.766,-20.5001 447.766,-27.5001"/>
<text text-anchor="middle" x="428.5" y="-27.4" font-family="Helvetica,sans-Serif" font-size="12.00" fill="#000000">type</text>
</g>
<!-- Types -->
<g id="node2" class="node">
<title>Types</title>
<text text-anchor="start" x="2.5" y="-21.4" font-family="Helvetica,sans-Serif" font-weight="bold" font-size="12.00" fill="#000000">Types</text>
<g id="a_node2_1"><a xlink:href="../../biom/IrisImageDetailType/#diagram" xlink:title="A data type for details about a Type&#45;17 iris image record" target="_top">
<polygon fill="#ebebeb" stroke="transparent" points="1.5,-1 1.5,-16 140.5,-16 140.5,-1 1.5,-1"/>
<text text-anchor="start" x="2.5" y="-5.4" font-family="Helvetica,sans-Serif" font-size="12.00" fill="#000000">biom:IrisImageDetailType</text>
</a>
</g>
<polygon fill="#000000" stroke="#000000" points=".5,-16 .5,-16 141.5,-16 141.5,-16 .5,-16"/>
<polygon fill="none" stroke="#000000" points="0,0 0,-32 141,-32 141,0 0,0"/>
</g>
<!-- Types&#45;&gt;biom:IrisDiameterPixelQuantity -->
<g id="edge1" class="edge">
<title>Types:top&#45;&gt;biom:IrisDiameterPixelQuantity</title>
<path fill="none" stroke="#000000" d="M140.5,-24C158.9704,-24 178.618,-24 197.642,-24"/>
<polygon fill="#000000" stroke="#000000" points="197.8283,-27.5001 207.8283,-24 197.8283,-20.5001 197.8283,-27.5001"/>
<text text-anchor="middle" x="174.5" y="-27.4" font-family="Helvetica,sans-Serif" font-size="12.00" fill="#000000">has&#45;a</text>
</g>
</g>
</svg>
