<?xml version="1.0" encoding="UTF-8" standalone="no"?>
<!DOCTYPE svg PUBLIC "-//W3C//DTD SVG 1.1//EN"
 "http://www.w3.org/Graphics/SVG/1.1/DTD/svg11.dtd">
<!-- Generated by graphviz version 2.40.1 (20161225.0304)
 -->
<!-- Title: graphic Pages: 1 -->
<svg width="417pt" height="154pt"
 viewBox="0.00 0.00 417.00 153.50" xmlns="http://www.w3.org/2000/svg" xmlns:xlink="http://www.w3.org/1999/xlink">
<g id="graph0" class="graph" transform="scale(1 1) rotate(0) translate(4 149.5)">
<title>graphic</title>
<polygon fill="#ffffff" stroke="transparent" points="-4,4 -4,-149.5 413,-149.5 413,4 -4,4"/>
<!-- ncic:PROCodeType -->
<g id="node1" class="node">
<title>ncic:PROCodeType</title>
<text text-anchor="start" x="197" y="-25.4" font-family="Helvetica,sans-Serif" font-weight="bold" font-size="12.00" fill="#000000">ncic:PROCodeType</text>
<g id="a_node1_0"><a xlink:href="../../structures/SimpleObjectAttributeGroup/#diagram" xlink:title="A group of attributes that are applicable to objects, to be used when defining a complex type that is an extension of a simple type." target="_top">
<polygon fill="#ebebeb" stroke="transparent" points="196,-5 196,-20 404,-20 404,-5 196,-5"/>
<text text-anchor="start" x="197" y="-9.4" font-family="Helvetica,sans-Serif" font-size="12.00" fill="#000000">structures:SimpleObjectAttributeGroup</text>
</a>
</g>
<polygon fill="#ff0000" stroke="#ff0000" points="191,-20 191,-20 409,-20 409,-20 191,-20"/>
<polygon fill="none" stroke="#ff0000" stroke-width="5" points="193.5,-2.5 193.5,-37.5 406.5,-37.5 406.5,-2.5 193.5,-2.5"/>
</g>
<!-- Properties -->
<g id="node2" class="node">
<title>Properties</title>
<text text-anchor="start" x="2" y="-25.4" font-family="Helvetica,sans-Serif" font-weight="bold" font-size="12.00" fill="#000000">Properties</text>
<g id="a_node2_1"><a xlink:href="../../j/VesselPropulsionCode/#diagram" xlink:title="A mode by which a vessel is designed to move through the water." target="_top">
<polygon fill="#ebebeb" stroke="transparent" points="1,-5 1,-20 131,-20 131,-5 1,-5"/>
<text text-anchor="start" x="2" y="-9.4" font-family="Helvetica,sans-Serif" font-size="12.00" fill="#000000">j:VesselPropulsionCode</text>
</a>
</g>
<polygon fill="#000000" stroke="#000000" points="0,-20 0,-20 132,-20 132,-20 0,-20"/>
<polygon fill="none" stroke="#000000" points="0,-4 0,-36 132,-36 132,-4 0,-4"/>
</g>
<!-- Properties&#45;&gt;ncic:PROCodeType -->
<g id="edge1" class="edge">
<title>Properties:top&#45;&gt;ncic:PROCodeType:top</title>
<path fill="none" stroke="#000000" d="M131,-28C156.1649,-28 164.8891,-28 185.8154,-28"/>
<polygon fill="#000000" stroke="#000000" points="186,-31.5001 196,-28 186,-24.5001 186,-31.5001"/>
<text text-anchor="middle" x="161.5" y="-31.4" font-family="Helvetica,sans-Serif" font-size="12.00" fill="#000000">type</text>
</g>
<!-- ncic:PROCodeSimpleType -->
<g id="node3" class="node">
<title>ncic:PROCodeSimpleType</title>
<g id="a_node3_2"><a xlink:href="../../ncic/PROCodeSimpleType/#diagram" xlink:title="A data type for 2 &#45; Propulsion (PRO) Field Codes" target="_top">
<text text-anchor="start" x="229" y="-80.4" font-family="Helvetica,sans-Serif" font-size="12.00" fill="#000000">ncic:PROCodeSimpleType</text>
</a>
</g>
<polygon fill="none" stroke="#000000" points="226.5,-75.5 226.5,-92.5 373.5,-92.5 373.5,-75.5 226.5,-75.5"/>
</g>
<!-- ncic:PROCodeSimpleType&#45;&gt;ncic:PROCodeType -->
<g id="edge2" class="edge">
<title>ncic:PROCodeSimpleType&#45;&gt;ncic:PROCodeType</title>
<path fill="none" stroke="#000000" d="M300,-75.4351C300,-68.931 300,-59.5678 300,-50.3827"/>
<polygon fill="#000000" stroke="#000000" points="303.5001,-50.25 300,-40.25 296.5001,-50.25 303.5001,-50.25"/>
<text text-anchor="middle" x="290.5" y="-54.65" font-family="Helvetica,sans-Serif" font-size="12.00" fill="#000000">extension</text>
</g>
<!-- xs:token -->
<g id="node4" class="node">
<title>xs:token</title>
<g id="a_node4_3"><a xlink:href="../../xs/token/#diagram" xlink:title="&lt;TABLE&gt;" target="_top">
<text text-anchor="start" x="278" y="-133.4" font-family="Helvetica,sans-Serif" font-size="12.00" fill="#000000">xs:token</text>
</a>
</g>
<polygon fill="none" stroke="#000000" points="275.5,-128.5 275.5,-145.5 324.5,-145.5 324.5,-128.5 275.5,-128.5"/>
</g>
<!-- xs:token&#45;&gt;ncic:PROCodeSimpleType -->
<g id="edge3" class="edge">
<title>xs:token&#45;&gt;ncic:PROCodeSimpleType</title>
<path fill="none" stroke="#000000" d="M300,-128.411C300,-121.5124 300,-111.5696 300,-102.84"/>
<polygon fill="#000000" stroke="#000000" points="303.5001,-102.7518 300,-92.7519 296.5001,-102.7519 303.5001,-102.7518"/>
<text text-anchor="middle" x="290.5" y="-107.4" font-family="Helvetica,sans-Serif" font-size="12.00" fill="#000000">restriction</text>
</g>
</g>
</svg>
