<?xml version="1.0" encoding="UTF-8" standalone="no"?>
<!DOCTYPE svg PUBLIC "-//W3C//DTD SVG 1.1//EN"
 "http://www.w3.org/Graphics/SVG/1.1/DTD/svg11.dtd">
<!-- Generated by graphviz version 2.40.1 (20161225.0304)
 -->
<!-- Title: graphic Pages: 1 -->
<svg width="487pt" height="164pt"
 viewBox="0.00 0.00 487.00 164.00" xmlns="http://www.w3.org/2000/svg" xmlns:xlink="http://www.w3.org/1999/xlink">
<g id="graph0" class="graph" transform="scale(1 1) rotate(0) translate(4 160)">
<title>graphic</title>
<polygon fill="#ffffff" stroke="transparent" points="-4,4 -4,-160 483,-160 483,4 -4,4"/>
<!-- itcodes:LocationFunctionCodeType -->
<g id="node1" class="node">
<title>itcodes:LocationFunctionCodeType</title>
<text text-anchor="start" x="261.5" y="-35.9" font-family="Helvetica,sans-Serif" font-weight="bold" font-size="12.00" fill="#000000">itcodes:LocationFunctionCodeType</text>
<g id="a_node1_0"><a xlink:href="../../structures/SimpleObjectAttributeGroup/#diagram" xlink:title="A group of attributes that are applicable to objects, to be used when defining a complex type that is an extension of a simple type." target="_top">
<polygon fill="#ebebeb" stroke="transparent" points="260.5,-15.5 260.5,-30.5 468.5,-30.5 468.5,-15.5 260.5,-15.5"/>
<text text-anchor="start" x="261.5" y="-19.9" font-family="Helvetica,sans-Serif" font-size="12.00" fill="#000000">structures:SimpleObjectAttributeGroup</text>
</a>
</g>
<polygon fill="#ff0000" stroke="#ff0000" points="255.5,-30.5 255.5,-30.5 473.5,-30.5 473.5,-30.5 255.5,-30.5"/>
<polygon fill="none" stroke="#ff0000" stroke-width="5" points="258,-13 258,-48 471,-48 471,-13 258,-13"/>
</g>
<!-- Properties -->
<g id="node2" class="node">
<title>Properties</title>
<text text-anchor="start" x="2.5" y="-35.9" font-family="Helvetica,sans-Serif" font-weight="bold" font-size="12.00" fill="#000000">Properties</text>
<g id="a_node2_1"><a xlink:href="../../it/LocationFunctionCode/#diagram" xlink:title="A location categorized on the function that it performs" target="_top">
<polygon fill="#ebebeb" stroke="transparent" points="1.5,-15.5 1.5,-30.5 190.5,-30.5 190.5,-15.5 1.5,-15.5"/>
<text text-anchor="start" x="2.5" y="-19.9" font-family="Helvetica,sans-Serif" font-size="12.00" fill="#000000">it:LocationFunctionCode</text>
</a>
</g>
<g id="a_node2_2"><a xlink:href="../../it/UnloadingLocationCategoryCode/#diagram" xlink:title="A code to identify a seaport, airport, freight terminal, rail station or other place at which goods are unloaded from the transport means used for their carriage." target="_top">
<text text-anchor="start" x="2.5" y="-4.9" font-family="Helvetica,sans-Serif" font-size="12.00" fill="#000000">it:UnloadingLocationCategoryCode</text>
</a>
</g>
<polygon fill="#000000" stroke="#000000" points=".5,-30.5 .5,-30.5 191.5,-30.5 191.5,-30.5 .5,-30.5"/>
<polygon fill="none" stroke="#000000" points="0,0 0,-47 191,-47 191,0 0,0"/>
</g>
<!-- Properties&#45;&gt;itcodes:LocationFunctionCodeType -->
<g id="edge1" class="edge">
<title>Properties:top&#45;&gt;itcodes:LocationFunctionCodeType:top</title>
<path fill="none" stroke="#000000" d="M190.5,-38.5C217.9653,-38.5 227.2455,-38.5 250.4487,-38.5"/>
<polygon fill="#000000" stroke="#000000" points="250.5,-42.0001 260.5,-38.5 250.5,-35.0001 250.5,-42.0001"/>
<text text-anchor="middle" x="220.5" y="-41.9" font-family="Helvetica,sans-Serif" font-size="12.00" fill="#000000">type</text>
</g>
<!-- itcodes:LocationFunctionCodeSimpleType -->
<g id="node3" class="node">
<title>itcodes:LocationFunctionCodeSimpleType</title>
<g id="a_node3_3"><a xlink:href="../../itcodes/LocationFunctionCodeSimpleType/#diagram" xlink:title="A data type for a location categorized on the function that it performs" target="_top">
<text text-anchor="start" x="252.5" y="-90.9" font-family="Helvetica,sans-Serif" font-size="12.00" fill="#000000">itcodes:LocationFunctionCodeSimpleType</text>
</a>
</g>
<polygon fill="none" stroke="#000000" points="250,-86 250,-103 479,-103 479,-86 250,-86"/>
</g>
<!-- itcodes:LocationFunctionCodeSimpleType&#45;&gt;itcodes:LocationFunctionCodeType -->
<g id="edge2" class="edge">
<title>itcodes:LocationFunctionCodeSimpleType&#45;&gt;itcodes:LocationFunctionCodeType</title>
<path fill="none" stroke="#000000" d="M364.5,-85.9351C364.5,-79.431 364.5,-70.0678 364.5,-60.8827"/>
<polygon fill="#000000" stroke="#000000" points="368.0001,-60.75 364.5,-50.75 361.0001,-60.75 368.0001,-60.75"/>
<text text-anchor="middle" x="355" y="-65.15" font-family="Helvetica,sans-Serif" font-size="12.00" fill="#000000">extension</text>
</g>
<!-- xs:token -->
<g id="node4" class="node">
<title>xs:token</title>
<g id="a_node4_4"><a xlink:href="../../xs/token/#diagram" xlink:title="&lt;TABLE&gt;" target="_top">
<text text-anchor="start" x="342.5" y="-143.9" font-family="Helvetica,sans-Serif" font-size="12.00" fill="#000000">xs:token</text>
</a>
</g>
<polygon fill="none" stroke="#000000" points="340,-139 340,-156 389,-156 389,-139 340,-139"/>
</g>
<!-- xs:token&#45;&gt;itcodes:LocationFunctionCodeSimpleType -->
<g id="edge3" class="edge">
<title>xs:token&#45;&gt;itcodes:LocationFunctionCodeSimpleType</title>
<path fill="none" stroke="#000000" d="M364.5,-138.911C364.5,-132.0124 364.5,-122.0696 364.5,-113.34"/>
<polygon fill="#000000" stroke="#000000" points="368.0001,-113.2518 364.5,-103.2519 361.0001,-113.2519 368.0001,-113.2518"/>
<text text-anchor="middle" x="355" y="-117.9" font-family="Helvetica,sans-Serif" font-size="12.00" fill="#000000">restriction</text>
</g>
</g>
</svg>
