<?xml version="1.0" encoding="UTF-8" standalone="no"?>
<!DOCTYPE svg PUBLIC "-//W3C//DTD SVG 1.1//EN"
 "http://www.w3.org/Graphics/SVG/1.1/DTD/svg11.dtd">
<!-- Generated by graphviz version 2.40.1 (20161225.0304)
 -->
<!-- Title: graphic Pages: 1 -->
<svg width="520pt" height="98pt"
 viewBox="0.00 0.00 520.00 97.50" xmlns="http://www.w3.org/2000/svg" xmlns:xlink="http://www.w3.org/1999/xlink">
<g id="graph0" class="graph" transform="scale(1 1) rotate(0) translate(4 93.5)">
<title>graphic</title>
<polygon fill="#ffffff" stroke="transparent" points="-4,4 -4,-93.5 516,-93.5 516,4 -4,4"/>
<!-- nc:EmployeeShiftText -->
<g id="node1" class="node">
<title>nc:EmployeeShiftText</title>
<text text-anchor="start" x="248" y="-21.4" font-family="Helvetica,sans-Serif" font-weight="bold" font-size="12.00" fill="#000000">nc:EmployeeShiftText</text>
<polygon fill="none" stroke="#ff0000" stroke-width="5" points="244,-14 244,-34 378,-34 378,-14 244,-14"/>
</g>
<!-- nc:TextType -->
<g id="node4" class="node">
<title>nc:TextType</title>
<g id="a_node4_0"><a xlink:href="../../nc/TextType/#diagram" xlink:title="A data type for a character string." target="_top">
<text text-anchor="start" x="443.5" y="-20.4" font-family="Helvetica,sans-Serif" font-size="12.00" fill="#000000">nc:TextType</text>
</a>
</g>
<polygon fill="none" stroke="#000000" points="441,-15.5 441,-32.5 512,-32.5 512,-15.5 441,-15.5"/>
</g>
<!-- nc:EmployeeShiftText&#45;&gt;nc:TextType -->
<g id="edge3" class="edge">
<title>nc:EmployeeShiftText&#45;&gt;nc:TextType</title>
<path fill="none" stroke="#000000" d="M380.7072,-24C397.5028,-24 415.0338,-24 430.438,-24"/>
<polygon fill="#000000" stroke="#000000" points="430.7275,-27.5001 440.7275,-24 430.7275,-20.5001 430.7275,-27.5001"/>
<text text-anchor="middle" x="411.5" y="-27.4" font-family="Helvetica,sans-Serif" font-size="12.00" fill="#000000">type</text>
</g>
<!-- Types -->
<g id="node2" class="node">
<title>Types</title>
<text text-anchor="start" x="2.5" y="-21.4" font-family="Helvetica,sans-Serif" font-weight="bold" font-size="12.00" fill="#000000">Types</text>
<g id="a_node2_1"><a xlink:href="../../em/OrganizationPersonnelType/#diagram" xlink:title="A data type for an organization&#39;s personnel information" target="_top">
<polygon fill="#ebebeb" stroke="transparent" points="1.5,-1 1.5,-16 172.5,-16 172.5,-1 1.5,-1"/>
<text text-anchor="start" x="2.5" y="-5.4" font-family="Helvetica,sans-Serif" font-size="12.00" fill="#000000">em:OrganizationPersonnelType</text>
</a>
</g>
<polygon fill="#000000" stroke="#000000" points=".5,-16 .5,-16 173.5,-16 173.5,-16 .5,-16"/>
<polygon fill="none" stroke="#000000" points="0,0 0,-32 173,-32 173,0 0,0"/>
</g>
<!-- Types&#45;&gt;nc:EmployeeShiftText -->
<g id="edge1" class="edge">
<title>Types:top&#45;&gt;nc:EmployeeShiftText</title>
<path fill="none" stroke="#000000" d="M172.5,-24C191.4553,-24 211.8698,-24 231.0474,-24"/>
<polygon fill="#000000" stroke="#000000" points="231.252,-27.5001 241.2519,-24 231.2519,-20.5001 231.252,-27.5001"/>
<text text-anchor="middle" x="206.5" y="-27.4" font-family="Helvetica,sans-Serif" font-size="12.00" fill="#000000">has&#45;a</text>
</g>
<!-- SubstitutionGroup -->
<g id="node3" class="node">
<title>SubstitutionGroup</title>
<g id="a_node3_2"><a xlink:href="../../nc/EmployeeShiftAbstract/#diagram" xlink:title="A data concept for a set of hours or time frame during which a person usually works." target="_top">
<text text-anchor="start" x="242" y="-77.4" font-family="Helvetica,sans-Serif" font-size="12.00" fill="#000000">nc:EmployeeShiftAbstract</text>
</a>
</g>
<polygon fill="none" stroke="#000000" points="240,-72.5 240,-89.5 382,-89.5 382,-72.5 240,-72.5"/>
</g>
<!-- SubstitutionGroup&#45;&gt;nc:EmployeeShiftText -->
<g id="edge2" class="edge">
<title>SubstitutionGroup&#45;&gt;nc:EmployeeShiftText</title>
<path fill="none" stroke="#000000" d="M311,-62.4163C311,-53.9809 311,-44.2214 311,-36.6501"/>
<polygon fill="#000000" stroke="#000000" points="307.5001,-62.4472 311,-72.4473 314.5001,-62.4473 307.5001,-62.4472"/>
<text text-anchor="middle" x="301.5" y="-51.4" font-family="Helvetica,sans-Serif" font-size="12.00" fill="#000000">substitution group</text>
</g>
</g>
</svg>
