<?xml version="1.0" encoding="UTF-8" standalone="no"?>
<!DOCTYPE svg PUBLIC "-//W3C//DTD SVG 1.1//EN"
 "http://www.w3.org/Graphics/SVG/1.1/DTD/svg11.dtd">
<!-- Generated by graphviz version 2.40.1 (20161225.0304)
 -->
<!-- Title: graphic Pages: 1 -->
<svg width="365pt" height="86pt"
 viewBox="0.00 0.00 365.00 86.00" xmlns="http://www.w3.org/2000/svg" xmlns:xlink="http://www.w3.org/1999/xlink">
<g id="graph0" class="graph" transform="scale(1 1) rotate(0) translate(4 82)">
<title>graphic</title>
<polygon fill="#ffffff" stroke="transparent" points="-4,4 -4,-82 361,-82 361,4 -4,4"/>
<!-- j:ArrestCategoryCode -->
<g id="node1" class="node">
<title>j:ArrestCategoryCode</title>
<text text-anchor="start" x="6.5" y="-9.9" font-family="Helvetica,sans-Serif" font-weight="bold" font-size="12.00" fill="#000000">j:ArrestCategoryCode</text>
<polygon fill="none" stroke="#ff0000" stroke-width="5" points="2.5,-2.5 2.5,-22.5 134.5,-22.5 134.5,-2.5 2.5,-2.5"/>
</g>
<!-- ucr:ArrestCategoryCodeType -->
<g id="node3" class="node">
<title>ucr:ArrestCategoryCodeType</title>
<g id="a_node3_0"><a xlink:href="../../ucr/ArrestCategoryCodeType/#diagram" xlink:title="A data type for kinds of arrests that can occur." target="_top">
<text text-anchor="start" x="198.5" y="-8.9" font-family="Helvetica,sans-Serif" font-size="12.00" fill="#000000">ucr:ArrestCategoryCodeType</text>
</a>
</g>
<polygon fill="none" stroke="#000000" points="196,-4 196,-21 357,-21 357,-4 196,-4"/>
</g>
<!-- j:ArrestCategoryCode&#45;&gt;ucr:ArrestCategoryCodeType -->
<g id="edge2" class="edge">
<title>j:ArrestCategoryCode&#45;&gt;ucr:ArrestCategoryCodeType</title>
<path fill="none" stroke="#000000" d="M137.1834,-12.5C152.7644,-12.5 169.5454,-12.5 185.8787,-12.5"/>
<polygon fill="#000000" stroke="#000000" points="185.976,-16.0001 195.976,-12.5 185.9759,-9.0001 185.976,-16.0001"/>
<text text-anchor="middle" x="166.5" y="-15.9" font-family="Helvetica,sans-Serif" font-size="12.00" fill="#000000">type</text>
</g>
<!-- SubstitutionGroup -->
<g id="node2" class="node">
<title>SubstitutionGroup</title>
<g id="a_node2_1"><a xlink:href="../../j/ArrestCategoryAbstract/#diagram" xlink:title="A data concept for a kind of arrest that occurred." target="_top">
<text text-anchor="start" x="3.5" y="-65.9" font-family="Helvetica,sans-Serif" font-size="12.00" fill="#000000">j:ArrestCategoryAbstract</text>
</a>
</g>
<polygon fill="none" stroke="#000000" points="1,-61 1,-78 136,-78 136,-61 1,-61"/>
</g>
<!-- SubstitutionGroup&#45;&gt;j:ArrestCategoryCode -->
<g id="edge1" class="edge">
<title>SubstitutionGroup&#45;&gt;j:ArrestCategoryCode</title>
<path fill="none" stroke="#000000" d="M68.5,-50.9163C68.5,-42.4809 68.5,-32.7214 68.5,-25.1501"/>
<polygon fill="#000000" stroke="#000000" points="65.0001,-50.9472 68.5,-60.9473 72.0001,-50.9473 65.0001,-50.9472"/>
<text text-anchor="middle" x="59" y="-39.9" font-family="Helvetica,sans-Serif" font-size="12.00" fill="#000000">substitution group</text>
</g>
</g>
</svg>
