<?xml version="1.0" encoding="UTF-8" standalone="no"?>
<!DOCTYPE svg PUBLIC "-//W3C//DTD SVG 1.1//EN"
 "http://www.w3.org/Graphics/SVG/1.1/DTD/svg11.dtd">
<!-- Generated by graphviz version 2.40.1 (20161225.0304)
 -->
<!-- Title: graphic Pages: 1 -->
<svg width="421pt" height="45pt"
 viewBox="0.00 0.00 421.00 45.00" xmlns="http://www.w3.org/2000/svg" xmlns:xlink="http://www.w3.org/1999/xlink">
<g id="graph0" class="graph" transform="scale(1 1) rotate(0) translate(4 41)">
<title>graphic</title>
<polygon fill="#ffffff" stroke="transparent" points="-4,4 -4,-41 417,-41 417,4 -4,4"/>
<!-- nc:BinaryHash -->
<g id="node1" class="node">
<title>nc:BinaryHash</title>
<text text-anchor="start" x="154.5" y="-21.4" font-family="Helvetica,sans-Serif" font-weight="bold" font-size="12.00" fill="#000000">nc:BinaryHash</text>
<polygon fill="none" stroke="#ff0000" stroke-width="5" points="150.5,-14 150.5,-34 242.5,-34 242.5,-14 150.5,-14"/>
</g>
<!-- nc:BinaryHashType -->
<g id="node3" class="node">
<title>nc:BinaryHashType</title>
<g id="a_node3_0"><a xlink:href="../../nc/BinaryHashType/#diagram" xlink:title="A data type for a hash value representing an object encoded in a binary format." target="_top">
<text text-anchor="start" x="306.5" y="-20.4" font-family="Helvetica,sans-Serif" font-size="12.00" fill="#000000">nc:BinaryHashType</text>
</a>
</g>
<polygon fill="none" stroke="#000000" points="304,-15.5 304,-32.5 413,-32.5 413,-15.5 304,-15.5"/>
</g>
<!-- nc:BinaryHash&#45;&gt;nc:BinaryHashType -->
<g id="edge2" class="edge">
<title>nc:BinaryHash&#45;&gt;nc:BinaryHashType</title>
<path fill="none" stroke="#000000" d="M245.1053,-24C260.3194,-24 277.3591,-24 293.5136,-24"/>
<polygon fill="#000000" stroke="#000000" points="293.9735,-27.5001 303.9735,-24 293.9735,-20.5001 293.9735,-27.5001"/>
<text text-anchor="middle" x="274.5" y="-27.4" font-family="Helvetica,sans-Serif" font-size="12.00" fill="#000000">type</text>
</g>
<!-- Types -->
<g id="node2" class="node">
<title>Types</title>
<text text-anchor="start" x="2.5" y="-21.4" font-family="Helvetica,sans-Serif" font-weight="bold" font-size="12.00" fill="#000000">Types</text>
<g id="a_node2_1"><a xlink:href="../../nc/BinaryType/#diagram" xlink:title="A data type for a digital representation of an object encoded in a binary format." target="_top">
<polygon fill="#ebebeb" stroke="transparent" points="1.5,-1 1.5,-16 80.5,-16 80.5,-1 1.5,-1"/>
<text text-anchor="start" x="2.5" y="-5.4" font-family="Helvetica,sans-Serif" font-size="12.00" fill="#000000">nc:BinaryType</text>
</a>
</g>
<polygon fill="#000000" stroke="#000000" points=".5,-16 .5,-16 81.5,-16 81.5,-16 .5,-16"/>
<polygon fill="none" stroke="#000000" points="0,0 0,-32 81,-32 81,0 0,0"/>
</g>
<!-- Types&#45;&gt;nc:BinaryHash -->
<g id="edge1" class="edge">
<title>Types:top&#45;&gt;nc:BinaryHash</title>
<path fill="none" stroke="#000000" d="M80.5,-24C99.1049,-24 119.3882,-24 137.7158,-24"/>
<polygon fill="#000000" stroke="#000000" points="137.9623,-27.5001 147.9623,-24 137.9622,-20.5001 137.9623,-27.5001"/>
<text text-anchor="middle" x="114.5" y="-27.4" font-family="Helvetica,sans-Serif" font-size="12.00" fill="#000000">has&#45;a</text>
</g>
</g>
</svg>
