<?xml version="1.0" encoding="UTF-8" standalone="no"?>
<!DOCTYPE svg PUBLIC "-//W3C//DTD SVG 1.1//EN"
 "http://www.w3.org/Graphics/SVG/1.1/DTD/svg11.dtd">
<!-- Generated by graphviz version 2.40.1 (20161225.0304)
 -->
<!-- Title: graphic Pages: 1 -->
<svg width="654pt" height="101pt"
 viewBox="0.00 0.00 654.00 101.00" xmlns="http://www.w3.org/2000/svg" xmlns:xlink="http://www.w3.org/1999/xlink">
<g id="graph0" class="graph" transform="scale(1 1) rotate(0) translate(4 97)">
<title>graphic</title>
<polygon fill="#ffffff" stroke="transparent" points="-4,4 -4,-97 650,-97 650,4 -4,4"/>
<!-- j:OccupantAirBagDeployedAbstract -->
<g id="node1" class="node">
<title>j:OccupantAirBagDeployedAbstract</title>
<text text-anchor="start" x="334.5" y="-77.4" font-family="Helvetica,sans-Serif" font-weight="bold" font-size="12.00" fill="#000000">j:OccupantAirBagDeployedAbstract</text>
<polygon fill="none" stroke="#ff0000" stroke-width="5" points="330.5,-70 330.5,-90 542.5,-90 542.5,-70 330.5,-70"/>
</g>
<!-- SubstitutableElements -->
<g id="node3" class="node">
<title>SubstitutableElements</title>
<text text-anchor="start" x="229.5" y="-21.4" font-family="Helvetica,sans-Serif" font-weight="bold" font-size="12.00" fill="#000000">Substitutable elements</text>
<g id="a_node3_0"><a xlink:href="../../j/OccupantAirBagDeployedCode/#diagram" xlink:title="A deployment status of an air bag relative to the position in the vehicle for this occupant." target="_top">
<polygon fill="#ebebeb" stroke="transparent" points="228.5,-1 228.5,-16 645.5,-16 645.5,-1 228.5,-1"/>
<text text-anchor="start" x="229.5" y="-5.4" font-family="Helvetica,sans-Serif" font-size="12.00" fill="#000000">j:OccupantAirBagDeployedCode: mmucc:OccupantAirBagDeployedCodeType</text>
</a>
</g>
<polygon fill="#000000" stroke="#000000" points="227.5,-16 227.5,-16 646.5,-16 646.5,-16 227.5,-16"/>
<polygon fill="none" stroke="#000000" points="227,0 227,-32 646,-32 646,0 227,0"/>
</g>
<!-- j:OccupantAirBagDeployedAbstract&#45;&gt;SubstitutableElements -->
<g id="edge2" class="edge">
<title>j:OccupantAirBagDeployedAbstract&#45;&gt;SubstitutableElements</title>
<path fill="none" stroke="#000000" d="M436.5,-57.3063C436.5,-48.9972 436.5,-39.7712 436.5,-32.1499"/>
<polygon fill="#000000" stroke="#000000" points="433.0001,-57.4892 436.5,-67.4892 440.0001,-57.4892 433.0001,-57.4892"/>
<text text-anchor="middle" x="427" y="-46.65" font-family="Helvetica,sans-Serif" font-size="12.00" fill="#000000">substitutable for</text>
</g>
<!-- Types -->
<g id="node2" class="node">
<title>Types</title>
<text text-anchor="start" x="2" y="-77.4" font-family="Helvetica,sans-Serif" font-weight="bold" font-size="12.00" fill="#000000">Types</text>
<g id="a_node2_1"><a xlink:href="../../j/CrashVehicleOccupantType/#diagram" xlink:title="A data type for any vehicle occupant involved in a traffic accident." target="_top">
<polygon fill="#ebebeb" stroke="transparent" points="1,-57 1,-72 159,-72 159,-57 1,-57"/>
<text text-anchor="start" x="2" y="-61.4" font-family="Helvetica,sans-Serif" font-size="12.00" fill="#000000">j:CrashVehicleOccupantType</text>
</a>
</g>
<polygon fill="#000000" stroke="#000000" points="0,-72 0,-72 160,-72 160,-72 0,-72"/>
<polygon fill="none" stroke="#000000" points="0,-56 0,-88 160,-88 160,-56 0,-56"/>
</g>
<!-- Types&#45;&gt;j:OccupantAirBagDeployedAbstract -->
<g id="edge1" class="edge">
<title>Types:top&#45;&gt;j:OccupantAirBagDeployedAbstract</title>
<path fill="none" stroke="#000000" d="M159,-80C211.0581,-80 268.6095,-80 317.742,-80"/>
<polygon fill="#000000" stroke="#000000" points="317.7724,-83.5001 327.7724,-80 317.7723,-76.5001 317.7724,-83.5001"/>
<text text-anchor="middle" x="193.5" y="-83.4" font-family="Helvetica,sans-Serif" font-size="12.00" fill="#000000">has&#45;a</text>
</g>
</g>
</svg>
