<?xml version="1.0" encoding="UTF-8" standalone="no"?>
<!DOCTYPE svg PUBLIC "-//W3C//DTD SVG 1.1//EN"
 "http://www.w3.org/Graphics/SVG/1.1/DTD/svg11.dtd">
<!-- Generated by graphviz version 2.40.1 (20161225.0304)
 -->
<!-- Title: graphic Pages: 1 -->
<svg width="732pt" height="45pt"
 viewBox="0.00 0.00 732.00 45.00" xmlns="http://www.w3.org/2000/svg" xmlns:xlink="http://www.w3.org/1999/xlink">
<g id="graph0" class="graph" transform="scale(1 1) rotate(0) translate(4 41)">
<title>graphic</title>
<polygon fill="#ffffff" stroke="transparent" points="-4,4 -4,-41 728,-41 728,4 -4,4"/>
<!-- j:CriminalHistorySummaryClassificationCategoryText -->
<g id="node1" class="node">
<title>j:CriminalHistorySummaryClassificationCategoryText</title>
<text text-anchor="start" x="281.5" y="-21.4" font-family="Helvetica,sans-Serif" font-weight="bold" font-size="12.00" fill="#000000">j:CriminalHistorySummaryClassificationCategoryText</text>
<polygon fill="none" stroke="#ff0000" stroke-width="5" points="277.5,-14 277.5,-34 591.5,-34 591.5,-14 277.5,-14"/>
</g>
<!-- nc:TextType -->
<g id="node3" class="node">
<title>nc:TextType</title>
<g id="a_node3_0"><a xlink:href="../../nc/TextType/#diagram" xlink:title="A data type for a character string." target="_top">
<text text-anchor="start" x="655.5" y="-20.4" font-family="Helvetica,sans-Serif" font-size="12.00" fill="#000000">nc:TextType</text>
</a>
</g>
<polygon fill="none" stroke="#000000" points="653,-15.5 653,-32.5 724,-32.5 724,-15.5 653,-15.5"/>
</g>
<!-- j:CriminalHistorySummaryClassificationCategoryText&#45;&gt;nc:TextType -->
<g id="edge2" class="edge">
<title>j:CriminalHistorySummaryClassificationCategoryText&#45;&gt;nc:TextType</title>
<path fill="none" stroke="#000000" d="M594.2807,-24C611.7013,-24 628.2385,-24 642.4549,-24"/>
<polygon fill="#000000" stroke="#000000" points="642.8501,-27.5001 652.8501,-24 642.85,-20.5001 642.8501,-27.5001"/>
<text text-anchor="middle" x="623.5" y="-27.4" font-family="Helvetica,sans-Serif" font-size="12.00" fill="#000000">type</text>
</g>
<!-- Types -->
<g id="node2" class="node">
<title>Types</title>
<text text-anchor="start" x="2" y="-21.4" font-family="Helvetica,sans-Serif" font-weight="bold" font-size="12.00" fill="#000000">Types</text>
<g id="a_node2_1"><a xlink:href="../../j/PersonCriminalHistorySummaryType/#diagram" xlink:title="A data type for a quantitative sketch or simplification of a person&#39;s criminal history encompassing arrest and conviction offenses." target="_top">
<polygon fill="#ebebeb" stroke="transparent" points="1,-1 1,-16 207,-16 207,-1 1,-1"/>
<text text-anchor="start" x="2" y="-5.4" font-family="Helvetica,sans-Serif" font-size="12.00" fill="#000000">j:PersonCriminalHistorySummaryType</text>
</a>
</g>
<polygon fill="#000000" stroke="#000000" points="0,-16 0,-16 208,-16 208,-16 0,-16"/>
<polygon fill="none" stroke="#000000" points="0,0 0,-32 208,-32 208,0 0,0"/>
</g>
<!-- Types&#45;&gt;j:CriminalHistorySummaryClassificationCategoryText -->
<g id="edge1" class="edge">
<title>Types:top&#45;&gt;j:CriminalHistorySummaryClassificationCategoryText</title>
<path fill="none" stroke="#000000" d="M207,-24C225.6667,-24 245.195,-24 264.6305,-24"/>
<polygon fill="#000000" stroke="#000000" points="264.7806,-27.5001 274.7805,-24 264.7805,-20.5001 264.7806,-27.5001"/>
<text text-anchor="middle" x="241.5" y="-27.4" font-family="Helvetica,sans-Serif" font-size="12.00" fill="#000000">has&#45;a</text>
</g>
</g>
</svg>
