<?xml version="1.0" encoding="UTF-8" standalone="no"?>
<!DOCTYPE svg PUBLIC "-//W3C//DTD SVG 1.1//EN"
 "http://www.w3.org/Graphics/SVG/1.1/DTD/svg11.dtd">
<!-- Generated by graphviz version 2.40.1 (20161225.0304)
 -->
<!-- Title: graphic Pages: 1 -->
<svg width="662pt" height="45pt"
 viewBox="0.00 0.00 662.00 45.00" xmlns="http://www.w3.org/2000/svg" xmlns:xlink="http://www.w3.org/1999/xlink">
<g id="graph0" class="graph" transform="scale(1 1) rotate(0) translate(4 41)">
<title>graphic</title>
<polygon fill="#ffffff" stroke="transparent" points="-4,4 -4,-41 658,-41 658,4 -4,4"/>
<!-- stat:StatisticalSupportProgramInitiatedDate -->
<g id="node1" class="node">
<title>stat:StatisticalSupportProgramInitiatedDate</title>
<text text-anchor="start" x="266" y="-21.4" font-family="Helvetica,sans-Serif" font-weight="bold" font-size="12.00" fill="#000000">stat:StatisticalSupportProgramInitiatedDate</text>
<polygon fill="none" stroke="#ff0000" stroke-width="5" points="262.5,-14 262.5,-34 519.5,-34 519.5,-14 262.5,-14"/>
</g>
<!-- nc:DateType -->
<g id="node3" class="node">
<title>nc:DateType</title>
<g id="a_node3_0"><a xlink:href="../../nc/DateType/#diagram" xlink:title="A data type for a calendar date." target="_top">
<text text-anchor="start" x="583.5" y="-20.4" font-family="Helvetica,sans-Serif" font-size="12.00" fill="#000000">nc:DateType</text>
</a>
</g>
<polygon fill="none" stroke="#000000" points="581,-15.5 581,-32.5 654,-32.5 654,-15.5 581,-15.5"/>
</g>
<!-- stat:StatisticalSupportProgramInitiatedDate&#45;&gt;nc:DateType -->
<g id="edge2" class="edge">
<title>stat:StatisticalSupportProgramInitiatedDate&#45;&gt;nc:DateType</title>
<path fill="none" stroke="#000000" d="M522.1001,-24C539.4192,-24 556.167,-24 570.668,-24"/>
<polygon fill="#000000" stroke="#000000" points="570.8059,-27.5001 580.8059,-24 570.8059,-20.5001 570.8059,-27.5001"/>
<text text-anchor="middle" x="551.5" y="-27.4" font-family="Helvetica,sans-Serif" font-size="12.00" fill="#000000">type</text>
</g>
<!-- Types -->
<g id="node2" class="node">
<title>Types</title>
<text text-anchor="start" x="2.5" y="-21.4" font-family="Helvetica,sans-Serif" font-weight="bold" font-size="12.00" fill="#000000">Types</text>
<g id="a_node2_1"><a xlink:href="../../stat/StatisticalSupportProgramType/#diagram" xlink:title="A data type for a program which is not related to the post&#45;design production of statistical products, but is necessary to support production." target="_top">
<polygon fill="#ebebeb" stroke="transparent" points="1.5,-1 1.5,-16 192.5,-16 192.5,-1 1.5,-1"/>
<text text-anchor="start" x="2.5" y="-5.4" font-family="Helvetica,sans-Serif" font-size="12.00" fill="#000000">stat:StatisticalSupportProgramType</text>
</a>
</g>
<polygon fill="#000000" stroke="#000000" points=".5,-16 .5,-16 193.5,-16 193.5,-16 .5,-16"/>
<polygon fill="none" stroke="#000000" points="0,0 0,-32 193,-32 193,0 0,0"/>
</g>
<!-- Types&#45;&gt;stat:StatisticalSupportProgramInitiatedDate -->
<g id="edge1" class="edge">
<title>Types:top&#45;&gt;stat:StatisticalSupportProgramInitiatedDate</title>
<path fill="none" stroke="#000000" d="M192.5,-24C211.0616,-24 230.5995,-24 249.8812,-24"/>
<polygon fill="#000000" stroke="#000000" points="249.9345,-27.5001 259.9345,-24 249.9344,-20.5001 249.9345,-27.5001"/>
<text text-anchor="middle" x="226.5" y="-27.4" font-family="Helvetica,sans-Serif" font-size="12.00" fill="#000000">has&#45;a</text>
</g>
</g>
</svg>
