<?xml version="1.0" encoding="UTF-8" standalone="no"?>
<!DOCTYPE svg PUBLIC "-//W3C//DTD SVG 1.1//EN"
 "http://www.w3.org/Graphics/SVG/1.1/DTD/svg11.dtd">
<!-- Generated by graphviz version 2.40.1 (20161225.0304)
 -->
<!-- Title: graphic Pages: 1 -->
<svg width="924pt" height="45pt"
 viewBox="0.00 0.00 924.00 45.00" xmlns="http://www.w3.org/2000/svg" xmlns:xlink="http://www.w3.org/1999/xlink">
<g id="graph0" class="graph" transform="scale(1 1) rotate(0) translate(4 41)">
<title>graphic</title>
<polygon fill="#ffffff" stroke="transparent" points="-4,4 -4,-41 920,-41 920,4 -4,4"/>
<!-- j:SubjectSupervisedEmploymentPerformanceDemonstratedLevelNumeric -->
<g id="node1" class="node">
<title>j:SubjectSupervisedEmploymentPerformanceDemonstratedLevelNumeric</title>
<text text-anchor="start" x="338.5" y="-21.4" font-family="Helvetica,sans-Serif" font-weight="bold" font-size="12.00" fill="#000000">j:SubjectSupervisedEmploymentPerformanceDemonstratedLevelNumeric</text>
<polygon fill="none" stroke="#ff0000" stroke-width="5" points="334.5,-14 334.5,-34 762.5,-34 762.5,-14 334.5,-14"/>
</g>
<!-- nc:NumericType -->
<g id="node3" class="node">
<title>nc:NumericType</title>
<g id="a_node3_0"><a xlink:href="../../nc/NumericType/#diagram" xlink:title="A data type for a number value." target="_top">
<text text-anchor="start" x="826" y="-20.4" font-family="Helvetica,sans-Serif" font-size="12.00" fill="#000000">nc:NumericType</text>
</a>
</g>
<polygon fill="none" stroke="#000000" points="824,-15.5 824,-32.5 916,-32.5 916,-15.5 824,-15.5"/>
</g>
<!-- j:SubjectSupervisedEmploymentPerformanceDemonstratedLevelNumeric&#45;&gt;nc:NumericType -->
<g id="edge2" class="edge">
<title>j:SubjectSupervisedEmploymentPerformanceDemonstratedLevelNumeric&#45;&gt;nc:NumericType</title>
<path fill="none" stroke="#000000" d="M765.1737,-24C782.6612,-24 799.14,-24 813.6264,-24"/>
<polygon fill="#000000" stroke="#000000" points="813.8086,-27.5001 823.8086,-24 813.8086,-20.5001 813.8086,-27.5001"/>
<text text-anchor="middle" x="794.5" y="-27.4" font-family="Helvetica,sans-Serif" font-size="12.00" fill="#000000">type</text>
</g>
<!-- Types -->
<g id="node2" class="node">
<title>Types</title>
<text text-anchor="start" x="2.5" y="-21.4" font-family="Helvetica,sans-Serif" font-weight="bold" font-size="12.00" fill="#000000">Types</text>
<g id="a_node2_1"><a xlink:href="../../j/SubjectSupervisedEmploymentAssociationType/#diagram" xlink:title="A data type for an association between a subject and supervised employment." target="_top">
<polygon fill="#ebebeb" stroke="transparent" points="1.5,-1 1.5,-16 264.5,-16 264.5,-1 1.5,-1"/>
<text text-anchor="start" x="2.5" y="-5.4" font-family="Helvetica,sans-Serif" font-size="12.00" fill="#000000">j:SubjectSupervisedEmploymentAssociationType</text>
</a>
</g>
<polygon fill="#000000" stroke="#000000" points=".5,-16 .5,-16 265.5,-16 265.5,-16 .5,-16"/>
<polygon fill="none" stroke="#000000" points="0,0 0,-32 265,-32 265,0 0,0"/>
</g>
<!-- Types&#45;&gt;j:SubjectSupervisedEmploymentPerformanceDemonstratedLevelNumeric -->
<g id="edge1" class="edge">
<title>Types:top&#45;&gt;j:SubjectSupervisedEmploymentPerformanceDemonstratedLevelNumeric</title>
<path fill="none" stroke="#000000" d="M264.5,-24C283.0791,-24 302.342,-24 321.6847,-24"/>
<polygon fill="#000000" stroke="#000000" points="321.8038,-27.5001 331.8038,-24 321.8037,-20.5001 321.8038,-27.5001"/>
<text text-anchor="middle" x="298.5" y="-27.4" font-family="Helvetica,sans-Serif" font-size="12.00" fill="#000000">has&#45;a</text>
</g>
</g>
</svg>
