<?xml version="1.0" encoding="UTF-8" standalone="no"?>
<!DOCTYPE svg PUBLIC "-//W3C//DTD SVG 1.1//EN"
 "http://www.w3.org/Graphics/SVG/1.1/DTD/svg11.dtd">
<!-- Generated by graphviz version 2.40.1 (20161225.0304)
 -->
<!-- Title: graphic Pages: 1 -->
<svg width="608pt" height="154pt"
 viewBox="0.00 0.00 608.00 153.50" xmlns="http://www.w3.org/2000/svg" xmlns:xlink="http://www.w3.org/1999/xlink">
<g id="graph0" class="graph" transform="scale(1 1) rotate(0) translate(4 149.5)">
<title>graphic</title>
<polygon fill="#ffffff" stroke="transparent" points="-4,4 -4,-149.5 604,-149.5 604,4 -4,4"/>
<!-- scr:OrganizationStatusCategoryCodeType -->
<g id="node1" class="node">
<title>scr:OrganizationStatusCategoryCodeType</title>
<text text-anchor="start" x="345.5" y="-25.4" font-family="Helvetica,sans-Serif" font-weight="bold" font-size="12.00" fill="#000000">scr:OrganizationStatusCategoryCodeType</text>
<g id="a_node1_0"><a xlink:href="../../structures/SimpleObjectAttributeGroup/#diagram" xlink:title="A group of attributes that are applicable to objects, to be used when defining a complex type that is an extension of a simple type." target="_top">
<polygon fill="#ebebeb" stroke="transparent" points="344.5,-5 344.5,-20 589.5,-20 589.5,-5 344.5,-5"/>
<text text-anchor="start" x="345.5" y="-9.4" font-family="Helvetica,sans-Serif" font-size="12.00" fill="#000000">structures:SimpleObjectAttributeGroup</text>
</a>
</g>
<polygon fill="#ff0000" stroke="#ff0000" points="339.5,-20 339.5,-20 594.5,-20 594.5,-20 339.5,-20"/>
<polygon fill="none" stroke="#ff0000" stroke-width="5" points="341.5,-2.5 341.5,-37.5 591.5,-37.5 591.5,-2.5 341.5,-2.5"/>
</g>
<!-- Properties -->
<g id="node2" class="node">
<title>Properties</title>
<text text-anchor="start" x="2" y="-25.4" font-family="Helvetica,sans-Serif" font-weight="bold" font-size="12.00" fill="#000000">Properties</text>
<g id="a_node2_1"><a xlink:href="../../scr/OrganizationStatusClassificationCategoryCode/#diagram" xlink:title="A kind of organization status." target="_top">
<polygon fill="#ebebeb" stroke="transparent" points="1,-5 1,-20 273,-20 273,-5 1,-5"/>
<text text-anchor="start" x="2" y="-9.4" font-family="Helvetica,sans-Serif" font-size="12.00" fill="#000000">scr:OrganizationStatusClassificationCategoryCode</text>
</a>
</g>
<polygon fill="#000000" stroke="#000000" points="0,-20 0,-20 274,-20 274,-20 0,-20"/>
<polygon fill="none" stroke="#000000" points="0,-4 0,-36 274,-36 274,-4 0,-4"/>
</g>
<!-- Properties&#45;&gt;scr:OrganizationStatusCategoryCodeType -->
<g id="edge1" class="edge">
<title>Properties:top&#45;&gt;scr:OrganizationStatusCategoryCodeType:top</title>
<path fill="none" stroke="#000000" d="M273,-28C301.0538,-28 310.5329,-28 334.2333,-28"/>
<polygon fill="#000000" stroke="#000000" points="334.5,-31.5001 344.5,-28 334.5,-24.5001 334.5,-31.5001"/>
<text text-anchor="middle" x="303.5" y="-31.4" font-family="Helvetica,sans-Serif" font-size="12.00" fill="#000000">type</text>
</g>
<!-- scr:OrganizationStatusCategoryCodeSimpleType -->
<g id="node3" class="node">
<title>scr:OrganizationStatusCategoryCodeSimpleType</title>
<g id="a_node3_2"><a xlink:href="../../scr/OrganizationStatusCategoryCodeSimpleType/#diagram" xlink:title="A data type describing the kinds of status values associated with an organization" target="_top">
<text text-anchor="start" x="335.5" y="-80.4" font-family="Helvetica,sans-Serif" font-size="12.00" fill="#000000">scr:OrganizationStatusCategoryCodeSimpleType</text>
</a>
</g>
<polygon fill="none" stroke="#000000" points="333,-75.5 333,-92.5 600,-92.5 600,-75.5 333,-75.5"/>
</g>
<!-- scr:OrganizationStatusCategoryCodeSimpleType&#45;&gt;scr:OrganizationStatusCategoryCodeType -->
<g id="edge2" class="edge">
<title>scr:OrganizationStatusCategoryCodeSimpleType&#45;&gt;scr:OrganizationStatusCategoryCodeType</title>
<path fill="none" stroke="#000000" d="M466.5,-75.4351C466.5,-68.931 466.5,-59.5678 466.5,-50.3827"/>
<polygon fill="#000000" stroke="#000000" points="470.0001,-50.25 466.5,-40.25 463.0001,-50.25 470.0001,-50.25"/>
<text text-anchor="middle" x="457" y="-54.65" font-family="Helvetica,sans-Serif" font-size="12.00" fill="#000000">extension</text>
</g>
<!-- xs:token -->
<g id="node4" class="node">
<title>xs:token</title>
<g id="a_node4_3"><a xlink:href="../../xs/token/#diagram" xlink:title="&lt;TABLE&gt;" target="_top">
<text text-anchor="start" x="444.5" y="-133.4" font-family="Helvetica,sans-Serif" font-size="12.00" fill="#000000">xs:token</text>
</a>
</g>
<polygon fill="none" stroke="#000000" points="442,-128.5 442,-145.5 491,-145.5 491,-128.5 442,-128.5"/>
</g>
<!-- xs:token&#45;&gt;scr:OrganizationStatusCategoryCodeSimpleType -->
<g id="edge3" class="edge">
<title>xs:token&#45;&gt;scr:OrganizationStatusCategoryCodeSimpleType</title>
<path fill="none" stroke="#000000" d="M466.5,-128.411C466.5,-121.5124 466.5,-111.5696 466.5,-102.84"/>
<polygon fill="#000000" stroke="#000000" points="470.0001,-102.7518 466.5,-92.7519 463.0001,-102.7519 470.0001,-102.7518"/>
<text text-anchor="middle" x="457" y="-107.4" font-family="Helvetica,sans-Serif" font-size="12.00" fill="#000000">restriction</text>
</g>
</g>
</svg>
