<?xml version="1.0" encoding="UTF-8" standalone="no"?>
<!DOCTYPE svg PUBLIC "-//W3C//DTD SVG 1.1//EN"
 "http://www.w3.org/Graphics/SVG/1.1/DTD/svg11.dtd">
<!-- Generated by graphviz version 2.40.1 (20161225.0304)
 -->
<!-- Title: graphic Pages: 1 -->
<svg width="637pt" height="45pt"
 viewBox="0.00 0.00 637.00 45.00" xmlns="http://www.w3.org/2000/svg" xmlns:xlink="http://www.w3.org/1999/xlink">
<g id="graph0" class="graph" transform="scale(1 1) rotate(0) translate(4 41)">
<title>graphic</title>
<polygon fill="#ffffff" stroke="transparent" points="-4,4 -4,-41 633,-41 633,4 -4,4"/>
<!-- j:CrashDriverAuthorizationRestriction -->
<g id="node1" class="node">
<title>j:CrashDriverAuthorizationRestriction</title>
<text text-anchor="start" x="216.5" y="-21.4" font-family="Helvetica,sans-Serif" font-weight="bold" font-size="12.00" fill="#000000">j:CrashDriverAuthorizationRestriction</text>
<polygon fill="none" stroke="#ff0000" stroke-width="5" points="212.5,-14 212.5,-34 436.5,-34 436.5,-14 212.5,-14"/>
</g>
<!-- j:DrivingRestrictionType -->
<g id="node3" class="node">
<title>j:DrivingRestrictionType</title>
<g id="a_node3_0"><a xlink:href="../../j/DrivingRestrictionType/#diagram" xlink:title="A data type for a restriction applicable to a driver permit or license." target="_top">
<text text-anchor="start" x="500.5" y="-20.4" font-family="Helvetica,sans-Serif" font-size="12.00" fill="#000000">j:DrivingRestrictionType</text>
</a>
</g>
<polygon fill="none" stroke="#000000" points="498,-15.5 498,-32.5 629,-32.5 629,-15.5 498,-15.5"/>
</g>
<!-- j:CrashDriverAuthorizationRestriction&#45;&gt;j:DrivingRestrictionType -->
<g id="edge2" class="edge">
<title>j:CrashDriverAuthorizationRestriction&#45;&gt;j:DrivingRestrictionType</title>
<path fill="none" stroke="#000000" d="M439.0999,-24C455.6099,-24 472.2448,-24 487.7413,-24"/>
<polygon fill="#000000" stroke="#000000" points="487.7476,-27.5001 497.7475,-24 487.7475,-20.5001 487.7476,-27.5001"/>
<text text-anchor="middle" x="468.5" y="-27.4" font-family="Helvetica,sans-Serif" font-size="12.00" fill="#000000">type</text>
</g>
<!-- Types -->
<g id="node2" class="node">
<title>Types</title>
<text text-anchor="start" x="2.5" y="-21.4" font-family="Helvetica,sans-Serif" font-weight="bold" font-size="12.00" fill="#000000">Types</text>
<g id="a_node2_1"><a xlink:href="../../j/CrashDriverLicenseType/#diagram" xlink:title="A data type for information about a driver license of a person at the time of a crash." target="_top">
<polygon fill="#ebebeb" stroke="transparent" points="1.5,-1 1.5,-16 142.5,-16 142.5,-1 1.5,-1"/>
<text text-anchor="start" x="2.5" y="-5.4" font-family="Helvetica,sans-Serif" font-size="12.00" fill="#000000">j:CrashDriverLicenseType</text>
</a>
</g>
<polygon fill="#000000" stroke="#000000" points=".5,-16 .5,-16 143.5,-16 143.5,-16 .5,-16"/>
<polygon fill="none" stroke="#000000" points="0,0 0,-32 143,-32 143,0 0,0"/>
</g>
<!-- Types&#45;&gt;j:CrashDriverAuthorizationRestriction -->
<g id="edge1" class="edge">
<title>Types:top&#45;&gt;j:CrashDriverAuthorizationRestriction</title>
<path fill="none" stroke="#000000" d="M142.5,-24C161.0658,-24 180.697,-24 199.9264,-24"/>
<polygon fill="#000000" stroke="#000000" points="199.9378,-27.5001 209.9377,-24 199.9377,-20.5001 199.9378,-27.5001"/>
<text text-anchor="middle" x="176.5" y="-27.4" font-family="Helvetica,sans-Serif" font-size="12.00" fill="#000000">has&#45;a</text>
</g>
</g>
</svg>
