<?xml version="1.0" encoding="UTF-8" standalone="no"?>
<!DOCTYPE svg PUBLIC "-//W3C//DTD SVG 1.1//EN"
 "http://www.w3.org/Graphics/SVG/1.1/DTD/svg11.dtd">
<!-- Generated by graphviz version 2.40.1 (20161225.0304)
 -->
<!-- Title: graphic Pages: 1 -->
<svg width="538pt" height="45pt"
 viewBox="0.00 0.00 538.00 45.00" xmlns="http://www.w3.org/2000/svg" xmlns:xlink="http://www.w3.org/1999/xlink">
<g id="graph0" class="graph" transform="scale(1 1) rotate(0) translate(4 41)">
<title>graphic</title>
<polygon fill="#ffffff" stroke="transparent" points="-4,4 -4,-41 534,-41 534,4 -4,4"/>
<!-- j:ProgramActivityStaffingRatioText -->
<g id="node1" class="node">
<title>j:ProgramActivityStaffingRatioText</title>
<text text-anchor="start" x="194" y="-21.4" font-family="Helvetica,sans-Serif" font-weight="bold" font-size="12.00" fill="#000000">j:ProgramActivityStaffingRatioText</text>
<polygon fill="none" stroke="#ff0000" stroke-width="5" points="190.5,-14 190.5,-34 397.5,-34 397.5,-14 190.5,-14"/>
</g>
<!-- nc:TextType -->
<g id="node3" class="node">
<title>nc:TextType</title>
<g id="a_node3_0"><a xlink:href="../../nc/TextType/#diagram" xlink:title="A data type for a character string." target="_top">
<text text-anchor="start" x="461.5" y="-20.4" font-family="Helvetica,sans-Serif" font-size="12.00" fill="#000000">nc:TextType</text>
</a>
</g>
<polygon fill="none" stroke="#000000" points="459,-15.5 459,-32.5 530,-32.5 530,-15.5 459,-15.5"/>
</g>
<!-- j:ProgramActivityStaffingRatioText&#45;&gt;nc:TextType -->
<g id="edge2" class="edge">
<title>j:ProgramActivityStaffingRatioText&#45;&gt;nc:TextType</title>
<path fill="none" stroke="#000000" d="M400.121,-24C417.2036,-24 434.058,-24 448.6912,-24"/>
<polygon fill="#000000" stroke="#000000" points="448.9253,-27.5001 458.9253,-24 448.9253,-20.5001 448.9253,-27.5001"/>
<text text-anchor="middle" x="429.5" y="-27.4" font-family="Helvetica,sans-Serif" font-size="12.00" fill="#000000">type</text>
</g>
<!-- Types -->
<g id="node2" class="node">
<title>Types</title>
<text text-anchor="start" x="2.5" y="-21.4" font-family="Helvetica,sans-Serif" font-weight="bold" font-size="12.00" fill="#000000">Types</text>
<g id="a_node2_1"><a xlink:href="../../j/ProgramActivityType/#diagram" xlink:title="A data type for a set of details about the actions and events within a specific program." target="_top">
<polygon fill="#ebebeb" stroke="transparent" points="1.5,-1 1.5,-16 120.5,-16 120.5,-1 1.5,-1"/>
<text text-anchor="start" x="2.5" y="-5.4" font-family="Helvetica,sans-Serif" font-size="12.00" fill="#000000">j:ProgramActivityType</text>
</a>
</g>
<polygon fill="#000000" stroke="#000000" points=".5,-16 .5,-16 121.5,-16 121.5,-16 .5,-16"/>
<polygon fill="none" stroke="#000000" points="0,0 0,-32 121,-32 121,0 0,0"/>
</g>
<!-- Types&#45;&gt;j:ProgramActivityStaffingRatioText -->
<g id="edge1" class="edge">
<title>Types:top&#45;&gt;j:ProgramActivityStaffingRatioText</title>
<path fill="none" stroke="#000000" d="M120.5,-24C138.8835,-24 158.3628,-24 177.3704,-24"/>
<polygon fill="#000000" stroke="#000000" points="177.564,-27.5001 187.5639,-24 177.5639,-20.5001 177.564,-27.5001"/>
<text text-anchor="middle" x="154.5" y="-27.4" font-family="Helvetica,sans-Serif" font-size="12.00" fill="#000000">has&#45;a</text>
</g>
</g>
</svg>
