<?xml version="1.0" encoding="UTF-8" standalone="no"?>
<!DOCTYPE svg PUBLIC "-//W3C//DTD SVG 1.1//EN"
 "http://www.w3.org/Graphics/SVG/1.1/DTD/svg11.dtd">
<!-- Generated by graphviz version 2.40.1 (20161225.0304)
 -->
<!-- Title: graphic Pages: 1 -->
<svg width="615pt" height="45pt"
 viewBox="0.00 0.00 615.00 45.00" xmlns="http://www.w3.org/2000/svg" xmlns:xlink="http://www.w3.org/1999/xlink">
<g id="graph0" class="graph" transform="scale(1 1) rotate(0) translate(4 41)">
<title>graphic</title>
<polygon fill="#ffffff" stroke="transparent" points="-4,4 -4,-41 611,-41 611,4 -4,4"/>
<!-- j:SentencingGuidelineMonthsMaximumText -->
<g id="node1" class="node">
<title>j:SentencingGuidelineMonthsMaximumText</title>
<text text-anchor="start" x="221" y="-21.4" font-family="Helvetica,sans-Serif" font-weight="bold" font-size="12.00" fill="#000000">j:SentencingGuidelineMonthsMaximumText</text>
<polygon fill="none" stroke="#ff0000" stroke-width="5" points="217.5,-14 217.5,-34 474.5,-34 474.5,-14 217.5,-14"/>
</g>
<!-- nc:TextType -->
<g id="node3" class="node">
<title>nc:TextType</title>
<g id="a_node3_0"><a xlink:href="../../nc/TextType/#diagram" xlink:title="A data type for a character string." target="_top">
<text text-anchor="start" x="538.5" y="-20.4" font-family="Helvetica,sans-Serif" font-size="12.00" fill="#000000">nc:TextType</text>
</a>
</g>
<polygon fill="none" stroke="#000000" points="536,-15.5 536,-32.5 607,-32.5 607,-15.5 536,-15.5"/>
</g>
<!-- j:SentencingGuidelineMonthsMaximumText&#45;&gt;nc:TextType -->
<g id="edge2" class="edge">
<title>j:SentencingGuidelineMonthsMaximumText&#45;&gt;nc:TextType</title>
<path fill="none" stroke="#000000" d="M477.1743,-24C494.483,-24 511.1963,-24 525.6226,-24"/>
<polygon fill="#000000" stroke="#000000" points="525.6988,-27.5001 535.6988,-24 525.6988,-20.5001 525.6988,-27.5001"/>
<text text-anchor="middle" x="506.5" y="-27.4" font-family="Helvetica,sans-Serif" font-size="12.00" fill="#000000">type</text>
</g>
<!-- Types -->
<g id="node2" class="node">
<title>Types</title>
<text text-anchor="start" x="2" y="-21.4" font-family="Helvetica,sans-Serif" font-weight="bold" font-size="12.00" fill="#000000">Types</text>
<g id="a_node2_1"><a xlink:href="../../j/SentencingGuidelineType/#diagram" xlink:title="A data type for a sentencing guideline used for determining a sanction." target="_top">
<polygon fill="#ebebeb" stroke="transparent" points="1,-1 1,-16 147,-16 147,-1 1,-1"/>
<text text-anchor="start" x="2" y="-5.4" font-family="Helvetica,sans-Serif" font-size="12.00" fill="#000000">j:SentencingGuidelineType</text>
</a>
</g>
<polygon fill="#000000" stroke="#000000" points="0,-16 0,-16 148,-16 148,-16 0,-16"/>
<polygon fill="none" stroke="#000000" points="0,0 0,-32 148,-32 148,0 0,0"/>
</g>
<!-- Types&#45;&gt;j:SentencingGuidelineMonthsMaximumText -->
<g id="edge1" class="edge">
<title>Types:top&#45;&gt;j:SentencingGuidelineMonthsMaximumText</title>
<path fill="none" stroke="#000000" d="M147,-24C165.6819,-24 185.3503,-24 204.755,-24"/>
<polygon fill="#000000" stroke="#000000" points="204.8717,-27.5001 214.8717,-24 204.8717,-20.5001 204.8717,-27.5001"/>
<text text-anchor="middle" x="181.5" y="-27.4" font-family="Helvetica,sans-Serif" font-size="12.00" fill="#000000">has&#45;a</text>
</g>
</g>
</svg>
