<?xml version="1.0" encoding="UTF-8" standalone="no"?>
<!DOCTYPE svg PUBLIC "-//W3C//DTD SVG 1.1//EN"
 "http://www.w3.org/Graphics/SVG/1.1/DTD/svg11.dtd">
<!-- Generated by graphviz version 2.40.1 (20161225.0304)
 -->
<!-- Title: graphic Pages: 1 -->
<svg width="641pt" height="86pt"
 viewBox="0.00 0.00 641.00 86.00" xmlns="http://www.w3.org/2000/svg" xmlns:xlink="http://www.w3.org/1999/xlink">
<g id="graph0" class="graph" transform="scale(1 1) rotate(0) translate(4 82)">
<title>graphic</title>
<polygon fill="#ffffff" stroke="transparent" points="-4,4 -4,-82 637,-82 637,4 -4,4"/>
<!-- biom:FingerprintImageImpressionCaptureCategoryCode -->
<g id="node1" class="node">
<title>biom:FingerprintImageImpressionCaptureCategoryCode</title>
<text text-anchor="start" x="6.5" y="-9.9" font-family="Helvetica,sans-Serif" font-weight="bold" font-size="12.00" fill="#000000">biom:FingerprintImageImpressionCaptureCategoryCode</text>
<polygon fill="none" stroke="#ff0000" stroke-width="5" points="2.5,-2.5 2.5,-22.5 332.5,-22.5 332.5,-2.5 2.5,-2.5"/>
</g>
<!-- biom:ImpressionCaptureCategoryCodeType -->
<g id="node3" class="node">
<title>biom:ImpressionCaptureCategoryCodeType</title>
<g id="a_node3_0"><a xlink:href="../../biom/ImpressionCaptureCategoryCodeType/#diagram" xlink:title="A data type for a kind of impression capture by which an image was obtained" target="_top">
<text text-anchor="start" x="396.5" y="-8.9" font-family="Helvetica,sans-Serif" font-size="12.00" fill="#000000">biom:ImpressionCaptureCategoryCodeType</text>
</a>
</g>
<polygon fill="none" stroke="#000000" points="394,-4 394,-21 633,-21 633,-4 394,-4"/>
</g>
<!-- biom:FingerprintImageImpressionCaptureCategoryCode&#45;&gt;biom:ImpressionCaptureCategoryCodeType -->
<g id="edge2" class="edge">
<title>biom:FingerprintImageImpressionCaptureCategoryCode&#45;&gt;biom:ImpressionCaptureCategoryCodeType</title>
<path fill="none" stroke="#000000" d="M335.179,-12.5C351.4366,-12.5 367.7569,-12.5 383.565,-12.5"/>
<polygon fill="#000000" stroke="#000000" points="383.8733,-16.0001 393.8733,-12.5 383.8733,-9.0001 383.8733,-16.0001"/>
<text text-anchor="middle" x="364.5" y="-15.9" font-family="Helvetica,sans-Serif" font-size="12.00" fill="#000000">type</text>
</g>
<!-- SubstitutionGroup -->
<g id="node2" class="node">
<title>SubstitutionGroup</title>
<g id="a_node2_1"><a xlink:href="../../biom/FrictionRidgeImageImpressionCaptureCategoryAbstract/#diagram" xlink:title="A data concept for a kind of impression capture by which a fingerprint image information was obtained" target="_top">
<text text-anchor="start" x="3.5" y="-65.9" font-family="Helvetica,sans-Serif" font-size="12.00" fill="#000000">biom:FrictionRidgeImageImpressionCaptureCategoryAbstract</text>
</a>
</g>
<polygon fill="none" stroke="#000000" points="1.5,-61 1.5,-78 333.5,-78 333.5,-61 1.5,-61"/>
</g>
<!-- SubstitutionGroup&#45;&gt;biom:FingerprintImageImpressionCaptureCategoryCode -->
<g id="edge1" class="edge">
<title>SubstitutionGroup&#45;&gt;biom:FingerprintImageImpressionCaptureCategoryCode</title>
<path fill="none" stroke="#000000" d="M167.5,-50.9163C167.5,-42.4809 167.5,-32.7214 167.5,-25.1501"/>
<polygon fill="#000000" stroke="#000000" points="164.0001,-50.9472 167.5,-60.9473 171.0001,-50.9473 164.0001,-50.9472"/>
<text text-anchor="middle" x="158" y="-39.9" font-family="Helvetica,sans-Serif" font-size="12.00" fill="#000000">substitution group</text>
</g>
</g>
</svg>
