<?xml version="1.0" encoding="UTF-8" standalone="no"?>
<!DOCTYPE svg PUBLIC "-//W3C//DTD SVG 1.1//EN"
 "http://www.w3.org/Graphics/SVG/1.1/DTD/svg11.dtd">
<!-- Generated by graphviz version 2.40.1 (20161225.0304)
 -->
<!-- Title: graphic Pages: 1 -->
<svg width="852pt" height="45pt"
 viewBox="0.00 0.00 852.00 45.00" xmlns="http://www.w3.org/2000/svg" xmlns:xlink="http://www.w3.org/1999/xlink">
<g id="graph0" class="graph" transform="scale(1 1) rotate(0) translate(4 41)">
<title>graphic</title>
<polygon fill="#ffffff" stroke="transparent" points="-4,4 -4,-41 848,-41 848,4 -4,4"/>
<!-- biom:PalmMissingAreaReasonCode -->
<g id="node1" class="node">
<title>biom:PalmMissingAreaReasonCode</title>
<text text-anchor="start" x="285.5" y="-21.4" font-family="Helvetica,sans-Serif" font-weight="bold" font-size="12.00" fill="#000000">biom:PalmMissingAreaReasonCode</text>
<polygon fill="none" stroke="#ff0000" stroke-width="5" points="281.5,-14 281.5,-34 495.5,-34 495.5,-14 281.5,-14"/>
</g>
<!-- biom:FingerprintImageMissingAreaReasonCodeType -->
<g id="node3" class="node">
<title>biom:FingerprintImageMissingAreaReasonCodeType</title>
<g id="a_node3_0"><a xlink:href="../../biom/FingerprintImageMissingAreaReasonCodeType/#diagram" xlink:title="A data type for a reason a fingerprint is missing" target="_top">
<text text-anchor="start" x="559.5" y="-20.4" font-family="Helvetica,sans-Serif" font-size="12.00" fill="#000000">biom:FingerprintImageMissingAreaReasonCodeType</text>
</a>
</g>
<polygon fill="none" stroke="#000000" points="557,-15.5 557,-32.5 844,-32.5 844,-15.5 557,-15.5"/>
</g>
<!-- biom:PalmMissingAreaReasonCode&#45;&gt;biom:FingerprintImageMissingAreaReasonCodeType -->
<g id="edge2" class="edge">
<title>biom:PalmMissingAreaReasonCode&#45;&gt;biom:FingerprintImageMissingAreaReasonCodeType</title>
<path fill="none" stroke="#000000" d="M498.0608,-24C513.8374,-24 530.3113,-24 546.7518,-24"/>
<polygon fill="#000000" stroke="#000000" points="546.9775,-27.5001 556.9775,-24 546.9775,-20.5001 546.9775,-27.5001"/>
<text text-anchor="middle" x="527.5" y="-27.4" font-family="Helvetica,sans-Serif" font-size="12.00" fill="#000000">type</text>
</g>
<!-- Types -->
<g id="node2" class="node">
<title>Types</title>
<text text-anchor="start" x="2" y="-21.4" font-family="Helvetica,sans-Serif" font-weight="bold" font-size="12.00" fill="#000000">Types</text>
<g id="a_node2_1"><a xlink:href="../../biom/PalmPrintImageMissingAreaType/#diagram" xlink:title="A data type for a missing area of a palm print image" target="_top">
<polygon fill="#ebebeb" stroke="transparent" points="1,-1 1,-16 211,-16 211,-1 1,-1"/>
<text text-anchor="start" x="2" y="-5.4" font-family="Helvetica,sans-Serif" font-size="12.00" fill="#000000">biom:PalmPrintImageMissingAreaType</text>
</a>
</g>
<polygon fill="#000000" stroke="#000000" points="0,-16 0,-16 212,-16 212,-16 0,-16"/>
<polygon fill="none" stroke="#000000" points="0,0 0,-32 212,-32 212,0 0,0"/>
</g>
<!-- Types&#45;&gt;biom:PalmMissingAreaReasonCode -->
<g id="edge1" class="edge">
<title>Types:top&#45;&gt;biom:PalmMissingAreaReasonCode</title>
<path fill="none" stroke="#000000" d="M211,-24C229.6316,-24 249.3633,-24 268.6363,-24"/>
<polygon fill="#000000" stroke="#000000" points="268.6647,-27.5001 278.6647,-24 268.6646,-20.5001 268.6647,-27.5001"/>
<text text-anchor="middle" x="245.5" y="-27.4" font-family="Helvetica,sans-Serif" font-size="12.00" fill="#000000">has&#45;a</text>
</g>
</g>
</svg>
