<?xml version="1.0" encoding="UTF-8" standalone="no"?>
<!DOCTYPE svg PUBLIC "-//W3C//DTD SVG 1.1//EN"
 "http://www.w3.org/Graphics/SVG/1.1/DTD/svg11.dtd">
<!-- Generated by graphviz version 2.40.1 (20161225.0304)
 -->
<!-- Title: graphic Pages: 1 -->
<svg width="473pt" height="45pt"
 viewBox="0.00 0.00 473.00 45.00" xmlns="http://www.w3.org/2000/svg" xmlns:xlink="http://www.w3.org/1999/xlink">
<g id="graph0" class="graph" transform="scale(1 1) rotate(0) translate(4 41)">
<title>graphic</title>
<polygon fill="#ffffff" stroke="transparent" points="-4,4 -4,-41 469,-41 469,4 -4,4"/>
<!-- j:VisitDescriptionText -->
<g id="node1" class="node">
<title>j:VisitDescriptionText</title>
<text text-anchor="start" x="205" y="-21.4" font-family="Helvetica,sans-Serif" font-weight="bold" font-size="12.00" fill="#000000">j:VisitDescriptionText</text>
<polygon fill="none" stroke="#ff0000" stroke-width="5" points="201.5,-14 201.5,-34 332.5,-34 332.5,-14 201.5,-14"/>
</g>
<!-- nc:TextType -->
<g id="node3" class="node">
<title>nc:TextType</title>
<g id="a_node3_0"><a xlink:href="../../nc/TextType/#diagram" xlink:title="A data type for a character string." target="_top">
<text text-anchor="start" x="396.5" y="-20.4" font-family="Helvetica,sans-Serif" font-size="12.00" fill="#000000">nc:TextType</text>
</a>
</g>
<polygon fill="none" stroke="#000000" points="394,-15.5 394,-32.5 465,-32.5 465,-15.5 394,-15.5"/>
</g>
<!-- j:VisitDescriptionText&#45;&gt;nc:TextType -->
<g id="edge2" class="edge">
<title>j:VisitDescriptionText&#45;&gt;nc:TextType</title>
<path fill="none" stroke="#000000" d="M335.4437,-24C351.7939,-24 368.8538,-24 383.8847,-24"/>
<polygon fill="#000000" stroke="#000000" points="383.9329,-27.5001 393.9329,-24 383.9328,-20.5001 383.9329,-27.5001"/>
<text text-anchor="middle" x="364.5" y="-27.4" font-family="Helvetica,sans-Serif" font-size="12.00" fill="#000000">type</text>
</g>
<!-- Types -->
<g id="node2" class="node">
<title>Types</title>
<text text-anchor="start" x="2" y="-21.4" font-family="Helvetica,sans-Serif" font-weight="bold" font-size="12.00" fill="#000000">Types</text>
<g id="a_node2_1"><a xlink:href="../../j/VisitorAssociationType/#diagram" xlink:title="A data type for a relationship between a visitor and a person they visited." target="_top">
<polygon fill="#ebebeb" stroke="transparent" points="1,-1 1,-16 131,-16 131,-1 1,-1"/>
<text text-anchor="start" x="2" y="-5.4" font-family="Helvetica,sans-Serif" font-size="12.00" fill="#000000">j:VisitorAssociationType</text>
</a>
</g>
<polygon fill="#000000" stroke="#000000" points="0,-16 0,-16 132,-16 132,-16 0,-16"/>
<polygon fill="none" stroke="#000000" points="0,0 0,-32 132,-32 132,0 0,0"/>
</g>
<!-- Types&#45;&gt;j:VisitDescriptionText -->
<g id="edge1" class="edge">
<title>Types:top&#45;&gt;j:VisitDescriptionText</title>
<path fill="none" stroke="#000000" d="M131,-24C149.7132,-24 169.8747,-24 188.7942,-24"/>
<polygon fill="#000000" stroke="#000000" points="188.8591,-27.5001 198.8591,-24 188.8591,-20.5001 188.8591,-27.5001"/>
<text text-anchor="middle" x="165.5" y="-27.4" font-family="Helvetica,sans-Serif" font-size="12.00" fill="#000000">has&#45;a</text>
</g>
</g>
</svg>
