<?xml version="1.0" encoding="UTF-8" standalone="no"?>
<!DOCTYPE svg PUBLIC "-//W3C//DTD SVG 1.1//EN"
 "http://www.w3.org/Graphics/SVG/1.1/DTD/svg11.dtd">
<!-- Generated by graphviz version 2.40.1 (20161225.0304)
 -->
<!-- Title: graphic Pages: 1 -->
<svg width="384pt" height="45pt"
 viewBox="0.00 0.00 384.00 45.00" xmlns="http://www.w3.org/2000/svg" xmlns:xlink="http://www.w3.org/1999/xlink">
<g id="graph0" class="graph" transform="scale(1 1) rotate(0) translate(4 41)">
<title>graphic</title>
<polygon fill="#ffffff" stroke="transparent" points="-4,4 -4,-41 380,-41 380,4 -4,4"/>
<!-- it:DutyTaxFeeAugmentationPoint -->
<g id="node1" class="node">
<title>it:DutyTaxFeeAugmentationPoint</title>
<text text-anchor="start" x="179.5" y="-21.4" font-family="Helvetica,sans-Serif" font-weight="bold" font-size="12.00" fill="#000000">it:DutyTaxFeeAugmentationPoint</text>
<polygon fill="none" stroke="#ff0000" stroke-width="5" points="175.5,-14 175.5,-34 373.5,-34 373.5,-14 175.5,-14"/>
</g>
<!-- Types -->
<g id="node2" class="node">
<title>Types</title>
<text text-anchor="start" x="2" y="-21.4" font-family="Helvetica,sans-Serif" font-weight="bold" font-size="12.00" fill="#000000">Types</text>
<g id="a_node2_0"><a xlink:href="../../it/DutyTaxFeeType/#diagram" xlink:title="A data type for a fee associated with a customs duty tax or tariff." target="_top">
<polygon fill="#ebebeb" stroke="transparent" points="1,-1 1,-16 105,-16 105,-1 1,-1"/>
<text text-anchor="start" x="2" y="-5.4" font-family="Helvetica,sans-Serif" font-size="12.00" fill="#000000">it:DutyTaxFeeType</text>
</a>
</g>
<polygon fill="#000000" stroke="#000000" points="0,-16 0,-16 106,-16 106,-16 0,-16"/>
<polygon fill="none" stroke="#000000" points="0,0 0,-32 106,-32 106,0 0,0"/>
</g>
<!-- Types&#45;&gt;it:DutyTaxFeeAugmentationPoint -->
<g id="edge1" class="edge">
<title>Types:top&#45;&gt;it:DutyTaxFeeAugmentationPoint</title>
<path fill="none" stroke="#000000" d="M105,-24C123.669,-24 143.4945,-24 162.7569,-24"/>
<polygon fill="#000000" stroke="#000000" points="162.7695,-27.5001 172.7695,-24 162.7695,-20.5001 162.7695,-27.5001"/>
<text text-anchor="middle" x="139.5" y="-27.4" font-family="Helvetica,sans-Serif" font-size="12.00" fill="#000000">has&#45;a</text>
</g>
</g>
</svg>
