<?xml version="1.0" encoding="UTF-8" standalone="no"?>
<!DOCTYPE svg PUBLIC "-//W3C//DTD SVG 1.1//EN"
 "http://www.w3.org/Graphics/SVG/1.1/DTD/svg11.dtd">
<!-- Generated by graphviz version 2.40.1 (20161225.0304)
 -->
<!-- Title: graphic Pages: 1 -->
<svg width="571pt" height="45pt"
 viewBox="0.00 0.00 571.00 45.00" xmlns="http://www.w3.org/2000/svg" xmlns:xlink="http://www.w3.org/1999/xlink">
<g id="graph0" class="graph" transform="scale(1 1) rotate(0) translate(4 41)">
<title>graphic</title>
<polygon fill="#ffffff" stroke="transparent" points="-4,4 -4,-41 567,-41 567,4 -4,4"/>
<!-- edxl&#45;cap:AlertAdapter -->
<g id="node1" class="node">
<title>edxl&#45;cap:AlertAdapter</title>
<text text-anchor="start" x="225" y="-21.4" font-family="Helvetica,sans-Serif" font-weight="bold" font-size="12.00" fill="#000000">edxl&#45;cap:AlertAdapter</text>
<polygon fill="none" stroke="#ff0000" stroke-width="5" points="221.5,-14 221.5,-34 354.5,-34 354.5,-14 221.5,-14"/>
</g>
<!-- edxl&#45;cap:AlertAdapterType -->
<g id="node3" class="node">
<title>edxl&#45;cap:AlertAdapterType</title>
<g id="a_node3_0"><a xlink:href="../../edxl-cap/AlertAdapterType/#diagram" xlink:title="A data type for a simple but general format for exchanging effective warning messages based on best practices identified in academic research and real&#45;world experience." target="_top">
<text text-anchor="start" x="418.5" y="-20.4" font-family="Helvetica,sans-Serif" font-size="12.00" fill="#000000">edxl&#45;cap:AlertAdapterType</text>
</a>
</g>
<polygon fill="none" stroke="#000000" points="416,-15.5 416,-32.5 563,-32.5 563,-15.5 416,-15.5"/>
</g>
<!-- edxl&#45;cap:AlertAdapter&#45;&gt;edxl&#45;cap:AlertAdapterType -->
<g id="edge2" class="edge">
<title>edxl&#45;cap:AlertAdapter&#45;&gt;edxl&#45;cap:AlertAdapterType</title>
<path fill="none" stroke="#000000" d="M357.063,-24C372.5765,-24 389.206,-24 405.2605,-24"/>
<polygon fill="#000000" stroke="#000000" points="405.7101,-27.5001 415.7101,-24 405.71,-20.5001 405.7101,-27.5001"/>
<text text-anchor="middle" x="386.5" y="-27.4" font-family="Helvetica,sans-Serif" font-size="12.00" fill="#000000">type</text>
</g>
<!-- Types -->
<g id="node2" class="node">
<title>Types</title>
<text text-anchor="start" x="2" y="-21.4" font-family="Helvetica,sans-Serif" font-weight="bold" font-size="12.00" fill="#000000">Types</text>
<g id="a_node2_1"><a xlink:href="../../em/MissionInformationType/#diagram" xlink:title="A data type for Information about the mission related to the resource request" target="_top">
<polygon fill="#ebebeb" stroke="transparent" points="1,-1 1,-16 151,-16 151,-1 1,-1"/>
<text text-anchor="start" x="2" y="-5.4" font-family="Helvetica,sans-Serif" font-size="12.00" fill="#000000">em:MissionInformationType</text>
</a>
</g>
<polygon fill="#000000" stroke="#000000" points="0,-16 0,-16 152,-16 152,-16 0,-16"/>
<polygon fill="none" stroke="#000000" points="0,0 0,-32 152,-32 152,0 0,0"/>
</g>
<!-- Types&#45;&gt;edxl&#45;cap:AlertAdapter -->
<g id="edge1" class="edge">
<title>Types:top&#45;&gt;edxl&#45;cap:AlertAdapter</title>
<path fill="none" stroke="#000000" d="M151,-24C169.6492,-24 189.7263,-24 208.6073,-24"/>
<polygon fill="#000000" stroke="#000000" points="208.6562,-27.5001 218.6562,-24 208.6561,-20.5001 208.6562,-27.5001"/>
<text text-anchor="middle" x="185.5" y="-27.4" font-family="Helvetica,sans-Serif" font-size="12.00" fill="#000000">has&#45;a</text>
</g>
</g>
</svg>
