<?xml version="1.0" encoding="UTF-8" standalone="no"?>
<!DOCTYPE svg PUBLIC "-//W3C//DTD SVG 1.1//EN"
 "http://www.w3.org/Graphics/SVG/1.1/DTD/svg11.dtd">
<!-- Generated by graphviz version 2.40.1 (20161225.0304)
 -->
<!-- Title: graphic Pages: 1 -->
<svg width="541pt" height="45pt"
 viewBox="0.00 0.00 541.00 45.00" xmlns="http://www.w3.org/2000/svg" xmlns:xlink="http://www.w3.org/1999/xlink">
<g id="graph0" class="graph" transform="scale(1 1) rotate(0) translate(4 41)">
<title>graphic</title>
<polygon fill="#ffffff" stroke="transparent" points="-4,4 -4,-41 537,-41 537,4 -4,4"/>
<!-- nc:InstantMessengerScreenID -->
<g id="node1" class="node">
<title>nc:InstantMessengerScreenID</title>
<text text-anchor="start" x="216.5" y="-21.4" font-family="Helvetica,sans-Serif" font-weight="bold" font-size="12.00" fill="#000000">nc:InstantMessengerScreenID</text>
<polygon fill="none" stroke="#ff0000" stroke-width="5" points="212.5,-14 212.5,-34 392.5,-34 392.5,-14 212.5,-14"/>
</g>
<!-- niem&#45;xs:string -->
<g id="node3" class="node">
<title>niem&#45;xs:string</title>
<g id="a_node3_0"><a xlink:href="../../niem-xs/string/#diagram" xlink:title="A data type for character strings in XML." target="_top">
<text text-anchor="start" x="456.5" y="-20.4" font-family="Helvetica,sans-Serif" font-size="12.00" fill="#000000">niem&#45;xs:string</text>
</a>
</g>
<polygon fill="none" stroke="#000000" points="454,-15.5 454,-32.5 533,-32.5 533,-15.5 454,-15.5"/>
</g>
<!-- nc:InstantMessengerScreenID&#45;&gt;niem&#45;xs:string -->
<g id="edge2" class="edge">
<title>nc:InstantMessengerScreenID&#45;&gt;niem&#45;xs:string</title>
<path fill="none" stroke="#000000" d="M395.2025,-24C412.0377,-24 428.9889,-24 443.961,-24"/>
<polygon fill="#000000" stroke="#000000" points="443.9845,-27.5001 453.9844,-24 443.9844,-20.5001 443.9845,-27.5001"/>
<text text-anchor="middle" x="424.5" y="-27.4" font-family="Helvetica,sans-Serif" font-size="12.00" fill="#000000">type</text>
</g>
<!-- Types -->
<g id="node2" class="node">
<title>Types</title>
<text text-anchor="start" x="2.5" y="-21.4" font-family="Helvetica,sans-Serif" font-weight="bold" font-size="12.00" fill="#000000">Types</text>
<g id="a_node2_1"><a xlink:href="../../nc/InstantMessengerType/#diagram" xlink:title="A data type for a user account for an instant messaging program by which a person or organization may be contacted." target="_top">
<polygon fill="#ebebeb" stroke="transparent" points="1.5,-1 1.5,-16 142.5,-16 142.5,-1 1.5,-1"/>
<text text-anchor="start" x="2.5" y="-5.4" font-family="Helvetica,sans-Serif" font-size="12.00" fill="#000000">nc:InstantMessengerType</text>
</a>
</g>
<polygon fill="#000000" stroke="#000000" points=".5,-16 .5,-16 143.5,-16 143.5,-16 .5,-16"/>
<polygon fill="none" stroke="#000000" points="0,0 0,-32 143,-32 143,0 0,0"/>
</g>
<!-- Types&#45;&gt;nc:InstantMessengerScreenID -->
<g id="edge1" class="edge">
<title>Types:top&#45;&gt;nc:InstantMessengerScreenID</title>
<path fill="none" stroke="#000000" d="M142.5,-24C160.9836,-24 180.6683,-24 199.681,-24"/>
<polygon fill="#000000" stroke="#000000" points="199.856,-27.5001 209.856,-24 199.856,-20.5001 199.856,-27.5001"/>
<text text-anchor="middle" x="176.5" y="-27.4" font-family="Helvetica,sans-Serif" font-size="12.00" fill="#000000">has&#45;a</text>
</g>
</g>
</svg>
