<?xml version="1.0" encoding="UTF-8" standalone="no"?>
<!DOCTYPE svg PUBLIC "-//W3C//DTD SVG 1.1//EN"
 "http://www.w3.org/Graphics/SVG/1.1/DTD/svg11.dtd">
<!-- Generated by graphviz version 2.40.1 (20161225.0304)
 -->
<!-- Title: graphic Pages: 1 -->
<svg width="749pt" height="45pt"
 viewBox="0.00 0.00 749.00 45.00" xmlns="http://www.w3.org/2000/svg" xmlns:xlink="http://www.w3.org/1999/xlink">
<g id="graph0" class="graph" transform="scale(1 1) rotate(0) translate(4 41)">
<title>graphic</title>
<polygon fill="#ffffff" stroke="transparent" points="-4,4 -4,-41 745,-41 745,4 -4,4"/>
<!-- j:VehicleInspectionEmissionCertificationIdentification -->
<g id="node1" class="node">
<title>j:VehicleInspectionEmissionCertificationIdentification</title>
<text text-anchor="start" x="253" y="-21.4" font-family="Helvetica,sans-Serif" font-weight="bold" font-size="12.00" fill="#000000">j:VehicleInspectionEmissionCertificationIdentification</text>
<polygon fill="none" stroke="#ff0000" stroke-width="5" points="249.5,-14 249.5,-34 564.5,-34 564.5,-14 249.5,-14"/>
</g>
<!-- nc:IdentificationType -->
<g id="node3" class="node">
<title>nc:IdentificationType</title>
<g id="a_node3_0"><a xlink:href="../../nc/IdentificationType/#diagram" xlink:title="A data type for a representation of an identity." target="_top">
<text text-anchor="start" x="628.5" y="-20.4" font-family="Helvetica,sans-Serif" font-size="12.00" fill="#000000">nc:IdentificationType</text>
</a>
</g>
<polygon fill="none" stroke="#000000" points="626,-15.5 626,-32.5 741,-32.5 741,-15.5 626,-15.5"/>
</g>
<!-- j:VehicleInspectionEmissionCertificationIdentification&#45;&gt;nc:IdentificationType -->
<g id="edge2" class="edge">
<title>j:VehicleInspectionEmissionCertificationIdentification&#45;&gt;nc:IdentificationType</title>
<path fill="none" stroke="#000000" d="M567.0405,-24C584.0215,-24 600.5526,-24 615.5741,-24"/>
<polygon fill="#000000" stroke="#000000" points="615.7194,-27.5001 625.7194,-24 615.7193,-20.5001 615.7194,-27.5001"/>
<text text-anchor="middle" x="596.5" y="-27.4" font-family="Helvetica,sans-Serif" font-size="12.00" fill="#000000">type</text>
</g>
<!-- Types -->
<g id="node2" class="node">
<title>Types</title>
<text text-anchor="start" x="2" y="-21.4" font-family="Helvetica,sans-Serif" font-weight="bold" font-size="12.00" fill="#000000">Types</text>
<g id="a_node2_1"><a xlink:href="../../j/VehicleEmissionInspectionType/#diagram" xlink:title="A data type for an official examination to test the emissions level of a vehicle." target="_top">
<polygon fill="#ebebeb" stroke="transparent" points="1,-1 1,-16 179,-16 179,-1 1,-1"/>
<text text-anchor="start" x="2" y="-5.4" font-family="Helvetica,sans-Serif" font-size="12.00" fill="#000000">j:VehicleEmissionInspectionType</text>
</a>
</g>
<polygon fill="#000000" stroke="#000000" points="0,-16 0,-16 180,-16 180,-16 0,-16"/>
<polygon fill="none" stroke="#000000" points="0,0 0,-32 180,-32 180,0 0,0"/>
</g>
<!-- Types&#45;&gt;j:VehicleInspectionEmissionCertificationIdentification -->
<g id="edge1" class="edge">
<title>Types:top&#45;&gt;j:VehicleInspectionEmissionCertificationIdentification</title>
<path fill="none" stroke="#000000" d="M179,-24C197.7078,-24 217.279,-24 236.7572,-24"/>
<polygon fill="#000000" stroke="#000000" points="236.9295,-27.5001 246.9295,-24 236.9295,-20.5001 236.9295,-27.5001"/>
<text text-anchor="middle" x="213.5" y="-27.4" font-family="Helvetica,sans-Serif" font-size="12.00" fill="#000000">has&#45;a</text>
</g>
</g>
</svg>
