<?xml version="1.0" encoding="UTF-8" standalone="no"?>
<!DOCTYPE svg PUBLIC "-//W3C//DTD SVG 1.1//EN"
 "http://www.w3.org/Graphics/SVG/1.1/DTD/svg11.dtd">
<!-- Generated by graphviz version 2.40.1 (20161225.0304)
 -->
<!-- Title: graphic Pages: 1 -->
<svg width="427pt" height="45pt"
 viewBox="0.00 0.00 427.00 45.00" xmlns="http://www.w3.org/2000/svg" xmlns:xlink="http://www.w3.org/1999/xlink">
<g id="graph0" class="graph" transform="scale(1 1) rotate(0) translate(4 41)">
<title>graphic</title>
<polygon fill="#ffffff" stroke="transparent" points="-4,4 -4,-41 423,-41 423,4 -4,4"/>
<!-- j:WatchFaceDisplayText -->
<g id="node1" class="node">
<title>j:WatchFaceDisplayText</title>
<text text-anchor="start" x="144.5" y="-21.4" font-family="Helvetica,sans-Serif" font-weight="bold" font-size="12.00" fill="#000000">j:WatchFaceDisplayText</text>
<polygon fill="none" stroke="#ff0000" stroke-width="5" points="140.5,-14 140.5,-34 286.5,-34 286.5,-14 140.5,-14"/>
</g>
<!-- nc:TextType -->
<g id="node3" class="node">
<title>nc:TextType</title>
<g id="a_node3_0"><a xlink:href="../../nc/TextType/#diagram" xlink:title="A data type for a character string." target="_top">
<text text-anchor="start" x="350.5" y="-20.4" font-family="Helvetica,sans-Serif" font-size="12.00" fill="#000000">nc:TextType</text>
</a>
</g>
<polygon fill="none" stroke="#000000" points="348,-15.5 348,-32.5 419,-32.5 419,-15.5 348,-15.5"/>
</g>
<!-- j:WatchFaceDisplayText&#45;&gt;nc:TextType -->
<g id="edge2" class="edge">
<title>j:WatchFaceDisplayText&#45;&gt;nc:TextType</title>
<path fill="none" stroke="#000000" d="M289.0545,-24C305.6261,-24 322.6825,-24 337.6623,-24"/>
<polygon fill="#000000" stroke="#000000" points="337.6697,-27.5001 347.6697,-24 337.6697,-20.5001 337.6697,-27.5001"/>
<text text-anchor="middle" x="318.5" y="-27.4" font-family="Helvetica,sans-Serif" font-size="12.00" fill="#000000">type</text>
</g>
<!-- Types -->
<g id="node2" class="node">
<title>Types</title>
<text text-anchor="start" x="2.5" y="-21.4" font-family="Helvetica,sans-Serif" font-weight="bold" font-size="12.00" fill="#000000">Types</text>
<g id="a_node2_1"><a xlink:href="../../j/WatchType/#diagram" xlink:title="A data type for a small, portable time piece." target="_top">
<polygon fill="#ebebeb" stroke="transparent" points="1.5,-1 1.5,-16 70.5,-16 70.5,-1 1.5,-1"/>
<text text-anchor="start" x="2.5" y="-5.4" font-family="Helvetica,sans-Serif" font-size="12.00" fill="#000000">j:WatchType</text>
</a>
</g>
<polygon fill="#000000" stroke="#000000" points=".5,-16 .5,-16 71.5,-16 71.5,-16 .5,-16"/>
<polygon fill="none" stroke="#000000" points="0,0 0,-32 71,-32 71,0 0,0"/>
</g>
<!-- Types&#45;&gt;j:WatchFaceDisplayText -->
<g id="edge1" class="edge">
<title>Types:top&#45;&gt;j:WatchFaceDisplayText</title>
<path fill="none" stroke="#000000" d="M70.5,-24C89.0189,-24 108.8869,-24 127.7454,-24"/>
<polygon fill="#000000" stroke="#000000" points="127.8019,-27.5001 137.8018,-24 127.8018,-20.5001 127.8019,-27.5001"/>
<text text-anchor="middle" x="104.5" y="-27.4" font-family="Helvetica,sans-Serif" font-size="12.00" fill="#000000">has&#45;a</text>
</g>
</g>
</svg>
