<?xml version="1.0" encoding="UTF-8" standalone="no"?>
<!DOCTYPE svg PUBLIC "-//W3C//DTD SVG 1.1//EN"
 "http://www.w3.org/Graphics/SVG/1.1/DTD/svg11.dtd">
<!-- Generated by graphviz version 2.40.1 (20161225.0304)
 -->
<!-- Title: graphic Pages: 1 -->
<svg width="533pt" height="101pt"
 viewBox="0.00 0.00 533.00 100.50" xmlns="http://www.w3.org/2000/svg" xmlns:xlink="http://www.w3.org/1999/xlink">
<g id="graph0" class="graph" transform="scale(1 1) rotate(0) translate(4 96.5)">
<title>graphic</title>
<polygon fill="#ffffff" stroke="transparent" points="-4,4 -4,-96.5 529,-96.5 529,4 -4,4"/>
<!-- mo:TelephoneNumberCategoryCodeType -->
<g id="node1" class="node">
<title>mo:TelephoneNumberCategoryCodeType</title>
<text text-anchor="start" x="273.5" y="-25.4" font-family="Helvetica,sans-Serif" font-weight="bold" font-size="12.00" fill="#000000">mo:TelephoneNumberCategoryCodeType</text>
<g id="a_node1_0"><a xlink:href="../../structures/SimpleObjectAttributeGroup/#diagram" xlink:title="A group of attributes that are applicable to objects, to be used when defining a complex type that is an extension of a simple type." target="_top">
<polygon fill="#ebebeb" stroke="transparent" points="272.5,-5 272.5,-20 512.5,-20 512.5,-5 272.5,-5"/>
<text text-anchor="start" x="273.5" y="-9.4" font-family="Helvetica,sans-Serif" font-size="12.00" fill="#000000">structures:SimpleObjectAttributeGroup</text>
</a>
</g>
<polygon fill="#ff0000" stroke="#ff0000" points="267.5,-20 267.5,-20 517.5,-20 517.5,-20 267.5,-20"/>
<polygon fill="none" stroke="#ff0000" stroke-width="5" points="270,-2.5 270,-37.5 515,-37.5 515,-2.5 270,-2.5"/>
</g>
<!-- Properties -->
<g id="node2" class="node">
<title>Properties</title>
<text text-anchor="start" x="2.5" y="-25.4" font-family="Helvetica,sans-Serif" font-weight="bold" font-size="12.00" fill="#000000">Properties</text>
<g id="a_node2_1"><a xlink:href="../../mo/TelephoneNumberCategoryCode/#diagram" xlink:title="A kind of telephone number." target="_top">
<polygon fill="#ebebeb" stroke="transparent" points="1.5,-5 1.5,-20 200.5,-20 200.5,-5 1.5,-5"/>
<text text-anchor="start" x="2.5" y="-9.4" font-family="Helvetica,sans-Serif" font-size="12.00" fill="#000000">mo:TelephoneNumberCategoryCode</text>
</a>
</g>
<polygon fill="#000000" stroke="#000000" points=".5,-20 .5,-20 201.5,-20 201.5,-20 .5,-20"/>
<polygon fill="none" stroke="#000000" points="0,-4 0,-36 201,-36 201,-4 0,-4"/>
</g>
<!-- Properties&#45;&gt;mo:TelephoneNumberCategoryCodeType -->
<g id="edge1" class="edge">
<title>Properties:top&#45;&gt;mo:TelephoneNumberCategoryCodeType:top</title>
<path fill="none" stroke="#000000" d="M200.5,-28C228.875,-28 238.3795,-28 262.4792,-28"/>
<polygon fill="#000000" stroke="#000000" points="262.5,-31.5001 272.5,-28 262.5,-24.5001 262.5,-31.5001"/>
<text text-anchor="middle" x="230.5" y="-31.4" font-family="Helvetica,sans-Serif" font-size="12.00" fill="#000000">type</text>
</g>
<!-- mo:TelephoneNumberCategoryCodeSimpleType -->
<g id="node3" class="node">
<title>mo:TelephoneNumberCategoryCodeSimpleType</title>
<g id="a_node3_2"><a xlink:href="../../mo/TelephoneNumberCategoryCodeSimpleType/#diagram" xlink:title="A data type for a kind of telephone number." target="_top">
<text text-anchor="start" x="262.5" y="-80.4" font-family="Helvetica,sans-Serif" font-size="12.00" fill="#000000">mo:TelephoneNumberCategoryCodeSimpleType</text>
</a>
</g>
<polygon fill="none" stroke="#000000" points="260,-75.5 260,-92.5 525,-92.5 525,-75.5 260,-75.5"/>
</g>
<!-- mo:TelephoneNumberCategoryCodeSimpleType&#45;&gt;mo:TelephoneNumberCategoryCodeType -->
<g id="edge2" class="edge">
<title>mo:TelephoneNumberCategoryCodeSimpleType&#45;&gt;mo:TelephoneNumberCategoryCodeType</title>
<path fill="none" stroke="#000000" d="M392.5,-75.4351C392.5,-68.931 392.5,-59.5678 392.5,-50.3827"/>
<polygon fill="#000000" stroke="#000000" points="396.0001,-50.25 392.5,-40.25 389.0001,-50.25 396.0001,-50.25"/>
<text text-anchor="middle" x="383" y="-54.65" font-family="Helvetica,sans-Serif" font-size="12.00" fill="#000000">extension</text>
</g>
</g>
</svg>
