<?xml version="1.0" encoding="UTF-8" standalone="no"?>
<!DOCTYPE svg PUBLIC "-//W3C//DTD SVG 1.1//EN"
 "http://www.w3.org/Graphics/SVG/1.1/DTD/svg11.dtd">
<!-- Generated by graphviz version 2.40.1 (20161225.0304)
 -->
<!-- Title: graphic Pages: 1 -->
<svg width="479pt" height="45pt"
 viewBox="0.00 0.00 479.00 45.00" xmlns="http://www.w3.org/2000/svg" xmlns:xlink="http://www.w3.org/1999/xlink">
<g id="graph0" class="graph" transform="scale(1 1) rotate(0) translate(4 41)">
<title>graphic</title>
<polygon fill="#ffffff" stroke="transparent" points="-4,4 -4,-41 475,-41 475,4 -4,4"/>
<!-- nc:BinaryAvailableIndicator -->
<g id="node1" class="node">
<title>nc:BinaryAvailableIndicator</title>
<text text-anchor="start" x="154.5" y="-21.4" font-family="Helvetica,sans-Serif" font-weight="bold" font-size="12.00" fill="#000000">nc:BinaryAvailableIndicator</text>
<polygon fill="none" stroke="#ff0000" stroke-width="5" points="150.5,-14 150.5,-34 316.5,-34 316.5,-14 150.5,-14"/>
</g>
<!-- niem&#45;xs:boolean -->
<g id="node3" class="node">
<title>niem&#45;xs:boolean</title>
<g id="a_node3_0"><a xlink:href="../../niem-xs/boolean/#diagram" xlink:title="A data type for binary&#45;valued logic (true/false)." target="_top">
<text text-anchor="start" x="380.5" y="-20.4" font-family="Helvetica,sans-Serif" font-size="12.00" fill="#000000">niem&#45;xs:boolean</text>
</a>
</g>
<polygon fill="none" stroke="#000000" points="378,-15.5 378,-32.5 471,-32.5 471,-15.5 378,-15.5"/>
</g>
<!-- nc:BinaryAvailableIndicator&#45;&gt;niem&#45;xs:boolean -->
<g id="edge2" class="edge">
<title>nc:BinaryAvailableIndicator&#45;&gt;niem&#45;xs:boolean</title>
<path fill="none" stroke="#000000" d="M319.2228,-24C335.5799,-24 352.3236,-24 367.5074,-24"/>
<polygon fill="#000000" stroke="#000000" points="367.7461,-27.5001 377.7461,-24 367.746,-20.5001 367.7461,-27.5001"/>
<text text-anchor="middle" x="348.5" y="-27.4" font-family="Helvetica,sans-Serif" font-size="12.00" fill="#000000">type</text>
</g>
<!-- Types -->
<g id="node2" class="node">
<title>Types</title>
<text text-anchor="start" x="2.5" y="-21.4" font-family="Helvetica,sans-Serif" font-weight="bold" font-size="12.00" fill="#000000">Types</text>
<g id="a_node2_1"><a xlink:href="../../nc/BinaryType/#diagram" xlink:title="A data type for a digital representation of an object encoded in a binary format." target="_top">
<polygon fill="#ebebeb" stroke="transparent" points="1.5,-1 1.5,-16 80.5,-16 80.5,-1 1.5,-1"/>
<text text-anchor="start" x="2.5" y="-5.4" font-family="Helvetica,sans-Serif" font-size="12.00" fill="#000000">nc:BinaryType</text>
</a>
</g>
<polygon fill="#000000" stroke="#000000" points=".5,-16 .5,-16 81.5,-16 81.5,-16 .5,-16"/>
<polygon fill="none" stroke="#000000" points="0,0 0,-32 81,-32 81,0 0,0"/>
</g>
<!-- Types&#45;&gt;nc:BinaryAvailableIndicator -->
<g id="edge1" class="edge">
<title>Types:top&#45;&gt;nc:BinaryAvailableIndicator</title>
<path fill="none" stroke="#000000" d="M80.5,-24C98.963,-24 118.6793,-24 137.6071,-24"/>
<polygon fill="#000000" stroke="#000000" points="137.7243,-27.5001 147.7242,-24 137.7242,-20.5001 137.7243,-27.5001"/>
<text text-anchor="middle" x="114.5" y="-27.4" font-family="Helvetica,sans-Serif" font-size="12.00" fill="#000000">has&#45;a</text>
</g>
</g>
</svg>
