<?xml version="1.0" encoding="UTF-8" standalone="no"?>
<!DOCTYPE svg PUBLIC "-//W3C//DTD SVG 1.1//EN"
 "http://www.w3.org/Graphics/SVG/1.1/DTD/svg11.dtd">
<!-- Generated by graphviz version 2.40.1 (20161225.0304)
 -->
<!-- Title: graphic Pages: 1 -->
<svg width="300pt" height="154pt"
 viewBox="0.00 0.00 300.00 153.50" xmlns="http://www.w3.org/2000/svg" xmlns:xlink="http://www.w3.org/1999/xlink">
<g id="graph0" class="graph" transform="scale(1 1) rotate(0) translate(4 149.5)">
<title>graphic</title>
<polygon fill="#ffffff" stroke="transparent" points="-4,4 -4,-149.5 296,-149.5 296,4 -4,4"/>
<!-- aamva_d20:LienReleaseReasonCodeSimpleType -->
<g id="node1" class="node">
<title>aamva_d20:LienReleaseReasonCodeSimpleType</title>
<text text-anchor="start" x="6" y="-77.4" font-family="Helvetica,sans-Serif" font-weight="bold" font-size="12.00" fill="#000000">aamva_d20:LienReleaseReasonCodeSimpleType</text>
<polygon fill="none" stroke="#ff0000" stroke-width="5" points="2.5,-70 2.5,-90 289.5,-90 289.5,-70 2.5,-70"/>
</g>
<!-- DerivedTypes -->
<g id="node2" class="node">
<title>DerivedTypes</title>
<text text-anchor="start" x="31" y="-21.4" font-family="Helvetica,sans-Serif" font-weight="bold" font-size="12.00" fill="#000000">Derived types</text>
<g id="a_node2_0"><a xlink:href="../../aamva_d20/LienReleaseReasonCodeType/#diagram" xlink:title="A data type for reasons a legal encumbrance may be removed from a property." target="_top">
<polygon fill="#ebebeb" stroke="transparent" points="30,-1 30,-16 262,-16 262,-1 30,-1"/>
<text text-anchor="start" x="31" y="-5.4" font-family="Helvetica,sans-Serif" font-size="12.00" fill="#000000">aamva_d20:LienReleaseReasonCodeType</text>
</a>
</g>
<polygon fill="#000000" stroke="#000000" points="29,-16 29,-16 263,-16 263,-16 29,-16"/>
<polygon fill="none" stroke="#000000" points="29,0 29,-32 263,-32 263,0 29,0"/>
</g>
<!-- aamva_d20:LienReleaseReasonCodeSimpleType&#45;&gt;DerivedTypes -->
<g id="edge1" class="edge">
<title>aamva_d20:LienReleaseReasonCodeSimpleType&#45;&gt;DerivedTypes</title>
<path fill="none" stroke="#000000" d="M146,-67.4892C146,-60.3101 146,-51.0172 146,-42.306"/>
<polygon fill="#000000" stroke="#000000" points="149.5001,-42.1499 146,-32.1499 142.5001,-42.1499 149.5001,-42.1499"/>
<text text-anchor="middle" x="136.5" y="-46.65" font-family="Helvetica,sans-Serif" font-size="12.00" fill="#000000">derived</text>
</g>
<!-- xs:token -->
<g id="node3" class="node">
<title>xs:token</title>
<g id="a_node3_1"><a xlink:href="../../xs/token/#diagram" xlink:title="&lt;TABLE&gt;" target="_top">
<text text-anchor="start" x="124" y="-133.4" font-family="Helvetica,sans-Serif" font-size="12.00" fill="#000000">xs:token</text>
</a>
</g>
<polygon fill="none" stroke="#000000" points="121.5,-128.5 121.5,-145.5 170.5,-145.5 170.5,-128.5 121.5,-128.5"/>
</g>
<!-- xs:token&#45;&gt;aamva_d20:LienReleaseReasonCodeSimpleType -->
<g id="edge2" class="edge">
<title>xs:token&#45;&gt;aamva_d20:LienReleaseReasonCodeSimpleType</title>
<path fill="none" stroke="#000000" d="M146,-128.4473C146,-121.6242 146,-111.7417 146,-102.6794"/>
<polygon fill="#000000" stroke="#000000" points="149.5001,-102.6501 146,-92.6501 142.5001,-102.6502 149.5001,-102.6501"/>
<text text-anchor="middle" x="136.5" y="-107.4" font-family="Helvetica,sans-Serif" font-size="12.00" fill="#000000">restriction</text>
</g>
</g>
</svg>
