<?xml version="1.0" encoding="UTF-8" standalone="no"?>
<!DOCTYPE svg PUBLIC "-//W3C//DTD SVG 1.1//EN"
 "http://www.w3.org/Graphics/SVG/1.1/DTD/svg11.dtd">
<!-- Generated by graphviz version 2.40.1 (20161225.0304)
 -->
<!-- Title: graphic Pages: 1 -->
<svg width="550pt" height="45pt"
 viewBox="0.00 0.00 550.00 45.00" xmlns="http://www.w3.org/2000/svg" xmlns:xlink="http://www.w3.org/1999/xlink">
<g id="graph0" class="graph" transform="scale(1 1) rotate(0) translate(4 41)">
<title>graphic</title>
<polygon fill="#ffffff" stroke="transparent" points="-4,4 -4,-41 546,-41 546,4 -4,4"/>
<!-- nc:PersonContactInformation -->
<g id="node1" class="node">
<title>nc:PersonContactInformation</title>
<text text-anchor="start" x="158" y="-21.4" font-family="Helvetica,sans-Serif" font-weight="bold" font-size="12.00" fill="#000000">nc:PersonContactInformation</text>
<polygon fill="none" stroke="#ff0000" stroke-width="5" points="154.5,-14 154.5,-34 331.5,-34 331.5,-14 154.5,-14"/>
</g>
<!-- nc:ContactInformationType -->
<g id="node3" class="node">
<title>nc:ContactInformationType</title>
<g id="a_node3_0"><a xlink:href="../../nc/ContactInformationType/#diagram" xlink:title="A data type for how to contact a person or an organization." target="_top">
<text text-anchor="start" x="395.5" y="-20.4" font-family="Helvetica,sans-Serif" font-size="12.00" fill="#000000">nc:ContactInformationType</text>
</a>
</g>
<polygon fill="none" stroke="#000000" points="393,-15.5 393,-32.5 542,-32.5 542,-15.5 393,-15.5"/>
</g>
<!-- nc:PersonContactInformation&#45;&gt;nc:ContactInformationType -->
<g id="edge2" class="edge">
<title>nc:PersonContactInformation&#45;&gt;nc:ContactInformationType</title>
<path fill="none" stroke="#000000" d="M334.3127,-24C350.2458,-24 366.7623,-24 382.5162,-24"/>
<polygon fill="#000000" stroke="#000000" points="382.7448,-27.5001 392.7448,-24 382.7447,-20.5001 382.7448,-27.5001"/>
<text text-anchor="middle" x="363.5" y="-27.4" font-family="Helvetica,sans-Serif" font-size="12.00" fill="#000000">type</text>
</g>
<!-- Types -->
<g id="node2" class="node">
<title>Types</title>
<text text-anchor="start" x="2.5" y="-21.4" font-family="Helvetica,sans-Serif" font-weight="bold" font-size="12.00" fill="#000000">Types</text>
<g id="a_node2_1"><a xlink:href="../../nc/PersonType/#diagram" xlink:title="A data type for a human being." target="_top">
<polygon fill="#ebebeb" stroke="transparent" points="1.5,-1 1.5,-16 84.5,-16 84.5,-1 1.5,-1"/>
<text text-anchor="start" x="2.5" y="-5.4" font-family="Helvetica,sans-Serif" font-size="12.00" fill="#000000">nc:PersonType</text>
</a>
</g>
<polygon fill="#000000" stroke="#000000" points=".5,-16 .5,-16 85.5,-16 85.5,-16 .5,-16"/>
<polygon fill="none" stroke="#000000" points="0,0 0,-32 85,-32 85,0 0,0"/>
</g>
<!-- Types&#45;&gt;nc:PersonContactInformation -->
<g id="edge1" class="edge">
<title>Types:top&#45;&gt;nc:PersonContactInformation</title>
<path fill="none" stroke="#000000" d="M84.5,-24C102.927,-24 122.559,-24 141.5047,-24"/>
<polygon fill="#000000" stroke="#000000" points="141.6422,-27.5001 151.6422,-24 141.6422,-20.5001 141.6422,-27.5001"/>
<text text-anchor="middle" x="118.5" y="-27.4" font-family="Helvetica,sans-Serif" font-size="12.00" fill="#000000">has&#45;a</text>
</g>
</g>
</svg>
