<?xml version="1.0" encoding="UTF-8" standalone="no"?>
<!DOCTYPE svg PUBLIC "-//W3C//DTD SVG 1.1//EN"
 "http://www.w3.org/Graphics/SVG/1.1/DTD/svg11.dtd">
<!-- Generated by graphviz version 2.40.1 (20161225.0304)
 -->
<!-- Title: graphic Pages: 1 -->
<svg width="644pt" height="101pt"
 viewBox="0.00 0.00 644.00 101.00" xmlns="http://www.w3.org/2000/svg" xmlns:xlink="http://www.w3.org/1999/xlink">
<g id="graph0" class="graph" transform="scale(1 1) rotate(0) translate(4 97)">
<title>graphic</title>
<polygon fill="#ffffff" stroke="transparent" points="-4,4 -4,-97 640,-97 640,4 -4,4"/>
<!-- it:TransportMeansModeOfTransportationAbstract -->
<g id="node1" class="node">
<title>it:TransportMeansModeOfTransportationAbstract</title>
<text text-anchor="start" x="274.5" y="-77.4" font-family="Helvetica,sans-Serif" font-weight="bold" font-size="12.00" fill="#000000">it:TransportMeansModeOfTransportationAbstract</text>
<polygon fill="none" stroke="#ff0000" stroke-width="5" points="270.5,-70 270.5,-90 560.5,-90 560.5,-70 270.5,-70"/>
</g>
<!-- SubstitutableElements -->
<g id="node3" class="node">
<title>SubstitutableElements</title>
<text text-anchor="start" x="197.5" y="-21.4" font-family="Helvetica,sans-Serif" font-weight="bold" font-size="12.00" fill="#000000">Substitutable elements</text>
<g id="a_node3_0"><a xlink:href="../../it/TransportMeansModeOfTransportationCode/#diagram" xlink:title="A mode of means of transport like air, sea, land." target="_top">
<polygon fill="#ebebeb" stroke="transparent" points="196.5,-1 196.5,-16 635.5,-16 635.5,-1 196.5,-1"/>
<text text-anchor="start" x="197.5" y="-5.4" font-family="Helvetica,sans-Serif" font-size="12.00" fill="#000000">it:TransportMeansModeOfTransportationCode: itcodes:TransportMeansCodeType</text>
</a>
</g>
<polygon fill="#000000" stroke="#000000" points="195.5,-16 195.5,-16 636.5,-16 636.5,-16 195.5,-16"/>
<polygon fill="none" stroke="#000000" points="195,0 195,-32 636,-32 636,0 195,0"/>
</g>
<!-- it:TransportMeansModeOfTransportationAbstract&#45;&gt;SubstitutableElements -->
<g id="edge2" class="edge">
<title>it:TransportMeansModeOfTransportationAbstract&#45;&gt;SubstitutableElements</title>
<path fill="none" stroke="#000000" d="M415.5,-57.3063C415.5,-48.9972 415.5,-39.7712 415.5,-32.1499"/>
<polygon fill="#000000" stroke="#000000" points="412.0001,-57.4892 415.5,-67.4892 419.0001,-57.4892 412.0001,-57.4892"/>
<text text-anchor="middle" x="406" y="-46.65" font-family="Helvetica,sans-Serif" font-size="12.00" fill="#000000">substitutable for</text>
</g>
<!-- Types -->
<g id="node2" class="node">
<title>Types</title>
<text text-anchor="start" x="2" y="-77.4" font-family="Helvetica,sans-Serif" font-weight="bold" font-size="12.00" fill="#000000">Types</text>
<g id="a_node2_1"><a xlink:href="../../it/TransportMeansType/#diagram" xlink:title="A data type to identify the means of transport used." target="_top">
<polygon fill="#ebebeb" stroke="transparent" points="1,-57 1,-72 127,-72 127,-57 1,-57"/>
<text text-anchor="start" x="2" y="-61.4" font-family="Helvetica,sans-Serif" font-size="12.00" fill="#000000">it:TransportMeansType</text>
</a>
</g>
<polygon fill="#000000" stroke="#000000" points="0,-72 0,-72 128,-72 128,-72 0,-72"/>
<polygon fill="none" stroke="#000000" points="0,-56 0,-88 128,-88 128,-56 0,-56"/>
</g>
<!-- Types&#45;&gt;it:TransportMeansModeOfTransportationAbstract -->
<g id="edge1" class="edge">
<title>Types:top&#45;&gt;it:TransportMeansModeOfTransportationAbstract</title>
<path fill="none" stroke="#000000" d="M127,-80C169.428,-80 215.3658,-80 257.8452,-80"/>
<polygon fill="#000000" stroke="#000000" points="257.9916,-83.5001 267.9915,-80 257.9915,-76.5001 257.9916,-83.5001"/>
<text text-anchor="middle" x="161.5" y="-83.4" font-family="Helvetica,sans-Serif" font-size="12.00" fill="#000000">has&#45;a</text>
</g>
</g>
</svg>
