<?xml version="1.0" encoding="UTF-8" standalone="no"?>
<!DOCTYPE svg PUBLIC "-//W3C//DTD SVG 1.1//EN"
 "http://www.w3.org/Graphics/SVG/1.1/DTD/svg11.dtd">
<!-- Generated by graphviz version 2.40.1 (20161225.0304)
 -->
<!-- Title: graphic Pages: 1 -->
<svg width="578pt" height="45pt"
 viewBox="0.00 0.00 578.00 45.00" xmlns="http://www.w3.org/2000/svg" xmlns:xlink="http://www.w3.org/1999/xlink">
<g id="graph0" class="graph" transform="scale(1 1) rotate(0) translate(4 41)">
<title>graphic</title>
<polygon fill="#ffffff" stroke="transparent" points="-4,4 -4,-41 574,-41 574,4 -4,4"/>
<!-- nc:SubstanceQuantityMeasure -->
<g id="node1" class="node">
<title>nc:SubstanceQuantityMeasure</title>
<text text-anchor="start" x="177.5" y="-21.4" font-family="Helvetica,sans-Serif" font-weight="bold" font-size="12.00" fill="#000000">nc:SubstanceQuantityMeasure</text>
<polygon fill="none" stroke="#ff0000" stroke-width="5" points="173.5,-14 173.5,-34 357.5,-34 357.5,-14 173.5,-14"/>
</g>
<!-- nc:SubstanceMeasureType -->
<g id="node3" class="node">
<title>nc:SubstanceMeasureType</title>
<g id="a_node3_0"><a xlink:href="../../nc/SubstanceMeasureType/#diagram" xlink:title="A data type for a measure of the amount of something." target="_top">
<text text-anchor="start" x="421.5" y="-20.4" font-family="Helvetica,sans-Serif" font-size="12.00" fill="#000000">nc:SubstanceMeasureType</text>
</a>
</g>
<polygon fill="none" stroke="#000000" points="419,-15.5 419,-32.5 570,-32.5 570,-15.5 419,-15.5"/>
</g>
<!-- nc:SubstanceQuantityMeasure&#45;&gt;nc:SubstanceMeasureType -->
<g id="edge2" class="edge">
<title>nc:SubstanceQuantityMeasure&#45;&gt;nc:SubstanceMeasureType</title>
<path fill="none" stroke="#000000" d="M360.2961,-24C376.3449,-24 392.9262,-24 408.7271,-24"/>
<polygon fill="#000000" stroke="#000000" points="408.9846,-27.5001 418.9845,-24 408.9845,-20.5001 408.9846,-27.5001"/>
<text text-anchor="middle" x="389.5" y="-27.4" font-family="Helvetica,sans-Serif" font-size="12.00" fill="#000000">type</text>
</g>
<!-- Types -->
<g id="node2" class="node">
<title>Types</title>
<text text-anchor="start" x="2" y="-21.4" font-family="Helvetica,sans-Serif" font-weight="bold" font-size="12.00" fill="#000000">Types</text>
<g id="a_node2_1"><a xlink:href="../../nc/SubstanceType/#diagram" xlink:title="A data type for the matter or substance of which something consists." target="_top">
<polygon fill="#ebebeb" stroke="transparent" points="1,-1 1,-16 103,-16 103,-1 1,-1"/>
<text text-anchor="start" x="2" y="-5.4" font-family="Helvetica,sans-Serif" font-size="12.00" fill="#000000">nc:SubstanceType</text>
</a>
</g>
<polygon fill="#000000" stroke="#000000" points="0,-16 0,-16 104,-16 104,-16 0,-16"/>
<polygon fill="none" stroke="#000000" points="0,0 0,-32 104,-32 104,0 0,0"/>
</g>
<!-- Types&#45;&gt;nc:SubstanceQuantityMeasure -->
<g id="edge1" class="edge">
<title>Types:top&#45;&gt;nc:SubstanceQuantityMeasure</title>
<path fill="none" stroke="#000000" d="M103,-24C121.7388,-24 141.6931,-24 160.9707,-24"/>
<polygon fill="#000000" stroke="#000000" points="160.9799,-27.5001 170.9799,-24 160.9799,-20.5001 160.9799,-27.5001"/>
<text text-anchor="middle" x="137.5" y="-27.4" font-family="Helvetica,sans-Serif" font-size="12.00" fill="#000000">has&#45;a</text>
</g>
</g>
</svg>
