<?xml version="1.0" encoding="UTF-8" standalone="no"?>
<!DOCTYPE svg PUBLIC "-//W3C//DTD SVG 1.1//EN"
 "http://www.w3.org/Graphics/SVG/1.1/DTD/svg11.dtd">
<!-- Generated by graphviz version 2.40.1 (20161225.0304)
 -->
<!-- Title: graphic Pages: 1 -->
<svg width="683pt" height="45pt"
 viewBox="0.00 0.00 683.00 45.00" xmlns="http://www.w3.org/2000/svg" xmlns:xlink="http://www.w3.org/1999/xlink">
<g id="graph0" class="graph" transform="scale(1 1) rotate(0) translate(4 41)">
<title>graphic</title>
<polygon fill="#ffffff" stroke="transparent" points="-4,4 -4,-41 679,-41 679,4 -4,4"/>
<!-- j:ParoleActionParoleeAssignmentDetailsText -->
<g id="node1" class="node">
<title>j:ParoleActionParoleeAssignmentDetailsText</title>
<text text-anchor="start" x="281" y="-21.4" font-family="Helvetica,sans-Serif" font-weight="bold" font-size="12.00" fill="#000000">j:ParoleActionParoleeAssignmentDetailsText</text>
<polygon fill="none" stroke="#ff0000" stroke-width="5" points="277.5,-14 277.5,-34 542.5,-34 542.5,-14 277.5,-14"/>
</g>
<!-- nc:TextType -->
<g id="node3" class="node">
<title>nc:TextType</title>
<g id="a_node3_0"><a xlink:href="../../nc/TextType/#diagram" xlink:title="A data type for a character string." target="_top">
<text text-anchor="start" x="606.5" y="-20.4" font-family="Helvetica,sans-Serif" font-size="12.00" fill="#000000">nc:TextType</text>
</a>
</g>
<polygon fill="none" stroke="#000000" points="604,-15.5 604,-32.5 675,-32.5 675,-15.5 604,-15.5"/>
</g>
<!-- j:ParoleActionParoleeAssignmentDetailsText&#45;&gt;nc:TextType -->
<g id="edge2" class="edge">
<title>j:ParoleActionParoleeAssignmentDetailsText&#45;&gt;nc:TextType</title>
<path fill="none" stroke="#000000" d="M545.1601,-24C562.5433,-24 579.2809,-24 593.7071,-24"/>
<polygon fill="#000000" stroke="#000000" points="593.7794,-27.5001 603.7794,-24 593.7794,-20.5001 593.7794,-27.5001"/>
<text text-anchor="middle" x="574.5" y="-27.4" font-family="Helvetica,sans-Serif" font-size="12.00" fill="#000000">type</text>
</g>
<!-- Types -->
<g id="node2" class="node">
<title>Types</title>
<text text-anchor="start" x="2" y="-21.4" font-family="Helvetica,sans-Serif" font-weight="bold" font-size="12.00" fill="#000000">Types</text>
<g id="a_node2_1"><a xlink:href="../../j/ParoleActionParoleeAssociationType/#diagram" xlink:title="A data type for an association between a Parole Action and a Parolee." target="_top">
<polygon fill="#ebebeb" stroke="transparent" points="1,-1 1,-16 207,-16 207,-1 1,-1"/>
<text text-anchor="start" x="2" y="-5.4" font-family="Helvetica,sans-Serif" font-size="12.00" fill="#000000">j:ParoleActionParoleeAssociationType</text>
</a>
</g>
<polygon fill="#000000" stroke="#000000" points="0,-16 0,-16 208,-16 208,-16 0,-16"/>
<polygon fill="none" stroke="#000000" points="0,0 0,-32 208,-32 208,0 0,0"/>
</g>
<!-- Types&#45;&gt;j:ParoleActionParoleeAssignmentDetailsText -->
<g id="edge1" class="edge">
<title>Types:top&#45;&gt;j:ParoleActionParoleeAssignmentDetailsText</title>
<path fill="none" stroke="#000000" d="M207,-24C225.6823,-24 245.3317,-24 264.7466,-24"/>
<polygon fill="#000000" stroke="#000000" points="264.8717,-27.5001 274.8716,-24 264.8716,-20.5001 264.8717,-27.5001"/>
<text text-anchor="middle" x="241.5" y="-27.4" font-family="Helvetica,sans-Serif" font-size="12.00" fill="#000000">has&#45;a</text>
</g>
</g>
</svg>
