<?xml version="1.0" encoding="UTF-8" standalone="no"?>
<!DOCTYPE svg PUBLIC "-//W3C//DTD SVG 1.1//EN"
 "http://www.w3.org/Graphics/SVG/1.1/DTD/svg11.dtd">
<!-- Generated by graphviz version 2.40.1 (20161225.0304)
 -->
<!-- Title: graphic Pages: 1 -->
<svg width="494pt" height="86pt"
 viewBox="0.00 0.00 494.00 86.00" xmlns="http://www.w3.org/2000/svg" xmlns:xlink="http://www.w3.org/1999/xlink">
<g id="graph0" class="graph" transform="scale(1 1) rotate(0) translate(4 82)">
<title>graphic</title>
<polygon fill="#ffffff" stroke="transparent" points="-4,4 -4,-82 490,-82 490,4 -4,4"/>
<!-- it:DutyTaxPaymentMethodCode -->
<g id="node1" class="node">
<title>it:DutyTaxPaymentMethodCode</title>
<text text-anchor="start" x="6" y="-9.9" font-family="Helvetica,sans-Serif" font-weight="bold" font-size="12.00" fill="#000000">it:DutyTaxPaymentMethodCode</text>
<polygon fill="none" stroke="#ff0000" stroke-width="5" points="2.5,-2.5 2.5,-22.5 191.5,-22.5 191.5,-2.5 2.5,-2.5"/>
</g>
<!-- itcodes:DutyTaxPaymentMethodCodeType -->
<g id="node3" class="node">
<title>itcodes:DutyTaxPaymentMethodCodeType</title>
<g id="a_node3_0"><a xlink:href="../../itcodes/DutyTaxPaymentMethodCodeType/#diagram" xlink:title="A data type for a code set that denotes the methods of payment for Duty Tax" target="_top">
<text text-anchor="start" x="255.5" y="-8.9" font-family="Helvetica,sans-Serif" font-size="12.00" fill="#000000">itcodes:DutyTaxPaymentMethodCodeType</text>
</a>
</g>
<polygon fill="none" stroke="#000000" points="253,-4 253,-21 486,-21 486,-4 253,-4"/>
</g>
<!-- it:DutyTaxPaymentMethodCode&#45;&gt;itcodes:DutyTaxPaymentMethodCodeType -->
<g id="edge2" class="edge">
<title>it:DutyTaxPaymentMethodCode&#45;&gt;itcodes:DutyTaxPaymentMethodCodeType</title>
<path fill="none" stroke="#000000" d="M194.2247,-12.5C209.9202,-12.5 226.3704,-12.5 242.6411,-12.5"/>
<polygon fill="#000000" stroke="#000000" points="242.7404,-16.0001 252.7403,-12.5 242.7403,-9.0001 242.7404,-16.0001"/>
<text text-anchor="middle" x="223.5" y="-15.9" font-family="Helvetica,sans-Serif" font-size="12.00" fill="#000000">type</text>
</g>
<!-- SubstitutionGroup -->
<g id="node2" class="node">
<title>SubstitutionGroup</title>
<g id="a_node2_1"><a xlink:href="../../it/DutyTaxPaymentMethodAbstract/#diagram" xlink:title="A data concept for a code identifying the method of payment for the Duty Tax." target="_top">
<text text-anchor="start" x="4" y="-65.9" font-family="Helvetica,sans-Serif" font-size="12.00" fill="#000000">it:DutyTaxPaymentMethodAbstract</text>
</a>
</g>
<polygon fill="none" stroke="#000000" points="2,-61 2,-78 192,-78 192,-61 2,-61"/>
</g>
<!-- SubstitutionGroup&#45;&gt;it:DutyTaxPaymentMethodCode -->
<g id="edge1" class="edge">
<title>SubstitutionGroup&#45;&gt;it:DutyTaxPaymentMethodCode</title>
<path fill="none" stroke="#000000" d="M97,-50.9163C97,-42.4809 97,-32.7214 97,-25.1501"/>
<polygon fill="#000000" stroke="#000000" points="93.5001,-50.9472 97,-60.9473 100.5001,-50.9473 93.5001,-50.9472"/>
<text text-anchor="middle" x="87.5" y="-39.9" font-family="Helvetica,sans-Serif" font-size="12.00" fill="#000000">substitution group</text>
</g>
</g>
</svg>
