<?xml version="1.0" encoding="UTF-8" standalone="no"?>
<!DOCTYPE svg PUBLIC "-//W3C//DTD SVG 1.1//EN"
 "http://www.w3.org/Graphics/SVG/1.1/DTD/svg11.dtd">
<!-- Generated by graphviz version 2.40.1 (20161225.0304)
 -->
<!-- Title: graphic Pages: 1 -->
<svg width="810pt" height="244pt"
 viewBox="0.00 0.00 810.00 243.50" xmlns="http://www.w3.org/2000/svg" xmlns:xlink="http://www.w3.org/1999/xlink">
<g id="graph0" class="graph" transform="scale(1 1) rotate(0) translate(4 239.5)">
<title>graphic</title>
<polygon fill="#ffffff" stroke="transparent" points="-4,4 -4,-239.5 806,-239.5 806,4 -4,4"/>
<!-- j:HearingEvidenceType -->
<g id="node1" class="node">
<title>j:HearingEvidenceType</title>
<text text-anchor="start" x="6.5" y="-115.4" font-family="Helvetica,sans-Serif" font-weight="bold" font-size="12.00" fill="#000000">j:HearingEvidenceType</text>
<g id="a_node1_0"><a xlink:href="../../j/HearingEvidenceDispositionAbstract/#diagram" xlink:title="A data concept for a description of the disposition of supporting evidence associated with evidence provided during a hearing.." target="_top">
<polygon fill="#ebebeb" stroke="transparent" points="5.5,-95 5.5,-110 426.5,-110 426.5,-95 5.5,-95"/>
<text text-anchor="start" x="6.5" y="-99.4" font-family="Helvetica,sans-Serif" font-size="12.00" fill="#000000">j:HearingEvidenceDispositionAbstract [0&#45;n]</text>
</a>
</g>
<g id="a_node1_1"><a xlink:href="../../j/HearingEvidenceReportsAndToxicologyResultsDetailsText/#diagram" xlink:title="A specific set of information from incident reports, supplemental reports, and/or toxicology lab results used as supporting evidence." target="_top">
<text text-anchor="start" x="6.5" y="-84.4" font-family="Helvetica,sans-Serif" font-size="12.00" fill="#000000">j:HearingEvidenceReportsAndToxicologyResultsDetailsText: nc:TextType [0&#45;n]</text>
</a>
</g>
<g id="a_node1_2"><a xlink:href="../../j/HearingEvidenceRuleViolationReportDetailsText/#diagram" xlink:title="A specific set of information from the rule violation report used as supporting evidence." target="_top">
<polygon fill="#ebebeb" stroke="transparent" points="5.5,-65 5.5,-80 426.5,-80 426.5,-65 5.5,-65"/>
<text text-anchor="start" x="6.5" y="-69.4" font-family="Helvetica,sans-Serif" font-size="12.00" fill="#000000">j:HearingEvidenceRuleViolationReportDetailsText: nc:TextType [0&#45;n]</text>
</a>
</g>
<g id="a_node1_3"><a xlink:href="../../j/HearingEvidenceSpecialNotationDetailsText/#diagram" xlink:title="A specific set of information from the special notation used as supporting evidence." target="_top">
<text text-anchor="start" x="6.5" y="-54.4" font-family="Helvetica,sans-Serif" font-size="12.00" fill="#000000">j:HearingEvidenceSpecialNotationDetailsText: nc:TextType [0&#45;n]</text>
</a>
</g>
<g id="a_node1_4"><a xlink:href="../../j/HearingEvidenceSubjectStatementDetailsText/#diagram" xlink:title="A specific set of information from the subject&#39;s statement used as supporting evidence." target="_top">
<polygon fill="#ebebeb" stroke="transparent" points="5.5,-35 5.5,-50 426.5,-50 426.5,-35 5.5,-35"/>
<text text-anchor="start" x="6.5" y="-39.4" font-family="Helvetica,sans-Serif" font-size="12.00" fill="#000000">j:HearingEvidenceSubjectStatementDetailsText: nc:TextType [0&#45;n]</text>
</a>
</g>
<g id="a_node1_5"><a xlink:href="../../j/HearingEvidenceWitnessStatementDetailsText/#diagram" xlink:title="A specific set of information from witness statements used as supporting evidence." target="_top">
<text text-anchor="start" x="6.5" y="-24.4" font-family="Helvetica,sans-Serif" font-size="12.00" fill="#000000">j:HearingEvidenceWitnessStatementDetailsText: nc:TextType [0&#45;n]</text>
</a>
</g>
<g id="a_node1_6"><a xlink:href="../../j/HearingEvidenceAugmentationPoint/#diagram" xlink:title="An augmentation point for type j:HearingEvidenceType" target="_top">
<polygon fill="#ebebeb" stroke="transparent" points="5.5,-5 5.5,-20 426.5,-20 426.5,-5 5.5,-5"/>
<text text-anchor="start" x="6.5" y="-9.4" font-family="Helvetica,sans-Serif" font-size="12.00" fill="#000000">j:HearingEvidenceAugmentationPoint [0&#45;n]</text>
</a>
</g>
<polygon fill="#ff0000" stroke="#ff0000" points=".5,-110 .5,-110 431.5,-110 431.5,-110 .5,-110"/>
<polygon fill="none" stroke="#ff0000" stroke-width="5" points="2.5,-2.5 2.5,-127.5 428.5,-127.5 428.5,-2.5 2.5,-2.5"/>
</g>
<!-- subst_d9e30986 -->
<g id="node2" class="node">
<title>subst_d9e30986</title>
<g id="a_node2_7"><a xlink:href="../../j/HearingEvidenceDispositionAbstract/#diagram" xlink:title="&lt;TABLE&gt;" target="_top">
<text text-anchor="start" x="470" y="-100.4" font-family="Helvetica,sans-Serif" font-weight="bold" font-size="12.00" fill="#000000">Substitution group j:HearingEvidenceDispositionAbstract</text>
</a>
</g>
<g id="a_node2_8"><a xlink:href="../../j/HearingEvidenceDispositionText/#diagram" xlink:title="A description of a disposition of supporting evidence associated with evidence provided during a hearing.." target="_top">
<polygon fill="#ebebeb" stroke="transparent" points="469,-80 469,-95 801,-95 801,-80 469,-80"/>
<text text-anchor="start" x="470" y="-84.4" font-family="Helvetica,sans-Serif" font-size="12.00" fill="#000000">j:HearingEvidenceDispositionText: nc:TextType</text>
</a>
</g>
<polygon fill="#000000" stroke="#000000" points="468,-95 468,-95 802,-95 802,-95 468,-95"/>
<polygon fill="none" stroke="#000000" points="468,-79 468,-111 802,-111 802,-79 468,-79"/>
</g>
<!-- j:HearingEvidenceType&#45;&gt;subst_d9e30986 -->
<g id="edge1" class="edge">
<title>j:HearingEvidenceType:e&#45;&gt;subst_d9e30986:w</title>
<path fill="none" stroke="#000000" d="M436.828,-103C448.0114,-103 454.0955,-103 469,-103"/>
<polygon fill="#000000" stroke="#000000" points="436.5,-99.5001 426.5,-103 436.5,-106.5001 436.5,-99.5001"/>
</g>
<!-- j:EvidenceType -->
<g id="node3" class="node">
<title>j:EvidenceType</title>
<g id="a_node3_9"><a xlink:href="../../j/EvidenceType/#diagram" xlink:title="A data type for an item received by or submitted to an agency for use in ascertaining the truth of a matter." target="_top">
<text text-anchor="start" x="174.5" y="-170.4" font-family="Helvetica,sans-Serif" font-size="12.00" fill="#000000">j:EvidenceType</text>
</a>
</g>
<polygon fill="none" stroke="#000000" points="172,-165.5 172,-182.5 259,-182.5 259,-165.5 172,-165.5"/>
</g>
<!-- j:EvidenceType&#45;&gt;j:HearingEvidenceType -->
<g id="edge2" class="edge">
<title>j:EvidenceType&#45;&gt;j:HearingEvidenceType</title>
<path fill="none" stroke="#000000" d="M215.5,-165.3644C215.5,-159.2696 215.5,-150.4448 215.5,-140.522"/>
<polygon fill="#000000" stroke="#000000" points="219.0001,-140.2935 215.5,-130.2936 212.0001,-140.2936 219.0001,-140.2935"/>
<text text-anchor="middle" x="206" y="-144.65" font-family="Helvetica,sans-Serif" font-size="12.00" fill="#000000">extension</text>
</g>
<!-- structures:ObjectType -->
<g id="node4" class="node">
<title>structures:ObjectType</title>
<g id="a_node4_10"><a xlink:href="../../structures/ObjectType/#diagram" xlink:title="A data type for a thing with its own lifespan that has some existence." target="_top">
<text text-anchor="start" x="156.5" y="-223.4" font-family="Helvetica,sans-Serif" font-size="12.00" fill="#000000">structures:ObjectType</text>
</a>
</g>
<polygon fill="none" stroke="#000000" points="154.5,-218.5 154.5,-235.5 276.5,-235.5 276.5,-218.5 154.5,-218.5"/>
</g>
<!-- structures:ObjectType&#45;&gt;j:EvidenceType -->
<g id="edge3" class="edge">
<title>structures:ObjectType&#45;&gt;j:EvidenceType</title>
<path fill="none" stroke="#000000" d="M215.5,-218.411C215.5,-211.5124 215.5,-201.5696 215.5,-192.84"/>
<polygon fill="#000000" stroke="#000000" points="219.0001,-192.7518 215.5,-182.7519 212.0001,-192.7519 219.0001,-192.7518"/>
<text text-anchor="middle" x="206" y="-197.4" font-family="Helvetica,sans-Serif" font-size="12.00" fill="#000000">extension</text>
</g>
</g>
</svg>
