<?xml version="1.0" encoding="UTF-8" standalone="no"?>
<!DOCTYPE svg PUBLIC "-//W3C//DTD SVG 1.1//EN"
 "http://www.w3.org/Graphics/SVG/1.1/DTD/svg11.dtd">
<!-- Generated by graphviz version 2.40.1 (20161225.0304)
 -->
<!-- Title: graphic Pages: 1 -->
<svg width="357pt" height="116pt"
 viewBox="0.00 0.00 357.00 116.00" xmlns="http://www.w3.org/2000/svg" xmlns:xlink="http://www.w3.org/1999/xlink">
<g id="graph0" class="graph" transform="scale(1 1) rotate(0) translate(4 112)">
<title>graphic</title>
<polygon fill="#ffffff" stroke="transparent" points="-4,4 -4,-112 353,-112 353,4 -4,4"/>
<!-- hs:PetitionerType -->
<g id="node1" class="node">
<title>hs:PetitionerType</title>
<text text-anchor="start" x="136.5" y="-39.9" font-family="Helvetica,sans-Serif" font-weight="bold" font-size="12.00" fill="#000000">hs:PetitionerType</text>
<g id="a_node1_0"><a xlink:href="../../nc/RoleOfPerson/#diagram" xlink:title="A person of whom the role object is a function." target="_top">
<polygon fill="#ebebeb" stroke="transparent" points="135.5,-19.5 135.5,-34.5 344.5,-34.5 344.5,-19.5 135.5,-19.5"/>
<text text-anchor="start" x="136.5" y="-23.9" font-family="Helvetica,sans-Serif" font-size="12.00" fill="#000000">nc:RoleOfPerson: nc:PersonType [0&#45;n]</text>
</a>
</g>
<g id="a_node1_1"><a xlink:href="../../hs/PetitionerAugmentationPoint/#diagram" xlink:title="An augmentation point for PetitionerType." target="_top">
<text text-anchor="start" x="136.5" y="-8.9" font-family="Helvetica,sans-Serif" font-size="12.00" fill="#000000">hs:PetitionerAugmentationPoint [0&#45;n]</text>
</a>
</g>
<polygon fill="#ff0000" stroke="#ff0000" points="130.5,-34.5 130.5,-34.5 349.5,-34.5 349.5,-34.5 130.5,-34.5"/>
<polygon fill="none" stroke="#ff0000" stroke-width="5" points="132.5,-2.5 132.5,-52.5 346.5,-52.5 346.5,-2.5 132.5,-2.5"/>
</g>
<!-- Properties -->
<g id="node2" class="node">
<title>Properties</title>
<text text-anchor="start" x="2.5" y="-39.9" font-family="Helvetica,sans-Serif" font-weight="bold" font-size="12.00" fill="#000000">Properties</text>
<g id="a_node2_2"><a xlink:href="../../hs/Petitioner/#diagram" xlink:title="A person filing the petition." target="_top">
<polygon fill="#ebebeb" stroke="transparent" points="1.5,-19.5 1.5,-34.5 70.5,-34.5 70.5,-19.5 1.5,-19.5"/>
<text text-anchor="start" x="2.5" y="-23.9" font-family="Helvetica,sans-Serif" font-size="12.00" fill="#000000">hs:Petitioner</text>
</a>
</g>
<polygon fill="#000000" stroke="#000000" points=".5,-34.5 .5,-34.5 71.5,-34.5 71.5,-34.5 .5,-34.5"/>
<polygon fill="none" stroke="#000000" points="0,-18.5 0,-50.5 71,-50.5 71,-18.5 0,-18.5"/>
</g>
<!-- Properties&#45;&gt;hs:PetitionerType -->
<g id="edge1" class="edge">
<title>Properties:top&#45;&gt;hs:PetitionerType:top</title>
<path fill="none" stroke="#000000" d="M70.5,-42.5C95.6649,-42.5 104.3891,-42.5 125.3154,-42.5"/>
<polygon fill="#000000" stroke="#000000" points="125.5,-46.0001 135.5,-42.5 125.5,-39.0001 125.5,-46.0001"/>
<text text-anchor="middle" x="100.5" y="-45.9" font-family="Helvetica,sans-Serif" font-size="12.00" fill="#000000">type</text>
</g>
<!-- structures:ObjectType -->
<g id="node3" class="node">
<title>structures:ObjectType</title>
<g id="a_node3_3"><a xlink:href="../../structures/ObjectType/#diagram" xlink:title="A data type for a thing with its own lifespan that has some existence." target="_top">
<text text-anchor="start" x="180.5" y="-95.9" font-family="Helvetica,sans-Serif" font-size="12.00" fill="#000000">structures:ObjectType</text>
</a>
</g>
<polygon fill="none" stroke="#000000" points="178.5,-91 178.5,-108 300.5,-108 300.5,-91 178.5,-91"/>
</g>
<!-- structures:ObjectType&#45;&gt;hs:PetitionerType -->
<g id="edge2" class="edge">
<title>structures:ObjectType&#45;&gt;hs:PetitionerType</title>
<path fill="none" stroke="#000000" d="M239.5,-90.8151C239.5,-84.3271 239.5,-74.9677 239.5,-65.4273"/>
<polygon fill="#000000" stroke="#000000" points="243.0001,-65.1311 239.5,-55.1312 236.0001,-65.1312 243.0001,-65.1311"/>
<text text-anchor="middle" x="230" y="-69.9" font-family="Helvetica,sans-Serif" font-size="12.00" fill="#000000">extension</text>
</g>
</g>
</svg>
