<?xml version="1.0" encoding="UTF-8" standalone="no"?>
<!DOCTYPE svg PUBLIC "-//W3C//DTD SVG 1.1//EN"
 "http://www.w3.org/Graphics/SVG/1.1/DTD/svg11.dtd">
<!-- Generated by graphviz version 2.40.1 (20161225.0304)
 -->
<!-- Title: graphic Pages: 1 -->
<svg width="606pt" height="45pt"
 viewBox="0.00 0.00 606.00 45.00" xmlns="http://www.w3.org/2000/svg" xmlns:xlink="http://www.w3.org/1999/xlink">
<g id="graph0" class="graph" transform="scale(1 1) rotate(0) translate(4 41)">
<title>graphic</title>
<polygon fill="#ffffff" stroke="transparent" points="-4,4 -4,-41 602,-41 602,4 -4,4"/>
<!-- it:IntermediateCarrierIDCategory -->
<g id="node1" class="node">
<title>it:IntermediateCarrierIDCategory</title>
<text text-anchor="start" x="217.5" y="-21.4" font-family="Helvetica,sans-Serif" font-weight="bold" font-size="12.00" fill="#000000">it:IntermediateCarrierIDCategory</text>
<polygon fill="none" stroke="#ff0000" stroke-width="5" points="213.5,-14 213.5,-34 407.5,-34 407.5,-14 213.5,-14"/>
</g>
<!-- it:PartyIDCategoryType -->
<g id="node3" class="node">
<title>it:PartyIDCategoryType</title>
<g id="a_node3_0"><a xlink:href="../../it/PartyIDCategoryType/#diagram" xlink:title="A data type for a category of Party ID" target="_top">
<text text-anchor="start" x="471.5" y="-20.4" font-family="Helvetica,sans-Serif" font-size="12.00" fill="#000000">it:PartyIDCategoryType</text>
</a>
</g>
<polygon fill="none" stroke="#000000" points="469,-15.5 469,-32.5 598,-32.5 598,-15.5 469,-15.5"/>
</g>
<!-- it:IntermediateCarrierIDCategory&#45;&gt;it:PartyIDCategoryType -->
<g id="edge2" class="edge">
<title>it:IntermediateCarrierIDCategory&#45;&gt;it:PartyIDCategoryType</title>
<path fill="none" stroke="#000000" d="M410.2596,-24C426.5267,-24 443.1308,-24 458.6662,-24"/>
<polygon fill="#000000" stroke="#000000" points="458.7067,-27.5001 468.7066,-24 458.7066,-20.5001 458.7067,-27.5001"/>
<text text-anchor="middle" x="439.5" y="-27.4" font-family="Helvetica,sans-Serif" font-size="12.00" fill="#000000">type</text>
</g>
<!-- Types -->
<g id="node2" class="node">
<title>Types</title>
<text text-anchor="start" x="2" y="-21.4" font-family="Helvetica,sans-Serif" font-weight="bold" font-size="12.00" fill="#000000">Types</text>
<g id="a_node2_1"><a xlink:href="../../it/IntermediateCarrierType/#diagram" xlink:title="A data type representing a transit (in&#45;bond) movement, the identity of the carrier&#39;s which transport the goods from consignor to exporting carrier and from importing carrier to consignee. A party providing the transport of goods between named points." target="_top">
<polygon fill="#ebebeb" stroke="transparent" points="1,-1 1,-16 143,-16 143,-1 1,-1"/>
<text text-anchor="start" x="2" y="-5.4" font-family="Helvetica,sans-Serif" font-size="12.00" fill="#000000">it:IntermediateCarrierType</text>
</a>
</g>
<polygon fill="#000000" stroke="#000000" points="0,-16 0,-16 144,-16 144,-16 0,-16"/>
<polygon fill="none" stroke="#000000" points="0,0 0,-32 144,-32 144,0 0,0"/>
</g>
<!-- Types&#45;&gt;it:IntermediateCarrierIDCategory -->
<g id="edge1" class="edge">
<title>Types:top&#45;&gt;it:IntermediateCarrierIDCategory</title>
<path fill="none" stroke="#000000" d="M143,-24C161.6963,-24 181.5665,-24 200.8417,-24"/>
<polygon fill="#000000" stroke="#000000" points="200.8578,-27.5001 210.8577,-24 200.8577,-20.5001 200.8578,-27.5001"/>
<text text-anchor="middle" x="177.5" y="-27.4" font-family="Helvetica,sans-Serif" font-size="12.00" fill="#000000">has&#45;a</text>
</g>
</g>
</svg>
