<?xml version="1.0" encoding="UTF-8" standalone="no"?>
<!DOCTYPE svg PUBLIC "-//W3C//DTD SVG 1.1//EN"
 "http://www.w3.org/Graphics/SVG/1.1/DTD/svg11.dtd">
<!-- Generated by graphviz version 2.40.1 (20161225.0304)
 -->
<!-- Title: graphic Pages: 1 -->
<svg width="441pt" height="45pt"
 viewBox="0.00 0.00 441.00 45.00" xmlns="http://www.w3.org/2000/svg" xmlns:xlink="http://www.w3.org/1999/xlink">
<g id="graph0" class="graph" transform="scale(1 1) rotate(0) translate(4 41)">
<title>graphic</title>
<polygon fill="#ffffff" stroke="transparent" points="-4,4 -4,-41 437,-41 437,4 -4,4"/>
<!-- nc:IdentityCreationDate -->
<g id="node1" class="node">
<title>nc:IdentityCreationDate</title>
<text text-anchor="start" x="159" y="-21.4" font-family="Helvetica,sans-Serif" font-weight="bold" font-size="12.00" fill="#000000">nc:IdentityCreationDate</text>
<polygon fill="none" stroke="#ff0000" stroke-width="5" points="155.5,-14 155.5,-34 298.5,-34 298.5,-14 155.5,-14"/>
</g>
<!-- nc:DateType -->
<g id="node3" class="node">
<title>nc:DateType</title>
<g id="a_node3_0"><a xlink:href="../../nc/DateType/#diagram" xlink:title="A data type for a calendar date." target="_top">
<text text-anchor="start" x="362.5" y="-20.4" font-family="Helvetica,sans-Serif" font-size="12.00" fill="#000000">nc:DateType</text>
</a>
</g>
<polygon fill="none" stroke="#000000" points="360,-15.5 360,-32.5 433,-32.5 433,-15.5 360,-15.5"/>
</g>
<!-- nc:IdentityCreationDate&#45;&gt;nc:DateType -->
<g id="edge2" class="edge">
<title>nc:IdentityCreationDate&#45;&gt;nc:DateType</title>
<path fill="none" stroke="#000000" d="M301.3452,-24C317.8232,-24 334.834,-24 349.8349,-24"/>
<polygon fill="#000000" stroke="#000000" points="349.8678,-27.5001 359.8678,-24 349.8678,-20.5001 349.8678,-27.5001"/>
<text text-anchor="middle" x="330.5" y="-27.4" font-family="Helvetica,sans-Serif" font-size="12.00" fill="#000000">type</text>
</g>
<!-- Types -->
<g id="node2" class="node">
<title>Types</title>
<text text-anchor="start" x="2" y="-21.4" font-family="Helvetica,sans-Serif" font-weight="bold" font-size="12.00" fill="#000000">Types</text>
<g id="a_node2_1"><a xlink:href="../../nc/IdentityType/#diagram" xlink:title="A data type for a set of known aspects or characteristics by which a person is defined or recognized." target="_top">
<polygon fill="#ebebeb" stroke="transparent" points="1,-1 1,-16 85,-16 85,-1 1,-1"/>
<text text-anchor="start" x="2" y="-5.4" font-family="Helvetica,sans-Serif" font-size="12.00" fill="#000000">nc:IdentityType</text>
</a>
</g>
<polygon fill="#000000" stroke="#000000" points="0,-16 0,-16 86,-16 86,-16 0,-16"/>
<polygon fill="none" stroke="#000000" points="0,0 0,-32 86,-32 86,0 0,0"/>
</g>
<!-- Types&#45;&gt;nc:IdentityCreationDate -->
<g id="edge1" class="edge">
<title>Types:top&#45;&gt;nc:IdentityCreationDate</title>
<path fill="none" stroke="#000000" d="M85,-24C103.7029,-24 123.7914,-24 142.8018,-24"/>
<polygon fill="#000000" stroke="#000000" points="142.9329,-27.5001 152.9328,-24 142.9328,-20.5001 142.9329,-27.5001"/>
<text text-anchor="middle" x="119.5" y="-27.4" font-family="Helvetica,sans-Serif" font-size="12.00" fill="#000000">has&#45;a</text>
</g>
</g>
</svg>
