<?xml version="1.0" encoding="UTF-8" standalone="no"?>
<!DOCTYPE svg PUBLIC "-//W3C//DTD SVG 1.1//EN"
 "http://www.w3.org/Graphics/SVG/1.1/DTD/svg11.dtd">
<!-- Generated by graphviz version 2.40.1 (20161225.0304)
 -->
<!-- Title: graphic Pages: 1 -->
<svg width="571pt" height="86pt"
 viewBox="0.00 0.00 571.00 86.00" xmlns="http://www.w3.org/2000/svg" xmlns:xlink="http://www.w3.org/1999/xlink">
<g id="graph0" class="graph" transform="scale(1 1) rotate(0) translate(4 82)">
<title>graphic</title>
<polygon fill="#ffffff" stroke="transparent" points="-4,4 -4,-82 567,-82 567,4 -4,4"/>
<!-- j:VehicleOdometerReadingUnitCode -->
<g id="node1" class="node">
<title>j:VehicleOdometerReadingUnitCode</title>
<text text-anchor="start" x="6.5" y="-9.9" font-family="Helvetica,sans-Serif" font-weight="bold" font-size="12.00" fill="#000000">j:VehicleOdometerReadingUnitCode</text>
<polygon fill="none" stroke="#ff0000" stroke-width="5" points="2.5,-2.5 2.5,-22.5 216.5,-22.5 216.5,-2.5 2.5,-2.5"/>
</g>
<!-- aamva_d20:VehicleOdometerReadingUnitCodeType -->
<g id="node3" class="node">
<title>aamva_d20:VehicleOdometerReadingUnitCodeType</title>
<g id="a_node3_0"><a xlink:href="../../aamva_d20/VehicleOdometerReadingUnitCodeType/#diagram" xlink:title="A data type for the units of measurement associated with an odometer reading." target="_top">
<text text-anchor="start" x="280.5" y="-8.9" font-family="Helvetica,sans-Serif" font-size="12.00" fill="#000000">aamva_d20:VehicleOdometerReadingUnitCodeType</text>
</a>
</g>
<polygon fill="none" stroke="#000000" points="278,-4 278,-21 563,-21 563,-4 278,-4"/>
</g>
<!-- j:VehicleOdometerReadingUnitCode&#45;&gt;aamva_d20:VehicleOdometerReadingUnitCodeType -->
<g id="edge2" class="edge">
<title>j:VehicleOdometerReadingUnitCode&#45;&gt;aamva_d20:VehicleOdometerReadingUnitCodeType</title>
<path fill="none" stroke="#000000" d="M219.147,-12.5C234.8602,-12.5 251.2595,-12.5 267.6202,-12.5"/>
<polygon fill="#000000" stroke="#000000" points="267.7955,-16.0001 277.7955,-12.5 267.7954,-9.0001 267.7955,-16.0001"/>
<text text-anchor="middle" x="248.5" y="-15.9" font-family="Helvetica,sans-Serif" font-size="12.00" fill="#000000">type</text>
</g>
<!-- SubstitutionGroup -->
<g id="node2" class="node">
<title>SubstitutionGroup</title>
<g id="a_node2_1"><a xlink:href="../../nc/LengthUnitAbstract/#diagram" xlink:title="A data concept for a unit of measure for length." target="_top">
<text text-anchor="start" x="50.5" y="-65.9" font-family="Helvetica,sans-Serif" font-size="12.00" fill="#000000">nc:LengthUnitAbstract</text>
</a>
</g>
<polygon fill="none" stroke="#000000" points="48,-61 48,-78 171,-78 171,-61 48,-61"/>
</g>
<!-- SubstitutionGroup&#45;&gt;j:VehicleOdometerReadingUnitCode -->
<g id="edge1" class="edge">
<title>SubstitutionGroup&#45;&gt;j:VehicleOdometerReadingUnitCode</title>
<path fill="none" stroke="#000000" d="M109.5,-50.9163C109.5,-42.4809 109.5,-32.7214 109.5,-25.1501"/>
<polygon fill="#000000" stroke="#000000" points="106.0001,-50.9472 109.5,-60.9473 113.0001,-50.9473 106.0001,-50.9472"/>
<text text-anchor="middle" x="100" y="-39.9" font-family="Helvetica,sans-Serif" font-size="12.00" fill="#000000">substitution group</text>
</g>
</g>
</svg>
