<?xml version="1.0" encoding="UTF-8" standalone="no"?>
<!DOCTYPE svg PUBLIC "-//W3C//DTD SVG 1.1//EN"
 "http://www.w3.org/Graphics/SVG/1.1/DTD/svg11.dtd">
<!-- Generated by graphviz version 2.40.1 (20161225.0304)
 -->
<!-- Title: graphic Pages: 1 -->
<svg width="773pt" height="101pt"
 viewBox="0.00 0.00 773.00 101.00" xmlns="http://www.w3.org/2000/svg" xmlns:xlink="http://www.w3.org/1999/xlink">
<g id="graph0" class="graph" transform="scale(1 1) rotate(0) translate(4 97)">
<title>graphic</title>
<polygon fill="#ffffff" stroke="transparent" points="-4,4 -4,-97 769,-97 769,4 -4,4"/>
<!-- nc:PersonIdentityAssociationAugmentationPoint -->
<g id="node1" class="node">
<title>nc:PersonIdentityAssociationAugmentationPoint</title>
<text text-anchor="start" x="368.5" y="-77.4" font-family="Helvetica,sans-Serif" font-weight="bold" font-size="12.00" fill="#000000">nc:PersonIdentityAssociationAugmentationPoint</text>
<polygon fill="none" stroke="#ff0000" stroke-width="5" points="364.5,-70 364.5,-90 652.5,-90 652.5,-70 364.5,-70"/>
</g>
<!-- SubstitutableElements -->
<g id="node3" class="node">
<title>SubstitutableElements</title>
<text text-anchor="start" x="254.5" y="-21.4" font-family="Helvetica,sans-Serif" font-weight="bold" font-size="12.00" fill="#000000">Substitutable elements</text>
<g id="a_node3_0"><a xlink:href="../../intel/PersonIdentityAssociationAugmentation/#diagram" xlink:title="Additional information about a person identity association." target="_top">
<polygon fill="#ebebeb" stroke="transparent" points="253.5,-1 253.5,-16 764.5,-16 764.5,-1 253.5,-1"/>
<text text-anchor="start" x="254.5" y="-5.4" font-family="Helvetica,sans-Serif" font-size="12.00" fill="#000000">intel:PersonIdentityAssociationAugmentation: intel:PersonIdentityAssociationAugmentationType</text>
</a>
</g>
<polygon fill="#000000" stroke="#000000" points="252.5,-16 252.5,-16 765.5,-16 765.5,-16 252.5,-16"/>
<polygon fill="none" stroke="#000000" points="252,0 252,-32 765,-32 765,0 252,0"/>
</g>
<!-- nc:PersonIdentityAssociationAugmentationPoint&#45;&gt;SubstitutableElements -->
<g id="edge2" class="edge">
<title>nc:PersonIdentityAssociationAugmentationPoint&#45;&gt;SubstitutableElements</title>
<path fill="none" stroke="#000000" d="M508.5,-57.3063C508.5,-48.9972 508.5,-39.7712 508.5,-32.1499"/>
<polygon fill="#000000" stroke="#000000" points="505.0001,-57.4892 508.5,-67.4892 512.0001,-57.4892 505.0001,-57.4892"/>
<text text-anchor="middle" x="499" y="-46.65" font-family="Helvetica,sans-Serif" font-size="12.00" fill="#000000">substitutable for</text>
</g>
<!-- Types -->
<g id="node2" class="node">
<title>Types</title>
<text text-anchor="start" x="2.5" y="-77.4" font-family="Helvetica,sans-Serif" font-weight="bold" font-size="12.00" fill="#000000">Types</text>
<g id="a_node2_1"><a xlink:href="../../nc/PersonIdentityAssociationType/#diagram" xlink:title="A data type for an association between a person and an identity." target="_top">
<polygon fill="#ebebeb" stroke="transparent" points="1.5,-57 1.5,-72 184.5,-72 184.5,-57 1.5,-57"/>
<text text-anchor="start" x="2.5" y="-61.4" font-family="Helvetica,sans-Serif" font-size="12.00" fill="#000000">nc:PersonIdentityAssociationType</text>
</a>
</g>
<polygon fill="#000000" stroke="#000000" points=".5,-72 .5,-72 185.5,-72 185.5,-72 .5,-72"/>
<polygon fill="none" stroke="#000000" points="0,-56 0,-88 185,-88 185,-56 0,-56"/>
</g>
<!-- Types&#45;&gt;nc:PersonIdentityAssociationAugmentationPoint -->
<g id="edge1" class="edge">
<title>Types:top&#45;&gt;nc:PersonIdentityAssociationAugmentationPoint</title>
<path fill="none" stroke="#000000" d="M184.5,-80C238.9296,-80 298.5025,-80 351.5542,-80"/>
<polygon fill="#000000" stroke="#000000" points="351.7272,-83.5001 361.7272,-80 351.7271,-76.5001 351.7272,-83.5001"/>
<text text-anchor="middle" x="218.5" y="-83.4" font-family="Helvetica,sans-Serif" font-size="12.00" fill="#000000">has&#45;a</text>
</g>
</g>
</svg>
