<?xml version="1.0" encoding="UTF-8" standalone="no"?>
<!DOCTYPE svg PUBLIC "-//W3C//DTD SVG 1.1//EN"
 "http://www.w3.org/Graphics/SVG/1.1/DTD/svg11.dtd">
<!-- Generated by graphviz version 2.40.1 (20161225.0304)
 -->
<!-- Title: graphic Pages: 1 -->
<svg width="642pt" height="45pt"
 viewBox="0.00 0.00 642.00 45.00" xmlns="http://www.w3.org/2000/svg" xmlns:xlink="http://www.w3.org/1999/xlink">
<g id="graph0" class="graph" transform="scale(1 1) rotate(0) translate(4 41)">
<title>graphic</title>
<polygon fill="#ffffff" stroke="transparent" points="-4,4 -4,-41 638,-41 638,4 -4,4"/>
<!-- j:DriverHistoryAccidentQuantity -->
<g id="node1" class="node">
<title>j:DriverHistoryAccidentQuantity</title>
<text text-anchor="start" x="231.5" y="-21.4" font-family="Helvetica,sans-Serif" font-weight="bold" font-size="12.00" fill="#000000">j:DriverHistoryAccidentQuantity</text>
<polygon fill="none" stroke="#ff0000" stroke-width="5" points="227.5,-14 227.5,-34 417.5,-34 417.5,-14 227.5,-14"/>
</g>
<!-- niem&#45;xs:nonNegativeInteger -->
<g id="node3" class="node">
<title>niem&#45;xs:nonNegativeInteger</title>
<g id="a_node3_0"><a xlink:href="../../niem-xs/nonNegativeInteger/#diagram" xlink:title="A data type for an integer with a minimum value of 0." target="_top">
<text text-anchor="start" x="481.5" y="-20.4" font-family="Helvetica,sans-Serif" font-size="12.00" fill="#000000">niem&#45;xs:nonNegativeInteger</text>
</a>
</g>
<polygon fill="none" stroke="#000000" points="479,-15.5 479,-32.5 634,-32.5 634,-15.5 479,-15.5"/>
</g>
<!-- j:DriverHistoryAccidentQuantity&#45;&gt;niem&#45;xs:nonNegativeInteger -->
<g id="edge2" class="edge">
<title>j:DriverHistoryAccidentQuantity&#45;&gt;niem&#45;xs:nonNegativeInteger</title>
<path fill="none" stroke="#000000" d="M420.0426,-24C436.0904,-24 452.6407,-24 468.4398,-24"/>
<polygon fill="#000000" stroke="#000000" points="468.7008,-27.5001 478.7008,-24 468.7007,-20.5001 468.7008,-27.5001"/>
<text text-anchor="middle" x="449.5" y="-27.4" font-family="Helvetica,sans-Serif" font-size="12.00" fill="#000000">type</text>
</g>
<!-- Types -->
<g id="node2" class="node">
<title>Types</title>
<text text-anchor="start" x="2" y="-21.4" font-family="Helvetica,sans-Serif" font-weight="bold" font-size="12.00" fill="#000000">Types</text>
<g id="a_node2_1"><a xlink:href="../../j/DriverHistorySummaryType/#diagram" xlink:title="A data type for a summary of a driver&#39;s history." target="_top">
<polygon fill="#ebebeb" stroke="transparent" points="1,-1 1,-16 157,-16 157,-1 1,-1"/>
<text text-anchor="start" x="2" y="-5.4" font-family="Helvetica,sans-Serif" font-size="12.00" fill="#000000">j:DriverHistorySummaryType</text>
</a>
</g>
<polygon fill="#000000" stroke="#000000" points="0,-16 0,-16 158,-16 158,-16 0,-16"/>
<polygon fill="none" stroke="#000000" points="0,0 0,-32 158,-32 158,0 0,0"/>
</g>
<!-- Types&#45;&gt;j:DriverHistoryAccidentQuantity -->
<g id="edge1" class="edge">
<title>Types:top&#45;&gt;j:DriverHistoryAccidentQuantity</title>
<path fill="none" stroke="#000000" d="M157,-24C175.7177,-24 195.6263,-24 214.9075,-24"/>
<polygon fill="#000000" stroke="#000000" points="214.9235,-27.5001 224.9235,-24 214.9234,-20.5001 214.9235,-27.5001"/>
<text text-anchor="middle" x="191.5" y="-27.4" font-family="Helvetica,sans-Serif" font-size="12.00" fill="#000000">has&#45;a</text>
</g>
</g>
</svg>
