<?xml version="1.0" encoding="UTF-8" standalone="no"?>
<!DOCTYPE svg PUBLIC "-//W3C//DTD SVG 1.1//EN"
 "http://www.w3.org/Graphics/SVG/1.1/DTD/svg11.dtd">
<!-- Generated by graphviz version 2.40.1 (20161225.0304)
 -->
<!-- Title: graphic Pages: 1 -->
<svg width="504pt" height="45pt"
 viewBox="0.00 0.00 504.00 45.00" xmlns="http://www.w3.org/2000/svg" xmlns:xlink="http://www.w3.org/1999/xlink">
<g id="graph0" class="graph" transform="scale(1 1) rotate(0) translate(4 41)">
<title>graphic</title>
<polygon fill="#ffffff" stroke="transparent" points="-4,4 -4,-41 500,-41 500,4 -4,4"/>
<!-- em:DataLink -->
<g id="node1" class="node">
<title>em:DataLink</title>
<text text-anchor="start" x="259.5" y="-21.4" font-family="Helvetica,sans-Serif" font-weight="bold" font-size="12.00" fill="#000000">em:DataLink</text>
<polygon fill="none" stroke="#ff0000" stroke-width="5" points="255.5,-14 255.5,-34 335.5,-34 335.5,-14 255.5,-14"/>
</g>
<!-- em:DataLinkType -->
<g id="node3" class="node">
<title>em:DataLinkType</title>
<g id="a_node3_0"><a xlink:href="../../em/DataLinkType/#diagram" xlink:title="A data type for a structure that contains a data link" target="_top">
<text text-anchor="start" x="399.5" y="-20.4" font-family="Helvetica,sans-Serif" font-size="12.00" fill="#000000">em:DataLinkType</text>
</a>
</g>
<polygon fill="none" stroke="#000000" points="397,-15.5 397,-32.5 496,-32.5 496,-15.5 397,-15.5"/>
</g>
<!-- em:DataLink&#45;&gt;em:DataLinkType -->
<g id="edge2" class="edge">
<title>em:DataLink&#45;&gt;em:DataLinkType</title>
<path fill="none" stroke="#000000" d="M338.3666,-24C353.3153,-24 370.3774,-24 386.4614,-24"/>
<polygon fill="#000000" stroke="#000000" points="386.8577,-27.5001 396.8576,-24 386.8576,-20.5001 386.8577,-27.5001"/>
<text text-anchor="middle" x="367.5" y="-27.4" font-family="Helvetica,sans-Serif" font-size="12.00" fill="#000000">type</text>
</g>
<!-- Types -->
<g id="node2" class="node">
<title>Types</title>
<text text-anchor="start" x="2" y="-21.4" font-family="Helvetica,sans-Serif" font-weight="bold" font-size="12.00" fill="#000000">Types</text>
<g id="a_node2_1"><a xlink:href="../../em/ServiceCallAugmentationType/#diagram" xlink:title="A data type for additional information about a service call." target="_top">
<polygon fill="#ebebeb" stroke="transparent" points="1,-1 1,-16 185,-16 185,-1 1,-1"/>
<text text-anchor="start" x="2" y="-5.4" font-family="Helvetica,sans-Serif" font-size="12.00" fill="#000000">em:ServiceCallAugmentationType</text>
</a>
</g>
<polygon fill="#000000" stroke="#000000" points="0,-16 0,-16 186,-16 186,-16 0,-16"/>
<polygon fill="none" stroke="#000000" points="0,0 0,-32 186,-32 186,0 0,0"/>
</g>
<!-- Types&#45;&gt;em:DataLink -->
<g id="edge1" class="edge">
<title>Types:top&#45;&gt;em:DataLink</title>
<path fill="none" stroke="#000000" d="M185,-24C203.8506,-24 224.51,-24 242.8124,-24"/>
<polygon fill="#000000" stroke="#000000" points="242.9971,-27.5001 252.9971,-24 242.9971,-20.5001 242.9971,-27.5001"/>
<text text-anchor="middle" x="219.5" y="-27.4" font-family="Helvetica,sans-Serif" font-size="12.00" fill="#000000">has&#45;a</text>
</g>
</g>
</svg>
