<?xml version="1.0" encoding="UTF-8" standalone="no"?>
<!DOCTYPE svg PUBLIC "-//W3C//DTD SVG 1.1//EN"
 "http://www.w3.org/Graphics/SVG/1.1/DTD/svg11.dtd">
<!-- Generated by graphviz version 2.40.1 (20161225.0304)
 -->
<!-- Title: graphic Pages: 1 -->
<svg width="611pt" height="45pt"
 viewBox="0.00 0.00 611.00 45.00" xmlns="http://www.w3.org/2000/svg" xmlns:xlink="http://www.w3.org/1999/xlink">
<g id="graph0" class="graph" transform="scale(1 1) rotate(0) translate(4 41)">
<title>graphic</title>
<polygon fill="#ffffff" stroke="transparent" points="-4,4 -4,-41 607,-41 607,4 -4,4"/>
<!-- j:SubjectProgramServiceDeliveryGoal -->
<g id="node1" class="node">
<title>j:SubjectProgramServiceDeliveryGoal</title>
<text text-anchor="start" x="258.5" y="-21.4" font-family="Helvetica,sans-Serif" font-weight="bold" font-size="12.00" fill="#000000">j:SubjectProgramServiceDeliveryGoal</text>
<polygon fill="none" stroke="#ff0000" stroke-width="5" points="254.5,-14 254.5,-34 478.5,-34 478.5,-14 254.5,-14"/>
</g>
<!-- j:GoalType -->
<g id="node3" class="node">
<title>j:GoalType</title>
<g id="a_node3_0"><a xlink:href="../../j/GoalType/#diagram" xlink:title="A data type for a high&#45;level outcome expected following an activity to address a need." target="_top">
<text text-anchor="start" x="542.5" y="-20.4" font-family="Helvetica,sans-Serif" font-size="12.00" fill="#000000">j:GoalType</text>
</a>
</g>
<polygon fill="none" stroke="#000000" points="540,-15.5 540,-32.5 603,-32.5 603,-15.5 540,-15.5"/>
</g>
<!-- j:SubjectProgramServiceDeliveryGoal&#45;&gt;j:GoalType -->
<g id="edge2" class="edge">
<title>j:SubjectProgramServiceDeliveryGoal&#45;&gt;j:GoalType</title>
<path fill="none" stroke="#000000" d="M481.2857,-24C498.4918,-24 515.2294,-24 529.5212,-24"/>
<polygon fill="#000000" stroke="#000000" points="529.9408,-27.5001 539.9408,-24 529.9407,-20.5001 529.9408,-27.5001"/>
<text text-anchor="middle" x="510.5" y="-27.4" font-family="Helvetica,sans-Serif" font-size="12.00" fill="#000000">type</text>
</g>
<!-- Types -->
<g id="node2" class="node">
<title>Types</title>
<text text-anchor="start" x="2.5" y="-21.4" font-family="Helvetica,sans-Serif" font-weight="bold" font-size="12.00" fill="#000000">Types</text>
<g id="a_node2_1"><a xlink:href="../../j/SubjectProgramAssociationType/#diagram" xlink:title="A data type for an association between a Program and a subject who had some involvement." target="_top">
<polygon fill="#ebebeb" stroke="transparent" points="1.5,-1 1.5,-16 184.5,-16 184.5,-1 1.5,-1"/>
<text text-anchor="start" x="2.5" y="-5.4" font-family="Helvetica,sans-Serif" font-size="12.00" fill="#000000">j:SubjectProgramAssociationType</text>
</a>
</g>
<polygon fill="#000000" stroke="#000000" points=".5,-16 .5,-16 185.5,-16 185.5,-16 .5,-16"/>
<polygon fill="none" stroke="#000000" points="0,0 0,-32 185,-32 185,0 0,0"/>
</g>
<!-- Types&#45;&gt;j:SubjectProgramServiceDeliveryGoal -->
<g id="edge1" class="edge">
<title>Types:top&#45;&gt;j:SubjectProgramServiceDeliveryGoal</title>
<path fill="none" stroke="#000000" d="M184.5,-24C203.0658,-24 222.697,-24 241.9264,-24"/>
<polygon fill="#000000" stroke="#000000" points="241.9378,-27.5001 251.9377,-24 241.9377,-20.5001 241.9378,-27.5001"/>
<text text-anchor="middle" x="218.5" y="-27.4" font-family="Helvetica,sans-Serif" font-size="12.00" fill="#000000">has&#45;a</text>
</g>
</g>
</svg>
