<?xml version="1.0" encoding="UTF-8" standalone="no"?>
<!DOCTYPE svg PUBLIC "-//W3C//DTD SVG 1.1//EN"
 "http://www.w3.org/Graphics/SVG/1.1/DTD/svg11.dtd">
<!-- Generated by graphviz version 2.40.1 (20161225.0304)
 -->
<!-- Title: graphic Pages: 1 -->
<svg width="507pt" height="229pt"
 viewBox="0.00 0.00 507.00 229.00" xmlns="http://www.w3.org/2000/svg" xmlns:xlink="http://www.w3.org/1999/xlink">
<g id="graph0" class="graph" transform="scale(1 1) rotate(0) translate(4 225)">
<title>graphic</title>
<polygon fill="#ffffff" stroke="transparent" points="-4,4 -4,-225 503,-225 503,4 -4,4"/>
<!-- j:CourtActivityType -->
<g id="node1" class="node">
<title>j:CourtActivityType</title>
<text text-anchor="start" x="172.5" y="-99.9" font-family="Helvetica,sans-Serif" font-weight="bold" font-size="12.00" fill="#000000">j:CourtActivityType</text>
<g id="a_node1_0"><a xlink:href="../../j/CourtActivityCondition/#diagram" xlink:title="A condition related or attached to a court activity." target="_top">
<polygon fill="#ebebeb" stroke="transparent" points="171.5,-79.5 171.5,-94.5 494.5,-94.5 494.5,-79.5 171.5,-79.5"/>
<text text-anchor="start" x="172.5" y="-83.9" font-family="Helvetica,sans-Serif" font-size="12.00" fill="#000000">j:CourtActivityCondition: nc:ConditionType [0&#45;n]</text>
</a>
</g>
<g id="a_node1_1"><a xlink:href="../../j/CourtActivityCourtOrder/#diagram" xlink:title="A direction of a judge not included in a judgment, which determines some point or directs some step in proceedings." target="_top">
<text text-anchor="start" x="172.5" y="-68.9" font-family="Helvetica,sans-Serif" font-size="12.00" fill="#000000">j:CourtActivityCourtOrder: j:CourtOrderType [0&#45;n]</text>
</a>
</g>
<g id="a_node1_2"><a xlink:href="../../j/CourtActivityScheduleDay/#diagram" xlink:title="A schedule on which a court activity is to occur." target="_top">
<polygon fill="#ebebeb" stroke="transparent" points="171.5,-49.5 171.5,-64.5 494.5,-64.5 494.5,-49.5 171.5,-49.5"/>
<text text-anchor="start" x="172.5" y="-53.9" font-family="Helvetica,sans-Serif" font-size="12.00" fill="#000000">j:CourtActivityScheduleDay: nc:ScheduleDayType [0&#45;n]</text>
</a>
</g>
<g id="a_node1_3"><a xlink:href="../../j/CourtActivitySupervisingAgency/#diagram" xlink:title="A supervising agency associated with a court activity result, especially for reporting purposes." target="_top">
<text text-anchor="start" x="172.5" y="-38.9" font-family="Helvetica,sans-Serif" font-size="12.00" fill="#000000">j:CourtActivitySupervisingAgency: nc:OrganizationType [0&#45;n]</text>
</a>
</g>
<g id="a_node1_4"><a xlink:href="../../j/CourtCaseStatusText/#diagram" xlink:title="A piece of non&#45;dispositional descriptive information regarding activity within a court case; example &quot;failure to appear.&quot;" target="_top">
<polygon fill="#ebebeb" stroke="transparent" points="171.5,-19.5 171.5,-34.5 494.5,-34.5 494.5,-19.5 171.5,-19.5"/>
<text text-anchor="start" x="172.5" y="-23.9" font-family="Helvetica,sans-Serif" font-size="12.00" fill="#000000">j:CourtCaseStatusText: nc:TextType [0&#45;n]</text>
</a>
</g>
<g id="a_node1_5"><a xlink:href="../../j/CourtActivityAugmentationPoint/#diagram" xlink:title="An augmentation point for CourtActivityType." target="_top">
<text text-anchor="start" x="172.5" y="-8.9" font-family="Helvetica,sans-Serif" font-size="12.00" fill="#000000">j:CourtActivityAugmentationPoint [0&#45;n]</text>
</a>
</g>
<polygon fill="#ff0000" stroke="#ff0000" points="166.5,-94.5 166.5,-94.5 499.5,-94.5 499.5,-94.5 166.5,-94.5"/>
<polygon fill="none" stroke="#ff0000" stroke-width="5" points="168.5,-2.5 168.5,-112.5 496.5,-112.5 496.5,-2.5 168.5,-2.5"/>
</g>
<!-- Properties -->
<g id="node2" class="node">
<title>Properties</title>
<text text-anchor="start" x="2.5" y="-99.9" font-family="Helvetica,sans-Serif" font-weight="bold" font-size="12.00" fill="#000000">Properties</text>
<g id="a_node2_6"><a xlink:href="../../j/CourtActivity/#diagram" xlink:title="A court&#45;related action." target="_top">
<polygon fill="#ebebeb" stroke="transparent" points="1.5,-79.5 1.5,-94.5 106.5,-94.5 106.5,-79.5 1.5,-79.5"/>
<text text-anchor="start" x="2.5" y="-83.9" font-family="Helvetica,sans-Serif" font-size="12.00" fill="#000000">j:CourtActivity</text>
</a>
</g>
<g id="a_node2_7"><a xlink:href="../../j/CourtEventAction/#diagram" xlink:title="A court&#45;related action associated with a court case event." target="_top">
<text text-anchor="start" x="2.5" y="-68.9" font-family="Helvetica,sans-Serif" font-size="12.00" fill="#000000">j:CourtEventAction</text>
</a>
</g>
<g id="a_node2_8"><a xlink:href="../../j/CourtEventMotion/#diagram" xlink:title="A request made to a court for a ruling or an order." target="_top">
<polygon fill="#ebebeb" stroke="transparent" points="1.5,-49.5 1.5,-64.5 106.5,-64.5 106.5,-49.5 1.5,-49.5"/>
<text text-anchor="start" x="2.5" y="-53.9" font-family="Helvetica,sans-Serif" font-size="12.00" fill="#000000">j:CourtEventMotion</text>
</a>
</g>
<polygon fill="#000000" stroke="#000000" points=".5,-94.5 .5,-94.5 107.5,-94.5 107.5,-94.5 .5,-94.5"/>
<polygon fill="none" stroke="#000000" points="0,-48.5 0,-110.5 107,-110.5 107,-48.5 0,-48.5"/>
</g>
<!-- Properties&#45;&gt;j:CourtActivityType -->
<g id="edge1" class="edge">
<title>Properties:top&#45;&gt;j:CourtActivityType:top</title>
<path fill="none" stroke="#000000" d="M106.5,-102.5C131.6649,-102.5 140.3891,-102.5 161.3154,-102.5"/>
<polygon fill="#000000" stroke="#000000" points="161.5,-106.0001 171.5,-102.5 161.5,-99.0001 161.5,-106.0001"/>
<text text-anchor="middle" x="136.5" y="-105.9" font-family="Helvetica,sans-Serif" font-size="12.00" fill="#000000">type</text>
</g>
<!-- nc:ActivityType -->
<g id="node3" class="node">
<title>nc:ActivityType</title>
<g id="a_node3_9"><a xlink:href="../../nc/ActivityType/#diagram" xlink:title="A data type for a single or set of related actions, events, or process steps." target="_top">
<text text-anchor="start" x="292.5" y="-155.9" font-family="Helvetica,sans-Serif" font-size="12.00" fill="#000000">nc:ActivityType</text>
</a>
</g>
<polygon fill="none" stroke="#000000" points="290,-151 290,-168 375,-168 375,-151 290,-151"/>
</g>
<!-- nc:ActivityType&#45;&gt;j:CourtActivityType -->
<g id="edge2" class="edge">
<title>nc:ActivityType&#45;&gt;j:CourtActivityType</title>
<path fill="none" stroke="#000000" d="M332.5,-150.9079C332.5,-144.5936 332.5,-135.3582 332.5,-125.1194"/>
<polygon fill="#000000" stroke="#000000" points="336.0001,-125.058 332.5,-115.058 329.0001,-125.0581 336.0001,-125.058"/>
<text text-anchor="middle" x="323" y="-129.9" font-family="Helvetica,sans-Serif" font-size="12.00" fill="#000000">extension</text>
</g>
<!-- structures:ObjectType -->
<g id="node4" class="node">
<title>structures:ObjectType</title>
<g id="a_node4_10"><a xlink:href="../../structures/ObjectType/#diagram" xlink:title="A data type for a thing with its own lifespan that has some existence." target="_top">
<text text-anchor="start" x="273.5" y="-208.9" font-family="Helvetica,sans-Serif" font-size="12.00" fill="#000000">structures:ObjectType</text>
</a>
</g>
<polygon fill="none" stroke="#000000" points="271.5,-204 271.5,-221 393.5,-221 393.5,-204 271.5,-204"/>
</g>
<!-- structures:ObjectType&#45;&gt;nc:ActivityType -->
<g id="edge3" class="edge">
<title>structures:ObjectType&#45;&gt;nc:ActivityType</title>
<path fill="none" stroke="#000000" d="M332.5,-203.911C332.5,-197.0124 332.5,-187.0696 332.5,-178.34"/>
<polygon fill="#000000" stroke="#000000" points="336.0001,-178.2518 332.5,-168.2519 329.0001,-178.2519 336.0001,-178.2518"/>
<text text-anchor="middle" x="323" y="-182.9" font-family="Helvetica,sans-Serif" font-size="12.00" fill="#000000">extension</text>
</g>
</g>
</svg>
