<?xml version="1.0" encoding="UTF-8" standalone="no"?>
<!DOCTYPE svg PUBLIC "-//W3C//DTD SVG 1.1//EN"
 "http://www.w3.org/Graphics/SVG/1.1/DTD/svg11.dtd">
<!-- Generated by graphviz version 2.40.1 (20161225.0304)
 -->
<!-- Title: graphic Pages: 1 -->
<svg width="541pt" height="154pt"
 viewBox="0.00 0.00 541.00 153.50" xmlns="http://www.w3.org/2000/svg" xmlns:xlink="http://www.w3.org/1999/xlink">
<g id="graph0" class="graph" transform="scale(1 1) rotate(0) translate(4 149.5)">
<title>graphic</title>
<polygon fill="#ffffff" stroke="transparent" points="-4,4 -4,-149.5 537,-149.5 537,4 -4,4"/>
<!-- st:IntersectionJunctionGeometryCodeType -->
<g id="node1" class="node">
<title>st:IntersectionJunctionGeometryCodeType</title>
<text text-anchor="start" x="275.5" y="-25.4" font-family="Helvetica,sans-Serif" font-weight="bold" font-size="12.00" fill="#000000">st:IntersectionJunctionGeometryCodeType</text>
<g id="a_node1_0"><a xlink:href="../../structures/SimpleObjectAttributeGroup/#diagram" xlink:title="A group of attributes that are applicable to objects, to be used when defining a complex type that is an extension of a simple type." target="_top">
<polygon fill="#ebebeb" stroke="transparent" points="274.5,-5 274.5,-20 523.5,-20 523.5,-5 274.5,-5"/>
<text text-anchor="start" x="275.5" y="-9.4" font-family="Helvetica,sans-Serif" font-size="12.00" fill="#000000">structures:SimpleObjectAttributeGroup</text>
</a>
</g>
<polygon fill="#ff0000" stroke="#ff0000" points="269.5,-20 269.5,-20 528.5,-20 528.5,-20 269.5,-20"/>
<polygon fill="none" stroke="#ff0000" stroke-width="5" points="271.5,-2.5 271.5,-37.5 525.5,-37.5 525.5,-2.5 271.5,-2.5"/>
</g>
<!-- Properties -->
<g id="node2" class="node">
<title>Properties</title>
<text text-anchor="start" x="2.5" y="-25.4" font-family="Helvetica,sans-Serif" font-weight="bold" font-size="12.00" fill="#000000">Properties</text>
<g id="a_node2_1"><a xlink:href="../../st/IntersectionJunctionGeometryCode/#diagram" xlink:title="A category of geometric configuration that best describes the intersection/junction" target="_top">
<polygon fill="#ebebeb" stroke="transparent" points="1.5,-5 1.5,-20 204.5,-20 204.5,-5 1.5,-5"/>
<text text-anchor="start" x="2.5" y="-9.4" font-family="Helvetica,sans-Serif" font-size="12.00" fill="#000000">st:IntersectionJunctionGeometryCode</text>
</a>
</g>
<polygon fill="#000000" stroke="#000000" points=".5,-20 .5,-20 205.5,-20 205.5,-20 .5,-20"/>
<polygon fill="none" stroke="#000000" points="0,-4 0,-36 205,-36 205,-4 0,-4"/>
</g>
<!-- Properties&#45;&gt;st:IntersectionJunctionGeometryCodeType -->
<g id="edge1" class="edge">
<title>Properties:top&#45;&gt;st:IntersectionJunctionGeometryCodeType:top</title>
<path fill="none" stroke="#000000" d="M204.5,-28C231.9653,-28 241.2455,-28 264.4487,-28"/>
<polygon fill="#000000" stroke="#000000" points="264.5,-31.5001 274.5,-28 264.5,-24.5001 264.5,-31.5001"/>
<text text-anchor="middle" x="234.5" y="-31.4" font-family="Helvetica,sans-Serif" font-size="12.00" fill="#000000">type</text>
</g>
<!-- st:IntersectionJunctionGeometryCodeSimpleType -->
<g id="node3" class="node">
<title>st:IntersectionJunctionGeometryCodeSimpleType</title>
<g id="a_node3_2"><a xlink:href="../../st/IntersectionJunctionGeometryCodeSimpleType/#diagram" xlink:title="A data type indicating geometric configuration that best describes the intersection/junction" target="_top">
<text text-anchor="start" x="266.5" y="-80.4" font-family="Helvetica,sans-Serif" font-size="12.00" fill="#000000">st:IntersectionJunctionGeometryCodeSimpleType</text>
</a>
</g>
<polygon fill="none" stroke="#000000" points="264,-75.5 264,-92.5 533,-92.5 533,-75.5 264,-75.5"/>
</g>
<!-- st:IntersectionJunctionGeometryCodeSimpleType&#45;&gt;st:IntersectionJunctionGeometryCodeType -->
<g id="edge2" class="edge">
<title>st:IntersectionJunctionGeometryCodeSimpleType&#45;&gt;st:IntersectionJunctionGeometryCodeType</title>
<path fill="none" stroke="#000000" d="M398.5,-75.4351C398.5,-68.931 398.5,-59.5678 398.5,-50.3827"/>
<polygon fill="#000000" stroke="#000000" points="402.0001,-50.25 398.5,-40.25 395.0001,-50.25 402.0001,-50.25"/>
<text text-anchor="middle" x="389" y="-54.65" font-family="Helvetica,sans-Serif" font-size="12.00" fill="#000000">extension</text>
</g>
<!-- xs:token -->
<g id="node4" class="node">
<title>xs:token</title>
<g id="a_node4_3"><a xlink:href="../../xs/token/#diagram" xlink:title="&lt;TABLE&gt;" target="_top">
<text text-anchor="start" x="376.5" y="-133.4" font-family="Helvetica,sans-Serif" font-size="12.00" fill="#000000">xs:token</text>
</a>
</g>
<polygon fill="none" stroke="#000000" points="374,-128.5 374,-145.5 423,-145.5 423,-128.5 374,-128.5"/>
</g>
<!-- xs:token&#45;&gt;st:IntersectionJunctionGeometryCodeSimpleType -->
<g id="edge3" class="edge">
<title>xs:token&#45;&gt;st:IntersectionJunctionGeometryCodeSimpleType</title>
<path fill="none" stroke="#000000" d="M398.5,-128.411C398.5,-121.5124 398.5,-111.5696 398.5,-102.84"/>
<polygon fill="#000000" stroke="#000000" points="402.0001,-102.7518 398.5,-92.7519 395.0001,-102.7519 402.0001,-102.7518"/>
<text text-anchor="middle" x="389" y="-107.4" font-family="Helvetica,sans-Serif" font-size="12.00" fill="#000000">restriction</text>
</g>
</g>
</svg>
