<?xml version="1.0" encoding="UTF-8" standalone="no"?>
<!DOCTYPE svg PUBLIC "-//W3C//DTD SVG 1.1//EN"
 "http://www.w3.org/Graphics/SVG/1.1/DTD/svg11.dtd">
<!-- Generated by graphviz version 2.40.1 (20161225.0304)
 -->
<!-- Title: graphic Pages: 1 -->
<svg width="439pt" height="154pt"
 viewBox="0.00 0.00 439.00 153.50" xmlns="http://www.w3.org/2000/svg" xmlns:xlink="http://www.w3.org/1999/xlink">
<g id="graph0" class="graph" transform="scale(1 1) rotate(0) translate(4 149.5)">
<title>graphic</title>
<polygon fill="#ffffff" stroke="transparent" points="-4,4 -4,-149.5 435,-149.5 435,4 -4,4"/>
<!-- em:InaccessibleCauseCodeType -->
<g id="node1" class="node">
<title>em:InaccessibleCauseCodeType</title>
<text text-anchor="start" x="219" y="-25.4" font-family="Helvetica,sans-Serif" font-weight="bold" font-size="12.00" fill="#000000">em:InaccessibleCauseCodeType</text>
<g id="a_node1_0"><a xlink:href="../../structures/SimpleObjectAttributeGroup/#diagram" xlink:title="A group of attributes that are applicable to objects, to be used when defining a complex type that is an extension of a simple type." target="_top">
<polygon fill="#ebebeb" stroke="transparent" points="218,-5 218,-20 426,-20 426,-5 218,-5"/>
<text text-anchor="start" x="219" y="-9.4" font-family="Helvetica,sans-Serif" font-size="12.00" fill="#000000">structures:SimpleObjectAttributeGroup</text>
</a>
</g>
<polygon fill="#ff0000" stroke="#ff0000" points="213,-20 213,-20 431,-20 431,-20 213,-20"/>
<polygon fill="none" stroke="#ff0000" stroke-width="5" points="215.5,-2.5 215.5,-37.5 428.5,-37.5 428.5,-2.5 215.5,-2.5"/>
</g>
<!-- Properties -->
<g id="node2" class="node">
<title>Properties</title>
<text text-anchor="start" x="2" y="-25.4" font-family="Helvetica,sans-Serif" font-weight="bold" font-size="12.00" fill="#000000">Properties</text>
<g id="a_node2_1"><a xlink:href="../../em/InaccessibleCauseCode/#diagram" xlink:title="An element that specifies if the damaged area/item is assessed as inaccessible, why?" target="_top">
<polygon fill="#ebebeb" stroke="transparent" points="1,-5 1,-20 153,-20 153,-5 1,-5"/>
<text text-anchor="start" x="2" y="-9.4" font-family="Helvetica,sans-Serif" font-size="12.00" fill="#000000">em:InaccessibleCauseCode</text>
</a>
</g>
<polygon fill="#000000" stroke="#000000" points="0,-20 0,-20 154,-20 154,-20 0,-20"/>
<polygon fill="none" stroke="#000000" points="0,-4 0,-36 154,-36 154,-4 0,-4"/>
</g>
<!-- Properties&#45;&gt;em:InaccessibleCauseCodeType -->
<g id="edge1" class="edge">
<title>Properties:top&#45;&gt;em:InaccessibleCauseCodeType:top</title>
<path fill="none" stroke="#000000" d="M153,-28C178.1649,-28 186.8891,-28 207.8154,-28"/>
<polygon fill="#000000" stroke="#000000" points="208,-31.5001 218,-28 208,-24.5001 208,-31.5001"/>
<text text-anchor="middle" x="183.5" y="-31.4" font-family="Helvetica,sans-Serif" font-size="12.00" fill="#000000">type</text>
</g>
<!-- em:InaccessibleCauseCodeSimpleType -->
<g id="node3" class="node">
<title>em:InaccessibleCauseCodeSimpleType</title>
<g id="a_node3_2"><a xlink:href="../../em/InaccessibleCauseCodeSimpleType/#diagram" xlink:title="A data type code to specify if the damaged area/item is assessed as inaccessible, why?" target="_top">
<text text-anchor="start" x="216" y="-80.4" font-family="Helvetica,sans-Serif" font-size="12.00" fill="#000000">em:InaccessibleCauseCodeSimpleType</text>
</a>
</g>
<polygon fill="none" stroke="#000000" points="213.5,-75.5 213.5,-92.5 430.5,-92.5 430.5,-75.5 213.5,-75.5"/>
</g>
<!-- em:InaccessibleCauseCodeSimpleType&#45;&gt;em:InaccessibleCauseCodeType -->
<g id="edge2" class="edge">
<title>em:InaccessibleCauseCodeSimpleType&#45;&gt;em:InaccessibleCauseCodeType</title>
<path fill="none" stroke="#000000" d="M322,-75.4351C322,-68.931 322,-59.5678 322,-50.3827"/>
<polygon fill="#000000" stroke="#000000" points="325.5001,-50.25 322,-40.25 318.5001,-50.25 325.5001,-50.25"/>
<text text-anchor="middle" x="312.5" y="-54.65" font-family="Helvetica,sans-Serif" font-size="12.00" fill="#000000">extension</text>
</g>
<!-- xs:token -->
<g id="node4" class="node">
<title>xs:token</title>
<g id="a_node4_3"><a xlink:href="../../xs/token/#diagram" xlink:title="&lt;TABLE&gt;" target="_top">
<text text-anchor="start" x="300" y="-133.4" font-family="Helvetica,sans-Serif" font-size="12.00" fill="#000000">xs:token</text>
</a>
</g>
<polygon fill="none" stroke="#000000" points="297.5,-128.5 297.5,-145.5 346.5,-145.5 346.5,-128.5 297.5,-128.5"/>
</g>
<!-- xs:token&#45;&gt;em:InaccessibleCauseCodeSimpleType -->
<g id="edge3" class="edge">
<title>xs:token&#45;&gt;em:InaccessibleCauseCodeSimpleType</title>
<path fill="none" stroke="#000000" d="M322,-128.411C322,-121.5124 322,-111.5696 322,-102.84"/>
<polygon fill="#000000" stroke="#000000" points="325.5001,-102.7518 322,-92.7519 318.5001,-102.7519 325.5001,-102.7518"/>
<text text-anchor="middle" x="312.5" y="-107.4" font-family="Helvetica,sans-Serif" font-size="12.00" fill="#000000">restriction</text>
</g>
</g>
</svg>
