<?xml version="1.0" encoding="UTF-8" standalone="no"?>
<!DOCTYPE svg PUBLIC "-//W3C//DTD SVG 1.1//EN"
 "http://www.w3.org/Graphics/SVG/1.1/DTD/svg11.dtd">
<!-- Generated by graphviz version 2.40.1 (20161225.0304)
 -->
<!-- Title: graphic Pages: 1 -->
<svg width="576pt" height="281pt"
 viewBox="0.00 0.00 576.00 280.50" xmlns="http://www.w3.org/2000/svg" xmlns:xlink="http://www.w3.org/1999/xlink">
<g id="graph0" class="graph" transform="scale(1 1) rotate(0) translate(4 276.5)">
<title>graphic</title>
<polygon fill="#ffffff" stroke="transparent" points="-4,4 -4,-276.5 572,-276.5 572,4 -4,4"/>
<!-- it:TradePartyType -->
<g id="node1" class="node">
<title>it:TradePartyType</title>
<text text-anchor="start" x="138" y="-205.4" font-family="Helvetica,sans-Serif" font-weight="bold" font-size="12.00" fill="#000000">it:TradePartyType</text>
<g id="a_node1_0"><a xlink:href="../../it/CarrierSCACText/#diagram" xlink:title="A Standard Carrier Alpha Code if the trade party organization is a Carrier." target="_top">
<polygon fill="#ebebeb" stroke="transparent" points="137,-185 137,-200 563,-200 563,-185 137,-185"/>
<text text-anchor="start" x="138" y="-189.4" font-family="Helvetica,sans-Serif" font-size="12.00" fill="#000000">it:CarrierSCACText: nc:TextType [0&#45;n]</text>
</a>
</g>
<g id="a_node1_1"><a xlink:href="../../it/NTNPassportNumberID/#diagram" xlink:title="An identifier for a NTN Passport Number." target="_top">
<text text-anchor="start" x="138" y="-174.4" font-family="Helvetica,sans-Serif" font-size="12.00" fill="#000000">it:NTNPassportNumberID: niem&#45;xs:string [0&#45;n]</text>
</a>
</g>
<g id="a_node1_2"><a xlink:href="../../nc/InternationalTelephoneNumber/#diagram" xlink:title="An international telephone number." target="_top">
<polygon fill="#ebebeb" stroke="transparent" points="137,-155 137,-170 563,-170 563,-155 137,-155"/>
<text text-anchor="start" x="138" y="-159.4" font-family="Helvetica,sans-Serif" font-size="12.00" fill="#000000">nc:InternationalTelephoneNumber: nc:InternationalTelephoneNumberType [0&#45;n]</text>
</a>
</g>
<g id="a_node1_3"><a xlink:href="../../nc/AddressDeliveryPointText/#diagram" xlink:title="A single place or unit at which mail is delivered." target="_top">
<text text-anchor="start" x="138" y="-144.4" font-family="Helvetica,sans-Serif" font-size="12.00" fill="#000000">nc:AddressDeliveryPointText: nc:TextType [0&#45;n]</text>
</a>
</g>
<g id="a_node1_4"><a xlink:href="../../nc/AddressCityName/#diagram" xlink:title="A name of a city or town." target="_top">
<polygon fill="#ebebeb" stroke="transparent" points="137,-125 137,-140 563,-140 563,-125 137,-125"/>
<text text-anchor="start" x="138" y="-129.4" font-family="Helvetica,sans-Serif" font-size="12.00" fill="#000000">nc:AddressCityName: nc:ProperNameTextType [0&#45;n]</text>
</a>
</g>
<g id="a_node1_5"><a xlink:href="../../it/CHAINumberText/#diagram" xlink:title="An identifier used on customs forms in Pakistan." target="_top">
<text text-anchor="start" x="138" y="-114.4" font-family="Helvetica,sans-Serif" font-size="12.00" fill="#000000">it:CHAINumberText: nc:TextType [0&#45;n]</text>
</a>
</g>
<g id="a_node1_6"><a xlink:href="../../it/WarehouseLicenseNumberText/#diagram" xlink:title="A warehouse license number." target="_top">
<polygon fill="#ebebeb" stroke="transparent" points="137,-95 137,-110 563,-110 563,-95 137,-95"/>
<text text-anchor="start" x="138" y="-99.4" font-family="Helvetica,sans-Serif" font-size="12.00" fill="#000000">it:WarehouseLicenseNumberText: niem&#45;xs:string [0&#45;n]</text>
</a>
</g>
<g id="a_node1_7"><a xlink:href="../../it/CollectorateText/#diagram" xlink:title="A Customs Collectorate Identifier used on customs forms in a host country." target="_top">
<text text-anchor="start" x="138" y="-84.4" font-family="Helvetica,sans-Serif" font-size="12.00" fill="#000000">it:CollectorateText: nc:TextType [0&#45;n]</text>
</a>
</g>
<g id="a_node1_8"><a xlink:href="../../nc/OrganizationName/#diagram" xlink:title="A name of an organization." target="_top">
<polygon fill="#ebebeb" stroke="transparent" points="137,-65 137,-80 563,-80 563,-65 137,-65"/>
<text text-anchor="start" x="138" y="-69.4" font-family="Helvetica,sans-Serif" font-size="12.00" fill="#000000">nc:OrganizationName: nc:TextType [0&#45;n]</text>
</a>
</g>
<g id="a_node1_9"><a xlink:href="../../nc/AddressCountry/#diagram" xlink:title="A country, territory, dependency, or other such geopolitical subdivision of a location." target="_top">
<text text-anchor="start" x="138" y="-54.4" font-family="Helvetica,sans-Serif" font-size="12.00" fill="#000000">nc:AddressCountry: nc:CountryType [0&#45;n]</text>
</a>
</g>
<g id="a_node1_10"><a xlink:href="../../nc/AddressState/#diagram" xlink:title="A state, commonwealth, province, or other such geopolitical subdivision of a country." target="_top">
<polygon fill="#ebebeb" stroke="transparent" points="137,-35 137,-50 563,-50 563,-35 137,-35"/>
<text text-anchor="start" x="138" y="-39.4" font-family="Helvetica,sans-Serif" font-size="12.00" fill="#000000">nc:AddressState: nc:StateType [0&#45;n]</text>
</a>
</g>
<g id="a_node1_11"><a xlink:href="../../cbrn/RemarkText/#diagram" xlink:title="A placeholder for comments intended to help the consumer of the data to understand better the information encapsulated by the parent element." target="_top">
<text text-anchor="start" x="138" y="-24.4" font-family="Helvetica,sans-Serif" font-size="12.00" fill="#000000">cbrn:RemarkText: nc:TextType [0&#45;n]</text>
</a>
</g>
<g id="a_node1_12"><a xlink:href="../../it/TradePartyAugmentationPoint/#diagram" xlink:title="An augmentation point for TradePartyType." target="_top">
<polygon fill="#ebebeb" stroke="transparent" points="137,-5 137,-20 563,-20 563,-5 137,-5"/>
<text text-anchor="start" x="138" y="-9.4" font-family="Helvetica,sans-Serif" font-size="12.00" fill="#000000">it:TradePartyAugmentationPoint [0&#45;n]</text>
</a>
</g>
<polygon fill="#ff0000" stroke="#ff0000" points="132,-200 132,-200 568,-200 568,-200 132,-200"/>
<polygon fill="none" stroke="#ff0000" stroke-width="5" points="134.5,-2.5 134.5,-217.5 565.5,-217.5 565.5,-2.5 134.5,-2.5"/>
</g>
<!-- Properties -->
<g id="node2" class="node">
<title>Properties</title>
<text text-anchor="start" x="2.5" y="-205.4" font-family="Helvetica,sans-Serif" font-weight="bold" font-size="12.00" fill="#000000">Properties</text>
<g id="a_node2_13"><a xlink:href="../../it/TradeParty/#diagram" xlink:title="A set of information about a trading party." target="_top">
<polygon fill="#ebebeb" stroke="transparent" points="1.5,-185 1.5,-200 72.5,-200 72.5,-185 1.5,-185"/>
<text text-anchor="start" x="2.5" y="-189.4" font-family="Helvetica,sans-Serif" font-size="12.00" fill="#000000">it:TradeParty</text>
</a>
</g>
<polygon fill="#000000" stroke="#000000" points=".5,-200 .5,-200 73.5,-200 73.5,-200 .5,-200"/>
<polygon fill="none" stroke="#000000" points="0,-184 0,-216 73,-216 73,-184 0,-184"/>
</g>
<!-- Properties&#45;&gt;it:TradePartyType -->
<g id="edge1" class="edge">
<title>Properties:top&#45;&gt;it:TradePartyType:top</title>
<path fill="none" stroke="#000000" d="M72.5,-208C97.4714,-208 106.1284,-208 126.8937,-208"/>
<polygon fill="#000000" stroke="#000000" points="127,-211.5001 137,-208 127,-204.5001 127,-211.5001"/>
<text text-anchor="middle" x="102.5" y="-211.4" font-family="Helvetica,sans-Serif" font-size="12.00" fill="#000000">type</text>
</g>
<!-- structures:ObjectType -->
<g id="node3" class="node">
<title>structures:ObjectType</title>
<g id="a_node3_14"><a xlink:href="../../structures/ObjectType/#diagram" xlink:title="A data type for a thing with its own lifespan that has some existence." target="_top">
<text text-anchor="start" x="291" y="-260.4" font-family="Helvetica,sans-Serif" font-size="12.00" fill="#000000">structures:ObjectType</text>
</a>
</g>
<polygon fill="none" stroke="#000000" points="289,-255.5 289,-272.5 411,-272.5 411,-255.5 289,-255.5"/>
</g>
<!-- structures:ObjectType&#45;&gt;it:TradePartyType -->
<g id="edge2" class="edge">
<title>structures:ObjectType&#45;&gt;it:TradePartyType</title>
<path fill="none" stroke="#000000" d="M350,-255.4733C350,-249.5087 350,-240.7912 350,-230.5402"/>
<polygon fill="#000000" stroke="#000000" points="353.5001,-230.2817 350,-220.2817 346.5001,-230.2817 353.5001,-230.2817"/>
<text text-anchor="middle" x="340.5" y="-234.65" font-family="Helvetica,sans-Serif" font-size="12.00" fill="#000000">extension</text>
</g>
</g>
</svg>
