<?xml version="1.0" encoding="UTF-8" standalone="no"?>
<!DOCTYPE svg PUBLIC "-//W3C//DTD SVG 1.1//EN"
 "http://www.w3.org/Graphics/SVG/1.1/DTD/svg11.dtd">
<!-- Generated by graphviz version 2.40.1 (20161225.0304)
 -->
<!-- Title: graphic Pages: 1 -->
<svg width="540pt" height="45pt"
 viewBox="0.00 0.00 540.00 45.00" xmlns="http://www.w3.org/2000/svg" xmlns:xlink="http://www.w3.org/1999/xlink">
<g id="graph0" class="graph" transform="scale(1 1) rotate(0) translate(4 41)">
<title>graphic</title>
<polygon fill="#ffffff" stroke="transparent" points="-4,4 -4,-41 536,-41 536,4 -4,4"/>
<!-- j:PersonMedicalOperationText -->
<g id="node1" class="node">
<title>j:PersonMedicalOperationText</title>
<text text-anchor="start" x="222" y="-21.4" font-family="Helvetica,sans-Serif" font-weight="bold" font-size="12.00" fill="#000000">j:PersonMedicalOperationText</text>
<polygon fill="none" stroke="#ff0000" stroke-width="5" points="218.5,-14 218.5,-34 399.5,-34 399.5,-14 218.5,-14"/>
</g>
<!-- nc:TextType -->
<g id="node3" class="node">
<title>nc:TextType</title>
<g id="a_node3_0"><a xlink:href="../../nc/TextType/#diagram" xlink:title="A data type for a character string." target="_top">
<text text-anchor="start" x="463.5" y="-20.4" font-family="Helvetica,sans-Serif" font-size="12.00" fill="#000000">nc:TextType</text>
</a>
</g>
<polygon fill="none" stroke="#000000" points="461,-15.5 461,-32.5 532,-32.5 532,-15.5 461,-15.5"/>
</g>
<!-- j:PersonMedicalOperationText&#45;&gt;nc:TextType -->
<g id="edge2" class="edge">
<title>j:PersonMedicalOperationText&#45;&gt;nc:TextType</title>
<path fill="none" stroke="#000000" d="M402.2007,-24C419.0631,-24 435.9492,-24 450.6768,-24"/>
<polygon fill="#000000" stroke="#000000" points="450.9881,-27.5001 460.9881,-24 450.9881,-20.5001 450.9881,-27.5001"/>
<text text-anchor="middle" x="431.5" y="-27.4" font-family="Helvetica,sans-Serif" font-size="12.00" fill="#000000">type</text>
</g>
<!-- Types -->
<g id="node2" class="node">
<title>Types</title>
<text text-anchor="start" x="2.5" y="-21.4" font-family="Helvetica,sans-Serif" font-weight="bold" font-size="12.00" fill="#000000">Types</text>
<g id="a_node2_1"><a xlink:href="../../j/PersonAugmentationType/#diagram" xlink:title="A data type for additional information about a person." target="_top">
<polygon fill="#ebebeb" stroke="transparent" points="1.5,-1 1.5,-16 148.5,-16 148.5,-1 1.5,-1"/>
<text text-anchor="start" x="2.5" y="-5.4" font-family="Helvetica,sans-Serif" font-size="12.00" fill="#000000">j:PersonAugmentationType</text>
</a>
</g>
<polygon fill="#000000" stroke="#000000" points=".5,-16 .5,-16 149.5,-16 149.5,-16 .5,-16"/>
<polygon fill="none" stroke="#000000" points="0,0 0,-32 149,-32 149,0 0,0"/>
</g>
<!-- Types&#45;&gt;j:PersonMedicalOperationText -->
<g id="edge1" class="edge">
<title>Types:top&#45;&gt;j:PersonMedicalOperationText</title>
<path fill="none" stroke="#000000" d="M148.5,-24C166.9233,-24 186.5361,-24 205.4951,-24"/>
<polygon fill="#000000" stroke="#000000" points="205.6433,-27.5001 215.6432,-24 205.6432,-20.5001 205.6433,-27.5001"/>
<text text-anchor="middle" x="182.5" y="-27.4" font-family="Helvetica,sans-Serif" font-size="12.00" fill="#000000">has&#45;a</text>
</g>
</g>
</svg>
