<?xml version="1.0" encoding="UTF-8" standalone="no"?>
<!DOCTYPE svg PUBLIC "-//W3C//DTD SVG 1.1//EN"
 "http://www.w3.org/Graphics/SVG/1.1/DTD/svg11.dtd">
<!-- Generated by graphviz version 2.40.1 (20161225.0304)
 -->
<!-- Title: graphic Pages: 1 -->
<svg width="633pt" height="116pt"
 viewBox="0.00 0.00 633.00 116.00" xmlns="http://www.w3.org/2000/svg" xmlns:xlink="http://www.w3.org/1999/xlink">
<g id="graph0" class="graph" transform="scale(1 1) rotate(0) translate(4 112)">
<title>graphic</title>
<polygon fill="#ffffff" stroke="transparent" points="-4,4 -4,-112 629,-112 629,4 -4,4"/>
<!-- em:AlertSupplementaryDigitalResourceType -->
<g id="node1" class="node">
<title>em:AlertSupplementaryDigitalResourceType</title>
<text text-anchor="start" x="280.5" y="-39.9" font-family="Helvetica,sans-Serif" font-weight="bold" font-size="12.00" fill="#000000">em:AlertSupplementaryDigitalResourceType</text>
<g id="a_node1_0"><a xlink:href="../../em/BinaryChecksumDigestID/#diagram" xlink:title="An identifier representing the digital digest (&#39;hash&#39;) computed from the resource file. Calculated using the Secure Hash Algorithm (SHA&#45;1) per [FIPS 180&#45;2]" target="_top">
<polygon fill="#ebebeb" stroke="transparent" points="279.5,-19.5 279.5,-34.5 620.5,-34.5 620.5,-19.5 279.5,-19.5"/>
<text text-anchor="start" x="280.5" y="-23.9" font-family="Helvetica,sans-Serif" font-size="12.00" fill="#000000">em:BinaryChecksumDigestID: nc:IdentificationType [0&#45;n]</text>
</a>
</g>
<g id="a_node1_1"><a xlink:href="../../em/AlertSupplementaryDigitalResourceAugmentationPoint/#diagram" xlink:title="An augmentation point for AlertSupplementaryDigitalResourceType" target="_top">
<text text-anchor="start" x="280.5" y="-8.9" font-family="Helvetica,sans-Serif" font-size="12.00" fill="#000000">em:AlertSupplementaryDigitalResourceAugmentationPoint [0&#45;n]</text>
</a>
</g>
<polygon fill="#ff0000" stroke="#ff0000" points="274.5,-34.5 274.5,-34.5 625.5,-34.5 625.5,-34.5 274.5,-34.5"/>
<polygon fill="none" stroke="#ff0000" stroke-width="5" points="276.5,-2.5 276.5,-52.5 622.5,-52.5 622.5,-2.5 276.5,-2.5"/>
</g>
<!-- Properties -->
<g id="node2" class="node">
<title>Properties</title>
<text text-anchor="start" x="2.5" y="-39.9" font-family="Helvetica,sans-Serif" font-weight="bold" font-size="12.00" fill="#000000">Properties</text>
<g id="a_node2_2"><a xlink:href="../../em/AlertSupplementaryDigitalResource/#diagram" xlink:title="A digital representation of an object" target="_top">
<polygon fill="#ebebeb" stroke="transparent" points="1.5,-19.5 1.5,-34.5 214.5,-34.5 214.5,-19.5 1.5,-19.5"/>
<text text-anchor="start" x="2.5" y="-23.9" font-family="Helvetica,sans-Serif" font-size="12.00" fill="#000000">em:AlertSupplementaryDigitalResource</text>
</a>
</g>
<polygon fill="#000000" stroke="#000000" points=".5,-34.5 .5,-34.5 215.5,-34.5 215.5,-34.5 .5,-34.5"/>
<polygon fill="none" stroke="#000000" points="0,-18.5 0,-50.5 215,-50.5 215,-18.5 0,-18.5"/>
</g>
<!-- Properties&#45;&gt;em:AlertSupplementaryDigitalResourceType -->
<g id="edge1" class="edge">
<title>Properties:top&#45;&gt;em:AlertSupplementaryDigitalResourceType:top</title>
<path fill="none" stroke="#000000" d="M214.5,-42.5C239.6649,-42.5 248.3891,-42.5 269.3154,-42.5"/>
<polygon fill="#000000" stroke="#000000" points="269.5,-46.0001 279.5,-42.5 269.5,-39.0001 269.5,-46.0001"/>
<text text-anchor="middle" x="244.5" y="-45.9" font-family="Helvetica,sans-Serif" font-size="12.00" fill="#000000">type</text>
</g>
<!-- structures:ObjectType -->
<g id="node3" class="node">
<title>structures:ObjectType</title>
<g id="a_node3_3"><a xlink:href="../../structures/ObjectType/#diagram" xlink:title="A data type for a thing with its own lifespan that has some existence." target="_top">
<text text-anchor="start" x="390.5" y="-95.9" font-family="Helvetica,sans-Serif" font-size="12.00" fill="#000000">structures:ObjectType</text>
</a>
</g>
<polygon fill="none" stroke="#000000" points="388.5,-91 388.5,-108 510.5,-108 510.5,-91 388.5,-91"/>
</g>
<!-- structures:ObjectType&#45;&gt;em:AlertSupplementaryDigitalResourceType -->
<g id="edge2" class="edge">
<title>structures:ObjectType&#45;&gt;em:AlertSupplementaryDigitalResourceType</title>
<path fill="none" stroke="#000000" d="M449.5,-90.8151C449.5,-84.3271 449.5,-74.9677 449.5,-65.4273"/>
<polygon fill="#000000" stroke="#000000" points="453.0001,-65.1311 449.5,-55.1312 446.0001,-65.1312 453.0001,-65.1311"/>
<text text-anchor="middle" x="440" y="-69.9" font-family="Helvetica,sans-Serif" font-size="12.00" fill="#000000">extension</text>
</g>
</g>
</svg>
