<?xml version="1.0" encoding="UTF-8" standalone="no"?>
<!DOCTYPE svg PUBLIC "-//W3C//DTD SVG 1.1//EN"
 "http://www.w3.org/Graphics/SVG/1.1/DTD/svg11.dtd">
<!-- Generated by graphviz version 2.40.1 (20161225.0304)
 -->
<!-- Title: graphic Pages: 1 -->
<svg width="615pt" height="60pt"
 viewBox="0.00 0.00 615.00 59.50" xmlns="http://www.w3.org/2000/svg" xmlns:xlink="http://www.w3.org/1999/xlink">
<g id="graph0" class="graph" transform="scale(1 1) rotate(0) translate(4 55.5)">
<title>graphic</title>
<polygon fill="#ffffff" stroke="transparent" points="-4,4 -4,-55.5 611,-55.5 611,4 -4,4"/>
<!-- j:ServiceRecipientOrganization -->
<g id="node1" class="node">
<title>j:ServiceRecipientOrganization</title>
<text text-anchor="start" x="249" y="-35.9" font-family="Helvetica,sans-Serif" font-weight="bold" font-size="12.00" fill="#000000">j:ServiceRecipientOrganization</text>
<polygon fill="none" stroke="#ff0000" stroke-width="5" points="245.5,-28.5 245.5,-48.5 430.5,-48.5 430.5,-28.5 245.5,-28.5"/>
</g>
<!-- nc:OrganizationType -->
<g id="node3" class="node">
<title>nc:OrganizationType</title>
<g id="a_node3_0"><a xlink:href="../../nc/OrganizationType/#diagram" xlink:title="A data type for a body of people organized for a particular purpose." target="_top">
<text text-anchor="start" x="494.5" y="-34.9" font-family="Helvetica,sans-Serif" font-size="12.00" fill="#000000">nc:OrganizationType</text>
</a>
</g>
<polygon fill="none" stroke="#000000" points="492,-30 492,-47 607,-47 607,-30 492,-30"/>
</g>
<!-- j:ServiceRecipientOrganization&#45;&gt;nc:OrganizationType -->
<g id="edge2" class="edge">
<title>j:ServiceRecipientOrganization&#45;&gt;nc:OrganizationType</title>
<path fill="none" stroke="#000000" d="M433.2318,-38.5C449.4454,-38.5 465.992,-38.5 481.3269,-38.5"/>
<polygon fill="#000000" stroke="#000000" points="481.7308,-42.0001 491.7307,-38.5 481.7307,-35.0001 481.7308,-42.0001"/>
<text text-anchor="middle" x="462.5" y="-41.9" font-family="Helvetica,sans-Serif" font-size="12.00" fill="#000000">type</text>
</g>
<!-- Types -->
<g id="node2" class="node">
<title>Types</title>
<text text-anchor="start" x="2" y="-35.9" font-family="Helvetica,sans-Serif" font-weight="bold" font-size="12.00" fill="#000000">Types</text>
<g id="a_node2_1"><a xlink:href="../../j/IncomeSourceAssociationType/#diagram" xlink:title="A data type for a relationship between an entity (person or organization) that receives income and an entity from which income is derived." target="_top">
<polygon fill="#ebebeb" stroke="transparent" points="1,-15.5 1,-30.5 175,-30.5 175,-15.5 1,-15.5"/>
<text text-anchor="start" x="2" y="-19.9" font-family="Helvetica,sans-Serif" font-size="12.00" fill="#000000">j:IncomeSourceAssociationType</text>
</a>
</g>
<g id="a_node2_2"><a xlink:href="../../j/ServiceAssociationType/#diagram" xlink:title="A data type for a relationship between a service provider entity (person or organization) and a service recipient entity." target="_top">
<text text-anchor="start" x="2" y="-4.9" font-family="Helvetica,sans-Serif" font-size="12.00" fill="#000000">j:ServiceAssociationType</text>
</a>
</g>
<polygon fill="#000000" stroke="#000000" points="0,-30.5 0,-30.5 176,-30.5 176,-30.5 0,-30.5"/>
<polygon fill="none" stroke="#000000" points="0,0 0,-47 176,-47 176,0 0,0"/>
</g>
<!-- Types&#45;&gt;j:ServiceRecipientOrganization -->
<g id="edge1" class="edge">
<title>Types:top&#45;&gt;j:ServiceRecipientOrganization</title>
<path fill="none" stroke="#000000" d="M175,-38.5C193.5903,-38.5 213.3733,-38.5 232.5125,-38.5"/>
<polygon fill="#000000" stroke="#000000" points="232.7589,-42.0001 242.7589,-38.5 232.7588,-35.0001 232.7589,-42.0001"/>
<text text-anchor="middle" x="209.5" y="-41.9" font-family="Helvetica,sans-Serif" font-size="12.00" fill="#000000">has&#45;a</text>
</g>
</g>
</svg>
