<?xml version="1.0" encoding="UTF-8" standalone="no"?>
<!DOCTYPE svg PUBLIC "-//W3C//DTD SVG 1.1//EN"
 "http://www.w3.org/Graphics/SVG/1.1/DTD/svg11.dtd">
<!-- Generated by graphviz version 2.40.1 (20161225.0304)
 -->
<!-- Title: graphic Pages: 1 -->
<svg width="499pt" height="101pt"
 viewBox="0.00 0.00 499.00 101.00" xmlns="http://www.w3.org/2000/svg" xmlns:xlink="http://www.w3.org/1999/xlink">
<g id="graph0" class="graph" transform="scale(1 1) rotate(0) translate(4 97)">
<title>graphic</title>
<polygon fill="#ffffff" stroke="transparent" points="-4,4 -4,-97 495,-97 495,4 -4,4"/>
<!-- nc:EquipmentAugmentationPoint -->
<g id="node1" class="node">
<title>nc:EquipmentAugmentationPoint</title>
<text text-anchor="start" x="236.5" y="-77.4" font-family="Helvetica,sans-Serif" font-weight="bold" font-size="12.00" fill="#000000">nc:EquipmentAugmentationPoint</text>
<polygon fill="none" stroke="#ff0000" stroke-width="5" points="232.5,-70 232.5,-90 430.5,-90 430.5,-70 232.5,-70"/>
</g>
<!-- SubstitutableElements -->
<g id="node3" class="node">
<title>SubstitutableElements</title>
<text text-anchor="start" x="174.5" y="-21.4" font-family="Helvetica,sans-Serif" font-weight="bold" font-size="12.00" fill="#000000">Substitutable elements</text>
<g id="a_node3_0"><a xlink:href="../../it/EquipmentAugmentation/#diagram" xlink:title="Additional information about equipment." target="_top">
<polygon fill="#ebebeb" stroke="transparent" points="173.5,-1 173.5,-16 490.5,-16 490.5,-1 173.5,-1"/>
<text text-anchor="start" x="174.5" y="-5.4" font-family="Helvetica,sans-Serif" font-size="12.00" fill="#000000">it:EquipmentAugmentation: it:EquipmentAugmentationType</text>
</a>
</g>
<polygon fill="#000000" stroke="#000000" points="172.5,-16 172.5,-16 491.5,-16 491.5,-16 172.5,-16"/>
<polygon fill="none" stroke="#000000" points="172,0 172,-32 491,-32 491,0 172,0"/>
</g>
<!-- nc:EquipmentAugmentationPoint&#45;&gt;SubstitutableElements -->
<g id="edge2" class="edge">
<title>nc:EquipmentAugmentationPoint&#45;&gt;SubstitutableElements</title>
<path fill="none" stroke="#000000" d="M331.5,-57.3063C331.5,-48.9972 331.5,-39.7712 331.5,-32.1499"/>
<polygon fill="#000000" stroke="#000000" points="328.0001,-57.4892 331.5,-67.4892 335.0001,-57.4892 328.0001,-57.4892"/>
<text text-anchor="middle" x="322" y="-46.65" font-family="Helvetica,sans-Serif" font-size="12.00" fill="#000000">substitutable for</text>
</g>
<!-- Types -->
<g id="node2" class="node">
<title>Types</title>
<text text-anchor="start" x="2.5" y="-77.4" font-family="Helvetica,sans-Serif" font-weight="bold" font-size="12.00" fill="#000000">Types</text>
<g id="a_node2_1"><a xlink:href="../../nc/EquipmentType/#diagram" xlink:title="A data type for a tangible property (other than land or buildings) of more or less durable nature which is useful in carrying on the operations of a business." target="_top">
<polygon fill="#ebebeb" stroke="transparent" points="1.5,-57 1.5,-72 104.5,-72 104.5,-57 1.5,-57"/>
<text text-anchor="start" x="2.5" y="-61.4" font-family="Helvetica,sans-Serif" font-size="12.00" fill="#000000">nc:EquipmentType</text>
</a>
</g>
<polygon fill="#000000" stroke="#000000" points=".5,-72 .5,-72 105.5,-72 105.5,-72 .5,-72"/>
<polygon fill="none" stroke="#000000" points="0,-56 0,-88 105,-88 105,-56 0,-56"/>
</g>
<!-- Types&#45;&gt;nc:EquipmentAugmentationPoint -->
<g id="edge1" class="edge">
<title>Types:top&#45;&gt;nc:EquipmentAugmentationPoint</title>
<path fill="none" stroke="#000000" d="M104.5,-80C141.9639,-80 182.9057,-80 219.5765,-80"/>
<polygon fill="#000000" stroke="#000000" points="219.7999,-83.5001 229.7998,-80 219.7998,-76.5001 219.7999,-83.5001"/>
<text text-anchor="middle" x="138.5" y="-83.4" font-family="Helvetica,sans-Serif" font-size="12.00" fill="#000000">has&#45;a</text>
</g>
</g>
</svg>
