<?xml version="1.0" encoding="UTF-8" standalone="no"?>
<!DOCTYPE svg PUBLIC "-//W3C//DTD SVG 1.1//EN"
 "http://www.w3.org/Graphics/SVG/1.1/DTD/svg11.dtd">
<!-- Generated by graphviz version 2.40.1 (20161225.0304)
 -->
<!-- Title: graphic Pages: 1 -->
<svg width="379pt" height="86pt"
 viewBox="0.00 0.00 379.00 86.00" xmlns="http://www.w3.org/2000/svg" xmlns:xlink="http://www.w3.org/1999/xlink">
<g id="graph0" class="graph" transform="scale(1 1) rotate(0) translate(4 82)">
<title>graphic</title>
<polygon fill="#ffffff" stroke="transparent" points="-4,4 -4,-82 375,-82 375,4 -4,4"/>
<!-- scr:EncounterStatusCode -->
<g id="node1" class="node">
<title>scr:EncounterStatusCode</title>
<text text-anchor="start" x="6.5" y="-9.9" font-family="Helvetica,sans-Serif" font-weight="bold" font-size="12.00" fill="#000000">scr:EncounterStatusCode</text>
<polygon fill="none" stroke="#ff0000" stroke-width="5" points="2.5,-2.5 2.5,-22.5 158.5,-22.5 158.5,-2.5 2.5,-2.5"/>
</g>
<!-- scr:RiskCategoryCodeType -->
<g id="node3" class="node">
<title>scr:RiskCategoryCodeType</title>
<g id="a_node3_0"><a xlink:href="../../scr/RiskCategoryCodeType/#diagram" xlink:title="A data type describing the kinds of risk categories for screening purposes" target="_top">
<text text-anchor="start" x="222.5" y="-8.9" font-family="Helvetica,sans-Serif" font-size="12.00" fill="#000000">scr:RiskCategoryCodeType</text>
</a>
</g>
<polygon fill="none" stroke="#000000" points="220,-4 220,-21 371,-21 371,-4 220,-4"/>
</g>
<!-- scr:EncounterStatusCode&#45;&gt;scr:RiskCategoryCodeType -->
<g id="edge2" class="edge">
<title>scr:EncounterStatusCode&#45;&gt;scr:RiskCategoryCodeType</title>
<path fill="none" stroke="#000000" d="M161.1698,-12.5C176.9065,-12.5 193.4628,-12.5 209.3687,-12.5"/>
<polygon fill="#000000" stroke="#000000" points="209.7121,-16.0001 219.712,-12.5 209.712,-9.0001 209.7121,-16.0001"/>
<text text-anchor="middle" x="190.5" y="-15.9" font-family="Helvetica,sans-Serif" font-size="12.00" fill="#000000">type</text>
</g>
<!-- SubstitutionGroup -->
<g id="node2" class="node">
<title>SubstitutionGroup</title>
<g id="a_node2_1"><a xlink:href="../../scr/EncounterStatusAbstract/#diagram" xlink:title="A data concept for a status of an individual encounter as an aggregation of any associated derogatory information." target="_top">
<text text-anchor="start" x="4.5" y="-65.9" font-family="Helvetica,sans-Serif" font-size="12.00" fill="#000000">scr:EncounterStatusAbstract</text>
</a>
</g>
<polygon fill="none" stroke="#000000" points="2,-61 2,-78 159,-78 159,-61 2,-61"/>
</g>
<!-- SubstitutionGroup&#45;&gt;scr:EncounterStatusCode -->
<g id="edge1" class="edge">
<title>SubstitutionGroup&#45;&gt;scr:EncounterStatusCode</title>
<path fill="none" stroke="#000000" d="M80.5,-50.9163C80.5,-42.4809 80.5,-32.7214 80.5,-25.1501"/>
<polygon fill="#000000" stroke="#000000" points="77.0001,-50.9472 80.5,-60.9473 84.0001,-50.9473 77.0001,-50.9472"/>
<text text-anchor="middle" x="71" y="-39.9" font-family="Helvetica,sans-Serif" font-size="12.00" fill="#000000">substitution group</text>
</g>
</g>
</svg>
