<?xml version="1.0" encoding="UTF-8" standalone="no"?>
<!DOCTYPE svg PUBLIC "-//W3C//DTD SVG 1.1//EN"
 "http://www.w3.org/Graphics/SVG/1.1/DTD/svg11.dtd">
<!-- Generated by graphviz version 2.40.1 (20161225.0304)
 -->
<!-- Title: graphic Pages: 1 -->
<svg width="444pt" height="101pt"
 viewBox="0.00 0.00 444.00 101.00" xmlns="http://www.w3.org/2000/svg" xmlns:xlink="http://www.w3.org/1999/xlink">
<g id="graph0" class="graph" transform="scale(1 1) rotate(0) translate(4 97)">
<title>graphic</title>
<polygon fill="#ffffff" stroke="transparent" points="-4,4 -4,-97 440,-97 440,4 -4,4"/>
<!-- j:PassagePointSecurityStatusAbstract -->
<g id="node1" class="node">
<title>j:PassagePointSecurityStatusAbstract</title>
<text text-anchor="start" x="198" y="-77.4" font-family="Helvetica,sans-Serif" font-weight="bold" font-size="12.00" fill="#000000">j:PassagePointSecurityStatusAbstract</text>
<polygon fill="none" stroke="#ff0000" stroke-width="5" points="194,-70 194,-90 420,-90 420,-70 194,-70"/>
</g>
<!-- SubstitutableElements -->
<g id="node3" class="node">
<title>SubstitutableElements</title>
<text text-anchor="start" x="180" y="-21.4" font-family="Helvetica,sans-Serif" font-weight="bold" font-size="12.00" fill="#000000">Substitutable elements</text>
<g id="a_node3_0"><a xlink:href="../../j/PassagePointSecurityStatusText/#diagram" xlink:title="A status of the security system at a passage point." target="_top">
<polygon fill="#ebebeb" stroke="transparent" points="179,-1 179,-16 435,-16 435,-1 179,-1"/>
<text text-anchor="start" x="180" y="-5.4" font-family="Helvetica,sans-Serif" font-size="12.00" fill="#000000">j:PassagePointSecurityStatusText: nc:TextType</text>
</a>
</g>
<polygon fill="#000000" stroke="#000000" points="178,-16 178,-16 436,-16 436,-16 178,-16"/>
<polygon fill="none" stroke="#000000" points="178,0 178,-32 436,-32 436,0 178,0"/>
</g>
<!-- j:PassagePointSecurityStatusAbstract&#45;&gt;SubstitutableElements -->
<g id="edge2" class="edge">
<title>j:PassagePointSecurityStatusAbstract&#45;&gt;SubstitutableElements</title>
<path fill="none" stroke="#000000" d="M307,-57.3063C307,-48.9972 307,-39.7712 307,-32.1499"/>
<polygon fill="#000000" stroke="#000000" points="303.5001,-57.4892 307,-67.4892 310.5001,-57.4892 303.5001,-57.4892"/>
<text text-anchor="middle" x="297.5" y="-46.65" font-family="Helvetica,sans-Serif" font-size="12.00" fill="#000000">substitutable for</text>
</g>
<!-- Types -->
<g id="node2" class="node">
<title>Types</title>
<text text-anchor="start" x="2.5" y="-77.4" font-family="Helvetica,sans-Serif" font-weight="bold" font-size="12.00" fill="#000000">Types</text>
<g id="a_node2_1"><a xlink:href="../../j/PassagePointType/#diagram" xlink:title="A data type for a point of entry or a point of exit to a location or structure." target="_top">
<polygon fill="#ebebeb" stroke="transparent" points="1.5,-57 1.5,-72 110.5,-72 110.5,-57 1.5,-57"/>
<text text-anchor="start" x="2.5" y="-61.4" font-family="Helvetica,sans-Serif" font-size="12.00" fill="#000000">j:PassagePointType</text>
</a>
</g>
<polygon fill="#000000" stroke="#000000" points=".5,-72 .5,-72 111.5,-72 111.5,-72 .5,-72"/>
<polygon fill="none" stroke="#000000" points="0,-56 0,-88 111,-88 111,-56 0,-56"/>
</g>
<!-- Types&#45;&gt;j:PassagePointSecurityStatusAbstract -->
<g id="edge1" class="edge">
<title>Types:top&#45;&gt;j:PassagePointSecurityStatusAbstract</title>
<path fill="none" stroke="#000000" d="M110.5,-80C133.4101,-80 157.8226,-80 181.3728,-80"/>
<polygon fill="#000000" stroke="#000000" points="181.4061,-83.5001 191.4061,-80 181.406,-76.5001 181.4061,-83.5001"/>
<text text-anchor="middle" x="144.5" y="-83.4" font-family="Helvetica,sans-Serif" font-size="12.00" fill="#000000">has&#45;a</text>
</g>
</g>
</svg>
