<?xml version="1.0" encoding="UTF-8" standalone="no"?>
<!DOCTYPE svg PUBLIC "-//W3C//DTD SVG 1.1//EN"
 "http://www.w3.org/Graphics/SVG/1.1/DTD/svg11.dtd">
<!-- Generated by graphviz version 2.40.1 (20161225.0304)
 -->
<!-- Title: graphic Pages: 1 -->
<svg width="717pt" height="222pt"
 viewBox="0.00 0.00 717.00 222.00" xmlns="http://www.w3.org/2000/svg" xmlns:xlink="http://www.w3.org/1999/xlink">
<g id="graph0" class="graph" transform="scale(1 1) rotate(0) translate(4 218)">
<title>graphic</title>
<polygon fill="#ffffff" stroke="transparent" points="-4,4 -4,-218 713,-218 713,4 -4,4"/>
<!-- im:ImmigrationBenefitExtensionOfStayEligibilityType -->
<g id="node1" class="node">
<title>im:ImmigrationBenefitExtensionOfStayEligibilityType</title>
<text text-anchor="start" x="322.5" y="-39.9" font-family="Helvetica,sans-Serif" font-weight="bold" font-size="12.00" fill="#000000">im:ImmigrationBenefitExtensionOfStayEligibilityType</text>
<g id="a_node1_0"><a xlink:href="../../im/ScholarshipGrantAmount/#diagram" xlink:title="A dollar amount of a scholarship or grant from educational institution" target="_top">
<polygon fill="#ebebeb" stroke="transparent" points="321.5,-19.5 321.5,-34.5 704.5,-34.5 704.5,-19.5 321.5,-19.5"/>
<text text-anchor="start" x="322.5" y="-23.9" font-family="Helvetica,sans-Serif" font-size="12.00" fill="#000000">im:ScholarshipGrantAmount: nc:AmountType [0&#45;n]</text>
</a>
</g>
<g id="a_node1_1"><a xlink:href="../../im/ImmigrationBenefitExtensionOfStayEligibilityAugmentationPoint/#diagram" xlink:title="An augmentation point for ImmigrationBenefitExtensionOfStayEligibilityType." target="_top">
<text text-anchor="start" x="322.5" y="-8.9" font-family="Helvetica,sans-Serif" font-size="12.00" fill="#000000">im:ImmigrationBenefitExtensionOfStayEligibilityAugmentationPoint [0&#45;n]</text>
</a>
</g>
<polygon fill="#ff0000" stroke="#ff0000" points="316.5,-34.5 316.5,-34.5 709.5,-34.5 709.5,-34.5 316.5,-34.5"/>
<polygon fill="none" stroke="#ff0000" stroke-width="5" points="318.5,-2.5 318.5,-52.5 706.5,-52.5 706.5,-2.5 318.5,-2.5"/>
</g>
<!-- Properties -->
<g id="node2" class="node">
<title>Properties</title>
<text text-anchor="start" x="2.5" y="-39.9" font-family="Helvetica,sans-Serif" font-weight="bold" font-size="12.00" fill="#000000">Properties</text>
<g id="a_node2_2"><a xlink:href="../../im/ImmigrationBenefitExtensionOfStayEligibility/#diagram" xlink:title="An applicant&#39;s eligibility data for a requested extension of stay." target="_top">
<polygon fill="#ebebeb" stroke="transparent" points="1.5,-19.5 1.5,-34.5 256.5,-34.5 256.5,-19.5 1.5,-19.5"/>
<text text-anchor="start" x="2.5" y="-23.9" font-family="Helvetica,sans-Serif" font-size="12.00" fill="#000000">im:ImmigrationBenefitExtensionOfStayEligibility</text>
</a>
</g>
<polygon fill="#000000" stroke="#000000" points=".5,-34.5 .5,-34.5 257.5,-34.5 257.5,-34.5 .5,-34.5"/>
<polygon fill="none" stroke="#000000" points="0,-18.5 0,-50.5 257,-50.5 257,-18.5 0,-18.5"/>
</g>
<!-- Properties&#45;&gt;im:ImmigrationBenefitExtensionOfStayEligibilityType -->
<g id="edge1" class="edge">
<title>Properties:top&#45;&gt;im:ImmigrationBenefitExtensionOfStayEligibilityType:top</title>
<path fill="none" stroke="#000000" d="M256.5,-42.5C281.6649,-42.5 290.3891,-42.5 311.3154,-42.5"/>
<polygon fill="#000000" stroke="#000000" points="311.5,-46.0001 321.5,-42.5 311.5,-39.0001 311.5,-46.0001"/>
<text text-anchor="middle" x="286.5" y="-45.9" font-family="Helvetica,sans-Serif" font-size="12.00" fill="#000000">type</text>
</g>
<!-- im:ImmigrationBenefitExtendChangeStatusEligibilityType -->
<g id="node3" class="node">
<title>im:ImmigrationBenefitExtendChangeStatusEligibilityType</title>
<g id="a_node3_3"><a xlink:href="../../im/ImmigrationBenefitExtendChangeStatusEligibilityType/#diagram" xlink:title="A data type for the eligibility of an applicant attempting to extend or change status or reinstate student status." target="_top">
<text text-anchor="start" x="361.5" y="-95.9" font-family="Helvetica,sans-Serif" font-size="12.00" fill="#000000">im:ImmigrationBenefitExtendChangeStatusEligibilityType</text>
</a>
</g>
<polygon fill="none" stroke="#000000" points="359,-91 359,-108 666,-108 666,-91 359,-91"/>
</g>
<!-- im:ImmigrationBenefitExtendChangeStatusEligibilityType&#45;&gt;im:ImmigrationBenefitExtensionOfStayEligibilityType -->
<g id="edge2" class="edge">
<title>im:ImmigrationBenefitExtendChangeStatusEligibilityType&#45;&gt;im:ImmigrationBenefitExtensionOfStayEligibilityType</title>
<path fill="none" stroke="#000000" d="M512.5,-90.8151C512.5,-84.3271 512.5,-74.9677 512.5,-65.4273"/>
<polygon fill="#000000" stroke="#000000" points="516.0001,-65.1311 512.5,-55.1312 509.0001,-65.1312 516.0001,-65.1311"/>
<text text-anchor="middle" x="503" y="-69.9" font-family="Helvetica,sans-Serif" font-size="12.00" fill="#000000">extension</text>
</g>
<!-- im:ImmigrationBenefitEligibilityType -->
<g id="node4" class="node">
<title>im:ImmigrationBenefitEligibilityType</title>
<g id="a_node4_4"><a xlink:href="../../im/ImmigrationBenefitEligibilityType/#diagram" xlink:title="A data type for the information used to determine the eligibility for an immigration benefit" target="_top">
<text text-anchor="start" x="417.5" y="-148.9" font-family="Helvetica,sans-Serif" font-size="12.00" fill="#000000">im:ImmigrationBenefitEligibilityType</text>
</a>
</g>
<polygon fill="none" stroke="#000000" points="415.5,-144 415.5,-161 609.5,-161 609.5,-144 415.5,-144"/>
</g>
<!-- im:ImmigrationBenefitEligibilityType&#45;&gt;im:ImmigrationBenefitExtendChangeStatusEligibilityType -->
<g id="edge3" class="edge">
<title>im:ImmigrationBenefitEligibilityType&#45;&gt;im:ImmigrationBenefitExtendChangeStatusEligibilityType</title>
<path fill="none" stroke="#000000" d="M512.5,-143.911C512.5,-137.0124 512.5,-127.0696 512.5,-118.34"/>
<polygon fill="#000000" stroke="#000000" points="516.0001,-118.2518 512.5,-108.2519 509.0001,-118.2519 516.0001,-118.2518"/>
<text text-anchor="middle" x="503" y="-122.9" font-family="Helvetica,sans-Serif" font-size="12.00" fill="#000000">extension</text>
</g>
<!-- structures:ObjectType -->
<g id="node5" class="node">
<title>structures:ObjectType</title>
<g id="a_node5_5"><a xlink:href="../../structures/ObjectType/#diagram" xlink:title="A data type for a thing with its own lifespan that has some existence." target="_top">
<text text-anchor="start" x="453.5" y="-201.9" font-family="Helvetica,sans-Serif" font-size="12.00" fill="#000000">structures:ObjectType</text>
</a>
</g>
<polygon fill="none" stroke="#000000" points="451.5,-197 451.5,-214 573.5,-214 573.5,-197 451.5,-197"/>
</g>
<!-- structures:ObjectType&#45;&gt;im:ImmigrationBenefitEligibilityType -->
<g id="edge4" class="edge">
<title>structures:ObjectType&#45;&gt;im:ImmigrationBenefitEligibilityType</title>
<path fill="none" stroke="#000000" d="M512.5,-196.911C512.5,-190.0124 512.5,-180.0696 512.5,-171.34"/>
<polygon fill="#000000" stroke="#000000" points="516.0001,-171.2518 512.5,-161.2519 509.0001,-171.2519 516.0001,-171.2518"/>
<text text-anchor="middle" x="503" y="-175.9" font-family="Helvetica,sans-Serif" font-size="12.00" fill="#000000">extension</text>
</g>
</g>
</svg>
