<?xml version="1.0" encoding="UTF-8" standalone="no"?>
<!DOCTYPE svg PUBLIC "-//W3C//DTD SVG 1.1//EN"
 "http://www.w3.org/Graphics/SVG/1.1/DTD/svg11.dtd">
<!-- Generated by graphviz version 2.40.1 (20161225.0304)
 -->
<!-- Title: graphic Pages: 1 -->
<svg width="298pt" height="154pt"
 viewBox="0.00 0.00 298.00 153.50" xmlns="http://www.w3.org/2000/svg" xmlns:xlink="http://www.w3.org/1999/xlink">
<g id="graph0" class="graph" transform="scale(1 1) rotate(0) translate(4 149.5)">
<title>graphic</title>
<polygon fill="#ffffff" stroke="transparent" points="-4,4 -4,-149.5 294,-149.5 294,4 -4,4"/>
<!-- ndex:OfficeEquipmentCategoryCodeSimpleType -->
<g id="node1" class="node">
<title>ndex:OfficeEquipmentCategoryCodeSimpleType</title>
<text text-anchor="start" x="6" y="-77.4" font-family="Helvetica,sans-Serif" font-weight="bold" font-size="12.00" fill="#000000">ndex:OfficeEquipmentCategoryCodeSimpleType</text>
<polygon fill="none" stroke="#ff0000" stroke-width="5" points="2.5,-70 2.5,-90 287.5,-90 287.5,-70 2.5,-70"/>
</g>
<!-- DerivedTypes -->
<g id="node2" class="node">
<title>DerivedTypes</title>
<text text-anchor="start" x="34" y="-21.4" font-family="Helvetica,sans-Serif" font-weight="bold" font-size="12.00" fill="#000000">Derived types</text>
<g id="a_node2_0"><a xlink:href="../../ndex/OfficeEquipmentCategoryCodeType/#diagram" xlink:title="A data type for a code that identifies a type of office equipment." target="_top">
<polygon fill="#ebebeb" stroke="transparent" points="33,-1 33,-16 258,-16 258,-1 33,-1"/>
<text text-anchor="start" x="34" y="-5.4" font-family="Helvetica,sans-Serif" font-size="12.00" fill="#000000">ndex:OfficeEquipmentCategoryCodeType</text>
</a>
</g>
<polygon fill="#000000" stroke="#000000" points="32,-16 32,-16 259,-16 259,-16 32,-16"/>
<polygon fill="none" stroke="#000000" points="31.5,0 31.5,-32 258.5,-32 258.5,0 31.5,0"/>
</g>
<!-- ndex:OfficeEquipmentCategoryCodeSimpleType&#45;&gt;DerivedTypes -->
<g id="edge1" class="edge">
<title>ndex:OfficeEquipmentCategoryCodeSimpleType&#45;&gt;DerivedTypes</title>
<path fill="none" stroke="#000000" d="M145,-67.4892C145,-60.3101 145,-51.0172 145,-42.306"/>
<polygon fill="#000000" stroke="#000000" points="148.5001,-42.1499 145,-32.1499 141.5001,-42.1499 148.5001,-42.1499"/>
<text text-anchor="middle" x="135.5" y="-46.65" font-family="Helvetica,sans-Serif" font-size="12.00" fill="#000000">derived</text>
</g>
<!-- xs:token -->
<g id="node3" class="node">
<title>xs:token</title>
<g id="a_node3_1"><a xlink:href="../../xs/token/#diagram" xlink:title="&lt;TABLE&gt;" target="_top">
<text text-anchor="start" x="123" y="-133.4" font-family="Helvetica,sans-Serif" font-size="12.00" fill="#000000">xs:token</text>
</a>
</g>
<polygon fill="none" stroke="#000000" points="120.5,-128.5 120.5,-145.5 169.5,-145.5 169.5,-128.5 120.5,-128.5"/>
</g>
<!-- xs:token&#45;&gt;ndex:OfficeEquipmentCategoryCodeSimpleType -->
<g id="edge2" class="edge">
<title>xs:token&#45;&gt;ndex:OfficeEquipmentCategoryCodeSimpleType</title>
<path fill="none" stroke="#000000" d="M145,-128.4473C145,-121.6242 145,-111.7417 145,-102.6794"/>
<polygon fill="#000000" stroke="#000000" points="148.5001,-102.6501 145,-92.6501 141.5001,-102.6502 148.5001,-102.6501"/>
<text text-anchor="middle" x="135.5" y="-107.4" font-family="Helvetica,sans-Serif" font-size="12.00" fill="#000000">restriction</text>
</g>
</g>
</svg>
