<?xml version="1.0" encoding="UTF-8" standalone="no"?>
<!DOCTYPE svg PUBLIC "-//W3C//DTD SVG 1.1//EN"
 "http://www.w3.org/Graphics/SVG/1.1/DTD/svg11.dtd">
<!-- Generated by graphviz version 2.40.1 (20161225.0304)
 -->
<!-- Title: graphic Pages: 1 -->
<svg width="682pt" height="45pt"
 viewBox="0.00 0.00 682.00 45.00" xmlns="http://www.w3.org/2000/svg" xmlns:xlink="http://www.w3.org/1999/xlink">
<g id="graph0" class="graph" transform="scale(1 1) rotate(0) translate(4 41)">
<title>graphic</title>
<polygon fill="#ffffff" stroke="transparent" points="-4,4 -4,-41 678,-41 678,4 -4,4"/>
<!-- j:SentenceModificationConfinementCreditIndicator -->
<g id="node1" class="node">
<title>j:SentenceModificationConfinementCreditIndicator</title>
<text text-anchor="start" x="225.5" y="-21.4" font-family="Helvetica,sans-Serif" font-weight="bold" font-size="12.00" fill="#000000">j:SentenceModificationConfinementCreditIndicator</text>
<polygon fill="none" stroke="#ff0000" stroke-width="5" points="221.5,-14 221.5,-34 519.5,-34 519.5,-14 221.5,-14"/>
</g>
<!-- niem&#45;xs:boolean -->
<g id="node3" class="node">
<title>niem&#45;xs:boolean</title>
<g id="a_node3_0"><a xlink:href="../../niem-xs/boolean/#diagram" xlink:title="A data type for binary&#45;valued logic (true/false)." target="_top">
<text text-anchor="start" x="583.5" y="-20.4" font-family="Helvetica,sans-Serif" font-size="12.00" fill="#000000">niem&#45;xs:boolean</text>
</a>
</g>
<polygon fill="none" stroke="#000000" points="581,-15.5 581,-32.5 674,-32.5 674,-15.5 581,-15.5"/>
</g>
<!-- j:SentenceModificationConfinementCreditIndicator&#45;&gt;niem&#45;xs:boolean -->
<g id="edge2" class="edge">
<title>j:SentenceModificationConfinementCreditIndicator&#45;&gt;niem&#45;xs:boolean</title>
<path fill="none" stroke="#000000" d="M522.2267,-24C539.2794,-24 555.7675,-24 570.4355,-24"/>
<polygon fill="#000000" stroke="#000000" points="570.7765,-27.5001 580.7765,-24 570.7764,-20.5001 570.7765,-27.5001"/>
<text text-anchor="middle" x="551.5" y="-27.4" font-family="Helvetica,sans-Serif" font-size="12.00" fill="#000000">type</text>
</g>
<!-- Types -->
<g id="node2" class="node">
<title>Types</title>
<text text-anchor="start" x="2" y="-21.4" font-family="Helvetica,sans-Serif" font-weight="bold" font-size="12.00" fill="#000000">Types</text>
<g id="a_node2_1"><a xlink:href="../../j/SentenceModificationType/#diagram" xlink:title="A data type for a change made to a sentence." target="_top">
<polygon fill="#ebebeb" stroke="transparent" points="1,-1 1,-16 151,-16 151,-1 1,-1"/>
<text text-anchor="start" x="2" y="-5.4" font-family="Helvetica,sans-Serif" font-size="12.00" fill="#000000">j:SentenceModificationType</text>
</a>
</g>
<polygon fill="#000000" stroke="#000000" points="0,-16 0,-16 152,-16 152,-16 0,-16"/>
<polygon fill="none" stroke="#000000" points="0,0 0,-32 152,-32 152,0 0,0"/>
</g>
<!-- Types&#45;&gt;j:SentenceModificationConfinementCreditIndicator -->
<g id="edge1" class="edge">
<title>Types:top&#45;&gt;j:SentenceModificationConfinementCreditIndicator</title>
<path fill="none" stroke="#000000" d="M151,-24C169.6593,-24 189.2109,-24 208.6308,-24"/>
<polygon fill="#000000" stroke="#000000" points="208.7688,-27.5001 218.7687,-24 208.7687,-20.5001 208.7688,-27.5001"/>
<text text-anchor="middle" x="185.5" y="-27.4" font-family="Helvetica,sans-Serif" font-size="12.00" fill="#000000">has&#45;a</text>
</g>
</g>
</svg>
