<?xml version="1.0" encoding="UTF-8" standalone="no"?>
<!DOCTYPE svg PUBLIC "-//W3C//DTD SVG 1.1//EN"
 "http://www.w3.org/Graphics/SVG/1.1/DTD/svg11.dtd">
<!-- Generated by graphviz version 2.40.1 (20161225.0304)
 -->
<!-- Title: graphic Pages: 1 -->
<svg width="778pt" height="45pt"
 viewBox="0.00 0.00 778.00 45.00" xmlns="http://www.w3.org/2000/svg" xmlns:xlink="http://www.w3.org/1999/xlink">
<g id="graph0" class="graph" transform="scale(1 1) rotate(0) translate(4 41)">
<title>graphic</title>
<polygon fill="#ffffff" stroke="transparent" points="-4,4 -4,-41 774,-41 774,4 -4,4"/>
<!-- biom:FingerprintImageNISTQuality -->
<g id="node1" class="node">
<title>biom:FingerprintImageNISTQuality</title>
<text text-anchor="start" x="290.5" y="-21.4" font-family="Helvetica,sans-Serif" font-weight="bold" font-size="12.00" fill="#000000">biom:FingerprintImageNISTQuality</text>
<polygon fill="none" stroke="#ff0000" stroke-width="5" points="286.5,-14 286.5,-34 492.5,-34 492.5,-14 286.5,-14"/>
</g>
<!-- biom:FingerprintImageNISTQualityType -->
<g id="node3" class="node">
<title>biom:FingerprintImageNISTQualityType</title>
<g id="a_node3_0"><a xlink:href="../../biom/FingerprintImageNISTQualityType/#diagram" xlink:title="A data type for a NIST quality measure for a particular fingerprint" target="_top">
<text text-anchor="start" x="556" y="-20.4" font-family="Helvetica,sans-Serif" font-size="12.00" fill="#000000">biom:FingerprintImageNISTQualityType</text>
</a>
</g>
<polygon fill="none" stroke="#000000" points="554,-15.5 554,-32.5 770,-32.5 770,-15.5 554,-15.5"/>
</g>
<!-- biom:FingerprintImageNISTQuality&#45;&gt;biom:FingerprintImageNISTQualityType -->
<g id="edge2" class="edge">
<title>biom:FingerprintImageNISTQuality&#45;&gt;biom:FingerprintImageNISTQualityType</title>
<path fill="none" stroke="#000000" d="M495.2456,-24C510.9542,-24 527.233,-24 543.1874,-24"/>
<polygon fill="#000000" stroke="#000000" points="543.6158,-27.5001 553.6157,-24 543.6157,-20.5001 543.6158,-27.5001"/>
<text text-anchor="middle" x="524.5" y="-27.4" font-family="Helvetica,sans-Serif" font-size="12.00" fill="#000000">type</text>
</g>
<!-- Types -->
<g id="node2" class="node">
<title>Types</title>
<text text-anchor="start" x="2.5" y="-21.4" font-family="Helvetica,sans-Serif" font-weight="bold" font-size="12.00" fill="#000000">Types</text>
<g id="a_node2_1"><a xlink:href="../../biom/FingerImpressionImageDetailType/#diagram" xlink:title="A data type for the details about a fingerprint image" target="_top">
<polygon fill="#ebebeb" stroke="transparent" points="1.5,-1 1.5,-16 216.5,-16 216.5,-1 1.5,-1"/>
<text text-anchor="start" x="2.5" y="-5.4" font-family="Helvetica,sans-Serif" font-size="12.00" fill="#000000">biom:FingerImpressionImageDetailType</text>
</a>
</g>
<polygon fill="#000000" stroke="#000000" points=".5,-16 .5,-16 217.5,-16 217.5,-16 .5,-16"/>
<polygon fill="none" stroke="#000000" points="0,0 0,-32 217,-32 217,0 0,0"/>
</g>
<!-- Types&#45;&gt;biom:FingerprintImageNISTQuality -->
<g id="edge1" class="edge">
<title>Types:top&#45;&gt;biom:FingerprintImageNISTQuality</title>
<path fill="none" stroke="#000000" d="M216.5,-24C234.9579,-24 254.5235,-24 273.6013,-24"/>
<polygon fill="#000000" stroke="#000000" points="273.831,-27.5001 283.8309,-24 273.8309,-20.5001 273.831,-27.5001"/>
<text text-anchor="middle" x="250.5" y="-27.4" font-family="Helvetica,sans-Serif" font-size="12.00" fill="#000000">has&#45;a</text>
</g>
</g>
</svg>
