<?xml version="1.0" encoding="UTF-8" standalone="no"?>
<!DOCTYPE svg PUBLIC "-//W3C//DTD SVG 1.1//EN"
 "http://www.w3.org/Graphics/SVG/1.1/DTD/svg11.dtd">
<!-- Generated by graphviz version 2.40.1 (20161225.0304)
 -->
<!-- Title: graphic Pages: 1 -->
<svg width="485pt" height="45pt"
 viewBox="0.00 0.00 485.00 45.00" xmlns="http://www.w3.org/2000/svg" xmlns:xlink="http://www.w3.org/1999/xlink">
<g id="graph0" class="graph" transform="scale(1 1) rotate(0) translate(4 41)">
<title>graphic</title>
<polygon fill="#ffffff" stroke="transparent" points="-4,4 -4,-41 481,-41 481,4 -4,4"/>
<!-- it:FreightPaymentCodeText -->
<g id="node1" class="node">
<title>it:FreightPaymentCodeText</title>
<text text-anchor="start" x="184.5" y="-21.4" font-family="Helvetica,sans-Serif" font-weight="bold" font-size="12.00" fill="#000000">it:FreightPaymentCodeText</text>
<polygon fill="none" stroke="#ff0000" stroke-width="5" points="180.5,-14 180.5,-34 344.5,-34 344.5,-14 180.5,-14"/>
</g>
<!-- nc:TextType -->
<g id="node3" class="node">
<title>nc:TextType</title>
<g id="a_node3_0"><a xlink:href="../../nc/TextType/#diagram" xlink:title="A data type for a character string." target="_top">
<text text-anchor="start" x="408.5" y="-20.4" font-family="Helvetica,sans-Serif" font-size="12.00" fill="#000000">nc:TextType</text>
</a>
</g>
<polygon fill="none" stroke="#000000" points="406,-15.5 406,-32.5 477,-32.5 477,-15.5 406,-15.5"/>
</g>
<!-- it:FreightPaymentCodeText&#45;&gt;nc:TextType -->
<g id="edge2" class="edge">
<title>it:FreightPaymentCodeText&#45;&gt;nc:TextType</title>
<path fill="none" stroke="#000000" d="M347.0204,-24C363.6281,-24 380.4652,-24 395.2348,-24"/>
<polygon fill="#000000" stroke="#000000" points="395.5911,-27.5001 405.5911,-24 395.5911,-20.5001 395.5911,-27.5001"/>
<text text-anchor="middle" x="376.5" y="-27.4" font-family="Helvetica,sans-Serif" font-size="12.00" fill="#000000">type</text>
</g>
<!-- Types -->
<g id="node2" class="node">
<title>Types</title>
<text text-anchor="start" x="2.5" y="-21.4" font-family="Helvetica,sans-Serif" font-weight="bold" font-size="12.00" fill="#000000">Types</text>
<g id="a_node2_1"><a xlink:href="../../it/ConsignmentType/#diagram" xlink:title="A data type for the specific shipment sent by a consignor to a named consignee." target="_top">
<polygon fill="#ebebeb" stroke="transparent" points="1.5,-1 1.5,-16 110.5,-16 110.5,-1 1.5,-1"/>
<text text-anchor="start" x="2.5" y="-5.4" font-family="Helvetica,sans-Serif" font-size="12.00" fill="#000000">it:ConsignmentType</text>
</a>
</g>
<polygon fill="#000000" stroke="#000000" points=".5,-16 .5,-16 111.5,-16 111.5,-16 .5,-16"/>
<polygon fill="none" stroke="#000000" points="0,0 0,-32 111,-32 111,0 0,0"/>
</g>
<!-- Types&#45;&gt;it:FreightPaymentCodeText -->
<g id="edge1" class="edge">
<title>Types:top&#45;&gt;it:FreightPaymentCodeText</title>
<path fill="none" stroke="#000000" d="M110.5,-24C128.9542,-24 148.6687,-24 167.5778,-24"/>
<polygon fill="#000000" stroke="#000000" points="167.683,-27.5001 177.683,-24 167.6829,-20.5001 167.683,-27.5001"/>
<text text-anchor="middle" x="144.5" y="-27.4" font-family="Helvetica,sans-Serif" font-size="12.00" fill="#000000">has&#45;a</text>
</g>
</g>
</svg>
