<?xml version="1.0" encoding="UTF-8" standalone="no"?>
<!DOCTYPE svg PUBLIC "-//W3C//DTD SVG 1.1//EN"
 "http://www.w3.org/Graphics/SVG/1.1/DTD/svg11.dtd">
<!-- Generated by graphviz version 2.40.1 (20161225.0304)
 -->
<!-- Title: graphic Pages: 1 -->
<svg width="656pt" height="60pt"
 viewBox="0.00 0.00 656.00 59.50" xmlns="http://www.w3.org/2000/svg" xmlns:xlink="http://www.w3.org/1999/xlink">
<g id="graph0" class="graph" transform="scale(1 1) rotate(0) translate(4 55.5)">
<title>graphic</title>
<polygon fill="#ffffff" stroke="transparent" points="-4,4 -4,-55.5 652,-55.5 652,4 -4,4"/>
<!-- nc:EmployeeContactInformation -->
<g id="node1" class="node">
<title>nc:EmployeeContactInformation</title>
<text text-anchor="start" x="248" y="-35.9" font-family="Helvetica,sans-Serif" font-weight="bold" font-size="12.00" fill="#000000">nc:EmployeeContactInformation</text>
<polygon fill="none" stroke="#ff0000" stroke-width="5" points="244.5,-28.5 244.5,-48.5 437.5,-48.5 437.5,-28.5 244.5,-28.5"/>
</g>
<!-- nc:ContactInformationType -->
<g id="node3" class="node">
<title>nc:ContactInformationType</title>
<g id="a_node3_0"><a xlink:href="../../nc/ContactInformationType/#diagram" xlink:title="A data type for how to contact a person or an organization." target="_top">
<text text-anchor="start" x="501.5" y="-34.9" font-family="Helvetica,sans-Serif" font-size="12.00" fill="#000000">nc:ContactInformationType</text>
</a>
</g>
<polygon fill="none" stroke="#000000" points="499,-30 499,-47 648,-47 648,-30 499,-30"/>
</g>
<!-- nc:EmployeeContactInformation&#45;&gt;nc:ContactInformationType -->
<g id="edge2" class="edge">
<title>nc:EmployeeContactInformation&#45;&gt;nc:ContactInformationType</title>
<path fill="none" stroke="#000000" d="M440.2753,-38.5C456.3734,-38.5 472.9153,-38.5 488.6302,-38.5"/>
<polygon fill="#000000" stroke="#000000" points="488.8248,-42.0001 498.8248,-38.5 488.8247,-35.0001 488.8248,-42.0001"/>
<text text-anchor="middle" x="469.5" y="-41.9" font-family="Helvetica,sans-Serif" font-size="12.00" fill="#000000">type</text>
</g>
<!-- Types -->
<g id="node2" class="node">
<title>Types</title>
<text text-anchor="start" x="2.5" y="-35.9" font-family="Helvetica,sans-Serif" font-weight="bold" font-size="12.00" fill="#000000">Types</text>
<g id="a_node2_1"><a xlink:href="../../nc/EmploymentAssociationType/#diagram" xlink:title="A data type for an association between an employee and an employer." target="_top">
<polygon fill="#ebebeb" stroke="transparent" points="1.5,-15.5 1.5,-30.5 174.5,-30.5 174.5,-15.5 1.5,-15.5"/>
<text text-anchor="start" x="2.5" y="-19.9" font-family="Helvetica,sans-Serif" font-size="12.00" fill="#000000">nc:EmploymentAssociationType</text>
</a>
</g>
<g id="a_node2_2"><a xlink:href="../../nc/PersonType/#diagram" xlink:title="A data type for a human being." target="_top">
<text text-anchor="start" x="2.5" y="-4.9" font-family="Helvetica,sans-Serif" font-size="12.00" fill="#000000">nc:PersonType</text>
</a>
</g>
<polygon fill="#000000" stroke="#000000" points=".5,-30.5 .5,-30.5 175.5,-30.5 175.5,-30.5 .5,-30.5"/>
<polygon fill="none" stroke="#000000" points="0,0 0,-47 175,-47 175,0 0,0"/>
</g>
<!-- Types&#45;&gt;nc:EmployeeContactInformation -->
<g id="edge1" class="edge">
<title>Types:top&#45;&gt;nc:EmployeeContactInformation</title>
<path fill="none" stroke="#000000" d="M174.5,-38.5C192.9994,-38.5 212.6551,-38.5 231.7326,-38.5"/>
<polygon fill="#000000" stroke="#000000" points="231.9526,-42.0001 241.9526,-38.5 231.9526,-35.0001 231.9526,-42.0001"/>
<text text-anchor="middle" x="208.5" y="-41.9" font-family="Helvetica,sans-Serif" font-size="12.00" fill="#000000">has&#45;a</text>
</g>
</g>
</svg>
