<?xml version="1.0" encoding="UTF-8" standalone="no"?>
<!DOCTYPE svg PUBLIC "-//W3C//DTD SVG 1.1//EN"
 "http://www.w3.org/Graphics/SVG/1.1/DTD/svg11.dtd">
<!-- Generated by graphviz version 2.40.1 (20161225.0304)
 -->
<!-- Title: graphic Pages: 1 -->
<svg width="605pt" height="161pt"
 viewBox="0.00 0.00 605.00 160.50" xmlns="http://www.w3.org/2000/svg" xmlns:xlink="http://www.w3.org/1999/xlink">
<g id="graph0" class="graph" transform="scale(1 1) rotate(0) translate(4 156.5)">
<title>graphic</title>
<polygon fill="#ffffff" stroke="transparent" points="-4,4 -4,-156.5 601,-156.5 601,4 -4,4"/>
<!-- biom:MinutiaeCoreType -->
<g id="node1" class="node">
<title>biom:MinutiaeCoreType</title>
<text text-anchor="start" x="170.5" y="-85.4" font-family="Helvetica,sans-Serif" font-weight="bold" font-size="12.00" fill="#000000">biom:MinutiaeCoreType</text>
<g id="a_node1_0"><a xlink:href="../../biom/ImageFeatureVertex/#diagram" xlink:title="A vertex in a position path" target="_top">
<polygon fill="#ebebeb" stroke="transparent" points="169.5,-65 169.5,-80 592.5,-80 592.5,-65 169.5,-65"/>
<text text-anchor="start" x="170.5" y="-69.4" font-family="Helvetica,sans-Serif" font-size="12.00" fill="#000000">biom:ImageFeatureVertex: biom:VertexType [0&#45;n]</text>
</a>
</g>
<g id="a_node1_1"><a xlink:href="../../biom/MinutiaeCoreDirectionMeasure/#diagram" xlink:title="An average tangent direction of the two closest ridges to the core" target="_top">
<text text-anchor="start" x="170.5" y="-54.4" font-family="Helvetica,sans-Serif" font-size="12.00" fill="#000000">biom:MinutiaeCoreDirectionMeasure: biom:DirectionMeasureType [0&#45;n]</text>
</a>
</g>
<g id="a_node1_2"><a xlink:href="../../biom/ImageLocationUncertaintyRadiusMeasure/#diagram" xlink:title="A distance in 10 micrometer units (0.01mm) from a particular X,Y coordinate." target="_top">
<polygon fill="#ebebeb" stroke="transparent" points="169.5,-35 169.5,-50 592.5,-50 592.5,-35 169.5,-35"/>
<text text-anchor="start" x="170.5" y="-39.4" font-family="Helvetica,sans-Serif" font-size="12.00" fill="#000000">biom:ImageLocationUncertaintyRadiusMeasure: biom:Integer0To999Type [0&#45;n]</text>
</a>
</g>
<g id="a_node1_3"><a xlink:href="../../biom/MinutiaeCoreDirectionUncertaintyValue/#diagram" xlink:title="A value indicating the uncertainty of the core direction measure" target="_top">
<text text-anchor="start" x="170.5" y="-24.4" font-family="Helvetica,sans-Serif" font-size="12.00" fill="#000000">biom:MinutiaeCoreDirectionUncertaintyValue: biom:UncertaintyValueType [0&#45;n]</text>
</a>
</g>
<g id="a_node1_4"><a xlink:href="../../biom/MinutiaeCoreAugmentationPoint/#diagram" xlink:title="An augmentation point for MinutiaeCoreType." target="_top">
<polygon fill="#ebebeb" stroke="transparent" points="169.5,-5 169.5,-20 592.5,-20 592.5,-5 169.5,-5"/>
<text text-anchor="start" x="170.5" y="-9.4" font-family="Helvetica,sans-Serif" font-size="12.00" fill="#000000">biom:MinutiaeCoreAugmentationPoint [0&#45;n]</text>
</a>
</g>
<polygon fill="#ff0000" stroke="#ff0000" points="164.5,-80 164.5,-80 597.5,-80 597.5,-80 164.5,-80"/>
<polygon fill="none" stroke="#ff0000" stroke-width="5" points="166.5,-2.5 166.5,-97.5 594.5,-97.5 594.5,-2.5 166.5,-2.5"/>
</g>
<!-- Properties -->
<g id="node2" class="node">
<title>Properties</title>
<text text-anchor="start" x="2.5" y="-85.4" font-family="Helvetica,sans-Serif" font-weight="bold" font-size="12.00" fill="#000000">Properties</text>
<g id="a_node2_5"><a xlink:href="../../biom/MinutiaeCore/#diagram" xlink:title="A core in a friction ridge image" target="_top">
<polygon fill="#ebebeb" stroke="transparent" points="1.5,-65 1.5,-80 104.5,-80 104.5,-65 1.5,-65"/>
<text text-anchor="start" x="2.5" y="-69.4" font-family="Helvetica,sans-Serif" font-size="12.00" fill="#000000">biom:MinutiaeCore</text>
</a>
</g>
<polygon fill="#000000" stroke="#000000" points=".5,-80 .5,-80 105.5,-80 105.5,-80 .5,-80"/>
<polygon fill="none" stroke="#000000" points="0,-64 0,-96 105,-96 105,-64 0,-64"/>
</g>
<!-- Properties&#45;&gt;biom:MinutiaeCoreType -->
<g id="edge1" class="edge">
<title>Properties:top&#45;&gt;biom:MinutiaeCoreType:top</title>
<path fill="none" stroke="#000000" d="M104.5,-88C129.6649,-88 138.3891,-88 159.3154,-88"/>
<polygon fill="#000000" stroke="#000000" points="159.5,-91.5001 169.5,-88 159.5,-84.5001 159.5,-91.5001"/>
<text text-anchor="middle" x="134.5" y="-91.4" font-family="Helvetica,sans-Serif" font-size="12.00" fill="#000000">type</text>
</g>
<!-- structures:ObjectType -->
<g id="node3" class="node">
<title>structures:ObjectType</title>
<g id="a_node3_6"><a xlink:href="../../structures/ObjectType/#diagram" xlink:title="A data type for a thing with its own lifespan that has some existence." target="_top">
<text text-anchor="start" x="321.5" y="-140.4" font-family="Helvetica,sans-Serif" font-size="12.00" fill="#000000">structures:ObjectType</text>
</a>
</g>
<polygon fill="none" stroke="#000000" points="319.5,-135.5 319.5,-152.5 441.5,-152.5 441.5,-135.5 319.5,-135.5"/>
</g>
<!-- structures:ObjectType&#45;&gt;biom:MinutiaeCoreType -->
<g id="edge2" class="edge">
<title>structures:ObjectType&#45;&gt;biom:MinutiaeCoreType</title>
<path fill="none" stroke="#000000" d="M380.5,-135.375C380.5,-129.1263 380.5,-120.0624 380.5,-110.15"/>
<polygon fill="#000000" stroke="#000000" points="384.0001,-110.0274 380.5,-100.0274 377.0001,-110.0275 384.0001,-110.0274"/>
<text text-anchor="middle" x="371" y="-114.65" font-family="Helvetica,sans-Serif" font-size="12.00" fill="#000000">extension</text>
</g>
</g>
</svg>
