<?xml version="1.0" encoding="UTF-8" standalone="no"?>
<!DOCTYPE svg PUBLIC "-//W3C//DTD SVG 1.1//EN"
 "http://www.w3.org/Graphics/SVG/1.1/DTD/svg11.dtd">
<!-- Generated by graphviz version 2.40.1 (20161225.0304)
 -->
<!-- Title: graphic Pages: 1 -->
<svg width="633pt" height="101pt"
 viewBox="0.00 0.00 633.00 101.00" xmlns="http://www.w3.org/2000/svg" xmlns:xlink="http://www.w3.org/1999/xlink">
<g id="graph0" class="graph" transform="scale(1 1) rotate(0) translate(4 97)">
<title>graphic</title>
<polygon fill="#ffffff" stroke="transparent" points="-4,4 -4,-97 629,-97 629,4 -4,4"/>
<!-- em:AlertEventDetailsCertaintyAbstract -->
<g id="node1" class="node">
<title>em:AlertEventDetailsCertaintyAbstract</title>
<text text-anchor="start" x="306.5" y="-77.4" font-family="Helvetica,sans-Serif" font-weight="bold" font-size="12.00" fill="#000000">em:AlertEventDetailsCertaintyAbstract</text>
<polygon fill="none" stroke="#ff0000" stroke-width="5" points="303,-70 303,-90 532,-90 532,-70 303,-70"/>
</g>
<!-- SubstitutableElements -->
<g id="node3" class="node">
<title>SubstitutableElements</title>
<text text-anchor="start" x="212.5" y="-21.4" font-family="Helvetica,sans-Serif" font-weight="bold" font-size="12.00" fill="#000000">Substitutable elements</text>
<g id="a_node3_0"><a xlink:href="../../em/AlertEventDetailsCertaintyCode/#diagram" xlink:title="A code denoting the certainty of the subject event of the alert message" target="_top">
<polygon fill="#ebebeb" stroke="transparent" points="211.5,-1 211.5,-16 624.5,-16 624.5,-1 211.5,-1"/>
<text text-anchor="start" x="212.5" y="-5.4" font-family="Helvetica,sans-Serif" font-size="12.00" fill="#000000">em:AlertEventDetailsCertaintyCode: em:AlertEventDetailsCertaintyCodeType</text>
</a>
</g>
<polygon fill="#000000" stroke="#000000" points="210.5,-16 210.5,-16 625.5,-16 625.5,-16 210.5,-16"/>
<polygon fill="none" stroke="#000000" points="210,0 210,-32 625,-32 625,0 210,0"/>
</g>
<!-- em:AlertEventDetailsCertaintyAbstract&#45;&gt;SubstitutableElements -->
<g id="edge2" class="edge">
<title>em:AlertEventDetailsCertaintyAbstract&#45;&gt;SubstitutableElements</title>
<path fill="none" stroke="#000000" d="M417.5,-57.3063C417.5,-48.9972 417.5,-39.7712 417.5,-32.1499"/>
<polygon fill="#000000" stroke="#000000" points="414.0001,-57.4892 417.5,-67.4892 421.0001,-57.4892 414.0001,-57.4892"/>
<text text-anchor="middle" x="408" y="-46.65" font-family="Helvetica,sans-Serif" font-size="12.00" fill="#000000">substitutable for</text>
</g>
<!-- Types -->
<g id="node2" class="node">
<title>Types</title>
<text text-anchor="start" x="2.5" y="-77.4" font-family="Helvetica,sans-Serif" font-weight="bold" font-size="12.00" fill="#000000">Types</text>
<g id="a_node2_1"><a xlink:href="../../em/AlertEventDetailsType/#diagram" xlink:title="A data type for an alert event details" target="_top">
<polygon fill="#ebebeb" stroke="transparent" points="1.5,-57 1.5,-72 142.5,-72 142.5,-57 1.5,-57"/>
<text text-anchor="start" x="2.5" y="-61.4" font-family="Helvetica,sans-Serif" font-size="12.00" fill="#000000">em:AlertEventDetailsType</text>
</a>
</g>
<polygon fill="#000000" stroke="#000000" points=".5,-72 .5,-72 143.5,-72 143.5,-72 .5,-72"/>
<polygon fill="none" stroke="#000000" points="0,-56 0,-88 143,-88 143,-56 0,-56"/>
</g>
<!-- Types&#45;&gt;em:AlertEventDetailsCertaintyAbstract -->
<g id="edge1" class="edge">
<title>Types:top&#45;&gt;em:AlertEventDetailsCertaintyAbstract</title>
<path fill="none" stroke="#000000" d="M142.5,-80C190.7601,-80 243.7842,-80 290.2858,-80"/>
<polygon fill="#000000" stroke="#000000" points="290.4122,-83.5001 300.4122,-80 290.4121,-76.5001 290.4122,-83.5001"/>
<text text-anchor="middle" x="176.5" y="-83.4" font-family="Helvetica,sans-Serif" font-size="12.00" fill="#000000">has&#45;a</text>
</g>
</g>
</svg>
