<?xml version="1.0" encoding="UTF-8" standalone="no"?>
<!DOCTYPE svg PUBLIC "-//W3C//DTD SVG 1.1//EN"
 "http://www.w3.org/Graphics/SVG/1.1/DTD/svg11.dtd">
<!-- Generated by graphviz version 2.40.1 (20161225.0304)
 -->
<!-- Title: graphic Pages: 1 -->
<svg width="975pt" height="342pt"
 viewBox="0.00 0.00 975.00 341.50" xmlns="http://www.w3.org/2000/svg" xmlns:xlink="http://www.w3.org/1999/xlink">
<g id="graph0" class="graph" transform="scale(1 1) rotate(0) translate(4 337.5)">
<title>graphic</title>
<polygon fill="#ffffff" stroke="transparent" points="-4,4 -4,-337.5 971,-337.5 971,4 -4,4"/>
<!-- hs:PlacementType -->
<g id="node1" class="node">
<title>hs:PlacementType</title>
<text text-anchor="start" x="142.5" y="-213.4" font-family="Helvetica,sans-Serif" font-weight="bold" font-size="12.00" fill="#000000">hs:PlacementType</text>
<g id="a_node1_0"><a xlink:href="../../hs/PlacementCategoryRestrictivenessText/#diagram" xlink:title="A text field to indicate how the placement type is the least restrictive placement necessary." target="_top">
<polygon fill="#ebebeb" stroke="transparent" points="141.5,-193 141.5,-208 500.5,-208 500.5,-193 141.5,-193"/>
<text text-anchor="start" x="142.5" y="-197.4" font-family="Helvetica,sans-Serif" font-size="12.00" fill="#000000">hs:PlacementCategoryRestrictivenessText: nc:TextType [0&#45;n]</text>
</a>
</g>
<g id="a_node1_1"><a xlink:href="../../hs/RelativePlacementResourcesDescriptionText/#diagram" xlink:title="A description of the relatives of a child or youth who might be available and able to provide some care." target="_top">
<text text-anchor="start" x="142.5" y="-182.4" font-family="Helvetica,sans-Serif" font-size="12.00" fill="#000000">hs:RelativePlacementResourcesDescriptionText: nc:TextType [0&#45;n]</text>
</a>
</g>
<g id="a_node1_2"><a xlink:href="../../hs/AdoptionFosterCareHomeStudyText/#diagram" xlink:title="A set of other information the agency considers relevant that promotes safety, permanency and well&#45;being of the child in determining appropriate foster care placement or adoption. Examples would include relative placement, guardianship, family foster care, social" target="_top">
<polygon fill="#ebebeb" stroke="transparent" points="141.5,-163 141.5,-178 500.5,-178 500.5,-163 141.5,-163"/>
<text text-anchor="start" x="142.5" y="-167.4" font-family="Helvetica,sans-Serif" font-size="12.00" fill="#000000">hs:AdoptionFosterCareHomeStudyText: nc:TextType [0&#45;n]</text>
</a>
</g>
<g id="a_node1_3"><a xlink:href="../../hs/ChangeOfSchoolIndicator/#diagram" xlink:title="True if the child&#39;s school will change as the result of this placement; false otherwise." target="_top">
<text text-anchor="start" x="142.5" y="-152.4" font-family="Helvetica,sans-Serif" font-size="12.00" fill="#000000">hs:ChangeOfSchoolIndicator: niem&#45;xs:boolean [0&#45;n]</text>
</a>
</g>
<g id="a_node1_4"><a xlink:href="../../hs/ICPCPlacementApprovalIndicator/#diagram" xlink:title="True if the receiving state approved the placement under the terms of Interstate Compact on the Placement of Children (ICPC); false otherwise." target="_top">
<polygon fill="#ebebeb" stroke="transparent" points="141.5,-133 141.5,-148 500.5,-148 500.5,-133 141.5,-133"/>
<text text-anchor="start" x="142.5" y="-137.4" font-family="Helvetica,sans-Serif" font-size="12.00" fill="#000000">hs:ICPCPlacementApprovalIndicator: niem&#45;xs:boolean [0&#45;n]</text>
</a>
</g>
<g id="a_node1_5"><a xlink:href="../../hs/LevelOfCareCategoryAbstract/#diagram" xlink:title="A data concept for expressing the restrictiveness of a child or youth&#39;s placement, using the Adoption and Safe Families Act (ASFA) codes, a local enumeration, or text." target="_top">
<text text-anchor="start" x="142.5" y="-122.4" font-family="Helvetica,sans-Serif" font-size="12.00" fill="#000000">hs:LevelOfCareCategoryAbstract [0&#45;n]</text>
</a>
</g>
<g id="a_node1_6"><a xlink:href="../../hs/PlacementChangeReasonAbstract/#diagram" xlink:title="A data concept for describing the reason a child or youth&#39;s placement was changed." target="_top">
<polygon fill="#ebebeb" stroke="transparent" points="141.5,-103 141.5,-118 500.5,-118 500.5,-103 141.5,-103"/>
<text text-anchor="start" x="142.5" y="-107.4" font-family="Helvetica,sans-Serif" font-size="12.00" fill="#000000">hs:PlacementChangeReasonAbstract [0&#45;n]</text>
</a>
</g>
<g id="a_node1_7"><a xlink:href="../../hs/PlacementCategoryAbstract/#diagram" xlink:title="A data concept for describing a child or youth&#39;s placement." target="_top">
<text text-anchor="start" x="142.5" y="-92.4" font-family="Helvetica,sans-Serif" font-size="12.00" fill="#000000">hs:PlacementCategoryAbstract [0&#45;n]</text>
</a>
</g>
<g id="a_node1_8"><a xlink:href="../../hs/PlacementAugmentationPoint/#diagram" xlink:title="An augmentation point for PlacementType." target="_top">
<polygon fill="#ebebeb" stroke="transparent" points="141.5,-73 141.5,-88 500.5,-88 500.5,-73 141.5,-73"/>
<text text-anchor="start" x="142.5" y="-77.4" font-family="Helvetica,sans-Serif" font-size="12.00" fill="#000000">hs:PlacementAugmentationPoint [0&#45;n]</text>
</a>
</g>
<polygon fill="#ff0000" stroke="#ff0000" points="136.5,-208 136.5,-208 505.5,-208 505.5,-208 136.5,-208"/>
<polygon fill="none" stroke="#ff0000" stroke-width="5" points="138.5,-70.5 138.5,-225.5 502.5,-225.5 502.5,-70.5 138.5,-70.5"/>
</g>
<!-- subst_d9e17515 -->
<g id="node2" class="node">
<title>subst_d9e17515</title>
<g id="a_node2_9"><a xlink:href="../../hs/LevelOfCareCategoryAbstract/#diagram" xlink:title="&lt;TABLE&gt;" target="_top">
<text text-anchor="start" x="601.5" y="-172.4" font-family="Helvetica,sans-Serif" font-weight="bold" font-size="12.00" fill="#000000">Substitution group hs:LevelOfCareCategoryAbstract</text>
</a>
</g>
<g id="a_node2_10"><a xlink:href="../../hs/LevelOfCareCategoryCode/#diagram" xlink:title="A code list that describes the restrictiveness of a placement as defined by the Adoption and Safe Families Act or state law" target="_top">
<polygon fill="#ebebeb" stroke="transparent" points="600.5,-152 600.5,-167 909.5,-167 909.5,-152 600.5,-152"/>
<text text-anchor="start" x="601.5" y="-156.4" font-family="Helvetica,sans-Serif" font-size="12.00" fill="#000000">hs:LevelOfCareCategoryCode: hs:LevelOfCareCodeType</text>
</a>
</g>
<g id="a_node2_11"><a xlink:href="../../hs/LevelOfCareCategoryText/#diagram" xlink:title="A kind of level of care, often expressed in terms of restrictiveness." target="_top">
<text text-anchor="start" x="601.5" y="-141.4" font-family="Helvetica,sans-Serif" font-size="12.00" fill="#000000">hs:LevelOfCareCategoryText: nc:TextType</text>
</a>
</g>
<polygon fill="#000000" stroke="#000000" points="599.5,-167 599.5,-167 910.5,-167 910.5,-167 599.5,-167"/>
<polygon fill="none" stroke="#000000" points="599,-136.5 599,-183.5 910,-183.5 910,-136.5 599,-136.5"/>
</g>
<!-- hs:PlacementType&#45;&gt;subst_d9e17515 -->
<g id="edge1" class="edge">
<title>hs:PlacementType:e&#45;&gt;subst_d9e17515:w</title>
<path fill="none" stroke="#000000" d="M510.541,-125.7456C550.5362,-131.9654 554.4005,-175 600.5,-175"/>
<polygon fill="#000000" stroke="#000000" points="510.7318,-122.2502 500.5,-125 510.2133,-129.231 510.7318,-122.2502"/>
</g>
<!-- subst_d9e18462 -->
<g id="node3" class="node">
<title>subst_d9e18462</title>
<g id="a_node3_12"><a xlink:href="../../hs/PlacementChangeReasonAbstract/#diagram" xlink:title="&lt;TABLE&gt;" target="_top">
<text text-anchor="start" x="544.5" y="-107.4" font-family="Helvetica,sans-Serif" font-weight="bold" font-size="12.00" fill="#000000">Substitution group hs:PlacementChangeReasonAbstract</text>
</a>
</g>
<g id="a_node3_13"><a xlink:href="../../hs/PlacementChangeReasonCode/#diagram" xlink:title="A code list describing the reason for the change of placement (e.g., reunification, level of care lowered, etc.)." target="_top">
<polygon fill="#ebebeb" stroke="transparent" points="543.5,-87 543.5,-102 966.5,-102 966.5,-87 543.5,-87"/>
<text text-anchor="start" x="544.5" y="-91.4" font-family="Helvetica,sans-Serif" font-size="12.00" fill="#000000">hs:PlacementChangeReasonCode: hs:ReasonForPlacementChangeCodeType</text>
</a>
</g>
<g id="a_node3_14"><a xlink:href="../../hs/PlacementChangeReasonText/#diagram" xlink:title="A reason a child or youth&#39;s placement was changed." target="_top">
<text text-anchor="start" x="544.5" y="-76.4" font-family="Helvetica,sans-Serif" font-size="12.00" fill="#000000">hs:PlacementChangeReasonText: nc:TextType</text>
</a>
</g>
<polygon fill="#000000" stroke="#000000" points="542.5,-102 542.5,-102 967.5,-102 967.5,-102 542.5,-102"/>
<polygon fill="none" stroke="#000000" points="542,-71.5 542,-118.5 967,-118.5 967,-71.5 542,-71.5"/>
</g>
<!-- hs:PlacementType&#45;&gt;subst_d9e18462 -->
<g id="edge2" class="edge">
<title>hs:PlacementType:e&#45;&gt;subst_d9e18462:w</title>
<path fill="none" stroke="#000000" d="M510.6119,-110C522.1435,-110 528.2708,-110 543.5,-110"/>
<polygon fill="#000000" stroke="#000000" points="510.5,-106.5001 500.5,-110 510.5,-113.5001 510.5,-106.5001"/>
</g>
<!-- subst_d9e18429 -->
<g id="node4" class="node">
<title>subst_d9e18429</title>
<g id="a_node4_15"><a xlink:href="../../hs/PlacementCategoryAbstract/#diagram" xlink:title="&lt;TABLE&gt;" target="_top">
<text text-anchor="start" x="589.5" y="-42.4" font-family="Helvetica,sans-Serif" font-weight="bold" font-size="12.00" fill="#000000">Substitution group hs:PlacementCategoryAbstract</text>
</a>
</g>
<g id="a_node4_16"><a xlink:href="../../hs/PlacementCategoryCode/#diagram" xlink:title="A list that describes the type of placement (e.g., adoption, relative, etc.)" target="_top">
<polygon fill="#ebebeb" stroke="transparent" points="588.5,-22 588.5,-37 921.5,-37 921.5,-22 588.5,-22"/>
<text text-anchor="start" x="589.5" y="-26.4" font-family="Helvetica,sans-Serif" font-size="12.00" fill="#000000">hs:PlacementCategoryCode: hs:PlacementLocationCodeType</text>
</a>
</g>
<g id="a_node4_17"><a xlink:href="../../hs/PlacementCategoryText/#diagram" xlink:title="A kind of placement," target="_top">
<text text-anchor="start" x="589.5" y="-11.4" font-family="Helvetica,sans-Serif" font-size="12.00" fill="#000000">hs:PlacementCategoryText: nc:TextType</text>
</a>
</g>
<polygon fill="#000000" stroke="#000000" points="587.5,-37 587.5,-37 922.5,-37 922.5,-37 587.5,-37"/>
<polygon fill="none" stroke="#000000" points="587,-6.5 587,-53.5 922,-53.5 922,-6.5 587,-6.5"/>
</g>
<!-- hs:PlacementType&#45;&gt;subst_d9e18429 -->
<g id="edge3" class="edge">
<title>hs:PlacementType:e&#45;&gt;subst_d9e18429:w</title>
<path fill="none" stroke="#000000" d="M510.5809,-93.2566C523.8495,-87.9126 524.9795,-71.5462 542,-62 561.192,-51.2359 566.4955,-45 588.5,-45"/>
<polygon fill="#000000" stroke="#000000" points="509.7572,-89.847 500.5,-95 510.9502,-96.7446 509.7572,-89.847"/>
</g>
<!-- DerivedTypes -->
<g id="node6" class="node">
<title>DerivedTypes</title>
<text text-anchor="start" x="248.5" y="-21.4" font-family="Helvetica,sans-Serif" font-weight="bold" font-size="12.00" fill="#000000">Derived types</text>
<g id="a_node6_18"><a xlink:href="../../hs/JuvenilePlacementType/#diagram" xlink:title="A data type for information about where a juvenile is directed to reside during the pendency of a delinquency proceeding." target="_top">
<polygon fill="#ebebeb" stroke="transparent" points="247.5,-1 247.5,-16 393.5,-16 393.5,-1 247.5,-1"/>
<text text-anchor="start" x="248.5" y="-5.4" font-family="Helvetica,sans-Serif" font-size="12.00" fill="#000000">hs:JuvenilePlacementType</text>
</a>
</g>
<polygon fill="#000000" stroke="#000000" points="246.5,-16 246.5,-16 394.5,-16 394.5,-16 246.5,-16"/>
<polygon fill="none" stroke="#000000" points="246.5,0 246.5,-32 394.5,-32 394.5,0 246.5,0"/>
</g>
<!-- hs:PlacementType&#45;&gt;DerivedTypes -->
<g id="edge5" class="edge">
<title>hs:PlacementType&#45;&gt;DerivedTypes</title>
<path fill="none" stroke="#000000" d="M320.5,-67.8029C320.5,-58.7263 320.5,-50.0258 320.5,-42.4328"/>
<polygon fill="#000000" stroke="#000000" points="324.0001,-42.1858 320.5,-32.1858 317.0001,-42.1858 324.0001,-42.1858"/>
<text text-anchor="middle" x="311" y="-46.9" font-family="Helvetica,sans-Serif" font-size="12.00" fill="#000000">derived</text>
</g>
<!-- Properties -->
<g id="node5" class="node">
<title>Properties</title>
<text text-anchor="start" x="2.5" y="-213.4" font-family="Helvetica,sans-Serif" font-weight="bold" font-size="12.00" fill="#000000">Properties</text>
<g id="a_node5_19"><a xlink:href="../../hs/Placement/#diagram" xlink:title="A placement history of the child." target="_top">
<polygon fill="#ebebeb" stroke="transparent" points="1.5,-193 1.5,-208 76.5,-208 76.5,-193 1.5,-193"/>
<text text-anchor="start" x="2.5" y="-197.4" font-family="Helvetica,sans-Serif" font-size="12.00" fill="#000000">hs:Placement</text>
</a>
</g>
<polygon fill="#000000" stroke="#000000" points=".5,-208 .5,-208 77.5,-208 77.5,-208 .5,-208"/>
<polygon fill="none" stroke="#000000" points="0,-192 0,-224 77,-224 77,-192 0,-192"/>
</g>
<!-- Properties&#45;&gt;hs:PlacementType -->
<g id="edge4" class="edge">
<title>Properties:top&#45;&gt;hs:PlacementType:top</title>
<path fill="none" stroke="#000000" d="M76.5,-216C101.6649,-216 110.3891,-216 131.3154,-216"/>
<polygon fill="#000000" stroke="#000000" points="131.5,-219.5001 141.5,-216 131.5,-212.5001 131.5,-219.5001"/>
<text text-anchor="middle" x="106.5" y="-219.4" font-family="Helvetica,sans-Serif" font-size="12.00" fill="#000000">type</text>
</g>
<!-- nc:ActivityType -->
<g id="node7" class="node">
<title>nc:ActivityType</title>
<g id="a_node7_20"><a xlink:href="../../nc/ActivityType/#diagram" xlink:title="A data type for a single or set of related actions, events, or process steps." target="_top">
<text text-anchor="start" x="280.5" y="-268.4" font-family="Helvetica,sans-Serif" font-size="12.00" fill="#000000">nc:ActivityType</text>
</a>
</g>
<polygon fill="none" stroke="#000000" points="278,-263.5 278,-280.5 363,-280.5 363,-263.5 278,-263.5"/>
</g>
<!-- nc:ActivityType&#45;&gt;hs:PlacementType -->
<g id="edge6" class="edge">
<title>nc:ActivityType&#45;&gt;hs:PlacementType</title>
<path fill="none" stroke="#000000" d="M320.5,-263.225C320.5,-257.2024 320.5,-248.5203 320.5,-238.5842"/>
<polygon fill="#000000" stroke="#000000" points="324.0001,-238.2822 320.5,-228.2822 317.0001,-238.2823 324.0001,-238.2822"/>
<text text-anchor="middle" x="311" y="-242.65" font-family="Helvetica,sans-Serif" font-size="12.00" fill="#000000">extension</text>
</g>
<!-- structures:ObjectType -->
<g id="node8" class="node">
<title>structures:ObjectType</title>
<g id="a_node8_21"><a xlink:href="../../structures/ObjectType/#diagram" xlink:title="A data type for a thing with its own lifespan that has some existence." target="_top">
<text text-anchor="start" x="261.5" y="-321.4" font-family="Helvetica,sans-Serif" font-size="12.00" fill="#000000">structures:ObjectType</text>
</a>
</g>
<polygon fill="none" stroke="#000000" points="259.5,-316.5 259.5,-333.5 381.5,-333.5 381.5,-316.5 259.5,-316.5"/>
</g>
<!-- structures:ObjectType&#45;&gt;nc:ActivityType -->
<g id="edge7" class="edge">
<title>structures:ObjectType&#45;&gt;nc:ActivityType</title>
<path fill="none" stroke="#000000" d="M320.5,-316.411C320.5,-309.5124 320.5,-299.5696 320.5,-290.84"/>
<polygon fill="#000000" stroke="#000000" points="324.0001,-290.7518 320.5,-280.7519 317.0001,-290.7519 324.0001,-290.7518"/>
<text text-anchor="middle" x="311" y="-295.4" font-family="Helvetica,sans-Serif" font-size="12.00" fill="#000000">extension</text>
</g>
</g>
</svg>
