<?xml version="1.0" encoding="UTF-8" standalone="no"?>
<!DOCTYPE svg PUBLIC "-//W3C//DTD SVG 1.1//EN"
 "http://www.w3.org/Graphics/SVG/1.1/DTD/svg11.dtd">
<!-- Generated by graphviz version 2.40.1 (20161225.0304)
 -->
<!-- Title: graphic Pages: 1 -->
<svg width="541pt" height="60pt"
 viewBox="0.00 0.00 541.00 59.50" xmlns="http://www.w3.org/2000/svg" xmlns:xlink="http://www.w3.org/1999/xlink">
<g id="graph0" class="graph" transform="scale(1 1) rotate(0) translate(4 55.5)">
<title>graphic</title>
<polygon fill="#ffffff" stroke="transparent" points="-4,4 -4,-55.5 537,-55.5 537,4 -4,4"/>
<!-- j:ParoleAction -->
<g id="node1" class="node">
<title>j:ParoleAction</title>
<text text-anchor="start" x="281" y="-35.9" font-family="Helvetica,sans-Serif" font-weight="bold" font-size="12.00" fill="#000000">j:ParoleAction</text>
<polygon fill="none" stroke="#ff0000" stroke-width="5" points="277.5,-28.5 277.5,-48.5 366.5,-48.5 366.5,-28.5 277.5,-28.5"/>
</g>
<!-- j:ParoleActionType -->
<g id="node3" class="node">
<title>j:ParoleActionType</title>
<g id="a_node3_0"><a xlink:href="../../j/ParoleActionType/#diagram" xlink:title="A data type for an event or activity regarding a subject&#39;s parole." target="_top">
<text text-anchor="start" x="430.5" y="-34.9" font-family="Helvetica,sans-Serif" font-size="12.00" fill="#000000">j:ParoleActionType</text>
</a>
</g>
<polygon fill="none" stroke="#000000" points="428,-30 428,-47 533,-47 533,-30 428,-30"/>
</g>
<!-- j:ParoleAction&#45;&gt;j:ParoleActionType -->
<g id="edge2" class="edge">
<title>j:ParoleAction&#45;&gt;j:ParoleActionType</title>
<path fill="none" stroke="#000000" d="M369.1261,-38.5C384.247,-38.5 401.246,-38.5 417.3237,-38.5"/>
<polygon fill="#000000" stroke="#000000" points="417.727,-42.0001 427.727,-38.5 417.7269,-35.0001 417.727,-42.0001"/>
<text text-anchor="middle" x="398.5" y="-41.9" font-family="Helvetica,sans-Serif" font-size="12.00" fill="#000000">type</text>
</g>
<!-- Types -->
<g id="node2" class="node">
<title>Types</title>
<text text-anchor="start" x="2" y="-35.9" font-family="Helvetica,sans-Serif" font-weight="bold" font-size="12.00" fill="#000000">Types</text>
<g id="a_node2_1"><a xlink:href="../../j/ParoleActionParoleeAssociationType/#diagram" xlink:title="A data type for an association between a Parole Action and a Parolee." target="_top">
<polygon fill="#ebebeb" stroke="transparent" points="1,-15.5 1,-30.5 207,-30.5 207,-15.5 1,-15.5"/>
<text text-anchor="start" x="2" y="-19.9" font-family="Helvetica,sans-Serif" font-size="12.00" fill="#000000">j:ParoleActionParoleeAssociationType</text>
</a>
</g>
<g id="a_node2_2"><a xlink:href="../../j/ParoleType/#diagram" xlink:title="A data type for a set of details about a subject&#39;s conditions and circumstance of parole." target="_top">
<text text-anchor="start" x="2" y="-4.9" font-family="Helvetica,sans-Serif" font-size="12.00" fill="#000000">j:ParoleType</text>
</a>
</g>
<polygon fill="#000000" stroke="#000000" points="0,-30.5 0,-30.5 208,-30.5 208,-30.5 0,-30.5"/>
<polygon fill="none" stroke="#000000" points="0,0 0,-47 208,-47 208,0 0,0"/>
</g>
<!-- Types&#45;&gt;j:ParoleAction -->
<g id="edge1" class="edge">
<title>Types:top&#45;&gt;j:ParoleAction</title>
<path fill="none" stroke="#000000" d="M207,-38.5C225.783,-38.5 246.2916,-38.5 264.7208,-38.5"/>
<polygon fill="#000000" stroke="#000000" points="264.7213,-42.0001 274.7212,-38.5 264.7212,-35.0001 264.7213,-42.0001"/>
<text text-anchor="middle" x="241.5" y="-41.9" font-family="Helvetica,sans-Serif" font-size="12.00" fill="#000000">has&#45;a</text>
</g>
</g>
</svg>
