<?xml version="1.0" encoding="UTF-8" standalone="no"?>
<!DOCTYPE svg PUBLIC "-//W3C//DTD SVG 1.1//EN"
 "http://www.w3.org/Graphics/SVG/1.1/DTD/svg11.dtd">
<!-- Generated by graphviz version 2.40.1 (20161225.0304)
 -->
<!-- Title: graphic Pages: 1 -->
<svg width="277pt" height="154pt"
 viewBox="0.00 0.00 277.00 153.50" xmlns="http://www.w3.org/2000/svg" xmlns:xlink="http://www.w3.org/1999/xlink">
<g id="graph0" class="graph" transform="scale(1 1) rotate(0) translate(4 149.5)">
<title>graphic</title>
<polygon fill="#ffffff" stroke="transparent" points="-4,4 -4,-149.5 273,-149.5 273,4 -4,4"/>
<!-- ag_codes:ProducerSharePercentSimpleType -->
<g id="node1" class="node">
<title>ag_codes:ProducerSharePercentSimpleType</title>
<text text-anchor="start" x="6.5" y="-77.4" font-family="Helvetica,sans-Serif" font-weight="bold" font-size="12.00" fill="#000000">ag_codes:ProducerSharePercentSimpleType</text>
<polygon fill="none" stroke="#ff0000" stroke-width="5" points="2.5,-70 2.5,-90 266.5,-90 266.5,-70 2.5,-70"/>
</g>
<!-- DerivedTypes -->
<g id="node2" class="node">
<title>DerivedTypes</title>
<text text-anchor="start" x="32.5" y="-21.4" font-family="Helvetica,sans-Serif" font-weight="bold" font-size="12.00" fill="#000000">Derived types</text>
<g id="a_node2_0"><a xlink:href="../../ag_codes/ProducerSharePercentType/#diagram" xlink:title="A data type for producer&#39;s share of a crop and the benefits coming from that crop, expressed as a percentage." target="_top">
<polygon fill="#ebebeb" stroke="transparent" points="31.5,-1 31.5,-16 238.5,-16 238.5,-1 31.5,-1"/>
<text text-anchor="start" x="32.5" y="-5.4" font-family="Helvetica,sans-Serif" font-size="12.00" fill="#000000">ag_codes:ProducerSharePercentType</text>
</a>
</g>
<polygon fill="#000000" stroke="#000000" points="30.5,-16 30.5,-16 239.5,-16 239.5,-16 30.5,-16"/>
<polygon fill="none" stroke="#000000" points="30,0 30,-32 239,-32 239,0 30,0"/>
</g>
<!-- ag_codes:ProducerSharePercentSimpleType&#45;&gt;DerivedTypes -->
<g id="edge1" class="edge">
<title>ag_codes:ProducerSharePercentSimpleType&#45;&gt;DerivedTypes</title>
<path fill="none" stroke="#000000" d="M134.5,-67.4892C134.5,-60.3101 134.5,-51.0172 134.5,-42.306"/>
<polygon fill="#000000" stroke="#000000" points="138.0001,-42.1499 134.5,-32.1499 131.0001,-42.1499 138.0001,-42.1499"/>
<text text-anchor="middle" x="125" y="-46.65" font-family="Helvetica,sans-Serif" font-size="12.00" fill="#000000">derived</text>
</g>
<!-- xs:decimal -->
<g id="node3" class="node">
<title>xs:decimal</title>
<g id="a_node3_1"><a xlink:href="../../xs/decimal/#diagram" xlink:title="&lt;TABLE&gt;" target="_top">
<text text-anchor="start" x="106.5" y="-133.4" font-family="Helvetica,sans-Serif" font-size="12.00" fill="#000000">xs:decimal</text>
</a>
</g>
<polygon fill="none" stroke="#000000" points="104,-128.5 104,-145.5 165,-145.5 165,-128.5 104,-128.5"/>
</g>
<!-- xs:decimal&#45;&gt;ag_codes:ProducerSharePercentSimpleType -->
<g id="edge2" class="edge">
<title>xs:decimal&#45;&gt;ag_codes:ProducerSharePercentSimpleType</title>
<path fill="none" stroke="#000000" d="M134.5,-128.4473C134.5,-121.6242 134.5,-111.7417 134.5,-102.6794"/>
<polygon fill="#000000" stroke="#000000" points="138.0001,-102.6501 134.5,-92.6501 131.0001,-102.6502 138.0001,-102.6501"/>
<text text-anchor="middle" x="125" y="-107.4" font-family="Helvetica,sans-Serif" font-size="12.00" fill="#000000">restriction</text>
</g>
</g>
</svg>
