<?xml version="1.0" encoding="UTF-8" standalone="no"?>
<!DOCTYPE svg PUBLIC "-//W3C//DTD SVG 1.1//EN"
 "http://www.w3.org/Graphics/SVG/1.1/DTD/svg11.dtd">
<!-- Generated by graphviz version 2.40.1 (20161225.0304)
 -->
<!-- Title: graphic Pages: 1 -->
<svg width="466pt" height="45pt"
 viewBox="0.00 0.00 466.00 45.00" xmlns="http://www.w3.org/2000/svg" xmlns:xlink="http://www.w3.org/1999/xlink">
<g id="graph0" class="graph" transform="scale(1 1) rotate(0) translate(4 41)">
<title>graphic</title>
<polygon fill="#ffffff" stroke="transparent" points="-4,4 -4,-41 462,-41 462,4 -4,4"/>
<!-- m:LocationPort -->
<g id="node1" class="node">
<title>m:LocationPort</title>
<text text-anchor="start" x="237.5" y="-21.4" font-family="Helvetica,sans-Serif" font-weight="bold" font-size="12.00" fill="#000000">m:LocationPort</text>
<polygon fill="none" stroke="#ff0000" stroke-width="5" points="233.5,-14 233.5,-34 329.5,-34 329.5,-14 233.5,-14"/>
</g>
<!-- m:PortType -->
<g id="node3" class="node">
<title>m:PortType</title>
<g id="a_node3_0"><a xlink:href="../../m/PortType/#diagram" xlink:title="A data type for a facility capable of receiving vessels and transferring cargo." target="_top">
<text text-anchor="start" x="393.5" y="-20.4" font-family="Helvetica,sans-Serif" font-size="12.00" fill="#000000">m:PortType</text>
</a>
</g>
<polygon fill="none" stroke="#000000" points="391,-15.5 391,-32.5 458,-32.5 458,-15.5 391,-15.5"/>
</g>
<!-- m:LocationPort&#45;&gt;m:PortType -->
<g id="edge2" class="edge">
<title>m:LocationPort&#45;&gt;m:PortType</title>
<path fill="none" stroke="#000000" d="M332.3191,-24C348.1037,-24 365.3597,-24 380.629,-24"/>
<polygon fill="#000000" stroke="#000000" points="380.8402,-27.5001 390.8401,-24 380.8401,-20.5001 380.8402,-27.5001"/>
<text text-anchor="middle" x="361.5" y="-27.4" font-family="Helvetica,sans-Serif" font-size="12.00" fill="#000000">type</text>
</g>
<!-- Types -->
<g id="node2" class="node">
<title>Types</title>
<text text-anchor="start" x="2" y="-21.4" font-family="Helvetica,sans-Serif" font-weight="bold" font-size="12.00" fill="#000000">Types</text>
<g id="a_node2_1"><a xlink:href="../../m/LocationAugmentationType/#diagram" xlink:title="A data type for additional information about a location." target="_top">
<polygon fill="#ebebeb" stroke="transparent" points="1,-1 1,-16 163,-16 163,-1 1,-1"/>
<text text-anchor="start" x="2" y="-5.4" font-family="Helvetica,sans-Serif" font-size="12.00" fill="#000000">m:LocationAugmentationType</text>
</a>
</g>
<polygon fill="#000000" stroke="#000000" points="0,-16 0,-16 164,-16 164,-16 0,-16"/>
<polygon fill="none" stroke="#000000" points="0,0 0,-32 164,-32 164,0 0,0"/>
</g>
<!-- Types&#45;&gt;m:LocationPort -->
<g id="edge1" class="edge">
<title>Types:top&#45;&gt;m:LocationPort</title>
<path fill="none" stroke="#000000" d="M163,-24C181.7471,-24 202.1624,-24 220.683,-24"/>
<polygon fill="#000000" stroke="#000000" points="220.7547,-27.5001 230.7547,-24 220.7547,-20.5001 220.7547,-27.5001"/>
<text text-anchor="middle" x="197.5" y="-27.4" font-family="Helvetica,sans-Serif" font-size="12.00" fill="#000000">has&#45;a</text>
</g>
</g>
</svg>
