<?xml version="1.0" encoding="UTF-8" standalone="no"?>
<!DOCTYPE svg PUBLIC "-//W3C//DTD SVG 1.1//EN"
 "http://www.w3.org/Graphics/SVG/1.1/DTD/svg11.dtd">
<!-- Generated by graphviz version 2.40.1 (20161225.0304)
 -->
<!-- Title: graphic Pages: 1 -->
<svg width="512pt" height="312pt"
 viewBox="0.00 0.00 512.00 311.50" xmlns="http://www.w3.org/2000/svg" xmlns:xlink="http://www.w3.org/1999/xlink">
<g id="graph0" class="graph" transform="scale(1 1) rotate(0) translate(4 307.5)">
<title>graphic</title>
<polygon fill="#ffffff" stroke="transparent" points="-4,4 -4,-307.5 508,-307.5 508,4 -4,4"/>
<!-- j:ServiceAssociationType -->
<g id="node1" class="node">
<title>j:ServiceAssociationType</title>
<text text-anchor="start" x="189.5" y="-183.4" font-family="Helvetica,sans-Serif" font-weight="bold" font-size="12.00" fill="#000000">j:ServiceAssociationType</text>
<g id="a_node1_0"><a xlink:href="../../j/ContactFrequencyText/#diagram" xlink:title="A frequency of contact a person has with another person." target="_top">
<polygon fill="#ebebeb" stroke="transparent" points="188.5,-163 188.5,-178 499.5,-178 499.5,-163 188.5,-163"/>
<text text-anchor="start" x="189.5" y="-167.4" font-family="Helvetica,sans-Serif" font-size="12.00" fill="#000000">j:ContactFrequencyText: nc:TextType [0&#45;n]</text>
</a>
</g>
<g id="a_node1_1"><a xlink:href="../../j/ServiceDescriptionText/#diagram" xlink:title="A description of a service being provided." target="_top">
<text text-anchor="start" x="189.5" y="-152.4" font-family="Helvetica,sans-Serif" font-size="12.00" fill="#000000">j:ServiceDescriptionText: nc:TextType [0&#45;n]</text>
</a>
</g>
<g id="a_node1_2"><a xlink:href="../../j/ServiceProviderOrganization/#diagram" xlink:title="An organization receiving a service." target="_top">
<polygon fill="#ebebeb" stroke="transparent" points="188.5,-133 188.5,-148 499.5,-148 499.5,-133 188.5,-133"/>
<text text-anchor="start" x="189.5" y="-137.4" font-family="Helvetica,sans-Serif" font-size="12.00" fill="#000000">j:ServiceProviderOrganization: nc:OrganizationType [0&#45;n]</text>
</a>
</g>
<g id="a_node1_3"><a xlink:href="../../j/ServiceProviderPerson/#diagram" xlink:title="A person receiving a service." target="_top">
<text text-anchor="start" x="189.5" y="-122.4" font-family="Helvetica,sans-Serif" font-size="12.00" fill="#000000">j:ServiceProviderPerson: nc:PersonType [0&#45;n]</text>
</a>
</g>
<g id="a_node1_4"><a xlink:href="../../j/ServiceRecipientOrganization/#diagram" xlink:title="An organization providing income." target="_top">
<polygon fill="#ebebeb" stroke="transparent" points="188.5,-103 188.5,-118 499.5,-118 499.5,-103 188.5,-103"/>
<text text-anchor="start" x="189.5" y="-107.4" font-family="Helvetica,sans-Serif" font-size="12.00" fill="#000000">j:ServiceRecipientOrganization: nc:OrganizationType [0&#45;n]</text>
</a>
</g>
<g id="a_node1_5"><a xlink:href="../../j/ServiceRecipientPerson/#diagram" xlink:title="A person providing a service." target="_top">
<text text-anchor="start" x="189.5" y="-92.4" font-family="Helvetica,sans-Serif" font-size="12.00" fill="#000000">j:ServiceRecipientPerson: nc:PersonType [0&#45;n]</text>
</a>
</g>
<g id="a_node1_6"><a xlink:href="../../j/ServiceAssociationAugmentationPoint/#diagram" xlink:title="An augmentation point for ServiceAssociationType." target="_top">
<polygon fill="#ebebeb" stroke="transparent" points="188.5,-73 188.5,-88 499.5,-88 499.5,-73 188.5,-73"/>
<text text-anchor="start" x="189.5" y="-77.4" font-family="Helvetica,sans-Serif" font-size="12.00" fill="#000000">j:ServiceAssociationAugmentationPoint [0&#45;n]</text>
</a>
</g>
<polygon fill="#ff0000" stroke="#ff0000" points="183.5,-178 183.5,-178 504.5,-178 504.5,-178 183.5,-178"/>
<polygon fill="none" stroke="#ff0000" stroke-width="5" points="185.5,-70.5 185.5,-195.5 501.5,-195.5 501.5,-70.5 185.5,-70.5"/>
</g>
<!-- DerivedTypes -->
<g id="node3" class="node">
<title>DerivedTypes</title>
<text text-anchor="start" x="237.5" y="-21.4" font-family="Helvetica,sans-Serif" font-weight="bold" font-size="12.00" fill="#000000">Derived types</text>
<g id="a_node3_7"><a xlink:href="../../j/PatientStudentServiceAssociationType/#diagram" xlink:title="A data type for a relationship between a service provider entity (person or organization) and a service recipient entity." target="_top">
<polygon fill="#ebebeb" stroke="transparent" points="236.5,-1 236.5,-16 451.5,-16 451.5,-1 236.5,-1"/>
<text text-anchor="start" x="237.5" y="-5.4" font-family="Helvetica,sans-Serif" font-size="12.00" fill="#000000">j:PatientStudentServiceAssociationType</text>
</a>
</g>
<polygon fill="#000000" stroke="#000000" points="235.5,-16 235.5,-16 452.5,-16 452.5,-16 235.5,-16"/>
<polygon fill="none" stroke="#000000" points="235,0 235,-32 452,-32 452,0 235,0"/>
</g>
<!-- j:ServiceAssociationType&#45;&gt;DerivedTypes -->
<g id="edge2" class="edge">
<title>j:ServiceAssociationType&#45;&gt;DerivedTypes</title>
<path fill="none" stroke="#000000" d="M343.5,-67.7862C343.5,-58.8017 343.5,-50.0313 343.5,-42.3377"/>
<polygon fill="#000000" stroke="#000000" points="347.0001,-42.2683 343.5,-32.2683 340.0001,-42.2684 347.0001,-42.2683"/>
<text text-anchor="middle" x="334" y="-46.9" font-family="Helvetica,sans-Serif" font-size="12.00" fill="#000000">derived</text>
</g>
<!-- Properties -->
<g id="node2" class="node">
<title>Properties</title>
<text text-anchor="start" x="2" y="-183.4" font-family="Helvetica,sans-Serif" font-weight="bold" font-size="12.00" fill="#000000">Properties</text>
<g id="a_node2_8"><a xlink:href="../../j/CaregiverAssociation/#diagram" xlink:title="A relationship between a caregiver and a person taken care of." target="_top">
<polygon fill="#ebebeb" stroke="transparent" points="1,-163 1,-178 123,-178 123,-163 1,-163"/>
<text text-anchor="start" x="2" y="-167.4" font-family="Helvetica,sans-Serif" font-size="12.00" fill="#000000">j:CaregiverAssociation</text>
</a>
</g>
<g id="a_node2_9"><a xlink:href="../../j/ClientAssociation/#diagram" xlink:title="A relationship between a client and a service provider." target="_top">
<text text-anchor="start" x="2" y="-152.4" font-family="Helvetica,sans-Serif" font-size="12.00" fill="#000000">j:ClientAssociation</text>
</a>
</g>
<g id="a_node2_10"><a xlink:href="../../j/DeliveryAssociation/#diagram" xlink:title="A relationship between a client and a delivery service provider." target="_top">
<polygon fill="#ebebeb" stroke="transparent" points="1,-133 1,-148 123,-148 123,-133 1,-133"/>
<text text-anchor="start" x="2" y="-137.4" font-family="Helvetica,sans-Serif" font-size="12.00" fill="#000000">j:DeliveryAssociation</text>
</a>
</g>
<g id="a_node2_11"><a xlink:href="../../j/ServiceAssociation/#diagram" xlink:title="A relationship between a service provider entity (person or organization) and a service recipient entity." target="_top">
<text text-anchor="start" x="2" y="-122.4" font-family="Helvetica,sans-Serif" font-size="12.00" fill="#000000">j:ServiceAssociation</text>
</a>
</g>
<polygon fill="#000000" stroke="#000000" points="0,-178 0,-178 124,-178 124,-178 0,-178"/>
<polygon fill="none" stroke="#000000" points="0,-117.5 0,-194.5 124,-194.5 124,-117.5 0,-117.5"/>
</g>
<!-- Properties&#45;&gt;j:ServiceAssociationType -->
<g id="edge1" class="edge">
<title>Properties:top&#45;&gt;j:ServiceAssociationType:top</title>
<path fill="none" stroke="#000000" d="M123,-186C148.3585,-186 157.1498,-186 178.2371,-186"/>
<polygon fill="#000000" stroke="#000000" points="178.5,-189.5001 188.5,-186 178.5,-182.5001 178.5,-189.5001"/>
<text text-anchor="middle" x="153.5" y="-189.4" font-family="Helvetica,sans-Serif" font-size="12.00" fill="#000000">type</text>
</g>
<!-- nc:AssociationType -->
<g id="node4" class="node">
<title>nc:AssociationType</title>
<g id="a_node4_12"><a xlink:href="../../nc/AssociationType/#diagram" xlink:title="A data type for an association, connection, relationship, or involvement somehow linking people, things, and/or activities together." target="_top">
<text text-anchor="start" x="291.5" y="-238.4" font-family="Helvetica,sans-Serif" font-size="12.00" fill="#000000">nc:AssociationType</text>
</a>
</g>
<polygon fill="none" stroke="#000000" points="289,-233.5 289,-250.5 398,-250.5 398,-233.5 289,-233.5"/>
</g>
<!-- nc:AssociationType&#45;&gt;j:ServiceAssociationType -->
<g id="edge3" class="edge">
<title>nc:AssociationType&#45;&gt;j:ServiceAssociationType</title>
<path fill="none" stroke="#000000" d="M343.5,-233.3644C343.5,-227.2696 343.5,-218.4448 343.5,-208.522"/>
<polygon fill="#000000" stroke="#000000" points="347.0001,-208.2935 343.5,-198.2936 340.0001,-208.2936 347.0001,-208.2935"/>
<text text-anchor="middle" x="334" y="-212.65" font-family="Helvetica,sans-Serif" font-size="12.00" fill="#000000">extension</text>
</g>
<!-- structures:AssociationType -->
<g id="node5" class="node">
<title>structures:AssociationType</title>
<g id="a_node5_13"><a xlink:href="../../structures/AssociationType/#diagram" xlink:title="A data type for a relationship between two or more objects, including any properties of that relationship." target="_top">
<text text-anchor="start" x="271.5" y="-291.4" font-family="Helvetica,sans-Serif" font-size="12.00" fill="#000000">structures:AssociationType</text>
</a>
</g>
<polygon fill="none" stroke="#000000" points="269,-286.5 269,-303.5 418,-303.5 418,-286.5 269,-286.5"/>
</g>
<!-- structures:AssociationType&#45;&gt;nc:AssociationType -->
<g id="edge4" class="edge">
<title>structures:AssociationType&#45;&gt;nc:AssociationType</title>
<path fill="none" stroke="#000000" d="M343.5,-286.411C343.5,-279.5124 343.5,-269.5696 343.5,-260.84"/>
<polygon fill="#000000" stroke="#000000" points="347.0001,-260.7518 343.5,-250.7519 340.0001,-260.7519 347.0001,-260.7518"/>
<text text-anchor="middle" x="334" y="-265.4" font-family="Helvetica,sans-Serif" font-size="12.00" fill="#000000">extension</text>
</g>
</g>
</svg>
