<?xml version="1.0" encoding="UTF-8" standalone="no"?>
<!DOCTYPE svg PUBLIC "-//W3C//DTD SVG 1.1//EN"
 "http://www.w3.org/Graphics/SVG/1.1/DTD/svg11.dtd">
<!-- Generated by graphviz version 2.40.1 (20161225.0304)
 -->
<!-- Title: graphic Pages: 1 -->
<svg width="588pt" height="101pt"
 viewBox="0.00 0.00 588.00 101.00" xmlns="http://www.w3.org/2000/svg" xmlns:xlink="http://www.w3.org/1999/xlink">
<g id="graph0" class="graph" transform="scale(1 1) rotate(0) translate(4 97)">
<title>graphic</title>
<polygon fill="#ffffff" stroke="transparent" points="-4,4 -4,-97 584,-97 584,4 -4,4"/>
<!-- scr:DepartureCategoryAbstract -->
<g id="node1" class="node">
<title>scr:DepartureCategoryAbstract</title>
<text text-anchor="start" x="321" y="-77.4" font-family="Helvetica,sans-Serif" font-weight="bold" font-size="12.00" fill="#000000">scr:DepartureCategoryAbstract</text>
<polygon fill="none" stroke="#ff0000" stroke-width="5" points="317.5,-70 317.5,-90 504.5,-90 504.5,-70 317.5,-70"/>
</g>
<!-- SubstitutableElements -->
<g id="node3" class="node">
<title>SubstitutableElements</title>
<text text-anchor="start" x="244" y="-21.4" font-family="Helvetica,sans-Serif" font-weight="bold" font-size="12.00" fill="#000000">Substitutable elements</text>
<g id="a_node3_0"><a xlink:href="../../scr/DepartureCategoryCode/#diagram" xlink:title="A kind of departure." target="_top">
<polygon fill="#ebebeb" stroke="transparent" points="243,-1 243,-16 579,-16 579,-1 243,-1"/>
<text text-anchor="start" x="244" y="-5.4" font-family="Helvetica,sans-Serif" font-size="12.00" fill="#000000">scr:DepartureCategoryCode: scr:DepartureCategoryCodeType</text>
</a>
</g>
<polygon fill="#000000" stroke="#000000" points="242,-16 242,-16 580,-16 580,-16 242,-16"/>
<polygon fill="none" stroke="#000000" points="242,0 242,-32 580,-32 580,0 242,0"/>
</g>
<!-- scr:DepartureCategoryAbstract&#45;&gt;SubstitutableElements -->
<g id="edge2" class="edge">
<title>scr:DepartureCategoryAbstract&#45;&gt;SubstitutableElements</title>
<path fill="none" stroke="#000000" d="M411,-57.3063C411,-48.9972 411,-39.7712 411,-32.1499"/>
<polygon fill="#000000" stroke="#000000" points="407.5001,-57.4892 411,-67.4892 414.5001,-57.4892 407.5001,-57.4892"/>
<text text-anchor="middle" x="401.5" y="-46.65" font-family="Helvetica,sans-Serif" font-size="12.00" fill="#000000">substitutable for</text>
</g>
<!-- Types -->
<g id="node2" class="node">
<title>Types</title>
<text text-anchor="start" x="2.5" y="-77.4" font-family="Helvetica,sans-Serif" font-weight="bold" font-size="12.00" fill="#000000">Types</text>
<g id="a_node2_1"><a xlink:href="../../scr/DepartureClassificationType/#diagram" xlink:title="A data type for a classification of how a Person departed the United States." target="_top">
<polygon fill="#ebebeb" stroke="transparent" points="1.5,-57 1.5,-72 174.5,-72 174.5,-57 1.5,-57"/>
<text text-anchor="start" x="2.5" y="-61.4" font-family="Helvetica,sans-Serif" font-size="12.00" fill="#000000">scr:DepartureClassificationType</text>
</a>
</g>
<polygon fill="#000000" stroke="#000000" points=".5,-72 .5,-72 175.5,-72 175.5,-72 .5,-72"/>
<polygon fill="none" stroke="#000000" points="0,-56 0,-88 175,-88 175,-56 0,-56"/>
</g>
<!-- Types&#45;&gt;scr:DepartureCategoryAbstract -->
<g id="edge1" class="edge">
<title>Types:top&#45;&gt;scr:DepartureCategoryAbstract</title>
<path fill="none" stroke="#000000" d="M174.5,-80C217.0827,-80 263.9782,-80 304.7033,-80"/>
<polygon fill="#000000" stroke="#000000" points="304.9178,-83.5001 314.9178,-80 304.9177,-76.5001 304.9178,-83.5001"/>
<text text-anchor="middle" x="208.5" y="-83.4" font-family="Helvetica,sans-Serif" font-size="12.00" fill="#000000">has&#45;a</text>
</g>
</g>
</svg>
