<?xml version="1.0" encoding="UTF-8" standalone="no"?>
<!DOCTYPE svg PUBLIC "-//W3C//DTD SVG 1.1//EN"
 "http://www.w3.org/Graphics/SVG/1.1/DTD/svg11.dtd">
<!-- Generated by graphviz version 2.40.1 (20161225.0304)
 -->
<!-- Title: graphic Pages: 1 -->
<svg width="481pt" height="45pt"
 viewBox="0.00 0.00 481.00 45.00" xmlns="http://www.w3.org/2000/svg" xmlns:xlink="http://www.w3.org/1999/xlink">
<g id="graph0" class="graph" transform="scale(1 1) rotate(0) translate(4 41)">
<title>graphic</title>
<polygon fill="#ffffff" stroke="transparent" points="-4,4 -4,-41 477,-41 477,4 -4,4"/>
<!-- im:AlienEncounter -->
<g id="node1" class="node">
<title>im:AlienEncounter</title>
<text text-anchor="start" x="172.5" y="-21.4" font-family="Helvetica,sans-Serif" font-weight="bold" font-size="12.00" fill="#000000">im:AlienEncounter</text>
<polygon fill="none" stroke="#ff0000" stroke-width="5" points="168.5,-14 168.5,-34 282.5,-34 282.5,-14 168.5,-14"/>
</g>
<!-- im:AlienEncounterType -->
<g id="node3" class="node">
<title>im:AlienEncounterType</title>
<g id="a_node3_0"><a xlink:href="../../im/AlienEncounterType/#diagram" xlink:title="A data type for the interface between an alien and a Department of Homeland Security (DHS) Immigration and Customs Enforcement (ICE) official." target="_top">
<text text-anchor="start" x="346.5" y="-20.4" font-family="Helvetica,sans-Serif" font-size="12.00" fill="#000000">im:AlienEncounterType</text>
</a>
</g>
<polygon fill="none" stroke="#000000" points="344,-15.5 344,-32.5 473,-32.5 473,-15.5 344,-15.5"/>
</g>
<!-- im:AlienEncounter&#45;&gt;im:AlienEncounterType -->
<g id="edge2" class="edge">
<title>im:AlienEncounter&#45;&gt;im:AlienEncounterType</title>
<path fill="none" stroke="#000000" d="M285.1678,-24C300.5688,-24 317.3442,-24 333.4204,-24"/>
<polygon fill="#000000" stroke="#000000" points="333.8624,-27.5001 343.8624,-24 333.8623,-20.5001 333.8624,-27.5001"/>
<text text-anchor="middle" x="314.5" y="-27.4" font-family="Helvetica,sans-Serif" font-size="12.00" fill="#000000">type</text>
</g>
<!-- Types -->
<g id="node2" class="node">
<title>Types</title>
<text text-anchor="start" x="2.5" y="-21.4" font-family="Helvetica,sans-Serif" font-weight="bold" font-size="12.00" fill="#000000">Types</text>
<g id="a_node2_1"><a xlink:href="../../im/AlienRoleType/#diagram" xlink:title="A data type for a foreign born person who is not a citizen of the United States." target="_top">
<polygon fill="#ebebeb" stroke="transparent" points="1.5,-1 1.5,-16 98.5,-16 98.5,-1 1.5,-1"/>
<text text-anchor="start" x="2.5" y="-5.4" font-family="Helvetica,sans-Serif" font-size="12.00" fill="#000000">im:AlienRoleType</text>
</a>
</g>
<polygon fill="#000000" stroke="#000000" points=".5,-16 .5,-16 99.5,-16 99.5,-16 .5,-16"/>
<polygon fill="none" stroke="#000000" points="0,0 0,-32 99,-32 99,0 0,0"/>
</g>
<!-- Types&#45;&gt;im:AlienEncounter -->
<g id="edge1" class="edge">
<title>Types:top&#45;&gt;im:AlienEncounter</title>
<path fill="none" stroke="#000000" d="M98.5,-24C117.0105,-24 137.0386,-24 155.5982,-24"/>
<polygon fill="#000000" stroke="#000000" points="155.7391,-27.5001 165.739,-24 155.739,-20.5001 155.7391,-27.5001"/>
<text text-anchor="middle" x="132.5" y="-27.4" font-family="Helvetica,sans-Serif" font-size="12.00" fill="#000000">has&#45;a</text>
</g>
</g>
</svg>
