<?xml version="1.0" encoding="UTF-8" standalone="no"?>
<!DOCTYPE svg PUBLIC "-//W3C//DTD SVG 1.1//EN"
 "http://www.w3.org/Graphics/SVG/1.1/DTD/svg11.dtd">
<!-- Generated by graphviz version 2.40.1 (20161225.0304)
 -->
<!-- Title: graphic Pages: 1 -->
<svg width="475pt" height="45pt"
 viewBox="0.00 0.00 475.00 45.00" xmlns="http://www.w3.org/2000/svg" xmlns:xlink="http://www.w3.org/1999/xlink">
<g id="graph0" class="graph" transform="scale(1 1) rotate(0) translate(4 41)">
<title>graphic</title>
<polygon fill="#ffffff" stroke="transparent" points="-4,4 -4,-41 471,-41 471,4 -4,4"/>
<!-- j:WarrantExtraditionStateName -->
<g id="node1" class="node">
<title>j:WarrantExtraditionStateName</title>
<text text-anchor="start" x="153" y="-21.4" font-family="Helvetica,sans-Serif" font-weight="bold" font-size="12.00" fill="#000000">j:WarrantExtraditionStateName</text>
<polygon fill="none" stroke="#ff0000" stroke-width="5" points="149.5,-14 149.5,-34 334.5,-34 334.5,-14 149.5,-14"/>
</g>
<!-- nc:TextType -->
<g id="node3" class="node">
<title>nc:TextType</title>
<g id="a_node3_0"><a xlink:href="../../nc/TextType/#diagram" xlink:title="A data type for a character string." target="_top">
<text text-anchor="start" x="398.5" y="-20.4" font-family="Helvetica,sans-Serif" font-size="12.00" fill="#000000">nc:TextType</text>
</a>
</g>
<polygon fill="none" stroke="#000000" points="396,-15.5 396,-32.5 467,-32.5 467,-15.5 396,-15.5"/>
</g>
<!-- j:WarrantExtraditionStateName&#45;&gt;nc:TextType -->
<g id="edge2" class="edge">
<title>j:WarrantExtraditionStateName&#45;&gt;nc:TextType</title>
<path fill="none" stroke="#000000" d="M337.0276,-24C353.9706,-24 370.9018,-24 385.654,-24"/>
<polygon fill="#000000" stroke="#000000" points="385.9799,-27.5001 395.9799,-24 385.9798,-20.5001 385.9799,-27.5001"/>
<text text-anchor="middle" x="366.5" y="-27.4" font-family="Helvetica,sans-Serif" font-size="12.00" fill="#000000">type</text>
</g>
<!-- Types -->
<g id="node2" class="node">
<title>Types</title>
<text text-anchor="start" x="2" y="-21.4" font-family="Helvetica,sans-Serif" font-weight="bold" font-size="12.00" fill="#000000">Types</text>
<g id="a_node2_1"><a xlink:href="../../j/WarrantType/#diagram" xlink:title="A data type for an authorization for an enforcement official to perform a specified action." target="_top">
<polygon fill="#ebebeb" stroke="transparent" points="1,-1 1,-16 79,-16 79,-1 1,-1"/>
<text text-anchor="start" x="2" y="-5.4" font-family="Helvetica,sans-Serif" font-size="12.00" fill="#000000">j:WarrantType</text>
</a>
</g>
<polygon fill="#000000" stroke="#000000" points="0,-16 0,-16 80,-16 80,-16 0,-16"/>
<polygon fill="none" stroke="#000000" points="0,0 0,-32 80,-32 80,0 0,0"/>
</g>
<!-- Types&#45;&gt;j:WarrantExtraditionStateName -->
<g id="edge1" class="edge">
<title>Types:top&#45;&gt;j:WarrantExtraditionStateName</title>
<path fill="none" stroke="#000000" d="M79,-24C97.5903,-24 117.3733,-24 136.5125,-24"/>
<polygon fill="#000000" stroke="#000000" points="136.7589,-27.5001 146.7589,-24 136.7588,-20.5001 136.7589,-27.5001"/>
<text text-anchor="middle" x="113.5" y="-27.4" font-family="Helvetica,sans-Serif" font-size="12.00" fill="#000000">has&#45;a</text>
</g>
</g>
</svg>
