<?xml version="1.0" encoding="UTF-8" standalone="no"?>
<!DOCTYPE svg PUBLIC "-//W3C//DTD SVG 1.1//EN"
 "http://www.w3.org/Graphics/SVG/1.1/DTD/svg11.dtd">
<!-- Generated by graphviz version 2.40.1 (20161225.0304)
 -->
<!-- Title: graphic Pages: 1 -->
<svg width="710pt" height="267pt"
 viewBox="0.00 0.00 710.00 266.50" xmlns="http://www.w3.org/2000/svg" xmlns:xlink="http://www.w3.org/1999/xlink">
<g id="graph0" class="graph" transform="scale(1 1) rotate(0) translate(4 262.5)">
<title>graphic</title>
<polygon fill="#ffffff" stroke="transparent" points="-4,4 -4,-262.5 706,-262.5 706,4 -4,4"/>
<!-- stat:DataStructureComponentType -->
<g id="node1" class="node">
<title>stat:DataStructureComponentType</title>
<text text-anchor="start" x="228" y="-137.4" font-family="Helvetica,sans-Serif" font-weight="bold" font-size="12.00" fill="#000000">stat:DataStructureComponentType</text>
<g id="a_node1_0"><a xlink:href="../../stat/DataStructureComponentRepresentedVariable/#diagram" xlink:title="A represented variable which defines a data structure component." target="_top">
<polygon fill="#ebebeb" stroke="transparent" points="227,-117 227,-132 697,-132 697,-117 227,-117"/>
<text text-anchor="start" x="228" y="-121.4" font-family="Helvetica,sans-Serif" font-size="12.00" fill="#000000">stat:DataStructureComponentRepresentedVariable: stat:RepresentedVariableType [0&#45;n]</text>
</a>
</g>
<g id="a_node1_1"><a xlink:href="../../stat/DataStructureComponentAugmentationPoint/#diagram" xlink:title="An augmentation point for type stat:DataStructureComponentType" target="_top">
<text text-anchor="start" x="228" y="-106.4" font-family="Helvetica,sans-Serif" font-size="12.00" fill="#000000">stat:DataStructureComponentAugmentationPoint [0&#45;n]</text>
</a>
</g>
<polygon fill="#ff0000" stroke="#ff0000" points="222,-132 222,-132 702,-132 702,-132 222,-132"/>
<polygon fill="none" stroke="#ff0000" stroke-width="5" points="224.5,-100 224.5,-150 699.5,-150 699.5,-100 224.5,-100"/>
</g>
<!-- DerivedTypes -->
<g id="node3" class="node">
<title>DerivedTypes</title>
<text text-anchor="start" x="383" y="-51.4" font-family="Helvetica,sans-Serif" font-weight="bold" font-size="12.00" fill="#000000">Derived types</text>
<g id="a_node3_2"><a xlink:href="../../stat/AttributeComponentType/#diagram" xlink:title="A data type for a role given to a represented variable in the context of a data structure, which supplies information other than identification or measures." target="_top">
<polygon fill="#ebebeb" stroke="transparent" points="382,-31 382,-46 543,-46 543,-31 382,-31"/>
<text text-anchor="start" x="383" y="-35.4" font-family="Helvetica,sans-Serif" font-size="12.00" fill="#000000">stat:AttributeComponentType</text>
</a>
</g>
<g id="a_node3_3"><a xlink:href="../../stat/IdentifierComponentType/#diagram" xlink:title="A data type for a role given to a represented variable in the context of a data structure to identify the unit in an organized collection of data." target="_top">
<text text-anchor="start" x="383" y="-20.4" font-family="Helvetica,sans-Serif" font-size="12.00" fill="#000000">stat:IdentifierComponentType</text>
</a>
</g>
<g id="a_node3_4"><a xlink:href="../../stat/MeasureComponentType/#diagram" xlink:title="A data type for a role given to a represented variable in the context of a data structure to hold the observed/derived values for a particular unit in an organized collection of data." target="_top">
<polygon fill="#ebebeb" stroke="transparent" points="382,-1 382,-16 543,-16 543,-1 382,-1"/>
<text text-anchor="start" x="383" y="-5.4" font-family="Helvetica,sans-Serif" font-size="12.00" fill="#000000">stat:MeasureComponentType</text>
</a>
</g>
<polygon fill="#000000" stroke="#000000" points="381,-46 381,-46 544,-46 544,-46 381,-46"/>
<polygon fill="none" stroke="#000000" points="380.5,0 380.5,-62 543.5,-62 543.5,0 380.5,0"/>
</g>
<!-- stat:DataStructureComponentType&#45;&gt;DerivedTypes -->
<g id="edge2" class="edge">
<title>stat:DataStructureComponentType&#45;&gt;DerivedTypes</title>
<path fill="none" stroke="#000000" d="M462,-97.4726C462,-89.5724 462,-80.7805 462,-72.2456"/>
<polygon fill="#000000" stroke="#000000" points="465.5001,-72.0396 462,-62.0396 458.5001,-72.0397 465.5001,-72.0396"/>
<text text-anchor="middle" x="452.5" y="-76.65" font-family="Helvetica,sans-Serif" font-size="12.00" fill="#000000">derived</text>
</g>
<!-- Properties -->
<g id="node2" class="node">
<title>Properties</title>
<text text-anchor="start" x="2.5" y="-137.4" font-family="Helvetica,sans-Serif" font-weight="bold" font-size="12.00" fill="#000000">Properties</text>
<g id="a_node2_5"><a xlink:href="../../stat/DataStructureComponent/#diagram" xlink:title="A role of the represented variable in the context of a data structure." target="_top">
<polygon fill="#ebebeb" stroke="transparent" points="1.5,-117 1.5,-132 162.5,-132 162.5,-117 1.5,-117"/>
<text text-anchor="start" x="2.5" y="-121.4" font-family="Helvetica,sans-Serif" font-size="12.00" fill="#000000">stat:DataStructureComponent</text>
</a>
</g>
<polygon fill="#000000" stroke="#000000" points=".5,-132 .5,-132 163.5,-132 163.5,-132 .5,-132"/>
<polygon fill="none" stroke="#000000" points="0,-116 0,-148 163,-148 163,-116 0,-116"/>
</g>
<!-- Properties&#45;&gt;stat:DataStructureComponentType -->
<g id="edge1" class="edge">
<title>Properties:top&#45;&gt;stat:DataStructureComponentType:top</title>
<path fill="none" stroke="#000000" d="M162.5,-140C187.4714,-140 196.1284,-140 216.8937,-140"/>
<polygon fill="#000000" stroke="#000000" points="217,-143.5001 227,-140 217,-136.5001 217,-143.5001"/>
<text text-anchor="middle" x="192.5" y="-143.4" font-family="Helvetica,sans-Serif" font-size="12.00" fill="#000000">type</text>
</g>
<!-- stat:IdentifiableArtifactType -->
<g id="node4" class="node">
<title>stat:IdentifiableArtifactType</title>
<g id="a_node4_6"><a xlink:href="../../stat/IdentifiableArtifactType/#diagram" xlink:title="A data type for an abstract class that comprises the basic attributes and associations needed for identification, naming and other documentation." target="_top">
<text text-anchor="start" x="390" y="-193.4" font-family="Helvetica,sans-Serif" font-size="12.00" fill="#000000">stat:IdentifiableArtifactType</text>
</a>
</g>
<polygon fill="none" stroke="#000000" points="387.5,-188.5 387.5,-205.5 536.5,-205.5 536.5,-188.5 387.5,-188.5"/>
</g>
<!-- stat:IdentifiableArtifactType&#45;&gt;stat:DataStructureComponentType -->
<g id="edge3" class="edge">
<title>stat:IdentifiableArtifactType&#45;&gt;stat:DataStructureComponentType</title>
<path fill="none" stroke="#000000" d="M462,-188.3151C462,-181.8271 462,-172.4677 462,-162.9273"/>
<polygon fill="#000000" stroke="#000000" points="465.5001,-162.6311 462,-152.6312 458.5001,-162.6312 465.5001,-162.6311"/>
<text text-anchor="middle" x="452.5" y="-167.4" font-family="Helvetica,sans-Serif" font-size="12.00" fill="#000000">extension</text>
</g>
<!-- structures:ObjectType -->
<g id="node5" class="node">
<title>structures:ObjectType</title>
<g id="a_node5_7"><a xlink:href="../../structures/ObjectType/#diagram" xlink:title="A data type for a thing with its own lifespan that has some existence." target="_top">
<text text-anchor="start" x="403" y="-246.4" font-family="Helvetica,sans-Serif" font-size="12.00" fill="#000000">structures:ObjectType</text>
</a>
</g>
<polygon fill="none" stroke="#000000" points="401,-241.5 401,-258.5 523,-258.5 523,-241.5 401,-241.5"/>
</g>
<!-- structures:ObjectType&#45;&gt;stat:IdentifiableArtifactType -->
<g id="edge4" class="edge">
<title>structures:ObjectType&#45;&gt;stat:IdentifiableArtifactType</title>
<path fill="none" stroke="#000000" d="M462,-241.411C462,-234.5124 462,-224.5696 462,-215.84"/>
<polygon fill="#000000" stroke="#000000" points="465.5001,-215.7518 462,-205.7519 458.5001,-215.7519 465.5001,-215.7518"/>
<text text-anchor="middle" x="452.5" y="-220.4" font-family="Helvetica,sans-Serif" font-size="12.00" fill="#000000">extension</text>
</g>
</g>
</svg>
