<?xml version="1.0" encoding="UTF-8" standalone="no"?>
<!DOCTYPE svg PUBLIC "-//W3C//DTD SVG 1.1//EN"
 "http://www.w3.org/Graphics/SVG/1.1/DTD/svg11.dtd">
<!-- Generated by graphviz version 2.40.1 (20161225.0304)
 -->
<!-- Title: graphic Pages: 1 -->
<svg width="477pt" height="254pt"
 viewBox="0.00 0.00 477.00 254.00" xmlns="http://www.w3.org/2000/svg" xmlns:xlink="http://www.w3.org/1999/xlink">
<g id="graph0" class="graph" transform="scale(1 1) rotate(0) translate(4 250)">
<title>graphic</title>
<polygon fill="#ffffff" stroke="transparent" points="-4,4 -4,-250 473,-250 473,4 -4,4"/>
<!-- ncic:VCOCodeType -->
<g id="node1" class="node">
<title>ncic:VCOCodeType</title>
<text text-anchor="start" x="257" y="-125.9" font-family="Helvetica,sans-Serif" font-weight="bold" font-size="12.00" fill="#000000">ncic:VCOCodeType</text>
<g id="a_node1_0"><a xlink:href="../../structures/SimpleObjectAttributeGroup/#diagram" xlink:title="A group of attributes that are applicable to objects, to be used when defining a complex type that is an extension of a simple type." target="_top">
<polygon fill="#ebebeb" stroke="transparent" points="256,-105.5 256,-120.5 464,-120.5 464,-105.5 256,-105.5"/>
<text text-anchor="start" x="257" y="-109.9" font-family="Helvetica,sans-Serif" font-size="12.00" fill="#000000">structures:SimpleObjectAttributeGroup</text>
</a>
</g>
<polygon fill="#ff0000" stroke="#ff0000" points="251,-120.5 251,-120.5 469,-120.5 469,-120.5 251,-120.5"/>
<polygon fill="none" stroke="#ff0000" stroke-width="5" points="253.5,-103 253.5,-138 466.5,-138 466.5,-103 253.5,-103"/>
</g>
<!-- Properties -->
<g id="node2" class="node">
<title>Properties</title>
<text text-anchor="start" x="2" y="-125.9" font-family="Helvetica,sans-Serif" font-weight="bold" font-size="12.00" fill="#000000">Properties</text>
<g id="a_node2_1"><a xlink:href="../../j/AircraftFuselageColorCode/#diagram" xlink:title="A color of the main body of an aircraft." target="_top">
<polygon fill="#ebebeb" stroke="transparent" points="1,-105.5 1,-120.5 191,-120.5 191,-105.5 1,-105.5"/>
<text text-anchor="start" x="2" y="-109.9" font-family="Helvetica,sans-Serif" font-size="12.00" fill="#000000">j:AircraftFuselageColorCode</text>
</a>
</g>
<g id="a_node2_2"><a xlink:href="../../j/AircraftWingColorCode/#diagram" xlink:title="A color of the wings of an aircraft." target="_top">
<text text-anchor="start" x="2" y="-94.9" font-family="Helvetica,sans-Serif" font-size="12.00" fill="#000000">j:AircraftWingColorCode</text>
</a>
</g>
<g id="a_node2_3"><a xlink:href="../../j/ConveyanceColorPrimaryCode/#diagram" xlink:title="A single, upper&#45;most, front&#45;most, or majority color of a vehicle." target="_top">
<polygon fill="#ebebeb" stroke="transparent" points="1,-75.5 1,-90.5 191,-90.5 191,-75.5 1,-75.5"/>
<text text-anchor="start" x="2" y="-79.9" font-family="Helvetica,sans-Serif" font-size="12.00" fill="#000000">j:ConveyanceColorPrimaryCode</text>
</a>
</g>
<g id="a_node2_4"><a xlink:href="../../j/ConveyanceColorSecondaryCode/#diagram" xlink:title="A lower&#45;most or rear&#45;most color of a two&#45;tone vehicle or a lesser color of a multi&#45;colored vehicle." target="_top">
<text text-anchor="start" x="2" y="-64.9" font-family="Helvetica,sans-Serif" font-size="12.00" fill="#000000">j:ConveyanceColorSecondaryCode</text>
</a>
</g>
<g id="a_node2_5"><a xlink:href="../../j/FirearmFinishCode/#diagram" xlink:title="A surface coating or finish of a firearm." target="_top">
<polygon fill="#ebebeb" stroke="transparent" points="1,-45.5 1,-60.5 191,-60.5 191,-45.5 1,-45.5"/>
<text text-anchor="start" x="2" y="-49.9" font-family="Helvetica,sans-Serif" font-size="12.00" fill="#000000">j:FirearmFinishCode</text>
</a>
</g>
<g id="a_node2_6"><a xlink:href="../../j/FirearmFinishColorCode/#diagram" xlink:title="A surface coating or finish of a firearm." target="_top">
<text text-anchor="start" x="2" y="-34.9" font-family="Helvetica,sans-Serif" font-size="12.00" fill="#000000">j:FirearmFinishColorCode</text>
</a>
</g>
<g id="a_node2_7"><a xlink:href="../../m/VesselHullColorCode/#diagram" xlink:title="A primary color of a hull of a vessel." target="_top">
<polygon fill="#ebebeb" stroke="transparent" points="1,-15.5 1,-30.5 191,-30.5 191,-15.5 1,-15.5"/>
<text text-anchor="start" x="2" y="-19.9" font-family="Helvetica,sans-Serif" font-size="12.00" fill="#000000">m:VesselHullColorCode</text>
</a>
</g>
<g id="a_node2_8"><a xlink:href="../../m/VesselSuperstructureColorCode/#diagram" xlink:title="A primary color of a superstructure of a vessel." target="_top">
<text text-anchor="start" x="2" y="-4.9" font-family="Helvetica,sans-Serif" font-size="12.00" fill="#000000">m:VesselSuperstructureColorCode</text>
</a>
</g>
<polygon fill="#000000" stroke="#000000" points="0,-120.5 0,-120.5 192,-120.5 192,-120.5 0,-120.5"/>
<polygon fill="none" stroke="#000000" points="0,0 0,-137 192,-137 192,0 0,0"/>
</g>
<!-- Properties&#45;&gt;ncic:VCOCodeType -->
<g id="edge1" class="edge">
<title>Properties:top&#45;&gt;ncic:VCOCodeType:top</title>
<path fill="none" stroke="#000000" d="M191,-128.5C216.1649,-128.5 224.8891,-128.5 245.8154,-128.5"/>
<polygon fill="#000000" stroke="#000000" points="246,-132.0001 256,-128.5 246,-125.0001 246,-132.0001"/>
<text text-anchor="middle" x="221.5" y="-131.9" font-family="Helvetica,sans-Serif" font-size="12.00" fill="#000000">type</text>
</g>
<!-- ncic:VCOCodeSimpleType -->
<g id="node3" class="node">
<title>ncic:VCOCodeSimpleType</title>
<g id="a_node3_9"><a xlink:href="../../ncic/VCOCodeSimpleType/#diagram" xlink:title="A data type for 5 &#45; Vehicle Color (VCO) Field Codes" target="_top">
<text text-anchor="start" x="289" y="-180.9" font-family="Helvetica,sans-Serif" font-size="12.00" fill="#000000">ncic:VCOCodeSimpleType</text>
</a>
</g>
<polygon fill="none" stroke="#000000" points="286.5,-176 286.5,-193 433.5,-193 433.5,-176 286.5,-176"/>
</g>
<!-- ncic:VCOCodeSimpleType&#45;&gt;ncic:VCOCodeType -->
<g id="edge2" class="edge">
<title>ncic:VCOCodeSimpleType&#45;&gt;ncic:VCOCodeType</title>
<path fill="none" stroke="#000000" d="M360,-175.9351C360,-169.431 360,-160.0678 360,-150.8827"/>
<polygon fill="#000000" stroke="#000000" points="363.5001,-150.75 360,-140.75 356.5001,-150.75 363.5001,-150.75"/>
<text text-anchor="middle" x="350.5" y="-155.15" font-family="Helvetica,sans-Serif" font-size="12.00" fill="#000000">extension</text>
</g>
<!-- xs:token -->
<g id="node4" class="node">
<title>xs:token</title>
<g id="a_node4_10"><a xlink:href="../../xs/token/#diagram" xlink:title="&lt;TABLE&gt;" target="_top">
<text text-anchor="start" x="338" y="-233.9" font-family="Helvetica,sans-Serif" font-size="12.00" fill="#000000">xs:token</text>
</a>
</g>
<polygon fill="none" stroke="#000000" points="335.5,-229 335.5,-246 384.5,-246 384.5,-229 335.5,-229"/>
</g>
<!-- xs:token&#45;&gt;ncic:VCOCodeSimpleType -->
<g id="edge3" class="edge">
<title>xs:token&#45;&gt;ncic:VCOCodeSimpleType</title>
<path fill="none" stroke="#000000" d="M360,-228.911C360,-222.0124 360,-212.0696 360,-203.34"/>
<polygon fill="#000000" stroke="#000000" points="363.5001,-203.2518 360,-193.2519 356.5001,-203.2519 363.5001,-203.2518"/>
<text text-anchor="middle" x="350.5" y="-207.9" font-family="Helvetica,sans-Serif" font-size="12.00" fill="#000000">restriction</text>
</g>
</g>
</svg>
