<?xml version="1.0" encoding="UTF-8" standalone="no"?>
<!DOCTYPE svg PUBLIC "-//W3C//DTD SVG 1.1//EN"
 "http://www.w3.org/Graphics/SVG/1.1/DTD/svg11.dtd">
<!-- Generated by graphviz version 2.40.1 (20161225.0304)
 -->
<!-- Title: graphic Pages: 1 -->
<svg width="490pt" height="45pt"
 viewBox="0.00 0.00 490.00 45.00" xmlns="http://www.w3.org/2000/svg" xmlns:xlink="http://www.w3.org/1999/xlink">
<g id="graph0" class="graph" transform="scale(1 1) rotate(0) translate(4 41)">
<title>graphic</title>
<polygon fill="#ffffff" stroke="transparent" points="-4,4 -4,-41 486,-41 486,4 -4,4"/>
<!-- em:Author -->
<g id="node1" class="node">
<title>em:Author</title>
<text text-anchor="start" x="227.5" y="-21.4" font-family="Helvetica,sans-Serif" font-weight="bold" font-size="12.00" fill="#000000">em:Author</text>
<polygon fill="none" stroke="#ff0000" stroke-width="5" points="223.5,-14 223.5,-34 291.5,-34 291.5,-14 223.5,-14"/>
</g>
<!-- em:IncidentAuthorType -->
<g id="node3" class="node">
<title>em:IncidentAuthorType</title>
<g id="a_node3_0"><a xlink:href="../../em/IncidentAuthorType/#diagram" xlink:title="A data type for information about the author of the incident" target="_top">
<text text-anchor="start" x="355.5" y="-20.4" font-family="Helvetica,sans-Serif" font-size="12.00" fill="#000000">em:IncidentAuthorType</text>
</a>
</g>
<polygon fill="none" stroke="#000000" points="353,-15.5 353,-32.5 482,-32.5 482,-15.5 353,-15.5"/>
</g>
<!-- em:Author&#45;&gt;em:IncidentAuthorType -->
<g id="edge2" class="edge">
<title>em:Author&#45;&gt;em:IncidentAuthorType</title>
<path fill="none" stroke="#000000" d="M294.2072,-24C308.5711,-24 325.5995,-24 342.3439,-24"/>
<polygon fill="#000000" stroke="#000000" points="342.7066,-27.5001 352.7066,-24 342.7065,-20.5001 342.7066,-27.5001"/>
<text text-anchor="middle" x="323.5" y="-27.4" font-family="Helvetica,sans-Serif" font-size="12.00" fill="#000000">type</text>
</g>
<!-- Types -->
<g id="node2" class="node">
<title>Types</title>
<text text-anchor="start" x="2" y="-21.4" font-family="Helvetica,sans-Serif" font-weight="bold" font-size="12.00" fill="#000000">Types</text>
<g id="a_node2_1"><a xlink:href="../../em/EmergencyIncidentType/#diagram" xlink:title="A data type for the description for an emergency Incident" target="_top">
<polygon fill="#ebebeb" stroke="transparent" points="1,-1 1,-16 153,-16 153,-1 1,-1"/>
<text text-anchor="start" x="2" y="-5.4" font-family="Helvetica,sans-Serif" font-size="12.00" fill="#000000">em:EmergencyIncidentType</text>
</a>
</g>
<polygon fill="#000000" stroke="#000000" points="0,-16 0,-16 154,-16 154,-16 0,-16"/>
<polygon fill="none" stroke="#000000" points="0,0 0,-32 154,-32 154,0 0,0"/>
</g>
<!-- Types&#45;&gt;em:Author -->
<g id="edge1" class="edge">
<title>Types:top&#45;&gt;em:Author</title>
<path fill="none" stroke="#000000" d="M153,-24C171.8057,-24 192.515,-24 210.5032,-24"/>
<polygon fill="#000000" stroke="#000000" points="210.745,-27.5001 220.745,-24 210.7449,-20.5001 210.745,-27.5001"/>
<text text-anchor="middle" x="187.5" y="-27.4" font-family="Helvetica,sans-Serif" font-size="12.00" fill="#000000">has&#45;a</text>
</g>
</g>
</svg>
