<?xml version="1.0" encoding="UTF-8" standalone="no"?>
<!DOCTYPE svg PUBLIC "-//W3C//DTD SVG 1.1//EN"
 "http://www.w3.org/Graphics/SVG/1.1/DTD/svg11.dtd">
<!-- Generated by graphviz version 2.40.1 (20161225.0304)
 -->
<!-- Title: graphic Pages: 1 -->
<svg width="334pt" height="45pt"
 viewBox="0.00 0.00 334.00 45.00" xmlns="http://www.w3.org/2000/svg" xmlns:xlink="http://www.w3.org/1999/xlink">
<g id="graph0" class="graph" transform="scale(1 1) rotate(0) translate(4 41)">
<title>graphic</title>
<polygon fill="#ffffff" stroke="transparent" points="-4,4 -4,-41 330,-41 330,4 -4,4"/>
<!-- j:BookingAugmentationPoint -->
<g id="node1" class="node">
<title>j:BookingAugmentationPoint</title>
<text text-anchor="start" x="154" y="-21.4" font-family="Helvetica,sans-Serif" font-weight="bold" font-size="12.00" fill="#000000">j:BookingAugmentationPoint</text>
<polygon fill="none" stroke="#ff0000" stroke-width="5" points="150.5,-14 150.5,-34 323.5,-34 323.5,-14 150.5,-14"/>
</g>
<!-- Types -->
<g id="node2" class="node">
<title>Types</title>
<text text-anchor="start" x="2.5" y="-21.4" font-family="Helvetica,sans-Serif" font-weight="bold" font-size="12.00" fill="#000000">Types</text>
<g id="a_node2_0"><a xlink:href="../../j/BookingType/#diagram" xlink:title="A data type for an administrative step taken after an arrest subject is brought to a police station or detention facility." target="_top">
<polygon fill="#ebebeb" stroke="transparent" points="1.5,-1 1.5,-16 80.5,-16 80.5,-1 1.5,-1"/>
<text text-anchor="start" x="2.5" y="-5.4" font-family="Helvetica,sans-Serif" font-size="12.00" fill="#000000">j:BookingType</text>
</a>
</g>
<polygon fill="#000000" stroke="#000000" points=".5,-16 .5,-16 81.5,-16 81.5,-16 .5,-16"/>
<polygon fill="none" stroke="#000000" points="0,0 0,-32 81,-32 81,0 0,0"/>
</g>
<!-- Types&#45;&gt;j:BookingAugmentationPoint -->
<g id="edge1" class="edge">
<title>Types:top&#45;&gt;j:BookingAugmentationPoint</title>
<path fill="none" stroke="#000000" d="M80.5,-24C98.9248,-24 118.5696,-24 137.4954,-24"/>
<polygon fill="#000000" stroke="#000000" points="137.6188,-27.5001 147.6187,-24 137.6187,-20.5001 137.6188,-27.5001"/>
<text text-anchor="middle" x="114.5" y="-27.4" font-family="Helvetica,sans-Serif" font-size="12.00" fill="#000000">has&#45;a</text>
</g>
</g>
</svg>
