<?xml version="1.0" encoding="UTF-8" standalone="no"?>
<!DOCTYPE svg PUBLIC "-//W3C//DTD SVG 1.1//EN"
 "http://www.w3.org/Graphics/SVG/1.1/DTD/svg11.dtd">
<!-- Generated by graphviz version 2.40.1 (20161225.0304)
 -->
<!-- Title: graphic Pages: 1 -->
<svg width="781pt" height="45pt"
 viewBox="0.00 0.00 781.00 45.00" xmlns="http://www.w3.org/2000/svg" xmlns:xlink="http://www.w3.org/1999/xlink">
<g id="graph0" class="graph" transform="scale(1 1) rotate(0) translate(4 41)">
<title>graphic</title>
<polygon fill="#ffffff" stroke="transparent" points="-4,4 -4,-41 777,-41 777,4 -4,4"/>
<!-- biom:ExemplarFingerPositionCode -->
<g id="node1" class="node">
<title>biom:ExemplarFingerPositionCode</title>
<text text-anchor="start" x="290.5" y="-21.4" font-family="Helvetica,sans-Serif" font-weight="bold" font-size="12.00" fill="#000000">biom:ExemplarFingerPositionCode</text>
<polygon fill="none" stroke="#ff0000" stroke-width="5" points="286.5,-14 286.5,-34 494.5,-34 494.5,-14 286.5,-14"/>
</g>
<!-- biom:ExemplarFingerPositionCodeType -->
<g id="node3" class="node">
<title>biom:ExemplarFingerPositionCodeType</title>
<g id="a_node3_0"><a xlink:href="../../biom/ExemplarFingerPositionCodeType/#diagram" xlink:title="A data type for basic finger positions and slap captures, standardly used for tenprint exemplar capture" target="_top">
<text text-anchor="start" x="558.5" y="-20.4" font-family="Helvetica,sans-Serif" font-size="12.00" fill="#000000">biom:ExemplarFingerPositionCodeType</text>
</a>
</g>
<polygon fill="none" stroke="#000000" points="556,-15.5 556,-32.5 773,-32.5 773,-15.5 556,-15.5"/>
</g>
<!-- biom:ExemplarFingerPositionCode&#45;&gt;biom:ExemplarFingerPositionCodeType -->
<g id="edge2" class="edge">
<title>biom:ExemplarFingerPositionCode&#45;&gt;biom:ExemplarFingerPositionCodeType</title>
<path fill="none" stroke="#000000" d="M497.2201,-24C513.148,-24 529.6507,-24 545.8075,-24"/>
<polygon fill="#000000" stroke="#000000" points="545.8144,-27.5001 555.8144,-24 545.8144,-20.5001 545.8144,-27.5001"/>
<text text-anchor="middle" x="526.5" y="-27.4" font-family="Helvetica,sans-Serif" font-size="12.00" fill="#000000">type</text>
</g>
<!-- Types -->
<g id="node2" class="node">
<title>Types</title>
<text text-anchor="start" x="2.5" y="-21.4" font-family="Helvetica,sans-Serif" font-weight="bold" font-size="12.00" fill="#000000">Types</text>
<g id="a_node2_1"><a xlink:href="../../biom/FingerImpressionImageDetailType/#diagram" xlink:title="A data type for the details about a fingerprint image" target="_top">
<polygon fill="#ebebeb" stroke="transparent" points="1.5,-1 1.5,-16 216.5,-16 216.5,-1 1.5,-1"/>
<text text-anchor="start" x="2.5" y="-5.4" font-family="Helvetica,sans-Serif" font-size="12.00" fill="#000000">biom:FingerImpressionImageDetailType</text>
</a>
</g>
<polygon fill="#000000" stroke="#000000" points=".5,-16 .5,-16 217.5,-16 217.5,-16 .5,-16"/>
<polygon fill="none" stroke="#000000" points="0,0 0,-32 217,-32 217,0 0,0"/>
</g>
<!-- Types&#45;&gt;biom:ExemplarFingerPositionCode -->
<g id="edge1" class="edge">
<title>Types:top&#45;&gt;biom:ExemplarFingerPositionCode</title>
<path fill="none" stroke="#000000" d="M216.5,-24C234.9365,-24 254.4719,-24 273.5343,-24"/>
<polygon fill="#000000" stroke="#000000" points="273.7572,-27.5001 283.7572,-24 273.7572,-20.5001 273.7572,-27.5001"/>
<text text-anchor="middle" x="250.5" y="-27.4" font-family="Helvetica,sans-Serif" font-size="12.00" fill="#000000">has&#45;a</text>
</g>
</g>
</svg>
