<?xml version="1.0" encoding="UTF-8" standalone="no"?>
<!DOCTYPE svg PUBLIC "-//W3C//DTD SVG 1.1//EN"
 "http://www.w3.org/Graphics/SVG/1.1/DTD/svg11.dtd">
<!-- Generated by graphviz version 2.40.1 (20161225.0304)
 -->
<!-- Title: graphic Pages: 1 -->
<svg width="670pt" height="252pt"
 viewBox="0.00 0.00 670.00 252.00" xmlns="http://www.w3.org/2000/svg" xmlns:xlink="http://www.w3.org/1999/xlink">
<g id="graph0" class="graph" transform="scale(1 1) rotate(0) translate(4 248)">
<title>graphic</title>
<polygon fill="#ffffff" stroke="transparent" points="-4,4 -4,-248 666,-248 666,4 -4,4"/>
<!-- hs:ServiceVictimAssociationType -->
<g id="node1" class="node">
<title>hs:ServiceVictimAssociationType</title>
<text text-anchor="start" x="309.5" y="-69.9" font-family="Helvetica,sans-Serif" font-weight="bold" font-size="12.00" fill="#000000">hs:ServiceVictimAssociationType</text>
<g id="a_node1_0"><a xlink:href="../../hs/ChildVictim/#diagram" xlink:title="A person who has not yet reached the age of majority and in whose interest a child welfare case has been initiated." target="_top">
<polygon fill="#ebebeb" stroke="transparent" points="308.5,-49.5 308.5,-64.5 657.5,-64.5 657.5,-49.5 308.5,-49.5"/>
<text text-anchor="start" x="309.5" y="-53.9" font-family="Helvetica,sans-Serif" font-size="12.00" fill="#000000">hs:ChildVictim: hs:ChildVictimType [0&#45;n]</text>
</a>
</g>
<g id="a_node1_1"><a xlink:href="../../hs/HumanTraffickingVictim/#diagram" xlink:title="A person who is a victim, potentially or actually, of human trafficking." target="_top">
<text text-anchor="start" x="309.5" y="-38.9" font-family="Helvetica,sans-Serif" font-size="12.00" fill="#000000">hs:HumanTraffickingVictim: hs:HumanTraffickingVictimType [0&#45;n]</text>
</a>
</g>
<g id="a_node1_2"><a xlink:href="../../hs/Service/#diagram" xlink:title="A service that will be made available by the agency." target="_top">
<polygon fill="#ebebeb" stroke="transparent" points="308.5,-19.5 308.5,-34.5 657.5,-34.5 657.5,-19.5 308.5,-19.5"/>
<text text-anchor="start" x="309.5" y="-23.9" font-family="Helvetica,sans-Serif" font-size="12.00" fill="#000000">hs:Service: hs:ServiceType [0&#45;n]</text>
</a>
</g>
<g id="a_node1_3"><a xlink:href="../../hs/ServiceVictimAssociationAugmentationPoint/#diagram" xlink:title="An augmentation point for ServiceVictimAssociationType." target="_top">
<text text-anchor="start" x="309.5" y="-8.9" font-family="Helvetica,sans-Serif" font-size="12.00" fill="#000000">hs:ServiceVictimAssociationAugmentationPoint [0&#45;n]</text>
</a>
</g>
<polygon fill="#ff0000" stroke="#ff0000" points="303.5,-64.5 303.5,-64.5 662.5,-64.5 662.5,-64.5 303.5,-64.5"/>
<polygon fill="none" stroke="#ff0000" stroke-width="5" points="305.5,-2.5 305.5,-82.5 659.5,-82.5 659.5,-2.5 305.5,-2.5"/>
</g>
<!-- Properties -->
<g id="node2" class="node">
<title>Properties</title>
<text text-anchor="start" x="2" y="-69.9" font-family="Helvetica,sans-Serif" font-weight="bold" font-size="12.00" fill="#000000">Properties</text>
<g id="a_node2_4"><a xlink:href="../../hs/ProvidedDirectServiceVictimAssociation/#diagram" xlink:title="An association between a victim and a service which was provided to them by the reporting organization." target="_top">
<polygon fill="#ebebeb" stroke="transparent" points="1,-49.5 1,-64.5 243,-64.5 243,-49.5 1,-49.5"/>
<text text-anchor="start" x="2" y="-53.9" font-family="Helvetica,sans-Serif" font-size="12.00" fill="#000000">hs:ProvidedDirectServiceVictimAssociation</text>
</a>
</g>
<g id="a_node2_5"><a xlink:href="../../hs/ReferredOutServiceVictimAssociation/#diagram" xlink:title="An association between a victim and a service which was referred out by the reporting organization." target="_top">
<text text-anchor="start" x="2" y="-38.9" font-family="Helvetica,sans-Serif" font-size="12.00" fill="#000000">hs:ReferredOutServiceVictimAssociation</text>
</a>
</g>
<g id="a_node2_6"><a xlink:href="../../hs/RequestedDirectServiceVictimAssociation/#diagram" xlink:title="An association between a victim and a service which was requested by them as indicated by the reporting organization." target="_top">
<polygon fill="#ebebeb" stroke="transparent" points="1,-19.5 1,-34.5 243,-34.5 243,-19.5 1,-19.5"/>
<text text-anchor="start" x="2" y="-23.9" font-family="Helvetica,sans-Serif" font-size="12.00" fill="#000000">hs:RequestedDirectServiceVictimAssociation</text>
</a>
</g>
<g id="a_node2_7"><a xlink:href="../../hs/UnmetDirectServiceVictimAssociation/#diagram" xlink:title="An association between a victim and a service which not provided to them by the reporting organization." target="_top">
<text text-anchor="start" x="2" y="-8.9" font-family="Helvetica,sans-Serif" font-size="12.00" fill="#000000">hs:UnmetDirectServiceVictimAssociation</text>
</a>
</g>
<polygon fill="#000000" stroke="#000000" points="0,-64.5 0,-64.5 244,-64.5 244,-64.5 0,-64.5"/>
<polygon fill="none" stroke="#000000" points="0,-4 0,-81 244,-81 244,-4 0,-4"/>
</g>
<!-- Properties&#45;&gt;hs:ServiceVictimAssociationType -->
<g id="edge1" class="edge">
<title>Properties:top&#45;&gt;hs:ServiceVictimAssociationType:top</title>
<path fill="none" stroke="#000000" d="M243,-72.5C268.3585,-72.5 277.1498,-72.5 298.2371,-72.5"/>
<polygon fill="#000000" stroke="#000000" points="298.5,-76.0001 308.5,-72.5 298.5,-69.0001 298.5,-76.0001"/>
<text text-anchor="middle" x="273.5" y="-75.9" font-family="Helvetica,sans-Serif" font-size="12.00" fill="#000000">type</text>
</g>
<!-- nc:ActivityPersonAssociationType -->
<g id="node3" class="node">
<title>nc:ActivityPersonAssociationType</title>
<g id="a_node3_8"><a xlink:href="../../nc/ActivityPersonAssociationType/#diagram" xlink:title="A data type for an association between an activity and a person." target="_top">
<text text-anchor="start" x="392.5" y="-125.9" font-family="Helvetica,sans-Serif" font-size="12.00" fill="#000000">nc:ActivityPersonAssociationType</text>
</a>
</g>
<polygon fill="none" stroke="#000000" points="390,-121 390,-138 575,-138 575,-121 390,-121"/>
</g>
<!-- nc:ActivityPersonAssociationType&#45;&gt;hs:ServiceVictimAssociationType -->
<g id="edge2" class="edge">
<title>nc:ActivityPersonAssociationType&#45;&gt;hs:ServiceVictimAssociationType</title>
<path fill="none" stroke="#000000" d="M482.5,-120.9761C482.5,-114.614 482.5,-105.3292 482.5,-95.3557"/>
<polygon fill="#000000" stroke="#000000" points="486.0001,-95.2354 482.5,-85.2354 479.0001,-95.2354 486.0001,-95.2354"/>
<text text-anchor="middle" x="473" y="-99.9" font-family="Helvetica,sans-Serif" font-size="12.00" fill="#000000">extension</text>
</g>
<!-- nc:AssociationType -->
<g id="node4" class="node">
<title>nc:AssociationType</title>
<g id="a_node4_9"><a xlink:href="../../nc/AssociationType/#diagram" xlink:title="A data type for an association, connection, relationship, or involvement somehow linking people, things, and/or activities together." target="_top">
<text text-anchor="start" x="430.5" y="-178.9" font-family="Helvetica,sans-Serif" font-size="12.00" fill="#000000">nc:AssociationType</text>
</a>
</g>
<polygon fill="none" stroke="#000000" points="428,-174 428,-191 537,-191 537,-174 428,-174"/>
</g>
<!-- nc:AssociationType&#45;&gt;nc:ActivityPersonAssociationType -->
<g id="edge3" class="edge">
<title>nc:AssociationType&#45;&gt;nc:ActivityPersonAssociationType</title>
<path fill="none" stroke="#000000" d="M482.5,-173.911C482.5,-167.0124 482.5,-157.0696 482.5,-148.34"/>
<polygon fill="#000000" stroke="#000000" points="486.0001,-148.2518 482.5,-138.2519 479.0001,-148.2519 486.0001,-148.2518"/>
<text text-anchor="middle" x="473" y="-152.9" font-family="Helvetica,sans-Serif" font-size="12.00" fill="#000000">extension</text>
</g>
<!-- structures:AssociationType -->
<g id="node5" class="node">
<title>structures:AssociationType</title>
<g id="a_node5_10"><a xlink:href="../../structures/AssociationType/#diagram" xlink:title="A data type for a relationship between two or more objects, including any properties of that relationship." target="_top">
<text text-anchor="start" x="410.5" y="-231.9" font-family="Helvetica,sans-Serif" font-size="12.00" fill="#000000">structures:AssociationType</text>
</a>
</g>
<polygon fill="none" stroke="#000000" points="408,-227 408,-244 557,-244 557,-227 408,-227"/>
</g>
<!-- structures:AssociationType&#45;&gt;nc:AssociationType -->
<g id="edge4" class="edge">
<title>structures:AssociationType&#45;&gt;nc:AssociationType</title>
<path fill="none" stroke="#000000" d="M482.5,-226.911C482.5,-220.0124 482.5,-210.0696 482.5,-201.34"/>
<polygon fill="#000000" stroke="#000000" points="486.0001,-201.2518 482.5,-191.2519 479.0001,-201.2519 486.0001,-201.2518"/>
<text text-anchor="middle" x="473" y="-205.9" font-family="Helvetica,sans-Serif" font-size="12.00" fill="#000000">extension</text>
</g>
</g>
</svg>
