<?xml version="1.0" encoding="UTF-8" standalone="no"?>
<!DOCTYPE svg PUBLIC "-//W3C//DTD SVG 1.1//EN"
 "http://www.w3.org/Graphics/SVG/1.1/DTD/svg11.dtd">
<!-- Generated by graphviz version 2.40.1 (20161225.0304)
 -->
<!-- Title: graphic Pages: 1 -->
<svg width="370pt" height="45pt"
 viewBox="0.00 0.00 370.00 45.00" xmlns="http://www.w3.org/2000/svg" xmlns:xlink="http://www.w3.org/1999/xlink">
<g id="graph0" class="graph" transform="scale(1 1) rotate(0) translate(4 41)">
<title>graphic</title>
<polygon fill="#ffffff" stroke="transparent" points="-4,4 -4,-41 366,-41 366,4 -4,4"/>
<!-- j:VictimInjury -->
<g id="node1" class="node">
<title>j:VictimInjury</title>
<text text-anchor="start" x="143.5" y="-21.4" font-family="Helvetica,sans-Serif" font-weight="bold" font-size="12.00" fill="#000000">j:VictimInjury</text>
<polygon fill="none" stroke="#ff0000" stroke-width="5" points="139.5,-14 139.5,-34 223.5,-34 223.5,-14 139.5,-14"/>
</g>
<!-- nc:InjuryType -->
<g id="node3" class="node">
<title>nc:InjuryType</title>
<g id="a_node3_0"><a xlink:href="../../nc/InjuryType/#diagram" xlink:title="A data type for a form of harm or damage sustained by a person." target="_top">
<text text-anchor="start" x="287.5" y="-20.4" font-family="Helvetica,sans-Serif" font-size="12.00" fill="#000000">nc:InjuryType</text>
</a>
</g>
<polygon fill="none" stroke="#000000" points="285,-15.5 285,-32.5 362,-32.5 362,-15.5 285,-15.5"/>
</g>
<!-- j:VictimInjury&#45;&gt;nc:InjuryType -->
<g id="edge2" class="edge">
<title>j:VictimInjury&#45;&gt;nc:InjuryType</title>
<path fill="none" stroke="#000000" d="M226.0401,-24C241.5193,-24 258.9566,-24 274.7576,-24"/>
<polygon fill="#000000" stroke="#000000" points="274.8679,-27.5001 284.8679,-24 274.8678,-20.5001 274.8679,-27.5001"/>
<text text-anchor="middle" x="255.5" y="-27.4" font-family="Helvetica,sans-Serif" font-size="12.00" fill="#000000">type</text>
</g>
<!-- Types -->
<g id="node2" class="node">
<title>Types</title>
<text text-anchor="start" x="2" y="-21.4" font-family="Helvetica,sans-Serif" font-weight="bold" font-size="12.00" fill="#000000">Types</text>
<g id="a_node2_1"><a xlink:href="../../j/VictimType/#diagram" xlink:title="A data type for a person who suffers injury, loss, or death as a result of an incident." target="_top">
<polygon fill="#ebebeb" stroke="transparent" points="1,-1 1,-16 69,-16 69,-1 1,-1"/>
<text text-anchor="start" x="2" y="-5.4" font-family="Helvetica,sans-Serif" font-size="12.00" fill="#000000">j:VictimType</text>
</a>
</g>
<polygon fill="#000000" stroke="#000000" points="0,-16 0,-16 70,-16 70,-16 0,-16"/>
<polygon fill="none" stroke="#000000" points="0,0 0,-32 70,-32 70,0 0,0"/>
</g>
<!-- Types&#45;&gt;j:VictimInjury -->
<g id="edge1" class="edge">
<title>Types:top&#45;&gt;j:VictimInjury</title>
<path fill="none" stroke="#000000" d="M69,-24C87.7817,-24 108.3271,-24 126.6611,-24"/>
<polygon fill="#000000" stroke="#000000" points="126.8811,-27.5001 136.881,-24 126.881,-20.5001 126.8811,-27.5001"/>
<text text-anchor="middle" x="103.5" y="-27.4" font-family="Helvetica,sans-Serif" font-size="12.00" fill="#000000">has&#45;a</text>
</g>
</g>
</svg>
