<?xml version="1.0" encoding="UTF-8" standalone="no"?>
<!DOCTYPE svg PUBLIC "-//W3C//DTD SVG 1.1//EN"
 "http://www.w3.org/Graphics/SVG/1.1/DTD/svg11.dtd">
<!-- Generated by graphviz version 2.40.1 (20161225.0304)
 -->
<!-- Title: graphic Pages: 1 -->
<svg width="519pt" height="154pt"
 viewBox="0.00 0.00 519.00 153.50" xmlns="http://www.w3.org/2000/svg" xmlns:xlink="http://www.w3.org/1999/xlink">
<g id="graph0" class="graph" transform="scale(1 1) rotate(0) translate(4 149.5)">
<title>graphic</title>
<polygon fill="#ffffff" stroke="transparent" points="-4,4 -4,-149.5 515,-149.5 515,4 -4,4"/>
<!-- ndex:OpticalEquipmentCategoryCodeType -->
<g id="node1" class="node">
<title>ndex:OpticalEquipmentCategoryCodeType</title>
<text text-anchor="start" x="254.5" y="-25.4" font-family="Helvetica,sans-Serif" font-weight="bold" font-size="12.00" fill="#000000">ndex:OpticalEquipmentCategoryCodeType</text>
<g id="a_node1_0"><a xlink:href="../../structures/SimpleObjectAttributeGroup/#diagram" xlink:title="A group of attributes that are applicable to objects, to be used when defining a complex type that is an extension of a simple type." target="_top">
<polygon fill="#ebebeb" stroke="transparent" points="253.5,-5 253.5,-20 500.5,-20 500.5,-5 253.5,-5"/>
<text text-anchor="start" x="254.5" y="-9.4" font-family="Helvetica,sans-Serif" font-size="12.00" fill="#000000">structures:SimpleObjectAttributeGroup</text>
</a>
</g>
<polygon fill="#ff0000" stroke="#ff0000" points="248.5,-20 248.5,-20 505.5,-20 505.5,-20 248.5,-20"/>
<polygon fill="none" stroke="#ff0000" stroke-width="5" points="250.5,-2.5 250.5,-37.5 502.5,-37.5 502.5,-2.5 250.5,-2.5"/>
</g>
<!-- Properties -->
<g id="node2" class="node">
<title>Properties</title>
<text text-anchor="start" x="2.5" y="-25.4" font-family="Helvetica,sans-Serif" font-weight="bold" font-size="12.00" fill="#000000">Properties</text>
<g id="a_node2_1"><a xlink:href="../../j/OpticalEquipmentCategoryCode/#diagram" xlink:title="A kind of optical equipment." target="_top">
<polygon fill="#ebebeb" stroke="transparent" points="1.5,-5 1.5,-20 182.5,-20 182.5,-5 1.5,-5"/>
<text text-anchor="start" x="2.5" y="-9.4" font-family="Helvetica,sans-Serif" font-size="12.00" fill="#000000">j:OpticalEquipmentCategoryCode</text>
</a>
</g>
<polygon fill="#000000" stroke="#000000" points=".5,-20 .5,-20 183.5,-20 183.5,-20 .5,-20"/>
<polygon fill="none" stroke="#000000" points="0,-4 0,-36 183,-36 183,-4 0,-4"/>
</g>
<!-- Properties&#45;&gt;ndex:OpticalEquipmentCategoryCodeType -->
<g id="edge1" class="edge">
<title>Properties:top&#45;&gt;ndex:OpticalEquipmentCategoryCodeType:top</title>
<path fill="none" stroke="#000000" d="M182.5,-28C210.3576,-28 219.7705,-28 243.3051,-28"/>
<polygon fill="#000000" stroke="#000000" points="243.5,-31.5001 253.5,-28 243.5,-24.5001 243.5,-31.5001"/>
<text text-anchor="middle" x="212.5" y="-31.4" font-family="Helvetica,sans-Serif" font-size="12.00" fill="#000000">type</text>
</g>
<!-- ndex:OpticalEquipmentCategoryCodeSimpleType -->
<g id="node3" class="node">
<title>ndex:OpticalEquipmentCategoryCodeSimpleType</title>
<g id="a_node3_2"><a xlink:href="../../ndex/OpticalEquipmentCategoryCodeSimpleType/#diagram" xlink:title="A data type for a code that identifies a type of optical equipment." target="_top">
<text text-anchor="start" x="244.5" y="-80.4" font-family="Helvetica,sans-Serif" font-size="12.00" fill="#000000">ndex:OpticalEquipmentCategoryCodeSimpleType</text>
</a>
</g>
<polygon fill="none" stroke="#000000" points="242,-75.5 242,-92.5 511,-92.5 511,-75.5 242,-75.5"/>
</g>
<!-- ndex:OpticalEquipmentCategoryCodeSimpleType&#45;&gt;ndex:OpticalEquipmentCategoryCodeType -->
<g id="edge2" class="edge">
<title>ndex:OpticalEquipmentCategoryCodeSimpleType&#45;&gt;ndex:OpticalEquipmentCategoryCodeType</title>
<path fill="none" stroke="#000000" d="M376.5,-75.4351C376.5,-68.931 376.5,-59.5678 376.5,-50.3827"/>
<polygon fill="#000000" stroke="#000000" points="380.0001,-50.25 376.5,-40.25 373.0001,-50.25 380.0001,-50.25"/>
<text text-anchor="middle" x="367" y="-54.65" font-family="Helvetica,sans-Serif" font-size="12.00" fill="#000000">extension</text>
</g>
<!-- xs:token -->
<g id="node4" class="node">
<title>xs:token</title>
<g id="a_node4_3"><a xlink:href="../../xs/token/#diagram" xlink:title="&lt;TABLE&gt;" target="_top">
<text text-anchor="start" x="354.5" y="-133.4" font-family="Helvetica,sans-Serif" font-size="12.00" fill="#000000">xs:token</text>
</a>
</g>
<polygon fill="none" stroke="#000000" points="352,-128.5 352,-145.5 401,-145.5 401,-128.5 352,-128.5"/>
</g>
<!-- xs:token&#45;&gt;ndex:OpticalEquipmentCategoryCodeSimpleType -->
<g id="edge3" class="edge">
<title>xs:token&#45;&gt;ndex:OpticalEquipmentCategoryCodeSimpleType</title>
<path fill="none" stroke="#000000" d="M376.5,-128.411C376.5,-121.5124 376.5,-111.5696 376.5,-102.84"/>
<polygon fill="#000000" stroke="#000000" points="380.0001,-102.7518 376.5,-92.7519 373.0001,-102.7519 380.0001,-102.7518"/>
<text text-anchor="middle" x="367" y="-107.4" font-family="Helvetica,sans-Serif" font-size="12.00" fill="#000000">restriction</text>
</g>
</g>
</svg>
