<?xml version="1.0" encoding="UTF-8" standalone="no"?>
<!DOCTYPE svg PUBLIC "-//W3C//DTD SVG 1.1//EN"
 "http://www.w3.org/Graphics/SVG/1.1/DTD/svg11.dtd">
<!-- Generated by graphviz version 2.40.1 (20161225.0304)
 -->
<!-- Title: graphic Pages: 1 -->
<svg width="924pt" height="244pt"
 viewBox="0.00 0.00 924.00 243.50" xmlns="http://www.w3.org/2000/svg" xmlns:xlink="http://www.w3.org/1999/xlink">
<g id="graph0" class="graph" transform="scale(1 1) rotate(0) translate(4 239.5)">
<title>graphic</title>
<polygon fill="#ffffff" stroke="transparent" points="-4,4 -4,-239.5 920,-239.5 920,4 -4,4"/>
<!-- it:AdditionalInformationType -->
<g id="node1" class="node">
<title>it:AdditionalInformationType</title>
<text text-anchor="start" x="192" y="-115.4" font-family="Helvetica,sans-Serif" font-weight="bold" font-size="12.00" fill="#000000">it:AdditionalInformationType</text>
<g id="a_node1_0"><a xlink:href="../../it/AdditionalStatementDescriptionText/#diagram" xlink:title="A description of the Additional statement" target="_top">
<polygon fill="#ebebeb" stroke="transparent" points="191,-95 191,-110 511,-110 511,-95 191,-95"/>
<text text-anchor="start" x="192" y="-99.4" font-family="Helvetica,sans-Serif" font-size="12.00" fill="#000000">it:AdditionalStatementDescriptionText: nc:TextType [0&#45;n]</text>
</a>
</g>
<g id="a_node1_1"><a xlink:href="../../it/AdditionalStatementCategoryCodeText/#diagram" xlink:title="A Code specifying the category of statement description." target="_top">
<text text-anchor="start" x="192" y="-84.4" font-family="Helvetica,sans-Serif" font-size="12.00" fill="#000000">it:AdditionalStatementCategoryCodeText: nc:TextType [0&#45;n]</text>
</a>
</g>
<g id="a_node1_2"><a xlink:href="../../it/InspectionRequestDate/#diagram" xlink:title="A date of physical examination by administration on applicants request." target="_top">
<polygon fill="#ebebeb" stroke="transparent" points="191,-65 191,-80 511,-80 511,-65 191,-65"/>
<text text-anchor="start" x="192" y="-69.4" font-family="Helvetica,sans-Serif" font-size="12.00" fill="#000000">it:InspectionRequestDate: nc:DateType [0&#45;n]</text>
</a>
</g>
<g id="a_node1_3"><a xlink:href="../../it/CertificateContentText/#diagram" xlink:title="A description of the content of official certification, legislation or stamp, etc." target="_top">
<text text-anchor="start" x="192" y="-54.4" font-family="Helvetica,sans-Serif" font-size="12.00" fill="#000000">it:CertificateContentText: nc:TextType [0&#45;n]</text>
</a>
</g>
<g id="a_node1_4"><a xlink:href="../../nc/StateName/#diagram" xlink:title="A name of a state, commonwealth, province, or other such geopolitical subdivision of a country." target="_top">
<polygon fill="#ebebeb" stroke="transparent" points="191,-35 191,-50 511,-50 511,-35 191,-35"/>
<text text-anchor="start" x="192" y="-39.4" font-family="Helvetica,sans-Serif" font-size="12.00" fill="#000000">nc:StateName: nc:ProperNameTextType [0&#45;n]</text>
</a>
</g>
<g id="a_node1_5"><a xlink:href="../../scr/StateCategoryAbstract/#diagram" xlink:title="A data concept for a COUNTRY SUBDIVISION TYPE." target="_top">
<text text-anchor="start" x="192" y="-24.4" font-family="Helvetica,sans-Serif" font-size="12.00" fill="#000000">scr:StateCategoryAbstract [0&#45;n]</text>
</a>
</g>
<g id="a_node1_6"><a xlink:href="../../it/AdditionalInformationAugmentationPoint/#diagram" xlink:title="An augmentation point for AdditionalInformationType." target="_top">
<polygon fill="#ebebeb" stroke="transparent" points="191,-5 191,-20 511,-20 511,-5 191,-5"/>
<text text-anchor="start" x="192" y="-9.4" font-family="Helvetica,sans-Serif" font-size="12.00" fill="#000000">it:AdditionalInformationAugmentationPoint [0&#45;n]</text>
</a>
</g>
<polygon fill="#ff0000" stroke="#ff0000" points="186,-110 186,-110 516,-110 516,-110 186,-110"/>
<polygon fill="none" stroke="#ff0000" stroke-width="5" points="188.5,-2.5 188.5,-127.5 513.5,-127.5 513.5,-2.5 188.5,-2.5"/>
</g>
<!-- subst_d17e39449 -->
<g id="node2" class="node">
<title>subst_d17e39449</title>
<g id="a_node2_7"><a xlink:href="../../scr/StateCategoryAbstract/#diagram" xlink:title="&lt;TABLE&gt;" target="_top">
<text text-anchor="start" x="555.5" y="-24.4" font-family="Helvetica,sans-Serif" font-weight="bold" font-size="12.00" fill="#000000">Substitution group scr:StateCategoryAbstract</text>
</a>
</g>
<g id="a_node2_8"><a xlink:href="../../scr/StateCategoryCode/#diagram" xlink:title="A COUNTRY SUBDIVISION TYPE." target="_top">
<polygon fill="#ebebeb" stroke="transparent" points="554.5,-4 554.5,-19 915.5,-19 915.5,-4 554.5,-4"/>
<text text-anchor="start" x="555.5" y="-8.4" font-family="Helvetica,sans-Serif" font-size="12.00" fill="#000000">scr:StateCategoryCode: scr:CountrySubdivisionCategoryCodeType</text>
</a>
</g>
<polygon fill="#000000" stroke="#000000" points="553.5,-19 553.5,-19 916.5,-19 916.5,-19 553.5,-19"/>
<polygon fill="none" stroke="#000000" points="553,-3 553,-35 916,-35 916,-3 553,-3"/>
</g>
<!-- it:AdditionalInformationType&#45;&gt;subst_d17e39449 -->
<g id="edge1" class="edge">
<title>it:AdditionalInformationType:e&#45;&gt;subst_d17e39449:w</title>
<path fill="none" stroke="#000000" d="M521.2295,-27C532.8951,-27 539.0938,-27 554.5,-27"/>
<polygon fill="#000000" stroke="#000000" points="521,-23.5001 511,-27 521,-30.5001 521,-23.5001"/>
</g>
<!-- Properties -->
<g id="node3" class="node">
<title>Properties</title>
<text text-anchor="start" x="2.5" y="-115.4" font-family="Helvetica,sans-Serif" font-weight="bold" font-size="12.00" fill="#000000">Properties</text>
<g id="a_node3_9"><a xlink:href="../../it/AdditionalInformation/#diagram" xlink:title="An applied augmentation for type nc:DocumentType." target="_top">
<polygon fill="#ebebeb" stroke="transparent" points="1.5,-95 1.5,-110 126.5,-110 126.5,-95 1.5,-95"/>
<text text-anchor="start" x="2.5" y="-99.4" font-family="Helvetica,sans-Serif" font-size="12.00" fill="#000000">it:AdditionalInformation</text>
</a>
</g>
<polygon fill="#000000" stroke="#000000" points=".5,-110 .5,-110 127.5,-110 127.5,-110 .5,-110"/>
<polygon fill="none" stroke="#000000" points="0,-94 0,-126 127,-126 127,-94 0,-94"/>
</g>
<!-- Properties&#45;&gt;it:AdditionalInformationType -->
<g id="edge2" class="edge">
<title>Properties:top&#45;&gt;it:AdditionalInformationType:top</title>
<path fill="none" stroke="#000000" d="M126.5,-118C151.4714,-118 160.1284,-118 180.8937,-118"/>
<polygon fill="#000000" stroke="#000000" points="181,-121.5001 191,-118 181,-114.5001 181,-121.5001"/>
<text text-anchor="middle" x="156.5" y="-121.4" font-family="Helvetica,sans-Serif" font-size="12.00" fill="#000000">type</text>
</g>
<!-- nc:DocumentType -->
<g id="node4" class="node">
<title>nc:DocumentType</title>
<g id="a_node4_10"><a xlink:href="../../nc/DocumentType/#diagram" xlink:title="A data type for a paper or electronic document." target="_top">
<text text-anchor="start" x="302" y="-170.4" font-family="Helvetica,sans-Serif" font-size="12.00" fill="#000000">nc:DocumentType</text>
</a>
</g>
<polygon fill="none" stroke="#000000" points="300,-165.5 300,-182.5 402,-182.5 402,-165.5 300,-165.5"/>
</g>
<!-- nc:DocumentType&#45;&gt;it:AdditionalInformationType -->
<g id="edge3" class="edge">
<title>nc:DocumentType&#45;&gt;it:AdditionalInformationType</title>
<path fill="none" stroke="#000000" d="M351,-165.3644C351,-159.2696 351,-150.4448 351,-140.522"/>
<polygon fill="#000000" stroke="#000000" points="354.5001,-140.2935 351,-130.2936 347.5001,-140.2936 354.5001,-140.2935"/>
<text text-anchor="middle" x="341.5" y="-144.65" font-family="Helvetica,sans-Serif" font-size="12.00" fill="#000000">extension</text>
</g>
<!-- structures:ObjectType -->
<g id="node5" class="node">
<title>structures:ObjectType</title>
<g id="a_node5_11"><a xlink:href="../../structures/ObjectType/#diagram" xlink:title="A data type for a thing with its own lifespan that has some existence." target="_top">
<text text-anchor="start" x="292" y="-223.4" font-family="Helvetica,sans-Serif" font-size="12.00" fill="#000000">structures:ObjectType</text>
</a>
</g>
<polygon fill="none" stroke="#000000" points="290,-218.5 290,-235.5 412,-235.5 412,-218.5 290,-218.5"/>
</g>
<!-- structures:ObjectType&#45;&gt;nc:DocumentType -->
<g id="edge4" class="edge">
<title>structures:ObjectType&#45;&gt;nc:DocumentType</title>
<path fill="none" stroke="#000000" d="M351,-218.411C351,-211.5124 351,-201.5696 351,-192.84"/>
<polygon fill="#000000" stroke="#000000" points="354.5001,-192.7518 351,-182.7519 347.5001,-192.7519 354.5001,-192.7518"/>
<text text-anchor="middle" x="341.5" y="-197.4" font-family="Helvetica,sans-Serif" font-size="12.00" fill="#000000">extension</text>
</g>
</g>
</svg>
