<?xml version="1.0" encoding="UTF-8" standalone="no"?>
<!DOCTYPE svg PUBLIC "-//W3C//DTD SVG 1.1//EN"
 "http://www.w3.org/Graphics/SVG/1.1/DTD/svg11.dtd">
<!-- Generated by graphviz version 2.40.1 (20161225.0304)
 -->
<!-- Title: graphic Pages: 1 -->
<svg width="476pt" height="207pt"
 viewBox="0.00 0.00 476.00 206.50" xmlns="http://www.w3.org/2000/svg" xmlns:xlink="http://www.w3.org/1999/xlink">
<g id="graph0" class="graph" transform="scale(1 1) rotate(0) translate(4 202.5)">
<title>graphic</title>
<polygon fill="#ffffff" stroke="transparent" points="-4,4 -4,-202.5 472,-202.5 472,4 -4,4"/>
<!-- stat:MeasureComponentType -->
<g id="node1" class="node">
<title>stat:MeasureComponentType</title>
<text text-anchor="start" x="201.5" y="-25.4" font-family="Helvetica,sans-Serif" font-weight="bold" font-size="12.00" fill="#000000">stat:MeasureComponentType</text>
<g id="a_node1_0"><a xlink:href="../../stat/MeasureComponentAugmentationPoint/#diagram" xlink:title="An augmentation point for type stat:MeasureComponentType" target="_top">
<polygon fill="#ebebeb" stroke="transparent" points="200.5,-5 200.5,-20 463.5,-20 463.5,-5 200.5,-5"/>
<text text-anchor="start" x="201.5" y="-9.4" font-family="Helvetica,sans-Serif" font-size="12.00" fill="#000000">stat:MeasureComponentAugmentationPoint [0&#45;n]</text>
</a>
</g>
<polygon fill="#ff0000" stroke="#ff0000" points="195.5,-20 195.5,-20 468.5,-20 468.5,-20 195.5,-20"/>
<polygon fill="none" stroke="#ff0000" stroke-width="5" points="197.5,-2.5 197.5,-37.5 465.5,-37.5 465.5,-2.5 197.5,-2.5"/>
</g>
<!-- Properties -->
<g id="node2" class="node">
<title>Properties</title>
<text text-anchor="start" x="2" y="-25.4" font-family="Helvetica,sans-Serif" font-weight="bold" font-size="12.00" fill="#000000">Properties</text>
<g id="a_node2_1"><a xlink:href="../../stat/MeasureComponent/#diagram" xlink:title="A role given to a represented variable in the context of a data structure to hold the observed/derived values for a particular unit in an organized collection of data." target="_top">
<polygon fill="#ebebeb" stroke="transparent" points="1,-5 1,-20 135,-20 135,-5 1,-5"/>
<text text-anchor="start" x="2" y="-9.4" font-family="Helvetica,sans-Serif" font-size="12.00" fill="#000000">stat:MeasureComponent</text>
</a>
</g>
<polygon fill="#000000" stroke="#000000" points="0,-20 0,-20 136,-20 136,-20 0,-20"/>
<polygon fill="none" stroke="#000000" points="0,-4 0,-36 136,-36 136,-4 0,-4"/>
</g>
<!-- Properties&#45;&gt;stat:MeasureComponentType -->
<g id="edge1" class="edge">
<title>Properties:top&#45;&gt;stat:MeasureComponentType:top</title>
<path fill="none" stroke="#000000" d="M135,-28C160.3585,-28 169.1498,-28 190.2371,-28"/>
<polygon fill="#000000" stroke="#000000" points="190.5,-31.5001 200.5,-28 190.5,-24.5001 190.5,-31.5001"/>
<text text-anchor="middle" x="165.5" y="-31.4" font-family="Helvetica,sans-Serif" font-size="12.00" fill="#000000">type</text>
</g>
<!-- stat:DataStructureComponentType -->
<g id="node3" class="node">
<title>stat:DataStructureComponentType</title>
<g id="a_node3_2"><a xlink:href="../../stat/DataStructureComponentType/#diagram" xlink:title="A data type for a role of the represented variable in the context of a data structure." target="_top">
<text text-anchor="start" x="238.5" y="-80.4" font-family="Helvetica,sans-Serif" font-size="12.00" fill="#000000">stat:DataStructureComponentType</text>
</a>
</g>
<polygon fill="none" stroke="#000000" points="236.5,-75.5 236.5,-92.5 426.5,-92.5 426.5,-75.5 236.5,-75.5"/>
</g>
<!-- stat:DataStructureComponentType&#45;&gt;stat:MeasureComponentType -->
<g id="edge2" class="edge">
<title>stat:DataStructureComponentType&#45;&gt;stat:MeasureComponentType</title>
<path fill="none" stroke="#000000" d="M331.5,-75.4351C331.5,-68.931 331.5,-59.5678 331.5,-50.3827"/>
<polygon fill="#000000" stroke="#000000" points="335.0001,-50.25 331.5,-40.25 328.0001,-50.25 335.0001,-50.25"/>
<text text-anchor="middle" x="322" y="-54.65" font-family="Helvetica,sans-Serif" font-size="12.00" fill="#000000">extension</text>
</g>
<!-- stat:IdentifiableArtifactType -->
<g id="node4" class="node">
<title>stat:IdentifiableArtifactType</title>
<g id="a_node4_3"><a xlink:href="../../stat/IdentifiableArtifactType/#diagram" xlink:title="A data type for an abstract class that comprises the basic attributes and associations needed for identification, naming and other documentation." target="_top">
<text text-anchor="start" x="259.5" y="-133.4" font-family="Helvetica,sans-Serif" font-size="12.00" fill="#000000">stat:IdentifiableArtifactType</text>
</a>
</g>
<polygon fill="none" stroke="#000000" points="257,-128.5 257,-145.5 406,-145.5 406,-128.5 257,-128.5"/>
</g>
<!-- stat:IdentifiableArtifactType&#45;&gt;stat:DataStructureComponentType -->
<g id="edge3" class="edge">
<title>stat:IdentifiableArtifactType&#45;&gt;stat:DataStructureComponentType</title>
<path fill="none" stroke="#000000" d="M331.5,-128.411C331.5,-121.5124 331.5,-111.5696 331.5,-102.84"/>
<polygon fill="#000000" stroke="#000000" points="335.0001,-102.7518 331.5,-92.7519 328.0001,-102.7519 335.0001,-102.7518"/>
<text text-anchor="middle" x="322" y="-107.4" font-family="Helvetica,sans-Serif" font-size="12.00" fill="#000000">extension</text>
</g>
<!-- structures:ObjectType -->
<g id="node5" class="node">
<title>structures:ObjectType</title>
<g id="a_node5_4"><a xlink:href="../../structures/ObjectType/#diagram" xlink:title="A data type for a thing with its own lifespan that has some existence." target="_top">
<text text-anchor="start" x="272.5" y="-186.4" font-family="Helvetica,sans-Serif" font-size="12.00" fill="#000000">structures:ObjectType</text>
</a>
</g>
<polygon fill="none" stroke="#000000" points="270.5,-181.5 270.5,-198.5 392.5,-198.5 392.5,-181.5 270.5,-181.5"/>
</g>
<!-- structures:ObjectType&#45;&gt;stat:IdentifiableArtifactType -->
<g id="edge4" class="edge">
<title>structures:ObjectType&#45;&gt;stat:IdentifiableArtifactType</title>
<path fill="none" stroke="#000000" d="M331.5,-181.411C331.5,-174.5124 331.5,-164.5696 331.5,-155.84"/>
<polygon fill="#000000" stroke="#000000" points="335.0001,-155.7518 331.5,-145.7519 328.0001,-155.7519 335.0001,-155.7518"/>
<text text-anchor="middle" x="322" y="-160.4" font-family="Helvetica,sans-Serif" font-size="12.00" fill="#000000">extension</text>
</g>
</g>
</svg>
