<?xml version="1.0" encoding="UTF-8" standalone="no"?>
<!DOCTYPE svg PUBLIC "-//W3C//DTD SVG 1.1//EN"
 "http://www.w3.org/Graphics/SVG/1.1/DTD/svg11.dtd">
<!-- Generated by graphviz version 2.40.1 (20161225.0304)
 -->
<!-- Title: graphic Pages: 1 -->
<svg width="523pt" height="45pt"
 viewBox="0.00 0.00 523.00 45.00" xmlns="http://www.w3.org/2000/svg" xmlns:xlink="http://www.w3.org/1999/xlink">
<g id="graph0" class="graph" transform="scale(1 1) rotate(0) translate(4 41)">
<title>graphic</title>
<polygon fill="#ffffff" stroke="transparent" points="-4,4 -4,-41 519,-41 519,4 -4,4"/>
<!-- j:CertificationExpirationReasonText -->
<g id="node1" class="node">
<title>j:CertificationExpirationReasonText</title>
<text text-anchor="start" x="174.5" y="-21.4" font-family="Helvetica,sans-Serif" font-weight="bold" font-size="12.00" fill="#000000">j:CertificationExpirationReasonText</text>
<polygon fill="none" stroke="#ff0000" stroke-width="5" points="170.5,-14 170.5,-34 382.5,-34 382.5,-14 170.5,-14"/>
</g>
<!-- nc:TextType -->
<g id="node3" class="node">
<title>nc:TextType</title>
<g id="a_node3_0"><a xlink:href="../../nc/TextType/#diagram" xlink:title="A data type for a character string." target="_top">
<text text-anchor="start" x="446.5" y="-20.4" font-family="Helvetica,sans-Serif" font-size="12.00" fill="#000000">nc:TextType</text>
</a>
</g>
<polygon fill="none" stroke="#000000" points="444,-15.5 444,-32.5 515,-32.5 515,-15.5 444,-15.5"/>
</g>
<!-- j:CertificationExpirationReasonText&#45;&gt;nc:TextType -->
<g id="edge2" class="edge">
<title>j:CertificationExpirationReasonText&#45;&gt;nc:TextType</title>
<path fill="none" stroke="#000000" d="M385.1315,-24C402.1232,-24 418.847,-24 433.3856,-24"/>
<polygon fill="#000000" stroke="#000000" points="433.5584,-27.5001 443.5583,-24 433.5583,-20.5001 433.5584,-27.5001"/>
<text text-anchor="middle" x="414.5" y="-27.4" font-family="Helvetica,sans-Serif" font-size="12.00" fill="#000000">type</text>
</g>
<!-- Types -->
<g id="node2" class="node">
<title>Types</title>
<text text-anchor="start" x="2.5" y="-21.4" font-family="Helvetica,sans-Serif" font-weight="bold" font-size="12.00" fill="#000000">Types</text>
<g id="a_node2_1"><a xlink:href="../../j/CertificationType/#diagram" xlink:title="A data type for an official process of distinguishing the credentials of person or entity." target="_top">
<polygon fill="#ebebeb" stroke="transparent" points="1.5,-1 1.5,-16 100.5,-16 100.5,-1 1.5,-1"/>
<text text-anchor="start" x="2.5" y="-5.4" font-family="Helvetica,sans-Serif" font-size="12.00" fill="#000000">j:CertificationType</text>
</a>
</g>
<polygon fill="#000000" stroke="#000000" points=".5,-16 .5,-16 101.5,-16 101.5,-16 .5,-16"/>
<polygon fill="none" stroke="#000000" points="0,0 0,-32 101,-32 101,0 0,0"/>
</g>
<!-- Types&#45;&gt;j:CertificationExpirationReasonText -->
<g id="edge1" class="edge">
<title>Types:top&#45;&gt;j:CertificationExpirationReasonText</title>
<path fill="none" stroke="#000000" d="M100.5,-24C118.8894,-24 138.3597,-24 157.3862,-24"/>
<polygon fill="#000000" stroke="#000000" points="157.5929,-27.5001 167.5929,-24 157.5928,-20.5001 157.5929,-27.5001"/>
<text text-anchor="middle" x="134.5" y="-27.4" font-family="Helvetica,sans-Serif" font-size="12.00" fill="#000000">has&#45;a</text>
</g>
</g>
</svg>
