<?xml version="1.0" encoding="UTF-8" standalone="no"?>
<!DOCTYPE svg PUBLIC "-//W3C//DTD SVG 1.1//EN"
 "http://www.w3.org/Graphics/SVG/1.1/DTD/svg11.dtd">
<!-- Generated by graphviz version 2.40.1 (20161225.0304)
 -->
<!-- Title: graphic Pages: 1 -->
<svg width="563pt" height="45pt"
 viewBox="0.00 0.00 563.00 45.00" xmlns="http://www.w3.org/2000/svg" xmlns:xlink="http://www.w3.org/1999/xlink">
<g id="graph0" class="graph" transform="scale(1 1) rotate(0) translate(4 41)">
<title>graphic</title>
<polygon fill="#ffffff" stroke="transparent" points="-4,4 -4,-41 559,-41 559,4 -4,4"/>
<!-- cbrn:DetectionEventData -->
<g id="node1" class="node">
<title>cbrn:DetectionEventData</title>
<text text-anchor="start" x="181" y="-21.4" font-family="Helvetica,sans-Serif" font-weight="bold" font-size="12.00" fill="#000000">cbrn:DetectionEventData</text>
<polygon fill="none" stroke="#ff0000" stroke-width="5" points="177.5,-14 177.5,-34 328.5,-34 328.5,-14 177.5,-14"/>
</g>
<!-- cbrn:DetectionEventDataType -->
<g id="node3" class="node">
<title>cbrn:DetectionEventDataType</title>
<g id="a_node3_0"><a xlink:href="../../cbrn/DetectionEventDataType/#diagram" xlink:title="A data type for the set of all data collected during an Event that involves the inspection of an Item(s) for the purpose of detecting the presence of illicit goods and materials. This includes data collected by the device(s) used to perform the detection as well as information input by operator(s) involved in the detection activities that the event involves. A detection event can occur in many venues, such as a CBP Port of Entry, a USCG boarding, a state operated weigh station on a US highway, and a general aviation inspection at an airport in Mexico or Canada." target="_top">
<text text-anchor="start" x="392.5" y="-20.4" font-family="Helvetica,sans-Serif" font-size="12.00" fill="#000000">cbrn:DetectionEventDataType</text>
</a>
</g>
<polygon fill="none" stroke="#000000" points="390,-15.5 390,-32.5 555,-32.5 555,-15.5 390,-15.5"/>
</g>
<!-- cbrn:DetectionEventData&#45;&gt;cbrn:DetectionEventDataType -->
<g id="edge2" class="edge">
<title>cbrn:DetectionEventData&#45;&gt;cbrn:DetectionEventDataType</title>
<path fill="none" stroke="#000000" d="M331.0055,-24C346.8225,-24 363.6019,-24 379.867,-24"/>
<polygon fill="#000000" stroke="#000000" points="379.9148,-27.5001 389.9147,-24 379.9147,-20.5001 379.9148,-27.5001"/>
<text text-anchor="middle" x="360.5" y="-27.4" font-family="Helvetica,sans-Serif" font-size="12.00" fill="#000000">type</text>
</g>
<!-- Types -->
<g id="node2" class="node">
<title>Types</title>
<text text-anchor="start" x="2" y="-21.4" font-family="Helvetica,sans-Serif" font-weight="bold" font-size="12.00" fill="#000000">Types</text>
<g id="a_node2_1"><a xlink:href="../../cbrn/TraversalType/#diagram" xlink:title="A data type for the end&#45;to&#45;end workflow of a conveyance through an encounter process. One or more detection events occur during a traversal." target="_top">
<polygon fill="#ebebeb" stroke="transparent" points="1,-1 1,-16 107,-16 107,-1 1,-1"/>
<text text-anchor="start" x="2" y="-5.4" font-family="Helvetica,sans-Serif" font-size="12.00" fill="#000000">cbrn:TraversalType</text>
</a>
</g>
<polygon fill="#000000" stroke="#000000" points="0,-16 0,-16 108,-16 108,-16 0,-16"/>
<polygon fill="none" stroke="#000000" points="0,0 0,-32 108,-32 108,0 0,0"/>
</g>
<!-- Types&#45;&gt;cbrn:DetectionEventData -->
<g id="edge1" class="edge">
<title>Types:top&#45;&gt;cbrn:DetectionEventData</title>
<path fill="none" stroke="#000000" d="M107,-24C125.6926,-24 145.7314,-24 164.7895,-24"/>
<polygon fill="#000000" stroke="#000000" points="164.9567,-27.5001 174.9566,-24 164.9566,-20.5001 164.9567,-27.5001"/>
<text text-anchor="middle" x="141.5" y="-27.4" font-family="Helvetica,sans-Serif" font-size="12.00" fill="#000000">has&#45;a</text>
</g>
</g>
</svg>
