<?xml version="1.0" encoding="UTF-8" standalone="no"?>
<!DOCTYPE svg PUBLIC "-//W3C//DTD SVG 1.1//EN"
 "http://www.w3.org/Graphics/SVG/1.1/DTD/svg11.dtd">
<!-- Generated by graphviz version 2.40.1 (20161225.0304)
 -->
<!-- Title: graphic Pages: 1 -->
<svg width="626pt" height="45pt"
 viewBox="0.00 0.00 626.00 45.00" xmlns="http://www.w3.org/2000/svg" xmlns:xlink="http://www.w3.org/1999/xlink">
<g id="graph0" class="graph" transform="scale(1 1) rotate(0) translate(4 41)">
<title>graphic</title>
<polygon fill="#ffffff" stroke="transparent" points="-4,4 -4,-41 622,-41 622,4 -4,4"/>
<!-- nc:RelativeLocationDistanceMeasure -->
<g id="node1" class="node">
<title>nc:RelativeLocationDistanceMeasure</title>
<text text-anchor="start" x="209.5" y="-21.4" font-family="Helvetica,sans-Serif" font-weight="bold" font-size="12.00" fill="#000000">nc:RelativeLocationDistanceMeasure</text>
<polygon fill="none" stroke="#ff0000" stroke-width="5" points="205.5,-14 205.5,-34 425.5,-34 425.5,-14 205.5,-14"/>
</g>
<!-- nc:LengthMeasureType -->
<g id="node3" class="node">
<title>nc:LengthMeasureType</title>
<g id="a_node3_0"><a xlink:href="../../nc/LengthMeasureType/#diagram" xlink:title="A data type for a measure of a distance or extent." target="_top">
<text text-anchor="start" x="489.5" y="-20.4" font-family="Helvetica,sans-Serif" font-size="12.00" fill="#000000">nc:LengthMeasureType</text>
</a>
</g>
<polygon fill="none" stroke="#000000" points="487,-15.5 487,-32.5 618,-32.5 618,-15.5 487,-15.5"/>
</g>
<!-- nc:RelativeLocationDistanceMeasure&#45;&gt;nc:LengthMeasureType -->
<g id="edge2" class="edge">
<title>nc:RelativeLocationDistanceMeasure&#45;&gt;nc:LengthMeasureType</title>
<path fill="none" stroke="#000000" d="M428.1003,-24C444.6577,-24 461.369,-24 476.937,-24"/>
<polygon fill="#000000" stroke="#000000" points="476.9893,-27.5001 486.9892,-24 476.9892,-20.5001 476.9893,-27.5001"/>
<text text-anchor="middle" x="457.5" y="-27.4" font-family="Helvetica,sans-Serif" font-size="12.00" fill="#000000">type</text>
</g>
<!-- Types -->
<g id="node2" class="node">
<title>Types</title>
<text text-anchor="start" x="2" y="-21.4" font-family="Helvetica,sans-Serif" font-weight="bold" font-size="12.00" fill="#000000">Types</text>
<g id="a_node2_1"><a xlink:href="../../nc/RelativeLocationType/#diagram" xlink:title="A data type for a location identified by its proximity to another location." target="_top">
<polygon fill="#ebebeb" stroke="transparent" points="1,-1 1,-16 135,-16 135,-1 1,-1"/>
<text text-anchor="start" x="2" y="-5.4" font-family="Helvetica,sans-Serif" font-size="12.00" fill="#000000">nc:RelativeLocationType</text>
</a>
</g>
<polygon fill="#000000" stroke="#000000" points="0,-16 0,-16 136,-16 136,-16 0,-16"/>
<polygon fill="none" stroke="#000000" points="0,0 0,-32 136,-32 136,0 0,0"/>
</g>
<!-- Types&#45;&gt;nc:RelativeLocationDistanceMeasure -->
<g id="edge1" class="edge">
<title>Types:top&#45;&gt;nc:RelativeLocationDistanceMeasure</title>
<path fill="none" stroke="#000000" d="M135,-24C153.6797,-24 173.4467,-24 192.782,-24"/>
<polygon fill="#000000" stroke="#000000" points="192.8457,-27.5001 202.8457,-24 192.8457,-20.5001 192.8457,-27.5001"/>
<text text-anchor="middle" x="169.5" y="-27.4" font-family="Helvetica,sans-Serif" font-size="12.00" fill="#000000">has&#45;a</text>
</g>
</g>
</svg>
