<?xml version="1.0" encoding="UTF-8" standalone="no"?>
<!DOCTYPE svg PUBLIC "-//W3C//DTD SVG 1.1//EN"
 "http://www.w3.org/Graphics/SVG/1.1/DTD/svg11.dtd">
<!-- Generated by graphviz version 2.40.1 (20161225.0304)
 -->
<!-- Title: graphic Pages: 1 -->
<svg width="494pt" height="45pt"
 viewBox="0.00 0.00 494.00 45.00" xmlns="http://www.w3.org/2000/svg" xmlns:xlink="http://www.w3.org/1999/xlink">
<g id="graph0" class="graph" transform="scale(1 1) rotate(0) translate(4 41)">
<title>graphic</title>
<polygon fill="#ffffff" stroke="transparent" points="-4,4 -4,-41 490,-41 490,4 -4,4"/>
<!-- j:ParoleAssessmentNeed -->
<g id="node1" class="node">
<title>j:ParoleAssessmentNeed</title>
<text text-anchor="start" x="210.5" y="-21.4" font-family="Helvetica,sans-Serif" font-weight="bold" font-size="12.00" fill="#000000">j:ParoleAssessmentNeed</text>
<polygon fill="none" stroke="#ff0000" stroke-width="5" points="206.5,-14 206.5,-34 358.5,-34 358.5,-14 206.5,-14"/>
</g>
<!-- j:NeedType -->
<g id="node3" class="node">
<title>j:NeedType</title>
<g id="a_node3_0"><a xlink:href="../../j/NeedType/#diagram" xlink:title="A data type for a need that is characteristically defined within a need category from assessments that drive the purpose for rehabilitation programs that address subject needs." target="_top">
<text text-anchor="start" x="422" y="-20.4" font-family="Helvetica,sans-Serif" font-size="12.00" fill="#000000">j:NeedType</text>
</a>
</g>
<polygon fill="none" stroke="#000000" points="420,-15.5 420,-32.5 486,-32.5 486,-15.5 420,-15.5"/>
</g>
<!-- j:ParoleAssessmentNeed&#45;&gt;j:NeedType -->
<g id="edge2" class="edge">
<title>j:ParoleAssessmentNeed&#45;&gt;j:NeedType</title>
<path fill="none" stroke="#000000" d="M361.2619,-24C377.832,-24 394.7309,-24 409.435,-24"/>
<polygon fill="#000000" stroke="#000000" points="409.718,-27.5001 419.718,-24 409.7179,-20.5001 409.718,-27.5001"/>
<text text-anchor="middle" x="390.5" y="-27.4" font-family="Helvetica,sans-Serif" font-size="12.00" fill="#000000">type</text>
</g>
<!-- Types -->
<g id="node2" class="node">
<title>Types</title>
<text text-anchor="start" x="2.5" y="-21.4" font-family="Helvetica,sans-Serif" font-weight="bold" font-size="12.00" fill="#000000">Types</text>
<g id="a_node2_1"><a xlink:href="../../j/ParoleAssessmentType/#diagram" xlink:title="A data type for a process of determining a subject&#39;s suitability for parole." target="_top">
<polygon fill="#ebebeb" stroke="transparent" points="1.5,-1 1.5,-16 136.5,-16 136.5,-1 1.5,-1"/>
<text text-anchor="start" x="2.5" y="-5.4" font-family="Helvetica,sans-Serif" font-size="12.00" fill="#000000">j:ParoleAssessmentType</text>
</a>
</g>
<polygon fill="#000000" stroke="#000000" points=".5,-16 .5,-16 137.5,-16 137.5,-16 .5,-16"/>
<polygon fill="none" stroke="#000000" points="0,0 0,-32 137,-32 137,0 0,0"/>
</g>
<!-- Types&#45;&gt;j:ParoleAssessmentNeed -->
<g id="edge1" class="edge">
<title>Types:top&#45;&gt;j:ParoleAssessmentNeed</title>
<path fill="none" stroke="#000000" d="M136.5,-24C154.9777,-24 174.7709,-24 193.632,-24"/>
<polygon fill="#000000" stroke="#000000" points="193.698,-27.5001 203.698,-24 193.6979,-20.5001 193.698,-27.5001"/>
<text text-anchor="middle" x="170.5" y="-27.4" font-family="Helvetica,sans-Serif" font-size="12.00" fill="#000000">has&#45;a</text>
</g>
</g>
</svg>
