<?xml version="1.0" encoding="UTF-8" standalone="no"?>
<!DOCTYPE svg PUBLIC "-//W3C//DTD SVG 1.1//EN"
 "http://www.w3.org/Graphics/SVG/1.1/DTD/svg11.dtd">
<!-- Generated by graphviz version 2.40.1 (20161225.0304)
 -->
<!-- Title: graphic Pages: 1 -->
<svg width="651pt" height="45pt"
 viewBox="0.00 0.00 651.00 45.00" xmlns="http://www.w3.org/2000/svg" xmlns:xlink="http://www.w3.org/1999/xlink">
<g id="graph0" class="graph" transform="scale(1 1) rotate(0) translate(4 41)">
<title>graphic</title>
<polygon fill="#ffffff" stroke="transparent" points="-4,4 -4,-41 647,-41 647,4 -4,4"/>
<!-- scr:ClassOfAdmissionDurationBasisCategoryText -->
<g id="node1" class="node">
<title>scr:ClassOfAdmissionDurationBasisCategoryText</title>
<text text-anchor="start" x="220.5" y="-21.4" font-family="Helvetica,sans-Serif" font-weight="bold" font-size="12.00" fill="#000000">scr:ClassOfAdmissionDurationBasisCategoryText</text>
<polygon fill="none" stroke="#ff0000" stroke-width="5" points="216.5,-14 216.5,-34 510.5,-34 510.5,-14 216.5,-14"/>
</g>
<!-- nc:TextType -->
<g id="node3" class="node">
<title>nc:TextType</title>
<g id="a_node3_0"><a xlink:href="../../nc/TextType/#diagram" xlink:title="A data type for a character string." target="_top">
<text text-anchor="start" x="574.5" y="-20.4" font-family="Helvetica,sans-Serif" font-size="12.00" fill="#000000">nc:TextType</text>
</a>
</g>
<polygon fill="none" stroke="#000000" points="572,-15.5 572,-32.5 643,-32.5 643,-15.5 572,-15.5"/>
</g>
<!-- scr:ClassOfAdmissionDurationBasisCategoryText&#45;&gt;nc:TextType -->
<g id="edge2" class="edge">
<title>scr:ClassOfAdmissionDurationBasisCategoryText&#45;&gt;nc:TextType</title>
<path fill="none" stroke="#000000" d="M513.1632,-24C530.6267,-24 547.292,-24 561.6231,-24"/>
<polygon fill="#000000" stroke="#000000" points="561.624,-27.5001 571.624,-24 561.6239,-20.5001 561.624,-27.5001"/>
<text text-anchor="middle" x="542.5" y="-27.4" font-family="Helvetica,sans-Serif" font-size="12.00" fill="#000000">type</text>
</g>
<!-- Types -->
<g id="node2" class="node">
<title>Types</title>
<text text-anchor="start" x="2.5" y="-21.4" font-family="Helvetica,sans-Serif" font-weight="bold" font-size="12.00" fill="#000000">Types</text>
<g id="a_node2_1"><a xlink:href="../../scr/ImmigrationStatusType/#diagram" xlink:title="A data type that supplements screening information for nc:StatusType" target="_top">
<polygon fill="#ebebeb" stroke="transparent" points="1.5,-1 1.5,-16 146.5,-16 146.5,-1 1.5,-1"/>
<text text-anchor="start" x="2.5" y="-5.4" font-family="Helvetica,sans-Serif" font-size="12.00" fill="#000000">scr:ImmigrationStatusType</text>
</a>
</g>
<polygon fill="#000000" stroke="#000000" points=".5,-16 .5,-16 147.5,-16 147.5,-16 .5,-16"/>
<polygon fill="none" stroke="#000000" points="0,0 0,-32 147,-32 147,0 0,0"/>
</g>
<!-- Types&#45;&gt;scr:ClassOfAdmissionDurationBasisCategoryText -->
<g id="edge1" class="edge">
<title>Types:top&#45;&gt;scr:ClassOfAdmissionDurationBasisCategoryText</title>
<path fill="none" stroke="#000000" d="M146.5,-24C165.027,-24 184.4438,-24 203.7248,-24"/>
<polygon fill="#000000" stroke="#000000" points="203.7898,-27.5001 213.7898,-24 203.7897,-20.5001 203.7898,-27.5001"/>
<text text-anchor="middle" x="180.5" y="-27.4" font-family="Helvetica,sans-Serif" font-size="12.00" fill="#000000">has&#45;a</text>
</g>
</g>
</svg>
