<?xml version="1.0" encoding="UTF-8" standalone="no"?>
<!DOCTYPE svg PUBLIC "-//W3C//DTD SVG 1.1//EN"
 "http://www.w3.org/Graphics/SVG/1.1/DTD/svg11.dtd">
<!-- Generated by graphviz version 2.40.1 (20161225.0304)
 -->
<!-- Title: graphic Pages: 1 -->
<svg width="578pt" height="45pt"
 viewBox="0.00 0.00 578.00 45.00" xmlns="http://www.w3.org/2000/svg" xmlns:xlink="http://www.w3.org/1999/xlink">
<g id="graph0" class="graph" transform="scale(1 1) rotate(0) translate(4 41)">
<title>graphic</title>
<polygon fill="#ffffff" stroke="transparent" points="-4,4 -4,-41 574,-41 574,4 -4,4"/>
<!-- hs:AdoptionLocation -->
<g id="node1" class="node">
<title>hs:AdoptionLocation</title>
<text text-anchor="start" x="291.5" y="-21.4" font-family="Helvetica,sans-Serif" font-weight="bold" font-size="12.00" fill="#000000">hs:AdoptionLocation</text>
<polygon fill="none" stroke="#ff0000" stroke-width="5" points="287.5,-14 287.5,-34 415.5,-34 415.5,-14 287.5,-14"/>
</g>
<!-- nc:LocationType -->
<g id="node3" class="node">
<title>nc:LocationType</title>
<g id="a_node3_0"><a xlink:href="../../nc/LocationType/#diagram" xlink:title="A data type for geospatial location." target="_top">
<text text-anchor="start" x="479.5" y="-20.4" font-family="Helvetica,sans-Serif" font-size="12.00" fill="#000000">nc:LocationType</text>
</a>
</g>
<polygon fill="none" stroke="#000000" points="477,-15.5 477,-32.5 570,-32.5 570,-15.5 477,-15.5"/>
</g>
<!-- hs:AdoptionLocation&#45;&gt;nc:LocationType -->
<g id="edge2" class="edge">
<title>hs:AdoptionLocation&#45;&gt;nc:LocationType</title>
<path fill="none" stroke="#000000" d="M418.4922,-24C434.3566,-24 451.1294,-24 466.5019,-24"/>
<polygon fill="#000000" stroke="#000000" points="466.8923,-27.5001 476.8923,-24 466.8923,-20.5001 466.8923,-27.5001"/>
<text text-anchor="middle" x="447.5" y="-27.4" font-family="Helvetica,sans-Serif" font-size="12.00" fill="#000000">type</text>
</g>
<!-- Types -->
<g id="node2" class="node">
<title>Types</title>
<text text-anchor="start" x="2" y="-21.4" font-family="Helvetica,sans-Serif" font-weight="bold" font-size="12.00" fill="#000000">Types</text>
<g id="a_node2_1"><a xlink:href="../../hs/AdoptiveParentChildAssociationType/#diagram" xlink:title="A data type for an association between a child and a parent who adopted the child." target="_top">
<polygon fill="#ebebeb" stroke="transparent" points="1,-1 1,-16 217,-16 217,-1 1,-1"/>
<text text-anchor="start" x="2" y="-5.4" font-family="Helvetica,sans-Serif" font-size="12.00" fill="#000000">hs:AdoptiveParentChildAssociationType</text>
</a>
</g>
<polygon fill="#000000" stroke="#000000" points="0,-16 0,-16 218,-16 218,-16 0,-16"/>
<polygon fill="none" stroke="#000000" points="0,0 0,-32 218,-32 218,0 0,0"/>
</g>
<!-- Types&#45;&gt;hs:AdoptionLocation -->
<g id="edge1" class="edge">
<title>Types:top&#45;&gt;hs:AdoptionLocation</title>
<path fill="none" stroke="#000000" d="M217,-24C235.7047,-24 255.8727,-24 274.7567,-24"/>
<polygon fill="#000000" stroke="#000000" points="274.7981,-27.5001 284.7981,-24 274.7981,-20.5001 274.7981,-27.5001"/>
<text text-anchor="middle" x="251.5" y="-27.4" font-family="Helvetica,sans-Serif" font-size="12.00" fill="#000000">has&#45;a</text>
</g>
</g>
</svg>
