<?xml version="1.0" encoding="UTF-8" standalone="no"?>
<!DOCTYPE svg PUBLIC "-//W3C//DTD SVG 1.1//EN"
 "http://www.w3.org/Graphics/SVG/1.1/DTD/svg11.dtd">
<!-- Generated by graphviz version 2.40.1 (20161225.0304)
 -->
<!-- Title: graphic Pages: 1 -->
<svg width="511pt" height="45pt"
 viewBox="0.00 0.00 511.00 45.00" xmlns="http://www.w3.org/2000/svg" xmlns:xlink="http://www.w3.org/1999/xlink">
<g id="graph0" class="graph" transform="scale(1 1) rotate(0) translate(4 41)">
<title>graphic</title>
<polygon fill="#ffffff" stroke="transparent" points="-4,4 -4,-41 507,-41 507,4 -4,4"/>
<!-- scr:ActivityCommentText -->
<g id="node1" class="node">
<title>scr:ActivityCommentText</title>
<text text-anchor="start" x="221" y="-21.4" font-family="Helvetica,sans-Serif" font-weight="bold" font-size="12.00" fill="#000000">scr:ActivityCommentText</text>
<polygon fill="none" stroke="#ff0000" stroke-width="5" points="217.5,-14 217.5,-34 370.5,-34 370.5,-14 217.5,-14"/>
</g>
<!-- nc:TextType -->
<g id="node3" class="node">
<title>nc:TextType</title>
<g id="a_node3_0"><a xlink:href="../../nc/TextType/#diagram" xlink:title="A data type for a character string." target="_top">
<text text-anchor="start" x="434.5" y="-20.4" font-family="Helvetica,sans-Serif" font-size="12.00" fill="#000000">nc:TextType</text>
</a>
</g>
<polygon fill="none" stroke="#000000" points="432,-15.5 432,-32.5 503,-32.5 503,-15.5 432,-15.5"/>
</g>
<!-- scr:ActivityCommentText&#45;&gt;nc:TextType -->
<g id="edge2" class="edge">
<title>scr:ActivityCommentText&#45;&gt;nc:TextType</title>
<path fill="none" stroke="#000000" d="M373.1342,-24C389.6752,-24 406.5883,-24 421.4431,-24"/>
<polygon fill="#000000" stroke="#000000" points="421.8612,-27.5001 431.8612,-24 421.8611,-20.5001 421.8612,-27.5001"/>
<text text-anchor="middle" x="402.5" y="-27.4" font-family="Helvetica,sans-Serif" font-size="12.00" fill="#000000">type</text>
</g>
<!-- Types -->
<g id="node2" class="node">
<title>Types</title>
<text text-anchor="start" x="2" y="-21.4" font-family="Helvetica,sans-Serif" font-weight="bold" font-size="12.00" fill="#000000">Types</text>
<g id="a_node2_1"><a xlink:href="../../scr/ScreeningProcessType/#diagram" xlink:title="A data type that specifies the service requester transaction performance metrics information." target="_top">
<polygon fill="#ebebeb" stroke="transparent" points="1,-1 1,-16 147,-16 147,-1 1,-1"/>
<text text-anchor="start" x="2" y="-5.4" font-family="Helvetica,sans-Serif" font-size="12.00" fill="#000000">scr:ScreeningProcessType</text>
</a>
</g>
<polygon fill="#000000" stroke="#000000" points="0,-16 0,-16 148,-16 148,-16 0,-16"/>
<polygon fill="none" stroke="#000000" points="0,0 0,-32 148,-32 148,0 0,0"/>
</g>
<!-- Types&#45;&gt;scr:ActivityCommentText -->
<g id="edge1" class="edge">
<title>Types:top&#45;&gt;scr:ActivityCommentText</title>
<path fill="none" stroke="#000000" d="M147,-24C165.6043,-24 185.533,-24 204.5233,-24"/>
<polygon fill="#000000" stroke="#000000" points="204.6583,-27.5001 214.6582,-24 204.6582,-20.5001 204.6583,-27.5001"/>
<text text-anchor="middle" x="181.5" y="-27.4" font-family="Helvetica,sans-Serif" font-size="12.00" fill="#000000">has&#45;a</text>
</g>
</g>
</svg>
