<?xml version="1.0" encoding="UTF-8" standalone="no"?>
<!DOCTYPE svg PUBLIC "-//W3C//DTD SVG 1.1//EN"
 "http://www.w3.org/Graphics/SVG/1.1/DTD/svg11.dtd">
<!-- Generated by graphviz version 2.40.1 (20161225.0304)
 -->
<!-- Title: graphic Pages: 1 -->
<svg width="515pt" height="45pt"
 viewBox="0.00 0.00 515.00 45.00" xmlns="http://www.w3.org/2000/svg" xmlns:xlink="http://www.w3.org/1999/xlink">
<g id="graph0" class="graph" transform="scale(1 1) rotate(0) translate(4 41)">
<title>graphic</title>
<polygon fill="#ffffff" stroke="transparent" points="-4,4 -4,-41 511,-41 511,4 -4,4"/>
<!-- j:ChargeRecommendedBailAmount -->
<g id="node1" class="node">
<title>j:ChargeRecommendedBailAmount</title>
<text text-anchor="start" x="150.5" y="-21.4" font-family="Helvetica,sans-Serif" font-weight="bold" font-size="12.00" fill="#000000">j:ChargeRecommendedBailAmount</text>
<polygon fill="none" stroke="#ff0000" stroke-width="5" points="146.5,-14 146.5,-34 356.5,-34 356.5,-14 146.5,-14"/>
</g>
<!-- nc:AmountType -->
<g id="node3" class="node">
<title>nc:AmountType</title>
<g id="a_node3_0"><a xlink:href="../../nc/AmountType/#diagram" xlink:title="A data type for an amount of money." target="_top">
<text text-anchor="start" x="420.5" y="-20.4" font-family="Helvetica,sans-Serif" font-size="12.00" fill="#000000">nc:AmountType</text>
</a>
</g>
<polygon fill="none" stroke="#000000" points="418,-15.5 418,-32.5 507,-32.5 507,-15.5 418,-15.5"/>
</g>
<!-- j:ChargeRecommendedBailAmount&#45;&gt;nc:AmountType -->
<g id="edge2" class="edge">
<title>j:ChargeRecommendedBailAmount&#45;&gt;nc:AmountType</title>
<path fill="none" stroke="#000000" d="M359.1634,-24C376.0036,-24 392.7702,-24 407.7461,-24"/>
<polygon fill="#000000" stroke="#000000" points="407.8068,-27.5001 417.8068,-24 407.8067,-20.5001 407.8068,-27.5001"/>
<text text-anchor="middle" x="388.5" y="-27.4" font-family="Helvetica,sans-Serif" font-size="12.00" fill="#000000">type</text>
</g>
<!-- Types -->
<g id="node2" class="node">
<title>Types</title>
<text text-anchor="start" x="2.5" y="-21.4" font-family="Helvetica,sans-Serif" font-weight="bold" font-size="12.00" fill="#000000">Types</text>
<g id="a_node2_1"><a xlink:href="../../j/ChargeType/#diagram" xlink:title="A data type for a formal allegation that a specific person has committed a specific offense." target="_top">
<polygon fill="#ebebeb" stroke="transparent" points="1.5,-1 1.5,-16 76.5,-16 76.5,-1 1.5,-1"/>
<text text-anchor="start" x="2.5" y="-5.4" font-family="Helvetica,sans-Serif" font-size="12.00" fill="#000000">j:ChargeType</text>
</a>
</g>
<polygon fill="#000000" stroke="#000000" points=".5,-16 .5,-16 77.5,-16 77.5,-16 .5,-16"/>
<polygon fill="none" stroke="#000000" points="0,0 0,-32 77,-32 77,0 0,0"/>
</g>
<!-- Types&#45;&gt;j:ChargeRecommendedBailAmount -->
<g id="edge1" class="edge">
<title>Types:top&#45;&gt;j:ChargeRecommendedBailAmount</title>
<path fill="none" stroke="#000000" d="M76.5,-24C94.9137,-24 114.4173,-24 133.4626,-24"/>
<polygon fill="#000000" stroke="#000000" points="133.6779,-27.5001 143.6778,-24 133.6778,-20.5001 133.6779,-27.5001"/>
<text text-anchor="middle" x="110.5" y="-27.4" font-family="Helvetica,sans-Serif" font-size="12.00" fill="#000000">has&#45;a</text>
</g>
</g>
</svg>
