<?xml version="1.0" encoding="UTF-8" standalone="no"?>
<!DOCTYPE svg PUBLIC "-//W3C//DTD SVG 1.1//EN"
 "http://www.w3.org/Graphics/SVG/1.1/DTD/svg11.dtd">
<!-- Generated by graphviz version 2.40.1 (20161225.0304)
 -->
<!-- Title: graphic Pages: 1 -->
<svg width="423pt" height="154pt"
 viewBox="0.00 0.00 423.00 153.50" xmlns="http://www.w3.org/2000/svg" xmlns:xlink="http://www.w3.org/1999/xlink">
<g id="graph0" class="graph" transform="scale(1 1) rotate(0) translate(4 149.5)">
<title>graphic</title>
<polygon fill="#ffffff" stroke="transparent" points="-4,4 -4,-149.5 419,-149.5 419,4 -4,4"/>
<!-- ncic:MNUCodeType -->
<g id="node1" class="node">
<title>ncic:MNUCodeType</title>
<text text-anchor="start" x="203" y="-25.4" font-family="Helvetica,sans-Serif" font-weight="bold" font-size="12.00" fill="#000000">ncic:MNUCodeType</text>
<g id="a_node1_0"><a xlink:href="../../structures/SimpleObjectAttributeGroup/#diagram" xlink:title="A group of attributes that are applicable to objects, to be used when defining a complex type that is an extension of a simple type." target="_top">
<polygon fill="#ebebeb" stroke="transparent" points="202,-5 202,-20 410,-20 410,-5 202,-5"/>
<text text-anchor="start" x="203" y="-9.4" font-family="Helvetica,sans-Serif" font-size="12.00" fill="#000000">structures:SimpleObjectAttributeGroup</text>
</a>
</g>
<polygon fill="#ff0000" stroke="#ff0000" points="197,-20 197,-20 415,-20 415,-20 197,-20"/>
<polygon fill="none" stroke="#ff0000" stroke-width="5" points="199.5,-2.5 199.5,-37.5 412.5,-37.5 412.5,-2.5 199.5,-2.5"/>
</g>
<!-- Properties -->
<g id="node2" class="node">
<title>Properties</title>
<text text-anchor="start" x="2" y="-25.4" font-family="Helvetica,sans-Serif" font-weight="bold" font-size="12.00" fill="#000000">Properties</text>
<g id="a_node2_1"><a xlink:href="../../j/PersonIDCategoryCode/#diagram" xlink:title="A kind of identifier assigned to a person." target="_top">
<polygon fill="#ebebeb" stroke="transparent" points="1,-5 1,-20 137,-20 137,-5 1,-5"/>
<text text-anchor="start" x="2" y="-9.4" font-family="Helvetica,sans-Serif" font-size="12.00" fill="#000000">j:PersonIDCategoryCode</text>
</a>
</g>
<polygon fill="#000000" stroke="#000000" points="0,-20 0,-20 138,-20 138,-20 0,-20"/>
<polygon fill="none" stroke="#000000" points="0,-4 0,-36 138,-36 138,-4 0,-4"/>
</g>
<!-- Properties&#45;&gt;ncic:MNUCodeType -->
<g id="edge1" class="edge">
<title>Properties:top&#45;&gt;ncic:MNUCodeType:top</title>
<path fill="none" stroke="#000000" d="M137,-28C162.1649,-28 170.8891,-28 191.8154,-28"/>
<polygon fill="#000000" stroke="#000000" points="192,-31.5001 202,-28 192,-24.5001 192,-31.5001"/>
<text text-anchor="middle" x="167.5" y="-31.4" font-family="Helvetica,sans-Serif" font-size="12.00" fill="#000000">type</text>
</g>
<!-- ncic:MNUCodeSimpleType -->
<g id="node3" class="node">
<title>ncic:MNUCodeSimpleType</title>
<g id="a_node3_2"><a xlink:href="../../ncic/MNUCodeSimpleType/#diagram" xlink:title="A data type for 8 &#45; Miscellaneous Identifying Number (MNU) Field Codes" target="_top">
<text text-anchor="start" x="234" y="-80.4" font-family="Helvetica,sans-Serif" font-size="12.00" fill="#000000">ncic:MNUCodeSimpleType</text>
</a>
</g>
<polygon fill="none" stroke="#000000" points="231.5,-75.5 231.5,-92.5 380.5,-92.5 380.5,-75.5 231.5,-75.5"/>
</g>
<!-- ncic:MNUCodeSimpleType&#45;&gt;ncic:MNUCodeType -->
<g id="edge2" class="edge">
<title>ncic:MNUCodeSimpleType&#45;&gt;ncic:MNUCodeType</title>
<path fill="none" stroke="#000000" d="M306,-75.4351C306,-68.931 306,-59.5678 306,-50.3827"/>
<polygon fill="#000000" stroke="#000000" points="309.5001,-50.25 306,-40.25 302.5001,-50.25 309.5001,-50.25"/>
<text text-anchor="middle" x="296.5" y="-54.65" font-family="Helvetica,sans-Serif" font-size="12.00" fill="#000000">extension</text>
</g>
<!-- xs:token -->
<g id="node4" class="node">
<title>xs:token</title>
<g id="a_node4_3"><a xlink:href="../../xs/token/#diagram" xlink:title="&lt;TABLE&gt;" target="_top">
<text text-anchor="start" x="284" y="-133.4" font-family="Helvetica,sans-Serif" font-size="12.00" fill="#000000">xs:token</text>
</a>
</g>
<polygon fill="none" stroke="#000000" points="281.5,-128.5 281.5,-145.5 330.5,-145.5 330.5,-128.5 281.5,-128.5"/>
</g>
<!-- xs:token&#45;&gt;ncic:MNUCodeSimpleType -->
<g id="edge3" class="edge">
<title>xs:token&#45;&gt;ncic:MNUCodeSimpleType</title>
<path fill="none" stroke="#000000" d="M306,-128.411C306,-121.5124 306,-111.5696 306,-102.84"/>
<polygon fill="#000000" stroke="#000000" points="309.5001,-102.7518 306,-92.7519 302.5001,-102.7519 309.5001,-102.7518"/>
<text text-anchor="middle" x="296.5" y="-107.4" font-family="Helvetica,sans-Serif" font-size="12.00" fill="#000000">restriction</text>
</g>
</g>
</svg>
