<?xml version="1.0" encoding="UTF-8" standalone="no"?>
<!DOCTYPE svg PUBLIC "-//W3C//DTD SVG 1.1//EN"
 "http://www.w3.org/Graphics/SVG/1.1/DTD/svg11.dtd">
<!-- Generated by graphviz version 2.40.1 (20161225.0304)
 -->
<!-- Title: graphic Pages: 1 -->
<svg width="296pt" height="86pt"
 viewBox="0.00 0.00 296.00 86.00" xmlns="http://www.w3.org/2000/svg" xmlns:xlink="http://www.w3.org/1999/xlink">
<g id="graph0" class="graph" transform="scale(1 1) rotate(0) translate(4 82)">
<title>graphic</title>
<polygon fill="#ffffff" stroke="transparent" points="-4,4 -4,-82 292,-82 292,4 -4,4"/>
<!-- j:CredentialCategoryText -->
<g id="node1" class="node">
<title>j:CredentialCategoryText</title>
<text text-anchor="start" x="8" y="-9.9" font-family="Helvetica,sans-Serif" font-weight="bold" font-size="12.00" fill="#000000">j:CredentialCategoryText</text>
<polygon fill="none" stroke="#ff0000" stroke-width="5" points="4,-2.5 4,-22.5 154,-22.5 154,-2.5 4,-2.5"/>
</g>
<!-- nc:TextType -->
<g id="node3" class="node">
<title>nc:TextType</title>
<g id="a_node3_0"><a xlink:href="../../nc/TextType/#diagram" xlink:title="A data type for a character string." target="_top">
<text text-anchor="start" x="219.5" y="-8.9" font-family="Helvetica,sans-Serif" font-size="12.00" fill="#000000">nc:TextType</text>
</a>
</g>
<polygon fill="none" stroke="#000000" points="217,-4 217,-21 288,-21 288,-4 217,-4"/>
</g>
<!-- j:CredentialCategoryText&#45;&gt;nc:TextType -->
<g id="edge2" class="edge">
<title>j:CredentialCategoryText&#45;&gt;nc:TextType</title>
<path fill="none" stroke="#000000" d="M156.6157,-12.5C173.6231,-12.5 191.1041,-12.5 206.4047,-12.5"/>
<polygon fill="#000000" stroke="#000000" points="206.6165,-16.0001 216.6165,-12.5 206.6164,-9.0001 206.6165,-16.0001"/>
<text text-anchor="middle" x="187.5" y="-15.9" font-family="Helvetica,sans-Serif" font-size="12.00" fill="#000000">type</text>
</g>
<!-- SubstitutionGroup -->
<g id="node2" class="node">
<title>SubstitutionGroup</title>
<g id="a_node2_1"><a xlink:href="../../j/CredentialCategoryAbstract/#diagram" xlink:title="A data concept for a kind of credential types for staff members." target="_top">
<text text-anchor="start" x="2" y="-65.9" font-family="Helvetica,sans-Serif" font-size="12.00" fill="#000000">j:CredentialCategoryAbstract</text>
</a>
</g>
<polygon fill="none" stroke="#000000" points="0,-61 0,-78 158,-78 158,-61 0,-61"/>
</g>
<!-- SubstitutionGroup&#45;&gt;j:CredentialCategoryText -->
<g id="edge1" class="edge">
<title>SubstitutionGroup&#45;&gt;j:CredentialCategoryText</title>
<path fill="none" stroke="#000000" d="M79,-50.9163C79,-42.4809 79,-32.7214 79,-25.1501"/>
<polygon fill="#000000" stroke="#000000" points="75.5001,-50.9472 79,-60.9473 82.5001,-50.9473 75.5001,-50.9472"/>
<text text-anchor="middle" x="69.5" y="-39.9" font-family="Helvetica,sans-Serif" font-size="12.00" fill="#000000">substitution group</text>
</g>
</g>
</svg>
