<?xml version="1.0" encoding="UTF-8" standalone="no"?>
<!DOCTYPE svg PUBLIC "-//W3C//DTD SVG 1.1//EN"
 "http://www.w3.org/Graphics/SVG/1.1/DTD/svg11.dtd">
<!-- Generated by graphviz version 2.40.1 (20161225.0304)
 -->
<!-- Title: graphic Pages: 1 -->
<svg width="453pt" height="45pt"
 viewBox="0.00 0.00 453.00 45.00" xmlns="http://www.w3.org/2000/svg" xmlns:xlink="http://www.w3.org/1999/xlink">
<g id="graph0" class="graph" transform="scale(1 1) rotate(0) translate(4 41)">
<title>graphic</title>
<polygon fill="#ffffff" stroke="transparent" points="-4,4 -4,-41 449,-41 449,4 -4,4"/>
<!-- j:RegisterActionDate -->
<g id="node1" class="node">
<title>j:RegisterActionDate</title>
<text text-anchor="start" x="188.5" y="-21.4" font-family="Helvetica,sans-Serif" font-weight="bold" font-size="12.00" fill="#000000">j:RegisterActionDate</text>
<polygon fill="none" stroke="#ff0000" stroke-width="5" points="184.5,-14 184.5,-34 310.5,-34 310.5,-14 184.5,-14"/>
</g>
<!-- nc:DateType -->
<g id="node3" class="node">
<title>nc:DateType</title>
<g id="a_node3_0"><a xlink:href="../../nc/DateType/#diagram" xlink:title="A data type for a calendar date." target="_top">
<text text-anchor="start" x="374.5" y="-20.4" font-family="Helvetica,sans-Serif" font-size="12.00" fill="#000000">nc:DateType</text>
</a>
</g>
<polygon fill="none" stroke="#000000" points="372,-15.5 372,-32.5 445,-32.5 445,-15.5 372,-15.5"/>
</g>
<!-- j:RegisterActionDate&#45;&gt;nc:DateType -->
<g id="edge2" class="edge">
<title>j:RegisterActionDate&#45;&gt;nc:DateType</title>
<path fill="none" stroke="#000000" d="M313.4494,-24C329.6777,-24 346.7221,-24 361.825,-24"/>
<polygon fill="#000000" stroke="#000000" points="361.9368,-27.5001 371.9367,-24 361.9367,-20.5001 361.9368,-27.5001"/>
<text text-anchor="middle" x="342.5" y="-27.4" font-family="Helvetica,sans-Serif" font-size="12.00" fill="#000000">type</text>
</g>
<!-- Types -->
<g id="node2" class="node">
<title>Types</title>
<text text-anchor="start" x="2.5" y="-21.4" font-family="Helvetica,sans-Serif" font-weight="bold" font-size="12.00" fill="#000000">Types</text>
<g id="a_node2_1"><a xlink:href="../../j/RegisterActionType/#diagram" xlink:title="A data type for a history of an action for a case." target="_top">
<polygon fill="#ebebeb" stroke="transparent" points="1.5,-1 1.5,-16 114.5,-16 114.5,-1 1.5,-1"/>
<text text-anchor="start" x="2.5" y="-5.4" font-family="Helvetica,sans-Serif" font-size="12.00" fill="#000000">j:RegisterActionType</text>
</a>
</g>
<polygon fill="#000000" stroke="#000000" points=".5,-16 .5,-16 115.5,-16 115.5,-16 .5,-16"/>
<polygon fill="none" stroke="#000000" points="0,0 0,-32 115,-32 115,0 0,0"/>
</g>
<!-- Types&#45;&gt;j:RegisterActionDate -->
<g id="edge1" class="edge">
<title>Types:top&#45;&gt;j:RegisterActionDate</title>
<path fill="none" stroke="#000000" d="M114.5,-24C133.0083,-24 152.9654,-24 171.6495,-24"/>
<polygon fill="#000000" stroke="#000000" points="171.8813,-27.5001 181.8813,-24 171.8812,-20.5001 171.8813,-27.5001"/>
<text text-anchor="middle" x="148.5" y="-27.4" font-family="Helvetica,sans-Serif" font-size="12.00" fill="#000000">has&#45;a</text>
</g>
</g>
</svg>
