<?xml version="1.0" encoding="UTF-8" standalone="no"?>
<!DOCTYPE svg PUBLIC "-//W3C//DTD SVG 1.1//EN"
 "http://www.w3.org/Graphics/SVG/1.1/DTD/svg11.dtd">
<!-- Generated by graphviz version 2.40.1 (20161225.0304)
 -->
<!-- Title: graphic Pages: 1 -->
<svg width="534pt" height="45pt"
 viewBox="0.00 0.00 534.00 45.00" xmlns="http://www.w3.org/2000/svg" xmlns:xlink="http://www.w3.org/1999/xlink">
<g id="graph0" class="graph" transform="scale(1 1) rotate(0) translate(4 41)">
<title>graphic</title>
<polygon fill="#ffffff" stroke="transparent" points="-4,4 -4,-41 530,-41 530,4 -4,4"/>
<!-- hs:PriorDetentionDescriptionText -->
<g id="node1" class="node">
<title>hs:PriorDetentionDescriptionText</title>
<text text-anchor="start" x="197.5" y="-21.4" font-family="Helvetica,sans-Serif" font-weight="bold" font-size="12.00" fill="#000000">hs:PriorDetentionDescriptionText</text>
<polygon fill="none" stroke="#ff0000" stroke-width="5" points="193.5,-14 193.5,-34 393.5,-34 393.5,-14 193.5,-14"/>
</g>
<!-- nc:TextType -->
<g id="node3" class="node">
<title>nc:TextType</title>
<g id="a_node3_0"><a xlink:href="../../nc/TextType/#diagram" xlink:title="A data type for a character string." target="_top">
<text text-anchor="start" x="457.5" y="-20.4" font-family="Helvetica,sans-Serif" font-size="12.00" fill="#000000">nc:TextType</text>
</a>
</g>
<polygon fill="none" stroke="#000000" points="455,-15.5 455,-32.5 526,-32.5 526,-15.5 455,-15.5"/>
</g>
<!-- hs:PriorDetentionDescriptionText&#45;&gt;nc:TextType -->
<g id="edge2" class="edge">
<title>hs:PriorDetentionDescriptionText&#45;&gt;nc:TextType</title>
<path fill="none" stroke="#000000" d="M396.039,-24C413.0413,-24 429.8828,-24 444.5327,-24"/>
<polygon fill="#000000" stroke="#000000" points="444.7838,-27.5001 454.7838,-24 444.7837,-20.5001 444.7838,-27.5001"/>
<text text-anchor="middle" x="425.5" y="-27.4" font-family="Helvetica,sans-Serif" font-size="12.00" fill="#000000">type</text>
</g>
<!-- Types -->
<g id="node2" class="node">
<title>Types</title>
<text text-anchor="start" x="2" y="-21.4" font-family="Helvetica,sans-Serif" font-weight="bold" font-size="12.00" fill="#000000">Types</text>
<g id="a_node2_1"><a xlink:href="../../hs/PriorDetentionType/#diagram" xlink:title="A data type for describing a prior detention." target="_top">
<polygon fill="#ebebeb" stroke="transparent" points="1,-1 1,-16 123,-16 123,-1 1,-1"/>
<text text-anchor="start" x="2" y="-5.4" font-family="Helvetica,sans-Serif" font-size="12.00" fill="#000000">hs:PriorDetentionType</text>
</a>
</g>
<polygon fill="#000000" stroke="#000000" points="0,-16 0,-16 124,-16 124,-16 0,-16"/>
<polygon fill="none" stroke="#000000" points="0,0 0,-32 124,-32 124,0 0,0"/>
</g>
<!-- Types&#45;&gt;hs:PriorDetentionDescriptionText -->
<g id="edge1" class="edge">
<title>Types:top&#45;&gt;hs:PriorDetentionDescriptionText</title>
<path fill="none" stroke="#000000" d="M123,-24C141.6531,-24 161.454,-24 180.7075,-24"/>
<polygon fill="#000000" stroke="#000000" points="180.717,-27.5001 190.717,-24 180.7169,-20.5001 180.717,-27.5001"/>
<text text-anchor="middle" x="157.5" y="-27.4" font-family="Helvetica,sans-Serif" font-size="12.00" fill="#000000">has&#45;a</text>
</g>
</g>
</svg>
