<?xml version="1.0" encoding="UTF-8" standalone="no"?>
<!DOCTYPE svg PUBLIC "-//W3C//DTD SVG 1.1//EN"
 "http://www.w3.org/Graphics/SVG/1.1/DTD/svg11.dtd">
<!-- Generated by graphviz version 2.40.1 (20161225.0304)
 -->
<!-- Title: graphic Pages: 1 -->
<svg width="432pt" height="45pt"
 viewBox="0.00 0.00 432.00 45.00" xmlns="http://www.w3.org/2000/svg" xmlns:xlink="http://www.w3.org/1999/xlink">
<g id="graph0" class="graph" transform="scale(1 1) rotate(0) translate(4 41)">
<title>graphic</title>
<polygon fill="#ffffff" stroke="transparent" points="-4,4 -4,-41 428,-41 428,4 -4,4"/>
<!-- j:VehicleTitle -->
<g id="node1" class="node">
<title>j:VehicleTitle</title>
<text text-anchor="start" x="224.5" y="-21.4" font-family="Helvetica,sans-Serif" font-weight="bold" font-size="12.00" fill="#000000">j:VehicleTitle</text>
<polygon fill="none" stroke="#ff0000" stroke-width="5" points="220.5,-14 220.5,-34 302.5,-34 302.5,-14 220.5,-14"/>
</g>
<!-- j:TitleType -->
<g id="node3" class="node">
<title>j:TitleType</title>
<g id="a_node3_0"><a xlink:href="../../j/TitleType/#diagram" xlink:title="A data type for a deed or other official document showing the legal ownership of a property item." target="_top">
<text text-anchor="start" x="366" y="-20.4" font-family="Helvetica,sans-Serif" font-size="12.00" fill="#000000">j:TitleType</text>
</a>
</g>
<polygon fill="none" stroke="#000000" points="364,-15.5 364,-32.5 424,-32.5 424,-15.5 364,-15.5"/>
</g>
<!-- j:VehicleTitle&#45;&gt;j:TitleType -->
<g id="edge2" class="edge">
<title>j:VehicleTitle&#45;&gt;j:TitleType</title>
<path fill="none" stroke="#000000" d="M305.2527,-24C320.8091,-24 338.2435,-24 353.5145,-24"/>
<polygon fill="#000000" stroke="#000000" points="353.6914,-27.5001 363.6914,-24 353.6914,-20.5001 353.6914,-27.5001"/>
<text text-anchor="middle" x="334.5" y="-27.4" font-family="Helvetica,sans-Serif" font-size="12.00" fill="#000000">type</text>
</g>
<!-- Types -->
<g id="node2" class="node">
<title>Types</title>
<text text-anchor="start" x="2.5" y="-21.4" font-family="Helvetica,sans-Serif" font-weight="bold" font-size="12.00" fill="#000000">Types</text>
<g id="a_node2_1"><a xlink:href="../../j/VehicleAugmentationType/#diagram" xlink:title="A data type for additional information about a vehicle." target="_top">
<polygon fill="#ebebeb" stroke="transparent" points="1.5,-1 1.5,-16 150.5,-16 150.5,-1 1.5,-1"/>
<text text-anchor="start" x="2.5" y="-5.4" font-family="Helvetica,sans-Serif" font-size="12.00" fill="#000000">j:VehicleAugmentationType</text>
</a>
</g>
<polygon fill="#000000" stroke="#000000" points=".5,-16 .5,-16 151.5,-16 151.5,-16 .5,-16"/>
<polygon fill="none" stroke="#000000" points="0,0 0,-32 151,-32 151,0 0,0"/>
</g>
<!-- Types&#45;&gt;j:VehicleTitle -->
<g id="edge1" class="edge">
<title>Types:top&#45;&gt;j:VehicleTitle</title>
<path fill="none" stroke="#000000" d="M150.5,-24C169.1122,-24 189.4798,-24 207.6291,-24"/>
<polygon fill="#000000" stroke="#000000" points="207.7427,-27.5001 217.7427,-24 207.7427,-20.5001 207.7427,-27.5001"/>
<text text-anchor="middle" x="184.5" y="-27.4" font-family="Helvetica,sans-Serif" font-size="12.00" fill="#000000">has&#45;a</text>
</g>
</g>
</svg>
