<?xml version="1.0" encoding="UTF-8" standalone="no"?>
<!DOCTYPE svg PUBLIC "-//W3C//DTD SVG 1.1//EN"
 "http://www.w3.org/Graphics/SVG/1.1/DTD/svg11.dtd">
<!-- Generated by graphviz version 2.40.1 (20161225.0304)
 -->
<!-- Title: graphic Pages: 1 -->
<svg width="471pt" height="176pt"
 viewBox="0.00 0.00 471.00 176.00" xmlns="http://www.w3.org/2000/svg" xmlns:xlink="http://www.w3.org/1999/xlink">
<g id="graph0" class="graph" transform="scale(1 1) rotate(0) translate(4 172)">
<title>graphic</title>
<polygon fill="#ffffff" stroke="transparent" points="-4,4 -4,-172 467,-172 467,4 -4,4"/>
<!-- it:TradeTermType -->
<g id="node1" class="node">
<title>it:TradeTermType</title>
<text text-anchor="start" x="138.5" y="-99.9" font-family="Helvetica,sans-Serif" font-weight="bold" font-size="12.00" fill="#000000">it:TradeTermType</text>
<g id="a_node1_0"><a xlink:href="../../it/INCOTERMSPlace/#diagram" xlink:title="A name of the point or port of departure, shipment or destination, as required under the applicable terms of delivery, e.g. Incoterm." target="_top">
<polygon fill="#ebebeb" stroke="transparent" points="137.5,-79.5 137.5,-94.5 458.5,-94.5 458.5,-79.5 137.5,-79.5"/>
<text text-anchor="start" x="138.5" y="-83.9" font-family="Helvetica,sans-Serif" font-size="12.00" fill="#000000">it:INCOTERMSPlace: nc:LocationType [0&#45;n]</text>
</a>
</g>
<g id="a_node1_1"><a xlink:href="../../it/INCOTERMSPlaceCategoryCodeText/#diagram" xlink:title="An identifier of the point or port of departure, shipment or destination, as required under the applicable delivery term." target="_top">
<text text-anchor="start" x="138.5" y="-68.9" font-family="Helvetica,sans-Serif" font-size="12.00" fill="#000000">it:INCOTERMSPlaceCategoryCodeText: nc:TextType [0&#45;n]</text>
</a>
</g>
<g id="a_node1_2"><a xlink:href="../../it/INCOTERMSDescriptionText/#diagram" xlink:title="A description of delivery or transport terms." target="_top">
<polygon fill="#ebebeb" stroke="transparent" points="137.5,-49.5 137.5,-64.5 458.5,-64.5 458.5,-49.5 137.5,-49.5"/>
<text text-anchor="start" x="138.5" y="-53.9" font-family="Helvetica,sans-Serif" font-size="12.00" fill="#000000">it:INCOTERMSDescriptionText: nc:TextType [0&#45;n]</text>
</a>
</g>
<g id="a_node1_3"><a xlink:href="../../it/INCOTERMSCategoryCodeText/#diagram" xlink:title="A code specifying the delivery or transport terms." target="_top">
<text text-anchor="start" x="138.5" y="-38.9" font-family="Helvetica,sans-Serif" font-size="12.00" fill="#000000">it:INCOTERMSCategoryCodeText: nc:TextType [0&#45;n]</text>
</a>
</g>
<g id="a_node1_4"><a xlink:href="../../it/CountryRelationshipCategoryCodeText/#diagram" xlink:title="An indication whether the place specified for the performance of a (contractual) obligation is located in the country where the declaration is made, in another member country of the same economic or Customs union, or in a third country." target="_top">
<polygon fill="#ebebeb" stroke="transparent" points="137.5,-19.5 137.5,-34.5 458.5,-34.5 458.5,-19.5 137.5,-19.5"/>
<text text-anchor="start" x="138.5" y="-23.9" font-family="Helvetica,sans-Serif" font-size="12.00" fill="#000000">it:CountryRelationshipCategoryCodeText: nc:TextType [0&#45;n]</text>
</a>
</g>
<g id="a_node1_5"><a xlink:href="../../it/TradeTermAugmentationPoint/#diagram" xlink:title="An augmentation point for TradeTermType." target="_top">
<text text-anchor="start" x="138.5" y="-8.9" font-family="Helvetica,sans-Serif" font-size="12.00" fill="#000000">it:TradeTermAugmentationPoint [0&#45;n]</text>
</a>
</g>
<polygon fill="#ff0000" stroke="#ff0000" points="132.5,-94.5 132.5,-94.5 463.5,-94.5 463.5,-94.5 132.5,-94.5"/>
<polygon fill="none" stroke="#ff0000" stroke-width="5" points="134.5,-2.5 134.5,-112.5 460.5,-112.5 460.5,-2.5 134.5,-2.5"/>
</g>
<!-- Properties -->
<g id="node2" class="node">
<title>Properties</title>
<text text-anchor="start" x="2.5" y="-99.9" font-family="Helvetica,sans-Serif" font-weight="bold" font-size="12.00" fill="#000000">Properties</text>
<g id="a_node2_6"><a xlink:href="../../it/TradeTerm/#diagram" xlink:title="A trade terms name of the point or port of departure, shipment or destination, as required under the applicable terms of delivery, e.g. Incoterm." target="_top">
<polygon fill="#ebebeb" stroke="transparent" points="1.5,-79.5 1.5,-94.5 72.5,-94.5 72.5,-79.5 1.5,-79.5"/>
<text text-anchor="start" x="2.5" y="-83.9" font-family="Helvetica,sans-Serif" font-size="12.00" fill="#000000">it:TradeTerm</text>
</a>
</g>
<polygon fill="#000000" stroke="#000000" points=".5,-94.5 .5,-94.5 73.5,-94.5 73.5,-94.5 .5,-94.5"/>
<polygon fill="none" stroke="#000000" points="0,-78.5 0,-110.5 73,-110.5 73,-78.5 0,-78.5"/>
</g>
<!-- Properties&#45;&gt;it:TradeTermType -->
<g id="edge1" class="edge">
<title>Properties:top&#45;&gt;it:TradeTermType:top</title>
<path fill="none" stroke="#000000" d="M72.5,-102.5C97.6649,-102.5 106.3891,-102.5 127.3154,-102.5"/>
<polygon fill="#000000" stroke="#000000" points="127.5,-106.0001 137.5,-102.5 127.5,-99.0001 127.5,-106.0001"/>
<text text-anchor="middle" x="102.5" y="-105.9" font-family="Helvetica,sans-Serif" font-size="12.00" fill="#000000">type</text>
</g>
<!-- structures:ObjectType -->
<g id="node3" class="node">
<title>structures:ObjectType</title>
<g id="a_node3_7"><a xlink:href="../../structures/ObjectType/#diagram" xlink:title="A data type for a thing with its own lifespan that has some existence." target="_top">
<text text-anchor="start" x="238.5" y="-155.9" font-family="Helvetica,sans-Serif" font-size="12.00" fill="#000000">structures:ObjectType</text>
</a>
</g>
<polygon fill="none" stroke="#000000" points="236.5,-151 236.5,-168 358.5,-168 358.5,-151 236.5,-151"/>
</g>
<!-- structures:ObjectType&#45;&gt;it:TradeTermType -->
<g id="edge2" class="edge">
<title>structures:ObjectType&#45;&gt;it:TradeTermType</title>
<path fill="none" stroke="#000000" d="M297.5,-150.9079C297.5,-144.5936 297.5,-135.3582 297.5,-125.1194"/>
<polygon fill="#000000" stroke="#000000" points="301.0001,-125.058 297.5,-115.058 294.0001,-125.0581 301.0001,-125.058"/>
<text text-anchor="middle" x="288" y="-129.9" font-family="Helvetica,sans-Serif" font-size="12.00" fill="#000000">extension</text>
</g>
</g>
</svg>
