<?xml version="1.0" encoding="UTF-8" standalone="no"?>
<!DOCTYPE svg PUBLIC "-//W3C//DTD SVG 1.1//EN"
 "http://www.w3.org/Graphics/SVG/1.1/DTD/svg11.dtd">
<!-- Generated by graphviz version 2.40.1 (20161225.0304)
 -->
<!-- Title: graphic Pages: 1 -->
<svg width="605pt" height="45pt"
 viewBox="0.00 0.00 605.00 45.00" xmlns="http://www.w3.org/2000/svg" xmlns:xlink="http://www.w3.org/1999/xlink">
<g id="graph0" class="graph" transform="scale(1 1) rotate(0) translate(4 41)">
<title>graphic</title>
<polygon fill="#ffffff" stroke="transparent" points="-4,4 -4,-41 601,-41 601,4 -4,4"/>
<!-- m:VesselCruiseSpeedMeasure -->
<g id="node1" class="node">
<title>m:VesselCruiseSpeedMeasure</title>
<text text-anchor="start" x="228.5" y="-21.4" font-family="Helvetica,sans-Serif" font-weight="bold" font-size="12.00" fill="#000000">m:VesselCruiseSpeedMeasure</text>
<polygon fill="none" stroke="#ff0000" stroke-width="5" points="224.5,-14 224.5,-34 406.5,-34 406.5,-14 224.5,-14"/>
</g>
<!-- nc:SpeedMeasureType -->
<g id="node3" class="node">
<title>nc:SpeedMeasureType</title>
<g id="a_node3_0"><a xlink:href="../../nc/SpeedMeasureType/#diagram" xlink:title="A data type for a measure of a speed or rate of motion." target="_top">
<text text-anchor="start" x="470.5" y="-20.4" font-family="Helvetica,sans-Serif" font-size="12.00" fill="#000000">nc:SpeedMeasureType</text>
</a>
</g>
<polygon fill="none" stroke="#000000" points="468,-15.5 468,-32.5 597,-32.5 597,-15.5 468,-15.5"/>
</g>
<!-- m:VesselCruiseSpeedMeasure&#45;&gt;nc:SpeedMeasureType -->
<g id="edge2" class="edge">
<title>m:VesselCruiseSpeedMeasure&#45;&gt;nc:SpeedMeasureType</title>
<path fill="none" stroke="#000000" d="M409.102,-24C425.3808,-24 442.1156,-24 457.8031,-24"/>
<polygon fill="#000000" stroke="#000000" points="457.9454,-27.5001 467.9454,-24 457.9454,-20.5001 457.9454,-27.5001"/>
<text text-anchor="middle" x="438.5" y="-27.4" font-family="Helvetica,sans-Serif" font-size="12.00" fill="#000000">type</text>
</g>
<!-- Types -->
<g id="node2" class="node">
<title>Types</title>
<text text-anchor="start" x="2.5" y="-21.4" font-family="Helvetica,sans-Serif" font-weight="bold" font-size="12.00" fill="#000000">Types</text>
<g id="a_node2_1"><a xlink:href="../../m/VesselAugmentationType/#diagram" xlink:title="A data type for additional information about a vessel." target="_top">
<polygon fill="#ebebeb" stroke="transparent" points="1.5,-1 1.5,-16 154.5,-16 154.5,-1 1.5,-1"/>
<text text-anchor="start" x="2.5" y="-5.4" font-family="Helvetica,sans-Serif" font-size="12.00" fill="#000000">m:VesselAugmentationType</text>
</a>
</g>
<polygon fill="#000000" stroke="#000000" points=".5,-16 .5,-16 155.5,-16 155.5,-16 .5,-16"/>
<polygon fill="none" stroke="#000000" points="0,0 0,-32 155,-32 155,0 0,0"/>
</g>
<!-- Types&#45;&gt;m:VesselCruiseSpeedMeasure -->
<g id="edge1" class="edge">
<title>Types:top&#45;&gt;m:VesselCruiseSpeedMeasure</title>
<path fill="none" stroke="#000000" d="M154.5,-24C172.9807,-24 192.6546,-24 211.6727,-24"/>
<polygon fill="#000000" stroke="#000000" points="211.8524,-27.5001 221.8524,-24 211.8524,-20.5001 211.8524,-27.5001"/>
<text text-anchor="middle" x="188.5" y="-27.4" font-family="Helvetica,sans-Serif" font-size="12.00" fill="#000000">has&#45;a</text>
</g>
</g>
</svg>
