<?xml version="1.0" encoding="UTF-8" standalone="no"?>
<!DOCTYPE svg PUBLIC "-//W3C//DTD SVG 1.1//EN"
 "http://www.w3.org/Graphics/SVG/1.1/DTD/svg11.dtd">
<!-- Generated by graphviz version 2.40.1 (20161225.0304)
 -->
<!-- Title: graphic Pages: 1 -->
<svg width="828pt" height="45pt"
 viewBox="0.00 0.00 828.00 45.00" xmlns="http://www.w3.org/2000/svg" xmlns:xlink="http://www.w3.org/1999/xlink">
<g id="graph0" class="graph" transform="scale(1 1) rotate(0) translate(4 41)">
<title>graphic</title>
<polygon fill="#ffffff" stroke="transparent" points="-4,4 -4,-41 824,-41 824,4 -4,4"/>
<!-- biom:RecordingAwarenessCode -->
<g id="node1" class="node">
<title>biom:RecordingAwarenessCode</title>
<text text-anchor="start" x="366" y="-21.4" font-family="Helvetica,sans-Serif" font-weight="bold" font-size="12.00" fill="#000000">biom:RecordingAwarenessCode</text>
<polygon fill="none" stroke="#ff0000" stroke-width="5" points="362.5,-14 362.5,-34 555.5,-34 555.5,-14 362.5,-14"/>
</g>
<!-- biom:RecordingAwarenessCodeType -->
<g id="node3" class="node">
<title>biom:RecordingAwarenessCodeType</title>
<g id="a_node3_0"><a xlink:href="../../biom/RecordingAwarenessCodeType/#diagram" xlink:title="A data type for recording awareness indicator." target="_top">
<text text-anchor="start" x="619.5" y="-20.4" font-family="Helvetica,sans-Serif" font-size="12.00" fill="#000000">biom:RecordingAwarenessCodeType</text>
</a>
</g>
<polygon fill="none" stroke="#000000" points="617,-15.5 617,-32.5 820,-32.5 820,-15.5 617,-15.5"/>
</g>
<!-- biom:RecordingAwarenessCode&#45;&gt;biom:RecordingAwarenessCodeType -->
<g id="edge2" class="edge">
<title>biom:RecordingAwarenessCode&#45;&gt;biom:RecordingAwarenessCodeType</title>
<path fill="none" stroke="#000000" d="M558.2166,-24C573.9444,-24 590.3068,-24 606.3064,-24"/>
<polygon fill="#000000" stroke="#000000" points="606.7577,-27.5001 616.7577,-24 606.7576,-20.5001 606.7577,-27.5001"/>
<text text-anchor="middle" x="587.5" y="-27.4" font-family="Helvetica,sans-Serif" font-size="12.00" fill="#000000">type</text>
</g>
<!-- Types -->
<g id="node2" class="node">
<title>Types</title>
<text text-anchor="start" x="2.5" y="-21.4" font-family="Helvetica,sans-Serif" font-weight="bold" font-size="12.00" fill="#000000">Types</text>
<g id="a_node2_1"><a xlink:href="../../biom/SegmentSpeakerCharacteristicsInformationType/#diagram" xlink:title="A data type used to give an assessment of the characteristics of a voice within the segment, including intelligibility, emotional state and impairment." target="_top">
<polygon fill="#ebebeb" stroke="transparent" points="1.5,-1 1.5,-16 292.5,-16 292.5,-1 1.5,-1"/>
<text text-anchor="start" x="2.5" y="-5.4" font-family="Helvetica,sans-Serif" font-size="12.00" fill="#000000">biom:SegmentSpeakerCharacteristicsInformationType</text>
</a>
</g>
<polygon fill="#000000" stroke="#000000" points=".5,-16 .5,-16 293.5,-16 293.5,-16 .5,-16"/>
<polygon fill="none" stroke="#000000" points="0,0 0,-32 293,-32 293,0 0,0"/>
</g>
<!-- Types&#45;&gt;biom:RecordingAwarenessCode -->
<g id="edge1" class="edge">
<title>Types:top&#45;&gt;biom:RecordingAwarenessCode</title>
<path fill="none" stroke="#000000" d="M292.5,-24C310.9994,-24 330.6551,-24 349.7326,-24"/>
<polygon fill="#000000" stroke="#000000" points="349.9526,-27.5001 359.9526,-24 349.9526,-20.5001 349.9526,-27.5001"/>
<text text-anchor="middle" x="326.5" y="-27.4" font-family="Helvetica,sans-Serif" font-size="12.00" fill="#000000">has&#45;a</text>
</g>
</g>
</svg>
