<?xml version="1.0" encoding="UTF-8" standalone="no"?>
<!DOCTYPE svg PUBLIC "-//W3C//DTD SVG 1.1//EN"
 "http://www.w3.org/Graphics/SVG/1.1/DTD/svg11.dtd">
<!-- Generated by graphviz version 2.40.1 (20161225.0304)
 -->
<!-- Title: graphic Pages: 1 -->
<svg width="697pt" height="45pt"
 viewBox="0.00 0.00 697.00 45.00" xmlns="http://www.w3.org/2000/svg" xmlns:xlink="http://www.w3.org/1999/xlink">
<g id="graph0" class="graph" transform="scale(1 1) rotate(0) translate(4 41)">
<title>graphic</title>
<polygon fill="#ffffff" stroke="transparent" points="-4,4 -4,-41 693,-41 693,4 -4,4"/>
<!-- biom:MinutiaeDeltaDirectionLeftMeasure -->
<g id="node1" class="node">
<title>biom:MinutiaeDeltaDirectionLeftMeasure</title>
<text text-anchor="start" x="207" y="-21.4" font-family="Helvetica,sans-Serif" font-weight="bold" font-size="12.00" fill="#000000">biom:MinutiaeDeltaDirectionLeftMeasure</text>
<polygon fill="none" stroke="#ff0000" stroke-width="5" points="203.5,-14 203.5,-34 444.5,-34 444.5,-14 203.5,-14"/>
</g>
<!-- biom:DeltaDirectionMeasureType -->
<g id="node3" class="node">
<title>biom:DeltaDirectionMeasureType</title>
<g id="a_node3_0"><a xlink:href="../../biom/DeltaDirectionMeasureType/#diagram" xlink:title="A data type for a direction of a delta" target="_top">
<text text-anchor="start" x="508.5" y="-20.4" font-family="Helvetica,sans-Serif" font-size="12.00" fill="#000000">biom:DeltaDirectionMeasureType</text>
</a>
</g>
<polygon fill="none" stroke="#000000" points="506,-15.5 506,-32.5 689,-32.5 689,-15.5 506,-15.5"/>
</g>
<!-- biom:MinutiaeDeltaDirectionLeftMeasure&#45;&gt;biom:DeltaDirectionMeasureType -->
<g id="edge2" class="edge">
<title>biom:MinutiaeDeltaDirectionLeftMeasure&#45;&gt;biom:DeltaDirectionMeasureType</title>
<path fill="none" stroke="#000000" d="M447.1484,-24C463.3153,-24 479.7382,-24 495.5013,-24"/>
<polygon fill="#000000" stroke="#000000" points="495.7554,-27.5001 505.7554,-24 495.7553,-20.5001 495.7554,-27.5001"/>
<text text-anchor="middle" x="476.5" y="-27.4" font-family="Helvetica,sans-Serif" font-size="12.00" fill="#000000">type</text>
</g>
<!-- Types -->
<g id="node2" class="node">
<title>Types</title>
<text text-anchor="start" x="2" y="-21.4" font-family="Helvetica,sans-Serif" font-weight="bold" font-size="12.00" fill="#000000">Types</text>
<g id="a_node2_1"><a xlink:href="../../biom/MinutiaeDeltaType/#diagram" xlink:title="A data type for a delta in a friction ridge image" target="_top">
<polygon fill="#ebebeb" stroke="transparent" points="1,-1 1,-16 133,-16 133,-1 1,-1"/>
<text text-anchor="start" x="2" y="-5.4" font-family="Helvetica,sans-Serif" font-size="12.00" fill="#000000">biom:MinutiaeDeltaType</text>
</a>
</g>
<polygon fill="#000000" stroke="#000000" points="0,-16 0,-16 134,-16 134,-16 0,-16"/>
<polygon fill="none" stroke="#000000" points="0,0 0,-32 134,-32 134,0 0,0"/>
</g>
<!-- Types&#45;&gt;biom:MinutiaeDeltaDirectionLeftMeasure -->
<g id="edge1" class="edge">
<title>Types:top&#45;&gt;biom:MinutiaeDeltaDirectionLeftMeasure</title>
<path fill="none" stroke="#000000" d="M133,-24C151.7074,-24 171.4454,-24 190.8514,-24"/>
<polygon fill="#000000" stroke="#000000" points="190.962,-27.5001 200.9619,-24 190.9619,-20.5001 190.962,-27.5001"/>
<text text-anchor="middle" x="167.5" y="-27.4" font-family="Helvetica,sans-Serif" font-size="12.00" fill="#000000">has&#45;a</text>
</g>
</g>
</svg>
