<?xml version="1.0" encoding="UTF-8" standalone="no"?>
<!DOCTYPE svg PUBLIC "-//W3C//DTD SVG 1.1//EN"
 "http://www.w3.org/Graphics/SVG/1.1/DTD/svg11.dtd">
<!-- Generated by graphviz version 2.40.1 (20161225.0304)
 -->
<!-- Title: graphic Pages: 1 -->
<svg width="682pt" height="131pt"
 viewBox="0.00 0.00 682.00 130.50" xmlns="http://www.w3.org/2000/svg" xmlns:xlink="http://www.w3.org/1999/xlink">
<g id="graph0" class="graph" transform="scale(1 1) rotate(0) translate(4 126.5)">
<title>graphic</title>
<polygon fill="#ffffff" stroke="transparent" points="-4,4 -4,-126.5 678,-126.5 678,4 -4,4"/>
<!-- biom:FaceImageAcquisitionType -->
<g id="node1" class="node">
<title>biom:FaceImageAcquisitionType</title>
<text text-anchor="start" x="255.5" y="-55.4" font-family="Helvetica,sans-Serif" font-weight="bold" font-size="12.00" fill="#000000">biom:FaceImageAcquisitionType</text>
<g id="a_node1_0"><a xlink:href="../../biom/FaceImageAcquisitionCode/#diagram" xlink:title="A code for the source of a facial photo" target="_top">
<polygon fill="#ebebeb" stroke="transparent" points="254.5,-35 254.5,-50 669.5,-50 669.5,-35 254.5,-35"/>
<text text-anchor="start" x="255.5" y="-39.4" font-family="Helvetica,sans-Serif" font-size="12.00" fill="#000000">biom:FaceImageAcquisitionCode: biom:FaceImageAcquisitionCodeType [0&#45;n]</text>
</a>
</g>
<g id="a_node1_1"><a xlink:href="../../biom/AcquisitionSourceDescriptionText/#diagram" xlink:title="A description of a vendor&#45;specified source of an image" target="_top">
<text text-anchor="start" x="255.5" y="-24.4" font-family="Helvetica,sans-Serif" font-size="12.00" fill="#000000">biom:AcquisitionSourceDescriptionText: nc:TextType [0&#45;n]</text>
</a>
</g>
<g id="a_node1_2"><a xlink:href="../../biom/FaceImageAcquisitionAugmentationPoint/#diagram" xlink:title="An augmentation point for FaceImageAcquisitionType." target="_top">
<polygon fill="#ebebeb" stroke="transparent" points="254.5,-5 254.5,-20 669.5,-20 669.5,-5 254.5,-5"/>
<text text-anchor="start" x="255.5" y="-9.4" font-family="Helvetica,sans-Serif" font-size="12.00" fill="#000000">biom:FaceImageAcquisitionAugmentationPoint [0&#45;n]</text>
</a>
</g>
<polygon fill="#ff0000" stroke="#ff0000" points="249.5,-50 249.5,-50 674.5,-50 674.5,-50 249.5,-50"/>
<polygon fill="none" stroke="#ff0000" stroke-width="5" points="251.5,-2.5 251.5,-67.5 671.5,-67.5 671.5,-2.5 251.5,-2.5"/>
</g>
<!-- Properties -->
<g id="node2" class="node">
<title>Properties</title>
<text text-anchor="start" x="2" y="-55.4" font-family="Helvetica,sans-Serif" font-weight="bold" font-size="12.00" fill="#000000">Properties</text>
<g id="a_node2_3"><a xlink:href="../../biom/FaceImageAcquisitionSource/#diagram" xlink:title="A source of an image" target="_top">
<polygon fill="#ebebeb" stroke="transparent" points="1,-35 1,-50 189,-50 189,-35 1,-35"/>
<text text-anchor="start" x="2" y="-39.4" font-family="Helvetica,sans-Serif" font-size="12.00" fill="#000000">biom:FaceImageAcquisitionSource</text>
</a>
</g>
<polygon fill="#000000" stroke="#000000" points="0,-50 0,-50 190,-50 190,-50 0,-50"/>
<polygon fill="none" stroke="#000000" points="0,-34 0,-66 190,-66 190,-34 0,-34"/>
</g>
<!-- Properties&#45;&gt;biom:FaceImageAcquisitionType -->
<g id="edge1" class="edge">
<title>Properties:top&#45;&gt;biom:FaceImageAcquisitionType:top</title>
<path fill="none" stroke="#000000" d="M189,-58C214.3585,-58 223.1498,-58 244.2371,-58"/>
<polygon fill="#000000" stroke="#000000" points="244.5,-61.5001 254.5,-58 244.5,-54.5001 244.5,-61.5001"/>
<text text-anchor="middle" x="219.5" y="-61.4" font-family="Helvetica,sans-Serif" font-size="12.00" fill="#000000">type</text>
</g>
<!-- structures:ObjectType -->
<g id="node3" class="node">
<title>structures:ObjectType</title>
<g id="a_node3_4"><a xlink:href="../../structures/ObjectType/#diagram" xlink:title="A data type for a thing with its own lifespan that has some existence." target="_top">
<text text-anchor="start" x="402.5" y="-110.4" font-family="Helvetica,sans-Serif" font-size="12.00" fill="#000000">structures:ObjectType</text>
</a>
</g>
<polygon fill="none" stroke="#000000" points="400.5,-105.5 400.5,-122.5 522.5,-122.5 522.5,-105.5 400.5,-105.5"/>
</g>
<!-- structures:ObjectType&#45;&gt;biom:FaceImageAcquisitionType -->
<g id="edge2" class="edge">
<title>structures:ObjectType&#45;&gt;biom:FaceImageAcquisitionType</title>
<path fill="none" stroke="#000000" d="M461.5,-105.4117C461.5,-99.1025 461.5,-89.9911 461.5,-80.4049"/>
<polygon fill="#000000" stroke="#000000" points="465.0001,-80.3408 461.5,-70.3408 458.0001,-80.3409 465.0001,-80.3408"/>
<text text-anchor="middle" x="452" y="-84.65" font-family="Helvetica,sans-Serif" font-size="12.00" fill="#000000">extension</text>
</g>
</g>
</svg>
