<?xml version="1.0" encoding="UTF-8" standalone="no"?>
<!DOCTYPE svg PUBLIC "-//W3C//DTD SVG 1.1//EN"
 "http://www.w3.org/Graphics/SVG/1.1/DTD/svg11.dtd">
<!-- Generated by graphviz version 2.40.1 (20161225.0304)
 -->
<!-- Title: graphic Pages: 1 -->
<svg width="543pt" height="45pt"
 viewBox="0.00 0.00 543.00 45.00" xmlns="http://www.w3.org/2000/svg" xmlns:xlink="http://www.w3.org/1999/xlink">
<g id="graph0" class="graph" transform="scale(1 1) rotate(0) translate(4 41)">
<title>graphic</title>
<polygon fill="#ffffff" stroke="transparent" points="-4,4 -4,-41 539,-41 539,4 -4,4"/>
<!-- j:ParoleViolationReportDate -->
<g id="node1" class="node">
<title>j:ParoleViolationReportDate</title>
<text text-anchor="start" x="237" y="-21.4" font-family="Helvetica,sans-Serif" font-weight="bold" font-size="12.00" fill="#000000">j:ParoleViolationReportDate</text>
<polygon fill="none" stroke="#ff0000" stroke-width="5" points="233.5,-14 233.5,-34 400.5,-34 400.5,-14 233.5,-14"/>
</g>
<!-- nc:DateType -->
<g id="node3" class="node">
<title>nc:DateType</title>
<g id="a_node3_0"><a xlink:href="../../nc/DateType/#diagram" xlink:title="A data type for a calendar date." target="_top">
<text text-anchor="start" x="464.5" y="-20.4" font-family="Helvetica,sans-Serif" font-size="12.00" fill="#000000">nc:DateType</text>
</a>
</g>
<polygon fill="none" stroke="#000000" points="462,-15.5 462,-32.5 535,-32.5 535,-15.5 462,-15.5"/>
</g>
<!-- j:ParoleViolationReportDate&#45;&gt;nc:DateType -->
<g id="edge2" class="edge">
<title>j:ParoleViolationReportDate&#45;&gt;nc:DateType</title>
<path fill="none" stroke="#000000" d="M403.2319,-24C419.8656,-24 436.7022,-24 451.499,-24"/>
<polygon fill="#000000" stroke="#000000" points="451.8809,-27.5001 461.8808,-24 451.8808,-20.5001 451.8809,-27.5001"/>
<text text-anchor="middle" x="432.5" y="-27.4" font-family="Helvetica,sans-Serif" font-size="12.00" fill="#000000">type</text>
</g>
<!-- Types -->
<g id="node2" class="node">
<title>Types</title>
<text text-anchor="start" x="2" y="-21.4" font-family="Helvetica,sans-Serif" font-weight="bold" font-size="12.00" fill="#000000">Types</text>
<g id="a_node2_1"><a xlink:href="../../j/ParoleViolationDecisionType/#diagram" xlink:title="A data type for a set of details about an outcome rendered in parole violation case." target="_top">
<polygon fill="#ebebeb" stroke="transparent" points="1,-1 1,-16 163,-16 163,-1 1,-1"/>
<text text-anchor="start" x="2" y="-5.4" font-family="Helvetica,sans-Serif" font-size="12.00" fill="#000000">j:ParoleViolationDecisionType</text>
</a>
</g>
<polygon fill="#000000" stroke="#000000" points="0,-16 0,-16 164,-16 164,-16 0,-16"/>
<polygon fill="none" stroke="#000000" points="0,0 0,-32 164,-32 164,0 0,0"/>
</g>
<!-- Types&#45;&gt;j:ParoleViolationReportDate -->
<g id="edge1" class="edge">
<title>Types:top&#45;&gt;j:ParoleViolationReportDate</title>
<path fill="none" stroke="#000000" d="M163,-24C181.5837,-24 201.4288,-24 220.4804,-24"/>
<polygon fill="#000000" stroke="#000000" points="220.6636,-27.5001 230.6636,-24 220.6636,-20.5001 220.6636,-27.5001"/>
<text text-anchor="middle" x="197.5" y="-27.4" font-family="Helvetica,sans-Serif" font-size="12.00" fill="#000000">has&#45;a</text>
</g>
</g>
</svg>
