<?xml version="1.0" encoding="UTF-8" standalone="no"?>
<!DOCTYPE svg PUBLIC "-//W3C//DTD SVG 1.1//EN"
 "http://www.w3.org/Graphics/SVG/1.1/DTD/svg11.dtd">
<!-- Generated by graphviz version 2.40.1 (20161225.0304)
 -->
<!-- Title: graphic Pages: 1 -->
<svg width="405pt" height="101pt"
 viewBox="0.00 0.00 405.00 101.00" xmlns="http://www.w3.org/2000/svg" xmlns:xlink="http://www.w3.org/1999/xlink">
<g id="graph0" class="graph" transform="scale(1 1) rotate(0) translate(4 97)">
<title>graphic</title>
<polygon fill="#ffffff" stroke="transparent" points="-4,4 -4,-97 401,-97 401,4 -4,4"/>
<!-- j:IncidentLevelAbstract -->
<g id="node1" class="node">
<title>j:IncidentLevelAbstract</title>
<text text-anchor="start" x="242.5" y="-77.4" font-family="Helvetica,sans-Serif" font-weight="bold" font-size="12.00" fill="#000000">j:IncidentLevelAbstract</text>
<polygon fill="none" stroke="#ff0000" stroke-width="5" points="238.5,-70 238.5,-90 378.5,-90 378.5,-70 238.5,-70"/>
</g>
<!-- SubstitutableElements -->
<g id="node3" class="node">
<title>SubstitutableElements</title>
<text text-anchor="start" x="222.5" y="-21.4" font-family="Helvetica,sans-Serif" font-weight="bold" font-size="12.00" fill="#000000">Substitutable elements</text>
<g id="a_node3_0"><a xlink:href="../../j/IncidentLevelText/#diagram" xlink:title="A level of an incident." target="_top">
<polygon fill="#ebebeb" stroke="transparent" points="221.5,-1 221.5,-16 396.5,-16 396.5,-1 221.5,-1"/>
<text text-anchor="start" x="222.5" y="-5.4" font-family="Helvetica,sans-Serif" font-size="12.00" fill="#000000">j:IncidentLevelText: nc:TextType</text>
</a>
</g>
<polygon fill="#000000" stroke="#000000" points="220.5,-16 220.5,-16 397.5,-16 397.5,-16 220.5,-16"/>
<polygon fill="none" stroke="#000000" points="220,0 220,-32 397,-32 397,0 220,0"/>
</g>
<!-- j:IncidentLevelAbstract&#45;&gt;SubstitutableElements -->
<g id="edge2" class="edge">
<title>j:IncidentLevelAbstract&#45;&gt;SubstitutableElements</title>
<path fill="none" stroke="#000000" d="M308.5,-57.3063C308.5,-48.9972 308.5,-39.7712 308.5,-32.1499"/>
<polygon fill="#000000" stroke="#000000" points="305.0001,-57.4892 308.5,-67.4892 312.0001,-57.4892 305.0001,-57.4892"/>
<text text-anchor="middle" x="299" y="-46.65" font-family="Helvetica,sans-Serif" font-size="12.00" fill="#000000">substitutable for</text>
</g>
<!-- Types -->
<g id="node2" class="node">
<title>Types</title>
<text text-anchor="start" x="2.5" y="-77.4" font-family="Helvetica,sans-Serif" font-weight="bold" font-size="12.00" fill="#000000">Types</text>
<g id="a_node2_1"><a xlink:href="../../j/IncidentAugmentationType/#diagram" xlink:title="A data type for additional information about an incident." target="_top">
<polygon fill="#ebebeb" stroke="transparent" points="1.5,-57 1.5,-72 152.5,-72 152.5,-57 1.5,-57"/>
<text text-anchor="start" x="2.5" y="-61.4" font-family="Helvetica,sans-Serif" font-size="12.00" fill="#000000">j:IncidentAugmentationType</text>
</a>
</g>
<polygon fill="#000000" stroke="#000000" points=".5,-72 .5,-72 153.5,-72 153.5,-72 .5,-72"/>
<polygon fill="none" stroke="#000000" points="0,-56 0,-88 153,-88 153,-56 0,-56"/>
</g>
<!-- Types&#45;&gt;j:IncidentLevelAbstract -->
<g id="edge1" class="edge">
<title>Types:top&#45;&gt;j:IncidentLevelAbstract</title>
<path fill="none" stroke="#000000" d="M152.5,-80C176.3164,-80 202.1781,-80 225.8697,-80"/>
<polygon fill="#000000" stroke="#000000" points="225.8781,-83.5001 235.878,-80 225.878,-76.5001 225.8781,-83.5001"/>
<text text-anchor="middle" x="186.5" y="-83.4" font-family="Helvetica,sans-Serif" font-size="12.00" fill="#000000">has&#45;a</text>
</g>
</g>
</svg>
