<?xml version="1.0" encoding="UTF-8" standalone="no"?>
<!DOCTYPE svg PUBLIC "-//W3C//DTD SVG 1.1//EN"
 "http://www.w3.org/Graphics/SVG/1.1/DTD/svg11.dtd">
<!-- Generated by graphviz version 2.40.1 (20161225.0304)
 -->
<!-- Title: graphic Pages: 1 -->
<svg width="522pt" height="222pt"
 viewBox="0.00 0.00 522.00 222.00" xmlns="http://www.w3.org/2000/svg" xmlns:xlink="http://www.w3.org/1999/xlink">
<g id="graph0" class="graph" transform="scale(1 1) rotate(0) translate(4 218)">
<title>graphic</title>
<polygon fill="#ffffff" stroke="transparent" points="-4,4 -4,-218 518,-218 518,4 -4,4"/>
<!-- stat:OrganizationType -->
<g id="node1" class="node">
<title>stat:OrganizationType</title>
<text text-anchor="start" x="213.5" y="-39.9" font-family="Helvetica,sans-Serif" font-weight="bold" font-size="12.00" fill="#000000">stat:OrganizationType</text>
<g id="a_node1_0"><a xlink:href="../../stat/OrganizationSubAgent/#diagram" xlink:title="A sub&#45;agent of an organization." target="_top">
<polygon fill="#ebebeb" stroke="transparent" points="212.5,-19.5 212.5,-34.5 509.5,-34.5 509.5,-19.5 212.5,-19.5"/>
<text text-anchor="start" x="213.5" y="-23.9" font-family="Helvetica,sans-Serif" font-size="12.00" fill="#000000">stat:OrganizationSubAgent: stat:OrganizationType [0&#45;n]</text>
</a>
</g>
<g id="a_node1_1"><a xlink:href="../../stat/OrganizationAugmentationPoint/#diagram" xlink:title="An augmentation point for type stat:OrganizationType" target="_top">
<text text-anchor="start" x="213.5" y="-8.9" font-family="Helvetica,sans-Serif" font-size="12.00" fill="#000000">stat:OrganizationAugmentationPoint [0&#45;n]</text>
</a>
</g>
<polygon fill="#ff0000" stroke="#ff0000" points="207.5,-34.5 207.5,-34.5 514.5,-34.5 514.5,-34.5 207.5,-34.5"/>
<polygon fill="none" stroke="#ff0000" stroke-width="5" points="209.5,-2.5 209.5,-52.5 511.5,-52.5 511.5,-2.5 209.5,-2.5"/>
</g>
<!-- Properties -->
<g id="node2" class="node">
<title>Properties</title>
<text text-anchor="start" x="2" y="-39.9" font-family="Helvetica,sans-Serif" font-weight="bold" font-size="12.00" fill="#000000">Properties</text>
<g id="a_node2_2"><a xlink:href="../../stat/Organization/#diagram" xlink:title="A unique framework of authority within which a person or persons act, or are designated to act, towards some purpose." target="_top">
<polygon fill="#ebebeb" stroke="transparent" points="1,-19.5 1,-34.5 147,-34.5 147,-19.5 1,-19.5"/>
<text text-anchor="start" x="2" y="-23.9" font-family="Helvetica,sans-Serif" font-size="12.00" fill="#000000">stat:Organization</text>
</a>
</g>
<g id="a_node2_3"><a xlink:href="../../stat/OrganizationSubAgent/#diagram" xlink:title="A sub&#45;agent of an organization." target="_top">
<text text-anchor="start" x="2" y="-8.9" font-family="Helvetica,sans-Serif" font-size="12.00" fill="#000000">stat:OrganizationSubAgent</text>
</a>
</g>
<polygon fill="#000000" stroke="#000000" points="0,-34.5 0,-34.5 148,-34.5 148,-34.5 0,-34.5"/>
<polygon fill="none" stroke="#000000" points="0,-4 0,-51 148,-51 148,-4 0,-4"/>
</g>
<!-- Properties&#45;&gt;stat:OrganizationType -->
<g id="edge1" class="edge">
<title>Properties:top&#45;&gt;stat:OrganizationType:top</title>
<path fill="none" stroke="#000000" d="M147,-42.5C172.3585,-42.5 181.1498,-42.5 202.2371,-42.5"/>
<polygon fill="#000000" stroke="#000000" points="202.5,-46.0001 212.5,-42.5 202.5,-39.0001 202.5,-46.0001"/>
<text text-anchor="middle" x="177.5" y="-45.9" font-family="Helvetica,sans-Serif" font-size="12.00" fill="#000000">type</text>
</g>
<!-- stat:AgentType -->
<g id="node3" class="node">
<title>stat:AgentType</title>
<g id="a_node3_4"><a xlink:href="../../stat/AgentType/#diagram" xlink:title="A data type for someone or something that bears some form of responsibility for a business process taking place, for the existence of an entity, or for another agent&#39;s business process." target="_top">
<text text-anchor="start" x="320.5" y="-95.9" font-family="Helvetica,sans-Serif" font-size="12.00" fill="#000000">stat:AgentType</text>
</a>
</g>
<polygon fill="none" stroke="#000000" points="318,-91 318,-108 403,-108 403,-91 318,-91"/>
</g>
<!-- stat:AgentType&#45;&gt;stat:OrganizationType -->
<g id="edge2" class="edge">
<title>stat:AgentType&#45;&gt;stat:OrganizationType</title>
<path fill="none" stroke="#000000" d="M360.5,-90.8151C360.5,-84.3271 360.5,-74.9677 360.5,-65.4273"/>
<polygon fill="#000000" stroke="#000000" points="364.0001,-65.1311 360.5,-55.1312 357.0001,-65.1312 364.0001,-65.1311"/>
<text text-anchor="middle" x="351" y="-69.9" font-family="Helvetica,sans-Serif" font-size="12.00" fill="#000000">extension</text>
</g>
<!-- stat:IdentifiableArtifactType -->
<g id="node4" class="node">
<title>stat:IdentifiableArtifactType</title>
<g id="a_node4_5"><a xlink:href="../../stat/IdentifiableArtifactType/#diagram" xlink:title="A data type for an abstract class that comprises the basic attributes and associations needed for identification, naming and other documentation." target="_top">
<text text-anchor="start" x="288.5" y="-148.9" font-family="Helvetica,sans-Serif" font-size="12.00" fill="#000000">stat:IdentifiableArtifactType</text>
</a>
</g>
<polygon fill="none" stroke="#000000" points="286,-144 286,-161 435,-161 435,-144 286,-144"/>
</g>
<!-- stat:IdentifiableArtifactType&#45;&gt;stat:AgentType -->
<g id="edge3" class="edge">
<title>stat:IdentifiableArtifactType&#45;&gt;stat:AgentType</title>
<path fill="none" stroke="#000000" d="M360.5,-143.911C360.5,-137.0124 360.5,-127.0696 360.5,-118.34"/>
<polygon fill="#000000" stroke="#000000" points="364.0001,-118.2518 360.5,-108.2519 357.0001,-118.2519 364.0001,-118.2518"/>
<text text-anchor="middle" x="351" y="-122.9" font-family="Helvetica,sans-Serif" font-size="12.00" fill="#000000">extension</text>
</g>
<!-- structures:ObjectType -->
<g id="node5" class="node">
<title>structures:ObjectType</title>
<g id="a_node5_6"><a xlink:href="../../structures/ObjectType/#diagram" xlink:title="A data type for a thing with its own lifespan that has some existence." target="_top">
<text text-anchor="start" x="301.5" y="-201.9" font-family="Helvetica,sans-Serif" font-size="12.00" fill="#000000">structures:ObjectType</text>
</a>
</g>
<polygon fill="none" stroke="#000000" points="299.5,-197 299.5,-214 421.5,-214 421.5,-197 299.5,-197"/>
</g>
<!-- structures:ObjectType&#45;&gt;stat:IdentifiableArtifactType -->
<g id="edge4" class="edge">
<title>structures:ObjectType&#45;&gt;stat:IdentifiableArtifactType</title>
<path fill="none" stroke="#000000" d="M360.5,-196.911C360.5,-190.0124 360.5,-180.0696 360.5,-171.34"/>
<polygon fill="#000000" stroke="#000000" points="364.0001,-171.2518 360.5,-161.2519 357.0001,-171.2519 364.0001,-171.2518"/>
<text text-anchor="middle" x="351" y="-175.9" font-family="Helvetica,sans-Serif" font-size="12.00" fill="#000000">extension</text>
</g>
</g>
</svg>
