<?xml version="1.0" encoding="UTF-8" standalone="no"?>
<!DOCTYPE svg PUBLIC "-//W3C//DTD SVG 1.1//EN"
 "http://www.w3.org/Graphics/SVG/1.1/DTD/svg11.dtd">
<!-- Generated by graphviz version 2.40.1 (20161225.0304)
 -->
<!-- Title: graphic Pages: 1 -->
<svg width="578pt" height="117pt"
 viewBox="0.00 0.00 578.00 116.50" xmlns="http://www.w3.org/2000/svg" xmlns:xlink="http://www.w3.org/1999/xlink">
<g id="graph0" class="graph" transform="scale(1 1) rotate(0) translate(4 112.5)">
<title>graphic</title>
<polygon fill="#ffffff" stroke="transparent" points="-4,4 -4,-112.5 574,-112.5 574,4 -4,4"/>
<!-- hs:SchoolClassLetterGradeAbstract -->
<g id="node1" class="node">
<title>hs:SchoolClassLetterGradeAbstract</title>
<text text-anchor="start" x="272.5" y="-92.9" font-family="Helvetica,sans-Serif" font-weight="bold" font-size="12.00" fill="#000000">hs:SchoolClassLetterGradeAbstract</text>
<polygon fill="none" stroke="#ff0000" stroke-width="5" points="268.5,-85.5 268.5,-105.5 482.5,-105.5 482.5,-85.5 268.5,-85.5"/>
</g>
<!-- SubstitutableElements -->
<g id="node3" class="node">
<title>SubstitutableElements</title>
<text text-anchor="start" x="183.5" y="-35.9" font-family="Helvetica,sans-Serif" font-weight="bold" font-size="12.00" fill="#000000">Substitutable elements</text>
<g id="a_node3_0"><a xlink:href="../../hs/SchoolClassLetterGradeCode/#diagram" xlink:title="A letter grade received in a school class." target="_top">
<polygon fill="#ebebeb" stroke="transparent" points="182.5,-15.5 182.5,-30.5 569.5,-30.5 569.5,-15.5 182.5,-15.5"/>
<text text-anchor="start" x="183.5" y="-19.9" font-family="Helvetica,sans-Serif" font-size="12.00" fill="#000000">hs:SchoolClassLetterGradeCode: hs:SchoolClassLetterGradeCodeType</text>
</a>
</g>
<g id="a_node3_1"><a xlink:href="../../hs/SchoolClassLetterGradeText/#diagram" xlink:title="A letter grade received in a school class." target="_top">
<text text-anchor="start" x="183.5" y="-4.9" font-family="Helvetica,sans-Serif" font-size="12.00" fill="#000000">hs:SchoolClassLetterGradeText: nc:TextType</text>
</a>
</g>
<polygon fill="#000000" stroke="#000000" points="181.5,-30.5 181.5,-30.5 570.5,-30.5 570.5,-30.5 181.5,-30.5"/>
<polygon fill="none" stroke="#000000" points="181,0 181,-47 570,-47 570,0 181,0"/>
</g>
<!-- hs:SchoolClassLetterGradeAbstract&#45;&gt;SubstitutableElements -->
<g id="edge2" class="edge">
<title>hs:SchoolClassLetterGradeAbstract&#45;&gt;SubstitutableElements</title>
<path fill="none" stroke="#000000" d="M375.5,-72.9771C375.5,-64.7398 375.5,-55.4022 375.5,-47.0755"/>
<polygon fill="#000000" stroke="#000000" points="372.0001,-72.9945 375.5,-82.9945 379.0001,-72.9946 372.0001,-72.9945"/>
<text text-anchor="middle" x="366" y="-61.9" font-family="Helvetica,sans-Serif" font-size="12.00" fill="#000000">substitutable for</text>
</g>
<!-- Types -->
<g id="node2" class="node">
<title>Types</title>
<text text-anchor="start" x="2" y="-92.9" font-family="Helvetica,sans-Serif" font-weight="bold" font-size="12.00" fill="#000000">Types</text>
<g id="a_node2_2"><a xlink:href="../../hs/SchoolClassType/#diagram" xlink:title="A data type for information about specific school classes." target="_top">
<polygon fill="#ebebeb" stroke="transparent" points="1,-72.5 1,-87.5 113,-87.5 113,-72.5 1,-72.5"/>
<text text-anchor="start" x="2" y="-76.9" font-family="Helvetica,sans-Serif" font-size="12.00" fill="#000000">hs:SchoolClassType</text>
</a>
</g>
<polygon fill="#000000" stroke="#000000" points="0,-87.5 0,-87.5 114,-87.5 114,-87.5 0,-87.5"/>
<polygon fill="none" stroke="#000000" points="0,-71.5 0,-103.5 114,-103.5 114,-71.5 0,-71.5"/>
</g>
<!-- Types&#45;&gt;hs:SchoolClassLetterGradeAbstract -->
<g id="edge1" class="edge">
<title>Types:top&#45;&gt;hs:SchoolClassLetterGradeAbstract</title>
<path fill="none" stroke="#000000" d="M113,-95.5C159.7113,-95.5 211.0983,-95.5 255.9287,-95.5"/>
<polygon fill="#000000" stroke="#000000" points="255.9829,-99.0001 265.9829,-95.5 255.9829,-92.0001 255.9829,-99.0001"/>
<text text-anchor="middle" x="147.5" y="-98.9" font-family="Helvetica,sans-Serif" font-size="12.00" fill="#000000">has&#45;a</text>
</g>
</g>
</svg>
