<?xml version="1.0" encoding="UTF-8" standalone="no"?>
<!DOCTYPE svg PUBLIC "-//W3C//DTD SVG 1.1//EN"
 "http://www.w3.org/Graphics/SVG/1.1/DTD/svg11.dtd">
<!-- Generated by graphviz version 2.40.1 (20161225.0304)
 -->
<!-- Title: graphic Pages: 1 -->
<svg width="656pt" height="75pt"
 viewBox="0.00 0.00 656.00 75.00" xmlns="http://www.w3.org/2000/svg" xmlns:xlink="http://www.w3.org/1999/xlink">
<g id="graph0" class="graph" transform="scale(1 1) rotate(0) translate(4 71)">
<title>graphic</title>
<polygon fill="#ffffff" stroke="transparent" points="-4,4 -4,-71 652,-71 652,4 -4,4"/>
<!-- em:PersonHumanResource -->
<g id="node1" class="node">
<title>em:PersonHumanResource</title>
<text text-anchor="start" x="246" y="-51.4" font-family="Helvetica,sans-Serif" font-weight="bold" font-size="12.00" fill="#000000">em:PersonHumanResource</text>
<polygon fill="none" stroke="#ff0000" stroke-width="5" points="242.5,-44 242.5,-64 407.5,-64 407.5,-44 242.5,-44"/>
</g>
<!-- em:PersonHumanResourceType -->
<g id="node3" class="node">
<title>em:PersonHumanResourceType</title>
<g id="a_node3_0"><a xlink:href="../../em/PersonHumanResourceType/#diagram" xlink:title="A data type contains information about a person" target="_top">
<text text-anchor="start" x="471.5" y="-50.4" font-family="Helvetica,sans-Serif" font-size="12.00" fill="#000000">em:PersonHumanResourceType</text>
</a>
</g>
<polygon fill="none" stroke="#000000" points="469,-45.5 469,-62.5 648,-62.5 648,-45.5 469,-45.5"/>
</g>
<!-- em:PersonHumanResource&#45;&gt;em:PersonHumanResourceType -->
<g id="edge2" class="edge">
<title>em:PersonHumanResource&#45;&gt;em:PersonHumanResourceType</title>
<path fill="none" stroke="#000000" d="M410.29,-54C425.8929,-54 442.3058,-54 458.2961,-54"/>
<polygon fill="#000000" stroke="#000000" points="458.7303,-57.5001 468.7302,-54 458.7302,-50.5001 458.7303,-57.5001"/>
<text text-anchor="middle" x="439.5" y="-57.4" font-family="Helvetica,sans-Serif" font-size="12.00" fill="#000000">type</text>
</g>
<!-- Types -->
<g id="node2" class="node">
<title>Types</title>
<text text-anchor="start" x="2.5" y="-51.4" font-family="Helvetica,sans-Serif" font-weight="bold" font-size="12.00" fill="#000000">Types</text>
<g id="a_node2_1"><a xlink:href="../../em/BadgeType/#diagram" xlink:title="A data type for an ID card that identifies a person. A badge can be a low cost card, or a PIV card that follows specification NIST SP&#45;800&#45;73&#45;2. Badge may work together with a pin number, visual identification and biometrics of the badge holder to make a positive identification of a person" target="_top">
<polygon fill="#ebebeb" stroke="transparent" points="1.5,-31 1.5,-46 172.5,-46 172.5,-31 1.5,-31"/>
<text text-anchor="start" x="2.5" y="-35.4" font-family="Helvetica,sans-Serif" font-size="12.00" fill="#000000">em:BadgeType</text>
</a>
</g>
<g id="a_node2_2"><a xlink:href="../../em/FirstResponderType/#diagram" xlink:title="A data type for a person who is a first responder" target="_top">
<text text-anchor="start" x="2.5" y="-20.4" font-family="Helvetica,sans-Serif" font-size="12.00" fill="#000000">em:FirstResponderType</text>
</a>
</g>
<g id="a_node2_3"><a xlink:href="../../em/OrganizationPersonnelType/#diagram" xlink:title="A data type for an organization&#39;s personnel information" target="_top">
<polygon fill="#ebebeb" stroke="transparent" points="1.5,-1 1.5,-16 172.5,-16 172.5,-1 1.5,-1"/>
<text text-anchor="start" x="2.5" y="-5.4" font-family="Helvetica,sans-Serif" font-size="12.00" fill="#000000">em:OrganizationPersonnelType</text>
</a>
</g>
<polygon fill="#000000" stroke="#000000" points=".5,-46 .5,-46 173.5,-46 173.5,-46 .5,-46"/>
<polygon fill="none" stroke="#000000" points="0,0 0,-62 173,-62 173,0 0,0"/>
</g>
<!-- Types&#45;&gt;em:PersonHumanResource -->
<g id="edge1" class="edge">
<title>Types:top&#45;&gt;em:PersonHumanResource</title>
<path fill="none" stroke="#000000" d="M172.5,-54C191.0149,-54 210.7942,-54 229.7655,-54"/>
<polygon fill="#000000" stroke="#000000" points="229.904,-57.5001 239.904,-54 229.9039,-50.5001 229.904,-57.5001"/>
<text text-anchor="middle" x="206.5" y="-57.4" font-family="Helvetica,sans-Serif" font-size="12.00" fill="#000000">has&#45;a</text>
</g>
</g>
</svg>
