<?xml version="1.0" encoding="UTF-8" standalone="no"?>
<!DOCTYPE svg PUBLIC "-//W3C//DTD SVG 1.1//EN"
 "http://www.w3.org/Graphics/SVG/1.1/DTD/svg11.dtd">
<!-- Generated by graphviz version 2.40.1 (20161225.0304)
 -->
<!-- Title: graphic Pages: 1 -->
<svg width="492pt" height="45pt"
 viewBox="0.00 0.00 492.00 45.00" xmlns="http://www.w3.org/2000/svg" xmlns:xlink="http://www.w3.org/1999/xlink">
<g id="graph0" class="graph" transform="scale(1 1) rotate(0) translate(4 41)">
<title>graphic</title>
<polygon fill="#ffffff" stroke="transparent" points="-4,4 -4,-41 488,-41 488,4 -4,4"/>
<!-- j:VisitationVerifiedDateTime -->
<g id="node1" class="node">
<title>j:VisitationVerifiedDateTime</title>
<text text-anchor="start" x="159" y="-21.4" font-family="Helvetica,sans-Serif" font-weight="bold" font-size="12.00" fill="#000000">j:VisitationVerifiedDateTime</text>
<polygon fill="none" stroke="#ff0000" stroke-width="5" points="155.5,-14 155.5,-34 322.5,-34 322.5,-14 155.5,-14"/>
</g>
<!-- niem&#45;xs:dateTime -->
<g id="node3" class="node">
<title>niem&#45;xs:dateTime</title>
<g id="a_node3_0"><a xlink:href="../../niem-xs/dateTime/#diagram" xlink:title="A data type for objects with integer&#45;valued year, month, day, hour and minute properties, a decimal&#45;valued second property, and a boolean timezoned property." target="_top">
<text text-anchor="start" x="386" y="-20.4" font-family="Helvetica,sans-Serif" font-size="12.00" fill="#000000">niem&#45;xs:dateTime</text>
</a>
</g>
<polygon fill="none" stroke="#000000" points="384,-15.5 384,-32.5 484,-32.5 484,-15.5 384,-15.5"/>
</g>
<!-- j:VisitationVerifiedDateTime&#45;&gt;niem&#45;xs:dateTime -->
<g id="edge2" class="edge">
<title>j:VisitationVerifiedDateTime&#45;&gt;niem&#45;xs:dateTime</title>
<path fill="none" stroke="#000000" d="M325.0975,-24C341.4282,-24 358.1915,-24 373.5209,-24"/>
<polygon fill="#000000" stroke="#000000" points="373.8816,-27.5001 383.8816,-24 373.8816,-20.5001 373.8816,-27.5001"/>
<text text-anchor="middle" x="354.5" y="-27.4" font-family="Helvetica,sans-Serif" font-size="12.00" fill="#000000">type</text>
</g>
<!-- Types -->
<g id="node2" class="node">
<title>Types</title>
<text text-anchor="start" x="2" y="-21.4" font-family="Helvetica,sans-Serif" font-weight="bold" font-size="12.00" fill="#000000">Types</text>
<g id="a_node2_1"><a xlink:href="../../j/VisitationType/#diagram" xlink:title="A data type for a record of a person visiting another person under restricted access." target="_top">
<polygon fill="#ebebeb" stroke="transparent" points="1,-1 1,-16 85,-16 85,-1 1,-1"/>
<text text-anchor="start" x="2" y="-5.4" font-family="Helvetica,sans-Serif" font-size="12.00" fill="#000000">j:VisitationType</text>
</a>
</g>
<polygon fill="#000000" stroke="#000000" points="0,-16 0,-16 86,-16 86,-16 0,-16"/>
<polygon fill="none" stroke="#000000" points="0,0 0,-32 86,-32 86,0 0,0"/>
</g>
<!-- Types&#45;&gt;j:VisitationVerifiedDateTime -->
<g id="edge1" class="edge">
<title>Types:top&#45;&gt;j:VisitationVerifiedDateTime</title>
<path fill="none" stroke="#000000" d="M85,-24C103.5837,-24 123.4288,-24 142.4804,-24"/>
<polygon fill="#000000" stroke="#000000" points="142.6636,-27.5001 152.6636,-24 142.6636,-20.5001 142.6636,-27.5001"/>
<text text-anchor="middle" x="119.5" y="-27.4" font-family="Helvetica,sans-Serif" font-size="12.00" fill="#000000">has&#45;a</text>
</g>
</g>
</svg>
