<?xml version="1.0" encoding="UTF-8" standalone="no"?>
<!DOCTYPE svg PUBLIC "-//W3C//DTD SVG 1.1//EN"
 "http://www.w3.org/Graphics/SVG/1.1/DTD/svg11.dtd">
<!-- Generated by graphviz version 2.40.1 (20161225.0304)
 -->
<!-- Title: graphic Pages: 1 -->
<svg width="725pt" height="86pt"
 viewBox="0.00 0.00 725.00 86.00" xmlns="http://www.w3.org/2000/svg" xmlns:xlink="http://www.w3.org/1999/xlink">
<g id="graph0" class="graph" transform="scale(1 1) rotate(0) translate(4 82)">
<title>graphic</title>
<polygon fill="#ffffff" stroke="transparent" points="-4,4 -4,-82 721,-82 721,4 -4,4"/>
<!-- mo:UnitCommandOrSupportRelationshipCategoryCode -->
<g id="node1" class="node">
<title>mo:UnitCommandOrSupportRelationshipCategoryCode</title>
<text text-anchor="start" x="6.5" y="-9.9" font-family="Helvetica,sans-Serif" font-weight="bold" font-size="12.00" fill="#000000">mo:UnitCommandOrSupportRelationshipCategoryCode</text>
<polygon fill="none" stroke="#ff0000" stroke-width="5" points="2.5,-2.5 2.5,-22.5 328.5,-22.5 328.5,-2.5 2.5,-2.5"/>
</g>
<!-- mo:UnitCommandOrSupportRelationshipCategoryCodeType -->
<g id="node3" class="node">
<title>mo:UnitCommandOrSupportRelationshipCategoryCodeType</title>
<g id="a_node3_0"><a xlink:href="../../mo/UnitCommandOrSupportRelationshipCategoryCodeType/#diagram" xlink:title="A data type for a designator for a command or support relationship between the subject and object units." target="_top">
<text text-anchor="start" x="392.5" y="-8.9" font-family="Helvetica,sans-Serif" font-size="12.00" fill="#000000">mo:UnitCommandOrSupportRelationshipCategoryCodeType</text>
</a>
</g>
<polygon fill="none" stroke="#000000" points="390,-4 390,-21 717,-21 717,-4 390,-4"/>
</g>
<!-- mo:UnitCommandOrSupportRelationshipCategoryCode&#45;&gt;mo:UnitCommandOrSupportRelationshipCategoryCodeType -->
<g id="edge2" class="edge">
<title>mo:UnitCommandOrSupportRelationshipCategoryCode&#45;&gt;mo:UnitCommandOrSupportRelationshipCategoryCodeType</title>
<path fill="none" stroke="#000000" d="M331.1724,-12.5C347.2912,-12.5 363.6767,-12.5 379.8708,-12.5"/>
<polygon fill="#000000" stroke="#000000" points="379.925,-16.0001 389.925,-12.5 379.925,-9.0001 379.925,-16.0001"/>
<text text-anchor="middle" x="360.5" y="-15.9" font-family="Helvetica,sans-Serif" font-size="12.00" fill="#000000">type</text>
</g>
<!-- SubstitutionGroup -->
<g id="node2" class="node">
<title>SubstitutionGroup</title>
<g id="a_node2_1"><a xlink:href="../../mo/UnitCommandOrSupportRelationshipCategoryAbstract/#diagram" xlink:title="A data concept for a kind of command or support relationship that exists between the subject and object units." target="_top">
<text text-anchor="start" x="10.5" y="-65.9" font-family="Helvetica,sans-Serif" font-size="12.00" fill="#000000">mo:UnitCommandOrSupportRelationshipCategoryAbstract</text>
</a>
</g>
<polygon fill="none" stroke="#000000" points="8,-61 8,-78 323,-78 323,-61 8,-61"/>
</g>
<!-- SubstitutionGroup&#45;&gt;mo:UnitCommandOrSupportRelationshipCategoryCode -->
<g id="edge1" class="edge">
<title>SubstitutionGroup&#45;&gt;mo:UnitCommandOrSupportRelationshipCategoryCode</title>
<path fill="none" stroke="#000000" d="M165.5,-50.9163C165.5,-42.4809 165.5,-32.7214 165.5,-25.1501"/>
<polygon fill="#000000" stroke="#000000" points="162.0001,-50.9472 165.5,-60.9473 169.0001,-50.9473 162.0001,-50.9472"/>
<text text-anchor="middle" x="156" y="-39.9" font-family="Helvetica,sans-Serif" font-size="12.00" fill="#000000">substitution group</text>
</g>
</g>
</svg>
