<?xml version="1.0" encoding="UTF-8" standalone="no"?>
<!DOCTYPE svg PUBLIC "-//W3C//DTD SVG 1.1//EN"
 "http://www.w3.org/Graphics/SVG/1.1/DTD/svg11.dtd">
<!-- Generated by graphviz version 2.40.1 (20161225.0304)
 -->
<!-- Title: graphic Pages: 1 -->
<svg width="623pt" height="194pt"
 viewBox="0.00 0.00 623.00 194.00" xmlns="http://www.w3.org/2000/svg" xmlns:xlink="http://www.w3.org/1999/xlink">
<g id="graph0" class="graph" transform="scale(1 1) rotate(0) translate(4 190)">
<title>graphic</title>
<polygon fill="#ffffff" stroke="transparent" points="-4,4 -4,-190 619,-190 619,4 -4,4"/>
<!-- j:ActivityNetworkAddressAssociationType -->
<g id="node1" class="node">
<title>j:ActivityNetworkAddressAssociationType</title>
<text text-anchor="start" x="286.5" y="-65.9" font-family="Helvetica,sans-Serif" font-weight="bold" font-size="12.00" fill="#000000">j:ActivityNetworkAddressAssociationType</text>
<g id="a_node1_0"><a xlink:href="../../j/NetworkAddressID/#diagram" xlink:title="A network address involved in association." target="_top">
<polygon fill="#ebebeb" stroke="transparent" points="285.5,-45.5 285.5,-60.5 610.5,-60.5 610.5,-45.5 285.5,-45.5"/>
<text text-anchor="start" x="286.5" y="-49.9" font-family="Helvetica,sans-Serif" font-size="12.00" fill="#000000">j:NetworkAddressID: niem&#45;xs:string [0&#45;n]</text>
</a>
</g>
<g id="a_node1_1"><a xlink:href="../../nc/Activity/#diagram" xlink:title="A single or set of related actions, events, or process steps." target="_top">
<text text-anchor="start" x="286.5" y="-34.9" font-family="Helvetica,sans-Serif" font-size="12.00" fill="#000000">nc:Activity: nc:ActivityType [0&#45;n]</text>
</a>
</g>
<g id="a_node1_2"><a xlink:href="../../j/ActivityNetworkAddressAssociationAugmentationPoint/#diagram" xlink:title="An augmentation point for ActivityNetworkAddressAssociationType." target="_top">
<polygon fill="#ebebeb" stroke="transparent" points="285.5,-15.5 285.5,-30.5 610.5,-30.5 610.5,-15.5 285.5,-15.5"/>
<text text-anchor="start" x="286.5" y="-19.9" font-family="Helvetica,sans-Serif" font-size="12.00" fill="#000000">j:ActivityNetworkAddressAssociationAugmentationPoint [0&#45;n]</text>
</a>
</g>
<polygon fill="#ff0000" stroke="#ff0000" points="280.5,-60.5 280.5,-60.5 615.5,-60.5 615.5,-60.5 280.5,-60.5"/>
<polygon fill="none" stroke="#ff0000" stroke-width="5" points="282.5,-13 282.5,-78 612.5,-78 612.5,-13 282.5,-13"/>
</g>
<!-- Properties -->
<g id="node2" class="node">
<title>Properties</title>
<text text-anchor="start" x="2.5" y="-65.9" font-family="Helvetica,sans-Serif" font-weight="bold" font-size="12.00" fill="#000000">Properties</text>
<g id="a_node2_3"><a xlink:href="../../j/ActivityNetworkAddressAssociation/#diagram" xlink:title="A relationship between an activity and a network address." target="_top">
<polygon fill="#ebebeb" stroke="transparent" points="1.5,-45.5 1.5,-60.5 220.5,-60.5 220.5,-45.5 1.5,-45.5"/>
<text text-anchor="start" x="2.5" y="-49.9" font-family="Helvetica,sans-Serif" font-size="12.00" fill="#000000">j:ActivityNetworkAddressAssociation</text>
</a>
</g>
<g id="a_node2_4"><a xlink:href="../../j/IncidentNetworkAddressAssociation/#diagram" xlink:title="A relationship between an incident and a network address." target="_top">
<text text-anchor="start" x="2.5" y="-34.9" font-family="Helvetica,sans-Serif" font-size="12.00" fill="#000000">j:IncidentNetworkAddressAssociation</text>
</a>
</g>
<g id="a_node2_5"><a xlink:href="../../j/OffenseNetworkAddressAssociation/#diagram" xlink:title="A relationship between an offense and a network address." target="_top">
<polygon fill="#ebebeb" stroke="transparent" points="1.5,-15.5 1.5,-30.5 220.5,-30.5 220.5,-15.5 1.5,-15.5"/>
<text text-anchor="start" x="2.5" y="-19.9" font-family="Helvetica,sans-Serif" font-size="12.00" fill="#000000">j:OffenseNetworkAddressAssociation</text>
</a>
</g>
<g id="a_node2_6"><a xlink:href="../../j/ServiceCallNetworkAddressAssociation/#diagram" xlink:title="A relationship between a service call and a network address where a request for service originated." target="_top">
<text text-anchor="start" x="2.5" y="-4.9" font-family="Helvetica,sans-Serif" font-size="12.00" fill="#000000">j:ServiceCallNetworkAddressAssociation</text>
</a>
</g>
<polygon fill="#000000" stroke="#000000" points=".5,-60.5 .5,-60.5 221.5,-60.5 221.5,-60.5 .5,-60.5"/>
<polygon fill="none" stroke="#000000" points="0,0 0,-77 221,-77 221,0 0,0"/>
</g>
<!-- Properties&#45;&gt;j:ActivityNetworkAddressAssociationType -->
<g id="edge1" class="edge">
<title>Properties:top&#45;&gt;j:ActivityNetworkAddressAssociationType:top</title>
<path fill="none" stroke="#000000" d="M220.5,-68.5C245.6649,-68.5 254.3891,-68.5 275.3154,-68.5"/>
<polygon fill="#000000" stroke="#000000" points="275.5,-72.0001 285.5,-68.5 275.5,-65.0001 275.5,-72.0001"/>
<text text-anchor="middle" x="250.5" y="-71.9" font-family="Helvetica,sans-Serif" font-size="12.00" fill="#000000">type</text>
</g>
<!-- nc:AssociationType -->
<g id="node3" class="node">
<title>nc:AssociationType</title>
<g id="a_node3_7"><a xlink:href="../../nc/AssociationType/#diagram" xlink:title="A data type for an association, connection, relationship, or involvement somehow linking people, things, and/or activities together." target="_top">
<text text-anchor="start" x="395.5" y="-120.9" font-family="Helvetica,sans-Serif" font-size="12.00" fill="#000000">nc:AssociationType</text>
</a>
</g>
<polygon fill="none" stroke="#000000" points="393,-116 393,-133 502,-133 502,-116 393,-116"/>
</g>
<!-- nc:AssociationType&#45;&gt;j:ActivityNetworkAddressAssociationType -->
<g id="edge2" class="edge">
<title>nc:AssociationType&#45;&gt;j:ActivityNetworkAddressAssociationType</title>
<path fill="none" stroke="#000000" d="M447.5,-115.9117C447.5,-109.6025 447.5,-100.4911 447.5,-90.9049"/>
<polygon fill="#000000" stroke="#000000" points="451.0001,-90.8408 447.5,-80.8408 444.0001,-90.8409 451.0001,-90.8408"/>
<text text-anchor="middle" x="438" y="-95.15" font-family="Helvetica,sans-Serif" font-size="12.00" fill="#000000">extension</text>
</g>
<!-- structures:AssociationType -->
<g id="node4" class="node">
<title>structures:AssociationType</title>
<g id="a_node4_8"><a xlink:href="../../structures/AssociationType/#diagram" xlink:title="A data type for a relationship between two or more objects, including any properties of that relationship." target="_top">
<text text-anchor="start" x="375.5" y="-173.9" font-family="Helvetica,sans-Serif" font-size="12.00" fill="#000000">structures:AssociationType</text>
</a>
</g>
<polygon fill="none" stroke="#000000" points="373,-169 373,-186 522,-186 522,-169 373,-169"/>
</g>
<!-- structures:AssociationType&#45;&gt;nc:AssociationType -->
<g id="edge3" class="edge">
<title>structures:AssociationType&#45;&gt;nc:AssociationType</title>
<path fill="none" stroke="#000000" d="M447.5,-168.911C447.5,-162.0124 447.5,-152.0696 447.5,-143.34"/>
<polygon fill="#000000" stroke="#000000" points="451.0001,-143.2518 447.5,-133.2519 444.0001,-143.2519 451.0001,-143.2518"/>
<text text-anchor="middle" x="438" y="-147.9" font-family="Helvetica,sans-Serif" font-size="12.00" fill="#000000">extension</text>
</g>
</g>
</svg>
