<?xml version="1.0" encoding="UTF-8" standalone="no"?>
<!DOCTYPE svg PUBLIC "-//W3C//DTD SVG 1.1//EN"
 "http://www.w3.org/Graphics/SVG/1.1/DTD/svg11.dtd">
<!-- Generated by graphviz version 2.40.1 (20161225.0304)
 -->
<!-- Title: graphic Pages: 1 -->
<svg width="846pt" height="146pt"
 viewBox="0.00 0.00 846.00 146.00" xmlns="http://www.w3.org/2000/svg" xmlns:xlink="http://www.w3.org/1999/xlink">
<g id="graph0" class="graph" transform="scale(1 1) rotate(0) translate(4 142)">
<title>graphic</title>
<polygon fill="#ffffff" stroke="transparent" points="-4,4 -4,-142 842,-142 842,4 -4,4"/>
<!-- nc:PersonCitizenshipType -->
<g id="node1" class="node">
<title>nc:PersonCitizenshipType</title>
<text text-anchor="start" x="182" y="-69.9" font-family="Helvetica,sans-Serif" font-weight="bold" font-size="12.00" fill="#000000">nc:PersonCitizenshipType</text>
<g id="a_node1_0"><a xlink:href="../../nc/PersonCitizenshipCountry/#diagram" xlink:title="A country that assigns rights, duties, and privileges to a person because of the birth or naturalization of the person in that country." target="_top">
<polygon fill="#ebebeb" stroke="transparent" points="181,-49.5 181,-64.5 457,-64.5 457,-49.5 181,-49.5"/>
<text text-anchor="start" x="182" y="-53.9" font-family="Helvetica,sans-Serif" font-size="12.00" fill="#000000">nc:PersonCitizenshipCountry: nc:CountryType [0&#45;n]</text>
</a>
</g>
<g id="a_node1_1"><a xlink:href="../../nc/PersonCitizenshipCategoryAbstract/#diagram" xlink:title="A data concept for a kind of citizenship granted to a person by a country." target="_top">
<text text-anchor="start" x="182" y="-38.9" font-family="Helvetica,sans-Serif" font-size="12.00" fill="#000000">nc:PersonCitizenshipCategoryAbstract [0&#45;n]</text>
</a>
</g>
<g id="a_node1_2"><a xlink:href="../../nc/PersonCitizenshipStatus/#diagram" xlink:title="A status of a person&#39;s citizenship in a country." target="_top">
<polygon fill="#ebebeb" stroke="transparent" points="181,-19.5 181,-34.5 457,-34.5 457,-19.5 181,-19.5"/>
<text text-anchor="start" x="182" y="-23.9" font-family="Helvetica,sans-Serif" font-size="12.00" fill="#000000">nc:PersonCitizenshipStatus: nc:StatusType [0&#45;n]</text>
</a>
</g>
<g id="a_node1_3"><a xlink:href="../../nc/PersonCitizenshipAugmentationPoint/#diagram" xlink:title="An augmentation point for type nc:PersonCitizenshipType" target="_top">
<text text-anchor="start" x="182" y="-8.9" font-family="Helvetica,sans-Serif" font-size="12.00" fill="#000000">nc:PersonCitizenshipAugmentationPoint [0&#45;n]</text>
</a>
</g>
<polygon fill="#ff0000" stroke="#ff0000" points="176,-64.5 176,-64.5 462,-64.5 462,-64.5 176,-64.5"/>
<polygon fill="none" stroke="#ff0000" stroke-width="5" points="178.5,-2.5 178.5,-82.5 459.5,-82.5 459.5,-2.5 178.5,-2.5"/>
</g>
<!-- subst_d9e18489 -->
<g id="node2" class="node">
<title>subst_d9e18489</title>
<g id="a_node2_4"><a xlink:href="../../nc/PersonCitizenshipCategoryAbstract/#diagram" xlink:title="&lt;TABLE&gt;" target="_top">
<text text-anchor="start" x="501.5" y="-38.9" font-family="Helvetica,sans-Serif" font-weight="bold" font-size="12.00" fill="#000000">Substitution group nc:PersonCitizenshipCategoryAbstract</text>
</a>
</g>
<g id="a_node2_5"><a xlink:href="../../nc/PersonCitizenshipCategoryText/#diagram" xlink:title="A kind of citizenship granted to a person by a country." target="_top">
<polygon fill="#ebebeb" stroke="transparent" points="500.5,-18.5 500.5,-33.5 837.5,-33.5 837.5,-18.5 500.5,-18.5"/>
<text text-anchor="start" x="501.5" y="-22.9" font-family="Helvetica,sans-Serif" font-size="12.00" fill="#000000">nc:PersonCitizenshipCategoryText: nc:TextType</text>
</a>
</g>
<polygon fill="#000000" stroke="#000000" points="499.5,-33.5 499.5,-33.5 838.5,-33.5 838.5,-33.5 499.5,-33.5"/>
<polygon fill="none" stroke="#000000" points="499,-17.5 499,-49.5 838,-49.5 838,-17.5 499,-17.5"/>
</g>
<!-- nc:PersonCitizenshipType&#45;&gt;subst_d9e18489 -->
<g id="edge1" class="edge">
<title>nc:PersonCitizenshipType:e&#45;&gt;subst_d9e18489:w</title>
<path fill="none" stroke="#000000" d="M467.2295,-41.5C478.8951,-41.5 485.0938,-41.5 500.5,-41.5"/>
<polygon fill="#000000" stroke="#000000" points="467,-38.0001 457,-41.5 467,-45.0001 467,-38.0001"/>
</g>
<!-- Properties -->
<g id="node3" class="node">
<title>Properties</title>
<text text-anchor="start" x="2.5" y="-69.9" font-family="Helvetica,sans-Serif" font-weight="bold" font-size="12.00" fill="#000000">Properties</text>
<g id="a_node3_6"><a xlink:href="../../nc/PersonCitizenship/#diagram" xlink:title="A person&#39;s position or status with a country that assigns rights, duties, and privileges because of the birth or naturalization of the person in that country." target="_top">
<polygon fill="#ebebeb" stroke="transparent" points="1.5,-49.5 1.5,-64.5 116.5,-64.5 116.5,-49.5 1.5,-49.5"/>
<text text-anchor="start" x="2.5" y="-53.9" font-family="Helvetica,sans-Serif" font-size="12.00" fill="#000000">nc:PersonCitizenship</text>
</a>
</g>
<polygon fill="#000000" stroke="#000000" points=".5,-64.5 .5,-64.5 117.5,-64.5 117.5,-64.5 .5,-64.5"/>
<polygon fill="none" stroke="#000000" points="0,-48.5 0,-80.5 117,-80.5 117,-48.5 0,-48.5"/>
</g>
<!-- Properties&#45;&gt;nc:PersonCitizenshipType -->
<g id="edge2" class="edge">
<title>Properties:top&#45;&gt;nc:PersonCitizenshipType:top</title>
<path fill="none" stroke="#000000" d="M116.5,-72.5C141.4714,-72.5 150.1284,-72.5 170.8937,-72.5"/>
<polygon fill="#000000" stroke="#000000" points="171,-76.0001 181,-72.5 171,-69.0001 171,-76.0001"/>
<text text-anchor="middle" x="146.5" y="-75.9" font-family="Helvetica,sans-Serif" font-size="12.00" fill="#000000">type</text>
</g>
<!-- structures:ObjectType -->
<g id="node4" class="node">
<title>structures:ObjectType</title>
<g id="a_node4_7"><a xlink:href="../../structures/ObjectType/#diagram" xlink:title="A data type for a thing with its own lifespan that has some existence." target="_top">
<text text-anchor="start" x="260" y="-125.9" font-family="Helvetica,sans-Serif" font-size="12.00" fill="#000000">structures:ObjectType</text>
</a>
</g>
<polygon fill="none" stroke="#000000" points="258,-121 258,-138 380,-138 380,-121 258,-121"/>
</g>
<!-- structures:ObjectType&#45;&gt;nc:PersonCitizenshipType -->
<g id="edge3" class="edge">
<title>structures:ObjectType&#45;&gt;nc:PersonCitizenshipType</title>
<path fill="none" stroke="#000000" d="M319,-120.9761C319,-114.614 319,-105.3292 319,-95.3557"/>
<polygon fill="#000000" stroke="#000000" points="322.5001,-95.2354 319,-85.2354 315.5001,-95.2354 322.5001,-95.2354"/>
<text text-anchor="middle" x="309.5" y="-99.9" font-family="Helvetica,sans-Serif" font-size="12.00" fill="#000000">extension</text>
</g>
</g>
</svg>
