<?xml version="1.0" encoding="UTF-8" standalone="no"?>
<!DOCTYPE svg PUBLIC "-//W3C//DTD SVG 1.1//EN"
 "http://www.w3.org/Graphics/SVG/1.1/DTD/svg11.dtd">
<!-- Generated by graphviz version 2.40.1 (20161225.0304)
 -->
<!-- Title: graphic Pages: 1 -->
<svg width="764pt" height="60pt"
 viewBox="0.00 0.00 764.00 59.50" xmlns="http://www.w3.org/2000/svg" xmlns:xlink="http://www.w3.org/1999/xlink">
<g id="graph0" class="graph" transform="scale(1 1) rotate(0) translate(4 55.5)">
<title>graphic</title>
<polygon fill="#ffffff" stroke="transparent" points="-4,4 -4,-55.5 760,-55.5 760,4 -4,4"/>
<!-- biom:FingerprintCoordinate -->
<g id="node1" class="node">
<title>biom:FingerprintCoordinate</title>
<text text-anchor="start" x="354" y="-35.9" font-family="Helvetica,sans-Serif" font-weight="bold" font-size="12.00" fill="#000000">biom:FingerprintCoordinate</text>
<polygon fill="none" stroke="#ff0000" stroke-width="5" points="350.5,-28.5 350.5,-48.5 517.5,-48.5 517.5,-28.5 350.5,-28.5"/>
</g>
<!-- biom:FingerprintCoordinateType -->
<g id="node3" class="node">
<title>biom:FingerprintCoordinateType</title>
<g id="a_node3_0"><a xlink:href="../../biom/FingerprintCoordinateType/#diagram" xlink:title="A data type for coordinates of the bounding box for an individual finger." target="_top">
<text text-anchor="start" x="581.5" y="-34.9" font-family="Helvetica,sans-Serif" font-size="12.00" fill="#000000">biom:FingerprintCoordinateType</text>
</a>
</g>
<polygon fill="none" stroke="#000000" points="579,-30 579,-47 756,-47 756,-30 579,-30"/>
</g>
<!-- biom:FingerprintCoordinate&#45;&gt;biom:FingerprintCoordinateType -->
<g id="edge2" class="edge">
<title>biom:FingerprintCoordinate&#45;&gt;biom:FingerprintCoordinateType</title>
<path fill="none" stroke="#000000" d="M520.2834,-38.5C535.949,-38.5 552.4016,-38.5 568.4014,-38.5"/>
<polygon fill="#000000" stroke="#000000" points="568.8374,-42.0001 578.8374,-38.5 568.8373,-35.0001 568.8374,-42.0001"/>
<text text-anchor="middle" x="549.5" y="-41.9" font-family="Helvetica,sans-Serif" font-size="12.00" fill="#000000">type</text>
</g>
<!-- Types -->
<g id="node2" class="node">
<title>Types</title>
<text text-anchor="start" x="2.5" y="-35.9" font-family="Helvetica,sans-Serif" font-weight="bold" font-size="12.00" fill="#000000">Types</text>
<g id="a_node2_1"><a xlink:href="../../biom/FingerprintImageSegmentPositionSquareType/#diagram" xlink:title="A data type for a square segment position for a particular fingerprint" target="_top">
<polygon fill="#ebebeb" stroke="transparent" points="1.5,-15.5 1.5,-30.5 280.5,-30.5 280.5,-15.5 1.5,-15.5"/>
<text text-anchor="start" x="2.5" y="-19.9" font-family="Helvetica,sans-Serif" font-size="12.00" fill="#000000">biom:FingerprintImageSegmentPositionSquareType</text>
</a>
</g>
<g id="a_node2_2"><a xlink:href="../../biom/MajorCasePrintSegmentOffsetType/#diagram" xlink:title="A data type for a major case print segment offset" target="_top">
<text text-anchor="start" x="2.5" y="-4.9" font-family="Helvetica,sans-Serif" font-size="12.00" fill="#000000">biom:MajorCasePrintSegmentOffsetType</text>
</a>
</g>
<polygon fill="#000000" stroke="#000000" points=".5,-30.5 .5,-30.5 281.5,-30.5 281.5,-30.5 .5,-30.5"/>
<polygon fill="none" stroke="#000000" points="0,0 0,-47 281,-47 281,0 0,0"/>
</g>
<!-- Types&#45;&gt;biom:FingerprintCoordinate -->
<g id="edge1" class="edge">
<title>Types:top&#45;&gt;biom:FingerprintCoordinate</title>
<path fill="none" stroke="#000000" d="M280.5,-38.5C299.0233,-38.5 318.804,-38.5 337.7938,-38.5"/>
<polygon fill="#000000" stroke="#000000" points="337.9439,-42.0001 347.9439,-38.5 337.9439,-35.0001 337.9439,-42.0001"/>
<text text-anchor="middle" x="314.5" y="-41.9" font-family="Helvetica,sans-Serif" font-size="12.00" fill="#000000">has&#45;a</text>
</g>
</g>
</svg>
