<?xml version="1.0" encoding="UTF-8" standalone="no"?>
<!DOCTYPE svg PUBLIC "-//W3C//DTD SVG 1.1//EN"
 "http://www.w3.org/Graphics/SVG/1.1/DTD/svg11.dtd">
<!-- Generated by graphviz version 2.40.1 (20161225.0304)
 -->
<!-- Title: graphic Pages: 1 -->
<svg width="724pt" height="60pt"
 viewBox="0.00 0.00 724.00 59.50" xmlns="http://www.w3.org/2000/svg" xmlns:xlink="http://www.w3.org/1999/xlink">
<g id="graph0" class="graph" transform="scale(1 1) rotate(0) translate(4 55.5)">
<title>graphic</title>
<polygon fill="#ffffff" stroke="transparent" points="-4,4 -4,-55.5 720,-55.5 720,4 -4,4"/>
<!-- cui:BasicCategoryMarkingCode -->
<g id="node1" class="node">
<title>cui:BasicCategoryMarkingCode</title>
<text text-anchor="start" x="270" y="-35.9" font-family="Helvetica,sans-Serif" font-weight="bold" font-size="12.00" fill="#000000">cui:BasicCategoryMarkingCode</text>
<polygon fill="none" stroke="#ff0000" stroke-width="5" points="266.5,-28.5 266.5,-48.5 455.5,-48.5 455.5,-28.5 266.5,-28.5"/>
</g>
<!-- cui:BasicCategoryMarkingCodeType -->
<g id="node3" class="node">
<title>cui:BasicCategoryMarkingCodeType</title>
<g id="a_node3_0"><a xlink:href="../../cui/BasicCategoryMarkingCodeType/#diagram" xlink:title="A data type for a Controlled Unclassified Information (CUI) Basic category marking." target="_top">
<text text-anchor="start" x="519.5" y="-34.9" font-family="Helvetica,sans-Serif" font-size="12.00" fill="#000000">cui:BasicCategoryMarkingCodeType</text>
</a>
</g>
<polygon fill="none" stroke="#000000" points="517,-30 517,-47 716,-47 716,-30 517,-30"/>
</g>
<!-- cui:BasicCategoryMarkingCode&#45;&gt;cui:BasicCategoryMarkingCodeType -->
<g id="edge2" class="edge">
<title>cui:BasicCategoryMarkingCode&#45;&gt;cui:BasicCategoryMarkingCodeType</title>
<path fill="none" stroke="#000000" d="M458.3225,-38.5C474.0554,-38.5 490.4421,-38.5 506.4507,-38.5"/>
<polygon fill="#000000" stroke="#000000" points="506.9054,-42.0001 516.9054,-38.5 506.9053,-35.0001 506.9054,-42.0001"/>
<text text-anchor="middle" x="487.5" y="-41.9" font-family="Helvetica,sans-Serif" font-size="12.00" fill="#000000">type</text>
</g>
<!-- Types -->
<g id="node2" class="node">
<title>Types</title>
<text text-anchor="start" x="2.5" y="-35.9" font-family="Helvetica,sans-Serif" font-weight="bold" font-size="12.00" fill="#000000">Types</text>
<g id="a_node2_1"><a xlink:href="../../cui/DocumentMarkingMetadataType/#diagram" xlink:title="A data type for metadata about the Controlled Unclassified Information (CUI) marking of a document." target="_top">
<polygon fill="#ebebeb" stroke="transparent" points="1.5,-15.5 1.5,-30.5 196.5,-30.5 196.5,-15.5 1.5,-15.5"/>
<text text-anchor="start" x="2.5" y="-19.9" font-family="Helvetica,sans-Serif" font-size="12.00" fill="#000000">cui:DocumentMarkingMetadataType</text>
</a>
</g>
<g id="a_node2_2"><a xlink:href="../../cui/PortionMarkingMetadataType/#diagram" xlink:title="A data type for metadata about the Controlled Unclassified Information (CUI) portion marking of a document." target="_top">
<text text-anchor="start" x="2.5" y="-4.9" font-family="Helvetica,sans-Serif" font-size="12.00" fill="#000000">cui:PortionMarkingMetadataType</text>
</a>
</g>
<polygon fill="#000000" stroke="#000000" points=".5,-30.5 .5,-30.5 197.5,-30.5 197.5,-30.5 .5,-30.5"/>
<polygon fill="none" stroke="#000000" points="0,0 0,-47 197,-47 197,0 0,0"/>
</g>
<!-- Types&#45;&gt;cui:BasicCategoryMarkingCode -->
<g id="edge1" class="edge">
<title>Types:top&#45;&gt;cui:BasicCategoryMarkingCode</title>
<path fill="none" stroke="#000000" d="M196.5,-38.5C214.8983,-38.5 234.454,-38.5 253.4195,-38.5"/>
<polygon fill="#000000" stroke="#000000" points="253.5779,-42.0001 263.5779,-38.5 253.5778,-35.0001 253.5779,-42.0001"/>
<text text-anchor="middle" x="230.5" y="-41.9" font-family="Helvetica,sans-Serif" font-size="12.00" fill="#000000">has&#45;a</text>
</g>
</g>
</svg>
