<?xml version="1.0" encoding="UTF-8" standalone="no"?>
<!DOCTYPE svg PUBLIC "-//W3C//DTD SVG 1.1//EN"
 "http://www.w3.org/Graphics/SVG/1.1/DTD/svg11.dtd">
<!-- Generated by graphviz version 2.40.1 (20161225.0304)
 -->
<!-- Title: graphic Pages: 1 -->
<svg width="527pt" height="45pt"
 viewBox="0.00 0.00 527.00 45.00" xmlns="http://www.w3.org/2000/svg" xmlns:xlink="http://www.w3.org/1999/xlink">
<g id="graph0" class="graph" transform="scale(1 1) rotate(0) translate(4 41)">
<title>graphic</title>
<polygon fill="#ffffff" stroke="transparent" points="-4,4 -4,-41 523,-41 523,4 -4,4"/>
<!-- em:PhysicalFitness -->
<g id="node1" class="node">
<title>em:PhysicalFitness</title>
<text text-anchor="start" x="206.5" y="-21.4" font-family="Helvetica,sans-Serif" font-weight="bold" font-size="12.00" fill="#000000">em:PhysicalFitness</text>
<polygon fill="none" stroke="#ff0000" stroke-width="5" points="202.5,-14 202.5,-34 322.5,-34 322.5,-14 202.5,-14"/>
</g>
<!-- em:PhysicalFitnessType -->
<g id="node3" class="node">
<title>em:PhysicalFitnessType</title>
<g id="a_node3_0"><a xlink:href="../../em/PhysicalFitnessType/#diagram" xlink:title="A data type for a credential class that represents a person&#39;s physical fitness" target="_top">
<text text-anchor="start" x="386.5" y="-20.4" font-family="Helvetica,sans-Serif" font-size="12.00" fill="#000000">em:PhysicalFitnessType</text>
</a>
</g>
<polygon fill="none" stroke="#000000" points="384,-15.5 384,-32.5 519,-32.5 519,-15.5 384,-15.5"/>
</g>
<!-- em:PhysicalFitness&#45;&gt;em:PhysicalFitnessType -->
<g id="edge2" class="edge">
<title>em:PhysicalFitness&#45;&gt;em:PhysicalFitnessType</title>
<path fill="none" stroke="#000000" d="M325.1717,-24C340.5972,-24 357.3037,-24 373.3603,-24"/>
<polygon fill="#000000" stroke="#000000" points="373.7979,-27.5001 383.7979,-24 373.7979,-20.5001 373.7979,-27.5001"/>
<text text-anchor="middle" x="354.5" y="-27.4" font-family="Helvetica,sans-Serif" font-size="12.00" fill="#000000">type</text>
</g>
<!-- Types -->
<g id="node2" class="node">
<title>Types</title>
<text text-anchor="start" x="2.5" y="-21.4" font-family="Helvetica,sans-Serif" font-weight="bold" font-size="12.00" fill="#000000">Types</text>
<g id="a_node2_1"><a xlink:href="../../em/FirstResponderType/#diagram" xlink:title="A data type for a person who is a first responder" target="_top">
<polygon fill="#ebebeb" stroke="transparent" points="1.5,-1 1.5,-16 132.5,-16 132.5,-1 1.5,-1"/>
<text text-anchor="start" x="2.5" y="-5.4" font-family="Helvetica,sans-Serif" font-size="12.00" fill="#000000">em:FirstResponderType</text>
</a>
</g>
<polygon fill="#000000" stroke="#000000" points=".5,-16 .5,-16 133.5,-16 133.5,-16 .5,-16"/>
<polygon fill="none" stroke="#000000" points="0,0 0,-32 133,-32 133,0 0,0"/>
</g>
<!-- Types&#45;&gt;em:PhysicalFitness -->
<g id="edge1" class="edge">
<title>Types:top&#45;&gt;em:PhysicalFitness</title>
<path fill="none" stroke="#000000" d="M132.5,-24C150.9717,-24 170.9197,-24 189.5121,-24"/>
<polygon fill="#000000" stroke="#000000" points="189.6839,-27.5001 199.6838,-24 189.6838,-20.5001 189.6839,-27.5001"/>
<text text-anchor="middle" x="166.5" y="-27.4" font-family="Helvetica,sans-Serif" font-size="12.00" fill="#000000">has&#45;a</text>
</g>
</g>
</svg>
