<?xml version="1.0" encoding="UTF-8" standalone="no"?>
<!DOCTYPE svg PUBLIC "-//W3C//DTD SVG 1.1//EN"
 "http://www.w3.org/Graphics/SVG/1.1/DTD/svg11.dtd">
<!-- Generated by graphviz version 2.40.1 (20161225.0304)
 -->
<!-- Title: graphic Pages: 1 -->
<svg width="759pt" height="45pt"
 viewBox="0.00 0.00 759.00 45.00" xmlns="http://www.w3.org/2000/svg" xmlns:xlink="http://www.w3.org/1999/xlink">
<g id="graph0" class="graph" transform="scale(1 1) rotate(0) translate(4 41)">
<title>graphic</title>
<polygon fill="#ffffff" stroke="transparent" points="-4,4 -4,-41 755,-41 755,4 -4,4"/>
<!-- j:DriverLicenseWithdrawalLocatorReferenceIdentification -->
<g id="node1" class="node">
<title>j:DriverLicenseWithdrawalLocatorReferenceIdentification</title>
<text text-anchor="start" x="243" y="-21.4" font-family="Helvetica,sans-Serif" font-weight="bold" font-size="12.00" fill="#000000">j:DriverLicenseWithdrawalLocatorReferenceIdentification</text>
<polygon fill="none" stroke="#ff0000" stroke-width="5" points="239.5,-14 239.5,-34 574.5,-34 574.5,-14 239.5,-14"/>
</g>
<!-- nc:IdentificationType -->
<g id="node3" class="node">
<title>nc:IdentificationType</title>
<g id="a_node3_0"><a xlink:href="../../nc/IdentificationType/#diagram" xlink:title="A data type for a representation of an identity." target="_top">
<text text-anchor="start" x="638.5" y="-20.4" font-family="Helvetica,sans-Serif" font-size="12.00" fill="#000000">nc:IdentificationType</text>
</a>
</g>
<polygon fill="none" stroke="#000000" points="636,-15.5 636,-32.5 751,-32.5 751,-15.5 636,-15.5"/>
</g>
<!-- j:DriverLicenseWithdrawalLocatorReferenceIdentification&#45;&gt;nc:IdentificationType -->
<g id="edge2" class="edge">
<title>j:DriverLicenseWithdrawalLocatorReferenceIdentification&#45;&gt;nc:IdentificationType</title>
<path fill="none" stroke="#000000" d="M577.3825,-24C594.3707,-24 610.8305,-24 625.7585,-24"/>
<polygon fill="#000000" stroke="#000000" points="625.8362,-27.5001 635.8362,-24 625.8361,-20.5001 625.8362,-27.5001"/>
<text text-anchor="middle" x="606.5" y="-27.4" font-family="Helvetica,sans-Serif" font-size="12.00" fill="#000000">type</text>
</g>
<!-- Types -->
<g id="node2" class="node">
<title>Types</title>
<text text-anchor="start" x="2" y="-21.4" font-family="Helvetica,sans-Serif" font-weight="bold" font-size="12.00" fill="#000000">Types</text>
<g id="a_node2_1"><a xlink:href="../../j/DriverLicenseWithdrawalType/#diagram" xlink:title="A data type for a driver license withdrawal." target="_top">
<polygon fill="#ebebeb" stroke="transparent" points="1,-1 1,-16 169,-16 169,-1 1,-1"/>
<text text-anchor="start" x="2" y="-5.4" font-family="Helvetica,sans-Serif" font-size="12.00" fill="#000000">j:DriverLicenseWithdrawalType</text>
</a>
</g>
<polygon fill="#000000" stroke="#000000" points="0,-16 0,-16 170,-16 170,-16 0,-16"/>
<polygon fill="none" stroke="#000000" points="0,0 0,-32 170,-32 170,0 0,0"/>
</g>
<!-- Types&#45;&gt;j:DriverLicenseWithdrawalLocatorReferenceIdentification -->
<g id="edge1" class="edge">
<title>Types:top&#45;&gt;j:DriverLicenseWithdrawalLocatorReferenceIdentification</title>
<path fill="none" stroke="#000000" d="M169,-24C187.6486,-24 207.1192,-24 226.5423,-24"/>
<polygon fill="#000000" stroke="#000000" points="226.6904,-27.5001 236.6903,-24 226.6903,-20.5001 226.6904,-27.5001"/>
<text text-anchor="middle" x="203.5" y="-27.4" font-family="Helvetica,sans-Serif" font-size="12.00" fill="#000000">has&#45;a</text>
</g>
</g>
</svg>
