<?xml version="1.0" encoding="UTF-8" standalone="no"?>
<!DOCTYPE svg PUBLIC "-//W3C//DTD SVG 1.1//EN"
 "http://www.w3.org/Graphics/SVG/1.1/DTD/svg11.dtd">
<!-- Generated by graphviz version 2.40.1 (20161225.0304)
 -->
<!-- Title: graphic Pages: 1 -->
<svg width="1032pt" height="160pt"
 viewBox="0.00 0.00 1032.00 159.50" xmlns="http://www.w3.org/2000/svg" xmlns:xlink="http://www.w3.org/1999/xlink">
<g id="graph0" class="graph" transform="scale(1 1) rotate(0) translate(4 155.5)">
<title>graphic</title>
<polygon fill="#ffffff" stroke="transparent" points="-4,4 -4,-155.5 1028,-155.5 1028,4 -4,4"/>
<!-- mo:CourseAngleDegreesMeasureType -->
<g id="node1" class="node">
<title>mo:CourseAngleDegreesMeasureType</title>
<text text-anchor="start" x="251.5" y="-84.4" font-family="Helvetica,sans-Serif" font-weight="bold" font-size="12.00" fill="#000000">mo:CourseAngleDegreesMeasureType</text>
<g id="a_node1_0"><a xlink:href="../../mo/AngleDegreesMeasure/#diagram" xlink:title="An angle in two dimensions measured in degrees (the angle between two half&#45;lines terminating at the same point)." target="_top">
<polygon fill="#ebebeb" stroke="transparent" points="250.5,-64 250.5,-79 563.5,-79 563.5,-64 250.5,-64"/>
<text text-anchor="start" x="251.5" y="-68.4" font-family="Helvetica,sans-Serif" font-size="12.00" fill="#000000">mo:AngleDegreesMeasure: nc:AngularMeasureType [0&#45;n]</text>
</a>
</g>
<g id="a_node1_1"><a xlink:href="../../mo/DirectionDatumAbstract/#diagram" xlink:title="A data concept for a reference direction as determined by the means by which it is established (e.g., by the direction of a geographic or magnetic pole of the Earth)." target="_top">
<text text-anchor="start" x="251.5" y="-53.4" font-family="Helvetica,sans-Serif" font-size="12.00" fill="#000000">mo:DirectionDatumAbstract [0&#45;n]</text>
</a>
</g>
<g id="a_node1_2"><a xlink:href="../../mo/CourseAngleDegreesMeasureAugmentationPoint/#diagram" xlink:title="An augmentation point for CourseAngleDegreesMeasureType." target="_top">
<polygon fill="#ebebeb" stroke="transparent" points="250.5,-34 250.5,-49 563.5,-49 563.5,-34 250.5,-34"/>
<text text-anchor="start" x="251.5" y="-38.4" font-family="Helvetica,sans-Serif" font-size="12.00" fill="#000000">mo:CourseAngleDegreesMeasureAugmentationPoint [0&#45;n]</text>
</a>
</g>
<polygon fill="#ff0000" stroke="#ff0000" points="245.5,-79 245.5,-79 568.5,-79 568.5,-79 245.5,-79"/>
<polygon fill="none" stroke="#ff0000" stroke-width="5" points="247.5,-31.5 247.5,-96.5 565.5,-96.5 565.5,-31.5 247.5,-31.5"/>
</g>
<!-- subst_d9e4391 -->
<g id="node2" class="node">
<title>subst_d9e4391</title>
<g id="a_node2_3"><a xlink:href="../../mo/DirectionDatumAbstract/#diagram" xlink:title="&lt;TABLE&gt;" target="_top">
<text text-anchor="start" x="664.5" y="-71.4" font-family="Helvetica,sans-Serif" font-weight="bold" font-size="12.00" fill="#000000">Substitution group mo:DirectionDatumAbstract</text>
</a>
</g>
<g id="a_node2_4"><a xlink:href="../../mo/DirectionDatumCode/#diagram" xlink:title="A designator for a reference direction as determined by the means by which it is established (e.g., by the direction of a geographic or magnetic pole of the Earth)." target="_top">
<polygon fill="#ebebeb" stroke="transparent" points="663.5,-51 663.5,-66 965.5,-66 965.5,-51 663.5,-51"/>
<text text-anchor="start" x="664.5" y="-55.4" font-family="Helvetica,sans-Serif" font-size="12.00" fill="#000000">mo:DirectionDatumCode: nga:DirectionDatumCodeType</text>
</a>
</g>
<polygon fill="#000000" stroke="#000000" points="662.5,-66 662.5,-66 966.5,-66 966.5,-66 662.5,-66"/>
<polygon fill="none" stroke="#000000" points="662.5,-50 662.5,-82 966.5,-82 966.5,-50 662.5,-50"/>
</g>
<!-- mo:CourseAngleDegreesMeasureType&#45;&gt;subst_d9e4391 -->
<g id="edge1" class="edge">
<title>mo:CourseAngleDegreesMeasureType:e&#45;&gt;subst_d9e4391:w</title>
<path fill="none" stroke="#000000" d="M573.9363,-56.3435C610.486,-58.832 622.0457,-74 663.5,-74"/>
<polygon fill="#000000" stroke="#000000" points="573.6098,-52.831 563.5,-56 573.3794,-59.8272 573.6098,-52.831"/>
</g>
<!-- subst_d9e4204 -->
<g id="node3" class="node">
<title>subst_d9e4204</title>
<g id="a_node3_5"><a xlink:href="../../mo/CourseAngleDegreesMeasureAugmentationPoint/#diagram" xlink:title="&lt;TABLE&gt;" target="_top">
<text text-anchor="start" x="607.5" y="-21.4" font-family="Helvetica,sans-Serif" font-weight="bold" font-size="12.00" fill="#000000">Substitution group mo:CourseAngleDegreesMeasureAugmentationPoint</text>
</a>
</g>
<g id="a_node3_6"><a xlink:href="../../mo/AngularMeasureDecimalValue/#diagram" xlink:title="A decimal value for a measurement of an angle." target="_top">
<polygon fill="#ebebeb" stroke="transparent" points="606.5,-1 606.5,-16 1023.5,-16 1023.5,-1 606.5,-1"/>
<text text-anchor="start" x="607.5" y="-5.4" font-family="Helvetica,sans-Serif" font-size="12.00" fill="#000000">mo:AngularMeasureDecimalValue: niem&#45;xs:decimal</text>
</a>
</g>
<polygon fill="#000000" stroke="#000000" points="605.5,-16 605.5,-16 1024.5,-16 1024.5,-16 605.5,-16"/>
<polygon fill="none" stroke="#000000" points="605,0 605,-32 1024,-32 1024,0 605,0"/>
</g>
<!-- mo:CourseAngleDegreesMeasureType&#45;&gt;subst_d9e4204 -->
<g id="edge2" class="edge">
<title>mo:CourseAngleDegreesMeasureType:e&#45;&gt;subst_d9e4204:w</title>
<path fill="none" stroke="#000000" d="M573.6847,-39.3078C585.5038,-35.0079 589.9633,-24 606.5,-24"/>
<polygon fill="#000000" stroke="#000000" points="572.7911,-35.9082 563.5,-41 573.9385,-42.8136 572.7911,-35.9082"/>
</g>
<!-- Properties -->
<g id="node4" class="node">
<title>Properties</title>
<text text-anchor="start" x="2" y="-84.4" font-family="Helvetica,sans-Serif" font-weight="bold" font-size="12.00" fill="#000000">Properties</text>
<g id="a_node4_7"><a xlink:href="../../mo/CourseAngleDegreesMeasure/#diagram" xlink:title="An angular distance measured in degrees of a direction from a chosen reference direction. The measured and reference directions are located in the horizontal plane, and the value of the angle is positive in a clockwise direction as viewed from &quot;above&quot; the horizontal plane." target="_top">
<polygon fill="#ebebeb" stroke="transparent" points="1,-64 1,-79 185,-79 185,-64 1,-64"/>
<text text-anchor="start" x="2" y="-68.4" font-family="Helvetica,sans-Serif" font-size="12.00" fill="#000000">mo:CourseAngleDegreesMeasure</text>
</a>
</g>
<polygon fill="#000000" stroke="#000000" points="0,-79 0,-79 186,-79 186,-79 0,-79"/>
<polygon fill="none" stroke="#000000" points="0,-63 0,-95 186,-95 186,-63 0,-63"/>
</g>
<!-- Properties&#45;&gt;mo:CourseAngleDegreesMeasureType -->
<g id="edge3" class="edge">
<title>Properties:top&#45;&gt;mo:CourseAngleDegreesMeasureType:top</title>
<path fill="none" stroke="#000000" d="M185,-87C210.3585,-87 219.1498,-87 240.2371,-87"/>
<polygon fill="#000000" stroke="#000000" points="240.5,-90.5001 250.5,-87 240.5,-83.5001 240.5,-90.5001"/>
<text text-anchor="middle" x="215.5" y="-90.4" font-family="Helvetica,sans-Serif" font-size="12.00" fill="#000000">type</text>
</g>
<!-- structures:ObjectType -->
<g id="node5" class="node">
<title>structures:ObjectType</title>
<g id="a_node5_8"><a xlink:href="../../structures/ObjectType/#diagram" xlink:title="A data type for a thing with its own lifespan that has some existence." target="_top">
<text text-anchor="start" x="347.5" y="-139.4" font-family="Helvetica,sans-Serif" font-size="12.00" fill="#000000">structures:ObjectType</text>
</a>
</g>
<polygon fill="none" stroke="#000000" points="345.5,-134.5 345.5,-151.5 467.5,-151.5 467.5,-134.5 345.5,-134.5"/>
</g>
<!-- structures:ObjectType&#45;&gt;mo:CourseAngleDegreesMeasureType -->
<g id="edge4" class="edge">
<title>structures:ObjectType&#45;&gt;mo:CourseAngleDegreesMeasureType</title>
<path fill="none" stroke="#000000" d="M406.5,-134.4117C406.5,-128.1025 406.5,-118.9911 406.5,-109.4049"/>
<polygon fill="#000000" stroke="#000000" points="410.0001,-109.3408 406.5,-99.3408 403.0001,-109.3409 410.0001,-109.3408"/>
<text text-anchor="middle" x="397" y="-113.65" font-family="Helvetica,sans-Serif" font-size="12.00" fill="#000000">extension</text>
</g>
</g>
</svg>
