<?xml version="1.0" encoding="UTF-8" standalone="no"?>
<!DOCTYPE svg PUBLIC "-//W3C//DTD SVG 1.1//EN"
 "http://www.w3.org/Graphics/SVG/1.1/DTD/svg11.dtd">
<!-- Generated by graphviz version 2.40.1 (20161225.0304)
 -->
<!-- Title: graphic Pages: 1 -->
<svg width="594pt" height="154pt"
 viewBox="0.00 0.00 594.00 153.50" xmlns="http://www.w3.org/2000/svg" xmlns:xlink="http://www.w3.org/1999/xlink">
<g id="graph0" class="graph" transform="scale(1 1) rotate(0) translate(4 149.5)">
<title>graphic</title>
<polygon fill="#ffffff" stroke="transparent" points="-4,4 -4,-149.5 590,-149.5 590,4 -4,4"/>
<!-- mmucc:CommercialVehicleConfigurationCodeType -->
<g id="node1" class="node">
<title>mmucc:CommercialVehicleConfigurationCodeType</title>
<text text-anchor="start" x="282.5" y="-25.4" font-family="Helvetica,sans-Serif" font-weight="bold" font-size="12.00" fill="#000000">mmucc:CommercialVehicleConfigurationCodeType</text>
<g id="a_node1_0"><a xlink:href="../../structures/SimpleObjectAttributeGroup/#diagram" xlink:title="A group of attributes that are applicable to objects, to be used when defining a complex type that is an extension of a simple type." target="_top">
<polygon fill="#ebebeb" stroke="transparent" points="281.5,-5 281.5,-20 577.5,-20 577.5,-5 281.5,-5"/>
<text text-anchor="start" x="282.5" y="-9.4" font-family="Helvetica,sans-Serif" font-size="12.00" fill="#000000">structures:SimpleObjectAttributeGroup</text>
</a>
</g>
<polygon fill="#ff0000" stroke="#ff0000" points="276.5,-20 276.5,-20 582.5,-20 582.5,-20 276.5,-20"/>
<polygon fill="none" stroke="#ff0000" stroke-width="5" points="279,-2.5 279,-37.5 580,-37.5 580,-2.5 279,-2.5"/>
</g>
<!-- Properties -->
<g id="node2" class="node">
<title>Properties</title>
<text text-anchor="start" x="2" y="-25.4" font-family="Helvetica,sans-Serif" font-weight="bold" font-size="12.00" fill="#000000">Properties</text>
<g id="a_node2_1"><a xlink:href="../../j/CommercialVehicleConfigurationCode/#diagram" xlink:title="An indication of the general configuration of commercial motor vehicle." target="_top">
<polygon fill="#ebebeb" stroke="transparent" points="1,-5 1,-20 213,-20 213,-5 1,-5"/>
<text text-anchor="start" x="2" y="-9.4" font-family="Helvetica,sans-Serif" font-size="12.00" fill="#000000">j:CommercialVehicleConfigurationCode</text>
</a>
</g>
<polygon fill="#000000" stroke="#000000" points="0,-20 0,-20 214,-20 214,-20 0,-20"/>
<polygon fill="none" stroke="#000000" points="0,-4 0,-36 214,-36 214,-4 0,-4"/>
</g>
<!-- Properties&#45;&gt;mmucc:CommercialVehicleConfigurationCodeType -->
<g id="edge1" class="edge">
<title>Properties:top&#45;&gt;mmucc:CommercialVehicleConfigurationCodeType:top</title>
<path fill="none" stroke="#000000" d="M213,-28C239.7578,-28 248.8774,-28 271.3635,-28"/>
<polygon fill="#000000" stroke="#000000" points="271.5,-31.5001 281.5,-28 271.5,-24.5001 271.5,-31.5001"/>
<text text-anchor="middle" x="243.5" y="-31.4" font-family="Helvetica,sans-Serif" font-size="12.00" fill="#000000">type</text>
</g>
<!-- mmucc:CommercialVehicleConfigurationCodeSimpleType -->
<g id="node3" class="node">
<title>mmucc:CommercialVehicleConfigurationCodeSimpleType</title>
<g id="a_node3_2"><a xlink:href="../../mmucc/CommercialVehicleConfigurationCodeSimpleType/#diagram" xlink:title="A data type for a general configuration of a motor vehicle." target="_top">
<text text-anchor="start" x="275.5" y="-80.4" font-family="Helvetica,sans-Serif" font-size="12.00" fill="#000000">mmucc:CommercialVehicleConfigurationCodeSimpleType</text>
</a>
</g>
<polygon fill="none" stroke="#000000" points="273,-75.5 273,-92.5 586,-92.5 586,-75.5 273,-75.5"/>
</g>
<!-- mmucc:CommercialVehicleConfigurationCodeSimpleType&#45;&gt;mmucc:CommercialVehicleConfigurationCodeType -->
<g id="edge2" class="edge">
<title>mmucc:CommercialVehicleConfigurationCodeSimpleType&#45;&gt;mmucc:CommercialVehicleConfigurationCodeType</title>
<path fill="none" stroke="#000000" d="M429.5,-75.4351C429.5,-68.931 429.5,-59.5678 429.5,-50.3827"/>
<polygon fill="#000000" stroke="#000000" points="433.0001,-50.25 429.5,-40.25 426.0001,-50.25 433.0001,-50.25"/>
<text text-anchor="middle" x="420" y="-54.65" font-family="Helvetica,sans-Serif" font-size="12.00" fill="#000000">extension</text>
</g>
<!-- xs:token -->
<g id="node4" class="node">
<title>xs:token</title>
<g id="a_node4_3"><a xlink:href="../../xs/token/#diagram" xlink:title="&lt;TABLE&gt;" target="_top">
<text text-anchor="start" x="407.5" y="-133.4" font-family="Helvetica,sans-Serif" font-size="12.00" fill="#000000">xs:token</text>
</a>
</g>
<polygon fill="none" stroke="#000000" points="405,-128.5 405,-145.5 454,-145.5 454,-128.5 405,-128.5"/>
</g>
<!-- xs:token&#45;&gt;mmucc:CommercialVehicleConfigurationCodeSimpleType -->
<g id="edge3" class="edge">
<title>xs:token&#45;&gt;mmucc:CommercialVehicleConfigurationCodeSimpleType</title>
<path fill="none" stroke="#000000" d="M429.5,-128.411C429.5,-121.5124 429.5,-111.5696 429.5,-102.84"/>
<polygon fill="#000000" stroke="#000000" points="433.0001,-102.7518 429.5,-92.7519 426.0001,-102.7519 433.0001,-102.7518"/>
<text text-anchor="middle" x="420" y="-107.4" font-family="Helvetica,sans-Serif" font-size="12.00" fill="#000000">restriction</text>
</g>
</g>
</svg>
