<?xml version="1.0" encoding="UTF-8" standalone="no"?>
<!DOCTYPE svg PUBLIC "-//W3C//DTD SVG 1.1//EN"
 "http://www.w3.org/Graphics/SVG/1.1/DTD/svg11.dtd">
<!-- Generated by graphviz version 2.40.1 (20161225.0304)
 -->
<!-- Title: graphic Pages: 1 -->
<svg width="647pt" height="45pt"
 viewBox="0.00 0.00 647.00 45.00" xmlns="http://www.w3.org/2000/svg" xmlns:xlink="http://www.w3.org/1999/xlink">
<g id="graph0" class="graph" transform="scale(1 1) rotate(0) translate(4 41)">
<title>graphic</title>
<polygon fill="#ffffff" stroke="transparent" points="-4,4 -4,-41 643,-41 643,4 -4,4"/>
<!-- m:VesselClassificationSocietyName -->
<g id="node1" class="node">
<title>m:VesselClassificationSocietyName</title>
<text text-anchor="start" x="228.5" y="-21.4" font-family="Helvetica,sans-Serif" font-weight="bold" font-size="12.00" fill="#000000">m:VesselClassificationSocietyName</text>
<polygon fill="none" stroke="#ff0000" stroke-width="5" points="224.5,-14 224.5,-34 438.5,-34 438.5,-14 224.5,-14"/>
</g>
<!-- nc:ProperNameTextType -->
<g id="node3" class="node">
<title>nc:ProperNameTextType</title>
<g id="a_node3_0"><a xlink:href="../../nc/ProperNameTextType/#diagram" xlink:title="A data type for a word or phrase by which a person or thing is known, referred, or addressed." target="_top">
<text text-anchor="start" x="502.5" y="-20.4" font-family="Helvetica,sans-Serif" font-size="12.00" fill="#000000">nc:ProperNameTextType</text>
</a>
</g>
<polygon fill="none" stroke="#000000" points="500,-15.5 500,-32.5 639,-32.5 639,-15.5 500,-15.5"/>
</g>
<!-- m:VesselClassificationSocietyName&#45;&gt;nc:ProperNameTextType -->
<g id="edge2" class="edge">
<title>m:VesselClassificationSocietyName&#45;&gt;nc:ProperNameTextType</title>
<path fill="none" stroke="#000000" d="M441.0956,-24C457.5083,-24 474.1611,-24 489.7946,-24"/>
<polygon fill="#000000" stroke="#000000" points="489.9082,-27.5001 499.9081,-24 489.9081,-20.5001 489.9082,-27.5001"/>
<text text-anchor="middle" x="470.5" y="-27.4" font-family="Helvetica,sans-Serif" font-size="12.00" fill="#000000">type</text>
</g>
<!-- Types -->
<g id="node2" class="node">
<title>Types</title>
<text text-anchor="start" x="2.5" y="-21.4" font-family="Helvetica,sans-Serif" font-weight="bold" font-size="12.00" fill="#000000">Types</text>
<g id="a_node2_1"><a xlink:href="../../m/VesselAugmentationType/#diagram" xlink:title="A data type for additional information about a vessel." target="_top">
<polygon fill="#ebebeb" stroke="transparent" points="1.5,-1 1.5,-16 154.5,-16 154.5,-1 1.5,-1"/>
<text text-anchor="start" x="2.5" y="-5.4" font-family="Helvetica,sans-Serif" font-size="12.00" fill="#000000">m:VesselAugmentationType</text>
</a>
</g>
<polygon fill="#000000" stroke="#000000" points=".5,-16 .5,-16 155.5,-16 155.5,-16 .5,-16"/>
<polygon fill="none" stroke="#000000" points="0,0 0,-32 155,-32 155,0 0,0"/>
</g>
<!-- Types&#45;&gt;m:VesselClassificationSocietyName -->
<g id="edge1" class="edge">
<title>Types:top&#45;&gt;m:VesselClassificationSocietyName</title>
<path fill="none" stroke="#000000" d="M154.5,-24C173.0791,-24 192.7553,-24 211.9739,-24"/>
<polygon fill="#000000" stroke="#000000" points="211.9741,-27.5001 221.9741,-24 211.974,-20.5001 211.9741,-27.5001"/>
<text text-anchor="middle" x="188.5" y="-27.4" font-family="Helvetica,sans-Serif" font-size="12.00" fill="#000000">has&#45;a</text>
</g>
</g>
</svg>
