<?xml version="1.0" encoding="UTF-8" standalone="no"?>
<!DOCTYPE svg PUBLIC "-//W3C//DTD SVG 1.1//EN"
 "http://www.w3.org/Graphics/SVG/1.1/DTD/svg11.dtd">
<!-- Generated by graphviz version 2.40.1 (20161225.0304)
 -->
<!-- Title: graphic Pages: 1 -->
<svg width="615pt" height="60pt"
 viewBox="0.00 0.00 615.00 59.50" xmlns="http://www.w3.org/2000/svg" xmlns:xlink="http://www.w3.org/1999/xlink">
<g id="graph0" class="graph" transform="scale(1 1) rotate(0) translate(4 55.5)">
<title>graphic</title>
<polygon fill="#ffffff" stroke="transparent" points="-4,4 -4,-55.5 611,-55.5 611,4 -4,4"/>
<!-- j:DriverLicenseEndorsementText -->
<g id="node1" class="node">
<title>j:DriverLicenseEndorsementText</title>
<text text-anchor="start" x="282.5" y="-35.9" font-family="Helvetica,sans-Serif" font-weight="bold" font-size="12.00" fill="#000000">j:DriverLicenseEndorsementText</text>
<polygon fill="none" stroke="#ff0000" stroke-width="5" points="278.5,-28.5 278.5,-48.5 474.5,-48.5 474.5,-28.5 278.5,-28.5"/>
</g>
<!-- nc:TextType -->
<g id="node3" class="node">
<title>nc:TextType</title>
<g id="a_node3_0"><a xlink:href="../../nc/TextType/#diagram" xlink:title="A data type for a character string." target="_top">
<text text-anchor="start" x="538.5" y="-34.9" font-family="Helvetica,sans-Serif" font-size="12.00" fill="#000000">nc:TextType</text>
</a>
</g>
<polygon fill="none" stroke="#000000" points="536,-30 536,-47 607,-47 607,-30 536,-30"/>
</g>
<!-- j:DriverLicenseEndorsementText&#45;&gt;nc:TextType -->
<g id="edge2" class="edge">
<title>j:DriverLicenseEndorsementText&#45;&gt;nc:TextType</title>
<path fill="none" stroke="#000000" d="M477.1416,-38.5C494.0775,-38.5 510.8868,-38.5 525.5229,-38.5"/>
<polygon fill="#000000" stroke="#000000" points="525.7668,-42.0001 535.7668,-38.5 525.7668,-35.0001 525.7668,-42.0001"/>
<text text-anchor="middle" x="506.5" y="-41.9" font-family="Helvetica,sans-Serif" font-size="12.00" fill="#000000">type</text>
</g>
<!-- Types -->
<g id="node2" class="node">
<title>Types</title>
<text text-anchor="start" x="2.5" y="-35.9" font-family="Helvetica,sans-Serif" font-weight="bold" font-size="12.00" fill="#000000">Types</text>
<g id="a_node2_1"><a xlink:href="../../it/TransportMeansOperatorType/#diagram" xlink:title="A data type representing the registered operator of means of transport." target="_top">
<polygon fill="#ebebeb" stroke="transparent" points="1.5,-15.5 1.5,-30.5 208.5,-30.5 208.5,-15.5 1.5,-15.5"/>
<text text-anchor="start" x="2.5" y="-19.9" font-family="Helvetica,sans-Serif" font-size="12.00" fill="#000000">it:TransportMeansOperatorType</text>
</a>
</g>
<g id="a_node2_2"><a xlink:href="../../j/DriverLicenseBaseEndorsementType/#diagram" xlink:title="A data type for an endorsement on a driver license or driver license permit which authorizes the operation of specified types of vehicles carrying specified loads." target="_top">
<text text-anchor="start" x="2.5" y="-4.9" font-family="Helvetica,sans-Serif" font-size="12.00" fill="#000000">j:DriverLicenseBaseEndorsementType</text>
</a>
</g>
<polygon fill="#000000" stroke="#000000" points=".5,-30.5 .5,-30.5 209.5,-30.5 209.5,-30.5 .5,-30.5"/>
<polygon fill="none" stroke="#000000" points="0,0 0,-47 209,-47 209,0 0,0"/>
</g>
<!-- Types&#45;&gt;j:DriverLicenseEndorsementText -->
<g id="edge1" class="edge">
<title>Types:top&#45;&gt;j:DriverLicenseEndorsementText</title>
<path fill="none" stroke="#000000" d="M208.5,-38.5C226.9189,-38.5 246.4736,-38.5 265.4831,-38.5"/>
<polygon fill="#000000" stroke="#000000" points="265.6698,-42.0001 275.6698,-38.5 265.6697,-35.0001 265.6698,-42.0001"/>
<text text-anchor="middle" x="242.5" y="-41.9" font-family="Helvetica,sans-Serif" font-size="12.00" fill="#000000">has&#45;a</text>
</g>
</g>
</svg>
