<?xml version="1.0" encoding="UTF-8" standalone="no"?>
<!DOCTYPE svg PUBLIC "-//W3C//DTD SVG 1.1//EN"
 "http://www.w3.org/Graphics/SVG/1.1/DTD/svg11.dtd">
<!-- Generated by graphviz version 2.40.1 (20161225.0304)
 -->
<!-- Title: graphic Pages: 1 -->
<svg width="534pt" height="45pt"
 viewBox="0.00 0.00 534.00 45.00" xmlns="http://www.w3.org/2000/svg" xmlns:xlink="http://www.w3.org/1999/xlink">
<g id="graph0" class="graph" transform="scale(1 1) rotate(0) translate(4 41)">
<title>graphic</title>
<polygon fill="#ffffff" stroke="transparent" points="-4,4 -4,-41 530,-41 530,4 -4,4"/>
<!-- j:EmploymentJobReferenceAbstract -->
<g id="node1" class="node">
<title>j:EmploymentJobReferenceAbstract</title>
<text text-anchor="start" x="312" y="-21.4" font-family="Helvetica,sans-Serif" font-weight="bold" font-size="12.00" fill="#000000">j:EmploymentJobReferenceAbstract</text>
<polygon fill="none" stroke="#ff0000" stroke-width="5" points="308.5,-14 308.5,-34 523.5,-34 523.5,-14 308.5,-14"/>
</g>
<!-- Types -->
<g id="node2" class="node">
<title>Types</title>
<text text-anchor="start" x="2.5" y="-21.4" font-family="Helvetica,sans-Serif" font-weight="bold" font-size="12.00" fill="#000000">Types</text>
<g id="a_node2_0"><a xlink:href="../../j/EmploymentAssociationAugmentationType/#diagram" xlink:title="A data type for additional information about an employment association." target="_top">
<polygon fill="#ebebeb" stroke="transparent" points="1.5,-1 1.5,-16 238.5,-16 238.5,-1 1.5,-1"/>
<text text-anchor="start" x="2.5" y="-5.4" font-family="Helvetica,sans-Serif" font-size="12.00" fill="#000000">j:EmploymentAssociationAugmentationType</text>
</a>
</g>
<polygon fill="#000000" stroke="#000000" points=".5,-16 .5,-16 239.5,-16 239.5,-16 .5,-16"/>
<polygon fill="none" stroke="#000000" points="0,0 0,-32 239,-32 239,0 0,0"/>
</g>
<!-- Types&#45;&gt;j:EmploymentJobReferenceAbstract -->
<g id="edge1" class="edge">
<title>Types:top&#45;&gt;j:EmploymentJobReferenceAbstract</title>
<path fill="none" stroke="#000000" d="M238.5,-24C256.9156,-24 276.4058,-24 295.4655,-24"/>
<polygon fill="#000000" stroke="#000000" points="295.6915,-27.5001 305.6915,-24 295.6915,-20.5001 295.6915,-27.5001"/>
<text text-anchor="middle" x="272.5" y="-27.4" font-family="Helvetica,sans-Serif" font-size="12.00" fill="#000000">has&#45;a</text>
</g>
</g>
</svg>
