<?xml version="1.0" encoding="UTF-8" standalone="no"?>
<!DOCTYPE svg PUBLIC "-//W3C//DTD SVG 1.1//EN"
 "http://www.w3.org/Graphics/SVG/1.1/DTD/svg11.dtd">
<!-- Generated by graphviz version 2.40.1 (20161225.0304)
 -->
<!-- Title: graphic Pages: 1 -->
<svg width="539pt" height="221pt"
 viewBox="0.00 0.00 539.00 220.50" xmlns="http://www.w3.org/2000/svg" xmlns:xlink="http://www.w3.org/1999/xlink">
<g id="graph0" class="graph" transform="scale(1 1) rotate(0) translate(4 216.5)">
<title>graphic</title>
<polygon fill="#ffffff" stroke="transparent" points="-4,4 -4,-216.5 535,-216.5 535,4 -4,4"/>
<!-- biom:CodecDetailsType -->
<g id="node1" class="node">
<title>biom:CodecDetailsType</title>
<text text-anchor="start" x="170.5" y="-145.4" font-family="Helvetica,sans-Serif" font-weight="bold" font-size="12.00" fill="#000000">biom:CodecDetailsType</text>
<g id="a_node1_0"><a xlink:href="../../biom/CodecCategoryCode/#diagram" xlink:title="A CODEC used to encode a digital data stream or signal." target="_top">
<polygon fill="#ebebeb" stroke="transparent" points="169.5,-125 169.5,-140 526.5,-140 526.5,-125 169.5,-125"/>
<text text-anchor="start" x="170.5" y="-129.4" font-family="Helvetica,sans-Serif" font-size="12.00" fill="#000000">biom:CodecCategoryCode: biom:CodecCategoryCodeType [0&#45;n]</text>
</a>
</g>
<g id="a_node1_1"><a xlink:href="../../biom/SamplingRate/#diagram" xlink:title="A ratio of digital samples per second of analog data upon conversion to an acoustic signal" target="_top">
<text text-anchor="start" x="170.5" y="-114.4" font-family="Helvetica,sans-Serif" font-size="12.00" fill="#000000">biom:SamplingRate: niem&#45;xs:nonNegativeInteger [0&#45;n]</text>
</a>
</g>
<g id="a_node1_2"><a xlink:href="../../biom/RecordingBitDepthValue/#diagram" xlink:title="A total number of bits that are used to represent a single sample of digital media." target="_top">
<polygon fill="#ebebeb" stroke="transparent" points="169.5,-95 169.5,-110 526.5,-110 526.5,-95 169.5,-95"/>
<text text-anchor="start" x="170.5" y="-99.4" font-family="Helvetica,sans-Serif" font-size="12.00" fill="#000000">biom:RecordingBitDepthValue: biom:Integer0To1024Type [0&#45;n]</text>
</a>
</g>
<g id="a_node1_3"><a xlink:href="../../biom/RecordingEndianCode/#diagram" xlink:title="An ordering of individually addressable sub&#45;components (bytes) within the representation of a recording." target="_top">
<text text-anchor="start" x="170.5" y="-84.4" font-family="Helvetica,sans-Serif" font-size="12.00" fill="#000000">biom:RecordingEndianCode: biom:EndianCodeType [0&#45;n]</text>
</a>
</g>
<g id="a_node1_4"><a xlink:href="../../biom/NumericFormatText/#diagram" xlink:title="A kind of numeric format that contains Integer and floating point representations" target="_top">
<polygon fill="#ebebeb" stroke="transparent" points="169.5,-65 169.5,-80 526.5,-80 526.5,-65 169.5,-65"/>
<text text-anchor="start" x="170.5" y="-69.4" font-family="Helvetica,sans-Serif" font-size="12.00" fill="#000000">biom:NumericFormatText: nc:TextType [0&#45;n]</text>
</a>
</g>
<g id="a_node1_5"><a xlink:href="../../biom/RecordingChannelsQuantity/#diagram" xlink:title="A count of the channels of data represented in a digital media data file." target="_top">
<text text-anchor="start" x="170.5" y="-54.4" font-family="Helvetica,sans-Serif" font-size="12.00" fill="#000000">biom:RecordingChannelsQuantity: biom:Integer1To9999Type [0&#45;n]</text>
</a>
</g>
<g id="a_node1_6"><a xlink:href="../../biom/CodecExternalReferenceCodeText/#diagram" xlink:title="A kind of code that contains the &#39;reference code&#39; from the table of codecs available at http://www.nist.gov/itl/iad/ig/ansi_standard.cfm" target="_top">
<polygon fill="#ebebeb" stroke="transparent" points="169.5,-35 169.5,-50 526.5,-50 526.5,-35 169.5,-35"/>
<text text-anchor="start" x="170.5" y="-39.4" font-family="Helvetica,sans-Serif" font-size="12.00" fill="#000000">biom:CodecExternalReferenceCodeText: nc:TextType [0&#45;n]</text>
</a>
</g>
<g id="a_node1_7"><a xlink:href="../../biom/CodecCommentText/#diagram" xlink:title="A comment to contain additional information about the codec or additional instructions for reconstruction of the original digital media data file." target="_top">
<text text-anchor="start" x="170.5" y="-24.4" font-family="Helvetica,sans-Serif" font-size="12.00" fill="#000000">biom:CodecCommentText: nc:TextType [0&#45;n]</text>
</a>
</g>
<g id="a_node1_8"><a xlink:href="../../biom/CodecDetailsAugmentationPoint/#diagram" xlink:title="An augmentation point for CodecDetailsType." target="_top">
<polygon fill="#ebebeb" stroke="transparent" points="169.5,-5 169.5,-20 526.5,-20 526.5,-5 169.5,-5"/>
<text text-anchor="start" x="170.5" y="-9.4" font-family="Helvetica,sans-Serif" font-size="12.00" fill="#000000">biom:CodecDetailsAugmentationPoint [0&#45;n]</text>
</a>
</g>
<polygon fill="#ff0000" stroke="#ff0000" points="164.5,-140 164.5,-140 531.5,-140 531.5,-140 164.5,-140"/>
<polygon fill="none" stroke="#ff0000" stroke-width="5" points="166.5,-2.5 166.5,-157.5 528.5,-157.5 528.5,-2.5 166.5,-2.5"/>
</g>
<!-- Properties -->
<g id="node2" class="node">
<title>Properties</title>
<text text-anchor="start" x="2.5" y="-145.4" font-family="Helvetica,sans-Serif" font-weight="bold" font-size="12.00" fill="#000000">Properties</text>
<g id="a_node2_9"><a xlink:href="../../biom/CodecDetails/#diagram" xlink:title="A container for descriptive information about the encoding of a digital media data file." target="_top">
<polygon fill="#ebebeb" stroke="transparent" points="1.5,-125 1.5,-140 104.5,-140 104.5,-125 1.5,-125"/>
<text text-anchor="start" x="2.5" y="-129.4" font-family="Helvetica,sans-Serif" font-size="12.00" fill="#000000">biom:CodecDetails</text>
</a>
</g>
<polygon fill="#000000" stroke="#000000" points=".5,-140 .5,-140 105.5,-140 105.5,-140 .5,-140"/>
<polygon fill="none" stroke="#000000" points="0,-124 0,-156 105,-156 105,-124 0,-124"/>
</g>
<!-- Properties&#45;&gt;biom:CodecDetailsType -->
<g id="edge1" class="edge">
<title>Properties:top&#45;&gt;biom:CodecDetailsType:top</title>
<path fill="none" stroke="#000000" d="M104.5,-148C129.6649,-148 138.3891,-148 159.3154,-148"/>
<polygon fill="#000000" stroke="#000000" points="159.5,-151.5001 169.5,-148 159.5,-144.5001 159.5,-151.5001"/>
<text text-anchor="middle" x="134.5" y="-151.4" font-family="Helvetica,sans-Serif" font-size="12.00" fill="#000000">type</text>
</g>
<!-- structures:ObjectType -->
<g id="node3" class="node">
<title>structures:ObjectType</title>
<g id="a_node3_10"><a xlink:href="../../structures/ObjectType/#diagram" xlink:title="A data type for a thing with its own lifespan that has some existence." target="_top">
<text text-anchor="start" x="288.5" y="-200.4" font-family="Helvetica,sans-Serif" font-size="12.00" fill="#000000">structures:ObjectType</text>
</a>
</g>
<polygon fill="none" stroke="#000000" points="286.5,-195.5 286.5,-212.5 408.5,-212.5 408.5,-195.5 286.5,-195.5"/>
</g>
<!-- structures:ObjectType&#45;&gt;biom:CodecDetailsType -->
<g id="edge2" class="edge">
<title>structures:ObjectType&#45;&gt;biom:CodecDetailsType</title>
<path fill="none" stroke="#000000" d="M347.5,-195.225C347.5,-189.2024 347.5,-180.5203 347.5,-170.5842"/>
<polygon fill="#000000" stroke="#000000" points="351.0001,-170.2822 347.5,-160.2822 344.0001,-170.2823 351.0001,-170.2822"/>
<text text-anchor="middle" x="338" y="-174.65" font-family="Helvetica,sans-Serif" font-size="12.00" fill="#000000">extension</text>
</g>
</g>
</svg>
