<?xml version="1.0" encoding="UTF-8" standalone="no"?>
<!DOCTYPE svg PUBLIC "-//W3C//DTD SVG 1.1//EN"
 "http://www.w3.org/Graphics/SVG/1.1/DTD/svg11.dtd">
<!-- Generated by graphviz version 2.40.1 (20161225.0304)
 -->
<!-- Title: graphic Pages: 1 -->
<svg width="529pt" height="45pt"
 viewBox="0.00 0.00 529.00 45.00" xmlns="http://www.w3.org/2000/svg" xmlns:xlink="http://www.w3.org/1999/xlink">
<g id="graph0" class="graph" transform="scale(1 1) rotate(0) translate(4 41)">
<title>graphic</title>
<polygon fill="#ffffff" stroke="transparent" points="-4,4 -4,-41 525,-41 525,4 -4,4"/>
<!-- cbrn:DataFileEncryptedIndicator -->
<g id="node1" class="node">
<title>cbrn:DataFileEncryptedIndicator</title>
<text text-anchor="start" x="176.5" y="-21.4" font-family="Helvetica,sans-Serif" font-weight="bold" font-size="12.00" fill="#000000">cbrn:DataFileEncryptedIndicator</text>
<polygon fill="none" stroke="#ff0000" stroke-width="5" points="172.5,-14 172.5,-34 366.5,-34 366.5,-14 172.5,-14"/>
</g>
<!-- niem&#45;xs:boolean -->
<g id="node3" class="node">
<title>niem&#45;xs:boolean</title>
<g id="a_node3_0"><a xlink:href="../../niem-xs/boolean/#diagram" xlink:title="A data type for binary&#45;valued logic (true/false)." target="_top">
<text text-anchor="start" x="430.5" y="-20.4" font-family="Helvetica,sans-Serif" font-size="12.00" fill="#000000">niem&#45;xs:boolean</text>
</a>
</g>
<polygon fill="none" stroke="#000000" points="428,-15.5 428,-32.5 521,-32.5 521,-15.5 428,-15.5"/>
</g>
<!-- cbrn:DataFileEncryptedIndicator&#45;&gt;niem&#45;xs:boolean -->
<g id="edge2" class="edge">
<title>cbrn:DataFileEncryptedIndicator&#45;&gt;niem&#45;xs:boolean</title>
<path fill="none" stroke="#000000" d="M369.2976,-24C385.9271,-24 402.6514,-24 417.7181,-24"/>
<polygon fill="#000000" stroke="#000000" points="417.8627,-27.5001 427.8626,-24 417.8626,-20.5001 417.8627,-27.5001"/>
<text text-anchor="middle" x="398.5" y="-27.4" font-family="Helvetica,sans-Serif" font-size="12.00" fill="#000000">type</text>
</g>
<!-- Types -->
<g id="node2" class="node">
<title>Types</title>
<text text-anchor="start" x="2.5" y="-21.4" font-family="Helvetica,sans-Serif" font-weight="bold" font-size="12.00" fill="#000000">Types</text>
<g id="a_node2_1"><a xlink:href="../../cbrn/DataFileType/#diagram" xlink:title="A data type that defines a data file and its properties." target="_top">
<polygon fill="#ebebeb" stroke="transparent" points="1.5,-1 1.5,-16 102.5,-16 102.5,-1 1.5,-1"/>
<text text-anchor="start" x="2.5" y="-5.4" font-family="Helvetica,sans-Serif" font-size="12.00" fill="#000000">cbrn:DataFileType</text>
</a>
</g>
<polygon fill="#000000" stroke="#000000" points=".5,-16 .5,-16 103.5,-16 103.5,-16 .5,-16"/>
<polygon fill="none" stroke="#000000" points="0,0 0,-32 103,-32 103,0 0,0"/>
</g>
<!-- Types&#45;&gt;cbrn:DataFileEncryptedIndicator -->
<g id="edge1" class="edge">
<title>Types:top&#45;&gt;cbrn:DataFileEncryptedIndicator</title>
<path fill="none" stroke="#000000" d="M102.5,-24C120.9321,-24 140.5086,-24 159.5243,-24"/>
<polygon fill="#000000" stroke="#000000" points="159.7128,-27.5001 169.7127,-24 159.7127,-20.5001 159.7128,-27.5001"/>
<text text-anchor="middle" x="136.5" y="-27.4" font-family="Helvetica,sans-Serif" font-size="12.00" fill="#000000">has&#45;a</text>
</g>
</g>
</svg>
