<?xml version="1.0" encoding="UTF-8" standalone="no"?>
<!DOCTYPE svg PUBLIC "-//W3C//DTD SVG 1.1//EN"
 "http://www.w3.org/Graphics/SVG/1.1/DTD/svg11.dtd">
<!-- Generated by graphviz version 2.40.1 (20161225.0304)
 -->
<!-- Title: graphic Pages: 1 -->
<svg width="1004pt" height="240pt"
 viewBox="0.00 0.00 1004.00 239.50" xmlns="http://www.w3.org/2000/svg" xmlns:xlink="http://www.w3.org/1999/xlink">
<g id="graph0" class="graph" transform="scale(1 1) rotate(0) translate(4 235.5)">
<title>graphic</title>
<polygon fill="#ffffff" stroke="transparent" points="-4,4 -4,-235.5 1000,-235.5 1000,4 -4,4"/>
<!-- j:CrashDriverType -->
<g id="node1" class="node">
<title>j:CrashDriverType</title>
<text text-anchor="start" x="140" y="-164.4" font-family="Helvetica,sans-Serif" font-weight="bold" font-size="12.00" fill="#000000">j:CrashDriverType</text>
<g id="a_node1_0"><a xlink:href="../../nc/RoleOfPerson/#diagram" xlink:title="A person of whom the role object is a function." target="_top">
<polygon fill="#ebebeb" stroke="transparent" points="139,-144 139,-159 427,-159 427,-144 139,-144"/>
<text text-anchor="start" x="140" y="-148.4" font-family="Helvetica,sans-Serif" font-size="12.00" fill="#000000">nc:RoleOfPerson: nc:PersonType [0&#45;n]</text>
</a>
</g>
<g id="a_node1_1"><a xlink:href="../../j/DriverLicense/#diagram" xlink:title="A license issued to a person granting driving privileges." target="_top">
<text text-anchor="start" x="140" y="-133.4" font-family="Helvetica,sans-Serif" font-size="12.00" fill="#000000">j:DriverLicense: j:DriverLicenseType [0&#45;n]</text>
</a>
</g>
<g id="a_node1_2"><a xlink:href="../../j/CrashDriverContributingCircumstancesAbstract/#diagram" xlink:title="A data concept for an action by the driver that may have contributed to the crash." target="_top">
<polygon fill="#ebebeb" stroke="transparent" points="139,-114 139,-129 427,-129 427,-114 139,-114"/>
<text text-anchor="start" x="140" y="-118.4" font-family="Helvetica,sans-Serif" font-size="12.00" fill="#000000">j:CrashDriverContributingCircumstancesAbstract [0&#45;n]</text>
</a>
</g>
<g id="a_node1_3"><a xlink:href="../../j/CrashDriverDistractionAbstract/#diagram" xlink:title="A data concept for a distraction which may have influenced the driver performance." target="_top">
<text text-anchor="start" x="140" y="-103.4" font-family="Helvetica,sans-Serif" font-size="12.00" fill="#000000">j:CrashDriverDistractionAbstract [0&#45;n]</text>
</a>
</g>
<g id="a_node1_4"><a xlink:href="../../j/CrashDriverViolationAbstract/#diagram" xlink:title="A data concept for a vehicle&#45;related violation, which applies to a driver involved in a crash." target="_top">
<polygon fill="#ebebeb" stroke="transparent" points="139,-84 139,-99 427,-99 427,-84 139,-84"/>
<text text-anchor="start" x="140" y="-88.4" font-family="Helvetica,sans-Serif" font-size="12.00" fill="#000000">j:CrashDriverViolationAbstract [0&#45;n]</text>
</a>
</g>
<g id="a_node1_5"><a xlink:href="../../j/CrashDrivingViolationAbstract/#diagram" xlink:title="A data concept for an offense a driver was convicted of in relation to a driving incident." target="_top">
<text text-anchor="start" x="140" y="-73.4" font-family="Helvetica,sans-Serif" font-size="12.00" fill="#000000">j:CrashDrivingViolationAbstract [0&#45;n]</text>
</a>
</g>
<g id="a_node1_6"><a xlink:href="../../j/CrashDriverAugmentationPoint/#diagram" xlink:title="An augmentation point for CrashDriverType." target="_top">
<polygon fill="#ebebeb" stroke="transparent" points="139,-54 139,-69 427,-69 427,-54 139,-54"/>
<text text-anchor="start" x="140" y="-58.4" font-family="Helvetica,sans-Serif" font-size="12.00" fill="#000000">j:CrashDriverAugmentationPoint [0&#45;n]</text>
</a>
</g>
<polygon fill="#ff0000" stroke="#ff0000" points="134,-159 134,-159 432,-159 432,-159 134,-159"/>
<polygon fill="none" stroke="#ff0000" stroke-width="5" points="136.5,-51.5 136.5,-176.5 429.5,-176.5 429.5,-51.5 136.5,-51.5"/>
</g>
<!-- subst_d9e24984 -->
<g id="node2" class="node">
<title>subst_d9e24984</title>
<g id="a_node2_7"><a xlink:href="../../j/CrashDriverContributingCircumstancesAbstract/#diagram" xlink:title="&lt;TABLE&gt;" target="_top">
<text text-anchor="start" x="471.5" y="-171.4" font-family="Helvetica,sans-Serif" font-weight="bold" font-size="12.00" fill="#000000">Substitution group j:CrashDriverContributingCircumstancesAbstract</text>
</a>
</g>
<g id="a_node2_8"><a xlink:href="../../j/CrashDriverContributingCircumstancesCode/#diagram" xlink:title="An action by the driver that may have contributed to the crash." target="_top">
<polygon fill="#ebebeb" stroke="transparent" points="470.5,-151 470.5,-166 995.5,-166 995.5,-151 470.5,-151"/>
<text text-anchor="start" x="471.5" y="-155.4" font-family="Helvetica,sans-Serif" font-size="12.00" fill="#000000">j:CrashDriverContributingCircumstancesCode: mmucc:DriverContributingCircumstancesCodeType</text>
</a>
</g>
<polygon fill="#000000" stroke="#000000" points="469.5,-166 469.5,-166 996.5,-166 996.5,-166 469.5,-166"/>
<polygon fill="none" stroke="#000000" points="469,-150 469,-182 996,-182 996,-150 469,-150"/>
</g>
<!-- j:CrashDriverType&#45;&gt;subst_d9e24984 -->
<g id="edge1" class="edge">
<title>j:CrashDriverType:e&#45;&gt;subst_d9e24984:w</title>
<path fill="none" stroke="#000000" d="M436.7437,-124.5081C453.506,-134.8953 444.3704,-174 470.5,-174"/>
<polygon fill="#000000" stroke="#000000" points="437.5568,-121.1034 427,-122 435.8118,-127.8824 437.5568,-121.1034"/>
</g>
<!-- subst_d9e25000 -->
<g id="node3" class="node">
<title>subst_d9e25000</title>
<g id="a_node3_9"><a xlink:href="../../j/CrashDriverDistractionAbstract/#diagram" xlink:title="&lt;TABLE&gt;" target="_top">
<text text-anchor="start" x="558.5" y="-121.4" font-family="Helvetica,sans-Serif" font-weight="bold" font-size="12.00" fill="#000000">Substitution group j:CrashDriverDistractionAbstract</text>
</a>
</g>
<g id="a_node3_10"><a xlink:href="../../j/CrashDriverDistractionCode/#diagram" xlink:title="A distraction which may have influenced the driver performance." target="_top">
<polygon fill="#ebebeb" stroke="transparent" points="557.5,-101 557.5,-116 908.5,-116 908.5,-101 557.5,-101"/>
<text text-anchor="start" x="558.5" y="-105.4" font-family="Helvetica,sans-Serif" font-size="12.00" fill="#000000">j:CrashDriverDistractionCode: mmucc:DriverDistractionCodeType</text>
</a>
</g>
<polygon fill="#000000" stroke="#000000" points="556.5,-116 556.5,-116 909.5,-116 909.5,-116 556.5,-116"/>
<polygon fill="none" stroke="#000000" points="556,-100 556,-132 909,-132 909,-100 556,-100"/>
</g>
<!-- j:CrashDriverType&#45;&gt;subst_d9e25000 -->
<g id="edge2" class="edge">
<title>j:CrashDriverType:e&#45;&gt;subst_d9e25000:w</title>
<path fill="none" stroke="#000000" d="M437.1584,-106.19C487.3375,-108.1137 502.4958,-124 557.5,-124"/>
<polygon fill="#000000" stroke="#000000" points="437.0637,-102.6877 427,-106 436.9328,-109.6865 437.0637,-102.6877"/>
</g>
<!-- subst_d9e25074 -->
<g id="node4" class="node">
<title>subst_d9e25074</title>
<g id="a_node4_11"><a xlink:href="../../j/CrashDriverViolationAbstract/#diagram" xlink:title="&lt;TABLE&gt;" target="_top">
<text text-anchor="start" x="556.5" y="-71.4" font-family="Helvetica,sans-Serif" font-weight="bold" font-size="12.00" fill="#000000">Substitution group j:CrashDriverViolationAbstract</text>
</a>
</g>
<g id="a_node4_12"><a xlink:href="../../j/CrashDriverViolationCode/#diagram" xlink:title="A vehicle&#45;related violation, which applies to a driver involved in a crash." target="_top">
<polygon fill="#ebebeb" stroke="transparent" points="555.5,-51 555.5,-66 910.5,-66 910.5,-51 555.5,-51"/>
<text text-anchor="start" x="556.5" y="-55.4" font-family="Helvetica,sans-Serif" font-size="12.00" fill="#000000">j:CrashDriverViolationCode: aamva_d20:DrivingOffenseCodeType</text>
</a>
</g>
<polygon fill="#000000" stroke="#000000" points="554.5,-66 554.5,-66 911.5,-66 911.5,-66 554.5,-66"/>
<polygon fill="none" stroke="#000000" points="554,-50 554,-82 911,-82 911,-50 554,-50"/>
</g>
<!-- j:CrashDriverType&#45;&gt;subst_d9e25074 -->
<g id="edge3" class="edge">
<title>j:CrashDriverType:e&#45;&gt;subst_d9e25074:w</title>
<path fill="none" stroke="#000000" d="M437.3038,-90.8091C486.4422,-88.9414 501.4918,-74 555.5,-74"/>
<polygon fill="#000000" stroke="#000000" points="436.9334,-87.3152 427,-91 437.0632,-94.314 436.9334,-87.3152"/>
</g>
<!-- subst_d9e25098 -->
<g id="node5" class="node">
<title>subst_d9e25098</title>
<g id="a_node5_13"><a xlink:href="../../j/CrashDrivingViolationAbstract/#diagram" xlink:title="&lt;TABLE&gt;" target="_top">
<text text-anchor="start" x="553.5" y="-21.4" font-family="Helvetica,sans-Serif" font-weight="bold" font-size="12.00" fill="#000000">Substitution group j:CrashDrivingViolationAbstract</text>
</a>
</g>
<g id="a_node5_14"><a xlink:href="../../j/CrashDrivingViolationCode/#diagram" xlink:title="An offense a driver was convicted of in relation to a driving incident." target="_top">
<polygon fill="#ebebeb" stroke="transparent" points="552.5,-1 552.5,-16 912.5,-16 912.5,-1 552.5,-1"/>
<text text-anchor="start" x="553.5" y="-5.4" font-family="Helvetica,sans-Serif" font-size="12.00" fill="#000000">j:CrashDrivingViolationCode: aamva_d20:DrivingOffenseCodeType</text>
</a>
</g>
<polygon fill="#000000" stroke="#000000" points="551.5,-16 551.5,-16 913.5,-16 913.5,-16 551.5,-16"/>
<polygon fill="none" stroke="#000000" points="551.5,0 551.5,-32 913.5,-32 913.5,0 551.5,0"/>
</g>
<!-- j:CrashDriverType&#45;&gt;subst_d9e25098 -->
<g id="edge4" class="edge">
<title>j:CrashDriverType:e&#45;&gt;subst_d9e25098:w</title>
<path fill="none" stroke="#000000" d="M436.8992,-74.1931C450.6226,-68.3435 450.6906,-49.7947 469,-41 503.1384,-24.6021 514.6276,-24 552.5,-24"/>
<polygon fill="#000000" stroke="#000000" points="436.2089,-70.7611 427,-76 437.466,-77.6474 436.2089,-70.7611"/>
</g>
<!-- Properties -->
<g id="node6" class="node">
<title>Properties</title>
<text text-anchor="start" x="2.5" y="-164.4" font-family="Helvetica,sans-Serif" font-weight="bold" font-size="12.00" fill="#000000">Properties</text>
<g id="a_node6_15"><a xlink:href="../../j/CrashDriver/#diagram" xlink:title="A motor vehicle driver involved into a traffic accident." target="_top">
<polygon fill="#ebebeb" stroke="transparent" points="1.5,-144 1.5,-159 74.5,-159 74.5,-144 1.5,-144"/>
<text text-anchor="start" x="2.5" y="-148.4" font-family="Helvetica,sans-Serif" font-size="12.00" fill="#000000">j:CrashDriver</text>
</a>
</g>
<polygon fill="#000000" stroke="#000000" points=".5,-159 .5,-159 75.5,-159 75.5,-159 .5,-159"/>
<polygon fill="none" stroke="#000000" points="0,-143 0,-175 75,-175 75,-143 0,-143"/>
</g>
<!-- Properties&#45;&gt;j:CrashDriverType -->
<g id="edge5" class="edge">
<title>Properties:top&#45;&gt;j:CrashDriverType:top</title>
<path fill="none" stroke="#000000" d="M74.5,-167C99.4714,-167 108.1284,-167 128.8937,-167"/>
<polygon fill="#000000" stroke="#000000" points="129,-170.5001 139,-167 129,-163.5001 129,-170.5001"/>
<text text-anchor="middle" x="104.5" y="-170.4" font-family="Helvetica,sans-Serif" font-size="12.00" fill="#000000">type</text>
</g>
<!-- structures:ObjectType -->
<g id="node7" class="node">
<title>structures:ObjectType</title>
<g id="a_node7_16"><a xlink:href="../../structures/ObjectType/#diagram" xlink:title="A data type for a thing with its own lifespan that has some existence." target="_top">
<text text-anchor="start" x="224" y="-219.4" font-family="Helvetica,sans-Serif" font-size="12.00" fill="#000000">structures:ObjectType</text>
</a>
</g>
<polygon fill="none" stroke="#000000" points="222,-214.5 222,-231.5 344,-231.5 344,-214.5 222,-214.5"/>
</g>
<!-- structures:ObjectType&#45;&gt;j:CrashDriverType -->
<g id="edge6" class="edge">
<title>structures:ObjectType&#45;&gt;j:CrashDriverType</title>
<path fill="none" stroke="#000000" d="M283,-214.3644C283,-208.2696 283,-199.4448 283,-189.522"/>
<polygon fill="#000000" stroke="#000000" points="286.5001,-189.2935 283,-179.2936 279.5001,-189.2936 286.5001,-189.2935"/>
<text text-anchor="middle" x="273.5" y="-193.65" font-family="Helvetica,sans-Serif" font-size="12.00" fill="#000000">extension</text>
</g>
</g>
</svg>
