<?xml version="1.0" encoding="UTF-8" standalone="no"?>
<!DOCTYPE svg PUBLIC "-//W3C//DTD SVG 1.1//EN"
 "http://www.w3.org/Graphics/SVG/1.1/DTD/svg11.dtd">
<!-- Generated by graphviz version 2.40.1 (20161225.0304)
 -->
<!-- Title: graphic Pages: 1 -->
<svg width="437pt" height="146pt"
 viewBox="0.00 0.00 437.00 146.00" xmlns="http://www.w3.org/2000/svg" xmlns:xlink="http://www.w3.org/1999/xlink">
<g id="graph0" class="graph" transform="scale(1 1) rotate(0) translate(4 142)">
<title>graphic</title>
<polygon fill="#ffffff" stroke="transparent" points="-4,4 -4,-142 433,-142 433,4 -4,4"/>
<!-- it:ConsigneeType -->
<g id="node1" class="node">
<title>it:ConsigneeType</title>
<text text-anchor="start" x="136.5" y="-69.9" font-family="Helvetica,sans-Serif" font-weight="bold" font-size="12.00" fill="#000000">it:ConsigneeType</text>
<g id="a_node1_0"><a xlink:href="../../it/ConsigneeIdentification/#diagram" xlink:title="A unique identification of Consignee" target="_top">
<polygon fill="#ebebeb" stroke="transparent" points="135.5,-49.5 135.5,-64.5 424.5,-64.5 424.5,-49.5 135.5,-49.5"/>
<text text-anchor="start" x="136.5" y="-53.9" font-family="Helvetica,sans-Serif" font-size="12.00" fill="#000000">it:ConsigneeIdentification: nc:IdentificationType [0&#45;n]</text>
</a>
</g>
<g id="a_node1_1"><a xlink:href="../../it/ConsigneeIDCategory/#diagram" xlink:title="An Identifier Category to identify a party to which goods are consigned." target="_top">
<text text-anchor="start" x="136.5" y="-38.9" font-family="Helvetica,sans-Serif" font-size="12.00" fill="#000000">it:ConsigneeIDCategory: it:PartyIDCategoryType [0&#45;n]</text>
</a>
</g>
<g id="a_node1_2"><a xlink:href="../../it/RoleOfParty/#diagram" xlink:title="A role of the Organization, Person or Thing associated with processing a Cargo entry." target="_top">
<polygon fill="#ebebeb" stroke="transparent" points="135.5,-19.5 135.5,-34.5 424.5,-34.5 424.5,-19.5 135.5,-19.5"/>
<text text-anchor="start" x="136.5" y="-23.9" font-family="Helvetica,sans-Serif" font-size="12.00" fill="#000000">it:RoleOfParty: it:PartyType [0&#45;n]</text>
</a>
</g>
<g id="a_node1_3"><a xlink:href="../../it/ConsigneeAugmentationPoint/#diagram" xlink:title="An augmentation point for ConsigneeType." target="_top">
<text text-anchor="start" x="136.5" y="-8.9" font-family="Helvetica,sans-Serif" font-size="12.00" fill="#000000">it:ConsigneeAugmentationPoint [0&#45;n]</text>
</a>
</g>
<polygon fill="#ff0000" stroke="#ff0000" points="130.5,-64.5 130.5,-64.5 429.5,-64.5 429.5,-64.5 130.5,-64.5"/>
<polygon fill="none" stroke="#ff0000" stroke-width="5" points="132.5,-2.5 132.5,-82.5 426.5,-82.5 426.5,-2.5 132.5,-2.5"/>
</g>
<!-- Properties -->
<g id="node2" class="node">
<title>Properties</title>
<text text-anchor="start" x="2.5" y="-69.9" font-family="Helvetica,sans-Serif" font-weight="bold" font-size="12.00" fill="#000000">Properties</text>
<g id="a_node2_4"><a xlink:href="../../it/Consignee/#diagram" xlink:title="A party to which goods are consigned." target="_top">
<polygon fill="#ebebeb" stroke="transparent" points="1.5,-49.5 1.5,-64.5 70.5,-64.5 70.5,-49.5 1.5,-49.5"/>
<text text-anchor="start" x="2.5" y="-53.9" font-family="Helvetica,sans-Serif" font-size="12.00" fill="#000000">it:Consignee</text>
</a>
</g>
<polygon fill="#000000" stroke="#000000" points=".5,-64.5 .5,-64.5 71.5,-64.5 71.5,-64.5 .5,-64.5"/>
<polygon fill="none" stroke="#000000" points="0,-48.5 0,-80.5 71,-80.5 71,-48.5 0,-48.5"/>
</g>
<!-- Properties&#45;&gt;it:ConsigneeType -->
<g id="edge1" class="edge">
<title>Properties:top&#45;&gt;it:ConsigneeType:top</title>
<path fill="none" stroke="#000000" d="M70.5,-72.5C95.6649,-72.5 104.3891,-72.5 125.3154,-72.5"/>
<polygon fill="#000000" stroke="#000000" points="125.5,-76.0001 135.5,-72.5 125.5,-69.0001 125.5,-76.0001"/>
<text text-anchor="middle" x="100.5" y="-75.9" font-family="Helvetica,sans-Serif" font-size="12.00" fill="#000000">type</text>
</g>
<!-- structures:ObjectType -->
<g id="node3" class="node">
<title>structures:ObjectType</title>
<g id="a_node3_5"><a xlink:href="../../structures/ObjectType/#diagram" xlink:title="A data type for a thing with its own lifespan that has some existence." target="_top">
<text text-anchor="start" x="220.5" y="-125.9" font-family="Helvetica,sans-Serif" font-size="12.00" fill="#000000">structures:ObjectType</text>
</a>
</g>
<polygon fill="none" stroke="#000000" points="218.5,-121 218.5,-138 340.5,-138 340.5,-121 218.5,-121"/>
</g>
<!-- structures:ObjectType&#45;&gt;it:ConsigneeType -->
<g id="edge2" class="edge">
<title>structures:ObjectType&#45;&gt;it:ConsigneeType</title>
<path fill="none" stroke="#000000" d="M279.5,-120.9761C279.5,-114.614 279.5,-105.3292 279.5,-95.3557"/>
<polygon fill="#000000" stroke="#000000" points="283.0001,-95.2354 279.5,-85.2354 276.0001,-95.2354 283.0001,-95.2354"/>
<text text-anchor="middle" x="270" y="-99.9" font-family="Helvetica,sans-Serif" font-size="12.00" fill="#000000">extension</text>
</g>
</g>
</svg>
