<?xml version="1.0" encoding="UTF-8" standalone="no"?>
<!DOCTYPE svg PUBLIC "-//W3C//DTD SVG 1.1//EN"
 "http://www.w3.org/Graphics/SVG/1.1/DTD/svg11.dtd">
<!-- Generated by graphviz version 2.40.1 (20161225.0304)
 -->
<!-- Title: graphic Pages: 1 -->
<svg width="668pt" height="135pt"
 viewBox="0.00 0.00 668.00 135.00" xmlns="http://www.w3.org/2000/svg" xmlns:xlink="http://www.w3.org/1999/xlink">
<g id="graph0" class="graph" transform="scale(1 1) rotate(0) translate(4 131)">
<title>graphic</title>
<polygon fill="#ffffff" stroke="transparent" points="-4,4 -4,-131 664,-131 664,4 -4,4"/>
<!-- biom:BiometricCapture -->
<g id="node1" class="node">
<title>biom:BiometricCapture</title>
<text text-anchor="start" x="308" y="-111.4" font-family="Helvetica,sans-Serif" font-weight="bold" font-size="12.00" fill="#000000">biom:BiometricCapture</text>
<polygon fill="none" stroke="#ff0000" stroke-width="5" points="304.5,-104 304.5,-124 445.5,-124 445.5,-104 304.5,-104"/>
</g>
<!-- biom:BiometricCaptureType -->
<g id="node3" class="node">
<title>biom:BiometricCaptureType</title>
<g id="a_node3_0"><a xlink:href="../../biom/BiometricCaptureType/#diagram" xlink:title="A data type for a set of information regarding the captured biometric information" target="_top">
<text text-anchor="start" x="509.5" y="-110.4" font-family="Helvetica,sans-Serif" font-size="12.00" fill="#000000">biom:BiometricCaptureType</text>
</a>
</g>
<polygon fill="none" stroke="#000000" points="507,-105.5 507,-122.5 660,-122.5 660,-105.5 507,-105.5"/>
</g>
<!-- biom:BiometricCapture&#45;&gt;biom:BiometricCaptureType -->
<g id="edge2" class="edge">
<title>biom:BiometricCapture&#45;&gt;biom:BiometricCaptureType</title>
<path fill="none" stroke="#000000" d="M448.2161,-114C463.8093,-114 480.4217,-114 496.4737,-114"/>
<polygon fill="#000000" stroke="#000000" points="496.925,-117.5001 506.925,-114 496.9249,-110.5001 496.925,-117.5001"/>
<text text-anchor="middle" x="477.5" y="-117.4" font-family="Helvetica,sans-Serif" font-size="12.00" fill="#000000">type</text>
</g>
<!-- Types -->
<g id="node2" class="node">
<title>Types</title>
<text text-anchor="start" x="2.5" y="-111.4" font-family="Helvetica,sans-Serif" font-weight="bold" font-size="12.00" fill="#000000">Types</text>
<g id="a_node2_1"><a xlink:href="../../biom/BiometricDataType/#diagram" xlink:title="A data type for a representation of the identifying Biometric in." target="_top">
<polygon fill="#ebebeb" stroke="transparent" points="1.5,-91 1.5,-106 234.5,-106 234.5,-91 1.5,-91"/>
<text text-anchor="start" x="2.5" y="-95.4" font-family="Helvetica,sans-Serif" font-size="12.00" fill="#000000">biom:BiometricDataType</text>
</a>
</g>
<g id="a_node2_2"><a xlink:href="../../biom/ContextMediaDetailType/#diagram" xlink:title="A data type for the details of a biometric context media file" target="_top">
<text text-anchor="start" x="2.5" y="-80.4" font-family="Helvetica,sans-Serif" font-size="12.00" fill="#000000">biom:ContextMediaDetailType</text>
</a>
</g>
<g id="a_node2_3"><a xlink:href="../../biom/DNASampleType/#diagram" xlink:title="A data type for a DNA sample" target="_top">
<polygon fill="#ebebeb" stroke="transparent" points="1.5,-61 1.5,-76 234.5,-76 234.5,-61 1.5,-61"/>
<text text-anchor="start" x="2.5" y="-65.4" font-family="Helvetica,sans-Serif" font-size="12.00" fill="#000000">biom:DNASampleType</text>
</a>
</g>
<g id="a_node2_4"><a xlink:href="../../biom/ForensicDentalOralDetailType/#diagram" xlink:title="A data type for a forensic dental and oral record detail" target="_top">
<text text-anchor="start" x="2.5" y="-50.4" font-family="Helvetica,sans-Serif" font-size="12.00" fill="#000000">biom:ForensicDentalOralDetailType</text>
</a>
</g>
<g id="a_node2_5"><a xlink:href="../../biom/ForensicInvestigatoryVoiceDetailType/#diagram" xlink:title="A data type for a Forensic and Investigatory Voice Detail" target="_top">
<polygon fill="#ebebeb" stroke="transparent" points="1.5,-31 1.5,-46 234.5,-46 234.5,-31 1.5,-31"/>
<text text-anchor="start" x="2.5" y="-35.4" font-family="Helvetica,sans-Serif" font-size="12.00" fill="#000000">biom:ForensicInvestigatoryVoiceDetailType</text>
</a>
</g>
<g id="a_node2_6"><a xlink:href="../../biom/NonPhotographicImageryDetailType/#diagram" xlink:title="A data type for a non&#45;photographic imagery details. This contains imagery information that is not standard 2D photography captured with a camera using visible light." target="_top">
<text text-anchor="start" x="2.5" y="-20.4" font-family="Helvetica,sans-Serif" font-size="12.00" fill="#000000">biom:NonPhotographicImageryDetailType</text>
</a>
</g>
<g id="a_node2_7"><a xlink:href="../../biom/VideoType/#diagram" xlink:title="A data type for a video representation" target="_top">
<polygon fill="#ebebeb" stroke="transparent" points="1.5,-1 1.5,-16 234.5,-16 234.5,-1 1.5,-1"/>
<text text-anchor="start" x="2.5" y="-5.4" font-family="Helvetica,sans-Serif" font-size="12.00" fill="#000000">biom:VideoType</text>
</a>
</g>
<polygon fill="#000000" stroke="#000000" points=".5,-106 .5,-106 235.5,-106 235.5,-106 .5,-106"/>
<polygon fill="none" stroke="#000000" points="0,0 0,-122 235,-122 235,0 0,0"/>
</g>
<!-- Types&#45;&gt;biom:BiometricCapture -->
<g id="edge1" class="edge">
<title>Types:top&#45;&gt;biom:BiometricCapture</title>
<path fill="none" stroke="#000000" d="M234.5,-114C253.0053,-114 272.8817,-114 291.6912,-114"/>
<polygon fill="#000000" stroke="#000000" points="291.7153,-117.5001 301.7152,-114 291.7152,-110.5001 291.7153,-117.5001"/>
<text text-anchor="middle" x="268.5" y="-117.4" font-family="Helvetica,sans-Serif" font-size="12.00" fill="#000000">has&#45;a</text>
</g>
</g>
</svg>
