<?xml version="1.0" encoding="UTF-8" standalone="no"?>
<!DOCTYPE svg PUBLIC "-//W3C//DTD SVG 1.1//EN"
 "http://www.w3.org/Graphics/SVG/1.1/DTD/svg11.dtd">
<!-- Generated by graphviz version 2.40.1 (20161225.0304)
 -->
<!-- Title: graphic Pages: 1 -->
<svg width="542pt" height="45pt"
 viewBox="0.00 0.00 542.00 45.00" xmlns="http://www.w3.org/2000/svg" xmlns:xlink="http://www.w3.org/1999/xlink">
<g id="graph0" class="graph" transform="scale(1 1) rotate(0) translate(4 41)">
<title>graphic</title>
<polygon fill="#ffffff" stroke="transparent" points="-4,4 -4,-41 538,-41 538,4 -4,4"/>
<!-- j:MotorCarrierICCIdentification -->
<g id="node1" class="node">
<title>j:MotorCarrierICCIdentification</title>
<text text-anchor="start" x="178" y="-21.4" font-family="Helvetica,sans-Serif" font-weight="bold" font-size="12.00" fill="#000000">j:MotorCarrierICCIdentification</text>
<polygon fill="none" stroke="#ff0000" stroke-width="5" points="174.5,-14 174.5,-34 357.5,-34 357.5,-14 174.5,-14"/>
</g>
<!-- nc:IdentificationType -->
<g id="node3" class="node">
<title>nc:IdentificationType</title>
<g id="a_node3_0"><a xlink:href="../../nc/IdentificationType/#diagram" xlink:title="A data type for a representation of an identity." target="_top">
<text text-anchor="start" x="421.5" y="-20.4" font-family="Helvetica,sans-Serif" font-size="12.00" fill="#000000">nc:IdentificationType</text>
</a>
</g>
<polygon fill="none" stroke="#000000" points="419,-15.5 419,-32.5 534,-32.5 534,-15.5 419,-15.5"/>
</g>
<!-- j:MotorCarrierICCIdentification&#45;&gt;nc:IdentificationType -->
<g id="edge2" class="edge">
<title>j:MotorCarrierICCIdentification&#45;&gt;nc:IdentificationType</title>
<path fill="none" stroke="#000000" d="M360.1677,-24C376.6005,-24 393.3976,-24 408.9329,-24"/>
<polygon fill="#000000" stroke="#000000" points="408.943,-27.5001 418.943,-24 408.943,-20.5001 408.943,-27.5001"/>
<text text-anchor="middle" x="389.5" y="-27.4" font-family="Helvetica,sans-Serif" font-size="12.00" fill="#000000">type</text>
</g>
<!-- Types -->
<g id="node2" class="node">
<title>Types</title>
<text text-anchor="start" x="2.5" y="-21.4" font-family="Helvetica,sans-Serif" font-weight="bold" font-size="12.00" fill="#000000">Types</text>
<g id="a_node2_1"><a xlink:href="../../j/MotorCarrierType/#diagram" xlink:title="A data type for an organization providing commercial motor vehicle transportation for compensation." target="_top">
<polygon fill="#ebebeb" stroke="transparent" points="1.5,-1 1.5,-16 104.5,-16 104.5,-1 1.5,-1"/>
<text text-anchor="start" x="2.5" y="-5.4" font-family="Helvetica,sans-Serif" font-size="12.00" fill="#000000">j:MotorCarrierType</text>
</a>
</g>
<polygon fill="#000000" stroke="#000000" points=".5,-16 .5,-16 105.5,-16 105.5,-16 .5,-16"/>
<polygon fill="none" stroke="#000000" points="0,0 0,-32 105,-32 105,0 0,0"/>
</g>
<!-- Types&#45;&gt;j:MotorCarrierICCIdentification -->
<g id="edge1" class="edge">
<title>Types:top&#45;&gt;j:MotorCarrierICCIdentification</title>
<path fill="none" stroke="#000000" d="M104.5,-24C122.9192,-24 142.5201,-24 161.4833,-24"/>
<polygon fill="#000000" stroke="#000000" points="161.6353,-27.5001 171.6353,-24 161.6353,-20.5001 161.6353,-27.5001"/>
<text text-anchor="middle" x="138.5" y="-27.4" font-family="Helvetica,sans-Serif" font-size="12.00" fill="#000000">has&#45;a</text>
</g>
</g>
</svg>
