<?xml version="1.0" encoding="UTF-8" standalone="no"?>
<!DOCTYPE svg PUBLIC "-//W3C//DTD SVG 1.1//EN"
 "http://www.w3.org/Graphics/SVG/1.1/DTD/svg11.dtd">
<!-- Generated by graphviz version 2.40.1 (20161225.0304)
 -->
<!-- Title: graphic Pages: 1 -->
<svg width="91pt" height="101pt"
 viewBox="0.00 0.00 91.00 100.50" xmlns="http://www.w3.org/2000/svg" xmlns:xlink="http://www.w3.org/1999/xlink">
<g id="graph0" class="graph" transform="scale(1 1) rotate(0) translate(4 96.5)">
<title>graphic</title>
<polygon fill="#ffffff" stroke="transparent" points="-4,4 -4,-96.5 87,-96.5 87,4 -4,4"/>
<!-- xs:short -->
<g id="node1" class="node">
<title>xs:short</title>
<text text-anchor="start" x="17.5" y="-77.4" font-family="Helvetica,sans-Serif" font-weight="bold" font-size="12.00" fill="#000000">xs:short</text>
<polygon fill="none" stroke="#ff0000" stroke-width="5" points="14,-70 14,-90 69,-90 69,-70 14,-70"/>
</g>
<!-- DerivedTypes -->
<g id="node2" class="node">
<title>DerivedTypes</title>
<text text-anchor="start" x="2.5" y="-21.4" font-family="Helvetica,sans-Serif" font-weight="bold" font-size="12.00" fill="#000000">Derived types</text>
<g id="a_node2_0"><a xlink:href="../../niem-xs/short/#diagram" xlink:title="A data type that is derived from int by setting the value of maxInclusive to be 32767 and minInclusive to be &#45;32768." target="_top">
<polygon fill="#ebebeb" stroke="transparent" points="1.5,-1 1.5,-16 82.5,-16 82.5,-1 1.5,-1"/>
<text text-anchor="start" x="2.5" y="-5.4" font-family="Helvetica,sans-Serif" font-size="12.00" fill="#000000">niem&#45;xs:short</text>
</a>
</g>
<polygon fill="#000000" stroke="#000000" points=".5,-16 .5,-16 83.5,-16 83.5,-16 .5,-16"/>
<polygon fill="none" stroke="#000000" points="0,0 0,-32 83,-32 83,0 0,0"/>
</g>
<!-- xs:short&#45;&gt;DerivedTypes -->
<g id="edge1" class="edge">
<title>xs:short&#45;&gt;DerivedTypes</title>
<path fill="none" stroke="#000000" d="M41.5,-67.4892C41.5,-60.3101 41.5,-51.0172 41.5,-42.306"/>
<polygon fill="#000000" stroke="#000000" points="45.0001,-42.1499 41.5,-32.1499 38.0001,-42.1499 45.0001,-42.1499"/>
<text text-anchor="middle" x="32" y="-46.65" font-family="Helvetica,sans-Serif" font-size="12.00" fill="#000000">derived</text>
</g>
</g>
</svg>
