<?xml version="1.0" encoding="UTF-8" standalone="no"?>
<!DOCTYPE svg PUBLIC "-//W3C//DTD SVG 1.1//EN"
 "http://www.w3.org/Graphics/SVG/1.1/DTD/svg11.dtd">
<!-- Generated by graphviz version 2.40.1 (20161225.0304)
 -->
<!-- Title: graphic Pages: 1 -->
<svg width="580pt" height="154pt"
 viewBox="0.00 0.00 580.00 153.50" xmlns="http://www.w3.org/2000/svg" xmlns:xlink="http://www.w3.org/1999/xlink">
<g id="graph0" class="graph" transform="scale(1 1) rotate(0) translate(4 149.5)">
<title>graphic</title>
<polygon fill="#ffffff" stroke="transparent" points="-4,4 -4,-149.5 576,-149.5 576,4 -4,4"/>
<!-- mo:MGRSUTM10000MeterCoordinateType -->
<g id="node1" class="node">
<title>mo:MGRSUTM10000MeterCoordinateType</title>
<text text-anchor="start" x="315.5" y="-25.4" font-family="Helvetica,sans-Serif" font-weight="bold" font-size="12.00" fill="#000000">mo:MGRSUTM10000MeterCoordinateType</text>
<g id="a_node1_0"><a xlink:href="../../structures/SimpleObjectAttributeGroup/#diagram" xlink:title="A group of attributes that are applicable to objects, to be used when defining a complex type that is an extension of a simple type." target="_top">
<polygon fill="#ebebeb" stroke="transparent" points="314.5,-5 314.5,-20 557.5,-20 557.5,-5 314.5,-5"/>
<text text-anchor="start" x="315.5" y="-9.4" font-family="Helvetica,sans-Serif" font-size="12.00" fill="#000000">structures:SimpleObjectAttributeGroup</text>
</a>
</g>
<polygon fill="#ff0000" stroke="#ff0000" points="309.5,-20 309.5,-20 562.5,-20 562.5,-20 309.5,-20"/>
<polygon fill="none" stroke="#ff0000" stroke-width="5" points="311.5,-2.5 311.5,-37.5 559.5,-37.5 559.5,-2.5 311.5,-2.5"/>
</g>
<!-- Properties -->
<g id="node2" class="node">
<title>Properties</title>
<text text-anchor="start" x="2" y="-25.4" font-family="Helvetica,sans-Serif" font-weight="bold" font-size="12.00" fill="#000000">Properties</text>
<g id="a_node2_1"><a xlink:href="../../mo/MGRSUTM10000MeterCoordinateValue/#diagram" xlink:title="A 10,000&#45;meter precision level MGRS UTM coordinate." target="_top">
<polygon fill="#ebebeb" stroke="transparent" points="1,-5 1,-20 239,-20 239,-5 1,-5"/>
<text text-anchor="start" x="2" y="-9.4" font-family="Helvetica,sans-Serif" font-size="12.00" fill="#000000">mo:MGRSUTM10000MeterCoordinateValue</text>
</a>
</g>
<polygon fill="#000000" stroke="#000000" points="0,-20 0,-20 240,-20 240,-20 0,-20"/>
<polygon fill="none" stroke="#000000" points="0,-4 0,-36 240,-36 240,-4 0,-4"/>
</g>
<!-- Properties&#45;&gt;mo:MGRSUTM10000MeterCoordinateType -->
<g id="edge1" class="edge">
<title>Properties:top&#45;&gt;mo:MGRSUTM10000MeterCoordinateType:top</title>
<path fill="none" stroke="#000000" d="M239,-28C268.8854,-28 278.8083,-28 304.3269,-28"/>
<polygon fill="#000000" stroke="#000000" points="304.5,-31.5001 314.5,-28 304.5,-24.5001 304.5,-31.5001"/>
<text text-anchor="middle" x="269.5" y="-31.4" font-family="Helvetica,sans-Serif" font-size="12.00" fill="#000000">type</text>
</g>
<!-- mo:MGRSUTM10000MeterCoordinateSimpleType -->
<g id="node3" class="node">
<title>mo:MGRSUTM10000MeterCoordinateSimpleType</title>
<g id="a_node3_2"><a xlink:href="../../mo/MGRSUTM10000MeterCoordinateSimpleType/#diagram" xlink:title="A data type for a 10,000&#45;meter precision level MGRS UTM coordinate." target="_top">
<text text-anchor="start" x="301.5" y="-80.4" font-family="Helvetica,sans-Serif" font-size="12.00" fill="#000000">mo:MGRSUTM10000MeterCoordinateSimpleType</text>
</a>
</g>
<polygon fill="none" stroke="#000000" points="299,-75.5 299,-92.5 572,-92.5 572,-75.5 299,-75.5"/>
</g>
<!-- mo:MGRSUTM10000MeterCoordinateSimpleType&#45;&gt;mo:MGRSUTM10000MeterCoordinateType -->
<g id="edge2" class="edge">
<title>mo:MGRSUTM10000MeterCoordinateSimpleType&#45;&gt;mo:MGRSUTM10000MeterCoordinateType</title>
<path fill="none" stroke="#000000" d="M435.5,-75.4351C435.5,-68.931 435.5,-59.5678 435.5,-50.3827"/>
<polygon fill="#000000" stroke="#000000" points="439.0001,-50.25 435.5,-40.25 432.0001,-50.25 439.0001,-50.25"/>
<text text-anchor="middle" x="426" y="-54.65" font-family="Helvetica,sans-Serif" font-size="12.00" fill="#000000">extension</text>
</g>
<!-- xs:token -->
<g id="node4" class="node">
<title>xs:token</title>
<g id="a_node4_3"><a xlink:href="../../xs/token/#diagram" xlink:title="&lt;TABLE&gt;" target="_top">
<text text-anchor="start" x="413.5" y="-133.4" font-family="Helvetica,sans-Serif" font-size="12.00" fill="#000000">xs:token</text>
</a>
</g>
<polygon fill="none" stroke="#000000" points="411,-128.5 411,-145.5 460,-145.5 460,-128.5 411,-128.5"/>
</g>
<!-- xs:token&#45;&gt;mo:MGRSUTM10000MeterCoordinateSimpleType -->
<g id="edge3" class="edge">
<title>xs:token&#45;&gt;mo:MGRSUTM10000MeterCoordinateSimpleType</title>
<path fill="none" stroke="#000000" d="M435.5,-128.411C435.5,-121.5124 435.5,-111.5696 435.5,-102.84"/>
<polygon fill="#000000" stroke="#000000" points="439.0001,-102.7518 435.5,-92.7519 432.0001,-102.7519 439.0001,-102.7518"/>
<text text-anchor="middle" x="426" y="-107.4" font-family="Helvetica,sans-Serif" font-size="12.00" fill="#000000">restriction</text>
</g>
</g>
</svg>
