<?xml version="1.0" encoding="UTF-8" standalone="no"?>
<!DOCTYPE svg PUBLIC "-//W3C//DTD SVG 1.1//EN"
 "http://www.w3.org/Graphics/SVG/1.1/DTD/svg11.dtd">
<!-- Generated by graphviz version 2.40.1 (20161225.0304)
 -->
<!-- Title: graphic Pages: 1 -->
<svg width="488pt" height="60pt"
 viewBox="0.00 0.00 488.00 59.50" xmlns="http://www.w3.org/2000/svg" xmlns:xlink="http://www.w3.org/1999/xlink">
<g id="graph0" class="graph" transform="scale(1 1) rotate(0) translate(4 55.5)">
<title>graphic</title>
<polygon fill="#ffffff" stroke="transparent" points="-4,4 -4,-55.5 484,-55.5 484,4 -4,4"/>
<!-- scr:MedicationText -->
<g id="node1" class="node">
<title>scr:MedicationText</title>
<text text-anchor="start" x="234" y="-35.9" font-family="Helvetica,sans-Serif" font-weight="bold" font-size="12.00" fill="#000000">scr:MedicationText</text>
<polygon fill="none" stroke="#ff0000" stroke-width="5" points="230.5,-28.5 230.5,-48.5 347.5,-48.5 347.5,-28.5 230.5,-28.5"/>
</g>
<!-- nc:TextType -->
<g id="node3" class="node">
<title>nc:TextType</title>
<g id="a_node3_0"><a xlink:href="../../nc/TextType/#diagram" xlink:title="A data type for a character string." target="_top">
<text text-anchor="start" x="411.5" y="-34.9" font-family="Helvetica,sans-Serif" font-size="12.00" fill="#000000">nc:TextType</text>
</a>
</g>
<polygon fill="none" stroke="#000000" points="409,-30 409,-47 480,-47 480,-30 409,-30"/>
</g>
<!-- scr:MedicationText&#45;&gt;nc:TextType -->
<g id="edge2" class="edge">
<title>scr:MedicationText&#45;&gt;nc:TextType</title>
<path fill="none" stroke="#000000" d="M350.0114,-38.5C366.1885,-38.5 383.3804,-38.5 398.6028,-38.5"/>
<polygon fill="#000000" stroke="#000000" points="398.7901,-42.0001 408.7901,-38.5 398.7901,-35.0001 398.7901,-42.0001"/>
<text text-anchor="middle" x="379.5" y="-41.9" font-family="Helvetica,sans-Serif" font-size="12.00" fill="#000000">type</text>
</g>
<!-- Types -->
<g id="node2" class="node">
<title>Types</title>
<text text-anchor="start" x="2.5" y="-35.9" font-family="Helvetica,sans-Serif" font-weight="bold" font-size="12.00" fill="#000000">Types</text>
<g id="a_node2_1"><a xlink:href="../../im/ImmigrationDetentionType/#diagram" xlink:title="A data type for the official retainer of an alien by United States immigration officials." target="_top">
<polygon fill="#ebebeb" stroke="transparent" points="1.5,-15.5 1.5,-30.5 160.5,-30.5 160.5,-15.5 1.5,-15.5"/>
<text text-anchor="start" x="2.5" y="-19.9" font-family="Helvetica,sans-Serif" font-size="12.00" fill="#000000">im:ImmigrationDetentionType</text>
</a>
</g>
<g id="a_node2_2"><a xlink:href="../../scr/AlienDetentionType/#diagram" xlink:title="A data type that supplements information for nc:SupervisionType" target="_top">
<text text-anchor="start" x="2.5" y="-4.9" font-family="Helvetica,sans-Serif" font-size="12.00" fill="#000000">scr:AlienDetentionType</text>
</a>
</g>
<polygon fill="#000000" stroke="#000000" points=".5,-30.5 .5,-30.5 161.5,-30.5 161.5,-30.5 .5,-30.5"/>
<polygon fill="none" stroke="#000000" points="0,0 0,-47 161,-47 161,0 0,0"/>
</g>
<!-- Types&#45;&gt;scr:MedicationText -->
<g id="edge1" class="edge">
<title>Types:top&#45;&gt;scr:MedicationText</title>
<path fill="none" stroke="#000000" d="M160.5,-38.5C179.0409,-38.5 199.0866,-38.5 217.7059,-38.5"/>
<polygon fill="#000000" stroke="#000000" points="217.8847,-42.0001 227.8846,-38.5 217.8846,-35.0001 217.8847,-42.0001"/>
<text text-anchor="middle" x="194.5" y="-41.9" font-family="Helvetica,sans-Serif" font-size="12.00" fill="#000000">has&#45;a</text>
</g>
</g>
</svg>
