<?xml version="1.0" encoding="UTF-8" standalone="no"?>
<!DOCTYPE svg PUBLIC "-//W3C//DTD SVG 1.1//EN"
 "http://www.w3.org/Graphics/SVG/1.1/DTD/svg11.dtd">
<!-- Generated by graphviz version 2.40.1 (20161225.0304)
 -->
<!-- Title: graphic Pages: 1 -->
<svg width="548pt" height="86pt"
 viewBox="0.00 0.00 548.00 86.00" xmlns="http://www.w3.org/2000/svg" xmlns:xlink="http://www.w3.org/1999/xlink">
<g id="graph0" class="graph" transform="scale(1 1) rotate(0) translate(4 82)">
<title>graphic</title>
<polygon fill="#ffffff" stroke="transparent" points="-4,4 -4,-82 544,-82 544,4 -4,4"/>
<!-- j:CrashDriverLicensePermitStatusCode -->
<g id="node1" class="node">
<title>j:CrashDriverLicensePermitStatusCode</title>
<text text-anchor="start" x="6.5" y="-9.9" font-family="Helvetica,sans-Serif" font-weight="bold" font-size="12.00" fill="#000000">j:CrashDriverLicensePermitStatusCode</text>
<polygon fill="none" stroke="#ff0000" stroke-width="5" points="2.5,-2.5 2.5,-22.5 234.5,-22.5 234.5,-2.5 2.5,-2.5"/>
</g>
<!-- mmucc:DriverLicensePermitStatusCodeType -->
<g id="node3" class="node">
<title>mmucc:DriverLicensePermitStatusCodeType</title>
<g id="a_node3_0"><a xlink:href="../../mmucc/DriverLicensePermitStatusCodeType/#diagram" xlink:title="A data type for a current status of an individuals driver license at the time of the crash." target="_top">
<text text-anchor="start" x="298" y="-8.9" font-family="Helvetica,sans-Serif" font-size="12.00" fill="#000000">mmucc:DriverLicensePermitStatusCodeType</text>
</a>
</g>
<polygon fill="none" stroke="#000000" points="296,-4 296,-21 540,-21 540,-4 296,-4"/>
</g>
<!-- j:CrashDriverLicensePermitStatusCode&#45;&gt;mmucc:DriverLicensePermitStatusCodeType -->
<g id="edge2" class="edge">
<title>j:CrashDriverLicensePermitStatusCode&#45;&gt;mmucc:DriverLicensePermitStatusCodeType</title>
<path fill="none" stroke="#000000" d="M237.3005,-12.5C253.2597,-12.5 269.7092,-12.5 285.8807,-12.5"/>
<polygon fill="#000000" stroke="#000000" points="285.9069,-16.0001 295.9069,-12.5 285.9068,-9.0001 285.9069,-16.0001"/>
<text text-anchor="middle" x="266.5" y="-15.9" font-family="Helvetica,sans-Serif" font-size="12.00" fill="#000000">type</text>
</g>
<!-- SubstitutionGroup -->
<g id="node2" class="node">
<title>SubstitutionGroup</title>
<g id="a_node2_1"><a xlink:href="../../j/DriverLicensePermitStatusAbstract/#diagram" xlink:title="A data concept for a current status of an individuals driver license permit." target="_top">
<text text-anchor="start" x="22.5" y="-65.9" font-family="Helvetica,sans-Serif" font-size="12.00" fill="#000000">j:DriverLicensePermitStatusAbstract</text>
</a>
</g>
<polygon fill="none" stroke="#000000" points="20,-61 20,-78 217,-78 217,-61 20,-61"/>
</g>
<!-- SubstitutionGroup&#45;&gt;j:CrashDriverLicensePermitStatusCode -->
<g id="edge1" class="edge">
<title>SubstitutionGroup&#45;&gt;j:CrashDriverLicensePermitStatusCode</title>
<path fill="none" stroke="#000000" d="M118.5,-50.9163C118.5,-42.4809 118.5,-32.7214 118.5,-25.1501"/>
<polygon fill="#000000" stroke="#000000" points="115.0001,-50.9472 118.5,-60.9473 122.0001,-50.9473 115.0001,-50.9472"/>
<text text-anchor="middle" x="109" y="-39.9" font-family="Helvetica,sans-Serif" font-size="12.00" fill="#000000">substitution group</text>
</g>
</g>
</svg>
