<?xml version="1.0" encoding="UTF-8" standalone="no"?>
<!DOCTYPE svg PUBLIC "-//W3C//DTD SVG 1.1//EN"
 "http://www.w3.org/Graphics/SVG/1.1/DTD/svg11.dtd">
<!-- Generated by graphviz version 2.40.1 (20161225.0304)
 -->
<!-- Title: graphic Pages: 1 -->
<svg width="523pt" height="45pt"
 viewBox="0.00 0.00 523.00 45.00" xmlns="http://www.w3.org/2000/svg" xmlns:xlink="http://www.w3.org/1999/xlink">
<g id="graph0" class="graph" transform="scale(1 1) rotate(0) translate(4 41)">
<title>graphic</title>
<polygon fill="#ffffff" stroke="transparent" points="-4,4 -4,-41 519,-41 519,4 -4,4"/>
<!-- nc:personNameInitialIndicator -->
<g id="node1" class="node">
<title>nc:personNameInitialIndicator</title>
<text text-anchor="start" x="214.5" y="-21.4" font-family="Helvetica,sans-Serif" font-weight="bold" font-size="12.00" fill="#000000">nc:personNameInitialIndicator</text>
<polygon fill="none" stroke="#ff0000" stroke-width="5" points="210.5,-14 210.5,-34 390.5,-34 390.5,-14 210.5,-14"/>
</g>
<!-- xs:boolean -->
<g id="node3" class="node">
<title>xs:boolean</title>
<g id="a_node3_0"><a xlink:href="../../xs/boolean/#diagram" xlink:title="&lt;TABLE&gt;" target="_top">
<text text-anchor="start" x="454.5" y="-20.4" font-family="Helvetica,sans-Serif" font-size="12.00" fill="#000000">xs:boolean</text>
</a>
</g>
<polygon fill="none" stroke="#000000" points="452,-15.5 452,-32.5 515,-32.5 515,-15.5 452,-15.5"/>
</g>
<!-- nc:personNameInitialIndicator&#45;&gt;xs:boolean -->
<g id="edge2" class="edge">
<title>nc:personNameInitialIndicator&#45;&gt;xs:boolean</title>
<path fill="none" stroke="#000000" d="M393.0722,-24C410.0505,-24 426.9795,-24 441.5206,-24"/>
<polygon fill="#000000" stroke="#000000" points="441.6533,-27.5001 451.6532,-24 441.6532,-20.5001 441.6533,-27.5001"/>
<text text-anchor="middle" x="422.5" y="-27.4" font-family="Helvetica,sans-Serif" font-size="12.00" fill="#000000">type</text>
</g>
<!-- Types -->
<g id="node2" class="node">
<title>Types</title>
<text text-anchor="start" x="2.5" y="-21.4" font-family="Helvetica,sans-Serif" font-weight="bold" font-size="12.00" fill="#000000">Types</text>
<g id="a_node2_1"><a xlink:href="../../nc/PersonNameTextType/#diagram" xlink:title="A data type for a name by which a person is known, referred, or addressed." target="_top">
<polygon fill="#ebebeb" stroke="transparent" points="1.5,-1 1.5,-16 140.5,-16 140.5,-1 1.5,-1"/>
<text text-anchor="start" x="2.5" y="-5.4" font-family="Helvetica,sans-Serif" font-size="12.00" fill="#000000">nc:PersonNameTextType</text>
</a>
</g>
<polygon fill="#000000" stroke="#000000" points=".5,-16 .5,-16 141.5,-16 141.5,-16 .5,-16"/>
<polygon fill="none" stroke="#000000" points="0,0 0,-32 141,-32 141,0 0,0"/>
</g>
<!-- Types&#45;&gt;nc:personNameInitialIndicator -->
<g id="edge1" class="edge">
<title>Types:top&#45;&gt;nc:personNameInitialIndicator:w</title>
<path fill="none" stroke="#000000" d="M140.5,-24C166.75,-24 175.7734,-24 197.7168,-24"/>
<polygon fill="#000000" stroke="#000000" points="198,-27.5001 208,-24 198,-20.5001 198,-27.5001"/>
<text text-anchor="middle" x="174.5" y="-27.4" font-family="Helvetica,sans-Serif" font-size="12.00" fill="#000000">has&#45;a</text>
</g>
</g>
</svg>
