<?xml version="1.0" encoding="UTF-8" standalone="no"?>
<!DOCTYPE svg PUBLIC "-//W3C//DTD SVG 1.1//EN"
 "http://www.w3.org/Graphics/SVG/1.1/DTD/svg11.dtd">
<!-- Generated by graphviz version 2.40.1 (20161225.0304)
 -->
<!-- Title: graphic Pages: 1 -->
<svg width="529pt" height="45pt"
 viewBox="0.00 0.00 529.00 45.00" xmlns="http://www.w3.org/2000/svg" xmlns:xlink="http://www.w3.org/1999/xlink">
<g id="graph0" class="graph" transform="scale(1 1) rotate(0) translate(4 41)">
<title>graphic</title>
<polygon fill="#ffffff" stroke="transparent" points="-4,4 -4,-41 525,-41 525,4 -4,4"/>
<!-- j:DriverLicenseExpirationDate -->
<g id="node1" class="node">
<title>j:DriverLicenseExpirationDate</title>
<text text-anchor="start" x="211" y="-21.4" font-family="Helvetica,sans-Serif" font-weight="bold" font-size="12.00" fill="#000000">j:DriverLicenseExpirationDate</text>
<polygon fill="none" stroke="#ff0000" stroke-width="5" points="207.5,-14 207.5,-34 386.5,-34 386.5,-14 207.5,-14"/>
</g>
<!-- nc:DateType -->
<g id="node3" class="node">
<title>nc:DateType</title>
<g id="a_node3_0"><a xlink:href="../../nc/DateType/#diagram" xlink:title="A data type for a calendar date." target="_top">
<text text-anchor="start" x="450.5" y="-20.4" font-family="Helvetica,sans-Serif" font-size="12.00" fill="#000000">nc:DateType</text>
</a>
</g>
<polygon fill="none" stroke="#000000" points="448,-15.5 448,-32.5 521,-32.5 521,-15.5 448,-15.5"/>
</g>
<!-- j:DriverLicenseExpirationDate&#45;&gt;nc:DateType -->
<g id="edge2" class="edge">
<title>j:DriverLicenseExpirationDate&#45;&gt;nc:DateType</title>
<path fill="none" stroke="#000000" d="M389.1021,-24C405.7956,-24 422.5588,-24 437.2736,-24"/>
<polygon fill="#000000" stroke="#000000" points="437.5959,-27.5001 447.5959,-24 437.5959,-20.5001 437.5959,-27.5001"/>
<text text-anchor="middle" x="418.5" y="-27.4" font-family="Helvetica,sans-Serif" font-size="12.00" fill="#000000">type</text>
</g>
<!-- Types -->
<g id="node2" class="node">
<title>Types</title>
<text text-anchor="start" x="2" y="-21.4" font-family="Helvetica,sans-Serif" font-weight="bold" font-size="12.00" fill="#000000">Types</text>
<g id="a_node2_1"><a xlink:href="../../j/DriverLicenseBaseType/#diagram" xlink:title="A data type for an authorization issued to a driver granting driving privileges." target="_top">
<polygon fill="#ebebeb" stroke="transparent" points="1,-1 1,-16 137,-16 137,-1 1,-1"/>
<text text-anchor="start" x="2" y="-5.4" font-family="Helvetica,sans-Serif" font-size="12.00" fill="#000000">j:DriverLicenseBaseType</text>
</a>
</g>
<polygon fill="#000000" stroke="#000000" points="0,-16 0,-16 138,-16 138,-16 0,-16"/>
<polygon fill="none" stroke="#000000" points="0,0 0,-32 138,-32 138,0 0,0"/>
</g>
<!-- Types&#45;&gt;j:DriverLicenseExpirationDate -->
<g id="edge1" class="edge">
<title>Types:top&#45;&gt;j:DriverLicenseExpirationDate</title>
<path fill="none" stroke="#000000" d="M137,-24C155.6013,-24 175.4191,-24 194.5442,-24"/>
<polygon fill="#000000" stroke="#000000" points="194.7776,-27.5001 204.7776,-24 194.7776,-20.5001 194.7776,-27.5001"/>
<text text-anchor="middle" x="171.5" y="-27.4" font-family="Helvetica,sans-Serif" font-size="12.00" fill="#000000">has&#45;a</text>
</g>
</g>
</svg>
