<?xml version="1.0" encoding="UTF-8" standalone="no"?>
<!DOCTYPE svg PUBLIC "-//W3C//DTD SVG 1.1//EN"
 "http://www.w3.org/Graphics/SVG/1.1/DTD/svg11.dtd">
<!-- Generated by graphviz version 2.40.1 (20161225.0304)
 -->
<!-- Title: graphic Pages: 1 -->
<svg width="671pt" height="222pt"
 viewBox="0.00 0.00 671.00 222.00" xmlns="http://www.w3.org/2000/svg" xmlns:xlink="http://www.w3.org/1999/xlink">
<g id="graph0" class="graph" transform="scale(1 1) rotate(0) translate(4 218)">
<title>graphic</title>
<polygon fill="#ffffff" stroke="transparent" points="-4,4 -4,-218 667,-218 667,4 -4,4"/>
<!-- hs:JuvenileSupervisionConditionType -->
<g id="node1" class="node">
<title>hs:JuvenileSupervisionConditionType</title>
<text text-anchor="start" x="243" y="-39.9" font-family="Helvetica,sans-Serif" font-weight="bold" font-size="12.00" fill="#000000">hs:JuvenileSupervisionConditionType</text>
<g id="a_node1_0"><a xlink:href="../../hs/JuvenileSupervisionConditionFrequencyDescriptionText/#diagram" xlink:title="A description of the frequency of the supervision condition." target="_top">
<polygon fill="#ebebeb" stroke="transparent" points="242,-19.5 242,-34.5 658,-34.5 658,-19.5 242,-19.5"/>
<text text-anchor="start" x="243" y="-23.9" font-family="Helvetica,sans-Serif" font-size="12.00" fill="#000000">hs:JuvenileSupervisionConditionFrequencyDescriptionText: nc:TextType [0&#45;n]</text>
</a>
</g>
<g id="a_node1_1"><a xlink:href="../../hs/JuvenileSupervisionConditionAugmentationPoint/#diagram" xlink:title="An augmentation point for JuvenileSupervisionConditionType." target="_top">
<text text-anchor="start" x="243" y="-8.9" font-family="Helvetica,sans-Serif" font-size="12.00" fill="#000000">hs:JuvenileSupervisionConditionAugmentationPoint [0&#45;n]</text>
</a>
</g>
<polygon fill="#ff0000" stroke="#ff0000" points="237,-34.5 237,-34.5 663,-34.5 663,-34.5 237,-34.5"/>
<polygon fill="none" stroke="#ff0000" stroke-width="5" points="239.5,-2.5 239.5,-52.5 660.5,-52.5 660.5,-2.5 239.5,-2.5"/>
</g>
<!-- Properties -->
<g id="node2" class="node">
<title>Properties</title>
<text text-anchor="start" x="2" y="-39.9" font-family="Helvetica,sans-Serif" font-weight="bold" font-size="12.00" fill="#000000">Properties</text>
<g id="a_node2_2"><a xlink:href="../../hs/JuvenileSupervisionCondition/#diagram" xlink:title="A juvenile supervision condition information for an individual." target="_top">
<polygon fill="#ebebeb" stroke="transparent" points="1,-19.5 1,-34.5 177,-34.5 177,-19.5 1,-19.5"/>
<text text-anchor="start" x="2" y="-23.9" font-family="Helvetica,sans-Serif" font-size="12.00" fill="#000000">hs:JuvenileSupervisionCondition</text>
</a>
</g>
<polygon fill="#000000" stroke="#000000" points="0,-34.5 0,-34.5 178,-34.5 178,-34.5 0,-34.5"/>
<polygon fill="none" stroke="#000000" points="0,-18.5 0,-50.5 178,-50.5 178,-18.5 0,-18.5"/>
</g>
<!-- Properties&#45;&gt;hs:JuvenileSupervisionConditionType -->
<g id="edge1" class="edge">
<title>Properties:top&#45;&gt;hs:JuvenileSupervisionConditionType:top</title>
<path fill="none" stroke="#000000" d="M177,-42.5C202.1649,-42.5 210.8891,-42.5 231.8154,-42.5"/>
<polygon fill="#000000" stroke="#000000" points="232,-46.0001 242,-42.5 232,-39.0001 232,-46.0001"/>
<text text-anchor="middle" x="207.5" y="-45.9" font-family="Helvetica,sans-Serif" font-size="12.00" fill="#000000">type</text>
</g>
<!-- nc:ConditionType -->
<g id="node3" class="node">
<title>nc:ConditionType</title>
<g id="a_node3_3"><a xlink:href="../../nc/ConditionType/#diagram" xlink:title="A data type for a requirement or stipulation." target="_top">
<text text-anchor="start" x="403" y="-95.9" font-family="Helvetica,sans-Serif" font-size="12.00" fill="#000000">nc:ConditionType</text>
</a>
</g>
<polygon fill="none" stroke="#000000" points="401,-91 401,-108 499,-108 499,-91 401,-91"/>
</g>
<!-- nc:ConditionType&#45;&gt;hs:JuvenileSupervisionConditionType -->
<g id="edge2" class="edge">
<title>nc:ConditionType&#45;&gt;hs:JuvenileSupervisionConditionType</title>
<path fill="none" stroke="#000000" d="M450,-90.8151C450,-84.3271 450,-74.9677 450,-65.4273"/>
<polygon fill="#000000" stroke="#000000" points="453.5001,-65.1311 450,-55.1312 446.5001,-65.1312 453.5001,-65.1311"/>
<text text-anchor="middle" x="440.5" y="-69.9" font-family="Helvetica,sans-Serif" font-size="12.00" fill="#000000">extension</text>
</g>
<!-- nc:ActivityType -->
<g id="node4" class="node">
<title>nc:ActivityType</title>
<g id="a_node4_4"><a xlink:href="../../nc/ActivityType/#diagram" xlink:title="A data type for a single or set of related actions, events, or process steps." target="_top">
<text text-anchor="start" x="410" y="-148.9" font-family="Helvetica,sans-Serif" font-size="12.00" fill="#000000">nc:ActivityType</text>
</a>
</g>
<polygon fill="none" stroke="#000000" points="407.5,-144 407.5,-161 492.5,-161 492.5,-144 407.5,-144"/>
</g>
<!-- nc:ActivityType&#45;&gt;nc:ConditionType -->
<g id="edge3" class="edge">
<title>nc:ActivityType&#45;&gt;nc:ConditionType</title>
<path fill="none" stroke="#000000" d="M450,-143.911C450,-137.0124 450,-127.0696 450,-118.34"/>
<polygon fill="#000000" stroke="#000000" points="453.5001,-118.2518 450,-108.2519 446.5001,-118.2519 453.5001,-118.2518"/>
<text text-anchor="middle" x="440.5" y="-122.9" font-family="Helvetica,sans-Serif" font-size="12.00" fill="#000000">extension</text>
</g>
<!-- structures:ObjectType -->
<g id="node5" class="node">
<title>structures:ObjectType</title>
<g id="a_node5_5"><a xlink:href="../../structures/ObjectType/#diagram" xlink:title="A data type for a thing with its own lifespan that has some existence." target="_top">
<text text-anchor="start" x="391" y="-201.9" font-family="Helvetica,sans-Serif" font-size="12.00" fill="#000000">structures:ObjectType</text>
</a>
</g>
<polygon fill="none" stroke="#000000" points="389,-197 389,-214 511,-214 511,-197 389,-197"/>
</g>
<!-- structures:ObjectType&#45;&gt;nc:ActivityType -->
<g id="edge4" class="edge">
<title>structures:ObjectType&#45;&gt;nc:ActivityType</title>
<path fill="none" stroke="#000000" d="M450,-196.911C450,-190.0124 450,-180.0696 450,-171.34"/>
<polygon fill="#000000" stroke="#000000" points="453.5001,-171.2518 450,-161.2519 446.5001,-171.2519 453.5001,-171.2518"/>
<text text-anchor="middle" x="440.5" y="-175.9" font-family="Helvetica,sans-Serif" font-size="12.00" fill="#000000">extension</text>
</g>
</g>
</svg>
