<?xml version="1.0" encoding="UTF-8" standalone="no"?>
<!DOCTYPE svg PUBLIC "-//W3C//DTD SVG 1.1//EN"
 "http://www.w3.org/Graphics/SVG/1.1/DTD/svg11.dtd">
<!-- Generated by graphviz version 2.40.1 (20161225.0304)
 -->
<!-- Title: graphic Pages: 1 -->
<svg width="518pt" height="60pt"
 viewBox="0.00 0.00 518.00 59.50" xmlns="http://www.w3.org/2000/svg" xmlns:xlink="http://www.w3.org/1999/xlink">
<g id="graph0" class="graph" transform="scale(1 1) rotate(0) translate(4 55.5)">
<title>graphic</title>
<polygon fill="#ffffff" stroke="transparent" points="-4,4 -4,-55.5 514,-55.5 514,4 -4,4"/>
<!-- em:JobTitleOrRole -->
<g id="node1" class="node">
<title>em:JobTitleOrRole</title>
<text text-anchor="start" x="206" y="-35.9" font-family="Helvetica,sans-Serif" font-weight="bold" font-size="12.00" fill="#000000">em:JobTitleOrRole</text>
<polygon fill="none" stroke="#ff0000" stroke-width="5" points="202.5,-28.5 202.5,-48.5 317.5,-48.5 317.5,-28.5 202.5,-28.5"/>
</g>
<!-- em:JobTitleOrRoleType -->
<g id="node3" class="node">
<title>em:JobTitleOrRoleType</title>
<g id="a_node3_0"><a xlink:href="../../em/JobTitleOrRoleType/#diagram" xlink:title="A data type for a credential class that represents the job title or role of a person" target="_top">
<text text-anchor="start" x="381.5" y="-34.9" font-family="Helvetica,sans-Serif" font-size="12.00" fill="#000000">em:JobTitleOrRoleType</text>
</a>
</g>
<polygon fill="none" stroke="#000000" points="379,-30 379,-47 510,-47 510,-30 379,-30"/>
</g>
<!-- em:JobTitleOrRole&#45;&gt;em:JobTitleOrRoleType -->
<g id="edge2" class="edge">
<title>em:JobTitleOrRole&#45;&gt;em:JobTitleOrRoleType</title>
<path fill="none" stroke="#000000" d="M320.1569,-38.5C335.5116,-38.5 352.2213,-38.5 368.2645,-38.5"/>
<polygon fill="#000000" stroke="#000000" points="368.69,-42.0001 378.6899,-38.5 368.6899,-35.0001 368.69,-42.0001"/>
<text text-anchor="middle" x="349.5" y="-41.9" font-family="Helvetica,sans-Serif" font-size="12.00" fill="#000000">type</text>
</g>
<!-- Types -->
<g id="node2" class="node">
<title>Types</title>
<text text-anchor="start" x="2.5" y="-35.9" font-family="Helvetica,sans-Serif" font-weight="bold" font-size="12.00" fill="#000000">Types</text>
<g id="a_node2_1"><a xlink:href="../../em/ExperienceType/#diagram" xlink:title="A data type for a credential class that represents the type of experience possessed by a person" target="_top">
<polygon fill="#ebebeb" stroke="transparent" points="1.5,-15.5 1.5,-30.5 132.5,-30.5 132.5,-15.5 1.5,-15.5"/>
<text text-anchor="start" x="2.5" y="-19.9" font-family="Helvetica,sans-Serif" font-size="12.00" fill="#000000">em:ExperienceType</text>
</a>
</g>
<g id="a_node2_2"><a xlink:href="../../em/FirstResponderType/#diagram" xlink:title="A data type for a person who is a first responder" target="_top">
<text text-anchor="start" x="2.5" y="-4.9" font-family="Helvetica,sans-Serif" font-size="12.00" fill="#000000">em:FirstResponderType</text>
</a>
</g>
<polygon fill="#000000" stroke="#000000" points=".5,-30.5 .5,-30.5 133.5,-30.5 133.5,-30.5 .5,-30.5"/>
<polygon fill="none" stroke="#000000" points="0,0 0,-47 133,-47 133,0 0,0"/>
</g>
<!-- Types&#45;&gt;em:JobTitleOrRole -->
<g id="edge1" class="edge">
<title>Types:top&#45;&gt;em:JobTitleOrRole</title>
<path fill="none" stroke="#000000" d="M132.5,-38.5C150.99,-38.5 170.9883,-38.5 189.542,-38.5"/>
<polygon fill="#000000" stroke="#000000" points="189.6822,-42.0001 199.6822,-38.5 189.6822,-35.0001 189.6822,-42.0001"/>
<text text-anchor="middle" x="166.5" y="-41.9" font-family="Helvetica,sans-Serif" font-size="12.00" fill="#000000">has&#45;a</text>
</g>
</g>
</svg>
