<?xml version="1.0" encoding="UTF-8" standalone="no"?>
<!DOCTYPE svg PUBLIC "-//W3C//DTD SVG 1.1//EN"
 "http://www.w3.org/Graphics/SVG/1.1/DTD/svg11.dtd">
<!-- Generated by graphviz version 2.40.1 (20161225.0304)
 -->
<!-- Title: graphic Pages: 1 -->
<svg width="532pt" height="45pt"
 viewBox="0.00 0.00 532.00 45.00" xmlns="http://www.w3.org/2000/svg" xmlns:xlink="http://www.w3.org/1999/xlink">
<g id="graph0" class="graph" transform="scale(1 1) rotate(0) translate(4 41)">
<title>graphic</title>
<polygon fill="#ffffff" stroke="transparent" points="-4,4 -4,-41 528,-41 528,4 -4,4"/>
<!-- j:NonMotoristStrikingVehicle -->
<g id="node1" class="node">
<title>j:NonMotoristStrikingVehicle</title>
<text text-anchor="start" x="207.5" y="-21.4" font-family="Helvetica,sans-Serif" font-weight="bold" font-size="12.00" fill="#000000">j:NonMotoristStrikingVehicle</text>
<polygon fill="none" stroke="#ff0000" stroke-width="5" points="203.5,-14 203.5,-34 375.5,-34 375.5,-14 203.5,-14"/>
</g>
<!-- nc:VehicleType -->
<g id="node3" class="node">
<title>nc:VehicleType</title>
<g id="a_node3_0"><a xlink:href="../../nc/VehicleType/#diagram" xlink:title="A data type for a conveyance designed to carry an operator, passengers and/or cargo, over land." target="_top">
<text text-anchor="start" x="439.5" y="-20.4" font-family="Helvetica,sans-Serif" font-size="12.00" fill="#000000">nc:VehicleType</text>
</a>
</g>
<polygon fill="none" stroke="#000000" points="437,-15.5 437,-32.5 524,-32.5 524,-15.5 437,-15.5"/>
</g>
<!-- j:NonMotoristStrikingVehicle&#45;&gt;nc:VehicleType -->
<g id="edge2" class="edge">
<title>j:NonMotoristStrikingVehicle&#45;&gt;nc:VehicleType</title>
<path fill="none" stroke="#000000" d="M378.0109,-24C394.6609,-24 411.5957,-24 426.7764,-24"/>
<polygon fill="#000000" stroke="#000000" points="426.9809,-27.5001 436.9809,-24 426.9808,-20.5001 426.9809,-27.5001"/>
<text text-anchor="middle" x="407.5" y="-27.4" font-family="Helvetica,sans-Serif" font-size="12.00" fill="#000000">type</text>
</g>
<!-- Types -->
<g id="node2" class="node">
<title>Types</title>
<text text-anchor="start" x="2" y="-21.4" font-family="Helvetica,sans-Serif" font-weight="bold" font-size="12.00" fill="#000000">Types</text>
<g id="a_node2_1"><a xlink:href="../../j/CrashNonMotoristType/#diagram" xlink:title="A data type for a non&#45;motorist involved in a Traffic Accident." target="_top">
<polygon fill="#ebebeb" stroke="transparent" points="1,-1 1,-16 133,-16 133,-1 1,-1"/>
<text text-anchor="start" x="2" y="-5.4" font-family="Helvetica,sans-Serif" font-size="12.00" fill="#000000">j:CrashNonMotoristType</text>
</a>
</g>
<polygon fill="#000000" stroke="#000000" points="0,-16 0,-16 134,-16 134,-16 0,-16"/>
<polygon fill="none" stroke="#000000" points="0,0 0,-32 134,-32 134,0 0,0"/>
</g>
<!-- Types&#45;&gt;j:NonMotoristStrikingVehicle -->
<g id="edge1" class="edge">
<title>Types:top&#45;&gt;j:NonMotoristStrikingVehicle</title>
<path fill="none" stroke="#000000" d="M133,-24C151.6551,-24 171.561,-24 190.7048,-24"/>
<polygon fill="#000000" stroke="#000000" points="190.9411,-27.5001 200.9411,-24 190.9411,-20.5001 190.9411,-27.5001"/>
<text text-anchor="middle" x="167.5" y="-27.4" font-family="Helvetica,sans-Serif" font-size="12.00" fill="#000000">has&#45;a</text>
</g>
</g>
</svg>
