<?xml version="1.0" encoding="UTF-8" standalone="no"?>
<!DOCTYPE svg PUBLIC "-//W3C//DTD SVG 1.1//EN"
 "http://www.w3.org/Graphics/SVG/1.1/DTD/svg11.dtd">
<!-- Generated by graphviz version 2.40.1 (20161225.0304)
 -->
<!-- Title: graphic Pages: 1 -->
<svg width="556pt" height="45pt"
 viewBox="0.00 0.00 556.00 45.00" xmlns="http://www.w3.org/2000/svg" xmlns:xlink="http://www.w3.org/1999/xlink">
<g id="graph0" class="graph" transform="scale(1 1) rotate(0) translate(4 41)">
<title>graphic</title>
<polygon fill="#ffffff" stroke="transparent" points="-4,4 -4,-41 552,-41 552,4 -4,4"/>
<!-- em:RouteLocation -->
<g id="node1" class="node">
<title>em:RouteLocation</title>
<text text-anchor="start" x="284" y="-21.4" font-family="Helvetica,sans-Serif" font-weight="bold" font-size="12.00" fill="#000000">em:RouteLocation</text>
<polygon fill="none" stroke="#ff0000" stroke-width="5" points="280.5,-14 280.5,-34 393.5,-34 393.5,-14 280.5,-14"/>
</g>
<!-- nc:LocationType -->
<g id="node3" class="node">
<title>nc:LocationType</title>
<g id="a_node3_0"><a xlink:href="../../nc/LocationType/#diagram" xlink:title="A data type for geospatial location." target="_top">
<text text-anchor="start" x="457.5" y="-20.4" font-family="Helvetica,sans-Serif" font-size="12.00" fill="#000000">nc:LocationType</text>
</a>
</g>
<polygon fill="none" stroke="#000000" points="455,-15.5 455,-32.5 548,-32.5 548,-15.5 455,-15.5"/>
</g>
<!-- em:RouteLocation&#45;&gt;nc:LocationType -->
<g id="edge2" class="edge">
<title>em:RouteLocation&#45;&gt;nc:LocationType</title>
<path fill="none" stroke="#000000" d="M396.3883,-24C412.1663,-24 429.1635,-24 444.7943,-24"/>
<polygon fill="#000000" stroke="#000000" points="444.8421,-27.5001 454.8421,-24 444.8421,-20.5001 444.8421,-27.5001"/>
<text text-anchor="middle" x="425.5" y="-27.4" font-family="Helvetica,sans-Serif" font-size="12.00" fill="#000000">type</text>
</g>
<!-- Types -->
<g id="node2" class="node">
<title>Types</title>
<text text-anchor="start" x="2.5" y="-21.4" font-family="Helvetica,sans-Serif" font-weight="bold" font-size="12.00" fill="#000000">Types</text>
<g id="a_node2_1"><a xlink:href="../../em/PointToPointLocationTrackingType/#diagram" xlink:title="A data type which contains all elements related to resource tracking" target="_top">
<polygon fill="#ebebeb" stroke="transparent" points="1.5,-1 1.5,-16 210.5,-16 210.5,-1 1.5,-1"/>
<text text-anchor="start" x="2.5" y="-5.4" font-family="Helvetica,sans-Serif" font-size="12.00" fill="#000000">em:PointToPointLocationTrackingType</text>
</a>
</g>
<polygon fill="#000000" stroke="#000000" points=".5,-16 .5,-16 211.5,-16 211.5,-16 .5,-16"/>
<polygon fill="none" stroke="#000000" points="0,0 0,-32 211,-32 211,0 0,0"/>
</g>
<!-- Types&#45;&gt;em:RouteLocation -->
<g id="edge1" class="edge">
<title>Types:top&#45;&gt;em:RouteLocation</title>
<path fill="none" stroke="#000000" d="M210.5,-24C229.0303,-24 249.0874,-24 267.652,-24"/>
<polygon fill="#000000" stroke="#000000" points="267.7929,-27.5001 277.7929,-24 267.7928,-20.5001 267.7929,-27.5001"/>
<text text-anchor="middle" x="244.5" y="-27.4" font-family="Helvetica,sans-Serif" font-size="12.00" fill="#000000">has&#45;a</text>
</g>
</g>
</svg>
