<?xml version="1.0" encoding="UTF-8" standalone="no"?>
<!DOCTYPE svg PUBLIC "-//W3C//DTD SVG 1.1//EN"
 "http://www.w3.org/Graphics/SVG/1.1/DTD/svg11.dtd">
<!-- Generated by graphviz version 2.40.1 (20161225.0304)
 -->
<!-- Title: graphic Pages: 1 -->
<svg width="516pt" height="45pt"
 viewBox="0.00 0.00 516.00 45.00" xmlns="http://www.w3.org/2000/svg" xmlns:xlink="http://www.w3.org/1999/xlink">
<g id="graph0" class="graph" transform="scale(1 1) rotate(0) translate(4 41)">
<title>graphic</title>
<polygon fill="#ffffff" stroke="transparent" points="-4,4 -4,-41 512,-41 512,4 -4,4"/>
<!-- mo:ConditionIdentification -->
<g id="node1" class="node">
<title>mo:ConditionIdentification</title>
<text text-anchor="start" x="175.5" y="-21.4" font-family="Helvetica,sans-Serif" font-weight="bold" font-size="12.00" fill="#000000">mo:ConditionIdentification</text>
<polygon fill="none" stroke="#ff0000" stroke-width="5" points="171.5,-14 171.5,-34 331.5,-34 331.5,-14 171.5,-14"/>
</g>
<!-- nc:IdentificationType -->
<g id="node3" class="node">
<title>nc:IdentificationType</title>
<g id="a_node3_0"><a xlink:href="../../nc/IdentificationType/#diagram" xlink:title="A data type for a representation of an identity." target="_top">
<text text-anchor="start" x="395.5" y="-20.4" font-family="Helvetica,sans-Serif" font-size="12.00" fill="#000000">nc:IdentificationType</text>
</a>
</g>
<polygon fill="none" stroke="#000000" points="393,-15.5 393,-32.5 508,-32.5 508,-15.5 393,-15.5"/>
</g>
<!-- mo:ConditionIdentification&#45;&gt;nc:IdentificationType -->
<g id="edge2" class="edge">
<title>mo:ConditionIdentification&#45;&gt;nc:IdentificationType</title>
<path fill="none" stroke="#000000" d="M334.1651,-24C350.3709,-24 367.1903,-24 382.8359,-24"/>
<polygon fill="#000000" stroke="#000000" points="382.9295,-27.5001 392.9295,-24 382.9294,-20.5001 382.9295,-27.5001"/>
<text text-anchor="middle" x="363.5" y="-27.4" font-family="Helvetica,sans-Serif" font-size="12.00" fill="#000000">type</text>
</g>
<!-- Types -->
<g id="node2" class="node">
<title>Types</title>
<text text-anchor="start" x="2" y="-21.4" font-family="Helvetica,sans-Serif" font-weight="bold" font-size="12.00" fill="#000000">Types</text>
<g id="a_node2_1"><a xlink:href="../../mo/ConditionType/#diagram" xlink:title="A data type for a set of variables of an operational environment or situation in which a unit, system, or individual is expected to operate and may affect performance. A physical or behavioral state of a system that is required for the achievement of an objective." target="_top">
<polygon fill="#ebebeb" stroke="transparent" points="1,-1 1,-16 101,-16 101,-1 1,-1"/>
<text text-anchor="start" x="2" y="-5.4" font-family="Helvetica,sans-Serif" font-size="12.00" fill="#000000">mo:ConditionType</text>
</a>
</g>
<polygon fill="#000000" stroke="#000000" points="0,-16 0,-16 102,-16 102,-16 0,-16"/>
<polygon fill="none" stroke="#000000" points="0,0 0,-32 102,-32 102,0 0,0"/>
</g>
<!-- Types&#45;&gt;mo:ConditionIdentification -->
<g id="edge1" class="edge">
<title>Types:top&#45;&gt;mo:ConditionIdentification</title>
<path fill="none" stroke="#000000" d="M101,-24C119.6043,-24 139.5022,-24 158.5349,-24"/>
<polygon fill="#000000" stroke="#000000" points="158.7005,-27.5001 168.7004,-24 158.7004,-20.5001 158.7005,-27.5001"/>
<text text-anchor="middle" x="135.5" y="-27.4" font-family="Helvetica,sans-Serif" font-size="12.00" fill="#000000">has&#45;a</text>
</g>
</g>
</svg>
