<?xml version="1.0" encoding="UTF-8" standalone="no"?>
<!DOCTYPE svg PUBLIC "-//W3C//DTD SVG 1.1//EN"
 "http://www.w3.org/Graphics/SVG/1.1/DTD/svg11.dtd">
<!-- Generated by graphviz version 2.40.1 (20161225.0304)
 -->
<!-- Title: graphic Pages: 1 -->
<svg width="445pt" height="45pt"
 viewBox="0.00 0.00 445.00 45.00" xmlns="http://www.w3.org/2000/svg" xmlns:xlink="http://www.w3.org/1999/xlink">
<g id="graph0" class="graph" transform="scale(1 1) rotate(0) translate(4 41)">
<title>graphic</title>
<polygon fill="#ffffff" stroke="transparent" points="-4,4 -4,-41 441,-41 441,4 -4,4"/>
<!-- hs:WagesPayGradeCode -->
<g id="node1" class="node">
<title>hs:WagesPayGradeCode</title>
<text text-anchor="start" x="158.5" y="-21.4" font-family="Helvetica,sans-Serif" font-weight="bold" font-size="12.00" fill="#000000">hs:WagesPayGradeCode</text>
<polygon fill="none" stroke="#ff0000" stroke-width="5" points="154.5,-14 154.5,-34 304.5,-34 304.5,-14 154.5,-14"/>
</g>
<!-- nc:TextType -->
<g id="node3" class="node">
<title>nc:TextType</title>
<g id="a_node3_0"><a xlink:href="../../nc/TextType/#diagram" xlink:title="A data type for a character string." target="_top">
<text text-anchor="start" x="368.5" y="-20.4" font-family="Helvetica,sans-Serif" font-size="12.00" fill="#000000">nc:TextType</text>
</a>
</g>
<polygon fill="none" stroke="#000000" points="366,-15.5 366,-32.5 437,-32.5 437,-15.5 366,-15.5"/>
</g>
<!-- hs:WagesPayGradeCode&#45;&gt;nc:TextType -->
<g id="edge2" class="edge">
<title>hs:WagesPayGradeCode&#45;&gt;nc:TextType</title>
<path fill="none" stroke="#000000" d="M307.1971,-24C323.6738,-24 340.5609,-24 355.4087,-24"/>
<polygon fill="#000000" stroke="#000000" points="355.8248,-27.5001 365.8248,-24 355.8248,-20.5001 355.8248,-27.5001"/>
<text text-anchor="middle" x="336.5" y="-27.4" font-family="Helvetica,sans-Serif" font-size="12.00" fill="#000000">type</text>
</g>
<!-- Types -->
<g id="node2" class="node">
<title>Types</title>
<text text-anchor="start" x="2.5" y="-21.4" font-family="Helvetica,sans-Serif" font-weight="bold" font-size="12.00" fill="#000000">Types</text>
<g id="a_node2_1"><a xlink:href="../../hs/WagesType/#diagram" xlink:title="A data type for Wages Class" target="_top">
<polygon fill="#ebebeb" stroke="transparent" points="1.5,-1 1.5,-16 84.5,-16 84.5,-1 1.5,-1"/>
<text text-anchor="start" x="2.5" y="-5.4" font-family="Helvetica,sans-Serif" font-size="12.00" fill="#000000">hs:WagesType</text>
</a>
</g>
<polygon fill="#000000" stroke="#000000" points=".5,-16 .5,-16 85.5,-16 85.5,-16 .5,-16"/>
<polygon fill="none" stroke="#000000" points="0,0 0,-32 85,-32 85,0 0,0"/>
</g>
<!-- Types&#45;&gt;hs:WagesPayGradeCode -->
<g id="edge1" class="edge">
<title>Types:top&#45;&gt;hs:WagesPayGradeCode</title>
<path fill="none" stroke="#000000" d="M84.5,-24C103.0646,-24 122.9661,-24 141.8937,-24"/>
<polygon fill="#000000" stroke="#000000" points="141.9912,-27.5001 151.9912,-24 141.9911,-20.5001 141.9912,-27.5001"/>
<text text-anchor="middle" x="118.5" y="-27.4" font-family="Helvetica,sans-Serif" font-size="12.00" fill="#000000">has&#45;a</text>
</g>
</g>
</svg>
