<?xml version="1.0" encoding="UTF-8" standalone="no"?>
<!DOCTYPE svg PUBLIC "-//W3C//DTD SVG 1.1//EN"
 "http://www.w3.org/Graphics/SVG/1.1/DTD/svg11.dtd">
<!-- Generated by graphviz version 2.40.1 (20161225.0304)
 -->
<!-- Title: graphic Pages: 1 -->
<svg width="295pt" height="101pt"
 viewBox="0.00 0.00 295.00 101.00" xmlns="http://www.w3.org/2000/svg" xmlns:xlink="http://www.w3.org/1999/xlink">
<g id="graph0" class="graph" transform="scale(1 1) rotate(0) translate(4 97)">
<title>graphic</title>
<polygon fill="#ffffff" stroke="transparent" points="-4,4 -4,-97 291,-97 291,4 -4,4"/>
<!-- j:RiskLevelAbstract -->
<g id="node1" class="node">
<title>j:RiskLevelAbstract</title>
<text text-anchor="start" x="151.5" y="-77.4" font-family="Helvetica,sans-Serif" font-weight="bold" font-size="12.00" fill="#000000">j:RiskLevelAbstract</text>
<polygon fill="none" stroke="#ff0000" stroke-width="5" points="147.5,-70 147.5,-90 267.5,-90 267.5,-70 147.5,-70"/>
</g>
<!-- SubstitutableElements -->
<g id="node3" class="node">
<title>SubstitutableElements</title>
<text text-anchor="start" x="130.5" y="-21.4" font-family="Helvetica,sans-Serif" font-weight="bold" font-size="12.00" fill="#000000">Substitutable elements</text>
<g id="a_node3_0"><a xlink:href="../../j/RiskLevelText/#diagram" xlink:title="A kind of risk level." target="_top">
<polygon fill="#ebebeb" stroke="transparent" points="129.5,-1 129.5,-16 286.5,-16 286.5,-1 129.5,-1"/>
<text text-anchor="start" x="130.5" y="-5.4" font-family="Helvetica,sans-Serif" font-size="12.00" fill="#000000">j:RiskLevelText: nc:TextType</text>
</a>
</g>
<polygon fill="#000000" stroke="#000000" points="128.5,-16 128.5,-16 287.5,-16 287.5,-16 128.5,-16"/>
<polygon fill="none" stroke="#000000" points="128,0 128,-32 287,-32 287,0 128,0"/>
</g>
<!-- j:RiskLevelAbstract&#45;&gt;SubstitutableElements -->
<g id="edge2" class="edge">
<title>j:RiskLevelAbstract&#45;&gt;SubstitutableElements</title>
<path fill="none" stroke="#000000" d="M207.5,-57.3063C207.5,-48.9972 207.5,-39.7712 207.5,-32.1499"/>
<polygon fill="#000000" stroke="#000000" points="204.0001,-57.4892 207.5,-67.4892 211.0001,-57.4892 204.0001,-57.4892"/>
<text text-anchor="middle" x="198" y="-46.65" font-family="Helvetica,sans-Serif" font-size="12.00" fill="#000000">substitutable for</text>
</g>
<!-- Types -->
<g id="node2" class="node">
<title>Types</title>
<text text-anchor="start" x="2.5" y="-77.4" font-family="Helvetica,sans-Serif" font-weight="bold" font-size="12.00" fill="#000000">Types</text>
<g id="a_node2_1"><a xlink:href="../../j/RiskType/#diagram" xlink:title="A data type for a field from COMPAS that identifies the risk that needs to be addressed during programming for community rehabilitation." target="_top">
<polygon fill="#ebebeb" stroke="transparent" points="1.5,-57 1.5,-72 60.5,-72 60.5,-57 1.5,-57"/>
<text text-anchor="start" x="2.5" y="-61.4" font-family="Helvetica,sans-Serif" font-size="12.00" fill="#000000">j:RiskType</text>
</a>
</g>
<polygon fill="#000000" stroke="#000000" points=".5,-72 .5,-72 61.5,-72 61.5,-72 .5,-72"/>
<polygon fill="none" stroke="#000000" points="0,-56 0,-88 61,-88 61,-56 0,-56"/>
</g>
<!-- Types&#45;&gt;j:RiskLevelAbstract -->
<g id="edge1" class="edge">
<title>Types:top&#45;&gt;j:RiskLevelAbstract</title>
<path fill="none" stroke="#000000" d="M60.5,-80C84.6207,-80 110.9677,-80 134.6093,-80"/>
<polygon fill="#000000" stroke="#000000" points="134.9113,-83.5001 144.9112,-80 134.9112,-76.5001 134.9113,-83.5001"/>
<text text-anchor="middle" x="94.5" y="-83.4" font-family="Helvetica,sans-Serif" font-size="12.00" fill="#000000">has&#45;a</text>
</g>
</g>
</svg>
