<?xml version="1.0" encoding="UTF-8" standalone="no"?>
<!DOCTYPE svg PUBLIC "-//W3C//DTD SVG 1.1//EN"
 "http://www.w3.org/Graphics/SVG/1.1/DTD/svg11.dtd">
<!-- Generated by graphviz version 2.40.1 (20161225.0304)
 -->
<!-- Title: graphic Pages: 1 -->
<svg width="392pt" height="45pt"
 viewBox="0.00 0.00 392.00 45.00" xmlns="http://www.w3.org/2000/svg" xmlns:xlink="http://www.w3.org/1999/xlink">
<g id="graph0" class="graph" transform="scale(1 1) rotate(0) translate(4 41)">
<title>graphic</title>
<polygon fill="#ffffff" stroke="transparent" points="-4,4 -4,-41 388,-41 388,4 -4,4"/>
<!-- em:ResponderAugmentationPoint -->
<g id="node1" class="node">
<title>em:ResponderAugmentationPoint</title>
<text text-anchor="start" x="183.5" y="-21.4" font-family="Helvetica,sans-Serif" font-weight="bold" font-size="12.00" fill="#000000">em:ResponderAugmentationPoint</text>
<polygon fill="none" stroke="#ff0000" stroke-width="5" points="179.5,-14 179.5,-34 381.5,-34 381.5,-14 179.5,-14"/>
</g>
<!-- Types -->
<g id="node2" class="node">
<title>Types</title>
<text text-anchor="start" x="2" y="-21.4" font-family="Helvetica,sans-Serif" font-weight="bold" font-size="12.00" fill="#000000">Types</text>
<g id="a_node2_0"><a xlink:href="../../em/ResponderType/#diagram" xlink:title="A data type for an expert or staff that participates in emergency preparedness and response activities." target="_top">
<polygon fill="#ebebeb" stroke="transparent" points="1,-1 1,-16 109,-16 109,-1 1,-1"/>
<text text-anchor="start" x="2" y="-5.4" font-family="Helvetica,sans-Serif" font-size="12.00" fill="#000000">em:ResponderType</text>
</a>
</g>
<polygon fill="#000000" stroke="#000000" points="0,-16 0,-16 110,-16 110,-16 0,-16"/>
<polygon fill="none" stroke="#000000" points="0,0 0,-32 110,-32 110,0 0,0"/>
</g>
<!-- Types&#45;&gt;em:ResponderAugmentationPoint -->
<g id="edge1" class="edge">
<title>Types:top&#45;&gt;em:ResponderAugmentationPoint</title>
<path fill="none" stroke="#000000" d="M109,-24C127.6357,-24 147.4105,-24 166.6533,-24"/>
<polygon fill="#000000" stroke="#000000" points="166.6588,-27.5001 176.6588,-24 166.6587,-20.5001 166.6588,-27.5001"/>
<text text-anchor="middle" x="143.5" y="-27.4" font-family="Helvetica,sans-Serif" font-size="12.00" fill="#000000">has&#45;a</text>
</g>
</g>
</svg>
