<?xml version="1.0" encoding="UTF-8" standalone="no"?>
<!DOCTYPE svg PUBLIC "-//W3C//DTD SVG 1.1//EN"
 "http://www.w3.org/Graphics/SVG/1.1/DTD/svg11.dtd">
<!-- Generated by graphviz version 2.40.1 (20161225.0304)
 -->
<!-- Title: graphic Pages: 1 -->
<svg width="534pt" height="45pt"
 viewBox="0.00 0.00 534.00 45.00" xmlns="http://www.w3.org/2000/svg" xmlns:xlink="http://www.w3.org/1999/xlink">
<g id="graph0" class="graph" transform="scale(1 1) rotate(0) translate(4 41)">
<title>graphic</title>
<polygon fill="#ffffff" stroke="transparent" points="-4,4 -4,-41 530,-41 530,4 -4,4"/>
<!-- intel:AgencySubjectInterestAugmentationPoint -->
<g id="node1" class="node">
<title>intel:AgencySubjectInterestAugmentationPoint</title>
<text text-anchor="start" x="250" y="-21.4" font-family="Helvetica,sans-Serif" font-weight="bold" font-size="12.00" fill="#000000">intel:AgencySubjectInterestAugmentationPoint</text>
<polygon fill="none" stroke="#ff0000" stroke-width="5" points="246.5,-14 246.5,-34 523.5,-34 523.5,-14 246.5,-14"/>
</g>
<!-- Types -->
<g id="node2" class="node">
<title>Types</title>
<text text-anchor="start" x="2.5" y="-21.4" font-family="Helvetica,sans-Serif" font-weight="bold" font-size="12.00" fill="#000000">Types</text>
<g id="a_node2_0"><a xlink:href="../../intel/AgencySubjectInterestType/#diagram" xlink:title="A data type for a detailed description of why an agency placed the person in its repository or why the data on the person is being exchanged." target="_top">
<polygon fill="#ebebeb" stroke="transparent" points="1.5,-1 1.5,-16 176.5,-16 176.5,-1 1.5,-1"/>
<text text-anchor="start" x="2.5" y="-5.4" font-family="Helvetica,sans-Serif" font-size="12.00" fill="#000000">intel:AgencySubjectInterestType</text>
</a>
</g>
<polygon fill="#000000" stroke="#000000" points=".5,-16 .5,-16 177.5,-16 177.5,-16 .5,-16"/>
<polygon fill="none" stroke="#000000" points="0,0 0,-32 177,-32 177,0 0,0"/>
</g>
<!-- Types&#45;&gt;intel:AgencySubjectInterestAugmentationPoint -->
<g id="edge1" class="edge">
<title>Types:top&#45;&gt;intel:AgencySubjectInterestAugmentationPoint</title>
<path fill="none" stroke="#000000" d="M176.5,-24C195.0719,-24 214.5744,-24 233.8884,-24"/>
<polygon fill="#000000" stroke="#000000" points="233.9654,-27.5001 243.9653,-24 233.9653,-20.5001 233.9654,-27.5001"/>
<text text-anchor="middle" x="210.5" y="-27.4" font-family="Helvetica,sans-Serif" font-size="12.00" fill="#000000">has&#45;a</text>
</g>
</g>
</svg>
