<?xml version="1.0" encoding="UTF-8" standalone="no"?>
<!DOCTYPE svg PUBLIC "-//W3C//DTD SVG 1.1//EN"
 "http://www.w3.org/Graphics/SVG/1.1/DTD/svg11.dtd">
<!-- Generated by graphviz version 2.40.1 (20161225.0304)
 -->
<!-- Title: graphic Pages: 1 -->
<svg width="445pt" height="111pt"
 viewBox="0.00 0.00 445.00 111.00" xmlns="http://www.w3.org/2000/svg" xmlns:xlink="http://www.w3.org/1999/xlink">
<g id="graph0" class="graph" transform="scale(1 1) rotate(0) translate(4 107)">
<title>graphic</title>
<polygon fill="#ffffff" stroke="transparent" points="-4,4 -4,-107 441,-107 441,4 -4,4"/>
<!-- cbrn:PositiveIntegerType -->
<g id="node1" class="node">
<title>cbrn:PositiveIntegerType</title>
<text text-anchor="start" x="225" y="-35.9" font-family="Helvetica,sans-Serif" font-weight="bold" font-size="12.00" fill="#000000">cbrn:PositiveIntegerType</text>
<g id="a_node1_0"><a xlink:href="../../structures/SimpleObjectAttributeGroup/#diagram" xlink:title="A group of attributes that are applicable to objects, to be used when defining a complex type that is an extension of a simple type." target="_top">
<polygon fill="#ebebeb" stroke="transparent" points="224,-15.5 224,-30.5 432,-30.5 432,-15.5 224,-15.5"/>
<text text-anchor="start" x="225" y="-19.9" font-family="Helvetica,sans-Serif" font-size="12.00" fill="#000000">structures:SimpleObjectAttributeGroup</text>
</a>
</g>
<polygon fill="#ff0000" stroke="#ff0000" points="219,-30.5 219,-30.5 437,-30.5 437,-30.5 219,-30.5"/>
<polygon fill="none" stroke="#ff0000" stroke-width="5" points="221.5,-13 221.5,-48 434.5,-48 434.5,-13 221.5,-13"/>
</g>
<!-- Properties -->
<g id="node2" class="node">
<title>Properties</title>
<text text-anchor="start" x="2" y="-35.9" font-family="Helvetica,sans-Serif" font-weight="bold" font-size="12.00" fill="#000000">Properties</text>
<g id="a_node2_1"><a xlink:href="../../cbrn/LayerQuantity/#diagram" xlink:title="A number of shielding layers observed." target="_top">
<polygon fill="#ebebeb" stroke="transparent" points="1,-15.5 1,-30.5 159,-30.5 159,-15.5 1,-15.5"/>
<text text-anchor="start" x="2" y="-19.9" font-family="Helvetica,sans-Serif" font-size="12.00" fill="#000000">cbrn:LayerQuantity</text>
</a>
</g>
<g id="a_node2_2"><a xlink:href="../../cbrn/LayerSequenceNumeric/#diagram" xlink:title="A number for the sequence of a layer, if there is more than one layer . The outermost layer is 1." target="_top">
<text text-anchor="start" x="2" y="-4.9" font-family="Helvetica,sans-Serif" font-size="12.00" fill="#000000">cbrn:LayerSequenceNumeric</text>
</a>
</g>
<polygon fill="#000000" stroke="#000000" points="0,-30.5 0,-30.5 160,-30.5 160,-30.5 0,-30.5"/>
<polygon fill="none" stroke="#000000" points="0,0 0,-47 160,-47 160,0 0,0"/>
</g>
<!-- Properties&#45;&gt;cbrn:PositiveIntegerType -->
<g id="edge1" class="edge">
<title>Properties:top&#45;&gt;cbrn:PositiveIntegerType:top</title>
<path fill="none" stroke="#000000" d="M159,-38.5C184.1649,-38.5 192.8891,-38.5 213.8154,-38.5"/>
<polygon fill="#000000" stroke="#000000" points="214,-42.0001 224,-38.5 214,-35.0001 214,-42.0001"/>
<text text-anchor="middle" x="189.5" y="-41.9" font-family="Helvetica,sans-Serif" font-size="12.00" fill="#000000">type</text>
</g>
<!-- xs:positiveInteger -->
<g id="node3" class="node">
<title>xs:positiveInteger</title>
<g id="a_node3_3"><a xlink:href="../../xs/positiveInteger/#diagram" xlink:title="&lt;TABLE&gt;" target="_top">
<text text-anchor="start" x="281" y="-90.9" font-family="Helvetica,sans-Serif" font-size="12.00" fill="#000000">xs:positiveInteger</text>
</a>
</g>
<polygon fill="none" stroke="#000000" points="279,-86 279,-103 377,-103 377,-86 279,-86"/>
</g>
<!-- xs:positiveInteger&#45;&gt;cbrn:PositiveIntegerType -->
<g id="edge2" class="edge">
<title>xs:positiveInteger&#45;&gt;cbrn:PositiveIntegerType</title>
<path fill="none" stroke="#000000" d="M328,-85.9351C328,-79.431 328,-70.0678 328,-60.8827"/>
<polygon fill="#000000" stroke="#000000" points="331.5001,-60.75 328,-50.75 324.5001,-60.75 331.5001,-60.75"/>
<text text-anchor="middle" x="318.5" y="-65.15" font-family="Helvetica,sans-Serif" font-size="12.00" fill="#000000">extension</text>
</g>
</g>
</svg>
