<?xml version="1.0" encoding="UTF-8" standalone="no"?>
<!DOCTYPE svg PUBLIC "-//W3C//DTD SVG 1.1//EN"
 "http://www.w3.org/Graphics/SVG/1.1/DTD/svg11.dtd">
<!-- Generated by graphviz version 2.40.1 (20161225.0304)
 -->
<!-- Title: graphic Pages: 1 -->
<svg width="759pt" height="98pt"
 viewBox="0.00 0.00 759.00 97.50" xmlns="http://www.w3.org/2000/svg" xmlns:xlink="http://www.w3.org/1999/xlink">
<g id="graph0" class="graph" transform="scale(1 1) rotate(0) translate(4 93.5)">
<title>graphic</title>
<polygon fill="#ffffff" stroke="transparent" points="-4,4 -4,-93.5 755,-93.5 755,4 -4,4"/>
<!-- nc:LocationUTMCoordinateValue -->
<g id="node1" class="node">
<title>nc:LocationUTMCoordinateValue</title>
<text text-anchor="start" x="352" y="-21.4" font-family="Helvetica,sans-Serif" font-weight="bold" font-size="12.00" fill="#000000">nc:LocationUTMCoordinateValue</text>
<polygon fill="none" stroke="#ff0000" stroke-width="5" points="348.5,-14 348.5,-34 545.5,-34 545.5,-14 348.5,-14"/>
</g>
<!-- nc:UTMCoordinateType -->
<g id="node4" class="node">
<title>nc:UTMCoordinateType</title>
<g id="a_node4_0"><a xlink:href="../../nc/UTMCoordinateType/#diagram" xlink:title="A data type for a coordinate from the Universal Transverse Mercator (UTM) Coordinate System, which represents a location with a hemisphere, zone, an easting value, and a northing value." target="_top">
<text text-anchor="start" x="621" y="-20.4" font-family="Helvetica,sans-Serif" font-size="12.00" fill="#000000">nc:UTMCoordinateType</text>
</a>
</g>
<polygon fill="none" stroke="#000000" points="619,-15.5 619,-32.5 751,-32.5 751,-15.5 619,-15.5"/>
</g>
<!-- nc:LocationUTMCoordinateValue&#45;&gt;nc:UTMCoordinateType -->
<g id="edge3" class="edge">
<title>nc:LocationUTMCoordinateValue&#45;&gt;nc:UTMCoordinateType</title>
<path fill="none" stroke="#000000" d="M548.2785,-24C568.5477,-24 589.5186,-24 608.7674,-24"/>
<polygon fill="#000000" stroke="#000000" points="608.9649,-27.5001 618.9649,-24 608.9648,-20.5001 608.9649,-27.5001"/>
<text text-anchor="middle" x="589.5" y="-27.4" font-family="Helvetica,sans-Serif" font-size="12.00" fill="#000000">type</text>
</g>
<!-- Types -->
<g id="node2" class="node">
<title>Types</title>
<text text-anchor="start" x="2.5" y="-21.4" font-family="Helvetica,sans-Serif" font-weight="bold" font-size="12.00" fill="#000000">Types</text>
<g id="a_node2_1"><a xlink:href="../../biom/GeographicSampleAcquisitionLocationType/#diagram" xlink:title="A data type to contain the location where the biometric sample/original source/context information was acquired." target="_top">
<polygon fill="#ebebeb" stroke="transparent" points="1.5,-1 1.5,-16 266.5,-16 266.5,-1 1.5,-1"/>
<text text-anchor="start" x="2.5" y="-5.4" font-family="Helvetica,sans-Serif" font-size="12.00" fill="#000000">biom:GeographicSampleAcquisitionLocationType</text>
</a>
</g>
<polygon fill="#000000" stroke="#000000" points=".5,-16 .5,-16 267.5,-16 267.5,-16 .5,-16"/>
<polygon fill="none" stroke="#000000" points="0,0 0,-32 267,-32 267,0 0,0"/>
</g>
<!-- Types&#45;&gt;nc:LocationUTMCoordinateValue -->
<g id="edge1" class="edge">
<title>Types:top&#45;&gt;nc:LocationUTMCoordinateValue</title>
<path fill="none" stroke="#000000" d="M266.5,-24C288.8838,-24 312.829,-24 335.7215,-24"/>
<polygon fill="#000000" stroke="#000000" points="335.807,-27.5001 345.807,-24 335.807,-20.5001 335.807,-27.5001"/>
<text text-anchor="middle" x="300.5" y="-27.4" font-family="Helvetica,sans-Serif" font-size="12.00" fill="#000000">has&#45;a</text>
</g>
<!-- SubstitutionGroup -->
<g id="node3" class="node">
<title>SubstitutionGroup</title>
<g id="a_node3_2"><a xlink:href="../../nc/LocationGeospatialCoordinateAbstract/#diagram" xlink:title="A data concept for a geospatial location." target="_top">
<text text-anchor="start" x="336" y="-77.4" font-family="Helvetica,sans-Serif" font-size="12.00" fill="#000000">nc:LocationGeospatialCoordinateAbstract</text>
</a>
</g>
<polygon fill="none" stroke="#000000" points="334,-72.5 334,-89.5 560,-89.5 560,-72.5 334,-72.5"/>
</g>
<!-- SubstitutionGroup&#45;&gt;nc:LocationUTMCoordinateValue -->
<g id="edge2" class="edge">
<title>SubstitutionGroup&#45;&gt;nc:LocationUTMCoordinateValue</title>
<path fill="none" stroke="#000000" d="M447,-62.4163C447,-53.9809 447,-44.2214 447,-36.6501"/>
<polygon fill="#000000" stroke="#000000" points="443.5001,-62.4472 447,-72.4473 450.5001,-62.4473 443.5001,-62.4472"/>
<text text-anchor="middle" x="437.5" y="-51.4" font-family="Helvetica,sans-Serif" font-size="12.00" fill="#000000">substitution group</text>
</g>
</g>
</svg>
