<?xml version="1.0" encoding="UTF-8" standalone="no"?>
<!DOCTYPE svg PUBLIC "-//W3C//DTD SVG 1.1//EN"
 "http://www.w3.org/Graphics/SVG/1.1/DTD/svg11.dtd">
<!-- Generated by graphviz version 2.40.1 (20161225.0304)
 -->
<!-- Title: graphic Pages: 1 -->
<svg width="550pt" height="45pt"
 viewBox="0.00 0.00 550.00 45.00" xmlns="http://www.w3.org/2000/svg" xmlns:xlink="http://www.w3.org/1999/xlink">
<g id="graph0" class="graph" transform="scale(1 1) rotate(0) translate(4 41)">
<title>graphic</title>
<polygon fill="#ffffff" stroke="transparent" points="-4,4 -4,-41 546,-41 546,4 -4,4"/>
<!-- stat:LogEventCategoryCode -->
<g id="node1" class="node">
<title>stat:LogEventCategoryCode</title>
<text text-anchor="start" x="243.5" y="-21.4" font-family="Helvetica,sans-Serif" font-weight="bold" font-size="12.00" fill="#000000">stat:LogEventCategoryCode</text>
<polygon fill="none" stroke="#ff0000" stroke-width="5" points="239.5,-14 239.5,-34 409.5,-34 409.5,-14 239.5,-14"/>
</g>
<!-- nc:TextType -->
<g id="node3" class="node">
<title>nc:TextType</title>
<g id="a_node3_0"><a xlink:href="../../nc/TextType/#diagram" xlink:title="A data type for a character string." target="_top">
<text text-anchor="start" x="473.5" y="-20.4" font-family="Helvetica,sans-Serif" font-size="12.00" fill="#000000">nc:TextType</text>
</a>
</g>
<polygon fill="none" stroke="#000000" points="471,-15.5 471,-32.5 542,-32.5 542,-15.5 471,-15.5"/>
</g>
<!-- stat:LogEventCategoryCode&#45;&gt;nc:TextType -->
<g id="edge2" class="edge">
<title>stat:LogEventCategoryCode&#45;&gt;nc:TextType</title>
<path fill="none" stroke="#000000" d="M412.0349,-24C428.7425,-24 445.606,-24 460.3684,-24"/>
<polygon fill="#000000" stroke="#000000" points="460.7141,-27.5001 470.714,-24 460.714,-20.5001 460.7141,-27.5001"/>
<text text-anchor="middle" x="441.5" y="-27.4" font-family="Helvetica,sans-Serif" font-size="12.00" fill="#000000">type</text>
</g>
<!-- Types -->
<g id="node2" class="node">
<title>Types</title>
<text text-anchor="start" x="2" y="-21.4" font-family="Helvetica,sans-Serif" font-weight="bold" font-size="12.00" fill="#000000">Types</text>
<g id="a_node2_1"><a xlink:href="../../stat/ProcessExecutionLogType/#diagram" xlink:title="A data type for a process execution log captures the output of a process step which is not directly related to the transformed output it produced. It may include data that was recorded during the real time execution of the process step." target="_top">
<polygon fill="#ebebeb" stroke="transparent" points="1,-1 1,-16 169,-16 169,-1 1,-1"/>
<text text-anchor="start" x="2" y="-5.4" font-family="Helvetica,sans-Serif" font-size="12.00" fill="#000000">stat:ProcessExecutionLogType</text>
</a>
</g>
<polygon fill="#000000" stroke="#000000" points="0,-16 0,-16 170,-16 170,-16 0,-16"/>
<polygon fill="none" stroke="#000000" points="0,0 0,-32 170,-32 170,0 0,0"/>
</g>
<!-- Types&#45;&gt;stat:LogEventCategoryCode -->
<g id="edge1" class="edge">
<title>Types:top&#45;&gt;stat:LogEventCategoryCode</title>
<path fill="none" stroke="#000000" d="M169,-24C187.6503,-24 207.5588,-24 226.6883,-24"/>
<polygon fill="#000000" stroke="#000000" points="226.915,-27.5001 236.915,-24 226.915,-20.5001 226.915,-27.5001"/>
<text text-anchor="middle" x="203.5" y="-27.4" font-family="Helvetica,sans-Serif" font-size="12.00" fill="#000000">has&#45;a</text>
</g>
</g>
</svg>
