<?xml version="1.0" encoding="UTF-8" standalone="no"?>
<!DOCTYPE svg PUBLIC "-//W3C//DTD SVG 1.1//EN"
 "http://www.w3.org/Graphics/SVG/1.1/DTD/svg11.dtd">
<!-- Generated by graphviz version 2.40.1 (20161225.0304)
 -->
<!-- Title: graphic Pages: 1 -->
<svg width="593pt" height="45pt"
 viewBox="0.00 0.00 593.00 45.00" xmlns="http://www.w3.org/2000/svg" xmlns:xlink="http://www.w3.org/1999/xlink">
<g id="graph0" class="graph" transform="scale(1 1) rotate(0) translate(4 41)">
<title>graphic</title>
<polygon fill="#ffffff" stroke="transparent" points="-4,4 -4,-41 589,-41 589,4 -4,4"/>
<!-- it:ConsortiumCarrierIdentification -->
<g id="node1" class="node">
<title>it:ConsortiumCarrierIdentification</title>
<text text-anchor="start" x="212.5" y="-21.4" font-family="Helvetica,sans-Serif" font-weight="bold" font-size="12.00" fill="#000000">it:ConsortiumCarrierIdentification</text>
<polygon fill="none" stroke="#ff0000" stroke-width="5" points="208.5,-14 208.5,-34 408.5,-34 408.5,-14 208.5,-14"/>
</g>
<!-- nc:IdentificationType -->
<g id="node3" class="node">
<title>nc:IdentificationType</title>
<g id="a_node3_0"><a xlink:href="../../nc/IdentificationType/#diagram" xlink:title="A data type for a representation of an identity." target="_top">
<text text-anchor="start" x="472.5" y="-20.4" font-family="Helvetica,sans-Serif" font-size="12.00" fill="#000000">nc:IdentificationType</text>
</a>
</g>
<polygon fill="none" stroke="#000000" points="470,-15.5 470,-32.5 585,-32.5 585,-15.5 470,-15.5"/>
</g>
<!-- it:ConsortiumCarrierIdentification&#45;&gt;nc:IdentificationType -->
<g id="edge2" class="edge">
<title>it:ConsortiumCarrierIdentification&#45;&gt;nc:IdentificationType</title>
<path fill="none" stroke="#000000" d="M411.267,-24C427.6104,-24 444.1545,-24 459.4358,-24"/>
<polygon fill="#000000" stroke="#000000" points="459.7954,-27.5001 469.7953,-24 459.7953,-20.5001 459.7954,-27.5001"/>
<text text-anchor="middle" x="440.5" y="-27.4" font-family="Helvetica,sans-Serif" font-size="12.00" fill="#000000">type</text>
</g>
<!-- Types -->
<g id="node2" class="node">
<title>Types</title>
<text text-anchor="start" x="2.5" y="-21.4" font-family="Helvetica,sans-Serif" font-weight="bold" font-size="12.00" fill="#000000">Types</text>
<g id="a_node2_1"><a xlink:href="../../it/ConsortiumCarrierType/#diagram" xlink:title="A data type representing the Name [and address] of the consortium carrier." target="_top">
<polygon fill="#ebebeb" stroke="transparent" points="1.5,-1 1.5,-16 138.5,-16 138.5,-1 1.5,-1"/>
<text text-anchor="start" x="2.5" y="-5.4" font-family="Helvetica,sans-Serif" font-size="12.00" fill="#000000">it:ConsortiumCarrierType</text>
</a>
</g>
<polygon fill="#000000" stroke="#000000" points=".5,-16 .5,-16 139.5,-16 139.5,-16 .5,-16"/>
<polygon fill="none" stroke="#000000" points="0,0 0,-32 139,-32 139,0 0,0"/>
</g>
<!-- Types&#45;&gt;it:ConsortiumCarrierIdentification -->
<g id="edge1" class="edge">
<title>Types:top&#45;&gt;it:ConsortiumCarrierIdentification</title>
<path fill="none" stroke="#000000" d="M138.5,-24C156.888,-24 176.3947,-24 195.3865,-24"/>
<polygon fill="#000000" stroke="#000000" points="195.567,-27.5001 205.567,-24 195.567,-20.5001 195.567,-27.5001"/>
<text text-anchor="middle" x="172.5" y="-27.4" font-family="Helvetica,sans-Serif" font-size="12.00" fill="#000000">has&#45;a</text>
</g>
</g>
</svg>
