<?xml version="1.0" encoding="UTF-8" standalone="no"?>
<!DOCTYPE svg PUBLIC "-//W3C//DTD SVG 1.1//EN"
 "http://www.w3.org/Graphics/SVG/1.1/DTD/svg11.dtd">
<!-- Generated by graphviz version 2.40.1 (20161225.0304)
 -->
<!-- Title: graphic Pages: 1 -->
<svg width="501pt" height="154pt"
 viewBox="0.00 0.00 501.00 153.50" xmlns="http://www.w3.org/2000/svg" xmlns:xlink="http://www.w3.org/1999/xlink">
<g id="graph0" class="graph" transform="scale(1 1) rotate(0) translate(4 149.5)">
<title>graphic</title>
<polygon fill="#ffffff" stroke="transparent" points="-4,4 -4,-149.5 497,-149.5 497,4 -4,4"/>
<!-- hs:MedicationUseFrequencyCodeType -->
<g id="node1" class="node">
<title>hs:MedicationUseFrequencyCodeType</title>
<text text-anchor="start" x="257.5" y="-25.4" font-family="Helvetica,sans-Serif" font-weight="bold" font-size="12.00" fill="#000000">hs:MedicationUseFrequencyCodeType</text>
<g id="a_node1_0"><a xlink:href="../../structures/SimpleObjectAttributeGroup/#diagram" xlink:title="A group of attributes that are applicable to objects, to be used when defining a complex type that is an extension of a simple type." target="_top">
<polygon fill="#ebebeb" stroke="transparent" points="256.5,-5 256.5,-20 480.5,-20 480.5,-5 256.5,-5"/>
<text text-anchor="start" x="257.5" y="-9.4" font-family="Helvetica,sans-Serif" font-size="12.00" fill="#000000">structures:SimpleObjectAttributeGroup</text>
</a>
</g>
<polygon fill="#ff0000" stroke="#ff0000" points="251.5,-20 251.5,-20 485.5,-20 485.5,-20 251.5,-20"/>
<polygon fill="none" stroke="#ff0000" stroke-width="5" points="254,-2.5 254,-37.5 483,-37.5 483,-2.5 254,-2.5"/>
</g>
<!-- Properties -->
<g id="node2" class="node">
<title>Properties</title>
<text text-anchor="start" x="2.5" y="-25.4" font-family="Helvetica,sans-Serif" font-weight="bold" font-size="12.00" fill="#000000">Properties</text>
<g id="a_node2_1"><a xlink:href="../../hs/MedicationUseFrequencyCode/#diagram" xlink:title="A frequency of medication use, e.g. daily with food, as needed for discomfort, not more than every 8 hours, etc." target="_top">
<polygon fill="#ebebeb" stroke="transparent" points="1.5,-5 1.5,-20 184.5,-20 184.5,-5 1.5,-5"/>
<text text-anchor="start" x="2.5" y="-9.4" font-family="Helvetica,sans-Serif" font-size="12.00" fill="#000000">hs:MedicationUseFrequencyCode</text>
</a>
</g>
<polygon fill="#000000" stroke="#000000" points=".5,-20 .5,-20 185.5,-20 185.5,-20 .5,-20"/>
<polygon fill="none" stroke="#000000" points="0,-4 0,-36 185,-36 185,-4 0,-4"/>
</g>
<!-- Properties&#45;&gt;hs:MedicationUseFrequencyCodeType -->
<g id="edge1" class="edge">
<title>Properties:top&#45;&gt;hs:MedicationUseFrequencyCodeType:top</title>
<path fill="none" stroke="#000000" d="M184.5,-28C212.875,-28 222.3795,-28 246.4792,-28"/>
<polygon fill="#000000" stroke="#000000" points="246.5,-31.5001 256.5,-28 246.5,-24.5001 246.5,-31.5001"/>
<text text-anchor="middle" x="214.5" y="-31.4" font-family="Helvetica,sans-Serif" font-size="12.00" fill="#000000">type</text>
</g>
<!-- hs:MedicationUseFrequencyCodeSimpleType -->
<g id="node3" class="node">
<title>hs:MedicationUseFrequencyCodeSimpleType</title>
<g id="a_node3_2"><a xlink:href="../../hs/MedicationUseFrequencyCodeSimpleType/#diagram" xlink:title="A data type for describing the medication use frequency." target="_top">
<text text-anchor="start" x="246.5" y="-80.4" font-family="Helvetica,sans-Serif" font-size="12.00" fill="#000000">hs:MedicationUseFrequencyCodeSimpleType</text>
</a>
</g>
<polygon fill="none" stroke="#000000" points="244,-75.5 244,-92.5 493,-92.5 493,-75.5 244,-75.5"/>
</g>
<!-- hs:MedicationUseFrequencyCodeSimpleType&#45;&gt;hs:MedicationUseFrequencyCodeType -->
<g id="edge2" class="edge">
<title>hs:MedicationUseFrequencyCodeSimpleType&#45;&gt;hs:MedicationUseFrequencyCodeType</title>
<path fill="none" stroke="#000000" d="M368.5,-75.4351C368.5,-68.931 368.5,-59.5678 368.5,-50.3827"/>
<polygon fill="#000000" stroke="#000000" points="372.0001,-50.25 368.5,-40.25 365.0001,-50.25 372.0001,-50.25"/>
<text text-anchor="middle" x="359" y="-54.65" font-family="Helvetica,sans-Serif" font-size="12.00" fill="#000000">extension</text>
</g>
<!-- xs:token -->
<g id="node4" class="node">
<title>xs:token</title>
<g id="a_node4_3"><a xlink:href="../../xs/token/#diagram" xlink:title="&lt;TABLE&gt;" target="_top">
<text text-anchor="start" x="346.5" y="-133.4" font-family="Helvetica,sans-Serif" font-size="12.00" fill="#000000">xs:token</text>
</a>
</g>
<polygon fill="none" stroke="#000000" points="344,-128.5 344,-145.5 393,-145.5 393,-128.5 344,-128.5"/>
</g>
<!-- xs:token&#45;&gt;hs:MedicationUseFrequencyCodeSimpleType -->
<g id="edge3" class="edge">
<title>xs:token&#45;&gt;hs:MedicationUseFrequencyCodeSimpleType</title>
<path fill="none" stroke="#000000" d="M368.5,-128.411C368.5,-121.5124 368.5,-111.5696 368.5,-102.84"/>
<polygon fill="#000000" stroke="#000000" points="372.0001,-102.7518 368.5,-92.7519 365.0001,-102.7519 372.0001,-102.7518"/>
<text text-anchor="middle" x="359" y="-107.4" font-family="Helvetica,sans-Serif" font-size="12.00" fill="#000000">restriction</text>
</g>
</g>
</svg>
