<?xml version="1.0" encoding="UTF-8" standalone="no"?>
<!DOCTYPE svg PUBLIC "-//W3C//DTD SVG 1.1//EN"
 "http://www.w3.org/Graphics/SVG/1.1/DTD/svg11.dtd">
<!-- Generated by graphviz version 2.40.1 (20161225.0304)
 -->
<!-- Title: graphic Pages: 1 -->
<svg width="685pt" height="45pt"
 viewBox="0.00 0.00 685.00 45.00" xmlns="http://www.w3.org/2000/svg" xmlns:xlink="http://www.w3.org/1999/xlink">
<g id="graph0" class="graph" transform="scale(1 1) rotate(0) translate(4 41)">
<title>graphic</title>
<polygon fill="#ffffff" stroke="transparent" points="-4,4 -4,-41 681,-41 681,4 -4,4"/>
<!-- cbrn:ResponseAgencyContactInformation -->
<g id="node1" class="node">
<title>cbrn:ResponseAgencyContactInformation</title>
<text text-anchor="start" x="221" y="-21.4" font-family="Helvetica,sans-Serif" font-weight="bold" font-size="12.00" fill="#000000">cbrn:ResponseAgencyContactInformation</text>
<polygon fill="none" stroke="#ff0000" stroke-width="5" points="217.5,-14 217.5,-34 466.5,-34 466.5,-14 217.5,-14"/>
</g>
<!-- nc:ContactInformationType -->
<g id="node3" class="node">
<title>nc:ContactInformationType</title>
<g id="a_node3_0"><a xlink:href="../../nc/ContactInformationType/#diagram" xlink:title="A data type for how to contact a person or an organization." target="_top">
<text text-anchor="start" x="530.5" y="-20.4" font-family="Helvetica,sans-Serif" font-size="12.00" fill="#000000">nc:ContactInformationType</text>
</a>
</g>
<polygon fill="none" stroke="#000000" points="528,-15.5 528,-32.5 677,-32.5 677,-15.5 528,-15.5"/>
</g>
<!-- cbrn:ResponseAgencyContactInformation&#45;&gt;nc:ContactInformationType -->
<g id="edge2" class="edge">
<title>cbrn:ResponseAgencyContactInformation&#45;&gt;nc:ContactInformationType</title>
<path fill="none" stroke="#000000" d="M469.1975,-24C485.6191,-24 502.1055,-24 517.6117,-24"/>
<polygon fill="#000000" stroke="#000000" points="517.6494,-27.5001 527.6494,-24 517.6494,-20.5001 517.6494,-27.5001"/>
<text text-anchor="middle" x="498.5" y="-27.4" font-family="Helvetica,sans-Serif" font-size="12.00" fill="#000000">type</text>
</g>
<!-- Types -->
<g id="node2" class="node">
<title>Types</title>
<text text-anchor="start" x="2" y="-21.4" font-family="Helvetica,sans-Serif" font-weight="bold" font-size="12.00" fill="#000000">Types</text>
<g id="a_node2_1"><a xlink:href="../../cbrn/ResponseReportType/#diagram" xlink:title="A data type for a report provided in response to a request message." target="_top">
<polygon fill="#ebebeb" stroke="transparent" points="1,-1 1,-16 147,-16 147,-1 1,-1"/>
<text text-anchor="start" x="2" y="-5.4" font-family="Helvetica,sans-Serif" font-size="12.00" fill="#000000">cbrn:ResponseReportType</text>
</a>
</g>
<polygon fill="#000000" stroke="#000000" points="0,-16 0,-16 148,-16 148,-16 0,-16"/>
<polygon fill="none" stroke="#000000" points="0,0 0,-32 148,-32 148,0 0,0"/>
</g>
<!-- Types&#45;&gt;cbrn:ResponseAgencyContactInformation -->
<g id="edge1" class="edge">
<title>Types:top&#45;&gt;cbrn:ResponseAgencyContactInformation</title>
<path fill="none" stroke="#000000" d="M147,-24C165.6667,-24 185.3386,-24 204.7167,-24"/>
<polygon fill="#000000" stroke="#000000" points="204.8165,-27.5001 214.8165,-24 204.8165,-20.5001 204.8165,-27.5001"/>
<text text-anchor="middle" x="181.5" y="-27.4" font-family="Helvetica,sans-Serif" font-size="12.00" fill="#000000">has&#45;a</text>
</g>
</g>
</svg>
