<?xml version="1.0" encoding="UTF-8" standalone="no"?>
<!DOCTYPE svg PUBLIC "-//W3C//DTD SVG 1.1//EN"
 "http://www.w3.org/Graphics/SVG/1.1/DTD/svg11.dtd">
<!-- Generated by graphviz version 2.40.1 (20161225.0304)
 -->
<!-- Title: graphic Pages: 1 -->
<svg width="544pt" height="45pt"
 viewBox="0.00 0.00 544.00 45.00" xmlns="http://www.w3.org/2000/svg" xmlns:xlink="http://www.w3.org/1999/xlink">
<g id="graph0" class="graph" transform="scale(1 1) rotate(0) translate(4 41)">
<title>graphic</title>
<polygon fill="#ffffff" stroke="transparent" points="-4,4 -4,-41 540,-41 540,4 -4,4"/>
<!-- it:UNDGContactIdentification -->
<g id="node1" class="node">
<title>it:UNDGContactIdentification</title>
<text text-anchor="start" x="190" y="-21.4" font-family="Helvetica,sans-Serif" font-weight="bold" font-size="12.00" fill="#000000">it:UNDGContactIdentification</text>
<polygon fill="none" stroke="#ff0000" stroke-width="5" points="186.5,-14 186.5,-34 359.5,-34 359.5,-14 186.5,-14"/>
</g>
<!-- nc:IdentificationType -->
<g id="node3" class="node">
<title>nc:IdentificationType</title>
<g id="a_node3_0"><a xlink:href="../../nc/IdentificationType/#diagram" xlink:title="A data type for a representation of an identity." target="_top">
<text text-anchor="start" x="423.5" y="-20.4" font-family="Helvetica,sans-Serif" font-size="12.00" fill="#000000">nc:IdentificationType</text>
</a>
</g>
<polygon fill="none" stroke="#000000" points="421,-15.5 421,-32.5 536,-32.5 536,-15.5 421,-15.5"/>
</g>
<!-- it:UNDGContactIdentification&#45;&gt;nc:IdentificationType -->
<g id="edge2" class="edge">
<title>it:UNDGContactIdentification&#45;&gt;nc:IdentificationType</title>
<path fill="none" stroke="#000000" d="M362.2387,-24C378.4991,-24 395.2188,-24 410.7307,-24"/>
<polygon fill="#000000" stroke="#000000" points="410.7329,-27.5001 420.7329,-24 410.7329,-20.5001 410.7329,-27.5001"/>
<text text-anchor="middle" x="391.5" y="-27.4" font-family="Helvetica,sans-Serif" font-size="12.00" fill="#000000">type</text>
</g>
<!-- Types -->
<g id="node2" class="node">
<title>Types</title>
<text text-anchor="start" x="2.5" y="-21.4" font-family="Helvetica,sans-Serif" font-weight="bold" font-size="12.00" fill="#000000">Types</text>
<g id="a_node2_1"><a xlink:href="../../it/UNDGContactType/#diagram" xlink:title="A data type representing the Name [and address] of dangerous goods contact person or party who can provide detailed information concerning the dangerous goods shipment" target="_top">
<polygon fill="#ebebeb" stroke="transparent" points="1.5,-1 1.5,-16 116.5,-16 116.5,-1 1.5,-1"/>
<text text-anchor="start" x="2.5" y="-5.4" font-family="Helvetica,sans-Serif" font-size="12.00" fill="#000000">it:UNDGContactType</text>
</a>
</g>
<polygon fill="#000000" stroke="#000000" points=".5,-16 .5,-16 117.5,-16 117.5,-16 .5,-16"/>
<polygon fill="none" stroke="#000000" points="0,0 0,-32 117,-32 117,0 0,0"/>
</g>
<!-- Types&#45;&gt;it:UNDGContactIdentification -->
<g id="edge1" class="edge">
<title>Types:top&#45;&gt;it:UNDGContactIdentification</title>
<path fill="none" stroke="#000000" d="M116.5,-24C134.9248,-24 154.5696,-24 173.4954,-24"/>
<polygon fill="#000000" stroke="#000000" points="173.6188,-27.5001 183.6187,-24 173.6187,-20.5001 173.6188,-27.5001"/>
<text text-anchor="middle" x="150.5" y="-27.4" font-family="Helvetica,sans-Serif" font-size="12.00" fill="#000000">has&#45;a</text>
</g>
</g>
</svg>
