<?xml version="1.0" encoding="UTF-8" standalone="no"?>
<!DOCTYPE svg PUBLIC "-//W3C//DTD SVG 1.1//EN"
 "http://www.w3.org/Graphics/SVG/1.1/DTD/svg11.dtd">
<!-- Generated by graphviz version 2.40.1 (20161225.0304)
 -->
<!-- Title: graphic Pages: 1 -->
<svg width="502pt" height="45pt"
 viewBox="0.00 0.00 502.00 45.00" xmlns="http://www.w3.org/2000/svg" xmlns:xlink="http://www.w3.org/1999/xlink">
<g id="graph0" class="graph" transform="scale(1 1) rotate(0) translate(4 41)">
<title>graphic</title>
<polygon fill="#ffffff" stroke="transparent" points="-4,4 -4,-41 498,-41 498,4 -4,4"/>
<!-- nc:DeviceIMEIIdentification -->
<g id="node1" class="node">
<title>nc:DeviceIMEIIdentification</title>
<text text-anchor="start" x="157.5" y="-21.4" font-family="Helvetica,sans-Serif" font-weight="bold" font-size="12.00" fill="#000000">nc:DeviceIMEIIdentification</text>
<polygon fill="none" stroke="#ff0000" stroke-width="5" points="153.5,-14 153.5,-34 317.5,-34 317.5,-14 153.5,-14"/>
</g>
<!-- nc:IdentificationType -->
<g id="node3" class="node">
<title>nc:IdentificationType</title>
<g id="a_node3_0"><a xlink:href="../../nc/IdentificationType/#diagram" xlink:title="A data type for a representation of an identity." target="_top">
<text text-anchor="start" x="381.5" y="-20.4" font-family="Helvetica,sans-Serif" font-size="12.00" fill="#000000">nc:IdentificationType</text>
</a>
</g>
<polygon fill="none" stroke="#000000" points="379,-15.5 379,-32.5 494,-32.5 494,-15.5 379,-15.5"/>
</g>
<!-- nc:DeviceIMEIIdentification&#45;&gt;nc:IdentificationType -->
<g id="edge2" class="edge">
<title>nc:DeviceIMEIIdentification&#45;&gt;nc:IdentificationType</title>
<path fill="none" stroke="#000000" d="M320.1595,-24C336.3534,-24 353.1102,-24 368.6906,-24"/>
<polygon fill="#000000" stroke="#000000" points="368.7416,-27.5001 378.7416,-24 368.7416,-20.5001 368.7416,-27.5001"/>
<text text-anchor="middle" x="349.5" y="-27.4" font-family="Helvetica,sans-Serif" font-size="12.00" fill="#000000">type</text>
</g>
<!-- Types -->
<g id="node2" class="node">
<title>Types</title>
<text text-anchor="start" x="2" y="-21.4" font-family="Helvetica,sans-Serif" font-weight="bold" font-size="12.00" fill="#000000">Types</text>
<g id="a_node2_1"><a xlink:href="../../nc/DeviceType/#diagram" xlink:title="A data type for a device." target="_top">
<polygon fill="#ebebeb" stroke="transparent" points="1,-1 1,-16 83,-16 83,-1 1,-1"/>
<text text-anchor="start" x="2" y="-5.4" font-family="Helvetica,sans-Serif" font-size="12.00" fill="#000000">nc:DeviceType</text>
</a>
</g>
<polygon fill="#000000" stroke="#000000" points="0,-16 0,-16 84,-16 84,-16 0,-16"/>
<polygon fill="none" stroke="#000000" points="0,0 0,-32 84,-32 84,0 0,0"/>
</g>
<!-- Types&#45;&gt;nc:DeviceIMEIIdentification -->
<g id="edge1" class="edge">
<title>Types:top&#45;&gt;nc:DeviceIMEIIdentification</title>
<path fill="none" stroke="#000000" d="M83,-24C101.6271,-24 121.534,-24 140.6104,-24"/>
<polygon fill="#000000" stroke="#000000" points="140.8031,-27.5001 150.803,-24 140.803,-20.5001 140.8031,-27.5001"/>
<text text-anchor="middle" x="117.5" y="-27.4" font-family="Helvetica,sans-Serif" font-size="12.00" fill="#000000">has&#45;a</text>
</g>
</g>
</svg>
