<?xml version="1.0" encoding="UTF-8" standalone="no"?>
<!DOCTYPE svg PUBLIC "-//W3C//DTD SVG 1.1//EN"
 "http://www.w3.org/Graphics/SVG/1.1/DTD/svg11.dtd">
<!-- Generated by graphviz version 2.40.1 (20161225.0304)
 -->
<!-- Title: graphic Pages: 1 -->
<svg width="421pt" height="180pt"
 viewBox="0.00 0.00 421.00 179.50" xmlns="http://www.w3.org/2000/svg" xmlns:xlink="http://www.w3.org/1999/xlink">
<g id="graph0" class="graph" transform="scale(1 1) rotate(0) translate(4 175.5)">
<title>graphic</title>
<polygon fill="#ffffff" stroke="transparent" points="-4,4 -4,-175.5 417,-175.5 417,4 -4,4"/>
<!-- em:RoadCategoryCodeType -->
<g id="node1" class="node">
<title>em:RoadCategoryCodeType</title>
<text text-anchor="start" x="201" y="-51.4" font-family="Helvetica,sans-Serif" font-weight="bold" font-size="12.00" fill="#000000">em:RoadCategoryCodeType</text>
<g id="a_node1_0"><a xlink:href="../../structures/SimpleObjectAttributeGroup/#diagram" xlink:title="A group of attributes that are applicable to objects, to be used when defining a complex type that is an extension of a simple type." target="_top">
<polygon fill="#ebebeb" stroke="transparent" points="200,-31 200,-46 408,-46 408,-31 200,-31"/>
<text text-anchor="start" x="201" y="-35.4" font-family="Helvetica,sans-Serif" font-size="12.00" fill="#000000">structures:SimpleObjectAttributeGroup</text>
</a>
</g>
<polygon fill="#ff0000" stroke="#ff0000" points="195,-46 195,-46 413,-46 413,-46 195,-46"/>
<polygon fill="none" stroke="#ff0000" stroke-width="5" points="197.5,-28.5 197.5,-63.5 410.5,-63.5 410.5,-28.5 197.5,-28.5"/>
</g>
<!-- Properties -->
<g id="node2" class="node">
<title>Properties</title>
<text text-anchor="start" x="2" y="-51.4" font-family="Helvetica,sans-Serif" font-weight="bold" font-size="12.00" fill="#000000">Properties</text>
<g id="a_node2_1"><a xlink:href="../../em/CulvertRoadCode/#diagram" xlink:title="An element that specifies the various types of road surface. Helps determine reliability of cost estimates." target="_top">
<polygon fill="#ebebeb" stroke="transparent" points="1,-31 1,-46 135,-46 135,-31 1,-31"/>
<text text-anchor="start" x="2" y="-35.4" font-family="Helvetica,sans-Serif" font-size="12.00" fill="#000000">em:CulvertRoadCode</text>
</a>
</g>
<g id="a_node2_2"><a xlink:href="../../em/LowWaterRoadCode/#diagram" xlink:title="An element for the types of low water crossings." target="_top">
<text text-anchor="start" x="2" y="-20.4" font-family="Helvetica,sans-Serif" font-size="12.00" fill="#000000">em:LowWaterRoadCode</text>
</a>
</g>
<g id="a_node2_3"><a xlink:href="../../em/RoadCategoryCode/#diagram" xlink:title="An element that specifies the various types of road surface. Helps determine reliability of cost estimates." target="_top">
<polygon fill="#ebebeb" stroke="transparent" points="1,-1 1,-16 135,-16 135,-1 1,-1"/>
<text text-anchor="start" x="2" y="-5.4" font-family="Helvetica,sans-Serif" font-size="12.00" fill="#000000">em:RoadCategoryCode</text>
</a>
</g>
<polygon fill="#000000" stroke="#000000" points="0,-46 0,-46 136,-46 136,-46 0,-46"/>
<polygon fill="none" stroke="#000000" points="0,0 0,-62 136,-62 136,0 0,0"/>
</g>
<!-- Properties&#45;&gt;em:RoadCategoryCodeType -->
<g id="edge1" class="edge">
<title>Properties:top&#45;&gt;em:RoadCategoryCodeType:top</title>
<path fill="none" stroke="#000000" d="M135,-54C160.1649,-54 168.8891,-54 189.8154,-54"/>
<polygon fill="#000000" stroke="#000000" points="190,-57.5001 200,-54 190,-50.5001 190,-57.5001"/>
<text text-anchor="middle" x="165.5" y="-57.4" font-family="Helvetica,sans-Serif" font-size="12.00" fill="#000000">type</text>
</g>
<!-- em:RoadCategoryCodeSimpleType -->
<g id="node3" class="node">
<title>em:RoadCategoryCodeSimpleType</title>
<g id="a_node3_4"><a xlink:href="../../em/RoadCategoryCodeSimpleType/#diagram" xlink:title="A data type that specifies the various types of road surface. Helps determine reliability of cost estimates." target="_top">
<text text-anchor="start" x="209" y="-106.4" font-family="Helvetica,sans-Serif" font-size="12.00" fill="#000000">em:RoadCategoryCodeSimpleType</text>
</a>
</g>
<polygon fill="none" stroke="#000000" points="207,-101.5 207,-118.5 401,-118.5 401,-101.5 207,-101.5"/>
</g>
<!-- em:RoadCategoryCodeSimpleType&#45;&gt;em:RoadCategoryCodeType -->
<g id="edge2" class="edge">
<title>em:RoadCategoryCodeSimpleType&#45;&gt;em:RoadCategoryCodeType</title>
<path fill="none" stroke="#000000" d="M304,-101.4351C304,-94.931 304,-85.5678 304,-76.3827"/>
<polygon fill="#000000" stroke="#000000" points="307.5001,-76.25 304,-66.25 300.5001,-76.25 307.5001,-76.25"/>
<text text-anchor="middle" x="294.5" y="-80.65" font-family="Helvetica,sans-Serif" font-size="12.00" fill="#000000">extension</text>
</g>
<!-- xs:token -->
<g id="node4" class="node">
<title>xs:token</title>
<g id="a_node4_5"><a xlink:href="../../xs/token/#diagram" xlink:title="&lt;TABLE&gt;" target="_top">
<text text-anchor="start" x="282" y="-159.4" font-family="Helvetica,sans-Serif" font-size="12.00" fill="#000000">xs:token</text>
</a>
</g>
<polygon fill="none" stroke="#000000" points="279.5,-154.5 279.5,-171.5 328.5,-171.5 328.5,-154.5 279.5,-154.5"/>
</g>
<!-- xs:token&#45;&gt;em:RoadCategoryCodeSimpleType -->
<g id="edge3" class="edge">
<title>xs:token&#45;&gt;em:RoadCategoryCodeSimpleType</title>
<path fill="none" stroke="#000000" d="M304,-154.411C304,-147.5124 304,-137.5696 304,-128.84"/>
<polygon fill="#000000" stroke="#000000" points="307.5001,-128.7518 304,-118.7519 300.5001,-128.7519 307.5001,-128.7518"/>
<text text-anchor="middle" x="294.5" y="-133.4" font-family="Helvetica,sans-Serif" font-size="12.00" fill="#000000">restriction</text>
</g>
</g>
</svg>
