<?xml version="1.0" encoding="UTF-8" standalone="no"?>
<!DOCTYPE svg PUBLIC "-//W3C//DTD SVG 1.1//EN"
 "http://www.w3.org/Graphics/SVG/1.1/DTD/svg11.dtd">
<!-- Generated by graphviz version 2.40.1 (20161225.0304)
 -->
<!-- Title: graphic Pages: 1 -->
<svg width="701pt" height="45pt"
 viewBox="0.00 0.00 701.00 45.00" xmlns="http://www.w3.org/2000/svg" xmlns:xlink="http://www.w3.org/1999/xlink">
<g id="graph0" class="graph" transform="scale(1 1) rotate(0) translate(4 41)">
<title>graphic</title>
<polygon fill="#ffffff" stroke="transparent" points="-4,4 -4,-41 697,-41 697,4 -4,4"/>
<!-- biom:SubjectBirthDateEstimateRangeDuration -->
<g id="node1" class="node">
<title>biom:SubjectBirthDateEstimateRangeDuration</title>
<text text-anchor="start" x="268.5" y="-21.4" font-family="Helvetica,sans-Serif" font-weight="bold" font-size="12.00" fill="#000000">biom:SubjectBirthDateEstimateRangeDuration</text>
<polygon fill="none" stroke="#ff0000" stroke-width="5" points="264.5,-14 264.5,-34 538.5,-34 538.5,-14 264.5,-14"/>
</g>
<!-- niem&#45;xs:duration -->
<g id="node3" class="node">
<title>niem&#45;xs:duration</title>
<g id="a_node3_0"><a xlink:href="../../niem-xs/duration/#diagram" xlink:title="A data type for a duration of time with the format PnYnMnDTnHnMnS, where nY is the number of years, nM is the number of months, nD is the number of days, nH is the number of hours, nM is the number of minutes, and nS is the number of seconds." target="_top">
<text text-anchor="start" x="602.5" y="-20.4" font-family="Helvetica,sans-Serif" font-size="12.00" fill="#000000">niem&#45;xs:duration</text>
</a>
</g>
<polygon fill="none" stroke="#000000" points="600,-15.5 600,-32.5 693,-32.5 693,-15.5 600,-15.5"/>
</g>
<!-- biom:SubjectBirthDateEstimateRangeDuration&#45;&gt;niem&#45;xs:duration -->
<g id="edge2" class="edge">
<title>biom:SubjectBirthDateEstimateRangeDuration&#45;&gt;niem&#45;xs:duration</title>
<path fill="none" stroke="#000000" d="M541.1761,-24C558.2112,-24 574.7941,-24 589.572,-24"/>
<polygon fill="#000000" stroke="#000000" points="589.9941,-27.5001 599.9941,-24 589.9941,-20.5001 589.9941,-27.5001"/>
<text text-anchor="middle" x="570.5" y="-27.4" font-family="Helvetica,sans-Serif" font-size="12.00" fill="#000000">type</text>
</g>
<!-- Types -->
<g id="node2" class="node">
<title>Types</title>
<text text-anchor="start" x="2.5" y="-21.4" font-family="Helvetica,sans-Serif" font-weight="bold" font-size="12.00" fill="#000000">Types</text>
<g id="a_node2_1"><a xlink:href="../../biom/DentalSubjectInformationType/#diagram" xlink:title="A data type for a set of information regarding the status of the individual at the time when the relevant data was recorded." target="_top">
<polygon fill="#ebebeb" stroke="transparent" points="1.5,-1 1.5,-16 194.5,-16 194.5,-1 1.5,-1"/>
<text text-anchor="start" x="2.5" y="-5.4" font-family="Helvetica,sans-Serif" font-size="12.00" fill="#000000">biom:DentalSubjectInformationType</text>
</a>
</g>
<polygon fill="#000000" stroke="#000000" points=".5,-16 .5,-16 195.5,-16 195.5,-16 .5,-16"/>
<polygon fill="none" stroke="#000000" points="0,0 0,-32 195,-32 195,0 0,0"/>
</g>
<!-- Types&#45;&gt;biom:SubjectBirthDateEstimateRangeDuration -->
<g id="edge1" class="edge">
<title>Types:top&#45;&gt;biom:SubjectBirthDateEstimateRangeDuration</title>
<path fill="none" stroke="#000000" d="M194.5,-24C213.0148,-24 232.4612,-24 251.7143,-24"/>
<polygon fill="#000000" stroke="#000000" points="251.7588,-27.5001 261.7588,-24 251.7588,-20.5001 251.7588,-27.5001"/>
<text text-anchor="middle" x="228.5" y="-27.4" font-family="Helvetica,sans-Serif" font-size="12.00" fill="#000000">has&#45;a</text>
</g>
</g>
</svg>
