<?xml version="1.0" encoding="UTF-8" standalone="no"?>
<!DOCTYPE svg PUBLIC "-//W3C//DTD SVG 1.1//EN"
 "http://www.w3.org/Graphics/SVG/1.1/DTD/svg11.dtd">
<!-- Generated by graphviz version 2.40.1 (20161225.0304)
 -->
<!-- Title: graphic Pages: 1 -->
<svg width="961pt" height="131pt"
 viewBox="0.00 0.00 961.00 131.00" xmlns="http://www.w3.org/2000/svg" xmlns:xlink="http://www.w3.org/1999/xlink">
<g id="graph0" class="graph" transform="scale(1 1) rotate(0) translate(4 127)">
<title>graphic</title>
<polygon fill="#ffffff" stroke="transparent" points="-4,4 -4,-127 957,-127 957,4 -4,4"/>
<!-- im:ImmigrationBenefitEligibilityAbstract -->
<g id="node1" class="node">
<title>im:ImmigrationBenefitEligibilityAbstract</title>
<text text-anchor="start" x="491" y="-107.4" font-family="Helvetica,sans-Serif" font-weight="bold" font-size="12.00" fill="#000000">im:ImmigrationBenefitEligibilityAbstract</text>
<polygon fill="none" stroke="#ff0000" stroke-width="5" points="487.5,-100 487.5,-120 724.5,-120 724.5,-100 487.5,-100"/>
</g>
<!-- SubstitutableElements -->
<g id="node3" class="node">
<title>SubstitutableElements</title>
<text text-anchor="start" x="261" y="-51.4" font-family="Helvetica,sans-Serif" font-weight="bold" font-size="12.00" fill="#000000">Substitutable elements</text>
<g id="a_node3_0"><a xlink:href="../../im/ImmigrationBenefitChangeOfStatusEligibility/#diagram" xlink:title="An applicant&#39;s eligibility data for a requested Change of Status." target="_top">
<polygon fill="#ebebeb" stroke="transparent" points="260,-31 260,-46 952,-46 952,-31 260,-31"/>
<text text-anchor="start" x="261" y="-35.4" font-family="Helvetica,sans-Serif" font-size="12.00" fill="#000000">im:ImmigrationBenefitChangeOfStatusEligibility: im:ImmigrationBenefitChangeOfStatusEligibilityType</text>
</a>
</g>
<g id="a_node3_1"><a xlink:href="../../im/ImmigrationBenefitExtensionOfStayEligibility/#diagram" xlink:title="An applicant&#39;s eligibility data for a requested extension of stay." target="_top">
<text text-anchor="start" x="261" y="-20.4" font-family="Helvetica,sans-Serif" font-size="12.00" fill="#000000">im:ImmigrationBenefitExtensionOfStayEligibility: im:ImmigrationBenefitExtensionOfStayEligibilityType</text>
</a>
</g>
<g id="a_node3_2"><a xlink:href="../../im/ImmigrationBenefitReinstatementOfStudentStatusEligibility/#diagram" xlink:title="An applicant&#39;s eligibility data for a requested reinstatement of student status." target="_top">
<polygon fill="#ebebeb" stroke="transparent" points="260,-1 260,-16 952,-16 952,-1 260,-1"/>
<text text-anchor="start" x="261" y="-5.4" font-family="Helvetica,sans-Serif" font-size="12.00" fill="#000000">im:ImmigrationBenefitReinstatementOfStudentStatusEligibility: im:ImmigrationBenefitReinstatementOfStudentStatusEligibilityType</text>
</a>
</g>
<polygon fill="#000000" stroke="#000000" points="259,-46 259,-46 953,-46 953,-46 259,-46"/>
<polygon fill="none" stroke="#000000" points="259,0 259,-62 953,-62 953,0 259,0"/>
</g>
<!-- im:ImmigrationBenefitEligibilityAbstract&#45;&gt;SubstitutableElements -->
<g id="edge2" class="edge">
<title>im:ImmigrationBenefitEligibilityAbstract&#45;&gt;SubstitutableElements</title>
<path fill="none" stroke="#000000" d="M606,-87.1686C606,-79.3868 606,-70.5481 606,-62.2229"/>
<polygon fill="#000000" stroke="#000000" points="602.5001,-87.3018 606,-97.3018 609.5001,-87.3018 602.5001,-87.3018"/>
<text text-anchor="middle" x="596.5" y="-76.65" font-family="Helvetica,sans-Serif" font-size="12.00" fill="#000000">substitutable for</text>
</g>
<!-- Types -->
<g id="node2" class="node">
<title>Types</title>
<text text-anchor="start" x="2" y="-107.4" font-family="Helvetica,sans-Serif" font-weight="bold" font-size="12.00" fill="#000000">Types</text>
<g id="a_node2_3"><a xlink:href="../../im/ImmigrationBenefitRequestType/#diagram" xlink:title="A data type for the request of an immigration benefit" target="_top">
<polygon fill="#ebebeb" stroke="transparent" points="1,-87 1,-102 191,-102 191,-87 1,-87"/>
<text text-anchor="start" x="2" y="-91.4" font-family="Helvetica,sans-Serif" font-size="12.00" fill="#000000">im:ImmigrationBenefitRequestType</text>
</a>
</g>
<polygon fill="#000000" stroke="#000000" points="0,-102 0,-102 192,-102 192,-102 0,-102"/>
<polygon fill="none" stroke="#000000" points="0,-86 0,-118 192,-118 192,-86 0,-86"/>
</g>
<!-- Types&#45;&gt;im:ImmigrationBenefitEligibilityAbstract -->
<g id="edge1" class="edge">
<title>Types:top&#45;&gt;im:ImmigrationBenefitEligibilityAbstract</title>
<path fill="none" stroke="#000000" d="M191,-110C285.8308,-110 392.8508,-110 474.4581,-110"/>
<polygon fill="#000000" stroke="#000000" points="474.7867,-113.5001 484.7867,-110 474.7867,-106.5001 474.7867,-113.5001"/>
<text text-anchor="middle" x="225.5" y="-113.4" font-family="Helvetica,sans-Serif" font-size="12.00" fill="#000000">has&#45;a</text>
</g>
</g>
</svg>
