<?xml version="1.0" encoding="UTF-8" standalone="no"?>
<!DOCTYPE svg PUBLIC "-//W3C//DTD SVG 1.1//EN"
 "http://www.w3.org/Graphics/SVG/1.1/DTD/svg11.dtd">
<!-- Generated by graphviz version 2.40.1 (20161225.0304)
 -->
<!-- Title: graphic Pages: 1 -->
<svg width="386pt" height="45pt"
 viewBox="0.00 0.00 386.00 45.00" xmlns="http://www.w3.org/2000/svg" xmlns:xlink="http://www.w3.org/1999/xlink">
<g id="graph0" class="graph" transform="scale(1 1) rotate(0) translate(4 41)">
<title>graphic</title>
<polygon fill="#ffffff" stroke="transparent" points="-4,4 -4,-41 382,-41 382,4 -4,4"/>
<!-- j:CourtActivityAugmentationPoint -->
<g id="node1" class="node">
<title>j:CourtActivityAugmentationPoint</title>
<text text-anchor="start" x="178" y="-21.4" font-family="Helvetica,sans-Serif" font-weight="bold" font-size="12.00" fill="#000000">j:CourtActivityAugmentationPoint</text>
<polygon fill="none" stroke="#ff0000" stroke-width="5" points="174.5,-14 174.5,-34 375.5,-34 375.5,-14 174.5,-14"/>
</g>
<!-- Types -->
<g id="node2" class="node">
<title>Types</title>
<text text-anchor="start" x="2.5" y="-21.4" font-family="Helvetica,sans-Serif" font-weight="bold" font-size="12.00" fill="#000000">Types</text>
<g id="a_node2_0"><a xlink:href="../../j/CourtActivityType/#diagram" xlink:title="A data type for a court&#45;related action associated with a court case event." target="_top">
<polygon fill="#ebebeb" stroke="transparent" points="1.5,-1 1.5,-16 104.5,-16 104.5,-1 1.5,-1"/>
<text text-anchor="start" x="2.5" y="-5.4" font-family="Helvetica,sans-Serif" font-size="12.00" fill="#000000">j:CourtActivityType</text>
</a>
</g>
<polygon fill="#000000" stroke="#000000" points=".5,-16 .5,-16 105.5,-16 105.5,-16 .5,-16"/>
<polygon fill="none" stroke="#000000" points="0,0 0,-32 105,-32 105,0 0,0"/>
</g>
<!-- Types&#45;&gt;j:CourtActivityAugmentationPoint -->
<g id="edge1" class="edge">
<title>Types:top&#45;&gt;j:CourtActivityAugmentationPoint</title>
<path fill="none" stroke="#000000" d="M104.5,-24C122.942,-24 142.5061,-24 161.5539,-24"/>
<polygon fill="#000000" stroke="#000000" points="161.7643,-27.5001 171.7643,-24 161.7642,-20.5001 161.7643,-27.5001"/>
<text text-anchor="middle" x="138.5" y="-27.4" font-family="Helvetica,sans-Serif" font-size="12.00" fill="#000000">has&#45;a</text>
</g>
</g>
</svg>
