<?xml version="1.0" encoding="UTF-8" standalone="no"?>
<!DOCTYPE svg PUBLIC "-//W3C//DTD SVG 1.1//EN"
 "http://www.w3.org/Graphics/SVG/1.1/DTD/svg11.dtd">
<!-- Generated by graphviz version 2.40.1 (20161225.0304)
 -->
<!-- Title: graphic Pages: 1 -->
<svg width="343pt" height="86pt"
 viewBox="0.00 0.00 343.00 86.00" xmlns="http://www.w3.org/2000/svg" xmlns:xlink="http://www.w3.org/1999/xlink">
<g id="graph0" class="graph" transform="scale(1 1) rotate(0) translate(4 82)">
<title>graphic</title>
<polygon fill="#ffffff" stroke="transparent" points="-4,4 -4,-82 339,-82 339,4 -4,4"/>
<!-- biom:ForensicSourceCountry -->
<g id="node1" class="node">
<title>biom:ForensicSourceCountry</title>
<text text-anchor="start" x="8.5" y="-9.9" font-family="Helvetica,sans-Serif" font-weight="bold" font-size="12.00" fill="#000000">biom:ForensicSourceCountry</text>
<polygon fill="none" stroke="#ff0000" stroke-width="5" points="5,-2.5 5,-22.5 182,-22.5 182,-2.5 5,-2.5"/>
</g>
<!-- nc:CountryType -->
<g id="node3" class="node">
<title>nc:CountryType</title>
<g id="a_node3_0"><a xlink:href="../../nc/CountryType/#diagram" xlink:title="A data type for a country, territory, dependency, or other such geopolitical subdivision of a location." target="_top">
<text text-anchor="start" x="248.5" y="-8.9" font-family="Helvetica,sans-Serif" font-size="12.00" fill="#000000">nc:CountryType</text>
</a>
</g>
<polygon fill="none" stroke="#000000" points="246,-4 246,-21 335,-21 335,-4 246,-4"/>
</g>
<!-- biom:ForensicSourceCountry&#45;&gt;nc:CountryType -->
<g id="edge2" class="edge">
<title>biom:ForensicSourceCountry&#45;&gt;nc:CountryType</title>
<path fill="none" stroke="#000000" d="M184.5035,-12.5C202.036,-12.5 219.887,-12.5 235.8175,-12.5"/>
<polygon fill="#000000" stroke="#000000" points="235.9861,-16.0001 245.9861,-12.5 235.9861,-9.0001 235.9861,-16.0001"/>
<text text-anchor="middle" x="216.5" y="-15.9" font-family="Helvetica,sans-Serif" font-size="12.00" fill="#000000">type</text>
</g>
<!-- SubstitutionGroup -->
<g id="node2" class="node">
<title>SubstitutionGroup</title>
<g id="a_node2_1"><a xlink:href="../../biom/SourceCountryCodeAbstract/#diagram" xlink:title="A data concept for a country code, describing where a recording was created." target="_top">
<text text-anchor="start" x="2.5" y="-65.9" font-family="Helvetica,sans-Serif" font-size="12.00" fill="#000000">biom:SourceCountryCodeAbstract</text>
</a>
</g>
<polygon fill="none" stroke="#000000" points="0,-61 0,-78 187,-78 187,-61 0,-61"/>
</g>
<!-- SubstitutionGroup&#45;&gt;biom:ForensicSourceCountry -->
<g id="edge1" class="edge">
<title>SubstitutionGroup&#45;&gt;biom:ForensicSourceCountry</title>
<path fill="none" stroke="#000000" d="M93.5,-50.9163C93.5,-42.4809 93.5,-32.7214 93.5,-25.1501"/>
<polygon fill="#000000" stroke="#000000" points="90.0001,-50.9472 93.5,-60.9473 97.0001,-50.9473 90.0001,-50.9472"/>
<text text-anchor="middle" x="84" y="-39.9" font-family="Helvetica,sans-Serif" font-size="12.00" fill="#000000">substitution group</text>
</g>
</g>
</svg>
