<?xml version="1.0" encoding="UTF-8" standalone="no"?>
<!DOCTYPE svg PUBLIC "-//W3C//DTD SVG 1.1//EN"
 "http://www.w3.org/Graphics/SVG/1.1/DTD/svg11.dtd">
<!-- Generated by graphviz version 2.40.1 (20161225.0304)
 -->
<!-- Title: graphic Pages: 1 -->
<svg width="194pt" height="154pt"
 viewBox="0.00 0.00 194.00 153.50" xmlns="http://www.w3.org/2000/svg" xmlns:xlink="http://www.w3.org/1999/xlink">
<g id="graph0" class="graph" transform="scale(1 1) rotate(0) translate(4 149.5)">
<title>graphic</title>
<polygon fill="#ffffff" stroke="transparent" points="-4,4 -4,-149.5 190,-149.5 190,4 -4,4"/>
<!-- cbrncl:ShapeCodeSimpleType -->
<g id="node1" class="node">
<title>cbrncl:ShapeCodeSimpleType</title>
<text text-anchor="start" x="6" y="-77.4" font-family="Helvetica,sans-Serif" font-weight="bold" font-size="12.00" fill="#000000">cbrncl:ShapeCodeSimpleType</text>
<polygon fill="none" stroke="#ff0000" stroke-width="5" points="2.5,-70 2.5,-90 183.5,-90 183.5,-70 2.5,-70"/>
</g>
<!-- DerivedTypes -->
<g id="node2" class="node">
<title>DerivedTypes</title>
<text text-anchor="start" x="30" y="-21.4" font-family="Helvetica,sans-Serif" font-weight="bold" font-size="12.00" fill="#000000">Derived types</text>
<g id="a_node2_0"><a xlink:href="../../cbrncl/ShapeCodeType/#diagram" xlink:title="A data type that defines the various shape codes" target="_top">
<polygon fill="#ebebeb" stroke="transparent" points="29,-1 29,-16 157,-16 157,-1 29,-1"/>
<text text-anchor="start" x="30" y="-5.4" font-family="Helvetica,sans-Serif" font-size="12.00" fill="#000000">cbrncl:ShapeCodeType</text>
</a>
</g>
<polygon fill="#000000" stroke="#000000" points="28,-16 28,-16 158,-16 158,-16 28,-16"/>
<polygon fill="none" stroke="#000000" points="28,0 28,-32 158,-32 158,0 28,0"/>
</g>
<!-- cbrncl:ShapeCodeSimpleType&#45;&gt;DerivedTypes -->
<g id="edge1" class="edge">
<title>cbrncl:ShapeCodeSimpleType&#45;&gt;DerivedTypes</title>
<path fill="none" stroke="#000000" d="M93,-67.4892C93,-60.3101 93,-51.0172 93,-42.306"/>
<polygon fill="#000000" stroke="#000000" points="96.5001,-42.1499 93,-32.1499 89.5001,-42.1499 96.5001,-42.1499"/>
<text text-anchor="middle" x="83.5" y="-46.65" font-family="Helvetica,sans-Serif" font-size="12.00" fill="#000000">derived</text>
</g>
<!-- xs:token -->
<g id="node3" class="node">
<title>xs:token</title>
<g id="a_node3_1"><a xlink:href="../../xs/token/#diagram" xlink:title="&lt;TABLE&gt;" target="_top">
<text text-anchor="start" x="71" y="-133.4" font-family="Helvetica,sans-Serif" font-size="12.00" fill="#000000">xs:token</text>
</a>
</g>
<polygon fill="none" stroke="#000000" points="68.5,-128.5 68.5,-145.5 117.5,-145.5 117.5,-128.5 68.5,-128.5"/>
</g>
<!-- xs:token&#45;&gt;cbrncl:ShapeCodeSimpleType -->
<g id="edge2" class="edge">
<title>xs:token&#45;&gt;cbrncl:ShapeCodeSimpleType</title>
<path fill="none" stroke="#000000" d="M93,-128.4473C93,-121.6242 93,-111.7417 93,-102.6794"/>
<polygon fill="#000000" stroke="#000000" points="96.5001,-102.6501 93,-92.6501 89.5001,-102.6502 96.5001,-102.6501"/>
<text text-anchor="middle" x="83.5" y="-107.4" font-family="Helvetica,sans-Serif" font-size="12.00" fill="#000000">restriction</text>
</g>
</g>
</svg>
