<?xml version="1.0" encoding="UTF-8" standalone="no"?>
<!DOCTYPE svg PUBLIC "-//W3C//DTD SVG 1.1//EN"
 "http://www.w3.org/Graphics/SVG/1.1/DTD/svg11.dtd">
<!-- Generated by graphviz version 2.40.1 (20161225.0304)
 -->
<!-- Title: graphic Pages: 1 -->
<svg width="576pt" height="154pt"
 viewBox="0.00 0.00 576.00 153.50" xmlns="http://www.w3.org/2000/svg" xmlns:xlink="http://www.w3.org/1999/xlink">
<g id="graph0" class="graph" transform="scale(1 1) rotate(0) translate(4 149.5)">
<title>graphic</title>
<polygon fill="#ffffff" stroke="transparent" points="-4,4 -4,-149.5 572,-149.5 572,4 -4,4"/>
<!-- aamva_d20:InsuranceCoverageCategoryCodeType -->
<g id="node1" class="node">
<title>aamva_d20:InsuranceCoverageCategoryCodeType</title>
<text text-anchor="start" x="265" y="-25.4" font-family="Helvetica,sans-Serif" font-weight="bold" font-size="12.00" fill="#000000">aamva_d20:InsuranceCoverageCategoryCodeType</text>
<g id="a_node1_0"><a xlink:href="../../structures/SimpleObjectAttributeGroup/#diagram" xlink:title="A group of attributes that are applicable to objects, to be used when defining a complex type that is an extension of a simple type." target="_top">
<polygon fill="#ebebeb" stroke="transparent" points="264,-5 264,-20 557,-20 557,-5 264,-5"/>
<text text-anchor="start" x="265" y="-9.4" font-family="Helvetica,sans-Serif" font-size="12.00" fill="#000000">structures:SimpleObjectAttributeGroup</text>
</a>
</g>
<polygon fill="#ff0000" stroke="#ff0000" points="259,-20 259,-20 562,-20 562,-20 259,-20"/>
<polygon fill="none" stroke="#ff0000" stroke-width="5" points="261,-2.5 261,-37.5 559,-37.5 559,-2.5 261,-2.5"/>
</g>
<!-- Properties -->
<g id="node2" class="node">
<title>Properties</title>
<text text-anchor="start" x="2.5" y="-25.4" font-family="Helvetica,sans-Serif" font-weight="bold" font-size="12.00" fill="#000000">Properties</text>
<g id="a_node2_1"><a xlink:href="../../j/InsuranceCoverageCategoryCode/#diagram" xlink:title="A kind of insurance coverage." target="_top">
<polygon fill="#ebebeb" stroke="transparent" points="1.5,-5 1.5,-20 192.5,-20 192.5,-5 1.5,-5"/>
<text text-anchor="start" x="2.5" y="-9.4" font-family="Helvetica,sans-Serif" font-size="12.00" fill="#000000">j:InsuranceCoverageCategoryCode</text>
</a>
</g>
<polygon fill="#000000" stroke="#000000" points=".5,-20 .5,-20 193.5,-20 193.5,-20 .5,-20"/>
<polygon fill="none" stroke="#000000" points="0,-4 0,-36 193,-36 193,-4 0,-4"/>
</g>
<!-- Properties&#45;&gt;aamva_d20:InsuranceCoverageCategoryCodeType -->
<g id="edge1" class="edge">
<title>Properties:top&#45;&gt;aamva_d20:InsuranceCoverageCategoryCodeType:top</title>
<path fill="none" stroke="#000000" d="M192.5,-28C220.5538,-28 230.0329,-28 253.7333,-28"/>
<polygon fill="#000000" stroke="#000000" points="254,-31.5001 264,-28 254,-24.5001 254,-31.5001"/>
<text text-anchor="middle" x="222.5" y="-31.4" font-family="Helvetica,sans-Serif" font-size="12.00" fill="#000000">type</text>
</g>
<!-- aamva_d20:InsuranceCoverageCategoryCodeSimpleType -->
<g id="node3" class="node">
<title>aamva_d20:InsuranceCoverageCategoryCodeSimpleType</title>
<g id="a_node3_2"><a xlink:href="../../aamva_d20/InsuranceCoverageCategoryCodeSimpleType/#diagram" xlink:title="A data type for categories of coverage provided by an insurance policy." target="_top">
<text text-anchor="start" x="254" y="-80.4" font-family="Helvetica,sans-Serif" font-size="12.00" fill="#000000">aamva_d20:InsuranceCoverageCategoryCodeSimpleType</text>
</a>
</g>
<polygon fill="none" stroke="#000000" points="252,-75.5 252,-92.5 568,-92.5 568,-75.5 252,-75.5"/>
</g>
<!-- aamva_d20:InsuranceCoverageCategoryCodeSimpleType&#45;&gt;aamva_d20:InsuranceCoverageCategoryCodeType -->
<g id="edge2" class="edge">
<title>aamva_d20:InsuranceCoverageCategoryCodeSimpleType&#45;&gt;aamva_d20:InsuranceCoverageCategoryCodeType</title>
<path fill="none" stroke="#000000" d="M410,-75.4351C410,-68.931 410,-59.5678 410,-50.3827"/>
<polygon fill="#000000" stroke="#000000" points="413.5001,-50.25 410,-40.25 406.5001,-50.25 413.5001,-50.25"/>
<text text-anchor="middle" x="400.5" y="-54.65" font-family="Helvetica,sans-Serif" font-size="12.00" fill="#000000">extension</text>
</g>
<!-- xs:token -->
<g id="node4" class="node">
<title>xs:token</title>
<g id="a_node4_3"><a xlink:href="../../xs/token/#diagram" xlink:title="&lt;TABLE&gt;" target="_top">
<text text-anchor="start" x="388" y="-133.4" font-family="Helvetica,sans-Serif" font-size="12.00" fill="#000000">xs:token</text>
</a>
</g>
<polygon fill="none" stroke="#000000" points="385.5,-128.5 385.5,-145.5 434.5,-145.5 434.5,-128.5 385.5,-128.5"/>
</g>
<!-- xs:token&#45;&gt;aamva_d20:InsuranceCoverageCategoryCodeSimpleType -->
<g id="edge3" class="edge">
<title>xs:token&#45;&gt;aamva_d20:InsuranceCoverageCategoryCodeSimpleType</title>
<path fill="none" stroke="#000000" d="M410,-128.411C410,-121.5124 410,-111.5696 410,-102.84"/>
<polygon fill="#000000" stroke="#000000" points="413.5001,-102.7518 410,-92.7519 406.5001,-102.7519 413.5001,-102.7518"/>
<text text-anchor="middle" x="400.5" y="-107.4" font-family="Helvetica,sans-Serif" font-size="12.00" fill="#000000">restriction</text>
</g>
</g>
</svg>
