<?xml version="1.0" encoding="UTF-8" standalone="no"?>
<!DOCTYPE svg PUBLIC "-//W3C//DTD SVG 1.1//EN"
 "http://www.w3.org/Graphics/SVG/1.1/DTD/svg11.dtd">
<!-- Generated by graphviz version 2.40.1 (20161225.0304)
 -->
<!-- Title: graphic Pages: 1 -->
<svg width="646pt" height="45pt"
 viewBox="0.00 0.00 646.00 45.00" xmlns="http://www.w3.org/2000/svg" xmlns:xlink="http://www.w3.org/1999/xlink">
<g id="graph0" class="graph" transform="scale(1 1) rotate(0) translate(4 41)">
<title>graphic</title>
<polygon fill="#ffffff" stroke="transparent" points="-4,4 -4,-41 642,-41 642,4 -4,4"/>
<!-- j:SupervisedReleaseResourceAmount -->
<g id="node1" class="node">
<title>j:SupervisedReleaseResourceAmount</title>
<text text-anchor="start" x="266" y="-21.4" font-family="Helvetica,sans-Serif" font-weight="bold" font-size="12.00" fill="#000000">j:SupervisedReleaseResourceAmount</text>
<polygon fill="none" stroke="#ff0000" stroke-width="5" points="262.5,-14 262.5,-34 487.5,-34 487.5,-14 262.5,-14"/>
</g>
<!-- nc:AmountType -->
<g id="node3" class="node">
<title>nc:AmountType</title>
<g id="a_node3_0"><a xlink:href="../../nc/AmountType/#diagram" xlink:title="A data type for an amount of money." target="_top">
<text text-anchor="start" x="551.5" y="-20.4" font-family="Helvetica,sans-Serif" font-size="12.00" fill="#000000">nc:AmountType</text>
</a>
</g>
<polygon fill="none" stroke="#000000" points="549,-15.5 549,-32.5 638,-32.5 638,-15.5 549,-15.5"/>
</g>
<!-- j:SupervisedReleaseResourceAmount&#45;&gt;nc:AmountType -->
<g id="edge2" class="edge">
<title>j:SupervisedReleaseResourceAmount&#45;&gt;nc:AmountType</title>
<path fill="none" stroke="#000000" d="M490.0089,-24C507.0499,-24 523.9035,-24 538.9051,-24"/>
<polygon fill="#000000" stroke="#000000" points="538.9746,-27.5001 548.9746,-24 538.9745,-20.5001 538.9746,-27.5001"/>
<text text-anchor="middle" x="519.5" y="-27.4" font-family="Helvetica,sans-Serif" font-size="12.00" fill="#000000">type</text>
</g>
<!-- Types -->
<g id="node2" class="node">
<title>Types</title>
<text text-anchor="start" x="2.5" y="-21.4" font-family="Helvetica,sans-Serif" font-weight="bold" font-size="12.00" fill="#000000">Types</text>
<g id="a_node2_1"><a xlink:href="../../j/SupervisedReleaseResourceType/#diagram" xlink:title="A data type for a set of details about the resources of a subject at the time of release." target="_top">
<polygon fill="#ebebeb" stroke="transparent" points="1.5,-1 1.5,-16 192.5,-16 192.5,-1 1.5,-1"/>
<text text-anchor="start" x="2.5" y="-5.4" font-family="Helvetica,sans-Serif" font-size="12.00" fill="#000000">j:SupervisedReleaseResourceType</text>
</a>
</g>
<polygon fill="#000000" stroke="#000000" points=".5,-16 .5,-16 193.5,-16 193.5,-16 .5,-16"/>
<polygon fill="none" stroke="#000000" points="0,0 0,-32 193,-32 193,0 0,0"/>
</g>
<!-- Types&#45;&gt;j:SupervisedReleaseResourceAmount -->
<g id="edge1" class="edge">
<title>Types:top&#45;&gt;j:SupervisedReleaseResourceAmount</title>
<path fill="none" stroke="#000000" d="M192.5,-24C210.8972,-24 230.3375,-24 249.4014,-24"/>
<polygon fill="#000000" stroke="#000000" points="249.6354,-27.5001 259.6353,-24 249.6353,-20.5001 249.6354,-27.5001"/>
<text text-anchor="middle" x="226.5" y="-27.4" font-family="Helvetica,sans-Serif" font-size="12.00" fill="#000000">has&#45;a</text>
</g>
</g>
</svg>
