<?xml version="1.0" encoding="UTF-8" standalone="no"?>
<!DOCTYPE svg PUBLIC "-//W3C//DTD SVG 1.1//EN"
 "http://www.w3.org/Graphics/SVG/1.1/DTD/svg11.dtd">
<!-- Generated by graphviz version 2.40.1 (20161225.0304)
 -->
<!-- Title: graphic Pages: 1 -->
<svg width="411pt" height="45pt"
 viewBox="0.00 0.00 411.00 45.00" xmlns="http://www.w3.org/2000/svg" xmlns:xlink="http://www.w3.org/1999/xlink">
<g id="graph0" class="graph" transform="scale(1 1) rotate(0) translate(4 41)">
<title>graphic</title>
<polygon fill="#ffffff" stroke="transparent" points="-4,4 -4,-41 407,-41 407,4 -4,4"/>
<!-- nc:HighwayName -->
<g id="node1" class="node">
<title>nc:HighwayName</title>
<text text-anchor="start" x="166.5" y="-21.4" font-family="Helvetica,sans-Serif" font-weight="bold" font-size="12.00" fill="#000000">nc:HighwayName</text>
<polygon fill="none" stroke="#ff0000" stroke-width="5" points="162.5,-14 162.5,-34 270.5,-34 270.5,-14 162.5,-14"/>
</g>
<!-- nc:TextType -->
<g id="node3" class="node">
<title>nc:TextType</title>
<g id="a_node3_0"><a xlink:href="../../nc/TextType/#diagram" xlink:title="A data type for a character string." target="_top">
<text text-anchor="start" x="334.5" y="-20.4" font-family="Helvetica,sans-Serif" font-size="12.00" fill="#000000">nc:TextType</text>
</a>
</g>
<polygon fill="none" stroke="#000000" points="332,-15.5 332,-32.5 403,-32.5 403,-15.5 332,-15.5"/>
</g>
<!-- nc:HighwayName&#45;&gt;nc:TextType -->
<g id="edge2" class="edge">
<title>nc:HighwayName&#45;&gt;nc:TextType</title>
<path fill="none" stroke="#000000" d="M273.1564,-24C289.0671,-24 306.1705,-24 321.3869,-24"/>
<polygon fill="#000000" stroke="#000000" points="321.582,-27.5001 331.582,-24 321.5819,-20.5001 321.582,-27.5001"/>
<text text-anchor="middle" x="302.5" y="-27.4" font-family="Helvetica,sans-Serif" font-size="12.00" fill="#000000">type</text>
</g>
<!-- Types -->
<g id="node2" class="node">
<title>Types</title>
<text text-anchor="start" x="2.5" y="-21.4" font-family="Helvetica,sans-Serif" font-weight="bold" font-size="12.00" fill="#000000">Types</text>
<g id="a_node2_1"><a xlink:href="../../nc/HighwayType/#diagram" xlink:title="A data type for a major public road." target="_top">
<polygon fill="#ebebeb" stroke="transparent" points="1.5,-1 1.5,-16 92.5,-16 92.5,-1 1.5,-1"/>
<text text-anchor="start" x="2.5" y="-5.4" font-family="Helvetica,sans-Serif" font-size="12.00" fill="#000000">nc:HighwayType</text>
</a>
</g>
<polygon fill="#000000" stroke="#000000" points=".5,-16 .5,-16 93.5,-16 93.5,-16 .5,-16"/>
<polygon fill="none" stroke="#000000" points="0,0 0,-32 93,-32 93,0 0,0"/>
</g>
<!-- Types&#45;&gt;nc:HighwayName -->
<g id="edge1" class="edge">
<title>Types:top&#45;&gt;nc:HighwayName</title>
<path fill="none" stroke="#000000" d="M92.5,-24C111.0273,-24 131.1118,-24 149.6126,-24"/>
<polygon fill="#000000" stroke="#000000" points="149.7079,-27.5001 159.7079,-24 149.7078,-20.5001 149.7079,-27.5001"/>
<text text-anchor="middle" x="126.5" y="-27.4" font-family="Helvetica,sans-Serif" font-size="12.00" fill="#000000">has&#45;a</text>
</g>
</g>
</svg>
