<?xml version="1.0" encoding="UTF-8" standalone="no"?>
<!DOCTYPE svg PUBLIC "-//W3C//DTD SVG 1.1//EN"
 "http://www.w3.org/Graphics/SVG/1.1/DTD/svg11.dtd">
<!-- Generated by graphviz version 2.40.1 (20161225.0304)
 -->
<!-- Title: graphic Pages: 1 -->
<svg width="537pt" height="45pt"
 viewBox="0.00 0.00 537.00 45.00" xmlns="http://www.w3.org/2000/svg" xmlns:xlink="http://www.w3.org/1999/xlink">
<g id="graph0" class="graph" transform="scale(1 1) rotate(0) translate(4 41)">
<title>graphic</title>
<polygon fill="#ffffff" stroke="transparent" points="-4,4 -4,-41 533,-41 533,4 -4,4"/>
<!-- cbrn:DataFileSizeValue -->
<g id="node1" class="node">
<title>cbrn:DataFileSizeValue</title>
<text text-anchor="start" x="176.5" y="-21.4" font-family="Helvetica,sans-Serif" font-weight="bold" font-size="12.00" fill="#000000">cbrn:DataFileSizeValue</text>
<polygon fill="none" stroke="#ff0000" stroke-width="5" points="172.5,-14 172.5,-34 312.5,-34 312.5,-14 172.5,-14"/>
</g>
<!-- niem&#45;xs:nonNegativeInteger -->
<g id="node3" class="node">
<title>niem&#45;xs:nonNegativeInteger</title>
<g id="a_node3_0"><a xlink:href="../../niem-xs/nonNegativeInteger/#diagram" xlink:title="A data type for an integer with a minimum value of 0." target="_top">
<text text-anchor="start" x="376.5" y="-20.4" font-family="Helvetica,sans-Serif" font-size="12.00" fill="#000000">niem&#45;xs:nonNegativeInteger</text>
</a>
</g>
<polygon fill="none" stroke="#000000" points="374,-15.5 374,-32.5 529,-32.5 529,-15.5 374,-15.5"/>
</g>
<!-- cbrn:DataFileSizeValue&#45;&gt;niem&#45;xs:nonNegativeInteger -->
<g id="edge2" class="edge">
<title>cbrn:DataFileSizeValue&#45;&gt;niem&#45;xs:nonNegativeInteger</title>
<path fill="none" stroke="#000000" d="M315.0115,-24C330.7307,-24 347.5187,-24 363.7528,-24"/>
<polygon fill="#000000" stroke="#000000" points="363.7748,-27.5001 373.7748,-24 363.7747,-20.5001 363.7748,-27.5001"/>
<text text-anchor="middle" x="344.5" y="-27.4" font-family="Helvetica,sans-Serif" font-size="12.00" fill="#000000">type</text>
</g>
<!-- Types -->
<g id="node2" class="node">
<title>Types</title>
<text text-anchor="start" x="2.5" y="-21.4" font-family="Helvetica,sans-Serif" font-weight="bold" font-size="12.00" fill="#000000">Types</text>
<g id="a_node2_1"><a xlink:href="../../cbrn/DataFileType/#diagram" xlink:title="A data type that defines a data file and its properties." target="_top">
<polygon fill="#ebebeb" stroke="transparent" points="1.5,-1 1.5,-16 102.5,-16 102.5,-1 1.5,-1"/>
<text text-anchor="start" x="2.5" y="-5.4" font-family="Helvetica,sans-Serif" font-size="12.00" fill="#000000">cbrn:DataFileType</text>
</a>
</g>
<polygon fill="#000000" stroke="#000000" points=".5,-16 .5,-16 103.5,-16 103.5,-16 .5,-16"/>
<polygon fill="none" stroke="#000000" points="0,0 0,-32 103,-32 103,0 0,0"/>
</g>
<!-- Types&#45;&gt;cbrn:DataFileSizeValue -->
<g id="edge1" class="edge">
<title>Types:top&#45;&gt;cbrn:DataFileSizeValue</title>
<path fill="none" stroke="#000000" d="M102.5,-24C121.0425,-24 140.9664,-24 159.8017,-24"/>
<polygon fill="#000000" stroke="#000000" points="159.8374,-27.5001 169.8373,-24 159.8373,-20.5001 159.8374,-27.5001"/>
<text text-anchor="middle" x="136.5" y="-27.4" font-family="Helvetica,sans-Serif" font-size="12.00" fill="#000000">has&#45;a</text>
</g>
</g>
</svg>
