<?xml version="1.0" encoding="UTF-8" standalone="no"?>
<!DOCTYPE svg PUBLIC "-//W3C//DTD SVG 1.1//EN"
 "http://www.w3.org/Graphics/SVG/1.1/DTD/svg11.dtd">
<!-- Generated by graphviz version 2.40.1 (20161225.0304)
 -->
<!-- Title: graphic Pages: 1 -->
<svg width="423pt" height="45pt"
 viewBox="0.00 0.00 423.00 45.00" xmlns="http://www.w3.org/2000/svg" xmlns:xlink="http://www.w3.org/1999/xlink">
<g id="graph0" class="graph" transform="scale(1 1) rotate(0) translate(4 41)">
<title>graphic</title>
<polygon fill="#ffffff" stroke="transparent" points="-4,4 -4,-41 419,-41 419,4 -4,4"/>
<!-- nc:AngleMeasureAugmentationPoint -->
<g id="node1" class="node">
<title>nc:AngleMeasureAugmentationPoint</title>
<text text-anchor="start" x="198.5" y="-21.4" font-family="Helvetica,sans-Serif" font-weight="bold" font-size="12.00" fill="#000000">nc:AngleMeasureAugmentationPoint</text>
<polygon fill="none" stroke="#ff0000" stroke-width="5" points="194.5,-14 194.5,-34 412.5,-34 412.5,-14 194.5,-14"/>
</g>
<!-- Types -->
<g id="node2" class="node">
<title>Types</title>
<text text-anchor="start" x="2.5" y="-21.4" font-family="Helvetica,sans-Serif" font-weight="bold" font-size="12.00" fill="#000000">Types</text>
<g id="a_node2_0"><a xlink:href="../../nc/AngleMeasureType/#diagram" xlink:title="A data type for a measure of an angular value." target="_top">
<polygon fill="#ebebeb" stroke="transparent" points="1.5,-1 1.5,-16 124.5,-16 124.5,-1 1.5,-1"/>
<text text-anchor="start" x="2.5" y="-5.4" font-family="Helvetica,sans-Serif" font-size="12.00" fill="#000000">nc:AngleMeasureType</text>
</a>
</g>
<polygon fill="#000000" stroke="#000000" points=".5,-16 .5,-16 125.5,-16 125.5,-16 .5,-16"/>
<polygon fill="none" stroke="#000000" points="0,0 0,-32 125,-32 125,0 0,0"/>
</g>
<!-- Types&#45;&gt;nc:AngleMeasureAugmentationPoint -->
<g id="edge1" class="edge">
<title>Types:top&#45;&gt;nc:AngleMeasureAugmentationPoint</title>
<path fill="none" stroke="#000000" d="M124.5,-24C142.9395,-24 162.4474,-24 181.5379,-24"/>
<polygon fill="#000000" stroke="#000000" points="181.7819,-27.5001 191.7819,-24 181.7818,-20.5001 181.7819,-27.5001"/>
<text text-anchor="middle" x="158.5" y="-27.4" font-family="Helvetica,sans-Serif" font-size="12.00" fill="#000000">has&#45;a</text>
</g>
</g>
</svg>
