<?xml version="1.0" encoding="UTF-8" standalone="no"?>
<!DOCTYPE svg PUBLIC "-//W3C//DTD SVG 1.1//EN"
 "http://www.w3.org/Graphics/SVG/1.1/DTD/svg11.dtd">
<!-- Generated by graphviz version 2.40.1 (20161225.0304)
 -->
<!-- Title: graphic Pages: 1 -->
<svg width="538pt" height="86pt"
 viewBox="0.00 0.00 538.00 86.00" xmlns="http://www.w3.org/2000/svg" xmlns:xlink="http://www.w3.org/1999/xlink">
<g id="graph0" class="graph" transform="scale(1 1) rotate(0) translate(4 82)">
<title>graphic</title>
<polygon fill="#ffffff" stroke="transparent" points="-4,4 -4,-82 534,-82 534,4 -4,4"/>
<!-- j:DomesticViolenceChildImpactCode -->
<g id="node1" class="node">
<title>j:DomesticViolenceChildImpactCode</title>
<text text-anchor="start" x="6" y="-9.9" font-family="Helvetica,sans-Serif" font-weight="bold" font-size="12.00" fill="#000000">j:DomesticViolenceChildImpactCode</text>
<polygon fill="none" stroke="#ff0000" stroke-width="5" points="2.5,-2.5 2.5,-22.5 219.5,-22.5 219.5,-2.5 2.5,-2.5"/>
</g>
<!-- ndex:DomesticViolenceChildImpactCodeType -->
<g id="node3" class="node">
<title>ndex:DomesticViolenceChildImpactCodeType</title>
<g id="a_node3_0"><a xlink:href="../../ndex/DomesticViolenceChildImpactCodeType/#diagram" xlink:title="A data type for a code that indicates the impact of domestic violence upon children." target="_top">
<text text-anchor="start" x="283.5" y="-8.9" font-family="Helvetica,sans-Serif" font-size="12.00" fill="#000000">ndex:DomesticViolenceChildImpactCodeType</text>
</a>
</g>
<polygon fill="none" stroke="#000000" points="281,-4 281,-21 530,-21 530,-4 281,-4"/>
</g>
<!-- j:DomesticViolenceChildImpactCode&#45;&gt;ndex:DomesticViolenceChildImpactCodeType -->
<g id="edge2" class="edge">
<title>j:DomesticViolenceChildImpactCode&#45;&gt;ndex:DomesticViolenceChildImpactCodeType</title>
<path fill="none" stroke="#000000" d="M222.3378,-12.5C238.1199,-12.5 254.4881,-12.5 270.6554,-12.5"/>
<polygon fill="#000000" stroke="#000000" points="270.6889,-16.0001 280.6889,-12.5 270.6888,-9.0001 270.6889,-16.0001"/>
<text text-anchor="middle" x="251.5" y="-15.9" font-family="Helvetica,sans-Serif" font-size="12.00" fill="#000000">type</text>
</g>
<!-- SubstitutionGroup -->
<g id="node2" class="node">
<title>SubstitutionGroup</title>
<g id="a_node2_1"><a xlink:href="../../j/DomesticViolenceChildImpactAbstract/#diagram" xlink:title="A data concept for an impact of domestic violence upon children." target="_top">
<text text-anchor="start" x="6" y="-65.9" font-family="Helvetica,sans-Serif" font-size="12.00" fill="#000000">j:DomesticViolenceChildImpactAbstract</text>
</a>
</g>
<polygon fill="none" stroke="#000000" points="4,-61 4,-78 218,-78 218,-61 4,-61"/>
</g>
<!-- SubstitutionGroup&#45;&gt;j:DomesticViolenceChildImpactCode -->
<g id="edge1" class="edge">
<title>SubstitutionGroup&#45;&gt;j:DomesticViolenceChildImpactCode</title>
<path fill="none" stroke="#000000" d="M111,-50.9163C111,-42.4809 111,-32.7214 111,-25.1501"/>
<polygon fill="#000000" stroke="#000000" points="107.5001,-50.9472 111,-60.9473 114.5001,-50.9473 107.5001,-50.9472"/>
<text text-anchor="middle" x="101.5" y="-39.9" font-family="Helvetica,sans-Serif" font-size="12.00" fill="#000000">substitution group</text>
</g>
</g>
</svg>
