<?xml version="1.0" encoding="UTF-8" standalone="no"?>
<!DOCTYPE svg PUBLIC "-//W3C//DTD SVG 1.1//EN"
 "http://www.w3.org/Graphics/SVG/1.1/DTD/svg11.dtd">
<!-- Generated by graphviz version 2.40.1 (20161225.0304)
 -->
<!-- Title: graphic Pages: 1 -->
<svg width="526pt" height="45pt"
 viewBox="0.00 0.00 526.00 45.00" xmlns="http://www.w3.org/2000/svg" xmlns:xlink="http://www.w3.org/1999/xlink">
<g id="graph0" class="graph" transform="scale(1 1) rotate(0) translate(4 41)">
<title>graphic</title>
<polygon fill="#ffffff" stroke="transparent" points="-4,4 -4,-41 522,-41 522,4 -4,4"/>
<!-- biom:MetricCodeText -->
<g id="node1" class="node">
<title>biom:MetricCodeText</title>
<text text-anchor="start" x="259.5" y="-21.4" font-family="Helvetica,sans-Serif" font-weight="bold" font-size="12.00" fill="#000000">biom:MetricCodeText</text>
<polygon fill="none" stroke="#ff0000" stroke-width="5" points="255.5,-14 255.5,-34 385.5,-34 385.5,-14 255.5,-14"/>
</g>
<!-- nc:TextType -->
<g id="node3" class="node">
<title>nc:TextType</title>
<g id="a_node3_0"><a xlink:href="../../nc/TextType/#diagram" xlink:title="A data type for a character string." target="_top">
<text text-anchor="start" x="449.5" y="-20.4" font-family="Helvetica,sans-Serif" font-size="12.00" fill="#000000">nc:TextType</text>
</a>
</g>
<polygon fill="none" stroke="#000000" points="447,-15.5 447,-32.5 518,-32.5 518,-15.5 447,-15.5"/>
</g>
<!-- biom:MetricCodeText&#45;&gt;nc:TextType -->
<g id="edge2" class="edge">
<title>biom:MetricCodeText&#45;&gt;nc:TextType</title>
<path fill="none" stroke="#000000" d="M388.2639,-24C404.6075,-24 421.6901,-24 436.7522,-24"/>
<polygon fill="#000000" stroke="#000000" points="436.8231,-27.5001 446.8231,-24 436.8231,-20.5001 436.8231,-27.5001"/>
<text text-anchor="middle" x="417.5" y="-27.4" font-family="Helvetica,sans-Serif" font-size="12.00" fill="#000000">type</text>
</g>
<!-- Types -->
<g id="node2" class="node">
<title>Types</title>
<text text-anchor="start" x="2" y="-21.4" font-family="Helvetica,sans-Serif" font-weight="bold" font-size="12.00" fill="#000000">Types</text>
<g id="a_node2_1"><a xlink:href="../../biom/BiometricCaptureMetricType/#diagram" xlink:title="A data type for representing Biometric Quality Metrics for the captured biometric image" target="_top">
<polygon fill="#ebebeb" stroke="transparent" points="1,-1 1,-16 185,-16 185,-1 1,-1"/>
<text text-anchor="start" x="2" y="-5.4" font-family="Helvetica,sans-Serif" font-size="12.00" fill="#000000">biom:BiometricCaptureMetricType</text>
</a>
</g>
<polygon fill="#000000" stroke="#000000" points="0,-16 0,-16 186,-16 186,-16 0,-16"/>
<polygon fill="none" stroke="#000000" points="0,0 0,-32 186,-32 186,0 0,0"/>
</g>
<!-- Types&#45;&gt;biom:MetricCodeText -->
<g id="edge1" class="edge">
<title>Types:top&#45;&gt;biom:MetricCodeText</title>
<path fill="none" stroke="#000000" d="M185,-24C203.7441,-24 223.9467,-24 242.8841,-24"/>
<polygon fill="#000000" stroke="#000000" points="242.9561,-27.5001 252.9561,-24 242.9561,-20.5001 242.9561,-27.5001"/>
<text text-anchor="middle" x="219.5" y="-27.4" font-family="Helvetica,sans-Serif" font-size="12.00" fill="#000000">has&#45;a</text>
</g>
</g>
</svg>
