<?xml version="1.0" encoding="UTF-8" standalone="no"?>
<!DOCTYPE svg PUBLIC "-//W3C//DTD SVG 1.1//EN"
 "http://www.w3.org/Graphics/SVG/1.1/DTD/svg11.dtd">
<!-- Generated by graphviz version 2.40.1 (20161225.0304)
 -->
<!-- Title: graphic Pages: 1 -->
<svg width="479pt" height="90pt"
 viewBox="0.00 0.00 479.00 89.50" xmlns="http://www.w3.org/2000/svg" xmlns:xlink="http://www.w3.org/1999/xlink">
<g id="graph0" class="graph" transform="scale(1 1) rotate(0) translate(4 85.5)">
<title>graphic</title>
<polygon fill="#ffffff" stroke="transparent" points="-4,4 -4,-85.5 475,-85.5 475,4 -4,4"/>
<!-- nc:ActivityName -->
<g id="node1" class="node">
<title>nc:ActivityName</title>
<text text-anchor="start" x="240.5" y="-65.9" font-family="Helvetica,sans-Serif" font-weight="bold" font-size="12.00" fill="#000000">nc:ActivityName</text>
<polygon fill="none" stroke="#ff0000" stroke-width="5" points="236.5,-58.5 236.5,-78.5 338.5,-78.5 338.5,-58.5 236.5,-58.5"/>
</g>
<!-- nc:TextType -->
<g id="node3" class="node">
<title>nc:TextType</title>
<g id="a_node3_0"><a xlink:href="../../nc/TextType/#diagram" xlink:title="A data type for a character string." target="_top">
<text text-anchor="start" x="402.5" y="-64.9" font-family="Helvetica,sans-Serif" font-size="12.00" fill="#000000">nc:TextType</text>
</a>
</g>
<polygon fill="none" stroke="#000000" points="400,-60 400,-77 471,-77 471,-60 400,-60"/>
</g>
<!-- nc:ActivityName&#45;&gt;nc:TextType -->
<g id="edge2" class="edge">
<title>nc:ActivityName&#45;&gt;nc:TextType</title>
<path fill="none" stroke="#000000" d="M341.3501,-68.5C357.1982,-68.5 374.3811,-68.5 389.6762,-68.5"/>
<polygon fill="#000000" stroke="#000000" points="389.9238,-72.0001 399.9238,-68.5 389.9238,-65.0001 389.9238,-72.0001"/>
<text text-anchor="middle" x="370.5" y="-71.9" font-family="Helvetica,sans-Serif" font-size="12.00" fill="#000000">type</text>
</g>
<!-- Types -->
<g id="node2" class="node">
<title>Types</title>
<text text-anchor="start" x="2.5" y="-65.9" font-family="Helvetica,sans-Serif" font-weight="bold" font-size="12.00" fill="#000000">Types</text>
<g id="a_node2_1"><a xlink:href="../../cbrn/ReportType/#diagram" xlink:title="A data type for a report provided on an unsolicited basis; i.e., not in response to a request message (Pull), but by Push from the entity providing the report." target="_top">
<polygon fill="#ebebeb" stroke="transparent" points="1.5,-45.5 1.5,-60.5 166.5,-60.5 166.5,-45.5 1.5,-45.5"/>
<text text-anchor="start" x="2.5" y="-49.9" font-family="Helvetica,sans-Serif" font-size="12.00" fill="#000000">cbrn:ReportType</text>
</a>
</g>
<g id="a_node2_2"><a xlink:href="../../cbrn/RequestDataType/#diagram" xlink:title="A data type to provide metadata about a request." target="_top">
<text text-anchor="start" x="2.5" y="-34.9" font-family="Helvetica,sans-Serif" font-size="12.00" fill="#000000">cbrn:RequestDataType</text>
</a>
</g>
<g id="a_node2_3"><a xlink:href="../../em/DeploymentSummaryType/#diagram" xlink:title="A data type that represents the deployment brief summary of a resource." target="_top">
<polygon fill="#ebebeb" stroke="transparent" points="1.5,-15.5 1.5,-30.5 166.5,-30.5 166.5,-15.5 1.5,-15.5"/>
<text text-anchor="start" x="2.5" y="-19.9" font-family="Helvetica,sans-Serif" font-size="12.00" fill="#000000">em:DeploymentSummaryType</text>
</a>
</g>
<g id="a_node2_4"><a xlink:href="../../nc/ActivityType/#diagram" xlink:title="A data type for a single or set of related actions, events, or process steps." target="_top">
<text text-anchor="start" x="2.5" y="-4.9" font-family="Helvetica,sans-Serif" font-size="12.00" fill="#000000">nc:ActivityType</text>
</a>
</g>
<polygon fill="#000000" stroke="#000000" points=".5,-60.5 .5,-60.5 167.5,-60.5 167.5,-60.5 .5,-60.5"/>
<polygon fill="none" stroke="#000000" points="0,0 0,-77 167,-77 167,0 0,0"/>
</g>
<!-- Types&#45;&gt;nc:ActivityName -->
<g id="edge1" class="edge">
<title>Types:top&#45;&gt;nc:ActivityName</title>
<path fill="none" stroke="#000000" d="M166.5,-68.5C185.1108,-68.5 205.3318,-68.5 223.8196,-68.5"/>
<polygon fill="#000000" stroke="#000000" points="223.8911,-72.0001 233.8911,-68.5 223.8911,-65.0001 223.8911,-72.0001"/>
<text text-anchor="middle" x="200.5" y="-71.9" font-family="Helvetica,sans-Serif" font-size="12.00" fill="#000000">has&#45;a</text>
</g>
</g>
</svg>
