<?xml version="1.0" encoding="UTF-8" standalone="no"?>
<!DOCTYPE svg PUBLIC "-//W3C//DTD SVG 1.1//EN"
 "http://www.w3.org/Graphics/SVG/1.1/DTD/svg11.dtd">
<!-- Generated by graphviz version 2.40.1 (20161225.0304)
 -->
<!-- Title: graphic Pages: 1 -->
<svg width="454pt" height="45pt"
 viewBox="0.00 0.00 454.00 45.00" xmlns="http://www.w3.org/2000/svg" xmlns:xlink="http://www.w3.org/1999/xlink">
<g id="graph0" class="graph" transform="scale(1 1) rotate(0) translate(4 41)">
<title>graphic</title>
<polygon fill="#ffffff" stroke="transparent" points="-4,4 -4,-41 450,-41 450,4 -4,4"/>
<!-- j:SentenceSuspendedTerm -->
<g id="node1" class="node">
<title>j:SentenceSuspendedTerm</title>
<text text-anchor="start" x="161.5" y="-21.4" font-family="Helvetica,sans-Serif" font-weight="bold" font-size="12.00" fill="#000000">j:SentenceSuspendedTerm</text>
<polygon fill="none" stroke="#ff0000" stroke-width="5" points="157.5,-14 157.5,-34 319.5,-34 319.5,-14 157.5,-14"/>
</g>
<!-- j:TermType -->
<g id="node3" class="node">
<title>j:TermType</title>
<g id="a_node3_0"><a xlink:href="../../j/TermType/#diagram" xlink:title="A data type for a duration length either in specific terms or as a range." target="_top">
<text text-anchor="start" x="383.5" y="-20.4" font-family="Helvetica,sans-Serif" font-size="12.00" fill="#000000">j:TermType</text>
</a>
</g>
<polygon fill="none" stroke="#000000" points="381,-15.5 381,-32.5 446,-32.5 446,-15.5 381,-15.5"/>
</g>
<!-- j:SentenceSuspendedTerm&#45;&gt;j:TermType -->
<g id="edge2" class="edge">
<title>j:SentenceSuspendedTerm&#45;&gt;j:TermType</title>
<path fill="none" stroke="#000000" d="M322.1559,-24C338.9857,-24 356.0056,-24 370.7185,-24"/>
<polygon fill="#000000" stroke="#000000" points="370.9884,-27.5001 380.9884,-24 370.9883,-20.5001 370.9884,-27.5001"/>
<text text-anchor="middle" x="351.5" y="-27.4" font-family="Helvetica,sans-Serif" font-size="12.00" fill="#000000">type</text>
</g>
<!-- Types -->
<g id="node2" class="node">
<title>Types</title>
<text text-anchor="start" x="2" y="-21.4" font-family="Helvetica,sans-Serif" font-weight="bold" font-size="12.00" fill="#000000">Types</text>
<g id="a_node2_1"><a xlink:href="../../j/SentenceType/#diagram" xlink:title="A data type for a punishment resulting from conviction of charges in a court case." target="_top">
<polygon fill="#ebebeb" stroke="transparent" points="1,-1 1,-16 87,-16 87,-1 1,-1"/>
<text text-anchor="start" x="2" y="-5.4" font-family="Helvetica,sans-Serif" font-size="12.00" fill="#000000">j:SentenceType</text>
</a>
</g>
<polygon fill="#000000" stroke="#000000" points="0,-16 0,-16 88,-16 88,-16 0,-16"/>
<polygon fill="none" stroke="#000000" points="0,0 0,-32 88,-32 88,0 0,0"/>
</g>
<!-- Types&#45;&gt;j:SentenceSuspendedTerm -->
<g id="edge1" class="edge">
<title>Types:top&#45;&gt;j:SentenceSuspendedTerm</title>
<path fill="none" stroke="#000000" d="M87,-24C105.6164,-24 125.5196,-24 144.575,-24"/>
<polygon fill="#000000" stroke="#000000" points="144.7546,-27.5001 154.7545,-24 144.7545,-20.5001 144.7546,-27.5001"/>
<text text-anchor="middle" x="121.5" y="-27.4" font-family="Helvetica,sans-Serif" font-size="12.00" fill="#000000">has&#45;a</text>
</g>
</g>
</svg>
