<?xml version="1.0" encoding="UTF-8" standalone="no"?>
<!DOCTYPE svg PUBLIC "-//W3C//DTD SVG 1.1//EN"
 "http://www.w3.org/Graphics/SVG/1.1/DTD/svg11.dtd">
<!-- Generated by graphviz version 2.40.1 (20161225.0304)
 -->
<!-- Title: graphic Pages: 1 -->
<svg width="707pt" height="60pt"
 viewBox="0.00 0.00 707.00 59.50" xmlns="http://www.w3.org/2000/svg" xmlns:xlink="http://www.w3.org/1999/xlink">
<g id="graph0" class="graph" transform="scale(1 1) rotate(0) translate(4 55.5)">
<title>graphic</title>
<polygon fill="#ffffff" stroke="transparent" points="-4,4 -4,-55.5 703,-55.5 703,4 -4,4"/>
<!-- stat:QuestionnaireComponent -->
<g id="node1" class="node">
<title>stat:QuestionnaireComponent</title>
<text text-anchor="start" x="270.5" y="-35.9" font-family="Helvetica,sans-Serif" font-weight="bold" font-size="12.00" fill="#000000">stat:QuestionnaireComponent</text>
<polygon fill="none" stroke="#ff0000" stroke-width="5" points="266.5,-28.5 266.5,-48.5 446.5,-48.5 446.5,-28.5 266.5,-28.5"/>
</g>
<!-- stat:QuestionnaireComponentType -->
<g id="node3" class="node">
<title>stat:QuestionnaireComponentType</title>
<g id="a_node3_0"><a xlink:href="../../stat/QuestionnaireComponentType/#diagram" xlink:title="A data type for a record of the flow of a questionnaire specification and its use of questions, question blocks and statements." target="_top">
<text text-anchor="start" x="510.5" y="-34.9" font-family="Helvetica,sans-Serif" font-size="12.00" fill="#000000">stat:QuestionnaireComponentType</text>
</a>
</g>
<polygon fill="none" stroke="#000000" points="508,-30 508,-47 699,-47 699,-30 508,-30"/>
</g>
<!-- stat:QuestionnaireComponent&#45;&gt;stat:QuestionnaireComponentType -->
<g id="edge2" class="edge">
<title>stat:QuestionnaireComponent&#45;&gt;stat:QuestionnaireComponentType</title>
<path fill="none" stroke="#000000" d="M449.1764,-38.5C465.047,-38.5 481.6431,-38.5 497.8223,-38.5"/>
<polygon fill="#000000" stroke="#000000" points="497.8322,-42.0001 507.8321,-38.5 497.8321,-35.0001 497.8322,-42.0001"/>
<text text-anchor="middle" x="478.5" y="-41.9" font-family="Helvetica,sans-Serif" font-size="12.00" fill="#000000">type</text>
</g>
<!-- Types -->
<g id="node2" class="node">
<title>Types</title>
<text text-anchor="start" x="2.5" y="-35.9" font-family="Helvetica,sans-Serif" font-weight="bold" font-size="12.00" fill="#000000">Types</text>
<g id="a_node2_1"><a xlink:href="../../stat/QuestionnaireLogicType/#diagram" xlink:title="A data type for a sequence of questions, question blocks and statements based on factors such as the current location, the response to the previous questions etc., invoking navigation and validation rules to apply." target="_top">
<polygon fill="#ebebeb" stroke="transparent" points="1.5,-15.5 1.5,-30.5 196.5,-30.5 196.5,-15.5 1.5,-15.5"/>
<text text-anchor="start" x="2.5" y="-19.9" font-family="Helvetica,sans-Serif" font-size="12.00" fill="#000000">stat:QuestionnaireLogicType</text>
</a>
</g>
<g id="a_node2_2"><a xlink:href="../../stat/QuestionnaireSpecificationType/#diagram" xlink:title="A data type for a tool designed to elicit information from observation units." target="_top">
<text text-anchor="start" x="2.5" y="-4.9" font-family="Helvetica,sans-Serif" font-size="12.00" fill="#000000">stat:QuestionnaireSpecificationType</text>
</a>
</g>
<polygon fill="#000000" stroke="#000000" points=".5,-30.5 .5,-30.5 197.5,-30.5 197.5,-30.5 .5,-30.5"/>
<polygon fill="none" stroke="#000000" points="0,0 0,-47 197,-47 197,0 0,0"/>
</g>
<!-- Types&#45;&gt;stat:QuestionnaireComponent -->
<g id="edge1" class="edge">
<title>Types:top&#45;&gt;stat:QuestionnaireComponent</title>
<path fill="none" stroke="#000000" d="M196.5,-38.5C214.9836,-38.5 234.6683,-38.5 253.681,-38.5"/>
<polygon fill="#000000" stroke="#000000" points="253.856,-42.0001 263.856,-38.5 253.856,-35.0001 253.856,-42.0001"/>
<text text-anchor="middle" x="230.5" y="-41.9" font-family="Helvetica,sans-Serif" font-size="12.00" fill="#000000">has&#45;a</text>
</g>
</g>
</svg>
