<?xml version="1.0" encoding="UTF-8" standalone="no"?>
<!DOCTYPE svg PUBLIC "-//W3C//DTD SVG 1.1//EN"
 "http://www.w3.org/Graphics/SVG/1.1/DTD/svg11.dtd">
<!-- Generated by graphviz version 2.40.1 (20161225.0304)
 -->
<!-- Title: graphic Pages: 1 -->
<svg width="998pt" height="45pt"
 viewBox="0.00 0.00 998.00 45.00" xmlns="http://www.w3.org/2000/svg" xmlns:xlink="http://www.w3.org/1999/xlink">
<g id="graph0" class="graph" transform="scale(1 1) rotate(0) translate(4 41)">
<title>graphic</title>
<polygon fill="#ffffff" stroke="transparent" points="-4,4 -4,-41 994,-41 994,4 -4,4"/>
<!-- j:SubjectSupervisedEmploymentRecommendation -->
<g id="node1" class="node">
<title>j:SubjectSupervisedEmploymentRecommendation</title>
<text text-anchor="start" x="338.5" y="-21.4" font-family="Helvetica,sans-Serif" font-weight="bold" font-size="12.00" fill="#000000">j:SubjectSupervisedEmploymentRecommendation</text>
<polygon fill="none" stroke="#ff0000" stroke-width="5" points="334.5,-14 334.5,-34 630.5,-34 630.5,-14 334.5,-14"/>
</g>
<!-- j:SubjectSupervisedEmploymentRecommendationType -->
<g id="node3" class="node">
<title>j:SubjectSupervisedEmploymentRecommendationType</title>
<g id="a_node3_0"><a xlink:href="../../j/SubjectSupervisedEmploymentRecommendationType/#diagram" xlink:title="A data type for a set of details in recommendation of a subject&#39;s supervised employment." target="_top">
<text text-anchor="start" x="694" y="-20.4" font-family="Helvetica,sans-Serif" font-size="12.00" fill="#000000">j:SubjectSupervisedEmploymentRecommendationType</text>
</a>
</g>
<polygon fill="none" stroke="#000000" points="692,-15.5 692,-32.5 990,-32.5 990,-15.5 692,-15.5"/>
</g>
<!-- j:SubjectSupervisedEmploymentRecommendation&#45;&gt;j:SubjectSupervisedEmploymentRecommendationType -->
<g id="edge2" class="edge">
<title>j:SubjectSupervisedEmploymentRecommendation&#45;&gt;j:SubjectSupervisedEmploymentRecommendationType</title>
<path fill="none" stroke="#000000" d="M633.2376,-24C649.333,-24 665.7432,-24 681.931,-24"/>
<polygon fill="#000000" stroke="#000000" points="681.9767,-27.5001 691.9767,-24 681.9767,-20.5001 681.9767,-27.5001"/>
<text text-anchor="middle" x="662.5" y="-27.4" font-family="Helvetica,sans-Serif" font-size="12.00" fill="#000000">type</text>
</g>
<!-- Types -->
<g id="node2" class="node">
<title>Types</title>
<text text-anchor="start" x="2.5" y="-21.4" font-family="Helvetica,sans-Serif" font-weight="bold" font-size="12.00" fill="#000000">Types</text>
<g id="a_node2_1"><a xlink:href="../../j/SubjectSupervisedEmploymentAssociationType/#diagram" xlink:title="A data type for an association between a subject and supervised employment." target="_top">
<polygon fill="#ebebeb" stroke="transparent" points="1.5,-1 1.5,-16 264.5,-16 264.5,-1 1.5,-1"/>
<text text-anchor="start" x="2.5" y="-5.4" font-family="Helvetica,sans-Serif" font-size="12.00" fill="#000000">j:SubjectSupervisedEmploymentAssociationType</text>
</a>
</g>
<polygon fill="#000000" stroke="#000000" points=".5,-16 .5,-16 265.5,-16 265.5,-16 .5,-16"/>
<polygon fill="none" stroke="#000000" points="0,0 0,-32 265,-32 265,0 0,0"/>
</g>
<!-- Types&#45;&gt;j:SubjectSupervisedEmploymentRecommendation -->
<g id="edge1" class="edge">
<title>Types:top&#45;&gt;j:SubjectSupervisedEmploymentRecommendation</title>
<path fill="none" stroke="#000000" d="M264.5,-24C283.0318,-24 302.4498,-24 321.737,-24"/>
<polygon fill="#000000" stroke="#000000" points="321.8057,-27.5001 331.8056,-24 321.8056,-20.5001 321.8057,-27.5001"/>
<text text-anchor="middle" x="298.5" y="-27.4" font-family="Helvetica,sans-Serif" font-size="12.00" fill="#000000">has&#45;a</text>
</g>
</g>
</svg>
