<?xml version="1.0" encoding="UTF-8" standalone="no"?>
<!DOCTYPE svg PUBLIC "-//W3C//DTD SVG 1.1//EN"
 "http://www.w3.org/Graphics/SVG/1.1/DTD/svg11.dtd">
<!-- Generated by graphviz version 2.40.1 (20161225.0304)
 -->
<!-- Title: graphic Pages: 1 -->
<svg width="426pt" height="45pt"
 viewBox="0.00 0.00 426.00 45.00" xmlns="http://www.w3.org/2000/svg" xmlns:xlink="http://www.w3.org/1999/xlink">
<g id="graph0" class="graph" transform="scale(1 1) rotate(0) translate(4 41)">
<title>graphic</title>
<polygon fill="#ffffff" stroke="transparent" points="-4,4 -4,-41 422,-41 422,4 -4,4"/>
<!-- nc:PersonAccentText -->
<g id="node1" class="node">
<title>nc:PersonAccentText</title>
<text text-anchor="start" x="158" y="-21.4" font-family="Helvetica,sans-Serif" font-weight="bold" font-size="12.00" fill="#000000">nc:PersonAccentText</text>
<polygon fill="none" stroke="#ff0000" stroke-width="5" points="154.5,-14 154.5,-34 285.5,-34 285.5,-14 154.5,-14"/>
</g>
<!-- nc:TextType -->
<g id="node3" class="node">
<title>nc:TextType</title>
<g id="a_node3_0"><a xlink:href="../../nc/TextType/#diagram" xlink:title="A data type for a character string." target="_top">
<text text-anchor="start" x="349.5" y="-20.4" font-family="Helvetica,sans-Serif" font-size="12.00" fill="#000000">nc:TextType</text>
</a>
</g>
<polygon fill="none" stroke="#000000" points="347,-15.5 347,-32.5 418,-32.5 418,-15.5 347,-15.5"/>
</g>
<!-- nc:PersonAccentText&#45;&gt;nc:TextType -->
<g id="edge2" class="edge">
<title>nc:PersonAccentText&#45;&gt;nc:TextType</title>
<path fill="none" stroke="#000000" d="M288.4437,-24C304.7939,-24 321.8538,-24 336.8847,-24"/>
<polygon fill="#000000" stroke="#000000" points="336.9329,-27.5001 346.9329,-24 336.9328,-20.5001 336.9329,-27.5001"/>
<text text-anchor="middle" x="317.5" y="-27.4" font-family="Helvetica,sans-Serif" font-size="12.00" fill="#000000">type</text>
</g>
<!-- Types -->
<g id="node2" class="node">
<title>Types</title>
<text text-anchor="start" x="2.5" y="-21.4" font-family="Helvetica,sans-Serif" font-weight="bold" font-size="12.00" fill="#000000">Types</text>
<g id="a_node2_1"><a xlink:href="../../nc/PersonType/#diagram" xlink:title="A data type for a human being." target="_top">
<polygon fill="#ebebeb" stroke="transparent" points="1.5,-1 1.5,-16 84.5,-16 84.5,-1 1.5,-1"/>
<text text-anchor="start" x="2.5" y="-5.4" font-family="Helvetica,sans-Serif" font-size="12.00" fill="#000000">nc:PersonType</text>
</a>
</g>
<polygon fill="#000000" stroke="#000000" points=".5,-16 .5,-16 85.5,-16 85.5,-16 .5,-16"/>
<polygon fill="none" stroke="#000000" points="0,0 0,-32 85,-32 85,0 0,0"/>
</g>
<!-- Types&#45;&gt;nc:PersonAccentText -->
<g id="edge1" class="edge">
<title>Types:top&#45;&gt;nc:PersonAccentText</title>
<path fill="none" stroke="#000000" d="M84.5,-24C102.9592,-24 122.833,-24 141.5198,-24"/>
<polygon fill="#000000" stroke="#000000" points="141.7628,-27.5001 151.7627,-24 141.7627,-20.5001 141.7628,-27.5001"/>
<text text-anchor="middle" x="118.5" y="-27.4" font-family="Helvetica,sans-Serif" font-size="12.00" fill="#000000">has&#45;a</text>
</g>
</g>
</svg>
