<?xml version="1.0" encoding="UTF-8" standalone="no"?>
<!DOCTYPE svg PUBLIC "-//W3C//DTD SVG 1.1//EN"
 "http://www.w3.org/Graphics/SVG/1.1/DTD/svg11.dtd">
<!-- Generated by graphviz version 2.40.1 (20161225.0304)
 -->
<!-- Title: graphic Pages: 1 -->
<svg width="660pt" height="45pt"
 viewBox="0.00 0.00 660.00 45.00" xmlns="http://www.w3.org/2000/svg" xmlns:xlink="http://www.w3.org/1999/xlink">
<g id="graph0" class="graph" transform="scale(1 1) rotate(0) translate(4 41)">
<title>graphic</title>
<polygon fill="#ffffff" stroke="transparent" points="-4,4 -4,-41 656,-41 656,4 -4,4"/>
<!-- j:SentencingGuidelineRecommendationMonthsText -->
<g id="node1" class="node">
<title>j:SentencingGuidelineRecommendationMonthsText</title>
<text text-anchor="start" x="221.5" y="-21.4" font-family="Helvetica,sans-Serif" font-weight="bold" font-size="12.00" fill="#000000">j:SentencingGuidelineRecommendationMonthsText</text>
<polygon fill="none" stroke="#ff0000" stroke-width="5" points="217.5,-14 217.5,-34 519.5,-34 519.5,-14 217.5,-14"/>
</g>
<!-- nc:TextType -->
<g id="node3" class="node">
<title>nc:TextType</title>
<g id="a_node3_0"><a xlink:href="../../nc/TextType/#diagram" xlink:title="A data type for a character string." target="_top">
<text text-anchor="start" x="583.5" y="-20.4" font-family="Helvetica,sans-Serif" font-size="12.00" fill="#000000">nc:TextType</text>
</a>
</g>
<polygon fill="none" stroke="#000000" points="581,-15.5 581,-32.5 652,-32.5 652,-15.5 581,-15.5"/>
</g>
<!-- j:SentencingGuidelineRecommendationMonthsText&#45;&gt;nc:TextType -->
<g id="edge2" class="edge">
<title>j:SentencingGuidelineRecommendationMonthsText&#45;&gt;nc:TextType</title>
<path fill="none" stroke="#000000" d="M522.0344,-24C539.5766,-24 556.2815,-24 570.6309,-24"/>
<polygon fill="#000000" stroke="#000000" points="570.6416,-27.5001 580.6415,-24 570.6415,-20.5001 570.6416,-27.5001"/>
<text text-anchor="middle" x="551.5" y="-27.4" font-family="Helvetica,sans-Serif" font-size="12.00" fill="#000000">type</text>
</g>
<!-- Types -->
<g id="node2" class="node">
<title>Types</title>
<text text-anchor="start" x="2" y="-21.4" font-family="Helvetica,sans-Serif" font-weight="bold" font-size="12.00" fill="#000000">Types</text>
<g id="a_node2_1"><a xlink:href="../../j/SentencingGuidelineType/#diagram" xlink:title="A data type for a sentencing guideline used for determining a sanction." target="_top">
<polygon fill="#ebebeb" stroke="transparent" points="1,-1 1,-16 147,-16 147,-1 1,-1"/>
<text text-anchor="start" x="2" y="-5.4" font-family="Helvetica,sans-Serif" font-size="12.00" fill="#000000">j:SentencingGuidelineType</text>
</a>
</g>
<polygon fill="#000000" stroke="#000000" points="0,-16 0,-16 148,-16 148,-16 0,-16"/>
<polygon fill="none" stroke="#000000" points="0,0 0,-32 148,-32 148,0 0,0"/>
</g>
<!-- Types&#45;&gt;j:SentencingGuidelineRecommendationMonthsText -->
<g id="edge1" class="edge">
<title>Types:top&#45;&gt;j:SentencingGuidelineRecommendationMonthsText</title>
<path fill="none" stroke="#000000" d="M147,-24C165.6656,-24 185.216,-24 204.6447,-24"/>
<polygon fill="#000000" stroke="#000000" points="204.7882,-27.5001 214.7882,-24 204.7881,-20.5001 204.7882,-27.5001"/>
<text text-anchor="middle" x="181.5" y="-27.4" font-family="Helvetica,sans-Serif" font-size="12.00" fill="#000000">has&#45;a</text>
</g>
</g>
</svg>
