<?xml version="1.0" encoding="UTF-8" standalone="no"?>
<!DOCTYPE svg PUBLIC "-//W3C//DTD SVG 1.1//EN"
 "http://www.w3.org/Graphics/SVG/1.1/DTD/svg11.dtd">
<!-- Generated by graphviz version 2.40.1 (20161225.0304)
 -->
<!-- Title: graphic Pages: 1 -->
<svg width="984pt" height="131pt"
 viewBox="0.00 0.00 984.00 130.50" xmlns="http://www.w3.org/2000/svg" xmlns:xlink="http://www.w3.org/1999/xlink">
<g id="graph0" class="graph" transform="scale(1 1) rotate(0) translate(4 126.5)">
<title>graphic</title>
<polygon fill="#ffffff" stroke="transparent" points="-4,4 -4,-126.5 980,-126.5 980,4 -4,4"/>
<!-- j:HearingReschedulingType -->
<g id="node1" class="node">
<title>j:HearingReschedulingType</title>
<text text-anchor="start" x="190.5" y="-55.4" font-family="Helvetica,sans-Serif" font-weight="bold" font-size="12.00" fill="#000000">j:HearingReschedulingType</text>
<g id="a_node1_0"><a xlink:href="../../j/HearingReschedulingReasonCategoryAbstract/#diagram" xlink:title="A data concept for a kind of reason that a hearing was rescheduled." target="_top">
<polygon fill="#ebebeb" stroke="transparent" points="189.5,-35 189.5,-50 544.5,-50 544.5,-35 189.5,-35"/>
<text text-anchor="start" x="190.5" y="-39.4" font-family="Helvetica,sans-Serif" font-size="12.00" fill="#000000">j:HearingReschedulingReasonCategoryAbstract [0&#45;n]</text>
</a>
</g>
<g id="a_node1_1"><a xlink:href="../../j/HearingReschedulingReasonOtherDetailsText/#diagram" xlink:title="A set of details related to an other reason for rescheduling a hearing." target="_top">
<text text-anchor="start" x="190.5" y="-24.4" font-family="Helvetica,sans-Serif" font-size="12.00" fill="#000000">j:HearingReschedulingReasonOtherDetailsText: nc:TextType [0&#45;n]</text>
</a>
</g>
<g id="a_node1_2"><a xlink:href="../../j/HearingReschedulingAugmentationPoint/#diagram" xlink:title="An augmentation point for type j:HearingReschedulingType" target="_top">
<polygon fill="#ebebeb" stroke="transparent" points="189.5,-5 189.5,-20 544.5,-20 544.5,-5 189.5,-5"/>
<text text-anchor="start" x="190.5" y="-9.4" font-family="Helvetica,sans-Serif" font-size="12.00" fill="#000000">j:HearingReschedulingAugmentationPoint [0&#45;n]</text>
</a>
</g>
<polygon fill="#ff0000" stroke="#ff0000" points="184.5,-50 184.5,-50 549.5,-50 549.5,-50 184.5,-50"/>
<polygon fill="none" stroke="#ff0000" stroke-width="5" points="186.5,-2.5 186.5,-67.5 546.5,-67.5 546.5,-2.5 186.5,-2.5"/>
</g>
<!-- subst_d9e31452 -->
<g id="node2" class="node">
<title>subst_d9e31452</title>
<g id="a_node2_3"><a xlink:href="../../j/HearingReschedulingReasonCategoryAbstract/#diagram" xlink:title="&lt;TABLE&gt;" target="_top">
<text text-anchor="start" x="588" y="-40.4" font-family="Helvetica,sans-Serif" font-weight="bold" font-size="12.00" fill="#000000">Substitution group j:HearingReschedulingReasonCategoryAbstract</text>
</a>
</g>
<g id="a_node2_4"><a xlink:href="../../j/HearingReschedulingReasonCategoryText/#diagram" xlink:title="A kind of reason that a hearing was rescheduled." target="_top">
<polygon fill="#ebebeb" stroke="transparent" points="587,-20 587,-35 975,-35 975,-20 587,-20"/>
<text text-anchor="start" x="588" y="-24.4" font-family="Helvetica,sans-Serif" font-size="12.00" fill="#000000">j:HearingReschedulingReasonCategoryText: nc:TextType</text>
</a>
</g>
<polygon fill="#000000" stroke="#000000" points="586,-35 586,-35 976,-35 976,-35 586,-35"/>
<polygon fill="none" stroke="#000000" points="586,-19 586,-51 976,-51 976,-19 586,-19"/>
</g>
<!-- j:HearingReschedulingType&#45;&gt;subst_d9e31452 -->
<g id="edge1" class="edge">
<title>j:HearingReschedulingType:e&#45;&gt;subst_d9e31452:w</title>
<path fill="none" stroke="#000000" d="M554.828,-43C566.0114,-43 572.0955,-43 587,-43"/>
<polygon fill="#000000" stroke="#000000" points="554.5,-39.5001 544.5,-43 554.5,-46.5001 554.5,-39.5001"/>
</g>
<!-- Properties -->
<g id="node3" class="node">
<title>Properties</title>
<text text-anchor="start" x="2.5" y="-55.4" font-family="Helvetica,sans-Serif" font-weight="bold" font-size="12.00" fill="#000000">Properties</text>
<g id="a_node3_5"><a xlink:href="../../j/HearingRescheduling/#diagram" xlink:title="A process of rescheduling a hearing, hearing events or of hearing process." target="_top">
<polygon fill="#ebebeb" stroke="transparent" points="1.5,-35 1.5,-50 124.5,-50 124.5,-35 1.5,-35"/>
<text text-anchor="start" x="2.5" y="-39.4" font-family="Helvetica,sans-Serif" font-size="12.00" fill="#000000">j:HearingRescheduling</text>
</a>
</g>
<polygon fill="#000000" stroke="#000000" points=".5,-50 .5,-50 125.5,-50 125.5,-50 .5,-50"/>
<polygon fill="none" stroke="#000000" points="0,-34 0,-66 125,-66 125,-34 0,-34"/>
</g>
<!-- Properties&#45;&gt;j:HearingReschedulingType -->
<g id="edge2" class="edge">
<title>Properties:top&#45;&gt;j:HearingReschedulingType:top</title>
<path fill="none" stroke="#000000" d="M124.5,-58C149.6649,-58 158.3891,-58 179.3154,-58"/>
<polygon fill="#000000" stroke="#000000" points="179.5,-61.5001 189.5,-58 179.5,-54.5001 179.5,-61.5001"/>
<text text-anchor="middle" x="154.5" y="-61.4" font-family="Helvetica,sans-Serif" font-size="12.00" fill="#000000">type</text>
</g>
<!-- structures:ObjectType -->
<g id="node4" class="node">
<title>structures:ObjectType</title>
<g id="a_node4_6"><a xlink:href="../../structures/ObjectType/#diagram" xlink:title="A data type for a thing with its own lifespan that has some existence." target="_top">
<text text-anchor="start" x="307.5" y="-110.4" font-family="Helvetica,sans-Serif" font-size="12.00" fill="#000000">structures:ObjectType</text>
</a>
</g>
<polygon fill="none" stroke="#000000" points="305.5,-105.5 305.5,-122.5 427.5,-122.5 427.5,-105.5 305.5,-105.5"/>
</g>
<!-- structures:ObjectType&#45;&gt;j:HearingReschedulingType -->
<g id="edge3" class="edge">
<title>structures:ObjectType&#45;&gt;j:HearingReschedulingType</title>
<path fill="none" stroke="#000000" d="M366.5,-105.4117C366.5,-99.1025 366.5,-89.9911 366.5,-80.4049"/>
<polygon fill="#000000" stroke="#000000" points="370.0001,-80.3408 366.5,-70.3408 363.0001,-80.3409 370.0001,-80.3408"/>
<text text-anchor="middle" x="357" y="-84.65" font-family="Helvetica,sans-Serif" font-size="12.00" fill="#000000">extension</text>
</g>
</g>
</svg>
