<?xml version="1.0" encoding="UTF-8" standalone="no"?>
<!DOCTYPE svg PUBLIC "-//W3C//DTD SVG 1.1//EN"
 "http://www.w3.org/Graphics/SVG/1.1/DTD/svg11.dtd">
<!-- Generated by graphviz version 2.40.1 (20161225.0304)
 -->
<!-- Title: graphic Pages: 1 -->
<svg width="417pt" height="131pt"
 viewBox="0.00 0.00 417.00 131.00" xmlns="http://www.w3.org/2000/svg" xmlns:xlink="http://www.w3.org/1999/xlink">
<g id="graph0" class="graph" transform="scale(1 1) rotate(0) translate(4 127)">
<title>graphic</title>
<polygon fill="#ffffff" stroke="transparent" points="-4,4 -4,-127 413,-127 413,4 -4,4"/>
<!-- nc:AzimuthAbstract -->
<g id="node1" class="node">
<title>nc:AzimuthAbstract</title>
<text text-anchor="start" x="234" y="-107.4" font-family="Helvetica,sans-Serif" font-weight="bold" font-size="12.00" fill="#000000">nc:AzimuthAbstract</text>
<polygon fill="none" stroke="#ff0000" stroke-width="5" points="230,-100 230,-120 352,-120 352,-100 230,-100"/>
</g>
<!-- SubstitutableElements -->
<g id="node3" class="node">
<title>SubstitutableElements</title>
<text text-anchor="start" x="175" y="-51.4" font-family="Helvetica,sans-Serif" font-weight="bold" font-size="12.00" fill="#000000">Substitutable elements</text>
<g id="a_node3_0"><a xlink:href="../../cbrn/Azimuth180Value/#diagram" xlink:title="An objects(i.e., instrument, detector, or item) orientation, with respect to True North. Its value is the angle subtended by a line from the center point of the object to True North in the horizontal plane and the line formed by the object&#39;s front&#45;to&#45;back axis projected onto the horizontal plane. The angle range is from &quot;&#45;180.0&quot; to &quot;+180.0&quot; degrees. A value of zero implies the front of the object&#39;s body is pointed to True North; positive values imply the front is pointed to the east of True North; negative values imply the front is pointed to the west of True North." target="_top">
<polygon fill="#ebebeb" stroke="transparent" points="174,-31 174,-46 408,-46 408,-31 174,-31"/>
<text text-anchor="start" x="175" y="-35.4" font-family="Helvetica,sans-Serif" font-size="12.00" fill="#000000">cbrn:Azimuth180Value: cbrn:Angle180Type</text>
</a>
</g>
<g id="a_node3_1"><a xlink:href="../../nc/Azimuth360Value/#diagram" xlink:title="An orientation of something with respect to True North." target="_top">
<text text-anchor="start" x="175" y="-20.4" font-family="Helvetica,sans-Serif" font-size="12.00" fill="#000000">nc:Azimuth360Value: nc:Degree360Type</text>
</a>
</g>
<g id="a_node3_2"><a xlink:href="../../nc/AzimuthDecimalValue/#diagram" xlink:title="An orientation of something with respect to True North." target="_top">
<polygon fill="#ebebeb" stroke="transparent" points="174,-1 174,-16 408,-16 408,-1 174,-1"/>
<text text-anchor="start" x="175" y="-5.4" font-family="Helvetica,sans-Serif" font-size="12.00" fill="#000000">nc:AzimuthDecimalValue: niem&#45;xs:decimal</text>
</a>
</g>
<polygon fill="#000000" stroke="#000000" points="173,-46 173,-46 409,-46 409,-46 173,-46"/>
<polygon fill="none" stroke="#000000" points="173,0 173,-62 409,-62 409,0 173,0"/>
</g>
<!-- nc:AzimuthAbstract&#45;&gt;SubstitutableElements -->
<g id="edge2" class="edge">
<title>nc:AzimuthAbstract&#45;&gt;SubstitutableElements</title>
<path fill="none" stroke="#000000" d="M291,-87.1686C291,-79.3868 291,-70.5481 291,-62.2229"/>
<polygon fill="#000000" stroke="#000000" points="287.5001,-87.3018 291,-97.3018 294.5001,-87.3018 287.5001,-87.3018"/>
<text text-anchor="middle" x="281.5" y="-76.65" font-family="Helvetica,sans-Serif" font-size="12.00" fill="#000000">substitutable for</text>
</g>
<!-- Types -->
<g id="node2" class="node">
<title>Types</title>
<text text-anchor="start" x="2" y="-107.4" font-family="Helvetica,sans-Serif" font-weight="bold" font-size="12.00" fill="#000000">Types</text>
<g id="a_node2_3"><a xlink:href="../../nc/BearingType/#diagram" xlink:title="A data type for a direction in a polar coordinate system." target="_top">
<polygon fill="#ebebeb" stroke="transparent" points="1,-87 1,-102 105,-102 105,-87 1,-87"/>
<text text-anchor="start" x="2" y="-91.4" font-family="Helvetica,sans-Serif" font-size="12.00" fill="#000000">nc:BearingType</text>
</a>
</g>
<g id="a_node2_4"><a xlink:href="../../nc/OrientationType/#diagram" xlink:title="A data type for the angles of rotation about the principle axes (normal, lateral, longitudinal) of a thing, relative to true north and the horizontal plane, measured in degrees." target="_top">
<text text-anchor="start" x="2" y="-76.4" font-family="Helvetica,sans-Serif" font-size="12.00" fill="#000000">nc:OrientationType</text>
</a>
</g>
<polygon fill="#000000" stroke="#000000" points="0,-102 0,-102 106,-102 106,-102 0,-102"/>
<polygon fill="none" stroke="#000000" points="0,-71.5 0,-118.5 106,-118.5 106,-71.5 0,-71.5"/>
</g>
<!-- Types&#45;&gt;nc:AzimuthAbstract -->
<g id="edge1" class="edge">
<title>Types:top&#45;&gt;nc:AzimuthAbstract</title>
<path fill="none" stroke="#000000" d="M105,-110C141.873,-110 182.8579,-110 216.9502,-110"/>
<polygon fill="#000000" stroke="#000000" points="217.2972,-113.5001 227.2972,-110 217.2971,-106.5001 217.2972,-113.5001"/>
<text text-anchor="middle" x="139.5" y="-113.4" font-family="Helvetica,sans-Serif" font-size="12.00" fill="#000000">has&#45;a</text>
</g>
</g>
</svg>
