<?xml version="1.0" encoding="UTF-8" standalone="no"?>
<!DOCTYPE svg PUBLIC "-//W3C//DTD SVG 1.1//EN"
 "http://www.w3.org/Graphics/SVG/1.1/DTD/svg11.dtd">
<!-- Generated by graphviz version 2.40.1 (20161225.0304)
 -->
<!-- Title: graphic Pages: 1 -->
<svg width="644pt" height="45pt"
 viewBox="0.00 0.00 644.00 45.00" xmlns="http://www.w3.org/2000/svg" xmlns:xlink="http://www.w3.org/1999/xlink">
<g id="graph0" class="graph" transform="scale(1 1) rotate(0) translate(4 41)">
<title>graphic</title>
<polygon fill="#ffffff" stroke="transparent" points="-4,4 -4,-41 640,-41 640,4 -4,4"/>
<!-- it:PreviousCustomsDocumentNumberID -->
<g id="node1" class="node">
<title>it:PreviousCustomsDocumentNumberID</title>
<text text-anchor="start" x="262" y="-21.4" font-family="Helvetica,sans-Serif" font-weight="bold" font-size="12.00" fill="#000000">it:PreviousCustomsDocumentNumberID</text>
<polygon fill="none" stroke="#ff0000" stroke-width="5" points="258.5,-14 258.5,-34 495.5,-34 495.5,-14 258.5,-14"/>
</g>
<!-- niem&#45;xs:string -->
<g id="node3" class="node">
<title>niem&#45;xs:string</title>
<g id="a_node3_0"><a xlink:href="../../niem-xs/string/#diagram" xlink:title="A data type for character strings in XML." target="_top">
<text text-anchor="start" x="559.5" y="-20.4" font-family="Helvetica,sans-Serif" font-size="12.00" fill="#000000">niem&#45;xs:string</text>
</a>
</g>
<polygon fill="none" stroke="#000000" points="557,-15.5 557,-32.5 636,-32.5 636,-15.5 557,-15.5"/>
</g>
<!-- it:PreviousCustomsDocumentNumberID&#45;&gt;niem&#45;xs:string -->
<g id="edge2" class="edge">
<title>it:PreviousCustomsDocumentNumberID&#45;&gt;niem&#45;xs:string</title>
<path fill="none" stroke="#000000" d="M498.3061,-24C515.3799,-24 532.0765,-24 546.7181,-24"/>
<polygon fill="#000000" stroke="#000000" points="546.9924,-27.5001 556.9924,-24 546.9924,-20.5001 546.9924,-27.5001"/>
<text text-anchor="middle" x="527.5" y="-27.4" font-family="Helvetica,sans-Serif" font-size="12.00" fill="#000000">type</text>
</g>
<!-- Types -->
<g id="node2" class="node">
<title>Types</title>
<text text-anchor="start" x="2.5" y="-21.4" font-family="Helvetica,sans-Serif" font-weight="bold" font-size="12.00" fill="#000000">Types</text>
<g id="a_node2_1"><a xlink:href="../../it/PreviousCustomsDocumentType/#diagram" xlink:title="A data type for a customs document that has been superseded by a more recent document." target="_top">
<polygon fill="#ebebeb" stroke="transparent" points="1.5,-1 1.5,-16 188.5,-16 188.5,-1 1.5,-1"/>
<text text-anchor="start" x="2.5" y="-5.4" font-family="Helvetica,sans-Serif" font-size="12.00" fill="#000000">it:PreviousCustomsDocumentType</text>
</a>
</g>
<polygon fill="#000000" stroke="#000000" points=".5,-16 .5,-16 189.5,-16 189.5,-16 .5,-16"/>
<polygon fill="none" stroke="#000000" points="0,0 0,-32 189,-32 189,0 0,0"/>
</g>
<!-- Types&#45;&gt;it:PreviousCustomsDocumentNumberID -->
<g id="edge1" class="edge">
<title>Types:top&#45;&gt;it:PreviousCustomsDocumentNumberID</title>
<path fill="none" stroke="#000000" d="M188.5,-24C207.0322,-24 226.5893,-24 245.811,-24"/>
<polygon fill="#000000" stroke="#000000" points="245.8249,-27.5001 255.8249,-24 245.8249,-20.5001 245.8249,-27.5001"/>
<text text-anchor="middle" x="222.5" y="-27.4" font-family="Helvetica,sans-Serif" font-size="12.00" fill="#000000">has&#45;a</text>
</g>
</g>
</svg>
