<?xml version="1.0" encoding="UTF-8" standalone="no"?>
<!DOCTYPE svg PUBLIC "-//W3C//DTD SVG 1.1//EN"
 "http://www.w3.org/Graphics/SVG/1.1/DTD/svg11.dtd">
<!-- Generated by graphviz version 2.40.1 (20161225.0304)
 -->
<!-- Title: graphic Pages: 1 -->
<svg width="519pt" height="101pt"
 viewBox="0.00 0.00 519.00 101.00" xmlns="http://www.w3.org/2000/svg" xmlns:xlink="http://www.w3.org/1999/xlink">
<g id="graph0" class="graph" transform="scale(1 1) rotate(0) translate(4 97)">
<title>graphic</title>
<polygon fill="#ffffff" stroke="transparent" points="-4,4 -4,-97 515,-97 515,4 -4,4"/>
<!-- st:RoadwayLightingAbstract -->
<g id="node1" class="node">
<title>st:RoadwayLightingAbstract</title>
<text text-anchor="start" x="276.5" y="-77.4" font-family="Helvetica,sans-Serif" font-weight="bold" font-size="12.00" fill="#000000">st:RoadwayLightingAbstract</text>
<polygon fill="none" stroke="#ff0000" stroke-width="5" points="273,-70 273,-90 444,-90 444,-70 273,-70"/>
</g>
<!-- SubstitutableElements -->
<g id="node3" class="node">
<title>SubstitutableElements</title>
<text text-anchor="start" x="208.5" y="-21.4" font-family="Helvetica,sans-Serif" font-weight="bold" font-size="12.00" fill="#000000">Substitutable elements</text>
<g id="a_node3_0"><a xlink:href="../../st/RoadwayLightingCode/#diagram" xlink:title="A type of roadway illumination." target="_top">
<polygon fill="#ebebeb" stroke="transparent" points="207.5,-1 207.5,-16 510.5,-16 510.5,-1 207.5,-1"/>
<text text-anchor="start" x="208.5" y="-5.4" font-family="Helvetica,sans-Serif" font-size="12.00" fill="#000000">st:RoadwayLightingCode: st:RoadwayLightingCodeType</text>
</a>
</g>
<polygon fill="#000000" stroke="#000000" points="206.5,-16 206.5,-16 511.5,-16 511.5,-16 206.5,-16"/>
<polygon fill="none" stroke="#000000" points="206,0 206,-32 511,-32 511,0 206,0"/>
</g>
<!-- st:RoadwayLightingAbstract&#45;&gt;SubstitutableElements -->
<g id="edge2" class="edge">
<title>st:RoadwayLightingAbstract&#45;&gt;SubstitutableElements</title>
<path fill="none" stroke="#000000" d="M358.5,-57.3063C358.5,-48.9972 358.5,-39.7712 358.5,-32.1499"/>
<polygon fill="#000000" stroke="#000000" points="355.0001,-57.4892 358.5,-67.4892 362.0001,-57.4892 355.0001,-57.4892"/>
<text text-anchor="middle" x="349" y="-46.65" font-family="Helvetica,sans-Serif" font-size="12.00" fill="#000000">substitutable for</text>
</g>
<!-- Types -->
<g id="node2" class="node">
<title>Types</title>
<text text-anchor="start" x="2.5" y="-77.4" font-family="Helvetica,sans-Serif" font-weight="bold" font-size="12.00" fill="#000000">Types</text>
<g id="a_node2_1"><a xlink:href="../../st/LocationRoadwayType/#diagram" xlink:title="A data type for the part of the roadway where a traffic accident occurred." target="_top">
<polygon fill="#ebebeb" stroke="transparent" points="1.5,-57 1.5,-72 138.5,-72 138.5,-57 1.5,-57"/>
<text text-anchor="start" x="2.5" y="-61.4" font-family="Helvetica,sans-Serif" font-size="12.00" fill="#000000">st:LocationRoadwayType</text>
</a>
</g>
<polygon fill="#000000" stroke="#000000" points=".5,-72 .5,-72 139.5,-72 139.5,-72 .5,-72"/>
<polygon fill="none" stroke="#000000" points="0,-56 0,-88 139,-88 139,-56 0,-56"/>
</g>
<!-- Types&#45;&gt;st:RoadwayLightingAbstract -->
<g id="edge1" class="edge">
<title>Types:top&#45;&gt;st:RoadwayLightingAbstract</title>
<path fill="none" stroke="#000000" d="M138.5,-80C178.3822,-80 222.3313,-80 260.3944,-80"/>
<polygon fill="#000000" stroke="#000000" points="260.4504,-83.5001 270.4504,-80 260.4504,-76.5001 260.4504,-83.5001"/>
<text text-anchor="middle" x="172.5" y="-83.4" font-family="Helvetica,sans-Serif" font-size="12.00" fill="#000000">has&#45;a</text>
</g>
</g>
</svg>
