<?xml version="1.0" encoding="UTF-8" standalone="no"?>
<!DOCTYPE svg PUBLIC "-//W3C//DTD SVG 1.1//EN"
 "http://www.w3.org/Graphics/SVG/1.1/DTD/svg11.dtd">
<!-- Generated by graphviz version 2.40.1 (20161225.0304)
 -->
<!-- Title: graphic Pages: 1 -->
<svg width="548pt" height="131pt"
 viewBox="0.00 0.00 548.00 130.50" xmlns="http://www.w3.org/2000/svg" xmlns:xlink="http://www.w3.org/1999/xlink">
<g id="graph0" class="graph" transform="scale(1 1) rotate(0) translate(4 126.5)">
<title>graphic</title>
<polygon fill="#ffffff" stroke="transparent" points="-4,4 -4,-126.5 544,-126.5 544,4 -4,4"/>
<!-- nc:DirectDialTelephoneNumberType -->
<g id="node1" class="node">
<title>nc:DirectDialTelephoneNumberType</title>
<text text-anchor="start" x="237.5" y="-55.4" font-family="Helvetica,sans-Serif" font-weight="bold" font-size="12.00" fill="#000000">nc:DirectDialTelephoneNumberType</text>
<g id="a_node1_0"><a xlink:href="../../nc/DirectDialTelephoneNetworkText/#diagram" xlink:title="A network on which a shortened telephone number may be used." target="_top">
<polygon fill="#ebebeb" stroke="transparent" points="236.5,-35 236.5,-50 535.5,-50 535.5,-35 236.5,-35"/>
<text text-anchor="start" x="237.5" y="-39.4" font-family="Helvetica,sans-Serif" font-size="12.00" fill="#000000">nc:DirectDialTelephoneNetworkText: nc:TextType [0&#45;n]</text>
</a>
</g>
<g id="a_node1_1"><a xlink:href="../../nc/DirectDialTelephoneNumberID/#diagram" xlink:title="A shortened sequence of numbers that can be used in place of a full telephone number within a local calling system such as a particular network or corporate phone system." target="_top">
<text text-anchor="start" x="237.5" y="-24.4" font-family="Helvetica,sans-Serif" font-size="12.00" fill="#000000">nc:DirectDialTelephoneNumberID: niem&#45;xs:string [0&#45;n]</text>
</a>
</g>
<g id="a_node1_2"><a xlink:href="../../nc/DirectDialTelephoneNumberAugmentationPoint/#diagram" xlink:title="An augmentation point for DirectDialTelephoneNumberType." target="_top">
<polygon fill="#ebebeb" stroke="transparent" points="236.5,-5 236.5,-20 535.5,-20 535.5,-5 236.5,-5"/>
<text text-anchor="start" x="237.5" y="-9.4" font-family="Helvetica,sans-Serif" font-size="12.00" fill="#000000">nc:DirectDialTelephoneNumberAugmentationPoint [0&#45;n]</text>
</a>
</g>
<polygon fill="#ff0000" stroke="#ff0000" points="231.5,-50 231.5,-50 540.5,-50 540.5,-50 231.5,-50"/>
<polygon fill="none" stroke="#ff0000" stroke-width="5" points="233.5,-2.5 233.5,-67.5 537.5,-67.5 537.5,-2.5 233.5,-2.5"/>
</g>
<!-- Properties -->
<g id="node2" class="node">
<title>Properties</title>
<text text-anchor="start" x="2" y="-55.4" font-family="Helvetica,sans-Serif" font-weight="bold" font-size="12.00" fill="#000000">Properties</text>
<g id="a_node2_3"><a xlink:href="../../nc/DirectDialTelephoneNumber/#diagram" xlink:title="A telephone number consisting of a shortened sequence of numbers that can be used within a local telephone system, such as a particular network or a corporate phone system." target="_top">
<polygon fill="#ebebeb" stroke="transparent" points="1,-35 1,-50 171,-50 171,-35 1,-35"/>
<text text-anchor="start" x="2" y="-39.4" font-family="Helvetica,sans-Serif" font-size="12.00" fill="#000000">nc:DirectDialTelephoneNumber</text>
</a>
</g>
<polygon fill="#000000" stroke="#000000" points="0,-50 0,-50 172,-50 172,-50 0,-50"/>
<polygon fill="none" stroke="#000000" points="0,-34 0,-66 172,-66 172,-34 0,-34"/>
</g>
<!-- Properties&#45;&gt;nc:DirectDialTelephoneNumberType -->
<g id="edge1" class="edge">
<title>Properties:top&#45;&gt;nc:DirectDialTelephoneNumberType:top</title>
<path fill="none" stroke="#000000" d="M171,-58C196.3585,-58 205.1498,-58 226.2371,-58"/>
<polygon fill="#000000" stroke="#000000" points="226.5,-61.5001 236.5,-58 226.5,-54.5001 226.5,-61.5001"/>
<text text-anchor="middle" x="201.5" y="-61.4" font-family="Helvetica,sans-Serif" font-size="12.00" fill="#000000">type</text>
</g>
<!-- structures:ObjectType -->
<g id="node3" class="node">
<title>structures:ObjectType</title>
<g id="a_node3_4"><a xlink:href="../../structures/ObjectType/#diagram" xlink:title="A data type for a thing with its own lifespan that has some existence." target="_top">
<text text-anchor="start" x="326.5" y="-110.4" font-family="Helvetica,sans-Serif" font-size="12.00" fill="#000000">structures:ObjectType</text>
</a>
</g>
<polygon fill="none" stroke="#000000" points="324.5,-105.5 324.5,-122.5 446.5,-122.5 446.5,-105.5 324.5,-105.5"/>
</g>
<!-- structures:ObjectType&#45;&gt;nc:DirectDialTelephoneNumberType -->
<g id="edge2" class="edge">
<title>structures:ObjectType&#45;&gt;nc:DirectDialTelephoneNumberType</title>
<path fill="none" stroke="#000000" d="M385.5,-105.4117C385.5,-99.1025 385.5,-89.9911 385.5,-80.4049"/>
<polygon fill="#000000" stroke="#000000" points="389.0001,-80.3408 385.5,-70.3408 382.0001,-80.3409 389.0001,-80.3408"/>
<text text-anchor="middle" x="376" y="-84.65" font-family="Helvetica,sans-Serif" font-size="12.00" fill="#000000">extension</text>
</g>
</g>
</svg>
