<?xml version="1.0" encoding="UTF-8" standalone="no"?>
<!DOCTYPE svg PUBLIC "-//W3C//DTD SVG 1.1//EN"
 "http://www.w3.org/Graphics/SVG/1.1/DTD/svg11.dtd">
<!-- Generated by graphviz version 2.40.1 (20161225.0304)
 -->
<!-- Title: graphic Pages: 1 -->
<svg width="439pt" height="45pt"
 viewBox="0.00 0.00 439.00 45.00" xmlns="http://www.w3.org/2000/svg" xmlns:xlink="http://www.w3.org/1999/xlink">
<g id="graph0" class="graph" transform="scale(1 1) rotate(0) translate(4 41)">
<title>graphic</title>
<polygon fill="#ffffff" stroke="transparent" points="-4,4 -4,-41 435,-41 435,4 -4,4"/>
<!-- m:VoyageEndDateTime -->
<g id="node1" class="node">
<title>m:VoyageEndDateTime</title>
<text text-anchor="start" x="158.5" y="-21.4" font-family="Helvetica,sans-Serif" font-weight="bold" font-size="12.00" fill="#000000">m:VoyageEndDateTime</text>
<polygon fill="none" stroke="#ff0000" stroke-width="5" points="154.5,-14 154.5,-34 296.5,-34 296.5,-14 154.5,-14"/>
</g>
<!-- nc:DateType -->
<g id="node3" class="node">
<title>nc:DateType</title>
<g id="a_node3_0"><a xlink:href="../../nc/DateType/#diagram" xlink:title="A data type for a calendar date." target="_top">
<text text-anchor="start" x="360.5" y="-20.4" font-family="Helvetica,sans-Serif" font-size="12.00" fill="#000000">nc:DateType</text>
</a>
</g>
<polygon fill="none" stroke="#000000" points="358,-15.5 358,-32.5 431,-32.5 431,-15.5 358,-15.5"/>
</g>
<!-- m:VoyageEndDateTime&#45;&gt;nc:DateType -->
<g id="edge2" class="edge">
<title>m:VoyageEndDateTime&#45;&gt;nc:DateType</title>
<path fill="none" stroke="#000000" d="M299.1342,-24C315.6121,-24 332.6505,-24 347.6866,-24"/>
<polygon fill="#000000" stroke="#000000" points="347.7449,-27.5001 357.7449,-24 347.7448,-20.5001 347.7449,-27.5001"/>
<text text-anchor="middle" x="328.5" y="-27.4" font-family="Helvetica,sans-Serif" font-size="12.00" fill="#000000">type</text>
</g>
<!-- Types -->
<g id="node2" class="node">
<title>Types</title>
<text text-anchor="start" x="2.5" y="-21.4" font-family="Helvetica,sans-Serif" font-weight="bold" font-size="12.00" fill="#000000">Types</text>
<g id="a_node2_1"><a xlink:href="../../m/VoyageType/#diagram" xlink:title="A data type for a journey from one place to another." target="_top">
<polygon fill="#ebebeb" stroke="transparent" points="1.5,-1 1.5,-16 84.5,-16 84.5,-1 1.5,-1"/>
<text text-anchor="start" x="2.5" y="-5.4" font-family="Helvetica,sans-Serif" font-size="12.00" fill="#000000">m:VoyageType</text>
</a>
</g>
<polygon fill="#000000" stroke="#000000" points=".5,-16 .5,-16 85.5,-16 85.5,-16 .5,-16"/>
<polygon fill="none" stroke="#000000" points="0,0 0,-32 85,-32 85,0 0,0"/>
</g>
<!-- Types&#45;&gt;m:VoyageEndDateTime -->
<g id="edge1" class="edge">
<title>Types:top&#45;&gt;m:VoyageEndDateTime</title>
<path fill="none" stroke="#000000" d="M84.5,-24C103.0712,-24 123.0182,-24 141.8947,-24"/>
<polygon fill="#000000" stroke="#000000" points="141.9545,-27.5001 151.9544,-24 141.9544,-20.5001 141.9545,-27.5001"/>
<text text-anchor="middle" x="118.5" y="-27.4" font-family="Helvetica,sans-Serif" font-size="12.00" fill="#000000">has&#45;a</text>
</g>
</g>
</svg>
