<?xml version="1.0" encoding="UTF-8" standalone="no"?>
<!DOCTYPE svg PUBLIC "-//W3C//DTD SVG 1.1//EN"
 "http://www.w3.org/Graphics/SVG/1.1/DTD/svg11.dtd">
<!-- Generated by graphviz version 2.40.1 (20161225.0304)
 -->
<!-- Title: graphic Pages: 1 -->
<svg width="495pt" height="45pt"
 viewBox="0.00 0.00 495.00 45.00" xmlns="http://www.w3.org/2000/svg" xmlns:xlink="http://www.w3.org/1999/xlink">
<g id="graph0" class="graph" transform="scale(1 1) rotate(0) translate(4 41)">
<title>graphic</title>
<polygon fill="#ffffff" stroke="transparent" points="-4,4 -4,-41 491,-41 491,4 -4,4"/>
<!-- stat:ParameterValueText -->
<g id="node1" class="node">
<title>stat:ParameterValueText</title>
<text text-anchor="start" x="210.5" y="-21.4" font-family="Helvetica,sans-Serif" font-weight="bold" font-size="12.00" fill="#000000">stat:ParameterValueText</text>
<polygon fill="none" stroke="#ff0000" stroke-width="5" points="206.5,-14 206.5,-34 354.5,-34 354.5,-14 206.5,-14"/>
</g>
<!-- nc:TextType -->
<g id="node3" class="node">
<title>nc:TextType</title>
<g id="a_node3_0"><a xlink:href="../../nc/TextType/#diagram" xlink:title="A data type for a character string." target="_top">
<text text-anchor="start" x="418.5" y="-20.4" font-family="Helvetica,sans-Serif" font-size="12.00" fill="#000000">nc:TextType</text>
</a>
</g>
<polygon fill="none" stroke="#000000" points="416,-15.5 416,-32.5 487,-32.5 487,-15.5 416,-15.5"/>
</g>
<!-- stat:ParameterValueText&#45;&gt;nc:TextType -->
<g id="edge2" class="edge">
<title>stat:ParameterValueText&#45;&gt;nc:TextType</title>
<path fill="none" stroke="#000000" d="M357.4959,-24C373.9027,-24 390.7314,-24 405.5331,-24"/>
<polygon fill="#000000" stroke="#000000" points="405.9178,-27.5001 415.9178,-24 405.9178,-20.5001 405.9178,-27.5001"/>
<text text-anchor="middle" x="386.5" y="-27.4" font-family="Helvetica,sans-Serif" font-size="12.00" fill="#000000">type</text>
</g>
<!-- Types -->
<g id="node2" class="node">
<title>Types</title>
<text text-anchor="start" x="2.5" y="-21.4" font-family="Helvetica,sans-Serif" font-weight="bold" font-size="12.00" fill="#000000">Types</text>
<g id="a_node2_1"><a xlink:href="../../stat/ParameterInputType/#diagram" xlink:title="A data type for a set of inputs used to specify which configuration should be used for a specific process step which has been designed to be configurable." target="_top">
<polygon fill="#ebebeb" stroke="transparent" points="1.5,-1 1.5,-16 136.5,-16 136.5,-1 1.5,-1"/>
<text text-anchor="start" x="2.5" y="-5.4" font-family="Helvetica,sans-Serif" font-size="12.00" fill="#000000">stat:ParameterInputType</text>
</a>
</g>
<polygon fill="#000000" stroke="#000000" points=".5,-16 .5,-16 137.5,-16 137.5,-16 .5,-16"/>
<polygon fill="none" stroke="#000000" points="0,0 0,-32 137,-32 137,0 0,0"/>
</g>
<!-- Types&#45;&gt;stat:ParameterValueText -->
<g id="edge1" class="edge">
<title>Types:top&#45;&gt;stat:ParameterValueText</title>
<path fill="none" stroke="#000000" d="M136.5,-24C155.0425,-24 174.928,-24 193.8219,-24"/>
<polygon fill="#000000" stroke="#000000" points="193.8993,-27.5001 203.8993,-24 193.8992,-20.5001 193.8993,-27.5001"/>
<text text-anchor="middle" x="170.5" y="-27.4" font-family="Helvetica,sans-Serif" font-size="12.00" fill="#000000">has&#45;a</text>
</g>
</g>
</svg>
