<?xml version="1.0" encoding="UTF-8" standalone="no"?>
<!DOCTYPE svg PUBLIC "-//W3C//DTD SVG 1.1//EN"
 "http://www.w3.org/Graphics/SVG/1.1/DTD/svg11.dtd">
<!-- Generated by graphviz version 2.40.1 (20161225.0304)
 -->
<!-- Title: graphic Pages: 1 -->
<svg width="465pt" height="154pt"
 viewBox="0.00 0.00 465.00 153.50" xmlns="http://www.w3.org/2000/svg" xmlns:xlink="http://www.w3.org/1999/xlink">
<g id="graph0" class="graph" transform="scale(1 1) rotate(0) translate(4 149.5)">
<title>graphic</title>
<polygon fill="#ffffff" stroke="transparent" points="-4,4 -4,-149.5 461,-149.5 461,4 -4,4"/>
<!-- hs:AbuseNeglectSeverityCodeType -->
<g id="node1" class="node">
<title>hs:AbuseNeglectSeverityCodeType</title>
<text text-anchor="start" x="238.5" y="-25.4" font-family="Helvetica,sans-Serif" font-weight="bold" font-size="12.00" fill="#000000">hs:AbuseNeglectSeverityCodeType</text>
<g id="a_node1_0"><a xlink:href="../../structures/SimpleObjectAttributeGroup/#diagram" xlink:title="A group of attributes that are applicable to objects, to be used when defining a complex type that is an extension of a simple type." target="_top">
<polygon fill="#ebebeb" stroke="transparent" points="237.5,-5 237.5,-20 445.5,-20 445.5,-5 237.5,-5"/>
<text text-anchor="start" x="238.5" y="-9.4" font-family="Helvetica,sans-Serif" font-size="12.00" fill="#000000">structures:SimpleObjectAttributeGroup</text>
</a>
</g>
<polygon fill="#ff0000" stroke="#ff0000" points="232.5,-20 232.5,-20 450.5,-20 450.5,-20 232.5,-20"/>
<polygon fill="none" stroke="#ff0000" stroke-width="5" points="235,-2.5 235,-37.5 448,-37.5 448,-2.5 235,-2.5"/>
</g>
<!-- Properties -->
<g id="node2" class="node">
<title>Properties</title>
<text text-anchor="start" x="2.5" y="-25.4" font-family="Helvetica,sans-Serif" font-weight="bold" font-size="12.00" fill="#000000">Properties</text>
<g id="a_node2_1"><a xlink:href="../../hs/AbuseNeglectSeverityCode/#diagram" xlink:title="A severity description of each type of abuse and/or neglect on a client." target="_top">
<polygon fill="#ebebeb" stroke="transparent" points="1.5,-5 1.5,-20 166.5,-20 166.5,-5 1.5,-5"/>
<text text-anchor="start" x="2.5" y="-9.4" font-family="Helvetica,sans-Serif" font-size="12.00" fill="#000000">hs:AbuseNeglectSeverityCode</text>
</a>
</g>
<polygon fill="#000000" stroke="#000000" points=".5,-20 .5,-20 167.5,-20 167.5,-20 .5,-20"/>
<polygon fill="none" stroke="#000000" points="0,-4 0,-36 167,-36 167,-4 0,-4"/>
</g>
<!-- Properties&#45;&gt;hs:AbuseNeglectSeverityCodeType -->
<g id="edge1" class="edge">
<title>Properties:top&#45;&gt;hs:AbuseNeglectSeverityCodeType:top</title>
<path fill="none" stroke="#000000" d="M166.5,-28C194.3576,-28 203.7705,-28 227.3051,-28"/>
<polygon fill="#000000" stroke="#000000" points="227.5,-31.5001 237.5,-28 227.5,-24.5001 227.5,-31.5001"/>
<text text-anchor="middle" x="196.5" y="-31.4" font-family="Helvetica,sans-Serif" font-size="12.00" fill="#000000">type</text>
</g>
<!-- hs:AbuseNeglectSeverityCodeSimpleType -->
<g id="node3" class="node">
<title>hs:AbuseNeglectSeverityCodeSimpleType</title>
<g id="a_node3_2"><a xlink:href="../../hs/AbuseNeglectSeverityCodeSimpleType/#diagram" xlink:title="A data type for describing different severity levels of abuse." target="_top">
<text text-anchor="start" x="228.5" y="-80.4" font-family="Helvetica,sans-Serif" font-size="12.00" fill="#000000">hs:AbuseNeglectSeverityCodeSimpleType</text>
</a>
</g>
<polygon fill="none" stroke="#000000" points="226,-75.5 226,-92.5 457,-92.5 457,-75.5 226,-75.5"/>
</g>
<!-- hs:AbuseNeglectSeverityCodeSimpleType&#45;&gt;hs:AbuseNeglectSeverityCodeType -->
<g id="edge2" class="edge">
<title>hs:AbuseNeglectSeverityCodeSimpleType&#45;&gt;hs:AbuseNeglectSeverityCodeType</title>
<path fill="none" stroke="#000000" d="M341.5,-75.4351C341.5,-68.931 341.5,-59.5678 341.5,-50.3827"/>
<polygon fill="#000000" stroke="#000000" points="345.0001,-50.25 341.5,-40.25 338.0001,-50.25 345.0001,-50.25"/>
<text text-anchor="middle" x="332" y="-54.65" font-family="Helvetica,sans-Serif" font-size="12.00" fill="#000000">extension</text>
</g>
<!-- xs:token -->
<g id="node4" class="node">
<title>xs:token</title>
<g id="a_node4_3"><a xlink:href="../../xs/token/#diagram" xlink:title="&lt;TABLE&gt;" target="_top">
<text text-anchor="start" x="319.5" y="-133.4" font-family="Helvetica,sans-Serif" font-size="12.00" fill="#000000">xs:token</text>
</a>
</g>
<polygon fill="none" stroke="#000000" points="317,-128.5 317,-145.5 366,-145.5 366,-128.5 317,-128.5"/>
</g>
<!-- xs:token&#45;&gt;hs:AbuseNeglectSeverityCodeSimpleType -->
<g id="edge3" class="edge">
<title>xs:token&#45;&gt;hs:AbuseNeglectSeverityCodeSimpleType</title>
<path fill="none" stroke="#000000" d="M341.5,-128.411C341.5,-121.5124 341.5,-111.5696 341.5,-102.84"/>
<polygon fill="#000000" stroke="#000000" points="345.0001,-102.7518 341.5,-92.7519 338.0001,-102.7519 345.0001,-102.7518"/>
<text text-anchor="middle" x="332" y="-107.4" font-family="Helvetica,sans-Serif" font-size="12.00" fill="#000000">restriction</text>
</g>
</g>
</svg>
