<?xml version="1.0" encoding="UTF-8" standalone="no"?>
<!DOCTYPE svg PUBLIC "-//W3C//DTD SVG 1.1//EN"
 "http://www.w3.org/Graphics/SVG/1.1/DTD/svg11.dtd">
<!-- Generated by graphviz version 2.40.1 (20161225.0304)
 -->
<!-- Title: graphic Pages: 1 -->
<svg width="1143pt" height="654pt"
 viewBox="0.00 0.00 1143.00 653.50" xmlns="http://www.w3.org/2000/svg" xmlns:xlink="http://www.w3.org/1999/xlink">
<g id="graph0" class="graph" transform="scale(1 1) rotate(0) translate(4 649.5)">
<title>graphic</title>
<polygon fill="#ffffff" stroke="transparent" points="-4,4 -4,-649.5 1139,-649.5 1139,4 -4,4"/>
<!-- j:CrashType -->
<g id="node1" class="node">
<title>j:CrashType</title>
<text text-anchor="start" x="129.5" y="-419.4" font-family="Helvetica,sans-Serif" font-weight="bold" font-size="12.00" fill="#000000">j:CrashType</text>
<g id="a_node1_0"><a xlink:href="../../j/CrashServiceCall/#diagram" xlink:title="A call for service received from a person alerting an authority of a traffic accident." target="_top">
<polygon fill="#ebebeb" stroke="transparent" points="128.5,-399 128.5,-414 463.5,-414 463.5,-399 128.5,-399"/>
<text text-anchor="start" x="129.5" y="-403.4" font-family="Helvetica,sans-Serif" font-size="12.00" fill="#000000">j:CrashServiceCall: j:ServiceCallType [0&#45;n]</text>
</a>
</g>
<g id="a_node1_1"><a xlink:href="../../j/CrashInformationSource/#diagram" xlink:title="An affiliation of the person completing the crash report." target="_top">
<text text-anchor="start" x="129.5" y="-388.4" font-family="Helvetica,sans-Serif" font-size="12.00" fill="#000000">j:CrashInformationSource: j:CrashInformationSourceType [0&#45;n]</text>
</a>
</g>
<g id="a_node1_2"><a xlink:href="../../j/CrashWorkZone/#diagram" xlink:title="A Work Zone where the crash occurred." target="_top">
<polygon fill="#ebebeb" stroke="transparent" points="128.5,-369 128.5,-384 463.5,-384 463.5,-369 128.5,-369"/>
<text text-anchor="start" x="129.5" y="-373.4" font-family="Helvetica,sans-Serif" font-size="12.00" fill="#000000">j:CrashWorkZone: j:CrashWorkZoneType [0&#45;n]</text>
</a>
</g>
<g id="a_node1_3"><a xlink:href="../../j/CrashVehicle/#diagram" xlink:title="A motor vehicle involved in a traffic accident." target="_top">
<text text-anchor="start" x="129.5" y="-358.4" font-family="Helvetica,sans-Serif" font-size="12.00" fill="#000000">j:CrashVehicle: j:CrashVehicleType [0&#45;n]</text>
</a>
</g>
<g id="a_node1_4"><a xlink:href="../../j/CrashNonMotorist/#diagram" xlink:title="A non&#45;motorist involved in a traffic accident." target="_top">
<polygon fill="#ebebeb" stroke="transparent" points="128.5,-339 128.5,-354 463.5,-354 463.5,-339 128.5,-339"/>
<text text-anchor="start" x="129.5" y="-343.4" font-family="Helvetica,sans-Serif" font-size="12.00" fill="#000000">j:CrashNonMotorist: j:CrashNonMotoristType [0&#45;n]</text>
</a>
</g>
<g id="a_node1_5"><a xlink:href="../../j/CrashPerson/#diagram" xlink:title="A person involved in a traffic accident." target="_top">
<text text-anchor="start" x="129.5" y="-328.4" font-family="Helvetica,sans-Serif" font-size="12.00" fill="#000000">j:CrashPerson: j:CrashPersonType [0&#45;n]</text>
</a>
</g>
<g id="a_node1_6"><a xlink:href="../../nc/Location/#diagram" xlink:title="A geospatial location." target="_top">
<polygon fill="#ebebeb" stroke="transparent" points="128.5,-309 128.5,-324 463.5,-324 463.5,-309 128.5,-309"/>
<text text-anchor="start" x="129.5" y="-313.4" font-family="Helvetica,sans-Serif" font-size="12.00" fill="#000000">nc:Location: nc:LocationType [0&#45;n]</text>
</a>
</g>
<g id="a_node1_7"><a xlink:href="../../j/CrashEnvironmentContributingCircumstancesAbstract/#diagram" xlink:title="A data concept for an apparent environmental condition which may have contributed to the crash." target="_top">
<text text-anchor="start" x="129.5" y="-298.4" font-family="Helvetica,sans-Serif" font-size="12.00" fill="#000000">j:CrashEnvironmentContributingCircumstancesAbstract [0&#45;n]</text>
</a>
</g>
<g id="a_node1_8"><a xlink:href="../../j/CrashFirstHarmfulEventLocationAbstract/#diagram" xlink:title="A data concept for a location of a first harmful event." target="_top">
<polygon fill="#ebebeb" stroke="transparent" points="128.5,-279 128.5,-294 463.5,-294 463.5,-279 128.5,-279"/>
<text text-anchor="start" x="129.5" y="-283.4" font-family="Helvetica,sans-Serif" font-size="12.00" fill="#000000">j:CrashFirstHarmfulEventLocationAbstract [0&#45;n]</text>
</a>
</g>
<g id="a_node1_9"><a xlink:href="../../j/CrashJunctionRelationAbstract/#diagram" xlink:title="A data concept for a location of the first harmful event in location to a junction." target="_top">
<text text-anchor="start" x="129.5" y="-268.4" font-family="Helvetica,sans-Serif" font-size="12.00" fill="#000000">j:CrashJunctionRelationAbstract [0&#45;n]</text>
</a>
</g>
<g id="a_node1_10"><a xlink:href="../../j/CrashLightConditionAbstract/#diagram" xlink:title="A data concept for a type/level of light that existed at the time of the motor vehicle crash." target="_top">
<polygon fill="#ebebeb" stroke="transparent" points="128.5,-249 128.5,-264 463.5,-264 463.5,-249 128.5,-249"/>
<text text-anchor="start" x="129.5" y="-253.4" font-family="Helvetica,sans-Serif" font-size="12.00" fill="#000000">j:CrashLightConditionAbstract [0&#45;n]</text>
</a>
</g>
<g id="a_node1_11"><a xlink:href="../../j/CrashMannerAbstract/#diagram" xlink:title="A data concept for a manner of crash." target="_top">
<text text-anchor="start" x="129.5" y="-238.4" font-family="Helvetica,sans-Serif" font-size="12.00" fill="#000000">j:CrashMannerAbstract [0&#45;n]</text>
</a>
</g>
<g id="a_node1_12"><a xlink:href="../../j/CrashRoadContributingCircumstancesAbstract/#diagram" xlink:title="A data concept for an apparent condition of the road which may have contributed to the crash." target="_top">
<polygon fill="#ebebeb" stroke="transparent" points="128.5,-219 128.5,-234 463.5,-234 463.5,-219 128.5,-219"/>
<text text-anchor="start" x="129.5" y="-223.4" font-family="Helvetica,sans-Serif" font-size="12.00" fill="#000000">j:CrashRoadContributingCircumstancesAbstract [0&#45;n]</text>
</a>
</g>
<g id="a_node1_13"><a xlink:href="../../j/CrashRoadSurfaceConditionAbstract/#diagram" xlink:title="A data concept for a roadway surface condition at the time and place of a crash." target="_top">
<text text-anchor="start" x="129.5" y="-208.4" font-family="Helvetica,sans-Serif" font-size="12.00" fill="#000000">j:CrashRoadSurfaceConditionAbstract [0&#45;n]</text>
</a>
</g>
<g id="a_node1_14"><a xlink:href="../../j/CrashSchoolBusRelatedAbstract/#diagram" xlink:title="A data concept for a school bus relation," target="_top">
<polygon fill="#ebebeb" stroke="transparent" points="128.5,-189 128.5,-204 463.5,-204 463.5,-189 128.5,-189"/>
<text text-anchor="start" x="129.5" y="-193.4" font-family="Helvetica,sans-Serif" font-size="12.00" fill="#000000">j:CrashSchoolBusRelatedAbstract [0&#45;n]</text>
</a>
</g>
<g id="a_node1_15"><a xlink:href="../../j/CrashWeatherConditionAbstract/#diagram" xlink:title="A data concept for a prevailing atmospheric conditions that existed at the time of the crash." target="_top">
<text text-anchor="start" x="129.5" y="-178.4" font-family="Helvetica,sans-Serif" font-size="12.00" fill="#000000">j:CrashWeatherConditionAbstract [0&#45;n]</text>
</a>
</g>
<g id="a_node1_16"><a xlink:href="../../j/CrashAugmentationPoint/#diagram" xlink:title="An augmentation point for CrashType." target="_top">
<polygon fill="#ebebeb" stroke="transparent" points="128.5,-159 128.5,-174 463.5,-174 463.5,-159 128.5,-159"/>
<text text-anchor="start" x="129.5" y="-163.4" font-family="Helvetica,sans-Serif" font-size="12.00" fill="#000000">j:CrashAugmentationPoint [0&#45;n]</text>
</a>
</g>
<polygon fill="#ff0000" stroke="#ff0000" points="123.5,-414 123.5,-414 468.5,-414 468.5,-414 123.5,-414"/>
<polygon fill="none" stroke="#ff0000" stroke-width="5" points="125.5,-156.5 125.5,-431.5 465.5,-431.5 465.5,-156.5 125.5,-156.5"/>
</g>
<!-- subst_d17e15908 -->
<g id="node2" class="node">
<title>subst_d17e15908</title>
<g id="a_node2_17"><a xlink:href="../../nc/Location/#diagram" xlink:title="&lt;TABLE&gt;" target="_top">
<text text-anchor="start" x="644" y="-471.4" font-family="Helvetica,sans-Serif" font-weight="bold" font-size="12.00" fill="#000000">Substitution group nc:Location</text>
</a>
</g>
<g id="a_node2_18"><a xlink:href="../../em/NotificationTargetLocation/#diagram" xlink:title="A notification target location" target="_top">
<polygon fill="#ebebeb" stroke="transparent" points="643,-451 643,-466 998,-466 998,-451 643,-451"/>
<text text-anchor="start" x="644" y="-455.4" font-family="Helvetica,sans-Serif" font-size="12.00" fill="#000000">em:NotificationTargetLocation: em:NotificationTargetLocationType</text>
</a>
</g>
<polygon fill="#000000" stroke="#000000" points="642,-466 642,-466 999,-466 999,-466 642,-466"/>
<polygon fill="none" stroke="#000000" points="641.5,-450 641.5,-482 998.5,-482 998.5,-450 641.5,-450"/>
</g>
<!-- j:CrashType&#45;&gt;subst_d17e15908 -->
<g id="edge1" class="edge">
<title>j:CrashType:e&#45;&gt;subst_d17e15908:w</title>
<path fill="none" stroke="#000000" d="M468.776,-325.9747C479.8019,-353.7867 500.5417,-436.9187 505,-441 551.5153,-483.5819 579.9374,-474 643,-474"/>
<polygon fill="#000000" stroke="#000000" points="471.5852,-323.8469 463.5,-317 465.5507,-327.3945 471.5852,-323.8469"/>
</g>
<!-- subst_d9e25114 -->
<g id="node3" class="node">
<title>subst_d9e25114</title>
<g id="a_node3_19"><a xlink:href="../../j/CrashEnvironmentContributingCircumstancesAbstract/#diagram" xlink:title="&lt;TABLE&gt;" target="_top">
<text text-anchor="start" x="507" y="-421.4" font-family="Helvetica,sans-Serif" font-weight="bold" font-size="12.00" fill="#000000">Substitution group j:CrashEnvironmentContributingCircumstancesAbstract</text>
</a>
</g>
<g id="a_node3_20"><a xlink:href="../../j/CrashEnvironmentContributingCircumstancesCode/#diagram" xlink:title="An apparent environmental condition which may have contributed to the crash." target="_top">
<polygon fill="#ebebeb" stroke="transparent" points="506,-401 506,-416 1134,-416 1134,-401 506,-401"/>
<text text-anchor="start" x="507" y="-405.4" font-family="Helvetica,sans-Serif" font-size="12.00" fill="#000000">j:CrashEnvironmentContributingCircumstancesCode: mmucc:CrashEnvironmentContributingCircumstancesCodeType</text>
</a>
</g>
<polygon fill="#000000" stroke="#000000" points="505,-416 505,-416 1135,-416 1135,-416 505,-416"/>
<polygon fill="none" stroke="#000000" points="505,-400 505,-432 1135,-432 1135,-400 505,-400"/>
</g>
<!-- j:CrashType&#45;&gt;subst_d9e25114 -->
<g id="edge2" class="edge">
<title>j:CrashType:e&#45;&gt;subst_d9e25114:w</title>
<path fill="none" stroke="#000000" d="M473.7774,-303.7246C511.3873,-318.5531 452.6191,-424 506,-424"/>
<polygon fill="#000000" stroke="#000000" points="473.9414,-300.2033 463.5,-302 472.7829,-307.1068 473.9414,-300.2033"/>
</g>
<!-- subst_d9e25131 -->
<g id="node4" class="node">
<title>subst_d9e25131</title>
<g id="a_node4_21"><a xlink:href="../../j/CrashFirstHarmfulEventLocationAbstract/#diagram" xlink:title="&lt;TABLE&gt;" target="_top">
<text text-anchor="start" x="577" y="-371.4" font-family="Helvetica,sans-Serif" font-weight="bold" font-size="12.00" fill="#000000">Substitution group j:CrashFirstHarmfulEventLocationAbstract</text>
</a>
</g>
<g id="a_node4_22"><a xlink:href="../../j/CrashFirstHarmfulEventLocationCode/#diagram" xlink:title="A location of a first harmful event." target="_top">
<polygon fill="#ebebeb" stroke="transparent" points="576,-351 576,-366 1064,-366 1064,-351 576,-351"/>
<text text-anchor="start" x="577" y="-355.4" font-family="Helvetica,sans-Serif" font-size="12.00" fill="#000000">j:CrashFirstHarmfulEventLocationCode: mmucc:CrashFirstHarmfulEventLocationCodeType</text>
</a>
</g>
<polygon fill="#000000" stroke="#000000" points="575,-366 575,-366 1065,-366 1065,-366 575,-366"/>
<polygon fill="none" stroke="#000000" points="575,-350 575,-382 1065,-382 1065,-350 575,-350"/>
</g>
<!-- j:CrashType&#45;&gt;subst_d9e25131 -->
<g id="edge3" class="edge">
<title>j:CrashType:e&#45;&gt;subst_d9e25131:w</title>
<path fill="none" stroke="#000000" d="M473.5841,-287.7694C491.3339,-295.2053 484.3469,-324.3076 505,-341 532.0633,-362.8733 541.2025,-374 576,-374"/>
<polygon fill="#000000" stroke="#000000" points="473.9544,-284.281 463.5,-286 472.7446,-291.1757 473.9544,-284.281"/>
</g>
<!-- subst_d9e25163 -->
<g id="node5" class="node">
<title>subst_d9e25163</title>
<g id="a_node5_23"><a xlink:href="../../j/CrashJunctionRelationAbstract/#diagram" xlink:title="&lt;TABLE&gt;" target="_top">
<text text-anchor="start" x="630" y="-321.4" font-family="Helvetica,sans-Serif" font-weight="bold" font-size="12.00" fill="#000000">Substitution group j:CrashJunctionRelationAbstract</text>
</a>
</g>
<g id="a_node5_24"><a xlink:href="../../j/CrashJunctionRelationCode/#diagram" xlink:title="A location of the first harmful event in location to a junction." target="_top">
<polygon fill="#ebebeb" stroke="transparent" points="629,-301 629,-316 1012,-316 1012,-301 629,-301"/>
<text text-anchor="start" x="630" y="-305.4" font-family="Helvetica,sans-Serif" font-size="12.00" fill="#000000">j:CrashJunctionRelationCode: mmucc:CrashJunctionRelationCodeType</text>
</a>
</g>
<polygon fill="#000000" stroke="#000000" points="628,-316 628,-316 1013,-316 1013,-316 628,-316"/>
<polygon fill="none" stroke="#000000" points="627.5,-300 627.5,-332 1012.5,-332 1012.5,-300 627.5,-300"/>
</g>
<!-- j:CrashType&#45;&gt;subst_d9e25163 -->
<g id="edge4" class="edge">
<title>j:CrashType:e&#45;&gt;subst_d9e25163:w</title>
<path fill="none" stroke="#000000" d="M472.8691,-274.6643C476.7053,-278.5295 478.7591,-284.5305 486,-288 545.104,-316.3201 563.4614,-324 629,-324"/>
<polygon fill="#000000" stroke="#000000" points="474.0879,-271.3829 463.5,-271 471.5382,-277.902 474.0879,-271.3829"/>
</g>
<!-- subst_d9e25180 -->
<g id="node6" class="node">
<title>subst_d9e25180</title>
<g id="a_node6_25"><a xlink:href="../../j/CrashLightConditionAbstract/#diagram" xlink:title="&lt;TABLE&gt;" target="_top">
<text text-anchor="start" x="642" y="-271.4" font-family="Helvetica,sans-Serif" font-weight="bold" font-size="12.00" fill="#000000">Substitution group j:CrashLightConditionAbstract</text>
</a>
</g>
<g id="a_node6_26"><a xlink:href="../../j/CrashLightConditionCode/#diagram" xlink:title="A type/level of light that existed at the time of the motor vehicle crash." target="_top">
<polygon fill="#ebebeb" stroke="transparent" points="641,-251 641,-266 1000,-266 1000,-251 641,-251"/>
<text text-anchor="start" x="642" y="-255.4" font-family="Helvetica,sans-Serif" font-size="12.00" fill="#000000">j:CrashLightConditionCode: mmucc:CrashLightConditionCodeType</text>
</a>
</g>
<polygon fill="#000000" stroke="#000000" points="640,-266 640,-266 1001,-266 1001,-266 640,-266"/>
<polygon fill="none" stroke="#000000" points="639.5,-250 639.5,-282 1000.5,-282 1000.5,-250 639.5,-250"/>
</g>
<!-- j:CrashType&#45;&gt;subst_d9e25180 -->
<g id="edge5" class="edge">
<title>j:CrashType:e&#45;&gt;subst_d9e25180:w</title>
<path fill="none" stroke="#000000" d="M473.8314,-256.1057C544.6145,-257.5809 565.2685,-274 641,-274"/>
<polygon fill="#000000" stroke="#000000" points="473.5353,-252.6026 463.5,-256 473.4636,-259.6022 473.5353,-252.6026"/>
</g>
<!-- subst_d9e25196 -->
<g id="node7" class="node">
<title>subst_d9e25196</title>
<g id="a_node7_27"><a xlink:href="../../j/CrashMannerAbstract/#diagram" xlink:title="&lt;TABLE&gt;" target="_top">
<text text-anchor="start" x="678" y="-221.4" font-family="Helvetica,sans-Serif" font-weight="bold" font-size="12.00" fill="#000000">Substitution group j:CrashMannerAbstract</text>
</a>
</g>
<g id="a_node7_28"><a xlink:href="../../j/CrashMannerCode/#diagram" xlink:title="A manner of crash." target="_top">
<polygon fill="#ebebeb" stroke="transparent" points="677,-201 677,-216 964,-216 964,-201 677,-201"/>
<text text-anchor="start" x="678" y="-205.4" font-family="Helvetica,sans-Serif" font-size="12.00" fill="#000000">j:CrashMannerCode: mmucc:CrashMannerCodeType</text>
</a>
</g>
<polygon fill="#000000" stroke="#000000" points="676,-216 676,-216 965,-216 965,-216 676,-216"/>
<polygon fill="none" stroke="#000000" points="675.5,-200 675.5,-232 964.5,-232 964.5,-200 675.5,-200"/>
</g>
<!-- j:CrashType&#45;&gt;subst_d9e25196 -->
<g id="edge6" class="edge">
<title>j:CrashType:e&#45;&gt;subst_d9e25196:w</title>
<path fill="none" stroke="#000000" d="M473.5429,-240.935C560.4542,-239.7937 585.2502,-224 677,-224"/>
<polygon fill="#000000" stroke="#000000" points="473.4771,-237.4353 463.5,-241 473.5225,-244.4351 473.4771,-237.4353"/>
</g>
<!-- subst_d9e25286 -->
<g id="node8" class="node">
<title>subst_d9e25286</title>
<g id="a_node8_29"><a xlink:href="../../j/CrashRoadContributingCircumstancesAbstract/#diagram" xlink:title="&lt;TABLE&gt;" target="_top">
<text text-anchor="start" x="546" y="-171.4" font-family="Helvetica,sans-Serif" font-weight="bold" font-size="12.00" fill="#000000">Substitution group j:CrashRoadContributingCircumstancesAbstract</text>
</a>
</g>
<g id="a_node8_30"><a xlink:href="../../j/CrashRoadContributingCircumstancesCode/#diagram" xlink:title="An apparent condition of the road which may have contributed to the crash." target="_top">
<polygon fill="#ebebeb" stroke="transparent" points="545,-151 545,-166 1096,-166 1096,-151 545,-151"/>
<text text-anchor="start" x="546" y="-155.4" font-family="Helvetica,sans-Serif" font-size="12.00" fill="#000000">j:CrashRoadContributingCircumstancesCode: mmucc:CrashRoadContributingCircumstancesCodeType</text>
</a>
</g>
<polygon fill="#000000" stroke="#000000" points="544,-166 544,-166 1097,-166 1097,-166 544,-166"/>
<polygon fill="none" stroke="#000000" points="543.5,-150 543.5,-182 1096.5,-182 1096.5,-150 543.5,-150"/>
</g>
<!-- j:CrashType&#45;&gt;subst_d9e25286 -->
<g id="edge7" class="edge">
<title>j:CrashType:e&#45;&gt;subst_d9e25286:w</title>
<path fill="none" stroke="#000000" d="M473.3957,-224.3359C487.2229,-218.924 487.818,-201.564 505,-191 521.4553,-180.8828 525.6833,-174 545,-174"/>
<polygon fill="#000000" stroke="#000000" points="472.7811,-220.8901 463.5,-226 473.942,-227.7931 472.7811,-220.8901"/>
</g>
<!-- subst_d9e25302 -->
<g id="node9" class="node">
<title>subst_d9e25302</title>
<g id="a_node9_31"><a xlink:href="../../j/CrashRoadSurfaceConditionAbstract/#diagram" xlink:title="&lt;TABLE&gt;" target="_top">
<text text-anchor="start" x="598" y="-121.4" font-family="Helvetica,sans-Serif" font-weight="bold" font-size="12.00" fill="#000000">Substitution group j:CrashRoadSurfaceConditionAbstract</text>
</a>
</g>
<g id="a_node9_32"><a xlink:href="../../j/CrashRoadSurfaceConditionCode/#diagram" xlink:title="A roadway surface condition at the time and place of a crash." target="_top">
<polygon fill="#ebebeb" stroke="transparent" points="597,-101 597,-116 1044,-116 1044,-101 597,-101"/>
<text text-anchor="start" x="598" y="-105.4" font-family="Helvetica,sans-Serif" font-size="12.00" fill="#000000">j:CrashRoadSurfaceConditionCode: mmucc:CrashRoadSurfaceConditionCodeType</text>
</a>
</g>
<polygon fill="#000000" stroke="#000000" points="596,-116 596,-116 1045,-116 1045,-116 596,-116"/>
<polygon fill="none" stroke="#000000" points="595.5,-100 595.5,-132 1044.5,-132 1044.5,-100 595.5,-100"/>
</g>
<!-- j:CrashType&#45;&gt;subst_d9e25302 -->
<g id="edge8" class="edge">
<title>j:CrashType:e&#45;&gt;subst_d9e25302:w</title>
<path fill="none" stroke="#000000" d="M473.6288,-209.2151C494.8484,-200.1965 478.6985,-159.3507 505,-141 539.1013,-117.2074 555.4189,-124 597,-124"/>
<polygon fill="#000000" stroke="#000000" points="472.7408,-205.8176 463.5,-211 473.9557,-212.7114 472.7408,-205.8176"/>
</g>
<!-- subst_d9e25319 -->
<g id="node10" class="node">
<title>subst_d9e25319</title>
<g id="a_node10_33"><a xlink:href="../../j/CrashSchoolBusRelatedAbstract/#diagram" xlink:title="&lt;TABLE&gt;" target="_top">
<text text-anchor="start" x="620" y="-71.4" font-family="Helvetica,sans-Serif" font-weight="bold" font-size="12.00" fill="#000000">Substitution group j:CrashSchoolBusRelatedAbstract</text>
</a>
</g>
<g id="a_node10_34"><a xlink:href="../../j/CrashSchoolBusRelatedCode/#diagram" xlink:title="A school bus relation," target="_top">
<polygon fill="#ebebeb" stroke="transparent" points="619,-51 619,-66 1022,-66 1022,-51 619,-51"/>
<text text-anchor="start" x="620" y="-55.4" font-family="Helvetica,sans-Serif" font-size="12.00" fill="#000000">j:CrashSchoolBusRelatedCode: mmucc:CrashSchoolBusRelatedCodeType</text>
</a>
</g>
<polygon fill="#000000" stroke="#000000" points="618,-66 618,-66 1023,-66 1023,-66 618,-66"/>
<polygon fill="none" stroke="#000000" points="617.5,-50 617.5,-82 1022.5,-82 1022.5,-50 617.5,-50"/>
</g>
<!-- j:CrashType&#45;&gt;subst_d9e25319 -->
<g id="edge9" class="edge">
<title>j:CrashType:e&#45;&gt;subst_d9e25319:w</title>
<path fill="none" stroke="#000000" d="M472.5466,-191.1503C488.132,-172.3167 488.116,-104.4099 505,-91 545.114,-59.14 567.7731,-74 619,-74"/>
<polygon fill="#000000" stroke="#000000" points="470.6598,-188.1905 463.5,-196 473.9671,-194.36 470.6598,-188.1905"/>
</g>
<!-- subst_d9e25441 -->
<g id="node11" class="node">
<title>subst_d9e25441</title>
<g id="a_node11_35"><a xlink:href="../../j/CrashWeatherConditionAbstract/#diagram" xlink:title="&lt;TABLE&gt;" target="_top">
<text text-anchor="start" x="623" y="-21.4" font-family="Helvetica,sans-Serif" font-weight="bold" font-size="12.00" fill="#000000">Substitution group j:CrashWeatherConditionAbstract</text>
</a>
</g>
<g id="a_node11_36"><a xlink:href="../../j/CrashWeatherConditionCode/#diagram" xlink:title="A prevailing atmospheric conditions that existed at the time of the crash." target="_top">
<polygon fill="#ebebeb" stroke="transparent" points="622,-1 622,-16 1019,-16 1019,-1 622,-1"/>
<text text-anchor="start" x="623" y="-5.4" font-family="Helvetica,sans-Serif" font-size="12.00" fill="#000000">j:CrashWeatherConditionCode: mmucc:CrashWeatherConditionCodeType</text>
</a>
</g>
<polygon fill="#000000" stroke="#000000" points="621,-16 621,-16 1020,-16 1020,-16 621,-16"/>
<polygon fill="none" stroke="#000000" points="620.5,0 620.5,-32 1019.5,-32 1019.5,0 620.5,0"/>
</g>
<!-- j:CrashType&#45;&gt;subst_d9e25441 -->
<g id="edge10" class="edge">
<title>j:CrashType:e&#45;&gt;subst_d9e25441:w</title>
<path fill="none" stroke="#000000" d="M472.8102,-176.7423C492.9546,-155.3441 483.2443,-59.8307 505,-41 544.7304,-6.6113 569.454,-24 622,-24"/>
<polygon fill="#000000" stroke="#000000" points="471.1385,-173.6581 463.5,-181 474.0498,-180.024 471.1385,-173.6581"/>
</g>
<!-- Properties -->
<g id="node12" class="node">
<title>Properties</title>
<text text-anchor="start" x="2" y="-419.4" font-family="Helvetica,sans-Serif" font-weight="bold" font-size="12.00" fill="#000000">Properties</text>
<g id="a_node12_37"><a xlink:href="../../j/Crash/#diagram" xlink:title="A traffic accident." target="_top">
<polygon fill="#ebebeb" stroke="transparent" points="1,-399 1,-414 63,-414 63,-399 1,-399"/>
<text text-anchor="start" x="2" y="-403.4" font-family="Helvetica,sans-Serif" font-size="12.00" fill="#000000">j:Crash</text>
</a>
</g>
<polygon fill="#000000" stroke="#000000" points="0,-414 0,-414 64,-414 64,-414 0,-414"/>
<polygon fill="none" stroke="#000000" points="0,-398 0,-430 64,-430 64,-398 0,-398"/>
</g>
<!-- Properties&#45;&gt;j:CrashType -->
<g id="edge11" class="edge">
<title>Properties:top&#45;&gt;j:CrashType:top</title>
<path fill="none" stroke="#000000" d="M63,-422C88.3585,-422 97.1498,-422 118.2371,-422"/>
<polygon fill="#000000" stroke="#000000" points="118.5,-425.5001 128.5,-422 118.5,-418.5001 118.5,-425.5001"/>
<text text-anchor="middle" x="93.5" y="-425.4" font-family="Helvetica,sans-Serif" font-size="12.00" fill="#000000">type</text>
</g>
<!-- j:DrivingIncidentType -->
<g id="node13" class="node">
<title>j:DrivingIncidentType</title>
<g id="a_node13_38"><a xlink:href="../../j/DrivingIncidentType/#diagram" xlink:title="A data type for details of an incident involving a vehicle." target="_top">
<text text-anchor="start" x="239.5" y="-474.4" font-family="Helvetica,sans-Serif" font-size="12.00" fill="#000000">j:DrivingIncidentType</text>
</a>
</g>
<polygon fill="none" stroke="#000000" points="237,-469.5 237,-486.5 354,-486.5 354,-469.5 237,-469.5"/>
</g>
<!-- j:DrivingIncidentType&#45;&gt;j:CrashType -->
<g id="edge12" class="edge">
<title>j:DrivingIncidentType&#45;&gt;j:CrashType</title>
<path fill="none" stroke="#000000" d="M295.5,-469.3529C295.5,-463.4668 295.5,-454.9004 295.5,-444.6743"/>
<polygon fill="#000000" stroke="#000000" points="299.0001,-444.3945 295.5,-434.3946 292.0001,-444.3946 299.0001,-444.3945"/>
<text text-anchor="middle" x="286" y="-448.65" font-family="Helvetica,sans-Serif" font-size="12.00" fill="#000000">extension</text>
</g>
<!-- nc:IncidentType -->
<g id="node14" class="node">
<title>nc:IncidentType</title>
<g id="a_node14_39"><a xlink:href="../../nc/IncidentType/#diagram" xlink:title="A data type for an occurrence or an event that may require a response." target="_top">
<text text-anchor="start" x="253.5" y="-527.4" font-family="Helvetica,sans-Serif" font-size="12.00" fill="#000000">nc:IncidentType</text>
</a>
</g>
<polygon fill="none" stroke="#000000" points="251,-522.5 251,-539.5 340,-539.5 340,-522.5 251,-522.5"/>
</g>
<!-- nc:IncidentType&#45;&gt;j:DrivingIncidentType -->
<g id="edge13" class="edge">
<title>nc:IncidentType&#45;&gt;j:DrivingIncidentType</title>
<path fill="none" stroke="#000000" d="M295.5,-522.411C295.5,-515.5124 295.5,-505.5696 295.5,-496.84"/>
<polygon fill="#000000" stroke="#000000" points="299.0001,-496.7518 295.5,-486.7519 292.0001,-496.7519 299.0001,-496.7518"/>
<text text-anchor="middle" x="286" y="-501.4" font-family="Helvetica,sans-Serif" font-size="12.00" fill="#000000">extension</text>
</g>
<!-- nc:ActivityType -->
<g id="node15" class="node">
<title>nc:ActivityType</title>
<g id="a_node15_40"><a xlink:href="../../nc/ActivityType/#diagram" xlink:title="A data type for a single or set of related actions, events, or process steps." target="_top">
<text text-anchor="start" x="255.5" y="-580.4" font-family="Helvetica,sans-Serif" font-size="12.00" fill="#000000">nc:ActivityType</text>
</a>
</g>
<polygon fill="none" stroke="#000000" points="253,-575.5 253,-592.5 338,-592.5 338,-575.5 253,-575.5"/>
</g>
<!-- nc:ActivityType&#45;&gt;nc:IncidentType -->
<g id="edge14" class="edge">
<title>nc:ActivityType&#45;&gt;nc:IncidentType</title>
<path fill="none" stroke="#000000" d="M295.5,-575.411C295.5,-568.5124 295.5,-558.5696 295.5,-549.84"/>
<polygon fill="#000000" stroke="#000000" points="299.0001,-549.7518 295.5,-539.7519 292.0001,-549.7519 299.0001,-549.7518"/>
<text text-anchor="middle" x="286" y="-554.4" font-family="Helvetica,sans-Serif" font-size="12.00" fill="#000000">extension</text>
</g>
<!-- structures:ObjectType -->
<g id="node16" class="node">
<title>structures:ObjectType</title>
<g id="a_node16_41"><a xlink:href="../../structures/ObjectType/#diagram" xlink:title="A data type for a thing with its own lifespan that has some existence." target="_top">
<text text-anchor="start" x="236.5" y="-633.4" font-family="Helvetica,sans-Serif" font-size="12.00" fill="#000000">structures:ObjectType</text>
</a>
</g>
<polygon fill="none" stroke="#000000" points="234.5,-628.5 234.5,-645.5 356.5,-645.5 356.5,-628.5 234.5,-628.5"/>
</g>
<!-- structures:ObjectType&#45;&gt;nc:ActivityType -->
<g id="edge15" class="edge">
<title>structures:ObjectType&#45;&gt;nc:ActivityType</title>
<path fill="none" stroke="#000000" d="M295.5,-628.411C295.5,-621.5124 295.5,-611.5696 295.5,-602.84"/>
<polygon fill="#000000" stroke="#000000" points="299.0001,-602.7518 295.5,-592.7519 292.0001,-602.7519 299.0001,-602.7518"/>
<text text-anchor="middle" x="286" y="-607.4" font-family="Helvetica,sans-Serif" font-size="12.00" fill="#000000">extension</text>
</g>
</g>
</svg>
