<?xml version="1.0" encoding="UTF-8" standalone="no"?>
<!DOCTYPE svg PUBLIC "-//W3C//DTD SVG 1.1//EN"
 "http://www.w3.org/Graphics/SVG/1.1/DTD/svg11.dtd">
<!-- Generated by graphviz version 2.40.1 (20161225.0304)
 -->
<!-- Title: graphic Pages: 1 -->
<svg width="436pt" height="45pt"
 viewBox="0.00 0.00 436.00 45.00" xmlns="http://www.w3.org/2000/svg" xmlns:xlink="http://www.w3.org/1999/xlink">
<g id="graph0" class="graph" transform="scale(1 1) rotate(0) translate(4 41)">
<title>graphic</title>
<polygon fill="#ffffff" stroke="transparent" points="-4,4 -4,-41 432,-41 432,4 -4,4"/>
<!-- j:SanctionProgress -->
<g id="node1" class="node">
<title>j:SanctionProgress</title>
<text text-anchor="start" x="157.5" y="-21.4" font-family="Helvetica,sans-Serif" font-weight="bold" font-size="12.00" fill="#000000">j:SanctionProgress</text>
<polygon fill="none" stroke="#ff0000" stroke-width="5" points="153.5,-14 153.5,-34 271.5,-34 271.5,-14 153.5,-14"/>
</g>
<!-- nc:ProgressType -->
<g id="node3" class="node">
<title>nc:ProgressType</title>
<g id="a_node3_0"><a xlink:href="../../nc/ProgressType/#diagram" xlink:title="A data type for a set of changes or advancements which bring someone closer to completing something." target="_top">
<text text-anchor="start" x="335.5" y="-20.4" font-family="Helvetica,sans-Serif" font-size="12.00" fill="#000000">nc:ProgressType</text>
</a>
</g>
<polygon fill="none" stroke="#000000" points="333,-15.5 333,-32.5 428,-32.5 428,-15.5 333,-15.5"/>
</g>
<!-- j:SanctionProgress&#45;&gt;nc:ProgressType -->
<g id="edge2" class="edge">
<title>j:SanctionProgress&#45;&gt;nc:ProgressType</title>
<path fill="none" stroke="#000000" d="M274.103,-24C290.0047,-24 307.0616,-24 322.7583,-24"/>
<polygon fill="#000000" stroke="#000000" points="322.8512,-27.5001 332.8511,-24 322.8511,-20.5001 322.8512,-27.5001"/>
<text text-anchor="middle" x="303.5" y="-27.4" font-family="Helvetica,sans-Serif" font-size="12.00" fill="#000000">type</text>
</g>
<!-- Types -->
<g id="node2" class="node">
<title>Types</title>
<text text-anchor="start" x="2" y="-21.4" font-family="Helvetica,sans-Serif" font-weight="bold" font-size="12.00" fill="#000000">Types</text>
<g id="a_node2_1"><a xlink:href="../../j/SanctionType/#diagram" xlink:title="A data type for a sanction or penalty ordered for a subject as a result of a disposition of a charge." target="_top">
<polygon fill="#ebebeb" stroke="transparent" points="1,-1 1,-16 83,-16 83,-1 1,-1"/>
<text text-anchor="start" x="2" y="-5.4" font-family="Helvetica,sans-Serif" font-size="12.00" fill="#000000">j:SanctionType</text>
</a>
</g>
<polygon fill="#000000" stroke="#000000" points="0,-16 0,-16 84,-16 84,-16 0,-16"/>
<polygon fill="none" stroke="#000000" points="0,0 0,-32 84,-32 84,0 0,0"/>
</g>
<!-- Types&#45;&gt;j:SanctionProgress -->
<g id="edge1" class="edge">
<title>Types:top&#45;&gt;j:SanctionProgress</title>
<path fill="none" stroke="#000000" d="M83,-24C101.6852,-24 121.8869,-24 140.6511,-24"/>
<polygon fill="#000000" stroke="#000000" points="140.9091,-27.5001 150.909,-24 140.909,-20.5001 140.9091,-27.5001"/>
<text text-anchor="middle" x="117.5" y="-27.4" font-family="Helvetica,sans-Serif" font-size="12.00" fill="#000000">has&#45;a</text>
</g>
</g>
</svg>
