<?xml version="1.0" encoding="UTF-8" standalone="no"?>
<!DOCTYPE svg PUBLIC "-//W3C//DTD SVG 1.1//EN"
 "http://www.w3.org/Graphics/SVG/1.1/DTD/svg11.dtd">
<!-- Generated by graphviz version 2.40.1 (20161225.0304)
 -->
<!-- Title: graphic Pages: 1 -->
<svg width="496pt" height="45pt"
 viewBox="0.00 0.00 496.00 45.00" xmlns="http://www.w3.org/2000/svg" xmlns:xlink="http://www.w3.org/1999/xlink">
<g id="graph0" class="graph" transform="scale(1 1) rotate(0) translate(4 41)">
<title>graphic</title>
<polygon fill="#ffffff" stroke="transparent" points="-4,4 -4,-41 492,-41 492,4 -4,4"/>
<!-- mo:TaskNumberText -->
<g id="node1" class="node">
<title>mo:TaskNumberText</title>
<text text-anchor="start" x="224" y="-21.4" font-family="Helvetica,sans-Serif" font-weight="bold" font-size="12.00" fill="#000000">mo:TaskNumberText</text>
<polygon fill="none" stroke="#ff0000" stroke-width="5" points="220.5,-14 220.5,-34 347.5,-34 347.5,-14 220.5,-14"/>
</g>
<!-- niem&#45;xs:string -->
<g id="node3" class="node">
<title>niem&#45;xs:string</title>
<g id="a_node3_0"><a xlink:href="../../niem-xs/string/#diagram" xlink:title="A data type for character strings in XML." target="_top">
<text text-anchor="start" x="411.5" y="-20.4" font-family="Helvetica,sans-Serif" font-size="12.00" fill="#000000">niem&#45;xs:string</text>
</a>
</g>
<polygon fill="none" stroke="#000000" points="409,-15.5 409,-32.5 488,-32.5 488,-15.5 409,-15.5"/>
</g>
<!-- mo:TaskNumberText&#45;&gt;niem&#45;xs:string -->
<g id="edge2" class="edge">
<title>mo:TaskNumberText&#45;&gt;niem&#45;xs:string</title>
<path fill="none" stroke="#000000" d="M350.4343,-24C366.5182,-24 383.4407,-24 398.6147,-24"/>
<polygon fill="#000000" stroke="#000000" points="398.8086,-27.5001 408.8086,-24 398.8086,-20.5001 398.8086,-27.5001"/>
<text text-anchor="middle" x="379.5" y="-27.4" font-family="Helvetica,sans-Serif" font-size="12.00" fill="#000000">type</text>
</g>
<!-- Types -->
<g id="node2" class="node">
<title>Types</title>
<text text-anchor="start" x="2.5" y="-21.4" font-family="Helvetica,sans-Serif" font-weight="bold" font-size="12.00" fill="#000000">Types</text>
<g id="a_node2_1"><a xlink:href="../../mo/TaskAugmentationType/#diagram" xlink:title="A data type for additional information about a task." target="_top">
<polygon fill="#ebebeb" stroke="transparent" points="1.5,-1 1.5,-16 150.5,-16 150.5,-1 1.5,-1"/>
<text text-anchor="start" x="2.5" y="-5.4" font-family="Helvetica,sans-Serif" font-size="12.00" fill="#000000">mo:TaskAugmentationType</text>
</a>
</g>
<polygon fill="#000000" stroke="#000000" points=".5,-16 .5,-16 151.5,-16 151.5,-16 .5,-16"/>
<polygon fill="none" stroke="#000000" points="0,0 0,-32 151,-32 151,0 0,0"/>
</g>
<!-- Types&#45;&gt;mo:TaskNumberText -->
<g id="edge1" class="edge">
<title>Types:top&#45;&gt;mo:TaskNumberText</title>
<path fill="none" stroke="#000000" d="M150.5,-24C168.9801,-24 188.8992,-24 207.5681,-24"/>
<polygon fill="#000000" stroke="#000000" points="207.7941,-27.5001 217.794,-24 207.794,-20.5001 207.7941,-27.5001"/>
<text text-anchor="middle" x="184.5" y="-27.4" font-family="Helvetica,sans-Serif" font-size="12.00" fill="#000000">has&#45;a</text>
</g>
</g>
</svg>
