<?xml version="1.0" encoding="UTF-8" standalone="no"?>
<!DOCTYPE svg PUBLIC "-//W3C//DTD SVG 1.1//EN"
 "http://www.w3.org/Graphics/SVG/1.1/DTD/svg11.dtd">
<!-- Generated by graphviz version 2.40.1 (20161225.0304)
 -->
<!-- Title: graphic Pages: 1 -->
<svg width="375pt" height="86pt"
 viewBox="0.00 0.00 375.00 86.00" xmlns="http://www.w3.org/2000/svg" xmlns:xlink="http://www.w3.org/1999/xlink">
<g id="graph0" class="graph" transform="scale(1 1) rotate(0) translate(4 82)">
<title>graphic</title>
<polygon fill="#ffffff" stroke="transparent" points="-4,4 -4,-82 371,-82 371,4 -4,4"/>
<!-- j:PersonSkinToneCode -->
<g id="node1" class="node">
<title>j:PersonSkinToneCode</title>
<text text-anchor="start" x="10.5" y="-9.9" font-family="Helvetica,sans-Serif" font-weight="bold" font-size="12.00" fill="#000000">j:PersonSkinToneCode</text>
<polygon fill="none" stroke="#ff0000" stroke-width="5" points="6.5,-2.5 6.5,-22.5 146.5,-22.5 146.5,-2.5 6.5,-2.5"/>
</g>
<!-- j:PersonSkinToneCodeType -->
<g id="node3" class="node">
<title>j:PersonSkinToneCodeType</title>
<g id="a_node3_0"><a xlink:href="../../j/PersonSkinToneCodeType/#diagram" xlink:title="A data type for a code set identifying the skin color or tone of a person." target="_top">
<text text-anchor="start" x="214.5" y="-8.9" font-family="Helvetica,sans-Serif" font-size="12.00" fill="#000000">j:PersonSkinToneCodeType</text>
</a>
</g>
<polygon fill="none" stroke="#000000" points="212,-4 212,-21 367,-21 367,-4 212,-4"/>
</g>
<!-- j:PersonSkinToneCode&#45;&gt;j:PersonSkinToneCodeType -->
<g id="edge2" class="edge">
<title>j:PersonSkinToneCode&#45;&gt;j:PersonSkinToneCodeType</title>
<path fill="none" stroke="#000000" d="M149.2068,-12.5C166.0311,-12.5 184.1106,-12.5 201.5101,-12.5"/>
<polygon fill="#000000" stroke="#000000" points="201.6615,-16.0001 211.6614,-12.5 201.6614,-9.0001 201.6615,-16.0001"/>
<text text-anchor="middle" x="182.5" y="-15.9" font-family="Helvetica,sans-Serif" font-size="12.00" fill="#000000">type</text>
</g>
<!-- SubstitutionGroup -->
<g id="node2" class="node">
<title>SubstitutionGroup</title>
<g id="a_node2_1"><a xlink:href="../../nc/PersonSkinToneAbstract/#diagram" xlink:title="A data concept for a color or tone of the skin of a person." target="_top">
<text text-anchor="start" x="2.5" y="-65.9" font-family="Helvetica,sans-Serif" font-size="12.00" fill="#000000">nc:PersonSkinToneAbstract</text>
</a>
</g>
<polygon fill="none" stroke="#000000" points="0,-61 0,-78 153,-78 153,-61 0,-61"/>
</g>
<!-- SubstitutionGroup&#45;&gt;j:PersonSkinToneCode -->
<g id="edge1" class="edge">
<title>SubstitutionGroup&#45;&gt;j:PersonSkinToneCode</title>
<path fill="none" stroke="#000000" d="M76.5,-50.9163C76.5,-42.4809 76.5,-32.7214 76.5,-25.1501"/>
<polygon fill="#000000" stroke="#000000" points="73.0001,-50.9472 76.5,-60.9473 80.0001,-50.9473 73.0001,-50.9472"/>
<text text-anchor="middle" x="67" y="-39.9" font-family="Helvetica,sans-Serif" font-size="12.00" fill="#000000">substitution group</text>
</g>
</g>
</svg>
