<?xml version="1.0" encoding="UTF-8" standalone="no"?>
<!DOCTYPE svg PUBLIC "-//W3C//DTD SVG 1.1//EN"
 "http://www.w3.org/Graphics/SVG/1.1/DTD/svg11.dtd">
<!-- Generated by graphviz version 2.40.1 (20161225.0304)
 -->
<!-- Title: graphic Pages: 1 -->
<svg width="549pt" height="45pt"
 viewBox="0.00 0.00 549.00 45.00" xmlns="http://www.w3.org/2000/svg" xmlns:xlink="http://www.w3.org/1999/xlink">
<g id="graph0" class="graph" transform="scale(1 1) rotate(0) translate(4 41)">
<title>graphic</title>
<polygon fill="#ffffff" stroke="transparent" points="-4,4 -4,-41 545,-41 545,4 -4,4"/>
<!-- j:ParoleActionParticipantComment -->
<g id="node1" class="node">
<title>j:ParoleActionParticipantComment</title>
<text text-anchor="start" x="178.5" y="-21.4" font-family="Helvetica,sans-Serif" font-weight="bold" font-size="12.00" fill="#000000">j:ParoleActionParticipantComment</text>
<polygon fill="none" stroke="#ff0000" stroke-width="5" points="174.5,-14 174.5,-34 380.5,-34 380.5,-14 174.5,-14"/>
</g>
<!-- nc:CommentType -->
<g id="node3" class="node">
<title>nc:CommentType</title>
<g id="a_node3_0"><a xlink:href="../../nc/CommentType/#diagram" xlink:title="A data type for a comment, note, or remark providing additional information." target="_top">
<text text-anchor="start" x="444.5" y="-20.4" font-family="Helvetica,sans-Serif" font-size="12.00" fill="#000000">nc:CommentType</text>
</a>
</g>
<polygon fill="none" stroke="#000000" points="442,-15.5 442,-32.5 541,-32.5 541,-15.5 442,-15.5"/>
</g>
<!-- j:ParoleActionParticipantComment&#45;&gt;nc:CommentType -->
<g id="edge2" class="edge">
<title>j:ParoleActionParticipantComment&#45;&gt;nc:CommentType</title>
<path fill="none" stroke="#000000" d="M383.2461,-24C399.8444,-24 416.4828,-24 431.5636,-24"/>
<polygon fill="#000000" stroke="#000000" points="431.7357,-27.5001 441.7357,-24 431.7356,-20.5001 431.7357,-27.5001"/>
<text text-anchor="middle" x="412.5" y="-27.4" font-family="Helvetica,sans-Serif" font-size="12.00" fill="#000000">type</text>
</g>
<!-- Types -->
<g id="node2" class="node">
<title>Types</title>
<text text-anchor="start" x="2.5" y="-21.4" font-family="Helvetica,sans-Serif" font-weight="bold" font-size="12.00" fill="#000000">Types</text>
<g id="a_node2_1"><a xlink:href="../../j/ParoleActionType/#diagram" xlink:title="A data type for an event or activity regarding a subject&#39;s parole." target="_top">
<polygon fill="#ebebeb" stroke="transparent" points="1.5,-1 1.5,-16 104.5,-16 104.5,-1 1.5,-1"/>
<text text-anchor="start" x="2.5" y="-5.4" font-family="Helvetica,sans-Serif" font-size="12.00" fill="#000000">j:ParoleActionType</text>
</a>
</g>
<polygon fill="#000000" stroke="#000000" points=".5,-16 .5,-16 105.5,-16 105.5,-16 .5,-16"/>
<polygon fill="none" stroke="#000000" points="0,0 0,-32 105,-32 105,0 0,0"/>
</g>
<!-- Types&#45;&gt;j:ParoleActionParticipantComment -->
<g id="edge1" class="edge">
<title>Types:top&#45;&gt;j:ParoleActionParticipantComment</title>
<path fill="none" stroke="#000000" d="M104.5,-24C122.9579,-24 142.5235,-24 161.6013,-24"/>
<polygon fill="#000000" stroke="#000000" points="161.831,-27.5001 171.8309,-24 161.8309,-20.5001 161.831,-27.5001"/>
<text text-anchor="middle" x="138.5" y="-27.4" font-family="Helvetica,sans-Serif" font-size="12.00" fill="#000000">has&#45;a</text>
</g>
</g>
</svg>
