<?xml version="1.0" encoding="UTF-8" standalone="no"?>
<!DOCTYPE svg PUBLIC "-//W3C//DTD SVG 1.1//EN"
 "http://www.w3.org/Graphics/SVG/1.1/DTD/svg11.dtd">
<!-- Generated by graphviz version 2.40.1 (20161225.0304)
 -->
<!-- Title: graphic Pages: 1 -->
<svg width="426pt" height="86pt"
 viewBox="0.00 0.00 426.00 86.00" xmlns="http://www.w3.org/2000/svg" xmlns:xlink="http://www.w3.org/1999/xlink">
<g id="graph0" class="graph" transform="scale(1 1) rotate(0) translate(4 82)">
<title>graphic</title>
<polygon fill="#ffffff" stroke="transparent" points="-4,4 -4,-82 422,-82 422,4 -4,4"/>
<!-- j:SupervisionAugmentation -->
<g id="node1" class="node">
<title>j:SupervisionAugmentation</title>
<text text-anchor="start" x="14.5" y="-9.9" font-family="Helvetica,sans-Serif" font-weight="bold" font-size="12.00" fill="#000000">j:SupervisionAugmentation</text>
<polygon fill="none" stroke="#ff0000" stroke-width="5" points="10.5,-2.5 10.5,-22.5 174.5,-22.5 174.5,-2.5 10.5,-2.5"/>
</g>
<!-- j:SupervisionAugmentationType -->
<g id="node3" class="node">
<title>j:SupervisionAugmentationType</title>
<g id="a_node3_0"><a xlink:href="../../j/SupervisionAugmentationType/#diagram" xlink:title="A data type for additional information about a supervision." target="_top">
<text text-anchor="start" x="246" y="-8.9" font-family="Helvetica,sans-Serif" font-size="12.00" fill="#000000">j:SupervisionAugmentationType</text>
</a>
</g>
<polygon fill="none" stroke="#000000" points="244,-4 244,-21 418,-21 418,-4 244,-4"/>
</g>
<!-- j:SupervisionAugmentation&#45;&gt;j:SupervisionAugmentationType -->
<g id="edge2" class="edge">
<title>j:SupervisionAugmentation&#45;&gt;j:SupervisionAugmentationType</title>
<path fill="none" stroke="#000000" d="M177.2577,-12.5C195.5301,-12.5 214.9846,-12.5 233.6928,-12.5"/>
<polygon fill="#000000" stroke="#000000" points="233.6962,-16.0001 243.6962,-12.5 233.6962,-9.0001 233.6962,-16.0001"/>
<text text-anchor="middle" x="214.5" y="-15.9" font-family="Helvetica,sans-Serif" font-size="12.00" fill="#000000">type</text>
</g>
<!-- SubstitutionGroup -->
<g id="node2" class="node">
<title>SubstitutionGroup</title>
<g id="a_node2_1"><a xlink:href="../../nc/SupervisionAugmentationPoint/#diagram" xlink:title="An augmentation point for SupervisionType." target="_top">
<text text-anchor="start" x="2.5" y="-65.9" font-family="Helvetica,sans-Serif" font-size="12.00" fill="#000000">nc:SupervisionAugmentationPoint</text>
</a>
</g>
<polygon fill="none" stroke="#000000" points="0,-61 0,-78 185,-78 185,-61 0,-61"/>
</g>
<!-- SubstitutionGroup&#45;&gt;j:SupervisionAugmentation -->
<g id="edge1" class="edge">
<title>SubstitutionGroup&#45;&gt;j:SupervisionAugmentation</title>
<path fill="none" stroke="#000000" d="M92.5,-50.9163C92.5,-42.4809 92.5,-32.7214 92.5,-25.1501"/>
<polygon fill="#000000" stroke="#000000" points="89.0001,-50.9472 92.5,-60.9473 96.0001,-50.9473 89.0001,-50.9472"/>
<text text-anchor="middle" x="83" y="-39.9" font-family="Helvetica,sans-Serif" font-size="12.00" fill="#000000">substitution group</text>
</g>
</g>
</svg>
