<?xml version="1.0" encoding="UTF-8" standalone="no"?>
<!DOCTYPE svg PUBLIC "-//W3C//DTD SVG 1.1//EN"
 "http://www.w3.org/Graphics/SVG/1.1/DTD/svg11.dtd">
<!-- Generated by graphviz version 2.40.1 (20161225.0304)
 -->
<!-- Title: graphic Pages: 1 -->
<svg width="721pt" height="101pt"
 viewBox="0.00 0.00 721.00 101.00" xmlns="http://www.w3.org/2000/svg" xmlns:xlink="http://www.w3.org/1999/xlink">
<g id="graph0" class="graph" transform="scale(1 1) rotate(0) translate(4 97)">
<title>graphic</title>
<polygon fill="#ffffff" stroke="transparent" points="-4,4 -4,-97 717,-97 717,4 -4,4"/>
<!-- scr:BenefitApplicationClassificationAbstract -->
<g id="node1" class="node">
<title>scr:BenefitApplicationClassificationAbstract</title>
<text text-anchor="start" x="363.5" y="-77.4" font-family="Helvetica,sans-Serif" font-weight="bold" font-size="12.00" fill="#000000">scr:BenefitApplicationClassificationAbstract</text>
<polygon fill="none" stroke="#ff0000" stroke-width="5" points="359.5,-70 359.5,-90 621.5,-90 621.5,-70 359.5,-70"/>
</g>
<!-- SubstitutableElements -->
<g id="node3" class="node">
<title>SubstitutableElements</title>
<text text-anchor="start" x="270.5" y="-21.4" font-family="Helvetica,sans-Serif" font-weight="bold" font-size="12.00" fill="#000000">Substitutable elements</text>
<g id="a_node3_0"><a xlink:href="../../scr/BenefitApplicationClassificationCode/#diagram" xlink:title="A kind of benefit application." target="_top">
<polygon fill="#ebebeb" stroke="transparent" points="269.5,-1 269.5,-16 712.5,-16 712.5,-1 269.5,-1"/>
<text text-anchor="start" x="270.5" y="-5.4" font-family="Helvetica,sans-Serif" font-size="12.00" fill="#000000">scr:BenefitApplicationClassificationCode: scr:BenefitApplicationCategoryCodeType</text>
</a>
</g>
<polygon fill="#000000" stroke="#000000" points="268.5,-16 268.5,-16 713.5,-16 713.5,-16 268.5,-16"/>
<polygon fill="none" stroke="#000000" points="268,0 268,-32 713,-32 713,0 268,0"/>
</g>
<!-- scr:BenefitApplicationClassificationAbstract&#45;&gt;SubstitutableElements -->
<g id="edge2" class="edge">
<title>scr:BenefitApplicationClassificationAbstract&#45;&gt;SubstitutableElements</title>
<path fill="none" stroke="#000000" d="M490.5,-57.3063C490.5,-48.9972 490.5,-39.7712 490.5,-32.1499"/>
<polygon fill="#000000" stroke="#000000" points="487.0001,-57.4892 490.5,-67.4892 494.0001,-57.4892 487.0001,-57.4892"/>
<text text-anchor="middle" x="481" y="-46.65" font-family="Helvetica,sans-Serif" font-size="12.00" fill="#000000">substitutable for</text>
</g>
<!-- Types -->
<g id="node2" class="node">
<title>Types</title>
<text text-anchor="start" x="2.5" y="-77.4" font-family="Helvetica,sans-Serif" font-weight="bold" font-size="12.00" fill="#000000">Types</text>
<g id="a_node2_1"><a xlink:href="../../scr/BenefitApplicationEncounterType/#diagram" xlink:title="A data type for a Person Encounter involving the processing of a Benefit Application service request." target="_top">
<polygon fill="#ebebeb" stroke="transparent" points="1.5,-57 1.5,-72 200.5,-72 200.5,-57 1.5,-57"/>
<text text-anchor="start" x="2.5" y="-61.4" font-family="Helvetica,sans-Serif" font-size="12.00" fill="#000000">scr:BenefitApplicationEncounterType</text>
</a>
</g>
<polygon fill="#000000" stroke="#000000" points=".5,-72 .5,-72 201.5,-72 201.5,-72 .5,-72"/>
<polygon fill="none" stroke="#000000" points="0,-56 0,-88 201,-88 201,-56 0,-56"/>
</g>
<!-- Types&#45;&gt;scr:BenefitApplicationClassificationAbstract -->
<g id="edge1" class="edge">
<title>Types:top&#45;&gt;scr:BenefitApplicationClassificationAbstract</title>
<path fill="none" stroke="#000000" d="M200.5,-80C248.1091,-80 300.1147,-80 346.7729,-80"/>
<polygon fill="#000000" stroke="#000000" points="346.9534,-83.5001 356.9533,-80 346.9533,-76.5001 346.9534,-83.5001"/>
<text text-anchor="middle" x="234.5" y="-83.4" font-family="Helvetica,sans-Serif" font-size="12.00" fill="#000000">has&#45;a</text>
</g>
</g>
</svg>
