<?xml version="1.0" encoding="UTF-8" standalone="no"?>
<!DOCTYPE svg PUBLIC "-//W3C//DTD SVG 1.1//EN"
 "http://www.w3.org/Graphics/SVG/1.1/DTD/svg11.dtd">
<!-- Generated by graphviz version 2.40.1 (20161225.0304)
 -->
<!-- Title: graphic Pages: 1 -->
<svg width="857pt" height="184pt"
 viewBox="0.00 0.00 857.00 183.50" xmlns="http://www.w3.org/2000/svg" xmlns:xlink="http://www.w3.org/1999/xlink">
<g id="graph0" class="graph" transform="scale(1 1) rotate(0) translate(4 179.5)">
<title>graphic</title>
<polygon fill="#ffffff" stroke="transparent" points="-4,4 -4,-179.5 853,-179.5 853,4 -4,4"/>
<!-- hs:SchoolResourceOfficerEducationOrganizationAssociationType -->
<g id="node1" class="node">
<title>hs:SchoolResourceOfficerEducationOrganizationAssociationType</title>
<text text-anchor="start" x="392.5" y="-55.4" font-family="Helvetica,sans-Serif" font-weight="bold" font-size="12.00" fill="#000000">hs:SchoolResourceOfficerEducationOrganizationAssociationType</text>
<g id="a_node1_0"><a xlink:href="../../hs/EducationOrganization/#diagram" xlink:title="An education organization that currently has a juvenile enrolled as a student." target="_top">
<polygon fill="#ebebeb" stroke="transparent" points="391.5,-35 391.5,-50 844.5,-50 844.5,-35 391.5,-35"/>
<text text-anchor="start" x="392.5" y="-39.4" font-family="Helvetica,sans-Serif" font-size="12.00" fill="#000000">hs:EducationOrganization: nc:OrganizationType [0&#45;n]</text>
</a>
</g>
<g id="a_node1_1"><a xlink:href="../../hs/SchoolResourceOfficer/#diagram" xlink:title="A police officer assigned to a school." target="_top">
<text text-anchor="start" x="392.5" y="-24.4" font-family="Helvetica,sans-Serif" font-size="12.00" fill="#000000">hs:SchoolResourceOfficer: j:EnforcementOfficialType [0&#45;n]</text>
</a>
</g>
<g id="a_node1_2"><a xlink:href="../../hs/SchoolResourceOfficerEducationOrganizationAssociationAugmentationPoint/#diagram" xlink:title="An augmentation point for SchoolResourceOfficerEducationOrganizationAssociationType." target="_top">
<polygon fill="#ebebeb" stroke="transparent" points="391.5,-5 391.5,-20 844.5,-20 844.5,-5 391.5,-5"/>
<text text-anchor="start" x="392.5" y="-9.4" font-family="Helvetica,sans-Serif" font-size="12.00" fill="#000000">hs:SchoolResourceOfficerEducationOrganizationAssociationAugmentationPoint [0&#45;n]</text>
</a>
</g>
<polygon fill="#ff0000" stroke="#ff0000" points="386.5,-50 386.5,-50 849.5,-50 849.5,-50 386.5,-50"/>
<polygon fill="none" stroke="#ff0000" stroke-width="5" points="388.5,-2.5 388.5,-67.5 846.5,-67.5 846.5,-2.5 388.5,-2.5"/>
</g>
<!-- Properties -->
<g id="node2" class="node">
<title>Properties</title>
<text text-anchor="start" x="2.5" y="-55.4" font-family="Helvetica,sans-Serif" font-weight="bold" font-size="12.00" fill="#000000">Properties</text>
<g id="a_node2_3"><a xlink:href="../../hs/SchoolResourceOfficerEducationOrganizationAssociation/#diagram" xlink:title="An association relating an education organization to a school resource officer." target="_top">
<polygon fill="#ebebeb" stroke="transparent" points="1.5,-35 1.5,-50 326.5,-50 326.5,-35 1.5,-35"/>
<text text-anchor="start" x="2.5" y="-39.4" font-family="Helvetica,sans-Serif" font-size="12.00" fill="#000000">hs:SchoolResourceOfficerEducationOrganizationAssociation</text>
</a>
</g>
<polygon fill="#000000" stroke="#000000" points=".5,-50 .5,-50 327.5,-50 327.5,-50 .5,-50"/>
<polygon fill="none" stroke="#000000" points="0,-34 0,-66 327,-66 327,-34 0,-34"/>
</g>
<!-- Properties&#45;&gt;hs:SchoolResourceOfficerEducationOrganizationAssociationType -->
<g id="edge1" class="edge">
<title>Properties:top&#45;&gt;hs:SchoolResourceOfficerEducationOrganizationAssociationType:top</title>
<path fill="none" stroke="#000000" d="M326.5,-58C351.6649,-58 360.3891,-58 381.3154,-58"/>
<polygon fill="#000000" stroke="#000000" points="381.5,-61.5001 391.5,-58 381.5,-54.5001 381.5,-61.5001"/>
<text text-anchor="middle" x="356.5" y="-61.4" font-family="Helvetica,sans-Serif" font-size="12.00" fill="#000000">type</text>
</g>
<!-- nc:AssociationType -->
<g id="node3" class="node">
<title>nc:AssociationType</title>
<g id="a_node3_4"><a xlink:href="../../nc/AssociationType/#diagram" xlink:title="A data type for an association, connection, relationship, or involvement somehow linking people, things, and/or activities together." target="_top">
<text text-anchor="start" x="565.5" y="-110.4" font-family="Helvetica,sans-Serif" font-size="12.00" fill="#000000">nc:AssociationType</text>
</a>
</g>
<polygon fill="none" stroke="#000000" points="563,-105.5 563,-122.5 672,-122.5 672,-105.5 563,-105.5"/>
</g>
<!-- nc:AssociationType&#45;&gt;hs:SchoolResourceOfficerEducationOrganizationAssociationType -->
<g id="edge2" class="edge">
<title>nc:AssociationType&#45;&gt;hs:SchoolResourceOfficerEducationOrganizationAssociationType</title>
<path fill="none" stroke="#000000" d="M617.5,-105.4117C617.5,-99.1025 617.5,-89.9911 617.5,-80.4049"/>
<polygon fill="#000000" stroke="#000000" points="621.0001,-80.3408 617.5,-70.3408 614.0001,-80.3409 621.0001,-80.3408"/>
<text text-anchor="middle" x="608" y="-84.65" font-family="Helvetica,sans-Serif" font-size="12.00" fill="#000000">extension</text>
</g>
<!-- structures:AssociationType -->
<g id="node4" class="node">
<title>structures:AssociationType</title>
<g id="a_node4_5"><a xlink:href="../../structures/AssociationType/#diagram" xlink:title="A data type for a relationship between two or more objects, including any properties of that relationship." target="_top">
<text text-anchor="start" x="545.5" y="-163.4" font-family="Helvetica,sans-Serif" font-size="12.00" fill="#000000">structures:AssociationType</text>
</a>
</g>
<polygon fill="none" stroke="#000000" points="543,-158.5 543,-175.5 692,-175.5 692,-158.5 543,-158.5"/>
</g>
<!-- structures:AssociationType&#45;&gt;nc:AssociationType -->
<g id="edge3" class="edge">
<title>structures:AssociationType&#45;&gt;nc:AssociationType</title>
<path fill="none" stroke="#000000" d="M617.5,-158.411C617.5,-151.5124 617.5,-141.5696 617.5,-132.84"/>
<polygon fill="#000000" stroke="#000000" points="621.0001,-132.7518 617.5,-122.7519 614.0001,-132.7519 621.0001,-132.7518"/>
<text text-anchor="middle" x="608" y="-137.4" font-family="Helvetica,sans-Serif" font-size="12.00" fill="#000000">extension</text>
</g>
</g>
</svg>
