<?xml version="1.0" encoding="UTF-8" standalone="no"?>
<!DOCTYPE svg PUBLIC "-//W3C//DTD SVG 1.1//EN"
 "http://www.w3.org/Graphics/SVG/1.1/DTD/svg11.dtd">
<!-- Generated by graphviz version 2.40.1 (20161225.0304)
 -->
<!-- Title: graphic Pages: 1 -->
<svg width="482pt" height="45pt"
 viewBox="0.00 0.00 482.00 45.00" xmlns="http://www.w3.org/2000/svg" xmlns:xlink="http://www.w3.org/1999/xlink">
<g id="graph0" class="graph" transform="scale(1 1) rotate(0) translate(4 41)">
<title>graphic</title>
<polygon fill="#ffffff" stroke="transparent" points="-4,4 -4,-41 478,-41 478,4 -4,4"/>
<!-- em:IncidentKindCodeAbstract -->
<g id="node1" class="node">
<title>em:IncidentKindCodeAbstract</title>
<text text-anchor="start" x="295.5" y="-21.4" font-family="Helvetica,sans-Serif" font-weight="bold" font-size="12.00" fill="#000000">em:IncidentKindCodeAbstract</text>
<polygon fill="none" stroke="#ff0000" stroke-width="5" points="291.5,-14 291.5,-34 471.5,-34 471.5,-14 291.5,-14"/>
</g>
<!-- Types -->
<g id="node2" class="node">
<title>Types</title>
<text text-anchor="start" x="2" y="-21.4" font-family="Helvetica,sans-Serif" font-weight="bold" font-size="12.00" fill="#000000">Types</text>
<g id="a_node2_0"><a xlink:href="../../em/PreliminaryDamageAssessmentType/#diagram" xlink:title="A data type for a preliminary damage assessment report" target="_top">
<polygon fill="#ebebeb" stroke="transparent" points="1,-1 1,-16 221,-16 221,-1 1,-1"/>
<text text-anchor="start" x="2" y="-5.4" font-family="Helvetica,sans-Serif" font-size="12.00" fill="#000000">em:PreliminaryDamageAssessmentType</text>
</a>
</g>
<polygon fill="#000000" stroke="#000000" points="0,-16 0,-16 222,-16 222,-16 0,-16"/>
<polygon fill="none" stroke="#000000" points="0,0 0,-32 222,-32 222,0 0,0"/>
</g>
<!-- Types&#45;&gt;em:IncidentKindCodeAbstract -->
<g id="edge1" class="edge">
<title>Types:top&#45;&gt;em:IncidentKindCodeAbstract</title>
<path fill="none" stroke="#000000" d="M221,-24C239.7455,-24 259.7224,-24 278.9892,-24"/>
<polygon fill="#000000" stroke="#000000" points="278.9895,-27.5001 288.9894,-24 278.9894,-20.5001 278.9895,-27.5001"/>
<text text-anchor="middle" x="255.5" y="-27.4" font-family="Helvetica,sans-Serif" font-size="12.00" fill="#000000">has&#45;a</text>
</g>
</g>
</svg>
