<?xml version="1.0" encoding="UTF-8" standalone="no"?>
<!DOCTYPE svg PUBLIC "-//W3C//DTD SVG 1.1//EN"
 "http://www.w3.org/Graphics/SVG/1.1/DTD/svg11.dtd">
<!-- Generated by graphviz version 2.40.1 (20161225.0304)
 -->
<!-- Title: graphic Pages: 1 -->
<svg width="297pt" height="86pt"
 viewBox="0.00 0.00 297.00 86.00" xmlns="http://www.w3.org/2000/svg" xmlns:xlink="http://www.w3.org/1999/xlink">
<g id="graph0" class="graph" transform="scale(1 1) rotate(0) translate(4 82)">
<title>graphic</title>
<polygon fill="#ffffff" stroke="transparent" points="-4,4 -4,-82 293,-82 293,4 -4,4"/>
<!-- mo:CourseCode -->
<g id="node1" class="node">
<title>mo:CourseCode</title>
<text text-anchor="start" x="6.5" y="-9.9" font-family="Helvetica,sans-Serif" font-weight="bold" font-size="12.00" fill="#000000">mo:CourseCode</text>
<polygon fill="none" stroke="#ff0000" stroke-width="5" points="3,-2.5 3,-22.5 104,-22.5 104,-2.5 3,-2.5"/>
</g>
<!-- nc:DirectionCodeType -->
<g id="node3" class="node">
<title>nc:DirectionCodeType</title>
<g id="a_node3_0"><a xlink:href="../../nc/DirectionCodeType/#diagram" xlink:title="A data type for compass directions." target="_top">
<text text-anchor="start" x="168.5" y="-8.9" font-family="Helvetica,sans-Serif" font-size="12.00" fill="#000000">nc:DirectionCodeType</text>
</a>
</g>
<polygon fill="none" stroke="#000000" points="166,-4 166,-21 289,-21 289,-4 166,-4"/>
</g>
<!-- mo:CourseCode&#45;&gt;nc:DirectionCodeType -->
<g id="edge2" class="edge">
<title>mo:CourseCode&#45;&gt;nc:DirectionCodeType</title>
<path fill="none" stroke="#000000" d="M106.6512,-12.5C122.1281,-12.5 139.2982,-12.5 155.7214,-12.5"/>
<polygon fill="#000000" stroke="#000000" points="155.8289,-16.0001 165.8289,-12.5 155.8288,-9.0001 155.8289,-16.0001"/>
<text text-anchor="middle" x="136.5" y="-15.9" font-family="Helvetica,sans-Serif" font-size="12.00" fill="#000000">type</text>
</g>
<!-- SubstitutionGroup -->
<g id="node2" class="node">
<title>SubstitutionGroup</title>
<g id="a_node2_1"><a xlink:href="../../mo/CourseAbstract/#diagram" xlink:title="A data concept for the intended direction of movement in the horizontal plane." target="_top">
<text text-anchor="start" x="2.5" y="-65.9" font-family="Helvetica,sans-Serif" font-size="12.00" fill="#000000">mo:CourseAbstract</text>
</a>
</g>
<polygon fill="none" stroke="#000000" points="0,-61 0,-78 107,-78 107,-61 0,-61"/>
</g>
<!-- SubstitutionGroup&#45;&gt;mo:CourseCode -->
<g id="edge1" class="edge">
<title>SubstitutionGroup&#45;&gt;mo:CourseCode</title>
<path fill="none" stroke="#000000" d="M53.5,-50.9163C53.5,-42.4809 53.5,-32.7214 53.5,-25.1501"/>
<polygon fill="#000000" stroke="#000000" points="50.0001,-50.9472 53.5,-60.9473 57.0001,-50.9473 50.0001,-50.9472"/>
<text text-anchor="middle" x="44" y="-39.9" font-family="Helvetica,sans-Serif" font-size="12.00" fill="#000000">substitution group</text>
</g>
</g>
</svg>
