<?xml version="1.0" encoding="UTF-8" standalone="no"?>
<!DOCTYPE svg PUBLIC "-//W3C//DTD SVG 1.1//EN"
 "http://www.w3.org/Graphics/SVG/1.1/DTD/svg11.dtd">
<!-- Generated by graphviz version 2.40.1 (20161225.0304)
 -->
<!-- Title: graphic Pages: 1 -->
<svg width="557pt" height="45pt"
 viewBox="0.00 0.00 557.00 45.00" xmlns="http://www.w3.org/2000/svg" xmlns:xlink="http://www.w3.org/1999/xlink">
<g id="graph0" class="graph" transform="scale(1 1) rotate(0) translate(4 41)">
<title>graphic</title>
<polygon fill="#ffffff" stroke="transparent" points="-4,4 -4,-41 553,-41 553,4 -4,4"/>
<!-- cbrn:RadItemDescriptionText -->
<g id="node1" class="node">
<title>cbrn:RadItemDescriptionText</title>
<text text-anchor="start" x="236.5" y="-21.4" font-family="Helvetica,sans-Serif" font-weight="bold" font-size="12.00" fill="#000000">cbrn:RadItemDescriptionText</text>
<polygon fill="none" stroke="#ff0000" stroke-width="5" points="232.5,-14 232.5,-34 408.5,-34 408.5,-14 232.5,-14"/>
</g>
<!-- niem&#45;xs:string -->
<g id="node3" class="node">
<title>niem&#45;xs:string</title>
<g id="a_node3_0"><a xlink:href="../../niem-xs/string/#diagram" xlink:title="A data type for character strings in XML." target="_top">
<text text-anchor="start" x="472.5" y="-20.4" font-family="Helvetica,sans-Serif" font-size="12.00" fill="#000000">niem&#45;xs:string</text>
</a>
</g>
<polygon fill="none" stroke="#000000" points="470,-15.5 470,-32.5 549,-32.5 549,-15.5 470,-15.5"/>
</g>
<!-- cbrn:RadItemDescriptionText&#45;&gt;niem&#45;xs:string -->
<g id="edge2" class="edge">
<title>cbrn:RadItemDescriptionText&#45;&gt;niem&#45;xs:string</title>
<path fill="none" stroke="#000000" d="M411.125,-24C427.9054,-24 444.849,-24 459.8346,-24"/>
<polygon fill="#000000" stroke="#000000" points="459.8704,-27.5001 469.8704,-24 459.8704,-20.5001 459.8704,-27.5001"/>
<text text-anchor="middle" x="440.5" y="-27.4" font-family="Helvetica,sans-Serif" font-size="12.00" fill="#000000">type</text>
</g>
<!-- Types -->
<g id="node2" class="node">
<title>Types</title>
<text text-anchor="start" x="2.5" y="-21.4" font-family="Helvetica,sans-Serif" font-weight="bold" font-size="12.00" fill="#000000">Types</text>
<g id="a_node2_1"><a xlink:href="../../cbrn/RadItemInformationType/#diagram" xlink:title="A data type that provides information regarding an item from which radiation is being measured by the radiation instrument, and measurement data is reported in this xml document." target="_top">
<polygon fill="#ebebeb" stroke="transparent" points="1.5,-1 1.5,-16 162.5,-16 162.5,-1 1.5,-1"/>
<text text-anchor="start" x="2.5" y="-5.4" font-family="Helvetica,sans-Serif" font-size="12.00" fill="#000000">cbrn:RadItemInformationType</text>
</a>
</g>
<polygon fill="#000000" stroke="#000000" points=".5,-16 .5,-16 163.5,-16 163.5,-16 .5,-16"/>
<polygon fill="none" stroke="#000000" points="0,0 0,-32 163,-32 163,0 0,0"/>
</g>
<!-- Types&#45;&gt;cbrn:RadItemDescriptionText -->
<g id="edge1" class="edge">
<title>Types:top&#45;&gt;cbrn:RadItemDescriptionText</title>
<path fill="none" stroke="#000000" d="M162.5,-24C180.9851,-24 200.6867,-24 219.6834,-24"/>
<polygon fill="#000000" stroke="#000000" points="219.8464,-27.5001 229.8464,-24 219.8464,-20.5001 219.8464,-27.5001"/>
<text text-anchor="middle" x="196.5" y="-27.4" font-family="Helvetica,sans-Serif" font-size="12.00" fill="#000000">has&#45;a</text>
</g>
</g>
</svg>
