<?xml version="1.0" encoding="UTF-8" standalone="no"?>
<!DOCTYPE svg PUBLIC "-//W3C//DTD SVG 1.1//EN"
 "http://www.w3.org/Graphics/SVG/1.1/DTD/svg11.dtd">
<!-- Generated by graphviz version 2.40.1 (20161225.0304)
 -->
<!-- Title: graphic Pages: 1 -->
<svg width="458pt" height="101pt"
 viewBox="0.00 0.00 458.00 101.00" xmlns="http://www.w3.org/2000/svg" xmlns:xlink="http://www.w3.org/1999/xlink">
<g id="graph0" class="graph" transform="scale(1 1) rotate(0) translate(4 97)">
<title>graphic</title>
<polygon fill="#ffffff" stroke="transparent" points="-4,4 -4,-97 454,-97 454,4 -4,4"/>
<!-- j:VehicleOwnershipNICBAbstract -->
<g id="node1" class="node">
<title>j:VehicleOwnershipNICBAbstract</title>
<text text-anchor="start" x="239" y="-77.4" font-family="Helvetica,sans-Serif" font-weight="bold" font-size="12.00" fill="#000000">j:VehicleOwnershipNICBAbstract</text>
<polygon fill="none" stroke="#ff0000" stroke-width="5" points="235.5,-70 235.5,-90 432.5,-90 432.5,-70 235.5,-70"/>
</g>
<!-- SubstitutableElements -->
<g id="node3" class="node">
<title>SubstitutableElements</title>
<text text-anchor="start" x="220" y="-21.4" font-family="Helvetica,sans-Serif" font-weight="bold" font-size="12.00" fill="#000000">Substitutable elements</text>
<g id="a_node3_0"><a xlink:href="../../j/VehicleOwnershipNICBText/#diagram" xlink:title="A NICB Division location in the United States, showing interest in a stolen vehicle entry." target="_top">
<polygon fill="#ebebeb" stroke="transparent" points="219,-1 219,-16 449,-16 449,-1 219,-1"/>
<text text-anchor="start" x="220" y="-5.4" font-family="Helvetica,sans-Serif" font-size="12.00" fill="#000000">j:VehicleOwnershipNICBText: nc:TextType</text>
</a>
</g>
<polygon fill="#000000" stroke="#000000" points="218,-16 218,-16 450,-16 450,-16 218,-16"/>
<polygon fill="none" stroke="#000000" points="218,0 218,-32 450,-32 450,0 218,0"/>
</g>
<!-- j:VehicleOwnershipNICBAbstract&#45;&gt;SubstitutableElements -->
<g id="edge2" class="edge">
<title>j:VehicleOwnershipNICBAbstract&#45;&gt;SubstitutableElements</title>
<path fill="none" stroke="#000000" d="M334,-57.3063C334,-48.9972 334,-39.7712 334,-32.1499"/>
<polygon fill="#000000" stroke="#000000" points="330.5001,-57.4892 334,-67.4892 337.5001,-57.4892 330.5001,-57.4892"/>
<text text-anchor="middle" x="324.5" y="-46.65" font-family="Helvetica,sans-Serif" font-size="12.00" fill="#000000">substitutable for</text>
</g>
<!-- Types -->
<g id="node2" class="node">
<title>Types</title>
<text text-anchor="start" x="2.5" y="-77.4" font-family="Helvetica,sans-Serif" font-weight="bold" font-size="12.00" fill="#000000">Types</text>
<g id="a_node2_1"><a xlink:href="../../j/VehicleAugmentationType/#diagram" xlink:title="A data type for additional information about a vehicle." target="_top">
<polygon fill="#ebebeb" stroke="transparent" points="1.5,-57 1.5,-72 150.5,-72 150.5,-57 1.5,-57"/>
<text text-anchor="start" x="2.5" y="-61.4" font-family="Helvetica,sans-Serif" font-size="12.00" fill="#000000">j:VehicleAugmentationType</text>
</a>
</g>
<polygon fill="#000000" stroke="#000000" points=".5,-72 .5,-72 151.5,-72 151.5,-72 .5,-72"/>
<polygon fill="none" stroke="#000000" points="0,-56 0,-88 151,-88 151,-56 0,-56"/>
</g>
<!-- Types&#45;&gt;j:VehicleOwnershipNICBAbstract -->
<g id="edge1" class="edge">
<title>Types:top&#45;&gt;j:VehicleOwnershipNICBAbstract</title>
<path fill="none" stroke="#000000" d="M150.5,-80C173.776,-80 198.7127,-80 222.4663,-80"/>
<polygon fill="#000000" stroke="#000000" points="222.5658,-83.5001 232.5657,-80 222.5657,-76.5001 222.5658,-83.5001"/>
<text text-anchor="middle" x="184.5" y="-83.4" font-family="Helvetica,sans-Serif" font-size="12.00" fill="#000000">has&#45;a</text>
</g>
</g>
</svg>
