<?xml version="1.0" encoding="UTF-8" standalone="no"?>
<!DOCTYPE svg PUBLIC "-//W3C//DTD SVG 1.1//EN"
 "http://www.w3.org/Graphics/SVG/1.1/DTD/svg11.dtd">
<!-- Generated by graphviz version 2.40.1 (20161225.0304)
 -->
<!-- Title: graphic Pages: 1 -->
<svg width="696pt" height="60pt"
 viewBox="0.00 0.00 696.00 59.50" xmlns="http://www.w3.org/2000/svg" xmlns:xlink="http://www.w3.org/1999/xlink">
<g id="graph0" class="graph" transform="scale(1 1) rotate(0) translate(4 55.5)">
<title>graphic</title>
<polygon fill="#ffffff" stroke="transparent" points="-4,4 -4,-55.5 692,-55.5 692,4 -4,4"/>
<!-- biom:PatternedInjuryReferenceCodeText -->
<g id="node1" class="node">
<title>biom:PatternedInjuryReferenceCodeText</title>
<text text-anchor="start" x="318" y="-35.9" font-family="Helvetica,sans-Serif" font-weight="bold" font-size="12.00" fill="#000000">biom:PatternedInjuryReferenceCodeText</text>
<polygon fill="none" stroke="#ff0000" stroke-width="5" points="314.5,-28.5 314.5,-48.5 555.5,-48.5 555.5,-28.5 314.5,-28.5"/>
</g>
<!-- nc:TextType -->
<g id="node3" class="node">
<title>nc:TextType</title>
<g id="a_node3_0"><a xlink:href="../../nc/TextType/#diagram" xlink:title="A data type for a character string." target="_top">
<text text-anchor="start" x="619.5" y="-34.9" font-family="Helvetica,sans-Serif" font-size="12.00" fill="#000000">nc:TextType</text>
</a>
</g>
<polygon fill="none" stroke="#000000" points="617,-30 617,-47 688,-47 688,-30 617,-30"/>
</g>
<!-- biom:PatternedInjuryReferenceCodeText&#45;&gt;nc:TextType -->
<g id="edge2" class="edge">
<title>biom:PatternedInjuryReferenceCodeText&#45;&gt;nc:TextType</title>
<path fill="none" stroke="#000000" d="M558.0502,-38.5C575.3757,-38.5 592.2083,-38.5 606.7478,-38.5"/>
<polygon fill="#000000" stroke="#000000" points="606.9039,-42.0001 616.9038,-38.5 606.9038,-35.0001 606.9039,-42.0001"/>
<text text-anchor="middle" x="587.5" y="-41.9" font-family="Helvetica,sans-Serif" font-size="12.00" fill="#000000">type</text>
</g>
<!-- Types -->
<g id="node2" class="node">
<title>Types</title>
<text text-anchor="start" x="2.5" y="-35.9" font-family="Helvetica,sans-Serif" font-weight="bold" font-size="12.00" fill="#000000">Types</text>
<g id="a_node2_1"><a xlink:href="../../biom/PatternedInjuryDetailType/#diagram" xlink:title="A data type definition that allows the entry of information concerning suspected patterned injuries." target="_top">
<polygon fill="#ebebeb" stroke="transparent" points="1.5,-15.5 1.5,-30.5 244.5,-30.5 244.5,-15.5 1.5,-15.5"/>
<text text-anchor="start" x="2.5" y="-19.9" font-family="Helvetica,sans-Serif" font-size="12.00" fill="#000000">biom:PatternedInjuryDetailType</text>
</a>
</g>
<g id="a_node2_2"><a xlink:href="../../biom/PatternedInjuryReferenceCodeListType/#diagram" xlink:title="A data type for a list of patterned injury reference valid codes agreed upon by exchanging parties, such as ANSI/ADA Standard No. 1077" target="_top">
<text text-anchor="start" x="2.5" y="-4.9" font-family="Helvetica,sans-Serif" font-size="12.00" fill="#000000">biom:PatternedInjuryReferenceCodeListType</text>
</a>
</g>
<polygon fill="#000000" stroke="#000000" points=".5,-30.5 .5,-30.5 245.5,-30.5 245.5,-30.5 .5,-30.5"/>
<polygon fill="none" stroke="#000000" points="0,0 0,-47 245,-47 245,0 0,0"/>
</g>
<!-- Types&#45;&gt;biom:PatternedInjuryReferenceCodeText -->
<g id="edge1" class="edge">
<title>Types:top&#45;&gt;biom:PatternedInjuryReferenceCodeText</title>
<path fill="none" stroke="#000000" d="M244.5,-38.5C263.0176,-38.5 282.5477,-38.5 301.7616,-38.5"/>
<polygon fill="#000000" stroke="#000000" points="301.7735,-42.0001 311.7734,-38.5 301.7734,-35.0001 301.7735,-42.0001"/>
<text text-anchor="middle" x="278.5" y="-41.9" font-family="Helvetica,sans-Serif" font-size="12.00" fill="#000000">has&#45;a</text>
</g>
</g>
</svg>
