<?xml version="1.0" encoding="UTF-8" standalone="no"?>
<!DOCTYPE svg PUBLIC "-//W3C//DTD SVG 1.1//EN"
 "http://www.w3.org/Graphics/SVG/1.1/DTD/svg11.dtd">
<!-- Generated by graphviz version 2.40.1 (20161225.0304)
 -->
<!-- Title: graphic Pages: 1 -->
<svg width="616pt" height="45pt"
 viewBox="0.00 0.00 616.00 45.00" xmlns="http://www.w3.org/2000/svg" xmlns:xlink="http://www.w3.org/1999/xlink">
<g id="graph0" class="graph" transform="scale(1 1) rotate(0) translate(4 41)">
<title>graphic</title>
<polygon fill="#ffffff" stroke="transparent" points="-4,4 -4,-41 612,-41 612,4 -4,4"/>
<!-- j:ParoleActionEmploymentObjectiveScoreValue -->
<g id="node1" class="node">
<title>j:ParoleActionEmploymentObjectiveScoreValue</title>
<text text-anchor="start" x="178.5" y="-21.4" font-family="Helvetica,sans-Serif" font-weight="bold" font-size="12.00" fill="#000000">j:ParoleActionEmploymentObjectiveScoreValue</text>
<polygon fill="none" stroke="#ff0000" stroke-width="5" points="174.5,-14 174.5,-34 454.5,-34 454.5,-14 174.5,-14"/>
</g>
<!-- nc:NumericType -->
<g id="node3" class="node">
<title>nc:NumericType</title>
<g id="a_node3_0"><a xlink:href="../../nc/NumericType/#diagram" xlink:title="A data type for a number value." target="_top">
<text text-anchor="start" x="518" y="-20.4" font-family="Helvetica,sans-Serif" font-size="12.00" fill="#000000">nc:NumericType</text>
</a>
</g>
<polygon fill="none" stroke="#000000" points="516,-15.5 516,-32.5 608,-32.5 608,-15.5 516,-15.5"/>
</g>
<!-- j:ParoleActionEmploymentObjectiveScoreValue&#45;&gt;nc:NumericType -->
<g id="edge2" class="edge">
<title>j:ParoleActionEmploymentObjectiveScoreValue&#45;&gt;nc:NumericType</title>
<path fill="none" stroke="#000000" d="M457.0377,-24C474.1585,-24 490.788,-24 505.5741,-24"/>
<polygon fill="#000000" stroke="#000000" points="505.9956,-27.5001 515.9955,-24 505.9955,-20.5001 505.9956,-27.5001"/>
<text text-anchor="middle" x="486.5" y="-27.4" font-family="Helvetica,sans-Serif" font-size="12.00" fill="#000000">type</text>
</g>
<!-- Types -->
<g id="node2" class="node">
<title>Types</title>
<text text-anchor="start" x="2.5" y="-21.4" font-family="Helvetica,sans-Serif" font-weight="bold" font-size="12.00" fill="#000000">Types</text>
<g id="a_node2_1"><a xlink:href="../../j/ParoleActionType/#diagram" xlink:title="A data type for an event or activity regarding a subject&#39;s parole." target="_top">
<polygon fill="#ebebeb" stroke="transparent" points="1.5,-1 1.5,-16 104.5,-16 104.5,-1 1.5,-1"/>
<text text-anchor="start" x="2.5" y="-5.4" font-family="Helvetica,sans-Serif" font-size="12.00" fill="#000000">j:ParoleActionType</text>
</a>
</g>
<polygon fill="#000000" stroke="#000000" points=".5,-16 .5,-16 105.5,-16 105.5,-16 .5,-16"/>
<polygon fill="none" stroke="#000000" points="0,0 0,-32 105,-32 105,0 0,0"/>
</g>
<!-- Types&#45;&gt;j:ParoleActionEmploymentObjectiveScoreValue -->
<g id="edge1" class="edge">
<title>Types:top&#45;&gt;j:ParoleActionEmploymentObjectiveScoreValue</title>
<path fill="none" stroke="#000000" d="M104.5,-24C123.0503,-24 142.5224,-24 161.817,-24"/>
<polygon fill="#000000" stroke="#000000" points="161.8848,-27.5001 171.8848,-24 161.8848,-20.5001 161.8848,-27.5001"/>
<text text-anchor="middle" x="138.5" y="-27.4" font-family="Helvetica,sans-Serif" font-size="12.00" fill="#000000">has&#45;a</text>
</g>
</g>
</svg>
