<?xml version="1.0" encoding="UTF-8" standalone="no"?>
<!DOCTYPE svg PUBLIC "-//W3C//DTD SVG 1.1//EN"
 "http://www.w3.org/Graphics/SVG/1.1/DTD/svg11.dtd">
<!-- Generated by graphviz version 2.40.1 (20161225.0304)
 -->
<!-- Title: graphic Pages: 1 -->
<svg width="369pt" height="86pt"
 viewBox="0.00 0.00 369.00 86.00" xmlns="http://www.w3.org/2000/svg" xmlns:xlink="http://www.w3.org/1999/xlink">
<g id="graph0" class="graph" transform="scale(1 1) rotate(0) translate(4 82)">
<title>graphic</title>
<polygon fill="#ffffff" stroke="transparent" points="-4,4 -4,-82 365,-82 365,4 -4,4"/>
<!-- j:ProgramActivityLevelOfIntensityText -->
<g id="node1" class="node">
<title>j:ProgramActivityLevelOfIntensityText</title>
<text text-anchor="start" x="6.5" y="-9.9" font-family="Helvetica,sans-Serif" font-weight="bold" font-size="12.00" fill="#000000">j:ProgramActivityLevelOfIntensityText</text>
<polygon fill="none" stroke="#ff0000" stroke-width="5" points="2.5,-2.5 2.5,-22.5 228.5,-22.5 228.5,-2.5 2.5,-2.5"/>
</g>
<!-- nc:TextType -->
<g id="node3" class="node">
<title>nc:TextType</title>
<g id="a_node3_0"><a xlink:href="../../nc/TextType/#diagram" xlink:title="A data type for a character string." target="_top">
<text text-anchor="start" x="292.5" y="-8.9" font-family="Helvetica,sans-Serif" font-size="12.00" fill="#000000">nc:TextType</text>
</a>
</g>
<polygon fill="none" stroke="#000000" points="290,-4 290,-21 361,-21 361,-4 290,-4"/>
</g>
<!-- j:ProgramActivityLevelOfIntensityText&#45;&gt;nc:TextType -->
<g id="edge2" class="edge">
<title>j:ProgramActivityLevelOfIntensityText&#45;&gt;nc:TextType</title>
<path fill="none" stroke="#000000" d="M231.2498,-12.5C248.3886,-12.5 265.1412,-12.5 279.6555,-12.5"/>
<polygon fill="#000000" stroke="#000000" points="279.8021,-16.0001 289.802,-12.5 279.802,-9.0001 279.8021,-16.0001"/>
<text text-anchor="middle" x="260.5" y="-15.9" font-family="Helvetica,sans-Serif" font-size="12.00" fill="#000000">type</text>
</g>
<!-- SubstitutionGroup -->
<g id="node2" class="node">
<title>SubstitutionGroup</title>
<g id="a_node2_1"><a xlink:href="../../j/ProgramActivityLevelOfIntensityAbstract/#diagram" xlink:title="A data concept for a kind of level of intensity related to a program activity." target="_top">
<text text-anchor="start" x="5.5" y="-65.9" font-family="Helvetica,sans-Serif" font-size="12.00" fill="#000000">j:ProgramActivityLevelOfIntensityAbstract</text>
</a>
</g>
<polygon fill="none" stroke="#000000" points="3,-61 3,-78 228,-78 228,-61 3,-61"/>
</g>
<!-- SubstitutionGroup&#45;&gt;j:ProgramActivityLevelOfIntensityText -->
<g id="edge1" class="edge">
<title>SubstitutionGroup&#45;&gt;j:ProgramActivityLevelOfIntensityText</title>
<path fill="none" stroke="#000000" d="M115.5,-50.9163C115.5,-42.4809 115.5,-32.7214 115.5,-25.1501"/>
<polygon fill="#000000" stroke="#000000" points="112.0001,-50.9472 115.5,-60.9473 119.0001,-50.9473 112.0001,-50.9472"/>
<text text-anchor="middle" x="106" y="-39.9" font-family="Helvetica,sans-Serif" font-size="12.00" fill="#000000">substitution group</text>
</g>
</g>
</svg>
