<?xml version="1.0" encoding="UTF-8" standalone="no"?>
<!DOCTYPE svg PUBLIC "-//W3C//DTD SVG 1.1//EN"
 "http://www.w3.org/Graphics/SVG/1.1/DTD/svg11.dtd">
<!-- Generated by graphviz version 2.40.1 (20161225.0304)
 -->
<!-- Title: graphic Pages: 1 -->
<svg width="533pt" height="45pt"
 viewBox="0.00 0.00 533.00 45.00" xmlns="http://www.w3.org/2000/svg" xmlns:xlink="http://www.w3.org/1999/xlink">
<g id="graph0" class="graph" transform="scale(1 1) rotate(0) translate(4 41)">
<title>graphic</title>
<polygon fill="#ffffff" stroke="transparent" points="-4,4 -4,-41 529,-41 529,4 -4,4"/>
<!-- hs:ObservationCategoryText -->
<g id="node1" class="node">
<title>hs:ObservationCategoryText</title>
<text text-anchor="start" x="224.5" y="-21.4" font-family="Helvetica,sans-Serif" font-weight="bold" font-size="12.00" fill="#000000">hs:ObservationCategoryText</text>
<polygon fill="none" stroke="#ff0000" stroke-width="5" points="220.5,-14 220.5,-34 392.5,-34 392.5,-14 220.5,-14"/>
</g>
<!-- nc:TextType -->
<g id="node3" class="node">
<title>nc:TextType</title>
<g id="a_node3_0"><a xlink:href="../../nc/TextType/#diagram" xlink:title="A data type for a character string." target="_top">
<text text-anchor="start" x="456.5" y="-20.4" font-family="Helvetica,sans-Serif" font-size="12.00" fill="#000000">nc:TextType</text>
</a>
</g>
<polygon fill="none" stroke="#000000" points="454,-15.5 454,-32.5 525,-32.5 525,-15.5 454,-15.5"/>
</g>
<!-- hs:ObservationCategoryText&#45;&gt;nc:TextType -->
<g id="edge2" class="edge">
<title>hs:ObservationCategoryText&#45;&gt;nc:TextType</title>
<path fill="none" stroke="#000000" d="M395.0517,-24C411.7901,-24 428.6603,-24 443.4184,-24"/>
<polygon fill="#000000" stroke="#000000" points="443.7593,-27.5001 453.7592,-24 443.7592,-20.5001 443.7593,-27.5001"/>
<text text-anchor="middle" x="424.5" y="-27.4" font-family="Helvetica,sans-Serif" font-size="12.00" fill="#000000">type</text>
</g>
<!-- Types -->
<g id="node2" class="node">
<title>Types</title>
<text text-anchor="start" x="2.5" y="-21.4" font-family="Helvetica,sans-Serif" font-weight="bold" font-size="12.00" fill="#000000">Types</text>
<g id="a_node2_1"><a xlink:href="../../hs/ClinicalObservationType/#diagram" xlink:title="A data type for a clinical observation of a person." target="_top">
<polygon fill="#ebebeb" stroke="transparent" points="1.5,-1 1.5,-16 150.5,-16 150.5,-1 1.5,-1"/>
<text text-anchor="start" x="2.5" y="-5.4" font-family="Helvetica,sans-Serif" font-size="12.00" fill="#000000">hs:ClinicalObservationType</text>
</a>
</g>
<polygon fill="#000000" stroke="#000000" points=".5,-16 .5,-16 151.5,-16 151.5,-16 .5,-16"/>
<polygon fill="none" stroke="#000000" points="0,0 0,-32 151,-32 151,0 0,0"/>
</g>
<!-- Types&#45;&gt;hs:ObservationCategoryText -->
<g id="edge1" class="edge">
<title>Types:top&#45;&gt;hs:ObservationCategoryText</title>
<path fill="none" stroke="#000000" d="M150.5,-24C168.9807,-24 188.6928,-24 207.667,-24"/>
<polygon fill="#000000" stroke="#000000" points="207.8144,-27.5001 217.8143,-24 207.8143,-20.5001 207.8144,-27.5001"/>
<text text-anchor="middle" x="184.5" y="-27.4" font-family="Helvetica,sans-Serif" font-size="12.00" fill="#000000">has&#45;a</text>
</g>
</g>
</svg>
