<?xml version="1.0" encoding="UTF-8" standalone="no"?>
<!DOCTYPE svg PUBLIC "-//W3C//DTD SVG 1.1//EN"
 "http://www.w3.org/Graphics/SVG/1.1/DTD/svg11.dtd">
<!-- Generated by graphviz version 2.40.1 (20161225.0304)
 -->
<!-- Title: graphic Pages: 1 -->
<svg width="462pt" height="154pt"
 viewBox="0.00 0.00 462.00 153.50" xmlns="http://www.w3.org/2000/svg" xmlns:xlink="http://www.w3.org/1999/xlink">
<g id="graph0" class="graph" transform="scale(1 1) rotate(0) translate(4 149.5)">
<title>graphic</title>
<polygon fill="#ffffff" stroke="transparent" points="-4,4 -4,-149.5 458,-149.5 458,4 -4,4"/>
<!-- hs:AttorneyStatusCodeType -->
<g id="node1" class="node">
<title>hs:AttorneyStatusCodeType</title>
<text text-anchor="start" x="242" y="-25.4" font-family="Helvetica,sans-Serif" font-weight="bold" font-size="12.00" fill="#000000">hs:AttorneyStatusCodeType</text>
<g id="a_node1_0"><a xlink:href="../../structures/SimpleObjectAttributeGroup/#diagram" xlink:title="A group of attributes that are applicable to objects, to be used when defining a complex type that is an extension of a simple type." target="_top">
<polygon fill="#ebebeb" stroke="transparent" points="241,-5 241,-20 449,-20 449,-5 241,-5"/>
<text text-anchor="start" x="242" y="-9.4" font-family="Helvetica,sans-Serif" font-size="12.00" fill="#000000">structures:SimpleObjectAttributeGroup</text>
</a>
</g>
<polygon fill="#ff0000" stroke="#ff0000" points="236,-20 236,-20 454,-20 454,-20 236,-20"/>
<polygon fill="none" stroke="#ff0000" stroke-width="5" points="238.5,-2.5 238.5,-37.5 451.5,-37.5 451.5,-2.5 238.5,-2.5"/>
</g>
<!-- Properties -->
<g id="node2" class="node">
<title>Properties</title>
<text text-anchor="start" x="2.5" y="-25.4" font-family="Helvetica,sans-Serif" font-weight="bold" font-size="12.00" fill="#000000">Properties</text>
<g id="a_node2_1"><a xlink:href="../../hs/AttorneyStatusCategoryCode/#diagram" xlink:title="A code list describing the role of an attorney as it relates to their client." target="_top">
<polygon fill="#ebebeb" stroke="transparent" points="1.5,-5 1.5,-20 176.5,-20 176.5,-5 1.5,-5"/>
<text text-anchor="start" x="2.5" y="-9.4" font-family="Helvetica,sans-Serif" font-size="12.00" fill="#000000">hs:AttorneyStatusCategoryCode</text>
</a>
</g>
<polygon fill="#000000" stroke="#000000" points=".5,-20 .5,-20 177.5,-20 177.5,-20 .5,-20"/>
<polygon fill="none" stroke="#000000" points="0,-4 0,-36 177,-36 177,-4 0,-4"/>
</g>
<!-- Properties&#45;&gt;hs:AttorneyStatusCodeType -->
<g id="edge1" class="edge">
<title>Properties:top&#45;&gt;hs:AttorneyStatusCodeType:top</title>
<path fill="none" stroke="#000000" d="M176.5,-28C201.4714,-28 210.1284,-28 230.8937,-28"/>
<polygon fill="#000000" stroke="#000000" points="231,-31.5001 241,-28 231,-24.5001 231,-31.5001"/>
<text text-anchor="middle" x="206.5" y="-31.4" font-family="Helvetica,sans-Serif" font-size="12.00" fill="#000000">type</text>
</g>
<!-- hs:AttorneyStatusCodeSimpleType -->
<g id="node3" class="node">
<title>hs:AttorneyStatusCodeSimpleType</title>
<g id="a_node3_2"><a xlink:href="../../hs/AttorneyStatusCodeSimpleType/#diagram" xlink:title="A data type for describing the role of an attorney as it relates to their client." target="_top">
<text text-anchor="start" x="252" y="-80.4" font-family="Helvetica,sans-Serif" font-size="12.00" fill="#000000">hs:AttorneyStatusCodeSimpleType</text>
</a>
</g>
<polygon fill="none" stroke="#000000" points="249.5,-75.5 249.5,-92.5 440.5,-92.5 440.5,-75.5 249.5,-75.5"/>
</g>
<!-- hs:AttorneyStatusCodeSimpleType&#45;&gt;hs:AttorneyStatusCodeType -->
<g id="edge2" class="edge">
<title>hs:AttorneyStatusCodeSimpleType&#45;&gt;hs:AttorneyStatusCodeType</title>
<path fill="none" stroke="#000000" d="M345,-75.4351C345,-68.931 345,-59.5678 345,-50.3827"/>
<polygon fill="#000000" stroke="#000000" points="348.5001,-50.25 345,-40.25 341.5001,-50.25 348.5001,-50.25"/>
<text text-anchor="middle" x="335.5" y="-54.65" font-family="Helvetica,sans-Serif" font-size="12.00" fill="#000000">extension</text>
</g>
<!-- xs:token -->
<g id="node4" class="node">
<title>xs:token</title>
<g id="a_node4_3"><a xlink:href="../../xs/token/#diagram" xlink:title="&lt;TABLE&gt;" target="_top">
<text text-anchor="start" x="323" y="-133.4" font-family="Helvetica,sans-Serif" font-size="12.00" fill="#000000">xs:token</text>
</a>
</g>
<polygon fill="none" stroke="#000000" points="320.5,-128.5 320.5,-145.5 369.5,-145.5 369.5,-128.5 320.5,-128.5"/>
</g>
<!-- xs:token&#45;&gt;hs:AttorneyStatusCodeSimpleType -->
<g id="edge3" class="edge">
<title>xs:token&#45;&gt;hs:AttorneyStatusCodeSimpleType</title>
<path fill="none" stroke="#000000" d="M345,-128.411C345,-121.5124 345,-111.5696 345,-102.84"/>
<polygon fill="#000000" stroke="#000000" points="348.5001,-102.7518 345,-92.7519 341.5001,-102.7519 348.5001,-102.7518"/>
<text text-anchor="middle" x="335.5" y="-107.4" font-family="Helvetica,sans-Serif" font-size="12.00" fill="#000000">restriction</text>
</g>
</g>
</svg>
