<?xml version="1.0" encoding="UTF-8" standalone="no"?>
<!DOCTYPE svg PUBLIC "-//W3C//DTD SVG 1.1//EN"
 "http://www.w3.org/Graphics/SVG/1.1/DTD/svg11.dtd">
<!-- Generated by graphviz version 2.40.1 (20161225.0304)
 -->
<!-- Title: graphic Pages: 1 -->
<svg width="499pt" height="45pt"
 viewBox="0.00 0.00 499.00 45.00" xmlns="http://www.w3.org/2000/svg" xmlns:xlink="http://www.w3.org/1999/xlink">
<g id="graph0" class="graph" transform="scale(1 1) rotate(0) translate(4 41)">
<title>graphic</title>
<polygon fill="#ffffff" stroke="transparent" points="-4,4 -4,-41 495,-41 495,4 -4,4"/>
<!-- nc:MedicalConditionText -->
<g id="node1" class="node">
<title>nc:MedicalConditionText</title>
<text text-anchor="start" x="212.5" y="-21.4" font-family="Helvetica,sans-Serif" font-weight="bold" font-size="12.00" fill="#000000">nc:MedicalConditionText</text>
<polygon fill="none" stroke="#ff0000" stroke-width="5" points="208.5,-14 208.5,-34 358.5,-34 358.5,-14 208.5,-14"/>
</g>
<!-- nc:TextType -->
<g id="node3" class="node">
<title>nc:TextType</title>
<g id="a_node3_0"><a xlink:href="../../nc/TextType/#diagram" xlink:title="A data type for a character string." target="_top">
<text text-anchor="start" x="422.5" y="-20.4" font-family="Helvetica,sans-Serif" font-size="12.00" fill="#000000">nc:TextType</text>
</a>
</g>
<polygon fill="none" stroke="#000000" points="420,-15.5 420,-32.5 491,-32.5 491,-15.5 420,-15.5"/>
</g>
<!-- nc:MedicalConditionText&#45;&gt;nc:TextType -->
<g id="edge2" class="edge">
<title>nc:MedicalConditionText&#45;&gt;nc:TextType</title>
<path fill="none" stroke="#000000" d="M361.1971,-24C377.6738,-24 394.5609,-24 409.4087,-24"/>
<polygon fill="#000000" stroke="#000000" points="409.8248,-27.5001 419.8248,-24 409.8248,-20.5001 409.8248,-27.5001"/>
<text text-anchor="middle" x="390.5" y="-27.4" font-family="Helvetica,sans-Serif" font-size="12.00" fill="#000000">type</text>
</g>
<!-- Types -->
<g id="node2" class="node">
<title>Types</title>
<text text-anchor="start" x="2.5" y="-21.4" font-family="Helvetica,sans-Serif" font-weight="bold" font-size="12.00" fill="#000000">Types</text>
<g id="a_node2_1"><a xlink:href="../../nc/MedicalConditionType/#diagram" xlink:title="A data type for a state of health, on&#45;going or present." target="_top">
<polygon fill="#ebebeb" stroke="transparent" points="1.5,-1 1.5,-16 138.5,-16 138.5,-1 1.5,-1"/>
<text text-anchor="start" x="2.5" y="-5.4" font-family="Helvetica,sans-Serif" font-size="12.00" fill="#000000">nc:MedicalConditionType</text>
</a>
</g>
<polygon fill="#000000" stroke="#000000" points=".5,-16 .5,-16 139.5,-16 139.5,-16 .5,-16"/>
<polygon fill="none" stroke="#000000" points="0,0 0,-32 139,-32 139,0 0,0"/>
</g>
<!-- Types&#45;&gt;nc:MedicalConditionText -->
<g id="edge1" class="edge">
<title>Types:top&#45;&gt;nc:MedicalConditionText</title>
<path fill="none" stroke="#000000" d="M138.5,-24C157.0646,-24 176.9661,-24 195.8937,-24"/>
<polygon fill="#000000" stroke="#000000" points="195.9912,-27.5001 205.9912,-24 195.9911,-20.5001 195.9912,-27.5001"/>
<text text-anchor="middle" x="172.5" y="-27.4" font-family="Helvetica,sans-Serif" font-size="12.00" fill="#000000">has&#45;a</text>
</g>
</g>
</svg>
