<?xml version="1.0" encoding="UTF-8" standalone="no"?>
<!DOCTYPE svg PUBLIC "-//W3C//DTD SVG 1.1//EN"
 "http://www.w3.org/Graphics/SVG/1.1/DTD/svg11.dtd">
<!-- Generated by graphviz version 2.40.1 (20161225.0304)
 -->
<!-- Title: graphic Pages: 1 -->
<svg width="576pt" height="45pt"
 viewBox="0.00 0.00 576.00 45.00" xmlns="http://www.w3.org/2000/svg" xmlns:xlink="http://www.w3.org/1999/xlink">
<g id="graph0" class="graph" transform="scale(1 1) rotate(0) translate(4 41)">
<title>graphic</title>
<polygon fill="#ffffff" stroke="transparent" points="-4,4 -4,-41 572,-41 572,4 -4,4"/>
<!-- mo:MILSTD2525&#45;B&#45;SIDC&#45;Code -->
<g id="node1" class="node">
<title>mo:MILSTD2525&#45;B&#45;SIDC&#45;Code</title>
<text text-anchor="start" x="159.5" y="-21.4" font-family="Helvetica,sans-Serif" font-weight="bold" font-size="12.00" fill="#000000">mo:MILSTD2525&#45;B&#45;SIDC&#45;Code</text>
<polygon fill="none" stroke="#ff0000" stroke-width="5" points="155.5,-14 155.5,-34 335.5,-34 335.5,-14 155.5,-14"/>
</g>
<!-- mo:MILSTD2525&#45;B&#45;SIDC&#45;Type -->
<g id="node3" class="node">
<title>mo:MILSTD2525&#45;B&#45;SIDC&#45;Type</title>
<g id="a_node3_0"><a xlink:href="../../mo/MILSTD2525-B-SIDC-Type/#diagram" xlink:title="A data type for a symbol identification code, an alphanumeric code based on a database structure that provides the minimum elements required to construct the basic icon and/or a complete symbol. Also called SIDC." target="_top">
<text text-anchor="start" x="399.5" y="-20.4" font-family="Helvetica,sans-Serif" font-size="12.00" fill="#000000">mo:MILSTD2525&#45;B&#45;SIDC&#45;Type</text>
</a>
</g>
<polygon fill="none" stroke="#000000" points="397,-15.5 397,-32.5 568,-32.5 568,-15.5 397,-15.5"/>
</g>
<!-- mo:MILSTD2525&#45;B&#45;SIDC&#45;Code&#45;&gt;mo:MILSTD2525&#45;B&#45;SIDC&#45;Type -->
<g id="edge2" class="edge">
<title>mo:MILSTD2525&#45;B&#45;SIDC&#45;Code&#45;&gt;mo:MILSTD2525&#45;B&#45;SIDC&#45;Type</title>
<path fill="none" stroke="#000000" d="M338.1486,-24C354.017,-24 370.5355,-24 386.4894,-24"/>
<polygon fill="#000000" stroke="#000000" points="386.8794,-27.5001 396.8793,-24 386.8793,-20.5001 386.8794,-27.5001"/>
<text text-anchor="middle" x="367.5" y="-27.4" font-family="Helvetica,sans-Serif" font-size="12.00" fill="#000000">type</text>
</g>
<!-- Types -->
<g id="node2" class="node">
<title>Types</title>
<text text-anchor="start" x="2" y="-21.4" font-family="Helvetica,sans-Serif" font-weight="bold" font-size="12.00" fill="#000000">Types</text>
<g id="a_node2_1"><a xlink:href="../../mo/TargetType/#diagram" xlink:title="A data type for a role of an entity or object considered for possible engagement or other action." target="_top">
<polygon fill="#ebebeb" stroke="transparent" points="1,-1 1,-16 85,-16 85,-1 1,-1"/>
<text text-anchor="start" x="2" y="-5.4" font-family="Helvetica,sans-Serif" font-size="12.00" fill="#000000">mo:TargetType</text>
</a>
</g>
<polygon fill="#000000" stroke="#000000" points="0,-16 0,-16 86,-16 86,-16 0,-16"/>
<polygon fill="none" stroke="#000000" points="0,0 0,-32 86,-32 86,0 0,0"/>
</g>
<!-- Types&#45;&gt;mo:MILSTD2525&#45;B&#45;SIDC&#45;Code -->
<g id="edge1" class="edge">
<title>Types:top&#45;&gt;mo:MILSTD2525&#45;B&#45;SIDC&#45;Code</title>
<path fill="none" stroke="#000000" d="M85,-24C103.7455,-24 123.7224,-24 142.9892,-24"/>
<polygon fill="#000000" stroke="#000000" points="142.9895,-27.5001 152.9894,-24 142.9894,-20.5001 142.9895,-27.5001"/>
<text text-anchor="middle" x="119.5" y="-27.4" font-family="Helvetica,sans-Serif" font-size="12.00" fill="#000000">has&#45;a</text>
</g>
</g>
</svg>
