<?xml version="1.0" encoding="UTF-8" standalone="no"?>
<!DOCTYPE svg PUBLIC "-//W3C//DTD SVG 1.1//EN"
 "http://www.w3.org/Graphics/SVG/1.1/DTD/svg11.dtd">
<!-- Generated by graphviz version 2.40.1 (20161225.0304)
 -->
<!-- Title: graphic Pages: 1 -->
<svg width="680pt" height="45pt"
 viewBox="0.00 0.00 680.00 45.00" xmlns="http://www.w3.org/2000/svg" xmlns:xlink="http://www.w3.org/1999/xlink">
<g id="graph0" class="graph" transform="scale(1 1) rotate(0) translate(4 41)">
<title>graphic</title>
<polygon fill="#ffffff" stroke="transparent" points="-4,4 -4,-41 676,-41 676,4 -4,4"/>
<!-- cbrn:AnalysisResultStatusCode -->
<g id="node1" class="node">
<title>cbrn:AnalysisResultStatusCode</title>
<text text-anchor="start" x="216.5" y="-21.4" font-family="Helvetica,sans-Serif" font-weight="bold" font-size="12.00" fill="#000000">cbrn:AnalysisResultStatusCode</text>
<polygon fill="none" stroke="#ff0000" stroke-width="5" points="212.5,-14 212.5,-34 402.5,-34 402.5,-14 212.5,-14"/>
</g>
<!-- cbrncl:AnalysisResultStatusCodeType -->
<g id="node3" class="node">
<title>cbrncl:AnalysisResultStatusCodeType</title>
<g id="a_node3_0"><a xlink:href="../../cbrncl/AnalysisResultStatusCodeType/#diagram" xlink:title="A data type for the status states of the analysis of a measurement or measurement group." target="_top">
<text text-anchor="start" x="466" y="-20.4" font-family="Helvetica,sans-Serif" font-size="12.00" fill="#000000">cbrncl:AnalysisResultStatusCodeType</text>
</a>
</g>
<polygon fill="none" stroke="#000000" points="464,-15.5 464,-32.5 672,-32.5 672,-15.5 464,-15.5"/>
</g>
<!-- cbrn:AnalysisResultStatusCode&#45;&gt;cbrncl:AnalysisResultStatusCodeType -->
<g id="edge2" class="edge">
<title>cbrn:AnalysisResultStatusCode&#45;&gt;cbrncl:AnalysisResultStatusCodeType</title>
<path fill="none" stroke="#000000" d="M405.2417,-24C420.8744,-24 437.1745,-24 453.1605,-24"/>
<polygon fill="#000000" stroke="#000000" points="453.6101,-27.5001 463.6101,-24 453.6101,-20.5001 453.6101,-27.5001"/>
<text text-anchor="middle" x="434.5" y="-27.4" font-family="Helvetica,sans-Serif" font-size="12.00" fill="#000000">type</text>
</g>
<!-- Types -->
<g id="node2" class="node">
<title>Types</title>
<text text-anchor="start" x="2.5" y="-21.4" font-family="Helvetica,sans-Serif" font-weight="bold" font-size="12.00" fill="#000000">Types</text>
<g id="a_node2_1"><a xlink:href="../../cbrn/AnalysisResultsType/#diagram" xlink:title="A data type to provide information on the results of a radiation data analysis." target="_top">
<polygon fill="#ebebeb" stroke="transparent" points="1.5,-1 1.5,-16 142.5,-16 142.5,-1 1.5,-1"/>
<text text-anchor="start" x="2.5" y="-5.4" font-family="Helvetica,sans-Serif" font-size="12.00" fill="#000000">cbrn:AnalysisResultsType</text>
</a>
</g>
<polygon fill="#000000" stroke="#000000" points=".5,-16 .5,-16 143.5,-16 143.5,-16 .5,-16"/>
<polygon fill="none" stroke="#000000" points="0,0 0,-32 143,-32 143,0 0,0"/>
</g>
<!-- Types&#45;&gt;cbrn:AnalysisResultStatusCode -->
<g id="edge1" class="edge">
<title>Types:top&#45;&gt;cbrn:AnalysisResultStatusCode</title>
<path fill="none" stroke="#000000" d="M142.5,-24C160.9542,-24 180.5694,-24 199.5926,-24"/>
<polygon fill="#000000" stroke="#000000" points="199.7818,-27.5001 209.7818,-24 199.7817,-20.5001 199.7818,-27.5001"/>
<text text-anchor="middle" x="176.5" y="-27.4" font-family="Helvetica,sans-Serif" font-size="12.00" fill="#000000">has&#45;a</text>
</g>
</g>
</svg>
