<?xml version="1.0" encoding="UTF-8" standalone="no"?>
<!DOCTYPE svg PUBLIC "-//W3C//DTD SVG 1.1//EN"
 "http://www.w3.org/Graphics/SVG/1.1/DTD/svg11.dtd">
<!-- Generated by graphviz version 2.40.1 (20161225.0304)
 -->
<!-- Title: graphic Pages: 1 -->
<svg width="439pt" height="154pt"
 viewBox="0.00 0.00 439.00 153.50" xmlns="http://www.w3.org/2000/svg" xmlns:xlink="http://www.w3.org/1999/xlink">
<g id="graph0" class="graph" transform="scale(1 1) rotate(0) translate(4 149.5)">
<title>graphic</title>
<polygon fill="#ffffff" stroke="transparent" points="-4,4 -4,-149.5 435,-149.5 435,4 -4,4"/>
<!-- mo:SixAlphaNumericIDType -->
<g id="node1" class="node">
<title>mo:SixAlphaNumericIDType</title>
<text text-anchor="start" x="219" y="-25.4" font-family="Helvetica,sans-Serif" font-weight="bold" font-size="12.00" fill="#000000">mo:SixAlphaNumericIDType</text>
<g id="a_node1_0"><a xlink:href="../../structures/SimpleObjectAttributeGroup/#diagram" xlink:title="A group of attributes that are applicable to objects, to be used when defining a complex type that is an extension of a simple type." target="_top">
<polygon fill="#ebebeb" stroke="transparent" points="218,-5 218,-20 426,-20 426,-5 218,-5"/>
<text text-anchor="start" x="219" y="-9.4" font-family="Helvetica,sans-Serif" font-size="12.00" fill="#000000">structures:SimpleObjectAttributeGroup</text>
</a>
</g>
<polygon fill="#ff0000" stroke="#ff0000" points="213,-20 213,-20 431,-20 431,-20 213,-20"/>
<polygon fill="none" stroke="#ff0000" stroke-width="5" points="215.5,-2.5 215.5,-37.5 428.5,-37.5 428.5,-2.5 215.5,-2.5"/>
</g>
<!-- Properties -->
<g id="node2" class="node">
<title>Properties</title>
<text text-anchor="start" x="2" y="-25.4" font-family="Helvetica,sans-Serif" font-weight="bold" font-size="12.00" fill="#000000">Properties</text>
<g id="a_node2_1"><a xlink:href="../../mo/UnitIdentificationCodeID/#diagram" xlink:title="An identifier with a six&#45;character, alphanumeric code that uniquely identifies each Active, Reserve, and National Guard unit of the Armed Forces. Also called UIC." target="_top">
<polygon fill="#ebebeb" stroke="transparent" points="1,-5 1,-20 153,-20 153,-5 1,-5"/>
<text text-anchor="start" x="2" y="-9.4" font-family="Helvetica,sans-Serif" font-size="12.00" fill="#000000">mo:UnitIdentificationCodeID</text>
</a>
</g>
<polygon fill="#000000" stroke="#000000" points="0,-20 0,-20 154,-20 154,-20 0,-20"/>
<polygon fill="none" stroke="#000000" points="0,-4 0,-36 154,-36 154,-4 0,-4"/>
</g>
<!-- Properties&#45;&gt;mo:SixAlphaNumericIDType -->
<g id="edge1" class="edge">
<title>Properties:top&#45;&gt;mo:SixAlphaNumericIDType:top</title>
<path fill="none" stroke="#000000" d="M153,-28C178.1649,-28 186.8891,-28 207.8154,-28"/>
<polygon fill="#000000" stroke="#000000" points="208,-31.5001 218,-28 208,-24.5001 208,-31.5001"/>
<text text-anchor="middle" x="183.5" y="-31.4" font-family="Helvetica,sans-Serif" font-size="12.00" fill="#000000">type</text>
</g>
<!-- mo:UnitLineNumberIDSimpleType -->
<g id="node3" class="node">
<title>mo:UnitLineNumberIDSimpleType</title>
<g id="a_node3_2"><a xlink:href="../../mo/UnitLineNumberIDSimpleType/#diagram" xlink:title="A data type for a seven&#45;character alphanumeric code that describes a unique increment of a unit deployment, i.e., advance party, main body, equipment by sea and air, reception team, or trail party, in the time&#45;phased force and deployment data. Also called ULN. (JP 3&#45;35)" target="_top">
<text text-anchor="start" x="231" y="-80.4" font-family="Helvetica,sans-Serif" font-size="12.00" fill="#000000">mo:UnitLineNumberIDSimpleType</text>
</a>
</g>
<polygon fill="none" stroke="#000000" points="228.5,-75.5 228.5,-92.5 415.5,-92.5 415.5,-75.5 228.5,-75.5"/>
</g>
<!-- mo:UnitLineNumberIDSimpleType&#45;&gt;mo:SixAlphaNumericIDType -->
<g id="edge2" class="edge">
<title>mo:UnitLineNumberIDSimpleType&#45;&gt;mo:SixAlphaNumericIDType</title>
<path fill="none" stroke="#000000" d="M322,-75.4351C322,-68.931 322,-59.5678 322,-50.3827"/>
<polygon fill="#000000" stroke="#000000" points="325.5001,-50.25 322,-40.25 318.5001,-50.25 325.5001,-50.25"/>
<text text-anchor="middle" x="312.5" y="-54.65" font-family="Helvetica,sans-Serif" font-size="12.00" fill="#000000">extension</text>
</g>
<!-- xs:string -->
<g id="node4" class="node">
<title>xs:string</title>
<g id="a_node4_3"><a xlink:href="../../xs/string/#diagram" xlink:title="&lt;TABLE&gt;" target="_top">
<text text-anchor="start" x="300" y="-133.4" font-family="Helvetica,sans-Serif" font-size="12.00" fill="#000000">xs:string</text>
</a>
</g>
<polygon fill="none" stroke="#000000" points="297.5,-128.5 297.5,-145.5 346.5,-145.5 346.5,-128.5 297.5,-128.5"/>
</g>
<!-- xs:string&#45;&gt;mo:UnitLineNumberIDSimpleType -->
<g id="edge3" class="edge">
<title>xs:string&#45;&gt;mo:UnitLineNumberIDSimpleType</title>
<path fill="none" stroke="#000000" d="M322,-128.411C322,-121.5124 322,-111.5696 322,-102.84"/>
<polygon fill="#000000" stroke="#000000" points="325.5001,-102.7518 322,-92.7519 318.5001,-102.7519 325.5001,-102.7518"/>
<text text-anchor="middle" x="312.5" y="-107.4" font-family="Helvetica,sans-Serif" font-size="12.00" fill="#000000">restriction</text>
</g>
</g>
</svg>
