<?xml version="1.0" encoding="UTF-8" standalone="no"?>
<!DOCTYPE svg PUBLIC "-//W3C//DTD SVG 1.1//EN"
 "http://www.w3.org/Graphics/SVG/1.1/DTD/svg11.dtd">
<!-- Generated by graphviz version 2.40.1 (20161225.0304)
 -->
<!-- Title: graphic Pages: 1 -->
<svg width="546pt" height="45pt"
 viewBox="0.00 0.00 546.00 45.00" xmlns="http://www.w3.org/2000/svg" xmlns:xlink="http://www.w3.org/1999/xlink">
<g id="graph0" class="graph" transform="scale(1 1) rotate(0) translate(4 41)">
<title>graphic</title>
<polygon fill="#ffffff" stroke="transparent" points="-4,4 -4,-41 542,-41 542,4 -4,4"/>
<!-- hs:TreatmentProgress -->
<g id="node1" class="node">
<title>hs:TreatmentProgress</title>
<text text-anchor="start" x="249.5" y="-21.4" font-family="Helvetica,sans-Serif" font-weight="bold" font-size="12.00" fill="#000000">hs:TreatmentProgress</text>
<polygon fill="none" stroke="#ff0000" stroke-width="5" points="245.5,-14 245.5,-34 381.5,-34 381.5,-14 245.5,-14"/>
</g>
<!-- nc:ProgressType -->
<g id="node3" class="node">
<title>nc:ProgressType</title>
<g id="a_node3_0"><a xlink:href="../../nc/ProgressType/#diagram" xlink:title="A data type for a set of changes or advancements which bring someone closer to completing something." target="_top">
<text text-anchor="start" x="445.5" y="-20.4" font-family="Helvetica,sans-Serif" font-size="12.00" fill="#000000">nc:ProgressType</text>
</a>
</g>
<polygon fill="none" stroke="#000000" points="443,-15.5 443,-32.5 538,-32.5 538,-15.5 443,-15.5"/>
</g>
<!-- hs:TreatmentProgress&#45;&gt;nc:ProgressType -->
<g id="edge2" class="edge">
<title>hs:TreatmentProgress&#45;&gt;nc:ProgressType</title>
<path fill="none" stroke="#000000" d="M384.2182,-24C400.2568,-24 417.1081,-24 432.5459,-24"/>
<polygon fill="#000000" stroke="#000000" points="432.9805,-27.5001 442.9804,-24 432.9804,-20.5001 432.9805,-27.5001"/>
<text text-anchor="middle" x="413.5" y="-27.4" font-family="Helvetica,sans-Serif" font-size="12.00" fill="#000000">type</text>
</g>
<!-- Types -->
<g id="node2" class="node">
<title>Types</title>
<text text-anchor="start" x="2" y="-21.4" font-family="Helvetica,sans-Serif" font-weight="bold" font-size="12.00" fill="#000000">Types</text>
<g id="a_node2_1"><a xlink:href="../../hs/TreatmentAugmentationType/#diagram" xlink:title="A data type for additional information about a treatment." target="_top">
<polygon fill="#ebebeb" stroke="transparent" points="1,-1 1,-16 175,-16 175,-1 1,-1"/>
<text text-anchor="start" x="2" y="-5.4" font-family="Helvetica,sans-Serif" font-size="12.00" fill="#000000">hs:TreatmentAugmentationType</text>
</a>
</g>
<polygon fill="#000000" stroke="#000000" points="0,-16 0,-16 176,-16 176,-16 0,-16"/>
<polygon fill="none" stroke="#000000" points="0,0 0,-32 176,-32 176,0 0,0"/>
</g>
<!-- Types&#45;&gt;hs:TreatmentProgress -->
<g id="edge1" class="edge">
<title>Types:top&#45;&gt;hs:TreatmentProgress</title>
<path fill="none" stroke="#000000" d="M175,-24C193.6495,-24 213.7116,-24 232.6185,-24"/>
<polygon fill="#000000" stroke="#000000" points="232.6857,-27.5001 242.6857,-24 232.6857,-20.5001 232.6857,-27.5001"/>
<text text-anchor="middle" x="209.5" y="-27.4" font-family="Helvetica,sans-Serif" font-size="12.00" fill="#000000">has&#45;a</text>
</g>
</g>
</svg>
