<?xml version="1.0" encoding="UTF-8" standalone="no"?>
<!DOCTYPE svg PUBLIC "-//W3C//DTD SVG 1.1//EN"
 "http://www.w3.org/Graphics/SVG/1.1/DTD/svg11.dtd">
<!-- Generated by graphviz version 2.40.1 (20161225.0304)
 -->
<!-- Title: graphic Pages: 1 -->
<svg width="1005pt" height="131pt"
 viewBox="0.00 0.00 1005.00 130.50" xmlns="http://www.w3.org/2000/svg" xmlns:xlink="http://www.w3.org/1999/xlink">
<g id="graph0" class="graph" transform="scale(1 1) rotate(0) translate(4 126.5)">
<title>graphic</title>
<polygon fill="#ffffff" stroke="transparent" points="-4,4 -4,-126.5 1001,-126.5 1001,4 -4,4"/>
<!-- scr:PersonEncounterCategoryType -->
<g id="node1" class="node">
<title>scr:PersonEncounterCategoryType</title>
<text text-anchor="start" x="230.5" y="-55.4" font-family="Helvetica,sans-Serif" font-weight="bold" font-size="12.00" fill="#000000">scr:PersonEncounterCategoryType</text>
<g id="a_node1_0"><a xlink:href="../../scr/PersonEncounterCategoryDescriptionText/#diagram" xlink:title="A description of a kind of person encounter." target="_top">
<polygon fill="#ebebeb" stroke="transparent" points="229.5,-35 229.5,-50 576.5,-50 576.5,-35 229.5,-35"/>
<text text-anchor="start" x="230.5" y="-39.4" font-family="Helvetica,sans-Serif" font-size="12.00" fill="#000000">scr:PersonEncounterCategoryDescriptionText: nc:TextType [0&#45;n]</text>
</a>
</g>
<g id="a_node1_1"><a xlink:href="../../scr/PersonEncounterCategoryCodeAbstract/#diagram" xlink:title="A data concept for a kind of person encounter." target="_top">
<text text-anchor="start" x="230.5" y="-24.4" font-family="Helvetica,sans-Serif" font-size="12.00" fill="#000000">scr:PersonEncounterCategoryCodeAbstract [0&#45;n]</text>
</a>
</g>
<g id="a_node1_2"><a xlink:href="../../scr/PersonEncounterCategoryAugmentationPoint/#diagram" xlink:title="An augmentation point for PersonEncounterCategoryType." target="_top">
<polygon fill="#ebebeb" stroke="transparent" points="229.5,-5 229.5,-20 576.5,-20 576.5,-5 229.5,-5"/>
<text text-anchor="start" x="230.5" y="-9.4" font-family="Helvetica,sans-Serif" font-size="12.00" fill="#000000">scr:PersonEncounterCategoryAugmentationPoint [0&#45;n]</text>
</a>
</g>
<polygon fill="#ff0000" stroke="#ff0000" points="224.5,-50 224.5,-50 581.5,-50 581.5,-50 224.5,-50"/>
<polygon fill="none" stroke="#ff0000" stroke-width="5" points="226.5,-2.5 226.5,-67.5 578.5,-67.5 578.5,-2.5 226.5,-2.5"/>
</g>
<!-- subst_d9e38804 -->
<g id="node2" class="node">
<title>subst_d9e38804</title>
<g id="a_node2_3"><a xlink:href="../../scr/PersonEncounterCategoryCodeAbstract/#diagram" xlink:title="&lt;TABLE&gt;" target="_top">
<text text-anchor="start" x="620.5" y="-24.4" font-family="Helvetica,sans-Serif" font-weight="bold" font-size="12.00" fill="#000000">Substitution group scr:PersonEncounterCategoryCodeAbstract</text>
</a>
</g>
<g id="a_node2_4"><a xlink:href="../../scr/PersonEncounterCategoryCode/#diagram" xlink:title="A kind of person encounter." target="_top">
<polygon fill="#ebebeb" stroke="transparent" points="619.5,-4 619.5,-19 996.5,-19 996.5,-4 619.5,-4"/>
<text text-anchor="start" x="620.5" y="-8.4" font-family="Helvetica,sans-Serif" font-size="12.00" fill="#000000">scr:PersonEncounterCategoryCode: scr:EncounterCategoryCodeType</text>
</a>
</g>
<polygon fill="#000000" stroke="#000000" points="618.5,-19 618.5,-19 997.5,-19 997.5,-19 618.5,-19"/>
<polygon fill="none" stroke="#000000" points="618,-3 618,-35 997,-35 997,-3 618,-3"/>
</g>
<!-- scr:PersonEncounterCategoryType&#45;&gt;subst_d9e38804 -->
<g id="edge1" class="edge">
<title>scr:PersonEncounterCategoryType:e&#45;&gt;subst_d9e38804:w</title>
<path fill="none" stroke="#000000" d="M586.6119,-27C598.1435,-27 604.2708,-27 619.5,-27"/>
<polygon fill="#000000" stroke="#000000" points="586.5,-23.5001 576.5,-27 586.5,-30.5001 586.5,-23.5001"/>
</g>
<!-- Properties -->
<g id="node3" class="node">
<title>Properties</title>
<text text-anchor="start" x="2.5" y="-55.4" font-family="Helvetica,sans-Serif" font-weight="bold" font-size="12.00" fill="#000000">Properties</text>
<g id="a_node3_5"><a xlink:href="../../scr/PersonEncounterCategory/#diagram" xlink:title="A kind of person encounter." target="_top">
<polygon fill="#ebebeb" stroke="transparent" points="1.5,-35 1.5,-50 164.5,-50 164.5,-35 1.5,-35"/>
<text text-anchor="start" x="2.5" y="-39.4" font-family="Helvetica,sans-Serif" font-size="12.00" fill="#000000">scr:PersonEncounterCategory</text>
</a>
</g>
<polygon fill="#000000" stroke="#000000" points=".5,-50 .5,-50 165.5,-50 165.5,-50 .5,-50"/>
<polygon fill="none" stroke="#000000" points="0,-34 0,-66 165,-66 165,-34 0,-34"/>
</g>
<!-- Properties&#45;&gt;scr:PersonEncounterCategoryType -->
<g id="edge2" class="edge">
<title>Properties:top&#45;&gt;scr:PersonEncounterCategoryType:top</title>
<path fill="none" stroke="#000000" d="M164.5,-58C189.6649,-58 198.3891,-58 219.3154,-58"/>
<polygon fill="#000000" stroke="#000000" points="219.5,-61.5001 229.5,-58 219.5,-54.5001 219.5,-61.5001"/>
<text text-anchor="middle" x="194.5" y="-61.4" font-family="Helvetica,sans-Serif" font-size="12.00" fill="#000000">type</text>
</g>
<!-- structures:ObjectType -->
<g id="node4" class="node">
<title>structures:ObjectType</title>
<g id="a_node4_6"><a xlink:href="../../structures/ObjectType/#diagram" xlink:title="A data type for a thing with its own lifespan that has some existence." target="_top">
<text text-anchor="start" x="343.5" y="-110.4" font-family="Helvetica,sans-Serif" font-size="12.00" fill="#000000">structures:ObjectType</text>
</a>
</g>
<polygon fill="none" stroke="#000000" points="341.5,-105.5 341.5,-122.5 463.5,-122.5 463.5,-105.5 341.5,-105.5"/>
</g>
<!-- structures:ObjectType&#45;&gt;scr:PersonEncounterCategoryType -->
<g id="edge3" class="edge">
<title>structures:ObjectType&#45;&gt;scr:PersonEncounterCategoryType</title>
<path fill="none" stroke="#000000" d="M402.5,-105.4117C402.5,-99.1025 402.5,-89.9911 402.5,-80.4049"/>
<polygon fill="#000000" stroke="#000000" points="406.0001,-80.3408 402.5,-70.3408 399.0001,-80.3409 406.0001,-80.3408"/>
<text text-anchor="middle" x="393" y="-84.65" font-family="Helvetica,sans-Serif" font-size="12.00" fill="#000000">extension</text>
</g>
</g>
</svg>
