<?xml version="1.0" encoding="UTF-8" standalone="no"?>
<!DOCTYPE svg PUBLIC "-//W3C//DTD SVG 1.1//EN"
 "http://www.w3.org/Graphics/SVG/1.1/DTD/svg11.dtd">
<!-- Generated by graphviz version 2.40.1 (20161225.0304)
 -->
<!-- Title: graphic Pages: 1 -->
<svg width="400pt" height="164pt"
 viewBox="0.00 0.00 400.00 164.00" xmlns="http://www.w3.org/2000/svg" xmlns:xlink="http://www.w3.org/1999/xlink">
<g id="graph0" class="graph" transform="scale(1 1) rotate(0) translate(4 160)">
<title>graphic</title>
<polygon fill="#ffffff" stroke="transparent" points="-4,4 -4,-160 396,-160 396,4 -4,4"/>
<!-- ucr:IncidentFactorCodeType -->
<g id="node1" class="node">
<title>ucr:IncidentFactorCodeType</title>
<text text-anchor="start" x="180" y="-35.9" font-family="Helvetica,sans-Serif" font-weight="bold" font-size="12.00" fill="#000000">ucr:IncidentFactorCodeType</text>
<g id="a_node1_0"><a xlink:href="../../structures/SimpleObjectAttributeGroup/#diagram" xlink:title="A group of attributes that are applicable to objects, to be used when defining a complex type that is an extension of a simple type." target="_top">
<polygon fill="#ebebeb" stroke="transparent" points="179,-15.5 179,-30.5 387,-30.5 387,-15.5 179,-15.5"/>
<text text-anchor="start" x="180" y="-19.9" font-family="Helvetica,sans-Serif" font-size="12.00" fill="#000000">structures:SimpleObjectAttributeGroup</text>
</a>
</g>
<polygon fill="#ff0000" stroke="#ff0000" points="174,-30.5 174,-30.5 392,-30.5 392,-30.5 174,-30.5"/>
<polygon fill="none" stroke="#ff0000" stroke-width="5" points="176.5,-13 176.5,-48 389.5,-48 389.5,-13 176.5,-13"/>
</g>
<!-- Properties -->
<g id="node2" class="node">
<title>Properties</title>
<text text-anchor="start" x="2.5" y="-35.9" font-family="Helvetica,sans-Serif" font-weight="bold" font-size="12.00" fill="#000000">Properties</text>
<g id="a_node2_1"><a xlink:href="../../j/IncidentFactorCode/#diagram" xlink:title="A circumstance of factor in an incident." target="_top">
<polygon fill="#ebebeb" stroke="transparent" points="1.5,-15.5 1.5,-30.5 114.5,-30.5 114.5,-15.5 1.5,-15.5"/>
<text text-anchor="start" x="2.5" y="-19.9" font-family="Helvetica,sans-Serif" font-size="12.00" fill="#000000">j:IncidentFactorCode</text>
</a>
</g>
<g id="a_node2_2"><a xlink:href="../../j/OffenseFactorCode/#diagram" xlink:title="An offense factor designation." target="_top">
<text text-anchor="start" x="2.5" y="-4.9" font-family="Helvetica,sans-Serif" font-size="12.00" fill="#000000">j:OffenseFactorCode</text>
</a>
</g>
<polygon fill="#000000" stroke="#000000" points=".5,-30.5 .5,-30.5 115.5,-30.5 115.5,-30.5 .5,-30.5"/>
<polygon fill="none" stroke="#000000" points="0,0 0,-47 115,-47 115,0 0,0"/>
</g>
<!-- Properties&#45;&gt;ucr:IncidentFactorCodeType -->
<g id="edge1" class="edge">
<title>Properties:top&#45;&gt;ucr:IncidentFactorCodeType:top</title>
<path fill="none" stroke="#000000" d="M114.5,-38.5C139.4714,-38.5 148.1284,-38.5 168.8937,-38.5"/>
<polygon fill="#000000" stroke="#000000" points="169,-42.0001 179,-38.5 169,-35.0001 169,-42.0001"/>
<text text-anchor="middle" x="144.5" y="-41.9" font-family="Helvetica,sans-Serif" font-size="12.00" fill="#000000">type</text>
</g>
<!-- ucr:IncidentFactorCodeSimpleType -->
<g id="node3" class="node">
<title>ucr:IncidentFactorCodeSimpleType</title>
<g id="a_node3_3"><a xlink:href="../../ucr/IncidentFactorCodeSimpleType/#diagram" xlink:title="A data type for factors that may have been involved in or contributed to a subject committing an offense." target="_top">
<text text-anchor="start" x="189" y="-90.9" font-family="Helvetica,sans-Serif" font-size="12.00" fill="#000000">ucr:IncidentFactorCodeSimpleType</text>
</a>
</g>
<polygon fill="none" stroke="#000000" points="186.5,-86 186.5,-103 379.5,-103 379.5,-86 186.5,-86"/>
</g>
<!-- ucr:IncidentFactorCodeSimpleType&#45;&gt;ucr:IncidentFactorCodeType -->
<g id="edge2" class="edge">
<title>ucr:IncidentFactorCodeSimpleType&#45;&gt;ucr:IncidentFactorCodeType</title>
<path fill="none" stroke="#000000" d="M283,-85.9351C283,-79.431 283,-70.0678 283,-60.8827"/>
<polygon fill="#000000" stroke="#000000" points="286.5001,-60.75 283,-50.75 279.5001,-60.75 286.5001,-60.75"/>
<text text-anchor="middle" x="273.5" y="-65.15" font-family="Helvetica,sans-Serif" font-size="12.00" fill="#000000">extension</text>
</g>
<!-- xs:token -->
<g id="node4" class="node">
<title>xs:token</title>
<g id="a_node4_4"><a xlink:href="../../xs/token/#diagram" xlink:title="&lt;TABLE&gt;" target="_top">
<text text-anchor="start" x="261" y="-143.9" font-family="Helvetica,sans-Serif" font-size="12.00" fill="#000000">xs:token</text>
</a>
</g>
<polygon fill="none" stroke="#000000" points="258.5,-139 258.5,-156 307.5,-156 307.5,-139 258.5,-139"/>
</g>
<!-- xs:token&#45;&gt;ucr:IncidentFactorCodeSimpleType -->
<g id="edge3" class="edge">
<title>xs:token&#45;&gt;ucr:IncidentFactorCodeSimpleType</title>
<path fill="none" stroke="#000000" d="M283,-138.911C283,-132.0124 283,-122.0696 283,-113.34"/>
<polygon fill="#000000" stroke="#000000" points="286.5001,-113.2518 283,-103.2519 279.5001,-113.2519 286.5001,-113.2518"/>
<text text-anchor="middle" x="273.5" y="-117.9" font-family="Helvetica,sans-Serif" font-size="12.00" fill="#000000">restriction</text>
</g>
</g>
</svg>
