<?xml version="1.0" encoding="UTF-8" standalone="no"?>
<!DOCTYPE svg PUBLIC "-//W3C//DTD SVG 1.1//EN"
 "http://www.w3.org/Graphics/SVG/1.1/DTD/svg11.dtd">
<!-- Generated by graphviz version 2.40.1 (20161225.0304)
 -->
<!-- Title: graphic Pages: 1 -->
<svg width="512pt" height="45pt"
 viewBox="0.00 0.00 512.00 45.00" xmlns="http://www.w3.org/2000/svg" xmlns:xlink="http://www.w3.org/1999/xlink">
<g id="graph0" class="graph" transform="scale(1 1) rotate(0) translate(4 41)">
<title>graphic</title>
<polygon fill="#ffffff" stroke="transparent" points="-4,4 -4,-41 508,-41 508,4 -4,4"/>
<!-- nc:AssociationDateRange -->
<g id="node1" class="node">
<title>nc:AssociationDateRange</title>
<text text-anchor="start" x="182.5" y="-21.4" font-family="Helvetica,sans-Serif" font-weight="bold" font-size="12.00" fill="#000000">nc:AssociationDateRange</text>
<polygon fill="none" stroke="#ff0000" stroke-width="5" points="178.5,-14 178.5,-34 334.5,-34 334.5,-14 178.5,-14"/>
</g>
<!-- nc:DateRangeType -->
<g id="node3" class="node">
<title>nc:DateRangeType</title>
<g id="a_node3_0"><a xlink:href="../../nc/DateRangeType/#diagram" xlink:title="A data type for a range of dates." target="_top">
<text text-anchor="start" x="398" y="-20.4" font-family="Helvetica,sans-Serif" font-size="12.00" fill="#000000">nc:DateRangeType</text>
</a>
</g>
<polygon fill="none" stroke="#000000" points="396,-15.5 396,-32.5 504,-32.5 504,-15.5 396,-15.5"/>
</g>
<!-- nc:AssociationDateRange&#45;&gt;nc:DateRangeType -->
<g id="edge2" class="edge">
<title>nc:AssociationDateRange&#45;&gt;nc:DateRangeType</title>
<path fill="none" stroke="#000000" d="M337.1603,-24C353.4079,-24 370.2784,-24 385.869,-24"/>
<polygon fill="#000000" stroke="#000000" points="385.9101,-27.5001 395.91,-24 385.91,-20.5001 385.9101,-27.5001"/>
<text text-anchor="middle" x="366.5" y="-27.4" font-family="Helvetica,sans-Serif" font-size="12.00" fill="#000000">type</text>
</g>
<!-- Types -->
<g id="node2" class="node">
<title>Types</title>
<text text-anchor="start" x="2.5" y="-21.4" font-family="Helvetica,sans-Serif" font-weight="bold" font-size="12.00" fill="#000000">Types</text>
<g id="a_node2_1"><a xlink:href="../../nc/AssociationType/#diagram" xlink:title="A data type for an association, connection, relationship, or involvement somehow linking people, things, and/or activities together." target="_top">
<polygon fill="#ebebeb" stroke="transparent" points="1.5,-1 1.5,-16 108.5,-16 108.5,-1 1.5,-1"/>
<text text-anchor="start" x="2.5" y="-5.4" font-family="Helvetica,sans-Serif" font-size="12.00" fill="#000000">nc:AssociationType</text>
</a>
</g>
<polygon fill="#000000" stroke="#000000" points=".5,-16 .5,-16 109.5,-16 109.5,-16 .5,-16"/>
<polygon fill="none" stroke="#000000" points="0,0 0,-32 109,-32 109,0 0,0"/>
</g>
<!-- Types&#45;&gt;nc:AssociationDateRange -->
<g id="edge1" class="edge">
<title>Types:top&#45;&gt;nc:AssociationDateRange</title>
<path fill="none" stroke="#000000" d="M108.5,-24C127.013,-24 146.8287,-24 165.7473,-24"/>
<polygon fill="#000000" stroke="#000000" points="165.8479,-27.5001 175.8479,-24 165.8479,-20.5001 165.8479,-27.5001"/>
<text text-anchor="middle" x="142.5" y="-27.4" font-family="Helvetica,sans-Serif" font-size="12.00" fill="#000000">has&#45;a</text>
</g>
</g>
</svg>
