<?xml version="1.0" encoding="UTF-8" standalone="no"?>
<!DOCTYPE svg PUBLIC "-//W3C//DTD SVG 1.1//EN"
 "http://www.w3.org/Graphics/SVG/1.1/DTD/svg11.dtd">
<!-- Generated by graphviz version 2.40.1 (20161225.0304)
 -->
<!-- Title: graphic Pages: 1 -->
<svg width="697pt" height="45pt"
 viewBox="0.00 0.00 697.00 45.00" xmlns="http://www.w3.org/2000/svg" xmlns:xlink="http://www.w3.org/1999/xlink">
<g id="graph0" class="graph" transform="scale(1 1) rotate(0) translate(4 41)">
<title>graphic</title>
<polygon fill="#ffffff" stroke="transparent" points="-4,4 -4,-41 693,-41 693,4 -4,4"/>
<!-- scr:LPRMexicanStateCode -->
<g id="node1" class="node">
<title>scr:LPRMexicanStateCode</title>
<text text-anchor="start" x="296.5" y="-21.4" font-family="Helvetica,sans-Serif" font-weight="bold" font-size="12.00" fill="#000000">scr:LPRMexicanStateCode</text>
<polygon fill="none" stroke="#ff0000" stroke-width="5" points="292.5,-14 292.5,-34 452.5,-34 452.5,-14 292.5,-14"/>
</g>
<!-- scr:LPRMexicanStateCodeType -->
<g id="node3" class="node">
<title>scr:LPRMexicanStateCodeType</title>
<g id="a_node3_0"><a xlink:href="../../scr/LPRMexicanStateCodeType/#diagram" xlink:title="A data type for a code which indicates the Mexican state on the Conveyance License Plate" target="_top">
<text text-anchor="start" x="516.5" y="-20.4" font-family="Helvetica,sans-Serif" font-size="12.00" fill="#000000">scr:LPRMexicanStateCodeType</text>
</a>
</g>
<polygon fill="none" stroke="#000000" points="514,-15.5 514,-32.5 689,-32.5 689,-15.5 514,-15.5"/>
</g>
<!-- scr:LPRMexicanStateCode&#45;&gt;scr:LPRMexicanStateCodeType -->
<g id="edge2" class="edge">
<title>scr:LPRMexicanStateCode&#45;&gt;scr:LPRMexicanStateCodeType</title>
<path fill="none" stroke="#000000" d="M455.1743,-24C470.9823,-24 487.6695,-24 503.894,-24"/>
<polygon fill="#000000" stroke="#000000" points="503.9243,-27.5001 513.9243,-24 503.9242,-20.5001 503.9243,-27.5001"/>
<text text-anchor="middle" x="484.5" y="-27.4" font-family="Helvetica,sans-Serif" font-size="12.00" fill="#000000">type</text>
</g>
<!-- Types -->
<g id="node2" class="node">
<title>Types</title>
<text text-anchor="start" x="2.5" y="-21.4" font-family="Helvetica,sans-Serif" font-weight="bold" font-size="12.00" fill="#000000">Types</text>
<g id="a_node2_1"><a xlink:href="../../scr/LPRConveyanceCheckMessageType/#diagram" xlink:title="A data type for a Screening conveyance check message" target="_top">
<polygon fill="#ebebeb" stroke="transparent" points="1.5,-1 1.5,-16 222.5,-16 222.5,-1 1.5,-1"/>
<text text-anchor="start" x="2.5" y="-5.4" font-family="Helvetica,sans-Serif" font-size="12.00" fill="#000000">scr:LPRConveyanceCheckMessageType</text>
</a>
</g>
<polygon fill="#000000" stroke="#000000" points=".5,-16 .5,-16 223.5,-16 223.5,-16 .5,-16"/>
<polygon fill="none" stroke="#000000" points="0,0 0,-32 223,-32 223,0 0,0"/>
</g>
<!-- Types&#45;&gt;scr:LPRMexicanStateCode -->
<g id="edge1" class="edge">
<title>Types:top&#45;&gt;scr:LPRMexicanStateCode</title>
<path fill="none" stroke="#000000" d="M222.5,-24C241.0425,-24 260.8743,-24 279.8438,-24"/>
<polygon fill="#000000" stroke="#000000" points="279.9755,-27.5001 289.9755,-24 279.9755,-20.5001 279.9755,-27.5001"/>
<text text-anchor="middle" x="256.5" y="-27.4" font-family="Helvetica,sans-Serif" font-size="12.00" fill="#000000">has&#45;a</text>
</g>
</g>
</svg>
