<?xml version="1.0" encoding="UTF-8" standalone="no"?>
<!DOCTYPE svg PUBLIC "-//W3C//DTD SVG 1.1//EN"
 "http://www.w3.org/Graphics/SVG/1.1/DTD/svg11.dtd">
<!-- Generated by graphviz version 2.40.1 (20161225.0304)
 -->
<!-- Title: graphic Pages: 1 -->
<svg width="576pt" height="45pt"
 viewBox="0.00 0.00 576.00 45.00" xmlns="http://www.w3.org/2000/svg" xmlns:xlink="http://www.w3.org/1999/xlink">
<g id="graph0" class="graph" transform="scale(1 1) rotate(0) translate(4 41)">
<title>graphic</title>
<polygon fill="#ffffff" stroke="transparent" points="-4,4 -4,-41 572,-41 572,4 -4,4"/>
<!-- j:JudicialOfficialBarStatus -->
<g id="node1" class="node">
<title>j:JudicialOfficialBarStatus</title>
<text text-anchor="start" x="272" y="-21.4" font-family="Helvetica,sans-Serif" font-weight="bold" font-size="12.00" fill="#000000">j:JudicialOfficialBarStatus</text>
<polygon fill="none" stroke="#ff0000" stroke-width="5" points="268.5,-14 268.5,-34 425.5,-34 425.5,-14 268.5,-14"/>
</g>
<!-- nc:StatusType -->
<g id="node3" class="node">
<title>nc:StatusType</title>
<g id="a_node3_0"><a xlink:href="../../nc/StatusType/#diagram" xlink:title="A data type for a state of something or someone." target="_top">
<text text-anchor="start" x="489.5" y="-20.4" font-family="Helvetica,sans-Serif" font-size="12.00" fill="#000000">nc:StatusType</text>
</a>
</g>
<polygon fill="none" stroke="#000000" points="487,-15.5 487,-32.5 568,-32.5 568,-15.5 487,-15.5"/>
</g>
<!-- j:JudicialOfficialBarStatus&#45;&gt;nc:StatusType -->
<g id="edge2" class="edge">
<title>j:JudicialOfficialBarStatus&#45;&gt;nc:StatusType</title>
<path fill="none" stroke="#000000" d="M428.0103,-24C444.6103,-24 461.6318,-24 476.7964,-24"/>
<polygon fill="#000000" stroke="#000000" points="476.9704,-27.5001 486.9703,-24 476.9703,-20.5001 476.9704,-27.5001"/>
<text text-anchor="middle" x="457.5" y="-27.4" font-family="Helvetica,sans-Serif" font-size="12.00" fill="#000000">type</text>
</g>
<!-- Types -->
<g id="node2" class="node">
<title>Types</title>
<text text-anchor="start" x="2.5" y="-21.4" font-family="Helvetica,sans-Serif" font-weight="bold" font-size="12.00" fill="#000000">Types</text>
<g id="a_node2_1"><a xlink:href="../../j/JudicialOfficialBarMembershipType/#diagram" xlink:title="A data type for a legal capacity in which a judicial official is able to practice law." target="_top">
<polygon fill="#ebebeb" stroke="transparent" points="1.5,-1 1.5,-16 198.5,-16 198.5,-1 1.5,-1"/>
<text text-anchor="start" x="2.5" y="-5.4" font-family="Helvetica,sans-Serif" font-size="12.00" fill="#000000">j:JudicialOfficialBarMembershipType</text>
</a>
</g>
<polygon fill="#000000" stroke="#000000" points=".5,-16 .5,-16 199.5,-16 199.5,-16 .5,-16"/>
<polygon fill="none" stroke="#000000" points="0,0 0,-32 199,-32 199,0 0,0"/>
</g>
<!-- Types&#45;&gt;j:JudicialOfficialBarStatus -->
<g id="edge1" class="edge">
<title>Types:top&#45;&gt;j:JudicialOfficialBarStatus</title>
<path fill="none" stroke="#000000" d="M198.5,-24C216.9663,-24 236.7243,-24 255.6056,-24"/>
<polygon fill="#000000" stroke="#000000" points="255.6883,-27.5001 265.6883,-24 255.6882,-20.5001 255.6883,-27.5001"/>
<text text-anchor="middle" x="232.5" y="-27.4" font-family="Helvetica,sans-Serif" font-size="12.00" fill="#000000">has&#45;a</text>
</g>
</g>
</svg>
