<?xml version="1.0" encoding="UTF-8" standalone="no"?>
<!DOCTYPE svg PUBLIC "-//W3C//DTD SVG 1.1//EN"
 "http://www.w3.org/Graphics/SVG/1.1/DTD/svg11.dtd">
<!-- Generated by graphviz version 2.40.1 (20161225.0304)
 -->
<!-- Title: graphic Pages: 1 -->
<svg width="557pt" height="45pt"
 viewBox="0.00 0.00 557.00 45.00" xmlns="http://www.w3.org/2000/svg" xmlns:xlink="http://www.w3.org/1999/xlink">
<g id="graph0" class="graph" transform="scale(1 1) rotate(0) translate(4 41)">
<title>graphic</title>
<polygon fill="#ffffff" stroke="transparent" points="-4,4 -4,-41 553,-41 553,4 -4,4"/>
<!-- nc:ConveyanceOperator -->
<g id="node1" class="node">
<title>nc:ConveyanceOperator</title>
<text text-anchor="start" x="259" y="-21.4" font-family="Helvetica,sans-Serif" font-weight="bold" font-size="12.00" fill="#000000">nc:ConveyanceOperator</text>
<polygon fill="none" stroke="#ff0000" stroke-width="5" points="255.5,-14 255.5,-34 402.5,-34 402.5,-14 255.5,-14"/>
</g>
<!-- nc:PersonType -->
<g id="node3" class="node">
<title>nc:PersonType</title>
<g id="a_node3_0"><a xlink:href="../../nc/PersonType/#diagram" xlink:title="A data type for a human being." target="_top">
<text text-anchor="start" x="466.5" y="-20.4" font-family="Helvetica,sans-Serif" font-size="12.00" fill="#000000">nc:PersonType</text>
</a>
</g>
<polygon fill="none" stroke="#000000" points="464,-15.5 464,-32.5 549,-32.5 549,-15.5 464,-15.5"/>
</g>
<!-- nc:ConveyanceOperator&#45;&gt;nc:PersonType -->
<g id="edge2" class="edge">
<title>nc:ConveyanceOperator&#45;&gt;nc:PersonType</title>
<path fill="none" stroke="#000000" d="M405.0484,-24C421.4091,-24 438.3579,-24 453.6084,-24"/>
<polygon fill="#000000" stroke="#000000" points="453.8671,-27.5001 463.867,-24 453.867,-20.5001 453.8671,-27.5001"/>
<text text-anchor="middle" x="434.5" y="-27.4" font-family="Helvetica,sans-Serif" font-size="12.00" fill="#000000">type</text>
</g>
<!-- Types -->
<g id="node2" class="node">
<title>Types</title>
<text text-anchor="start" x="2" y="-21.4" font-family="Helvetica,sans-Serif" font-weight="bold" font-size="12.00" fill="#000000">Types</text>
<g id="a_node2_1"><a xlink:href="../../nc/TransportationAssociationType/#diagram" xlink:title="A data type for an association between a conveyance and the people and/or goods it transported." target="_top">
<polygon fill="#ebebeb" stroke="transparent" points="1,-1 1,-16 185,-16 185,-1 1,-1"/>
<text text-anchor="start" x="2" y="-5.4" font-family="Helvetica,sans-Serif" font-size="12.00" fill="#000000">nc:TransportationAssociationType</text>
</a>
</g>
<polygon fill="#000000" stroke="#000000" points="0,-16 0,-16 186,-16 186,-16 0,-16"/>
<polygon fill="none" stroke="#000000" points="0,0 0,-32 186,-32 186,0 0,0"/>
</g>
<!-- Types&#45;&gt;nc:ConveyanceOperator -->
<g id="edge1" class="edge">
<title>Types:top&#45;&gt;nc:ConveyanceOperator</title>
<path fill="none" stroke="#000000" d="M185,-24C203.6484,-24 223.6553,-24 242.6457,-24"/>
<polygon fill="#000000" stroke="#000000" points="242.7725,-27.5001 252.7725,-24 242.7724,-20.5001 242.7725,-27.5001"/>
<text text-anchor="middle" x="219.5" y="-27.4" font-family="Helvetica,sans-Serif" font-size="12.00" fill="#000000">has&#45;a</text>
</g>
</g>
</svg>
