<?xml version="1.0" encoding="UTF-8" standalone="no"?>
<!DOCTYPE svg PUBLIC "-//W3C//DTD SVG 1.1//EN"
 "http://www.w3.org/Graphics/SVG/1.1/DTD/svg11.dtd">
<!-- Generated by graphviz version 2.40.1 (20161225.0304)
 -->
<!-- Title: graphic Pages: 1 -->
<svg width="324pt" height="207pt"
 viewBox="0.00 0.00 324.00 206.50" xmlns="http://www.w3.org/2000/svg" xmlns:xlink="http://www.w3.org/1999/xlink">
<g id="graph0" class="graph" transform="scale(1 1) rotate(0) translate(4 202.5)">
<title>graphic</title>
<polygon fill="#ffffff" stroke="transparent" points="-4,4 -4,-202.5 320,-202.5 320,4 -4,4"/>
<!-- stat:CodeType -->
<g id="node1" class="node">
<title>stat:CodeType</title>
<text text-anchor="start" x="129.5" y="-25.4" font-family="Helvetica,sans-Serif" font-weight="bold" font-size="12.00" fill="#000000">stat:CodeType</text>
<g id="a_node1_0"><a xlink:href="../../stat/CodeAugmentationPoint/#diagram" xlink:title="An augmentation point for type stat:CodeType" target="_top">
<polygon fill="#ebebeb" stroke="transparent" points="128.5,-5 128.5,-20 311.5,-20 311.5,-5 128.5,-5"/>
<text text-anchor="start" x="129.5" y="-9.4" font-family="Helvetica,sans-Serif" font-size="12.00" fill="#000000">stat:CodeAugmentationPoint [0&#45;n]</text>
</a>
</g>
<polygon fill="#ff0000" stroke="#ff0000" points="123.5,-20 123.5,-20 316.5,-20 316.5,-20 123.5,-20"/>
<polygon fill="none" stroke="#ff0000" stroke-width="5" points="125.5,-2.5 125.5,-37.5 313.5,-37.5 313.5,-2.5 125.5,-2.5"/>
</g>
<!-- Properties -->
<g id="node2" class="node">
<title>Properties</title>
<text text-anchor="start" x="2" y="-25.4" font-family="Helvetica,sans-Serif" font-weight="bold" font-size="12.00" fill="#000000">Properties</text>
<g id="a_node2_1"><a xlink:href="../../stat/Code/#diagram" xlink:title="A designation for a category." target="_top">
<polygon fill="#ebebeb" stroke="transparent" points="1,-5 1,-20 63,-20 63,-5 1,-5"/>
<text text-anchor="start" x="2" y="-9.4" font-family="Helvetica,sans-Serif" font-size="12.00" fill="#000000">stat:Code</text>
</a>
</g>
<polygon fill="#000000" stroke="#000000" points="0,-20 0,-20 64,-20 64,-20 0,-20"/>
<polygon fill="none" stroke="#000000" points="0,-4 0,-36 64,-36 64,-4 0,-4"/>
</g>
<!-- Properties&#45;&gt;stat:CodeType -->
<g id="edge1" class="edge">
<title>Properties:top&#45;&gt;stat:CodeType:top</title>
<path fill="none" stroke="#000000" d="M63,-28C88.3585,-28 97.1498,-28 118.2371,-28"/>
<polygon fill="#000000" stroke="#000000" points="118.5,-31.5001 128.5,-28 118.5,-24.5001 118.5,-31.5001"/>
<text text-anchor="middle" x="93.5" y="-31.4" font-family="Helvetica,sans-Serif" font-size="12.00" fill="#000000">type</text>
</g>
<!-- stat:DesignationType -->
<g id="node3" class="node">
<title>stat:DesignationType</title>
<g id="a_node3_2"><a xlink:href="../../stat/DesignationType/#diagram" xlink:title="A data type for a name given to an object for identification." target="_top">
<text text-anchor="start" x="163.5" y="-80.4" font-family="Helvetica,sans-Serif" font-size="12.00" fill="#000000">stat:DesignationType</text>
</a>
</g>
<polygon fill="none" stroke="#000000" points="161,-75.5 161,-92.5 278,-92.5 278,-75.5 161,-75.5"/>
</g>
<!-- stat:DesignationType&#45;&gt;stat:CodeType -->
<g id="edge2" class="edge">
<title>stat:DesignationType&#45;&gt;stat:CodeType</title>
<path fill="none" stroke="#000000" d="M219.5,-75.4351C219.5,-68.931 219.5,-59.5678 219.5,-50.3827"/>
<polygon fill="#000000" stroke="#000000" points="223.0001,-50.25 219.5,-40.25 216.0001,-50.25 223.0001,-50.25"/>
<text text-anchor="middle" x="210" y="-54.65" font-family="Helvetica,sans-Serif" font-size="12.00" fill="#000000">extension</text>
</g>
<!-- stat:IdentifiableArtifactType -->
<g id="node4" class="node">
<title>stat:IdentifiableArtifactType</title>
<g id="a_node4_3"><a xlink:href="../../stat/IdentifiableArtifactType/#diagram" xlink:title="A data type for an abstract class that comprises the basic attributes and associations needed for identification, naming and other documentation." target="_top">
<text text-anchor="start" x="147.5" y="-133.4" font-family="Helvetica,sans-Serif" font-size="12.00" fill="#000000">stat:IdentifiableArtifactType</text>
</a>
</g>
<polygon fill="none" stroke="#000000" points="145,-128.5 145,-145.5 294,-145.5 294,-128.5 145,-128.5"/>
</g>
<!-- stat:IdentifiableArtifactType&#45;&gt;stat:DesignationType -->
<g id="edge3" class="edge">
<title>stat:IdentifiableArtifactType&#45;&gt;stat:DesignationType</title>
<path fill="none" stroke="#000000" d="M219.5,-128.411C219.5,-121.5124 219.5,-111.5696 219.5,-102.84"/>
<polygon fill="#000000" stroke="#000000" points="223.0001,-102.7518 219.5,-92.7519 216.0001,-102.7519 223.0001,-102.7518"/>
<text text-anchor="middle" x="210" y="-107.4" font-family="Helvetica,sans-Serif" font-size="12.00" fill="#000000">extension</text>
</g>
<!-- structures:ObjectType -->
<g id="node5" class="node">
<title>structures:ObjectType</title>
<g id="a_node5_4"><a xlink:href="../../structures/ObjectType/#diagram" xlink:title="A data type for a thing with its own lifespan that has some existence." target="_top">
<text text-anchor="start" x="160.5" y="-186.4" font-family="Helvetica,sans-Serif" font-size="12.00" fill="#000000">structures:ObjectType</text>
</a>
</g>
<polygon fill="none" stroke="#000000" points="158.5,-181.5 158.5,-198.5 280.5,-198.5 280.5,-181.5 158.5,-181.5"/>
</g>
<!-- structures:ObjectType&#45;&gt;stat:IdentifiableArtifactType -->
<g id="edge4" class="edge">
<title>structures:ObjectType&#45;&gt;stat:IdentifiableArtifactType</title>
<path fill="none" stroke="#000000" d="M219.5,-181.411C219.5,-174.5124 219.5,-164.5696 219.5,-155.84"/>
<polygon fill="#000000" stroke="#000000" points="223.0001,-155.7518 219.5,-145.7519 216.0001,-155.7519 223.0001,-155.7518"/>
<text text-anchor="middle" x="210" y="-160.4" font-family="Helvetica,sans-Serif" font-size="12.00" fill="#000000">extension</text>
</g>
</g>
</svg>
