<?xml version="1.0" encoding="UTF-8" standalone="no"?>
<!DOCTYPE svg PUBLIC "-//W3C//DTD SVG 1.1//EN"
 "http://www.w3.org/Graphics/SVG/1.1/DTD/svg11.dtd">
<!-- Generated by graphviz version 2.40.1 (20161225.0304)
 -->
<!-- Title: graphic Pages: 1 -->
<svg width="530pt" height="45pt"
 viewBox="0.00 0.00 530.00 45.00" xmlns="http://www.w3.org/2000/svg" xmlns:xlink="http://www.w3.org/1999/xlink">
<g id="graph0" class="graph" transform="scale(1 1) rotate(0) translate(4 41)">
<title>graphic</title>
<polygon fill="#ffffff" stroke="transparent" points="-4,4 -4,-41 526,-41 526,4 -4,4"/>
<!-- it:TransportMeansDeparture -->
<g id="node1" class="node">
<title>it:TransportMeansDeparture</title>
<text text-anchor="start" x="201" y="-21.4" font-family="Helvetica,sans-Serif" font-weight="bold" font-size="12.00" fill="#000000">it:TransportMeansDeparture</text>
<polygon fill="none" stroke="#ff0000" stroke-width="5" points="197.5,-14 197.5,-34 366.5,-34 366.5,-14 197.5,-14"/>
</g>
<!-- it:DepartureType -->
<g id="node3" class="node">
<title>it:DepartureType</title>
<g id="a_node3_0"><a xlink:href="../../it/DepartureType/#diagram" xlink:title="A data type for a departure from a crossing or other location for a means of transport" target="_top">
<text text-anchor="start" x="430" y="-20.4" font-family="Helvetica,sans-Serif" font-size="12.00" fill="#000000">it:DepartureType</text>
</a>
</g>
<polygon fill="none" stroke="#000000" points="428,-15.5 428,-32.5 522,-32.5 522,-15.5 428,-15.5"/>
</g>
<!-- it:TransportMeansDeparture&#45;&gt;it:DepartureType -->
<g id="edge2" class="edge">
<title>it:TransportMeansDeparture&#45;&gt;it:DepartureType</title>
<path fill="none" stroke="#000000" d="M369.1833,-24C385.5787,-24 402.3361,-24 417.5388,-24"/>
<polygon fill="#000000" stroke="#000000" points="417.7917,-27.5001 427.7917,-24 417.7917,-20.5001 417.7917,-27.5001"/>
<text text-anchor="middle" x="398.5" y="-27.4" font-family="Helvetica,sans-Serif" font-size="12.00" fill="#000000">type</text>
</g>
<!-- Types -->
<g id="node2" class="node">
<title>Types</title>
<text text-anchor="start" x="2" y="-21.4" font-family="Helvetica,sans-Serif" font-weight="bold" font-size="12.00" fill="#000000">Types</text>
<g id="a_node2_1"><a xlink:href="../../it/TransportMeansType/#diagram" xlink:title="A data type to identify the means of transport used." target="_top">
<polygon fill="#ebebeb" stroke="transparent" points="1,-1 1,-16 127,-16 127,-1 1,-1"/>
<text text-anchor="start" x="2" y="-5.4" font-family="Helvetica,sans-Serif" font-size="12.00" fill="#000000">it:TransportMeansType</text>
</a>
</g>
<polygon fill="#000000" stroke="#000000" points="0,-16 0,-16 128,-16 128,-16 0,-16"/>
<polygon fill="none" stroke="#000000" points="0,0 0,-32 128,-32 128,0 0,0"/>
</g>
<!-- Types&#45;&gt;it:TransportMeansDeparture -->
<g id="edge1" class="edge">
<title>Types:top&#45;&gt;it:TransportMeansDeparture</title>
<path fill="none" stroke="#000000" d="M127,-24C145.5903,-24 165.4348,-24 184.5028,-24"/>
<polygon fill="#000000" stroke="#000000" points="184.6966,-27.5001 194.6966,-24 184.6966,-20.5001 184.6966,-27.5001"/>
<text text-anchor="middle" x="161.5" y="-27.4" font-family="Helvetica,sans-Serif" font-size="12.00" fill="#000000">has&#45;a</text>
</g>
</g>
</svg>
