<?xml version="1.0" encoding="UTF-8" standalone="no"?>
<!DOCTYPE svg PUBLIC "-//W3C//DTD SVG 1.1//EN"
 "http://www.w3.org/Graphics/SVG/1.1/DTD/svg11.dtd">
<!-- Generated by graphviz version 2.40.1 (20161225.0304)
 -->
<!-- Title: graphic Pages: 1 -->
<svg width="632pt" height="161pt"
 viewBox="0.00 0.00 632.00 160.50" xmlns="http://www.w3.org/2000/svg" xmlns:xlink="http://www.w3.org/1999/xlink">
<g id="graph0" class="graph" transform="scale(1 1) rotate(0) translate(4 156.5)">
<title>graphic</title>
<polygon fill="#ffffff" stroke="transparent" points="-4,4 -4,-156.5 628,-156.5 628,4 -4,4"/>
<!-- ag:FarmCropAcreageType -->
<g id="node1" class="node">
<title>ag:FarmCropAcreageType</title>
<text text-anchor="start" x="185.5" y="-85.4" font-family="Helvetica,sans-Serif" font-weight="bold" font-size="12.00" fill="#000000">ag:FarmCropAcreageType</text>
<g id="a_node1_0"><a xlink:href="../../ag/AdministrativeStateFSACode/#diagram" xlink:title="A state code of administering state office." target="_top">
<polygon fill="#ebebeb" stroke="transparent" points="184.5,-65 184.5,-80 619.5,-80 619.5,-65 184.5,-65"/>
<text text-anchor="start" x="185.5" y="-69.4" font-family="Helvetica,sans-Serif" font-size="12.00" fill="#000000">ag:AdministrativeStateFSACode: usda_fsa:AdministrativeStateFSACodeType</text>
</a>
</g>
<g id="a_node1_1"><a xlink:href="../../ag/AdministrativeCountyFSACode/#diagram" xlink:title="A county code of the administering county office." target="_top">
<text text-anchor="start" x="185.5" y="-54.4" font-family="Helvetica,sans-Serif" font-size="12.00" fill="#000000">ag:AdministrativeCountyFSACode: usda_fsa:AdministrativeCountyFSACodeType</text>
</a>
</g>
<g id="a_node1_2"><a xlink:href="../../ag/FarmNumberID/#diagram" xlink:title="An identifier assigned to all land under control of a particular operator within a particular county." target="_top">
<polygon fill="#ebebeb" stroke="transparent" points="184.5,-35 184.5,-50 619.5,-50 619.5,-35 184.5,-35"/>
<text text-anchor="start" x="185.5" y="-39.4" font-family="Helvetica,sans-Serif" font-size="12.00" fill="#000000">ag:FarmNumberID: ag_codes:FarmNumberIDType</text>
</a>
</g>
<g id="a_node1_3"><a xlink:href="../../ag/TractCropAcreage/#diagram" xlink:title="A tract of land within a farm that contains a number of fields and subfields on which crop acreage details have been reported." target="_top">
<text text-anchor="start" x="185.5" y="-24.4" font-family="Helvetica,sans-Serif" font-size="12.00" fill="#000000">ag:TractCropAcreage: ag:TractCropAcreageType [1&#45;n]</text>
</a>
</g>
<g id="a_node1_4"><a xlink:href="../../ag/FarmCropAcreageAugmentationPoint/#diagram" xlink:title="An augmentation point for FarmCropAcreageType." target="_top">
<polygon fill="#ebebeb" stroke="transparent" points="184.5,-5 184.5,-20 619.5,-20 619.5,-5 184.5,-5"/>
<text text-anchor="start" x="185.5" y="-9.4" font-family="Helvetica,sans-Serif" font-size="12.00" fill="#000000">ag:FarmCropAcreageAugmentationPoint [0&#45;n]</text>
</a>
</g>
<polygon fill="#ff0000" stroke="#ff0000" points="179.5,-80 179.5,-80 624.5,-80 624.5,-80 179.5,-80"/>
<polygon fill="none" stroke="#ff0000" stroke-width="5" points="181.5,-2.5 181.5,-97.5 621.5,-97.5 621.5,-2.5 181.5,-2.5"/>
</g>
<!-- Properties -->
<g id="node2" class="node">
<title>Properties</title>
<text text-anchor="start" x="2" y="-85.4" font-family="Helvetica,sans-Serif" font-weight="bold" font-size="12.00" fill="#000000">Properties</text>
<g id="a_node2_5"><a xlink:href="../../ag/FarmCropAcreage/#diagram" xlink:title="A Farm within FSA state and county that contains a number of tracts fields and subfields on which crop acreage details have been reported." target="_top">
<polygon fill="#ebebeb" stroke="transparent" points="1,-65 1,-80 119,-80 119,-65 1,-65"/>
<text text-anchor="start" x="2" y="-69.4" font-family="Helvetica,sans-Serif" font-size="12.00" fill="#000000">ag:FarmCropAcreage</text>
</a>
</g>
<polygon fill="#000000" stroke="#000000" points="0,-80 0,-80 120,-80 120,-80 0,-80"/>
<polygon fill="none" stroke="#000000" points="0,-64 0,-96 120,-96 120,-64 0,-64"/>
</g>
<!-- Properties&#45;&gt;ag:FarmCropAcreageType -->
<g id="edge1" class="edge">
<title>Properties:top&#45;&gt;ag:FarmCropAcreageType:top</title>
<path fill="none" stroke="#000000" d="M119,-88C144.3585,-88 153.1498,-88 174.2371,-88"/>
<polygon fill="#000000" stroke="#000000" points="174.5,-91.5001 184.5,-88 174.5,-84.5001 174.5,-91.5001"/>
<text text-anchor="middle" x="149.5" y="-91.4" font-family="Helvetica,sans-Serif" font-size="12.00" fill="#000000">type</text>
</g>
<!-- structures:ObjectType -->
<g id="node3" class="node">
<title>structures:ObjectType</title>
<g id="a_node3_6"><a xlink:href="../../structures/ObjectType/#diagram" xlink:title="A data type for a thing with its own lifespan that has some existence." target="_top">
<text text-anchor="start" x="342.5" y="-140.4" font-family="Helvetica,sans-Serif" font-size="12.00" fill="#000000">structures:ObjectType</text>
</a>
</g>
<polygon fill="none" stroke="#000000" points="340.5,-135.5 340.5,-152.5 462.5,-152.5 462.5,-135.5 340.5,-135.5"/>
</g>
<!-- structures:ObjectType&#45;&gt;ag:FarmCropAcreageType -->
<g id="edge2" class="edge">
<title>structures:ObjectType&#45;&gt;ag:FarmCropAcreageType</title>
<path fill="none" stroke="#000000" d="M401.5,-135.375C401.5,-129.1263 401.5,-120.0624 401.5,-110.15"/>
<polygon fill="#000000" stroke="#000000" points="405.0001,-110.0274 401.5,-100.0274 398.0001,-110.0275 405.0001,-110.0274"/>
<text text-anchor="middle" x="392" y="-114.65" font-family="Helvetica,sans-Serif" font-size="12.00" fill="#000000">extension</text>
</g>
</g>
</svg>
