<?xml version="1.0" encoding="UTF-8" standalone="no"?>
<!DOCTYPE svg PUBLIC "-//W3C//DTD SVG 1.1//EN"
 "http://www.w3.org/Graphics/SVG/1.1/DTD/svg11.dtd">
<!-- Generated by graphviz version 2.40.1 (20161225.0304)
 -->
<!-- Title: graphic Pages: 1 -->
<svg width="710pt" height="45pt"
 viewBox="0.00 0.00 710.00 45.00" xmlns="http://www.w3.org/2000/svg" xmlns:xlink="http://www.w3.org/1999/xlink">
<g id="graph0" class="graph" transform="scale(1 1) rotate(0) translate(4 41)">
<title>graphic</title>
<polygon fill="#ffffff" stroke="transparent" points="-4,4 -4,-41 706,-41 706,4 -4,4"/>
<!-- cbrn:AnalysisAlgorithmSettingUnitsText -->
<g id="node1" class="node">
<title>cbrn:AnalysisAlgorithmSettingUnitsText</title>
<text text-anchor="start" x="264" y="-21.4" font-family="Helvetica,sans-Serif" font-weight="bold" font-size="12.00" fill="#000000">cbrn:AnalysisAlgorithmSettingUnitsText</text>
<polygon fill="none" stroke="#ff0000" stroke-width="5" points="260.5,-14 260.5,-34 499.5,-34 499.5,-14 260.5,-14"/>
</g>
<!-- cbrn:NonBlankStringType -->
<g id="node3" class="node">
<title>cbrn:NonBlankStringType</title>
<g id="a_node3_0"><a xlink:href="../../cbrn/NonBlankStringType/#diagram" xlink:title="A data type that defines a string value that can not be blank" target="_top">
<text text-anchor="start" x="563.5" y="-20.4" font-family="Helvetica,sans-Serif" font-size="12.00" fill="#000000">cbrn:NonBlankStringType</text>
</a>
</g>
<polygon fill="none" stroke="#000000" points="561,-15.5 561,-32.5 702,-32.5 702,-15.5 561,-15.5"/>
</g>
<!-- cbrn:AnalysisAlgorithmSettingUnitsText&#45;&gt;cbrn:NonBlankStringType -->
<g id="edge2" class="edge">
<title>cbrn:AnalysisAlgorithmSettingUnitsText&#45;&gt;cbrn:NonBlankStringType</title>
<path fill="none" stroke="#000000" d="M502.0664,-24C518.5954,-24 535.2094,-24 550.7647,-24"/>
<polygon fill="#000000" stroke="#000000" points="550.8224,-27.5001 560.8224,-24 550.8223,-20.5001 550.8224,-27.5001"/>
<text text-anchor="middle" x="531.5" y="-27.4" font-family="Helvetica,sans-Serif" font-size="12.00" fill="#000000">type</text>
</g>
<!-- Types -->
<g id="node2" class="node">
<title>Types</title>
<text text-anchor="start" x="2.5" y="-21.4" font-family="Helvetica,sans-Serif" font-weight="bold" font-size="12.00" fill="#000000">Types</text>
<g id="a_node2_1"><a xlink:href="../../cbrn/AnalysisAlgorithmSettingType/#diagram" xlink:title="A data type to describing the parameter names and values for setting an analysis algorithm." target="_top">
<polygon fill="#ebebeb" stroke="transparent" points="1.5,-1 1.5,-16 190.5,-16 190.5,-1 1.5,-1"/>
<text text-anchor="start" x="2.5" y="-5.4" font-family="Helvetica,sans-Serif" font-size="12.00" fill="#000000">cbrn:AnalysisAlgorithmSettingType</text>
</a>
</g>
<polygon fill="#000000" stroke="#000000" points=".5,-16 .5,-16 191.5,-16 191.5,-16 .5,-16"/>
<polygon fill="none" stroke="#000000" points="0,0 0,-32 191,-32 191,0 0,0"/>
</g>
<!-- Types&#45;&gt;cbrn:AnalysisAlgorithmSettingUnitsText -->
<g id="edge1" class="edge">
<title>Types:top&#45;&gt;cbrn:AnalysisAlgorithmSettingUnitsText</title>
<path fill="none" stroke="#000000" d="M190.5,-24C209.0605,-24 228.6435,-24 247.897,-24"/>
<polygon fill="#000000" stroke="#000000" points="247.9282,-27.5001 257.9282,-24 247.9282,-20.5001 247.9282,-27.5001"/>
<text text-anchor="middle" x="224.5" y="-27.4" font-family="Helvetica,sans-Serif" font-size="12.00" fill="#000000">has&#45;a</text>
</g>
</g>
</svg>
