<?xml version="1.0" encoding="UTF-8" standalone="no"?>
<!DOCTYPE svg PUBLIC "-//W3C//DTD SVG 1.1//EN"
 "http://www.w3.org/Graphics/SVG/1.1/DTD/svg11.dtd">
<!-- Generated by graphviz version 2.40.1 (20161225.0304)
 -->
<!-- Title: graphic Pages: 1 -->
<svg width="396pt" height="154pt"
 viewBox="0.00 0.00 396.00 153.50" xmlns="http://www.w3.org/2000/svg" xmlns:xlink="http://www.w3.org/1999/xlink">
<g id="graph0" class="graph" transform="scale(1 1) rotate(0) translate(4 149.5)">
<title>graphic</title>
<polygon fill="#ffffff" stroke="transparent" points="-4,4 -4,-149.5 392,-149.5 392,4 -4,4"/>
<!-- ncic:TYPACodeType -->
<g id="node1" class="node">
<title>ncic:TYPACodeType</title>
<text text-anchor="start" x="176" y="-25.4" font-family="Helvetica,sans-Serif" font-weight="bold" font-size="12.00" fill="#000000">ncic:TYPACodeType</text>
<g id="a_node1_0"><a xlink:href="../../structures/SimpleObjectAttributeGroup/#diagram" xlink:title="A group of attributes that are applicable to objects, to be used when defining a complex type that is an extension of a simple type." target="_top">
<polygon fill="#ebebeb" stroke="transparent" points="175,-5 175,-20 383,-20 383,-5 175,-5"/>
<text text-anchor="start" x="176" y="-9.4" font-family="Helvetica,sans-Serif" font-size="12.00" fill="#000000">structures:SimpleObjectAttributeGroup</text>
</a>
</g>
<polygon fill="#ff0000" stroke="#ff0000" points="170,-20 170,-20 388,-20 388,-20 170,-20"/>
<polygon fill="none" stroke="#ff0000" stroke-width="5" points="172.5,-2.5 172.5,-37.5 385.5,-37.5 385.5,-2.5 172.5,-2.5"/>
</g>
<!-- Properties -->
<g id="node2" class="node">
<title>Properties</title>
<text text-anchor="start" x="2.5" y="-25.4" font-family="Helvetica,sans-Serif" font-weight="bold" font-size="12.00" fill="#000000">Properties</text>
<g id="a_node2_1"><a xlink:href="../../j/ItemCategoryCode/#diagram" xlink:title="A kind of item." target="_top">
<polygon fill="#ebebeb" stroke="transparent" points="1.5,-5 1.5,-20 110.5,-20 110.5,-5 1.5,-5"/>
<text text-anchor="start" x="2.5" y="-9.4" font-family="Helvetica,sans-Serif" font-size="12.00" fill="#000000">j:ItemCategoryCode</text>
</a>
</g>
<polygon fill="#000000" stroke="#000000" points=".5,-20 .5,-20 111.5,-20 111.5,-20 .5,-20"/>
<polygon fill="none" stroke="#000000" points="0,-4 0,-36 111,-36 111,-4 0,-4"/>
</g>
<!-- Properties&#45;&gt;ncic:TYPACodeType -->
<g id="edge1" class="edge">
<title>Properties:top&#45;&gt;ncic:TYPACodeType:top</title>
<path fill="none" stroke="#000000" d="M110.5,-28C135.4714,-28 144.1284,-28 164.8937,-28"/>
<polygon fill="#000000" stroke="#000000" points="165,-31.5001 175,-28 165,-24.5001 165,-31.5001"/>
<text text-anchor="middle" x="140.5" y="-31.4" font-family="Helvetica,sans-Serif" font-size="12.00" fill="#000000">type</text>
</g>
<!-- ncic:TYPACodeSimpleType -->
<g id="node3" class="node">
<title>ncic:TYPACodeSimpleType</title>
<g id="a_node3_2"><a xlink:href="../../ncic/TYPACodeSimpleType/#diagram" xlink:title="A data type for 1.1: Article Category Type (TYP) Field Codes" target="_top">
<text text-anchor="start" x="205" y="-80.4" font-family="Helvetica,sans-Serif" font-size="12.00" fill="#000000">ncic:TYPACodeSimpleType</text>
</a>
</g>
<polygon fill="none" stroke="#000000" points="202.5,-75.5 202.5,-92.5 355.5,-92.5 355.5,-75.5 202.5,-75.5"/>
</g>
<!-- ncic:TYPACodeSimpleType&#45;&gt;ncic:TYPACodeType -->
<g id="edge2" class="edge">
<title>ncic:TYPACodeSimpleType&#45;&gt;ncic:TYPACodeType</title>
<path fill="none" stroke="#000000" d="M279,-75.4351C279,-68.931 279,-59.5678 279,-50.3827"/>
<polygon fill="#000000" stroke="#000000" points="282.5001,-50.25 279,-40.25 275.5001,-50.25 282.5001,-50.25"/>
<text text-anchor="middle" x="269.5" y="-54.65" font-family="Helvetica,sans-Serif" font-size="12.00" fill="#000000">extension</text>
</g>
<!-- xs:token -->
<g id="node4" class="node">
<title>xs:token</title>
<g id="a_node4_3"><a xlink:href="../../xs/token/#diagram" xlink:title="&lt;TABLE&gt;" target="_top">
<text text-anchor="start" x="257" y="-133.4" font-family="Helvetica,sans-Serif" font-size="12.00" fill="#000000">xs:token</text>
</a>
</g>
<polygon fill="none" stroke="#000000" points="254.5,-128.5 254.5,-145.5 303.5,-145.5 303.5,-128.5 254.5,-128.5"/>
</g>
<!-- xs:token&#45;&gt;ncic:TYPACodeSimpleType -->
<g id="edge3" class="edge">
<title>xs:token&#45;&gt;ncic:TYPACodeSimpleType</title>
<path fill="none" stroke="#000000" d="M279,-128.411C279,-121.5124 279,-111.5696 279,-102.84"/>
<polygon fill="#000000" stroke="#000000" points="282.5001,-102.7518 279,-92.7519 275.5001,-102.7519 282.5001,-102.7518"/>
<text text-anchor="middle" x="269.5" y="-107.4" font-family="Helvetica,sans-Serif" font-size="12.00" fill="#000000">restriction</text>
</g>
</g>
</svg>
