<?xml version="1.0" encoding="UTF-8" standalone="no"?>
<!DOCTYPE svg PUBLIC "-//W3C//DTD SVG 1.1//EN"
 "http://www.w3.org/Graphics/SVG/1.1/DTD/svg11.dtd">
<!-- Generated by graphviz version 2.40.1 (20161225.0304)
 -->
<!-- Title: graphic Pages: 1 -->
<svg width="697pt" height="45pt"
 viewBox="0.00 0.00 697.00 45.00" xmlns="http://www.w3.org/2000/svg" xmlns:xlink="http://www.w3.org/1999/xlink">
<g id="graph0" class="graph" transform="scale(1 1) rotate(0) translate(4 41)">
<title>graphic</title>
<polygon fill="#ffffff" stroke="transparent" points="-4,4 -4,-41 693,-41 693,4 -4,4"/>
<!-- hs:AFCARSPermanencyGoalCode -->
<g id="node1" class="node">
<title>hs:AFCARSPermanencyGoalCode</title>
<text text-anchor="start" x="210.5" y="-21.4" font-family="Helvetica,sans-Serif" font-weight="bold" font-size="12.00" fill="#000000">hs:AFCARSPermanencyGoalCode</text>
<polygon fill="none" stroke="#ff0000" stroke-width="5" points="206.5,-14 206.5,-34 410.5,-34 410.5,-14 206.5,-14"/>
</g>
<!-- hs:AFCARSPermanencyGoalCodeType -->
<g id="node3" class="node">
<title>hs:AFCARSPermanencyGoalCodeType</title>
<g id="a_node3_0"><a xlink:href="../../hs/AFCARSPermanencyGoalCodeType/#diagram" xlink:title="A data type for a list of case plan goals for permanency defined for the Adoption and Foster Care Analysis Reporting System in 45 CFR 1355, Appendix A, roman numeral VI." target="_top">
<text text-anchor="start" x="474.5" y="-20.4" font-family="Helvetica,sans-Serif" font-size="12.00" fill="#000000">hs:AFCARSPermanencyGoalCodeType</text>
</a>
</g>
<polygon fill="none" stroke="#000000" points="472,-15.5 472,-32.5 689,-32.5 689,-15.5 472,-15.5"/>
</g>
<!-- hs:AFCARSPermanencyGoalCode&#45;&gt;hs:AFCARSPermanencyGoalCodeType -->
<g id="edge2" class="edge">
<title>hs:AFCARSPermanencyGoalCode&#45;&gt;hs:AFCARSPermanencyGoalCodeType</title>
<path fill="none" stroke="#000000" d="M413.2732,-24C428.987,-24 445.2888,-24 461.2765,-24"/>
<polygon fill="#000000" stroke="#000000" points="461.728,-27.5001 471.7279,-24 461.7279,-20.5001 461.728,-27.5001"/>
<text text-anchor="middle" x="442.5" y="-27.4" font-family="Helvetica,sans-Serif" font-size="12.00" fill="#000000">type</text>
</g>
<!-- Types -->
<g id="node2" class="node">
<title>Types</title>
<text text-anchor="start" x="2.5" y="-21.4" font-family="Helvetica,sans-Serif" font-weight="bold" font-size="12.00" fill="#000000">Types</text>
<g id="a_node2_1"><a xlink:href="../../hs/ServicePlanGoalType/#diagram" xlink:title="A data type for elements that describe a service plan goal." target="_top">
<polygon fill="#ebebeb" stroke="transparent" points="1.5,-1 1.5,-16 136.5,-16 136.5,-1 1.5,-1"/>
<text text-anchor="start" x="2.5" y="-5.4" font-family="Helvetica,sans-Serif" font-size="12.00" fill="#000000">hs:ServicePlanGoalType</text>
</a>
</g>
<polygon fill="#000000" stroke="#000000" points=".5,-16 .5,-16 137.5,-16 137.5,-16 .5,-16"/>
<polygon fill="none" stroke="#000000" points="0,0 0,-32 137,-32 137,0 0,0"/>
</g>
<!-- Types&#45;&gt;hs:AFCARSPermanencyGoalCode -->
<g id="edge1" class="edge">
<title>Types:top&#45;&gt;hs:AFCARSPermanencyGoalCode</title>
<path fill="none" stroke="#000000" d="M136.5,-24C154.9777,-24 174.572,-24 193.6636,-24"/>
<polygon fill="#000000" stroke="#000000" points="193.8991,-27.5001 203.899,-24 193.899,-20.5001 193.8991,-27.5001"/>
<text text-anchor="middle" x="170.5" y="-27.4" font-family="Helvetica,sans-Serif" font-size="12.00" fill="#000000">has&#45;a</text>
</g>
</g>
</svg>
