<?xml version="1.0" encoding="UTF-8" standalone="no"?>
<!DOCTYPE svg PUBLIC "-//W3C//DTD SVG 1.1//EN"
 "http://www.w3.org/Graphics/SVG/1.1/DTD/svg11.dtd">
<!-- Generated by graphviz version 2.40.1 (20161225.0304)
 -->
<!-- Title: graphic Pages: 1 -->
<svg width="558pt" height="60pt"
 viewBox="0.00 0.00 558.00 59.50" xmlns="http://www.w3.org/2000/svg" xmlns:xlink="http://www.w3.org/1999/xlink">
<g id="graph0" class="graph" transform="scale(1 1) rotate(0) translate(4 55.5)">
<title>graphic</title>
<polygon fill="#ffffff" stroke="transparent" points="-4,4 -4,-55.5 554,-55.5 554,4 -4,4"/>
<!-- biom:ProcessingCommentText -->
<g id="node1" class="node">
<title>biom:ProcessingCommentText</title>
<text text-anchor="start" x="236" y="-35.9" font-family="Helvetica,sans-Serif" font-weight="bold" font-size="12.00" fill="#000000">biom:ProcessingCommentText</text>
<polygon fill="none" stroke="#ff0000" stroke-width="5" points="232.5,-28.5 232.5,-48.5 417.5,-48.5 417.5,-28.5 232.5,-28.5"/>
</g>
<!-- nc:TextType -->
<g id="node3" class="node">
<title>nc:TextType</title>
<g id="a_node3_0"><a xlink:href="../../nc/TextType/#diagram" xlink:title="A data type for a character string." target="_top">
<text text-anchor="start" x="481.5" y="-34.9" font-family="Helvetica,sans-Serif" font-size="12.00" fill="#000000">nc:TextType</text>
</a>
</g>
<polygon fill="none" stroke="#000000" points="479,-30 479,-47 550,-47 550,-30 479,-30"/>
</g>
<!-- biom:ProcessingCommentText&#45;&gt;nc:TextType -->
<g id="edge2" class="edge">
<title>biom:ProcessingCommentText&#45;&gt;nc:TextType</title>
<path fill="none" stroke="#000000" d="M420.0276,-38.5C436.9706,-38.5 453.9018,-38.5 468.654,-38.5"/>
<polygon fill="#000000" stroke="#000000" points="468.9799,-42.0001 478.9799,-38.5 468.9798,-35.0001 468.9799,-42.0001"/>
<text text-anchor="middle" x="449.5" y="-41.9" font-family="Helvetica,sans-Serif" font-size="12.00" fill="#000000">type</text>
</g>
<!-- Types -->
<g id="node2" class="node">
<title>Types</title>
<text text-anchor="start" x="2.5" y="-35.9" font-family="Helvetica,sans-Serif" font-weight="bold" font-size="12.00" fill="#000000">Types</text>
<g id="a_node2_1"><a xlink:href="../../biom/AudioInformationType/#diagram" xlink:title="A data type for a description of specific time segments within a voice recording, and their processing." target="_top">
<polygon fill="#ebebeb" stroke="transparent" points="1.5,-15.5 1.5,-30.5 162.5,-30.5 162.5,-15.5 1.5,-15.5"/>
<text text-anchor="start" x="2.5" y="-19.9" font-family="Helvetica,sans-Serif" font-size="12.00" fill="#000000">biom:AudioInformationType</text>
</a>
</g>
<g id="a_node2_2"><a xlink:href="../../biom/ContentInformationType/#diagram" xlink:title="A data type for indicating a recording&#39;s diarization status and the diarizing agency" target="_top">
<text text-anchor="start" x="2.5" y="-4.9" font-family="Helvetica,sans-Serif" font-size="12.00" fill="#000000">biom:ContentInformationType</text>
</a>
</g>
<polygon fill="#000000" stroke="#000000" points=".5,-30.5 .5,-30.5 163.5,-30.5 163.5,-30.5 .5,-30.5"/>
<polygon fill="none" stroke="#000000" points="0,0 0,-47 163,-47 163,0 0,0"/>
</g>
<!-- Types&#45;&gt;biom:ProcessingCommentText -->
<g id="edge1" class="edge">
<title>Types:top&#45;&gt;biom:ProcessingCommentText</title>
<path fill="none" stroke="#000000" d="M162.5,-38.5C180.9137,-38.5 200.5011,-38.5 219.4667,-38.5"/>
<polygon fill="#000000" stroke="#000000" points="219.6218,-42.0001 229.6218,-38.5 219.6217,-35.0001 219.6218,-42.0001"/>
<text text-anchor="middle" x="196.5" y="-41.9" font-family="Helvetica,sans-Serif" font-size="12.00" fill="#000000">has&#45;a</text>
</g>
</g>
</svg>
