<?xml version="1.0" encoding="UTF-8" standalone="no"?>
<!DOCTYPE svg PUBLIC "-//W3C//DTD SVG 1.1//EN"
 "http://www.w3.org/Graphics/SVG/1.1/DTD/svg11.dtd">
<!-- Generated by graphviz version 2.40.1 (20161225.0304)
 -->
<!-- Title: graphic Pages: 1 -->
<svg width="674pt" height="45pt"
 viewBox="0.00 0.00 674.00 45.00" xmlns="http://www.w3.org/2000/svg" xmlns:xlink="http://www.w3.org/1999/xlink">
<g id="graph0" class="graph" transform="scale(1 1) rotate(0) translate(4 41)">
<title>graphic</title>
<polygon fill="#ffffff" stroke="transparent" points="-4,4 -4,-41 670,-41 670,4 -4,4"/>
<!-- cbrn:FWHMUncertaintyValueList -->
<g id="node1" class="node">
<title>cbrn:FWHMUncertaintyValueList</title>
<text text-anchor="start" x="226.5" y="-21.4" font-family="Helvetica,sans-Serif" font-weight="bold" font-size="12.00" fill="#000000">cbrn:FWHMUncertaintyValueList</text>
<polygon fill="none" stroke="#ff0000" stroke-width="5" points="222.5,-14 222.5,-34 416.5,-34 416.5,-14 222.5,-14"/>
</g>
<!-- cbrn:FWHMUncertaintiesKeVType -->
<g id="node3" class="node">
<title>cbrn:FWHMUncertaintiesKeVType</title>
<g id="a_node3_0"><a xlink:href="../../cbrn/FWHMUncertaintiesKeVType/#diagram" xlink:title="A data type for FWHM uncertainty measure whose values are nonnegative and measured in keV." target="_top">
<text text-anchor="start" x="480" y="-20.4" font-family="Helvetica,sans-Serif" font-size="12.00" fill="#000000">cbrn:FWHMUncertaintiesKeVType</text>
</a>
</g>
<polygon fill="none" stroke="#000000" points="478,-15.5 478,-32.5 666,-32.5 666,-15.5 478,-15.5"/>
</g>
<!-- cbrn:FWHMUncertaintyValueList&#45;&gt;cbrn:FWHMUncertaintiesKeVType -->
<g id="edge2" class="edge">
<title>cbrn:FWHMUncertaintyValueList&#45;&gt;cbrn:FWHMUncertaintiesKeVType</title>
<path fill="none" stroke="#000000" d="M419.2947,-24C435.1256,-24 451.5377,-24 467.4736,-24"/>
<polygon fill="#000000" stroke="#000000" points="467.8662,-27.5001 477.8661,-24 467.8661,-20.5001 467.8662,-27.5001"/>
<text text-anchor="middle" x="448.5" y="-27.4" font-family="Helvetica,sans-Serif" font-size="12.00" fill="#000000">type</text>
</g>
<!-- Types -->
<g id="node2" class="node">
<title>Types</title>
<text text-anchor="start" x="2.5" y="-21.4" font-family="Helvetica,sans-Serif" font-weight="bold" font-size="12.00" fill="#000000">Types</text>
<g id="a_node2_1"><a xlink:href="../../cbrn/FWHMCalibrationType/#diagram" xlink:title="A data type for a FWHM calibration." target="_top">
<polygon fill="#ebebeb" stroke="transparent" points="1.5,-1 1.5,-16 152.5,-16 152.5,-1 1.5,-1"/>
<text text-anchor="start" x="2.5" y="-5.4" font-family="Helvetica,sans-Serif" font-size="12.00" fill="#000000">cbrn:FWHMCalibrationType</text>
</a>
</g>
<polygon fill="#000000" stroke="#000000" points=".5,-16 .5,-16 153.5,-16 153.5,-16 .5,-16"/>
<polygon fill="none" stroke="#000000" points="0,0 0,-32 153,-32 153,0 0,0"/>
</g>
<!-- Types&#45;&gt;cbrn:FWHMUncertaintyValueList -->
<g id="edge1" class="edge">
<title>Types:top&#45;&gt;cbrn:FWHMUncertaintyValueList</title>
<path fill="none" stroke="#000000" d="M152.5,-24C170.9321,-24 190.5086,-24 209.5243,-24"/>
<polygon fill="#000000" stroke="#000000" points="209.7128,-27.5001 219.7127,-24 209.7127,-20.5001 209.7128,-27.5001"/>
<text text-anchor="middle" x="186.5" y="-27.4" font-family="Helvetica,sans-Serif" font-size="12.00" fill="#000000">has&#45;a</text>
</g>
</g>
</svg>
