<?xml version="1.0" encoding="UTF-8" standalone="no"?>
<!DOCTYPE svg PUBLIC "-//W3C//DTD SVG 1.1//EN"
 "http://www.w3.org/Graphics/SVG/1.1/DTD/svg11.dtd">
<!-- Generated by graphviz version 2.40.1 (20161225.0304)
 -->
<!-- Title: graphic Pages: 1 -->
<svg width="451pt" height="45pt"
 viewBox="0.00 0.00 451.00 45.00" xmlns="http://www.w3.org/2000/svg" xmlns:xlink="http://www.w3.org/1999/xlink">
<g id="graph0" class="graph" transform="scale(1 1) rotate(0) translate(4 41)">
<title>graphic</title>
<polygon fill="#ffffff" stroke="transparent" points="-4,4 -4,-41 447,-41 447,4 -4,4"/>
<!-- j:BailConditionDescriptionText -->
<g id="node1" class="node">
<title>j:BailConditionDescriptionText</title>
<text text-anchor="start" x="130.5" y="-21.4" font-family="Helvetica,sans-Serif" font-weight="bold" font-size="12.00" fill="#000000">j:BailConditionDescriptionText</text>
<polygon fill="none" stroke="#ff0000" stroke-width="5" points="126.5,-14 126.5,-34 310.5,-34 310.5,-14 126.5,-14"/>
</g>
<!-- nc:TextType -->
<g id="node3" class="node">
<title>nc:TextType</title>
<g id="a_node3_0"><a xlink:href="../../nc/TextType/#diagram" xlink:title="A data type for a character string." target="_top">
<text text-anchor="start" x="374.5" y="-20.4" font-family="Helvetica,sans-Serif" font-size="12.00" fill="#000000">nc:TextType</text>
</a>
</g>
<polygon fill="none" stroke="#000000" points="372,-15.5 372,-32.5 443,-32.5 443,-15.5 372,-15.5"/>
</g>
<!-- j:BailConditionDescriptionText&#45;&gt;nc:TextType -->
<g id="edge2" class="edge">
<title>j:BailConditionDescriptionText&#45;&gt;nc:TextType</title>
<path fill="none" stroke="#000000" d="M313.2769,-24C330.0269,-24 346.7654,-24 361.3873,-24"/>
<polygon fill="#000000" stroke="#000000" points="361.6302,-27.5001 371.6301,-24 361.6301,-20.5001 361.6302,-27.5001"/>
<text text-anchor="middle" x="342.5" y="-27.4" font-family="Helvetica,sans-Serif" font-size="12.00" fill="#000000">type</text>
</g>
<!-- Types -->
<g id="node2" class="node">
<title>Types</title>
<text text-anchor="start" x="2.5" y="-21.4" font-family="Helvetica,sans-Serif" font-weight="bold" font-size="12.00" fill="#000000">Types</text>
<g id="a_node2_1"><a xlink:href="../../j/BailType/#diagram" xlink:title="A data type for details of a commitment made to secure the release of a subject being held in custody and suspected of a crime." target="_top">
<polygon fill="#ebebeb" stroke="transparent" points="1.5,-1 1.5,-16 56.5,-16 56.5,-1 1.5,-1"/>
<text text-anchor="start" x="2.5" y="-5.4" font-family="Helvetica,sans-Serif" font-size="12.00" fill="#000000">j:BailType</text>
</a>
</g>
<polygon fill="#000000" stroke="#000000" points=".5,-16 .5,-16 57.5,-16 57.5,-16 .5,-16"/>
<polygon fill="none" stroke="#000000" points="0,0 0,-32 57,-32 57,0 0,0"/>
</g>
<!-- Types&#45;&gt;j:BailConditionDescriptionText -->
<g id="edge1" class="edge">
<title>Types:top&#45;&gt;j:BailConditionDescriptionText</title>
<path fill="none" stroke="#000000" d="M56.5,-24C74.9763,-24 94.6378,-24 113.6597,-24"/>
<polygon fill="#000000" stroke="#000000" points="113.8432,-27.5001 123.8432,-24 113.8431,-20.5001 113.8432,-27.5001"/>
<text text-anchor="middle" x="90.5" y="-27.4" font-family="Helvetica,sans-Serif" font-size="12.00" fill="#000000">has&#45;a</text>
</g>
</g>
</svg>
