<?xml version="1.0" encoding="UTF-8" standalone="no"?>
<!DOCTYPE svg PUBLIC "-//W3C//DTD SVG 1.1//EN"
 "http://www.w3.org/Graphics/SVG/1.1/DTD/svg11.dtd">
<!-- Generated by graphviz version 2.40.1 (20161225.0304)
 -->
<!-- Title: graphic Pages: 1 -->
<svg width="243pt" height="154pt"
 viewBox="0.00 0.00 243.00 153.50" xmlns="http://www.w3.org/2000/svg" xmlns:xlink="http://www.w3.org/1999/xlink">
<g id="graph0" class="graph" transform="scale(1 1) rotate(0) translate(4 149.5)">
<title>graphic</title>
<polygon fill="#ffffff" stroke="transparent" points="-4,4 -4,-149.5 239,-149.5 239,4 -4,4"/>
<!-- biom:CBEFFCategoryCodeSimpleType -->
<g id="node1" class="node">
<title>biom:CBEFFCategoryCodeSimpleType</title>
<text text-anchor="start" x="6.5" y="-77.4" font-family="Helvetica,sans-Serif" font-weight="bold" font-size="12.00" fill="#000000">biom:CBEFFCategoryCodeSimpleType</text>
<polygon fill="none" stroke="#ff0000" stroke-width="5" points="2.5,-70 2.5,-90 232.5,-90 232.5,-70 2.5,-70"/>
</g>
<!-- DerivedTypes -->
<g id="node2" class="node">
<title>DerivedTypes</title>
<text text-anchor="start" x="31.5" y="-21.4" font-family="Helvetica,sans-Serif" font-weight="bold" font-size="12.00" fill="#000000">Derived types</text>
<g id="a_node2_0"><a xlink:href="../../biom/CBEFFCategoryCodeType/#diagram" xlink:title="A data type for describing a biometric modality defined by CBEFF" target="_top">
<polygon fill="#ebebeb" stroke="transparent" points="30.5,-1 30.5,-16 205.5,-16 205.5,-1 30.5,-1"/>
<text text-anchor="start" x="31.5" y="-5.4" font-family="Helvetica,sans-Serif" font-size="12.00" fill="#000000">biom:CBEFFCategoryCodeType</text>
</a>
</g>
<polygon fill="#000000" stroke="#000000" points="29.5,-16 29.5,-16 206.5,-16 206.5,-16 29.5,-16"/>
<polygon fill="none" stroke="#000000" points="29,0 29,-32 206,-32 206,0 29,0"/>
</g>
<!-- biom:CBEFFCategoryCodeSimpleType&#45;&gt;DerivedTypes -->
<g id="edge1" class="edge">
<title>biom:CBEFFCategoryCodeSimpleType&#45;&gt;DerivedTypes</title>
<path fill="none" stroke="#000000" d="M117.5,-67.4892C117.5,-60.3101 117.5,-51.0172 117.5,-42.306"/>
<polygon fill="#000000" stroke="#000000" points="121.0001,-42.1499 117.5,-32.1499 114.0001,-42.1499 121.0001,-42.1499"/>
<text text-anchor="middle" x="108" y="-46.65" font-family="Helvetica,sans-Serif" font-size="12.00" fill="#000000">derived</text>
</g>
<!-- xs:hexBinary -->
<g id="node3" class="node">
<title>xs:hexBinary</title>
<g id="a_node3_1"><a xlink:href="../../xs/hexBinary/#diagram" xlink:title="&lt;TABLE&gt;" target="_top">
<text text-anchor="start" x="83.5" y="-133.4" font-family="Helvetica,sans-Serif" font-size="12.00" fill="#000000">xs:hexBinary</text>
</a>
</g>
<polygon fill="none" stroke="#000000" points="81,-128.5 81,-145.5 154,-145.5 154,-128.5 81,-128.5"/>
</g>
<!-- xs:hexBinary&#45;&gt;biom:CBEFFCategoryCodeSimpleType -->
<g id="edge2" class="edge">
<title>xs:hexBinary&#45;&gt;biom:CBEFFCategoryCodeSimpleType</title>
<path fill="none" stroke="#000000" d="M117.5,-128.4473C117.5,-121.6242 117.5,-111.7417 117.5,-102.6794"/>
<polygon fill="#000000" stroke="#000000" points="121.0001,-102.6501 117.5,-92.6501 114.0001,-102.6502 121.0001,-102.6501"/>
<text text-anchor="middle" x="108" y="-107.4" font-family="Helvetica,sans-Serif" font-size="12.00" fill="#000000">restriction</text>
</g>
</g>
</svg>
