<?xml version="1.0" encoding="UTF-8" standalone="no"?>
<!DOCTYPE svg PUBLIC "-//W3C//DTD SVG 1.1//EN"
 "http://www.w3.org/Graphics/SVG/1.1/DTD/svg11.dtd">
<!-- Generated by graphviz version 2.40.1 (20161225.0304)
 -->
<!-- Title: graphic Pages: 1 -->
<svg width="343pt" height="101pt"
 viewBox="0.00 0.00 343.00 101.00" xmlns="http://www.w3.org/2000/svg" xmlns:xlink="http://www.w3.org/1999/xlink">
<g id="graph0" class="graph" transform="scale(1 1) rotate(0) translate(4 97)">
<title>graphic</title>
<polygon fill="#ffffff" stroke="transparent" points="-4,4 -4,-97 339,-97 339,4 -4,4"/>
<!-- j:StatuteCategoryAbstract -->
<g id="node1" class="node">
<title>j:StatuteCategoryAbstract</title>
<text text-anchor="start" x="164.5" y="-77.4" font-family="Helvetica,sans-Serif" font-weight="bold" font-size="12.00" fill="#000000">j:StatuteCategoryAbstract</text>
<polygon fill="none" stroke="#ff0000" stroke-width="5" points="160.5,-70 160.5,-90 316.5,-90 316.5,-70 160.5,-70"/>
</g>
<!-- SubstitutableElements -->
<g id="node3" class="node">
<title>SubstitutableElements</title>
<text text-anchor="start" x="144.5" y="-21.4" font-family="Helvetica,sans-Serif" font-weight="bold" font-size="12.00" fill="#000000">Substitutable elements</text>
<g id="a_node3_0"><a xlink:href="../../j/StatuteCategoryText/#diagram" xlink:title="A kind of statute." target="_top">
<polygon fill="#ebebeb" stroke="transparent" points="143.5,-1 143.5,-16 334.5,-16 334.5,-1 143.5,-1"/>
<text text-anchor="start" x="144.5" y="-5.4" font-family="Helvetica,sans-Serif" font-size="12.00" fill="#000000">j:StatuteCategoryText: nc:TextType</text>
</a>
</g>
<polygon fill="#000000" stroke="#000000" points="142.5,-16 142.5,-16 335.5,-16 335.5,-16 142.5,-16"/>
<polygon fill="none" stroke="#000000" points="142,0 142,-32 335,-32 335,0 142,0"/>
</g>
<!-- j:StatuteCategoryAbstract&#45;&gt;SubstitutableElements -->
<g id="edge2" class="edge">
<title>j:StatuteCategoryAbstract&#45;&gt;SubstitutableElements</title>
<path fill="none" stroke="#000000" d="M238.5,-57.3063C238.5,-48.9972 238.5,-39.7712 238.5,-32.1499"/>
<polygon fill="#000000" stroke="#000000" points="235.0001,-57.4892 238.5,-67.4892 242.0001,-57.4892 235.0001,-57.4892"/>
<text text-anchor="middle" x="229" y="-46.65" font-family="Helvetica,sans-Serif" font-size="12.00" fill="#000000">substitutable for</text>
</g>
<!-- Types -->
<g id="node2" class="node">
<title>Types</title>
<text text-anchor="start" x="2.5" y="-77.4" font-family="Helvetica,sans-Serif" font-weight="bold" font-size="12.00" fill="#000000">Types</text>
<g id="a_node2_1"><a xlink:href="../../j/StatuteType/#diagram" xlink:title="A data type for a law, rule, or ordinance within a jurisdiction." target="_top">
<polygon fill="#ebebeb" stroke="transparent" points="1.5,-57 1.5,-72 74.5,-72 74.5,-57 1.5,-57"/>
<text text-anchor="start" x="2.5" y="-61.4" font-family="Helvetica,sans-Serif" font-size="12.00" fill="#000000">j:StatuteType</text>
</a>
</g>
<polygon fill="#000000" stroke="#000000" points=".5,-72 .5,-72 75.5,-72 75.5,-72 .5,-72"/>
<polygon fill="none" stroke="#000000" points="0,-56 0,-88 75,-88 75,-56 0,-56"/>
</g>
<!-- Types&#45;&gt;j:StatuteCategoryAbstract -->
<g id="edge1" class="edge">
<title>Types:top&#45;&gt;j:StatuteCategoryAbstract</title>
<path fill="none" stroke="#000000" d="M74.5,-80C98.1675,-80 123.7563,-80 147.5233,-80"/>
<polygon fill="#000000" stroke="#000000" points="147.5867,-83.5001 157.5867,-80 147.5867,-76.5001 147.5867,-83.5001"/>
<text text-anchor="middle" x="108.5" y="-83.4" font-family="Helvetica,sans-Serif" font-size="12.00" fill="#000000">has&#45;a</text>
</g>
</g>
</svg>
