<?xml version="1.0" encoding="UTF-8" standalone="no"?>
<!DOCTYPE svg PUBLIC "-//W3C//DTD SVG 1.1//EN"
 "http://www.w3.org/Graphics/SVG/1.1/DTD/svg11.dtd">
<!-- Generated by graphviz version 2.40.1 (20161225.0304)
 -->
<!-- Title: graphic Pages: 1 -->
<svg width="642pt" height="45pt"
 viewBox="0.00 0.00 642.00 45.00" xmlns="http://www.w3.org/2000/svg" xmlns:xlink="http://www.w3.org/1999/xlink">
<g id="graph0" class="graph" transform="scale(1 1) rotate(0) translate(4 41)">
<title>graphic</title>
<polygon fill="#ffffff" stroke="transparent" points="-4,4 -4,-41 638,-41 638,4 -4,4"/>
<!-- stat:ProcessStepSpecifiedProcessDesign -->
<g id="node1" class="node">
<title>stat:ProcessStepSpecifiedProcessDesign</title>
<text text-anchor="start" x="195.5" y="-21.4" font-family="Helvetica,sans-Serif" font-weight="bold" font-size="12.00" fill="#000000">stat:ProcessStepSpecifiedProcessDesign</text>
<polygon fill="none" stroke="#ff0000" stroke-width="5" points="191.5,-14 191.5,-34 437.5,-34 437.5,-14 191.5,-14"/>
</g>
<!-- stat:ProcessDesignType -->
<g id="node3" class="node">
<title>stat:ProcessDesignType</title>
<g id="a_node3_0"><a xlink:href="../../stat/ProcessDesignType/#diagram" xlink:title="A data type for a process design specifies delivery of business functions." target="_top">
<text text-anchor="start" x="501.5" y="-20.4" font-family="Helvetica,sans-Serif" font-size="12.00" fill="#000000">stat:ProcessDesignType</text>
</a>
</g>
<polygon fill="none" stroke="#000000" points="499,-15.5 499,-32.5 634,-32.5 634,-15.5 499,-15.5"/>
</g>
<!-- stat:ProcessStepSpecifiedProcessDesign&#45;&gt;stat:ProcessDesignType -->
<g id="edge2" class="edge">
<title>stat:ProcessStepSpecifiedProcessDesign&#45;&gt;stat:ProcessDesignType</title>
<path fill="none" stroke="#000000" d="M440.1309,-24C456.5588,-24 472.9951,-24 488.3228,-24"/>
<polygon fill="#000000" stroke="#000000" points="488.7434,-27.5001 498.7434,-24 488.7433,-20.5001 488.7434,-27.5001"/>
<text text-anchor="middle" x="469.5" y="-27.4" font-family="Helvetica,sans-Serif" font-size="12.00" fill="#000000">type</text>
</g>
<!-- Types -->
<g id="node2" class="node">
<title>Types</title>
<text text-anchor="start" x="2" y="-21.4" font-family="Helvetica,sans-Serif" font-weight="bold" font-size="12.00" fill="#000000">Types</text>
<g id="a_node2_1"><a xlink:href="../../stat/ProcessStepType/#diagram" xlink:title="A data type for a work package that performs a business process." target="_top">
<polygon fill="#ebebeb" stroke="transparent" points="1,-1 1,-16 121,-16 121,-1 1,-1"/>
<text text-anchor="start" x="2" y="-5.4" font-family="Helvetica,sans-Serif" font-size="12.00" fill="#000000">stat:ProcessStepType</text>
</a>
</g>
<polygon fill="#000000" stroke="#000000" points="0,-16 0,-16 122,-16 122,-16 0,-16"/>
<polygon fill="none" stroke="#000000" points="0,0 0,-32 122,-32 122,0 0,0"/>
</g>
<!-- Types&#45;&gt;stat:ProcessStepSpecifiedProcessDesign -->
<g id="edge1" class="edge">
<title>Types:top&#45;&gt;stat:ProcessStepSpecifiedProcessDesign</title>
<path fill="none" stroke="#000000" d="M121,-24C139.6662,-24 159.3452,-24 178.7181,-24"/>
<polygon fill="#000000" stroke="#000000" points="178.814,-27.5001 188.814,-24 178.8139,-20.5001 178.814,-27.5001"/>
<text text-anchor="middle" x="155.5" y="-27.4" font-family="Helvetica,sans-Serif" font-size="12.00" fill="#000000">has&#45;a</text>
</g>
</g>
</svg>
