<?xml version="1.0" encoding="UTF-8" standalone="no"?>
<!DOCTYPE svg PUBLIC "-//W3C//DTD SVG 1.1//EN"
 "http://www.w3.org/Graphics/SVG/1.1/DTD/svg11.dtd">
<!-- Generated by graphviz version 2.40.1 (20161225.0304)
 -->
<!-- Title: graphic Pages: 1 -->
<svg width="463pt" height="45pt"
 viewBox="0.00 0.00 463.00 45.00" xmlns="http://www.w3.org/2000/svg" xmlns:xlink="http://www.w3.org/1999/xlink">
<g id="graph0" class="graph" transform="scale(1 1) rotate(0) translate(4 41)">
<title>graphic</title>
<polygon fill="#ffffff" stroke="transparent" points="-4,4 -4,-41 459,-41 459,4 -4,4"/>
<!-- em:AgencySymbol -->
<g id="node1" class="node">
<title>em:AgencySymbol</title>
<text text-anchor="start" x="200.5" y="-21.4" font-family="Helvetica,sans-Serif" font-weight="bold" font-size="12.00" fill="#000000">em:AgencySymbol</text>
<polygon fill="none" stroke="#ff0000" stroke-width="5" points="196.5,-14 196.5,-34 312.5,-34 312.5,-14 196.5,-14"/>
</g>
<!-- nc:BinaryType -->
<g id="node3" class="node">
<title>nc:BinaryType</title>
<g id="a_node3_0"><a xlink:href="../../nc/BinaryType/#diagram" xlink:title="A data type for a digital representation of an object encoded in a binary format." target="_top">
<text text-anchor="start" x="376.5" y="-20.4" font-family="Helvetica,sans-Serif" font-size="12.00" fill="#000000">nc:BinaryType</text>
</a>
</g>
<polygon fill="none" stroke="#000000" points="374,-15.5 374,-32.5 455,-32.5 455,-15.5 374,-15.5"/>
</g>
<!-- em:AgencySymbol&#45;&gt;nc:BinaryType -->
<g id="edge2" class="edge">
<title>em:AgencySymbol&#45;&gt;nc:BinaryType</title>
<path fill="none" stroke="#000000" d="M315.4456,-24C331.2314,-24 348.0682,-24 363.2981,-24"/>
<polygon fill="#000000" stroke="#000000" points="363.5525,-27.5001 373.5524,-24 363.5524,-20.5001 363.5525,-27.5001"/>
<text text-anchor="middle" x="344.5" y="-27.4" font-family="Helvetica,sans-Serif" font-size="12.00" fill="#000000">type</text>
</g>
<!-- Types -->
<g id="node2" class="node">
<title>Types</title>
<text text-anchor="start" x="2.5" y="-21.4" font-family="Helvetica,sans-Serif" font-weight="bold" font-size="12.00" fill="#000000">Types</text>
<g id="a_node2_1"><a xlink:href="../../em/PersonIDCardType/#diagram" xlink:title="A data type for a credential class that represents the identification of a human resource" target="_top">
<polygon fill="#ebebeb" stroke="transparent" points="1.5,-1 1.5,-16 126.5,-16 126.5,-1 1.5,-1"/>
<text text-anchor="start" x="2.5" y="-5.4" font-family="Helvetica,sans-Serif" font-size="12.00" fill="#000000">em:PersonIDCardType</text>
</a>
</g>
<polygon fill="#000000" stroke="#000000" points=".5,-16 .5,-16 127.5,-16 127.5,-16 .5,-16"/>
<polygon fill="none" stroke="#000000" points="0,0 0,-32 127,-32 127,0 0,0"/>
</g>
<!-- Types&#45;&gt;em:AgencySymbol -->
<g id="edge1" class="edge">
<title>Types:top&#45;&gt;em:AgencySymbol</title>
<path fill="none" stroke="#000000" d="M126.5,-24C145.0625,-24 165.1392,-24 183.7657,-24"/>
<polygon fill="#000000" stroke="#000000" points="183.9457,-27.5001 193.9457,-24 183.9456,-20.5001 183.9457,-27.5001"/>
<text text-anchor="middle" x="160.5" y="-27.4" font-family="Helvetica,sans-Serif" font-size="12.00" fill="#000000">has&#45;a</text>
</g>
</g>
</svg>
