<?xml version="1.0" encoding="UTF-8" standalone="no"?>
<!DOCTYPE svg PUBLIC "-//W3C//DTD SVG 1.1//EN"
 "http://www.w3.org/Graphics/SVG/1.1/DTD/svg11.dtd">
<!-- Generated by graphviz version 2.40.1 (20161225.0304)
 -->
<!-- Title: graphic Pages: 1 -->
<svg width="778pt" height="45pt"
 viewBox="0.00 0.00 778.00 45.00" xmlns="http://www.w3.org/2000/svg" xmlns:xlink="http://www.w3.org/1999/xlink">
<g id="graph0" class="graph" transform="scale(1 1) rotate(0) translate(4 41)">
<title>graphic</title>
<polygon fill="#ffffff" stroke="transparent" points="-4,4 -4,-41 774,-41 774,4 -4,4"/>
<!-- scr:PersonMedicalConditionStatus -->
<g id="node1" class="node">
<title>scr:PersonMedicalConditionStatus</title>
<text text-anchor="start" x="290" y="-21.4" font-family="Helvetica,sans-Serif" font-weight="bold" font-size="12.00" fill="#000000">scr:PersonMedicalConditionStatus</text>
<polygon fill="none" stroke="#ff0000" stroke-width="5" points="286.5,-14 286.5,-34 493.5,-34 493.5,-14 286.5,-14"/>
</g>
<!-- scr:PersonMedicalConditionStatusType -->
<g id="node3" class="node">
<title>scr:PersonMedicalConditionStatusType</title>
<g id="a_node3_0"><a xlink:href="../../scr/PersonMedicalConditionStatusType/#diagram" xlink:title="A data type for a PERSONs health problem and physical limitation that an officer should be cautious of." target="_top">
<text text-anchor="start" x="557.5" y="-20.4" font-family="Helvetica,sans-Serif" font-size="12.00" fill="#000000">scr:PersonMedicalConditionStatusType</text>
</a>
</g>
<polygon fill="none" stroke="#000000" points="555,-15.5 555,-32.5 770,-32.5 770,-15.5 555,-15.5"/>
</g>
<!-- scr:PersonMedicalConditionStatus&#45;&gt;scr:PersonMedicalConditionStatusType -->
<g id="edge2" class="edge">
<title>scr:PersonMedicalConditionStatus&#45;&gt;scr:PersonMedicalConditionStatusType</title>
<path fill="none" stroke="#000000" d="M496.1359,-24C512.1003,-24 528.6454,-24 544.8338,-24"/>
<polygon fill="#000000" stroke="#000000" points="544.8589,-27.5001 554.8589,-24 544.8588,-20.5001 544.8589,-27.5001"/>
<text text-anchor="middle" x="525.5" y="-27.4" font-family="Helvetica,sans-Serif" font-size="12.00" fill="#000000">type</text>
</g>
<!-- Types -->
<g id="node2" class="node">
<title>Types</title>
<text text-anchor="start" x="2.5" y="-21.4" font-family="Helvetica,sans-Serif" font-weight="bold" font-size="12.00" fill="#000000">Types</text>
<g id="a_node2_1"><a xlink:href="../../scr/MedicalConditionAugmentationType/#diagram" xlink:title="A data type for additional information about a medical condition of a person." target="_top">
<polygon fill="#ebebeb" stroke="transparent" points="1.5,-1 1.5,-16 216.5,-16 216.5,-1 1.5,-1"/>
<text text-anchor="start" x="2.5" y="-5.4" font-family="Helvetica,sans-Serif" font-size="12.00" fill="#000000">scr:MedicalConditionAugmentationType</text>
</a>
</g>
<polygon fill="#000000" stroke="#000000" points=".5,-16 .5,-16 217.5,-16 217.5,-16 .5,-16"/>
<polygon fill="none" stroke="#000000" points="0,0 0,-32 217,-32 217,0 0,0"/>
</g>
<!-- Types&#45;&gt;scr:PersonMedicalConditionStatus -->
<g id="edge1" class="edge">
<title>Types:top&#45;&gt;scr:PersonMedicalConditionStatus</title>
<path fill="none" stroke="#000000" d="M216.5,-24C234.8835,-24 254.3628,-24 273.3704,-24"/>
<polygon fill="#000000" stroke="#000000" points="273.564,-27.5001 283.5639,-24 273.5639,-20.5001 273.564,-27.5001"/>
<text text-anchor="middle" x="250.5" y="-27.4" font-family="Helvetica,sans-Serif" font-size="12.00" fill="#000000">has&#45;a</text>
</g>
</g>
</svg>
