<?xml version="1.0" encoding="UTF-8" standalone="no"?>
<!DOCTYPE svg PUBLIC "-//W3C//DTD SVG 1.1//EN"
 "http://www.w3.org/Graphics/SVG/1.1/DTD/svg11.dtd">
<!-- Generated by graphviz version 2.40.1 (20161225.0304)
 -->
<!-- Title: graphic Pages: 1 -->
<svg width="551pt" height="45pt"
 viewBox="0.00 0.00 551.00 45.00" xmlns="http://www.w3.org/2000/svg" xmlns:xlink="http://www.w3.org/1999/xlink">
<g id="graph0" class="graph" transform="scale(1 1) rotate(0) translate(4 41)">
<title>graphic</title>
<polygon fill="#ffffff" stroke="transparent" points="-4,4 -4,-41 547,-41 547,4 -4,4"/>
<!-- em:EMSTraffic -->
<g id="node1" class="node">
<title>em:EMSTraffic</title>
<text text-anchor="start" x="282.5" y="-21.4" font-family="Helvetica,sans-Serif" font-weight="bold" font-size="12.00" fill="#000000">em:EMSTraffic</text>
<polygon fill="none" stroke="#ff0000" stroke-width="5" points="278.5,-14 278.5,-34 370.5,-34 370.5,-14 278.5,-14"/>
</g>
<!-- em:EMSTrafficType -->
<g id="node3" class="node">
<title>em:EMSTrafficType</title>
<g id="a_node3_0"><a xlink:href="../../em/EMSTrafficType/#diagram" xlink:title="A data type for elements related to the status of operations of EMS traffic" target="_top">
<text text-anchor="start" x="434.5" y="-20.4" font-family="Helvetica,sans-Serif" font-size="12.00" fill="#000000">em:EMSTrafficType</text>
</a>
</g>
<polygon fill="none" stroke="#000000" points="432,-15.5 432,-32.5 543,-32.5 543,-15.5 432,-15.5"/>
</g>
<!-- em:EMSTraffic&#45;&gt;em:EMSTrafficType -->
<g id="edge2" class="edge">
<title>em:EMSTraffic&#45;&gt;em:EMSTrafficType</title>
<path fill="none" stroke="#000000" d="M373.4054,-24C388.4826,-24 405.3417,-24 421.3767,-24"/>
<polygon fill="#000000" stroke="#000000" points="421.768,-27.5001 431.768,-24 421.768,-20.5001 421.768,-27.5001"/>
<text text-anchor="middle" x="402.5" y="-27.4" font-family="Helvetica,sans-Serif" font-size="12.00" fill="#000000">type</text>
</g>
<!-- Types -->
<g id="node2" class="node">
<title>Types</title>
<text text-anchor="start" x="2.5" y="-21.4" font-family="Helvetica,sans-Serif" font-weight="bold" font-size="12.00" fill="#000000">Types</text>
<g id="a_node2_1"><a xlink:href="../../em/EmergencyDepartmentStatusType/#diagram" xlink:title="A data type for elements related to the emergency department status" target="_top">
<polygon fill="#ebebeb" stroke="transparent" points="1.5,-1 1.5,-16 208.5,-16 208.5,-1 1.5,-1"/>
<text text-anchor="start" x="2.5" y="-5.4" font-family="Helvetica,sans-Serif" font-size="12.00" fill="#000000">em:EmergencyDepartmentStatusType</text>
</a>
</g>
<polygon fill="#000000" stroke="#000000" points=".5,-16 .5,-16 209.5,-16 209.5,-16 .5,-16"/>
<polygon fill="none" stroke="#000000" points="0,0 0,-32 209,-32 209,0 0,0"/>
</g>
<!-- Types&#45;&gt;em:EMSTraffic -->
<g id="edge1" class="edge">
<title>Types:top&#45;&gt;em:EMSTraffic</title>
<path fill="none" stroke="#000000" d="M208.5,-24C227.1049,-24 247.3882,-24 265.7158,-24"/>
<polygon fill="#000000" stroke="#000000" points="265.9623,-27.5001 275.9623,-24 265.9622,-20.5001 265.9623,-27.5001"/>
<text text-anchor="middle" x="242.5" y="-27.4" font-family="Helvetica,sans-Serif" font-size="12.00" fill="#000000">has&#45;a</text>
</g>
</g>
</svg>
