<?xml version="1.0" encoding="UTF-8" standalone="no"?>
<!DOCTYPE svg PUBLIC "-//W3C//DTD SVG 1.1//EN"
 "http://www.w3.org/Graphics/SVG/1.1/DTD/svg11.dtd">
<!-- Generated by graphviz version 2.40.1 (20161225.0304)
 -->
<!-- Title: graphic Pages: 1 -->
<svg width="481pt" height="183pt"
 viewBox="0.00 0.00 481.00 183.00" xmlns="http://www.w3.org/2000/svg" xmlns:xlink="http://www.w3.org/1999/xlink">
<g id="graph0" class="graph" transform="scale(1 1) rotate(0) translate(4 179)">
<title>graphic</title>
<polygon fill="#ffffff" stroke="transparent" points="-4,4 -4,-179 477,-179 477,4 -4,4"/>
<!-- cbrn:NonNegativeDoubleListType -->
<g id="node1" class="node">
<title>cbrn:NonNegativeDoubleListType</title>
<text text-anchor="start" x="259.5" y="-107.9" font-family="Helvetica,sans-Serif" font-weight="bold" font-size="12.00" fill="#000000">cbrn:NonNegativeDoubleListType</text>
<g id="a_node1_0"><a xlink:href="../../structures/SimpleObjectAttributeGroup/#diagram" xlink:title="A group of attributes that are applicable to objects, to be used when defining a complex type that is an extension of a simple type." target="_top">
<polygon fill="#ebebeb" stroke="transparent" points="258.5,-87.5 258.5,-102.5 466.5,-102.5 466.5,-87.5 258.5,-87.5"/>
<text text-anchor="start" x="259.5" y="-91.9" font-family="Helvetica,sans-Serif" font-size="12.00" fill="#000000">structures:SimpleObjectAttributeGroup</text>
</a>
</g>
<polygon fill="#ff0000" stroke="#ff0000" points="253.5,-102.5 253.5,-102.5 471.5,-102.5 471.5,-102.5 253.5,-102.5"/>
<polygon fill="none" stroke="#ff0000" stroke-width="5" points="256,-85 256,-120 469,-120 469,-85 256,-85"/>
</g>
<!-- DerivedTypes -->
<g id="node3" class="node">
<title>DerivedTypes</title>
<text text-anchor="start" x="270.5" y="-35.9" font-family="Helvetica,sans-Serif" font-weight="bold" font-size="12.00" fill="#000000">Derived types</text>
<g id="a_node3_1"><a xlink:href="../../cbrn/EnergiesKeVType/#diagram" xlink:title="A data type for an Energy measure whose values are positive and measured in keV." target="_top">
<polygon fill="#ebebeb" stroke="transparent" points="269.5,-15.5 269.5,-30.5 455.5,-30.5 455.5,-15.5 269.5,-15.5"/>
<text text-anchor="start" x="270.5" y="-19.9" font-family="Helvetica,sans-Serif" font-size="12.00" fill="#000000">cbrn:EnergiesKeVType</text>
</a>
</g>
<g id="a_node3_2"><a xlink:href="../../cbrn/FWHMUncertaintiesKeVType/#diagram" xlink:title="A data type for FWHM uncertainty measure whose values are nonnegative and measured in keV." target="_top">
<text text-anchor="start" x="270.5" y="-4.9" font-family="Helvetica,sans-Serif" font-size="12.00" fill="#000000">cbrn:FWHMUncertaintiesKeVType</text>
</a>
</g>
<polygon fill="#000000" stroke="#000000" points="268.5,-30.5 268.5,-30.5 456.5,-30.5 456.5,-30.5 268.5,-30.5"/>
<polygon fill="none" stroke="#000000" points="268.5,0 268.5,-47 456.5,-47 456.5,0 268.5,0"/>
</g>
<!-- cbrn:NonNegativeDoubleListType&#45;&gt;DerivedTypes -->
<g id="edge2" class="edge">
<title>cbrn:NonNegativeDoubleListType&#45;&gt;DerivedTypes</title>
<path fill="none" stroke="#000000" d="M362.5,-82.2853C362.5,-74.6782 362.5,-65.8065 362.5,-57.2957"/>
<polygon fill="#000000" stroke="#000000" points="366.0001,-57.2026 362.5,-47.2026 359.0001,-57.2026 366.0001,-57.2026"/>
<text text-anchor="middle" x="353" y="-61.65" font-family="Helvetica,sans-Serif" font-size="12.00" fill="#000000">derived</text>
</g>
<!-- Properties -->
<g id="node2" class="node">
<title>Properties</title>
<text text-anchor="start" x="2.5" y="-107.9" font-family="Helvetica,sans-Serif" font-weight="bold" font-size="12.00" fill="#000000">Properties</text>
<g id="a_node2_3"><a xlink:href="../../cbrn/CountDataValueList/#diagram" xlink:title="A number indicating the counts accumulated during a measurement period over the entire energy range measured by a radiation detector or within pre&#45;defined energy windows." target="_top">
<polygon fill="#ebebeb" stroke="transparent" points="1.5,-87.5 1.5,-102.5 192.5,-102.5 192.5,-87.5 1.5,-87.5"/>
<text text-anchor="start" x="2.5" y="-91.9" font-family="Helvetica,sans-Serif" font-size="12.00" fill="#000000">cbrn:CountDataValueList</text>
</a>
</g>
<g id="a_node2_4"><a xlink:href="../../cbrn/EfficiencyUncertaintyValueList/#diagram" xlink:title="A list of the 1&#45;sigma absolute uncertainties in a set of EfficiencyValueList." target="_top">
<text text-anchor="start" x="2.5" y="-76.9" font-family="Helvetica,sans-Serif" font-size="12.00" fill="#000000">cbrn:EfficiencyUncertaintyValueList</text>
</a>
</g>
<g id="a_node2_5"><a xlink:href="../../cbrn/EfficiencyValueList/#diagram" xlink:title="A list of efficiency values as decimal fractions; i.e., normally between 0.0 and 1.0." target="_top">
<polygon fill="#ebebeb" stroke="transparent" points="1.5,-57.5 1.5,-72.5 192.5,-72.5 192.5,-57.5 1.5,-57.5"/>
<text text-anchor="start" x="2.5" y="-61.9" font-family="Helvetica,sans-Serif" font-size="12.00" fill="#000000">cbrn:EfficiencyValueList</text>
</a>
</g>
<g id="a_node2_6"><a xlink:href="../../cbrn/TotalCountDataValueList/#diagram" xlink:title="A list of values for the total number of counts accumulated since the last radiation detection instrument reset over the entire energy range measured by the radiation detection instrument or within pre&#45;defined energy windows." target="_top">
<text text-anchor="start" x="2.5" y="-46.9" font-family="Helvetica,sans-Serif" font-size="12.00" fill="#000000">cbrn:TotalCountDataValueList</text>
</a>
</g>
<polygon fill="#000000" stroke="#000000" points=".5,-102.5 .5,-102.5 193.5,-102.5 193.5,-102.5 .5,-102.5"/>
<polygon fill="none" stroke="#000000" points="0,-42 0,-119 193,-119 193,-42 0,-42"/>
</g>
<!-- Properties&#45;&gt;cbrn:NonNegativeDoubleListType -->
<g id="edge1" class="edge">
<title>Properties:top&#45;&gt;cbrn:NonNegativeDoubleListType:top</title>
<path fill="none" stroke="#000000" d="M192.5,-110.5C218.1667,-110.5 226.9896,-110.5 248.4453,-110.5"/>
<polygon fill="#000000" stroke="#000000" points="248.5,-114.0001 258.5,-110.5 248.5,-107.0001 248.5,-114.0001"/>
<text text-anchor="middle" x="222.5" y="-113.9" font-family="Helvetica,sans-Serif" font-size="12.00" fill="#000000">type</text>
</g>
<!-- cbrn:NonNegativeDoubleListSimpleType -->
<g id="node4" class="node">
<title>cbrn:NonNegativeDoubleListSimpleType</title>
<g id="a_node4_7"><a xlink:href="../../cbrn/NonNegativeDoubleListSimpleType/#diagram" xlink:title="A data type for a list of doubles with value of zero or greater." target="_top">
<text text-anchor="start" x="254.5" y="-162.9" font-family="Helvetica,sans-Serif" font-size="12.00" fill="#000000">cbrn:NonNegativeDoubleListSimpleType</text>
</a>
</g>
<polygon fill="none" stroke="#000000" points="252,-158 252,-175 473,-175 473,-158 252,-158"/>
</g>
<!-- cbrn:NonNegativeDoubleListSimpleType&#45;&gt;cbrn:NonNegativeDoubleListType -->
<g id="edge3" class="edge">
<title>cbrn:NonNegativeDoubleListSimpleType&#45;&gt;cbrn:NonNegativeDoubleListType</title>
<path fill="none" stroke="#000000" d="M362.5,-157.9351C362.5,-151.431 362.5,-142.0678 362.5,-132.8827"/>
<polygon fill="#000000" stroke="#000000" points="366.0001,-132.75 362.5,-122.75 359.0001,-132.75 366.0001,-132.75"/>
<text text-anchor="middle" x="353" y="-137.15" font-family="Helvetica,sans-Serif" font-size="12.00" fill="#000000">extension</text>
</g>
</g>
</svg>
