<?xml version="1.0" encoding="UTF-8" standalone="no"?>
<!DOCTYPE svg PUBLIC "-//W3C//DTD SVG 1.1//EN"
 "http://www.w3.org/Graphics/SVG/1.1/DTD/svg11.dtd">
<!-- Generated by graphviz version 2.40.1 (20161225.0304)
 -->
<!-- Title: graphic Pages: 1 -->
<svg width="628pt" height="45pt"
 viewBox="0.00 0.00 628.00 45.00" xmlns="http://www.w3.org/2000/svg" xmlns:xlink="http://www.w3.org/1999/xlink">
<g id="graph0" class="graph" transform="scale(1 1) rotate(0) translate(4 41)">
<title>graphic</title>
<polygon fill="#ffffff" stroke="transparent" points="-4,4 -4,-41 624,-41 624,4 -4,4"/>
<!-- scr:AccessControlLevelCodeValue -->
<g id="node1" class="node">
<title>scr:AccessControlLevelCodeValue</title>
<text text-anchor="start" x="268" y="-21.4" font-family="Helvetica,sans-Serif" font-weight="bold" font-size="12.00" fill="#000000">scr:AccessControlLevelCodeValue</text>
<polygon fill="none" stroke="#ff0000" stroke-width="5" points="264.5,-14 264.5,-34 471.5,-34 471.5,-14 264.5,-14"/>
</g>
<!-- niem&#45;xs:integer -->
<g id="node3" class="node">
<title>niem&#45;xs:integer</title>
<g id="a_node3_0"><a xlink:href="../../niem-xs/integer/#diagram" xlink:title="A data type for the standard mathematical concept of integer numbers." target="_top">
<text text-anchor="start" x="535.5" y="-20.4" font-family="Helvetica,sans-Serif" font-size="12.00" fill="#000000">niem&#45;xs:integer</text>
</a>
</g>
<polygon fill="none" stroke="#000000" points="533,-15.5 533,-32.5 620,-32.5 620,-15.5 533,-15.5"/>
</g>
<!-- scr:AccessControlLevelCodeValue&#45;&gt;niem&#45;xs:integer -->
<g id="edge2" class="edge">
<title>scr:AccessControlLevelCodeValue&#45;&gt;niem&#45;xs:integer</title>
<path fill="none" stroke="#000000" d="M474.0824,-24C491.0021,-24 507.8573,-24 522.8647,-24"/>
<polygon fill="#000000" stroke="#000000" points="522.9374,-27.5001 532.9374,-24 522.9373,-20.5001 522.9374,-27.5001"/>
<text text-anchor="middle" x="503.5" y="-27.4" font-family="Helvetica,sans-Serif" font-size="12.00" fill="#000000">type</text>
</g>
<!-- Types -->
<g id="node2" class="node">
<title>Types</title>
<text text-anchor="start" x="2.5" y="-21.4" font-family="Helvetica,sans-Serif" font-weight="bold" font-size="12.00" fill="#000000">Types</text>
<g id="a_node2_1"><a xlink:href="../../scr/ScreeningTECSRecordInfoType/#diagram" xlink:title="A data type for the Screening record information received from the CBP Traveler Encounter Compliance System (TECS)." target="_top">
<polygon fill="#ebebeb" stroke="transparent" points="1.5,-1 1.5,-16 194.5,-16 194.5,-1 1.5,-1"/>
<text text-anchor="start" x="2.5" y="-5.4" font-family="Helvetica,sans-Serif" font-size="12.00" fill="#000000">scr:ScreeningTECSRecordInfoType</text>
</a>
</g>
<polygon fill="#000000" stroke="#000000" points=".5,-16 .5,-16 195.5,-16 195.5,-16 .5,-16"/>
<polygon fill="none" stroke="#000000" points="0,0 0,-32 195,-32 195,0 0,0"/>
</g>
<!-- Types&#45;&gt;scr:AccessControlLevelCodeValue -->
<g id="edge1" class="edge">
<title>Types:top&#45;&gt;scr:AccessControlLevelCodeValue</title>
<path fill="none" stroke="#000000" d="M194.5,-24C212.8835,-24 232.3628,-24 251.3704,-24"/>
<polygon fill="#000000" stroke="#000000" points="251.564,-27.5001 261.5639,-24 251.5639,-20.5001 251.564,-27.5001"/>
<text text-anchor="middle" x="228.5" y="-27.4" font-family="Helvetica,sans-Serif" font-size="12.00" fill="#000000">has&#45;a</text>
</g>
</g>
</svg>
