<?xml version="1.0" encoding="UTF-8" standalone="no"?>
<!DOCTYPE svg PUBLIC "-//W3C//DTD SVG 1.1//EN"
 "http://www.w3.org/Graphics/SVG/1.1/DTD/svg11.dtd">
<!-- Generated by graphviz version 2.40.1 (20161225.0304)
 -->
<!-- Title: graphic Pages: 1 -->
<svg width="556pt" height="45pt"
 viewBox="0.00 0.00 556.00 45.00" xmlns="http://www.w3.org/2000/svg" xmlns:xlink="http://www.w3.org/1999/xlink">
<g id="graph0" class="graph" transform="scale(1 1) rotate(0) translate(4 41)">
<title>graphic</title>
<polygon fill="#ffffff" stroke="transparent" points="-4,4 -4,-41 552,-41 552,4 -4,4"/>
<!-- cbrn:DataFileCaptureDuration -->
<g id="node1" class="node">
<title>cbrn:DataFileCaptureDuration</title>
<text text-anchor="start" x="218" y="-21.4" font-family="Helvetica,sans-Serif" font-weight="bold" font-size="12.00" fill="#000000">cbrn:DataFileCaptureDuration</text>
<polygon fill="none" stroke="#ff0000" stroke-width="5" points="214.5,-14 214.5,-34 393.5,-34 393.5,-14 214.5,-14"/>
</g>
<!-- niem&#45;xs:duration -->
<g id="node3" class="node">
<title>niem&#45;xs:duration</title>
<g id="a_node3_0"><a xlink:href="../../niem-xs/duration/#diagram" xlink:title="A data type for a duration of time with the format PnYnMnDTnHnMnS, where nY is the number of years, nM is the number of months, nD is the number of days, nH is the number of hours, nM is the number of minutes, and nS is the number of seconds." target="_top">
<text text-anchor="start" x="457.5" y="-20.4" font-family="Helvetica,sans-Serif" font-size="12.00" fill="#000000">niem&#45;xs:duration</text>
</a>
</g>
<polygon fill="none" stroke="#000000" points="455,-15.5 455,-32.5 548,-32.5 548,-15.5 455,-15.5"/>
</g>
<!-- cbrn:DataFileCaptureDuration&#45;&gt;niem&#45;xs:duration -->
<g id="edge2" class="edge">
<title>cbrn:DataFileCaptureDuration&#45;&gt;niem&#45;xs:duration</title>
<path fill="none" stroke="#000000" d="M396.1004,-24C412.6872,-24 429.5254,-24 444.7316,-24"/>
<polygon fill="#000000" stroke="#000000" points="444.9752,-27.5001 454.9751,-24 444.9751,-20.5001 444.9752,-27.5001"/>
<text text-anchor="middle" x="425.5" y="-27.4" font-family="Helvetica,sans-Serif" font-size="12.00" fill="#000000">type</text>
</g>
<!-- Types -->
<g id="node2" class="node">
<title>Types</title>
<text text-anchor="start" x="2.5" y="-21.4" font-family="Helvetica,sans-Serif" font-weight="bold" font-size="12.00" fill="#000000">Types</text>
<g id="a_node2_1"><a xlink:href="../../cbrn/DataFileCaptureType/#diagram" xlink:title="A data type defining the structure of how the data file is captured." target="_top">
<polygon fill="#ebebeb" stroke="transparent" points="1.5,-1 1.5,-16 144.5,-16 144.5,-1 1.5,-1"/>
<text text-anchor="start" x="2.5" y="-5.4" font-family="Helvetica,sans-Serif" font-size="12.00" fill="#000000">cbrn:DataFileCaptureType</text>
</a>
</g>
<polygon fill="#000000" stroke="#000000" points=".5,-16 .5,-16 145.5,-16 145.5,-16 .5,-16"/>
<polygon fill="none" stroke="#000000" points="0,0 0,-32 145,-32 145,0 0,0"/>
</g>
<!-- Types&#45;&gt;cbrn:DataFileCaptureDuration -->
<g id="edge1" class="edge">
<title>Types:top&#45;&gt;cbrn:DataFileCaptureDuration</title>
<path fill="none" stroke="#000000" d="M144.5,-24C162.9259,-24 182.549,-24 201.5023,-24"/>
<polygon fill="#000000" stroke="#000000" points="201.6456,-27.5001 211.6455,-24 201.6455,-20.5001 201.6456,-27.5001"/>
<text text-anchor="middle" x="178.5" y="-27.4" font-family="Helvetica,sans-Serif" font-size="12.00" fill="#000000">has&#45;a</text>
</g>
</g>
</svg>
