<?xml version="1.0" encoding="UTF-8" standalone="no"?>
<!DOCTYPE svg PUBLIC "-//W3C//DTD SVG 1.1//EN"
 "http://www.w3.org/Graphics/SVG/1.1/DTD/svg11.dtd">
<!-- Generated by graphviz version 2.40.1 (20161225.0304)
 -->
<!-- Title: graphic Pages: 1 -->
<svg width="536pt" height="45pt"
 viewBox="0.00 0.00 536.00 45.00" xmlns="http://www.w3.org/2000/svg" xmlns:xlink="http://www.w3.org/1999/xlink">
<g id="graph0" class="graph" transform="scale(1 1) rotate(0) translate(4 41)">
<title>graphic</title>
<polygon fill="#ffffff" stroke="transparent" points="-4,4 -4,-41 532,-41 532,4 -4,4"/>
<!-- j:ProgramDefectFindingText -->
<g id="node1" class="node">
<title>j:ProgramDefectFindingText</title>
<text text-anchor="start" x="230" y="-21.4" font-family="Helvetica,sans-Serif" font-weight="bold" font-size="12.00" fill="#000000">j:ProgramDefectFindingText</text>
<polygon fill="none" stroke="#ff0000" stroke-width="5" points="226.5,-14 226.5,-34 395.5,-34 395.5,-14 226.5,-14"/>
</g>
<!-- nc:TextType -->
<g id="node3" class="node">
<title>nc:TextType</title>
<g id="a_node3_0"><a xlink:href="../../nc/TextType/#diagram" xlink:title="A data type for a character string." target="_top">
<text text-anchor="start" x="459.5" y="-20.4" font-family="Helvetica,sans-Serif" font-size="12.00" fill="#000000">nc:TextType</text>
</a>
</g>
<polygon fill="none" stroke="#000000" points="457,-15.5 457,-32.5 528,-32.5 528,-15.5 457,-15.5"/>
</g>
<!-- j:ProgramDefectFindingText&#45;&gt;nc:TextType -->
<g id="edge2" class="edge">
<title>j:ProgramDefectFindingText&#45;&gt;nc:TextType</title>
<path fill="none" stroke="#000000" d="M398.0288,-24C414.7204,-24 431.5802,-24 446.3444,-24"/>
<polygon fill="#000000" stroke="#000000" points="446.6923,-27.5001 456.6922,-24 446.6922,-20.5001 446.6923,-27.5001"/>
<text text-anchor="middle" x="427.5" y="-27.4" font-family="Helvetica,sans-Serif" font-size="12.00" fill="#000000">type</text>
</g>
<!-- Types -->
<g id="node2" class="node">
<title>Types</title>
<text text-anchor="start" x="2.5" y="-21.4" font-family="Helvetica,sans-Serif" font-weight="bold" font-size="12.00" fill="#000000">Types</text>
<g id="a_node2_1"><a xlink:href="../../j/ProgramAugmentationType/#diagram" xlink:title="A data type for additional information about a Program." target="_top">
<polygon fill="#ebebeb" stroke="transparent" points="1.5,-1 1.5,-16 156.5,-16 156.5,-1 1.5,-1"/>
<text text-anchor="start" x="2.5" y="-5.4" font-family="Helvetica,sans-Serif" font-size="12.00" fill="#000000">j:ProgramAugmentationType</text>
</a>
</g>
<polygon fill="#000000" stroke="#000000" points=".5,-16 .5,-16 157.5,-16 157.5,-16 .5,-16"/>
<polygon fill="none" stroke="#000000" points="0,0 0,-32 157,-32 157,0 0,0"/>
</g>
<!-- Types&#45;&gt;j:ProgramDefectFindingText -->
<g id="edge1" class="edge">
<title>Types:top&#45;&gt;j:ProgramDefectFindingText</title>
<path fill="none" stroke="#000000" d="M156.5,-24C175.0303,-24 194.8108,-24 213.8173,-24"/>
<polygon fill="#000000" stroke="#000000" points="213.9783,-27.5001 223.9782,-24 213.9782,-20.5001 213.9783,-27.5001"/>
<text text-anchor="middle" x="190.5" y="-27.4" font-family="Helvetica,sans-Serif" font-size="12.00" fill="#000000">has&#45;a</text>
</g>
</g>
</svg>
