<?xml version="1.0" encoding="UTF-8" standalone="no"?>
<!DOCTYPE svg PUBLIC "-//W3C//DTD SVG 1.1//EN"
 "http://www.w3.org/Graphics/SVG/1.1/DTD/svg11.dtd">
<!-- Generated by graphviz version 2.40.1 (20161225.0304)
 -->
<!-- Title: graphic Pages: 1 -->
<svg width="502pt" height="45pt"
 viewBox="0.00 0.00 502.00 45.00" xmlns="http://www.w3.org/2000/svg" xmlns:xlink="http://www.w3.org/1999/xlink">
<g id="graph0" class="graph" transform="scale(1 1) rotate(0) translate(4 41)">
<title>graphic</title>
<polygon fill="#ffffff" stroke="transparent" points="-4,4 -4,-41 498,-41 498,4 -4,4"/>
<!-- hs:StateInputDataReportAugmentationPoint -->
<g id="node1" class="node">
<title>hs:StateInputDataReportAugmentationPoint</title>
<text text-anchor="start" x="236" y="-21.4" font-family="Helvetica,sans-Serif" font-weight="bold" font-size="12.00" fill="#000000">hs:StateInputDataReportAugmentationPoint</text>
<polygon fill="none" stroke="#ff0000" stroke-width="5" points="232.5,-14 232.5,-34 491.5,-34 491.5,-14 232.5,-14"/>
</g>
<!-- Types -->
<g id="node2" class="node">
<title>Types</title>
<text text-anchor="start" x="2.5" y="-21.4" font-family="Helvetica,sans-Serif" font-weight="bold" font-size="12.00" fill="#000000">Types</text>
<g id="a_node2_0"><a xlink:href="../../hs/StateInputDataReportType/#diagram" xlink:title="A data type for a State Input Data report of the Public Assistance Reporting Information System (PARIS)." target="_top">
<polygon fill="#ebebeb" stroke="transparent" points="1.5,-1 1.5,-16 162.5,-16 162.5,-1 1.5,-1"/>
<text text-anchor="start" x="2.5" y="-5.4" font-family="Helvetica,sans-Serif" font-size="12.00" fill="#000000">hs:StateInputDataReportType</text>
</a>
</g>
<polygon fill="#000000" stroke="#000000" points=".5,-16 .5,-16 163.5,-16 163.5,-16 .5,-16"/>
<polygon fill="none" stroke="#000000" points="0,0 0,-32 163,-32 163,0 0,0"/>
</g>
<!-- Types&#45;&gt;hs:StateInputDataReportAugmentationPoint -->
<g id="edge1" class="edge">
<title>Types:top&#45;&gt;hs:StateInputDataReportAugmentationPoint</title>
<path fill="none" stroke="#000000" d="M162.5,-24C181.0076,-24 200.481,-24 219.7107,-24"/>
<polygon fill="#000000" stroke="#000000" points="219.738,-27.5001 229.7379,-24 219.7379,-20.5001 219.738,-27.5001"/>
<text text-anchor="middle" x="196.5" y="-27.4" font-family="Helvetica,sans-Serif" font-size="12.00" fill="#000000">has&#45;a</text>
</g>
</g>
</svg>
