<?xml version="1.0" encoding="UTF-8" standalone="no"?>
<!DOCTYPE svg PUBLIC "-//W3C//DTD SVG 1.1//EN"
 "http://www.w3.org/Graphics/SVG/1.1/DTD/svg11.dtd">
<!-- Generated by graphviz version 2.40.1 (20161225.0304)
 -->
<!-- Title: graphic Pages: 1 -->
<svg width="350pt" height="86pt"
 viewBox="0.00 0.00 350.00 86.00" xmlns="http://www.w3.org/2000/svg" xmlns:xlink="http://www.w3.org/1999/xlink">
<g id="graph0" class="graph" transform="scale(1 1) rotate(0) translate(4 82)">
<title>graphic</title>
<polygon fill="#ffffff" stroke="transparent" points="-4,4 -4,-82 346,-82 346,4 -4,4"/>
<!-- nc:CountryName -->
<g id="node1" class="node">
<title>nc:CountryName</title>
<text text-anchor="start" x="24" y="-9.9" font-family="Helvetica,sans-Serif" font-weight="bold" font-size="12.00" fill="#000000">nc:CountryName</text>
<polygon fill="none" stroke="#ff0000" stroke-width="5" points="20,-2.5 20,-22.5 124,-22.5 124,-2.5 20,-2.5"/>
</g>
<!-- nc:ProperNameTextType -->
<g id="node3" class="node">
<title>nc:ProperNameTextType</title>
<g id="a_node3_0"><a xlink:href="../../nc/ProperNameTextType/#diagram" xlink:title="A data type for a word or phrase by which a person or thing is known, referred, or addressed." target="_top">
<text text-anchor="start" x="205.5" y="-8.9" font-family="Helvetica,sans-Serif" font-size="12.00" fill="#000000">nc:ProperNameTextType</text>
</a>
</g>
<polygon fill="none" stroke="#000000" points="203,-4 203,-21 342,-21 342,-4 203,-4"/>
</g>
<!-- nc:CountryName&#45;&gt;nc:ProperNameTextType -->
<g id="edge2" class="edge">
<title>nc:CountryName&#45;&gt;nc:ProperNameTextType</title>
<path fill="none" stroke="#000000" d="M126.5227,-12.5C146.9363,-12.5 170.5694,-12.5 192.7948,-12.5"/>
<polygon fill="#000000" stroke="#000000" points="192.8909,-16.0001 202.8909,-12.5 192.8908,-9.0001 192.8909,-16.0001"/>
<text text-anchor="middle" x="173.5" y="-15.9" font-family="Helvetica,sans-Serif" font-size="12.00" fill="#000000">type</text>
</g>
<!-- SubstitutionGroup -->
<g id="node2" class="node">
<title>SubstitutionGroup</title>
<g id="a_node2_1"><a xlink:href="../../nc/CountryRepresentation/#diagram" xlink:title="A data concept for a representation of a country." target="_top">
<text text-anchor="start" x="2" y="-65.9" font-family="Helvetica,sans-Serif" font-size="12.00" fill="#000000">nc:CountryRepresentation</text>
</a>
</g>
<polygon fill="none" stroke="#000000" points="0,-61 0,-78 144,-78 144,-61 0,-61"/>
</g>
<!-- SubstitutionGroup&#45;&gt;nc:CountryName -->
<g id="edge1" class="edge">
<title>SubstitutionGroup&#45;&gt;nc:CountryName</title>
<path fill="none" stroke="#000000" d="M72,-50.9163C72,-42.4809 72,-32.7214 72,-25.1501"/>
<polygon fill="#000000" stroke="#000000" points="68.5001,-50.9472 72,-60.9473 75.5001,-50.9473 68.5001,-50.9472"/>
<text text-anchor="middle" x="62.5" y="-39.9" font-family="Helvetica,sans-Serif" font-size="12.00" fill="#000000">substitution group</text>
</g>
</g>
</svg>
