<?xml version="1.0" encoding="UTF-8" standalone="no"?>
<!DOCTYPE svg PUBLIC "-//W3C//DTD SVG 1.1//EN"
 "http://www.w3.org/Graphics/SVG/1.1/DTD/svg11.dtd">
<!-- Generated by graphviz version 2.40.1 (20161225.0304)
 -->
<!-- Title: graphic Pages: 1 -->
<svg width="561pt" height="45pt"
 viewBox="0.00 0.00 561.00 45.00" xmlns="http://www.w3.org/2000/svg" xmlns:xlink="http://www.w3.org/1999/xlink">
<g id="graph0" class="graph" transform="scale(1 1) rotate(0) translate(4 41)">
<title>graphic</title>
<polygon fill="#ffffff" stroke="transparent" points="-4,4 -4,-41 557,-41 557,4 -4,4"/>
<!-- j:DriverLicenseIdentification -->
<g id="node1" class="node">
<title>j:DriverLicenseIdentification</title>
<text text-anchor="start" x="211" y="-21.4" font-family="Helvetica,sans-Serif" font-weight="bold" font-size="12.00" fill="#000000">j:DriverLicenseIdentification</text>
<polygon fill="none" stroke="#ff0000" stroke-width="5" points="207.5,-14 207.5,-34 376.5,-34 376.5,-14 207.5,-14"/>
</g>
<!-- nc:IdentificationType -->
<g id="node3" class="node">
<title>nc:IdentificationType</title>
<g id="a_node3_0"><a xlink:href="../../nc/IdentificationType/#diagram" xlink:title="A data type for a representation of an identity." target="_top">
<text text-anchor="start" x="440.5" y="-20.4" font-family="Helvetica,sans-Serif" font-size="12.00" fill="#000000">nc:IdentificationType</text>
</a>
</g>
<polygon fill="none" stroke="#000000" points="438,-15.5 438,-32.5 553,-32.5 553,-15.5 438,-15.5"/>
</g>
<!-- j:DriverLicenseIdentification&#45;&gt;nc:IdentificationType -->
<g id="edge2" class="edge">
<title>j:DriverLicenseIdentification&#45;&gt;nc:IdentificationType</title>
<path fill="none" stroke="#000000" d="M379.1879,-24C395.4707,-24 412.2615,-24 427.8456,-24"/>
<polygon fill="#000000" stroke="#000000" points="427.895,-27.5001 437.895,-24 427.8949,-20.5001 427.895,-27.5001"/>
<text text-anchor="middle" x="408.5" y="-27.4" font-family="Helvetica,sans-Serif" font-size="12.00" fill="#000000">type</text>
</g>
<!-- Types -->
<g id="node2" class="node">
<title>Types</title>
<text text-anchor="start" x="2" y="-21.4" font-family="Helvetica,sans-Serif" font-weight="bold" font-size="12.00" fill="#000000">Types</text>
<g id="a_node2_1"><a xlink:href="../../j/DriverLicenseBaseType/#diagram" xlink:title="A data type for an authorization issued to a driver granting driving privileges." target="_top">
<polygon fill="#ebebeb" stroke="transparent" points="1,-1 1,-16 137,-16 137,-1 1,-1"/>
<text text-anchor="start" x="2" y="-5.4" font-family="Helvetica,sans-Serif" font-size="12.00" fill="#000000">j:DriverLicenseBaseType</text>
</a>
</g>
<polygon fill="#000000" stroke="#000000" points="0,-16 0,-16 138,-16 138,-16 0,-16"/>
<polygon fill="none" stroke="#000000" points="0,0 0,-32 138,-32 138,0 0,0"/>
</g>
<!-- Types&#45;&gt;j:DriverLicenseIdentification -->
<g id="edge1" class="edge">
<title>Types:top&#45;&gt;j:DriverLicenseIdentification</title>
<path fill="none" stroke="#000000" d="M137,-24C155.5903,-24 175.4348,-24 194.5028,-24"/>
<polygon fill="#000000" stroke="#000000" points="194.6966,-27.5001 204.6966,-24 194.6966,-20.5001 194.6966,-27.5001"/>
<text text-anchor="middle" x="171.5" y="-27.4" font-family="Helvetica,sans-Serif" font-size="12.00" fill="#000000">has&#45;a</text>
</g>
</g>
</svg>
