<?xml version="1.0" encoding="UTF-8" standalone="no"?>
<!DOCTYPE svg PUBLIC "-//W3C//DTD SVG 1.1//EN"
 "http://www.w3.org/Graphics/SVG/1.1/DTD/svg11.dtd">
<!-- Generated by graphviz version 2.40.1 (20161225.0304)
 -->
<!-- Title: graphic Pages: 1 -->
<svg width="733pt" height="45pt"
 viewBox="0.00 0.00 733.00 45.00" xmlns="http://www.w3.org/2000/svg" xmlns:xlink="http://www.w3.org/1999/xlink">
<g id="graph0" class="graph" transform="scale(1 1) rotate(0) translate(4 41)">
<title>graphic</title>
<polygon fill="#ffffff" stroke="transparent" points="-4,4 -4,-41 729,-41 729,4 -4,4"/>
<!-- j:CauseOfDeathAssessmentBiopsyPerformedIndicator -->
<g id="node1" class="node">
<title>j:CauseOfDeathAssessmentBiopsyPerformedIndicator</title>
<text text-anchor="start" x="255" y="-21.4" font-family="Helvetica,sans-Serif" font-weight="bold" font-size="12.00" fill="#000000">j:CauseOfDeathAssessmentBiopsyPerformedIndicator</text>
<polygon fill="none" stroke="#ff0000" stroke-width="5" points="251.5,-14 251.5,-34 570.5,-34 570.5,-14 251.5,-14"/>
</g>
<!-- niem&#45;xs:boolean -->
<g id="node3" class="node">
<title>niem&#45;xs:boolean</title>
<g id="a_node3_0"><a xlink:href="../../niem-xs/boolean/#diagram" xlink:title="A data type for binary&#45;valued logic (true/false)." target="_top">
<text text-anchor="start" x="634.5" y="-20.4" font-family="Helvetica,sans-Serif" font-size="12.00" fill="#000000">niem&#45;xs:boolean</text>
</a>
</g>
<polygon fill="none" stroke="#000000" points="632,-15.5 632,-32.5 725,-32.5 725,-15.5 632,-15.5"/>
</g>
<!-- j:CauseOfDeathAssessmentBiopsyPerformedIndicator&#45;&gt;niem&#45;xs:boolean -->
<g id="edge2" class="edge">
<title>j:CauseOfDeathAssessmentBiopsyPerformedIndicator&#45;&gt;niem&#45;xs:boolean</title>
<path fill="none" stroke="#000000" d="M573.1609,-24C590.3768,-24 606.9344,-24 621.6201,-24"/>
<polygon fill="#000000" stroke="#000000" points="621.9654,-27.5001 631.9654,-24 621.9653,-20.5001 621.9654,-27.5001"/>
<text text-anchor="middle" x="602.5" y="-27.4" font-family="Helvetica,sans-Serif" font-size="12.00" fill="#000000">type</text>
</g>
<!-- Types -->
<g id="node2" class="node">
<title>Types</title>
<text text-anchor="start" x="2" y="-21.4" font-family="Helvetica,sans-Serif" font-weight="bold" font-size="12.00" fill="#000000">Types</text>
<g id="a_node2_1"><a xlink:href="../../j/CauseOfDeathAssessmentType/#diagram" xlink:title="A data type for an assessment process to determine factors of the cause of death." target="_top">
<polygon fill="#ebebeb" stroke="transparent" points="1,-1 1,-16 181,-16 181,-1 1,-1"/>
<text text-anchor="start" x="2" y="-5.4" font-family="Helvetica,sans-Serif" font-size="12.00" fill="#000000">j:CauseOfDeathAssessmentType</text>
</a>
</g>
<polygon fill="#000000" stroke="#000000" points="0,-16 0,-16 182,-16 182,-16 0,-16"/>
<polygon fill="none" stroke="#000000" points="0,0 0,-32 182,-32 182,0 0,0"/>
</g>
<!-- Types&#45;&gt;j:CauseOfDeathAssessmentBiopsyPerformedIndicator -->
<g id="edge1" class="edge">
<title>Types:top&#45;&gt;j:CauseOfDeathAssessmentBiopsyPerformedIndicator</title>
<path fill="none" stroke="#000000" d="M181,-24C199.7019,-24 219.2591,-24 238.7327,-24"/>
<polygon fill="#000000" stroke="#000000" points="238.9037,-27.5001 248.9036,-24 238.9036,-20.5001 238.9037,-27.5001"/>
<text text-anchor="middle" x="215.5" y="-27.4" font-family="Helvetica,sans-Serif" font-size="12.00" fill="#000000">has&#45;a</text>
</g>
</g>
</svg>
