<?xml version="1.0" encoding="UTF-8" standalone="no"?>
<!DOCTYPE svg PUBLIC "-//W3C//DTD SVG 1.1//EN"
 "http://www.w3.org/Graphics/SVG/1.1/DTD/svg11.dtd">
<!-- Generated by graphviz version 2.40.1 (20161225.0304)
 -->
<!-- Title: graphic Pages: 1 -->
<svg width="495pt" height="45pt"
 viewBox="0.00 0.00 495.00 45.00" xmlns="http://www.w3.org/2000/svg" xmlns:xlink="http://www.w3.org/1999/xlink">
<g id="graph0" class="graph" transform="scale(1 1) rotate(0) translate(4 41)">
<title>graphic</title>
<polygon fill="#ffffff" stroke="transparent" points="-4,4 -4,-41 491,-41 491,4 -4,4"/>
<!-- cbrn:EquationDescriptionText -->
<g id="node1" class="node">
<title>cbrn:EquationDescriptionText</title>
<text text-anchor="start" x="178.5" y="-21.4" font-family="Helvetica,sans-Serif" font-weight="bold" font-size="12.00" fill="#000000">cbrn:EquationDescriptionText</text>
<polygon fill="none" stroke="#ff0000" stroke-width="5" points="174.5,-14 174.5,-34 354.5,-34 354.5,-14 174.5,-14"/>
</g>
<!-- nc:TextType -->
<g id="node3" class="node">
<title>nc:TextType</title>
<g id="a_node3_0"><a xlink:href="../../nc/TextType/#diagram" xlink:title="A data type for a character string." target="_top">
<text text-anchor="start" x="418.5" y="-20.4" font-family="Helvetica,sans-Serif" font-size="12.00" fill="#000000">nc:TextType</text>
</a>
</g>
<polygon fill="none" stroke="#000000" points="416,-15.5 416,-32.5 487,-32.5 487,-15.5 416,-15.5"/>
</g>
<!-- cbrn:EquationDescriptionText&#45;&gt;nc:TextType -->
<g id="edge2" class="edge">
<title>cbrn:EquationDescriptionText&#45;&gt;nc:TextType</title>
<path fill="none" stroke="#000000" d="M357.1782,-24C374.0281,-24 390.9135,-24 405.6454,-24"/>
<polygon fill="#000000" stroke="#000000" points="405.9607,-27.5001 415.9606,-24 405.9606,-20.5001 405.9607,-27.5001"/>
<text text-anchor="middle" x="386.5" y="-27.4" font-family="Helvetica,sans-Serif" font-size="12.00" fill="#000000">type</text>
</g>
<!-- Types -->
<g id="node2" class="node">
<title>Types</title>
<text text-anchor="start" x="2.5" y="-21.4" font-family="Helvetica,sans-Serif" font-weight="bold" font-size="12.00" fill="#000000">Types</text>
<g id="a_node2_1"><a xlink:href="../../cbrn/EquationType/#diagram" xlink:title="A data type that describes a mathematical equation and its coefficients. &#160;The type of the equation is given by the EquationKindCode element. &#160;The coefficients of the equation are supplied by the EquationCoefficientValueList element; the values of the covariance matrix may be supplied by the EquationCovarianceMatrixValueList. &#160;It is recommended that the data from which the equation coefficients were derived be made available as an ArrayXY type so that the coefficients for a different model could be derived." target="_top">
<polygon fill="#ebebeb" stroke="transparent" points="1.5,-1 1.5,-16 104.5,-16 104.5,-1 1.5,-1"/>
<text text-anchor="start" x="2.5" y="-5.4" font-family="Helvetica,sans-Serif" font-size="12.00" fill="#000000">cbrn:EquationType</text>
</a>
</g>
<polygon fill="#000000" stroke="#000000" points=".5,-16 .5,-16 105.5,-16 105.5,-16 .5,-16"/>
<polygon fill="none" stroke="#000000" points="0,0 0,-32 105,-32 105,0 0,0"/>
</g>
<!-- Types&#45;&gt;cbrn:EquationDescriptionText -->
<g id="edge1" class="edge">
<title>Types:top&#45;&gt;cbrn:EquationDescriptionText</title>
<path fill="none" stroke="#000000" d="M104.5,-24C122.9836,-24 142.6683,-24 161.681,-24"/>
<polygon fill="#000000" stroke="#000000" points="161.856,-27.5001 171.856,-24 161.856,-20.5001 161.856,-27.5001"/>
<text text-anchor="middle" x="138.5" y="-27.4" font-family="Helvetica,sans-Serif" font-size="12.00" fill="#000000">has&#45;a</text>
</g>
</g>
</svg>
