<?xml version="1.0" encoding="UTF-8" standalone="no"?>
<!DOCTYPE svg PUBLIC "-//W3C//DTD SVG 1.1//EN"
 "http://www.w3.org/Graphics/SVG/1.1/DTD/svg11.dtd">
<!-- Generated by graphviz version 2.40.1 (20161225.0304)
 -->
<!-- Title: graphic Pages: 1 -->
<svg width="524pt" height="45pt"
 viewBox="0.00 0.00 524.00 45.00" xmlns="http://www.w3.org/2000/svg" xmlns:xlink="http://www.w3.org/1999/xlink">
<g id="graph0" class="graph" transform="scale(1 1) rotate(0) translate(4 41)">
<title>graphic</title>
<polygon fill="#ffffff" stroke="transparent" points="-4,4 -4,-41 520,-41 520,4 -4,4"/>
<!-- mo:ApprovalAuthorityName -->
<g id="node1" class="node">
<title>mo:ApprovalAuthorityName</title>
<text text-anchor="start" x="219.5" y="-21.4" font-family="Helvetica,sans-Serif" font-weight="bold" font-size="12.00" fill="#000000">mo:ApprovalAuthorityName</text>
<polygon fill="none" stroke="#ff0000" stroke-width="5" points="215.5,-14 215.5,-34 383.5,-34 383.5,-14 215.5,-14"/>
</g>
<!-- nc:TextType -->
<g id="node3" class="node">
<title>nc:TextType</title>
<g id="a_node3_0"><a xlink:href="../../nc/TextType/#diagram" xlink:title="A data type for a character string." target="_top">
<text text-anchor="start" x="447.5" y="-20.4" font-family="Helvetica,sans-Serif" font-size="12.00" fill="#000000">nc:TextType</text>
</a>
</g>
<polygon fill="none" stroke="#000000" points="445,-15.5 445,-32.5 516,-32.5 516,-15.5 445,-15.5"/>
</g>
<!-- mo:ApprovalAuthorityName&#45;&gt;nc:TextType -->
<g id="edge2" class="edge">
<title>mo:ApprovalAuthorityName&#45;&gt;nc:TextType</title>
<path fill="none" stroke="#000000" d="M386.0241,-24C402.6996,-24 419.5554,-24 434.3211,-24"/>
<polygon fill="#000000" stroke="#000000" points="434.671,-27.5001 444.671,-24 434.6709,-20.5001 434.671,-27.5001"/>
<text text-anchor="middle" x="415.5" y="-27.4" font-family="Helvetica,sans-Serif" font-size="12.00" fill="#000000">type</text>
</g>
<!-- Types -->
<g id="node2" class="node">
<title>Types</title>
<text text-anchor="start" x="2" y="-21.4" font-family="Helvetica,sans-Serif" font-weight="bold" font-size="12.00" fill="#000000">Types</text>
<g id="a_node2_1"><a xlink:href="../../mo/ApprovalAuthorityType/#diagram" xlink:title="A data type for a group of metadata that describes and identifies a person, group, board, or organization that has approving authority." target="_top">
<polygon fill="#ebebeb" stroke="transparent" points="1,-1 1,-16 145,-16 145,-1 1,-1"/>
<text text-anchor="start" x="2" y="-5.4" font-family="Helvetica,sans-Serif" font-size="12.00" fill="#000000">mo:ApprovalAuthorityType</text>
</a>
</g>
<polygon fill="#000000" stroke="#000000" points="0,-16 0,-16 146,-16 146,-16 0,-16"/>
<polygon fill="none" stroke="#000000" points="0,0 0,-32 146,-32 146,0 0,0"/>
</g>
<!-- Types&#45;&gt;mo:ApprovalAuthorityName -->
<g id="edge1" class="edge">
<title>Types:top&#45;&gt;mo:ApprovalAuthorityName</title>
<path fill="none" stroke="#000000" d="M145,-24C163.644,-24 183.5536,-24 202.667,-24"/>
<polygon fill="#000000" stroke="#000000" points="202.8833,-27.5001 212.8833,-24 202.8832,-20.5001 202.8833,-27.5001"/>
<text text-anchor="middle" x="179.5" y="-27.4" font-family="Helvetica,sans-Serif" font-size="12.00" fill="#000000">has&#45;a</text>
</g>
</g>
</svg>
