<?xml version="1.0" encoding="UTF-8" standalone="no"?>
<!DOCTYPE svg PUBLIC "-//W3C//DTD SVG 1.1//EN"
 "http://www.w3.org/Graphics/SVG/1.1/DTD/svg11.dtd">
<!-- Generated by graphviz version 2.40.1 (20161225.0304)
 -->
<!-- Title: graphic Pages: 1 -->
<svg width="592pt" height="75pt"
 viewBox="0.00 0.00 592.00 75.00" xmlns="http://www.w3.org/2000/svg" xmlns:xlink="http://www.w3.org/1999/xlink">
<g id="graph0" class="graph" transform="scale(1 1) rotate(0) translate(4 71)">
<title>graphic</title>
<polygon fill="#ffffff" stroke="transparent" points="-4,4 -4,-71 588,-71 588,4 -4,4"/>
<!-- stat:IdentifiableArtifact -->
<g id="node1" class="node">
<title>stat:IdentifiableArtifact</title>
<text text-anchor="start" x="239.5" y="-51.4" font-family="Helvetica,sans-Serif" font-weight="bold" font-size="12.00" fill="#000000">stat:IdentifiableArtifact</text>
<polygon fill="none" stroke="#ff0000" stroke-width="5" points="235.5,-44 235.5,-64 373.5,-64 373.5,-44 235.5,-44"/>
</g>
<!-- stat:IdentifiableArtifactType -->
<g id="node3" class="node">
<title>stat:IdentifiableArtifactType</title>
<g id="a_node3_0"><a xlink:href="../../stat/IdentifiableArtifactType/#diagram" xlink:title="A data type for an abstract class that comprises the basic attributes and associations needed for identification, naming and other documentation." target="_top">
<text text-anchor="start" x="437.5" y="-50.4" font-family="Helvetica,sans-Serif" font-size="12.00" fill="#000000">stat:IdentifiableArtifactType</text>
</a>
</g>
<polygon fill="none" stroke="#000000" points="435,-45.5 435,-62.5 584,-62.5 584,-45.5 435,-45.5"/>
</g>
<!-- stat:IdentifiableArtifact&#45;&gt;stat:IdentifiableArtifactType -->
<g id="edge2" class="edge">
<title>stat:IdentifiableArtifact&#45;&gt;stat:IdentifiableArtifactType</title>
<path fill="none" stroke="#000000" d="M376.1991,-54C391.7322,-54 408.3057,-54 424.3004,-54"/>
<polygon fill="#000000" stroke="#000000" points="424.7109,-57.5001 434.7108,-54 424.7108,-50.5001 424.7109,-57.5001"/>
<text text-anchor="middle" x="405.5" y="-57.4" font-family="Helvetica,sans-Serif" font-size="12.00" fill="#000000">type</text>
</g>
<!-- Types -->
<g id="node2" class="node">
<title>Types</title>
<text text-anchor="start" x="2" y="-51.4" font-family="Helvetica,sans-Serif" font-weight="bold" font-size="12.00" fill="#000000">Types</text>
<g id="a_node2_1"><a xlink:href="../../stat/ProcessSupportInputType/#diagram" xlink:title="A data type for a form of process input that influences the work performed by the process step, and therefore influences its outcome, but is not in itself changed by the process step." target="_top">
<polygon fill="#ebebeb" stroke="transparent" points="1,-31 1,-46 165,-46 165,-31 1,-31"/>
<text text-anchor="start" x="2" y="-35.4" font-family="Helvetica,sans-Serif" font-size="12.00" fill="#000000">stat:ProcessSupportInputType</text>
</a>
</g>
<g id="a_node2_2"><a xlink:href="../../stat/TransformableInputType/#diagram" xlink:title="A data type for a type of process input whose content goes into a process step and is changed in some way by the execution of that process step. Some or all of the content will be represented in the transformed output." target="_top">
<text text-anchor="start" x="2" y="-20.4" font-family="Helvetica,sans-Serif" font-size="12.00" fill="#000000">stat:TransformableInputType</text>
</a>
</g>
<g id="a_node2_3"><a xlink:href="../../stat/TransformedOutputType/#diagram" xlink:title="A data type for a process output (a result) which provides the reason for existence for the process step." target="_top">
<polygon fill="#ebebeb" stroke="transparent" points="1,-1 1,-16 165,-16 165,-1 1,-1"/>
<text text-anchor="start" x="2" y="-5.4" font-family="Helvetica,sans-Serif" font-size="12.00" fill="#000000">stat:TransformedOutputType</text>
</a>
</g>
<polygon fill="#000000" stroke="#000000" points="0,-46 0,-46 166,-46 166,-46 0,-46"/>
<polygon fill="none" stroke="#000000" points="0,0 0,-62 166,-62 166,0 0,0"/>
</g>
<!-- Types&#45;&gt;stat:IdentifiableArtifact -->
<g id="edge1" class="edge">
<title>Types:top&#45;&gt;stat:IdentifiableArtifact</title>
<path fill="none" stroke="#000000" d="M165,-54C183.6815,-54 203.7704,-54 222.7223,-54"/>
<polygon fill="#000000" stroke="#000000" points="222.8157,-57.5001 232.8156,-54 222.8156,-50.5001 222.8157,-57.5001"/>
<text text-anchor="middle" x="199.5" y="-57.4" font-family="Helvetica,sans-Serif" font-size="12.00" fill="#000000">has&#45;a</text>
</g>
</g>
</svg>
