<?xml version="1.0" encoding="UTF-8" standalone="no"?>
<!DOCTYPE svg PUBLIC "-//W3C//DTD SVG 1.1//EN"
 "http://www.w3.org/Graphics/SVG/1.1/DTD/svg11.dtd">
<!-- Generated by graphviz version 2.40.1 (20161225.0304)
 -->
<!-- Title: graphic Pages: 1 -->
<svg width="608pt" height="45pt"
 viewBox="0.00 0.00 608.00 45.00" xmlns="http://www.w3.org/2000/svg" xmlns:xlink="http://www.w3.org/1999/xlink">
<g id="graph0" class="graph" transform="scale(1 1) rotate(0) translate(4 41)">
<title>graphic</title>
<polygon fill="#ffffff" stroke="transparent" points="-4,4 -4,-41 604,-41 604,4 -4,4"/>
<!-- j:PersonDeathInvestigatorRequestedIndicator -->
<g id="node1" class="node">
<title>j:PersonDeathInvestigatorRequestedIndicator</title>
<text text-anchor="start" x="180" y="-21.4" font-family="Helvetica,sans-Serif" font-weight="bold" font-size="12.00" fill="#000000">j:PersonDeathInvestigatorRequestedIndicator</text>
<polygon fill="none" stroke="#ff0000" stroke-width="5" points="176.5,-14 176.5,-34 445.5,-34 445.5,-14 176.5,-14"/>
</g>
<!-- niem&#45;xs:boolean -->
<g id="node3" class="node">
<title>niem&#45;xs:boolean</title>
<g id="a_node3_0"><a xlink:href="../../niem-xs/boolean/#diagram" xlink:title="A data type for binary&#45;valued logic (true/false)." target="_top">
<text text-anchor="start" x="509.5" y="-20.4" font-family="Helvetica,sans-Serif" font-size="12.00" fill="#000000">niem&#45;xs:boolean</text>
</a>
</g>
<polygon fill="none" stroke="#000000" points="507,-15.5 507,-32.5 600,-32.5 600,-15.5 507,-15.5"/>
</g>
<!-- j:PersonDeathInvestigatorRequestedIndicator&#45;&gt;niem&#45;xs:boolean -->
<g id="edge2" class="edge">
<title>j:PersonDeathInvestigatorRequestedIndicator&#45;&gt;niem&#45;xs:boolean</title>
<path fill="none" stroke="#000000" d="M448.1939,-24C465.1824,-24 481.7459,-24 496.5191,-24"/>
<polygon fill="#000000" stroke="#000000" points="496.9404,-27.5001 506.9403,-24 496.9403,-20.5001 496.9404,-27.5001"/>
<text text-anchor="middle" x="477.5" y="-27.4" font-family="Helvetica,sans-Serif" font-size="12.00" fill="#000000">type</text>
</g>
<!-- Types -->
<g id="node2" class="node">
<title>Types</title>
<text text-anchor="start" x="2.5" y="-21.4" font-family="Helvetica,sans-Serif" font-weight="bold" font-size="12.00" fill="#000000">Types</text>
<g id="a_node2_1"><a xlink:href="../../j/PersonDeathType/#diagram" xlink:title="A data type for a set of details about a person&#39;s death." target="_top">
<polygon fill="#ebebeb" stroke="transparent" points="1.5,-1 1.5,-16 106.5,-16 106.5,-1 1.5,-1"/>
<text text-anchor="start" x="2.5" y="-5.4" font-family="Helvetica,sans-Serif" font-size="12.00" fill="#000000">j:PersonDeathType</text>
</a>
</g>
<polygon fill="#000000" stroke="#000000" points=".5,-16 .5,-16 107.5,-16 107.5,-16 .5,-16"/>
<polygon fill="none" stroke="#000000" points="0,0 0,-32 107,-32 107,0 0,0"/>
</g>
<!-- Types&#45;&gt;j:PersonDeathInvestigatorRequestedIndicator -->
<g id="edge1" class="edge">
<title>Types:top&#45;&gt;j:PersonDeathInvestigatorRequestedIndicator</title>
<path fill="none" stroke="#000000" d="M106.5,-24C125.018,-24 144.4792,-24 163.7305,-24"/>
<polygon fill="#000000" stroke="#000000" points="163.7726,-27.5001 173.7725,-24 163.7725,-20.5001 163.7726,-27.5001"/>
<text text-anchor="middle" x="140.5" y="-27.4" font-family="Helvetica,sans-Serif" font-size="12.00" fill="#000000">has&#45;a</text>
</g>
</g>
</svg>
