<?xml version="1.0" encoding="UTF-8" standalone="no"?>
<!DOCTYPE svg PUBLIC "-//W3C//DTD SVG 1.1//EN"
 "http://www.w3.org/Graphics/SVG/1.1/DTD/svg11.dtd">
<!-- Generated by graphviz version 2.40.1 (20161225.0304)
 -->
<!-- Title: graphic Pages: 1 -->
<svg width="585pt" height="45pt"
 viewBox="0.00 0.00 585.00 45.00" xmlns="http://www.w3.org/2000/svg" xmlns:xlink="http://www.w3.org/1999/xlink">
<g id="graph0" class="graph" transform="scale(1 1) rotate(0) translate(4 41)">
<title>graphic</title>
<polygon fill="#ffffff" stroke="transparent" points="-4,4 -4,-41 581,-41 581,4 -4,4"/>
<!-- j:HashValueBase64BinaryObject -->
<g id="node1" class="node">
<title>j:HashValueBase64BinaryObject</title>
<text text-anchor="start" x="203" y="-21.4" font-family="Helvetica,sans-Serif" font-weight="bold" font-size="12.00" fill="#000000">j:HashValueBase64BinaryObject</text>
<polygon fill="none" stroke="#ff0000" stroke-width="5" points="199.5,-14 199.5,-34 392.5,-34 392.5,-14 199.5,-14"/>
</g>
<!-- niem&#45;xs:base64Binary -->
<g id="node3" class="node">
<title>niem&#45;xs:base64Binary</title>
<g id="a_node3_0"><a xlink:href="../../niem-xs/base64Binary/#diagram" xlink:title="A data type for Base64&#45;encoded binary data." target="_top">
<text text-anchor="start" x="456.5" y="-20.4" font-family="Helvetica,sans-Serif" font-size="12.00" fill="#000000">niem&#45;xs:base64Binary</text>
</a>
</g>
<polygon fill="none" stroke="#000000" points="454,-15.5 454,-32.5 577,-32.5 577,-15.5 454,-15.5"/>
</g>
<!-- j:HashValueBase64BinaryObject&#45;&gt;niem&#45;xs:base64Binary -->
<g id="edge2" class="edge">
<title>j:HashValueBase64BinaryObject&#45;&gt;niem&#45;xs:base64Binary</title>
<path fill="none" stroke="#000000" d="M395.1541,-24C411.5568,-24 428.2781,-24 443.8342,-24"/>
<polygon fill="#000000" stroke="#000000" points="443.8734,-27.5001 453.8734,-24 443.8734,-20.5001 443.8734,-27.5001"/>
<text text-anchor="middle" x="424.5" y="-27.4" font-family="Helvetica,sans-Serif" font-size="12.00" fill="#000000">type</text>
</g>
<!-- Types -->
<g id="node2" class="node">
<title>Types</title>
<text text-anchor="start" x="2" y="-21.4" font-family="Helvetica,sans-Serif" font-weight="bold" font-size="12.00" fill="#000000">Types</text>
<g id="a_node2_1"><a xlink:href="../../j/BinaryHashValueType/#diagram" xlink:title="A data type for a binary hash value." target="_top">
<polygon fill="#ebebeb" stroke="transparent" points="1,-1 1,-16 129,-16 129,-1 1,-1"/>
<text text-anchor="start" x="2" y="-5.4" font-family="Helvetica,sans-Serif" font-size="12.00" fill="#000000">j:BinaryHashValueType</text>
</a>
</g>
<polygon fill="#000000" stroke="#000000" points="0,-16 0,-16 130,-16 130,-16 0,-16"/>
<polygon fill="none" stroke="#000000" points="0,0 0,-32 130,-32 130,0 0,0"/>
</g>
<!-- Types&#45;&gt;j:HashValueBase64BinaryObject -->
<g id="edge1" class="edge">
<title>Types:top&#45;&gt;j:HashValueBase64BinaryObject</title>
<path fill="none" stroke="#000000" d="M129,-24C147.555,-24 167.2696,-24 186.4045,-24"/>
<polygon fill="#000000" stroke="#000000" points="186.6552,-27.5001 196.6552,-24 186.6551,-20.5001 186.6552,-27.5001"/>
<text text-anchor="middle" x="163.5" y="-27.4" font-family="Helvetica,sans-Serif" font-size="12.00" fill="#000000">has&#45;a</text>
</g>
</g>
</svg>
