<?xml version="1.0" encoding="UTF-8" standalone="no"?>
<!DOCTYPE svg PUBLIC "-//W3C//DTD SVG 1.1//EN"
 "http://www.w3.org/Graphics/SVG/1.1/DTD/svg11.dtd">
<!-- Generated by graphviz version 2.40.1 (20161225.0304)
 -->
<!-- Title: graphic Pages: 1 -->
<svg width="490pt" height="45pt"
 viewBox="0.00 0.00 490.00 45.00" xmlns="http://www.w3.org/2000/svg" xmlns:xlink="http://www.w3.org/1999/xlink">
<g id="graph0" class="graph" transform="scale(1 1) rotate(0) translate(4 41)">
<title>graphic</title>
<polygon fill="#ffffff" stroke="transparent" points="-4,4 -4,-41 486,-41 486,4 -4,4"/>
<!-- j:EvidenceReturnedIndicator -->
<g id="node1" class="node">
<title>j:EvidenceReturnedIndicator</title>
<text text-anchor="start" x="160" y="-21.4" font-family="Helvetica,sans-Serif" font-weight="bold" font-size="12.00" fill="#000000">j:EvidenceReturnedIndicator</text>
<polygon fill="none" stroke="#ff0000" stroke-width="5" points="156.5,-14 156.5,-34 327.5,-34 327.5,-14 156.5,-14"/>
</g>
<!-- niem&#45;xs:boolean -->
<g id="node3" class="node">
<title>niem&#45;xs:boolean</title>
<g id="a_node3_0"><a xlink:href="../../niem-xs/boolean/#diagram" xlink:title="A data type for binary&#45;valued logic (true/false)." target="_top">
<text text-anchor="start" x="391.5" y="-20.4" font-family="Helvetica,sans-Serif" font-size="12.00" fill="#000000">niem&#45;xs:boolean</text>
</a>
</g>
<polygon fill="none" stroke="#000000" points="389,-15.5 389,-32.5 482,-32.5 482,-15.5 389,-15.5"/>
</g>
<!-- j:EvidenceReturnedIndicator&#45;&gt;niem&#45;xs:boolean -->
<g id="edge2" class="edge">
<title>j:EvidenceReturnedIndicator&#45;&gt;niem&#45;xs:boolean</title>
<path fill="none" stroke="#000000" d="M330.2563,-24C346.6965,-24 363.4663,-24 378.6472,-24"/>
<polygon fill="#000000" stroke="#000000" points="378.8797,-27.5001 388.8797,-24 378.8797,-20.5001 378.8797,-27.5001"/>
<text text-anchor="middle" x="359.5" y="-27.4" font-family="Helvetica,sans-Serif" font-size="12.00" fill="#000000">type</text>
</g>
<!-- Types -->
<g id="node2" class="node">
<title>Types</title>
<text text-anchor="start" x="2.5" y="-21.4" font-family="Helvetica,sans-Serif" font-weight="bold" font-size="12.00" fill="#000000">Types</text>
<g id="a_node2_1"><a xlink:href="../../j/EvidenceType/#diagram" xlink:title="A data type for an item received by or submitted to an agency for use in ascertaining the truth of a matter." target="_top">
<polygon fill="#ebebeb" stroke="transparent" points="1.5,-1 1.5,-16 86.5,-16 86.5,-1 1.5,-1"/>
<text text-anchor="start" x="2.5" y="-5.4" font-family="Helvetica,sans-Serif" font-size="12.00" fill="#000000">j:EvidenceType</text>
</a>
</g>
<polygon fill="#000000" stroke="#000000" points=".5,-16 .5,-16 87.5,-16 87.5,-16 .5,-16"/>
<polygon fill="none" stroke="#000000" points="0,0 0,-32 87,-32 87,0 0,0"/>
</g>
<!-- Types&#45;&gt;j:EvidenceReturnedIndicator -->
<g id="edge1" class="edge">
<title>Types:top&#45;&gt;j:EvidenceReturnedIndicator</title>
<path fill="none" stroke="#000000" d="M86.5,-24C104.9214,-24 124.5704,-24 143.4838,-24"/>
<polygon fill="#000000" stroke="#000000" points="143.5986,-27.5001 153.5986,-24 143.5986,-20.5001 143.5986,-27.5001"/>
<text text-anchor="middle" x="120.5" y="-27.4" font-family="Helvetica,sans-Serif" font-size="12.00" fill="#000000">has&#45;a</text>
</g>
</g>
</svg>
