<?xml version="1.0" encoding="UTF-8" standalone="no"?>
<!DOCTYPE svg PUBLIC "-//W3C//DTD SVG 1.1//EN"
 "http://www.w3.org/Graphics/SVG/1.1/DTD/svg11.dtd">
<!-- Generated by graphviz version 2.40.1 (20161225.0304)
 -->
<!-- Title: graphic Pages: 1 -->
<svg width="599pt" height="154pt"
 viewBox="0.00 0.00 599.00 153.50" xmlns="http://www.w3.org/2000/svg" xmlns:xlink="http://www.w3.org/1999/xlink">
<g id="graph0" class="graph" transform="scale(1 1) rotate(0) translate(4 149.5)">
<title>graphic</title>
<polygon fill="#ffffff" stroke="transparent" points="-4,4 -4,-149.5 595,-149.5 595,4 -4,4"/>
<!-- biom:ScanningResolutionCategoryCodeType -->
<g id="node1" class="node">
<title>biom:ScanningResolutionCategoryCodeType</title>
<text text-anchor="start" x="321.5" y="-25.4" font-family="Helvetica,sans-Serif" font-weight="bold" font-size="12.00" fill="#000000">biom:ScanningResolutionCategoryCodeType</text>
<g id="a_node1_0"><a xlink:href="../../structures/SimpleObjectAttributeGroup/#diagram" xlink:title="A group of attributes that are applicable to objects, to be used when defining a complex type that is an extension of a simple type." target="_top">
<polygon fill="#ebebeb" stroke="transparent" points="320.5,-5 320.5,-20 581.5,-20 581.5,-5 320.5,-5"/>
<text text-anchor="start" x="321.5" y="-9.4" font-family="Helvetica,sans-Serif" font-size="12.00" fill="#000000">structures:SimpleObjectAttributeGroup</text>
</a>
</g>
<polygon fill="#ff0000" stroke="#ff0000" points="315.5,-20 315.5,-20 586.5,-20 586.5,-20 315.5,-20"/>
<polygon fill="none" stroke="#ff0000" stroke-width="5" points="317.5,-2.5 317.5,-37.5 583.5,-37.5 583.5,-2.5 317.5,-2.5"/>
</g>
<!-- Properties -->
<g id="node2" class="node">
<title>Properties</title>
<text text-anchor="start" x="2.5" y="-25.4" font-family="Helvetica,sans-Serif" font-weight="bold" font-size="12.00" fill="#000000">Properties</text>
<g id="a_node2_1"><a xlink:href="../../biom/ImageScanningResolutionCategoryCode/#diagram" xlink:title="An indication of whether minimal (nominal) or native scanning resolution applies to a biometric image." target="_top">
<polygon fill="#ebebeb" stroke="transparent" points="1.5,-5 1.5,-20 250.5,-20 250.5,-5 1.5,-5"/>
<text text-anchor="start" x="2.5" y="-9.4" font-family="Helvetica,sans-Serif" font-size="12.00" fill="#000000">biom:ImageScanningResolutionCategoryCode</text>
</a>
</g>
<polygon fill="#000000" stroke="#000000" points=".5,-20 .5,-20 251.5,-20 251.5,-20 .5,-20"/>
<polygon fill="none" stroke="#000000" points="0,-4 0,-36 251,-36 251,-4 0,-4"/>
</g>
<!-- Properties&#45;&gt;biom:ScanningResolutionCategoryCodeType -->
<g id="edge1" class="edge">
<title>Properties:top&#45;&gt;biom:ScanningResolutionCategoryCodeType:top</title>
<path fill="none" stroke="#000000" d="M250.5,-28C277.9653,-28 287.2455,-28 310.4487,-28"/>
<polygon fill="#000000" stroke="#000000" points="310.5,-31.5001 320.5,-28 310.5,-24.5001 310.5,-31.5001"/>
<text text-anchor="middle" x="280.5" y="-31.4" font-family="Helvetica,sans-Serif" font-size="12.00" fill="#000000">type</text>
</g>
<!-- biom:ScanningResolutionCategoryCodeSimpleType -->
<g id="node3" class="node">
<title>biom:ScanningResolutionCategoryCodeSimpleType</title>
<g id="a_node3_2"><a xlink:href="../../biom/ScanningResolutionCategoryCodeSimpleType/#diagram" xlink:title="A data type for an indication of whether minimal (nominal) or native scanning resolution applies to a biometric image." target="_top">
<text text-anchor="start" x="312.5" y="-80.4" font-family="Helvetica,sans-Serif" font-size="12.00" fill="#000000">biom:ScanningResolutionCategoryCodeSimpleType</text>
</a>
</g>
<polygon fill="none" stroke="#000000" points="310,-75.5 310,-92.5 591,-92.5 591,-75.5 310,-75.5"/>
</g>
<!-- biom:ScanningResolutionCategoryCodeSimpleType&#45;&gt;biom:ScanningResolutionCategoryCodeType -->
<g id="edge2" class="edge">
<title>biom:ScanningResolutionCategoryCodeSimpleType&#45;&gt;biom:ScanningResolutionCategoryCodeType</title>
<path fill="none" stroke="#000000" d="M450.5,-75.4351C450.5,-68.931 450.5,-59.5678 450.5,-50.3827"/>
<polygon fill="#000000" stroke="#000000" points="454.0001,-50.25 450.5,-40.25 447.0001,-50.25 454.0001,-50.25"/>
<text text-anchor="middle" x="441" y="-54.65" font-family="Helvetica,sans-Serif" font-size="12.00" fill="#000000">extension</text>
</g>
<!-- xs:token -->
<g id="node4" class="node">
<title>xs:token</title>
<g id="a_node4_3"><a xlink:href="../../xs/token/#diagram" xlink:title="&lt;TABLE&gt;" target="_top">
<text text-anchor="start" x="428.5" y="-133.4" font-family="Helvetica,sans-Serif" font-size="12.00" fill="#000000">xs:token</text>
</a>
</g>
<polygon fill="none" stroke="#000000" points="426,-128.5 426,-145.5 475,-145.5 475,-128.5 426,-128.5"/>
</g>
<!-- xs:token&#45;&gt;biom:ScanningResolutionCategoryCodeSimpleType -->
<g id="edge3" class="edge">
<title>xs:token&#45;&gt;biom:ScanningResolutionCategoryCodeSimpleType</title>
<path fill="none" stroke="#000000" d="M450.5,-128.411C450.5,-121.5124 450.5,-111.5696 450.5,-102.84"/>
<polygon fill="#000000" stroke="#000000" points="454.0001,-102.7518 450.5,-92.7519 447.0001,-102.7519 454.0001,-102.7518"/>
<text text-anchor="middle" x="441" y="-107.4" font-family="Helvetica,sans-Serif" font-size="12.00" fill="#000000">restriction</text>
</g>
</g>
</svg>
