<?xml version="1.0" encoding="UTF-8" standalone="no"?>
<!DOCTYPE svg PUBLIC "-//W3C//DTD SVG 1.1//EN"
 "http://www.w3.org/Graphics/SVG/1.1/DTD/svg11.dtd">
<!-- Generated by graphviz version 2.40.1 (20161225.0304)
 -->
<!-- Title: graphic Pages: 1 -->
<svg width="404pt" height="45pt"
 viewBox="0.00 0.00 404.00 45.00" xmlns="http://www.w3.org/2000/svg" xmlns:xlink="http://www.w3.org/1999/xlink">
<g id="graph0" class="graph" transform="scale(1 1) rotate(0) translate(4 41)">
<title>graphic</title>
<polygon fill="#ffffff" stroke="transparent" points="-4,4 -4,-41 400,-41 400,4 -4,4"/>
<!-- nc:MapDate -->
<g id="node1" class="node">
<title>nc:MapDate</title>
<text text-anchor="start" x="189.5" y="-21.4" font-family="Helvetica,sans-Serif" font-weight="bold" font-size="12.00" fill="#000000">nc:MapDate</text>
<polygon fill="none" stroke="#ff0000" stroke-width="5" points="185.5,-14 185.5,-34 261.5,-34 261.5,-14 185.5,-14"/>
</g>
<!-- nc:DateType -->
<g id="node3" class="node">
<title>nc:DateType</title>
<g id="a_node3_0"><a xlink:href="../../nc/DateType/#diagram" xlink:title="A data type for a calendar date." target="_top">
<text text-anchor="start" x="325.5" y="-20.4" font-family="Helvetica,sans-Serif" font-size="12.00" fill="#000000">nc:DateType</text>
</a>
</g>
<polygon fill="none" stroke="#000000" points="323,-15.5 323,-32.5 396,-32.5 396,-15.5 323,-15.5"/>
</g>
<!-- nc:MapDate&#45;&gt;nc:DateType -->
<g id="edge2" class="edge">
<title>nc:MapDate&#45;&gt;nc:DateType</title>
<path fill="none" stroke="#000000" d="M264.3045,-24C279.5799,-24 297.0475,-24 312.8143,-24"/>
<polygon fill="#000000" stroke="#000000" points="312.8896,-27.5001 322.8896,-24 312.8895,-20.5001 312.8896,-27.5001"/>
<text text-anchor="middle" x="293.5" y="-27.4" font-family="Helvetica,sans-Serif" font-size="12.00" fill="#000000">type</text>
</g>
<!-- Types -->
<g id="node2" class="node">
<title>Types</title>
<text text-anchor="start" x="2" y="-21.4" font-family="Helvetica,sans-Serif" font-weight="bold" font-size="12.00" fill="#000000">Types</text>
<g id="a_node2_1"><a xlink:href="../../nc/MapLocationType/#diagram" xlink:title="A data type for a location identified by map or grid coordinates." target="_top">
<polygon fill="#ebebeb" stroke="transparent" points="1,-1 1,-16 115,-16 115,-1 1,-1"/>
<text text-anchor="start" x="2" y="-5.4" font-family="Helvetica,sans-Serif" font-size="12.00" fill="#000000">nc:MapLocationType</text>
</a>
</g>
<polygon fill="#000000" stroke="#000000" points="0,-16 0,-16 116,-16 116,-16 0,-16"/>
<polygon fill="none" stroke="#000000" points="0,0 0,-32 116,-32 116,0 0,0"/>
</g>
<!-- Types&#45;&gt;nc:MapDate -->
<g id="edge1" class="edge">
<title>Types:top&#45;&gt;nc:MapDate</title>
<path fill="none" stroke="#000000" d="M115,-24C133.8258,-24 154.4889,-24 172.6856,-24"/>
<polygon fill="#000000" stroke="#000000" points="172.7969,-27.5001 182.7969,-24 172.7968,-20.5001 172.7969,-27.5001"/>
<text text-anchor="middle" x="149.5" y="-27.4" font-family="Helvetica,sans-Serif" font-size="12.00" fill="#000000">has&#45;a</text>
</g>
</g>
</svg>
