<?xml version="1.0" encoding="UTF-8" standalone="no"?>
<!DOCTYPE svg PUBLIC "-//W3C//DTD SVG 1.1//EN"
 "http://www.w3.org/Graphics/SVG/1.1/DTD/svg11.dtd">
<!-- Generated by graphviz version 2.40.1 (20161225.0304)
 -->
<!-- Title: graphic Pages: 1 -->
<svg width="412pt" height="86pt"
 viewBox="0.00 0.00 412.00 86.00" xmlns="http://www.w3.org/2000/svg" xmlns:xlink="http://www.w3.org/1999/xlink">
<g id="graph0" class="graph" transform="scale(1 1) rotate(0) translate(4 82)">
<title>graphic</title>
<polygon fill="#ffffff" stroke="transparent" points="-4,4 -4,-82 408,-82 408,4 -4,4"/>
<!-- it:ObligationAugmentation -->
<g id="node1" class="node">
<title>it:ObligationAugmentation</title>
<text text-anchor="start" x="12" y="-9.9" font-family="Helvetica,sans-Serif" font-weight="bold" font-size="12.00" fill="#000000">it:ObligationAugmentation</text>
<polygon fill="none" stroke="#ff0000" stroke-width="5" points="8.5,-2.5 8.5,-22.5 167.5,-22.5 167.5,-2.5 8.5,-2.5"/>
</g>
<!-- it:ObligationAugmentationType -->
<g id="node3" class="node">
<title>it:ObligationAugmentationType</title>
<g id="a_node3_0"><a xlink:href="../../it/ObligationAugmentationType/#diagram" xlink:title="A data type for additional information about an obligation." target="_top">
<text text-anchor="start" x="237.5" y="-8.9" font-family="Helvetica,sans-Serif" font-size="12.00" fill="#000000">it:ObligationAugmentationType</text>
</a>
</g>
<polygon fill="none" stroke="#000000" points="235,-4 235,-21 404,-21 404,-4 235,-4"/>
</g>
<!-- it:ObligationAugmentation&#45;&gt;it:ObligationAugmentationType -->
<g id="edge2" class="edge">
<title>it:ObligationAugmentation&#45;&gt;it:ObligationAugmentationType</title>
<path fill="none" stroke="#000000" d="M170.2701,-12.5C187.8427,-12.5 206.5416,-12.5 224.5465,-12.5"/>
<polygon fill="#000000" stroke="#000000" points="224.7586,-16.0001 234.7586,-12.5 224.7585,-9.0001 224.7586,-16.0001"/>
<text text-anchor="middle" x="205.5" y="-15.9" font-family="Helvetica,sans-Serif" font-size="12.00" fill="#000000">type</text>
</g>
<!-- SubstitutionGroup -->
<g id="node2" class="node">
<title>SubstitutionGroup</title>
<g id="a_node2_1"><a xlink:href="../../nc/ObligationAugmentationPoint/#diagram" xlink:title="An augmentation point for ObligationType." target="_top">
<text text-anchor="start" x="2" y="-65.9" font-family="Helvetica,sans-Serif" font-size="12.00" fill="#000000">nc:ObligationAugmentationPoint</text>
</a>
</g>
<polygon fill="none" stroke="#000000" points="0,-61 0,-78 176,-78 176,-61 0,-61"/>
</g>
<!-- SubstitutionGroup&#45;&gt;it:ObligationAugmentation -->
<g id="edge1" class="edge">
<title>SubstitutionGroup&#45;&gt;it:ObligationAugmentation</title>
<path fill="none" stroke="#000000" d="M88,-50.9163C88,-42.4809 88,-32.7214 88,-25.1501"/>
<polygon fill="#000000" stroke="#000000" points="84.5001,-50.9472 88,-60.9473 91.5001,-50.9473 84.5001,-50.9472"/>
<text text-anchor="middle" x="78.5" y="-39.9" font-family="Helvetica,sans-Serif" font-size="12.00" fill="#000000">substitution group</text>
</g>
</g>
</svg>
