<?xml version="1.0" encoding="UTF-8" standalone="no"?>
<!DOCTYPE svg PUBLIC "-//W3C//DTD SVG 1.1//EN"
 "http://www.w3.org/Graphics/SVG/1.1/DTD/svg11.dtd">
<!-- Generated by graphviz version 2.40.1 (20161225.0304)
 -->
<!-- Title: graphic Pages: 1 -->
<svg width="487pt" height="45pt"
 viewBox="0.00 0.00 487.00 45.00" xmlns="http://www.w3.org/2000/svg" xmlns:xlink="http://www.w3.org/1999/xlink">
<g id="graph0" class="graph" transform="scale(1 1) rotate(0) translate(4 41)">
<title>graphic</title>
<polygon fill="#ffffff" stroke="transparent" points="-4,4 -4,-41 483,-41 483,4 -4,4"/>
<!-- em:AlarmLocation -->
<g id="node1" class="node">
<title>em:AlarmLocation</title>
<text text-anchor="start" x="215" y="-21.4" font-family="Helvetica,sans-Serif" font-weight="bold" font-size="12.00" fill="#000000">em:AlarmLocation</text>
<polygon fill="none" stroke="#ff0000" stroke-width="5" points="211.5,-14 211.5,-34 324.5,-34 324.5,-14 211.5,-14"/>
</g>
<!-- nc:LocationType -->
<g id="node3" class="node">
<title>nc:LocationType</title>
<g id="a_node3_0"><a xlink:href="../../nc/LocationType/#diagram" xlink:title="A data type for geospatial location." target="_top">
<text text-anchor="start" x="388.5" y="-20.4" font-family="Helvetica,sans-Serif" font-size="12.00" fill="#000000">nc:LocationType</text>
</a>
</g>
<polygon fill="none" stroke="#000000" points="386,-15.5 386,-32.5 479,-32.5 479,-15.5 386,-15.5"/>
</g>
<!-- em:AlarmLocation&#45;&gt;nc:LocationType -->
<g id="edge2" class="edge">
<title>em:AlarmLocation&#45;&gt;nc:LocationType</title>
<path fill="none" stroke="#000000" d="M327.3883,-24C343.1663,-24 360.1635,-24 375.7943,-24"/>
<polygon fill="#000000" stroke="#000000" points="375.8421,-27.5001 385.8421,-24 375.8421,-20.5001 375.8421,-27.5001"/>
<text text-anchor="middle" x="356.5" y="-27.4" font-family="Helvetica,sans-Serif" font-size="12.00" fill="#000000">type</text>
</g>
<!-- Types -->
<g id="node2" class="node">
<title>Types</title>
<text text-anchor="start" x="2" y="-21.4" font-family="Helvetica,sans-Serif" font-weight="bold" font-size="12.00" fill="#000000">Types</text>
<g id="a_node2_1"><a xlink:href="../../em/AlarmNotificationType/#diagram" xlink:title="A data type for an alarm" target="_top">
<polygon fill="#ebebeb" stroke="transparent" points="1,-1 1,-16 141,-16 141,-1 1,-1"/>
<text text-anchor="start" x="2" y="-5.4" font-family="Helvetica,sans-Serif" font-size="12.00" fill="#000000">em:AlarmNotificationType</text>
</a>
</g>
<polygon fill="#000000" stroke="#000000" points="0,-16 0,-16 142,-16 142,-16 0,-16"/>
<polygon fill="none" stroke="#000000" points="0,0 0,-32 142,-32 142,0 0,0"/>
</g>
<!-- Types&#45;&gt;em:AlarmLocation -->
<g id="edge1" class="edge">
<title>Types:top&#45;&gt;em:AlarmLocation</title>
<path fill="none" stroke="#000000" d="M141,-24C159.6965,-24 179.9413,-24 198.6573,-24"/>
<polygon fill="#000000" stroke="#000000" points="198.8783,-27.5001 208.8783,-24 198.8782,-20.5001 198.8783,-27.5001"/>
<text text-anchor="middle" x="175.5" y="-27.4" font-family="Helvetica,sans-Serif" font-size="12.00" fill="#000000">has&#45;a</text>
</g>
</g>
</svg>
