<?xml version="1.0" encoding="UTF-8" standalone="no"?>
<!DOCTYPE svg PUBLIC "-//W3C//DTD SVG 1.1//EN"
 "http://www.w3.org/Graphics/SVG/1.1/DTD/svg11.dtd">
<!-- Generated by graphviz version 2.40.1 (20161225.0304)
 -->
<!-- Title: graphic Pages: 1 -->
<svg width="475pt" height="86pt"
 viewBox="0.00 0.00 475.00 86.00" xmlns="http://www.w3.org/2000/svg" xmlns:xlink="http://www.w3.org/1999/xlink">
<g id="graph0" class="graph" transform="scale(1 1) rotate(0) translate(4 82)">
<title>graphic</title>
<polygon fill="#ffffff" stroke="transparent" points="-4,4 -4,-82 471,-82 471,4 -4,4"/>
<!-- bls:EmployeeOccupationCategoryCode -->
<g id="node1" class="node">
<title>bls:EmployeeOccupationCategoryCode</title>
<text text-anchor="start" x="6.5" y="-9.9" font-family="Helvetica,sans-Serif" font-weight="bold" font-size="12.00" fill="#000000">bls:EmployeeOccupationCategoryCode</text>
<polygon fill="none" stroke="#ff0000" stroke-width="5" points="2.5,-2.5 2.5,-22.5 236.5,-22.5 236.5,-2.5 2.5,-2.5"/>
</g>
<!-- bls:OccupationMinorCodeType -->
<g id="node3" class="node">
<title>bls:OccupationMinorCodeType</title>
<g id="a_node3_0"><a xlink:href="../../bls/OccupationMinorCodeType/#diagram" xlink:title="A data type for minor or second&#45;level occupation codes." target="_top">
<text text-anchor="start" x="300.5" y="-8.9" font-family="Helvetica,sans-Serif" font-size="12.00" fill="#000000">bls:OccupationMinorCodeType</text>
</a>
</g>
<polygon fill="none" stroke="#000000" points="298,-4 298,-21 467,-21 467,-4 298,-4"/>
</g>
<!-- bls:EmployeeOccupationCategoryCode&#45;&gt;bls:OccupationMinorCodeType -->
<g id="edge2" class="edge">
<title>bls:EmployeeOccupationCategoryCode&#45;&gt;bls:OccupationMinorCodeType</title>
<path fill="none" stroke="#000000" d="M239.0717,-12.5C255.3232,-12.5 271.8197,-12.5 287.5573,-12.5"/>
<polygon fill="#000000" stroke="#000000" points="287.7794,-16.0001 297.7794,-12.5 287.7794,-9.0001 287.7794,-16.0001"/>
<text text-anchor="middle" x="268.5" y="-15.9" font-family="Helvetica,sans-Serif" font-size="12.00" fill="#000000">type</text>
</g>
<!-- SubstitutionGroup -->
<g id="node2" class="node">
<title>SubstitutionGroup</title>
<g id="a_node2_1"><a xlink:href="../../nc/EmployeeOccupationCategoryAbstract/#diagram" xlink:title="A data concept for a general kind of job of an employee." target="_top">
<text text-anchor="start" x="8.5" y="-65.9" font-family="Helvetica,sans-Serif" font-size="12.00" fill="#000000">nc:EmployeeOccupationCategoryAbstract</text>
</a>
</g>
<polygon fill="none" stroke="#000000" points="6,-61 6,-78 233,-78 233,-61 6,-61"/>
</g>
<!-- SubstitutionGroup&#45;&gt;bls:EmployeeOccupationCategoryCode -->
<g id="edge1" class="edge">
<title>SubstitutionGroup&#45;&gt;bls:EmployeeOccupationCategoryCode</title>
<path fill="none" stroke="#000000" d="M119.5,-50.9163C119.5,-42.4809 119.5,-32.7214 119.5,-25.1501"/>
<polygon fill="#000000" stroke="#000000" points="116.0001,-50.9472 119.5,-60.9473 123.0001,-50.9473 116.0001,-50.9472"/>
<text text-anchor="middle" x="110" y="-39.9" font-family="Helvetica,sans-Serif" font-size="12.00" fill="#000000">substitution group</text>
</g>
</g>
</svg>
