<?xml version="1.0" encoding="UTF-8" standalone="no"?>
<!DOCTYPE svg PUBLIC "-//W3C//DTD SVG 1.1//EN"
 "http://www.w3.org/Graphics/SVG/1.1/DTD/svg11.dtd">
<!-- Generated by graphviz version 2.40.1 (20161225.0304)
 -->
<!-- Title: graphic Pages: 1 -->
<svg width="530pt" height="45pt"
 viewBox="0.00 0.00 530.00 45.00" xmlns="http://www.w3.org/2000/svg" xmlns:xlink="http://www.w3.org/1999/xlink">
<g id="graph0" class="graph" transform="scale(1 1) rotate(0) translate(4 41)">
<title>graphic</title>
<polygon fill="#ffffff" stroke="transparent" points="-4,4 -4,-41 526,-41 526,4 -4,4"/>
<!-- stat:ProcessDesign -->
<g id="node1" class="node">
<title>stat:ProcessDesign</title>
<text text-anchor="start" x="209.5" y="-21.4" font-family="Helvetica,sans-Serif" font-weight="bold" font-size="12.00" fill="#000000">stat:ProcessDesign</text>
<polygon fill="none" stroke="#ff0000" stroke-width="5" points="205.5,-14 205.5,-34 325.5,-34 325.5,-14 205.5,-14"/>
</g>
<!-- stat:ProcessDesignType -->
<g id="node3" class="node">
<title>stat:ProcessDesignType</title>
<g id="a_node3_0"><a xlink:href="../../stat/ProcessDesignType/#diagram" xlink:title="A data type for a process design specifies delivery of business functions." target="_top">
<text text-anchor="start" x="389.5" y="-20.4" font-family="Helvetica,sans-Serif" font-size="12.00" fill="#000000">stat:ProcessDesignType</text>
</a>
</g>
<polygon fill="none" stroke="#000000" points="387,-15.5 387,-32.5 522,-32.5 522,-15.5 387,-15.5"/>
</g>
<!-- stat:ProcessDesign&#45;&gt;stat:ProcessDesignType -->
<g id="edge2" class="edge">
<title>stat:ProcessDesign&#45;&gt;stat:ProcessDesignType</title>
<path fill="none" stroke="#000000" d="M328.1717,-24C343.5972,-24 360.3037,-24 376.3603,-24"/>
<polygon fill="#000000" stroke="#000000" points="376.7979,-27.5001 386.7979,-24 376.7979,-20.5001 376.7979,-27.5001"/>
<text text-anchor="middle" x="357.5" y="-27.4" font-family="Helvetica,sans-Serif" font-size="12.00" fill="#000000">type</text>
</g>
<!-- Types -->
<g id="node2" class="node">
<title>Types</title>
<text text-anchor="start" x="2" y="-21.4" font-family="Helvetica,sans-Serif" font-weight="bold" font-size="12.00" fill="#000000">Types</text>
<g id="a_node2_1"><a xlink:href="../../stat/ProcessPatternType/#diagram" xlink:title="A data type for a nominated set of process designs, and associated process control designs (flow), which have been highlighted for possible reuse." target="_top">
<polygon fill="#ebebeb" stroke="transparent" points="1,-1 1,-16 135,-16 135,-1 1,-1"/>
<text text-anchor="start" x="2" y="-5.4" font-family="Helvetica,sans-Serif" font-size="12.00" fill="#000000">stat:ProcessPatternType</text>
</a>
</g>
<polygon fill="#000000" stroke="#000000" points="0,-16 0,-16 136,-16 136,-16 0,-16"/>
<polygon fill="none" stroke="#000000" points="0,0 0,-32 136,-32 136,0 0,0"/>
</g>
<!-- Types&#45;&gt;stat:ProcessDesign -->
<g id="edge1" class="edge">
<title>Types:top&#45;&gt;stat:ProcessDesign</title>
<path fill="none" stroke="#000000" d="M135,-24C153.6383,-24 173.774,-24 192.5199,-24"/>
<polygon fill="#000000" stroke="#000000" points="192.7731,-27.5001 202.773,-24 192.773,-20.5001 192.7731,-27.5001"/>
<text text-anchor="middle" x="169.5" y="-27.4" font-family="Helvetica,sans-Serif" font-size="12.00" fill="#000000">has&#45;a</text>
</g>
</g>
</svg>
