<?xml version="1.0" encoding="UTF-8" standalone="no"?>
<!DOCTYPE svg PUBLIC "-//W3C//DTD SVG 1.1//EN"
 "http://www.w3.org/Graphics/SVG/1.1/DTD/svg11.dtd">
<!-- Generated by graphviz version 2.40.1 (20161225.0304)
 -->
<!-- Title: graphic Pages: 1 -->
<svg width="410pt" height="86pt"
 viewBox="0.00 0.00 410.00 86.00" xmlns="http://www.w3.org/2000/svg" xmlns:xlink="http://www.w3.org/1999/xlink">
<g id="graph0" class="graph" transform="scale(1 1) rotate(0) translate(4 82)">
<title>graphic</title>
<polygon fill="#ffffff" stroke="transparent" points="-4,4 -4,-82 406,-82 406,4 -4,4"/>
<!-- hs:MethodOfPaymentCode -->
<g id="node1" class="node">
<title>hs:MethodOfPaymentCode</title>
<text text-anchor="start" x="6.5" y="-9.9" font-family="Helvetica,sans-Serif" font-weight="bold" font-size="12.00" fill="#000000">hs:MethodOfPaymentCode</text>
<polygon fill="none" stroke="#ff0000" stroke-width="5" points="2.5,-2.5 2.5,-22.5 164.5,-22.5 164.5,-2.5 2.5,-2.5"/>
</g>
<!-- hs:MethodOfPaymentCodeType -->
<g id="node3" class="node">
<title>hs:MethodOfPaymentCodeType</title>
<g id="a_node3_0"><a xlink:href="../../hs/MethodOfPaymentCodeType/#diagram" xlink:title="A data type for a method of payment." target="_top">
<text text-anchor="start" x="228" y="-8.9" font-family="Helvetica,sans-Serif" font-size="12.00" fill="#000000">hs:MethodOfPaymentCodeType</text>
</a>
</g>
<polygon fill="none" stroke="#000000" points="226,-4 226,-21 402,-21 402,-4 226,-4"/>
</g>
<!-- hs:MethodOfPaymentCode&#45;&gt;hs:MethodOfPaymentCodeType -->
<g id="edge2" class="edge">
<title>hs:MethodOfPaymentCode&#45;&gt;hs:MethodOfPaymentCodeType</title>
<path fill="none" stroke="#000000" d="M167.0417,-12.5C182.8324,-12.5 199.4843,-12.5 215.6802,-12.5"/>
<polygon fill="#000000" stroke="#000000" points="215.6937,-16.0001 225.6937,-12.5 215.6937,-9.0001 215.6937,-16.0001"/>
<text text-anchor="middle" x="196.5" y="-15.9" font-family="Helvetica,sans-Serif" font-size="12.00" fill="#000000">type</text>
</g>
<!-- SubstitutionGroup -->
<g id="node2" class="node">
<title>SubstitutionGroup</title>
<g id="a_node2_1"><a xlink:href="../../hs/MethodOfPaymentAbstract/#diagram" xlink:title="A data concept for a method of payment." target="_top">
<text text-anchor="start" x="3.5" y="-65.9" font-family="Helvetica,sans-Serif" font-size="12.00" fill="#000000">hs:MethodOfPaymentAbstract</text>
</a>
</g>
<polygon fill="none" stroke="#000000" points="1,-61 1,-78 166,-78 166,-61 1,-61"/>
</g>
<!-- SubstitutionGroup&#45;&gt;hs:MethodOfPaymentCode -->
<g id="edge1" class="edge">
<title>SubstitutionGroup&#45;&gt;hs:MethodOfPaymentCode</title>
<path fill="none" stroke="#000000" d="M83.5,-50.9163C83.5,-42.4809 83.5,-32.7214 83.5,-25.1501"/>
<polygon fill="#000000" stroke="#000000" points="80.0001,-50.9472 83.5,-60.9473 87.0001,-50.9473 80.0001,-50.9472"/>
<text text-anchor="middle" x="74" y="-39.9" font-family="Helvetica,sans-Serif" font-size="12.00" fill="#000000">substitution group</text>
</g>
</g>
</svg>
