<?xml version="1.0" encoding="UTF-8" standalone="no"?>
<!DOCTYPE svg PUBLIC "-//W3C//DTD SVG 1.1//EN"
 "http://www.w3.org/Graphics/SVG/1.1/DTD/svg11.dtd">
<!-- Generated by graphviz version 2.40.1 (20161225.0304)
 -->
<!-- Title: graphic Pages: 1 -->
<svg width="559pt" height="45pt"
 viewBox="0.00 0.00 559.00 45.00" xmlns="http://www.w3.org/2000/svg" xmlns:xlink="http://www.w3.org/1999/xlink">
<g id="graph0" class="graph" transform="scale(1 1) rotate(0) translate(4 41)">
<title>graphic</title>
<polygon fill="#ffffff" stroke="transparent" points="-4,4 -4,-41 555,-41 555,4 -4,4"/>
<!-- cbrn:MapGuidePageNumberID -->
<g id="node1" class="node">
<title>cbrn:MapGuidePageNumberID</title>
<text text-anchor="start" x="232.5" y="-21.4" font-family="Helvetica,sans-Serif" font-weight="bold" font-size="12.00" fill="#000000">cbrn:MapGuidePageNumberID</text>
<polygon fill="none" stroke="#ff0000" stroke-width="5" points="228.5,-14 228.5,-34 410.5,-34 410.5,-14 228.5,-14"/>
</g>
<!-- niem&#45;xs:string -->
<g id="node3" class="node">
<title>niem&#45;xs:string</title>
<g id="a_node3_0"><a xlink:href="../../niem-xs/string/#diagram" xlink:title="A data type for character strings in XML." target="_top">
<text text-anchor="start" x="474.5" y="-20.4" font-family="Helvetica,sans-Serif" font-size="12.00" fill="#000000">niem&#45;xs:string</text>
</a>
</g>
<polygon fill="none" stroke="#000000" points="472,-15.5 472,-32.5 551,-32.5 551,-15.5 472,-15.5"/>
</g>
<!-- cbrn:MapGuidePageNumberID&#45;&gt;niem&#45;xs:string -->
<g id="edge2" class="edge">
<title>cbrn:MapGuidePageNumberID&#45;&gt;niem&#45;xs:string</title>
<path fill="none" stroke="#000000" d="M413.2502,-24C429.7957,-24 446.4303,-24 461.1868,-24"/>
<polygon fill="#000000" stroke="#000000" points="461.5718,-27.5001 471.5717,-24 461.5717,-20.5001 461.5718,-27.5001"/>
<text text-anchor="middle" x="442.5" y="-27.4" font-family="Helvetica,sans-Serif" font-size="12.00" fill="#000000">type</text>
</g>
<!-- Types -->
<g id="node2" class="node">
<title>Types</title>
<text text-anchor="start" x="2.5" y="-21.4" font-family="Helvetica,sans-Serif" font-weight="bold" font-size="12.00" fill="#000000">Types</text>
<g id="a_node2_1"><a xlink:href="../../cbrn/MapGuideLocationType/#diagram" xlink:title="A data type for location information based on a Guide map published by a vendor." target="_top">
<polygon fill="#ebebeb" stroke="transparent" points="1.5,-1 1.5,-16 158.5,-16 158.5,-1 1.5,-1"/>
<text text-anchor="start" x="2.5" y="-5.4" font-family="Helvetica,sans-Serif" font-size="12.00" fill="#000000">cbrn:MapGuideLocationType</text>
</a>
</g>
<polygon fill="#000000" stroke="#000000" points=".5,-16 .5,-16 159.5,-16 159.5,-16 .5,-16"/>
<polygon fill="none" stroke="#000000" points="0,0 0,-32 159,-32 159,0 0,0"/>
</g>
<!-- Types&#45;&gt;cbrn:MapGuidePageNumberID -->
<g id="edge1" class="edge">
<title>Types:top&#45;&gt;cbrn:MapGuidePageNumberID</title>
<path fill="none" stroke="#000000" d="M158.5,-24C176.9807,-24 196.6546,-24 215.6727,-24"/>
<polygon fill="#000000" stroke="#000000" points="215.8524,-27.5001 225.8524,-24 215.8524,-20.5001 215.8524,-27.5001"/>
<text text-anchor="middle" x="192.5" y="-27.4" font-family="Helvetica,sans-Serif" font-size="12.00" fill="#000000">has&#45;a</text>
</g>
</g>
</svg>
