<?xml version="1.0" encoding="UTF-8" standalone="no"?>
<!DOCTYPE svg PUBLIC "-//W3C//DTD SVG 1.1//EN"
 "http://www.w3.org/Graphics/SVG/1.1/DTD/svg11.dtd">
<!-- Generated by graphviz version 2.40.1 (20161225.0304)
 -->
<!-- Title: graphic Pages: 1 -->
<svg width="583pt" height="45pt"
 viewBox="0.00 0.00 583.00 45.00" xmlns="http://www.w3.org/2000/svg" xmlns:xlink="http://www.w3.org/1999/xlink">
<g id="graph0" class="graph" transform="scale(1 1) rotate(0) translate(4 41)">
<title>graphic</title>
<polygon fill="#ffffff" stroke="transparent" points="-4,4 -4,-41 579,-41 579,4 -4,4"/>
<!-- j:OffenseDispositionAssociationAugmentationPoint -->
<g id="node1" class="node">
<title>j:OffenseDispositionAssociationAugmentationPoint</title>
<text text-anchor="start" x="272.5" y="-21.4" font-family="Helvetica,sans-Serif" font-weight="bold" font-size="12.00" fill="#000000">j:OffenseDispositionAssociationAugmentationPoint</text>
<polygon fill="none" stroke="#ff0000" stroke-width="5" points="268.5,-14 268.5,-34 572.5,-34 572.5,-14 268.5,-14"/>
</g>
<!-- Types -->
<g id="node2" class="node">
<title>Types</title>
<text text-anchor="start" x="2.5" y="-21.4" font-family="Helvetica,sans-Serif" font-weight="bold" font-size="12.00" fill="#000000">Types</text>
<g id="a_node2_0"><a xlink:href="../../j/OffenseDispositionAssociationType/#diagram" xlink:title="A data type for a relationship between an offense and the outcome of an activity that was triggered by the offense being committed in the first place." target="_top">
<polygon fill="#ebebeb" stroke="transparent" points="1.5,-1 1.5,-16 198.5,-16 198.5,-1 1.5,-1"/>
<text text-anchor="start" x="2.5" y="-5.4" font-family="Helvetica,sans-Serif" font-size="12.00" fill="#000000">j:OffenseDispositionAssociationType</text>
</a>
</g>
<polygon fill="#000000" stroke="#000000" points=".5,-16 .5,-16 199.5,-16 199.5,-16 .5,-16"/>
<polygon fill="none" stroke="#000000" points="0,0 0,-32 199,-32 199,0 0,0"/>
</g>
<!-- Types&#45;&gt;j:OffenseDispositionAssociationAugmentationPoint -->
<g id="edge1" class="edge">
<title>Types:top&#45;&gt;j:OffenseDispositionAssociationAugmentationPoint</title>
<path fill="none" stroke="#000000" d="M198.5,-24C217.0437,-24 236.4586,-24 255.7623,-24"/>
<polygon fill="#000000" stroke="#000000" points="255.8416,-27.5001 265.8416,-24 255.8416,-20.5001 255.8416,-27.5001"/>
<text text-anchor="middle" x="232.5" y="-27.4" font-family="Helvetica,sans-Serif" font-size="12.00" fill="#000000">has&#45;a</text>
</g>
</g>
</svg>
