<?xml version="1.0" encoding="UTF-8" standalone="no"?>
<!DOCTYPE svg PUBLIC "-//W3C//DTD SVG 1.1//EN"
 "http://www.w3.org/Graphics/SVG/1.1/DTD/svg11.dtd">
<!-- Generated by graphviz version 2.40.1 (20161225.0304)
 -->
<!-- Title: graphic Pages: 1 -->
<svg width="467pt" height="60pt"
 viewBox="0.00 0.00 467.00 59.50" xmlns="http://www.w3.org/2000/svg" xmlns:xlink="http://www.w3.org/1999/xlink">
<g id="graph0" class="graph" transform="scale(1 1) rotate(0) translate(4 55.5)">
<title>graphic</title>
<polygon fill="#ffffff" stroke="transparent" points="-4,4 -4,-55.5 463,-55.5 463,4 -4,4"/>
<!-- stat:ArtifactName -->
<g id="node1" class="node">
<title>stat:ArtifactName</title>
<text text-anchor="start" x="222.5" y="-35.9" font-family="Helvetica,sans-Serif" font-weight="bold" font-size="12.00" fill="#000000">stat:ArtifactName</text>
<polygon fill="none" stroke="#ff0000" stroke-width="5" points="218.5,-28.5 218.5,-48.5 326.5,-48.5 326.5,-28.5 218.5,-28.5"/>
</g>
<!-- nc:TextType -->
<g id="node3" class="node">
<title>nc:TextType</title>
<g id="a_node3_0"><a xlink:href="../../nc/TextType/#diagram" xlink:title="A data type for a character string." target="_top">
<text text-anchor="start" x="390.5" y="-34.9" font-family="Helvetica,sans-Serif" font-size="12.00" fill="#000000">nc:TextType</text>
</a>
</g>
<polygon fill="none" stroke="#000000" points="388,-30 388,-47 459,-47 459,-30 388,-30"/>
</g>
<!-- stat:ArtifactName&#45;&gt;nc:TextType -->
<g id="edge2" class="edge">
<title>stat:ArtifactName&#45;&gt;nc:TextType</title>
<path fill="none" stroke="#000000" d="M329.1564,-38.5C345.0671,-38.5 362.1705,-38.5 377.3869,-38.5"/>
<polygon fill="#000000" stroke="#000000" points="377.582,-42.0001 387.582,-38.5 377.5819,-35.0001 377.582,-42.0001"/>
<text text-anchor="middle" x="358.5" y="-41.9" font-family="Helvetica,sans-Serif" font-size="12.00" fill="#000000">type</text>
</g>
<!-- Types -->
<g id="node2" class="node">
<title>Types</title>
<text text-anchor="start" x="2.5" y="-35.9" font-family="Helvetica,sans-Serif" font-weight="bold" font-size="12.00" fill="#000000">Types</text>
<g id="a_node2_1"><a xlink:href="../../stat/AgentInRoleType/#diagram" xlink:title="A data type for an agent acting in a specific role." target="_top">
<polygon fill="#ebebeb" stroke="transparent" points="1.5,-15.5 1.5,-30.5 148.5,-30.5 148.5,-15.5 1.5,-15.5"/>
<text text-anchor="start" x="2.5" y="-19.9" font-family="Helvetica,sans-Serif" font-size="12.00" fill="#000000">stat:AgentInRoleType</text>
</a>
</g>
<g id="a_node2_2"><a xlink:href="../../stat/IdentifiableArtifactType/#diagram" xlink:title="A data type for an abstract class that comprises the basic attributes and associations needed for identification, naming and other documentation." target="_top">
<text text-anchor="start" x="2.5" y="-4.9" font-family="Helvetica,sans-Serif" font-size="12.00" fill="#000000">stat:IdentifiableArtifactType</text>
</a>
</g>
<polygon fill="#000000" stroke="#000000" points=".5,-30.5 .5,-30.5 149.5,-30.5 149.5,-30.5 .5,-30.5"/>
<polygon fill="none" stroke="#000000" points="0,0 0,-47 149,-47 149,0 0,0"/>
</g>
<!-- Types&#45;&gt;stat:ArtifactName -->
<g id="edge1" class="edge">
<title>Types:top&#45;&gt;stat:ArtifactName</title>
<path fill="none" stroke="#000000" d="M148.5,-38.5C167.0273,-38.5 187.1118,-38.5 205.6126,-38.5"/>
<polygon fill="#000000" stroke="#000000" points="205.7079,-42.0001 215.7079,-38.5 205.7078,-35.0001 205.7079,-42.0001"/>
<text text-anchor="middle" x="182.5" y="-41.9" font-family="Helvetica,sans-Serif" font-size="12.00" fill="#000000">has&#45;a</text>
</g>
</g>
</svg>
