<?xml version="1.0" encoding="UTF-8" standalone="no"?>
<!DOCTYPE svg PUBLIC "-//W3C//DTD SVG 1.1//EN"
 "http://www.w3.org/Graphics/SVG/1.1/DTD/svg11.dtd">
<!-- Generated by graphviz version 2.40.1 (20161225.0304)
 -->
<!-- Title: graphic Pages: 1 -->
<svg width="560pt" height="169pt"
 viewBox="0.00 0.00 560.00 169.00" xmlns="http://www.w3.org/2000/svg" xmlns:xlink="http://www.w3.org/1999/xlink">
<g id="graph0" class="graph" transform="scale(1 1) rotate(0) translate(4 165)">
<title>graphic</title>
<polygon fill="#ffffff" stroke="transparent" points="-4,4 -4,-165 556,-165 556,4 -4,4"/>
<!-- im:NonImmigrantRole -->
<g id="node1" class="node">
<title>im:NonImmigrantRole</title>
<text text-anchor="start" x="110" y="-92.9" font-family="Helvetica,sans-Serif" font-weight="bold" font-size="12.00" fill="#000000">im:NonImmigrantRole</text>
<polygon fill="none" stroke="#ff0000" stroke-width="5" points="106.5,-85.5 106.5,-105.5 239.5,-105.5 239.5,-85.5 106.5,-85.5"/>
</g>
<!-- SubstitutableElements -->
<g id="node3" class="node">
<title>SubstitutableElements</title>
<text text-anchor="start" x="2" y="-35.9" font-family="Helvetica,sans-Serif" font-weight="bold" font-size="12.00" fill="#000000">Substitutable elements</text>
<g id="a_node3_0"><a xlink:href="../../im/AlienExchangeVisitorRole/#diagram" xlink:title="A non&#45;immigrant alien who visits the United States to participate in either an educational or cultural exchange program that is approved by the United States Department of State." target="_top">
<polygon fill="#ebebeb" stroke="transparent" points="1,-15.5 1,-30.5 345,-30.5 345,-15.5 1,-15.5"/>
<text text-anchor="start" x="2" y="-19.9" font-family="Helvetica,sans-Serif" font-size="12.00" fill="#000000">im:AlienExchangeVisitorRole: im:AlienExchangeVisitorRoleType</text>
</a>
</g>
<g id="a_node3_1"><a xlink:href="../../im/AlienStudentRole/#diagram" xlink:title="A non&#45;immigrant alien enrolled full&#45;time in an approved, accredited or certified United States educational or vocational program" target="_top">
<text text-anchor="start" x="2" y="-4.9" font-family="Helvetica,sans-Serif" font-size="12.00" fill="#000000">im:AlienStudentRole: im:AlienStudentRoleType</text>
</a>
</g>
<polygon fill="#000000" stroke="#000000" points="0,-30.5 0,-30.5 346,-30.5 346,-30.5 0,-30.5"/>
<polygon fill="none" stroke="#000000" points="0,0 0,-47 346,-47 346,0 0,0"/>
</g>
<!-- im:NonImmigrantRole&#45;&gt;SubstitutableElements -->
<g id="edge2" class="edge">
<title>im:NonImmigrantRole&#45;&gt;SubstitutableElements</title>
<path fill="none" stroke="#000000" d="M173,-72.9771C173,-64.7398 173,-55.4022 173,-47.0755"/>
<polygon fill="#000000" stroke="#000000" points="169.5001,-72.9945 173,-82.9945 176.5001,-72.9946 169.5001,-72.9945"/>
<text text-anchor="middle" x="163.5" y="-61.9" font-family="Helvetica,sans-Serif" font-size="12.00" fill="#000000">substitutable for</text>
</g>
<!-- im:NonImmigrantRoleType -->
<g id="node4" class="node">
<title>im:NonImmigrantRoleType</title>
<g id="a_node4_2"><a xlink:href="../../im/NonImmigrantRoleType/#diagram" xlink:title="A data type for the role of NonImmigrant that is played by a Person with respect to a Country" target="_top">
<text text-anchor="start" x="407.5" y="-91.9" font-family="Helvetica,sans-Serif" font-size="12.00" fill="#000000">im:NonImmigrantRoleType</text>
</a>
</g>
<polygon fill="none" stroke="#000000" points="405,-87 405,-104 552,-104 552,-87 405,-87"/>
</g>
<!-- im:NonImmigrantRole&#45;&gt;im:NonImmigrantRoleType -->
<g id="edge3" class="edge">
<title>im:NonImmigrantRole&#45;&gt;im:NonImmigrantRoleType</title>
<path fill="none" stroke="#000000" d="M242.3227,-95.5C287.6025,-95.5 346.9909,-95.5 394.886,-95.5"/>
<polygon fill="#000000" stroke="#000000" points="394.9227,-99.0001 404.9227,-95.5 394.9227,-92.0001 394.9227,-99.0001"/>
<text text-anchor="middle" x="375.5" y="-98.9" font-family="Helvetica,sans-Serif" font-size="12.00" fill="#000000">type</text>
</g>
<!-- SubstitutionGroup -->
<g id="node2" class="node">
<title>SubstitutionGroup</title>
<g id="a_node2_3"><a xlink:href="../../im/AlienRole/#diagram" xlink:title="A foreign born person who is not a citizen of the United States." target="_top">
<text text-anchor="start" x="89" y="-148.9" font-family="Helvetica,sans-Serif" font-size="12.00" fill="#000000">im:AlienRole: im:AlienRoleType</text>
</a>
</g>
<polygon fill="none" stroke="#000000" points="86.5,-144 86.5,-161 259.5,-161 259.5,-144 86.5,-144"/>
</g>
<!-- SubstitutionGroup&#45;&gt;im:NonImmigrantRole -->
<g id="edge1" class="edge">
<title>SubstitutionGroup&#45;&gt;im:NonImmigrantRole</title>
<path fill="none" stroke="#000000" d="M173,-133.9163C173,-125.4809 173,-115.7214 173,-108.1501"/>
<polygon fill="#000000" stroke="#000000" points="169.5001,-133.9472 173,-143.9473 176.5001,-133.9473 169.5001,-133.9472"/>
<text text-anchor="middle" x="163.5" y="-122.9" font-family="Helvetica,sans-Serif" font-size="12.00" fill="#000000">substitution group</text>
</g>
</g>
</svg>
