<?xml version="1.0" encoding="UTF-8" standalone="no"?>
<!DOCTYPE svg PUBLIC "-//W3C//DTD SVG 1.1//EN"
 "http://www.w3.org/Graphics/SVG/1.1/DTD/svg11.dtd">
<!-- Generated by graphviz version 2.40.1 (20161225.0304)
 -->
<!-- Title: graphic Pages: 1 -->
<svg width="387pt" height="45pt"
 viewBox="0.00 0.00 387.00 45.00" xmlns="http://www.w3.org/2000/svg" xmlns:xlink="http://www.w3.org/1999/xlink">
<g id="graph0" class="graph" transform="scale(1 1) rotate(0) translate(4 41)">
<title>graphic</title>
<polygon fill="#ffffff" stroke="transparent" points="-4,4 -4,-41 383,-41 383,4 -4,4"/>
<!-- nc:TaskEndDate -->
<g id="node1" class="node">
<title>nc:TaskEndDate</title>
<text text-anchor="start" x="146.5" y="-21.4" font-family="Helvetica,sans-Serif" font-weight="bold" font-size="12.00" fill="#000000">nc:TaskEndDate</text>
<polygon fill="none" stroke="#ff0000" stroke-width="5" points="142.5,-14 142.5,-34 244.5,-34 244.5,-14 142.5,-14"/>
</g>
<!-- nc:DateType -->
<g id="node3" class="node">
<title>nc:DateType</title>
<g id="a_node3_0"><a xlink:href="../../nc/DateType/#diagram" xlink:title="A data type for a calendar date." target="_top">
<text text-anchor="start" x="308.5" y="-20.4" font-family="Helvetica,sans-Serif" font-size="12.00" fill="#000000">nc:DateType</text>
</a>
</g>
<polygon fill="none" stroke="#000000" points="306,-15.5 306,-32.5 379,-32.5 379,-15.5 306,-15.5"/>
</g>
<!-- nc:TaskEndDate&#45;&gt;nc:DateType -->
<g id="edge2" class="edge">
<title>nc:TaskEndDate&#45;&gt;nc:DateType</title>
<path fill="none" stroke="#000000" d="M247.2924,-24C263.0054,-24 280.0533,-24 295.3235,-24"/>
<polygon fill="#000000" stroke="#000000" points="295.5729,-27.5001 305.5729,-24 295.5728,-20.5001 295.5729,-27.5001"/>
<text text-anchor="middle" x="276.5" y="-27.4" font-family="Helvetica,sans-Serif" font-size="12.00" fill="#000000">type</text>
</g>
<!-- Types -->
<g id="node2" class="node">
<title>Types</title>
<text text-anchor="start" x="2.5" y="-21.4" font-family="Helvetica,sans-Serif" font-weight="bold" font-size="12.00" fill="#000000">Types</text>
<g id="a_node2_1"><a xlink:href="../../nc/TaskType/#diagram" xlink:title="A data type for a clearly defined action or activity specifically assigned to an individual or organization that must be done as it is imposed by an appropriate authority." target="_top">
<polygon fill="#ebebeb" stroke="transparent" points="1.5,-1 1.5,-16 72.5,-16 72.5,-1 1.5,-1"/>
<text text-anchor="start" x="2.5" y="-5.4" font-family="Helvetica,sans-Serif" font-size="12.00" fill="#000000">nc:TaskType</text>
</a>
</g>
<polygon fill="#000000" stroke="#000000" points=".5,-16 .5,-16 73.5,-16 73.5,-16 .5,-16"/>
<polygon fill="none" stroke="#000000" points="0,0 0,-32 73,-32 73,0 0,0"/>
</g>
<!-- Types&#45;&gt;nc:TaskEndDate -->
<g id="edge1" class="edge">
<title>Types:top&#45;&gt;nc:TaskEndDate</title>
<path fill="none" stroke="#000000" d="M72.5,-24C91.1108,-24 111.3318,-24 129.8196,-24"/>
<polygon fill="#000000" stroke="#000000" points="129.8911,-27.5001 139.8911,-24 129.8911,-20.5001 129.8911,-27.5001"/>
<text text-anchor="middle" x="106.5" y="-27.4" font-family="Helvetica,sans-Serif" font-size="12.00" fill="#000000">has&#45;a</text>
</g>
</g>
</svg>
