<?xml version="1.0" encoding="UTF-8" standalone="no"?>
<!DOCTYPE svg PUBLIC "-//W3C//DTD SVG 1.1//EN"
 "http://www.w3.org/Graphics/SVG/1.1/DTD/svg11.dtd">
<!-- Generated by graphviz version 2.40.1 (20161225.0304)
 -->
<!-- Title: graphic Pages: 1 -->
<svg width="554pt" height="45pt"
 viewBox="0.00 0.00 554.00 45.00" xmlns="http://www.w3.org/2000/svg" xmlns:xlink="http://www.w3.org/1999/xlink">
<g id="graph0" class="graph" transform="scale(1 1) rotate(0) translate(4 41)">
<title>graphic</title>
<polygon fill="#ffffff" stroke="transparent" points="-4,4 -4,-41 550,-41 550,4 -4,4"/>
<!-- mo:SettingIncrementMeasure -->
<g id="node1" class="node">
<title>mo:SettingIncrementMeasure</title>
<text text-anchor="start" x="218.5" y="-21.4" font-family="Helvetica,sans-Serif" font-weight="bold" font-size="12.00" fill="#000000">mo:SettingIncrementMeasure</text>
<polygon fill="none" stroke="#ff0000" stroke-width="5" points="214.5,-14 214.5,-34 390.5,-34 390.5,-14 214.5,-14"/>
</g>
<!-- nc:MeasureType -->
<g id="node3" class="node">
<title>nc:MeasureType</title>
<g id="a_node3_0"><a xlink:href="../../nc/MeasureType/#diagram" xlink:title="A data type for a measurement." target="_top">
<text text-anchor="start" x="454" y="-20.4" font-family="Helvetica,sans-Serif" font-size="12.00" fill="#000000">nc:MeasureType</text>
</a>
</g>
<polygon fill="none" stroke="#000000" points="452,-15.5 452,-32.5 546,-32.5 546,-15.5 452,-15.5"/>
</g>
<!-- mo:SettingIncrementMeasure&#45;&gt;nc:MeasureType -->
<g id="edge2" class="edge">
<title>mo:SettingIncrementMeasure&#45;&gt;nc:MeasureType</title>
<path fill="none" stroke="#000000" d="M393.2725,-24C409.7769,-24 426.5643,-24 441.7573,-24"/>
<polygon fill="#000000" stroke="#000000" points="441.9978,-27.5001 451.9978,-24 441.9977,-20.5001 441.9978,-27.5001"/>
<text text-anchor="middle" x="422.5" y="-27.4" font-family="Helvetica,sans-Serif" font-size="12.00" fill="#000000">type</text>
</g>
<!-- Types -->
<g id="node2" class="node">
<title>Types</title>
<text text-anchor="start" x="2.5" y="-21.4" font-family="Helvetica,sans-Serif" font-weight="bold" font-size="12.00" fill="#000000">Types</text>
<g id="a_node2_1"><a xlink:href="../../mo/ValueSettingDataType/#diagram" xlink:title="A data type for a setting that is specified by a value or measure." target="_top">
<polygon fill="#ebebeb" stroke="transparent" points="1.5,-1 1.5,-16 144.5,-16 144.5,-1 1.5,-1"/>
<text text-anchor="start" x="2.5" y="-5.4" font-family="Helvetica,sans-Serif" font-size="12.00" fill="#000000">mo:ValueSettingDataType</text>
</a>
</g>
<polygon fill="#000000" stroke="#000000" points=".5,-16 .5,-16 145.5,-16 145.5,-16 .5,-16"/>
<polygon fill="none" stroke="#000000" points="0,0 0,-32 145,-32 145,0 0,0"/>
</g>
<!-- Types&#45;&gt;mo:SettingIncrementMeasure -->
<g id="edge1" class="edge">
<title>Types:top&#45;&gt;mo:SettingIncrementMeasure</title>
<path fill="none" stroke="#000000" d="M144.5,-24C162.9851,-24 182.6867,-24 201.6834,-24"/>
<polygon fill="#000000" stroke="#000000" points="201.8464,-27.5001 211.8464,-24 201.8464,-20.5001 201.8464,-27.5001"/>
<text text-anchor="middle" x="178.5" y="-27.4" font-family="Helvetica,sans-Serif" font-size="12.00" fill="#000000">has&#45;a</text>
</g>
</g>
</svg>
