<?xml version="1.0" encoding="UTF-8" standalone="no"?>
<!DOCTYPE svg PUBLIC "-//W3C//DTD SVG 1.1//EN"
 "http://www.w3.org/Graphics/SVG/1.1/DTD/svg11.dtd">
<!-- Generated by graphviz version 2.40.1 (20161225.0304)
 -->
<!-- Title: graphic Pages: 1 -->
<svg width="343pt" height="86pt"
 viewBox="0.00 0.00 343.00 86.00" xmlns="http://www.w3.org/2000/svg" xmlns:xlink="http://www.w3.org/1999/xlink">
<g id="graph0" class="graph" transform="scale(1 1) rotate(0) translate(4 82)">
<title>graphic</title>
<polygon fill="#ffffff" stroke="transparent" points="-4,4 -4,-82 339,-82 339,4 -4,4"/>
<!-- hs:PolyvictimizationCategoryText -->
<g id="node1" class="node">
<title>hs:PolyvictimizationCategoryText</title>
<text text-anchor="start" x="6.5" y="-9.9" font-family="Helvetica,sans-Serif" font-weight="bold" font-size="12.00" fill="#000000">hs:PolyvictimizationCategoryText</text>
<polygon fill="none" stroke="#ff0000" stroke-width="5" points="2.5,-2.5 2.5,-22.5 202.5,-22.5 202.5,-2.5 2.5,-2.5"/>
</g>
<!-- nc:TextType -->
<g id="node3" class="node">
<title>nc:TextType</title>
<g id="a_node3_0"><a xlink:href="../../nc/TextType/#diagram" xlink:title="A data type for a character string." target="_top">
<text text-anchor="start" x="266.5" y="-8.9" font-family="Helvetica,sans-Serif" font-size="12.00" fill="#000000">nc:TextType</text>
</a>
</g>
<polygon fill="none" stroke="#000000" points="264,-4 264,-21 335,-21 335,-4 264,-4"/>
</g>
<!-- hs:PolyvictimizationCategoryText&#45;&gt;nc:TextType -->
<g id="edge2" class="edge">
<title>hs:PolyvictimizationCategoryText&#45;&gt;nc:TextType</title>
<path fill="none" stroke="#000000" d="M205.039,-12.5C222.0413,-12.5 238.8828,-12.5 253.5327,-12.5"/>
<polygon fill="#000000" stroke="#000000" points="253.7838,-16.0001 263.7838,-12.5 253.7837,-9.0001 253.7838,-16.0001"/>
<text text-anchor="middle" x="234.5" y="-15.9" font-family="Helvetica,sans-Serif" font-size="12.00" fill="#000000">type</text>
</g>
<!-- SubstitutionGroup -->
<g id="node2" class="node">
<title>SubstitutionGroup</title>
<g id="a_node2_1"><a xlink:href="../../hs/PolyvictimizationCategoryAbstract/#diagram" xlink:title="A data concept for a kind of additional victimization." target="_top">
<text text-anchor="start" x="3.5" y="-65.9" font-family="Helvetica,sans-Serif" font-size="12.00" fill="#000000">hs:PolyvictimizationCategoryAbstract</text>
</a>
</g>
<polygon fill="none" stroke="#000000" points="1.5,-61 1.5,-78 203.5,-78 203.5,-61 1.5,-61"/>
</g>
<!-- SubstitutionGroup&#45;&gt;hs:PolyvictimizationCategoryText -->
<g id="edge1" class="edge">
<title>SubstitutionGroup&#45;&gt;hs:PolyvictimizationCategoryText</title>
<path fill="none" stroke="#000000" d="M102.5,-50.9163C102.5,-42.4809 102.5,-32.7214 102.5,-25.1501"/>
<polygon fill="#000000" stroke="#000000" points="99.0001,-50.9472 102.5,-60.9473 106.0001,-50.9473 99.0001,-50.9472"/>
<text text-anchor="middle" x="93" y="-39.9" font-family="Helvetica,sans-Serif" font-size="12.00" fill="#000000">substitution group</text>
</g>
</g>
</svg>
