<?xml version="1.0" encoding="UTF-8" standalone="no"?>
<!DOCTYPE svg PUBLIC "-//W3C//DTD SVG 1.1//EN"
 "http://www.w3.org/Graphics/SVG/1.1/DTD/svg11.dtd">
<!-- Generated by graphviz version 2.40.1 (20161225.0304)
 -->
<!-- Title: graphic Pages: 1 -->
<svg width="583pt" height="60pt"
 viewBox="0.00 0.00 583.00 59.50" xmlns="http://www.w3.org/2000/svg" xmlns:xlink="http://www.w3.org/1999/xlink">
<g id="graph0" class="graph" transform="scale(1 1) rotate(0) translate(4 55.5)">
<title>graphic</title>
<polygon fill="#ffffff" stroke="transparent" points="-4,4 -4,-55.5 579,-55.5 579,4 -4,4"/>
<!-- nc:StatusDescriptionText -->
<g id="node1" class="node">
<title>nc:StatusDescriptionText</title>
<text text-anchor="start" x="293" y="-35.9" font-family="Helvetica,sans-Serif" font-weight="bold" font-size="12.00" fill="#000000">nc:StatusDescriptionText</text>
<polygon fill="none" stroke="#ff0000" stroke-width="5" points="289.5,-28.5 289.5,-48.5 442.5,-48.5 442.5,-28.5 289.5,-28.5"/>
</g>
<!-- nc:TextType -->
<g id="node3" class="node">
<title>nc:TextType</title>
<g id="a_node3_0"><a xlink:href="../../nc/TextType/#diagram" xlink:title="A data type for a character string." target="_top">
<text text-anchor="start" x="506.5" y="-34.9" font-family="Helvetica,sans-Serif" font-size="12.00" fill="#000000">nc:TextType</text>
</a>
</g>
<polygon fill="none" stroke="#000000" points="504,-30 504,-47 575,-47 575,-30 504,-30"/>
</g>
<!-- nc:StatusDescriptionText&#45;&gt;nc:TextType -->
<g id="edge2" class="edge">
<title>nc:StatusDescriptionText&#45;&gt;nc:TextType</title>
<path fill="none" stroke="#000000" d="M445.1342,-38.5C461.6752,-38.5 478.5883,-38.5 493.4431,-38.5"/>
<polygon fill="#000000" stroke="#000000" points="493.8612,-42.0001 503.8612,-38.5 493.8611,-35.0001 493.8612,-42.0001"/>
<text text-anchor="middle" x="474.5" y="-41.9" font-family="Helvetica,sans-Serif" font-size="12.00" fill="#000000">type</text>
</g>
<!-- Types -->
<g id="node2" class="node">
<title>Types</title>
<text text-anchor="start" x="2" y="-35.9" font-family="Helvetica,sans-Serif" font-weight="bold" font-size="12.00" fill="#000000">Types</text>
<g id="a_node2_1"><a xlink:href="../../em/LicenseCertificationRegistrationType/#diagram" xlink:title="A data type for a credential class that represents Licensing" target="_top">
<polygon fill="#ebebeb" stroke="transparent" points="1,-15.5 1,-30.5 219,-30.5 219,-15.5 1,-15.5"/>
<text text-anchor="start" x="2" y="-19.9" font-family="Helvetica,sans-Serif" font-size="12.00" fill="#000000">em:LicenseCertificationRegistrationType</text>
</a>
</g>
<g id="a_node2_2"><a xlink:href="../../nc/StatusType/#diagram" xlink:title="A data type for a state of something or someone." target="_top">
<text text-anchor="start" x="2" y="-4.9" font-family="Helvetica,sans-Serif" font-size="12.00" fill="#000000">nc:StatusType</text>
</a>
</g>
<polygon fill="#000000" stroke="#000000" points="0,-30.5 0,-30.5 220,-30.5 220,-30.5 0,-30.5"/>
<polygon fill="none" stroke="#000000" points="0,0 0,-47 220,-47 220,0 0,0"/>
</g>
<!-- Types&#45;&gt;nc:StatusDescriptionText -->
<g id="edge1" class="edge">
<title>Types:top&#45;&gt;nc:StatusDescriptionText</title>
<path fill="none" stroke="#000000" d="M219,-38.5C237.6043,-38.5 257.533,-38.5 276.5233,-38.5"/>
<polygon fill="#000000" stroke="#000000" points="276.6583,-42.0001 286.6582,-38.5 276.6582,-35.0001 276.6583,-42.0001"/>
<text text-anchor="middle" x="253.5" y="-41.9" font-family="Helvetica,sans-Serif" font-size="12.00" fill="#000000">has&#45;a</text>
</g>
</g>
</svg>
