<?xml version="1.0" encoding="UTF-8" standalone="no"?>
<!DOCTYPE svg PUBLIC "-//W3C//DTD SVG 1.1//EN"
 "http://www.w3.org/Graphics/SVG/1.1/DTD/svg11.dtd">
<!-- Generated by graphviz version 2.40.1 (20161225.0304)
 -->
<!-- Title: graphic Pages: 1 -->
<svg width="568pt" height="45pt"
 viewBox="0.00 0.00 568.00 45.00" xmlns="http://www.w3.org/2000/svg" xmlns:xlink="http://www.w3.org/1999/xlink">
<g id="graph0" class="graph" transform="scale(1 1) rotate(0) translate(4 41)">
<title>graphic</title>
<polygon fill="#ffffff" stroke="transparent" points="-4,4 -4,-41 564,-41 564,4 -4,4"/>
<!-- nc:Status -->
<g id="node1" class="node">
<title>nc:Status</title>
<text text-anchor="start" x="359.5" y="-21.4" font-family="Helvetica,sans-Serif" font-weight="bold" font-size="12.00" fill="#000000">nc:Status</text>
<polygon fill="none" stroke="#ff0000" stroke-width="5" points="355.5,-14 355.5,-34 417.5,-34 417.5,-14 355.5,-14"/>
</g>
<!-- nc:StatusType -->
<g id="node3" class="node">
<title>nc:StatusType</title>
<g id="a_node3_0"><a xlink:href="../../nc/StatusType/#diagram" xlink:title="A data type for a state of something or someone." target="_top">
<text text-anchor="start" x="481.5" y="-20.4" font-family="Helvetica,sans-Serif" font-size="12.00" fill="#000000">nc:StatusType</text>
</a>
</g>
<polygon fill="none" stroke="#000000" points="479,-15.5 479,-32.5 560,-32.5 560,-15.5 479,-15.5"/>
</g>
<!-- nc:Status&#45;&gt;nc:StatusType -->
<g id="edge2" class="edge">
<title>nc:Status&#45;&gt;nc:StatusType</title>
<path fill="none" stroke="#000000" d="M420.0615,-24C434.7067,-24 452.2034,-24 468.4082,-24"/>
<polygon fill="#000000" stroke="#000000" points="468.8277,-27.5001 478.8277,-24 468.8276,-20.5001 468.8277,-27.5001"/>
<text text-anchor="middle" x="449.5" y="-27.4" font-family="Helvetica,sans-Serif" font-size="12.00" fill="#000000">type</text>
</g>
<!-- Types -->
<g id="node2" class="node">
<title>Types</title>
<text text-anchor="start" x="2" y="-21.4" font-family="Helvetica,sans-Serif" font-weight="bold" font-size="12.00" fill="#000000">Types</text>
<g id="a_node2_1"><a xlink:href="../../nc/EmploymentPositionOrganizationAssociationType/#diagram" xlink:title="A data type for an association between an employment position and an organization." target="_top">
<polygon fill="#ebebeb" stroke="transparent" points="1,-1 1,-16 285,-16 285,-1 1,-1"/>
<text text-anchor="start" x="2" y="-5.4" font-family="Helvetica,sans-Serif" font-size="12.00" fill="#000000">nc:EmploymentPositionOrganizationAssociationType</text>
</a>
</g>
<polygon fill="#000000" stroke="#000000" points="0,-16 0,-16 286,-16 286,-16 0,-16"/>
<polygon fill="none" stroke="#000000" points="0,0 0,-32 286,-32 286,0 0,0"/>
</g>
<!-- Types&#45;&gt;nc:Status -->
<g id="edge1" class="edge">
<title>Types:top&#45;&gt;nc:Status</title>
<path fill="none" stroke="#000000" d="M285,-24C303.855,-24 324.6803,-24 342.5348,-24"/>
<polygon fill="#000000" stroke="#000000" points="342.6667,-27.5001 352.6667,-24 342.6666,-20.5001 342.6667,-27.5001"/>
<text text-anchor="middle" x="319.5" y="-27.4" font-family="Helvetica,sans-Serif" font-size="12.00" fill="#000000">has&#45;a</text>
</g>
</g>
</svg>
