<?xml version="1.0" encoding="UTF-8" standalone="no"?>
<!DOCTYPE svg PUBLIC "-//W3C//DTD SVG 1.1//EN"
 "http://www.w3.org/Graphics/SVG/1.1/DTD/svg11.dtd">
<!-- Generated by graphviz version 2.40.1 (20161225.0304)
 -->
<!-- Title: graphic Pages: 1 -->
<svg width="538pt" height="129pt"
 viewBox="0.00 0.00 538.00 128.50" xmlns="http://www.w3.org/2000/svg" xmlns:xlink="http://www.w3.org/1999/xlink">
<g id="graph0" class="graph" transform="scale(1 1) rotate(0) translate(4 124.5)">
<title>graphic</title>
<polygon fill="#ffffff" stroke="transparent" points="-4,4 -4,-124.5 534,-124.5 534,4 -4,4"/>
<!-- biom:ToothType -->
<g id="node1" class="node">
<title>biom:ToothType</title>
<text text-anchor="start" x="6.5" y="-52.4" font-family="Helvetica,sans-Serif" font-weight="bold" font-size="12.00" fill="#000000">biom:ToothType</text>
<g id="a_node1_0"><a xlink:href="../../biom/ToothPositionAbstract/#diagram" xlink:title="A data concept for an identifier of a tooth based on its location within a mouth." target="_top">
<polygon fill="#ebebeb" stroke="transparent" points="5.5,-32 5.5,-47 196.5,-47 196.5,-32 5.5,-32"/>
<text text-anchor="start" x="6.5" y="-36.4" font-family="Helvetica,sans-Serif" font-size="12.00" fill="#000000">biom:ToothPositionAbstract [0&#45;n]</text>
</a>
</g>
<g id="a_node1_1"><a xlink:href="../../biom/ToothAugmentationPoint/#diagram" xlink:title="An augmentation point for ToothType" target="_top">
<text text-anchor="start" x="6.5" y="-21.4" font-family="Helvetica,sans-Serif" font-size="12.00" fill="#000000">biom:ToothAugmentationPoint [0&#45;n]</text>
</a>
</g>
<polygon fill="#ff0000" stroke="#ff0000" points=".5,-47 .5,-47 201.5,-47 201.5,-47 .5,-47"/>
<polygon fill="none" stroke="#ff0000" stroke-width="5" points="2.5,-15 2.5,-65 198.5,-65 198.5,-15 2.5,-15"/>
</g>
<!-- subst_d9e29986 -->
<g id="node2" class="node">
<title>subst_d9e29986</title>
<g id="a_node2_2"><a xlink:href="../../biom/ToothAugmentationPoint/#diagram" xlink:title="&lt;TABLE&gt;" target="_top">
<text text-anchor="start" x="240" y="-21.4" font-family="Helvetica,sans-Serif" font-weight="bold" font-size="12.00" fill="#000000">Substitution group biom:ToothAugmentationPoint</text>
</a>
</g>
<g id="a_node2_3"><a xlink:href="../../j/ToothAugmentation/#diagram" xlink:title="Additional information about a tooth." target="_top">
<polygon fill="#ebebeb" stroke="transparent" points="239,-1 239,-16 529,-16 529,-1 239,-1"/>
<text text-anchor="start" x="240" y="-5.4" font-family="Helvetica,sans-Serif" font-size="12.00" fill="#000000">j:ToothAugmentation: j:ToothAugmentationType</text>
</a>
</g>
<polygon fill="#000000" stroke="#000000" points="238,-16 238,-16 530,-16 530,-16 238,-16"/>
<polygon fill="none" stroke="#000000" points="238,0 238,-32 530,-32 530,0 238,0"/>
</g>
<!-- biom:ToothType&#45;&gt;subst_d9e29986 -->
<g id="edge1" class="edge">
<title>biom:ToothType:e&#45;&gt;subst_d9e29986:w</title>
<path fill="none" stroke="#000000" d="M206.828,-24C218.0114,-24 224.0955,-24 239,-24"/>
<polygon fill="#000000" stroke="#000000" points="206.5,-20.5001 196.5,-24 206.5,-27.5001 206.5,-20.5001"/>
</g>
<!-- structures:ObjectType -->
<g id="node3" class="node">
<title>structures:ObjectType</title>
<g id="a_node3_4"><a xlink:href="../../structures/ObjectType/#diagram" xlink:title="A data type for a thing with its own lifespan that has some existence." target="_top">
<text text-anchor="start" x="41.5" y="-108.4" font-family="Helvetica,sans-Serif" font-size="12.00" fill="#000000">structures:ObjectType</text>
</a>
</g>
<polygon fill="none" stroke="#000000" points="39.5,-103.5 39.5,-120.5 161.5,-120.5 161.5,-103.5 39.5,-103.5"/>
</g>
<!-- structures:ObjectType&#45;&gt;biom:ToothType -->
<g id="edge2" class="edge">
<title>structures:ObjectType&#45;&gt;biom:ToothType</title>
<path fill="none" stroke="#000000" d="M100.5,-103.3151C100.5,-96.8271 100.5,-87.4677 100.5,-77.9273"/>
<polygon fill="#000000" stroke="#000000" points="104.0001,-77.6311 100.5,-67.6312 97.0001,-77.6312 104.0001,-77.6311"/>
<text text-anchor="middle" x="91" y="-82.4" font-family="Helvetica,sans-Serif" font-size="12.00" fill="#000000">extension</text>
</g>
</g>
</svg>
