<?xml version="1.0" encoding="UTF-8" standalone="no"?>
<!DOCTYPE svg PUBLIC "-//W3C//DTD SVG 1.1//EN"
 "http://www.w3.org/Graphics/SVG/1.1/DTD/svg11.dtd">
<!-- Generated by graphviz version 2.40.1 (20161225.0304)
 -->
<!-- Title: graphic Pages: 1 -->
<svg width="594pt" height="45pt"
 viewBox="0.00 0.00 594.00 45.00" xmlns="http://www.w3.org/2000/svg" xmlns:xlink="http://www.w3.org/1999/xlink">
<g id="graph0" class="graph" transform="scale(1 1) rotate(0) translate(4 41)">
<title>graphic</title>
<polygon fill="#ffffff" stroke="transparent" points="-4,4 -4,-41 590,-41 590,4 -4,4"/>
<!-- it:LastLocationDateTime -->
<g id="node1" class="node">
<title>it:LastLocationDateTime</title>
<text text-anchor="start" x="280.5" y="-21.4" font-family="Helvetica,sans-Serif" font-weight="bold" font-size="12.00" fill="#000000">it:LastLocationDateTime</text>
<polygon fill="none" stroke="#ff0000" stroke-width="5" points="276.5,-14 276.5,-34 424.5,-34 424.5,-14 276.5,-14"/>
</g>
<!-- niem&#45;xs:dateTime -->
<g id="node3" class="node">
<title>niem&#45;xs:dateTime</title>
<g id="a_node3_0"><a xlink:href="../../niem-xs/dateTime/#diagram" xlink:title="A data type for objects with integer&#45;valued year, month, day, hour and minute properties, a decimal&#45;valued second property, and a boolean timezoned property." target="_top">
<text text-anchor="start" x="488" y="-20.4" font-family="Helvetica,sans-Serif" font-size="12.00" fill="#000000">niem&#45;xs:dateTime</text>
</a>
</g>
<polygon fill="none" stroke="#000000" points="486,-15.5 486,-32.5 586,-32.5 586,-15.5 486,-15.5"/>
</g>
<!-- it:LastLocationDateTime&#45;&gt;niem&#45;xs:dateTime -->
<g id="edge2" class="edge">
<title>it:LastLocationDateTime&#45;&gt;niem&#45;xs:dateTime</title>
<path fill="none" stroke="#000000" d="M427.0209,-24C443.3126,-24 460.2939,-24 475.8688,-24"/>
<polygon fill="#000000" stroke="#000000" points="475.8794,-27.5001 485.8793,-24 475.8793,-20.5001 475.8794,-27.5001"/>
<text text-anchor="middle" x="456.5" y="-27.4" font-family="Helvetica,sans-Serif" font-size="12.00" fill="#000000">type</text>
</g>
<!-- Types -->
<g id="node2" class="node">
<title>Types</title>
<text text-anchor="start" x="2.5" y="-21.4" font-family="Helvetica,sans-Serif" font-weight="bold" font-size="12.00" fill="#000000">Types</text>
<g id="a_node2_1"><a xlink:href="../../it/ShippingContainerLastLocationType/#diagram" xlink:title="A data type for the last known location of a shipping container." target="_top">
<polygon fill="#ebebeb" stroke="transparent" points="1.5,-1 1.5,-16 206.5,-16 206.5,-1 1.5,-1"/>
<text text-anchor="start" x="2.5" y="-5.4" font-family="Helvetica,sans-Serif" font-size="12.00" fill="#000000">it:ShippingContainerLastLocationType</text>
</a>
</g>
<polygon fill="#000000" stroke="#000000" points=".5,-16 .5,-16 207.5,-16 207.5,-16 .5,-16"/>
<polygon fill="none" stroke="#000000" points="0,0 0,-32 207,-32 207,0 0,0"/>
</g>
<!-- Types&#45;&gt;it:LastLocationDateTime -->
<g id="edge1" class="edge">
<title>Types:top&#45;&gt;it:LastLocationDateTime</title>
<path fill="none" stroke="#000000" d="M206.5,-24C225.0425,-24 244.928,-24 263.8219,-24"/>
<polygon fill="#000000" stroke="#000000" points="263.8993,-27.5001 273.8993,-24 263.8992,-20.5001 263.8993,-27.5001"/>
<text text-anchor="middle" x="240.5" y="-27.4" font-family="Helvetica,sans-Serif" font-size="12.00" fill="#000000">has&#45;a</text>
</g>
</g>
</svg>
