<?xml version="1.0" encoding="UTF-8" standalone="no"?>
<!DOCTYPE svg PUBLIC "-//W3C//DTD SVG 1.1//EN"
 "http://www.w3.org/Graphics/SVG/1.1/DTD/svg11.dtd">
<!-- Generated by graphviz version 2.40.1 (20161225.0304)
 -->
<!-- Title: graphic Pages: 1 -->
<svg width="640pt" height="45pt"
 viewBox="0.00 0.00 640.00 45.00" xmlns="http://www.w3.org/2000/svg" xmlns:xlink="http://www.w3.org/1999/xlink">
<g id="graph0" class="graph" transform="scale(1 1) rotate(0) translate(4 41)">
<title>graphic</title>
<polygon fill="#ffffff" stroke="transparent" points="-4,4 -4,-41 636,-41 636,4 -4,4"/>
<!-- j:AftercareServicesScreeningReviewDate -->
<g id="node1" class="node">
<title>j:AftercareServicesScreeningReviewDate</title>
<text text-anchor="start" x="259.5" y="-21.4" font-family="Helvetica,sans-Serif" font-weight="bold" font-size="12.00" fill="#000000">j:AftercareServicesScreeningReviewDate</text>
<polygon fill="none" stroke="#ff0000" stroke-width="5" points="255.5,-14 255.5,-34 497.5,-34 497.5,-14 255.5,-14"/>
</g>
<!-- nc:DateType -->
<g id="node3" class="node">
<title>nc:DateType</title>
<g id="a_node3_0"><a xlink:href="../../nc/DateType/#diagram" xlink:title="A data type for a calendar date." target="_top">
<text text-anchor="start" x="561.5" y="-20.4" font-family="Helvetica,sans-Serif" font-size="12.00" fill="#000000">nc:DateType</text>
</a>
</g>
<polygon fill="none" stroke="#000000" points="559,-15.5 559,-32.5 632,-32.5 632,-15.5 559,-15.5"/>
</g>
<!-- j:AftercareServicesScreeningReviewDate&#45;&gt;nc:DateType -->
<g id="edge2" class="edge">
<title>j:AftercareServicesScreeningReviewDate&#45;&gt;nc:DateType</title>
<path fill="none" stroke="#000000" d="M500.0805,-24C517.2564,-24 533.9624,-24 548.47,-24"/>
<polygon fill="#000000" stroke="#000000" points="548.6205,-27.5001 558.6205,-24 548.6204,-20.5001 548.6205,-27.5001"/>
<text text-anchor="middle" x="529.5" y="-27.4" font-family="Helvetica,sans-Serif" font-size="12.00" fill="#000000">type</text>
</g>
<!-- Types -->
<g id="node2" class="node">
<title>Types</title>
<text text-anchor="start" x="2" y="-21.4" font-family="Helvetica,sans-Serif" font-weight="bold" font-size="12.00" fill="#000000">Types</text>
<g id="a_node2_1"><a xlink:href="../../j/AftercareServicesScreeningType/#diagram" xlink:title="A data type for an evaluation of a parolee to determine the appropriate mental health services to be provided." target="_top">
<polygon fill="#ebebeb" stroke="transparent" points="1,-1 1,-16 185,-16 185,-1 1,-1"/>
<text text-anchor="start" x="2" y="-5.4" font-family="Helvetica,sans-Serif" font-size="12.00" fill="#000000">j:AftercareServicesScreeningType</text>
</a>
</g>
<polygon fill="#000000" stroke="#000000" points="0,-16 0,-16 186,-16 186,-16 0,-16"/>
<polygon fill="none" stroke="#000000" points="0,0 0,-32 186,-32 186,0 0,0"/>
</g>
<!-- Types&#45;&gt;j:AftercareServicesScreeningReviewDate -->
<g id="edge1" class="edge">
<title>Types:top&#45;&gt;j:AftercareServicesScreeningReviewDate</title>
<path fill="none" stroke="#000000" d="M185,-24C203.6856,-24 223.3967,-24 242.7825,-24"/>
<polygon fill="#000000" stroke="#000000" points="242.8833,-27.5001 252.8832,-24 242.8832,-20.5001 242.8833,-27.5001"/>
<text text-anchor="middle" x="219.5" y="-27.4" font-family="Helvetica,sans-Serif" font-size="12.00" fill="#000000">has&#45;a</text>
</g>
</g>
</svg>
