<?xml version="1.0" encoding="UTF-8" standalone="no"?>
<!DOCTYPE svg PUBLIC "-//W3C//DTD SVG 1.1//EN"
 "http://www.w3.org/Graphics/SVG/1.1/DTD/svg11.dtd">
<!-- Generated by graphviz version 2.40.1 (20161225.0304)
 -->
<!-- Title: graphic Pages: 1 -->
<svg width="518pt" height="45pt"
 viewBox="0.00 0.00 518.00 45.00" xmlns="http://www.w3.org/2000/svg" xmlns:xlink="http://www.w3.org/1999/xlink">
<g id="graph0" class="graph" transform="scale(1 1) rotate(0) translate(4 41)">
<title>graphic</title>
<polygon fill="#ffffff" stroke="transparent" points="-4,4 -4,-41 514,-41 514,4 -4,4"/>
<!-- hs:MedicationDispensingDate -->
<g id="node1" class="node">
<title>hs:MedicationDispensingDate</title>
<text text-anchor="start" x="200" y="-21.4" font-family="Helvetica,sans-Serif" font-weight="bold" font-size="12.00" fill="#000000">hs:MedicationDispensingDate</text>
<polygon fill="none" stroke="#ff0000" stroke-width="5" points="196.5,-14 196.5,-34 375.5,-34 375.5,-14 196.5,-14"/>
</g>
<!-- nc:DateType -->
<g id="node3" class="node">
<title>nc:DateType</title>
<g id="a_node3_0"><a xlink:href="../../nc/DateType/#diagram" xlink:title="A data type for a calendar date." target="_top">
<text text-anchor="start" x="439.5" y="-20.4" font-family="Helvetica,sans-Serif" font-size="12.00" fill="#000000">nc:DateType</text>
</a>
</g>
<polygon fill="none" stroke="#000000" points="437,-15.5 437,-32.5 510,-32.5 510,-15.5 437,-15.5"/>
</g>
<!-- hs:MedicationDispensingDate&#45;&gt;nc:DateType -->
<g id="edge2" class="edge">
<title>hs:MedicationDispensingDate&#45;&gt;nc:DateType</title>
<path fill="none" stroke="#000000" d="M378.1021,-24C394.7956,-24 411.5588,-24 426.2736,-24"/>
<polygon fill="#000000" stroke="#000000" points="426.5959,-27.5001 436.5959,-24 426.5959,-20.5001 426.5959,-27.5001"/>
<text text-anchor="middle" x="407.5" y="-27.4" font-family="Helvetica,sans-Serif" font-size="12.00" fill="#000000">type</text>
</g>
<!-- Types -->
<g id="node2" class="node">
<title>Types</title>
<text text-anchor="start" x="2.5" y="-21.4" font-family="Helvetica,sans-Serif" font-weight="bold" font-size="12.00" fill="#000000">Types</text>
<g id="a_node2_1"><a xlink:href="../../hs/MedicationUseType/#diagram" xlink:title="A data type for recording medication use for an individual." target="_top">
<polygon fill="#ebebeb" stroke="transparent" points="1.5,-1 1.5,-16 126.5,-16 126.5,-1 1.5,-1"/>
<text text-anchor="start" x="2.5" y="-5.4" font-family="Helvetica,sans-Serif" font-size="12.00" fill="#000000">hs:MedicationUseType</text>
</a>
</g>
<polygon fill="#000000" stroke="#000000" points=".5,-16 .5,-16 127.5,-16 127.5,-16 .5,-16"/>
<polygon fill="none" stroke="#000000" points="0,0 0,-32 127,-32 127,0 0,0"/>
</g>
<!-- Types&#45;&gt;hs:MedicationDispensingDate -->
<g id="edge1" class="edge">
<title>Types:top&#45;&gt;hs:MedicationDispensingDate</title>
<path fill="none" stroke="#000000" d="M126.5,-24C144.9259,-24 164.549,-24 183.5023,-24"/>
<polygon fill="#000000" stroke="#000000" points="183.6456,-27.5001 193.6455,-24 183.6455,-20.5001 183.6456,-27.5001"/>
<text text-anchor="middle" x="160.5" y="-27.4" font-family="Helvetica,sans-Serif" font-size="12.00" fill="#000000">has&#45;a</text>
</g>
</g>
</svg>
