<?xml version="1.0" encoding="UTF-8" standalone="no"?>
<!DOCTYPE svg PUBLIC "-//W3C//DTD SVG 1.1//EN"
 "http://www.w3.org/Graphics/SVG/1.1/DTD/svg11.dtd">
<!-- Generated by graphviz version 2.40.1 (20161225.0304)
 -->
<!-- Title: graphic Pages: 1 -->
<svg width="524pt" height="161pt"
 viewBox="0.00 0.00 524.00 160.50" xmlns="http://www.w3.org/2000/svg" xmlns:xlink="http://www.w3.org/1999/xlink">
<g id="graph0" class="graph" transform="scale(1 1) rotate(0) translate(4 156.5)">
<title>graphic</title>
<polygon fill="#ffffff" stroke="transparent" points="-4,4 -4,-156.5 520,-156.5 520,4 -4,4"/>
<!-- j:ReferralAugmentationType -->
<g id="node1" class="node">
<title>j:ReferralAugmentationType</title>
<text text-anchor="start" x="192" y="-85.4" font-family="Helvetica,sans-Serif" font-weight="bold" font-size="12.00" fill="#000000">j:ReferralAugmentationType</text>
<g id="a_node1_0"><a xlink:href="../../j/ReferralApprovalAuthorityEntity/#diagram" xlink:title="An entity, organization or person, making a referral approval." target="_top">
<polygon fill="#ebebeb" stroke="transparent" points="191,-65 191,-80 511,-80 511,-65 191,-65"/>
<text text-anchor="start" x="192" y="-69.4" font-family="Helvetica,sans-Serif" font-size="12.00" fill="#000000">j:ReferralApprovalAuthorityEntity: nc:EntityType [0&#45;n]</text>
</a>
</g>
<g id="a_node1_1"><a xlink:href="../../j/ReferralConstraintDayTotalNumeric/#diagram" xlink:title="A number of days that will calculate how rapid the subject needs to be referred." target="_top">
<text text-anchor="start" x="192" y="-54.4" font-family="Helvetica,sans-Serif" font-size="12.00" fill="#000000">j:ReferralConstraintDayTotalNumeric: nc:NumericType [0&#45;n]</text>
</a>
</g>
<g id="a_node1_2"><a xlink:href="../../j/ReferralCourtOrder/#diagram" xlink:title="A court order that issues a referral for a person." target="_top">
<polygon fill="#ebebeb" stroke="transparent" points="191,-35 191,-50 511,-50 511,-35 191,-35"/>
<text text-anchor="start" x="192" y="-39.4" font-family="Helvetica,sans-Serif" font-size="12.00" fill="#000000">j:ReferralCourtOrder: j:CourtOrderType [0&#45;n]</text>
</a>
</g>
<g id="a_node1_3"><a xlink:href="../../j/ReferralDueDate/#diagram" xlink:title="A date that is calculated from the referral constraint element in days where the Supervisor of Record has to refer by a certain date due to the nature of the risk for the subject being in Custody." target="_top">
<text text-anchor="start" x="192" y="-24.4" font-family="Helvetica,sans-Serif" font-size="12.00" fill="#000000">j:ReferralDueDate: nc:DateType [0&#45;n]</text>
</a>
</g>
<g id="a_node1_4"><a xlink:href="../../j/ReferralServiceDeliveryProgram/#diagram" xlink:title="A Service Delivery Program Name to which the subject was referred; thus, allowing intake processing." target="_top">
<polygon fill="#ebebeb" stroke="transparent" points="191,-5 191,-20 511,-20 511,-5 191,-5"/>
<text text-anchor="start" x="192" y="-9.4" font-family="Helvetica,sans-Serif" font-size="12.00" fill="#000000">j:ReferralServiceDeliveryProgram: nc:ProgramType [0&#45;n]</text>
</a>
</g>
<polygon fill="#ff0000" stroke="#ff0000" points="186,-80 186,-80 516,-80 516,-80 186,-80"/>
<polygon fill="none" stroke="#ff0000" stroke-width="5" points="188.5,-2.5 188.5,-97.5 513.5,-97.5 513.5,-2.5 188.5,-2.5"/>
</g>
<!-- Properties -->
<g id="node2" class="node">
<title>Properties</title>
<text text-anchor="start" x="2.5" y="-85.4" font-family="Helvetica,sans-Serif" font-weight="bold" font-size="12.00" fill="#000000">Properties</text>
<g id="a_node2_5"><a xlink:href="../../j/ReferralAugmentation/#diagram" xlink:title="Additional information about a referral." target="_top">
<polygon fill="#ebebeb" stroke="transparent" points="1.5,-65 1.5,-80 126.5,-80 126.5,-65 1.5,-65"/>
<text text-anchor="start" x="2.5" y="-69.4" font-family="Helvetica,sans-Serif" font-size="12.00" fill="#000000">j:ReferralAugmentation</text>
</a>
</g>
<polygon fill="#000000" stroke="#000000" points=".5,-80 .5,-80 127.5,-80 127.5,-80 .5,-80"/>
<polygon fill="none" stroke="#000000" points="0,-64 0,-96 127,-96 127,-64 0,-64"/>
</g>
<!-- Properties&#45;&gt;j:ReferralAugmentationType -->
<g id="edge1" class="edge">
<title>Properties:top&#45;&gt;j:ReferralAugmentationType:top</title>
<path fill="none" stroke="#000000" d="M126.5,-88C151.4714,-88 160.1284,-88 180.8937,-88"/>
<polygon fill="#000000" stroke="#000000" points="181,-91.5001 191,-88 181,-84.5001 181,-91.5001"/>
<text text-anchor="middle" x="156.5" y="-91.4" font-family="Helvetica,sans-Serif" font-size="12.00" fill="#000000">type</text>
</g>
<!-- structures:AugmentationType -->
<g id="node3" class="node">
<title>structures:AugmentationType</title>
<g id="a_node3_6"><a xlink:href="../../structures/AugmentationType/#diagram" xlink:title="A data type for a set of properties to be applied to a base type." target="_top">
<text text-anchor="start" x="273" y="-140.4" font-family="Helvetica,sans-Serif" font-size="12.00" fill="#000000">structures:AugmentationType</text>
</a>
</g>
<polygon fill="none" stroke="#000000" points="270.5,-135.5 270.5,-152.5 431.5,-152.5 431.5,-135.5 270.5,-135.5"/>
</g>
<!-- structures:AugmentationType&#45;&gt;j:ReferralAugmentationType -->
<g id="edge2" class="edge">
<title>structures:AugmentationType&#45;&gt;j:ReferralAugmentationType</title>
<path fill="none" stroke="#000000" d="M351,-135.375C351,-129.1263 351,-120.0624 351,-110.15"/>
<polygon fill="#000000" stroke="#000000" points="354.5001,-110.0274 351,-100.0274 347.5001,-110.0275 354.5001,-110.0274"/>
<text text-anchor="middle" x="341.5" y="-114.65" font-family="Helvetica,sans-Serif" font-size="12.00" fill="#000000">extension</text>
</g>
</g>
</svg>
