<?xml version="1.0" encoding="UTF-8" standalone="no"?>
<!DOCTYPE svg PUBLIC "-//W3C//DTD SVG 1.1//EN"
 "http://www.w3.org/Graphics/SVG/1.1/DTD/svg11.dtd">
<!-- Generated by graphviz version 2.40.1 (20161225.0304)
 -->
<!-- Title: graphic Pages: 1 -->
<svg width="556pt" height="45pt"
 viewBox="0.00 0.00 556.00 45.00" xmlns="http://www.w3.org/2000/svg" xmlns:xlink="http://www.w3.org/1999/xlink">
<g id="graph0" class="graph" transform="scale(1 1) rotate(0) translate(4 41)">
<title>graphic</title>
<polygon fill="#ffffff" stroke="transparent" points="-4,4 -4,-41 552,-41 552,4 -4,4"/>
<!-- it:MaterialHandlingEquipmentAugmentationPoint -->
<g id="node1" class="node">
<title>it:MaterialHandlingEquipmentAugmentationPoint</title>
<text text-anchor="start" x="261.5" y="-21.4" font-family="Helvetica,sans-Serif" font-weight="bold" font-size="12.00" fill="#000000">it:MaterialHandlingEquipmentAugmentationPoint</text>
<polygon fill="none" stroke="#ff0000" stroke-width="5" points="257.5,-14 257.5,-34 545.5,-34 545.5,-14 257.5,-14"/>
</g>
<!-- Types -->
<g id="node2" class="node">
<title>Types</title>
<text text-anchor="start" x="2" y="-21.4" font-family="Helvetica,sans-Serif" font-weight="bold" font-size="12.00" fill="#000000">Types</text>
<g id="a_node2_0"><a xlink:href="../../it/MaterialHandlingEquipmentType/#diagram" xlink:title="A data type for an item of equipment used to move goods and materials between places of resting or use and conveyances that transport the goods and materials." target="_top">
<polygon fill="#ebebeb" stroke="transparent" points="1,-1 1,-16 187,-16 187,-1 1,-1"/>
<text text-anchor="start" x="2" y="-5.4" font-family="Helvetica,sans-Serif" font-size="12.00" fill="#000000">it:MaterialHandlingEquipmentType</text>
</a>
</g>
<polygon fill="#000000" stroke="#000000" points="0,-16 0,-16 188,-16 188,-16 0,-16"/>
<polygon fill="none" stroke="#000000" points="0,0 0,-32 188,-32 188,0 0,0"/>
</g>
<!-- Types&#45;&gt;it:MaterialHandlingEquipmentAugmentationPoint -->
<g id="edge1" class="edge">
<title>Types:top&#45;&gt;it:MaterialHandlingEquipmentAugmentationPoint</title>
<path fill="none" stroke="#000000" d="M187,-24C205.71,-24 225.338,-24 244.8029,-24"/>
<polygon fill="#000000" stroke="#000000" points="244.9613,-27.5001 254.9613,-24 244.9613,-20.5001 244.9613,-27.5001"/>
<text text-anchor="middle" x="221.5" y="-27.4" font-family="Helvetica,sans-Serif" font-size="12.00" fill="#000000">has&#45;a</text>
</g>
</g>
</svg>
