<?xml version="1.0" encoding="UTF-8" standalone="no"?>
<!DOCTYPE svg PUBLIC "-//W3C//DTD SVG 1.1//EN"
 "http://www.w3.org/Graphics/SVG/1.1/DTD/svg11.dtd">
<!-- Generated by graphviz version 2.40.1 (20161225.0304)
 -->
<!-- Title: graphic Pages: 1 -->
<svg width="564pt" height="45pt"
 viewBox="0.00 0.00 564.00 45.00" xmlns="http://www.w3.org/2000/svg" xmlns:xlink="http://www.w3.org/1999/xlink">
<g id="graph0" class="graph" transform="scale(1 1) rotate(0) translate(4 41)">
<title>graphic</title>
<polygon fill="#ffffff" stroke="transparent" points="-4,4 -4,-41 560,-41 560,4 -4,4"/>
<!-- j:OrganizationFieldOfficeText -->
<g id="node1" class="node">
<title>j:OrganizationFieldOfficeText</title>
<text text-anchor="start" x="252" y="-21.4" font-family="Helvetica,sans-Serif" font-weight="bold" font-size="12.00" fill="#000000">j:OrganizationFieldOfficeText</text>
<polygon fill="none" stroke="#ff0000" stroke-width="5" points="248.5,-14 248.5,-34 423.5,-34 423.5,-14 248.5,-14"/>
</g>
<!-- nc:TextType -->
<g id="node3" class="node">
<title>nc:TextType</title>
<g id="a_node3_0"><a xlink:href="../../nc/TextType/#diagram" xlink:title="A data type for a character string." target="_top">
<text text-anchor="start" x="487.5" y="-20.4" font-family="Helvetica,sans-Serif" font-size="12.00" fill="#000000">nc:TextType</text>
</a>
</g>
<polygon fill="none" stroke="#000000" points="485,-15.5 485,-32.5 556,-32.5 556,-15.5 485,-15.5"/>
</g>
<!-- j:OrganizationFieldOfficeText&#45;&gt;nc:TextType -->
<g id="edge2" class="edge">
<title>j:OrganizationFieldOfficeText&#45;&gt;nc:TextType</title>
<path fill="none" stroke="#000000" d="M426.0881,-24C442.8705,-24 459.7485,-24 474.4985,-24"/>
<polygon fill="#000000" stroke="#000000" points="474.8309,-27.5001 484.8309,-24 474.8309,-20.5001 474.8309,-27.5001"/>
<text text-anchor="middle" x="455.5" y="-27.4" font-family="Helvetica,sans-Serif" font-size="12.00" fill="#000000">type</text>
</g>
<!-- Types -->
<g id="node2" class="node">
<title>Types</title>
<text text-anchor="start" x="2.5" y="-21.4" font-family="Helvetica,sans-Serif" font-weight="bold" font-size="12.00" fill="#000000">Types</text>
<g id="a_node2_1"><a xlink:href="../../j/OrganizationAugmentationType/#diagram" xlink:title="A data type for additional information about an organization." target="_top">
<polygon fill="#ebebeb" stroke="transparent" points="1.5,-1 1.5,-16 178.5,-16 178.5,-1 1.5,-1"/>
<text text-anchor="start" x="2.5" y="-5.4" font-family="Helvetica,sans-Serif" font-size="12.00" fill="#000000">j:OrganizationAugmentationType</text>
</a>
</g>
<polygon fill="#000000" stroke="#000000" points=".5,-16 .5,-16 179.5,-16 179.5,-16 .5,-16"/>
<polygon fill="none" stroke="#000000" points="0,0 0,-32 179,-32 179,0 0,0"/>
</g>
<!-- Types&#45;&gt;j:OrganizationFieldOfficeText -->
<g id="edge1" class="edge">
<title>Types:top&#45;&gt;j:OrganizationFieldOfficeText</title>
<path fill="none" stroke="#000000" d="M178.5,-24C196.9266,-24 216.5658,-24 235.5024,-24"/>
<polygon fill="#000000" stroke="#000000" points="235.6333,-27.5001 245.6333,-24 235.6332,-20.5001 235.6333,-27.5001"/>
<text text-anchor="middle" x="212.5" y="-27.4" font-family="Helvetica,sans-Serif" font-size="12.00" fill="#000000">has&#45;a</text>
</g>
</g>
</svg>
