<?xml version="1.0" encoding="UTF-8" standalone="no"?>
<!DOCTYPE svg PUBLIC "-//W3C//DTD SVG 1.1//EN"
 "http://www.w3.org/Graphics/SVG/1.1/DTD/svg11.dtd">
<!-- Generated by graphviz version 2.40.1 (20161225.0304)
 -->
<!-- Title: graphic Pages: 1 -->
<svg width="539pt" height="45pt"
 viewBox="0.00 0.00 539.00 45.00" xmlns="http://www.w3.org/2000/svg" xmlns:xlink="http://www.w3.org/1999/xlink">
<g id="graph0" class="graph" transform="scale(1 1) rotate(0) translate(4 41)">
<title>graphic</title>
<polygon fill="#ffffff" stroke="transparent" points="-4,4 -4,-41 535,-41 535,4 -4,4"/>
<!-- scr:ActivityResponseRuleText -->
<g id="node1" class="node">
<title>scr:ActivityResponseRuleText</title>
<text text-anchor="start" x="221" y="-21.4" font-family="Helvetica,sans-Serif" font-weight="bold" font-size="12.00" fill="#000000">scr:ActivityResponseRuleText</text>
<polygon fill="none" stroke="#ff0000" stroke-width="5" points="217.5,-14 217.5,-34 398.5,-34 398.5,-14 217.5,-14"/>
</g>
<!-- nc:TextType -->
<g id="node3" class="node">
<title>nc:TextType</title>
<g id="a_node3_0"><a xlink:href="../../nc/TextType/#diagram" xlink:title="A data type for a character string." target="_top">
<text text-anchor="start" x="462.5" y="-20.4" font-family="Helvetica,sans-Serif" font-size="12.00" fill="#000000">nc:TextType</text>
</a>
</g>
<polygon fill="none" stroke="#000000" points="460,-15.5 460,-32.5 531,-32.5 531,-15.5 460,-15.5"/>
</g>
<!-- scr:ActivityResponseRuleText&#45;&gt;nc:TextType -->
<g id="edge2" class="edge">
<title>scr:ActivityResponseRuleText&#45;&gt;nc:TextType</title>
<path fill="none" stroke="#000000" d="M401.2007,-24C418.0631,-24 434.9492,-24 449.6768,-24"/>
<polygon fill="#000000" stroke="#000000" points="449.9881,-27.5001 459.9881,-24 449.9881,-20.5001 449.9881,-27.5001"/>
<text text-anchor="middle" x="430.5" y="-27.4" font-family="Helvetica,sans-Serif" font-size="12.00" fill="#000000">type</text>
</g>
<!-- Types -->
<g id="node2" class="node">
<title>Types</title>
<text text-anchor="start" x="2" y="-21.4" font-family="Helvetica,sans-Serif" font-weight="bold" font-size="12.00" fill="#000000">Types</text>
<g id="a_node2_1"><a xlink:href="../../scr/ScreeningProcessType/#diagram" xlink:title="A data type that specifies the service requester transaction performance metrics information." target="_top">
<polygon fill="#ebebeb" stroke="transparent" points="1,-1 1,-16 147,-16 147,-1 1,-1"/>
<text text-anchor="start" x="2" y="-5.4" font-family="Helvetica,sans-Serif" font-size="12.00" fill="#000000">scr:ScreeningProcessType</text>
</a>
</g>
<polygon fill="#000000" stroke="#000000" points="0,-16 0,-16 148,-16 148,-16 0,-16"/>
<polygon fill="none" stroke="#000000" points="0,0 0,-32 148,-32 148,0 0,0"/>
</g>
<!-- Types&#45;&gt;scr:ActivityResponseRuleText -->
<g id="edge1" class="edge">
<title>Types:top&#45;&gt;scr:ActivityResponseRuleText</title>
<path fill="none" stroke="#000000" d="M147,-24C165.5991,-24 185.4069,-24 204.5383,-24"/>
<polygon fill="#000000" stroke="#000000" points="204.777,-27.5001 214.777,-24 204.7769,-20.5001 204.777,-27.5001"/>
<text text-anchor="middle" x="181.5" y="-27.4" font-family="Helvetica,sans-Serif" font-size="12.00" fill="#000000">has&#45;a</text>
</g>
</g>
</svg>
