<?xml version="1.0" encoding="UTF-8" standalone="no"?>
<!DOCTYPE svg PUBLIC "-//W3C//DTD SVG 1.1//EN"
 "http://www.w3.org/Graphics/SVG/1.1/DTD/svg11.dtd">
<!-- Generated by graphviz version 2.40.1 (20161225.0304)
 -->
<!-- Title: graphic Pages: 1 -->
<svg width="684pt" height="116pt"
 viewBox="0.00 0.00 684.00 116.00" xmlns="http://www.w3.org/2000/svg" xmlns:xlink="http://www.w3.org/1999/xlink">
<g id="graph0" class="graph" transform="scale(1 1) rotate(0) translate(4 112)">
<title>graphic</title>
<polygon fill="#ffffff" stroke="transparent" points="-4,4 -4,-112 680,-112 680,4 -4,4"/>
<!-- hs:DispositionAugmentationType -->
<g id="node1" class="node">
<title>hs:DispositionAugmentationType</title>
<text text-anchor="start" x="218" y="-39.9" font-family="Helvetica,sans-Serif" font-weight="bold" font-size="12.00" fill="#000000">hs:DispositionAugmentationType</text>
<g id="a_node1_0"><a xlink:href="../../hs/JuvenileInformalAdjustmentIndicator/#diagram" xlink:title="True if the juvenile (with parental consent) admits the facts of the alleged delinquent act, and the tribunal approves the conditions of the juvenile&#39;s supervision for a period of time without being adjudicated; false otherwise." target="_top">
<polygon fill="#ebebeb" stroke="transparent" points="217,-19.5 217,-34.5 671,-34.5 671,-19.5 217,-19.5"/>
<text text-anchor="start" x="218" y="-23.9" font-family="Helvetica,sans-Serif" font-size="12.00" fill="#000000">hs:JuvenileInformalAdjustmentIndicator: niem&#45;xs:boolean [0&#45;n]</text>
</a>
</g>
<g id="a_node1_1"><a xlink:href="../../hs/InformalDispositionCategoryCode/#diagram" xlink:title="A kind of informal disposition." target="_top">
<text text-anchor="start" x="218" y="-8.9" font-family="Helvetica,sans-Serif" font-size="12.00" fill="#000000">hs:InformalDispositionCategoryCode: hs:InformalDispositionCategoryCodeType [0&#45;n]</text>
</a>
</g>
<polygon fill="#ff0000" stroke="#ff0000" points="212,-34.5 212,-34.5 676,-34.5 676,-34.5 212,-34.5"/>
<polygon fill="none" stroke="#ff0000" stroke-width="5" points="214.5,-2.5 214.5,-52.5 673.5,-52.5 673.5,-2.5 214.5,-2.5"/>
</g>
<!-- Properties -->
<g id="node2" class="node">
<title>Properties</title>
<text text-anchor="start" x="2.5" y="-39.9" font-family="Helvetica,sans-Serif" font-weight="bold" font-size="12.00" fill="#000000">Properties</text>
<g id="a_node2_2"><a xlink:href="../../hs/DispositionAugmentation/#diagram" xlink:title="Additional information about a disposition." target="_top">
<polygon fill="#ebebeb" stroke="transparent" points="1.5,-19.5 1.5,-34.5 152.5,-34.5 152.5,-19.5 1.5,-19.5"/>
<text text-anchor="start" x="2.5" y="-23.9" font-family="Helvetica,sans-Serif" font-size="12.00" fill="#000000">hs:DispositionAugmentation</text>
</a>
</g>
<polygon fill="#000000" stroke="#000000" points=".5,-34.5 .5,-34.5 153.5,-34.5 153.5,-34.5 .5,-34.5"/>
<polygon fill="none" stroke="#000000" points="0,-18.5 0,-50.5 153,-50.5 153,-18.5 0,-18.5"/>
</g>
<!-- Properties&#45;&gt;hs:DispositionAugmentationType -->
<g id="edge1" class="edge">
<title>Properties:top&#45;&gt;hs:DispositionAugmentationType:top</title>
<path fill="none" stroke="#000000" d="M152.5,-42.5C177.4714,-42.5 186.1284,-42.5 206.8937,-42.5"/>
<polygon fill="#000000" stroke="#000000" points="207,-46.0001 217,-42.5 207,-39.0001 207,-46.0001"/>
<text text-anchor="middle" x="182.5" y="-45.9" font-family="Helvetica,sans-Serif" font-size="12.00" fill="#000000">type</text>
</g>
<!-- structures:AugmentationType -->
<g id="node3" class="node">
<title>structures:AugmentationType</title>
<g id="a_node3_3"><a xlink:href="../../structures/AugmentationType/#diagram" xlink:title="A data type for a set of properties to be applied to a base type." target="_top">
<text text-anchor="start" x="366" y="-95.9" font-family="Helvetica,sans-Serif" font-size="12.00" fill="#000000">structures:AugmentationType</text>
</a>
</g>
<polygon fill="none" stroke="#000000" points="363.5,-91 363.5,-108 524.5,-108 524.5,-91 363.5,-91"/>
</g>
<!-- structures:AugmentationType&#45;&gt;hs:DispositionAugmentationType -->
<g id="edge2" class="edge">
<title>structures:AugmentationType&#45;&gt;hs:DispositionAugmentationType</title>
<path fill="none" stroke="#000000" d="M444,-90.8151C444,-84.3271 444,-74.9677 444,-65.4273"/>
<polygon fill="#000000" stroke="#000000" points="447.5001,-65.1311 444,-55.1312 440.5001,-65.1312 447.5001,-65.1311"/>
<text text-anchor="middle" x="434.5" y="-69.9" font-family="Helvetica,sans-Serif" font-size="12.00" fill="#000000">extension</text>
</g>
</g>
</svg>
