<?xml version="1.0" encoding="UTF-8" standalone="no"?>
<!DOCTYPE svg PUBLIC "-//W3C//DTD SVG 1.1//EN"
 "http://www.w3.org/Graphics/SVG/1.1/DTD/svg11.dtd">
<!-- Generated by graphviz version 2.40.1 (20161225.0304)
 -->
<!-- Title: graphic Pages: 1 -->
<svg width="501pt" height="45pt"
 viewBox="0.00 0.00 501.00 45.00" xmlns="http://www.w3.org/2000/svg" xmlns:xlink="http://www.w3.org/1999/xlink">
<g id="graph0" class="graph" transform="scale(1 1) rotate(0) translate(4 41)">
<title>graphic</title>
<polygon fill="#ffffff" stroke="transparent" points="-4,4 -4,-41 497,-41 497,4 -4,4"/>
<!-- j:ItemSightedIndicator -->
<g id="node1" class="node">
<title>j:ItemSightedIndicator</title>
<text text-anchor="start" x="208.5" y="-21.4" font-family="Helvetica,sans-Serif" font-weight="bold" font-size="12.00" fill="#000000">j:ItemSightedIndicator</text>
<polygon fill="none" stroke="#ff0000" stroke-width="5" points="204.5,-14 204.5,-34 338.5,-34 338.5,-14 204.5,-14"/>
</g>
<!-- niem&#45;xs:boolean -->
<g id="node3" class="node">
<title>niem&#45;xs:boolean</title>
<g id="a_node3_0"><a xlink:href="../../niem-xs/boolean/#diagram" xlink:title="A data type for binary&#45;valued logic (true/false)." target="_top">
<text text-anchor="start" x="402.5" y="-20.4" font-family="Helvetica,sans-Serif" font-size="12.00" fill="#000000">niem&#45;xs:boolean</text>
</a>
</g>
<polygon fill="none" stroke="#000000" points="400,-15.5 400,-32.5 493,-32.5 493,-15.5 400,-15.5"/>
</g>
<!-- j:ItemSightedIndicator&#45;&gt;niem&#45;xs:boolean -->
<g id="edge2" class="edge">
<title>j:ItemSightedIndicator&#45;&gt;niem&#45;xs:boolean</title>
<path fill="none" stroke="#000000" d="M341.1675,-24C357.1985,-24 374.0634,-24 389.4846,-24"/>
<polygon fill="#000000" stroke="#000000" points="389.9022,-27.5001 399.9022,-24 389.9021,-20.5001 389.9022,-27.5001"/>
<text text-anchor="middle" x="370.5" y="-27.4" font-family="Helvetica,sans-Serif" font-size="12.00" fill="#000000">type</text>
</g>
<!-- Types -->
<g id="node2" class="node">
<title>Types</title>
<text text-anchor="start" x="2.5" y="-21.4" font-family="Helvetica,sans-Serif" font-weight="bold" font-size="12.00" fill="#000000">Types</text>
<g id="a_node2_1"><a xlink:href="../../j/ItemAugmentationType/#diagram" xlink:title="A data type for additional information about an item." target="_top">
<polygon fill="#ebebeb" stroke="transparent" points="1.5,-1 1.5,-16 134.5,-16 134.5,-1 1.5,-1"/>
<text text-anchor="start" x="2.5" y="-5.4" font-family="Helvetica,sans-Serif" font-size="12.00" fill="#000000">j:ItemAugmentationType</text>
</a>
</g>
<polygon fill="#000000" stroke="#000000" points=".5,-16 .5,-16 135.5,-16 135.5,-16 .5,-16"/>
<polygon fill="none" stroke="#000000" points="0,0 0,-32 135,-32 135,0 0,0"/>
</g>
<!-- Types&#45;&gt;j:ItemSightedIndicator -->
<g id="edge1" class="edge">
<title>Types:top&#45;&gt;j:ItemSightedIndicator</title>
<path fill="none" stroke="#000000" d="M134.5,-24C153.0484,-24 173.0093,-24 191.801,-24"/>
<polygon fill="#000000" stroke="#000000" points="191.8046,-27.5001 201.8046,-24 191.8046,-20.5001 191.8046,-27.5001"/>
<text text-anchor="middle" x="168.5" y="-27.4" font-family="Helvetica,sans-Serif" font-size="12.00" fill="#000000">has&#45;a</text>
</g>
</g>
</svg>
