<?xml version="1.0" encoding="UTF-8" standalone="no"?>
<!DOCTYPE svg PUBLIC "-//W3C//DTD SVG 1.1//EN"
 "http://www.w3.org/Graphics/SVG/1.1/DTD/svg11.dtd">
<!-- Generated by graphviz version 2.40.1 (20161225.0304)
 -->
<!-- Title: graphic Pages: 1 -->
<svg width="962pt" height="181pt"
 viewBox="0.00 0.00 962.00 181.00" xmlns="http://www.w3.org/2000/svg" xmlns:xlink="http://www.w3.org/1999/xlink">
<g id="graph0" class="graph" transform="scale(1 1) rotate(0) translate(4 177)">
<title>graphic</title>
<polygon fill="#ffffff" stroke="transparent" points="-4,4 -4,-177 958,-177 958,4 -4,4"/>
<!-- hs:SchoolAttendanceIssueType -->
<g id="node1" class="node">
<title>hs:SchoolAttendanceIssueType</title>
<text text-anchor="start" x="212.5" y="-51.9" font-family="Helvetica,sans-Serif" font-weight="bold" font-size="12.00" fill="#000000">hs:SchoolAttendanceIssueType</text>
<g id="a_node1_0"><a xlink:href="../../hs/SchoolAttendanceIssueCategoryAbstract/#diagram" xlink:title="A data concept for expressing the kind of school attendance issue a child or youth has." target="_top">
<polygon fill="#ebebeb" stroke="transparent" points="211.5,-31.5 211.5,-46.5 484.5,-46.5 484.5,-31.5 211.5,-31.5"/>
<text text-anchor="start" x="212.5" y="-35.9" font-family="Helvetica,sans-Serif" font-size="12.00" fill="#000000">hs:SchoolAttendanceIssueCategoryAbstract [0&#45;n]</text>
</a>
</g>
<g id="a_node1_1"><a xlink:href="../../hs/SchoolAttendanceIssueAugmentationPoint/#diagram" xlink:title="An augmentation point for SchoolAttendanceIssueType." target="_top">
<text text-anchor="start" x="212.5" y="-20.9" font-family="Helvetica,sans-Serif" font-size="12.00" fill="#000000">hs:SchoolAttendanceIssueAugmentationPoint [0&#45;n]</text>
</a>
</g>
<polygon fill="#ff0000" stroke="#ff0000" points="206.5,-46.5 206.5,-46.5 489.5,-46.5 489.5,-46.5 206.5,-46.5"/>
<polygon fill="none" stroke="#ff0000" stroke-width="5" points="208.5,-14.5 208.5,-64.5 486.5,-64.5 486.5,-14.5 208.5,-14.5"/>
</g>
<!-- subst_d9e19352 -->
<g id="node2" class="node">
<title>subst_d9e19352</title>
<g id="a_node2_2"><a xlink:href="../../hs/SchoolAttendanceIssueCategoryAbstract/#diagram" xlink:title="&lt;TABLE&gt;" target="_top">
<text text-anchor="start" x="528" y="-35.9" font-family="Helvetica,sans-Serif" font-weight="bold" font-size="12.00" fill="#000000">Substitution group hs:SchoolAttendanceIssueCategoryAbstract</text>
</a>
</g>
<g id="a_node2_3"><a xlink:href="../../hs/SchoolAttendanceIssueCode/#diagram" xlink:title="A type of school attendance issue that the student has." target="_top">
<polygon fill="#ebebeb" stroke="transparent" points="527,-15.5 527,-30.5 953,-30.5 953,-15.5 527,-15.5"/>
<text text-anchor="start" x="528" y="-19.9" font-family="Helvetica,sans-Serif" font-size="12.00" fill="#000000">hs:SchoolAttendanceIssueCode: hs:SchoolAttendanceIssueCategoryCodeType</text>
</a>
</g>
<g id="a_node2_4"><a xlink:href="../../hs/SchoolAttendanceIssueText/#diagram" xlink:title="A type of school attendance issue that the student has." target="_top">
<text text-anchor="start" x="528" y="-4.9" font-family="Helvetica,sans-Serif" font-size="12.00" fill="#000000">hs:SchoolAttendanceIssueText: nc:TextType</text>
</a>
</g>
<polygon fill="#000000" stroke="#000000" points="526,-30.5 526,-30.5 954,-30.5 954,-30.5 526,-30.5"/>
<polygon fill="none" stroke="#000000" points="526,0 526,-47 954,-47 954,0 526,0"/>
</g>
<!-- hs:SchoolAttendanceIssueType&#45;&gt;subst_d9e19352 -->
<g id="edge1" class="edge">
<title>hs:SchoolAttendanceIssueType:e&#45;&gt;subst_d9e19352:w</title>
<path fill="none" stroke="#000000" d="M494.828,-38.5C506.0114,-38.5 512.0955,-38.5 527,-38.5"/>
<polygon fill="#000000" stroke="#000000" points="494.5,-35.0001 484.5,-38.5 494.5,-42.0001 494.5,-35.0001"/>
</g>
<!-- Properties -->
<g id="node3" class="node">
<title>Properties</title>
<text text-anchor="start" x="2.5" y="-51.9" font-family="Helvetica,sans-Serif" font-weight="bold" font-size="12.00" fill="#000000">Properties</text>
<g id="a_node3_5"><a xlink:href="../../hs/SchoolAttendanceIssue/#diagram" xlink:title="A student&#39;s attendance issue at a school." target="_top">
<polygon fill="#ebebeb" stroke="transparent" points="1.5,-31.5 1.5,-46.5 146.5,-46.5 146.5,-31.5 1.5,-31.5"/>
<text text-anchor="start" x="2.5" y="-35.9" font-family="Helvetica,sans-Serif" font-size="12.00" fill="#000000">hs:SchoolAttendanceIssue</text>
</a>
</g>
<polygon fill="#000000" stroke="#000000" points=".5,-46.5 .5,-46.5 147.5,-46.5 147.5,-46.5 .5,-46.5"/>
<polygon fill="none" stroke="#000000" points="0,-30.5 0,-62.5 147,-62.5 147,-30.5 0,-30.5"/>
</g>
<!-- Properties&#45;&gt;hs:SchoolAttendanceIssueType -->
<g id="edge2" class="edge">
<title>Properties:top&#45;&gt;hs:SchoolAttendanceIssueType:top</title>
<path fill="none" stroke="#000000" d="M146.5,-54.5C171.6649,-54.5 180.3891,-54.5 201.3154,-54.5"/>
<polygon fill="#000000" stroke="#000000" points="201.5,-58.0001 211.5,-54.5 201.5,-51.0001 201.5,-58.0001"/>
<text text-anchor="middle" x="176.5" y="-57.9" font-family="Helvetica,sans-Serif" font-size="12.00" fill="#000000">type</text>
</g>
<!-- nc:ActivityType -->
<g id="node4" class="node">
<title>nc:ActivityType</title>
<g id="a_node4_6"><a xlink:href="../../nc/ActivityType/#diagram" xlink:title="A data type for a single or set of related actions, events, or process steps." target="_top">
<text text-anchor="start" x="307.5" y="-107.9" font-family="Helvetica,sans-Serif" font-size="12.00" fill="#000000">nc:ActivityType</text>
</a>
</g>
<polygon fill="none" stroke="#000000" points="305,-103 305,-120 390,-120 390,-103 305,-103"/>
</g>
<!-- nc:ActivityType&#45;&gt;hs:SchoolAttendanceIssueType -->
<g id="edge3" class="edge">
<title>nc:ActivityType&#45;&gt;hs:SchoolAttendanceIssueType</title>
<path fill="none" stroke="#000000" d="M347.5,-102.8151C347.5,-96.3271 347.5,-86.9677 347.5,-77.4273"/>
<polygon fill="#000000" stroke="#000000" points="351.0001,-77.1311 347.5,-67.1312 344.0001,-77.1312 351.0001,-77.1311"/>
<text text-anchor="middle" x="338" y="-81.9" font-family="Helvetica,sans-Serif" font-size="12.00" fill="#000000">extension</text>
</g>
<!-- structures:ObjectType -->
<g id="node5" class="node">
<title>structures:ObjectType</title>
<g id="a_node5_7"><a xlink:href="../../structures/ObjectType/#diagram" xlink:title="A data type for a thing with its own lifespan that has some existence." target="_top">
<text text-anchor="start" x="288.5" y="-160.9" font-family="Helvetica,sans-Serif" font-size="12.00" fill="#000000">structures:ObjectType</text>
</a>
</g>
<polygon fill="none" stroke="#000000" points="286.5,-156 286.5,-173 408.5,-173 408.5,-156 286.5,-156"/>
</g>
<!-- structures:ObjectType&#45;&gt;nc:ActivityType -->
<g id="edge4" class="edge">
<title>structures:ObjectType&#45;&gt;nc:ActivityType</title>
<path fill="none" stroke="#000000" d="M347.5,-155.911C347.5,-149.0124 347.5,-139.0696 347.5,-130.34"/>
<polygon fill="#000000" stroke="#000000" points="351.0001,-130.2518 347.5,-120.2519 344.0001,-130.2519 351.0001,-130.2518"/>
<text text-anchor="middle" x="338" y="-134.9" font-family="Helvetica,sans-Serif" font-size="12.00" fill="#000000">extension</text>
</g>
</g>
</svg>
