<?xml version="1.0" encoding="UTF-8" standalone="no"?>
<!DOCTYPE svg PUBLIC "-//W3C//DTD SVG 1.1//EN"
 "http://www.w3.org/Graphics/SVG/1.1/DTD/svg11.dtd">
<!-- Generated by graphviz version 2.40.1 (20161225.0304)
 -->
<!-- Title: graphic Pages: 1 -->
<svg width="527pt" height="101pt"
 viewBox="0.00 0.00 527.00 101.00" xmlns="http://www.w3.org/2000/svg" xmlns:xlink="http://www.w3.org/1999/xlink">
<g id="graph0" class="graph" transform="scale(1 1) rotate(0) translate(4 97)">
<title>graphic</title>
<polygon fill="#ffffff" stroke="transparent" points="-4,4 -4,-97 523,-97 523,4 -4,4"/>
<!-- mo:UnitGeopoliticalAffiliationAbstract -->
<g id="node1" class="node">
<title>mo:UnitGeopoliticalAffiliationAbstract</title>
<text text-anchor="start" x="220.5" y="-77.4" font-family="Helvetica,sans-Serif" font-weight="bold" font-size="12.00" fill="#000000">mo:UnitGeopoliticalAffiliationAbstract</text>
<polygon fill="none" stroke="#ff0000" stroke-width="5" points="216.5,-70 216.5,-90 442.5,-90 442.5,-70 216.5,-70"/>
</g>
<!-- SubstitutableElements -->
<g id="node3" class="node">
<title>SubstitutableElements</title>
<text text-anchor="start" x="142.5" y="-21.4" font-family="Helvetica,sans-Serif" font-weight="bold" font-size="12.00" fill="#000000">Substitutable elements</text>
<g id="a_node3_0"><a xlink:href="../../mo/UnitGeopoliticalAffiliationCode/#diagram" xlink:title="A designator representing the country affiliation for an object." target="_top">
<polygon fill="#ebebeb" stroke="transparent" points="141.5,-1 141.5,-16 518.5,-16 518.5,-1 141.5,-1"/>
<text text-anchor="start" x="142.5" y="-5.4" font-family="Helvetica,sans-Serif" font-size="12.00" fill="#000000">mo:UnitGeopoliticalAffiliationCode: iso_3166:CountryAlpha2CodeType</text>
</a>
</g>
<polygon fill="#000000" stroke="#000000" points="140.5,-16 140.5,-16 519.5,-16 519.5,-16 140.5,-16"/>
<polygon fill="none" stroke="#000000" points="140,0 140,-32 519,-32 519,0 140,0"/>
</g>
<!-- mo:UnitGeopoliticalAffiliationAbstract&#45;&gt;SubstitutableElements -->
<g id="edge2" class="edge">
<title>mo:UnitGeopoliticalAffiliationAbstract&#45;&gt;SubstitutableElements</title>
<path fill="none" stroke="#000000" d="M329.5,-57.3063C329.5,-48.9972 329.5,-39.7712 329.5,-32.1499"/>
<polygon fill="#000000" stroke="#000000" points="326.0001,-57.4892 329.5,-67.4892 333.0001,-57.4892 326.0001,-57.4892"/>
<text text-anchor="middle" x="320" y="-46.65" font-family="Helvetica,sans-Serif" font-size="12.00" fill="#000000">substitutable for</text>
</g>
<!-- Types -->
<g id="node2" class="node">
<title>Types</title>
<text text-anchor="start" x="2.5" y="-77.4" font-family="Helvetica,sans-Serif" font-weight="bold" font-size="12.00" fill="#000000">Types</text>
<g id="a_node2_1"><a xlink:href="../../mo/UnitType/#diagram" xlink:title="A data type for a military element whose structure is prescribed by competent authority." target="_top">
<polygon fill="#ebebeb" stroke="transparent" points="1.5,-57 1.5,-72 72.5,-72 72.5,-57 1.5,-57"/>
<text text-anchor="start" x="2.5" y="-61.4" font-family="Helvetica,sans-Serif" font-size="12.00" fill="#000000">mo:UnitType</text>
</a>
</g>
<polygon fill="#000000" stroke="#000000" points=".5,-72 .5,-72 73.5,-72 73.5,-72 .5,-72"/>
<polygon fill="none" stroke="#000000" points="0,-56 0,-88 73,-88 73,-56 0,-56"/>
</g>
<!-- Types&#45;&gt;mo:UnitGeopoliticalAffiliationAbstract -->
<g id="edge1" class="edge">
<title>Types:top&#45;&gt;mo:UnitGeopoliticalAffiliationAbstract</title>
<path fill="none" stroke="#000000" d="M72.5,-80C115.1621,-80 161.8078,-80 203.5098,-80"/>
<polygon fill="#000000" stroke="#000000" points="203.7193,-83.5001 213.7193,-80 203.7192,-76.5001 203.7193,-83.5001"/>
<text text-anchor="middle" x="106.5" y="-83.4" font-family="Helvetica,sans-Serif" font-size="12.00" fill="#000000">has&#45;a</text>
</g>
</g>
</svg>
