<?xml version="1.0" encoding="UTF-8" standalone="no"?>
<!DOCTYPE svg PUBLIC "-//W3C//DTD SVG 1.1//EN"
 "http://www.w3.org/Graphics/SVG/1.1/DTD/svg11.dtd">
<!-- Generated by graphviz version 2.40.1 (20161225.0304)
 -->
<!-- Title: graphic Pages: 1 -->
<svg width="591pt" height="101pt"
 viewBox="0.00 0.00 591.00 101.00" xmlns="http://www.w3.org/2000/svg" xmlns:xlink="http://www.w3.org/1999/xlink">
<g id="graph0" class="graph" transform="scale(1 1) rotate(0) translate(4 97)">
<title>graphic</title>
<polygon fill="#ffffff" stroke="transparent" points="-4,4 -4,-97 587,-97 587,4 -4,4"/>
<!-- scr:StateCategoryAbstract -->
<g id="node1" class="node">
<title>scr:StateCategoryAbstract</title>
<text text-anchor="start" x="325.5" y="-77.4" font-family="Helvetica,sans-Serif" font-weight="bold" font-size="12.00" fill="#000000">scr:StateCategoryAbstract</text>
<polygon fill="none" stroke="#ff0000" stroke-width="5" points="321.5,-70 321.5,-90 481.5,-90 481.5,-70 321.5,-70"/>
</g>
<!-- SubstitutableElements -->
<g id="node3" class="node">
<title>SubstitutableElements</title>
<text text-anchor="start" x="222.5" y="-21.4" font-family="Helvetica,sans-Serif" font-weight="bold" font-size="12.00" fill="#000000">Substitutable elements</text>
<g id="a_node3_0"><a xlink:href="../../scr/StateCategoryCode/#diagram" xlink:title="A COUNTRY SUBDIVISION TYPE." target="_top">
<polygon fill="#ebebeb" stroke="transparent" points="221.5,-1 221.5,-16 582.5,-16 582.5,-1 221.5,-1"/>
<text text-anchor="start" x="222.5" y="-5.4" font-family="Helvetica,sans-Serif" font-size="12.00" fill="#000000">scr:StateCategoryCode: scr:CountrySubdivisionCategoryCodeType</text>
</a>
</g>
<polygon fill="#000000" stroke="#000000" points="220.5,-16 220.5,-16 583.5,-16 583.5,-16 220.5,-16"/>
<polygon fill="none" stroke="#000000" points="220,0 220,-32 583,-32 583,0 220,0"/>
</g>
<!-- scr:StateCategoryAbstract&#45;&gt;SubstitutableElements -->
<g id="edge2" class="edge">
<title>scr:StateCategoryAbstract&#45;&gt;SubstitutableElements</title>
<path fill="none" stroke="#000000" d="M401.5,-57.3063C401.5,-48.9972 401.5,-39.7712 401.5,-32.1499"/>
<polygon fill="#000000" stroke="#000000" points="398.0001,-57.4892 401.5,-67.4892 405.0001,-57.4892 398.0001,-57.4892"/>
<text text-anchor="middle" x="392" y="-46.65" font-family="Helvetica,sans-Serif" font-size="12.00" fill="#000000">substitutable for</text>
</g>
<!-- Types -->
<g id="node2" class="node">
<title>Types</title>
<text text-anchor="start" x="2.5" y="-77.4" font-family="Helvetica,sans-Serif" font-weight="bold" font-size="12.00" fill="#000000">Types</text>
<g id="a_node2_1"><a xlink:href="../../it/AdditionalInformationType/#diagram" xlink:title="A data type for an applied augmentation for type nc:DocumentType" target="_top">
<polygon fill="#ebebeb" stroke="transparent" points="1.5,-57 1.5,-72 152.5,-72 152.5,-57 1.5,-57"/>
<text text-anchor="start" x="2.5" y="-61.4" font-family="Helvetica,sans-Serif" font-size="12.00" fill="#000000">it:AdditionalInformationType</text>
</a>
</g>
<g id="a_node2_2"><a xlink:href="../../scr/StateAugmentationType/#diagram" xlink:title="A data type for additional information about a state." target="_top">
<text text-anchor="start" x="2.5" y="-46.4" font-family="Helvetica,sans-Serif" font-size="12.00" fill="#000000">scr:StateAugmentationType</text>
</a>
</g>
<polygon fill="#000000" stroke="#000000" points=".5,-72 .5,-72 153.5,-72 153.5,-72 .5,-72"/>
<polygon fill="none" stroke="#000000" points="0,-41.5 0,-88.5 153,-88.5 153,-41.5 0,-41.5"/>
</g>
<!-- Types&#45;&gt;scr:StateCategoryAbstract -->
<g id="edge1" class="edge">
<title>Types:top&#45;&gt;scr:StateCategoryAbstract</title>
<path fill="none" stroke="#000000" d="M152.5,-80C204.1515,-80 261.8298,-80 308.6575,-80"/>
<polygon fill="#000000" stroke="#000000" points="308.7836,-83.5001 318.7835,-80 308.7835,-76.5001 308.7836,-83.5001"/>
<text text-anchor="middle" x="186.5" y="-83.4" font-family="Helvetica,sans-Serif" font-size="12.00" fill="#000000">has&#45;a</text>
</g>
</g>
</svg>
