<?xml version="1.0" encoding="UTF-8" standalone="no"?>
<!DOCTYPE svg PUBLIC "-//W3C//DTD SVG 1.1//EN"
 "http://www.w3.org/Graphics/SVG/1.1/DTD/svg11.dtd">
<!-- Generated by graphviz version 2.40.1 (20161225.0304)
 -->
<!-- Title: graphic Pages: 1 -->
<svg width="399pt" height="131pt"
 viewBox="0.00 0.00 399.00 130.50" xmlns="http://www.w3.org/2000/svg" xmlns:xlink="http://www.w3.org/1999/xlink">
<g id="graph0" class="graph" transform="scale(1 1) rotate(0) translate(4 126.5)">
<title>graphic</title>
<polygon fill="#ffffff" stroke="transparent" points="-4,4 -4,-126.5 395,-126.5 395,4 -4,4"/>
<!-- im:ICEOfficerType -->
<g id="node1" class="node">
<title>im:ICEOfficerType</title>
<text text-anchor="start" x="141" y="-55.4" font-family="Helvetica,sans-Serif" font-weight="bold" font-size="12.00" fill="#000000">im:ICEOfficerType</text>
<g id="a_node1_0"><a xlink:href="../../nc/RoleOfPerson/#diagram" xlink:title="A person of whom the role object is a function." target="_top">
<polygon fill="#ebebeb" stroke="transparent" points="140,-35 140,-50 386,-50 386,-35 140,-35"/>
<text text-anchor="start" x="141" y="-39.4" font-family="Helvetica,sans-Serif" font-size="12.00" fill="#000000">nc:RoleOfPerson: nc:PersonType [0&#45;n]</text>
</a>
</g>
<g id="a_node1_1"><a xlink:href="../../im/ICEOfficerCategoryText/#diagram" xlink:title="A kind of Department of Homeland Security (DHS), Immigration and Customs Enforcement (ICE) officer." target="_top">
<text text-anchor="start" x="141" y="-24.4" font-family="Helvetica,sans-Serif" font-size="12.00" fill="#000000">im:ICEOfficerCategoryText: nc:TextType [0&#45;n]</text>
</a>
</g>
<g id="a_node1_2"><a xlink:href="../../im/ICEOfficerAugmentationPoint/#diagram" xlink:title="An augmentation point for ICEOfficerType." target="_top">
<polygon fill="#ebebeb" stroke="transparent" points="140,-5 140,-20 386,-20 386,-5 140,-5"/>
<text text-anchor="start" x="141" y="-9.4" font-family="Helvetica,sans-Serif" font-size="12.00" fill="#000000">im:ICEOfficerAugmentationPoint [0&#45;n]</text>
</a>
</g>
<polygon fill="#ff0000" stroke="#ff0000" points="135,-50 135,-50 391,-50 391,-50 135,-50"/>
<polygon fill="none" stroke="#ff0000" stroke-width="5" points="137.5,-2.5 137.5,-67.5 388.5,-67.5 388.5,-2.5 137.5,-2.5"/>
</g>
<!-- Properties -->
<g id="node2" class="node">
<title>Properties</title>
<text text-anchor="start" x="2" y="-55.4" font-family="Helvetica,sans-Serif" font-weight="bold" font-size="12.00" fill="#000000">Properties</text>
<g id="a_node2_3"><a xlink:href="../../im/ICEOfficer/#diagram" xlink:title="A Department of Homeland Security (DHS), Immigration and Customs Enforcement (ICE) officer." target="_top">
<polygon fill="#ebebeb" stroke="transparent" points="1,-35 1,-50 75,-50 75,-35 1,-35"/>
<text text-anchor="start" x="2" y="-39.4" font-family="Helvetica,sans-Serif" font-size="12.00" fill="#000000">im:ICEOfficer</text>
</a>
</g>
<polygon fill="#000000" stroke="#000000" points="0,-50 0,-50 76,-50 76,-50 0,-50"/>
<polygon fill="none" stroke="#000000" points="0,-34 0,-66 76,-66 76,-34 0,-34"/>
</g>
<!-- Properties&#45;&gt;im:ICEOfficerType -->
<g id="edge1" class="edge">
<title>Properties:top&#45;&gt;im:ICEOfficerType:top</title>
<path fill="none" stroke="#000000" d="M75,-58C100.1649,-58 108.8891,-58 129.8154,-58"/>
<polygon fill="#000000" stroke="#000000" points="130,-61.5001 140,-58 130,-54.5001 130,-61.5001"/>
<text text-anchor="middle" x="105.5" y="-61.4" font-family="Helvetica,sans-Serif" font-size="12.00" fill="#000000">type</text>
</g>
<!-- structures:ObjectType -->
<g id="node3" class="node">
<title>structures:ObjectType</title>
<g id="a_node3_4"><a xlink:href="../../structures/ObjectType/#diagram" xlink:title="A data type for a thing with its own lifespan that has some existence." target="_top">
<text text-anchor="start" x="204" y="-110.4" font-family="Helvetica,sans-Serif" font-size="12.00" fill="#000000">structures:ObjectType</text>
</a>
</g>
<polygon fill="none" stroke="#000000" points="202,-105.5 202,-122.5 324,-122.5 324,-105.5 202,-105.5"/>
</g>
<!-- structures:ObjectType&#45;&gt;im:ICEOfficerType -->
<g id="edge2" class="edge">
<title>structures:ObjectType&#45;&gt;im:ICEOfficerType</title>
<path fill="none" stroke="#000000" d="M263,-105.4117C263,-99.1025 263,-89.9911 263,-80.4049"/>
<polygon fill="#000000" stroke="#000000" points="266.5001,-80.3408 263,-70.3408 259.5001,-80.3409 266.5001,-80.3408"/>
<text text-anchor="middle" x="253.5" y="-84.65" font-family="Helvetica,sans-Serif" font-size="12.00" fill="#000000">extension</text>
</g>
</g>
</svg>
