<?xml version="1.0" encoding="UTF-8" standalone="no"?>
<!DOCTYPE svg PUBLIC "-//W3C//DTD SVG 1.1//EN"
 "http://www.w3.org/Graphics/SVG/1.1/DTD/svg11.dtd">
<!-- Generated by graphviz version 2.40.1 (20161225.0304)
 -->
<!-- Title: graphic Pages: 1 -->
<svg width="497pt" height="45pt"
 viewBox="0.00 0.00 497.00 45.00" xmlns="http://www.w3.org/2000/svg" xmlns:xlink="http://www.w3.org/1999/xlink">
<g id="graph0" class="graph" transform="scale(1 1) rotate(0) translate(4 41)">
<title>graphic</title>
<polygon fill="#ffffff" stroke="transparent" points="-4,4 -4,-41 493,-41 493,4 -4,4"/>
<!-- j:CertificationIssuingAuthority -->
<g id="node1" class="node">
<title>j:CertificationIssuingAuthority</title>
<text text-anchor="start" x="174.5" y="-21.4" font-family="Helvetica,sans-Serif" font-weight="bold" font-size="12.00" fill="#000000">j:CertificationIssuingAuthority</text>
<polygon fill="none" stroke="#ff0000" stroke-width="5" points="170.5,-14 170.5,-34 350.5,-34 350.5,-14 170.5,-14"/>
</g>
<!-- nc:EntityType -->
<g id="node3" class="node">
<title>nc:EntityType</title>
<g id="a_node3_0"><a xlink:href="../../nc/EntityType/#diagram" xlink:title="A data type for a person, organization, or item." target="_top">
<text text-anchor="start" x="414.5" y="-20.4" font-family="Helvetica,sans-Serif" font-size="12.00" fill="#000000">nc:EntityType</text>
</a>
</g>
<polygon fill="none" stroke="#000000" points="412,-15.5 412,-32.5 489,-32.5 489,-15.5 412,-15.5"/>
</g>
<!-- j:CertificationIssuingAuthority&#45;&gt;nc:EntityType -->
<g id="edge2" class="edge">
<title>j:CertificationIssuingAuthority&#45;&gt;nc:EntityType</title>
<path fill="none" stroke="#000000" d="M353.2736,-24C369.95,-24 386.7178,-24 401.5202,-24"/>
<polygon fill="#000000" stroke="#000000" points="401.9219,-27.5001 411.9219,-24 401.9219,-20.5001 401.9219,-27.5001"/>
<text text-anchor="middle" x="382.5" y="-27.4" font-family="Helvetica,sans-Serif" font-size="12.00" fill="#000000">type</text>
</g>
<!-- Types -->
<g id="node2" class="node">
<title>Types</title>
<text text-anchor="start" x="2.5" y="-21.4" font-family="Helvetica,sans-Serif" font-weight="bold" font-size="12.00" fill="#000000">Types</text>
<g id="a_node2_1"><a xlink:href="../../j/CertificationType/#diagram" xlink:title="A data type for an official process of distinguishing the credentials of person or entity." target="_top">
<polygon fill="#ebebeb" stroke="transparent" points="1.5,-1 1.5,-16 100.5,-16 100.5,-1 1.5,-1"/>
<text text-anchor="start" x="2.5" y="-5.4" font-family="Helvetica,sans-Serif" font-size="12.00" fill="#000000">j:CertificationType</text>
</a>
</g>
<polygon fill="#000000" stroke="#000000" points=".5,-16 .5,-16 101.5,-16 101.5,-16 .5,-16"/>
<polygon fill="none" stroke="#000000" points="0,0 0,-32 101,-32 101,0 0,0"/>
</g>
<!-- Types&#45;&gt;j:CertificationIssuingAuthority -->
<g id="edge1" class="edge">
<title>Types:top&#45;&gt;j:CertificationIssuingAuthority</title>
<path fill="none" stroke="#000000" d="M100.5,-24C118.9836,-24 138.6683,-24 157.681,-24"/>
<polygon fill="#000000" stroke="#000000" points="157.856,-27.5001 167.856,-24 157.856,-20.5001 157.856,-27.5001"/>
<text text-anchor="middle" x="134.5" y="-27.4" font-family="Helvetica,sans-Serif" font-size="12.00" fill="#000000">has&#45;a</text>
</g>
</g>
</svg>
