<?xml version="1.0" encoding="UTF-8" standalone="no"?>
<!DOCTYPE svg PUBLIC "-//W3C//DTD SVG 1.1//EN"
 "http://www.w3.org/Graphics/SVG/1.1/DTD/svg11.dtd">
<!-- Generated by graphviz version 2.40.1 (20161225.0304)
 -->
<!-- Title: graphic Pages: 1 -->
<svg width="432pt" height="45pt"
 viewBox="0.00 0.00 432.00 45.00" xmlns="http://www.w3.org/2000/svg" xmlns:xlink="http://www.w3.org/1999/xlink">
<g id="graph0" class="graph" transform="scale(1 1) rotate(0) translate(4 41)">
<title>graphic</title>
<polygon fill="#ffffff" stroke="transparent" points="-4,4 -4,-41 428,-41 428,4 -4,4"/>
<!-- nc:ItemSeller -->
<g id="node1" class="node">
<title>nc:ItemSeller</title>
<text text-anchor="start" x="206" y="-21.4" font-family="Helvetica,sans-Serif" font-weight="bold" font-size="12.00" fill="#000000">nc:ItemSeller</text>
<polygon fill="none" stroke="#ff0000" stroke-width="5" points="202.5,-14 202.5,-34 285.5,-34 285.5,-14 202.5,-14"/>
</g>
<!-- nc:EntityType -->
<g id="node3" class="node">
<title>nc:EntityType</title>
<g id="a_node3_0"><a xlink:href="../../nc/EntityType/#diagram" xlink:title="A data type for a person, organization, or item." target="_top">
<text text-anchor="start" x="349.5" y="-20.4" font-family="Helvetica,sans-Serif" font-size="12.00" fill="#000000">nc:EntityType</text>
</a>
</g>
<polygon fill="none" stroke="#000000" points="347,-15.5 347,-32.5 424,-32.5 424,-15.5 347,-15.5"/>
</g>
<!-- nc:ItemSeller&#45;&gt;nc:EntityType -->
<g id="edge2" class="edge">
<title>nc:ItemSeller&#45;&gt;nc:EntityType</title>
<path fill="none" stroke="#000000" d="M288.3832,-24C303.675,-24 320.8844,-24 336.5217,-24"/>
<polygon fill="#000000" stroke="#000000" points="336.5347,-27.5001 346.5346,-24 336.5346,-20.5001 336.5347,-27.5001"/>
<text text-anchor="middle" x="317.5" y="-27.4" font-family="Helvetica,sans-Serif" font-size="12.00" fill="#000000">type</text>
</g>
<!-- Types -->
<g id="node2" class="node">
<title>Types</title>
<text text-anchor="start" x="2.5" y="-21.4" font-family="Helvetica,sans-Serif" font-weight="bold" font-size="12.00" fill="#000000">Types</text>
<g id="a_node2_1"><a xlink:href="../../nc/ItemTransactionType/#diagram" xlink:title="A data type for a transfer of ownership of an item." target="_top">
<polygon fill="#ebebeb" stroke="transparent" points="1.5,-1 1.5,-16 132.5,-16 132.5,-1 1.5,-1"/>
<text text-anchor="start" x="2.5" y="-5.4" font-family="Helvetica,sans-Serif" font-size="12.00" fill="#000000">nc:ItemTransactionType</text>
</a>
</g>
<polygon fill="#000000" stroke="#000000" points=".5,-16 .5,-16 133.5,-16 133.5,-16 .5,-16"/>
<polygon fill="none" stroke="#000000" points="0,0 0,-32 133,-32 133,0 0,0"/>
</g>
<!-- Types&#45;&gt;nc:ItemSeller -->
<g id="edge1" class="edge">
<title>Types:top&#45;&gt;nc:ItemSeller</title>
<path fill="none" stroke="#000000" d="M132.5,-24C151.1147,-24 171.4775,-24 189.6486,-24"/>
<polygon fill="#000000" stroke="#000000" points="189.7777,-27.5001 199.7777,-24 189.7776,-20.5001 189.7777,-27.5001"/>
<text text-anchor="middle" x="166.5" y="-27.4" font-family="Helvetica,sans-Serif" font-size="12.00" fill="#000000">has&#45;a</text>
</g>
</g>
</svg>
