<?xml version="1.0" encoding="UTF-8" standalone="no"?>
<!DOCTYPE svg PUBLIC "-//W3C//DTD SVG 1.1//EN"
 "http://www.w3.org/Graphics/SVG/1.1/DTD/svg11.dtd">
<!-- Generated by graphviz version 2.40.1 (20161225.0304)
 -->
<!-- Title: graphic Pages: 1 -->
<svg width="646pt" height="45pt"
 viewBox="0.00 0.00 646.00 45.00" xmlns="http://www.w3.org/2000/svg" xmlns:xlink="http://www.w3.org/1999/xlink">
<g id="graph0" class="graph" transform="scale(1 1) rotate(0) translate(4 41)">
<title>graphic</title>
<polygon fill="#ffffff" stroke="transparent" points="-4,4 -4,-41 642,-41 642,4 -4,4"/>
<!-- hs:JuvenileReceivesSubsidyIndicator -->
<g id="node1" class="node">
<title>hs:JuvenileReceivesSubsidyIndicator</title>
<text text-anchor="start" x="264" y="-21.4" font-family="Helvetica,sans-Serif" font-weight="bold" font-size="12.00" fill="#000000">hs:JuvenileReceivesSubsidyIndicator</text>
<polygon fill="none" stroke="#ff0000" stroke-width="5" points="260.5,-14 260.5,-34 483.5,-34 483.5,-14 260.5,-14"/>
</g>
<!-- niem&#45;xs:boolean -->
<g id="node3" class="node">
<title>niem&#45;xs:boolean</title>
<g id="a_node3_0"><a xlink:href="../../niem-xs/boolean/#diagram" xlink:title="A data type for binary&#45;valued logic (true/false)." target="_top">
<text text-anchor="start" x="547.5" y="-20.4" font-family="Helvetica,sans-Serif" font-size="12.00" fill="#000000">niem&#45;xs:boolean</text>
</a>
</g>
<polygon fill="none" stroke="#000000" points="545,-15.5 545,-32.5 638,-32.5 638,-15.5 545,-15.5"/>
</g>
<!-- hs:JuvenileReceivesSubsidyIndicator&#45;&gt;niem&#45;xs:boolean -->
<g id="edge2" class="edge">
<title>hs:JuvenileReceivesSubsidyIndicator&#45;&gt;niem&#45;xs:boolean</title>
<path fill="none" stroke="#000000" d="M486.2503,-24C503.0932,-24 519.7945,-24 534.7639,-24"/>
<polygon fill="#000000" stroke="#000000" points="534.8312,-27.5001 544.8311,-24 534.8311,-20.5001 534.8312,-27.5001"/>
<text text-anchor="middle" x="515.5" y="-27.4" font-family="Helvetica,sans-Serif" font-size="12.00" fill="#000000">type</text>
</g>
<!-- Types -->
<g id="node2" class="node">
<title>Types</title>
<text text-anchor="start" x="2.5" y="-21.4" font-family="Helvetica,sans-Serif" font-weight="bold" font-size="12.00" fill="#000000">Types</text>
<g id="a_node2_1"><a xlink:href="../../hs/AdoptiveFamilyAssociationType/#diagram" xlink:title="A data type for an association between family members in an adoptive family." target="_top">
<polygon fill="#ebebeb" stroke="transparent" points="1.5,-1 1.5,-16 190.5,-16 190.5,-1 1.5,-1"/>
<text text-anchor="start" x="2.5" y="-5.4" font-family="Helvetica,sans-Serif" font-size="12.00" fill="#000000">hs:AdoptiveFamilyAssociationType</text>
</a>
</g>
<polygon fill="#000000" stroke="#000000" points=".5,-16 .5,-16 191.5,-16 191.5,-16 .5,-16"/>
<polygon fill="none" stroke="#000000" points="0,0 0,-32 191,-32 191,0 0,0"/>
</g>
<!-- Types&#45;&gt;hs:JuvenileReceivesSubsidyIndicator -->
<g id="edge1" class="edge">
<title>Types:top&#45;&gt;hs:JuvenileReceivesSubsidyIndicator</title>
<path fill="none" stroke="#000000" d="M190.5,-24C208.9299,-24 228.4125,-24 247.5047,-24"/>
<polygon fill="#000000" stroke="#000000" points="247.7525,-27.5001 257.7525,-24 247.7524,-20.5001 247.7525,-27.5001"/>
<text text-anchor="middle" x="224.5" y="-27.4" font-family="Helvetica,sans-Serif" font-size="12.00" fill="#000000">has&#45;a</text>
</g>
</g>
</svg>
