<?xml version="1.0" encoding="UTF-8" standalone="no"?>
<!DOCTYPE svg PUBLIC "-//W3C//DTD SVG 1.1//EN"
 "http://www.w3.org/Graphics/SVG/1.1/DTD/svg11.dtd">
<!-- Generated by graphviz version 2.40.1 (20161225.0304)
 -->
<!-- Title: graphic Pages: 1 -->
<svg width="441pt" height="45pt"
 viewBox="0.00 0.00 441.00 45.00" xmlns="http://www.w3.org/2000/svg" xmlns:xlink="http://www.w3.org/1999/xlink">
<g id="graph0" class="graph" transform="scale(1 1) rotate(0) translate(4 41)">
<title>graphic</title>
<polygon fill="#ffffff" stroke="transparent" points="-4,4 -4,-41 437,-41 437,4 -4,4"/>
<!-- j:ChargeOriginatorEntity -->
<g id="node1" class="node">
<title>j:ChargeOriginatorEntity</title>
<text text-anchor="start" x="150.5" y="-21.4" font-family="Helvetica,sans-Serif" font-weight="bold" font-size="12.00" fill="#000000">j:ChargeOriginatorEntity</text>
<polygon fill="none" stroke="#ff0000" stroke-width="5" points="146.5,-14 146.5,-34 294.5,-34 294.5,-14 146.5,-14"/>
</g>
<!-- nc:EntityType -->
<g id="node3" class="node">
<title>nc:EntityType</title>
<g id="a_node3_0"><a xlink:href="../../nc/EntityType/#diagram" xlink:title="A data type for a person, organization, or item." target="_top">
<text text-anchor="start" x="358.5" y="-20.4" font-family="Helvetica,sans-Serif" font-size="12.00" fill="#000000">nc:EntityType</text>
</a>
</g>
<polygon fill="none" stroke="#000000" points="356,-15.5 356,-32.5 433,-32.5 433,-15.5 356,-15.5"/>
</g>
<!-- j:ChargeOriginatorEntity&#45;&gt;nc:EntityType -->
<g id="edge2" class="edge">
<title>j:ChargeOriginatorEntity&#45;&gt;nc:EntityType</title>
<path fill="none" stroke="#000000" d="M297.0721,-24C313.518,-24 330.4682,-24 345.5263,-24"/>
<polygon fill="#000000" stroke="#000000" points="345.6194,-27.5001 355.6194,-24 345.6194,-20.5001 345.6194,-27.5001"/>
<text text-anchor="middle" x="326.5" y="-27.4" font-family="Helvetica,sans-Serif" font-size="12.00" fill="#000000">type</text>
</g>
<!-- Types -->
<g id="node2" class="node">
<title>Types</title>
<text text-anchor="start" x="2.5" y="-21.4" font-family="Helvetica,sans-Serif" font-weight="bold" font-size="12.00" fill="#000000">Types</text>
<g id="a_node2_1"><a xlink:href="../../j/ChargeType/#diagram" xlink:title="A data type for a formal allegation that a specific person has committed a specific offense." target="_top">
<polygon fill="#ebebeb" stroke="transparent" points="1.5,-1 1.5,-16 76.5,-16 76.5,-1 1.5,-1"/>
<text text-anchor="start" x="2.5" y="-5.4" font-family="Helvetica,sans-Serif" font-size="12.00" fill="#000000">j:ChargeType</text>
</a>
</g>
<polygon fill="#000000" stroke="#000000" points=".5,-16 .5,-16 77.5,-16 77.5,-16 .5,-16"/>
<polygon fill="none" stroke="#000000" points="0,0 0,-32 77,-32 77,0 0,0"/>
</g>
<!-- Types&#45;&gt;j:ChargeOriginatorEntity -->
<g id="edge1" class="edge">
<title>Types:top&#45;&gt;j:ChargeOriginatorEntity</title>
<path fill="none" stroke="#000000" d="M76.5,-24C95.0425,-24 114.928,-24 133.8219,-24"/>
<polygon fill="#000000" stroke="#000000" points="133.8993,-27.5001 143.8993,-24 133.8992,-20.5001 133.8993,-27.5001"/>
<text text-anchor="middle" x="110.5" y="-27.4" font-family="Helvetica,sans-Serif" font-size="12.00" fill="#000000">has&#45;a</text>
</g>
</g>
</svg>
