<?xml version="1.0" encoding="UTF-8" standalone="no"?>
<!DOCTYPE svg PUBLIC "-//W3C//DTD SVG 1.1//EN"
 "http://www.w3.org/Graphics/SVG/1.1/DTD/svg11.dtd">
<!-- Generated by graphviz version 2.40.1 (20161225.0304)
 -->
<!-- Title: graphic Pages: 1 -->
<svg width="582pt" height="101pt"
 viewBox="0.00 0.00 582.00 101.00" xmlns="http://www.w3.org/2000/svg" xmlns:xlink="http://www.w3.org/1999/xlink">
<g id="graph0" class="graph" transform="scale(1 1) rotate(0) translate(4 97)">
<title>graphic</title>
<polygon fill="#ffffff" stroke="transparent" points="-4,4 -4,-97 578,-97 578,4 -4,4"/>
<!-- j:SubjectAssessmentMilitaryServiceConsiderationAbstract -->
<g id="node1" class="node">
<title>j:SubjectAssessmentMilitaryServiceConsiderationAbstract</title>
<text text-anchor="start" x="224" y="-77.4" font-family="Helvetica,sans-Serif" font-weight="bold" font-size="12.00" fill="#000000">j:SubjectAssessmentMilitaryServiceConsiderationAbstract</text>
<polygon fill="none" stroke="#ff0000" stroke-width="5" points="220.5,-70 220.5,-90 563.5,-90 563.5,-70 220.5,-70"/>
</g>
<!-- SubstitutableElements -->
<g id="node3" class="node">
<title>SubstitutableElements</title>
<text text-anchor="start" x="212" y="-21.4" font-family="Helvetica,sans-Serif" font-weight="bold" font-size="12.00" fill="#000000">Substitutable elements</text>
<g id="a_node3_0"><a xlink:href="../../j/SubjectAssessmentMilitaryServiceConsiderationText/#diagram" xlink:title="A kind of values to indicate military considerations." target="_top">
<polygon fill="#ebebeb" stroke="transparent" points="211,-1 211,-16 573,-16 573,-1 211,-1"/>
<text text-anchor="start" x="212" y="-5.4" font-family="Helvetica,sans-Serif" font-size="12.00" fill="#000000">j:SubjectAssessmentMilitaryServiceConsiderationText: nc:TextType</text>
</a>
</g>
<polygon fill="#000000" stroke="#000000" points="210,-16 210,-16 574,-16 574,-16 210,-16"/>
<polygon fill="none" stroke="#000000" points="210,0 210,-32 574,-32 574,0 210,0"/>
</g>
<!-- j:SubjectAssessmentMilitaryServiceConsiderationAbstract&#45;&gt;SubstitutableElements -->
<g id="edge2" class="edge">
<title>j:SubjectAssessmentMilitaryServiceConsiderationAbstract&#45;&gt;SubstitutableElements</title>
<path fill="none" stroke="#000000" d="M392,-57.3063C392,-48.9972 392,-39.7712 392,-32.1499"/>
<polygon fill="#000000" stroke="#000000" points="388.5001,-57.4892 392,-67.4892 395.5001,-57.4892 388.5001,-57.4892"/>
<text text-anchor="middle" x="382.5" y="-46.65" font-family="Helvetica,sans-Serif" font-size="12.00" fill="#000000">substitutable for</text>
</g>
<!-- Types -->
<g id="node2" class="node">
<title>Types</title>
<text text-anchor="start" x="2.5" y="-77.4" font-family="Helvetica,sans-Serif" font-weight="bold" font-size="12.00" fill="#000000">Types</text>
<g id="a_node2_1"><a xlink:href="../../j/SubjectAssessmentType/#diagram" xlink:title="A data type for an event or activity involving the assessment of a corrections subject." target="_top">
<polygon fill="#ebebeb" stroke="transparent" points="1.5,-57 1.5,-72 142.5,-72 142.5,-57 1.5,-57"/>
<text text-anchor="start" x="2.5" y="-61.4" font-family="Helvetica,sans-Serif" font-size="12.00" fill="#000000">j:SubjectAssessmentType</text>
</a>
</g>
<polygon fill="#000000" stroke="#000000" points=".5,-72 .5,-72 143.5,-72 143.5,-72 .5,-72"/>
<polygon fill="none" stroke="#000000" points="0,-56 0,-88 143,-88 143,-56 0,-56"/>
</g>
<!-- Types&#45;&gt;j:SubjectAssessmentMilitaryServiceConsiderationAbstract -->
<g id="edge1" class="edge">
<title>Types:top&#45;&gt;j:SubjectAssessmentMilitaryServiceConsiderationAbstract</title>
<path fill="none" stroke="#000000" d="M142.5,-80C163.6292,-80 185.765,-80 207.7565,-80"/>
<polygon fill="#000000" stroke="#000000" points="207.8465,-83.5001 217.8464,-80 207.8464,-76.5001 207.8465,-83.5001"/>
<text text-anchor="middle" x="176.5" y="-83.4" font-family="Helvetica,sans-Serif" font-size="12.00" fill="#000000">has&#45;a</text>
</g>
</g>
</svg>
