<?xml version="1.0" encoding="UTF-8" standalone="no"?>
<!DOCTYPE svg PUBLIC "-//W3C//DTD SVG 1.1//EN"
 "http://www.w3.org/Graphics/SVG/1.1/DTD/svg11.dtd">
<!-- Generated by graphviz version 2.40.1 (20161225.0304)
 -->
<!-- Title: graphic Pages: 1 -->
<svg width="462pt" height="86pt"
 viewBox="0.00 0.00 462.00 86.00" xmlns="http://www.w3.org/2000/svg" xmlns:xlink="http://www.w3.org/1999/xlink">
<g id="graph0" class="graph" transform="scale(1 1) rotate(0) translate(4 82)">
<title>graphic</title>
<polygon fill="#ffffff" stroke="transparent" points="-4,4 -4,-82 458,-82 458,4 -4,4"/>
<!-- im:JudicialOfficialAugmentation -->
<g id="node1" class="node">
<title>im:JudicialOfficialAugmentation</title>
<text text-anchor="start" x="6.5" y="-9.9" font-family="Helvetica,sans-Serif" font-weight="bold" font-size="12.00" fill="#000000">im:JudicialOfficialAugmentation</text>
<polygon fill="none" stroke="#ff0000" stroke-width="5" points="2.5,-2.5 2.5,-22.5 194.5,-22.5 194.5,-2.5 2.5,-2.5"/>
</g>
<!-- im:JudicialOfficialAugmentationType -->
<g id="node3" class="node">
<title>im:JudicialOfficialAugmentationType</title>
<g id="a_node3_0"><a xlink:href="../../im/JudicialOfficialAugmentationType/#diagram" xlink:title="A data type for additional information about a judicial official." target="_top">
<text text-anchor="start" x="258" y="-8.9" font-family="Helvetica,sans-Serif" font-size="12.00" fill="#000000">im:JudicialOfficialAugmentationType</text>
</a>
</g>
<polygon fill="none" stroke="#000000" points="256,-4 256,-21 454,-21 454,-4 256,-4"/>
</g>
<!-- im:JudicialOfficialAugmentation&#45;&gt;im:JudicialOfficialAugmentationType -->
<g id="edge2" class="edge">
<title>im:JudicialOfficialAugmentation&#45;&gt;im:JudicialOfficialAugmentationType</title>
<path fill="none" stroke="#000000" d="M197.3027,-12.5C213.0472,-12.5 229.4176,-12.5 245.3936,-12.5"/>
<polygon fill="#000000" stroke="#000000" points="245.8247,-16.0001 255.8247,-12.5 245.8246,-9.0001 245.8247,-16.0001"/>
<text text-anchor="middle" x="226.5" y="-15.9" font-family="Helvetica,sans-Serif" font-size="12.00" fill="#000000">type</text>
</g>
<!-- SubstitutionGroup -->
<g id="node2" class="node">
<title>SubstitutionGroup</title>
<g id="a_node2_1"><a xlink:href="../../j/JudicialOfficialAugmentationPoint/#diagram" xlink:title="An augmentation point for JudicialOfficialType." target="_top">
<text text-anchor="start" x="6.5" y="-65.9" font-family="Helvetica,sans-Serif" font-size="12.00" fill="#000000">j:JudicialOfficialAugmentationPoint</text>
</a>
</g>
<polygon fill="none" stroke="#000000" points="4,-61 4,-78 193,-78 193,-61 4,-61"/>
</g>
<!-- SubstitutionGroup&#45;&gt;im:JudicialOfficialAugmentation -->
<g id="edge1" class="edge">
<title>SubstitutionGroup&#45;&gt;im:JudicialOfficialAugmentation</title>
<path fill="none" stroke="#000000" d="M98.5,-50.9163C98.5,-42.4809 98.5,-32.7214 98.5,-25.1501"/>
<polygon fill="#000000" stroke="#000000" points="95.0001,-50.9472 98.5,-60.9473 102.0001,-50.9473 95.0001,-50.9472"/>
<text text-anchor="middle" x="89" y="-39.9" font-family="Helvetica,sans-Serif" font-size="12.00" fill="#000000">substitution group</text>
</g>
</g>
</svg>
