<?xml version="1.0" encoding="UTF-8" standalone="no"?>
<!DOCTYPE svg PUBLIC "-//W3C//DTD SVG 1.1//EN"
 "http://www.w3.org/Graphics/SVG/1.1/DTD/svg11.dtd">
<!-- Generated by graphviz version 2.40.1 (20161225.0304)
 -->
<!-- Title: graphic Pages: 1 -->
<svg width="583pt" height="45pt"
 viewBox="0.00 0.00 583.00 45.00" xmlns="http://www.w3.org/2000/svg" xmlns:xlink="http://www.w3.org/1999/xlink">
<g id="graph0" class="graph" transform="scale(1 1) rotate(0) translate(4 41)">
<title>graphic</title>
<polygon fill="#ffffff" stroke="transparent" points="-4,4 -4,-41 579,-41 579,4 -4,4"/>
<!-- hs:SpecialEducationEligibleDate -->
<g id="node1" class="node">
<title>hs:SpecialEducationEligibleDate</title>
<text text-anchor="start" x="250.5" y="-21.4" font-family="Helvetica,sans-Serif" font-weight="bold" font-size="12.00" fill="#000000">hs:SpecialEducationEligibleDate</text>
<polygon fill="none" stroke="#ff0000" stroke-width="5" points="246.5,-14 246.5,-34 440.5,-34 440.5,-14 246.5,-14"/>
</g>
<!-- nc:DateType -->
<g id="node3" class="node">
<title>nc:DateType</title>
<g id="a_node3_0"><a xlink:href="../../nc/DateType/#diagram" xlink:title="A data type for a calendar date." target="_top">
<text text-anchor="start" x="504.5" y="-20.4" font-family="Helvetica,sans-Serif" font-size="12.00" fill="#000000">nc:DateType</text>
</a>
</g>
<polygon fill="none" stroke="#000000" points="502,-15.5 502,-32.5 575,-32.5 575,-15.5 502,-15.5"/>
</g>
<!-- hs:SpecialEducationEligibleDate&#45;&gt;nc:DateType -->
<g id="edge2" class="edge">
<title>hs:SpecialEducationEligibleDate&#45;&gt;nc:DateType</title>
<path fill="none" stroke="#000000" d="M443.285,-24C460.1752,-24 476.9739,-24 491.6521,-24"/>
<polygon fill="#000000" stroke="#000000" points="491.9365,-27.5001 501.9364,-24 491.9364,-20.5001 491.9365,-27.5001"/>
<text text-anchor="middle" x="472.5" y="-27.4" font-family="Helvetica,sans-Serif" font-size="12.00" fill="#000000">type</text>
</g>
<!-- Types -->
<g id="node2" class="node">
<title>Types</title>
<text text-anchor="start" x="2.5" y="-21.4" font-family="Helvetica,sans-Serif" font-weight="bold" font-size="12.00" fill="#000000">Types</text>
<g id="a_node2_1"><a xlink:href="../../hs/SpecialEducationDetailsType/#diagram" xlink:title="A data type for information about special education." target="_top">
<polygon fill="#ebebeb" stroke="transparent" points="1.5,-1 1.5,-16 176.5,-16 176.5,-1 1.5,-1"/>
<text text-anchor="start" x="2.5" y="-5.4" font-family="Helvetica,sans-Serif" font-size="12.00" fill="#000000">hs:SpecialEducationDetailsType</text>
</a>
</g>
<polygon fill="#000000" stroke="#000000" points=".5,-16 .5,-16 177.5,-16 177.5,-16 .5,-16"/>
<polygon fill="none" stroke="#000000" points="0,0 0,-32 177,-32 177,0 0,0"/>
</g>
<!-- Types&#45;&gt;hs:SpecialEducationEligibleDate -->
<g id="edge1" class="edge">
<title>Types:top&#45;&gt;hs:SpecialEducationEligibleDate</title>
<path fill="none" stroke="#000000" d="M176.5,-24C194.9321,-24 214.5086,-24 233.5243,-24"/>
<polygon fill="#000000" stroke="#000000" points="233.7128,-27.5001 243.7127,-24 233.7127,-20.5001 233.7128,-27.5001"/>
<text text-anchor="middle" x="210.5" y="-27.4" font-family="Helvetica,sans-Serif" font-size="12.00" fill="#000000">has&#45;a</text>
</g>
</g>
</svg>
