<?xml version="1.0" encoding="UTF-8" standalone="no"?>
<!DOCTYPE svg PUBLIC "-//W3C//DTD SVG 1.1//EN"
 "http://www.w3.org/Graphics/SVG/1.1/DTD/svg11.dtd">
<!-- Generated by graphviz version 2.40.1 (20161225.0304)
 -->
<!-- Title: graphic Pages: 1 -->
<svg width="733pt" height="229pt"
 viewBox="0.00 0.00 733.00 229.00" xmlns="http://www.w3.org/2000/svg" xmlns:xlink="http://www.w3.org/1999/xlink">
<g id="graph0" class="graph" transform="scale(1 1) rotate(0) translate(4 225)">
<title>graphic</title>
<polygon fill="#ffffff" stroke="transparent" points="-4,4 -4,-225 729,-225 729,4 -4,4"/>
<!-- im:AlienRole -->
<g id="node1" class="node">
<title>im:AlienRole</title>
<text text-anchor="start" x="329.5" y="-152.9" font-family="Helvetica,sans-Serif" font-weight="bold" font-size="12.00" fill="#000000">im:AlienRole</text>
<polygon fill="none" stroke="#ff0000" stroke-width="5" points="326,-145.5 326,-165.5 407,-165.5 407,-145.5 326,-145.5"/>
</g>
<!-- SubstitutableElements -->
<g id="node4" class="node">
<title>SubstitutableElements</title>
<text text-anchor="start" x="168.5" y="-95.9" font-family="Helvetica,sans-Serif" font-weight="bold" font-size="12.00" fill="#000000">Substitutable elements</text>
<g id="a_node4_0"><a xlink:href="../../im/ImmigrantRole/#diagram" xlink:title="A person immigrating to a country with a path to staying legally in a country." target="_top">
<polygon fill="#ebebeb" stroke="transparent" points="167.5,-75.5 167.5,-90.5 566.5,-90.5 566.5,-75.5 167.5,-75.5"/>
<text text-anchor="start" x="168.5" y="-79.9" font-family="Helvetica,sans-Serif" font-size="12.00" fill="#000000">im:ImmigrantRole: im:ImmigrantRoleType</text>
</a>
</g>
<g id="a_node4_1"><a xlink:href="../../im/LawfulPermanentResidentRole/#diagram" xlink:title="A person that has been made a lawful resident of a country." target="_top">
<text text-anchor="start" x="168.5" y="-64.9" font-family="Helvetica,sans-Serif" font-size="12.00" fill="#000000">im:LawfulPermanentResidentRole: im:LawfulPermanentResidentRoleType</text>
</a>
</g>
<g id="a_node4_2"><a xlink:href="../../im/NonImmigrantRole/#diagram" xlink:title="A person immigrating a country with no immigration path to staying legally in a country." target="_top">
<polygon fill="#ebebeb" stroke="transparent" points="167.5,-45.5 167.5,-60.5 566.5,-60.5 566.5,-45.5 167.5,-45.5"/>
<text text-anchor="start" x="168.5" y="-49.9" font-family="Helvetica,sans-Serif" font-size="12.00" fill="#000000">im:NonImmigrantRole: im:NonImmigrantRoleType</text>
</a>
</g>
<g id="a_node4_3"><a xlink:href="../../im/AlienExchangeVisitorRole/#diagram" xlink:title="A non&#45;immigrant alien who visits the United States to participate in either an educational or cultural exchange program that is approved by the United States Department of State." target="_top">
<text text-anchor="start" x="168.5" y="-34.9" font-family="Helvetica,sans-Serif" font-size="12.00" fill="#000000">im:AlienExchangeVisitorRole: im:AlienExchangeVisitorRoleType</text>
</a>
</g>
<g id="a_node4_4"><a xlink:href="../../im/AlienStudentRole/#diagram" xlink:title="A non&#45;immigrant alien enrolled full&#45;time in an approved, accredited or certified United States educational or vocational program" target="_top">
<polygon fill="#ebebeb" stroke="transparent" points="167.5,-15.5 167.5,-30.5 566.5,-30.5 566.5,-15.5 167.5,-15.5"/>
<text text-anchor="start" x="168.5" y="-19.9" font-family="Helvetica,sans-Serif" font-size="12.00" fill="#000000">im:AlienStudentRole: im:AlienStudentRoleType</text>
</a>
</g>
<g id="a_node4_5"><a xlink:href="../../im/OtherAlienRole/#diagram" xlink:title="A data type for the Other Alien role that is played by a Person who cannot be categorized as either an Immigrant or NonImmigrant with respect to a Country" target="_top">
<text text-anchor="start" x="168.5" y="-4.9" font-family="Helvetica,sans-Serif" font-size="12.00" fill="#000000">im:OtherAlienRole: im:OtherAlienRoleType</text>
</a>
</g>
<polygon fill="#000000" stroke="#000000" points="166.5,-90.5 166.5,-90.5 567.5,-90.5 567.5,-90.5 166.5,-90.5"/>
<polygon fill="none" stroke="#000000" points="166,0 166,-107 567,-107 567,0 166,0"/>
</g>
<!-- im:AlienRole&#45;&gt;SubstitutableElements -->
<g id="edge3" class="edge">
<title>im:AlienRole&#45;&gt;SubstitutableElements</title>
<path fill="none" stroke="#000000" d="M366.5,-132.4716C366.5,-124.8788 366.5,-116.0883 366.5,-107.1883"/>
<polygon fill="#000000" stroke="#000000" points="363.0001,-132.6123 366.5,-142.6123 370.0001,-132.6124 363.0001,-132.6123"/>
<text text-anchor="middle" x="357" y="-121.9" font-family="Helvetica,sans-Serif" font-size="12.00" fill="#000000">substitutable for</text>
</g>
<!-- im:AlienRoleType -->
<g id="node5" class="node">
<title>im:AlienRoleType</title>
<g id="a_node5_6"><a xlink:href="../../im/AlienRoleType/#diagram" xlink:title="A data type for a foreign born person who is not a citizen of the United States." target="_top">
<text text-anchor="start" x="628.5" y="-151.9" font-family="Helvetica,sans-Serif" font-size="12.00" fill="#000000">im:AlienRoleType</text>
</a>
</g>
<polygon fill="none" stroke="#000000" points="626,-147 626,-164 725,-164 725,-147 626,-147"/>
</g>
<!-- im:AlienRole&#45;&gt;im:AlienRoleType -->
<g id="edge4" class="edge">
<title>im:AlienRole&#45;&gt;im:AlienRoleType</title>
<path fill="none" stroke="#000000" d="M409.7905,-155.5C463.4888,-155.5 555.3152,-155.5 615.7081,-155.5"/>
<polygon fill="#000000" stroke="#000000" points="615.8605,-159.0001 625.8605,-155.5 615.8605,-152.0001 615.8605,-159.0001"/>
<text text-anchor="middle" x="596.5" y="-158.9" font-family="Helvetica,sans-Serif" font-size="12.00" fill="#000000">type</text>
</g>
<!-- Types -->
<g id="node2" class="node">
<title>Types</title>
<text text-anchor="start" x="2.5" y="-152.9" font-family="Helvetica,sans-Serif" font-weight="bold" font-size="12.00" fill="#000000">Types</text>
<g id="a_node2_7"><a xlink:href="../../im/AlienAlertType/#diagram" xlink:title="A data type for the significant information regarding an alien communicated to immigration or enforcement officials notifying them of potential risk or risks." target="_top">
<polygon fill="#ebebeb" stroke="transparent" points="1.5,-132.5 1.5,-147.5 98.5,-147.5 98.5,-132.5 1.5,-132.5"/>
<text text-anchor="start" x="2.5" y="-136.9" font-family="Helvetica,sans-Serif" font-size="12.00" fill="#000000">im:AlienAlertType</text>
</a>
</g>
<polygon fill="#000000" stroke="#000000" points=".5,-147.5 .5,-147.5 99.5,-147.5 99.5,-147.5 .5,-147.5"/>
<polygon fill="none" stroke="#000000" points="0,-131.5 0,-163.5 99,-163.5 99,-131.5 0,-131.5"/>
</g>
<!-- Types&#45;&gt;im:AlienRole -->
<g id="edge1" class="edge">
<title>Types:top&#45;&gt;im:AlienRole</title>
<path fill="none" stroke="#000000" d="M98.5,-155.5C173.0267,-155.5 259.211,-155.5 313.2885,-155.5"/>
<polygon fill="#000000" stroke="#000000" points="313.3325,-159.0001 323.3324,-155.5 313.3324,-152.0001 313.3325,-159.0001"/>
<text text-anchor="middle" x="132.5" y="-158.9" font-family="Helvetica,sans-Serif" font-size="12.00" fill="#000000">has&#45;a</text>
</g>
<!-- SubstitutionGroup -->
<g id="node3" class="node">
<title>SubstitutionGroup</title>
<g id="a_node3_8"><a xlink:href="../../im/PersonCountryRole/#diagram" xlink:title="A role that a Person plays with respect to a country" target="_top">
<text text-anchor="start" x="229.5" y="-208.9" font-family="Helvetica,sans-Serif" font-size="12.00" fill="#000000">im:PersonCountryRole: im:PersonCountryRoleType</text>
</a>
</g>
<polygon fill="none" stroke="#000000" points="227,-204 227,-221 506,-221 506,-204 227,-204"/>
</g>
<!-- SubstitutionGroup&#45;&gt;im:AlienRole -->
<g id="edge2" class="edge">
<title>SubstitutionGroup&#45;&gt;im:AlienRole</title>
<path fill="none" stroke="#000000" d="M366.5,-193.9163C366.5,-185.4809 366.5,-175.7214 366.5,-168.1501"/>
<polygon fill="#000000" stroke="#000000" points="363.0001,-193.9472 366.5,-203.9473 370.0001,-193.9473 363.0001,-193.9472"/>
<text text-anchor="middle" x="357" y="-182.9" font-family="Helvetica,sans-Serif" font-size="12.00" fill="#000000">substitution group</text>
</g>
</g>
</svg>
