<?xml version="1.0" encoding="UTF-8" standalone="no"?>
<!DOCTYPE svg PUBLIC "-//W3C//DTD SVG 1.1//EN"
 "http://www.w3.org/Graphics/SVG/1.1/DTD/svg11.dtd">
<!-- Generated by graphviz version 2.40.1 (20161225.0304)
 -->
<!-- Title: graphic Pages: 1 -->
<svg width="389pt" height="86pt"
 viewBox="0.00 0.00 389.00 86.00" xmlns="http://www.w3.org/2000/svg" xmlns:xlink="http://www.w3.org/1999/xlink">
<g id="graph0" class="graph" transform="scale(1 1) rotate(0) translate(4 82)">
<title>graphic</title>
<polygon fill="#ffffff" stroke="transparent" points="-4,4 -4,-82 385,-82 385,4 -4,4"/>
<!-- intel:CountryFIPS10&#45;4PlusNCTCCodeText -->
<g id="node1" class="node">
<title>intel:CountryFIPS10&#45;4PlusNCTCCodeText</title>
<text text-anchor="start" x="6.5" y="-9.9" font-family="Helvetica,sans-Serif" font-weight="bold" font-size="12.00" fill="#000000">intel:CountryFIPS10&#45;4PlusNCTCCodeText</text>
<polygon fill="none" stroke="#ff0000" stroke-width="5" points="2.5,-2.5 2.5,-22.5 248.5,-22.5 248.5,-2.5 2.5,-2.5"/>
</g>
<!-- nc:TextType -->
<g id="node3" class="node">
<title>nc:TextType</title>
<g id="a_node3_0"><a xlink:href="../../nc/TextType/#diagram" xlink:title="A data type for a character string." target="_top">
<text text-anchor="start" x="312.5" y="-8.9" font-family="Helvetica,sans-Serif" font-size="12.00" fill="#000000">nc:TextType</text>
</a>
</g>
<polygon fill="none" stroke="#000000" points="310,-4 310,-21 381,-21 381,-4 310,-4"/>
</g>
<!-- intel:CountryFIPS10&#45;4PlusNCTCCodeText&#45;&gt;nc:TextType -->
<g id="edge2" class="edge">
<title>intel:CountryFIPS10&#45;4PlusNCTCCodeText&#45;&gt;nc:TextType</title>
<path fill="none" stroke="#000000" d="M251.2428,-12.5C268.4372,-12.5 285.1077,-12.5 299.5266,-12.5"/>
<polygon fill="#000000" stroke="#000000" points="299.6032,-16.0001 309.6031,-12.5 299.6031,-9.0001 299.6032,-16.0001"/>
<text text-anchor="middle" x="280.5" y="-15.9" font-family="Helvetica,sans-Serif" font-size="12.00" fill="#000000">type</text>
</g>
<!-- SubstitutionGroup -->
<g id="node2" class="node">
<title>SubstitutionGroup</title>
<g id="a_node2_1"><a xlink:href="../../nc/CountryRepresentation/#diagram" xlink:title="A data concept for a representation of a country." target="_top">
<text text-anchor="start" x="55.5" y="-65.9" font-family="Helvetica,sans-Serif" font-size="12.00" fill="#000000">nc:CountryRepresentation</text>
</a>
</g>
<polygon fill="none" stroke="#000000" points="53.5,-61 53.5,-78 197.5,-78 197.5,-61 53.5,-61"/>
</g>
<!-- SubstitutionGroup&#45;&gt;intel:CountryFIPS10&#45;4PlusNCTCCodeText -->
<g id="edge1" class="edge">
<title>SubstitutionGroup&#45;&gt;intel:CountryFIPS10&#45;4PlusNCTCCodeText</title>
<path fill="none" stroke="#000000" d="M125.5,-50.9163C125.5,-42.4809 125.5,-32.7214 125.5,-25.1501"/>
<polygon fill="#000000" stroke="#000000" points="122.0001,-50.9472 125.5,-60.9473 129.0001,-50.9473 122.0001,-50.9472"/>
<text text-anchor="middle" x="116" y="-39.9" font-family="Helvetica,sans-Serif" font-size="12.00" fill="#000000">substitution group</text>
</g>
</g>
</svg>
