<?xml version="1.0" encoding="UTF-8" standalone="no"?>
<!DOCTYPE svg PUBLIC "-//W3C//DTD SVG 1.1//EN"
 "http://www.w3.org/Graphics/SVG/1.1/DTD/svg11.dtd">
<!-- Generated by graphviz version 2.40.1 (20161225.0304)
 -->
<!-- Title: graphic Pages: 1 -->
<svg width="449pt" height="86pt"
 viewBox="0.00 0.00 449.00 86.00" xmlns="http://www.w3.org/2000/svg" xmlns:xlink="http://www.w3.org/1999/xlink">
<g id="graph0" class="graph" transform="scale(1 1) rotate(0) translate(4 82)">
<title>graphic</title>
<polygon fill="#ffffff" stroke="transparent" points="-4,4 -4,-82 445,-82 445,4 -4,4"/>
<!-- scr:ConveyanceCategoryCode -->
<g id="node1" class="node">
<title>scr:ConveyanceCategoryCode</title>
<text text-anchor="start" x="6.5" y="-9.9" font-family="Helvetica,sans-Serif" font-weight="bold" font-size="12.00" fill="#000000">scr:ConveyanceCategoryCode</text>
<polygon fill="none" stroke="#ff0000" stroke-width="5" points="2.5,-2.5 2.5,-22.5 184.5,-22.5 184.5,-2.5 2.5,-2.5"/>
</g>
<!-- scr:ConveyanceCategoryCodeType -->
<g id="node3" class="node">
<title>scr:ConveyanceCategoryCodeType</title>
<g id="a_node3_0"><a xlink:href="../../scr/ConveyanceCategoryCodeType/#diagram" xlink:title="A data type for a kind of conveyance." target="_top">
<text text-anchor="start" x="248.5" y="-8.9" font-family="Helvetica,sans-Serif" font-size="12.00" fill="#000000">scr:ConveyanceCategoryCodeType</text>
</a>
</g>
<polygon fill="none" stroke="#000000" points="246,-4 246,-21 441,-21 441,-4 246,-4"/>
</g>
<!-- scr:ConveyanceCategoryCode&#45;&gt;scr:ConveyanceCategoryCodeType -->
<g id="edge2" class="edge">
<title>scr:ConveyanceCategoryCode&#45;&gt;scr:ConveyanceCategoryCodeType</title>
<path fill="none" stroke="#000000" d="M187.302,-12.5C202.9865,-12.5 219.3711,-12.5 235.3795,-12.5"/>
<polygon fill="#000000" stroke="#000000" points="235.8338,-16.0001 245.8338,-12.5 235.8337,-9.0001 235.8338,-16.0001"/>
<text text-anchor="middle" x="216.5" y="-15.9" font-family="Helvetica,sans-Serif" font-size="12.00" fill="#000000">type</text>
</g>
<!-- SubstitutionGroup -->
<g id="node2" class="node">
<title>SubstitutionGroup</title>
<g id="a_node2_1"><a xlink:href="../../nc/ConveyanceCategoryAbstract/#diagram" xlink:title="A data concept for a kind of conveyance." target="_top">
<text text-anchor="start" x="5.5" y="-65.9" font-family="Helvetica,sans-Serif" font-size="12.00" fill="#000000">nc:ConveyanceCategoryAbstract</text>
</a>
</g>
<polygon fill="none" stroke="#000000" points="3.5,-61 3.5,-78 183.5,-78 183.5,-61 3.5,-61"/>
</g>
<!-- SubstitutionGroup&#45;&gt;scr:ConveyanceCategoryCode -->
<g id="edge1" class="edge">
<title>SubstitutionGroup&#45;&gt;scr:ConveyanceCategoryCode</title>
<path fill="none" stroke="#000000" d="M93.5,-50.9163C93.5,-42.4809 93.5,-32.7214 93.5,-25.1501"/>
<polygon fill="#000000" stroke="#000000" points="90.0001,-50.9472 93.5,-60.9473 97.0001,-50.9473 90.0001,-50.9472"/>
<text text-anchor="middle" x="84" y="-39.9" font-family="Helvetica,sans-Serif" font-size="12.00" fill="#000000">substitution group</text>
</g>
</g>
</svg>
