<?xml version="1.0" encoding="UTF-8" standalone="no"?>
<!DOCTYPE svg PUBLIC "-//W3C//DTD SVG 1.1//EN"
 "http://www.w3.org/Graphics/SVG/1.1/DTD/svg11.dtd">
<!-- Generated by graphviz version 2.40.1 (20161225.0304)
 -->
<!-- Title: graphic Pages: 1 -->
<svg width="427pt" height="45pt"
 viewBox="0.00 0.00 427.00 45.00" xmlns="http://www.w3.org/2000/svg" xmlns:xlink="http://www.w3.org/1999/xlink">
<g id="graph0" class="graph" transform="scale(1 1) rotate(0) translate(4 41)">
<title>graphic</title>
<polygon fill="#ffffff" stroke="transparent" points="-4,4 -4,-41 423,-41 423,4 -4,4"/>
<!-- j:WarrantAppearanceBail -->
<g id="node1" class="node">
<title>j:WarrantAppearanceBail</title>
<text text-anchor="start" x="153" y="-21.4" font-family="Helvetica,sans-Serif" font-weight="bold" font-size="12.00" fill="#000000">j:WarrantAppearanceBail</text>
<polygon fill="none" stroke="#ff0000" stroke-width="5" points="149.5,-14 149.5,-34 300.5,-34 300.5,-14 149.5,-14"/>
</g>
<!-- j:BailType -->
<g id="node3" class="node">
<title>j:BailType</title>
<g id="a_node3_0"><a xlink:href="../../j/BailType/#diagram" xlink:title="A data type for details of a commitment made to secure the release of a subject being held in custody and suspected of a crime." target="_top">
<text text-anchor="start" x="364.5" y="-20.4" font-family="Helvetica,sans-Serif" font-size="12.00" fill="#000000">j:BailType</text>
</a>
</g>
<polygon fill="none" stroke="#000000" points="362,-15.5 362,-32.5 419,-32.5 419,-15.5 362,-15.5"/>
</g>
<!-- j:WarrantAppearanceBail&#45;&gt;j:BailType -->
<g id="edge2" class="edge">
<title>j:WarrantAppearanceBail&#45;&gt;j:BailType</title>
<path fill="none" stroke="#000000" d="M303.388,-24C320.1956,-24 337.2437,-24 351.7487,-24"/>
<polygon fill="#000000" stroke="#000000" points="351.8213,-27.5001 361.8212,-24 351.8212,-20.5001 351.8213,-27.5001"/>
<text text-anchor="middle" x="332.5" y="-27.4" font-family="Helvetica,sans-Serif" font-size="12.00" fill="#000000">type</text>
</g>
<!-- Types -->
<g id="node2" class="node">
<title>Types</title>
<text text-anchor="start" x="2" y="-21.4" font-family="Helvetica,sans-Serif" font-weight="bold" font-size="12.00" fill="#000000">Types</text>
<g id="a_node2_1"><a xlink:href="../../j/WarrantType/#diagram" xlink:title="A data type for an authorization for an enforcement official to perform a specified action." target="_top">
<polygon fill="#ebebeb" stroke="transparent" points="1,-1 1,-16 79,-16 79,-1 1,-1"/>
<text text-anchor="start" x="2" y="-5.4" font-family="Helvetica,sans-Serif" font-size="12.00" fill="#000000">j:WarrantType</text>
</a>
</g>
<polygon fill="#000000" stroke="#000000" points="0,-16 0,-16 80,-16 80,-16 0,-16"/>
<polygon fill="none" stroke="#000000" points="0,0 0,-32 80,-32 80,0 0,0"/>
</g>
<!-- Types&#45;&gt;j:WarrantAppearanceBail -->
<g id="edge1" class="edge">
<title>Types:top&#45;&gt;j:WarrantAppearanceBail</title>
<path fill="none" stroke="#000000" d="M79,-24C97.6926,-24 117.7314,-24 136.7895,-24"/>
<polygon fill="#000000" stroke="#000000" points="136.9567,-27.5001 146.9566,-24 136.9566,-20.5001 136.9567,-27.5001"/>
<text text-anchor="middle" x="113.5" y="-27.4" font-family="Helvetica,sans-Serif" font-size="12.00" fill="#000000">has&#45;a</text>
</g>
</g>
</svg>
