<?xml version="1.0" encoding="UTF-8" standalone="no"?>
<!DOCTYPE svg PUBLIC "-//W3C//DTD SVG 1.1//EN"
 "http://www.w3.org/Graphics/SVG/1.1/DTD/svg11.dtd">
<!-- Generated by graphviz version 2.40.1 (20161225.0304)
 -->
<!-- Title: graphic Pages: 1 -->
<svg width="462pt" height="101pt"
 viewBox="0.00 0.00 462.00 101.00" xmlns="http://www.w3.org/2000/svg" xmlns:xlink="http://www.w3.org/1999/xlink">
<g id="graph0" class="graph" transform="scale(1 1) rotate(0) translate(4 97)">
<title>graphic</title>
<polygon fill="#ffffff" stroke="transparent" points="-4,4 -4,-97 458,-97 458,4 -4,4"/>
<!-- nc:ActivityRelationAbstract -->
<g id="node1" class="node">
<title>nc:ActivityRelationAbstract</title>
<text text-anchor="start" x="275.5" y="-77.4" font-family="Helvetica,sans-Serif" font-weight="bold" font-size="12.00" fill="#000000">nc:ActivityRelationAbstract</text>
<polygon fill="none" stroke="#ff0000" stroke-width="5" points="272,-70 272,-90 437,-90 437,-70 272,-70"/>
</g>
<!-- SubstitutableElements -->
<g id="node3" class="node">
<title>SubstitutableElements</title>
<text text-anchor="start" x="257.5" y="-21.4" font-family="Helvetica,sans-Serif" font-weight="bold" font-size="12.00" fill="#000000">Substitutable elements</text>
<g id="a_node3_0"><a xlink:href="../../nc/ActivityRelationText/#diagram" xlink:title="A relationship between activities." target="_top">
<polygon fill="#ebebeb" stroke="transparent" points="256.5,-1 256.5,-16 453.5,-16 453.5,-1 256.5,-1"/>
<text text-anchor="start" x="257.5" y="-5.4" font-family="Helvetica,sans-Serif" font-size="12.00" fill="#000000">nc:ActivityRelationText: nc:TextType</text>
</a>
</g>
<polygon fill="#000000" stroke="#000000" points="255.5,-16 255.5,-16 454.5,-16 454.5,-16 255.5,-16"/>
<polygon fill="none" stroke="#000000" points="255,0 255,-32 454,-32 454,0 255,0"/>
</g>
<!-- nc:ActivityRelationAbstract&#45;&gt;SubstitutableElements -->
<g id="edge2" class="edge">
<title>nc:ActivityRelationAbstract&#45;&gt;SubstitutableElements</title>
<path fill="none" stroke="#000000" d="M354.5,-57.3063C354.5,-48.9972 354.5,-39.7712 354.5,-32.1499"/>
<polygon fill="#000000" stroke="#000000" points="351.0001,-57.4892 354.5,-67.4892 358.0001,-57.4892 351.0001,-57.4892"/>
<text text-anchor="middle" x="345" y="-46.65" font-family="Helvetica,sans-Serif" font-size="12.00" fill="#000000">substitutable for</text>
</g>
<!-- Types -->
<g id="node2" class="node">
<title>Types</title>
<text text-anchor="start" x="2" y="-77.4" font-family="Helvetica,sans-Serif" font-weight="bold" font-size="12.00" fill="#000000">Types</text>
<g id="a_node2_1"><a xlink:href="../../nc/RelatedActivityAssociationType/#diagram" xlink:title="A data type for an association between related activities." target="_top">
<polygon fill="#ebebeb" stroke="transparent" points="1,-57 1,-72 187,-72 187,-57 1,-57"/>
<text text-anchor="start" x="2" y="-61.4" font-family="Helvetica,sans-Serif" font-size="12.00" fill="#000000">nc:RelatedActivityAssociationType</text>
</a>
</g>
<polygon fill="#000000" stroke="#000000" points="0,-72 0,-72 188,-72 188,-72 0,-72"/>
<polygon fill="none" stroke="#000000" points="0,-56 0,-88 188,-88 188,-56 0,-56"/>
</g>
<!-- Types&#45;&gt;nc:ActivityRelationAbstract -->
<g id="edge1" class="edge">
<title>Types:top&#45;&gt;nc:ActivityRelationAbstract</title>
<path fill="none" stroke="#000000" d="M187,-80C210.4093,-80 235.6589,-80 259.2766,-80"/>
<polygon fill="#000000" stroke="#000000" points="259.2885,-83.5001 269.2885,-80 259.2884,-76.5001 259.2885,-83.5001"/>
<text text-anchor="middle" x="221.5" y="-83.4" font-family="Helvetica,sans-Serif" font-size="12.00" fill="#000000">has&#45;a</text>
</g>
</g>
</svg>
