<?xml version="1.0" encoding="UTF-8" standalone="no"?>
<!DOCTYPE svg PUBLIC "-//W3C//DTD SVG 1.1//EN"
 "http://www.w3.org/Graphics/SVG/1.1/DTD/svg11.dtd">
<!-- Generated by graphviz version 2.40.1 (20161225.0304)
 -->
<!-- Title: graphic Pages: 1 -->
<svg width="573pt" height="45pt"
 viewBox="0.00 0.00 573.00 45.00" xmlns="http://www.w3.org/2000/svg" xmlns:xlink="http://www.w3.org/1999/xlink">
<g id="graph0" class="graph" transform="scale(1 1) rotate(0) translate(4 41)">
<title>graphic</title>
<polygon fill="#ffffff" stroke="transparent" points="-4,4 -4,-41 569,-41 569,4 -4,4"/>
<!-- em:DeploymentDescriptionText -->
<g id="node1" class="node">
<title>em:DeploymentDescriptionText</title>
<text text-anchor="start" x="248.5" y="-21.4" font-family="Helvetica,sans-Serif" font-weight="bold" font-size="12.00" fill="#000000">em:DeploymentDescriptionText</text>
<polygon fill="none" stroke="#ff0000" stroke-width="5" points="244.5,-14 244.5,-34 432.5,-34 432.5,-14 244.5,-14"/>
</g>
<!-- nc:TextType -->
<g id="node3" class="node">
<title>nc:TextType</title>
<g id="a_node3_0"><a xlink:href="../../nc/TextType/#diagram" xlink:title="A data type for a character string." target="_top">
<text text-anchor="start" x="496.5" y="-20.4" font-family="Helvetica,sans-Serif" font-size="12.00" fill="#000000">nc:TextType</text>
</a>
</g>
<polygon fill="none" stroke="#000000" points="494,-15.5 494,-32.5 565,-32.5 565,-15.5 494,-15.5"/>
</g>
<!-- em:DeploymentDescriptionText&#45;&gt;nc:TextType -->
<g id="edge2" class="edge">
<title>em:DeploymentDescriptionText&#45;&gt;nc:TextType</title>
<path fill="none" stroke="#000000" d="M435.1191,-24C451.9461,-24 468.7268,-24 483.3711,-24"/>
<polygon fill="#000000" stroke="#000000" points="483.627,-27.5001 493.6269,-24 483.6269,-20.5001 483.627,-27.5001"/>
<text text-anchor="middle" x="464.5" y="-27.4" font-family="Helvetica,sans-Serif" font-size="12.00" fill="#000000">type</text>
</g>
<!-- Types -->
<g id="node2" class="node">
<title>Types</title>
<text text-anchor="start" x="2.5" y="-21.4" font-family="Helvetica,sans-Serif" font-weight="bold" font-size="12.00" fill="#000000">Types</text>
<g id="a_node2_1"><a xlink:href="../../em/DeploymentInformationType/#diagram" xlink:title="A data type for information about a deployment of a resource" target="_top">
<polygon fill="#ebebeb" stroke="transparent" points="1.5,-1 1.5,-16 174.5,-16 174.5,-1 1.5,-1"/>
<text text-anchor="start" x="2.5" y="-5.4" font-family="Helvetica,sans-Serif" font-size="12.00" fill="#000000">em:DeploymentInformationType</text>
</a>
</g>
<polygon fill="#000000" stroke="#000000" points=".5,-16 .5,-16 175.5,-16 175.5,-16 .5,-16"/>
<polygon fill="none" stroke="#000000" points="0,0 0,-32 175,-32 175,0 0,0"/>
</g>
<!-- Types&#45;&gt;em:DeploymentDescriptionText -->
<g id="edge1" class="edge">
<title>Types:top&#45;&gt;em:DeploymentDescriptionText</title>
<path fill="none" stroke="#000000" d="M174.5,-24C192.963,-24 212.5952,-24 231.6196,-24"/>
<polygon fill="#000000" stroke="#000000" points="231.8079,-27.5001 241.8078,-24 231.8078,-20.5001 231.8079,-27.5001"/>
<text text-anchor="middle" x="208.5" y="-27.4" font-family="Helvetica,sans-Serif" font-size="12.00" fill="#000000">has&#45;a</text>
</g>
</g>
</svg>
