<?xml version="1.0" encoding="UTF-8" standalone="no"?>
<!DOCTYPE svg PUBLIC "-//W3C//DTD SVG 1.1//EN"
 "http://www.w3.org/Graphics/SVG/1.1/DTD/svg11.dtd">
<!-- Generated by graphviz version 2.40.1 (20161225.0304)
 -->
<!-- Title: graphic Pages: 1 -->
<svg width="475pt" height="199pt"
 viewBox="0.00 0.00 475.00 199.00" xmlns="http://www.w3.org/2000/svg" xmlns:xlink="http://www.w3.org/1999/xlink">
<g id="graph0" class="graph" transform="scale(1 1) rotate(0) translate(4 195)">
<title>graphic</title>
<polygon fill="#ffffff" stroke="transparent" points="-4,4 -4,-195 471,-195 471,4 -4,4"/>
<!-- mo:ZoneSettingDataType -->
<g id="node1" class="node">
<title>mo:ZoneSettingDataType</title>
<text text-anchor="start" x="180.5" y="-69.9" font-family="Helvetica,sans-Serif" font-weight="bold" font-size="12.00" fill="#000000">mo:ZoneSettingDataType</text>
<g id="a_node1_0"><a xlink:href="../../nc/AreaPolygonRegion/#diagram" xlink:title="A polygon area identified by a set of coordinates." target="_top">
<polygon fill="#ebebeb" stroke="transparent" points="179.5,-49.5 179.5,-64.5 462.5,-64.5 462.5,-49.5 179.5,-49.5"/>
<text text-anchor="start" x="180.5" y="-53.9" font-family="Helvetica,sans-Serif" font-size="12.00" fill="#000000">nc:AreaPolygonRegion: nc:PolygonRegionType [0&#45;n]</text>
</a>
</g>
<g id="a_node1_1"><a xlink:href="../../mo/ScanSector/#diagram" xlink:title="A sector scanned by a device; defined by a radial sweep from the device location." target="_top">
<text text-anchor="start" x="180.5" y="-38.9" font-family="Helvetica,sans-Serif" font-size="12.00" fill="#000000">mo:ScanSector: mo:ScanSectorType [0&#45;n]</text>
</a>
</g>
<g id="a_node1_2"><a xlink:href="../../mo/Tripwire/#diagram" xlink:title="A unique line of detection, comprised of two or more location points, that intruders cannot cross." target="_top">
<polygon fill="#ebebeb" stroke="transparent" points="179.5,-19.5 179.5,-34.5 462.5,-34.5 462.5,-19.5 179.5,-19.5"/>
<text text-anchor="start" x="180.5" y="-23.9" font-family="Helvetica,sans-Serif" font-size="12.00" fill="#000000">mo:Tripwire: mo:TripwireType [0&#45;n]</text>
</a>
</g>
<g id="a_node1_3"><a xlink:href="../../mo/ZoneSettingDataAugmentationPoint/#diagram" xlink:title="An augmentation point for type mo:ZoneSettingDataType" target="_top">
<text text-anchor="start" x="180.5" y="-8.9" font-family="Helvetica,sans-Serif" font-size="12.00" fill="#000000">mo:ZoneSettingDataAugmentationPoint [0&#45;n]</text>
</a>
</g>
<polygon fill="#ff0000" stroke="#ff0000" points="174.5,-64.5 174.5,-64.5 467.5,-64.5 467.5,-64.5 174.5,-64.5"/>
<polygon fill="none" stroke="#ff0000" stroke-width="5" points="176.5,-2.5 176.5,-82.5 464.5,-82.5 464.5,-2.5 176.5,-2.5"/>
</g>
<!-- Properties -->
<g id="node2" class="node">
<title>Properties</title>
<text text-anchor="start" x="2.5" y="-69.9" font-family="Helvetica,sans-Serif" font-weight="bold" font-size="12.00" fill="#000000">Properties</text>
<g id="a_node2_4"><a xlink:href="../../mo/ZoneSettingData/#diagram" xlink:title="A setting that specifies zone information." target="_top">
<polygon fill="#ebebeb" stroke="transparent" points="1.5,-49.5 1.5,-64.5 114.5,-64.5 114.5,-49.5 1.5,-49.5"/>
<text text-anchor="start" x="2.5" y="-53.9" font-family="Helvetica,sans-Serif" font-size="12.00" fill="#000000">mo:ZoneSettingData</text>
</a>
</g>
<polygon fill="#000000" stroke="#000000" points=".5,-64.5 .5,-64.5 115.5,-64.5 115.5,-64.5 .5,-64.5"/>
<polygon fill="none" stroke="#000000" points="0,-48.5 0,-80.5 115,-80.5 115,-48.5 0,-48.5"/>
</g>
<!-- Properties&#45;&gt;mo:ZoneSettingDataType -->
<g id="edge1" class="edge">
<title>Properties:top&#45;&gt;mo:ZoneSettingDataType:top</title>
<path fill="none" stroke="#000000" d="M114.5,-72.5C139.6649,-72.5 148.3891,-72.5 169.3154,-72.5"/>
<polygon fill="#000000" stroke="#000000" points="169.5,-76.0001 179.5,-72.5 169.5,-69.0001 169.5,-76.0001"/>
<text text-anchor="middle" x="144.5" y="-75.9" font-family="Helvetica,sans-Serif" font-size="12.00" fill="#000000">type</text>
</g>
<!-- mo:SettingDataType -->
<g id="node3" class="node">
<title>mo:SettingDataType</title>
<g id="a_node3_5"><a xlink:href="../../mo/SettingDataType/#diagram" xlink:title="A data type for a value or set of data for a setting." target="_top">
<text text-anchor="start" x="265.5" y="-125.9" font-family="Helvetica,sans-Serif" font-size="12.00" fill="#000000">mo:SettingDataType</text>
</a>
</g>
<polygon fill="none" stroke="#000000" points="263.5,-121 263.5,-138 377.5,-138 377.5,-121 263.5,-121"/>
</g>
<!-- mo:SettingDataType&#45;&gt;mo:ZoneSettingDataType -->
<g id="edge2" class="edge">
<title>mo:SettingDataType&#45;&gt;mo:ZoneSettingDataType</title>
<path fill="none" stroke="#000000" d="M320.5,-120.9761C320.5,-114.614 320.5,-105.3292 320.5,-95.3557"/>
<polygon fill="#000000" stroke="#000000" points="324.0001,-95.2354 320.5,-85.2354 317.0001,-95.2354 324.0001,-95.2354"/>
<text text-anchor="middle" x="311" y="-99.9" font-family="Helvetica,sans-Serif" font-size="12.00" fill="#000000">extension</text>
</g>
<!-- structures:ObjectType -->
<g id="node4" class="node">
<title>structures:ObjectType</title>
<g id="a_node4_6"><a xlink:href="../../structures/ObjectType/#diagram" xlink:title="A data type for a thing with its own lifespan that has some existence." target="_top">
<text text-anchor="start" x="261.5" y="-178.9" font-family="Helvetica,sans-Serif" font-size="12.00" fill="#000000">structures:ObjectType</text>
</a>
</g>
<polygon fill="none" stroke="#000000" points="259.5,-174 259.5,-191 381.5,-191 381.5,-174 259.5,-174"/>
</g>
<!-- structures:ObjectType&#45;&gt;mo:SettingDataType -->
<g id="edge3" class="edge">
<title>structures:ObjectType&#45;&gt;mo:SettingDataType</title>
<path fill="none" stroke="#000000" d="M320.5,-173.911C320.5,-167.0124 320.5,-157.0696 320.5,-148.34"/>
<polygon fill="#000000" stroke="#000000" points="324.0001,-148.2518 320.5,-138.2519 317.0001,-148.2519 324.0001,-148.2518"/>
<text text-anchor="middle" x="311" y="-152.9" font-family="Helvetica,sans-Serif" font-size="12.00" fill="#000000">extension</text>
</g>
</g>
</svg>
