<?xml version="1.0" encoding="UTF-8" standalone="no"?>
<!DOCTYPE svg PUBLIC "-//W3C//DTD SVG 1.1//EN"
 "http://www.w3.org/Graphics/SVG/1.1/DTD/svg11.dtd">
<!-- Generated by graphviz version 2.40.1 (20161225.0304)
 -->
<!-- Title: graphic Pages: 1 -->
<svg width="644pt" height="199pt"
 viewBox="0.00 0.00 644.00 199.00" xmlns="http://www.w3.org/2000/svg" xmlns:xlink="http://www.w3.org/1999/xlink">
<g id="graph0" class="graph" transform="scale(1 1) rotate(0) translate(4 195)">
<title>graphic</title>
<polygon fill="#ffffff" stroke="transparent" points="-4,4 -4,-195 640,-195 640,4 -4,4"/>
<!-- scr:IncidentPersonEncounterAssociationType -->
<g id="node1" class="node">
<title>scr:IncidentPersonEncounterAssociationType</title>
<text text-anchor="start" x="285.5" y="-69.9" font-family="Helvetica,sans-Serif" font-weight="bold" font-size="12.00" fill="#000000">scr:IncidentPersonEncounterAssociationType</text>
<g id="a_node1_0"><a xlink:href="../../nc/Incident/#diagram" xlink:title="An occurrence or an event that may require a response." target="_top">
<polygon fill="#ebebeb" stroke="transparent" points="284.5,-49.5 284.5,-64.5 631.5,-64.5 631.5,-49.5 284.5,-49.5"/>
<text text-anchor="start" x="285.5" y="-53.9" font-family="Helvetica,sans-Serif" font-size="12.00" fill="#000000">nc:Incident: nc:IncidentType [0&#45;n]</text>
</a>
</g>
<g id="a_node1_1"><a xlink:href="../../nc/Person/#diagram" xlink:title="A human being." target="_top">
<text text-anchor="start" x="285.5" y="-38.9" font-family="Helvetica,sans-Serif" font-size="12.00" fill="#000000">nc:Person: nc:PersonType [0&#45;n]</text>
</a>
</g>
<g id="a_node1_2"><a xlink:href="../../nc/PersonEncounter/#diagram" xlink:title="An interface between a person of interest and a representative of the government." target="_top">
<polygon fill="#ebebeb" stroke="transparent" points="284.5,-19.5 284.5,-34.5 631.5,-34.5 631.5,-19.5 284.5,-19.5"/>
<text text-anchor="start" x="285.5" y="-23.9" font-family="Helvetica,sans-Serif" font-size="12.00" fill="#000000">nc:PersonEncounter: nc:PersonEncounterType [0&#45;n]</text>
</a>
</g>
<g id="a_node1_3"><a xlink:href="../../scr/IncidentPersonEncounterAssociationAugmentationPoint/#diagram" xlink:title="An augmentation point for IncidentPersonEncounterAssociationType." target="_top">
<text text-anchor="start" x="285.5" y="-8.9" font-family="Helvetica,sans-Serif" font-size="12.00" fill="#000000">scr:IncidentPersonEncounterAssociationAugmentationPoint [0&#45;n]</text>
</a>
</g>
<polygon fill="#ff0000" stroke="#ff0000" points="279.5,-64.5 279.5,-64.5 636.5,-64.5 636.5,-64.5 279.5,-64.5"/>
<polygon fill="none" stroke="#ff0000" stroke-width="5" points="281.5,-2.5 281.5,-82.5 633.5,-82.5 633.5,-2.5 281.5,-2.5"/>
</g>
<!-- Properties -->
<g id="node2" class="node">
<title>Properties</title>
<text text-anchor="start" x="2" y="-69.9" font-family="Helvetica,sans-Serif" font-weight="bold" font-size="12.00" fill="#000000">Properties</text>
<g id="a_node2_4"><a xlink:href="../../scr/IncidentPersonEncounterAssociation/#diagram" xlink:title="An association between INCIDENT and PERSON ENCOUNTER REL" target="_top">
<polygon fill="#ebebeb" stroke="transparent" points="1,-49.5 1,-64.5 219,-64.5 219,-49.5 1,-49.5"/>
<text text-anchor="start" x="2" y="-53.9" font-family="Helvetica,sans-Serif" font-size="12.00" fill="#000000">scr:IncidentPersonEncounterAssociation</text>
</a>
</g>
<polygon fill="#000000" stroke="#000000" points="0,-64.5 0,-64.5 220,-64.5 220,-64.5 0,-64.5"/>
<polygon fill="none" stroke="#000000" points="0,-48.5 0,-80.5 220,-80.5 220,-48.5 0,-48.5"/>
</g>
<!-- Properties&#45;&gt;scr:IncidentPersonEncounterAssociationType -->
<g id="edge1" class="edge">
<title>Properties:top&#45;&gt;scr:IncidentPersonEncounterAssociationType:top</title>
<path fill="none" stroke="#000000" d="M219,-72.5C244.3585,-72.5 253.1498,-72.5 274.2371,-72.5"/>
<polygon fill="#000000" stroke="#000000" points="274.5,-76.0001 284.5,-72.5 274.5,-69.0001 274.5,-76.0001"/>
<text text-anchor="middle" x="249.5" y="-75.9" font-family="Helvetica,sans-Serif" font-size="12.00" fill="#000000">type</text>
</g>
<!-- nc:AssociationType -->
<g id="node3" class="node">
<title>nc:AssociationType</title>
<g id="a_node3_5"><a xlink:href="../../nc/AssociationType/#diagram" xlink:title="A data type for an association, connection, relationship, or involvement somehow linking people, things, and/or activities together." target="_top">
<text text-anchor="start" x="405.5" y="-125.9" font-family="Helvetica,sans-Serif" font-size="12.00" fill="#000000">nc:AssociationType</text>
</a>
</g>
<polygon fill="none" stroke="#000000" points="403,-121 403,-138 512,-138 512,-121 403,-121"/>
</g>
<!-- nc:AssociationType&#45;&gt;scr:IncidentPersonEncounterAssociationType -->
<g id="edge2" class="edge">
<title>nc:AssociationType&#45;&gt;scr:IncidentPersonEncounterAssociationType</title>
<path fill="none" stroke="#000000" d="M457.5,-120.9761C457.5,-114.614 457.5,-105.3292 457.5,-95.3557"/>
<polygon fill="#000000" stroke="#000000" points="461.0001,-95.2354 457.5,-85.2354 454.0001,-95.2354 461.0001,-95.2354"/>
<text text-anchor="middle" x="448" y="-99.9" font-family="Helvetica,sans-Serif" font-size="12.00" fill="#000000">extension</text>
</g>
<!-- structures:AssociationType -->
<g id="node4" class="node">
<title>structures:AssociationType</title>
<g id="a_node4_6"><a xlink:href="../../structures/AssociationType/#diagram" xlink:title="A data type for a relationship between two or more objects, including any properties of that relationship." target="_top">
<text text-anchor="start" x="385.5" y="-178.9" font-family="Helvetica,sans-Serif" font-size="12.00" fill="#000000">structures:AssociationType</text>
</a>
</g>
<polygon fill="none" stroke="#000000" points="383,-174 383,-191 532,-191 532,-174 383,-174"/>
</g>
<!-- structures:AssociationType&#45;&gt;nc:AssociationType -->
<g id="edge3" class="edge">
<title>structures:AssociationType&#45;&gt;nc:AssociationType</title>
<path fill="none" stroke="#000000" d="M457.5,-173.911C457.5,-167.0124 457.5,-157.0696 457.5,-148.34"/>
<polygon fill="#000000" stroke="#000000" points="461.0001,-148.2518 457.5,-138.2519 454.0001,-148.2519 461.0001,-148.2518"/>
<text text-anchor="middle" x="448" y="-152.9" font-family="Helvetica,sans-Serif" font-size="12.00" fill="#000000">extension</text>
</g>
</g>
</svg>
