<?xml version="1.0" encoding="UTF-8" standalone="no"?>
<!DOCTYPE svg PUBLIC "-//W3C//DTD SVG 1.1//EN"
 "http://www.w3.org/Graphics/SVG/1.1/DTD/svg11.dtd">
<!-- Generated by graphviz version 2.40.1 (20161225.0304)
 -->
<!-- Title: graphic Pages: 1 -->
<svg width="652pt" height="154pt"
 viewBox="0.00 0.00 652.00 153.50" xmlns="http://www.w3.org/2000/svg" xmlns:xlink="http://www.w3.org/1999/xlink">
<g id="graph0" class="graph" transform="scale(1 1) rotate(0) translate(4 149.5)">
<title>graphic</title>
<polygon fill="#ffffff" stroke="transparent" points="-4,4 -4,-149.5 648,-149.5 648,4 -4,4"/>
<!-- st:RoadwayCategoryEndingRampTerminalCodeType -->
<g id="node1" class="node">
<title>st:RoadwayCategoryEndingRampTerminalCodeType</title>
<text text-anchor="start" x="331" y="-25.4" font-family="Helvetica,sans-Serif" font-weight="bold" font-size="12.00" fill="#000000">st:RoadwayCategoryEndingRampTerminalCodeType</text>
<g id="a_node1_0"><a xlink:href="../../structures/SimpleObjectAttributeGroup/#diagram" xlink:title="A group of attributes that are applicable to objects, to be used when defining a complex type that is an extension of a simple type." target="_top">
<polygon fill="#ebebeb" stroke="transparent" points="330,-5 330,-20 634,-20 634,-5 330,-5"/>
<text text-anchor="start" x="331" y="-9.4" font-family="Helvetica,sans-Serif" font-size="12.00" fill="#000000">structures:SimpleObjectAttributeGroup</text>
</a>
</g>
<polygon fill="#ff0000" stroke="#ff0000" points="325,-20 325,-20 639,-20 639,-20 325,-20"/>
<polygon fill="none" stroke="#ff0000" stroke-width="5" points="327.5,-2.5 327.5,-37.5 636.5,-37.5 636.5,-2.5 327.5,-2.5"/>
</g>
<!-- Properties -->
<g id="node2" class="node">
<title>Properties</title>
<text text-anchor="start" x="2.5" y="-25.4" font-family="Helvetica,sans-Serif" font-weight="bold" font-size="12.00" fill="#000000">Properties</text>
<g id="a_node2_1"><a xlink:href="../../st/RoadwayCategoryEndingRampTerminalCode/#diagram" xlink:title="A ramp is described by a beginning and ending ramp terminal in the direction of inventory. This element describes the type of roadway intersecting with the ramp at the ending terminal." target="_top">
<polygon fill="#ebebeb" stroke="transparent" points="1.5,-5 1.5,-20 260.5,-20 260.5,-5 1.5,-5"/>
<text text-anchor="start" x="2.5" y="-9.4" font-family="Helvetica,sans-Serif" font-size="12.00" fill="#000000">st:RoadwayCategoryEndingRampTerminalCode</text>
</a>
</g>
<polygon fill="#000000" stroke="#000000" points=".5,-20 .5,-20 261.5,-20 261.5,-20 .5,-20"/>
<polygon fill="none" stroke="#000000" points="0,-4 0,-36 261,-36 261,-4 0,-4"/>
</g>
<!-- Properties&#45;&gt;st:RoadwayCategoryEndingRampTerminalCodeType -->
<g id="edge1" class="edge">
<title>Properties:top&#45;&gt;st:RoadwayCategoryEndingRampTerminalCodeType:top</title>
<path fill="none" stroke="#000000" d="M260.5,-28C287.6484,-28 296.9012,-28 319.7155,-28"/>
<polygon fill="#000000" stroke="#000000" points="320,-31.5001 330,-28 320,-24.5001 320,-31.5001"/>
<text text-anchor="middle" x="290.5" y="-31.4" font-family="Helvetica,sans-Serif" font-size="12.00" fill="#000000">type</text>
</g>
<!-- st:RoadwayCategoryEndingRampTerminalCodeSimpleType -->
<g id="node3" class="node">
<title>st:RoadwayCategoryEndingRampTerminalCodeSimpleType</title>
<g id="a_node3_2"><a xlink:href="../../st/RoadwayCategoryEndingRampTerminalCodeSimpleType/#diagram" xlink:title="A data type describing the type of roadway intersecting with the ramp at the ending terminal. A ramp is described by a beginning and ending ramp terminal in the direction of inventory." target="_top">
<text text-anchor="start" x="322" y="-80.4" font-family="Helvetica,sans-Serif" font-size="12.00" fill="#000000">st:RoadwayCategoryEndingRampTerminalCodeSimpleType</text>
</a>
</g>
<polygon fill="none" stroke="#000000" points="320,-75.5 320,-92.5 644,-92.5 644,-75.5 320,-75.5"/>
</g>
<!-- st:RoadwayCategoryEndingRampTerminalCodeSimpleType&#45;&gt;st:RoadwayCategoryEndingRampTerminalCodeType -->
<g id="edge2" class="edge">
<title>st:RoadwayCategoryEndingRampTerminalCodeSimpleType&#45;&gt;st:RoadwayCategoryEndingRampTerminalCodeType</title>
<path fill="none" stroke="#000000" d="M482,-75.4351C482,-68.931 482,-59.5678 482,-50.3827"/>
<polygon fill="#000000" stroke="#000000" points="485.5001,-50.25 482,-40.25 478.5001,-50.25 485.5001,-50.25"/>
<text text-anchor="middle" x="472.5" y="-54.65" font-family="Helvetica,sans-Serif" font-size="12.00" fill="#000000">extension</text>
</g>
<!-- xs:token -->
<g id="node4" class="node">
<title>xs:token</title>
<g id="a_node4_3"><a xlink:href="../../xs/token/#diagram" xlink:title="&lt;TABLE&gt;" target="_top">
<text text-anchor="start" x="460" y="-133.4" font-family="Helvetica,sans-Serif" font-size="12.00" fill="#000000">xs:token</text>
</a>
</g>
<polygon fill="none" stroke="#000000" points="457.5,-128.5 457.5,-145.5 506.5,-145.5 506.5,-128.5 457.5,-128.5"/>
</g>
<!-- xs:token&#45;&gt;st:RoadwayCategoryEndingRampTerminalCodeSimpleType -->
<g id="edge3" class="edge">
<title>xs:token&#45;&gt;st:RoadwayCategoryEndingRampTerminalCodeSimpleType</title>
<path fill="none" stroke="#000000" d="M482,-128.411C482,-121.5124 482,-111.5696 482,-102.84"/>
<polygon fill="#000000" stroke="#000000" points="485.5001,-102.7518 482,-92.7519 478.5001,-102.7519 485.5001,-102.7518"/>
<text text-anchor="middle" x="472.5" y="-107.4" font-family="Helvetica,sans-Serif" font-size="12.00" fill="#000000">restriction</text>
</g>
</g>
</svg>
