<?xml version="1.0" encoding="UTF-8" standalone="no"?>
<!DOCTYPE svg PUBLIC "-//W3C//DTD SVG 1.1//EN"
 "http://www.w3.org/Graphics/SVG/1.1/DTD/svg11.dtd">
<!-- Generated by graphviz version 2.40.1 (20161225.0304)
 -->
<!-- Title: graphic Pages: 1 -->
<svg width="847pt" height="45pt"
 viewBox="0.00 0.00 847.00 45.00" xmlns="http://www.w3.org/2000/svg" xmlns:xlink="http://www.w3.org/1999/xlink">
<g id="graph0" class="graph" transform="scale(1 1) rotate(0) translate(4 41)">
<title>graphic</title>
<polygon fill="#ffffff" stroke="transparent" points="-4,4 -4,-41 843,-41 843,4 -4,4"/>
<!-- j:DisciplinaryHearingDispositionConfinedToQuartersWeekendsNumeric -->
<g id="node1" class="node">
<title>j:DisciplinaryHearingDispositionConfinedToQuartersWeekendsNumeric</title>
<text text-anchor="start" x="272" y="-21.4" font-family="Helvetica,sans-Serif" font-weight="bold" font-size="12.00" fill="#000000">j:DisciplinaryHearingDispositionConfinedToQuartersWeekendsNumeric</text>
<polygon fill="none" stroke="#ff0000" stroke-width="5" points="268.5,-14 268.5,-34 685.5,-34 685.5,-14 268.5,-14"/>
</g>
<!-- nc:NumericType -->
<g id="node3" class="node">
<title>nc:NumericType</title>
<g id="a_node3_0"><a xlink:href="../../nc/NumericType/#diagram" xlink:title="A data type for a number value." target="_top">
<text text-anchor="start" x="749" y="-20.4" font-family="Helvetica,sans-Serif" font-size="12.00" fill="#000000">nc:NumericType</text>
</a>
</g>
<polygon fill="none" stroke="#000000" points="747,-15.5 747,-32.5 839,-32.5 839,-15.5 747,-15.5"/>
</g>
<!-- j:DisciplinaryHearingDispositionConfinedToQuartersWeekendsNumeric&#45;&gt;nc:NumericType -->
<g id="edge2" class="edge">
<title>j:DisciplinaryHearingDispositionConfinedToQuartersWeekendsNumeric&#45;&gt;nc:NumericType</title>
<path fill="none" stroke="#000000" d="M688.2155,-24C705.6464,-24 722.099,-24 736.5764,-24"/>
<polygon fill="#000000" stroke="#000000" points="736.7549,-27.5001 746.7548,-24 736.7548,-20.5001 736.7549,-27.5001"/>
<text text-anchor="middle" x="717.5" y="-27.4" font-family="Helvetica,sans-Serif" font-size="12.00" fill="#000000">type</text>
</g>
<!-- Types -->
<g id="node2" class="node">
<title>Types</title>
<text text-anchor="start" x="2.5" y="-21.4" font-family="Helvetica,sans-Serif" font-weight="bold" font-size="12.00" fill="#000000">Types</text>
<g id="a_node2_1"><a xlink:href="../../j/DisciplinaryHearingDispositionType/#diagram" xlink:title="A data type for a outcome of a disciplinary hearing." target="_top">
<polygon fill="#ebebeb" stroke="transparent" points="1.5,-1 1.5,-16 198.5,-16 198.5,-1 1.5,-1"/>
<text text-anchor="start" x="2.5" y="-5.4" font-family="Helvetica,sans-Serif" font-size="12.00" fill="#000000">j:DisciplinaryHearingDispositionType</text>
</a>
</g>
<polygon fill="#000000" stroke="#000000" points=".5,-16 .5,-16 199.5,-16 199.5,-16 .5,-16"/>
<polygon fill="none" stroke="#000000" points="0,0 0,-32 199,-32 199,0 0,0"/>
</g>
<!-- Types&#45;&gt;j:DisciplinaryHearingDispositionConfinedToQuartersWeekendsNumeric -->
<g id="edge1" class="edge">
<title>Types:top&#45;&gt;j:DisciplinaryHearingDispositionConfinedToQuartersWeekendsNumeric</title>
<path fill="none" stroke="#000000" d="M198.5,-24C217.0281,-24 236.2496,-24 255.5418,-24"/>
<polygon fill="#000000" stroke="#000000" points="255.6335,-27.5001 265.6335,-24 255.6334,-20.5001 255.6335,-27.5001"/>
<text text-anchor="middle" x="232.5" y="-27.4" font-family="Helvetica,sans-Serif" font-size="12.00" fill="#000000">has&#45;a</text>
</g>
</g>
</svg>
