<?xml version="1.0" encoding="UTF-8" standalone="no"?>
<!DOCTYPE svg PUBLIC "-//W3C//DTD SVG 1.1//EN"
 "http://www.w3.org/Graphics/SVG/1.1/DTD/svg11.dtd">
<!-- Generated by graphviz version 2.40.1 (20161225.0304)
 -->
<!-- Title: graphic Pages: 1 -->
<svg width="349pt" height="86pt"
 viewBox="0.00 0.00 349.00 86.00" xmlns="http://www.w3.org/2000/svg" xmlns:xlink="http://www.w3.org/1999/xlink">
<g id="graph0" class="graph" transform="scale(1 1) rotate(0) translate(4 82)">
<title>graphic</title>
<polygon fill="#ffffff" stroke="transparent" points="-4,4 -4,-82 345,-82 345,4 -4,4"/>
<!-- j:SecuritiesCategoryCode -->
<g id="node1" class="node">
<title>j:SecuritiesCategoryCode</title>
<text text-anchor="start" x="10" y="-9.9" font-family="Helvetica,sans-Serif" font-weight="bold" font-size="12.00" fill="#000000">j:SecuritiesCategoryCode</text>
<polygon fill="none" stroke="#ff0000" stroke-width="5" points="6,-2.5 6,-22.5 160,-22.5 160,-2.5 6,-2.5"/>
</g>
<!-- ncic:TYPSCodeType -->
<g id="node3" class="node">
<title>ncic:TYPSCodeType</title>
<g id="a_node3_0"><a xlink:href="../../ncic/TYPSCodeType/#diagram" xlink:title="A data type for 1 &#45; Securities Type (TYP) Field Codes for Currency" target="_top">
<text text-anchor="start" x="227" y="-8.9" font-family="Helvetica,sans-Serif" font-size="12.00" fill="#000000">ncic:TYPSCodeType</text>
</a>
</g>
<polygon fill="none" stroke="#000000" points="225,-4 225,-21 341,-21 341,-4 225,-4"/>
</g>
<!-- j:SecuritiesCategoryCode&#45;&gt;ncic:TYPSCodeType -->
<g id="edge2" class="edge">
<title>j:SecuritiesCategoryCode&#45;&gt;ncic:TYPSCodeType</title>
<path fill="none" stroke="#000000" d="M162.62,-12.5C179.8501,-12.5 197.9231,-12.5 214.674,-12.5"/>
<polygon fill="#000000" stroke="#000000" points="214.9135,-16.0001 224.9135,-12.5 214.9135,-9.0001 214.9135,-16.0001"/>
<text text-anchor="middle" x="195.5" y="-15.9" font-family="Helvetica,sans-Serif" font-size="12.00" fill="#000000">type</text>
</g>
<!-- SubstitutionGroup -->
<g id="node2" class="node">
<title>SubstitutionGroup</title>
<g id="a_node2_1"><a xlink:href="../../nc/SecuritiesCategoryAbstract/#diagram" xlink:title="A data concept for a kind of security." target="_top">
<text text-anchor="start" x="2" y="-65.9" font-family="Helvetica,sans-Serif" font-size="12.00" fill="#000000">nc:SecuritiesCategoryAbstract</text>
</a>
</g>
<polygon fill="none" stroke="#000000" points="0,-61 0,-78 166,-78 166,-61 0,-61"/>
</g>
<!-- SubstitutionGroup&#45;&gt;j:SecuritiesCategoryCode -->
<g id="edge1" class="edge">
<title>SubstitutionGroup&#45;&gt;j:SecuritiesCategoryCode</title>
<path fill="none" stroke="#000000" d="M83,-50.9163C83,-42.4809 83,-32.7214 83,-25.1501"/>
<polygon fill="#000000" stroke="#000000" points="79.5001,-50.9472 83,-60.9473 86.5001,-50.9473 79.5001,-50.9472"/>
<text text-anchor="middle" x="73.5" y="-39.9" font-family="Helvetica,sans-Serif" font-size="12.00" fill="#000000">substitution group</text>
</g>
</g>
</svg>
