<?xml version="1.0" encoding="UTF-8" standalone="no"?>
<!DOCTYPE svg PUBLIC "-//W3C//DTD SVG 1.1//EN"
 "http://www.w3.org/Graphics/SVG/1.1/DTD/svg11.dtd">
<!-- Generated by graphviz version 2.40.1 (20161225.0304)
 -->
<!-- Title: graphic Pages: 1 -->
<svg width="766pt" height="274pt"
 viewBox="0.00 0.00 766.00 273.50" xmlns="http://www.w3.org/2000/svg" xmlns:xlink="http://www.w3.org/1999/xlink">
<g id="graph0" class="graph" transform="scale(1 1) rotate(0) translate(4 269.5)">
<title>graphic</title>
<polygon fill="#ffffff" stroke="transparent" points="-4,4 -4,-269.5 762,-269.5 762,4 -4,4"/>
<!-- biom:GeographicSampleAcquisitionLocationType -->
<g id="node1" class="node">
<title>biom:GeographicSampleAcquisitionLocationType</title>
<text text-anchor="start" x="305.5" y="-197.4" font-family="Helvetica,sans-Serif" font-weight="bold" font-size="12.00" fill="#000000">biom:GeographicSampleAcquisitionLocationType</text>
<g id="a_node1_0"><a xlink:href="../../biom/CaptureUTCDateTime/#diagram" xlink:title="A UTC date and time for the capture of a biometric sample" target="_top">
<polygon fill="#ebebeb" stroke="transparent" points="304.5,-177 304.5,-192 753.5,-192 753.5,-177 304.5,-177"/>
<text text-anchor="start" x="305.5" y="-181.4" font-family="Helvetica,sans-Serif" font-size="12.00" fill="#000000">biom:CaptureUTCDateTime: niem&#45;xs:dateTime [0&#45;n]</text>
</a>
</g>
<g id="a_node1_1"><a xlink:href="../../nc/Location3DGeospatialCoordinate/#diagram" xlink:title="A location identified by latitude, longitude, and height." target="_top">
<text text-anchor="start" x="305.5" y="-166.4" font-family="Helvetica,sans-Serif" font-size="12.00" fill="#000000">nc:Location3DGeospatialCoordinate: nc:Location3DGeospatialCoordinateType [0&#45;n]</text>
</a>
</g>
<g id="a_node1_2"><a xlink:href="../../nc/LocationUTMCoordinateValue/#diagram" xlink:title="A coordinate from the Universal Transverse Mercator (UTM) Coordinate System, which represents a location with a hemisphere, zone, an easting value, and a northing value." target="_top">
<polygon fill="#ebebeb" stroke="transparent" points="304.5,-147 304.5,-162 753.5,-162 753.5,-147 304.5,-147"/>
<text text-anchor="start" x="305.5" y="-151.4" font-family="Helvetica,sans-Serif" font-size="12.00" fill="#000000">nc:LocationUTMCoordinateValue: nc:UTMCoordinateType [0&#45;n]</text>
</a>
</g>
<g id="a_node1_3"><a xlink:href="../../mo/MGRSCoordinateStringText/#diagram" xlink:title="A complete coordinate string from the Military Grid Reference System (MGRS) which represents a location with a Universal Transverse Mercator (UTM) or Universal Polar Stereographic (UPS) coordinate and a unique military grid square." target="_top">
<text text-anchor="start" x="305.5" y="-136.4" font-family="Helvetica,sans-Serif" font-size="12.00" fill="#000000">mo:MGRSCoordinateStringText: mo:MGRSCoordinateStringType [0&#45;n]</text>
</a>
</g>
<g id="a_node1_4"><a xlink:href="../../biom/GeographicLocationText/#diagram" xlink:title="A geographic location" target="_top">
<polygon fill="#ebebeb" stroke="transparent" points="304.5,-117 304.5,-132 753.5,-132 753.5,-117 304.5,-117"/>
<text text-anchor="start" x="305.5" y="-121.4" font-family="Helvetica,sans-Serif" font-size="12.00" fill="#000000">biom:GeographicLocationText: nc:TextType [0&#45;n]</text>
</a>
</g>
<g id="a_node1_5"><a xlink:href="../../biom/GeographicLocationSystemName/#diagram" xlink:title="A name of a geographic coordinate system" target="_top">
<text text-anchor="start" x="305.5" y="-106.4" font-family="Helvetica,sans-Serif" font-size="12.00" fill="#000000">biom:GeographicLocationSystemName: nc:TextType [0&#45;n]</text>
</a>
</g>
<g id="a_node1_6"><a xlink:href="../../nc/LocationDescriptionText/#diagram" xlink:title="A description of a location." target="_top">
<polygon fill="#ebebeb" stroke="transparent" points="304.5,-87 304.5,-102 753.5,-102 753.5,-87 304.5,-87"/>
<text text-anchor="start" x="305.5" y="-91.4" font-family="Helvetica,sans-Serif" font-size="12.00" fill="#000000">nc:LocationDescriptionText: nc:TextType [0&#45;n]</text>
</a>
</g>
<g id="a_node1_7"><a xlink:href="../../biom/GeographicSampleAcquisitionLocationAugmentationPoint/#diagram" xlink:title="An augmentation point for GeographicSampleAcquisitionLocationType." target="_top">
<text text-anchor="start" x="305.5" y="-76.4" font-family="Helvetica,sans-Serif" font-size="12.00" fill="#000000">biom:GeographicSampleAcquisitionLocationAugmentationPoint [0&#45;n]</text>
</a>
</g>
<polygon fill="#ff0000" stroke="#ff0000" points="299.5,-192 299.5,-192 758.5,-192 758.5,-192 299.5,-192"/>
<polygon fill="none" stroke="#ff0000" stroke-width="5" points="301.5,-70 301.5,-210 755.5,-210 755.5,-70 301.5,-70"/>
</g>
<!-- DerivedTypes -->
<g id="node3" class="node">
<title>DerivedTypes</title>
<text text-anchor="start" x="418.5" y="-21.4" font-family="Helvetica,sans-Serif" font-weight="bold" font-size="12.00" fill="#000000">Derived types</text>
<g id="a_node3_8"><a xlink:href="../../biom/SegmentGeographicalLocationType/#diagram" xlink:title="A data type for a specific geographical location of the primary subject of a recording at the beginning of a recording segment." target="_top">
<polygon fill="#ebebeb" stroke="transparent" points="417.5,-1 417.5,-16 640.5,-16 640.5,-1 417.5,-1"/>
<text text-anchor="start" x="418.5" y="-5.4" font-family="Helvetica,sans-Serif" font-size="12.00" fill="#000000">biom:SegmentGeographicalLocationType</text>
</a>
</g>
<polygon fill="#000000" stroke="#000000" points="416.5,-16 416.5,-16 641.5,-16 641.5,-16 416.5,-16"/>
<polygon fill="none" stroke="#000000" points="416,0 416,-32 641,-32 641,0 416,0"/>
</g>
<!-- biom:GeographicSampleAcquisitionLocationType&#45;&gt;DerivedTypes -->
<g id="edge2" class="edge">
<title>biom:GeographicSampleAcquisitionLocationType&#45;&gt;DerivedTypes</title>
<path fill="none" stroke="#000000" d="M528.5,-67.367C528.5,-58.4872 528.5,-49.9073 528.5,-42.3856"/>
<polygon fill="#000000" stroke="#000000" points="532.0001,-42.2108 528.5,-32.2108 525.0001,-42.2109 532.0001,-42.2108"/>
<text text-anchor="middle" x="519" y="-46.65" font-family="Helvetica,sans-Serif" font-size="12.00" fill="#000000">derived</text>
</g>
<!-- Properties -->
<g id="node2" class="node">
<title>Properties</title>
<text text-anchor="start" x="2" y="-197.4" font-family="Helvetica,sans-Serif" font-weight="bold" font-size="12.00" fill="#000000">Properties</text>
<g id="a_node2_9"><a xlink:href="../../biom/GeographicSampleAcquisitionLocation/#diagram" xlink:title="A geospatial coordinate system for datum values" target="_top">
<polygon fill="#ebebeb" stroke="transparent" points="1,-177 1,-192 239,-192 239,-177 1,-177"/>
<text text-anchor="start" x="2" y="-181.4" font-family="Helvetica,sans-Serif" font-size="12.00" fill="#000000">biom:GeographicSampleAcquisitionLocation</text>
</a>
</g>
<polygon fill="#000000" stroke="#000000" points="0,-192 0,-192 240,-192 240,-192 0,-192"/>
<polygon fill="none" stroke="#000000" points="0,-176 0,-208 240,-208 240,-176 0,-176"/>
</g>
<!-- Properties&#45;&gt;biom:GeographicSampleAcquisitionLocationType -->
<g id="edge1" class="edge">
<title>Properties:top&#45;&gt;biom:GeographicSampleAcquisitionLocationType:top</title>
<path fill="none" stroke="#000000" d="M239,-200C264.3585,-200 273.1498,-200 294.2371,-200"/>
<polygon fill="#000000" stroke="#000000" points="294.5,-203.5001 304.5,-200 294.5,-196.5001 294.5,-203.5001"/>
<text text-anchor="middle" x="269.5" y="-203.4" font-family="Helvetica,sans-Serif" font-size="12.00" fill="#000000">type</text>
</g>
<!-- structures:ObjectType -->
<g id="node4" class="node">
<title>structures:ObjectType</title>
<g id="a_node4_10"><a xlink:href="../../structures/ObjectType/#diagram" xlink:title="A data type for a thing with its own lifespan that has some existence." target="_top">
<text text-anchor="start" x="469.5" y="-253.4" font-family="Helvetica,sans-Serif" font-size="12.00" fill="#000000">structures:ObjectType</text>
</a>
</g>
<polygon fill="none" stroke="#000000" points="467.5,-248.5 467.5,-265.5 589.5,-265.5 589.5,-248.5 467.5,-248.5"/>
</g>
<!-- structures:ObjectType&#45;&gt;biom:GeographicSampleAcquisitionLocationType -->
<g id="edge3" class="edge">
<title>structures:ObjectType&#45;&gt;biom:GeographicSampleAcquisitionLocationType</title>
<path fill="none" stroke="#000000" d="M528.5,-248.3462C528.5,-242.1576 528.5,-233.136 528.5,-222.9002"/>
<polygon fill="#000000" stroke="#000000" points="532.0001,-222.7673 528.5,-212.7673 525.0001,-222.7674 532.0001,-222.7673"/>
<text text-anchor="middle" x="519" y="-227.4" font-family="Helvetica,sans-Serif" font-size="12.00" fill="#000000">extension</text>
</g>
</g>
</svg>
