<?xml version="1.0" encoding="UTF-8" standalone="no"?>
<!DOCTYPE svg PUBLIC "-//W3C//DTD SVG 1.1//EN"
 "http://www.w3.org/Graphics/SVG/1.1/DTD/svg11.dtd">
<!-- Generated by graphviz version 2.40.1 (20161225.0304)
 -->
<!-- Title: graphic Pages: 1 -->
<svg width="623pt" height="45pt"
 viewBox="0.00 0.00 623.00 45.00" xmlns="http://www.w3.org/2000/svg" xmlns:xlink="http://www.w3.org/1999/xlink">
<g id="graph0" class="graph" transform="scale(1 1) rotate(0) translate(4 41)">
<title>graphic</title>
<polygon fill="#ffffff" stroke="transparent" points="-4,4 -4,-41 619,-41 619,4 -4,4"/>
<!-- biom:ContextFileDecodingInstructionsText -->
<g id="node1" class="node">
<title>biom:ContextFileDecodingInstructionsText</title>
<text text-anchor="start" x="232.5" y="-21.4" font-family="Helvetica,sans-Serif" font-weight="bold" font-size="12.00" fill="#000000">biom:ContextFileDecodingInstructionsText</text>
<polygon fill="none" stroke="#ff0000" stroke-width="5" points="228.5,-14 228.5,-34 482.5,-34 482.5,-14 228.5,-14"/>
</g>
<!-- nc:TextType -->
<g id="node3" class="node">
<title>nc:TextType</title>
<g id="a_node3_0"><a xlink:href="../../nc/TextType/#diagram" xlink:title="A data type for a character string." target="_top">
<text text-anchor="start" x="546.5" y="-20.4" font-family="Helvetica,sans-Serif" font-size="12.00" fill="#000000">nc:TextType</text>
</a>
</g>
<polygon fill="none" stroke="#000000" points="544,-15.5 544,-32.5 615,-32.5 615,-15.5 544,-15.5"/>
</g>
<!-- biom:ContextFileDecodingInstructionsText&#45;&gt;nc:TextType -->
<g id="edge2" class="edge">
<title>biom:ContextFileDecodingInstructionsText&#45;&gt;nc:TextType</title>
<path fill="none" stroke="#000000" d="M485.1531,-24C502.4367,-24 519.145,-24 533.5755,-24"/>
<polygon fill="#000000" stroke="#000000" points="533.6561,-27.5001 543.6561,-24 533.6561,-20.5001 533.6561,-27.5001"/>
<text text-anchor="middle" x="514.5" y="-27.4" font-family="Helvetica,sans-Serif" font-size="12.00" fill="#000000">type</text>
</g>
<!-- Types -->
<g id="node2" class="node">
<title>Types</title>
<text text-anchor="start" x="2.5" y="-21.4" font-family="Helvetica,sans-Serif" font-weight="bold" font-size="12.00" fill="#000000">Types</text>
<g id="a_node2_1"><a xlink:href="../../biom/ContextFileFormatType/#diagram" xlink:title="A data type for a description of a file holding an associated context representation, and decoding instructions" target="_top">
<polygon fill="#ebebeb" stroke="transparent" points="1.5,-1 1.5,-16 158.5,-16 158.5,-1 1.5,-1"/>
<text text-anchor="start" x="2.5" y="-5.4" font-family="Helvetica,sans-Serif" font-size="12.00" fill="#000000">biom:ContextFileFormatType</text>
</a>
</g>
<polygon fill="#000000" stroke="#000000" points=".5,-16 .5,-16 159.5,-16 159.5,-16 .5,-16"/>
<polygon fill="none" stroke="#000000" points="0,0 0,-32 159,-32 159,0 0,0"/>
</g>
<!-- Types&#45;&gt;biom:ContextFileDecodingInstructionsText -->
<g id="edge1" class="edge">
<title>Types:top&#45;&gt;biom:ContextFileDecodingInstructionsText</title>
<path fill="none" stroke="#000000" d="M158.5,-24C177.0669,-24 196.6182,-24 215.9014,-24"/>
<polygon fill="#000000" stroke="#000000" points="215.9542,-27.5001 225.9542,-24 215.9542,-20.5001 215.9542,-27.5001"/>
<text text-anchor="middle" x="192.5" y="-27.4" font-family="Helvetica,sans-Serif" font-size="12.00" fill="#000000">has&#45;a</text>
</g>
</g>
</svg>
