<?xml version="1.0" encoding="UTF-8" standalone="no"?>
<!DOCTYPE svg PUBLIC "-//W3C//DTD SVG 1.1//EN"
 "http://www.w3.org/Graphics/SVG/1.1/DTD/svg11.dtd">
<!-- Generated by graphviz version 2.40.1 (20161225.0304)
 -->
<!-- Title: graphic Pages: 1 -->
<svg width="504pt" height="180pt"
 viewBox="0.00 0.00 504.00 179.50" xmlns="http://www.w3.org/2000/svg" xmlns:xlink="http://www.w3.org/1999/xlink">
<g id="graph0" class="graph" transform="scale(1 1) rotate(0) translate(4 175.5)">
<title>graphic</title>
<polygon fill="#ffffff" stroke="transparent" points="-4,4 -4,-175.5 500,-175.5 500,4 -4,4"/>
<!-- biom:Integer1To255Type -->
<g id="node1" class="node">
<title>biom:Integer1To255Type</title>
<text text-anchor="start" x="284" y="-51.4" font-family="Helvetica,sans-Serif" font-weight="bold" font-size="12.00" fill="#000000">biom:Integer1To255Type</text>
<g id="a_node1_0"><a xlink:href="../../structures/SimpleObjectAttributeGroup/#diagram" xlink:title="A group of attributes that are applicable to objects, to be used when defining a complex type that is an extension of a simple type." target="_top">
<polygon fill="#ebebeb" stroke="transparent" points="283,-31 283,-46 491,-46 491,-31 283,-31"/>
<text text-anchor="start" x="284" y="-35.4" font-family="Helvetica,sans-Serif" font-size="12.00" fill="#000000">structures:SimpleObjectAttributeGroup</text>
</a>
</g>
<polygon fill="#ff0000" stroke="#ff0000" points="278,-46 278,-46 496,-46 496,-46 278,-46"/>
<polygon fill="none" stroke="#ff0000" stroke-width="5" points="280.5,-28.5 280.5,-63.5 493.5,-63.5 493.5,-28.5 280.5,-28.5"/>
</g>
<!-- Properties -->
<g id="node2" class="node">
<title>Properties</title>
<text text-anchor="start" x="2.5" y="-51.4" font-family="Helvetica,sans-Serif" font-weight="bold" font-size="12.00" fill="#000000">Properties</text>
<g id="a_node2_1"><a xlink:href="../../biom/ContextID/#diagram" xlink:title="An index identifier to a particular instance of a Type&#45;21 record in the transaction" target="_top">
<polygon fill="#ebebeb" stroke="transparent" points="1.5,-31 1.5,-46 218.5,-46 218.5,-31 1.5,-31"/>
<text text-anchor="start" x="2.5" y="-35.4" font-family="Helvetica,sans-Serif" font-size="12.00" fill="#000000">biom:ContextID</text>
</a>
</g>
<g id="a_node2_2"><a xlink:href="../../biom/FingerprintSimultaneousCaptureID/#diagram" xlink:title="An index identifier to reference a set of prints captured simultaneously on adjacent platens." target="_top">
<text text-anchor="start" x="2.5" y="-20.4" font-family="Helvetica,sans-Serif" font-size="12.00" fill="#000000">biom:FingerprintSimultaneousCaptureID</text>
</a>
</g>
<g id="a_node2_3"><a xlink:href="../../biom/SourceID/#diagram" xlink:title="An index identifier to reference a particular source image record in the transaction" target="_top">
<polygon fill="#ebebeb" stroke="transparent" points="1.5,-1 1.5,-16 218.5,-16 218.5,-1 1.5,-1"/>
<text text-anchor="start" x="2.5" y="-5.4" font-family="Helvetica,sans-Serif" font-size="12.00" fill="#000000">biom:SourceID</text>
</a>
</g>
<polygon fill="#000000" stroke="#000000" points=".5,-46 .5,-46 219.5,-46 219.5,-46 .5,-46"/>
<polygon fill="none" stroke="#000000" points="0,0 0,-62 219,-62 219,0 0,0"/>
</g>
<!-- Properties&#45;&gt;biom:Integer1To255Type -->
<g id="edge1" class="edge">
<title>Properties:top&#45;&gt;biom:Integer1To255Type:top</title>
<path fill="none" stroke="#000000" d="M218.5,-54C243.4714,-54 252.1284,-54 272.8937,-54"/>
<polygon fill="#000000" stroke="#000000" points="273,-57.5001 283,-54 273,-50.5001 273,-57.5001"/>
<text text-anchor="middle" x="248.5" y="-57.4" font-family="Helvetica,sans-Serif" font-size="12.00" fill="#000000">type</text>
</g>
<!-- biom:Integer1To255SimpleType -->
<g id="node3" class="node">
<title>biom:Integer1To255SimpleType</title>
<g id="a_node3_4"><a xlink:href="../../biom/Integer1To255SimpleType/#diagram" xlink:title="A data type of integer that has a value range of 1 to 255" target="_top">
<text text-anchor="start" x="302" y="-106.4" font-family="Helvetica,sans-Serif" font-size="12.00" fill="#000000">biom:Integer1To255SimpleType</text>
</a>
</g>
<polygon fill="none" stroke="#000000" points="299.5,-101.5 299.5,-118.5 474.5,-118.5 474.5,-101.5 299.5,-101.5"/>
</g>
<!-- biom:Integer1To255SimpleType&#45;&gt;biom:Integer1To255Type -->
<g id="edge2" class="edge">
<title>biom:Integer1To255SimpleType&#45;&gt;biom:Integer1To255Type</title>
<path fill="none" stroke="#000000" d="M387,-101.4351C387,-94.931 387,-85.5678 387,-76.3827"/>
<polygon fill="#000000" stroke="#000000" points="390.5001,-76.25 387,-66.25 383.5001,-76.25 390.5001,-76.25"/>
<text text-anchor="middle" x="377.5" y="-80.65" font-family="Helvetica,sans-Serif" font-size="12.00" fill="#000000">extension</text>
</g>
<!-- xs:positiveInteger -->
<g id="node4" class="node">
<title>xs:positiveInteger</title>
<g id="a_node4_5"><a xlink:href="../../xs/positiveInteger/#diagram" xlink:title="&lt;TABLE&gt;" target="_top">
<text text-anchor="start" x="340" y="-159.4" font-family="Helvetica,sans-Serif" font-size="12.00" fill="#000000">xs:positiveInteger</text>
</a>
</g>
<polygon fill="none" stroke="#000000" points="338,-154.5 338,-171.5 436,-171.5 436,-154.5 338,-154.5"/>
</g>
<!-- xs:positiveInteger&#45;&gt;biom:Integer1To255SimpleType -->
<g id="edge3" class="edge">
<title>xs:positiveInteger&#45;&gt;biom:Integer1To255SimpleType</title>
<path fill="none" stroke="#000000" d="M387,-154.411C387,-147.5124 387,-137.5696 387,-128.84"/>
<polygon fill="#000000" stroke="#000000" points="390.5001,-128.7518 387,-118.7519 383.5001,-128.7519 390.5001,-128.7518"/>
<text text-anchor="middle" x="377.5" y="-133.4" font-family="Helvetica,sans-Serif" font-size="12.00" fill="#000000">restriction</text>
</g>
</g>
</svg>
