<?xml version="1.0" encoding="UTF-8" standalone="no"?>
<!DOCTYPE svg PUBLIC "-//W3C//DTD SVG 1.1//EN"
 "http://www.w3.org/Graphics/SVG/1.1/DTD/svg11.dtd">
<!-- Generated by graphviz version 2.40.1 (20161225.0304)
 -->
<!-- Title: graphic Pages: 1 -->
<svg width="330pt" height="86pt"
 viewBox="0.00 0.00 330.00 86.00" xmlns="http://www.w3.org/2000/svg" xmlns:xlink="http://www.w3.org/1999/xlink">
<g id="graph0" class="graph" transform="scale(1 1) rotate(0) translate(4 82)">
<title>graphic</title>
<polygon fill="#ffffff" stroke="transparent" points="-4,4 -4,-82 326,-82 326,4 -4,4"/>
<!-- hs:CurrentTraffickedVenueText -->
<g id="node1" class="node">
<title>hs:CurrentTraffickedVenueText</title>
<text text-anchor="start" x="6" y="-9.9" font-family="Helvetica,sans-Serif" font-weight="bold" font-size="12.00" fill="#000000">hs:CurrentTraffickedVenueText</text>
<polygon fill="none" stroke="#ff0000" stroke-width="5" points="2.5,-2.5 2.5,-22.5 189.5,-22.5 189.5,-2.5 2.5,-2.5"/>
</g>
<!-- nc:TextType -->
<g id="node3" class="node">
<title>nc:TextType</title>
<g id="a_node3_0"><a xlink:href="../../nc/TextType/#diagram" xlink:title="A data type for a character string." target="_top">
<text text-anchor="start" x="253.5" y="-8.9" font-family="Helvetica,sans-Serif" font-size="12.00" fill="#000000">nc:TextType</text>
</a>
</g>
<polygon fill="none" stroke="#000000" points="251,-4 251,-21 322,-21 322,-4 251,-4"/>
</g>
<!-- hs:CurrentTraffickedVenueText&#45;&gt;nc:TextType -->
<g id="edge2" class="edge">
<title>hs:CurrentTraffickedVenueText&#45;&gt;nc:TextType</title>
<path fill="none" stroke="#000000" d="M192.0871,-12.5C208.9036,-12.5 225.6852,-12.5 240.3351,-12.5"/>
<polygon fill="#000000" stroke="#000000" points="240.5959,-16.0001 250.5958,-12.5 240.5958,-9.0001 240.5959,-16.0001"/>
<text text-anchor="middle" x="221.5" y="-15.9" font-family="Helvetica,sans-Serif" font-size="12.00" fill="#000000">type</text>
</g>
<!-- SubstitutionGroup -->
<g id="node2" class="node">
<title>SubstitutionGroup</title>
<g id="a_node2_1"><a xlink:href="../../hs/CurrentTraffickedVenueAbstract/#diagram" xlink:title="A data concept for a venue or kind of facility where a victim of human trafficking is currently being trafficked." target="_top">
<text text-anchor="start" x="2" y="-65.9" font-family="Helvetica,sans-Serif" font-size="12.00" fill="#000000">hs:CurrentTraffickedVenueAbstract</text>
</a>
</g>
<polygon fill="none" stroke="#000000" points="0,-61 0,-78 192,-78 192,-61 0,-61"/>
</g>
<!-- SubstitutionGroup&#45;&gt;hs:CurrentTraffickedVenueText -->
<g id="edge1" class="edge">
<title>SubstitutionGroup&#45;&gt;hs:CurrentTraffickedVenueText</title>
<path fill="none" stroke="#000000" d="M96,-50.9163C96,-42.4809 96,-32.7214 96,-25.1501"/>
<polygon fill="#000000" stroke="#000000" points="92.5001,-50.9472 96,-60.9473 99.5001,-50.9473 92.5001,-50.9472"/>
<text text-anchor="middle" x="86.5" y="-39.9" font-family="Helvetica,sans-Serif" font-size="12.00" fill="#000000">substitution group</text>
</g>
</g>
</svg>
