<?xml version="1.0" encoding="UTF-8" standalone="no"?>
<!DOCTYPE svg PUBLIC "-//W3C//DTD SVG 1.1//EN"
 "http://www.w3.org/Graphics/SVG/1.1/DTD/svg11.dtd">
<!-- Generated by graphviz version 2.40.1 (20161225.0304)
 -->
<!-- Title: graphic Pages: 1 -->
<svg width="725pt" height="45pt"
 viewBox="0.00 0.00 725.00 45.00" xmlns="http://www.w3.org/2000/svg" xmlns:xlink="http://www.w3.org/1999/xlink">
<g id="graph0" class="graph" transform="scale(1 1) rotate(0) translate(4 41)">
<title>graphic</title>
<polygon fill="#ffffff" stroke="transparent" points="-4,4 -4,-41 721,-41 721,4 -4,4"/>
<!-- cbrn:CaseRelationshipRoleKindCode -->
<g id="node1" class="node">
<title>cbrn:CaseRelationshipRoleKindCode</title>
<text text-anchor="start" x="225" y="-21.4" font-family="Helvetica,sans-Serif" font-weight="bold" font-size="12.00" fill="#000000">cbrn:CaseRelationshipRoleKindCode</text>
<polygon fill="none" stroke="#ff0000" stroke-width="5" points="221.5,-14 221.5,-34 442.5,-34 442.5,-14 221.5,-14"/>
</g>
<!-- cbrncl:CaseRelationshipKindCodeType -->
<g id="node3" class="node">
<title>cbrncl:CaseRelationshipKindCodeType</title>
<g id="a_node3_0"><a xlink:href="../../cbrncl/CaseRelationshipKindCodeType/#diagram" xlink:title="A data type for the kinds of relationships between two cases." target="_top">
<text text-anchor="start" x="506.5" y="-20.4" font-family="Helvetica,sans-Serif" font-size="12.00" fill="#000000">cbrncl:CaseRelationshipKindCodeType</text>
</a>
</g>
<polygon fill="none" stroke="#000000" points="504,-15.5 504,-32.5 717,-32.5 717,-15.5 504,-15.5"/>
</g>
<!-- cbrn:CaseRelationshipRoleKindCode&#45;&gt;cbrncl:CaseRelationshipKindCodeType -->
<g id="edge2" class="edge">
<title>cbrn:CaseRelationshipRoleKindCode&#45;&gt;cbrncl:CaseRelationshipKindCodeType</title>
<path fill="none" stroke="#000000" d="M445.2766,-24C461.089,-24 477.3647,-24 493.2485,-24"/>
<polygon fill="#000000" stroke="#000000" points="493.6212,-27.5001 503.6211,-24 493.6211,-20.5001 493.6212,-27.5001"/>
<text text-anchor="middle" x="474.5" y="-27.4" font-family="Helvetica,sans-Serif" font-size="12.00" fill="#000000">type</text>
</g>
<!-- Types -->
<g id="node2" class="node">
<title>Types</title>
<text text-anchor="start" x="2" y="-21.4" font-family="Helvetica,sans-Serif" font-weight="bold" font-size="12.00" fill="#000000">Types</text>
<g id="a_node2_1"><a xlink:href="../../cbrn/CaseRelationshipType/#diagram" xlink:title="A data type for a relationship between two cases." target="_top">
<polygon fill="#ebebeb" stroke="transparent" points="1,-1 1,-16 151,-16 151,-1 1,-1"/>
<text text-anchor="start" x="2" y="-5.4" font-family="Helvetica,sans-Serif" font-size="12.00" fill="#000000">cbrn:CaseRelationshipType</text>
</a>
</g>
<polygon fill="#000000" stroke="#000000" points="0,-16 0,-16 152,-16 152,-16 0,-16"/>
<polygon fill="none" stroke="#000000" points="0,0 0,-32 152,-32 152,0 0,0"/>
</g>
<!-- Types&#45;&gt;cbrn:CaseRelationshipRoleKindCode -->
<g id="edge1" class="edge">
<title>Types:top&#45;&gt;cbrn:CaseRelationshipRoleKindCode</title>
<path fill="none" stroke="#000000" d="M151,-24C169.5976,-24 189.2701,-24 208.5265,-24"/>
<polygon fill="#000000" stroke="#000000" points="208.5506,-27.5001 218.5506,-24 208.5505,-20.5001 208.5506,-27.5001"/>
<text text-anchor="middle" x="185.5" y="-27.4" font-family="Helvetica,sans-Serif" font-size="12.00" fill="#000000">has&#45;a</text>
</g>
</g>
</svg>
