<?xml version="1.0" encoding="UTF-8" standalone="no"?>
<!DOCTYPE svg PUBLIC "-//W3C//DTD SVG 1.1//EN"
 "http://www.w3.org/Graphics/SVG/1.1/DTD/svg11.dtd">
<!-- Generated by graphviz version 2.40.1 (20161225.0304)
 -->
<!-- Title: graphic Pages: 1 -->
<svg width="453pt" height="86pt"
 viewBox="0.00 0.00 453.00 86.00" xmlns="http://www.w3.org/2000/svg" xmlns:xlink="http://www.w3.org/1999/xlink">
<g id="graph0" class="graph" transform="scale(1 1) rotate(0) translate(4 82)">
<title>graphic</title>
<polygon fill="#ffffff" stroke="transparent" points="-4,4 -4,-82 449,-82 449,4 -4,4"/>
<!-- scr:EnforcementCategoryCode -->
<g id="node1" class="node">
<title>scr:EnforcementCategoryCode</title>
<text text-anchor="start" x="6" y="-9.9" font-family="Helvetica,sans-Serif" font-weight="bold" font-size="12.00" fill="#000000">scr:EnforcementCategoryCode</text>
<polygon fill="none" stroke="#ff0000" stroke-width="5" points="2.5,-2.5 2.5,-22.5 187.5,-22.5 187.5,-2.5 2.5,-2.5"/>
</g>
<!-- scr:EnforcementCategoryCodeType -->
<g id="node3" class="node">
<title>scr:EnforcementCategoryCodeType</title>
<g id="a_node3_0"><a xlink:href="../../scr/EnforcementCategoryCodeType/#diagram" xlink:title="A data type for a classification of ENFORCEMENT" target="_top">
<text text-anchor="start" x="251" y="-8.9" font-family="Helvetica,sans-Serif" font-size="12.00" fill="#000000">scr:EnforcementCategoryCodeType</text>
</a>
</g>
<polygon fill="none" stroke="#000000" points="249,-4 249,-21 445,-21 445,-4 249,-4"/>
</g>
<!-- scr:EnforcementCategoryCode&#45;&gt;scr:EnforcementCategoryCodeType -->
<g id="edge2" class="edge">
<title>scr:EnforcementCategoryCode&#45;&gt;scr:EnforcementCategoryCodeType</title>
<path fill="none" stroke="#000000" d="M190.2704,-12.5C205.9342,-12.5 222.2728,-12.5 238.2352,-12.5"/>
<polygon fill="#000000" stroke="#000000" points="238.6597,-16.0001 248.6596,-12.5 238.6596,-9.0001 238.6597,-16.0001"/>
<text text-anchor="middle" x="219.5" y="-15.9" font-family="Helvetica,sans-Serif" font-size="12.00" fill="#000000">type</text>
</g>
<!-- SubstitutionGroup -->
<g id="node2" class="node">
<title>SubstitutionGroup</title>
<g id="a_node2_1"><a xlink:href="../../scr/EnforcementCategoryAbstract/#diagram" xlink:title="A data concept for a classification of ENFORCEMENT" target="_top">
<text text-anchor="start" x="5" y="-65.9" font-family="Helvetica,sans-Serif" font-size="12.00" fill="#000000">scr:EnforcementCategoryAbstract</text>
</a>
</g>
<polygon fill="none" stroke="#000000" points="2.5,-61 2.5,-78 187.5,-78 187.5,-61 2.5,-61"/>
</g>
<!-- SubstitutionGroup&#45;&gt;scr:EnforcementCategoryCode -->
<g id="edge1" class="edge">
<title>SubstitutionGroup&#45;&gt;scr:EnforcementCategoryCode</title>
<path fill="none" stroke="#000000" d="M95,-50.9163C95,-42.4809 95,-32.7214 95,-25.1501"/>
<polygon fill="#000000" stroke="#000000" points="91.5001,-50.9472 95,-60.9473 98.5001,-50.9473 91.5001,-50.9472"/>
<text text-anchor="middle" x="85.5" y="-39.9" font-family="Helvetica,sans-Serif" font-size="12.00" fill="#000000">substitution group</text>
</g>
</g>
</svg>
