<?xml version="1.0" encoding="UTF-8" standalone="no"?>
<!DOCTYPE svg PUBLIC "-//W3C//DTD SVG 1.1//EN"
 "http://www.w3.org/Graphics/SVG/1.1/DTD/svg11.dtd">
<!-- Generated by graphviz version 2.40.1 (20161225.0304)
 -->
<!-- Title: graphic Pages: 1 -->
<svg width="418pt" height="45pt"
 viewBox="0.00 0.00 418.00 45.00" xmlns="http://www.w3.org/2000/svg" xmlns:xlink="http://www.w3.org/1999/xlink">
<g id="graph0" class="graph" transform="scale(1 1) rotate(0) translate(4 41)">
<title>graphic</title>
<polygon fill="#ffffff" stroke="transparent" points="-4,4 -4,-41 414,-41 414,4 -4,4"/>
<!-- nc:CrisisLocation -->
<g id="node1" class="node">
<title>nc:CrisisLocation</title>
<text text-anchor="start" x="150" y="-21.4" font-family="Helvetica,sans-Serif" font-weight="bold" font-size="12.00" fill="#000000">nc:CrisisLocation</text>
<polygon fill="none" stroke="#ff0000" stroke-width="5" points="146.5,-14 146.5,-34 255.5,-34 255.5,-14 146.5,-14"/>
</g>
<!-- nc:LocationType -->
<g id="node3" class="node">
<title>nc:LocationType</title>
<g id="a_node3_0"><a xlink:href="../../nc/LocationType/#diagram" xlink:title="A data type for geospatial location." target="_top">
<text text-anchor="start" x="319.5" y="-20.4" font-family="Helvetica,sans-Serif" font-size="12.00" fill="#000000">nc:LocationType</text>
</a>
</g>
<polygon fill="none" stroke="#000000" points="317,-15.5 317,-32.5 410,-32.5 410,-15.5 317,-15.5"/>
</g>
<!-- nc:CrisisLocation&#45;&gt;nc:LocationType -->
<g id="edge2" class="edge">
<title>nc:CrisisLocation&#45;&gt;nc:LocationType</title>
<path fill="none" stroke="#000000" d="M258.2914,-24C274.0324,-24 291.091,-24 306.7987,-24"/>
<polygon fill="#000000" stroke="#000000" points="306.8984,-27.5001 316.8983,-24 306.8983,-20.5001 306.8984,-27.5001"/>
<text text-anchor="middle" x="287.5" y="-27.4" font-family="Helvetica,sans-Serif" font-size="12.00" fill="#000000">type</text>
</g>
<!-- Types -->
<g id="node2" class="node">
<title>Types</title>
<text text-anchor="start" x="2.5" y="-21.4" font-family="Helvetica,sans-Serif" font-weight="bold" font-size="12.00" fill="#000000">Types</text>
<g id="a_node2_1"><a xlink:href="../../nc/CrisisType/#diagram" xlink:title="A data type for a crisis." target="_top">
<polygon fill="#ebebeb" stroke="transparent" points="1.5,-1 1.5,-16 76.5,-16 76.5,-1 1.5,-1"/>
<text text-anchor="start" x="2.5" y="-5.4" font-family="Helvetica,sans-Serif" font-size="12.00" fill="#000000">nc:CrisisType</text>
</a>
</g>
<polygon fill="#000000" stroke="#000000" points=".5,-16 .5,-16 77.5,-16 77.5,-16 .5,-16"/>
<polygon fill="none" stroke="#000000" points="0,0 0,-32 77,-32 77,0 0,0"/>
</g>
<!-- Types&#45;&gt;nc:CrisisLocation -->
<g id="edge1" class="edge">
<title>Types:top&#45;&gt;nc:CrisisLocation</title>
<path fill="none" stroke="#000000" d="M76.5,-24C95.1021,-24 115.2675,-24 133.8429,-24"/>
<polygon fill="#000000" stroke="#000000" points="133.9789,-27.5001 143.9789,-24 133.9788,-20.5001 133.9789,-27.5001"/>
<text text-anchor="middle" x="110.5" y="-27.4" font-family="Helvetica,sans-Serif" font-size="12.00" fill="#000000">has&#45;a</text>
</g>
</g>
</svg>
