<?xml version="1.0" encoding="UTF-8" standalone="no"?>
<!DOCTYPE svg PUBLIC "-//W3C//DTD SVG 1.1//EN"
 "http://www.w3.org/Graphics/SVG/1.1/DTD/svg11.dtd">
<!-- Generated by graphviz version 2.40.1 (20161225.0304)
 -->
<!-- Title: graphic Pages: 1 -->
<svg width="576pt" height="180pt"
 viewBox="0.00 0.00 576.00 179.50" xmlns="http://www.w3.org/2000/svg" xmlns:xlink="http://www.w3.org/1999/xlink">
<g id="graph0" class="graph" transform="scale(1 1) rotate(0) translate(4 175.5)">
<title>graphic</title>
<polygon fill="#ffffff" stroke="transparent" points="-4,4 -4,-175.5 572,-175.5 572,4 -4,4"/>
<!-- ucr:JustifiableHomicideFactorCodeType -->
<g id="node1" class="node">
<title>ucr:JustifiableHomicideFactorCodeType</title>
<text text-anchor="start" x="326" y="-51.4" font-family="Helvetica,sans-Serif" font-weight="bold" font-size="12.00" fill="#000000">ucr:JustifiableHomicideFactorCodeType</text>
<g id="a_node1_0"><a xlink:href="../../structures/SimpleObjectAttributeGroup/#diagram" xlink:title="A group of attributes that are applicable to objects, to be used when defining a complex type that is an extension of a simple type." target="_top">
<polygon fill="#ebebeb" stroke="transparent" points="325,-31 325,-46 558,-46 558,-31 325,-31"/>
<text text-anchor="start" x="326" y="-35.4" font-family="Helvetica,sans-Serif" font-size="12.00" fill="#000000">structures:SimpleObjectAttributeGroup</text>
</a>
</g>
<polygon fill="#ff0000" stroke="#ff0000" points="320,-46 320,-46 563,-46 563,-46 320,-46"/>
<polygon fill="none" stroke="#ff0000" stroke-width="5" points="322,-28.5 322,-63.5 560,-63.5 560,-28.5 322,-28.5"/>
</g>
<!-- Properties -->
<g id="node2" class="node">
<title>Properties</title>
<text text-anchor="start" x="2.5" y="-51.4" font-family="Helvetica,sans-Serif" font-weight="bold" font-size="12.00" fill="#000000">Properties</text>
<g id="a_node2_1"><a xlink:href="../../j/IncidentFactorNIBRSJustifiableHomicideCode/#diagram" xlink:title="A circumstance of factor in an incident." target="_top">
<polygon fill="#ebebeb" stroke="transparent" points="1.5,-31 1.5,-46 254.5,-46 254.5,-31 1.5,-31"/>
<text text-anchor="start" x="2.5" y="-35.4" font-family="Helvetica,sans-Serif" font-size="12.00" fill="#000000">j:IncidentFactorNIBRSJustifiableHomicideCode</text>
</a>
</g>
<g id="a_node2_2"><a xlink:href="../../j/OffenseFactorJustifiableHomicideCode/#diagram" xlink:title="A designation of a justifiable homicide offense factor." target="_top">
<text text-anchor="start" x="2.5" y="-20.4" font-family="Helvetica,sans-Serif" font-size="12.00" fill="#000000">j:OffenseFactorJustifiableHomicideCode</text>
</a>
</g>
<g id="a_node2_3"><a xlink:href="../../j/VictimJustifiableHomicideFactorCode/#diagram" xlink:title="A circumstance of a justifiable homicide." target="_top">
<polygon fill="#ebebeb" stroke="transparent" points="1.5,-1 1.5,-16 254.5,-16 254.5,-1 1.5,-1"/>
<text text-anchor="start" x="2.5" y="-5.4" font-family="Helvetica,sans-Serif" font-size="12.00" fill="#000000">j:VictimJustifiableHomicideFactorCode</text>
</a>
</g>
<polygon fill="#000000" stroke="#000000" points=".5,-46 .5,-46 255.5,-46 255.5,-46 .5,-46"/>
<polygon fill="none" stroke="#000000" points="0,0 0,-62 255,-62 255,0 0,0"/>
</g>
<!-- Properties&#45;&gt;ucr:JustifiableHomicideFactorCodeType -->
<g id="edge1" class="edge">
<title>Properties:top&#45;&gt;ucr:JustifiableHomicideFactorCodeType:top</title>
<path fill="none" stroke="#000000" d="M254.5,-54C282.1615,-54 291.508,-54 314.8769,-54"/>
<polygon fill="#000000" stroke="#000000" points="315,-57.5001 325,-54 315,-50.5001 315,-57.5001"/>
<text text-anchor="middle" x="284.5" y="-57.4" font-family="Helvetica,sans-Serif" font-size="12.00" fill="#000000">type</text>
</g>
<!-- ucr:JustifiableHomicideFactorCodeSimpleType -->
<g id="node3" class="node">
<title>ucr:JustifiableHomicideFactorCodeSimpleType</title>
<g id="a_node3_4"><a xlink:href="../../ucr/JustifiableHomicideFactorCodeSimpleType/#diagram" xlink:title="A data type for circumstances of a justifiable homicide." target="_top">
<text text-anchor="start" x="316" y="-106.4" font-family="Helvetica,sans-Serif" font-size="12.00" fill="#000000">ucr:JustifiableHomicideFactorCodeSimpleType</text>
</a>
</g>
<polygon fill="none" stroke="#000000" points="314,-101.5 314,-118.5 568,-118.5 568,-101.5 314,-101.5"/>
</g>
<!-- ucr:JustifiableHomicideFactorCodeSimpleType&#45;&gt;ucr:JustifiableHomicideFactorCodeType -->
<g id="edge2" class="edge">
<title>ucr:JustifiableHomicideFactorCodeSimpleType&#45;&gt;ucr:JustifiableHomicideFactorCodeType</title>
<path fill="none" stroke="#000000" d="M441,-101.4351C441,-94.931 441,-85.5678 441,-76.3827"/>
<polygon fill="#000000" stroke="#000000" points="444.5001,-76.25 441,-66.25 437.5001,-76.25 444.5001,-76.25"/>
<text text-anchor="middle" x="431.5" y="-80.65" font-family="Helvetica,sans-Serif" font-size="12.00" fill="#000000">extension</text>
</g>
<!-- xs:token -->
<g id="node4" class="node">
<title>xs:token</title>
<g id="a_node4_5"><a xlink:href="../../xs/token/#diagram" xlink:title="&lt;TABLE&gt;" target="_top">
<text text-anchor="start" x="419" y="-159.4" font-family="Helvetica,sans-Serif" font-size="12.00" fill="#000000">xs:token</text>
</a>
</g>
<polygon fill="none" stroke="#000000" points="416.5,-154.5 416.5,-171.5 465.5,-171.5 465.5,-154.5 416.5,-154.5"/>
</g>
<!-- xs:token&#45;&gt;ucr:JustifiableHomicideFactorCodeSimpleType -->
<g id="edge3" class="edge">
<title>xs:token&#45;&gt;ucr:JustifiableHomicideFactorCodeSimpleType</title>
<path fill="none" stroke="#000000" d="M441,-154.411C441,-147.5124 441,-137.5696 441,-128.84"/>
<polygon fill="#000000" stroke="#000000" points="444.5001,-128.7518 441,-118.7519 437.5001,-128.7519 444.5001,-128.7518"/>
<text text-anchor="middle" x="431.5" y="-133.4" font-family="Helvetica,sans-Serif" font-size="12.00" fill="#000000">restriction</text>
</g>
</g>
</svg>
