<?xml version="1.0" encoding="UTF-8" standalone="no"?>
<!DOCTYPE svg PUBLIC "-//W3C//DTD SVG 1.1//EN"
 "http://www.w3.org/Graphics/SVG/1.1/DTD/svg11.dtd">
<!-- Generated by graphviz version 2.40.1 (20161225.0304)
 -->
<!-- Title: graphic Pages: 1 -->
<svg width="480pt" height="164pt"
 viewBox="0.00 0.00 480.00 164.00" xmlns="http://www.w3.org/2000/svg" xmlns:xlink="http://www.w3.org/1999/xlink">
<g id="graph0" class="graph" transform="scale(1 1) rotate(0) translate(4 160)">
<title>graphic</title>
<polygon fill="#ffffff" stroke="transparent" points="-4,4 -4,-160 476,-160 476,4 -4,4"/>
<!-- scr:EncounterCategoryCodeType -->
<g id="node1" class="node">
<title>scr:EncounterCategoryCodeType</title>
<text text-anchor="start" x="259.5" y="-35.9" font-family="Helvetica,sans-Serif" font-weight="bold" font-size="12.00" fill="#000000">scr:EncounterCategoryCodeType</text>
<g id="a_node1_0"><a xlink:href="../../structures/SimpleObjectAttributeGroup/#diagram" xlink:title="A group of attributes that are applicable to objects, to be used when defining a complex type that is an extension of a simple type." target="_top">
<polygon fill="#ebebeb" stroke="transparent" points="258.5,-15.5 258.5,-30.5 466.5,-30.5 466.5,-15.5 258.5,-15.5"/>
<text text-anchor="start" x="259.5" y="-19.9" font-family="Helvetica,sans-Serif" font-size="12.00" fill="#000000">structures:SimpleObjectAttributeGroup</text>
</a>
</g>
<polygon fill="#ff0000" stroke="#ff0000" points="253.5,-30.5 253.5,-30.5 471.5,-30.5 471.5,-30.5 253.5,-30.5"/>
<polygon fill="none" stroke="#ff0000" stroke-width="5" points="256,-13 256,-48 469,-48 469,-13 256,-13"/>
</g>
<!-- Properties -->
<g id="node2" class="node">
<title>Properties</title>
<text text-anchor="start" x="2" y="-35.9" font-family="Helvetica,sans-Serif" font-weight="bold" font-size="12.00" fill="#000000">Properties</text>
<g id="a_node2_1"><a xlink:href="../../scr/EncounterCategoryCode/#diagram" xlink:title="A kind of encounter." target="_top">
<polygon fill="#ebebeb" stroke="transparent" points="1,-15.5 1,-30.5 193,-30.5 193,-15.5 1,-15.5"/>
<text text-anchor="start" x="2" y="-19.9" font-family="Helvetica,sans-Serif" font-size="12.00" fill="#000000">scr:EncounterCategoryCode</text>
</a>
</g>
<g id="a_node2_2"><a xlink:href="../../scr/PersonEncounterCategoryCode/#diagram" xlink:title="A kind of person encounter." target="_top">
<text text-anchor="start" x="2" y="-4.9" font-family="Helvetica,sans-Serif" font-size="12.00" fill="#000000">scr:PersonEncounterCategoryCode</text>
</a>
</g>
<polygon fill="#000000" stroke="#000000" points="0,-30.5 0,-30.5 194,-30.5 194,-30.5 0,-30.5"/>
<polygon fill="none" stroke="#000000" points="0,0 0,-47 194,-47 194,0 0,0"/>
</g>
<!-- Properties&#45;&gt;scr:EncounterCategoryCodeType -->
<g id="edge1" class="edge">
<title>Properties:top&#45;&gt;scr:EncounterCategoryCodeType:top</title>
<path fill="none" stroke="#000000" d="M193,-38.5C218.3585,-38.5 227.1498,-38.5 248.2371,-38.5"/>
<polygon fill="#000000" stroke="#000000" points="248.5,-42.0001 258.5,-38.5 248.5,-35.0001 248.5,-42.0001"/>
<text text-anchor="middle" x="223.5" y="-41.9" font-family="Helvetica,sans-Serif" font-size="12.00" fill="#000000">type</text>
</g>
<!-- scr:EncounterCategoryCodeSimpleType -->
<g id="node3" class="node">
<title>scr:EncounterCategoryCodeSimpleType</title>
<g id="a_node3_3"><a xlink:href="../../scr/EncounterCategoryCodeSimpleType/#diagram" xlink:title="A data type for a kind of encounter." target="_top">
<text text-anchor="start" x="255.5" y="-90.9" font-family="Helvetica,sans-Serif" font-size="12.00" fill="#000000">scr:EncounterCategoryCodeSimpleType</text>
</a>
</g>
<polygon fill="none" stroke="#000000" points="253,-86 253,-103 472,-103 472,-86 253,-86"/>
</g>
<!-- scr:EncounterCategoryCodeSimpleType&#45;&gt;scr:EncounterCategoryCodeType -->
<g id="edge2" class="edge">
<title>scr:EncounterCategoryCodeSimpleType&#45;&gt;scr:EncounterCategoryCodeType</title>
<path fill="none" stroke="#000000" d="M362.5,-85.9351C362.5,-79.431 362.5,-70.0678 362.5,-60.8827"/>
<polygon fill="#000000" stroke="#000000" points="366.0001,-60.75 362.5,-50.75 359.0001,-60.75 366.0001,-60.75"/>
<text text-anchor="middle" x="353" y="-65.15" font-family="Helvetica,sans-Serif" font-size="12.00" fill="#000000">extension</text>
</g>
<!-- xs:token -->
<g id="node4" class="node">
<title>xs:token</title>
<g id="a_node4_4"><a xlink:href="../../xs/token/#diagram" xlink:title="&lt;TABLE&gt;" target="_top">
<text text-anchor="start" x="340.5" y="-143.9" font-family="Helvetica,sans-Serif" font-size="12.00" fill="#000000">xs:token</text>
</a>
</g>
<polygon fill="none" stroke="#000000" points="338,-139 338,-156 387,-156 387,-139 338,-139"/>
</g>
<!-- xs:token&#45;&gt;scr:EncounterCategoryCodeSimpleType -->
<g id="edge3" class="edge">
<title>xs:token&#45;&gt;scr:EncounterCategoryCodeSimpleType</title>
<path fill="none" stroke="#000000" d="M362.5,-138.911C362.5,-132.0124 362.5,-122.0696 362.5,-113.34"/>
<polygon fill="#000000" stroke="#000000" points="366.0001,-113.2518 362.5,-103.2519 359.0001,-113.2519 366.0001,-113.2518"/>
<text text-anchor="middle" x="353" y="-117.9" font-family="Helvetica,sans-Serif" font-size="12.00" fill="#000000">restriction</text>
</g>
</g>
</svg>
