<?xml version="1.0" encoding="UTF-8" standalone="no"?>
<!DOCTYPE svg PUBLIC "-//W3C//DTD SVG 1.1//EN"
 "http://www.w3.org/Graphics/SVG/1.1/DTD/svg11.dtd">
<!-- Generated by graphviz version 2.40.1 (20161225.0304)
 -->
<!-- Title: graphic Pages: 1 -->
<svg width="416pt" height="86pt"
 viewBox="0.00 0.00 416.00 86.00" xmlns="http://www.w3.org/2000/svg" xmlns:xlink="http://www.w3.org/1999/xlink">
<g id="graph0" class="graph" transform="scale(1 1) rotate(0) translate(4 82)">
<title>graphic</title>
<polygon fill="#ffffff" stroke="transparent" points="-4,4 -4,-82 412,-82 412,4 -4,4"/>
<!-- hs:ChildSupportObligation -->
<g id="node1" class="node">
<title>hs:ChildSupportObligation</title>
<text text-anchor="start" x="12" y="-9.9" font-family="Helvetica,sans-Serif" font-weight="bold" font-size="12.00" fill="#000000">hs:ChildSupportObligation</text>
<polygon fill="none" stroke="#ff0000" stroke-width="5" points="8.5,-2.5 8.5,-22.5 169.5,-22.5 169.5,-2.5 8.5,-2.5"/>
</g>
<!-- hs:ChildSupportObligationType -->
<g id="node3" class="node">
<title>hs:ChildSupportObligationType</title>
<g id="a_node3_0"><a xlink:href="../../hs/ChildSupportObligationType/#diagram" xlink:title="A data type for an applied augmentation for type nc:ObligationType" target="_top">
<text text-anchor="start" x="239.5" y="-8.9" font-family="Helvetica,sans-Serif" font-size="12.00" fill="#000000">hs:ChildSupportObligationType</text>
</a>
</g>
<polygon fill="none" stroke="#000000" points="237,-4 237,-21 408,-21 408,-4 237,-4"/>
</g>
<!-- hs:ChildSupportObligation&#45;&gt;hs:ChildSupportObligationType -->
<g id="edge2" class="edge">
<title>hs:ChildSupportObligation&#45;&gt;hs:ChildSupportObligationType</title>
<path fill="none" stroke="#000000" d="M172.3099,-12.5C189.9094,-12.5 208.616,-12.5 226.6364,-12.5"/>
<polygon fill="#000000" stroke="#000000" points="226.8584,-16.0001 236.8584,-12.5 226.8584,-9.0001 226.8584,-16.0001"/>
<text text-anchor="middle" x="207.5" y="-15.9" font-family="Helvetica,sans-Serif" font-size="12.00" fill="#000000">type</text>
</g>
<!-- SubstitutionGroup -->
<g id="node2" class="node">
<title>SubstitutionGroup</title>
<g id="a_node2_1"><a xlink:href="../../nc/Obligation/#diagram" xlink:title="A thing that is owed to an entity." target="_top">
<text text-anchor="start" x="2" y="-65.9" font-family="Helvetica,sans-Serif" font-size="12.00" fill="#000000">nc:Obligation: nc:ObligationType</text>
</a>
</g>
<polygon fill="none" stroke="#000000" points="0,-61 0,-78 178,-78 178,-61 0,-61"/>
</g>
<!-- SubstitutionGroup&#45;&gt;hs:ChildSupportObligation -->
<g id="edge1" class="edge">
<title>SubstitutionGroup&#45;&gt;hs:ChildSupportObligation</title>
<path fill="none" stroke="#000000" d="M89,-50.9163C89,-42.4809 89,-32.7214 89,-25.1501"/>
<polygon fill="#000000" stroke="#000000" points="85.5001,-50.9472 89,-60.9473 92.5001,-50.9473 85.5001,-50.9472"/>
<text text-anchor="middle" x="79.5" y="-39.9" font-family="Helvetica,sans-Serif" font-size="12.00" fill="#000000">substitution group</text>
</g>
</g>
</svg>
