<?xml version="1.0" encoding="UTF-8" standalone="no"?>
<!DOCTYPE svg PUBLIC "-//W3C//DTD SVG 1.1//EN"
 "http://www.w3.org/Graphics/SVG/1.1/DTD/svg11.dtd">
<!-- Generated by graphviz version 2.40.1 (20161225.0304)
 -->
<!-- Title: graphic Pages: 1 -->
<svg width="566pt" height="45pt"
 viewBox="0.00 0.00 566.00 45.00" xmlns="http://www.w3.org/2000/svg" xmlns:xlink="http://www.w3.org/1999/xlink">
<g id="graph0" class="graph" transform="scale(1 1) rotate(0) translate(4 41)">
<title>graphic</title>
<polygon fill="#ffffff" stroke="transparent" points="-4,4 -4,-41 562,-41 562,4 -4,4"/>
<!-- m:ShipmentHazmatDeclaration -->
<g id="node1" class="node">
<title>m:ShipmentHazmatDeclaration</title>
<text text-anchor="start" x="168" y="-21.4" font-family="Helvetica,sans-Serif" font-weight="bold" font-size="12.00" fill="#000000">m:ShipmentHazmatDeclaration</text>
<polygon fill="none" stroke="#ff0000" stroke-width="5" points="164.5,-14 164.5,-34 349.5,-34 349.5,-14 164.5,-14"/>
</g>
<!-- m:HazmatDeclarationType -->
<g id="node3" class="node">
<title>m:HazmatDeclarationType</title>
<g id="a_node3_0"><a xlink:href="../../m/HazmatDeclarationType/#diagram" xlink:title="A data type for a declaration of hazardous materials within transported goods." target="_top">
<text text-anchor="start" x="413.5" y="-20.4" font-family="Helvetica,sans-Serif" font-size="12.00" fill="#000000">m:HazmatDeclarationType</text>
</a>
</g>
<polygon fill="none" stroke="#000000" points="411,-15.5 411,-32.5 558,-32.5 558,-15.5 411,-15.5"/>
</g>
<!-- m:ShipmentHazmatDeclaration&#45;&gt;m:HazmatDeclarationType -->
<g id="edge2" class="edge">
<title>m:ShipmentHazmatDeclaration&#45;&gt;m:HazmatDeclarationType</title>
<path fill="none" stroke="#000000" d="M352.1623,-24C368.2431,-24 384.8334,-24 400.6002,-24"/>
<polygon fill="#000000" stroke="#000000" points="400.8288,-27.5001 410.8288,-24 400.8287,-20.5001 400.8288,-27.5001"/>
<text text-anchor="middle" x="381.5" y="-27.4" font-family="Helvetica,sans-Serif" font-size="12.00" fill="#000000">type</text>
</g>
<!-- Types -->
<g id="node2" class="node">
<title>Types</title>
<text text-anchor="start" x="2.5" y="-21.4" font-family="Helvetica,sans-Serif" font-weight="bold" font-size="12.00" fill="#000000">Types</text>
<g id="a_node2_1"><a xlink:href="../../m/ShipmentType/#diagram" xlink:title="A data type for a shipment of goods from one place to another." target="_top">
<polygon fill="#ebebeb" stroke="transparent" points="1.5,-1 1.5,-16 94.5,-16 94.5,-1 1.5,-1"/>
<text text-anchor="start" x="2.5" y="-5.4" font-family="Helvetica,sans-Serif" font-size="12.00" fill="#000000">m:ShipmentType</text>
</a>
</g>
<polygon fill="#000000" stroke="#000000" points=".5,-16 .5,-16 95.5,-16 95.5,-16 .5,-16"/>
<polygon fill="none" stroke="#000000" points="0,0 0,-32 95,-32 95,0 0,0"/>
</g>
<!-- Types&#45;&gt;m:ShipmentHazmatDeclaration -->
<g id="edge1" class="edge">
<title>Types:top&#45;&gt;m:ShipmentHazmatDeclaration</title>
<path fill="none" stroke="#000000" d="M94.5,-24C112.9137,-24 132.5011,-24 151.4667,-24"/>
<polygon fill="#000000" stroke="#000000" points="151.6218,-27.5001 161.6218,-24 151.6217,-20.5001 151.6218,-27.5001"/>
<text text-anchor="middle" x="128.5" y="-27.4" font-family="Helvetica,sans-Serif" font-size="12.00" fill="#000000">has&#45;a</text>
</g>
</g>
</svg>
