<?xml version="1.0" encoding="UTF-8" standalone="no"?>
<!DOCTYPE svg PUBLIC "-//W3C//DTD SVG 1.1//EN"
 "http://www.w3.org/Graphics/SVG/1.1/DTD/svg11.dtd">
<!-- Generated by graphviz version 2.40.1 (20161225.0304)
 -->
<!-- Title: graphic Pages: 1 -->
<svg width="512pt" height="86pt"
 viewBox="0.00 0.00 512.00 86.00" xmlns="http://www.w3.org/2000/svg" xmlns:xlink="http://www.w3.org/1999/xlink">
<g id="graph0" class="graph" transform="scale(1 1) rotate(0) translate(4 82)">
<title>graphic</title>
<polygon fill="#ffffff" stroke="transparent" points="-4,4 -4,-82 508,-82 508,4 -4,4"/>
<!-- mo:RangeSettingData -->
<g id="node1" class="node">
<title>mo:RangeSettingData</title>
<text text-anchor="start" x="69.5" y="-9.9" font-family="Helvetica,sans-Serif" font-weight="bold" font-size="12.00" fill="#000000">mo:RangeSettingData</text>
<polygon fill="none" stroke="#ff0000" stroke-width="5" points="66,-2.5 66,-22.5 199,-22.5 199,-2.5 66,-2.5"/>
</g>
<!-- mo:RangeValueSettingDataType -->
<g id="node3" class="node">
<title>mo:RangeValueSettingDataType</title>
<g id="a_node3_0"><a xlink:href="../../mo/RangeValueSettingDataType/#diagram" xlink:title="A data type for a setting that is specified by a value or measure within a given range." target="_top">
<text text-anchor="start" x="326" y="-8.9" font-family="Helvetica,sans-Serif" font-size="12.00" fill="#000000">mo:RangeValueSettingDataType</text>
</a>
</g>
<polygon fill="none" stroke="#000000" points="324,-4 324,-21 504,-21 504,-4 324,-4"/>
</g>
<!-- mo:RangeSettingData&#45;&gt;mo:RangeValueSettingDataType -->
<g id="edge2" class="edge">
<title>mo:RangeSettingData&#45;&gt;mo:RangeValueSettingDataType</title>
<path fill="none" stroke="#000000" d="M201.7232,-12.5C235.4268,-12.5 276.583,-12.5 313.6537,-12.5"/>
<polygon fill="#000000" stroke="#000000" points="313.9916,-16.0001 323.9916,-12.5 313.9915,-9.0001 313.9916,-16.0001"/>
<text text-anchor="middle" x="294.5" y="-15.9" font-family="Helvetica,sans-Serif" font-size="12.00" fill="#000000">type</text>
</g>
<!-- SubstitutionGroup -->
<g id="node2" class="node">
<title>SubstitutionGroup</title>
<g id="a_node2_1"><a xlink:href="../../mo/ValueSettingData/#diagram" xlink:title="A setting that is specified by a value or measure." target="_top">
<text text-anchor="start" x="2.5" y="-65.9" font-family="Helvetica,sans-Serif" font-size="12.00" fill="#000000">mo:ValueSettingData: mo:ValueSettingDataType</text>
</a>
</g>
<polygon fill="none" stroke="#000000" points="0,-61 0,-78 265,-78 265,-61 0,-61"/>
</g>
<!-- SubstitutionGroup&#45;&gt;mo:RangeSettingData -->
<g id="edge1" class="edge">
<title>SubstitutionGroup&#45;&gt;mo:RangeSettingData</title>
<path fill="none" stroke="#000000" d="M132.5,-50.9163C132.5,-42.4809 132.5,-32.7214 132.5,-25.1501"/>
<polygon fill="#000000" stroke="#000000" points="129.0001,-50.9472 132.5,-60.9473 136.0001,-50.9473 129.0001,-50.9472"/>
<text text-anchor="middle" x="123" y="-39.9" font-family="Helvetica,sans-Serif" font-size="12.00" fill="#000000">substitution group</text>
</g>
</g>
</svg>
