<?xml version="1.0" encoding="UTF-8" standalone="no"?>
<!DOCTYPE svg PUBLIC "-//W3C//DTD SVG 1.1//EN"
 "http://www.w3.org/Graphics/SVG/1.1/DTD/svg11.dtd">
<!-- Generated by graphviz version 2.40.1 (20161225.0304)
 -->
<!-- Title: graphic Pages: 1 -->
<svg width="441pt" height="45pt"
 viewBox="0.00 0.00 441.00 45.00" xmlns="http://www.w3.org/2000/svg" xmlns:xlink="http://www.w3.org/1999/xlink">
<g id="graph0" class="graph" transform="scale(1 1) rotate(0) translate(4 41)">
<title>graphic</title>
<polygon fill="#ffffff" stroke="transparent" points="-4,4 -4,-41 437,-41 437,4 -4,4"/>
<!-- j:SentenceIssuerEntity -->
<g id="node1" class="node">
<title>j:SentenceIssuerEntity</title>
<text text-anchor="start" x="161" y="-21.4" font-family="Helvetica,sans-Serif" font-weight="bold" font-size="12.00" fill="#000000">j:SentenceIssuerEntity</text>
<polygon fill="none" stroke="#ff0000" stroke-width="5" points="157.5,-14 157.5,-34 294.5,-34 294.5,-14 157.5,-14"/>
</g>
<!-- nc:EntityType -->
<g id="node3" class="node">
<title>nc:EntityType</title>
<g id="a_node3_0"><a xlink:href="../../nc/EntityType/#diagram" xlink:title="A data type for a person, organization, or item." target="_top">
<text text-anchor="start" x="358.5" y="-20.4" font-family="Helvetica,sans-Serif" font-size="12.00" fill="#000000">nc:EntityType</text>
</a>
</g>
<polygon fill="none" stroke="#000000" points="356,-15.5 356,-32.5 433,-32.5 433,-15.5 356,-15.5"/>
</g>
<!-- j:SentenceIssuerEntity&#45;&gt;nc:EntityType -->
<g id="edge2" class="edge">
<title>j:SentenceIssuerEntity&#45;&gt;nc:EntityType</title>
<path fill="none" stroke="#000000" d="M297.4592,-24C313.6382,-24 330.4616,-24 345.4672,-24"/>
<polygon fill="#000000" stroke="#000000" points="345.5352,-27.5001 355.5351,-24 345.5351,-20.5001 345.5352,-27.5001"/>
<text text-anchor="middle" x="326.5" y="-27.4" font-family="Helvetica,sans-Serif" font-size="12.00" fill="#000000">type</text>
</g>
<!-- Types -->
<g id="node2" class="node">
<title>Types</title>
<text text-anchor="start" x="2" y="-21.4" font-family="Helvetica,sans-Serif" font-weight="bold" font-size="12.00" fill="#000000">Types</text>
<g id="a_node2_1"><a xlink:href="../../j/SentenceType/#diagram" xlink:title="A data type for a punishment resulting from conviction of charges in a court case." target="_top">
<polygon fill="#ebebeb" stroke="transparent" points="1,-1 1,-16 87,-16 87,-1 1,-1"/>
<text text-anchor="start" x="2" y="-5.4" font-family="Helvetica,sans-Serif" font-size="12.00" fill="#000000">j:SentenceType</text>
</a>
</g>
<polygon fill="#000000" stroke="#000000" points="0,-16 0,-16 88,-16 88,-16 0,-16"/>
<polygon fill="none" stroke="#000000" points="0,0 0,-32 88,-32 88,0 0,0"/>
</g>
<!-- Types&#45;&gt;j:SentenceIssuerEntity -->
<g id="edge1" class="edge">
<title>Types:top&#45;&gt;j:SentenceIssuerEntity</title>
<path fill="none" stroke="#000000" d="M87,-24C105.7169,-24 125.8514,-24 144.8265,-24"/>
<polygon fill="#000000" stroke="#000000" points="144.9301,-27.5001 154.9301,-24 144.93,-20.5001 144.9301,-27.5001"/>
<text text-anchor="middle" x="121.5" y="-27.4" font-family="Helvetica,sans-Serif" font-size="12.00" fill="#000000">has&#45;a</text>
</g>
</g>
</svg>
