<?xml version="1.0" encoding="UTF-8" standalone="no"?>
<!DOCTYPE svg PUBLIC "-//W3C//DTD SVG 1.1//EN"
 "http://www.w3.org/Graphics/SVG/1.1/DTD/svg11.dtd">
<!-- Generated by graphviz version 2.40.1 (20161225.0304)
 -->
<!-- Title: graphic Pages: 1 -->
<svg width="541pt" height="45pt"
 viewBox="0.00 0.00 541.00 45.00" xmlns="http://www.w3.org/2000/svg" xmlns:xlink="http://www.w3.org/1999/xlink">
<g id="graph0" class="graph" transform="scale(1 1) rotate(0) translate(4 41)">
<title>graphic</title>
<polygon fill="#ffffff" stroke="transparent" points="-4,4 -4,-41 537,-41 537,4 -4,4"/>
<!-- j:BookingTelephoneCallDate -->
<g id="node1" class="node">
<title>j:BookingTelephoneCallDate</title>
<text text-anchor="start" x="231" y="-21.4" font-family="Helvetica,sans-Serif" font-weight="bold" font-size="12.00" fill="#000000">j:BookingTelephoneCallDate</text>
<polygon fill="none" stroke="#ff0000" stroke-width="5" points="227.5,-14 227.5,-34 398.5,-34 398.5,-14 227.5,-14"/>
</g>
<!-- nc:DateType -->
<g id="node3" class="node">
<title>nc:DateType</title>
<g id="a_node3_0"><a xlink:href="../../nc/DateType/#diagram" xlink:title="A data type for a calendar date." target="_top">
<text text-anchor="start" x="462.5" y="-20.4" font-family="Helvetica,sans-Serif" font-size="12.00" fill="#000000">nc:DateType</text>
</a>
</g>
<polygon fill="none" stroke="#000000" points="460,-15.5 460,-32.5 533,-32.5 533,-15.5 460,-15.5"/>
</g>
<!-- j:BookingTelephoneCallDate&#45;&gt;nc:DateType -->
<g id="edge2" class="edge">
<title>j:BookingTelephoneCallDate&#45;&gt;nc:DateType</title>
<path fill="none" stroke="#000000" d="M401.2564,-24C417.9539,-24 434.8058,-24 449.596,-24"/>
<polygon fill="#000000" stroke="#000000" points="449.9694,-27.5001 459.9694,-24 449.9694,-20.5001 449.9694,-27.5001"/>
<text text-anchor="middle" x="430.5" y="-27.4" font-family="Helvetica,sans-Serif" font-size="12.00" fill="#000000">type</text>
</g>
<!-- Types -->
<g id="node2" class="node">
<title>Types</title>
<text text-anchor="start" x="2" y="-21.4" font-family="Helvetica,sans-Serif" font-weight="bold" font-size="12.00" fill="#000000">Types</text>
<g id="a_node2_1"><a xlink:href="../../j/BookingTelephoneCallType/#diagram" xlink:title="A data type for a telephone call a subject makes while being booked or detained from an arrest." target="_top">
<polygon fill="#ebebeb" stroke="transparent" points="1,-1 1,-16 157,-16 157,-1 1,-1"/>
<text text-anchor="start" x="2" y="-5.4" font-family="Helvetica,sans-Serif" font-size="12.00" fill="#000000">j:BookingTelephoneCallType</text>
</a>
</g>
<polygon fill="#000000" stroke="#000000" points="0,-16 0,-16 158,-16 158,-16 0,-16"/>
<polygon fill="none" stroke="#000000" points="0,0 0,-32 158,-32 158,0 0,0"/>
</g>
<!-- Types&#45;&gt;j:BookingTelephoneCallDate -->
<g id="edge1" class="edge">
<title>Types:top&#45;&gt;j:BookingTelephoneCallDate</title>
<path fill="none" stroke="#000000" d="M157,-24C175.5955,-24 195.4378,-24 214.5205,-24"/>
<polygon fill="#000000" stroke="#000000" points="214.7241,-27.5001 224.724,-24 214.724,-20.5001 214.7241,-27.5001"/>
<text text-anchor="middle" x="191.5" y="-27.4" font-family="Helvetica,sans-Serif" font-size="12.00" fill="#000000">has&#45;a</text>
</g>
</g>
</svg>
