<?xml version="1.0" encoding="UTF-8" standalone="no"?>
<!DOCTYPE svg PUBLIC "-//W3C//DTD SVG 1.1//EN"
 "http://www.w3.org/Graphics/SVG/1.1/DTD/svg11.dtd">
<!-- Generated by graphviz version 2.40.1 (20161225.0304)
 -->
<!-- Title: graphic Pages: 1 -->
<svg width="466pt" height="86pt"
 viewBox="0.00 0.00 466.00 86.00" xmlns="http://www.w3.org/2000/svg" xmlns:xlink="http://www.w3.org/1999/xlink">
<g id="graph0" class="graph" transform="scale(1 1) rotate(0) translate(4 82)">
<title>graphic</title>
<polygon fill="#ffffff" stroke="transparent" points="-4,4 -4,-82 462,-82 462,4 -4,4"/>
<!-- j:VisitationSupervisingOfficialEnforcement -->
<g id="node1" class="node">
<title>j:VisitationSupervisingOfficialEnforcement</title>
<text text-anchor="start" x="6.5" y="-9.9" font-family="Helvetica,sans-Serif" font-weight="bold" font-size="12.00" fill="#000000">j:VisitationSupervisingOfficialEnforcement</text>
<polygon fill="none" stroke="#ff0000" stroke-width="5" points="2.5,-2.5 2.5,-22.5 254.5,-22.5 254.5,-2.5 2.5,-2.5"/>
</g>
<!-- j:EnforcementOfficialType -->
<g id="node3" class="node">
<title>j:EnforcementOfficialType</title>
<g id="a_node3_0"><a xlink:href="../../j/EnforcementOfficialType/#diagram" xlink:title="A data type for a person involved in the enforcement of law." target="_top">
<text text-anchor="start" x="318" y="-8.9" font-family="Helvetica,sans-Serif" font-size="12.00" fill="#000000">j:EnforcementOfficialType</text>
</a>
</g>
<polygon fill="none" stroke="#000000" points="316,-4 316,-21 458,-21 458,-4 316,-4"/>
</g>
<!-- j:VisitationSupervisingOfficialEnforcement&#45;&gt;j:EnforcementOfficialType -->
<g id="edge2" class="edge">
<title>j:VisitationSupervisingOfficialEnforcement&#45;&gt;j:EnforcementOfficialType</title>
<path fill="none" stroke="#000000" d="M257.3713,-12.5C273.7093,-12.5 290.0553,-12.5 305.3651,-12.5"/>
<polygon fill="#000000" stroke="#000000" points="305.7859,-16.0001 315.7858,-12.5 305.7858,-9.0001 305.7859,-16.0001"/>
<text text-anchor="middle" x="286.5" y="-15.9" font-family="Helvetica,sans-Serif" font-size="12.00" fill="#000000">type</text>
</g>
<!-- SubstitutionGroup -->
<g id="node2" class="node">
<title>SubstitutionGroup</title>
<g id="a_node2_1"><a xlink:href="../../j/VisitationSupervisingOfficialAbstract/#diagram" xlink:title="A data concept for an official who supervised a visit." target="_top">
<text text-anchor="start" x="29.5" y="-65.9" font-family="Helvetica,sans-Serif" font-size="12.00" fill="#000000">j:VisitationSupervisingOfficialAbstract</text>
</a>
</g>
<polygon fill="none" stroke="#000000" points="27,-61 27,-78 230,-78 230,-61 27,-61"/>
</g>
<!-- SubstitutionGroup&#45;&gt;j:VisitationSupervisingOfficialEnforcement -->
<g id="edge1" class="edge">
<title>SubstitutionGroup&#45;&gt;j:VisitationSupervisingOfficialEnforcement</title>
<path fill="none" stroke="#000000" d="M128.5,-50.9163C128.5,-42.4809 128.5,-32.7214 128.5,-25.1501"/>
<polygon fill="#000000" stroke="#000000" points="125.0001,-50.9472 128.5,-60.9473 132.0001,-50.9473 125.0001,-50.9472"/>
<text text-anchor="middle" x="119" y="-39.9" font-family="Helvetica,sans-Serif" font-size="12.00" fill="#000000">substitution group</text>
</g>
</g>
</svg>
