<?xml version="1.0" encoding="UTF-8" standalone="no"?>
<!DOCTYPE svg PUBLIC "-//W3C//DTD SVG 1.1//EN"
 "http://www.w3.org/Graphics/SVG/1.1/DTD/svg11.dtd">
<!-- Generated by graphviz version 2.40.1 (20161225.0304)
 -->
<!-- Title: graphic Pages: 1 -->
<svg width="480pt" height="45pt"
 viewBox="0.00 0.00 480.00 45.00" xmlns="http://www.w3.org/2000/svg" xmlns:xlink="http://www.w3.org/1999/xlink">
<g id="graph0" class="graph" transform="scale(1 1) rotate(0) translate(4 41)">
<title>graphic</title>
<polygon fill="#ffffff" stroke="transparent" points="-4,4 -4,-41 476,-41 476,4 -4,4"/>
<!-- im:AuthorizationEndDate -->
<g id="node1" class="node">
<title>im:AuthorizationEndDate</title>
<text text-anchor="start" x="190" y="-21.4" font-family="Helvetica,sans-Serif" font-weight="bold" font-size="12.00" fill="#000000">im:AuthorizationEndDate</text>
<polygon fill="none" stroke="#ff0000" stroke-width="5" points="186.5,-14 186.5,-34 337.5,-34 337.5,-14 186.5,-14"/>
</g>
<!-- nc:DateType -->
<g id="node3" class="node">
<title>nc:DateType</title>
<g id="a_node3_0"><a xlink:href="../../nc/DateType/#diagram" xlink:title="A data type for a calendar date." target="_top">
<text text-anchor="start" x="401.5" y="-20.4" font-family="Helvetica,sans-Serif" font-size="12.00" fill="#000000">nc:DateType</text>
</a>
</g>
<polygon fill="none" stroke="#000000" points="399,-15.5 399,-32.5 472,-32.5 472,-15.5 399,-15.5"/>
</g>
<!-- im:AuthorizationEndDate&#45;&gt;nc:DateType -->
<g id="edge2" class="edge">
<title>im:AuthorizationEndDate&#45;&gt;nc:DateType</title>
<path fill="none" stroke="#000000" d="M340.1216,-24C356.7837,-24 373.8747,-24 388.9029,-24"/>
<polygon fill="#000000" stroke="#000000" points="388.9469,-27.5001 398.9469,-24 388.9469,-20.5001 388.9469,-27.5001"/>
<text text-anchor="middle" x="369.5" y="-27.4" font-family="Helvetica,sans-Serif" font-size="12.00" fill="#000000">type</text>
</g>
<!-- Types -->
<g id="node2" class="node">
<title>Types</title>
<text text-anchor="start" x="2.5" y="-21.4" font-family="Helvetica,sans-Serif" font-weight="bold" font-size="12.00" fill="#000000">Types</text>
<g id="a_node2_1"><a xlink:href="../../im/AuthorizationType/#diagram" xlink:title="A data type for the official permission granted to a person to perform a task or function." target="_top">
<polygon fill="#ebebeb" stroke="transparent" points="1.5,-1 1.5,-16 116.5,-16 116.5,-1 1.5,-1"/>
<text text-anchor="start" x="2.5" y="-5.4" font-family="Helvetica,sans-Serif" font-size="12.00" fill="#000000">im:AuthorizationType</text>
</a>
</g>
<polygon fill="#000000" stroke="#000000" points=".5,-16 .5,-16 117.5,-16 117.5,-16 .5,-16"/>
<polygon fill="none" stroke="#000000" points="0,0 0,-32 117,-32 117,0 0,0"/>
</g>
<!-- Types&#45;&gt;im:AuthorizationEndDate -->
<g id="edge1" class="edge">
<title>Types:top&#45;&gt;im:AuthorizationEndDate</title>
<path fill="none" stroke="#000000" d="M116.5,-24C135.0215,-24 154.8692,-24 173.7641,-24"/>
<polygon fill="#000000" stroke="#000000" points="173.8461,-27.5001 183.8461,-24 173.846,-20.5001 173.8461,-27.5001"/>
<text text-anchor="middle" x="150.5" y="-27.4" font-family="Helvetica,sans-Serif" font-size="12.00" fill="#000000">has&#45;a</text>
</g>
</g>
</svg>
