<?xml version="1.0" encoding="UTF-8" standalone="no"?>
<!DOCTYPE svg PUBLIC "-//W3C//DTD SVG 1.1//EN"
 "http://www.w3.org/Graphics/SVG/1.1/DTD/svg11.dtd">
<!-- Generated by graphviz version 2.40.1 (20161225.0304)
 -->
<!-- Title: graphic Pages: 1 -->
<svg width="437pt" height="60pt"
 viewBox="0.00 0.00 437.00 59.50" xmlns="http://www.w3.org/2000/svg" xmlns:xlink="http://www.w3.org/1999/xlink">
<g id="graph0" class="graph" transform="scale(1 1) rotate(0) translate(4 55.5)">
<title>graphic</title>
<polygon fill="#ffffff" stroke="transparent" points="-4,4 -4,-55.5 433,-55.5 433,4 -4,4"/>
<!-- nc:SourceText -->
<g id="node1" class="node">
<title>nc:SourceText</title>
<text text-anchor="start" x="209" y="-35.9" font-family="Helvetica,sans-Serif" font-weight="bold" font-size="12.00" fill="#000000">nc:SourceText</text>
<polygon fill="none" stroke="#ff0000" stroke-width="5" points="205.5,-28.5 205.5,-48.5 296.5,-48.5 296.5,-28.5 205.5,-28.5"/>
</g>
<!-- nc:TextType -->
<g id="node3" class="node">
<title>nc:TextType</title>
<g id="a_node3_0"><a xlink:href="../../nc/TextType/#diagram" xlink:title="A data type for a character string." target="_top">
<text text-anchor="start" x="360.5" y="-34.9" font-family="Helvetica,sans-Serif" font-size="12.00" fill="#000000">nc:TextType</text>
</a>
</g>
<polygon fill="none" stroke="#000000" points="358,-30 358,-47 429,-47 429,-30 358,-30"/>
</g>
<!-- nc:SourceText&#45;&gt;nc:TextType -->
<g id="edge2" class="edge">
<title>nc:SourceText&#45;&gt;nc:TextType</title>
<path fill="none" stroke="#000000" d="M299.244,-38.5C314.8577,-38.5 332.1225,-38.5 347.564,-38.5"/>
<polygon fill="#000000" stroke="#000000" points="347.9203,-42.0001 357.9203,-38.5 347.9203,-35.0001 347.9203,-42.0001"/>
<text text-anchor="middle" x="328.5" y="-41.9" font-family="Helvetica,sans-Serif" font-size="12.00" fill="#000000">type</text>
</g>
<!-- Types -->
<g id="node2" class="node">
<title>Types</title>
<text text-anchor="start" x="2" y="-35.9" font-family="Helvetica,sans-Serif" font-weight="bold" font-size="12.00" fill="#000000">Types</text>
<g id="a_node2_1"><a xlink:href="../../em/CredentialClassType/#diagram" xlink:title="A data type for a credential class. Example structures: Experience, Training etc" target="_top">
<polygon fill="#ebebeb" stroke="transparent" points="1,-15.5 1,-30.5 135,-30.5 135,-15.5 1,-15.5"/>
<text text-anchor="start" x="2" y="-19.9" font-family="Helvetica,sans-Serif" font-size="12.00" fill="#000000">em:CredentialClassType</text>
</a>
</g>
<g id="a_node2_2"><a xlink:href="../../nc/MetadataType/#diagram" xlink:title="A data type for information that further qualifies primary data; data about data." target="_top">
<text text-anchor="start" x="2" y="-4.9" font-family="Helvetica,sans-Serif" font-size="12.00" fill="#000000">nc:MetadataType</text>
</a>
</g>
<polygon fill="#000000" stroke="#000000" points="0,-30.5 0,-30.5 136,-30.5 136,-30.5 0,-30.5"/>
<polygon fill="none" stroke="#000000" points="0,0 0,-47 136,-47 136,0 0,0"/>
</g>
<!-- Types&#45;&gt;nc:SourceText -->
<g id="edge1" class="edge">
<title>Types:top&#45;&gt;nc:SourceText</title>
<path fill="none" stroke="#000000" d="M135,-38.5C153.7764,-38.5 174.2623,-38.5 192.7221,-38.5"/>
<polygon fill="#000000" stroke="#000000" points="192.7454,-42.0001 202.7454,-38.5 192.7453,-35.0001 192.7454,-42.0001"/>
<text text-anchor="middle" x="169.5" y="-41.9" font-family="Helvetica,sans-Serif" font-size="12.00" fill="#000000">has&#45;a</text>
</g>
</g>
</svg>
