<?xml version="1.0" encoding="UTF-8" standalone="no"?>
<!DOCTYPE svg PUBLIC "-//W3C//DTD SVG 1.1//EN"
 "http://www.w3.org/Graphics/SVG/1.1/DTD/svg11.dtd">
<!-- Generated by graphviz version 2.40.1 (20161225.0304)
 -->
<!-- Title: graphic Pages: 1 -->
<svg width="345pt" height="86pt"
 viewBox="0.00 0.00 345.00 86.00" xmlns="http://www.w3.org/2000/svg" xmlns:xlink="http://www.w3.org/1999/xlink">
<g id="graph0" class="graph" transform="scale(1 1) rotate(0) translate(4 82)">
<title>graphic</title>
<polygon fill="#ffffff" stroke="transparent" points="-4,4 -4,-82 341,-82 341,4 -4,4"/>
<!-- nc:DeviceStoredVideoBinary -->
<g id="node1" class="node">
<title>nc:DeviceStoredVideoBinary</title>
<text text-anchor="start" x="16.5" y="-9.9" font-family="Helvetica,sans-Serif" font-weight="bold" font-size="12.00" fill="#000000">nc:DeviceStoredVideoBinary</text>
<polygon fill="none" stroke="#ff0000" stroke-width="5" points="12.5,-2.5 12.5,-22.5 184.5,-22.5 184.5,-2.5 12.5,-2.5"/>
</g>
<!-- nc:BinaryType -->
<g id="node3" class="node">
<title>nc:BinaryType</title>
<g id="a_node3_0"><a xlink:href="../../nc/BinaryType/#diagram" xlink:title="A data type for a digital representation of an object encoded in a binary format." target="_top">
<text text-anchor="start" x="258.5" y="-8.9" font-family="Helvetica,sans-Serif" font-size="12.00" fill="#000000">nc:BinaryType</text>
</a>
</g>
<polygon fill="none" stroke="#000000" points="256,-4 256,-21 337,-21 337,-4 256,-4"/>
</g>
<!-- nc:DeviceStoredVideoBinary&#45;&gt;nc:BinaryType -->
<g id="edge2" class="edge">
<title>nc:DeviceStoredVideoBinary&#45;&gt;nc:BinaryType</title>
<path fill="none" stroke="#000000" d="M187.0758,-12.5C207.1308,-12.5 227.7628,-12.5 245.6306,-12.5"/>
<polygon fill="#000000" stroke="#000000" points="245.8062,-16.0001 255.8061,-12.5 245.8061,-9.0001 245.8062,-16.0001"/>
<text text-anchor="middle" x="226.5" y="-15.9" font-family="Helvetica,sans-Serif" font-size="12.00" fill="#000000">type</text>
</g>
<!-- SubstitutionGroup -->
<g id="node2" class="node">
<title>SubstitutionGroup</title>
<g id="a_node2_1"><a xlink:href="../../nc/DeviceStoredInformationAbstract/#diagram" xlink:title="A data concept for a call, message, file, communication, or other kind of information stored on a device." target="_top">
<text text-anchor="start" x="2.5" y="-65.9" font-family="Helvetica,sans-Serif" font-size="12.00" fill="#000000">nc:DeviceStoredInformationAbstract</text>
</a>
</g>
<polygon fill="none" stroke="#000000" points="0,-61 0,-78 197,-78 197,-61 0,-61"/>
</g>
<!-- SubstitutionGroup&#45;&gt;nc:DeviceStoredVideoBinary -->
<g id="edge1" class="edge">
<title>SubstitutionGroup&#45;&gt;nc:DeviceStoredVideoBinary</title>
<path fill="none" stroke="#000000" d="M98.5,-50.9163C98.5,-42.4809 98.5,-32.7214 98.5,-25.1501"/>
<polygon fill="#000000" stroke="#000000" points="95.0001,-50.9472 98.5,-60.9473 102.0001,-50.9473 95.0001,-50.9472"/>
<text text-anchor="middle" x="89" y="-39.9" font-family="Helvetica,sans-Serif" font-size="12.00" fill="#000000">substitution group</text>
</g>
</g>
</svg>
