<?xml version="1.0" encoding="UTF-8" standalone="no"?>
<!DOCTYPE svg PUBLIC "-//W3C//DTD SVG 1.1//EN"
 "http://www.w3.org/Graphics/SVG/1.1/DTD/svg11.dtd">
<!-- Generated by graphviz version 2.40.1 (20161225.0304)
 -->
<!-- Title: graphic Pages: 1 -->
<svg width="569pt" height="116pt"
 viewBox="0.00 0.00 569.00 116.00" xmlns="http://www.w3.org/2000/svg" xmlns:xlink="http://www.w3.org/1999/xlink">
<g id="graph0" class="graph" transform="scale(1 1) rotate(0) translate(4 112)">
<title>graphic</title>
<polygon fill="#ffffff" stroke="transparent" points="-4,4 -4,-112 565,-112 565,4 -4,4"/>
<!-- j:ConveyanceAugmentationType -->
<g id="node1" class="node">
<title>j:ConveyanceAugmentationType</title>
<text text-anchor="start" x="216.5" y="-39.9" font-family="Helvetica,sans-Serif" font-weight="bold" font-size="12.00" fill="#000000">j:ConveyanceAugmentationType</text>
<g id="a_node1_0"><a xlink:href="../../j/ConveyanceJointlyRegisteredIndicator/#diagram" xlink:title="True if a conveyance is jointly registered; false otherwise." target="_top">
<polygon fill="#ebebeb" stroke="transparent" points="215.5,-19.5 215.5,-34.5 556.5,-34.5 556.5,-19.5 215.5,-19.5"/>
<text text-anchor="start" x="216.5" y="-23.9" font-family="Helvetica,sans-Serif" font-size="12.00" fill="#000000">j:ConveyanceJointlyRegisteredIndicator: niem&#45;xs:boolean [0&#45;n]</text>
</a>
</g>
<g id="a_node1_1"><a xlink:href="../../j/ConveyanceStateAssignedVINIndicator/#diagram" xlink:title="True if the VIN was state assigned rather than manufacturer or owner assigned; false otherwise." target="_top">
<text text-anchor="start" x="216.5" y="-8.9" font-family="Helvetica,sans-Serif" font-size="12.00" fill="#000000">j:ConveyanceStateAssignedVINIndicator: niem&#45;xs:boolean [0&#45;n]</text>
</a>
</g>
<polygon fill="#ff0000" stroke="#ff0000" points="210.5,-34.5 210.5,-34.5 561.5,-34.5 561.5,-34.5 210.5,-34.5"/>
<polygon fill="none" stroke="#ff0000" stroke-width="5" points="212.5,-2.5 212.5,-52.5 558.5,-52.5 558.5,-2.5 212.5,-2.5"/>
</g>
<!-- Properties -->
<g id="node2" class="node">
<title>Properties</title>
<text text-anchor="start" x="2.5" y="-39.9" font-family="Helvetica,sans-Serif" font-weight="bold" font-size="12.00" fill="#000000">Properties</text>
<g id="a_node2_2"><a xlink:href="../../j/ConveyanceAugmentation/#diagram" xlink:title="Additional information about a conveyance." target="_top">
<polygon fill="#ebebeb" stroke="transparent" points="1.5,-19.5 1.5,-34.5 150.5,-34.5 150.5,-19.5 1.5,-19.5"/>
<text text-anchor="start" x="2.5" y="-23.9" font-family="Helvetica,sans-Serif" font-size="12.00" fill="#000000">j:ConveyanceAugmentation</text>
</a>
</g>
<polygon fill="#000000" stroke="#000000" points=".5,-34.5 .5,-34.5 151.5,-34.5 151.5,-34.5 .5,-34.5"/>
<polygon fill="none" stroke="#000000" points="0,-18.5 0,-50.5 151,-50.5 151,-18.5 0,-18.5"/>
</g>
<!-- Properties&#45;&gt;j:ConveyanceAugmentationType -->
<g id="edge1" class="edge">
<title>Properties:top&#45;&gt;j:ConveyanceAugmentationType:top</title>
<path fill="none" stroke="#000000" d="M150.5,-42.5C175.6649,-42.5 184.3891,-42.5 205.3154,-42.5"/>
<polygon fill="#000000" stroke="#000000" points="205.5,-46.0001 215.5,-42.5 205.5,-39.0001 205.5,-46.0001"/>
<text text-anchor="middle" x="180.5" y="-45.9" font-family="Helvetica,sans-Serif" font-size="12.00" fill="#000000">type</text>
</g>
<!-- structures:AugmentationType -->
<g id="node3" class="node">
<title>structures:AugmentationType</title>
<g id="a_node3_3"><a xlink:href="../../structures/AugmentationType/#diagram" xlink:title="A data type for a set of properties to be applied to a base type." target="_top">
<text text-anchor="start" x="307.5" y="-95.9" font-family="Helvetica,sans-Serif" font-size="12.00" fill="#000000">structures:AugmentationType</text>
</a>
</g>
<polygon fill="none" stroke="#000000" points="305,-91 305,-108 466,-108 466,-91 305,-91"/>
</g>
<!-- structures:AugmentationType&#45;&gt;j:ConveyanceAugmentationType -->
<g id="edge2" class="edge">
<title>structures:AugmentationType&#45;&gt;j:ConveyanceAugmentationType</title>
<path fill="none" stroke="#000000" d="M385.5,-90.8151C385.5,-84.3271 385.5,-74.9677 385.5,-65.4273"/>
<polygon fill="#000000" stroke="#000000" points="389.0001,-65.1311 385.5,-55.1312 382.0001,-65.1312 389.0001,-65.1311"/>
<text text-anchor="middle" x="376" y="-69.9" font-family="Helvetica,sans-Serif" font-size="12.00" fill="#000000">extension</text>
</g>
</g>
</svg>
