<?xml version="1.0" encoding="UTF-8" standalone="no"?>
<!DOCTYPE svg PUBLIC "-//W3C//DTD SVG 1.1//EN"
 "http://www.w3.org/Graphics/SVG/1.1/DTD/svg11.dtd">
<!-- Generated by graphviz version 2.40.1 (20161225.0304)
 -->
<!-- Title: graphic Pages: 1 -->
<svg width="477pt" height="86pt"
 viewBox="0.00 0.00 477.00 86.00" xmlns="http://www.w3.org/2000/svg" xmlns:xlink="http://www.w3.org/1999/xlink">
<g id="graph0" class="graph" transform="scale(1 1) rotate(0) translate(4 82)">
<title>graphic</title>
<polygon fill="#ffffff" stroke="transparent" points="-4,4 -4,-82 473,-82 473,4 -4,4"/>
<!-- j:StructurePublicCategoryCode -->
<g id="node1" class="node">
<title>j:StructurePublicCategoryCode</title>
<text text-anchor="start" x="6.5" y="-9.9" font-family="Helvetica,sans-Serif" font-weight="bold" font-size="12.00" fill="#000000">j:StructurePublicCategoryCode</text>
<polygon fill="none" stroke="#ff0000" stroke-width="5" points="2.5,-2.5 2.5,-22.5 188.5,-22.5 188.5,-2.5 2.5,-2.5"/>
</g>
<!-- ndex:StructurePublicCategoryCodeType -->
<g id="node3" class="node">
<title>ndex:StructurePublicCategoryCodeType</title>
<g id="a_node3_0"><a xlink:href="../../ndex/StructurePublicCategoryCodeType/#diagram" xlink:title="A data type for a code that identifies a non&#45;residential structure open to the public and/or maintained using tax dollars." target="_top">
<text text-anchor="start" x="252.5" y="-8.9" font-family="Helvetica,sans-Serif" font-size="12.00" fill="#000000">ndex:StructurePublicCategoryCodeType</text>
</a>
</g>
<polygon fill="none" stroke="#000000" points="250,-4 250,-21 469,-21 469,-4 250,-4"/>
</g>
<!-- j:StructurePublicCategoryCode&#45;&gt;ndex:StructurePublicCategoryCodeType -->
<g id="edge2" class="edge">
<title>j:StructurePublicCategoryCode&#45;&gt;ndex:StructurePublicCategoryCodeType</title>
<path fill="none" stroke="#000000" d="M191.1833,-12.5C206.9472,-12.5 223.4604,-12.5 239.724,-12.5"/>
<polygon fill="#000000" stroke="#000000" points="239.8092,-16.0001 249.8091,-12.5 239.8091,-9.0001 239.8092,-16.0001"/>
<text text-anchor="middle" x="220.5" y="-15.9" font-family="Helvetica,sans-Serif" font-size="12.00" fill="#000000">type</text>
</g>
<!-- SubstitutionGroup -->
<g id="node2" class="node">
<title>SubstitutionGroup</title>
<g id="a_node2_1"><a xlink:href="../../j/StructureCategoryAbstract/#diagram" xlink:title="A data concept for a specific kind of structure." target="_top">
<text text-anchor="start" x="21.5" y="-65.9" font-family="Helvetica,sans-Serif" font-size="12.00" fill="#000000">j:StructureCategoryAbstract</text>
</a>
</g>
<polygon fill="none" stroke="#000000" points="19.5,-61 19.5,-78 171.5,-78 171.5,-61 19.5,-61"/>
</g>
<!-- SubstitutionGroup&#45;&gt;j:StructurePublicCategoryCode -->
<g id="edge1" class="edge">
<title>SubstitutionGroup&#45;&gt;j:StructurePublicCategoryCode</title>
<path fill="none" stroke="#000000" d="M95.5,-50.9163C95.5,-42.4809 95.5,-32.7214 95.5,-25.1501"/>
<polygon fill="#000000" stroke="#000000" points="92.0001,-50.9472 95.5,-60.9473 99.0001,-50.9473 92.0001,-50.9472"/>
<text text-anchor="middle" x="86" y="-39.9" font-family="Helvetica,sans-Serif" font-size="12.00" fill="#000000">substitution group</text>
</g>
</g>
</svg>
