<?xml version="1.0" encoding="UTF-8" standalone="no"?>
<!DOCTYPE svg PUBLIC "-//W3C//DTD SVG 1.1//EN"
 "http://www.w3.org/Graphics/SVG/1.1/DTD/svg11.dtd">
<!-- Generated by graphviz version 2.40.1 (20161225.0304)
 -->
<!-- Title: graphic Pages: 1 -->
<svg width="534pt" height="45pt"
 viewBox="0.00 0.00 534.00 45.00" xmlns="http://www.w3.org/2000/svg" xmlns:xlink="http://www.w3.org/1999/xlink">
<g id="graph0" class="graph" transform="scale(1 1) rotate(0) translate(4 41)">
<title>graphic</title>
<polygon fill="#ffffff" stroke="transparent" points="-4,4 -4,-41 530,-41 530,4 -4,4"/>
<!-- em:AlertEffectiveDateTime -->
<g id="node1" class="node">
<title>em:AlertEffectiveDateTime</title>
<text text-anchor="start" x="208.5" y="-21.4" font-family="Helvetica,sans-Serif" font-weight="bold" font-size="12.00" fill="#000000">em:AlertEffectiveDateTime</text>
<polygon fill="none" stroke="#ff0000" stroke-width="5" points="204.5,-14 204.5,-34 364.5,-34 364.5,-14 204.5,-14"/>
</g>
<!-- niem&#45;xs:dateTime -->
<g id="node3" class="node">
<title>niem&#45;xs:dateTime</title>
<g id="a_node3_0"><a xlink:href="../../niem-xs/dateTime/#diagram" xlink:title="A data type for objects with integer&#45;valued year, month, day, hour and minute properties, a decimal&#45;valued second property, and a boolean timezoned property." target="_top">
<text text-anchor="start" x="428" y="-20.4" font-family="Helvetica,sans-Serif" font-size="12.00" fill="#000000">niem&#45;xs:dateTime</text>
</a>
</g>
<polygon fill="none" stroke="#000000" points="426,-15.5 426,-32.5 526,-32.5 526,-15.5 426,-15.5"/>
</g>
<!-- em:AlertEffectiveDateTime&#45;&gt;niem&#45;xs:dateTime -->
<g id="edge2" class="edge">
<title>em:AlertEffectiveDateTime&#45;&gt;niem&#45;xs:dateTime</title>
<path fill="none" stroke="#000000" d="M367.1027,-24C383.3879,-24 400.1904,-24 415.5772,-24"/>
<polygon fill="#000000" stroke="#000000" points="415.9797,-27.5001 425.9797,-24 415.9797,-20.5001 415.9797,-27.5001"/>
<text text-anchor="middle" x="396.5" y="-27.4" font-family="Helvetica,sans-Serif" font-size="12.00" fill="#000000">type</text>
</g>
<!-- Types -->
<g id="node2" class="node">
<title>Types</title>
<text text-anchor="start" x="2.5" y="-21.4" font-family="Helvetica,sans-Serif" font-weight="bold" font-size="12.00" fill="#000000">Types</text>
<g id="a_node2_1"><a xlink:href="../../em/AlertNotificationType/#diagram" xlink:title="A data type for an alert message" target="_top">
<polygon fill="#ebebeb" stroke="transparent" points="1.5,-1 1.5,-16 134.5,-16 134.5,-1 1.5,-1"/>
<text text-anchor="start" x="2.5" y="-5.4" font-family="Helvetica,sans-Serif" font-size="12.00" fill="#000000">em:AlertNotificationType</text>
</a>
</g>
<polygon fill="#000000" stroke="#000000" points=".5,-16 .5,-16 135.5,-16 135.5,-16 .5,-16"/>
<polygon fill="none" stroke="#000000" points="0,0 0,-32 135,-32 135,0 0,0"/>
</g>
<!-- Types&#45;&gt;em:AlertEffectiveDateTime -->
<g id="edge1" class="edge">
<title>Types:top&#45;&gt;em:AlertEffectiveDateTime</title>
<path fill="none" stroke="#000000" d="M134.5,-24C153.0425,-24 172.8743,-24 191.8438,-24"/>
<polygon fill="#000000" stroke="#000000" points="191.9755,-27.5001 201.9755,-24 191.9755,-20.5001 191.9755,-27.5001"/>
<text text-anchor="middle" x="168.5" y="-27.4" font-family="Helvetica,sans-Serif" font-size="12.00" fill="#000000">has&#45;a</text>
</g>
</g>
</svg>
