<?xml version="1.0" encoding="UTF-8" standalone="no"?>
<!DOCTYPE svg PUBLIC "-//W3C//DTD SVG 1.1//EN"
 "http://www.w3.org/Graphics/SVG/1.1/DTD/svg11.dtd">
<!-- Generated by graphviz version 2.40.1 (20161225.0304)
 -->
<!-- Title: graphic Pages: 1 -->
<svg width="586pt" height="45pt"
 viewBox="0.00 0.00 586.00 45.00" xmlns="http://www.w3.org/2000/svg" xmlns:xlink="http://www.w3.org/1999/xlink">
<g id="graph0" class="graph" transform="scale(1 1) rotate(0) translate(4 41)">
<title>graphic</title>
<polygon fill="#ffffff" stroke="transparent" points="-4,4 -4,-41 582,-41 582,4 -4,4"/>
<!-- m:VesselEnduranceMeasure -->
<g id="node1" class="node">
<title>m:VesselEnduranceMeasure</title>
<text text-anchor="start" x="228" y="-21.4" font-family="Helvetica,sans-Serif" font-weight="bold" font-size="12.00" fill="#000000">m:VesselEnduranceMeasure</text>
<polygon fill="none" stroke="#ff0000" stroke-width="5" points="224.5,-14 224.5,-34 395.5,-34 395.5,-14 224.5,-14"/>
</g>
<!-- nc:TimeMeasureType -->
<g id="node3" class="node">
<title>nc:TimeMeasureType</title>
<g id="a_node3_0"><a xlink:href="../../nc/TimeMeasureType/#diagram" xlink:title="A data type for a measure of an amount of time." target="_top">
<text text-anchor="start" x="459.5" y="-20.4" font-family="Helvetica,sans-Serif" font-size="12.00" fill="#000000">nc:TimeMeasureType</text>
</a>
</g>
<polygon fill="none" stroke="#000000" points="457,-15.5 457,-32.5 578,-32.5 578,-15.5 457,-15.5"/>
</g>
<!-- m:VesselEnduranceMeasure&#45;&gt;nc:TimeMeasureType -->
<g id="edge2" class="edge">
<title>m:VesselEnduranceMeasure&#45;&gt;nc:TimeMeasureType</title>
<path fill="none" stroke="#000000" d="M398.2996,-24C414.4963,-24 431.207,-24 446.8046,-24"/>
<polygon fill="#000000" stroke="#000000" points="446.8772,-27.5001 456.8772,-24 446.8771,-20.5001 446.8772,-27.5001"/>
<text text-anchor="middle" x="427.5" y="-27.4" font-family="Helvetica,sans-Serif" font-size="12.00" fill="#000000">type</text>
</g>
<!-- Types -->
<g id="node2" class="node">
<title>Types</title>
<text text-anchor="start" x="2.5" y="-21.4" font-family="Helvetica,sans-Serif" font-weight="bold" font-size="12.00" fill="#000000">Types</text>
<g id="a_node2_1"><a xlink:href="../../m/VesselAugmentationType/#diagram" xlink:title="A data type for additional information about a vessel." target="_top">
<polygon fill="#ebebeb" stroke="transparent" points="1.5,-1 1.5,-16 154.5,-16 154.5,-1 1.5,-1"/>
<text text-anchor="start" x="2.5" y="-5.4" font-family="Helvetica,sans-Serif" font-size="12.00" fill="#000000">m:VesselAugmentationType</text>
</a>
</g>
<polygon fill="#000000" stroke="#000000" points=".5,-16 .5,-16 155.5,-16 155.5,-16 .5,-16"/>
<polygon fill="none" stroke="#000000" points="0,0 0,-32 155,-32 155,0 0,0"/>
</g>
<!-- Types&#45;&gt;m:VesselEnduranceMeasure -->
<g id="edge1" class="edge">
<title>Types:top&#45;&gt;m:VesselEnduranceMeasure</title>
<path fill="none" stroke="#000000" d="M154.5,-24C172.9214,-24 192.5704,-24 211.4838,-24"/>
<polygon fill="#000000" stroke="#000000" points="211.5986,-27.5001 221.5986,-24 211.5986,-20.5001 211.5986,-27.5001"/>
<text text-anchor="middle" x="188.5" y="-27.4" font-family="Helvetica,sans-Serif" font-size="12.00" fill="#000000">has&#45;a</text>
</g>
</g>
</svg>
