<?xml version="1.0" encoding="UTF-8" standalone="no"?>
<!DOCTYPE svg PUBLIC "-//W3C//DTD SVG 1.1//EN"
 "http://www.w3.org/Graphics/SVG/1.1/DTD/svg11.dtd">
<!-- Generated by graphviz version 2.40.1 (20161225.0304)
 -->
<!-- Title: graphic Pages: 1 -->
<svg width="247pt" height="86pt"
 viewBox="0.00 0.00 247.00 86.00" xmlns="http://www.w3.org/2000/svg" xmlns:xlink="http://www.w3.org/1999/xlink">
<g id="graph0" class="graph" transform="scale(1 1) rotate(0) translate(4 82)">
<title>graphic</title>
<polygon fill="#ffffff" stroke="transparent" points="-4,4 -4,-82 243,-82 243,4 -4,4"/>
<!-- j:ItemDetailText -->
<g id="node1" class="node">
<title>j:ItemDetailText</title>
<text text-anchor="start" x="9.5" y="-9.9" font-family="Helvetica,sans-Serif" font-weight="bold" font-size="12.00" fill="#000000">j:ItemDetailText</text>
<polygon fill="none" stroke="#ff0000" stroke-width="5" points="6,-2.5 6,-22.5 103,-22.5 103,-2.5 6,-2.5"/>
</g>
<!-- nc:TextType -->
<g id="node3" class="node">
<title>nc:TextType</title>
<g id="a_node3_0"><a xlink:href="../../nc/TextType/#diagram" xlink:title="A data type for a character string." target="_top">
<text text-anchor="start" x="170.5" y="-8.9" font-family="Helvetica,sans-Serif" font-size="12.00" fill="#000000">nc:TextType</text>
</a>
</g>
<polygon fill="none" stroke="#000000" points="168,-4 168,-21 239,-21 239,-4 168,-4"/>
</g>
<!-- j:ItemDetailText&#45;&gt;nc:TextType -->
<g id="edge2" class="edge">
<title>j:ItemDetailText&#45;&gt;nc:TextType</title>
<path fill="none" stroke="#000000" d="M105.7773,-12.5C122.4885,-12.5 140.9317,-12.5 157.2517,-12.5"/>
<polygon fill="#000000" stroke="#000000" points="157.6301,-16.0001 167.6301,-12.5 157.63,-9.0001 157.6301,-16.0001"/>
<text text-anchor="middle" x="138.5" y="-15.9" font-family="Helvetica,sans-Serif" font-size="12.00" fill="#000000">type</text>
</g>
<!-- SubstitutionGroup -->
<g id="node2" class="node">
<title>SubstitutionGroup</title>
<g id="a_node2_1"><a xlink:href="../../j/ItemDetailAbstract/#diagram" xlink:title="A data concept for a feature or characteristic of a property item." target="_top">
<text text-anchor="start" x="2.5" y="-65.9" font-family="Helvetica,sans-Serif" font-size="12.00" fill="#000000">j:ItemDetailAbstract</text>
</a>
</g>
<polygon fill="none" stroke="#000000" points="0,-61 0,-78 109,-78 109,-61 0,-61"/>
</g>
<!-- SubstitutionGroup&#45;&gt;j:ItemDetailText -->
<g id="edge1" class="edge">
<title>SubstitutionGroup&#45;&gt;j:ItemDetailText</title>
<path fill="none" stroke="#000000" d="M54.5,-50.9163C54.5,-42.4809 54.5,-32.7214 54.5,-25.1501"/>
<polygon fill="#000000" stroke="#000000" points="51.0001,-50.9472 54.5,-60.9473 58.0001,-50.9473 51.0001,-50.9472"/>
<text text-anchor="middle" x="45" y="-39.9" font-family="Helvetica,sans-Serif" font-size="12.00" fill="#000000">substitution group</text>
</g>
</g>
</svg>
