<?xml version="1.0" encoding="UTF-8" standalone="no"?>
<!DOCTYPE svg PUBLIC "-//W3C//DTD SVG 1.1//EN"
 "http://www.w3.org/Graphics/SVG/1.1/DTD/svg11.dtd">
<!-- Generated by graphviz version 2.40.1 (20161225.0304)
 -->
<!-- Title: graphic Pages: 1 -->
<svg width="523pt" height="45pt"
 viewBox="0.00 0.00 523.00 45.00" xmlns="http://www.w3.org/2000/svg" xmlns:xlink="http://www.w3.org/1999/xlink">
<g id="graph0" class="graph" transform="scale(1 1) rotate(0) translate(4 41)">
<title>graphic</title>
<polygon fill="#ffffff" stroke="transparent" points="-4,4 -4,-41 519,-41 519,4 -4,4"/>
<!-- scr:StatementIndicator -->
<g id="node1" class="node">
<title>scr:StatementIndicator</title>
<text text-anchor="start" x="226.5" y="-21.4" font-family="Helvetica,sans-Serif" font-weight="bold" font-size="12.00" fill="#000000">scr:StatementIndicator</text>
<polygon fill="none" stroke="#ff0000" stroke-width="5" points="222.5,-14 222.5,-34 360.5,-34 360.5,-14 222.5,-14"/>
</g>
<!-- niem&#45;xs:boolean -->
<g id="node3" class="node">
<title>niem&#45;xs:boolean</title>
<g id="a_node3_0"><a xlink:href="../../niem-xs/boolean/#diagram" xlink:title="A data type for binary&#45;valued logic (true/false)." target="_top">
<text text-anchor="start" x="424.5" y="-20.4" font-family="Helvetica,sans-Serif" font-size="12.00" fill="#000000">niem&#45;xs:boolean</text>
</a>
</g>
<polygon fill="none" stroke="#000000" points="422,-15.5 422,-32.5 515,-32.5 515,-15.5 422,-15.5"/>
</g>
<!-- scr:StatementIndicator&#45;&gt;niem&#45;xs:boolean -->
<g id="edge2" class="edge">
<title>scr:StatementIndicator&#45;&gt;niem&#45;xs:boolean</title>
<path fill="none" stroke="#000000" d="M363.2375,-24C379.2767,-24 396.0784,-24 411.43,-24"/>
<polygon fill="#000000" stroke="#000000" points="411.7991,-27.5001 421.7991,-24 411.7991,-20.5001 411.7991,-27.5001"/>
<text text-anchor="middle" x="392.5" y="-27.4" font-family="Helvetica,sans-Serif" font-size="12.00" fill="#000000">type</text>
</g>
<!-- Types -->
<g id="node2" class="node">
<title>Types</title>
<text text-anchor="start" x="2.5" y="-21.4" font-family="Helvetica,sans-Serif" font-weight="bold" font-size="12.00" fill="#000000">Types</text>
<g id="a_node2_1"><a xlink:href="../../scr/InterviewEncounterType/#diagram" xlink:title="A data type for a meeting between one or more representatives of an agency of the Department of Homeland Security (DHS) and a PERSON who is being interviewed." target="_top">
<polygon fill="#ebebeb" stroke="transparent" points="1.5,-1 1.5,-16 152.5,-16 152.5,-1 1.5,-1"/>
<text text-anchor="start" x="2.5" y="-5.4" font-family="Helvetica,sans-Serif" font-size="12.00" fill="#000000">scr:InterviewEncounterType</text>
</a>
</g>
<polygon fill="#000000" stroke="#000000" points=".5,-16 .5,-16 153.5,-16 153.5,-16 .5,-16"/>
<polygon fill="none" stroke="#000000" points="0,0 0,-32 153,-32 153,0 0,0"/>
</g>
<!-- Types&#45;&gt;scr:StatementIndicator -->
<g id="edge1" class="edge">
<title>Types:top&#45;&gt;scr:StatementIndicator</title>
<path fill="none" stroke="#000000" d="M152.5,-24C171.0123,-24 190.9115,-24 209.704,-24"/>
<polygon fill="#000000" stroke="#000000" points="209.7147,-27.5001 219.7146,-24 209.7146,-20.5001 209.7147,-27.5001"/>
<text text-anchor="middle" x="186.5" y="-27.4" font-family="Helvetica,sans-Serif" font-size="12.00" fill="#000000">has&#45;a</text>
</g>
</g>
</svg>
