<?xml version="1.0" encoding="UTF-8" standalone="no"?>
<!DOCTYPE svg PUBLIC "-//W3C//DTD SVG 1.1//EN"
 "http://www.w3.org/Graphics/SVG/1.1/DTD/svg11.dtd">
<!-- Generated by graphviz version 2.40.1 (20161225.0304)
 -->
<!-- Title: graphic Pages: 1 -->
<svg width="942pt" height="205pt"
 viewBox="0.00 0.00 942.00 204.50" xmlns="http://www.w3.org/2000/svg" xmlns:xlink="http://www.w3.org/1999/xlink">
<g id="graph0" class="graph" transform="scale(1 1) rotate(0) translate(4 200.5)">
<title>graphic</title>
<polygon fill="#ffffff" stroke="transparent" points="-4,4 -4,-200.5 938,-200.5 938,4 -4,4"/>
<!-- j:DocumentLocationAssociationType -->
<g id="node1" class="node">
<title>j:DocumentLocationAssociationType</title>
<text text-anchor="start" x="237.5" y="-76.4" font-family="Helvetica,sans-Serif" font-weight="bold" font-size="12.00" fill="#000000">j:DocumentLocationAssociationType</text>
<g id="a_node1_0"><a xlink:href="../../nc/Document/#diagram" xlink:title="A paper or electronic document." target="_top">
<polygon fill="#ebebeb" stroke="transparent" points="236.5,-56 236.5,-71 535.5,-71 535.5,-56 236.5,-56"/>
<text text-anchor="start" x="237.5" y="-60.4" font-family="Helvetica,sans-Serif" font-size="12.00" fill="#000000">nc:Document: nc:DocumentType [0&#45;n]</text>
</a>
</g>
<g id="a_node1_1"><a xlink:href="../../nc/Location/#diagram" xlink:title="A geospatial location." target="_top">
<text text-anchor="start" x="237.5" y="-45.4" font-family="Helvetica,sans-Serif" font-size="12.00" fill="#000000">nc:Location: nc:LocationType [0&#45;n]</text>
</a>
</g>
<g id="a_node1_2"><a xlink:href="../../j/DocumentLocationAssociationAugmentationPoint/#diagram" xlink:title="An augmentation point for DocumentLocationAssociationType." target="_top">
<polygon fill="#ebebeb" stroke="transparent" points="236.5,-26 236.5,-41 535.5,-41 535.5,-26 236.5,-26"/>
<text text-anchor="start" x="237.5" y="-30.4" font-family="Helvetica,sans-Serif" font-size="12.00" fill="#000000">j:DocumentLocationAssociationAugmentationPoint [0&#45;n]</text>
</a>
</g>
<polygon fill="#ff0000" stroke="#ff0000" points="231.5,-71 231.5,-71 540.5,-71 540.5,-71 231.5,-71"/>
<polygon fill="none" stroke="#ff0000" stroke-width="5" points="233.5,-23.5 233.5,-88.5 537.5,-88.5 537.5,-23.5 233.5,-23.5"/>
</g>
<!-- subst_d11e11939 -->
<g id="node2" class="node">
<title>subst_d11e11939</title>
<g id="a_node2_3"><a xlink:href="../../nc/Document/#diagram" xlink:title="&lt;TABLE&gt;" target="_top">
<text text-anchor="start" x="616.5" y="-86.4" font-family="Helvetica,sans-Serif" font-weight="bold" font-size="12.00" fill="#000000">Substitution group nc:Document</text>
</a>
</g>
<g id="a_node2_4"><a xlink:href="../../it/AdditionalDocument/#diagram" xlink:title="An applied augmentation for type nc:DocumentType." target="_top">
<polygon fill="#ebebeb" stroke="transparent" points="615.5,-66 615.5,-81 895.5,-81 895.5,-66 615.5,-66"/>
<text text-anchor="start" x="616.5" y="-70.4" font-family="Helvetica,sans-Serif" font-size="12.00" fill="#000000">it:AdditionalDocument: it:AdditionalDocumentType</text>
</a>
</g>
<g id="a_node2_5"><a xlink:href="../../it/AdditionalInformation/#diagram" xlink:title="An applied augmentation for type nc:DocumentType." target="_top">
<text text-anchor="start" x="616.5" y="-55.4" font-family="Helvetica,sans-Serif" font-size="12.00" fill="#000000">it:AdditionalInformation: it:AdditionalInformationType</text>
</a>
</g>
<polygon fill="#000000" stroke="#000000" points="614.5,-81 614.5,-81 896.5,-81 896.5,-81 614.5,-81"/>
<polygon fill="none" stroke="#000000" points="614.5,-50.5 614.5,-97.5 896.5,-97.5 896.5,-50.5 614.5,-50.5"/>
</g>
<!-- j:DocumentLocationAssociationType&#45;&gt;subst_d11e11939 -->
<g id="edge1" class="edge">
<title>j:DocumentLocationAssociationType:e&#45;&gt;subst_d11e11939:w</title>
<path fill="none" stroke="#000000" d="M545.5641,-64.6687C574.1278,-68.6444 581.8866,-89 615.5,-89"/>
<polygon fill="#000000" stroke="#000000" points="545.7101,-61.1708 535.5,-64 545.2459,-68.1554 545.7101,-61.1708"/>
</g>
<!-- subst_d11e15908 -->
<g id="node3" class="node">
<title>subst_d11e15908</title>
<g id="a_node3_6"><a xlink:href="../../nc/Location/#diagram" xlink:title="&lt;TABLE&gt;" target="_top">
<text text-anchor="start" x="579.5" y="-21.4" font-family="Helvetica,sans-Serif" font-weight="bold" font-size="12.00" fill="#000000">Substitution group nc:Location</text>
</a>
</g>
<g id="a_node3_7"><a xlink:href="../../em/NotificationTargetLocation/#diagram" xlink:title="A notification target location" target="_top">
<polygon fill="#ebebeb" stroke="transparent" points="578.5,-1 578.5,-16 933.5,-16 933.5,-1 578.5,-1"/>
<text text-anchor="start" x="579.5" y="-5.4" font-family="Helvetica,sans-Serif" font-size="12.00" fill="#000000">em:NotificationTargetLocation: em:NotificationTargetLocationType</text>
</a>
</g>
<polygon fill="#000000" stroke="#000000" points="577.5,-16 577.5,-16 934.5,-16 934.5,-16 577.5,-16"/>
<polygon fill="none" stroke="#000000" points="577,0 577,-32 934,-32 934,0 577,0"/>
</g>
<!-- j:DocumentLocationAssociationType&#45;&gt;subst_d11e15908 -->
<g id="edge2" class="edge">
<title>j:DocumentLocationAssociationType:e&#45;&gt;subst_d11e15908:w</title>
<path fill="none" stroke="#000000" d="M545.3662,-45.9538C557.8403,-40.1499 560.5464,-24 578.5,-24"/>
<polygon fill="#000000" stroke="#000000" points="544.5808,-42.5421 535.5,-48 546.0024,-49.3962 544.5808,-42.5421"/>
</g>
<!-- Properties -->
<g id="node4" class="node">
<title>Properties</title>
<text text-anchor="start" x="2" y="-76.4" font-family="Helvetica,sans-Serif" font-weight="bold" font-size="12.00" fill="#000000">Properties</text>
<g id="a_node4_8"><a xlink:href="../../j/DocumentLocationAssociation/#diagram" xlink:title="An association between a document and a location." target="_top">
<polygon fill="#ebebeb" stroke="transparent" points="1,-56 1,-71 171,-71 171,-56 1,-56"/>
<text text-anchor="start" x="2" y="-60.4" font-family="Helvetica,sans-Serif" font-size="12.00" fill="#000000">j:DocumentLocationAssociation</text>
</a>
</g>
<polygon fill="#000000" stroke="#000000" points="0,-71 0,-71 172,-71 172,-71 0,-71"/>
<polygon fill="none" stroke="#000000" points="0,-55 0,-87 172,-87 172,-55 0,-55"/>
</g>
<!-- Properties&#45;&gt;j:DocumentLocationAssociationType -->
<g id="edge3" class="edge">
<title>Properties:top&#45;&gt;j:DocumentLocationAssociationType:top</title>
<path fill="none" stroke="#000000" d="M171,-79C196.3585,-79 205.1498,-79 226.2371,-79"/>
<polygon fill="#000000" stroke="#000000" points="226.5,-82.5001 236.5,-79 226.5,-75.5001 226.5,-82.5001"/>
<text text-anchor="middle" x="201.5" y="-82.4" font-family="Helvetica,sans-Serif" font-size="12.00" fill="#000000">type</text>
</g>
<!-- nc:AssociationType -->
<g id="node5" class="node">
<title>nc:AssociationType</title>
<g id="a_node5_9"><a xlink:href="../../nc/AssociationType/#diagram" xlink:title="A data type for an association, connection, relationship, or involvement somehow linking people, things, and/or activities together." target="_top">
<text text-anchor="start" x="333.5" y="-131.4" font-family="Helvetica,sans-Serif" font-size="12.00" fill="#000000">nc:AssociationType</text>
</a>
</g>
<polygon fill="none" stroke="#000000" points="331,-126.5 331,-143.5 440,-143.5 440,-126.5 331,-126.5"/>
</g>
<!-- nc:AssociationType&#45;&gt;j:DocumentLocationAssociationType -->
<g id="edge4" class="edge">
<title>nc:AssociationType&#45;&gt;j:DocumentLocationAssociationType</title>
<path fill="none" stroke="#000000" d="M385.5,-126.4117C385.5,-120.1025 385.5,-110.9911 385.5,-101.4049"/>
<polygon fill="#000000" stroke="#000000" points="389.0001,-101.3408 385.5,-91.3408 382.0001,-101.3409 389.0001,-101.3408"/>
<text text-anchor="middle" x="376" y="-105.65" font-family="Helvetica,sans-Serif" font-size="12.00" fill="#000000">extension</text>
</g>
<!-- structures:AssociationType -->
<g id="node6" class="node">
<title>structures:AssociationType</title>
<g id="a_node6_10"><a xlink:href="../../structures/AssociationType/#diagram" xlink:title="A data type for a relationship between two or more objects, including any properties of that relationship." target="_top">
<text text-anchor="start" x="313.5" y="-184.4" font-family="Helvetica,sans-Serif" font-size="12.00" fill="#000000">structures:AssociationType</text>
</a>
</g>
<polygon fill="none" stroke="#000000" points="311,-179.5 311,-196.5 460,-196.5 460,-179.5 311,-179.5"/>
</g>
<!-- structures:AssociationType&#45;&gt;nc:AssociationType -->
<g id="edge5" class="edge">
<title>structures:AssociationType&#45;&gt;nc:AssociationType</title>
<path fill="none" stroke="#000000" d="M385.5,-179.411C385.5,-172.5124 385.5,-162.5696 385.5,-153.84"/>
<polygon fill="#000000" stroke="#000000" points="389.0001,-153.7518 385.5,-143.7519 382.0001,-153.7519 389.0001,-153.7518"/>
<text text-anchor="middle" x="376" y="-158.4" font-family="Helvetica,sans-Serif" font-size="12.00" fill="#000000">extension</text>
</g>
</g>
</svg>
