<?xml version="1.0" encoding="UTF-8" standalone="no"?>
<!DOCTYPE svg PUBLIC "-//W3C//DTD SVG 1.1//EN"
 "http://www.w3.org/Graphics/SVG/1.1/DTD/svg11.dtd">
<!-- Generated by graphviz version 2.40.1 (20161225.0304)
 -->
<!-- Title: graphic Pages: 1 -->
<svg width="471pt" height="45pt"
 viewBox="0.00 0.00 471.00 45.00" xmlns="http://www.w3.org/2000/svg" xmlns:xlink="http://www.w3.org/1999/xlink">
<g id="graph0" class="graph" transform="scale(1 1) rotate(0) translate(4 41)">
<title>graphic</title>
<polygon fill="#ffffff" stroke="transparent" points="-4,4 -4,-41 467,-41 467,4 -4,4"/>
<!-- mo:ApprovalAuthorityAugmentationPoint -->
<g id="node1" class="node">
<title>mo:ApprovalAuthorityAugmentationPoint</title>
<text text-anchor="start" x="219" y="-21.4" font-family="Helvetica,sans-Serif" font-weight="bold" font-size="12.00" fill="#000000">mo:ApprovalAuthorityAugmentationPoint</text>
<polygon fill="none" stroke="#ff0000" stroke-width="5" points="215.5,-14 215.5,-34 460.5,-34 460.5,-14 215.5,-14"/>
</g>
<!-- Types -->
<g id="node2" class="node">
<title>Types</title>
<text text-anchor="start" x="2" y="-21.4" font-family="Helvetica,sans-Serif" font-weight="bold" font-size="12.00" fill="#000000">Types</text>
<g id="a_node2_0"><a xlink:href="../../mo/ApprovalAuthorityType/#diagram" xlink:title="A data type for a group of metadata that describes and identifies a person, group, board, or organization that has approving authority." target="_top">
<polygon fill="#ebebeb" stroke="transparent" points="1,-1 1,-16 145,-16 145,-1 1,-1"/>
<text text-anchor="start" x="2" y="-5.4" font-family="Helvetica,sans-Serif" font-size="12.00" fill="#000000">mo:ApprovalAuthorityType</text>
</a>
</g>
<polygon fill="#000000" stroke="#000000" points="0,-16 0,-16 146,-16 146,-16 0,-16"/>
<polygon fill="none" stroke="#000000" points="0,0 0,-32 146,-32 146,0 0,0"/>
</g>
<!-- Types&#45;&gt;mo:ApprovalAuthorityAugmentationPoint -->
<g id="edge1" class="edge">
<title>Types:top&#45;&gt;mo:ApprovalAuthorityAugmentationPoint</title>
<path fill="none" stroke="#000000" d="M145,-24C163.6893,-24 183.3966,-24 202.791,-24"/>
<polygon fill="#000000" stroke="#000000" points="202.8976,-27.5001 212.8976,-24 202.8975,-20.5001 202.8976,-27.5001"/>
<text text-anchor="middle" x="179.5" y="-27.4" font-family="Helvetica,sans-Serif" font-size="12.00" fill="#000000">has&#45;a</text>
</g>
</g>
</svg>
