<?xml version="1.0" encoding="UTF-8" standalone="no"?>
<!DOCTYPE svg PUBLIC "-//W3C//DTD SVG 1.1//EN"
 "http://www.w3.org/Graphics/SVG/1.1/DTD/svg11.dtd">
<!-- Generated by graphviz version 2.40.1 (20161225.0304)
 -->
<!-- Title: graphic Pages: 1 -->
<svg width="593pt" height="117pt"
 viewBox="0.00 0.00 593.00 116.50" xmlns="http://www.w3.org/2000/svg" xmlns:xlink="http://www.w3.org/1999/xlink">
<g id="graph0" class="graph" transform="scale(1 1) rotate(0) translate(4 112.5)">
<title>graphic</title>
<polygon fill="#ffffff" stroke="transparent" points="-4,4 -4,-112.5 589,-112.5 589,4 -4,4"/>
<!-- j:ConveyanceRegistrationPlateCategoryAbstract -->
<g id="node1" class="node">
<title>j:ConveyanceRegistrationPlateCategoryAbstract</title>
<text text-anchor="start" x="271" y="-92.9" font-family="Helvetica,sans-Serif" font-weight="bold" font-size="12.00" fill="#000000">j:ConveyanceRegistrationPlateCategoryAbstract</text>
<polygon fill="none" stroke="#ff0000" stroke-width="5" points="267.5,-85.5 267.5,-105.5 552.5,-105.5 552.5,-85.5 267.5,-85.5"/>
</g>
<!-- SubstitutableElements -->
<g id="node3" class="node">
<title>SubstitutableElements</title>
<text text-anchor="start" x="237" y="-35.9" font-family="Helvetica,sans-Serif" font-weight="bold" font-size="12.00" fill="#000000">Substitutable elements</text>
<g id="a_node3_0"><a xlink:href="../../j/ConveyanceRegistrationPlateCategoryCode/#diagram" xlink:title="A kind of registration plate or license plate of a conveyance." target="_top">
<polygon fill="#ebebeb" stroke="transparent" points="236,-15.5 236,-30.5 584,-30.5 584,-15.5 236,-15.5"/>
<text text-anchor="start" x="237" y="-19.9" font-family="Helvetica,sans-Serif" font-size="12.00" fill="#000000">j:ConveyanceRegistrationPlateCategoryCode: ncic:LITCodeType</text>
</a>
</g>
<g id="a_node3_1"><a xlink:href="../../j/ConveyanceRegistrationPlateCategoryText/#diagram" xlink:title="A kind of registration plate or license plate of a conveyance." target="_top">
<text text-anchor="start" x="237" y="-4.9" font-family="Helvetica,sans-Serif" font-size="12.00" fill="#000000">j:ConveyanceRegistrationPlateCategoryText: nc:TextType</text>
</a>
</g>
<polygon fill="#000000" stroke="#000000" points="235,-30.5 235,-30.5 585,-30.5 585,-30.5 235,-30.5"/>
<polygon fill="none" stroke="#000000" points="235,0 235,-47 585,-47 585,0 235,0"/>
</g>
<!-- j:ConveyanceRegistrationPlateCategoryAbstract&#45;&gt;SubstitutableElements -->
<g id="edge2" class="edge">
<title>j:ConveyanceRegistrationPlateCategoryAbstract&#45;&gt;SubstitutableElements</title>
<path fill="none" stroke="#000000" d="M410,-72.9771C410,-64.7398 410,-55.4022 410,-47.0755"/>
<polygon fill="#000000" stroke="#000000" points="406.5001,-72.9945 410,-82.9945 413.5001,-72.9946 406.5001,-72.9945"/>
<text text-anchor="middle" x="400.5" y="-61.9" font-family="Helvetica,sans-Serif" font-size="12.00" fill="#000000">substitutable for</text>
</g>
<!-- Types -->
<g id="node2" class="node">
<title>Types</title>
<text text-anchor="start" x="2" y="-92.9" font-family="Helvetica,sans-Serif" font-weight="bold" font-size="12.00" fill="#000000">Types</text>
<g id="a_node2_2"><a xlink:href="../../j/ConveyanceRegistrationType/#diagram" xlink:title="A data type for a registration of a conveyance with an authority." target="_top">
<polygon fill="#ebebeb" stroke="transparent" points="1,-72.5 1,-87.5 167,-87.5 167,-72.5 1,-72.5"/>
<text text-anchor="start" x="2" y="-76.9" font-family="Helvetica,sans-Serif" font-size="12.00" fill="#000000">j:ConveyanceRegistrationType</text>
</a>
</g>
<polygon fill="#000000" stroke="#000000" points="0,-87.5 0,-87.5 168,-87.5 168,-87.5 0,-87.5"/>
<polygon fill="none" stroke="#000000" points="0,-71.5 0,-103.5 168,-103.5 168,-71.5 0,-71.5"/>
</g>
<!-- Types&#45;&gt;j:ConveyanceRegistrationPlateCategoryAbstract -->
<g id="edge1" class="edge">
<title>Types:top&#45;&gt;j:ConveyanceRegistrationPlateCategoryAbstract</title>
<path fill="none" stroke="#000000" d="M167,-95.5C195.3035,-95.5 225.4614,-95.5 254.5579,-95.5"/>
<polygon fill="#000000" stroke="#000000" points="254.8006,-99.0001 264.8006,-95.5 254.8005,-92.0001 254.8006,-99.0001"/>
<text text-anchor="middle" x="201.5" y="-98.9" font-family="Helvetica,sans-Serif" font-size="12.00" fill="#000000">has&#45;a</text>
</g>
</g>
</svg>
