<?xml version="1.0" encoding="UTF-8" standalone="no"?>
<!DOCTYPE svg PUBLIC "-//W3C//DTD SVG 1.1//EN"
 "http://www.w3.org/Graphics/SVG/1.1/DTD/svg11.dtd">
<!-- Generated by graphviz version 2.40.1 (20161225.0304)
 -->
<!-- Title: graphic Pages: 1 -->
<svg width="809pt" height="135pt"
 viewBox="0.00 0.00 809.00 135.00" xmlns="http://www.w3.org/2000/svg" xmlns:xlink="http://www.w3.org/1999/xlink">
<g id="graph0" class="graph" transform="scale(1 1) rotate(0) translate(4 131)">
<title>graphic</title>
<polygon fill="#ffffff" stroke="transparent" points="-4,4 -4,-131 805,-131 805,4 -4,4"/>
<!-- nc:Obligation -->
<g id="node1" class="node">
<title>nc:Obligation</title>
<text text-anchor="start" x="443.5" y="-111.4" font-family="Helvetica,sans-Serif" font-weight="bold" font-size="12.00" fill="#000000">nc:Obligation</text>
<polygon fill="none" stroke="#ff0000" stroke-width="5" points="440,-104 440,-124 525,-124 525,-104 440,-104"/>
</g>
<!-- SubstitutableElements -->
<g id="node3" class="node">
<title>SubstitutableElements</title>
<text text-anchor="start" x="326.5" y="-55.4" font-family="Helvetica,sans-Serif" font-weight="bold" font-size="12.00" fill="#000000">Substitutable elements</text>
<g id="a_node3_0"><a xlink:href="../../hs/ChildSupportObligation/#diagram" xlink:title="An obligation to provide support for a child." target="_top">
<polygon fill="#ebebeb" stroke="transparent" points="325.5,-35 325.5,-50 640.5,-50 640.5,-35 325.5,-35"/>
<text text-anchor="start" x="326.5" y="-39.4" font-family="Helvetica,sans-Serif" font-size="12.00" fill="#000000">hs:ChildSupportObligation: hs:ChildSupportObligationType</text>
</a>
</g>
<polygon fill="#000000" stroke="#000000" points="324.5,-50 324.5,-50 641.5,-50 641.5,-50 324.5,-50"/>
<polygon fill="none" stroke="#000000" points="324,-34 324,-66 641,-66 641,-34 324,-34"/>
</g>
<!-- nc:Obligation&#45;&gt;SubstitutableElements -->
<g id="edge2" class="edge">
<title>nc:Obligation&#45;&gt;SubstitutableElements</title>
<path fill="none" stroke="#000000" d="M482.5,-91.3063C482.5,-82.9972 482.5,-73.7712 482.5,-66.1499"/>
<polygon fill="#000000" stroke="#000000" points="479.0001,-91.4892 482.5,-101.4892 486.0001,-91.4892 479.0001,-91.4892"/>
<text text-anchor="middle" x="473" y="-80.65" font-family="Helvetica,sans-Serif" font-size="12.00" fill="#000000">substitutable for</text>
</g>
<!-- nc:ObligationType -->
<g id="node4" class="node">
<title>nc:ObligationType</title>
<g id="a_node4_1"><a xlink:href="../../nc/ObligationType/#diagram" xlink:title="A data type for something that is owed to an entity." target="_top">
<text text-anchor="start" x="702.5" y="-110.4" font-family="Helvetica,sans-Serif" font-size="12.00" fill="#000000">nc:ObligationType</text>
</a>
</g>
<polygon fill="none" stroke="#000000" points="700,-105.5 700,-122.5 801,-122.5 801,-105.5 700,-105.5"/>
</g>
<!-- nc:Obligation&#45;&gt;nc:ObligationType -->
<g id="edge3" class="edge">
<title>nc:Obligation&#45;&gt;nc:ObligationType</title>
<path fill="none" stroke="#000000" d="M527.6595,-114C572.0865,-114 640.2261,-114 689.4608,-114"/>
<polygon fill="#000000" stroke="#000000" points="689.6647,-117.5001 699.6646,-114 689.6646,-110.5001 689.6647,-117.5001"/>
<text text-anchor="middle" x="670.5" y="-117.4" font-family="Helvetica,sans-Serif" font-size="12.00" fill="#000000">type</text>
</g>
<!-- Types -->
<g id="node2" class="node">
<title>Types</title>
<text text-anchor="start" x="2.5" y="-111.4" font-family="Helvetica,sans-Serif" font-weight="bold" font-size="12.00" fill="#000000">Types</text>
<g id="a_node2_2"><a xlink:href="../../it/DutyTaxFeeType/#diagram" xlink:title="A data type for a fee associated with a customs duty tax or tariff." target="_top">
<polygon fill="#ebebeb" stroke="transparent" points="1.5,-91 1.5,-106 256.5,-106 256.5,-91 1.5,-91"/>
<text text-anchor="start" x="2.5" y="-95.4" font-family="Helvetica,sans-Serif" font-size="12.00" fill="#000000">it:DutyTaxFeeType</text>
</a>
</g>
<g id="a_node2_3"><a xlink:href="../../j/ActivityObligationAssociationType/#diagram" xlink:title="A data type for an association between an activity and an obligation." target="_top">
<text text-anchor="start" x="2.5" y="-80.4" font-family="Helvetica,sans-Serif" font-size="12.00" fill="#000000">j:ActivityObligationAssociationType</text>
</a>
</g>
<g id="a_node2_4"><a xlink:href="../../j/ObligationComputationType/#diagram" xlink:title="A data type for a set of details describing the obligations assumed by subject as a part of supervised release conditions and requirements." target="_top">
<polygon fill="#ebebeb" stroke="transparent" points="1.5,-61 1.5,-76 256.5,-76 256.5,-61 1.5,-61"/>
<text text-anchor="start" x="2.5" y="-65.4" font-family="Helvetica,sans-Serif" font-size="12.00" fill="#000000">j:ObligationComputationType</text>
</a>
</g>
<g id="a_node2_5"><a xlink:href="../../j/ObligationDueToOrganizationAssociationType/#diagram" xlink:title="A data type for a relationship between an obligation and organization to which it is due." target="_top">
<text text-anchor="start" x="2.5" y="-50.4" font-family="Helvetica,sans-Serif" font-size="12.00" fill="#000000">j:ObligationDueToOrganizationAssociationType</text>
</a>
</g>
<g id="a_node2_6"><a xlink:href="../../j/ObligationDueToPersonAssociationType/#diagram" xlink:title="A data type for a relationship between a person and a service or financial obligation." target="_top">
<polygon fill="#ebebeb" stroke="transparent" points="1.5,-31 1.5,-46 256.5,-46 256.5,-31 1.5,-31"/>
<text text-anchor="start" x="2.5" y="-35.4" font-family="Helvetica,sans-Serif" font-size="12.00" fill="#000000">j:ObligationDueToPersonAssociationType</text>
</a>
</g>
<g id="a_node2_7"><a xlink:href="../../j/ObligationOrganizationAssociationType/#diagram" xlink:title="A data type for an association between an obligation and an organization." target="_top">
<text text-anchor="start" x="2.5" y="-20.4" font-family="Helvetica,sans-Serif" font-size="12.00" fill="#000000">j:ObligationOrganizationAssociationType</text>
</a>
</g>
<g id="a_node2_8"><a xlink:href="../../j/ObligationPersonAssociationType/#diagram" xlink:title="A data type for an association between an obligation and a person." target="_top">
<polygon fill="#ebebeb" stroke="transparent" points="1.5,-1 1.5,-16 256.5,-16 256.5,-1 1.5,-1"/>
<text text-anchor="start" x="2.5" y="-5.4" font-family="Helvetica,sans-Serif" font-size="12.00" fill="#000000">j:ObligationPersonAssociationType</text>
</a>
</g>
<polygon fill="#000000" stroke="#000000" points=".5,-106 .5,-106 257.5,-106 257.5,-106 .5,-106"/>
<polygon fill="none" stroke="#000000" points="0,0 0,-122 257,-122 257,0 0,0"/>
</g>
<!-- Types&#45;&gt;nc:Obligation -->
<g id="edge1" class="edge">
<title>Types:top&#45;&gt;nc:Obligation</title>
<path fill="none" stroke="#000000" d="M256.5,-114C314.8637,-114 381.7056,-114 427.468,-114"/>
<polygon fill="#000000" stroke="#000000" points="427.4766,-117.5001 437.4766,-114 427.4765,-110.5001 427.4766,-117.5001"/>
<text text-anchor="middle" x="290.5" y="-117.4" font-family="Helvetica,sans-Serif" font-size="12.00" fill="#000000">has&#45;a</text>
</g>
</g>
</svg>
