<?xml version="1.0" encoding="UTF-8" standalone="no"?>
<!DOCTYPE svg PUBLIC "-//W3C//DTD SVG 1.1//EN"
 "http://www.w3.org/Graphics/SVG/1.1/DTD/svg11.dtd">
<!-- Generated by graphviz version 2.40.1 (20161225.0304)
 -->
<!-- Title: graphic Pages: 1 -->
<svg width="558pt" height="45pt"
 viewBox="0.00 0.00 558.00 45.00" xmlns="http://www.w3.org/2000/svg" xmlns:xlink="http://www.w3.org/1999/xlink">
<g id="graph0" class="graph" transform="scale(1 1) rotate(0) translate(4 41)">
<title>graphic</title>
<polygon fill="#ffffff" stroke="transparent" points="-4,4 -4,-41 554,-41 554,4 -4,4"/>
<!-- em:CredentialID -->
<g id="node1" class="node">
<title>em:CredentialID</title>
<text text-anchor="start" x="277.5" y="-21.4" font-family="Helvetica,sans-Serif" font-weight="bold" font-size="12.00" fill="#000000">em:CredentialID</text>
<polygon fill="none" stroke="#ff0000" stroke-width="5" points="273.5,-14 273.5,-34 373.5,-34 373.5,-14 273.5,-14"/>
</g>
<!-- nc:IdentificationType -->
<g id="node3" class="node">
<title>nc:IdentificationType</title>
<g id="a_node3_0"><a xlink:href="../../nc/IdentificationType/#diagram" xlink:title="A data type for a representation of an identity." target="_top">
<text text-anchor="start" x="437.5" y="-20.4" font-family="Helvetica,sans-Serif" font-size="12.00" fill="#000000">nc:IdentificationType</text>
</a>
</g>
<polygon fill="none" stroke="#000000" points="435,-15.5 435,-32.5 550,-32.5 550,-15.5 435,-15.5"/>
</g>
<!-- em:CredentialID&#45;&gt;nc:IdentificationType -->
<g id="edge2" class="edge">
<title>em:CredentialID&#45;&gt;nc:IdentificationType</title>
<path fill="none" stroke="#000000" d="M376.0463,-24C391.5328,-24 408.6987,-24 424.9864,-24"/>
<polygon fill="#000000" stroke="#000000" points="424.9914,-27.5001 434.9913,-24 424.9913,-20.5001 424.9914,-27.5001"/>
<text text-anchor="middle" x="405.5" y="-27.4" font-family="Helvetica,sans-Serif" font-size="12.00" fill="#000000">type</text>
</g>
<!-- Types -->
<g id="node2" class="node">
<title>Types</title>
<text text-anchor="start" x="2" y="-21.4" font-family="Helvetica,sans-Serif" font-weight="bold" font-size="12.00" fill="#000000">Types</text>
<g id="a_node2_1"><a xlink:href="../../em/PersonCredentialInformationType/#diagram" xlink:title="A data type for information about a person&#39;s credential" target="_top">
<polygon fill="#ebebeb" stroke="transparent" points="1,-1 1,-16 203,-16 203,-1 1,-1"/>
<text text-anchor="start" x="2" y="-5.4" font-family="Helvetica,sans-Serif" font-size="12.00" fill="#000000">em:PersonCredentialInformationType</text>
</a>
</g>
<polygon fill="#000000" stroke="#000000" points="0,-16 0,-16 204,-16 204,-16 0,-16"/>
<polygon fill="none" stroke="#000000" points="0,0 0,-32 204,-32 204,0 0,0"/>
</g>
<!-- Types&#45;&gt;em:CredentialID -->
<g id="edge1" class="edge">
<title>Types:top&#45;&gt;em:CredentialID</title>
<path fill="none" stroke="#000000" d="M203,-24C221.7104,-24 242.0551,-24 260.6083,-24"/>
<polygon fill="#000000" stroke="#000000" points="260.7097,-27.5001 270.7097,-24 260.7096,-20.5001 260.7097,-27.5001"/>
<text text-anchor="middle" x="237.5" y="-27.4" font-family="Helvetica,sans-Serif" font-size="12.00" fill="#000000">has&#45;a</text>
</g>
</g>
</svg>
