<?xml version="1.0" encoding="UTF-8" standalone="no"?>
<!DOCTYPE svg PUBLIC "-//W3C//DTD SVG 1.1//EN"
 "http://www.w3.org/Graphics/SVG/1.1/DTD/svg11.dtd">
<!-- Generated by graphviz version 2.40.1 (20161225.0304)
 -->
<!-- Title: graphic Pages: 1 -->
<svg width="680pt" height="116pt"
 viewBox="0.00 0.00 680.00 116.00" xmlns="http://www.w3.org/2000/svg" xmlns:xlink="http://www.w3.org/1999/xlink">
<g id="graph0" class="graph" transform="scale(1 1) rotate(0) translate(4 112)">
<title>graphic</title>
<polygon fill="#ffffff" stroke="transparent" points="-4,4 -4,-112 676,-112 676,4 -4,4"/>
<!-- biom:LipCharacterizationCodeListType -->
<g id="node1" class="node">
<title>biom:LipCharacterizationCodeListType</title>
<text text-anchor="start" x="282" y="-39.9" font-family="Helvetica,sans-Serif" font-weight="bold" font-size="12.00" fill="#000000">biom:LipCharacterizationCodeListType</text>
<g id="a_node1_0"><a xlink:href="../../biom/LipCharacterizationCode/#diagram" xlink:title="A lip print characterization code" target="_top">
<polygon fill="#ebebeb" stroke="transparent" points="281,-19.5 281,-34.5 667,-34.5 667,-19.5 281,-19.5"/>
<text text-anchor="start" x="282" y="-23.9" font-family="Helvetica,sans-Serif" font-size="12.00" fill="#000000">biom:LipCharacterizationCode: biom:LipCharacterizationCodeType [0&#45;n]</text>
</a>
</g>
<g id="a_node1_1"><a xlink:href="../../biom/LipCharacterizationCodeListAugmentationPoint/#diagram" xlink:title="An augmentation point for LipCharacterizationCodeListType." target="_top">
<text text-anchor="start" x="282" y="-8.9" font-family="Helvetica,sans-Serif" font-size="12.00" fill="#000000">biom:LipCharacterizationCodeListAugmentationPoint [0&#45;n]</text>
</a>
</g>
<polygon fill="#ff0000" stroke="#ff0000" points="276,-34.5 276,-34.5 672,-34.5 672,-34.5 276,-34.5"/>
<polygon fill="none" stroke="#ff0000" stroke-width="5" points="278.5,-2.5 278.5,-52.5 669.5,-52.5 669.5,-2.5 278.5,-2.5"/>
</g>
<!-- Properties -->
<g id="node2" class="node">
<title>Properties</title>
<text text-anchor="start" x="2.5" y="-39.9" font-family="Helvetica,sans-Serif" font-weight="bold" font-size="12.00" fill="#000000">Properties</text>
<g id="a_node2_2"><a xlink:href="../../biom/LowerLipCharacterizationCodeList/#diagram" xlink:title="A lower lip print characterization code list" target="_top">
<polygon fill="#ebebeb" stroke="transparent" points="1.5,-19.5 1.5,-34.5 216.5,-34.5 216.5,-19.5 1.5,-19.5"/>
<text text-anchor="start" x="2.5" y="-23.9" font-family="Helvetica,sans-Serif" font-size="12.00" fill="#000000">biom:LowerLipCharacterizationCodeList</text>
</a>
</g>
<g id="a_node2_3"><a xlink:href="../../biom/UpperLipCharacterizationCodeList/#diagram" xlink:title="An upper lip print characterization code list" target="_top">
<text text-anchor="start" x="2.5" y="-8.9" font-family="Helvetica,sans-Serif" font-size="12.00" fill="#000000">biom:UpperLipCharacterizationCodeList</text>
</a>
</g>
<polygon fill="#000000" stroke="#000000" points=".5,-34.5 .5,-34.5 217.5,-34.5 217.5,-34.5 .5,-34.5"/>
<polygon fill="none" stroke="#000000" points="0,-4 0,-51 217,-51 217,-4 0,-4"/>
</g>
<!-- Properties&#45;&gt;biom:LipCharacterizationCodeListType -->
<g id="edge1" class="edge">
<title>Properties:top&#45;&gt;biom:LipCharacterizationCodeListType:top</title>
<path fill="none" stroke="#000000" d="M216.5,-42.5C241.4714,-42.5 250.1284,-42.5 270.8937,-42.5"/>
<polygon fill="#000000" stroke="#000000" points="271,-46.0001 281,-42.5 271,-39.0001 271,-46.0001"/>
<text text-anchor="middle" x="246.5" y="-45.9" font-family="Helvetica,sans-Serif" font-size="12.00" fill="#000000">type</text>
</g>
<!-- structures:ObjectType -->
<g id="node3" class="node">
<title>structures:ObjectType</title>
<g id="a_node3_4"><a xlink:href="../../structures/ObjectType/#diagram" xlink:title="A data type for a thing with its own lifespan that has some existence." target="_top">
<text text-anchor="start" x="415" y="-95.9" font-family="Helvetica,sans-Serif" font-size="12.00" fill="#000000">structures:ObjectType</text>
</a>
</g>
<polygon fill="none" stroke="#000000" points="413,-91 413,-108 535,-108 535,-91 413,-91"/>
</g>
<!-- structures:ObjectType&#45;&gt;biom:LipCharacterizationCodeListType -->
<g id="edge2" class="edge">
<title>structures:ObjectType&#45;&gt;biom:LipCharacterizationCodeListType</title>
<path fill="none" stroke="#000000" d="M474,-90.8151C474,-84.3271 474,-74.9677 474,-65.4273"/>
<polygon fill="#000000" stroke="#000000" points="477.5001,-65.1311 474,-55.1312 470.5001,-65.1312 477.5001,-65.1311"/>
<text text-anchor="middle" x="464.5" y="-69.9" font-family="Helvetica,sans-Serif" font-size="12.00" fill="#000000">extension</text>
</g>
</g>
</svg>
