<?xml version="1.0" encoding="UTF-8" standalone="no"?>
<!DOCTYPE svg PUBLIC "-//W3C//DTD SVG 1.1//EN"
 "http://www.w3.org/Graphics/SVG/1.1/DTD/svg11.dtd">
<!-- Generated by graphviz version 2.40.1 (20161225.0304)
 -->
<!-- Title: graphic Pages: 1 -->
<svg width="372pt" height="154pt"
 viewBox="0.00 0.00 372.00 153.50" xmlns="http://www.w3.org/2000/svg" xmlns:xlink="http://www.w3.org/1999/xlink">
<g id="graph0" class="graph" transform="scale(1 1) rotate(0) translate(4 149.5)">
<title>graphic</title>
<polygon fill="#ffffff" stroke="transparent" points="-4,4 -4,-149.5 368,-149.5 368,4 -4,4"/>
<!-- mo:OPEXCodeType -->
<g id="node1" class="node">
<title>mo:OPEXCodeType</title>
<text text-anchor="start" x="152" y="-25.4" font-family="Helvetica,sans-Serif" font-weight="bold" font-size="12.00" fill="#000000">mo:OPEXCodeType</text>
<g id="a_node1_0"><a xlink:href="../../structures/SimpleObjectAttributeGroup/#diagram" xlink:title="A group of attributes that are applicable to objects, to be used when defining a complex type that is an extension of a simple type." target="_top">
<polygon fill="#ebebeb" stroke="transparent" points="151,-5 151,-20 359,-20 359,-5 151,-5"/>
<text text-anchor="start" x="152" y="-9.4" font-family="Helvetica,sans-Serif" font-size="12.00" fill="#000000">structures:SimpleObjectAttributeGroup</text>
</a>
</g>
<polygon fill="#ff0000" stroke="#ff0000" points="146,-20 146,-20 364,-20 364,-20 146,-20"/>
<polygon fill="none" stroke="#ff0000" stroke-width="5" points="148.5,-2.5 148.5,-37.5 361.5,-37.5 361.5,-2.5 148.5,-2.5"/>
</g>
<!-- Properties -->
<g id="node2" class="node">
<title>Properties</title>
<text text-anchor="start" x="2.5" y="-25.4" font-family="Helvetica,sans-Serif" font-weight="bold" font-size="12.00" fill="#000000">Properties</text>
<g id="a_node2_1"><a xlink:href="../../mo/OPEXCode/#diagram" xlink:title="A designator specifying whether observation was a part of an operation, exercise or simulation." target="_top">
<polygon fill="#ebebeb" stroke="transparent" points="1.5,-5 1.5,-20 86.5,-20 86.5,-5 1.5,-5"/>
<text text-anchor="start" x="2.5" y="-9.4" font-family="Helvetica,sans-Serif" font-size="12.00" fill="#000000">mo:OPEXCode</text>
</a>
</g>
<polygon fill="#000000" stroke="#000000" points=".5,-20 .5,-20 87.5,-20 87.5,-20 .5,-20"/>
<polygon fill="none" stroke="#000000" points="0,-4 0,-36 87,-36 87,-4 0,-4"/>
</g>
<!-- Properties&#45;&gt;mo:OPEXCodeType -->
<g id="edge1" class="edge">
<title>Properties:top&#45;&gt;mo:OPEXCodeType:top</title>
<path fill="none" stroke="#000000" d="M86.5,-28C111.4714,-28 120.1284,-28 140.8937,-28"/>
<polygon fill="#000000" stroke="#000000" points="141,-31.5001 151,-28 141,-24.5001 141,-31.5001"/>
<text text-anchor="middle" x="116.5" y="-31.4" font-family="Helvetica,sans-Serif" font-size="12.00" fill="#000000">type</text>
</g>
<!-- mo:OPEXCodeSimpleType -->
<g id="node3" class="node">
<title>mo:OPEXCodeSimpleType</title>
<g id="a_node3_2"><a xlink:href="../../mo/OPEXCodeSimpleType/#diagram" xlink:title="A data type for the operational status of an event." target="_top">
<text text-anchor="start" x="182" y="-80.4" font-family="Helvetica,sans-Serif" font-size="12.00" fill="#000000">mo:OPEXCodeSimpleType</text>
</a>
</g>
<polygon fill="none" stroke="#000000" points="180,-75.5 180,-92.5 330,-92.5 330,-75.5 180,-75.5"/>
</g>
<!-- mo:OPEXCodeSimpleType&#45;&gt;mo:OPEXCodeType -->
<g id="edge2" class="edge">
<title>mo:OPEXCodeSimpleType&#45;&gt;mo:OPEXCodeType</title>
<path fill="none" stroke="#000000" d="M255,-75.4351C255,-68.931 255,-59.5678 255,-50.3827"/>
<polygon fill="#000000" stroke="#000000" points="258.5001,-50.25 255,-40.25 251.5001,-50.25 258.5001,-50.25"/>
<text text-anchor="middle" x="245.5" y="-54.65" font-family="Helvetica,sans-Serif" font-size="12.00" fill="#000000">extension</text>
</g>
<!-- xs:token -->
<g id="node4" class="node">
<title>xs:token</title>
<g id="a_node4_3"><a xlink:href="../../xs/token/#diagram" xlink:title="&lt;TABLE&gt;" target="_top">
<text text-anchor="start" x="233" y="-133.4" font-family="Helvetica,sans-Serif" font-size="12.00" fill="#000000">xs:token</text>
</a>
</g>
<polygon fill="none" stroke="#000000" points="230.5,-128.5 230.5,-145.5 279.5,-145.5 279.5,-128.5 230.5,-128.5"/>
</g>
<!-- xs:token&#45;&gt;mo:OPEXCodeSimpleType -->
<g id="edge3" class="edge">
<title>xs:token&#45;&gt;mo:OPEXCodeSimpleType</title>
<path fill="none" stroke="#000000" d="M255,-128.411C255,-121.5124 255,-111.5696 255,-102.84"/>
<polygon fill="#000000" stroke="#000000" points="258.5001,-102.7518 255,-92.7519 251.5001,-102.7519 258.5001,-102.7518"/>
<text text-anchor="middle" x="245.5" y="-107.4" font-family="Helvetica,sans-Serif" font-size="12.00" fill="#000000">restriction</text>
</g>
</g>
</svg>
