<?xml version="1.0" encoding="UTF-8" standalone="no"?>
<!DOCTYPE svg PUBLIC "-//W3C//DTD SVG 1.1//EN"
 "http://www.w3.org/Graphics/SVG/1.1/DTD/svg11.dtd">
<!-- Generated by graphviz version 2.40.1 (20161225.0304)
 -->
<!-- Title: graphic Pages: 1 -->
<svg width="771pt" height="184pt"
 viewBox="0.00 0.00 771.00 183.50" xmlns="http://www.w3.org/2000/svg" xmlns:xlink="http://www.w3.org/1999/xlink">
<g id="graph0" class="graph" transform="scale(1 1) rotate(0) translate(4 179.5)">
<title>graphic</title>
<polygon fill="#ffffff" stroke="transparent" points="-4,4 -4,-179.5 767,-179.5 767,4 -4,4"/>
<!-- m:NonCrewType -->
<g id="node1" class="node">
<title>m:NonCrewType</title>
<text text-anchor="start" x="133" y="-55.4" font-family="Helvetica,sans-Serif" font-weight="bold" font-size="12.00" fill="#000000">m:NonCrewType</text>
<g id="a_node1_0"><a xlink:href="../../m/RecordLocatorIdentification/#diagram" xlink:title="An identification of a passenger name record (PNR)." target="_top">
<polygon fill="#ebebeb" stroke="transparent" points="132,-35 132,-50 438,-50 438,-35 132,-35"/>
<text text-anchor="start" x="133" y="-39.4" font-family="Helvetica,sans-Serif" font-size="12.00" fill="#000000">m:RecordLocatorIdentification: nc:IdentificationType [0&#45;n]</text>
</a>
</g>
<g id="a_node1_1"><a xlink:href="../../m/VesselPersonRoleAbstract/#diagram" xlink:title="A data concept for a role that a non&#45;crewmember plays aboard a vessel (e.g., passenger, maintenance person, stowaway)." target="_top">
<text text-anchor="start" x="133" y="-24.4" font-family="Helvetica,sans-Serif" font-size="12.00" fill="#000000">m:VesselPersonRoleAbstract [0&#45;n]</text>
</a>
</g>
<g id="a_node1_2"><a xlink:href="../../m/NonCrewAugmentationPoint/#diagram" xlink:title="An augmentation point for NonCrewType." target="_top">
<polygon fill="#ebebeb" stroke="transparent" points="132,-5 132,-20 438,-20 438,-5 132,-5"/>
<text text-anchor="start" x="133" y="-9.4" font-family="Helvetica,sans-Serif" font-size="12.00" fill="#000000">m:NonCrewAugmentationPoint [0&#45;n]</text>
</a>
</g>
<polygon fill="#ff0000" stroke="#ff0000" points="127,-50 127,-50 443,-50 443,-50 127,-50"/>
<polygon fill="none" stroke="#ff0000" stroke-width="5" points="129.5,-2.5 129.5,-67.5 440.5,-67.5 440.5,-2.5 129.5,-2.5"/>
</g>
<!-- subst_d9e5338 -->
<g id="node2" class="node">
<title>subst_d9e5338</title>
<g id="a_node2_3"><a xlink:href="../../m/VesselPersonRoleAbstract/#diagram" xlink:title="&lt;TABLE&gt;" target="_top">
<text text-anchor="start" x="482.5" y="-24.4" font-family="Helvetica,sans-Serif" font-weight="bold" font-size="12.00" fill="#000000">Substitution group m:VesselPersonRoleAbstract</text>
</a>
</g>
<g id="a_node2_4"><a xlink:href="../../m/VesselPersonRoleText/#diagram" xlink:title="A role that a non&#45;crew person plays aboard a vessel (e.g., passenger, maintenance person, stowaway)." target="_top">
<polygon fill="#ebebeb" stroke="transparent" points="481.5,-4 481.5,-19 762.5,-19 762.5,-4 481.5,-4"/>
<text text-anchor="start" x="482.5" y="-8.4" font-family="Helvetica,sans-Serif" font-size="12.00" fill="#000000">m:VesselPersonRoleText: nc:TextType</text>
</a>
</g>
<polygon fill="#000000" stroke="#000000" points="480.5,-19 480.5,-19 763.5,-19 763.5,-19 480.5,-19"/>
<polygon fill="none" stroke="#000000" points="480,-3 480,-35 763,-35 763,-3 480,-3"/>
</g>
<!-- m:NonCrewType&#45;&gt;subst_d9e5338 -->
<g id="edge1" class="edge">
<title>m:NonCrewType:e&#45;&gt;subst_d9e5338:w</title>
<path fill="none" stroke="#000000" d="M448.2295,-27C459.8951,-27 466.0938,-27 481.5,-27"/>
<polygon fill="#000000" stroke="#000000" points="448,-23.5001 438,-27 448,-30.5001 448,-23.5001"/>
</g>
<!-- Properties -->
<g id="node3" class="node">
<title>Properties</title>
<text text-anchor="start" x="2" y="-55.4" font-family="Helvetica,sans-Serif" font-weight="bold" font-size="12.00" fill="#000000">Properties</text>
<g id="a_node3_5"><a xlink:href="../../m/NonCrew/#diagram" xlink:title="A non&#45;crew person." target="_top">
<polygon fill="#ebebeb" stroke="transparent" points="1,-35 1,-50 67,-50 67,-35 1,-35"/>
<text text-anchor="start" x="2" y="-39.4" font-family="Helvetica,sans-Serif" font-size="12.00" fill="#000000">m:NonCrew</text>
</a>
</g>
<polygon fill="#000000" stroke="#000000" points="0,-50 0,-50 68,-50 68,-50 0,-50"/>
<polygon fill="none" stroke="#000000" points="0,-34 0,-66 68,-66 68,-34 0,-34"/>
</g>
<!-- Properties&#45;&gt;m:NonCrewType -->
<g id="edge2" class="edge">
<title>Properties:top&#45;&gt;m:NonCrewType:top</title>
<path fill="none" stroke="#000000" d="M67,-58C92.1649,-58 100.8891,-58 121.8154,-58"/>
<polygon fill="#000000" stroke="#000000" points="122,-61.5001 132,-58 122,-54.5001 122,-61.5001"/>
<text text-anchor="middle" x="97.5" y="-61.4" font-family="Helvetica,sans-Serif" font-size="12.00" fill="#000000">type</text>
</g>
<!-- m:PersonOnVesselType -->
<g id="node4" class="node">
<title>m:PersonOnVesselType</title>
<g id="a_node4_6"><a xlink:href="../../m/PersonOnVesselType/#diagram" xlink:title="A data type for a person on a vessel with embark/debark information." target="_top">
<text text-anchor="start" x="220" y="-110.4" font-family="Helvetica,sans-Serif" font-size="12.00" fill="#000000">m:PersonOnVesselType</text>
</a>
</g>
<polygon fill="none" stroke="#000000" points="217.5,-105.5 217.5,-122.5 352.5,-122.5 352.5,-105.5 217.5,-105.5"/>
</g>
<!-- m:PersonOnVesselType&#45;&gt;m:NonCrewType -->
<g id="edge3" class="edge">
<title>m:PersonOnVesselType&#45;&gt;m:NonCrewType</title>
<path fill="none" stroke="#000000" d="M285,-105.4117C285,-99.1025 285,-89.9911 285,-80.4049"/>
<polygon fill="#000000" stroke="#000000" points="288.5001,-80.3408 285,-70.3408 281.5001,-80.3409 288.5001,-80.3408"/>
<text text-anchor="middle" x="275.5" y="-84.65" font-family="Helvetica,sans-Serif" font-size="12.00" fill="#000000">extension</text>
</g>
<!-- structures:ObjectType -->
<g id="node5" class="node">
<title>structures:ObjectType</title>
<g id="a_node5_7"><a xlink:href="../../structures/ObjectType/#diagram" xlink:title="A data type for a thing with its own lifespan that has some existence." target="_top">
<text text-anchor="start" x="226" y="-163.4" font-family="Helvetica,sans-Serif" font-size="12.00" fill="#000000">structures:ObjectType</text>
</a>
</g>
<polygon fill="none" stroke="#000000" points="224,-158.5 224,-175.5 346,-175.5 346,-158.5 224,-158.5"/>
</g>
<!-- structures:ObjectType&#45;&gt;m:PersonOnVesselType -->
<g id="edge4" class="edge">
<title>structures:ObjectType&#45;&gt;m:PersonOnVesselType</title>
<path fill="none" stroke="#000000" d="M285,-158.411C285,-151.5124 285,-141.5696 285,-132.84"/>
<polygon fill="#000000" stroke="#000000" points="288.5001,-132.7518 285,-122.7519 281.5001,-132.7519 288.5001,-132.7518"/>
<text text-anchor="middle" x="275.5" y="-137.4" font-family="Helvetica,sans-Serif" font-size="12.00" fill="#000000">extension</text>
</g>
</g>
</svg>
