<?xml version="1.0" encoding="UTF-8" standalone="no"?>
<!DOCTYPE svg PUBLIC "-//W3C//DTD SVG 1.1//EN"
 "http://www.w3.org/Graphics/SVG/1.1/DTD/svg11.dtd">
<!-- Generated by graphviz version 2.40.1 (20161225.0304)
 -->
<!-- Title: graphic Pages: 1 -->
<svg width="524pt" height="154pt"
 viewBox="0.00 0.00 524.00 153.50" xmlns="http://www.w3.org/2000/svg" xmlns:xlink="http://www.w3.org/1999/xlink">
<g id="graph0" class="graph" transform="scale(1 1) rotate(0) translate(4 149.5)">
<title>graphic</title>
<polygon fill="#ffffff" stroke="transparent" points="-4,4 -4,-149.5 520,-149.5 520,4 -4,4"/>
<!-- biom:ForensicAnalystCategoryCodeType -->
<g id="node1" class="node">
<title>biom:ForensicAnalystCategoryCodeType</title>
<text text-anchor="start" x="268" y="-25.4" font-family="Helvetica,sans-Serif" font-weight="bold" font-size="12.00" fill="#000000">biom:ForensicAnalystCategoryCodeType</text>
<g id="a_node1_0"><a xlink:href="../../structures/SimpleObjectAttributeGroup/#diagram" xlink:title="A group of attributes that are applicable to objects, to be used when defining a complex type that is an extension of a simple type." target="_top">
<polygon fill="#ebebeb" stroke="transparent" points="267,-5 267,-20 506,-20 506,-5 267,-5"/>
<text text-anchor="start" x="268" y="-9.4" font-family="Helvetica,sans-Serif" font-size="12.00" fill="#000000">structures:SimpleObjectAttributeGroup</text>
</a>
</g>
<polygon fill="#ff0000" stroke="#ff0000" points="262,-20 262,-20 511,-20 511,-20 262,-20"/>
<polygon fill="none" stroke="#ff0000" stroke-width="5" points="264,-2.5 264,-37.5 508,-37.5 508,-2.5 264,-2.5"/>
</g>
<!-- Properties -->
<g id="node2" class="node">
<title>Properties</title>
<text text-anchor="start" x="2.5" y="-25.4" font-family="Helvetica,sans-Serif" font-weight="bold" font-size="12.00" fill="#000000">Properties</text>
<g id="a_node2_1"><a xlink:href="../../biom/ForensicAnalystCategoryCode/#diagram" xlink:title="A code that contains a single letter describing the head of the team that processed the forensic data" target="_top">
<polygon fill="#ebebeb" stroke="transparent" points="1.5,-5 1.5,-20 196.5,-20 196.5,-5 1.5,-5"/>
<text text-anchor="start" x="2.5" y="-9.4" font-family="Helvetica,sans-Serif" font-size="12.00" fill="#000000">biom:ForensicAnalystCategoryCode</text>
</a>
</g>
<polygon fill="#000000" stroke="#000000" points=".5,-20 .5,-20 197.5,-20 197.5,-20 .5,-20"/>
<polygon fill="none" stroke="#000000" points="0,-4 0,-36 197,-36 197,-4 0,-4"/>
</g>
<!-- Properties&#45;&gt;biom:ForensicAnalystCategoryCodeType -->
<g id="edge1" class="edge">
<title>Properties:top&#45;&gt;biom:ForensicAnalystCategoryCodeType:top</title>
<path fill="none" stroke="#000000" d="M196.5,-28C224.1615,-28 233.508,-28 256.8769,-28"/>
<polygon fill="#000000" stroke="#000000" points="257,-31.5001 267,-28 257,-24.5001 257,-31.5001"/>
<text text-anchor="middle" x="226.5" y="-31.4" font-family="Helvetica,sans-Serif" font-size="12.00" fill="#000000">type</text>
</g>
<!-- biom:ForensicAnalystCategoryCodeSimpleType -->
<g id="node3" class="node">
<title>biom:ForensicAnalystCategoryCodeSimpleType</title>
<g id="a_node3_2"><a xlink:href="../../biom/ForensicAnalystCategoryCodeSimpleType/#diagram" xlink:title="A data type that contains a single letter describing the head of the team that processed the forensic data" target="_top">
<text text-anchor="start" x="258" y="-80.4" font-family="Helvetica,sans-Serif" font-size="12.00" fill="#000000">biom:ForensicAnalystCategoryCodeSimpleType</text>
</a>
</g>
<polygon fill="none" stroke="#000000" points="256,-75.5 256,-92.5 516,-92.5 516,-75.5 256,-75.5"/>
</g>
<!-- biom:ForensicAnalystCategoryCodeSimpleType&#45;&gt;biom:ForensicAnalystCategoryCodeType -->
<g id="edge2" class="edge">
<title>biom:ForensicAnalystCategoryCodeSimpleType&#45;&gt;biom:ForensicAnalystCategoryCodeType</title>
<path fill="none" stroke="#000000" d="M386,-75.4351C386,-68.931 386,-59.5678 386,-50.3827"/>
<polygon fill="#000000" stroke="#000000" points="389.5001,-50.25 386,-40.25 382.5001,-50.25 389.5001,-50.25"/>
<text text-anchor="middle" x="376.5" y="-54.65" font-family="Helvetica,sans-Serif" font-size="12.00" fill="#000000">extension</text>
</g>
<!-- xs:token -->
<g id="node4" class="node">
<title>xs:token</title>
<g id="a_node4_3"><a xlink:href="../../xs/token/#diagram" xlink:title="&lt;TABLE&gt;" target="_top">
<text text-anchor="start" x="364" y="-133.4" font-family="Helvetica,sans-Serif" font-size="12.00" fill="#000000">xs:token</text>
</a>
</g>
<polygon fill="none" stroke="#000000" points="361.5,-128.5 361.5,-145.5 410.5,-145.5 410.5,-128.5 361.5,-128.5"/>
</g>
<!-- xs:token&#45;&gt;biom:ForensicAnalystCategoryCodeSimpleType -->
<g id="edge3" class="edge">
<title>xs:token&#45;&gt;biom:ForensicAnalystCategoryCodeSimpleType</title>
<path fill="none" stroke="#000000" d="M386,-128.411C386,-121.5124 386,-111.5696 386,-102.84"/>
<polygon fill="#000000" stroke="#000000" points="389.5001,-102.7518 386,-92.7519 382.5001,-102.7519 389.5001,-102.7518"/>
<text text-anchor="middle" x="376.5" y="-107.4" font-family="Helvetica,sans-Serif" font-size="12.00" fill="#000000">restriction</text>
</g>
</g>
</svg>
