<?xml version="1.0" encoding="UTF-8" standalone="no"?>
<!DOCTYPE svg PUBLIC "-//W3C//DTD SVG 1.1//EN"
 "http://www.w3.org/Graphics/SVG/1.1/DTD/svg11.dtd">
<!-- Generated by graphviz version 2.40.1 (20161225.0304)
 -->
<!-- Title: graphic Pages: 1 -->
<svg width="508pt" height="154pt"
 viewBox="0.00 0.00 508.00 153.50" xmlns="http://www.w3.org/2000/svg" xmlns:xlink="http://www.w3.org/1999/xlink">
<g id="graph0" class="graph" transform="scale(1 1) rotate(0) translate(4 149.5)">
<title>graphic</title>
<polygon fill="#ffffff" stroke="transparent" points="-4,4 -4,-149.5 504,-149.5 504,4 -4,4"/>
<!-- em:AlertEventDetailsSeverityCodeType -->
<g id="node1" class="node">
<title>em:AlertEventDetailsSeverityCodeType</title>
<text text-anchor="start" x="261" y="-25.4" font-family="Helvetica,sans-Serif" font-weight="bold" font-size="12.00" fill="#000000">em:AlertEventDetailsSeverityCodeType</text>
<g id="a_node1_0"><a xlink:href="../../structures/SimpleObjectAttributeGroup/#diagram" xlink:title="A group of attributes that are applicable to objects, to be used when defining a complex type that is an extension of a simple type." target="_top">
<polygon fill="#ebebeb" stroke="transparent" points="260,-5 260,-20 488,-20 488,-5 260,-5"/>
<text text-anchor="start" x="261" y="-9.4" font-family="Helvetica,sans-Serif" font-size="12.00" fill="#000000">structures:SimpleObjectAttributeGroup</text>
</a>
</g>
<polygon fill="#ff0000" stroke="#ff0000" points="255,-20 255,-20 493,-20 493,-20 255,-20"/>
<polygon fill="none" stroke="#ff0000" stroke-width="5" points="257.5,-2.5 257.5,-37.5 490.5,-37.5 490.5,-2.5 257.5,-2.5"/>
</g>
<!-- Properties -->
<g id="node2" class="node">
<title>Properties</title>
<text text-anchor="start" x="2.5" y="-25.4" font-family="Helvetica,sans-Serif" font-weight="bold" font-size="12.00" fill="#000000">Properties</text>
<g id="a_node2_1"><a xlink:href="../../em/AlertEventDetailsSeverityCode/#diagram" xlink:title="A code denoting the severity of the subject event of the alert message" target="_top">
<polygon fill="#ebebeb" stroke="transparent" points="1.5,-5 1.5,-20 188.5,-20 188.5,-5 1.5,-5"/>
<text text-anchor="start" x="2.5" y="-9.4" font-family="Helvetica,sans-Serif" font-size="12.00" fill="#000000">em:AlertEventDetailsSeverityCode</text>
</a>
</g>
<polygon fill="#000000" stroke="#000000" points=".5,-20 .5,-20 189.5,-20 189.5,-20 .5,-20"/>
<polygon fill="none" stroke="#000000" points="0,-4 0,-36 189,-36 189,-4 0,-4"/>
</g>
<!-- Properties&#45;&gt;em:AlertEventDetailsSeverityCodeType -->
<g id="edge1" class="edge">
<title>Properties:top&#45;&gt;em:AlertEventDetailsSeverityCodeType:top</title>
<path fill="none" stroke="#000000" d="M188.5,-28C216.5538,-28 226.0329,-28 249.7333,-28"/>
<polygon fill="#000000" stroke="#000000" points="250,-31.5001 260,-28 250,-24.5001 250,-31.5001"/>
<text text-anchor="middle" x="218.5" y="-31.4" font-family="Helvetica,sans-Serif" font-size="12.00" fill="#000000">type</text>
</g>
<!-- em:AlertEventDetailsSeverityCodeSimpleType -->
<g id="node3" class="node">
<title>em:AlertEventDetailsSeverityCodeSimpleType</title>
<g id="a_node3_2"><a xlink:href="../../em/AlertEventDetailsSeverityCodeSimpleType/#diagram" xlink:title="A data type for the severity code designated to an alert event" target="_top">
<text text-anchor="start" x="250" y="-80.4" font-family="Helvetica,sans-Serif" font-size="12.00" fill="#000000">em:AlertEventDetailsSeverityCodeSimpleType</text>
</a>
</g>
<polygon fill="none" stroke="#000000" points="248,-75.5 248,-92.5 500,-92.5 500,-75.5 248,-75.5"/>
</g>
<!-- em:AlertEventDetailsSeverityCodeSimpleType&#45;&gt;em:AlertEventDetailsSeverityCodeType -->
<g id="edge2" class="edge">
<title>em:AlertEventDetailsSeverityCodeSimpleType&#45;&gt;em:AlertEventDetailsSeverityCodeType</title>
<path fill="none" stroke="#000000" d="M374,-75.4351C374,-68.931 374,-59.5678 374,-50.3827"/>
<polygon fill="#000000" stroke="#000000" points="377.5001,-50.25 374,-40.25 370.5001,-50.25 377.5001,-50.25"/>
<text text-anchor="middle" x="364.5" y="-54.65" font-family="Helvetica,sans-Serif" font-size="12.00" fill="#000000">extension</text>
</g>
<!-- xs:token -->
<g id="node4" class="node">
<title>xs:token</title>
<g id="a_node4_3"><a xlink:href="../../xs/token/#diagram" xlink:title="&lt;TABLE&gt;" target="_top">
<text text-anchor="start" x="352" y="-133.4" font-family="Helvetica,sans-Serif" font-size="12.00" fill="#000000">xs:token</text>
</a>
</g>
<polygon fill="none" stroke="#000000" points="349.5,-128.5 349.5,-145.5 398.5,-145.5 398.5,-128.5 349.5,-128.5"/>
</g>
<!-- xs:token&#45;&gt;em:AlertEventDetailsSeverityCodeSimpleType -->
<g id="edge3" class="edge">
<title>xs:token&#45;&gt;em:AlertEventDetailsSeverityCodeSimpleType</title>
<path fill="none" stroke="#000000" d="M374,-128.411C374,-121.5124 374,-111.5696 374,-102.84"/>
<polygon fill="#000000" stroke="#000000" points="377.5001,-102.7518 374,-92.7519 370.5001,-102.7519 377.5001,-102.7518"/>
<text text-anchor="middle" x="364.5" y="-107.4" font-family="Helvetica,sans-Serif" font-size="12.00" fill="#000000">restriction</text>
</g>
</g>
</svg>
