<?xml version="1.0" encoding="UTF-8" standalone="no"?>
<!DOCTYPE svg PUBLIC "-//W3C//DTD SVG 1.1//EN"
 "http://www.w3.org/Graphics/SVG/1.1/DTD/svg11.dtd">
<!-- Generated by graphviz version 2.40.1 (20161225.0304)
 -->
<!-- Title: graphic Pages: 1 -->
<svg width="598pt" height="45pt"
 viewBox="0.00 0.00 598.00 45.00" xmlns="http://www.w3.org/2000/svg" xmlns:xlink="http://www.w3.org/1999/xlink">
<g id="graph0" class="graph" transform="scale(1 1) rotate(0) translate(4 41)">
<title>graphic</title>
<polygon fill="#ffffff" stroke="transparent" points="-4,4 -4,-41 594,-41 594,4 -4,4"/>
<!-- im:ProgramCompletionCommentText -->
<g id="node1" class="node">
<title>im:ProgramCompletionCommentText</title>
<text text-anchor="start" x="240" y="-21.4" font-family="Helvetica,sans-Serif" font-weight="bold" font-size="12.00" fill="#000000">im:ProgramCompletionCommentText</text>
<polygon fill="none" stroke="#ff0000" stroke-width="5" points="236.5,-14 236.5,-34 457.5,-34 457.5,-14 236.5,-14"/>
</g>
<!-- nc:TextType -->
<g id="node3" class="node">
<title>nc:TextType</title>
<g id="a_node3_0"><a xlink:href="../../nc/TextType/#diagram" xlink:title="A data type for a character string." target="_top">
<text text-anchor="start" x="521.5" y="-20.4" font-family="Helvetica,sans-Serif" font-size="12.00" fill="#000000">nc:TextType</text>
</a>
</g>
<polygon fill="none" stroke="#000000" points="519,-15.5 519,-32.5 590,-32.5 590,-15.5 519,-15.5"/>
</g>
<!-- im:ProgramCompletionCommentText&#45;&gt;nc:TextType -->
<g id="edge2" class="edge">
<title>im:ProgramCompletionCommentText&#45;&gt;nc:TextType</title>
<path fill="none" stroke="#000000" d="M460.1611,-24C477.2551,-24 494.0055,-24 508.5357,-24"/>
<polygon fill="#000000" stroke="#000000" points="508.6966,-27.5001 518.6966,-24 508.6966,-20.5001 508.6966,-27.5001"/>
<text text-anchor="middle" x="489.5" y="-27.4" font-family="Helvetica,sans-Serif" font-size="12.00" fill="#000000">type</text>
</g>
<!-- Types -->
<g id="node2" class="node">
<title>Types</title>
<text text-anchor="start" x="2.5" y="-21.4" font-family="Helvetica,sans-Serif" font-weight="bold" font-size="12.00" fill="#000000">Types</text>
<g id="a_node2_1"><a xlink:href="../../im/ProgramAugmentationType/#diagram" xlink:title="A data type for additional information about a program." target="_top">
<polygon fill="#ebebeb" stroke="transparent" points="1.5,-1 1.5,-16 166.5,-16 166.5,-1 1.5,-1"/>
<text text-anchor="start" x="2.5" y="-5.4" font-family="Helvetica,sans-Serif" font-size="12.00" fill="#000000">im:ProgramAugmentationType</text>
</a>
</g>
<polygon fill="#000000" stroke="#000000" points=".5,-16 .5,-16 167.5,-16 167.5,-16 .5,-16"/>
<polygon fill="none" stroke="#000000" points="0,0 0,-32 167,-32 167,0 0,0"/>
</g>
<!-- Types&#45;&gt;im:ProgramCompletionCommentText -->
<g id="edge1" class="edge">
<title>Types:top&#45;&gt;im:ProgramCompletionCommentText</title>
<path fill="none" stroke="#000000" d="M166.5,-24C184.9612,-24 204.4844,-24 223.6033,-24"/>
<polygon fill="#000000" stroke="#000000" points="223.864,-27.5001 233.8639,-24 223.8639,-20.5001 223.864,-27.5001"/>
<text text-anchor="middle" x="200.5" y="-27.4" font-family="Helvetica,sans-Serif" font-size="12.00" fill="#000000">has&#45;a</text>
</g>
</g>
</svg>
