<?xml version="1.0" encoding="UTF-8" standalone="no"?>
<!DOCTYPE svg PUBLIC "-//W3C//DTD SVG 1.1//EN"
 "http://www.w3.org/Graphics/SVG/1.1/DTD/svg11.dtd">
<!-- Generated by graphviz version 2.40.1 (20161225.0304)
 -->
<!-- Title: graphic Pages: 1 -->
<svg width="385pt" height="154pt"
 viewBox="0.00 0.00 385.00 153.50" xmlns="http://www.w3.org/2000/svg" xmlns:xlink="http://www.w3.org/1999/xlink">
<g id="graph0" class="graph" transform="scale(1 1) rotate(0) translate(4 149.5)">
<title>graphic</title>
<polygon fill="#ffffff" stroke="transparent" points="-4,4 -4,-149.5 381,-149.5 381,4 -4,4"/>
<!-- nc:ImagePoseCodeType -->
<g id="node1" class="node">
<title>nc:ImagePoseCodeType</title>
<text text-anchor="start" x="165" y="-25.4" font-family="Helvetica,sans-Serif" font-weight="bold" font-size="12.00" fill="#000000">nc:ImagePoseCodeType</text>
<g id="a_node1_0"><a xlink:href="../../structures/SimpleObjectAttributeGroup/#diagram" xlink:title="A group of attributes that are applicable to objects, to be used when defining a complex type that is an extension of a simple type." target="_top">
<polygon fill="#ebebeb" stroke="transparent" points="164,-5 164,-20 372,-20 372,-5 164,-5"/>
<text text-anchor="start" x="165" y="-9.4" font-family="Helvetica,sans-Serif" font-size="12.00" fill="#000000">structures:SimpleObjectAttributeGroup</text>
</a>
</g>
<polygon fill="#ff0000" stroke="#ff0000" points="159,-20 159,-20 377,-20 377,-20 159,-20"/>
<polygon fill="none" stroke="#ff0000" stroke-width="5" points="161.5,-2.5 161.5,-37.5 374.5,-37.5 374.5,-2.5 161.5,-2.5"/>
</g>
<!-- Properties -->
<g id="node2" class="node">
<title>Properties</title>
<text text-anchor="start" x="2" y="-25.4" font-family="Helvetica,sans-Serif" font-weight="bold" font-size="12.00" fill="#000000">Properties</text>
<g id="a_node2_1"><a xlink:href="../../j/ImagePoseCode/#diagram" xlink:title="An angle of a person&#39;s face in a photograph." target="_top">
<polygon fill="#ebebeb" stroke="transparent" points="1,-5 1,-20 99,-20 99,-5 1,-5"/>
<text text-anchor="start" x="2" y="-9.4" font-family="Helvetica,sans-Serif" font-size="12.00" fill="#000000">j:ImagePoseCode</text>
</a>
</g>
<polygon fill="#000000" stroke="#000000" points="0,-20 0,-20 100,-20 100,-20 0,-20"/>
<polygon fill="none" stroke="#000000" points="0,-4 0,-36 100,-36 100,-4 0,-4"/>
</g>
<!-- Properties&#45;&gt;nc:ImagePoseCodeType -->
<g id="edge1" class="edge">
<title>Properties:top&#45;&gt;nc:ImagePoseCodeType:top</title>
<path fill="none" stroke="#000000" d="M99,-28C124.1649,-28 132.8891,-28 153.8154,-28"/>
<polygon fill="#000000" stroke="#000000" points="154,-31.5001 164,-28 154,-24.5001 154,-31.5001"/>
<text text-anchor="middle" x="129.5" y="-31.4" font-family="Helvetica,sans-Serif" font-size="12.00" fill="#000000">type</text>
</g>
<!-- nc:ImagePoseCodeSimpleType -->
<g id="node3" class="node">
<title>nc:ImagePoseCodeSimpleType</title>
<g id="a_node3_2"><a xlink:href="../../nc/ImagePoseCodeSimpleType/#diagram" xlink:title="A data type for angles of an entity&#39;s pose in a photograph." target="_top">
<text text-anchor="start" x="184" y="-80.4" font-family="Helvetica,sans-Serif" font-size="12.00" fill="#000000">nc:ImagePoseCodeSimpleType</text>
</a>
</g>
<polygon fill="none" stroke="#000000" points="181.5,-75.5 181.5,-92.5 354.5,-92.5 354.5,-75.5 181.5,-75.5"/>
</g>
<!-- nc:ImagePoseCodeSimpleType&#45;&gt;nc:ImagePoseCodeType -->
<g id="edge2" class="edge">
<title>nc:ImagePoseCodeSimpleType&#45;&gt;nc:ImagePoseCodeType</title>
<path fill="none" stroke="#000000" d="M268,-75.4351C268,-68.931 268,-59.5678 268,-50.3827"/>
<polygon fill="#000000" stroke="#000000" points="271.5001,-50.25 268,-40.25 264.5001,-50.25 271.5001,-50.25"/>
<text text-anchor="middle" x="258.5" y="-54.65" font-family="Helvetica,sans-Serif" font-size="12.00" fill="#000000">extension</text>
</g>
<!-- xs:token -->
<g id="node4" class="node">
<title>xs:token</title>
<g id="a_node4_3"><a xlink:href="../../xs/token/#diagram" xlink:title="&lt;TABLE&gt;" target="_top">
<text text-anchor="start" x="246" y="-133.4" font-family="Helvetica,sans-Serif" font-size="12.00" fill="#000000">xs:token</text>
</a>
</g>
<polygon fill="none" stroke="#000000" points="243.5,-128.5 243.5,-145.5 292.5,-145.5 292.5,-128.5 243.5,-128.5"/>
</g>
<!-- xs:token&#45;&gt;nc:ImagePoseCodeSimpleType -->
<g id="edge3" class="edge">
<title>xs:token&#45;&gt;nc:ImagePoseCodeSimpleType</title>
<path fill="none" stroke="#000000" d="M268,-128.411C268,-121.5124 268,-111.5696 268,-102.84"/>
<polygon fill="#000000" stroke="#000000" points="271.5001,-102.7518 268,-92.7519 264.5001,-102.7519 271.5001,-102.7518"/>
<text text-anchor="middle" x="258.5" y="-107.4" font-family="Helvetica,sans-Serif" font-size="12.00" fill="#000000">restriction</text>
</g>
</g>
</svg>
