<?xml version="1.0" encoding="UTF-8" standalone="no"?>
<!DOCTYPE svg PUBLIC "-//W3C//DTD SVG 1.1//EN"
 "http://www.w3.org/Graphics/SVG/1.1/DTD/svg11.dtd">
<!-- Generated by graphviz version 2.40.1 (20161225.0304)
 -->
<!-- Title: graphic Pages: 1 -->
<svg width="502pt" height="45pt"
 viewBox="0.00 0.00 502.00 45.00" xmlns="http://www.w3.org/2000/svg" xmlns:xlink="http://www.w3.org/1999/xlink">
<g id="graph0" class="graph" transform="scale(1 1) rotate(0) translate(4 41)">
<title>graphic</title>
<polygon fill="#ffffff" stroke="transparent" points="-4,4 -4,-41 498,-41 498,4 -4,4"/>
<!-- j:ContactPerson -->
<g id="node1" class="node">
<title>j:ContactPerson</title>
<text text-anchor="start" x="251.5" y="-21.4" font-family="Helvetica,sans-Serif" font-weight="bold" font-size="12.00" fill="#000000">j:ContactPerson</text>
<polygon fill="none" stroke="#ff0000" stroke-width="5" points="247.5,-14 247.5,-34 347.5,-34 347.5,-14 247.5,-14"/>
</g>
<!-- nc:PersonType -->
<g id="node3" class="node">
<title>nc:PersonType</title>
<g id="a_node3_0"><a xlink:href="../../nc/PersonType/#diagram" xlink:title="A data type for a human being." target="_top">
<text text-anchor="start" x="411.5" y="-20.4" font-family="Helvetica,sans-Serif" font-size="12.00" fill="#000000">nc:PersonType</text>
</a>
</g>
<polygon fill="none" stroke="#000000" points="409,-15.5 409,-32.5 494,-32.5 494,-15.5 409,-15.5"/>
</g>
<!-- j:ContactPerson&#45;&gt;nc:PersonType -->
<g id="edge2" class="edge">
<title>j:ContactPerson&#45;&gt;nc:PersonType</title>
<path fill="none" stroke="#000000" d="M350.0673,-24C365.7923,-24 383.0339,-24 398.7694,-24"/>
<polygon fill="#000000" stroke="#000000" points="398.8612,-27.5001 408.8612,-24 398.8612,-20.5001 398.8612,-27.5001"/>
<text text-anchor="middle" x="379.5" y="-27.4" font-family="Helvetica,sans-Serif" font-size="12.00" fill="#000000">type</text>
</g>
<!-- Types -->
<g id="node2" class="node">
<title>Types</title>
<text text-anchor="start" x="2" y="-21.4" font-family="Helvetica,sans-Serif" font-weight="bold" font-size="12.00" fill="#000000">Types</text>
<g id="a_node2_1"><a xlink:href="../../j/PersonContactAssociationType/#diagram" xlink:title="A data type for a relationship between a person and a contact person." target="_top">
<polygon fill="#ebebeb" stroke="transparent" points="1,-1 1,-16 177,-16 177,-1 1,-1"/>
<text text-anchor="start" x="2" y="-5.4" font-family="Helvetica,sans-Serif" font-size="12.00" fill="#000000">j:PersonContactAssociationType</text>
</a>
</g>
<polygon fill="#000000" stroke="#000000" points="0,-16 0,-16 178,-16 178,-16 0,-16"/>
<polygon fill="none" stroke="#000000" points="0,0 0,-32 178,-32 178,0 0,0"/>
</g>
<!-- Types&#45;&gt;j:ContactPerson -->
<g id="edge1" class="edge">
<title>Types:top&#45;&gt;j:ContactPerson</title>
<path fill="none" stroke="#000000" d="M177,-24C195.7104,-24 216.0551,-24 234.6083,-24"/>
<polygon fill="#000000" stroke="#000000" points="234.7097,-27.5001 244.7097,-24 234.7096,-20.5001 234.7097,-27.5001"/>
<text text-anchor="middle" x="211.5" y="-27.4" font-family="Helvetica,sans-Serif" font-size="12.00" fill="#000000">has&#45;a</text>
</g>
</g>
</svg>
