<?xml version="1.0" encoding="UTF-8" standalone="no"?>
<!DOCTYPE svg PUBLIC "-//W3C//DTD SVG 1.1//EN"
 "http://www.w3.org/Graphics/SVG/1.1/DTD/svg11.dtd">
<!-- Generated by graphviz version 2.40.1 (20161225.0304)
 -->
<!-- Title: graphic Pages: 1 -->
<svg width="646pt" height="117pt"
 viewBox="0.00 0.00 646.00 116.50" xmlns="http://www.w3.org/2000/svg" xmlns:xlink="http://www.w3.org/1999/xlink">
<g id="graph0" class="graph" transform="scale(1 1) rotate(0) translate(4 112.5)">
<title>graphic</title>
<polygon fill="#ffffff" stroke="transparent" points="-4,4 -4,-112.5 642,-112.5 642,4 -4,4"/>
<!-- cbrn:ThreatLevelDeterminationAbstract -->
<g id="node1" class="node">
<title>cbrn:ThreatLevelDeterminationAbstract</title>
<text text-anchor="start" x="308.5" y="-92.9" font-family="Helvetica,sans-Serif" font-weight="bold" font-size="12.00" fill="#000000">cbrn:ThreatLevelDeterminationAbstract</text>
<polygon fill="none" stroke="#ff0000" stroke-width="5" points="304.5,-85.5 304.5,-105.5 538.5,-105.5 538.5,-85.5 304.5,-85.5"/>
</g>
<!-- SubstitutableElements -->
<g id="node3" class="node">
<title>SubstitutableElements</title>
<text text-anchor="start" x="207.5" y="-35.9" font-family="Helvetica,sans-Serif" font-weight="bold" font-size="12.00" fill="#000000">Substitutable elements</text>
<g id="a_node3_0"><a xlink:href="../../cbrn/ThreatLevelDeterminationCode/#diagram" xlink:title="A code for a threat level based on findings during an inspection." target="_top">
<polygon fill="#ebebeb" stroke="transparent" points="206.5,-15.5 206.5,-30.5 637.5,-30.5 637.5,-15.5 206.5,-15.5"/>
<text text-anchor="start" x="207.5" y="-19.9" font-family="Helvetica,sans-Serif" font-size="12.00" fill="#000000">cbrn:ThreatLevelDeterminationCode: cbrncl:ThreatLevelDeterminationCodeType</text>
</a>
</g>
<g id="a_node3_1"><a xlink:href="../../cbrn/ThreatLevelDeterminationText/#diagram" xlink:title="A description of a threat level based on findings during an inspection." target="_top">
<text text-anchor="start" x="207.5" y="-4.9" font-family="Helvetica,sans-Serif" font-size="12.00" fill="#000000">cbrn:ThreatLevelDeterminationText: niem&#45;xs:string</text>
</a>
</g>
<polygon fill="#000000" stroke="#000000" points="205.5,-30.5 205.5,-30.5 638.5,-30.5 638.5,-30.5 205.5,-30.5"/>
<polygon fill="none" stroke="#000000" points="205,0 205,-47 638,-47 638,0 205,0"/>
</g>
<!-- cbrn:ThreatLevelDeterminationAbstract&#45;&gt;SubstitutableElements -->
<g id="edge2" class="edge">
<title>cbrn:ThreatLevelDeterminationAbstract&#45;&gt;SubstitutableElements</title>
<path fill="none" stroke="#000000" d="M421.5,-72.9771C421.5,-64.7398 421.5,-55.4022 421.5,-47.0755"/>
<polygon fill="#000000" stroke="#000000" points="418.0001,-72.9945 421.5,-82.9945 425.0001,-72.9946 418.0001,-72.9945"/>
<text text-anchor="middle" x="412" y="-61.9" font-family="Helvetica,sans-Serif" font-size="12.00" fill="#000000">substitutable for</text>
</g>
<!-- Types -->
<g id="node2" class="node">
<title>Types</title>
<text text-anchor="start" x="2" y="-92.9" font-family="Helvetica,sans-Serif" font-weight="bold" font-size="12.00" fill="#000000">Types</text>
<g id="a_node2_2"><a xlink:href="../../cbrn/InspectionDataType/#diagram" xlink:title="A data type for information regarding an inspection of an item of interest." target="_top">
<polygon fill="#ebebeb" stroke="transparent" points="1,-72.5 1,-87.5 137,-87.5 137,-72.5 1,-72.5"/>
<text text-anchor="start" x="2" y="-76.9" font-family="Helvetica,sans-Serif" font-size="12.00" fill="#000000">cbrn:InspectionDataType</text>
</a>
</g>
<polygon fill="#000000" stroke="#000000" points="0,-87.5 0,-87.5 138,-87.5 138,-87.5 0,-87.5"/>
<polygon fill="none" stroke="#000000" points="0,-71.5 0,-103.5 138,-103.5 138,-71.5 0,-71.5"/>
</g>
<!-- Types&#45;&gt;cbrn:ThreatLevelDeterminationAbstract -->
<g id="edge1" class="edge">
<title>Types:top&#45;&gt;cbrn:ThreatLevelDeterminationAbstract</title>
<path fill="none" stroke="#000000" d="M137,-95.5C187.4931,-95.5 243.027,-95.5 291.524,-95.5"/>
<polygon fill="#000000" stroke="#000000" points="291.7616,-99.0001 301.7616,-95.5 291.7615,-92.0001 291.7616,-99.0001"/>
<text text-anchor="middle" x="171.5" y="-98.9" font-family="Helvetica,sans-Serif" font-size="12.00" fill="#000000">has&#45;a</text>
</g>
</g>
</svg>
