<?xml version="1.0" encoding="UTF-8" standalone="no"?>
<!DOCTYPE svg PUBLIC "-//W3C//DTD SVG 1.1//EN"
 "http://www.w3.org/Graphics/SVG/1.1/DTD/svg11.dtd">
<!-- Generated by graphviz version 2.40.1 (20161225.0304)
 -->
<!-- Title: graphic Pages: 1 -->
<svg width="491pt" height="117pt"
 viewBox="0.00 0.00 491.00 116.50" xmlns="http://www.w3.org/2000/svg" xmlns:xlink="http://www.w3.org/1999/xlink">
<g id="graph0" class="graph" transform="scale(1 1) rotate(0) translate(4 112.5)">
<title>graphic</title>
<polygon fill="#ffffff" stroke="transparent" points="-4,4 -4,-112.5 487,-112.5 487,4 -4,4"/>
<!-- nc:DocumentAugmentationPoint -->
<g id="node1" class="node">
<title>nc:DocumentAugmentationPoint</title>
<text text-anchor="start" x="232" y="-92.9" font-family="Helvetica,sans-Serif" font-weight="bold" font-size="12.00" fill="#000000">nc:DocumentAugmentationPoint</text>
<polygon fill="none" stroke="#ff0000" stroke-width="5" points="228.5,-85.5 228.5,-105.5 423.5,-105.5 423.5,-85.5 228.5,-85.5"/>
</g>
<!-- SubstitutableElements -->
<g id="node3" class="node">
<title>SubstitutableElements</title>
<text text-anchor="start" x="171" y="-35.9" font-family="Helvetica,sans-Serif" font-weight="bold" font-size="12.00" fill="#000000">Substitutable elements</text>
<g id="a_node3_0"><a xlink:href="../../it/DocumentAugmentation/#diagram" xlink:title="Additional information about a document." target="_top">
<polygon fill="#ebebeb" stroke="transparent" points="170,-15.5 170,-30.5 482,-30.5 482,-15.5 170,-15.5"/>
<text text-anchor="start" x="171" y="-19.9" font-family="Helvetica,sans-Serif" font-size="12.00" fill="#000000">it:DocumentAugmentation: it:DocumentAugmentationType</text>
</a>
</g>
<g id="a_node3_1"><a xlink:href="../../j/DocumentAugmentation/#diagram" xlink:title="Additional information about a document." target="_top">
<text text-anchor="start" x="171" y="-4.9" font-family="Helvetica,sans-Serif" font-size="12.00" fill="#000000">j:DocumentAugmentation: j:DocumentAugmentationType</text>
</a>
</g>
<polygon fill="#000000" stroke="#000000" points="169,-30.5 169,-30.5 483,-30.5 483,-30.5 169,-30.5"/>
<polygon fill="none" stroke="#000000" points="169,0 169,-47 483,-47 483,0 169,0"/>
</g>
<!-- nc:DocumentAugmentationPoint&#45;&gt;SubstitutableElements -->
<g id="edge2" class="edge">
<title>nc:DocumentAugmentationPoint&#45;&gt;SubstitutableElements</title>
<path fill="none" stroke="#000000" d="M326,-72.9771C326,-64.7398 326,-55.4022 326,-47.0755"/>
<polygon fill="#000000" stroke="#000000" points="322.5001,-72.9945 326,-82.9945 329.5001,-72.9946 322.5001,-72.9945"/>
<text text-anchor="middle" x="316.5" y="-61.9" font-family="Helvetica,sans-Serif" font-size="12.00" fill="#000000">substitutable for</text>
</g>
<!-- Types -->
<g id="node2" class="node">
<title>Types</title>
<text text-anchor="start" x="2" y="-92.9" font-family="Helvetica,sans-Serif" font-weight="bold" font-size="12.00" fill="#000000">Types</text>
<g id="a_node2_2"><a xlink:href="../../nc/DocumentType/#diagram" xlink:title="A data type for a paper or electronic document." target="_top">
<polygon fill="#ebebeb" stroke="transparent" points="1,-72.5 1,-87.5 101,-87.5 101,-72.5 1,-72.5"/>
<text text-anchor="start" x="2" y="-76.9" font-family="Helvetica,sans-Serif" font-size="12.00" fill="#000000">nc:DocumentType</text>
</a>
</g>
<polygon fill="#000000" stroke="#000000" points="0,-87.5 0,-87.5 102,-87.5 102,-87.5 0,-87.5"/>
<polygon fill="none" stroke="#000000" points="0,-71.5 0,-103.5 102,-103.5 102,-71.5 0,-71.5"/>
</g>
<!-- Types&#45;&gt;nc:DocumentAugmentationPoint -->
<g id="edge1" class="edge">
<title>Types:top&#45;&gt;nc:DocumentAugmentationPoint</title>
<path fill="none" stroke="#000000" d="M101,-95.5C138.3123,-95.5 179.1052,-95.5 215.5865,-95.5"/>
<polygon fill="#000000" stroke="#000000" points="215.7554,-99.0001 225.7554,-95.5 215.7553,-92.0001 215.7554,-99.0001"/>
<text text-anchor="middle" x="135.5" y="-98.9" font-family="Helvetica,sans-Serif" font-size="12.00" fill="#000000">has&#45;a</text>
</g>
</g>
</svg>
