<?xml version="1.0" encoding="UTF-8" standalone="no"?>
<!DOCTYPE svg PUBLIC "-//W3C//DTD SVG 1.1//EN"
 "http://www.w3.org/Graphics/SVG/1.1/DTD/svg11.dtd">
<!-- Generated by graphviz version 2.40.1 (20161225.0304)
 -->
<!-- Title: graphic Pages: 1 -->
<svg width="606pt" height="45pt"
 viewBox="0.00 0.00 606.00 45.00" xmlns="http://www.w3.org/2000/svg" xmlns:xlink="http://www.w3.org/1999/xlink">
<g id="graph0" class="graph" transform="scale(1 1) rotate(0) translate(4 41)">
<title>graphic</title>
<polygon fill="#ffffff" stroke="transparent" points="-4,4 -4,-41 602,-41 602,4 -4,4"/>
<!-- j:ConveyanceRegistrationLocation -->
<g id="node1" class="node">
<title>j:ConveyanceRegistrationLocation</title>
<text text-anchor="start" x="241.5" y="-21.4" font-family="Helvetica,sans-Serif" font-weight="bold" font-size="12.00" fill="#000000">j:ConveyanceRegistrationLocation</text>
<polygon fill="none" stroke="#ff0000" stroke-width="5" points="237.5,-14 237.5,-34 443.5,-34 443.5,-14 237.5,-14"/>
</g>
<!-- nc:LocationType -->
<g id="node3" class="node">
<title>nc:LocationType</title>
<g id="a_node3_0"><a xlink:href="../../nc/LocationType/#diagram" xlink:title="A data type for geospatial location." target="_top">
<text text-anchor="start" x="507.5" y="-20.4" font-family="Helvetica,sans-Serif" font-size="12.00" fill="#000000">nc:LocationType</text>
</a>
</g>
<polygon fill="none" stroke="#000000" points="505,-15.5 505,-32.5 598,-32.5 598,-15.5 505,-15.5"/>
</g>
<!-- j:ConveyanceRegistrationLocation&#45;&gt;nc:LocationType -->
<g id="edge2" class="edge">
<title>j:ConveyanceRegistrationLocation&#45;&gt;nc:LocationType</title>
<path fill="none" stroke="#000000" d="M446.3091,-24C463.0183,-24 479.7171,-24 494.729,-24"/>
<polygon fill="#000000" stroke="#000000" points="494.8318,-27.5001 504.8318,-24 494.8317,-20.5001 494.8318,-27.5001"/>
<text text-anchor="middle" x="475.5" y="-27.4" font-family="Helvetica,sans-Serif" font-size="12.00" fill="#000000">type</text>
</g>
<!-- Types -->
<g id="node2" class="node">
<title>Types</title>
<text text-anchor="start" x="2" y="-21.4" font-family="Helvetica,sans-Serif" font-weight="bold" font-size="12.00" fill="#000000">Types</text>
<g id="a_node2_1"><a xlink:href="../../j/ConveyanceRegistrationType/#diagram" xlink:title="A data type for a registration of a conveyance with an authority." target="_top">
<polygon fill="#ebebeb" stroke="transparent" points="1,-1 1,-16 167,-16 167,-1 1,-1"/>
<text text-anchor="start" x="2" y="-5.4" font-family="Helvetica,sans-Serif" font-size="12.00" fill="#000000">j:ConveyanceRegistrationType</text>
</a>
</g>
<polygon fill="#000000" stroke="#000000" points="0,-16 0,-16 168,-16 168,-16 0,-16"/>
<polygon fill="none" stroke="#000000" points="0,0 0,-32 168,-32 168,0 0,0"/>
</g>
<!-- Types&#45;&gt;j:ConveyanceRegistrationLocation -->
<g id="edge1" class="edge">
<title>Types:top&#45;&gt;j:ConveyanceRegistrationLocation</title>
<path fill="none" stroke="#000000" d="M167,-24C185.7248,-24 205.5863,-24 224.9283,-24"/>
<polygon fill="#000000" stroke="#000000" points="224.9869,-27.5001 234.9868,-24 224.9868,-20.5001 224.9869,-27.5001"/>
<text text-anchor="middle" x="201.5" y="-27.4" font-family="Helvetica,sans-Serif" font-size="12.00" fill="#000000">has&#45;a</text>
</g>
</g>
</svg>
