<?xml version="1.0" encoding="UTF-8" standalone="no"?>
<!DOCTYPE svg PUBLIC "-//W3C//DTD SVG 1.1//EN"
 "http://www.w3.org/Graphics/SVG/1.1/DTD/svg11.dtd">
<!-- Generated by graphviz version 2.40.1 (20161225.0304)
 -->
<!-- Title: graphic Pages: 1 -->
<svg width="586pt" height="45pt"
 viewBox="0.00 0.00 586.00 45.00" xmlns="http://www.w3.org/2000/svg" xmlns:xlink="http://www.w3.org/1999/xlink">
<g id="graph0" class="graph" transform="scale(1 1) rotate(0) translate(4 41)">
<title>graphic</title>
<polygon fill="#ffffff" stroke="transparent" points="-4,4 -4,-41 582,-41 582,4 -4,4"/>
<!-- biom:PositionUncertaintyValue -->
<g id="node1" class="node">
<title>biom:PositionUncertaintyValue</title>
<text text-anchor="start" x="179.5" y="-21.4" font-family="Helvetica,sans-Serif" font-weight="bold" font-size="12.00" fill="#000000">biom:PositionUncertaintyValue</text>
<polygon fill="none" stroke="#ff0000" stroke-width="5" points="175.5,-14 175.5,-34 361.5,-34 361.5,-14 175.5,-14"/>
</g>
<!-- niem&#45;xs:nonNegativeInteger -->
<g id="node3" class="node">
<title>niem&#45;xs:nonNegativeInteger</title>
<g id="a_node3_0"><a xlink:href="../../niem-xs/nonNegativeInteger/#diagram" xlink:title="A data type for an integer with a minimum value of 0." target="_top">
<text text-anchor="start" x="425.5" y="-20.4" font-family="Helvetica,sans-Serif" font-size="12.00" fill="#000000">niem&#45;xs:nonNegativeInteger</text>
</a>
</g>
<polygon fill="none" stroke="#000000" points="423,-15.5 423,-32.5 578,-32.5 578,-15.5 423,-15.5"/>
</g>
<!-- biom:PositionUncertaintyValue&#45;&gt;niem&#45;xs:nonNegativeInteger -->
<g id="edge2" class="edge">
<title>biom:PositionUncertaintyValue&#45;&gt;niem&#45;xs:nonNegativeInteger</title>
<path fill="none" stroke="#000000" d="M364.2027,-24C380.1756,-24 396.6784,-24 412.4484,-24"/>
<polygon fill="#000000" stroke="#000000" points="412.6928,-27.5001 422.6928,-24 412.6928,-20.5001 412.6928,-27.5001"/>
<text text-anchor="middle" x="393.5" y="-27.4" font-family="Helvetica,sans-Serif" font-size="12.00" fill="#000000">type</text>
</g>
<!-- Types -->
<g id="node2" class="node">
<title>Types</title>
<text text-anchor="start" x="2" y="-21.4" font-family="Helvetica,sans-Serif" font-weight="bold" font-size="12.00" fill="#000000">Types</text>
<g id="a_node2_1"><a xlink:href="../../biom/MinutiaeType/#diagram" xlink:title="A data type for a set of minutiae definitions" target="_top">
<polygon fill="#ebebeb" stroke="transparent" points="1,-1 1,-16 105,-16 105,-1 1,-1"/>
<text text-anchor="start" x="2" y="-5.4" font-family="Helvetica,sans-Serif" font-size="12.00" fill="#000000">biom:MinutiaeType</text>
</a>
</g>
<polygon fill="#000000" stroke="#000000" points="0,-16 0,-16 106,-16 106,-16 0,-16"/>
<polygon fill="none" stroke="#000000" points="0,0 0,-32 106,-32 106,0 0,0"/>
</g>
<!-- Types&#45;&gt;biom:PositionUncertaintyValue -->
<g id="edge1" class="edge">
<title>Types:top&#45;&gt;biom:PositionUncertaintyValue</title>
<path fill="none" stroke="#000000" d="M105,-24C123.7333,-24 143.6739,-24 162.9543,-24"/>
<polygon fill="#000000" stroke="#000000" points="162.9667,-27.5001 172.9667,-24 162.9667,-20.5001 162.9667,-27.5001"/>
<text text-anchor="middle" x="139.5" y="-27.4" font-family="Helvetica,sans-Serif" font-size="12.00" fill="#000000">has&#45;a</text>
</g>
</g>
</svg>
