<?xml version="1.0" encoding="UTF-8" standalone="no"?>
<!DOCTYPE svg PUBLIC "-//W3C//DTD SVG 1.1//EN"
 "http://www.w3.org/Graphics/SVG/1.1/DTD/svg11.dtd">
<!-- Generated by graphviz version 2.40.1 (20161225.0304)
 -->
<!-- Title: graphic Pages: 1 -->
<svg width="294pt" height="86pt"
 viewBox="0.00 0.00 294.00 86.00" xmlns="http://www.w3.org/2000/svg" xmlns:xlink="http://www.w3.org/1999/xlink">
<g id="graph0" class="graph" transform="scale(1 1) rotate(0) translate(4 82)">
<title>graphic</title>
<polygon fill="#ffffff" stroke="transparent" points="-4,4 -4,-82 290,-82 290,4 -4,4"/>
<!-- cbrn:LayerMaterialText -->
<g id="node1" class="node">
<title>cbrn:LayerMaterialText</title>
<text text-anchor="start" x="8" y="-9.9" font-family="Helvetica,sans-Serif" font-weight="bold" font-size="12.00" fill="#000000">cbrn:LayerMaterialText</text>
<polygon fill="none" stroke="#ff0000" stroke-width="5" points="4,-2.5 4,-22.5 144,-22.5 144,-2.5 4,-2.5"/>
</g>
<!-- niem&#45;xs:string -->
<g id="node3" class="node">
<title>niem&#45;xs:string</title>
<g id="a_node3_0"><a xlink:href="../../niem-xs/string/#diagram" xlink:title="A data type for character strings in XML." target="_top">
<text text-anchor="start" x="209.5" y="-8.9" font-family="Helvetica,sans-Serif" font-size="12.00" fill="#000000">niem&#45;xs:string</text>
</a>
</g>
<polygon fill="none" stroke="#000000" points="207,-4 207,-21 286,-21 286,-4 207,-4"/>
</g>
<!-- cbrn:LayerMaterialText&#45;&gt;niem&#45;xs:string -->
<g id="edge2" class="edge">
<title>cbrn:LayerMaterialText&#45;&gt;niem&#45;xs:string</title>
<path fill="none" stroke="#000000" d="M146.6556,-12.5C163.4135,-12.5 180.8737,-12.5 196.4194,-12.5"/>
<polygon fill="#000000" stroke="#000000" points="196.8439,-16.0001 206.8438,-12.5 196.8438,-9.0001 196.8439,-16.0001"/>
<text text-anchor="middle" x="177.5" y="-15.9" font-family="Helvetica,sans-Serif" font-size="12.00" fill="#000000">type</text>
</g>
<!-- SubstitutionGroup -->
<g id="node2" class="node">
<title>SubstitutionGroup</title>
<g id="a_node2_1"><a xlink:href="../../cbrn/LayerMaterialAbstract/#diagram" xlink:title="A data concept for the material of which a shielding layer is composed." target="_top">
<text text-anchor="start" x="2" y="-65.9" font-family="Helvetica,sans-Serif" font-size="12.00" fill="#000000">cbrn:LayerMaterialAbstract</text>
</a>
</g>
<polygon fill="none" stroke="#000000" points="0,-61 0,-78 148,-78 148,-61 0,-61"/>
</g>
<!-- SubstitutionGroup&#45;&gt;cbrn:LayerMaterialText -->
<g id="edge1" class="edge">
<title>SubstitutionGroup&#45;&gt;cbrn:LayerMaterialText</title>
<path fill="none" stroke="#000000" d="M74,-50.9163C74,-42.4809 74,-32.7214 74,-25.1501"/>
<polygon fill="#000000" stroke="#000000" points="70.5001,-50.9472 74,-60.9473 77.5001,-50.9473 70.5001,-50.9472"/>
<text text-anchor="middle" x="64.5" y="-39.9" font-family="Helvetica,sans-Serif" font-size="12.00" fill="#000000">substitution group</text>
</g>
</g>
</svg>
