<?xml version="1.0" encoding="UTF-8" standalone="no"?>
<!DOCTYPE svg PUBLIC "-//W3C//DTD SVG 1.1//EN"
 "http://www.w3.org/Graphics/SVG/1.1/DTD/svg11.dtd">
<!-- Generated by graphviz version 2.40.1 (20161225.0304)
 -->
<!-- Title: graphic Pages: 1 -->
<svg width="464pt" height="101pt"
 viewBox="0.00 0.00 464.00 101.00" xmlns="http://www.w3.org/2000/svg" xmlns:xlink="http://www.w3.org/1999/xlink">
<g id="graph0" class="graph" transform="scale(1 1) rotate(0) translate(4 97)">
<title>graphic</title>
<polygon fill="#ffffff" stroke="transparent" points="-4,4 -4,-97 460,-97 460,4 -4,4"/>
<!-- j:HearingRequestWaiverPeriodAbstract -->
<g id="node1" class="node">
<title>j:HearingRequestWaiverPeriodAbstract</title>
<text text-anchor="start" x="211.5" y="-77.4" font-family="Helvetica,sans-Serif" font-weight="bold" font-size="12.00" fill="#000000">j:HearingRequestWaiverPeriodAbstract</text>
<polygon fill="none" stroke="#ff0000" stroke-width="5" points="207.5,-70 207.5,-90 439.5,-90 439.5,-70 207.5,-70"/>
</g>
<!-- SubstitutableElements -->
<g id="node3" class="node">
<title>SubstitutableElements</title>
<text text-anchor="start" x="193.5" y="-21.4" font-family="Helvetica,sans-Serif" font-weight="bold" font-size="12.00" fill="#000000">Substitutable elements</text>
<g id="a_node3_0"><a xlink:href="../../j/HearingRequestWaiverPeriodText/#diagram" xlink:title="A kind of time period a hearing can be waved by request." target="_top">
<polygon fill="#ebebeb" stroke="transparent" points="192.5,-1 192.5,-16 455.5,-16 455.5,-1 192.5,-1"/>
<text text-anchor="start" x="193.5" y="-5.4" font-family="Helvetica,sans-Serif" font-size="12.00" fill="#000000">j:HearingRequestWaiverPeriodText: nc:TextType</text>
</a>
</g>
<polygon fill="#000000" stroke="#000000" points="191.5,-16 191.5,-16 456.5,-16 456.5,-16 191.5,-16"/>
<polygon fill="none" stroke="#000000" points="191,0 191,-32 456,-32 456,0 191,0"/>
</g>
<!-- j:HearingRequestWaiverPeriodAbstract&#45;&gt;SubstitutableElements -->
<g id="edge2" class="edge">
<title>j:HearingRequestWaiverPeriodAbstract&#45;&gt;SubstitutableElements</title>
<path fill="none" stroke="#000000" d="M323.5,-57.3063C323.5,-48.9972 323.5,-39.7712 323.5,-32.1499"/>
<polygon fill="#000000" stroke="#000000" points="320.0001,-57.4892 323.5,-67.4892 327.0001,-57.4892 320.0001,-57.4892"/>
<text text-anchor="middle" x="314" y="-46.65" font-family="Helvetica,sans-Serif" font-size="12.00" fill="#000000">substitutable for</text>
</g>
<!-- Types -->
<g id="node2" class="node">
<title>Types</title>
<text text-anchor="start" x="2" y="-77.4" font-family="Helvetica,sans-Serif" font-weight="bold" font-size="12.00" fill="#000000">Types</text>
<g id="a_node2_1"><a xlink:href="../../j/HearingRequestType/#diagram" xlink:title="A data type for a formal request made for a hearing." target="_top">
<polygon fill="#ebebeb" stroke="transparent" points="1,-57 1,-72 123,-72 123,-57 1,-57"/>
<text text-anchor="start" x="2" y="-61.4" font-family="Helvetica,sans-Serif" font-size="12.00" fill="#000000">j:HearingRequestType</text>
</a>
</g>
<polygon fill="#000000" stroke="#000000" points="0,-72 0,-72 124,-72 124,-72 0,-72"/>
<polygon fill="none" stroke="#000000" points="0,-56 0,-88 124,-88 124,-56 0,-56"/>
</g>
<!-- Types&#45;&gt;j:HearingRequestWaiverPeriodAbstract -->
<g id="edge1" class="edge">
<title>Types:top&#45;&gt;j:HearingRequestWaiverPeriodAbstract</title>
<path fill="none" stroke="#000000" d="M123,-80C146.148,-80 170.7993,-80 194.6108,-80"/>
<polygon fill="#000000" stroke="#000000" points="194.7576,-83.5001 204.7575,-80 194.7575,-76.5001 194.7576,-83.5001"/>
<text text-anchor="middle" x="157.5" y="-83.4" font-family="Helvetica,sans-Serif" font-size="12.00" fill="#000000">has&#45;a</text>
</g>
</g>
</svg>
