<?xml version="1.0" encoding="UTF-8" standalone="no"?>
<!DOCTYPE svg PUBLIC "-//W3C//DTD SVG 1.1//EN"
 "http://www.w3.org/Graphics/SVG/1.1/DTD/svg11.dtd">
<!-- Generated by graphviz version 2.40.1 (20161225.0304)
 -->
<!-- Title: graphic Pages: 1 -->
<svg width="609pt" height="45pt"
 viewBox="0.00 0.00 609.00 45.00" xmlns="http://www.w3.org/2000/svg" xmlns:xlink="http://www.w3.org/1999/xlink">
<g id="graph0" class="graph" transform="scale(1 1) rotate(0) translate(4 41)">
<title>graphic</title>
<polygon fill="#ffffff" stroke="transparent" points="-4,4 -4,-41 605,-41 605,4 -4,4"/>
<!-- j:ConfidentialSubjectInfoKnowledgeText -->
<g id="node1" class="node">
<title>j:ConfidentialSubjectInfoKnowledgeText</title>
<text text-anchor="start" x="234.5" y="-21.4" font-family="Helvetica,sans-Serif" font-weight="bold" font-size="12.00" fill="#000000">j:ConfidentialSubjectInfoKnowledgeText</text>
<polygon fill="none" stroke="#ff0000" stroke-width="5" points="230.5,-14 230.5,-34 468.5,-34 468.5,-14 230.5,-14"/>
</g>
<!-- nc:TextType -->
<g id="node3" class="node">
<title>nc:TextType</title>
<g id="a_node3_0"><a xlink:href="../../nc/TextType/#diagram" xlink:title="A data type for a character string." target="_top">
<text text-anchor="start" x="532.5" y="-20.4" font-family="Helvetica,sans-Serif" font-size="12.00" fill="#000000">nc:TextType</text>
</a>
</g>
<polygon fill="none" stroke="#000000" points="530,-15.5 530,-32.5 601,-32.5 601,-15.5 530,-15.5"/>
</g>
<!-- j:ConfidentialSubjectInfoKnowledgeText&#45;&gt;nc:TextType -->
<g id="edge2" class="edge">
<title>j:ConfidentialSubjectInfoKnowledgeText&#45;&gt;nc:TextType</title>
<path fill="none" stroke="#000000" d="M471.0735,-24C488.3648,-24 505.1845,-24 519.7215,-24"/>
<polygon fill="#000000" stroke="#000000" points="519.8774,-27.5001 529.8774,-24 519.8774,-20.5001 519.8774,-27.5001"/>
<text text-anchor="middle" x="500.5" y="-27.4" font-family="Helvetica,sans-Serif" font-size="12.00" fill="#000000">type</text>
</g>
<!-- Types -->
<g id="node2" class="node">
<title>Types</title>
<text text-anchor="start" x="2.5" y="-21.4" font-family="Helvetica,sans-Serif" font-weight="bold" font-size="12.00" fill="#000000">Types</text>
<g id="a_node2_1"><a xlink:href="../../j/ConfidentialInformationType/#diagram" xlink:title="A data type for a classification of Information that cannot be shared with the public or the subject of the information." target="_top">
<polygon fill="#ebebeb" stroke="transparent" points="1.5,-1 1.5,-16 160.5,-16 160.5,-1 1.5,-1"/>
<text text-anchor="start" x="2.5" y="-5.4" font-family="Helvetica,sans-Serif" font-size="12.00" fill="#000000">j:ConfidentialInformationType</text>
</a>
</g>
<polygon fill="#000000" stroke="#000000" points=".5,-16 .5,-16 161.5,-16 161.5,-16 .5,-16"/>
<polygon fill="none" stroke="#000000" points="0,0 0,-32 161,-32 161,0 0,0"/>
</g>
<!-- Types&#45;&gt;j:ConfidentialSubjectInfoKnowledgeText -->
<g id="edge1" class="edge">
<title>Types:top&#45;&gt;j:ConfidentialSubjectInfoKnowledgeText</title>
<path fill="none" stroke="#000000" d="M160.5,-24C179.0115,-24 198.5429,-24 217.7456,-24"/>
<polygon fill="#000000" stroke="#000000" points="217.7503,-27.5001 227.7503,-24 217.7503,-20.5001 217.7503,-27.5001"/>
<text text-anchor="middle" x="194.5" y="-27.4" font-family="Helvetica,sans-Serif" font-size="12.00" fill="#000000">has&#45;a</text>
</g>
</g>
</svg>
