<?xml version="1.0" encoding="UTF-8" standalone="no"?>
<!DOCTYPE svg PUBLIC "-//W3C//DTD SVG 1.1//EN"
 "http://www.w3.org/Graphics/SVG/1.1/DTD/svg11.dtd">
<!-- Generated by graphviz version 2.40.1 (20161225.0304)
 -->
<!-- Title: graphic Pages: 1 -->
<svg width="535pt" height="45pt"
 viewBox="0.00 0.00 535.00 45.00" xmlns="http://www.w3.org/2000/svg" xmlns:xlink="http://www.w3.org/1999/xlink">
<g id="graph0" class="graph" transform="scale(1 1) rotate(0) translate(4 41)">
<title>graphic</title>
<polygon fill="#ffffff" stroke="transparent" points="-4,4 -4,-41 531,-41 531,4 -4,4"/>
<!-- cbrn:ThursdayHoursText -->
<g id="node1" class="node">
<title>cbrn:ThursdayHoursText</title>
<text text-anchor="start" x="247" y="-21.4" font-family="Helvetica,sans-Serif" font-weight="bold" font-size="12.00" fill="#000000">cbrn:ThursdayHoursText</text>
<polygon fill="none" stroke="#ff0000" stroke-width="5" points="243.5,-14 243.5,-34 394.5,-34 394.5,-14 243.5,-14"/>
</g>
<!-- nc:TextType -->
<g id="node3" class="node">
<title>nc:TextType</title>
<g id="a_node3_0"><a xlink:href="../../nc/TextType/#diagram" xlink:title="A data type for a character string." target="_top">
<text text-anchor="start" x="458.5" y="-20.4" font-family="Helvetica,sans-Serif" font-size="12.00" fill="#000000">nc:TextType</text>
</a>
</g>
<polygon fill="none" stroke="#000000" points="456,-15.5 456,-32.5 527,-32.5 527,-15.5 456,-15.5"/>
</g>
<!-- cbrn:ThursdayHoursText&#45;&gt;nc:TextType -->
<g id="edge2" class="edge">
<title>cbrn:ThursdayHoursText&#45;&gt;nc:TextType</title>
<path fill="none" stroke="#000000" d="M397.1746,-24C413.6731,-24 430.5691,-24 445.4195,-24"/>
<polygon fill="#000000" stroke="#000000" points="445.8364,-27.5001 455.8364,-24 445.8363,-20.5001 445.8364,-27.5001"/>
<text text-anchor="middle" x="426.5" y="-27.4" font-family="Helvetica,sans-Serif" font-size="12.00" fill="#000000">type</text>
</g>
<!-- Types -->
<g id="node2" class="node">
<title>Types</title>
<text text-anchor="start" x="2" y="-21.4" font-family="Helvetica,sans-Serif" font-weight="bold" font-size="12.00" fill="#000000">Types</text>
<g id="a_node2_1"><a xlink:href="../../cbrn/ScheduleByWeekDayType/#diagram" xlink:title="A data type for a schedule where the hours are not the same for all weekdays." target="_top">
<polygon fill="#ebebeb" stroke="transparent" points="1,-1 1,-16 173,-16 173,-1 1,-1"/>
<text text-anchor="start" x="2" y="-5.4" font-family="Helvetica,sans-Serif" font-size="12.00" fill="#000000">cbrn:ScheduleByWeekDayType</text>
</a>
</g>
<polygon fill="#000000" stroke="#000000" points="0,-16 0,-16 174,-16 174,-16 0,-16"/>
<polygon fill="none" stroke="#000000" points="0,0 0,-32 174,-32 174,0 0,0"/>
</g>
<!-- Types&#45;&gt;cbrn:ThursdayHoursText -->
<g id="edge1" class="edge">
<title>Types:top&#45;&gt;cbrn:ThursdayHoursText</title>
<path fill="none" stroke="#000000" d="M173,-24C191.6926,-24 211.7314,-24 230.7895,-24"/>
<polygon fill="#000000" stroke="#000000" points="230.9567,-27.5001 240.9566,-24 230.9566,-20.5001 230.9567,-27.5001"/>
<text text-anchor="middle" x="207.5" y="-27.4" font-family="Helvetica,sans-Serif" font-size="12.00" fill="#000000">has&#45;a</text>
</g>
</g>
</svg>
