<?xml version="1.0" encoding="UTF-8" standalone="no"?>
<!DOCTYPE svg PUBLIC "-//W3C//DTD SVG 1.1//EN"
 "http://www.w3.org/Graphics/SVG/1.1/DTD/svg11.dtd">
<!-- Generated by graphviz version 2.40.1 (20161225.0304)
 -->
<!-- Title: graphic Pages: 1 -->
<svg width="483pt" height="45pt"
 viewBox="0.00 0.00 483.00 45.00" xmlns="http://www.w3.org/2000/svg" xmlns:xlink="http://www.w3.org/1999/xlink">
<g id="graph0" class="graph" transform="scale(1 1) rotate(0) translate(4 41)">
<title>graphic</title>
<polygon fill="#ffffff" stroke="transparent" points="-4,4 -4,-41 479,-41 479,4 -4,4"/>
<!-- nc:VehicleIdentification -->
<g id="node1" class="node">
<title>nc:VehicleIdentification</title>
<text text-anchor="start" x="160.5" y="-21.4" font-family="Helvetica,sans-Serif" font-weight="bold" font-size="12.00" fill="#000000">nc:VehicleIdentification</text>
<polygon fill="none" stroke="#ff0000" stroke-width="5" points="156.5,-14 156.5,-34 298.5,-34 298.5,-14 156.5,-14"/>
</g>
<!-- nc:IdentificationType -->
<g id="node3" class="node">
<title>nc:IdentificationType</title>
<g id="a_node3_0"><a xlink:href="../../nc/IdentificationType/#diagram" xlink:title="A data type for a representation of an identity." target="_top">
<text text-anchor="start" x="362.5" y="-20.4" font-family="Helvetica,sans-Serif" font-size="12.00" fill="#000000">nc:IdentificationType</text>
</a>
</g>
<polygon fill="none" stroke="#000000" points="360,-15.5 360,-32.5 475,-32.5 475,-15.5 360,-15.5"/>
</g>
<!-- nc:VehicleIdentification&#45;&gt;nc:IdentificationType -->
<g id="edge2" class="edge">
<title>nc:VehicleIdentification&#45;&gt;nc:IdentificationType</title>
<path fill="none" stroke="#000000" d="M301.2309,-24C317.1466,-24 333.9019,-24 349.5829,-24"/>
<polygon fill="#000000" stroke="#000000" points="349.7128,-27.5001 359.7128,-24 349.7128,-20.5001 349.7128,-27.5001"/>
<text text-anchor="middle" x="330.5" y="-27.4" font-family="Helvetica,sans-Serif" font-size="12.00" fill="#000000">type</text>
</g>
<!-- Types -->
<g id="node2" class="node">
<title>Types</title>
<text text-anchor="start" x="2.5" y="-21.4" font-family="Helvetica,sans-Serif" font-weight="bold" font-size="12.00" fill="#000000">Types</text>
<g id="a_node2_1"><a xlink:href="../../nc/VehicleType/#diagram" xlink:title="A data type for a conveyance designed to carry an operator, passengers and/or cargo, over land." target="_top">
<polygon fill="#ebebeb" stroke="transparent" points="1.5,-1 1.5,-16 86.5,-16 86.5,-1 1.5,-1"/>
<text text-anchor="start" x="2.5" y="-5.4" font-family="Helvetica,sans-Serif" font-size="12.00" fill="#000000">nc:VehicleType</text>
</a>
</g>
<polygon fill="#000000" stroke="#000000" points=".5,-16 .5,-16 87.5,-16 87.5,-16 .5,-16"/>
<polygon fill="none" stroke="#000000" points="0,0 0,-32 87,-32 87,0 0,0"/>
</g>
<!-- Types&#45;&gt;nc:VehicleIdentification -->
<g id="edge1" class="edge">
<title>Types:top&#45;&gt;nc:VehicleIdentification</title>
<path fill="none" stroke="#000000" d="M86.5,-24C105.0712,-24 125.0182,-24 143.8947,-24"/>
<polygon fill="#000000" stroke="#000000" points="143.9545,-27.5001 153.9544,-24 143.9544,-20.5001 143.9545,-27.5001"/>
<text text-anchor="middle" x="120.5" y="-27.4" font-family="Helvetica,sans-Serif" font-size="12.00" fill="#000000">has&#45;a</text>
</g>
</g>
</svg>
