<?xml version="1.0" encoding="UTF-8" standalone="no"?>
<!DOCTYPE svg PUBLIC "-//W3C//DTD SVG 1.1//EN"
 "http://www.w3.org/Graphics/SVG/1.1/DTD/svg11.dtd">
<!-- Generated by graphviz version 2.40.1 (20161225.0304)
 -->
<!-- Title: graphic Pages: 1 -->
<svg width="454pt" height="45pt"
 viewBox="0.00 0.00 454.00 45.00" xmlns="http://www.w3.org/2000/svg" xmlns:xlink="http://www.w3.org/1999/xlink">
<g id="graph0" class="graph" transform="scale(1 1) rotate(0) translate(4 41)">
<title>graphic</title>
<polygon fill="#ffffff" stroke="transparent" points="-4,4 -4,-41 450,-41 450,4 -4,4"/>
<!-- j:SentenceFineAmount -->
<g id="node1" class="node">
<title>j:SentenceFineAmount</title>
<text text-anchor="start" x="161.5" y="-21.4" font-family="Helvetica,sans-Serif" font-weight="bold" font-size="12.00" fill="#000000">j:SentenceFineAmount</text>
<polygon fill="none" stroke="#ff0000" stroke-width="5" points="157.5,-14 157.5,-34 295.5,-34 295.5,-14 157.5,-14"/>
</g>
<!-- nc:AmountType -->
<g id="node3" class="node">
<title>nc:AmountType</title>
<g id="a_node3_0"><a xlink:href="../../nc/AmountType/#diagram" xlink:title="A data type for an amount of money." target="_top">
<text text-anchor="start" x="359.5" y="-20.4" font-family="Helvetica,sans-Serif" font-size="12.00" fill="#000000">nc:AmountType</text>
</a>
</g>
<polygon fill="none" stroke="#000000" points="357,-15.5 357,-32.5 446,-32.5 446,-15.5 357,-15.5"/>
</g>
<!-- j:SentenceFineAmount&#45;&gt;nc:AmountType -->
<g id="edge2" class="edge">
<title>j:SentenceFineAmount&#45;&gt;nc:AmountType</title>
<path fill="none" stroke="#000000" d="M298.1841,-24C314.2897,-24 331.1348,-24 346.4379,-24"/>
<polygon fill="#000000" stroke="#000000" points="346.758,-27.5001 356.7579,-24 346.7579,-20.5001 346.758,-27.5001"/>
<text text-anchor="middle" x="327.5" y="-27.4" font-family="Helvetica,sans-Serif" font-size="12.00" fill="#000000">type</text>
</g>
<!-- Types -->
<g id="node2" class="node">
<title>Types</title>
<text text-anchor="start" x="2" y="-21.4" font-family="Helvetica,sans-Serif" font-weight="bold" font-size="12.00" fill="#000000">Types</text>
<g id="a_node2_1"><a xlink:href="../../j/SentenceType/#diagram" xlink:title="A data type for a punishment resulting from conviction of charges in a court case." target="_top">
<polygon fill="#ebebeb" stroke="transparent" points="1,-1 1,-16 87,-16 87,-1 1,-1"/>
<text text-anchor="start" x="2" y="-5.4" font-family="Helvetica,sans-Serif" font-size="12.00" fill="#000000">j:SentenceType</text>
</a>
</g>
<polygon fill="#000000" stroke="#000000" points="0,-16 0,-16 88,-16 88,-16 0,-16"/>
<polygon fill="none" stroke="#000000" points="0,0 0,-32 88,-32 88,0 0,0"/>
</g>
<!-- Types&#45;&gt;j:SentenceFineAmount -->
<g id="edge1" class="edge">
<title>Types:top&#45;&gt;j:SentenceFineAmount</title>
<path fill="none" stroke="#000000" d="M87,-24C105.6815,-24 125.7704,-24 144.7223,-24"/>
<polygon fill="#000000" stroke="#000000" points="144.8157,-27.5001 154.8156,-24 144.8156,-20.5001 144.8157,-27.5001"/>
<text text-anchor="middle" x="121.5" y="-27.4" font-family="Helvetica,sans-Serif" font-size="12.00" fill="#000000">has&#45;a</text>
</g>
</g>
</svg>
