<?xml version="1.0" encoding="UTF-8" standalone="no"?>
<!DOCTYPE svg PUBLIC "-//W3C//DTD SVG 1.1//EN"
 "http://www.w3.org/Graphics/SVG/1.1/DTD/svg11.dtd">
<!-- Generated by graphviz version 2.40.1 (20161225.0304)
 -->
<!-- Title: graphic Pages: 1 -->
<svg width="559pt" height="45pt"
 viewBox="0.00 0.00 559.00 45.00" xmlns="http://www.w3.org/2000/svg" xmlns:xlink="http://www.w3.org/1999/xlink">
<g id="graph0" class="graph" transform="scale(1 1) rotate(0) translate(4 41)">
<title>graphic</title>
<polygon fill="#ffffff" stroke="transparent" points="-4,4 -4,-41 555,-41 555,4 -4,4"/>
<!-- scr:PersonCrossingDescriptionText -->
<g id="node1" class="node">
<title>scr:PersonCrossingDescriptionText</title>
<text text-anchor="start" x="209" y="-21.4" font-family="Helvetica,sans-Serif" font-weight="bold" font-size="12.00" fill="#000000">scr:PersonCrossingDescriptionText</text>
<polygon fill="none" stroke="#ff0000" stroke-width="5" points="205.5,-14 205.5,-34 418.5,-34 418.5,-14 205.5,-14"/>
</g>
<!-- nc:TextType -->
<g id="node3" class="node">
<title>nc:TextType</title>
<g id="a_node3_0"><a xlink:href="../../nc/TextType/#diagram" xlink:title="A data type for a character string." target="_top">
<text text-anchor="start" x="482.5" y="-20.4" font-family="Helvetica,sans-Serif" font-size="12.00" fill="#000000">nc:TextType</text>
</a>
</g>
<polygon fill="none" stroke="#000000" points="480,-15.5 480,-32.5 551,-32.5 551,-15.5 480,-15.5"/>
</g>
<!-- scr:PersonCrossingDescriptionText&#45;&gt;nc:TextType -->
<g id="edge2" class="edge">
<title>scr:PersonCrossingDescriptionText&#45;&gt;nc:TextType</title>
<path fill="none" stroke="#000000" d="M421.1965,-24C438.1919,-24 454.9088,-24 469.4368,-24"/>
<polygon fill="#000000" stroke="#000000" points="469.6014,-27.5001 479.6013,-24 469.6013,-20.5001 469.6014,-27.5001"/>
<text text-anchor="middle" x="450.5" y="-27.4" font-family="Helvetica,sans-Serif" font-size="12.00" fill="#000000">type</text>
</g>
<!-- Types -->
<g id="node2" class="node">
<title>Types</title>
<text text-anchor="start" x="2" y="-21.4" font-family="Helvetica,sans-Serif" font-weight="bold" font-size="12.00" fill="#000000">Types</text>
<g id="a_node2_1"><a xlink:href="../../scr/PersonCrossingType/#diagram" xlink:title="A data type for classification of the direction of a PERSON CROSSING United States Borders." target="_top">
<polygon fill="#ebebeb" stroke="transparent" points="1,-1 1,-16 135,-16 135,-1 1,-1"/>
<text text-anchor="start" x="2" y="-5.4" font-family="Helvetica,sans-Serif" font-size="12.00" fill="#000000">scr:PersonCrossingType</text>
</a>
</g>
<polygon fill="#000000" stroke="#000000" points="0,-16 0,-16 136,-16 136,-16 0,-16"/>
<polygon fill="none" stroke="#000000" points="0,0 0,-32 136,-32 136,0 0,0"/>
</g>
<!-- Types&#45;&gt;scr:PersonCrossingDescriptionText -->
<g id="edge1" class="edge">
<title>Types:top&#45;&gt;scr:PersonCrossingDescriptionText</title>
<path fill="none" stroke="#000000" d="M135,-24C153.71,-24 173.5325,-24 192.8799,-24"/>
<polygon fill="#000000" stroke="#000000" points="192.9456,-27.5001 202.9456,-24 192.9456,-20.5001 192.9456,-27.5001"/>
<text text-anchor="middle" x="169.5" y="-27.4" font-family="Helvetica,sans-Serif" font-size="12.00" fill="#000000">has&#45;a</text>
</g>
</g>
</svg>
