<?xml version="1.0" encoding="UTF-8" standalone="no"?>
<!DOCTYPE svg PUBLIC "-//W3C//DTD SVG 1.1//EN"
 "http://www.w3.org/Graphics/SVG/1.1/DTD/svg11.dtd">
<!-- Generated by graphviz version 2.40.1 (20161225.0304)
 -->
<!-- Title: graphic Pages: 1 -->
<svg width="295pt" height="86pt"
 viewBox="0.00 0.00 295.00 86.00" xmlns="http://www.w3.org/2000/svg" xmlns:xlink="http://www.w3.org/1999/xlink">
<g id="graph0" class="graph" transform="scale(1 1) rotate(0) translate(4 82)">
<title>graphic</title>
<polygon fill="#ffffff" stroke="transparent" points="-4,4 -4,-82 291,-82 291,4 -4,4"/>
<!-- nc:VesselPropulsionText -->
<g id="node1" class="node">
<title>nc:VesselPropulsionText</title>
<text text-anchor="start" x="6.5" y="-9.9" font-family="Helvetica,sans-Serif" font-weight="bold" font-size="12.00" fill="#000000">nc:VesselPropulsionText</text>
<polygon fill="none" stroke="#ff0000" stroke-width="5" points="3,-2.5 3,-22.5 154,-22.5 154,-2.5 3,-2.5"/>
</g>
<!-- nc:TextType -->
<g id="node3" class="node">
<title>nc:TextType</title>
<g id="a_node3_0"><a xlink:href="../../nc/TextType/#diagram" xlink:title="A data type for a character string." target="_top">
<text text-anchor="start" x="218.5" y="-8.9" font-family="Helvetica,sans-Serif" font-size="12.00" fill="#000000">nc:TextType</text>
</a>
</g>
<polygon fill="none" stroke="#000000" points="216,-4 216,-21 287,-21 287,-4 216,-4"/>
</g>
<!-- nc:VesselPropulsionText&#45;&gt;nc:TextType -->
<g id="edge2" class="edge">
<title>nc:VesselPropulsionText&#45;&gt;nc:TextType</title>
<path fill="none" stroke="#000000" d="M156.6488,-12.5C173.3823,-12.5 190.5365,-12.5 205.5752,-12.5"/>
<polygon fill="#000000" stroke="#000000" points="205.6174,-16.0001 215.6174,-12.5 205.6173,-9.0001 205.6174,-16.0001"/>
<text text-anchor="middle" x="186.5" y="-15.9" font-family="Helvetica,sans-Serif" font-size="12.00" fill="#000000">type</text>
</g>
<!-- SubstitutionGroup -->
<g id="node2" class="node">
<title>SubstitutionGroup</title>
<g id="a_node2_1"><a xlink:href="../../nc/VesselPropulsionAbstract/#diagram" xlink:title="A data concept for a mode by which a vessel is designed to move through the water." target="_top">
<text text-anchor="start" x="2.5" y="-65.9" font-family="Helvetica,sans-Serif" font-size="12.00" fill="#000000">nc:VesselPropulsionAbstract</text>
</a>
</g>
<polygon fill="none" stroke="#000000" points="0,-61 0,-78 157,-78 157,-61 0,-61"/>
</g>
<!-- SubstitutionGroup&#45;&gt;nc:VesselPropulsionText -->
<g id="edge1" class="edge">
<title>SubstitutionGroup&#45;&gt;nc:VesselPropulsionText</title>
<path fill="none" stroke="#000000" d="M78.5,-50.9163C78.5,-42.4809 78.5,-32.7214 78.5,-25.1501"/>
<polygon fill="#000000" stroke="#000000" points="75.0001,-50.9472 78.5,-60.9473 82.0001,-50.9473 75.0001,-50.9472"/>
<text text-anchor="middle" x="69" y="-39.9" font-family="Helvetica,sans-Serif" font-size="12.00" fill="#000000">substitution group</text>
</g>
</g>
</svg>
