<?xml version="1.0" encoding="UTF-8" standalone="no"?>
<!DOCTYPE svg PUBLIC "-//W3C//DTD SVG 1.1//EN"
 "http://www.w3.org/Graphics/SVG/1.1/DTD/svg11.dtd">
<!-- Generated by graphviz version 2.40.1 (20161225.0304)
 -->
<!-- Title: graphic Pages: 1 -->
<svg width="582pt" height="45pt"
 viewBox="0.00 0.00 582.00 45.00" xmlns="http://www.w3.org/2000/svg" xmlns:xlink="http://www.w3.org/1999/xlink">
<g id="graph0" class="graph" transform="scale(1 1) rotate(0) translate(4 41)">
<title>graphic</title>
<polygon fill="#ffffff" stroke="transparent" points="-4,4 -4,-41 578,-41 578,4 -4,4"/>
<!-- em:EventInvestigation -->
<g id="node1" class="node">
<title>em:EventInvestigation</title>
<text text-anchor="start" x="231.5" y="-21.4" font-family="Helvetica,sans-Serif" font-weight="bold" font-size="12.00" fill="#000000">em:EventInvestigation</text>
<polygon fill="none" stroke="#ff0000" stroke-width="5" points="227.5,-14 227.5,-34 363.5,-34 363.5,-14 227.5,-14"/>
</g>
<!-- em:EventInvestigationType -->
<g id="node3" class="node">
<title>em:EventInvestigationType</title>
<g id="a_node3_0"><a xlink:href="../../em/EventInvestigationType/#diagram" xlink:title="A data type for an investigation of a public health event." target="_top">
<text text-anchor="start" x="427.5" y="-20.4" font-family="Helvetica,sans-Serif" font-size="12.00" fill="#000000">em:EventInvestigationType</text>
</a>
</g>
<polygon fill="none" stroke="#000000" points="425,-15.5 425,-32.5 574,-32.5 574,-15.5 425,-15.5"/>
</g>
<!-- em:EventInvestigation&#45;&gt;em:EventInvestigationType -->
<g id="edge2" class="edge">
<title>em:EventInvestigation&#45;&gt;em:EventInvestigationType</title>
<path fill="none" stroke="#000000" d="M366.2768,-24C381.7584,-24 398.3021,-24 414.2808,-24"/>
<polygon fill="#000000" stroke="#000000" points="414.6828,-27.5001 424.6827,-24 414.6827,-20.5001 414.6828,-27.5001"/>
<text text-anchor="middle" x="395.5" y="-27.4" font-family="Helvetica,sans-Serif" font-size="12.00" fill="#000000">type</text>
</g>
<!-- Types -->
<g id="node2" class="node">
<title>Types</title>
<text text-anchor="start" x="2" y="-21.4" font-family="Helvetica,sans-Serif" font-weight="bold" font-size="12.00" fill="#000000">Types</text>
<g id="a_node2_1"><a xlink:href="../../em/ResponseOperationType/#diagram" xlink:title="A data type for a set of information about a Public Health Emergency Operations Center (PHEOC) response operation, such as the number of cases, fatalities, infrastructure status, and risk assessment." target="_top">
<polygon fill="#ebebeb" stroke="transparent" points="1,-1 1,-16 157,-16 157,-1 1,-1"/>
<text text-anchor="start" x="2" y="-5.4" font-family="Helvetica,sans-Serif" font-size="12.00" fill="#000000">em:ResponseOperationType</text>
</a>
</g>
<polygon fill="#000000" stroke="#000000" points="0,-16 0,-16 158,-16 158,-16 0,-16"/>
<polygon fill="none" stroke="#000000" points="0,0 0,-32 158,-32 158,0 0,0"/>
</g>
<!-- Types&#45;&gt;em:EventInvestigation -->
<g id="edge1" class="edge">
<title>Types:top&#45;&gt;em:EventInvestigation</title>
<path fill="none" stroke="#000000" d="M157,-24C175.6495,-24 195.7116,-24 214.6185,-24"/>
<polygon fill="#000000" stroke="#000000" points="214.6857,-27.5001 224.6857,-24 214.6857,-20.5001 214.6857,-27.5001"/>
<text text-anchor="middle" x="191.5" y="-27.4" font-family="Helvetica,sans-Serif" font-size="12.00" fill="#000000">has&#45;a</text>
</g>
</g>
</svg>
