<?xml version="1.0" encoding="UTF-8" standalone="no"?>
<!DOCTYPE svg PUBLIC "-//W3C//DTD SVG 1.1//EN"
 "http://www.w3.org/Graphics/SVG/1.1/DTD/svg11.dtd">
<!-- Generated by graphviz version 2.40.1 (20161225.0304)
 -->
<!-- Title: graphic Pages: 1 -->
<svg width="917pt" height="271pt"
 viewBox="0.00 0.00 917.00 270.50" xmlns="http://www.w3.org/2000/svg" xmlns:xlink="http://www.w3.org/1999/xlink">
<g id="graph0" class="graph" transform="scale(1 1) rotate(0) translate(4 266.5)">
<title>graphic</title>
<polygon fill="#ffffff" stroke="transparent" points="-4,4 -4,-266.5 913,-266.5 913,4 -4,4"/>
<!-- nc:TimeMeasureType -->
<g id="node1" class="node">
<title>nc:TimeMeasureType</title>
<text text-anchor="start" x="304.5" y="-141.4" font-family="Helvetica,sans-Serif" font-weight="bold" font-size="12.00" fill="#000000">nc:TimeMeasureType</text>
<g id="a_node1_0"><a xlink:href="../../nc/TimeUnitAbstract/#diagram" xlink:title="A data concept for a unit of measure for amount of time." target="_top">
<polygon fill="#ebebeb" stroke="transparent" points="303.5,-121 303.5,-136 524.5,-136 524.5,-121 303.5,-121"/>
<text text-anchor="start" x="304.5" y="-125.4" font-family="Helvetica,sans-Serif" font-size="12.00" fill="#000000">nc:TimeUnitAbstract [0&#45;n]</text>
</a>
</g>
<g id="a_node1_1"><a xlink:href="../../nc/TimeMeasureAugmentationPoint/#diagram" xlink:title="An augmentation point for type nc:TimeMeasureType" target="_top">
<text text-anchor="start" x="304.5" y="-110.4" font-family="Helvetica,sans-Serif" font-size="12.00" fill="#000000">nc:TimeMeasureAugmentationPoint [0&#45;n]</text>
</a>
</g>
<polygon fill="#ff0000" stroke="#ff0000" points="298.5,-136 298.5,-136 529.5,-136 529.5,-136 298.5,-136"/>
<polygon fill="none" stroke="#ff0000" stroke-width="5" points="300.5,-104 300.5,-154 526.5,-154 526.5,-104 300.5,-104"/>
</g>
<!-- subst_d9e22776 -->
<g id="node2" class="node">
<title>subst_d9e22776</title>
<g id="a_node2_2"><a xlink:href="../../nc/TimeUnitAbstract/#diagram" xlink:title="&lt;TABLE&gt;" target="_top">
<text text-anchor="start" x="568.5" y="-125.4" font-family="Helvetica,sans-Serif" font-weight="bold" font-size="12.00" fill="#000000">Substitution group nc:TimeUnitAbstract</text>
</a>
</g>
<g id="a_node2_3"><a xlink:href="../../unece/TimeUnitCode/#diagram" xlink:title="A unit of measure of the time value." target="_top">
<polygon fill="#ebebeb" stroke="transparent" points="567.5,-105 567.5,-120 908.5,-120 908.5,-105 567.5,-105"/>
<text text-anchor="start" x="568.5" y="-109.4" font-family="Helvetica,sans-Serif" font-size="12.00" fill="#000000">unece:TimeUnitCode: unece:TimeCodeType</text>
</a>
</g>
<g id="a_node2_4"><a xlink:href="../../j/PersonAgeBabyCode/#diagram" xlink:title="An age code of person less than or equal to 1 year old." target="_top">
<text text-anchor="start" x="568.5" y="-94.4" font-family="Helvetica,sans-Serif" font-size="12.00" fill="#000000">j:PersonAgeBabyCode: ucr:PersonAgeCodeType</text>
</a>
</g>
<g id="a_node2_5"><a xlink:href="../../j/PersonAgePrenatalUnitCode/#diagram" xlink:title="A unit of measure of the age of an unborn child." target="_top">
<polygon fill="#ebebeb" stroke="transparent" points="567.5,-75 567.5,-90 908.5,-90 908.5,-75 567.5,-75"/>
<text text-anchor="start" x="568.5" y="-79.4" font-family="Helvetica,sans-Serif" font-size="12.00" fill="#000000">j:PersonAgePrenatalUnitCode: ndex:PrenatalAgeUnitCodeType</text>
</a>
</g>
<polygon fill="#000000" stroke="#000000" points="566.5,-120 566.5,-120 909.5,-120 909.5,-120 566.5,-120"/>
<polygon fill="none" stroke="#000000" points="566,-74 566,-136 909,-136 909,-74 566,-74"/>
</g>
<!-- nc:TimeMeasureType&#45;&gt;subst_d9e22776 -->
<g id="edge1" class="edge">
<title>nc:TimeMeasureType:e&#45;&gt;subst_d9e22776:w</title>
<path fill="none" stroke="#000000" d="M534.6119,-128C546.1435,-128 552.2708,-128 567.5,-128"/>
<polygon fill="#000000" stroke="#000000" points="534.5,-124.5001 524.5,-128 534.5,-131.5001 534.5,-124.5001"/>
</g>
<!-- Properties -->
<g id="node3" class="node">
<title>Properties</title>
<text text-anchor="start" x="2.5" y="-141.4" font-family="Helvetica,sans-Serif" font-weight="bold" font-size="12.00" fill="#000000">Properties</text>
<g id="a_node3_6"><a xlink:href="../../hs/DrugUseAgeMeasure/#diagram" xlink:title="An age at which the person first began using an illegal substance." target="_top">
<polygon fill="#ebebeb" stroke="transparent" points="1.5,-121 1.5,-136 238.5,-136 238.5,-121 1.5,-121"/>
<text text-anchor="start" x="2.5" y="-125.4" font-family="Helvetica,sans-Serif" font-size="12.00" fill="#000000">hs:DrugUseAgeMeasure</text>
</a>
</g>
<g id="a_node3_7"><a xlink:href="../../hs/PerceivedAgeMeasure/#diagram" xlink:title="A measurement of the perceived or apparent age of a person." target="_top">
<text text-anchor="start" x="2.5" y="-110.4" font-family="Helvetica,sans-Serif" font-size="12.00" fill="#000000">hs:PerceivedAgeMeasure</text>
</a>
</g>
<g id="a_node3_8"><a xlink:href="../../hs/TimeOfAdoptionAgeMeasure/#diagram" xlink:title="An age of a juvenile at the time of adoption." target="_top">
<polygon fill="#ebebeb" stroke="transparent" points="1.5,-91 1.5,-106 238.5,-106 238.5,-91 1.5,-91"/>
<text text-anchor="start" x="2.5" y="-95.4" font-family="Helvetica,sans-Serif" font-size="12.00" fill="#000000">hs:TimeOfAdoptionAgeMeasure</text>
</a>
</g>
<g id="a_node3_9"><a xlink:href="../../j/SubjectAssessmentFirstArrestAgeMeasure/#diagram" xlink:title="A measure of the subject&#39;s age at the time of their first criminal arrest." target="_top">
<text text-anchor="start" x="2.5" y="-80.4" font-family="Helvetica,sans-Serif" font-size="12.00" fill="#000000">j:SubjectAssessmentFirstArrestAgeMeasure</text>
</a>
</g>
<g id="a_node3_10"><a xlink:href="../../m/VesselEnduranceMeasure/#diagram" xlink:title="An extent of time that, under normal conditions, a vessel can operate without support." target="_top">
<polygon fill="#ebebeb" stroke="transparent" points="1.5,-61 1.5,-76 238.5,-76 238.5,-61 1.5,-61"/>
<text text-anchor="start" x="2.5" y="-65.4" font-family="Helvetica,sans-Serif" font-size="12.00" fill="#000000">m:VesselEnduranceMeasure</text>
</a>
</g>
<g id="a_node3_11"><a xlink:href="../../nc/ItemAgeMeasure/#diagram" xlink:title="An age of an item." target="_top">
<text text-anchor="start" x="2.5" y="-50.4" font-family="Helvetica,sans-Serif" font-size="12.00" fill="#000000">nc:ItemAgeMeasure</text>
</a>
</g>
<g id="a_node3_12"><a xlink:href="../../nc/MilitaryServiceTimeMeasure/#diagram" xlink:title="A quantity of time a person spent in military service." target="_top">
<polygon fill="#ebebeb" stroke="transparent" points="1.5,-31 1.5,-46 238.5,-46 238.5,-31 1.5,-31"/>
<text text-anchor="start" x="2.5" y="-35.4" font-family="Helvetica,sans-Serif" font-size="12.00" fill="#000000">nc:MilitaryServiceTimeMeasure</text>
</a>
</g>
<g id="a_node3_13"><a xlink:href="../../nc/PersonAgeMeasure/#diagram" xlink:title="A measurement of the age of a person." target="_top">
<text text-anchor="start" x="2.5" y="-20.4" font-family="Helvetica,sans-Serif" font-size="12.00" fill="#000000">nc:PersonAgeMeasure</text>
</a>
</g>
<g id="a_node3_14"><a xlink:href="../../nc/TimeMeasure/#diagram" xlink:title="A measure of an amount of time." target="_top">
<polygon fill="#ebebeb" stroke="transparent" points="1.5,-1 1.5,-16 238.5,-16 238.5,-1 1.5,-1"/>
<text text-anchor="start" x="2.5" y="-5.4" font-family="Helvetica,sans-Serif" font-size="12.00" fill="#000000">nc:TimeMeasure</text>
</a>
</g>
<polygon fill="#000000" stroke="#000000" points=".5,-136 .5,-136 239.5,-136 239.5,-136 .5,-136"/>
<polygon fill="none" stroke="#000000" points="0,0 0,-152 239,-152 239,0 0,0"/>
</g>
<!-- Properties&#45;&gt;nc:TimeMeasureType -->
<g id="edge2" class="edge">
<title>Properties:top&#45;&gt;nc:TimeMeasureType:top</title>
<path fill="none" stroke="#000000" d="M238.5,-144C263.6649,-144 272.3891,-144 293.3154,-144"/>
<polygon fill="#000000" stroke="#000000" points="293.5,-147.5001 303.5,-144 293.5,-140.5001 293.5,-147.5001"/>
<text text-anchor="middle" x="268.5" y="-147.4" font-family="Helvetica,sans-Serif" font-size="12.00" fill="#000000">type</text>
</g>
<!-- nc:MeasureType -->
<g id="node4" class="node">
<title>nc:MeasureType</title>
<g id="a_node4_15"><a xlink:href="../../nc/MeasureType/#diagram" xlink:title="A data type for a measurement." target="_top">
<text text-anchor="start" x="368.5" y="-197.4" font-family="Helvetica,sans-Serif" font-size="12.00" fill="#000000">nc:MeasureType</text>
</a>
</g>
<polygon fill="none" stroke="#000000" points="366.5,-192.5 366.5,-209.5 460.5,-209.5 460.5,-192.5 366.5,-192.5"/>
</g>
<!-- nc:MeasureType&#45;&gt;nc:TimeMeasureType -->
<g id="edge3" class="edge">
<title>nc:MeasureType&#45;&gt;nc:TimeMeasureType</title>
<path fill="none" stroke="#000000" d="M413.5,-192.3151C413.5,-185.8271 413.5,-176.4677 413.5,-166.9273"/>
<polygon fill="#000000" stroke="#000000" points="417.0001,-166.6311 413.5,-156.6312 410.0001,-166.6312 417.0001,-166.6311"/>
<text text-anchor="middle" x="404" y="-171.4" font-family="Helvetica,sans-Serif" font-size="12.00" fill="#000000">extension</text>
</g>
<!-- structures:ObjectType -->
<g id="node5" class="node">
<title>structures:ObjectType</title>
<g id="a_node5_16"><a xlink:href="../../structures/ObjectType/#diagram" xlink:title="A data type for a thing with its own lifespan that has some existence." target="_top">
<text text-anchor="start" x="354.5" y="-250.4" font-family="Helvetica,sans-Serif" font-size="12.00" fill="#000000">structures:ObjectType</text>
</a>
</g>
<polygon fill="none" stroke="#000000" points="352.5,-245.5 352.5,-262.5 474.5,-262.5 474.5,-245.5 352.5,-245.5"/>
</g>
<!-- structures:ObjectType&#45;&gt;nc:MeasureType -->
<g id="edge4" class="edge">
<title>structures:ObjectType&#45;&gt;nc:MeasureType</title>
<path fill="none" stroke="#000000" d="M413.5,-245.411C413.5,-238.5124 413.5,-228.5696 413.5,-219.84"/>
<polygon fill="#000000" stroke="#000000" points="417.0001,-219.7518 413.5,-209.7519 410.0001,-219.7519 417.0001,-219.7518"/>
<text text-anchor="middle" x="404" y="-224.4" font-family="Helvetica,sans-Serif" font-size="12.00" fill="#000000">extension</text>
</g>
</g>
</svg>
