<?xml version="1.0" encoding="UTF-8" standalone="no"?>
<!DOCTYPE svg PUBLIC "-//W3C//DTD SVG 1.1//EN"
 "http://www.w3.org/Graphics/SVG/1.1/DTD/svg11.dtd">
<!-- Generated by graphviz version 2.40.1 (20161225.0304)
 -->
<!-- Title: graphic Pages: 1 -->
<svg width="673pt" height="45pt"
 viewBox="0.00 0.00 673.00 45.00" xmlns="http://www.w3.org/2000/svg" xmlns:xlink="http://www.w3.org/1999/xlink">
<g id="graph0" class="graph" transform="scale(1 1) rotate(0) translate(4 41)">
<title>graphic</title>
<polygon fill="#ffffff" stroke="transparent" points="-4,4 -4,-41 669,-41 669,4 -4,4"/>
<!-- j:CriminalOrganization -->
<g id="node1" class="node">
<title>j:CriminalOrganization</title>
<text text-anchor="start" x="322.5" y="-21.4" font-family="Helvetica,sans-Serif" font-weight="bold" font-size="12.00" fill="#000000">j:CriminalOrganization</text>
<polygon fill="none" stroke="#ff0000" stroke-width="5" points="318.5,-14 318.5,-34 454.5,-34 454.5,-14 318.5,-14"/>
</g>
<!-- j:CriminalOrganizationType -->
<g id="node3" class="node">
<title>j:CriminalOrganizationType</title>
<g id="a_node3_0"><a xlink:href="../../j/CriminalOrganizationType/#diagram" xlink:title="A data type for an organization that is formed to or intentionally conducts illegal activities." target="_top">
<text text-anchor="start" x="518.5" y="-20.4" font-family="Helvetica,sans-Serif" font-size="12.00" fill="#000000">j:CriminalOrganizationType</text>
</a>
</g>
<polygon fill="none" stroke="#000000" points="516,-15.5 516,-32.5 665,-32.5 665,-15.5 516,-15.5"/>
</g>
<!-- j:CriminalOrganization&#45;&gt;j:CriminalOrganizationType -->
<g id="edge2" class="edge">
<title>j:CriminalOrganization&#45;&gt;j:CriminalOrganizationType</title>
<path fill="none" stroke="#000000" d="M457.2768,-24C472.7584,-24 489.3021,-24 505.2808,-24"/>
<polygon fill="#000000" stroke="#000000" points="505.6828,-27.5001 515.6827,-24 505.6827,-20.5001 505.6828,-27.5001"/>
<text text-anchor="middle" x="486.5" y="-27.4" font-family="Helvetica,sans-Serif" font-size="12.00" fill="#000000">type</text>
</g>
<!-- Types -->
<g id="node2" class="node">
<title>Types</title>
<text text-anchor="start" x="2.5" y="-21.4" font-family="Helvetica,sans-Serif" font-weight="bold" font-size="12.00" fill="#000000">Types</text>
<g id="a_node2_1"><a xlink:href="../../j/ActivityCriminalOrganizationAssociationType/#diagram" xlink:title="A data type for an association between an activity and a criminal organization." target="_top">
<polygon fill="#ebebeb" stroke="transparent" points="1.5,-1 1.5,-16 248.5,-16 248.5,-1 1.5,-1"/>
<text text-anchor="start" x="2.5" y="-5.4" font-family="Helvetica,sans-Serif" font-size="12.00" fill="#000000">j:ActivityCriminalOrganizationAssociationType</text>
</a>
</g>
<polygon fill="#000000" stroke="#000000" points=".5,-16 .5,-16 249.5,-16 249.5,-16 .5,-16"/>
<polygon fill="none" stroke="#000000" points="0,0 0,-32 249,-32 249,0 0,0"/>
</g>
<!-- Types&#45;&gt;j:CriminalOrganization -->
<g id="edge1" class="edge">
<title>Types:top&#45;&gt;j:CriminalOrganization</title>
<path fill="none" stroke="#000000" d="M248.5,-24C267.0822,-24 287.0719,-24 305.9105,-24"/>
<polygon fill="#000000" stroke="#000000" points="305.9414,-27.5001 315.9414,-24 305.9413,-20.5001 305.9414,-27.5001"/>
<text text-anchor="middle" x="282.5" y="-27.4" font-family="Helvetica,sans-Serif" font-size="12.00" fill="#000000">has&#45;a</text>
</g>
</g>
</svg>
