<?xml version="1.0" encoding="UTF-8" standalone="no"?>
<!DOCTYPE svg PUBLIC "-//W3C//DTD SVG 1.1//EN"
 "http://www.w3.org/Graphics/SVG/1.1/DTD/svg11.dtd">
<!-- Generated by graphviz version 2.40.1 (20161225.0304)
 -->
<!-- Title: graphic Pages: 1 -->
<svg width="554pt" height="154pt"
 viewBox="0.00 0.00 554.00 153.50" xmlns="http://www.w3.org/2000/svg" xmlns:xlink="http://www.w3.org/1999/xlink">
<g id="graph0" class="graph" transform="scale(1 1) rotate(0) translate(4 149.5)">
<title>graphic</title>
<polygon fill="#ffffff" stroke="transparent" points="-4,4 -4,-149.5 550,-149.5 550,4 -4,4"/>
<!-- ndex:LocationSubLocationCategoryCodeType -->
<g id="node1" class="node">
<title>ndex:LocationSubLocationCategoryCodeType</title>
<text text-anchor="start" x="270.5" y="-25.4" font-family="Helvetica,sans-Serif" font-weight="bold" font-size="12.00" fill="#000000">ndex:LocationSubLocationCategoryCodeType</text>
<g id="a_node1_0"><a xlink:href="../../structures/SimpleObjectAttributeGroup/#diagram" xlink:title="A group of attributes that are applicable to objects, to be used when defining a complex type that is an extension of a simple type." target="_top">
<polygon fill="#ebebeb" stroke="transparent" points="269.5,-5 269.5,-20 536.5,-20 536.5,-5 269.5,-5"/>
<text text-anchor="start" x="270.5" y="-9.4" font-family="Helvetica,sans-Serif" font-size="12.00" fill="#000000">structures:SimpleObjectAttributeGroup</text>
</a>
</g>
<polygon fill="#ff0000" stroke="#ff0000" points="264.5,-20 264.5,-20 541.5,-20 541.5,-20 264.5,-20"/>
<polygon fill="none" stroke="#ff0000" stroke-width="5" points="266.5,-2.5 266.5,-37.5 538.5,-37.5 538.5,-2.5 266.5,-2.5"/>
</g>
<!-- Properties -->
<g id="node2" class="node">
<title>Properties</title>
<text text-anchor="start" x="2" y="-25.4" font-family="Helvetica,sans-Serif" font-weight="bold" font-size="12.00" fill="#000000">Properties</text>
<g id="a_node2_1"><a xlink:href="../../j/LocationSubLocationCategoryCode/#diagram" xlink:title="A kind of location inside of another location, such as a restroom in a restaurant." target="_top">
<polygon fill="#ebebeb" stroke="transparent" points="1,-5 1,-20 199,-20 199,-5 1,-5"/>
<text text-anchor="start" x="2" y="-9.4" font-family="Helvetica,sans-Serif" font-size="12.00" fill="#000000">j:LocationSubLocationCategoryCode</text>
</a>
</g>
<polygon fill="#000000" stroke="#000000" points="0,-20 0,-20 200,-20 200,-20 0,-20"/>
<polygon fill="none" stroke="#000000" points="0,-4 0,-36 200,-36 200,-4 0,-4"/>
</g>
<!-- Properties&#45;&gt;ndex:LocationSubLocationCategoryCodeType -->
<g id="edge1" class="edge">
<title>Properties:top&#45;&gt;ndex:LocationSubLocationCategoryCodeType:top</title>
<path fill="none" stroke="#000000" d="M199,-28C226.6615,-28 236.008,-28 259.3769,-28"/>
<polygon fill="#000000" stroke="#000000" points="259.5,-31.5001 269.5,-28 259.5,-24.5001 259.5,-31.5001"/>
<text text-anchor="middle" x="229.5" y="-31.4" font-family="Helvetica,sans-Serif" font-size="12.00" fill="#000000">type</text>
</g>
<!-- ndex:LocationSubLocationCategoryCodeSimpleType -->
<g id="node3" class="node">
<title>ndex:LocationSubLocationCategoryCodeSimpleType</title>
<g id="a_node3_2"><a xlink:href="../../ndex/LocationSubLocationCategoryCodeSimpleType/#diagram" xlink:title="A data type for a code that identifies a location inside of another location." target="_top">
<text text-anchor="start" x="261.5" y="-80.4" font-family="Helvetica,sans-Serif" font-size="12.00" fill="#000000">ndex:LocationSubLocationCategoryCodeSimpleType</text>
</a>
</g>
<polygon fill="none" stroke="#000000" points="259,-75.5 259,-92.5 546,-92.5 546,-75.5 259,-75.5"/>
</g>
<!-- ndex:LocationSubLocationCategoryCodeSimpleType&#45;&gt;ndex:LocationSubLocationCategoryCodeType -->
<g id="edge2" class="edge">
<title>ndex:LocationSubLocationCategoryCodeSimpleType&#45;&gt;ndex:LocationSubLocationCategoryCodeType</title>
<path fill="none" stroke="#000000" d="M402.5,-75.4351C402.5,-68.931 402.5,-59.5678 402.5,-50.3827"/>
<polygon fill="#000000" stroke="#000000" points="406.0001,-50.25 402.5,-40.25 399.0001,-50.25 406.0001,-50.25"/>
<text text-anchor="middle" x="393" y="-54.65" font-family="Helvetica,sans-Serif" font-size="12.00" fill="#000000">extension</text>
</g>
<!-- xs:token -->
<g id="node4" class="node">
<title>xs:token</title>
<g id="a_node4_3"><a xlink:href="../../xs/token/#diagram" xlink:title="&lt;TABLE&gt;" target="_top">
<text text-anchor="start" x="380.5" y="-133.4" font-family="Helvetica,sans-Serif" font-size="12.00" fill="#000000">xs:token</text>
</a>
</g>
<polygon fill="none" stroke="#000000" points="378,-128.5 378,-145.5 427,-145.5 427,-128.5 378,-128.5"/>
</g>
<!-- xs:token&#45;&gt;ndex:LocationSubLocationCategoryCodeSimpleType -->
<g id="edge3" class="edge">
<title>xs:token&#45;&gt;ndex:LocationSubLocationCategoryCodeSimpleType</title>
<path fill="none" stroke="#000000" d="M402.5,-128.411C402.5,-121.5124 402.5,-111.5696 402.5,-102.84"/>
<polygon fill="#000000" stroke="#000000" points="406.0001,-102.7518 402.5,-92.7519 399.0001,-102.7519 406.0001,-102.7518"/>
<text text-anchor="middle" x="393" y="-107.4" font-family="Helvetica,sans-Serif" font-size="12.00" fill="#000000">restriction</text>
</g>
</g>
</svg>
