<?xml version="1.0" encoding="UTF-8" standalone="no"?>
<!DOCTYPE svg PUBLIC "-//W3C//DTD SVG 1.1//EN"
 "http://www.w3.org/Graphics/SVG/1.1/DTD/svg11.dtd">
<!-- Generated by graphviz version 2.40.1 (20161225.0304)
 -->
<!-- Title: graphic Pages: 1 -->
<svg width="635pt" height="45pt"
 viewBox="0.00 0.00 635.00 45.00" xmlns="http://www.w3.org/2000/svg" xmlns:xlink="http://www.w3.org/1999/xlink">
<g id="graph0" class="graph" transform="scale(1 1) rotate(0) translate(4 41)">
<title>graphic</title>
<polygon fill="#ffffff" stroke="transparent" points="-4,4 -4,-41 631,-41 631,4 -4,4"/>
<!-- biom:FeatureLineThicknessValue -->
<g id="node1" class="node">
<title>biom:FeatureLineThicknessValue</title>
<text text-anchor="start" x="238" y="-21.4" font-family="Helvetica,sans-Serif" font-weight="bold" font-size="12.00" fill="#000000">biom:FeatureLineThicknessValue</text>
<polygon fill="none" stroke="#ff0000" stroke-width="5" points="234.5,-14 234.5,-34 433.5,-34 433.5,-14 234.5,-14"/>
</g>
<!-- biom:Integer1To99Type -->
<g id="node3" class="node">
<title>biom:Integer1To99Type</title>
<g id="a_node3_0"><a xlink:href="../../biom/Integer1To99Type/#diagram" xlink:title="A data type of integer that has a value range of 1 to 99" target="_top">
<text text-anchor="start" x="497" y="-20.4" font-family="Helvetica,sans-Serif" font-size="12.00" fill="#000000">biom:Integer1To99Type</text>
</a>
</g>
<polygon fill="none" stroke="#000000" points="495,-15.5 495,-32.5 627,-32.5 627,-15.5 495,-15.5"/>
</g>
<!-- biom:FeatureLineThicknessValue&#45;&gt;biom:Integer1To99Type -->
<g id="edge2" class="edge">
<title>biom:FeatureLineThicknessValue&#45;&gt;biom:Integer1To99Type</title>
<path fill="none" stroke="#000000" d="M436.211,-24C452.5251,-24 469.1535,-24 484.7299,-24"/>
<polygon fill="#000000" stroke="#000000" points="484.8,-27.5001 494.8,-24 484.8,-20.5001 484.8,-27.5001"/>
<text text-anchor="middle" x="465.5" y="-27.4" font-family="Helvetica,sans-Serif" font-size="12.00" fill="#000000">type</text>
</g>
<!-- Types -->
<g id="node2" class="node">
<title>Types</title>
<text text-anchor="start" x="2.5" y="-21.4" font-family="Helvetica,sans-Serif" font-weight="bold" font-size="12.00" fill="#000000">Types</text>
<g id="a_node2_1"><a xlink:href="../../biom/EFSTemporaryLineType/#diagram" xlink:title="A data type that is used by a latent examiner to annotate a friction ridge image with temporary lines, generally for use as reference points in making a comparison. These lines are solely for the individual examiner&#39;s use and reference _ there" target="_top">
<polygon fill="#ebebeb" stroke="transparent" points="1.5,-1 1.5,-16 164.5,-16 164.5,-1 1.5,-1"/>
<text text-anchor="start" x="2.5" y="-5.4" font-family="Helvetica,sans-Serif" font-size="12.00" fill="#000000">biom:EFSTemporaryLineType</text>
</a>
</g>
<polygon fill="#000000" stroke="#000000" points=".5,-16 .5,-16 165.5,-16 165.5,-16 .5,-16"/>
<polygon fill="none" stroke="#000000" points="0,0 0,-32 165,-32 165,0 0,0"/>
</g>
<!-- Types&#45;&gt;biom:FeatureLineThicknessValue -->
<g id="edge1" class="edge">
<title>Types:top&#45;&gt;biom:FeatureLineThicknessValue</title>
<path fill="none" stroke="#000000" d="M164.5,-24C182.9586,-24 202.5479,-24 221.6056,-24"/>
<polygon fill="#000000" stroke="#000000" points="221.8198,-27.5001 231.8198,-24 221.8198,-20.5001 221.8198,-27.5001"/>
<text text-anchor="middle" x="198.5" y="-27.4" font-family="Helvetica,sans-Serif" font-size="12.00" fill="#000000">has&#45;a</text>
</g>
</g>
</svg>
