<?xml version="1.0" encoding="UTF-8" standalone="no"?>
<!DOCTYPE svg PUBLIC "-//W3C//DTD SVG 1.1//EN"
 "http://www.w3.org/Graphics/SVG/1.1/DTD/svg11.dtd">
<!-- Generated by graphviz version 2.40.1 (20161225.0304)
 -->
<!-- Title: graphic Pages: 1 -->
<svg width="354pt" height="154pt"
 viewBox="0.00 0.00 354.00 153.50" xmlns="http://www.w3.org/2000/svg" xmlns:xlink="http://www.w3.org/1999/xlink">
<g id="graph0" class="graph" transform="scale(1 1) rotate(0) translate(4 149.5)">
<title>graphic</title>
<polygon fill="#ffffff" stroke="transparent" points="-4,4 -4,-149.5 350,-149.5 350,4 -4,4"/>
<!-- ndex:MetalCodeType -->
<g id="node1" class="node">
<title>ndex:MetalCodeType</title>
<text text-anchor="start" x="134" y="-25.4" font-family="Helvetica,sans-Serif" font-weight="bold" font-size="12.00" fill="#000000">ndex:MetalCodeType</text>
<g id="a_node1_0"><a xlink:href="../../structures/SimpleObjectAttributeGroup/#diagram" xlink:title="A group of attributes that are applicable to objects, to be used when defining a complex type that is an extension of a simple type." target="_top">
<polygon fill="#ebebeb" stroke="transparent" points="133,-5 133,-20 341,-20 341,-5 133,-5"/>
<text text-anchor="start" x="134" y="-9.4" font-family="Helvetica,sans-Serif" font-size="12.00" fill="#000000">structures:SimpleObjectAttributeGroup</text>
</a>
</g>
<polygon fill="#ff0000" stroke="#ff0000" points="128,-20 128,-20 346,-20 346,-20 128,-20"/>
<polygon fill="none" stroke="#ff0000" stroke-width="5" points="130.5,-2.5 130.5,-37.5 343.5,-37.5 343.5,-2.5 130.5,-2.5"/>
</g>
<!-- Properties -->
<g id="node2" class="node">
<title>Properties</title>
<text text-anchor="start" x="2.5" y="-25.4" font-family="Helvetica,sans-Serif" font-weight="bold" font-size="12.00" fill="#000000">Properties</text>
<g id="a_node2_1"><a xlink:href="../../j/MetalCode/#diagram" xlink:title="A code that identifies a metal." target="_top">
<polygon fill="#ebebeb" stroke="transparent" points="1.5,-5 1.5,-20 68.5,-20 68.5,-5 1.5,-5"/>
<text text-anchor="start" x="2.5" y="-9.4" font-family="Helvetica,sans-Serif" font-size="12.00" fill="#000000">j:MetalCode</text>
</a>
</g>
<polygon fill="#000000" stroke="#000000" points=".5,-20 .5,-20 69.5,-20 69.5,-20 .5,-20"/>
<polygon fill="none" stroke="#000000" points="0,-4 0,-36 69,-36 69,-4 0,-4"/>
</g>
<!-- Properties&#45;&gt;ndex:MetalCodeType -->
<g id="edge1" class="edge">
<title>Properties:top&#45;&gt;ndex:MetalCodeType:top</title>
<path fill="none" stroke="#000000" d="M68.5,-28C93.4714,-28 102.1284,-28 122.8937,-28"/>
<polygon fill="#000000" stroke="#000000" points="123,-31.5001 133,-28 123,-24.5001 123,-31.5001"/>
<text text-anchor="middle" x="98.5" y="-31.4" font-family="Helvetica,sans-Serif" font-size="12.00" fill="#000000">type</text>
</g>
<!-- ndex:MetalCodeSimpleType -->
<g id="node3" class="node">
<title>ndex:MetalCodeSimpleType</title>
<g id="a_node3_2"><a xlink:href="../../ndex/MetalCodeSimpleType/#diagram" xlink:title="A data type for a code that identifies a metal." target="_top">
<text text-anchor="start" x="162" y="-80.4" font-family="Helvetica,sans-Serif" font-size="12.00" fill="#000000">ndex:MetalCodeSimpleType</text>
</a>
</g>
<polygon fill="none" stroke="#000000" points="159.5,-75.5 159.5,-92.5 314.5,-92.5 314.5,-75.5 159.5,-75.5"/>
</g>
<!-- ndex:MetalCodeSimpleType&#45;&gt;ndex:MetalCodeType -->
<g id="edge2" class="edge">
<title>ndex:MetalCodeSimpleType&#45;&gt;ndex:MetalCodeType</title>
<path fill="none" stroke="#000000" d="M237,-75.4351C237,-68.931 237,-59.5678 237,-50.3827"/>
<polygon fill="#000000" stroke="#000000" points="240.5001,-50.25 237,-40.25 233.5001,-50.25 240.5001,-50.25"/>
<text text-anchor="middle" x="227.5" y="-54.65" font-family="Helvetica,sans-Serif" font-size="12.00" fill="#000000">extension</text>
</g>
<!-- xs:token -->
<g id="node4" class="node">
<title>xs:token</title>
<g id="a_node4_3"><a xlink:href="../../xs/token/#diagram" xlink:title="&lt;TABLE&gt;" target="_top">
<text text-anchor="start" x="215" y="-133.4" font-family="Helvetica,sans-Serif" font-size="12.00" fill="#000000">xs:token</text>
</a>
</g>
<polygon fill="none" stroke="#000000" points="212.5,-128.5 212.5,-145.5 261.5,-145.5 261.5,-128.5 212.5,-128.5"/>
</g>
<!-- xs:token&#45;&gt;ndex:MetalCodeSimpleType -->
<g id="edge3" class="edge">
<title>xs:token&#45;&gt;ndex:MetalCodeSimpleType</title>
<path fill="none" stroke="#000000" d="M237,-128.411C237,-121.5124 237,-111.5696 237,-102.84"/>
<polygon fill="#000000" stroke="#000000" points="240.5001,-102.7518 237,-92.7519 233.5001,-102.7519 240.5001,-102.7518"/>
<text text-anchor="middle" x="227.5" y="-107.4" font-family="Helvetica,sans-Serif" font-size="12.00" fill="#000000">restriction</text>
</g>
</g>
</svg>
