<?xml version="1.0" encoding="UTF-8" standalone="no"?>
<!DOCTYPE svg PUBLIC "-//W3C//DTD SVG 1.1//EN"
 "http://www.w3.org/Graphics/SVG/1.1/DTD/svg11.dtd">
<!-- Generated by graphviz version 2.40.1 (20161225.0304)
 -->
<!-- Title: graphic Pages: 1 -->
<svg width="408pt" height="45pt"
 viewBox="0.00 0.00 408.00 45.00" xmlns="http://www.w3.org/2000/svg" xmlns:xlink="http://www.w3.org/1999/xlink">
<g id="graph0" class="graph" transform="scale(1 1) rotate(0) translate(4 41)">
<title>graphic</title>
<polygon fill="#ffffff" stroke="transparent" points="-4,4 -4,-41 404,-41 404,4 -4,4"/>
<!-- j:ClothingStyleText -->
<g id="node1" class="node">
<title>j:ClothingStyleText</title>
<text text-anchor="start" x="154" y="-21.4" font-family="Helvetica,sans-Serif" font-weight="bold" font-size="12.00" fill="#000000">j:ClothingStyleText</text>
<polygon fill="none" stroke="#ff0000" stroke-width="5" points="150.5,-14 150.5,-34 267.5,-34 267.5,-14 150.5,-14"/>
</g>
<!-- nc:TextType -->
<g id="node3" class="node">
<title>nc:TextType</title>
<g id="a_node3_0"><a xlink:href="../../nc/TextType/#diagram" xlink:title="A data type for a character string." target="_top">
<text text-anchor="start" x="331.5" y="-20.4" font-family="Helvetica,sans-Serif" font-size="12.00" fill="#000000">nc:TextType</text>
</a>
</g>
<polygon fill="none" stroke="#000000" points="329,-15.5 329,-32.5 400,-32.5 400,-15.5 329,-15.5"/>
</g>
<!-- j:ClothingStyleText&#45;&gt;nc:TextType -->
<g id="edge2" class="edge">
<title>j:ClothingStyleText&#45;&gt;nc:TextType</title>
<path fill="none" stroke="#000000" d="M270.0114,-24C286.1885,-24 303.3804,-24 318.6028,-24"/>
<polygon fill="#000000" stroke="#000000" points="318.7901,-27.5001 328.7901,-24 318.7901,-20.5001 318.7901,-27.5001"/>
<text text-anchor="middle" x="299.5" y="-27.4" font-family="Helvetica,sans-Serif" font-size="12.00" fill="#000000">type</text>
</g>
<!-- Types -->
<g id="node2" class="node">
<title>Types</title>
<text text-anchor="start" x="2.5" y="-21.4" font-family="Helvetica,sans-Serif" font-weight="bold" font-size="12.00" fill="#000000">Types</text>
<g id="a_node2_1"><a xlink:href="../../j/ClothingType/#diagram" xlink:title="A data type for an article of clothing, dress, or attire." target="_top">
<polygon fill="#ebebeb" stroke="transparent" points="1.5,-1 1.5,-16 80.5,-16 80.5,-1 1.5,-1"/>
<text text-anchor="start" x="2.5" y="-5.4" font-family="Helvetica,sans-Serif" font-size="12.00" fill="#000000">j:ClothingType</text>
</a>
</g>
<polygon fill="#000000" stroke="#000000" points=".5,-16 .5,-16 81.5,-16 81.5,-16 .5,-16"/>
<polygon fill="none" stroke="#000000" points="0,0 0,-32 81,-32 81,0 0,0"/>
</g>
<!-- Types&#45;&gt;j:ClothingStyleText -->
<g id="edge1" class="edge">
<title>Types:top&#45;&gt;j:ClothingStyleText</title>
<path fill="none" stroke="#000000" d="M80.5,-24C99.0409,-24 119.0866,-24 137.7059,-24"/>
<polygon fill="#000000" stroke="#000000" points="137.8847,-27.5001 147.8846,-24 137.8846,-20.5001 137.8847,-27.5001"/>
<text text-anchor="middle" x="114.5" y="-27.4" font-family="Helvetica,sans-Serif" font-size="12.00" fill="#000000">has&#45;a</text>
</g>
</g>
</svg>
