<?xml version="1.0" encoding="UTF-8" standalone="no"?>
<!DOCTYPE svg PUBLIC "-//W3C//DTD SVG 1.1//EN"
 "http://www.w3.org/Graphics/SVG/1.1/DTD/svg11.dtd">
<!-- Generated by graphviz version 2.40.1 (20161225.0304)
 -->
<!-- Title: graphic Pages: 1 -->
<svg width="614pt" height="45pt"
 viewBox="0.00 0.00 614.00 45.00" xmlns="http://www.w3.org/2000/svg" xmlns:xlink="http://www.w3.org/1999/xlink">
<g id="graph0" class="graph" transform="scale(1 1) rotate(0) translate(4 41)">
<title>graphic</title>
<polygon fill="#ffffff" stroke="transparent" points="-4,4 -4,-41 610,-41 610,4 -4,4"/>
<!-- j:TransportAssessmentEscapeHistoryText -->
<g id="node1" class="node">
<title>j:TransportAssessmentEscapeHistoryText</title>
<text text-anchor="start" x="227.5" y="-21.4" font-family="Helvetica,sans-Serif" font-weight="bold" font-size="12.00" fill="#000000">j:TransportAssessmentEscapeHistoryText</text>
<polygon fill="none" stroke="#ff0000" stroke-width="5" points="223.5,-14 223.5,-34 473.5,-34 473.5,-14 223.5,-14"/>
</g>
<!-- nc:TextType -->
<g id="node3" class="node">
<title>nc:TextType</title>
<g id="a_node3_0"><a xlink:href="../../nc/TextType/#diagram" xlink:title="A data type for a character string." target="_top">
<text text-anchor="start" x="537.5" y="-20.4" font-family="Helvetica,sans-Serif" font-size="12.00" fill="#000000">nc:TextType</text>
</a>
</g>
<polygon fill="none" stroke="#000000" points="535,-15.5 535,-32.5 606,-32.5 606,-15.5 535,-15.5"/>
</g>
<!-- j:TransportAssessmentEscapeHistoryText&#45;&gt;nc:TextType -->
<g id="edge2" class="edge">
<title>j:TransportAssessmentEscapeHistoryText&#45;&gt;nc:TextType</title>
<path fill="none" stroke="#000000" d="M476.0301,-24C493.2926,-24 510.0095,-24 524.46,-24"/>
<polygon fill="#000000" stroke="#000000" points="524.5572,-27.5001 534.5571,-24 524.5571,-20.5001 524.5572,-27.5001"/>
<text text-anchor="middle" x="505.5" y="-27.4" font-family="Helvetica,sans-Serif" font-size="12.00" fill="#000000">type</text>
</g>
<!-- Types -->
<g id="node2" class="node">
<title>Types</title>
<text text-anchor="start" x="2" y="-21.4" font-family="Helvetica,sans-Serif" font-weight="bold" font-size="12.00" fill="#000000">Types</text>
<g id="a_node2_1"><a xlink:href="../../j/TransportAssessmentType/#diagram" xlink:title="A data type for a set of details of the assessment of a subject&#39;s suitability for transport." target="_top">
<polygon fill="#ebebeb" stroke="transparent" points="1,-1 1,-16 153,-16 153,-1 1,-1"/>
<text text-anchor="start" x="2" y="-5.4" font-family="Helvetica,sans-Serif" font-size="12.00" fill="#000000">j:TransportAssessmentType</text>
</a>
</g>
<polygon fill="#000000" stroke="#000000" points="0,-16 0,-16 154,-16 154,-16 0,-16"/>
<polygon fill="none" stroke="#000000" points="0,0 0,-32 154,-32 154,0 0,0"/>
</g>
<!-- Types&#45;&gt;j:TransportAssessmentEscapeHistoryText -->
<g id="edge1" class="edge">
<title>Types:top&#45;&gt;j:TransportAssessmentEscapeHistoryText</title>
<path fill="none" stroke="#000000" d="M153,-24C171.7146,-24 191.4369,-24 210.8647,-24"/>
<polygon fill="#000000" stroke="#000000" points="210.9904,-27.5001 220.9904,-24 210.9903,-20.5001 210.9904,-27.5001"/>
<text text-anchor="middle" x="187.5" y="-27.4" font-family="Helvetica,sans-Serif" font-size="12.00" fill="#000000">has&#45;a</text>
</g>
</g>
</svg>
