<?xml version="1.0" encoding="UTF-8" standalone="no"?>
<!DOCTYPE svg PUBLIC "-//W3C//DTD SVG 1.1//EN"
 "http://www.w3.org/Graphics/SVG/1.1/DTD/svg11.dtd">
<!-- Generated by graphviz version 2.40.1 (20161225.0304)
 -->
<!-- Title: graphic Pages: 1 -->
<svg width="674pt" height="45pt"
 viewBox="0.00 0.00 674.00 45.00" xmlns="http://www.w3.org/2000/svg" xmlns:xlink="http://www.w3.org/1999/xlink">
<g id="graph0" class="graph" transform="scale(1 1) rotate(0) translate(4 41)">
<title>graphic</title>
<polygon fill="#ffffff" stroke="transparent" points="-4,4 -4,-41 670,-41 670,4 -4,4"/>
<!-- intel:AgencySubjectHandling -->
<g id="node1" class="node">
<title>intel:AgencySubjectHandling</title>
<text text-anchor="start" x="250.5" y="-21.4" font-family="Helvetica,sans-Serif" font-weight="bold" font-size="12.00" fill="#000000">intel:AgencySubjectHandling</text>
<polygon fill="none" stroke="#ff0000" stroke-width="5" points="246.5,-14 246.5,-34 420.5,-34 420.5,-14 246.5,-14"/>
</g>
<!-- intel:AgencySubjectHandlingType -->
<g id="node3" class="node">
<title>intel:AgencySubjectHandlingType</title>
<g id="a_node3_0"><a xlink:href="../../intel/AgencySubjectHandlingType/#diagram" xlink:title="A data type for actions to take on contact with the person." target="_top">
<text text-anchor="start" x="484" y="-20.4" font-family="Helvetica,sans-Serif" font-size="12.00" fill="#000000">intel:AgencySubjectHandlingType</text>
</a>
</g>
<polygon fill="none" stroke="#000000" points="482,-15.5 482,-32.5 666,-32.5 666,-15.5 482,-15.5"/>
</g>
<!-- intel:AgencySubjectHandling&#45;&gt;intel:AgencySubjectHandlingType -->
<g id="edge2" class="edge">
<title>intel:AgencySubjectHandling&#45;&gt;intel:AgencySubjectHandlingType</title>
<path fill="none" stroke="#000000" d="M423.0533,-24C438.9792,-24 455.6748,-24 471.9178,-24"/>
<polygon fill="#000000" stroke="#000000" points="471.962,-27.5001 481.9619,-24 471.9619,-20.5001 471.962,-27.5001"/>
<text text-anchor="middle" x="452.5" y="-27.4" font-family="Helvetica,sans-Serif" font-size="12.00" fill="#000000">type</text>
</g>
<!-- Types -->
<g id="node2" class="node">
<title>Types</title>
<text text-anchor="start" x="2.5" y="-21.4" font-family="Helvetica,sans-Serif" font-weight="bold" font-size="12.00" fill="#000000">Types</text>
<g id="a_node2_1"><a xlink:href="../../intel/AgencySubjectInterestType/#diagram" xlink:title="A data type for a detailed description of why an agency placed the person in its repository or why the data on the person is being exchanged." target="_top">
<polygon fill="#ebebeb" stroke="transparent" points="1.5,-1 1.5,-16 176.5,-16 176.5,-1 1.5,-1"/>
<text text-anchor="start" x="2.5" y="-5.4" font-family="Helvetica,sans-Serif" font-size="12.00" fill="#000000">intel:AgencySubjectInterestType</text>
</a>
</g>
<polygon fill="#000000" stroke="#000000" points=".5,-16 .5,-16 177.5,-16 177.5,-16 .5,-16"/>
<polygon fill="none" stroke="#000000" points="0,0 0,-32 177,-32 177,0 0,0"/>
</g>
<!-- Types&#45;&gt;intel:AgencySubjectHandling -->
<g id="edge1" class="edge">
<title>Types:top&#45;&gt;intel:AgencySubjectHandling</title>
<path fill="none" stroke="#000000" d="M176.5,-24C194.9836,-24 214.6913,-24 233.6775,-24"/>
<polygon fill="#000000" stroke="#000000" points="233.8332,-27.5001 243.8332,-24 233.8331,-20.5001 233.8332,-27.5001"/>
<text text-anchor="middle" x="210.5" y="-27.4" font-family="Helvetica,sans-Serif" font-size="12.00" fill="#000000">has&#45;a</text>
</g>
</g>
</svg>
