<?xml version="1.0" encoding="UTF-8" standalone="no"?>
<!DOCTYPE svg PUBLIC "-//W3C//DTD SVG 1.1//EN"
 "http://www.w3.org/Graphics/SVG/1.1/DTD/svg11.dtd">
<!-- Generated by graphviz version 2.40.1 (20161225.0304)
 -->
<!-- Title: graphic Pages: 1 -->
<svg width="513pt" height="45pt"
 viewBox="0.00 0.00 513.00 45.00" xmlns="http://www.w3.org/2000/svg" xmlns:xlink="http://www.w3.org/1999/xlink">
<g id="graph0" class="graph" transform="scale(1 1) rotate(0) translate(4 41)">
<title>graphic</title>
<polygon fill="#ffffff" stroke="transparent" points="-4,4 -4,-41 509,-41 509,4 -4,4"/>
<!-- hs:MedicationLastTakenDate -->
<g id="node1" class="node">
<title>hs:MedicationLastTakenDate</title>
<text text-anchor="start" x="200.5" y="-21.4" font-family="Helvetica,sans-Serif" font-weight="bold" font-size="12.00" fill="#000000">hs:MedicationLastTakenDate</text>
<polygon fill="none" stroke="#ff0000" stroke-width="5" points="196.5,-14 196.5,-34 370.5,-34 370.5,-14 196.5,-14"/>
</g>
<!-- nc:DateType -->
<g id="node3" class="node">
<title>nc:DateType</title>
<g id="a_node3_0"><a xlink:href="../../nc/DateType/#diagram" xlink:title="A data type for a calendar date." target="_top">
<text text-anchor="start" x="434.5" y="-20.4" font-family="Helvetica,sans-Serif" font-size="12.00" fill="#000000">nc:DateType</text>
</a>
</g>
<polygon fill="none" stroke="#000000" points="432,-15.5 432,-32.5 505,-32.5 505,-15.5 432,-15.5"/>
</g>
<!-- hs:MedicationLastTakenDate&#45;&gt;nc:DateType -->
<g id="edge2" class="edge">
<title>hs:MedicationLastTakenDate&#45;&gt;nc:DateType</title>
<path fill="none" stroke="#000000" d="M373.0195,-24C389.7924,-24 406.6961,-24 421.5216,-24"/>
<polygon fill="#000000" stroke="#000000" points="421.918,-27.5001 431.918,-24 421.918,-20.5001 421.918,-27.5001"/>
<text text-anchor="middle" x="402.5" y="-27.4" font-family="Helvetica,sans-Serif" font-size="12.00" fill="#000000">type</text>
</g>
<!-- Types -->
<g id="node2" class="node">
<title>Types</title>
<text text-anchor="start" x="2.5" y="-21.4" font-family="Helvetica,sans-Serif" font-weight="bold" font-size="12.00" fill="#000000">Types</text>
<g id="a_node2_1"><a xlink:href="../../hs/MedicationUseType/#diagram" xlink:title="A data type for recording medication use for an individual." target="_top">
<polygon fill="#ebebeb" stroke="transparent" points="1.5,-1 1.5,-16 126.5,-16 126.5,-1 1.5,-1"/>
<text text-anchor="start" x="2.5" y="-5.4" font-family="Helvetica,sans-Serif" font-size="12.00" fill="#000000">hs:MedicationUseType</text>
</a>
</g>
<polygon fill="#000000" stroke="#000000" points=".5,-16 .5,-16 127.5,-16 127.5,-16 .5,-16"/>
<polygon fill="none" stroke="#000000" points="0,0 0,-32 127,-32 127,0 0,0"/>
</g>
<!-- Types&#45;&gt;hs:MedicationLastTakenDate -->
<g id="edge1" class="edge">
<title>Types:top&#45;&gt;hs:MedicationLastTakenDate</title>
<path fill="none" stroke="#000000" d="M126.5,-24C144.9836,-24 164.6913,-24 183.6775,-24"/>
<polygon fill="#000000" stroke="#000000" points="183.8332,-27.5001 193.8332,-24 183.8331,-20.5001 183.8332,-27.5001"/>
<text text-anchor="middle" x="160.5" y="-27.4" font-family="Helvetica,sans-Serif" font-size="12.00" fill="#000000">has&#45;a</text>
</g>
</g>
</svg>
