<?xml version="1.0" encoding="UTF-8" standalone="no"?>
<!DOCTYPE svg PUBLIC "-//W3C//DTD SVG 1.1//EN"
 "http://www.w3.org/Graphics/SVG/1.1/DTD/svg11.dtd">
<!-- Generated by graphviz version 2.40.1 (20161225.0304)
 -->
<!-- Title: graphic Pages: 1 -->
<svg width="533pt" height="45pt"
 viewBox="0.00 0.00 533.00 45.00" xmlns="http://www.w3.org/2000/svg" xmlns:xlink="http://www.w3.org/1999/xlink">
<g id="graph0" class="graph" transform="scale(1 1) rotate(0) translate(4 41)">
<title>graphic</title>
<polygon fill="#ffffff" stroke="transparent" points="-4,4 -4,-41 529,-41 529,4 -4,4"/>
<!-- m:VesselNavigationStatus -->
<g id="node1" class="node">
<title>m:VesselNavigationStatus</title>
<text text-anchor="start" x="228.5" y="-21.4" font-family="Helvetica,sans-Serif" font-weight="bold" font-size="12.00" fill="#000000">m:VesselNavigationStatus</text>
<polygon fill="none" stroke="#ff0000" stroke-width="5" points="224.5,-14 224.5,-34 382.5,-34 382.5,-14 224.5,-14"/>
</g>
<!-- nc:StatusType -->
<g id="node3" class="node">
<title>nc:StatusType</title>
<g id="a_node3_0"><a xlink:href="../../nc/StatusType/#diagram" xlink:title="A data type for a state of something or someone." target="_top">
<text text-anchor="start" x="446.5" y="-20.4" font-family="Helvetica,sans-Serif" font-size="12.00" fill="#000000">nc:StatusType</text>
</a>
</g>
<polygon fill="none" stroke="#000000" points="444,-15.5 444,-32.5 525,-32.5 525,-15.5 444,-15.5"/>
</g>
<!-- m:VesselNavigationStatus&#45;&gt;nc:StatusType -->
<g id="edge2" class="edge">
<title>m:VesselNavigationStatus&#45;&gt;nc:StatusType</title>
<path fill="none" stroke="#000000" d="M385.2626,-24C401.7042,-24 418.5341,-24 433.5543,-24"/>
<polygon fill="#000000" stroke="#000000" points="433.6368,-27.5001 443.6367,-24 433.6367,-20.5001 433.6368,-27.5001"/>
<text text-anchor="middle" x="414.5" y="-27.4" font-family="Helvetica,sans-Serif" font-size="12.00" fill="#000000">type</text>
</g>
<!-- Types -->
<g id="node2" class="node">
<title>Types</title>
<text text-anchor="start" x="2.5" y="-21.4" font-family="Helvetica,sans-Serif" font-weight="bold" font-size="12.00" fill="#000000">Types</text>
<g id="a_node2_1"><a xlink:href="../../m/VesselAugmentationType/#diagram" xlink:title="A data type for additional information about a vessel." target="_top">
<polygon fill="#ebebeb" stroke="transparent" points="1.5,-1 1.5,-16 154.5,-16 154.5,-1 1.5,-1"/>
<text text-anchor="start" x="2.5" y="-5.4" font-family="Helvetica,sans-Serif" font-size="12.00" fill="#000000">m:VesselAugmentationType</text>
</a>
</g>
<polygon fill="#000000" stroke="#000000" points=".5,-16 .5,-16 155.5,-16 155.5,-16 .5,-16"/>
<polygon fill="none" stroke="#000000" points="0,0 0,-32 155,-32 155,0 0,0"/>
</g>
<!-- Types&#45;&gt;m:VesselNavigationStatus -->
<g id="edge1" class="edge">
<title>Types:top&#45;&gt;m:VesselNavigationStatus</title>
<path fill="none" stroke="#000000" d="M154.5,-24C173.0285,-24 192.853,-24 211.7979,-24"/>
<polygon fill="#000000" stroke="#000000" points="211.9145,-27.5001 221.9145,-24 211.9145,-20.5001 211.9145,-27.5001"/>
<text text-anchor="middle" x="188.5" y="-27.4" font-family="Helvetica,sans-Serif" font-size="12.00" fill="#000000">has&#45;a</text>
</g>
</g>
</svg>
