<?xml version="1.0" encoding="UTF-8" standalone="no"?>
<!DOCTYPE svg PUBLIC "-//W3C//DTD SVG 1.1//EN"
 "http://www.w3.org/Graphics/SVG/1.1/DTD/svg11.dtd">
<!-- Generated by graphviz version 2.40.1 (20161225.0304)
 -->
<!-- Title: graphic Pages: 1 -->
<svg width="617pt" height="75pt"
 viewBox="0.00 0.00 617.00 75.00" xmlns="http://www.w3.org/2000/svg" xmlns:xlink="http://www.w3.org/1999/xlink">
<g id="graph0" class="graph" transform="scale(1 1) rotate(0) translate(4 71)">
<title>graphic</title>
<polygon fill="#ffffff" stroke="transparent" points="-4,4 -4,-71 613,-71 613,4 -4,4"/>
<!-- j:OrganizationORIIdentification -->
<g id="node1" class="node">
<title>j:OrganizationORIIdentification</title>
<text text-anchor="start" x="252.5" y="-51.4" font-family="Helvetica,sans-Serif" font-weight="bold" font-size="12.00" fill="#000000">j:OrganizationORIIdentification</text>
<polygon fill="none" stroke="#ff0000" stroke-width="5" points="248.5,-44 248.5,-64 432.5,-64 432.5,-44 248.5,-44"/>
</g>
<!-- nc:IdentificationType -->
<g id="node3" class="node">
<title>nc:IdentificationType</title>
<g id="a_node3_0"><a xlink:href="../../nc/IdentificationType/#diagram" xlink:title="A data type for a representation of an identity." target="_top">
<text text-anchor="start" x="496.5" y="-50.4" font-family="Helvetica,sans-Serif" font-size="12.00" fill="#000000">nc:IdentificationType</text>
</a>
</g>
<polygon fill="none" stroke="#000000" points="494,-45.5 494,-62.5 609,-62.5 609,-45.5 494,-45.5"/>
</g>
<!-- j:OrganizationORIIdentification&#45;&gt;nc:IdentificationType -->
<g id="edge2" class="edge">
<title>j:OrganizationORIIdentification&#45;&gt;nc:IdentificationType</title>
<path fill="none" stroke="#000000" d="M435.199,-54C451.6452,-54 468.4452,-54 483.9778,-54"/>
<polygon fill="#000000" stroke="#000000" points="483.9855,-57.5001 493.9854,-54 483.9854,-50.5001 483.9855,-57.5001"/>
<text text-anchor="middle" x="464.5" y="-57.4" font-family="Helvetica,sans-Serif" font-size="12.00" fill="#000000">type</text>
</g>
<!-- Types -->
<g id="node2" class="node">
<title>Types</title>
<text text-anchor="start" x="2.5" y="-51.4" font-family="Helvetica,sans-Serif" font-weight="bold" font-size="12.00" fill="#000000">Types</text>
<g id="a_node2_1"><a xlink:href="../../j/CaseLinkageType/#diagram" xlink:title="A data type for an identifying number for a case submitted by an agency which is known or believed to be related to the case of this activity." target="_top">
<polygon fill="#ebebeb" stroke="transparent" points="1.5,-31 1.5,-46 178.5,-46 178.5,-31 1.5,-31"/>
<text text-anchor="start" x="2.5" y="-35.4" font-family="Helvetica,sans-Serif" font-size="12.00" fill="#000000">j:CaseLinkageType</text>
</a>
</g>
<g id="a_node2_2"><a xlink:href="../../j/CrashInformationSourceType/#diagram" xlink:title="A data type for the affiliation of a person completing a crash report." target="_top">
<text text-anchor="start" x="2.5" y="-20.4" font-family="Helvetica,sans-Serif" font-size="12.00" fill="#000000">j:CrashInformationSourceType</text>
</a>
</g>
<g id="a_node2_3"><a xlink:href="../../j/OrganizationAugmentationType/#diagram" xlink:title="A data type for additional information about an organization." target="_top">
<polygon fill="#ebebeb" stroke="transparent" points="1.5,-1 1.5,-16 178.5,-16 178.5,-1 1.5,-1"/>
<text text-anchor="start" x="2.5" y="-5.4" font-family="Helvetica,sans-Serif" font-size="12.00" fill="#000000">j:OrganizationAugmentationType</text>
</a>
</g>
<polygon fill="#000000" stroke="#000000" points=".5,-46 .5,-46 179.5,-46 179.5,-46 .5,-46"/>
<polygon fill="none" stroke="#000000" points="0,0 0,-62 179,-62 179,0 0,0"/>
</g>
<!-- Types&#45;&gt;j:OrganizationORIIdentification -->
<g id="edge1" class="edge">
<title>Types:top&#45;&gt;j:OrganizationORIIdentification</title>
<path fill="none" stroke="#000000" d="M178.5,-54C196.9763,-54 216.6378,-54 235.6597,-54"/>
<polygon fill="#000000" stroke="#000000" points="235.8432,-57.5001 245.8432,-54 235.8431,-50.5001 235.8432,-57.5001"/>
<text text-anchor="middle" x="212.5" y="-57.4" font-family="Helvetica,sans-Serif" font-size="12.00" fill="#000000">has&#45;a</text>
</g>
</g>
</svg>
