<?xml version="1.0" encoding="UTF-8" standalone="no"?>
<!DOCTYPE svg PUBLIC "-//W3C//DTD SVG 1.1//EN"
 "http://www.w3.org/Graphics/SVG/1.1/DTD/svg11.dtd">
<!-- Generated by graphviz version 2.40.1 (20161225.0304)
 -->
<!-- Title: graphic Pages: 1 -->
<svg width="495pt" height="45pt"
 viewBox="0.00 0.00 495.00 45.00" xmlns="http://www.w3.org/2000/svg" xmlns:xlink="http://www.w3.org/1999/xlink">
<g id="graph0" class="graph" transform="scale(1 1) rotate(0) translate(4 41)">
<title>graphic</title>
<polygon fill="#ffffff" stroke="transparent" points="-4,4 -4,-41 491,-41 491,4 -4,4"/>
<!-- j:ConditionGroupParentID -->
<g id="node1" class="node">
<title>j:ConditionGroupParentID</title>
<text text-anchor="start" x="194.5" y="-21.4" font-family="Helvetica,sans-Serif" font-weight="bold" font-size="12.00" fill="#000000">j:ConditionGroupParentID</text>
<polygon fill="none" stroke="#ff0000" stroke-width="5" points="190.5,-14 190.5,-34 346.5,-34 346.5,-14 190.5,-14"/>
</g>
<!-- niem&#45;xs:string -->
<g id="node3" class="node">
<title>niem&#45;xs:string</title>
<g id="a_node3_0"><a xlink:href="../../niem-xs/string/#diagram" xlink:title="A data type for character strings in XML." target="_top">
<text text-anchor="start" x="410.5" y="-20.4" font-family="Helvetica,sans-Serif" font-size="12.00" fill="#000000">niem&#45;xs:string</text>
</a>
</g>
<polygon fill="none" stroke="#000000" points="408,-15.5 408,-32.5 487,-32.5 487,-15.5 408,-15.5"/>
</g>
<!-- j:ConditionGroupParentID&#45;&gt;niem&#45;xs:string -->
<g id="edge2" class="edge">
<title>j:ConditionGroupParentID&#45;&gt;niem&#45;xs:string</title>
<path fill="none" stroke="#000000" d="M349.0981,-24C365.6852,-24 382.6843,-24 397.786,-24"/>
<polygon fill="#000000" stroke="#000000" points="397.9095,-27.5001 407.9094,-24 397.9094,-20.5001 397.9095,-27.5001"/>
<text text-anchor="middle" x="378.5" y="-27.4" font-family="Helvetica,sans-Serif" font-size="12.00" fill="#000000">type</text>
</g>
<!-- Types -->
<g id="node2" class="node">
<title>Types</title>
<text text-anchor="start" x="2.5" y="-21.4" font-family="Helvetica,sans-Serif" font-weight="bold" font-size="12.00" fill="#000000">Types</text>
<g id="a_node2_1"><a xlink:href="../../j/ConditionGroupType/#diagram" xlink:title="A data type for a set of conditions assigned to a person." target="_top">
<polygon fill="#ebebeb" stroke="transparent" points="1.5,-1 1.5,-16 120.5,-16 120.5,-1 1.5,-1"/>
<text text-anchor="start" x="2.5" y="-5.4" font-family="Helvetica,sans-Serif" font-size="12.00" fill="#000000">j:ConditionGroupType</text>
</a>
</g>
<polygon fill="#000000" stroke="#000000" points=".5,-16 .5,-16 121.5,-16 121.5,-16 .5,-16"/>
<polygon fill="none" stroke="#000000" points="0,0 0,-32 121,-32 121,0 0,0"/>
</g>
<!-- Types&#45;&gt;j:ConditionGroupParentID -->
<g id="edge1" class="edge">
<title>Types:top&#45;&gt;j:ConditionGroupParentID</title>
<path fill="none" stroke="#000000" d="M120.5,-24C139.013,-24 158.8287,-24 177.7473,-24"/>
<polygon fill="#000000" stroke="#000000" points="177.8479,-27.5001 187.8479,-24 177.8479,-20.5001 177.8479,-27.5001"/>
<text text-anchor="middle" x="154.5" y="-27.4" font-family="Helvetica,sans-Serif" font-size="12.00" fill="#000000">has&#45;a</text>
</g>
</g>
</svg>
