<?xml version="1.0" encoding="UTF-8" standalone="no"?>
<!DOCTYPE svg PUBLIC "-//W3C//DTD SVG 1.1//EN"
 "http://www.w3.org/Graphics/SVG/1.1/DTD/svg11.dtd">
<!-- Generated by graphviz version 2.40.1 (20161225.0304)
 -->
<!-- Title: graphic Pages: 1 -->
<svg width="797pt" height="208pt"
 viewBox="0.00 0.00 797.00 207.50" xmlns="http://www.w3.org/2000/svg" xmlns:xlink="http://www.w3.org/1999/xlink">
<g id="graph0" class="graph" transform="scale(1 1) rotate(0) translate(4 203.5)">
<title>graphic</title>
<polygon fill="#ffffff" stroke="transparent" points="-4,4 -4,-203.5 793,-203.5 793,4 -4,4"/>
<!-- j:NeedType -->
<g id="node1" class="node">
<title>j:NeedType</title>
<text text-anchor="start" x="204.5" y="-132.4" font-family="Helvetica,sans-Serif" font-weight="bold" font-size="12.00" fill="#000000">j:NeedType</text>
<g id="a_node1_0"><a xlink:href="../../j/NeedAddressedIndicator/#diagram" xlink:title="True if is set when parties believe that the Goals have been achieved and each Need or Risk has been adequately addressed; false otherwise." target="_top">
<polygon fill="#ebebeb" stroke="transparent" points="203.5,-112 203.5,-127 466.5,-127 466.5,-112 203.5,-112"/>
<text text-anchor="start" x="204.5" y="-116.4" font-family="Helvetica,sans-Serif" font-size="12.00" fill="#000000">j:NeedAddressedIndicator: niem&#45;xs:boolean [0&#45;n]</text>
</a>
</g>
<g id="a_node1_1"><a xlink:href="../../j/NeedCategoryAbstract/#diagram" xlink:title="A data concept for a kind of need." target="_top">
<text text-anchor="start" x="204.5" y="-101.4" font-family="Helvetica,sans-Serif" font-size="12.00" fill="#000000">j:NeedCategoryAbstract [0&#45;n]</text>
</a>
</g>
<g id="a_node1_2"><a xlink:href="../../j/NeedID/#diagram" xlink:title="An identifier of a need that a subject has been assessed with." target="_top">
<polygon fill="#ebebeb" stroke="transparent" points="203.5,-82 203.5,-97 466.5,-97 466.5,-82 203.5,-82"/>
<text text-anchor="start" x="204.5" y="-86.4" font-family="Helvetica,sans-Serif" font-size="12.00" fill="#000000">j:NeedID: niem&#45;xs:string [0&#45;n]</text>
</a>
</g>
<g id="a_node1_3"><a xlink:href="../../j/NeedIntensityLevelAbstract/#diagram" xlink:title="A data concept for a descriptor used to describe how serious a subject has needs of a specific type." target="_top">
<text text-anchor="start" x="204.5" y="-71.4" font-family="Helvetica,sans-Serif" font-size="12.00" fill="#000000">j:NeedIntensityLevelAbstract [0&#45;n]</text>
</a>
</g>
<g id="a_node1_4"><a xlink:href="../../j/NeedScoreNumeric/#diagram" xlink:title="A numeric score for the need based on assessment." target="_top">
<polygon fill="#ebebeb" stroke="transparent" points="203.5,-52 203.5,-67 466.5,-67 466.5,-52 203.5,-52"/>
<text text-anchor="start" x="204.5" y="-56.4" font-family="Helvetica,sans-Serif" font-size="12.00" fill="#000000">j:NeedScoreNumeric: nc:NumericType [0&#45;n]</text>
</a>
</g>
<g id="a_node1_5"><a xlink:href="../../j/NeedSourceAbstract/#diagram" xlink:title="A data concept for a kind of values to identify the source of the Need or Risk." target="_top">
<text text-anchor="start" x="204.5" y="-41.4" font-family="Helvetica,sans-Serif" font-size="12.00" fill="#000000">j:NeedSourceAbstract [0&#45;n]</text>
</a>
</g>
<g id="a_node1_6"><a xlink:href="../../j/NeedAugmentationPoint/#diagram" xlink:title="An augmentation point for type j:NeedType" target="_top">
<polygon fill="#ebebeb" stroke="transparent" points="203.5,-22 203.5,-37 466.5,-37 466.5,-22 203.5,-22"/>
<text text-anchor="start" x="204.5" y="-26.4" font-family="Helvetica,sans-Serif" font-size="12.00" fill="#000000">j:NeedAugmentationPoint [0&#45;n]</text>
</a>
</g>
<polygon fill="#ff0000" stroke="#ff0000" points="198.5,-127 198.5,-127 471.5,-127 471.5,-127 198.5,-127"/>
<polygon fill="none" stroke="#ff0000" stroke-width="5" points="200.5,-19.5 200.5,-144.5 468.5,-144.5 468.5,-19.5 200.5,-19.5"/>
</g>
<!-- subst_d9e36482 -->
<g id="node2" class="node">
<title>subst_d9e36482</title>
<g id="a_node2_7"><a xlink:href="../../j/NeedCategoryAbstract/#diagram" xlink:title="&lt;TABLE&gt;" target="_top">
<text text-anchor="start" x="524.5" y="-121.4" font-family="Helvetica,sans-Serif" font-weight="bold" font-size="12.00" fill="#000000">Substitution group j:NeedCategoryAbstract</text>
</a>
</g>
<g id="a_node2_8"><a xlink:href="../../j/NeedCategoryText/#diagram" xlink:title="A kind of categories that Subject Assessments are based upon to help organize the assessments the subject has taken." target="_top">
<polygon fill="#ebebeb" stroke="transparent" points="523.5,-101 523.5,-116 774.5,-116 774.5,-101 523.5,-101"/>
<text text-anchor="start" x="524.5" y="-105.4" font-family="Helvetica,sans-Serif" font-size="12.00" fill="#000000">j:NeedCategoryText: nc:TextType</text>
</a>
</g>
<polygon fill="#000000" stroke="#000000" points="522.5,-116 522.5,-116 775.5,-116 775.5,-116 522.5,-116"/>
<polygon fill="none" stroke="#000000" points="522,-100 522,-132 775,-132 775,-100 522,-100"/>
</g>
<!-- j:NeedType&#45;&gt;subst_d9e36482 -->
<g id="edge1" class="edge">
<title>j:NeedType:e&#45;&gt;subst_d9e36482:w</title>
<path fill="none" stroke="#000000" d="M476.5231,-106.0215C494.6711,-109.968 500.5515,-124 523.5,-124"/>
<polygon fill="#000000" stroke="#000000" points="476.8034,-102.532 466.5,-105 476.0936,-109.496 476.8034,-102.532"/>
</g>
<!-- subst_d9e36507 -->
<g id="node3" class="node">
<title>subst_d9e36507</title>
<g id="a_node3_9"><a xlink:href="../../j/NeedIntensityLevelAbstract/#diagram" xlink:title="&lt;TABLE&gt;" target="_top">
<text text-anchor="start" x="510.5" y="-71.4" font-family="Helvetica,sans-Serif" font-weight="bold" font-size="12.00" fill="#000000">Substitution group j:NeedIntensityLevelAbstract</text>
</a>
</g>
<g id="a_node3_10"><a xlink:href="../../j/NeedIntensityLevelText/#diagram" xlink:title="A descriptor used to describe how serious a subject has needs of a specific type." target="_top">
<polygon fill="#ebebeb" stroke="transparent" points="509.5,-51 509.5,-66 788.5,-66 788.5,-51 509.5,-51"/>
<text text-anchor="start" x="510.5" y="-55.4" font-family="Helvetica,sans-Serif" font-size="12.00" fill="#000000">j:NeedIntensityLevelText: nc:TextType</text>
</a>
</g>
<polygon fill="#000000" stroke="#000000" points="508.5,-66 508.5,-66 789.5,-66 789.5,-66 508.5,-66"/>
<polygon fill="none" stroke="#000000" points="508,-50 508,-82 789,-82 789,-50 508,-50"/>
</g>
<!-- j:NeedType&#45;&gt;subst_d9e36507 -->
<g id="edge2" class="edge">
<title>j:NeedType:e&#45;&gt;subst_d9e36507:w</title>
<path fill="none" stroke="#000000" d="M476.6119,-74C488.1435,-74 494.2708,-74 509.5,-74"/>
<polygon fill="#000000" stroke="#000000" points="476.5,-70.5001 466.5,-74 476.5,-77.5001 476.5,-70.5001"/>
</g>
<!-- subst_d9e36531 -->
<g id="node4" class="node">
<title>subst_d9e36531</title>
<g id="a_node4_11"><a xlink:href="../../j/NeedSourceAbstract/#diagram" xlink:title="&lt;TABLE&gt;" target="_top">
<text text-anchor="start" x="530.5" y="-21.4" font-family="Helvetica,sans-Serif" font-weight="bold" font-size="12.00" fill="#000000">Substitution group j:NeedSourceAbstract</text>
</a>
</g>
<g id="a_node4_12"><a xlink:href="../../j/NeedSourceText/#diagram" xlink:title="A kind of values to identify the source of the Need or Risk." target="_top">
<polygon fill="#ebebeb" stroke="transparent" points="529.5,-1 529.5,-16 768.5,-16 768.5,-1 529.5,-1"/>
<text text-anchor="start" x="530.5" y="-5.4" font-family="Helvetica,sans-Serif" font-size="12.00" fill="#000000">j:NeedSourceText: nc:TextType</text>
</a>
</g>
<polygon fill="#000000" stroke="#000000" points="528.5,-16 528.5,-16 769.5,-16 769.5,-16 528.5,-16"/>
<polygon fill="none" stroke="#000000" points="528,0 528,-32 769,-32 769,0 528,0"/>
</g>
<!-- j:NeedType&#45;&gt;subst_d9e36531 -->
<g id="edge3" class="edge">
<title>j:NeedType:e&#45;&gt;subst_d9e36531:w</title>
<path fill="none" stroke="#000000" d="M476.7155,-43.0887C497.3893,-39.1761 503.9098,-24 529.5,-24"/>
<polygon fill="#000000" stroke="#000000" points="476.1494,-39.6252 466.5,-44 476.7715,-46.5975 476.1494,-39.6252"/>
</g>
<!-- Properties -->
<g id="node5" class="node">
<title>Properties</title>
<text text-anchor="start" x="2.5" y="-132.4" font-family="Helvetica,sans-Serif" font-weight="bold" font-size="12.00" fill="#000000">Properties</text>
<g id="a_node5_13"><a xlink:href="../../j/Need/#diagram" xlink:title="A need that is characteristically defined within a need category from assessments that drive the purpose for rehabilitation programs that address subject needs." target="_top">
<polygon fill="#ebebeb" stroke="transparent" points="1.5,-112 1.5,-127 138.5,-127 138.5,-112 1.5,-112"/>
<text text-anchor="start" x="2.5" y="-116.4" font-family="Helvetica,sans-Serif" font-size="12.00" fill="#000000">j:Need</text>
</a>
</g>
<g id="a_node5_14"><a xlink:href="../../j/ParoleAssessmentNeed/#diagram" xlink:title="A kind of need identified for a subject with respect to their suitability for parole." target="_top">
<text text-anchor="start" x="2.5" y="-101.4" font-family="Helvetica,sans-Serif" font-size="12.00" fill="#000000">j:ParoleAssessmentNeed</text>
</a>
</g>
<g id="a_node5_15"><a xlink:href="../../j/SubjectNeed/#diagram" xlink:title="A set of details that represent what is necessary to help an individual be able to function effectively within a defined society." target="_top">
<polygon fill="#ebebeb" stroke="transparent" points="1.5,-82 1.5,-97 138.5,-97 138.5,-82 1.5,-82"/>
<text text-anchor="start" x="2.5" y="-86.4" font-family="Helvetica,sans-Serif" font-size="12.00" fill="#000000">j:SubjectNeed</text>
</a>
</g>
<polygon fill="#000000" stroke="#000000" points=".5,-127 .5,-127 139.5,-127 139.5,-127 .5,-127"/>
<polygon fill="none" stroke="#000000" points="0,-81 0,-143 139,-143 139,-81 0,-81"/>
</g>
<!-- Properties&#45;&gt;j:NeedType -->
<g id="edge4" class="edge">
<title>Properties:top&#45;&gt;j:NeedType:top</title>
<path fill="none" stroke="#000000" d="M138.5,-135C163.6649,-135 172.3891,-135 193.3154,-135"/>
<polygon fill="#000000" stroke="#000000" points="193.5,-138.5001 203.5,-135 193.5,-131.5001 193.5,-138.5001"/>
<text text-anchor="middle" x="168.5" y="-138.4" font-family="Helvetica,sans-Serif" font-size="12.00" fill="#000000">type</text>
</g>
<!-- structures:ObjectType -->
<g id="node6" class="node">
<title>structures:ObjectType</title>
<g id="a_node6_16"><a xlink:href="../../structures/ObjectType/#diagram" xlink:title="A data type for a thing with its own lifespan that has some existence." target="_top">
<text text-anchor="start" x="275.5" y="-187.4" font-family="Helvetica,sans-Serif" font-size="12.00" fill="#000000">structures:ObjectType</text>
</a>
</g>
<polygon fill="none" stroke="#000000" points="273.5,-182.5 273.5,-199.5 395.5,-199.5 395.5,-182.5 273.5,-182.5"/>
</g>
<!-- structures:ObjectType&#45;&gt;j:NeedType -->
<g id="edge5" class="edge">
<title>structures:ObjectType&#45;&gt;j:NeedType</title>
<path fill="none" stroke="#000000" d="M334.5,-182.3644C334.5,-176.2696 334.5,-167.4448 334.5,-157.522"/>
<polygon fill="#000000" stroke="#000000" points="338.0001,-157.2935 334.5,-147.2936 331.0001,-157.2936 338.0001,-157.2935"/>
<text text-anchor="middle" x="325" y="-161.65" font-family="Helvetica,sans-Serif" font-size="12.00" fill="#000000">extension</text>
</g>
</g>
</svg>
